<?xml version="1.0"?>
<svg xmlns:xlink="http://www.w3.org/1999/xlink" width="2170.8" height="2138.4">
<image x="0" y="0" width="2170.8" height="2138.4" xlink:href="ground16-04.png"/>
<g style="stroke-linecap:round">
<line x1="355.524638" y1="104.449442" x2="594.616565" y2="104.449442" stroke="black" stroke-width="4.05"/>
<line x1="594.616565" y1="104.449442" x2="594.616565" y2="67.591454" stroke="black" stroke-width="4.05"/>
<line x1="594.616565" y1="67.591454" x2="355.524638" y2="67.591454" stroke="black" stroke-width="4.05"/>
<line x1="355.524638" y1="67.591454" x2="355.524638" y2="104.449442" stroke="black" stroke-width="4.05"/>
<line x1="377.833417" y1="68.076428" x2="377.833417" y2="103.964468" stroke="black" stroke-width="4.05"/>
<line x1="571.822812" y1="68.076428" x2="571.822812" y2="105.419387" stroke="black" stroke-width="4.05"/>
<line x1="377.348447" y1="85.0505" x2="571.337838" y2="85.0505" stroke="black" stroke-width="4.05"/>
<line x1="1586.39715" y1="105.206782" x2="1826.184114" y2="105.206782" stroke="black" stroke-width="4.05"/>
<line x1="1826.184114" y1="105.206782" x2="1826.184114" y2="68.24165" stroke="black" stroke-width="4.05"/>
<line x1="1826.184114" y1="68.24165" x2="1586.39715" y2="68.24165" stroke="black" stroke-width="4.05"/>
<line x1="1586.39715" y1="68.24165" x2="1586.39715" y2="105.206782" stroke="black" stroke-width="4.05"/>
<line x1="1608.770783" y1="68.728036" x2="1608.770783" y2="104.720396" stroke="black" stroke-width="4.05"/>
<line x1="1803.3241" y1="68.728036" x2="1803.3241" y2="106.179548" stroke="black" stroke-width="4.05"/>
<line x1="1608.284398" y1="85.751449" x2="1802.837714" y2="85.751449" stroke="black" stroke-width="4.05"/>
<line x1="455.164369" y1="2021.61294" x2="214.682375" y2="2021.61294" stroke="black" stroke-width="4.05"/>
<line x1="214.682375" y1="2021.61294" x2="214.682375" y2="2058.685214" stroke="black" stroke-width="4.05"/>
<line x1="214.682375" y1="2058.685214" x2="455.164369" y2="2058.685214" stroke="black" stroke-width="4.05"/>
<line x1="455.164369" y1="2058.685214" x2="455.164369" y2="2021.61294" stroke="black" stroke-width="4.05"/>
<line x1="432.72589" y1="2058.197422" x2="432.72589" y2="2022.100733" stroke="black" stroke-width="4.05"/>
<line x1="237.608647" y1="2058.197422" x2="237.608647" y2="2020.637354" stroke="black" stroke-width="4.05"/>
<line x1="433.213682" y1="2041.124663" x2="238.096444" y2="2041.124663" stroke="black" stroke-width="4.05"/>
<line x1="1004.406336" y1="2020.979012" x2="764.619372" y2="2020.979012" stroke="black" stroke-width="4.05"/>
<line x1="764.619372" y1="2020.979012" x2="764.619372" y2="2057.944144" stroke="black" stroke-width="4.05"/>
<line x1="764.619372" y1="2057.944144" x2="1004.406336" y2="2057.944144" stroke="black" stroke-width="4.05"/>
<line x1="1004.406336" y1="2057.944144" x2="1004.406336" y2="2020.979012" stroke="black" stroke-width="4.05"/>
<line x1="982.032703" y1="2057.457758" x2="982.032703" y2="2021.465398" stroke="black" stroke-width="4.05"/>
<line x1="787.479386" y1="2057.457758" x2="787.479386" y2="2020.006246" stroke="black" stroke-width="4.05"/>
<line x1="982.519088" y1="2040.434345" x2="787.965772" y2="2040.434345" stroke="black" stroke-width="4.05"/>
<line x1="1502.318696" y1="2015.331124" x2="1262.548631" y2="2015.331124" stroke="black" stroke-width="4.05"/>
<line x1="1262.548631" y1="2015.331124" x2="1262.548631" y2="2058.216826" stroke="black" stroke-width="4.05"/>
<line x1="1262.548631" y1="2058.216826" x2="1502.318696" y2="2058.216826" stroke="black" stroke-width="4.05"/>
<line x1="1502.318696" y1="2058.216826" x2="1502.318696" y2="2015.331124" stroke="black" stroke-width="4.05"/>
<line x1="1491.109934" y1="2015.331124" x2="1491.109934" y2="2000.710998" stroke="black" stroke-width="4.05"/>
<line x1="1491.109934" y1="2000.710998" x2="1274.244732" y2="2000.710998" stroke="black" stroke-width="4.05"/>
<line x1="1274.244732" y1="2015.331124" x2="1274.244732" y2="2000.710998" stroke="black" stroke-width="4.05"/>
<line x1="1977.071191" y1="2021.28741" x2="1737.284227" y2="2021.28741" stroke="black" stroke-width="4.05"/>
<line x1="1737.284227" y1="2021.28741" x2="1737.284227" y2="2058.252541" stroke="black" stroke-width="4.05"/>
<line x1="1737.284227" y1="2058.252541" x2="1977.071191" y2="2058.252541" stroke="black" stroke-width="4.05"/>
<line x1="1977.071191" y1="2058.252541" x2="1977.071191" y2="2021.28741" stroke="black" stroke-width="4.05"/>
<line x1="1954.697558" y1="2057.766156" x2="1954.697558" y2="2021.773795" stroke="black" stroke-width="4.05"/>
<line x1="1760.144242" y1="2057.766156" x2="1760.144242" y2="2020.314643" stroke="black" stroke-width="4.05"/>
<line x1="1955.183944" y1="2040.742742" x2="1760.630627" y2="2040.742742" stroke="black" stroke-width="4.05"/>
<line x1="2064.218674" y1="203.981501" x2="2064.218674" y2="444.463495" stroke="black" stroke-width="4.05"/>
<line x1="2064.218674" y1="444.463495" x2="2101.290948" y2="444.463495" stroke="black" stroke-width="4.05"/>
<line x1="2101.290948" y1="444.463495" x2="2101.290948" y2="203.981501" stroke="black" stroke-width="4.05"/>
<line x1="2101.290948" y1="203.981501" x2="2064.218674" y2="203.981501" stroke="black" stroke-width="4.05"/>
<line x1="2100.803155" y1="226.41998" x2="2064.706466" y2="226.41998" stroke="black" stroke-width="4.05"/>
<line x1="2100.803155" y1="421.537223" x2="2063.243088" y2="421.537223" stroke="black" stroke-width="4.05"/>
<line x1="2083.730396" y1="225.932188" x2="2083.730396" y2="421.049426" stroke="black" stroke-width="4.05"/>
<line x1="2056.953535" y1="776.174944" x2="2056.953535" y2="1027.759766" stroke="black" stroke-width="4.05"/>
<line x1="2056.953535" y1="1027.759766" x2="2101.952448" y2="1027.759766" stroke="black" stroke-width="4.05"/>
<line x1="2101.952448" y1="1027.759766" x2="2101.952448" y2="776.174944" stroke="black" stroke-width="4.05"/>
<line x1="2101.952448" y1="776.174944" x2="2056.953535" y2="776.174944" stroke="black" stroke-width="4.05"/>
<line x1="2056.953535" y1="787.936021" x2="2041.612999" y2="787.936021" stroke="black" stroke-width="4.05"/>
<line x1="2041.612999" y1="787.936021" x2="2041.612999" y2="1015.487334" stroke="black" stroke-width="4.05"/>
<line x1="2056.953535" y1="1015.487334" x2="2041.612999" y2="1015.487334" stroke="black" stroke-width="4.05"/>
<line x1="2064.600925" y1="1369.92258" x2="2064.600925" y2="1611.794646" stroke="black" stroke-width="4.05"/>
<line x1="2064.600925" y1="1611.794646" x2="2101.887493" y2="1611.794646" stroke="black" stroke-width="4.05"/>
<line x1="2101.887493" y1="1611.794646" x2="2101.887493" y2="1369.92258" stroke="black" stroke-width="4.05"/>
<line x1="2101.887493" y1="1369.92258" x2="2064.600925" y2="1369.92258" stroke="black" stroke-width="4.05"/>
<line x1="2101.396882" y1="1392.490764" x2="2065.09154" y2="1392.490764" stroke="black" stroke-width="4.05"/>
<line x1="2101.396882" y1="1588.73585" x2="2063.619702" y2="1588.73585" stroke="black" stroke-width="4.05"/>
<line x1="2084.225436" y1="1392.000152" x2="2084.225436" y2="1588.245235" stroke="black" stroke-width="4.05"/>
<line x1="138.283542" y1="1589.658811" x2="138.283542" y2="1347.786745" stroke="black" stroke-width="4.05"/>
<line x1="138.283542" y1="1347.786745" x2="100.996974" y2="1347.786745" stroke="black" stroke-width="4.05"/>
<line x1="100.996974" y1="1347.786745" x2="100.996974" y2="1589.658811" stroke="black" stroke-width="4.05"/>
<line x1="100.996974" y1="1589.658811" x2="138.283542" y2="1589.658811" stroke="black" stroke-width="4.05"/>
<line x1="101.487586" y1="1567.090627" x2="137.792927" y2="1567.090627" stroke="black" stroke-width="4.05"/>
<line x1="101.487586" y1="1370.845541" x2="139.264765" y2="1370.845541" stroke="black" stroke-width="4.05"/>
<line x1="118.659031" y1="1567.581239" x2="118.659031" y2="1371.336156" stroke="black" stroke-width="4.05"/>
<line x1="145.345295" y1="909.129312" x2="145.345295" y2="667.274292" stroke="black" stroke-width="4.05"/>
<line x1="145.345295" y1="667.274292" x2="102.086672" y2="667.274292" stroke="black" stroke-width="4.05"/>
<line x1="102.086672" y1="667.274292" x2="102.086672" y2="909.129312" stroke="black" stroke-width="4.05"/>
<line x1="102.086672" y1="909.129312" x2="145.345295" y2="909.129312" stroke="black" stroke-width="4.05"/>
<line x1="145.345295" y1="897.82308" x2="160.092554" y2="897.82308" stroke="black" stroke-width="4.05"/>
<line x1="160.092554" y1="897.82308" x2="160.092554" y2="679.072097" stroke="black" stroke-width="4.05"/>
<line x1="145.345295" y1="679.072097" x2="160.092554" y2="679.072097" stroke="black" stroke-width="4.05"/>
<line x1="144.414853" y1="445.02601" x2="144.414853" y2="203.17099" stroke="black" stroke-width="4.05"/>
<line x1="144.414853" y1="203.17099" x2="101.156231" y2="203.17099" stroke="black" stroke-width="4.05"/>
<line x1="101.156231" y1="203.17099" x2="101.156231" y2="445.02601" stroke="black" stroke-width="4.05"/>
<line x1="101.156231" y1="445.02601" x2="144.414853" y2="445.02601" stroke="black" stroke-width="4.05"/>
<line x1="144.414853" y1="433.719778" x2="159.162113" y2="433.719778" stroke="black" stroke-width="4.05"/>
<line x1="159.162113" y1="433.719778" x2="159.162113" y2="214.968794" stroke="black" stroke-width="4.05"/>
<line x1="144.414853" y1="214.968794" x2="159.162113" y2="214.968794" stroke="black" stroke-width="4.05"/>
<line x1="760.64693" y1="716.035421" x2="551.281727" y2="716.035421" stroke="black" stroke-width="4.05"/>
<line x1="551.281727" y1="716.035421" x2="551.281727" y2="1047.249824" stroke="black" stroke-width="4.05"/>
<line x1="551.281727" y1="1047.249824" x2="760.64693" y2="1047.249824" stroke="black" stroke-width="4.05"/>
<line x1="760.64693" y1="1047.249824" x2="760.64693" y2="716.035421" stroke="black" stroke-width="4.05"/>
<line x1="761.32013" y1="988.008221" x2="550.608527" y2="988.008221" stroke="black" stroke-width="4.05"/>
<line x1="550.608527" y1="988.008221" x2="759.973727" y2="938.191421" stroke="black" stroke-width="4.05"/>
<line x1="759.973727" y1="938.191421" x2="728.333327" y2="891.740621" stroke="black" stroke-width="4.05"/>
<line x1="728.333327" y1="891.740621" x2="550.608527" y2="988.681424" stroke="black" stroke-width="4.05"/>
<line x1="1110.575106" y1="1028.171776" x2="1110.575106" y2="1007.813491" stroke="black" stroke-width="4.05"/>
<line x1="1110.575106" y1="1007.813491" x2="1070.851626" y2="1007.813491" stroke="black" stroke-width="4.05"/>
<line x1="1070.851626" y1="1007.813491" x2="1070.851626" y2="1028.171776" stroke="black" stroke-width="4.05"/>
<line x1="1070.851626" y1="1028.171776" x2="1110.575106" y2="1028.171776" stroke="black" stroke-width="4.05"/>
<line x1="1070.851626" y1="808.699558" x2="872.730778" y2="808.699558" stroke="black" stroke-width="4.05"/>
<line x1="1111.568191" y1="808.203013" x2="1111.568191" y2="787.844732" stroke="black" stroke-width="4.05"/>
<line x1="1111.568191" y1="787.844732" x2="1071.844715" y2="787.844732" stroke="black" stroke-width="4.05"/>
<line x1="1071.844715" y1="787.844732" x2="1071.844715" y2="808.203013" stroke="black" stroke-width="4.05"/>
<line x1="1071.844715" y1="808.203013" x2="1111.568191" y2="808.203013" stroke="black" stroke-width="4.05"/>
<path d="m 1072.341256,1007.813491 a 199.11393349999997,199.11393349999997 0 0 1 -199.11393399999997,-199.11393299999997" fill="none" stroke="black" stroke-width="4.05"/>
<line x1="913.136738" y1="247.05077" x2="1080.250153" y2="247.05077" stroke="black" stroke-width="4.05"/>
<line x1="1080.250153" y1="247.05077" x2="1080.250153" y2="414.506628" stroke="black" stroke-width="4.05"/>
<line x1="1080.250153" y1="414.506628" x2="913.136738" y2="414.506628" stroke="black" stroke-width="4.05"/>
<line x1="913.136738" y1="414.506628" x2="913.136738" y2="247.05077" stroke="black" stroke-width="4.05"/>
<line x1="912.794296" y1="246.708324" x2="1080.250153" y2="414.506628" stroke="black" stroke-width="4.05"/>
<line x1="913.136738" y1="414.164185" x2="1079.90771" y2="247.05077" stroke="black" stroke-width="4.05"/>
<line x1="378.524182" y1="148.215992" x2="205.182374" y2="265.136519" stroke="black" stroke-width="4.05"/>
<line x1="205.182374" y1="265.136519" x2="334.857866" y2="457.388341" stroke="black" stroke-width="4.05"/>
<line x1="334.857866" y1="457.388341" x2="508.199674" y2="340.467815" stroke="black" stroke-width="4.05"/>
<line x1="508.199674" y1="340.467815" x2="378.524182" y2="148.215992" stroke="black" stroke-width="4.05"/>
<line x1="396.593719" y1="175.005184" x2="223.251908" y2="291.925706" stroke="black" stroke-width="4.05"/>
<line x1="1637.344138" y1="572.730257" x2="2030.644984" y2="572.730257" stroke="black" stroke-width="4.05"/>
<line x1="2030.644984" y1="572.730257" x2="2030.644984" y2="397.576033" stroke="black" stroke-width="4.05"/>
<line x1="2030.644984" y1="397.576033" x2="1637.344138" y2="397.576033" stroke="black" stroke-width="4.05"/>
<line x1="1637.344138" y1="397.576033" x2="1637.344138" y2="572.730257" stroke="black" stroke-width="4.05"/>
<line x1="1955.010204" y1="424.645322" x2="1669.190357" y2="424.645322" stroke="black" stroke-width="4.05"/>
<line x1="1669.190357" y1="424.645322" x2="1669.190357" y2="543.272501" stroke="black" stroke-width="4.05"/>
<line x1="1669.190357" y1="543.272501" x2="1960.583292" y2="543.272501" stroke="black" stroke-width="4.05"/>
<path d="m 1954.19538,424.388556 a 63.69244503127078,63.69244503127078 0 0 1 4.316342000000077,120.00067899999999" fill="none" stroke="black" stroke-width="4.05"/>
<line x1="1132.995863" y1="600.926753" x2="1153.236467" y2="600.926753" stroke="black" stroke-width="4.05"/>
<line x1="1153.236467" y1="600.926753" x2="1153.236467" y2="561.432888" stroke="black" stroke-width="4.05"/>
<line x1="1153.236467" y1="561.432888" x2="1132.995863" y2="561.432888" stroke="black" stroke-width="4.05"/>
<line x1="1132.995863" y1="561.432888" x2="1132.995863" y2="600.926753" stroke="black" stroke-width="4.05"/>
<line x1="1351.199455" y1="561.432888" x2="1351.199455" y2="364.45725" stroke="black" stroke-width="4.05"/>
<line x1="1351.693127" y1="601.9141" x2="1371.933731" y2="601.9141" stroke="black" stroke-width="4.05"/>
<line x1="1371.933731" y1="601.9141" x2="1371.933731" y2="562.420235" stroke="black" stroke-width="4.05"/>
<line x1="1371.933731" y1="562.420235" x2="1351.693127" y2="562.420235" stroke="black" stroke-width="4.05"/>
<line x1="1351.693127" y1="562.420235" x2="1351.693127" y2="601.9141" stroke="black" stroke-width="4.05"/>
<path d="m 1153.236467,562.91391 a 197.962988,197.962988 0 0 1 197.962988,-197.962988" fill="none" stroke="black" stroke-width="4.05"/>
<line x1="1282.899294" y1="118.269126" x2="1553.446494" y2="118.269126" stroke="black" stroke-width="4.05"/>
<line x1="1553.446494" y1="118.269126" x2="1553.446494" y2="250.216326" stroke="black" stroke-width="4.05"/>
<line x1="1282.899294" y1="250.216326" x2="1553.446494" y2="250.216326" stroke="black" stroke-width="4.05"/>
<line x1="1282.899294" y1="118.269126" x2="1282.899294" y2="250.216326" stroke="black" stroke-width="4.05"/>
<line x1="1289.552094" y1="124.921926" x2="1427.597694" y2="124.921926" stroke="black" stroke-width="4.05"/>
<line x1="1427.597694" y1="124.921926" x2="1427.597694" y2="243.009126" stroke="black" stroke-width="4.05"/>
<line x1="1289.552094" y1="243.009126" x2="1427.597694" y2="243.009126" stroke="black" stroke-width="4.05"/>
<line x1="1289.552094" y1="124.921926" x2="1289.552094" y2="243.009126" stroke="black" stroke-width="4.05"/>
<line x1="1442.012094" y1="132.683526" x2="1539.032094" y2="132.683526" stroke="black" stroke-width="4.05"/>
<line x1="1442.012094" y1="153.196326" x2="1539.032094" y2="153.196326" stroke="black" stroke-width="4.05"/>
<line x1="1442.566494" y1="174.263526" x2="1539.586494" y2="174.263526" stroke="black" stroke-width="4.05"/>
<line x1="1442.566494" y1="194.776326" x2="1539.586494" y2="194.776326" stroke="black" stroke-width="4.05"/>
<line x1="1442.012094" y1="215.289126" x2="1539.032094" y2="215.289126" stroke="black" stroke-width="4.05"/>
<line x1="1442.012094" y1="235.801926" x2="1539.032094" y2="235.801926" stroke="black" stroke-width="4.05"/>
<line x1="1342.220094" y1="243.009126" x2="1342.220094" y2="229.149126" stroke="black" stroke-width="4.05"/>
<line x1="1342.220094" y1="229.149126" x2="1376.592894" y2="229.149126" stroke="black" stroke-width="4.05"/>
<line x1="1376.592894" y1="229.149126" x2="1376.592894" y2="242.454726" stroke="black" stroke-width="4.05"/>
<circle cx="1412.074494" cy="139.890726" r="8.316000000000003" fill="none" stroke="black" stroke-width="4.05"/>
<line x1="2034.234756" y1="166.642459" x2="1850.312599" y2="166.642459" stroke="black" stroke-width="4.05"/>
<line x1="1850.312599" y1="166.642459" x2="1850.312599" y2="117.490849" stroke="black" stroke-width="4.05"/>
<line x1="2034.234756" y1="117.490849" x2="1850.312599" y2="117.490849" stroke="black" stroke-width="4.05"/>
<line x1="2034.234756" y1="166.642459" x2="2034.234756" y2="117.490849" stroke="black" stroke-width="4.05"/>
<line x1="1992.61444" y1="194.389337" x2="1992.61444" y2="166.642459" stroke="black" stroke-width="4.05"/>
<line x1="1893.518453" y1="166.642459" x2="1893.518453" y2="195.974874" stroke="black" stroke-width="4.05"/>
<circle cx="1943.859215" cy="239.577106" r="66.59250380904014" fill="none" stroke="black" stroke-width="4.05"/>
<circle cx="1943.859215" cy="239.577106" r="57.07928897917725" fill="none" stroke="black" stroke-width="4.05"/>
<line x1="1395.085691" y1="798.896383" x2="1395.085691" y2="819.136987" stroke="black" stroke-width="4.05"/>
<line x1="1395.085691" y1="819.136987" x2="1434.579556" y2="819.136987" stroke="black" stroke-width="4.05"/>
<line x1="1434.579556" y1="819.136987" x2="1434.579556" y2="798.896383" stroke="black" stroke-width="4.05"/>
<line x1="1434.579556" y1="798.896383" x2="1395.085691" y2="798.896383" stroke="black" stroke-width="4.05"/>
<line x1="1434.579556" y1="1017.099976" x2="1631.555194" y2="1017.099976" stroke="black" stroke-width="4.05"/>
<line x1="1394.098344" y1="1017.593647" x2="1394.098344" y2="1037.834251" stroke="black" stroke-width="4.05"/>
<line x1="1394.098344" y1="1037.834251" x2="1433.592209" y2="1037.834251" stroke="black" stroke-width="4.05"/>
<line x1="1433.592209" y1="1037.834251" x2="1433.592209" y2="1017.593647" stroke="black" stroke-width="4.05"/>
<line x1="1433.592209" y1="1017.593647" x2="1394.098344" y2="1017.593647" stroke="black" stroke-width="4.05"/>
<path d="m 1433.098534,819.136987 a 197.9629885,197.9629885 0 0 1 197.962988,197.962989" fill="none" stroke="black" stroke-width="4.05"/>
<line x1="1274.059418" y1="1455.361884" x2="1565.990489" y2="1718.217796" stroke="black" stroke-width="4.05"/>
<line x1="1565.990489" y1="1718.217796" x2="1689.469175" y2="1581.080828" stroke="black" stroke-width="4.05"/>
<line x1="1689.469175" y1="1581.080828" x2="1397.538104" y2="1318.22491" stroke="black" stroke-width="4.05"/>
<line x1="1397.538104" y1="1318.22491" x2="1274.059418" y2="1455.361884" stroke="black" stroke-width="4.05"/>
<line x1="1515.840815" y1="1424.745151" x2="1569.895866" y2="1364.710936" stroke="black" stroke-width="4.05"/>
<line x1="1569.895866" y1="1364.710936" x2="1511.627364" y2="1312.245745" stroke="black" stroke-width="4.05"/>
<line x1="1511.627364" y1="1312.245745" x2="1457.572316" y2="1372.279957" stroke="black" stroke-width="4.05"/>
<line x1="1500.557" y1="1325.724253" x2="1558.236931" y2="1377.659495" stroke="black" stroke-width="4.05"/>
<line x1="1279.508634" y1="1570.039715" x2="1337.777132" y2="1622.504905" stroke="black" stroke-width="4.05"/>
<line x1="1337.777132" y1="1622.504905" x2="1392.362129" y2="1561.882126" stroke="black" stroke-width="4.05"/>
<line x1="1334.093634" y1="1509.416932" x2="1279.508634" y2="1570.039715" stroke="black" stroke-width="4.05"/>
<line x1="1291.756136" y1="1557.621108" x2="1349.436064" y2="1609.55635" stroke="black" stroke-width="4.05"/>
<line x1="1628.25782" y1="1525.965876" x2="1682.312868" y2="1465.93166" stroke="black" stroke-width="4.05"/>
<line x1="1682.312868" y1="1465.93166" x2="1624.044366" y2="1413.46647" stroke="black" stroke-width="4.05"/>
<line x1="1624.044366" y1="1413.46647" x2="1569.989322" y2="1473.500682" stroke="black" stroke-width="4.05"/>
<line x1="1612.385438" y1="1426.415026" x2="1670.653933" y2="1478.88022" stroke="black" stroke-width="4.05"/>
<line x1="1391.925636" y1="1671.260436" x2="1450.194138" y2="1723.72563" stroke="black" stroke-width="4.05"/>
<line x1="1450.194138" y1="1723.72563" x2="1504.779134" y2="1663.10285" stroke="black" stroke-width="4.05"/>
<line x1="1446.510636" y1="1610.637656" x2="1391.925636" y2="1671.260436" stroke="black" stroke-width="4.05"/>
<line x1="1403.584567" y1="1658.311884" x2="1461.853069" y2="1710.777074" stroke="black" stroke-width="4.05"/>
<line x1="948.227083" y1="1270.405984" x2="948.227083" y2="1080.325984" stroke="black" stroke-width="4.05"/>
<line x1="948.227083" y1="1080.325984" x2="484.431883" y2="1080.325984" stroke="black" stroke-width="4.05"/>
<line x1="484.431883" y1="1080.325984" x2="484.431883" y2="1270.405984" stroke="black" stroke-width="4.05"/>
<line x1="484.431883" y1="1270.405984" x2="508.191883" y2="1270.405984" stroke="black" stroke-width="4.05"/>
<line x1="508.191883" y1="1270.405984" x2="508.191883" y2="1103.135584" stroke="black" stroke-width="4.05"/>
<line x1="508.191883" y1="1103.135584" x2="923.516683" y2="1103.135584" stroke="black" stroke-width="4.05"/>
<line x1="923.516683" y1="1103.135584" x2="923.516683" y2="1270.405984" stroke="black" stroke-width="4.05"/>
<line x1="923.516683" y1="1270.405984" x2="948.227083" y2="1270.405984" stroke="black" stroke-width="4.05"/>
<line x1="923.516683" y1="1264.703584" x2="508.191883" y2="1264.703584" stroke="black" stroke-width="4.05"/>
<line x1="716.329483" y1="1265.653984" x2="716.329483" y2="1104.085984" stroke="black" stroke-width="4.05"/>
<line x1="611.872427" y1="1374.242098" x2="721.378436" y2="1432.467475" stroke="black" stroke-width="4.049996"/>
<line x1="721.378436" y1="1432.467475" x2="663.03374" y2="1542.197884" stroke="black" stroke-width="4.049996"/>
<line x1="663.03374" y1="1542.197884" x2="553.527731" y2="1483.972506" stroke="black" stroke-width="4.049996"/>
<line x1="553.527731" y1="1483.972506" x2="611.872427" y2="1374.242098" stroke="black" stroke-width="4.049996"/>
<line x1="611.767343" y1="1373.898384" x2="663.03374" y2="1542.197884" stroke="black" stroke-width="4.049996"/>
<line x1="553.647046" y1="1483.748107" x2="721.154038" y2="1432.348164" stroke="black" stroke-width="4.049996"/>
<line x1="1819.466222" y1="1957.558183" x2="1819.466222" y2="1725.660583" stroke="black" stroke-width="4.05"/>
<line x1="1819.466222" y1="1725.660583" x2="2051.839022" y2="1725.660583" stroke="black" stroke-width="4.05"/>
<line x1="2051.839022" y1="1725.660583" x2="2051.839022" y2="1957.558183" stroke="black" stroke-width="4.05"/>
<line x1="2051.839022" y1="1957.558183" x2="1819.466222" y2="1957.558183" stroke="black" stroke-width="4.05"/>
<line x1="1818.991022" y1="1958.033383" x2="2051.839022" y2="1725.660583" stroke="black" stroke-width="4.05"/>
<line x1="2051.363822" y1="1957.558183" x2="1819.466222" y2="1726.135783" stroke="black" stroke-width="4.05"/>
<line x1="194.729947" y1="1533.888821" x2="286.388093" y2="1721.815866" stroke="black" stroke-width="4.05"/>
<line x1="286.388093" y1="1721.815866" x2="494.816274" y2="1620.158652" stroke="black" stroke-width="4.05"/>
<line x1="494.816274" y1="1620.158652" x2="403.158128" y2="1432.2316" stroke="black" stroke-width="4.05"/>
<line x1="403.158128" y1="1432.2316" x2="194.729947" y2="1533.888821" stroke="black" stroke-width="4.05"/>
<line x1="223.773221" y1="1519.723469" x2="315.431363" y2="1707.650518" stroke="black" stroke-width="4.05"/>
<line x1="1799.832056" y1="1048.556923" x2="2008.920056" y2="1048.556923" stroke="black" stroke-width="4.05"/>
<line x1="2008.920056" y1="1048.556923" x2="2008.920056" y2="816.659323" stroke="black" stroke-width="4.05"/>
<line x1="2008.920056" y1="816.659323" x2="1799.832056" y2="816.659323" stroke="black" stroke-width="4.05"/>
<line x1="1799.832056" y1="816.659323" x2="1799.832056" y2="1048.556923" stroke="black" stroke-width="4.05"/>
<line x1="1799.832056" y1="1016.243323" x2="2008.920056" y2="1016.243323" stroke="black" stroke-width="4.05"/>
<line x1="1045.884953" y1="1700.653957" x2="1130.9287" y2="1509.642565" stroke="black" stroke-width="4.05"/>
<line x1="1130.9287" y1="1509.642565" x2="919.079701" y2="1415.321312" stroke="black" stroke-width="4.05"/>
<line x1="919.079701" y1="1415.321312" x2="834.035954" y2="1606.332712" stroke="black" stroke-width="4.05"/>
<line x1="834.035954" y1="1606.332712" x2="1045.884953" y2="1700.653957" stroke="black" stroke-width="4.05"/>
<line x1="1016.36501" y1="1687.510832" x2="1101.408757" y2="1496.49944" stroke="black" stroke-width="4.05"/>
<line x1="1666.989774" y1="604.690222" x2="1833.081988" y2="604.690222" stroke="black" stroke-width="4.05"/>
<line x1="1833.081988" y1="604.690222" x2="1833.081988" y2="771.122786" stroke="black" stroke-width="4.05"/>
<line x1="1833.081988" y1="771.122786" x2="1666.989774" y2="771.122786" stroke="black" stroke-width="4.05"/>
<line x1="1666.989774" y1="771.122786" x2="1666.989774" y2="604.690222" stroke="black" stroke-width="4.05"/>
<line x1="1666.649423" y1="604.34987" x2="1833.081988" y2="771.122786" stroke="black" stroke-width="4.05"/>
<line x1="1666.989774" y1="770.782435" x2="1832.741633" y2="604.690222" stroke="black" stroke-width="4.05"/>
<line x1="1832.995789" y1="604.424074" x2="1999.088003" y2="604.424074" stroke="black" stroke-width="4.05"/>
<line x1="1999.088003" y1="604.424074" x2="1999.088003" y2="770.856638" stroke="black" stroke-width="4.05"/>
<line x1="1999.088003" y1="770.856638" x2="1832.995789" y2="770.856638" stroke="black" stroke-width="4.05"/>
<line x1="1832.995789" y1="770.856638" x2="1832.995789" y2="604.424074" stroke="black" stroke-width="4.05"/>
<line x1="1832.655438" y1="604.083722" x2="1999.088003" y2="770.856638" stroke="black" stroke-width="4.05"/>
<line x1="1832.995789" y1="770.516287" x2="1998.747648" y2="604.424074" stroke="black" stroke-width="4.05"/>
<line x1="1501.570829" y1="604.276909" x2="1667.663042" y2="604.276909" stroke="black" stroke-width="4.05"/>
<line x1="1667.663042" y1="604.276909" x2="1667.663042" y2="770.709474" stroke="black" stroke-width="4.05"/>
<line x1="1667.663042" y1="770.709474" x2="1501.570829" y2="770.709474" stroke="black" stroke-width="4.05"/>
<line x1="1501.570829" y1="770.709474" x2="1501.570829" y2="604.276909" stroke="black" stroke-width="4.05"/>
<line x1="1501.230478" y1="603.936558" x2="1667.663042" y2="770.709474" stroke="black" stroke-width="4.05"/>
<line x1="1501.570829" y1="770.369123" x2="1667.322688" y2="604.276909" stroke="black" stroke-width="4.05"/>
<line x1="1886.55296" y1="1077.238843" x2="2052.645174" y2="1077.238843" stroke="black" stroke-width="4.05"/>
<line x1="2052.645174" y1="1077.238843" x2="2052.645174" y2="1243.671408" stroke="black" stroke-width="4.05"/>
<line x1="2052.645174" y1="1243.671408" x2="1886.55296" y2="1243.671408" stroke="black" stroke-width="4.05"/>
<line x1="1886.55296" y1="1243.671408" x2="1886.55296" y2="1077.238843" stroke="black" stroke-width="4.05"/>
<line x1="1886.212609" y1="1076.898492" x2="2052.645174" y2="1243.671408" stroke="black" stroke-width="4.05"/>
<line x1="1886.55296" y1="1243.331057" x2="2052.304819" y2="1077.238843" stroke="black" stroke-width="4.05"/>
<line x1="1915.896632" y1="1644.870398" x2="1915.896632" y2="1251.626526" stroke="black" stroke-width="4.05"/>
<line x1="1914.90035" y1="1247.67112" x2="2050.969126" y2="1247.67112" stroke="black" stroke-width="4.05"/>
<line x1="2052.120632" y1="1644.406009" x2="2052.120632" y2="1247.365778" stroke="black" stroke-width="4.05"/>
<line x1="1916.591382" y1="1643.67112" x2="2051.855438" y2="1643.67112" stroke="black" stroke-width="4.05"/>
<line x1="1926.984632" y1="1633.37512" x2="1926.984632" y2="1509.82312" stroke="black" stroke-width="4.05"/>
<line x1="1926.984632" y1="1509.82312" x2="2041.032632" y2="1509.82312" stroke="black" stroke-width="4.05"/>
<line x1="2041.032632" y1="1633.37512" x2="2041.032632" y2="1509.82312" stroke="black" stroke-width="4.05"/>
<line x1="1926.984632" y1="1633.37512" x2="2041.032632" y2="1633.37512" stroke="black" stroke-width="4.05"/>
<line x1="1934.112632" y1="1490.81512" x2="1934.112632" y2="1403.69512" stroke="black" stroke-width="4.05"/>
<line x1="1953.912632" y1="1490.81512" x2="1953.912632" y2="1403.69512" stroke="black" stroke-width="4.05"/>
<line x1="1974.504632" y1="1490.02312" x2="1974.504632" y2="1403.69512" stroke="black" stroke-width="4.05"/>
<line x1="1994.304632" y1="1490.02312" x2="1994.304632" y2="1403.69512" stroke="black" stroke-width="4.05"/>
<line x1="2014.104632" y1="1490.81512" x2="2014.104632" y2="1403.69512" stroke="black" stroke-width="4.05"/>
<line x1="2033.904632" y1="1490.81512" x2="2033.904632" y2="1403.69512" stroke="black" stroke-width="4.05"/>
<line x1="2040.240632" y1="1585.85512" x2="2026.776632" y2="1585.85512" stroke="black" stroke-width="4.05"/>
<line x1="2026.776632" y1="1585.85512" x2="2026.776632" y2="1555.75912" stroke="black" stroke-width="4.05"/>
<line x1="2026.776632" y1="1555.75912" x2="2039.448632" y2="1555.75912" stroke="black" stroke-width="4.05"/>
<line x1="1926.984632" y1="1383.10312" x2="1926.984632" y2="1259.55112" stroke="black" stroke-width="4.05"/>
<line x1="1926.984632" y1="1259.55112" x2="2041.032632" y2="1259.55112" stroke="black" stroke-width="4.05"/>
<line x1="2041.032632" y1="1383.10312" x2="2041.032632" y2="1259.55112" stroke="black" stroke-width="4.05"/>
<line x1="1926.984632" y1="1383.10312" x2="2041.032632" y2="1383.10312" stroke="black" stroke-width="4.05"/>
<line x1="2041.032632" y1="1335.58312" x2="2027.568632" y2="1335.58312" stroke="black" stroke-width="4.05"/>
<line x1="2027.568632" y1="1335.58312" x2="2027.568632" y2="1305.48712" stroke="black" stroke-width="4.05"/>
<line x1="2027.568632" y1="1305.48712" x2="2040.240632" y2="1305.48712" stroke="black" stroke-width="4.05"/>
<circle cx="1941.240632" cy="1524.07912" r="7.128000000000001" fill="none" stroke="black" stroke-width="4.05"/>
<circle cx="1942.032632" cy="1273.80712" r="7.128000000000001" fill="none" stroke="black" stroke-width="4.05"/>
</g>
</svg>
