<?xml version="1.0"?>
<svg xmlns:xlink="http://www.w3.org/1999/xlink" width="2170.8" height="2138.4">
<image x="0" y="0" width="2170.8" height="2138.4" xlink:href="ground16-04.png"/>
<g style="stroke-linecap:round">
<line x1="355.524638" y1="104.449442" x2="594.616565" y2="104.449442" stroke="black" stroke-width="4.05"/>
<line x1="594.616565" y1="104.449442" x2="594.616565" y2="67.591454" stroke="black" stroke-width="4.05"/>
<line x1="594.616565" y1="67.591454" x2="355.524638" y2="67.591454" stroke="black" stroke-width="4.05"/>
<line x1="355.524638" y1="67.591454" x2="355.524638" y2="104.449442" stroke="black" stroke-width="4.05"/>
<line x1="377.833417" y1="68.076428" x2="377.833417" y2="103.964468" stroke="black" stroke-width="4.05"/>
<line x1="571.822812" y1="68.076428" x2="571.822812" y2="105.419387" stroke="black" stroke-width="4.05"/>
<line x1="377.348447" y1="85.0505" x2="571.337838" y2="85.0505" stroke="black" stroke-width="4.05"/>
<line x1="1586.405599" y1="111.127352" x2="1826.175665" y2="111.127352" stroke="black" stroke-width="4.05"/>
<line x1="1826.175665" y1="111.127352" x2="1826.175665" y2="68.24165" stroke="black" stroke-width="4.05"/>
<line x1="1826.175665" y1="68.24165" x2="1586.405599" y2="68.24165" stroke="black" stroke-width="4.05"/>
<line x1="1586.405599" y1="68.24165" x2="1586.405599" y2="111.127352" stroke="black" stroke-width="4.05"/>
<line x1="1597.614361" y1="111.127352" x2="1597.614361" y2="125.747478" stroke="black" stroke-width="4.05"/>
<line x1="1597.614361" y1="125.747478" x2="1814.479564" y2="125.747478" stroke="black" stroke-width="4.05"/>
<line x1="1814.479564" y1="111.127352" x2="1814.479564" y2="125.747478" stroke="black" stroke-width="4.05"/>
<line x1="455.155898" y1="2015.675204" x2="214.690846" y2="2015.675204" stroke="black" stroke-width="4.05"/>
<line x1="214.690846" y1="2015.675204" x2="214.690846" y2="2058.685214" stroke="black" stroke-width="4.05"/>
<line x1="214.690846" y1="2058.685214" x2="455.155898" y2="2058.685214" stroke="black" stroke-width="4.05"/>
<line x1="455.155898" y1="2058.685214" x2="455.155898" y2="2015.675204" stroke="black" stroke-width="4.05"/>
<line x1="443.914646" y1="2015.675204" x2="443.914646" y2="2001.012703" stroke="black" stroke-width="4.05"/>
<line x1="443.914646" y1="2001.012703" x2="226.420848" y2="2001.012703" stroke="black" stroke-width="4.05"/>
<line x1="226.420848" y1="2015.675204" x2="226.420848" y2="2001.012703" stroke="black" stroke-width="4.05"/>
<line x1="1004.406336" y1="2020.979012" x2="764.619372" y2="2020.979012" stroke="black" stroke-width="4.05"/>
<line x1="764.619372" y1="2020.979012" x2="764.619372" y2="2057.944144" stroke="black" stroke-width="4.05"/>
<line x1="764.619372" y1="2057.944144" x2="1004.406336" y2="2057.944144" stroke="black" stroke-width="4.05"/>
<line x1="1004.406336" y1="2057.944144" x2="1004.406336" y2="2020.979012" stroke="black" stroke-width="4.05"/>
<line x1="982.032703" y1="2057.457758" x2="982.032703" y2="2021.465398" stroke="black" stroke-width="4.05"/>
<line x1="787.479386" y1="2057.457758" x2="787.479386" y2="2020.006246" stroke="black" stroke-width="4.05"/>
<line x1="982.519088" y1="2040.434345" x2="787.965772" y2="2040.434345" stroke="black" stroke-width="4.05"/>
<line x1="1502.327146" y1="2021.251694" x2="1262.540182" y2="2021.251694" stroke="black" stroke-width="4.05"/>
<line x1="1262.540182" y1="2021.251694" x2="1262.540182" y2="2058.216826" stroke="black" stroke-width="4.05"/>
<line x1="1262.540182" y1="2058.216826" x2="1502.327146" y2="2058.216826" stroke="black" stroke-width="4.05"/>
<line x1="1502.327146" y1="2058.216826" x2="1502.327146" y2="2021.251694" stroke="black" stroke-width="4.05"/>
<line x1="1479.953513" y1="2057.73044" x2="1479.953513" y2="2021.73808" stroke="black" stroke-width="4.05"/>
<line x1="1285.400196" y1="2057.73044" x2="1285.400196" y2="2020.278928" stroke="black" stroke-width="4.05"/>
<line x1="1480.439898" y1="2040.707027" x2="1285.886581" y2="2040.707027" stroke="black" stroke-width="4.05"/>
<line x1="1977.071191" y1="2021.28741" x2="1737.284227" y2="2021.28741" stroke="black" stroke-width="4.05"/>
<line x1="1737.284227" y1="2021.28741" x2="1737.284227" y2="2058.252541" stroke="black" stroke-width="4.05"/>
<line x1="1737.284227" y1="2058.252541" x2="1977.071191" y2="2058.252541" stroke="black" stroke-width="4.05"/>
<line x1="1977.071191" y1="2058.252541" x2="1977.071191" y2="2021.28741" stroke="black" stroke-width="4.05"/>
<line x1="1954.697558" y1="2057.766156" x2="1954.697558" y2="2021.773795" stroke="black" stroke-width="4.05"/>
<line x1="1760.144242" y1="2057.766156" x2="1760.144242" y2="2020.314643" stroke="black" stroke-width="4.05"/>
<line x1="1955.183944" y1="2040.742742" x2="1760.630627" y2="2040.742742" stroke="black" stroke-width="4.05"/>
<line x1="2064.218674" y1="203.981501" x2="2064.218674" y2="444.463495" stroke="black" stroke-width="4.05"/>
<line x1="2064.218674" y1="444.463495" x2="2101.290948" y2="444.463495" stroke="black" stroke-width="4.05"/>
<line x1="2101.290948" y1="444.463495" x2="2101.290948" y2="203.981501" stroke="black" stroke-width="4.05"/>
<line x1="2101.290948" y1="203.981501" x2="2064.218674" y2="203.981501" stroke="black" stroke-width="4.05"/>
<line x1="2100.803155" y1="226.41998" x2="2064.706466" y2="226.41998" stroke="black" stroke-width="4.05"/>
<line x1="2100.803155" y1="421.537223" x2="2063.243088" y2="421.537223" stroke="black" stroke-width="4.05"/>
<line x1="2083.730396" y1="225.932188" x2="2083.730396" y2="421.049426" stroke="black" stroke-width="4.05"/>
<line x1="2062.857866" y1="776.16608" x2="2062.857866" y2="1027.768633" stroke="black" stroke-width="4.05"/>
<line x1="2062.857866" y1="1027.768633" x2="2101.644464" y2="1027.768633" stroke="black" stroke-width="4.05"/>
<line x1="2101.644464" y1="1027.768633" x2="2101.644464" y2="776.16608" stroke="black" stroke-width="4.05"/>
<line x1="2101.644464" y1="776.16608" x2="2062.857866" y2="776.16608" stroke="black" stroke-width="4.05"/>
<line x1="2101.134114" y1="799.642181" x2="2063.368217" y2="799.642181" stroke="black" stroke-width="4.05"/>
<line x1="2101.134114" y1="1003.782182" x2="2061.837166" y2="1003.782182" stroke="black" stroke-width="4.05"/>
<line x1="2083.271864" y1="799.13183" x2="2083.271864" y2="1003.271832" stroke="black" stroke-width="4.05"/>
<line x1="2064.600925" y1="1369.92258" x2="2064.600925" y2="1611.794646" stroke="black" stroke-width="4.05"/>
<line x1="2064.600925" y1="1611.794646" x2="2101.887493" y2="1611.794646" stroke="black" stroke-width="4.05"/>
<line x1="2101.887493" y1="1611.794646" x2="2101.887493" y2="1369.92258" stroke="black" stroke-width="4.05"/>
<line x1="2101.887493" y1="1369.92258" x2="2064.600925" y2="1369.92258" stroke="black" stroke-width="4.05"/>
<line x1="2101.396882" y1="1392.490764" x2="2065.09154" y2="1392.490764" stroke="black" stroke-width="4.05"/>
<line x1="2101.396882" y1="1588.73585" x2="2063.619702" y2="1588.73585" stroke="black" stroke-width="4.05"/>
<line x1="2084.225436" y1="1392.000152" x2="2084.225436" y2="1588.245235" stroke="black" stroke-width="4.05"/>
<line x1="144.255596" y1="1589.650286" x2="144.255596" y2="1347.795266" stroke="black" stroke-width="4.05"/>
<line x1="144.255596" y1="1347.795266" x2="100.996974" y2="1347.795266" stroke="black" stroke-width="4.05"/>
<line x1="100.996974" y1="1347.795266" x2="100.996974" y2="1589.650286" stroke="black" stroke-width="4.05"/>
<line x1="100.996974" y1="1589.650286" x2="144.255596" y2="1589.650286" stroke="black" stroke-width="4.05"/>
<line x1="144.255596" y1="1578.344054" x2="159.002856" y2="1578.344054" stroke="black" stroke-width="4.05"/>
<line x1="159.002856" y1="1578.344054" x2="159.002856" y2="1359.593071" stroke="black" stroke-width="4.05"/>
<line x1="144.255596" y1="1359.593071" x2="159.002856" y2="1359.593071" stroke="black" stroke-width="4.05"/>
<line x1="139.37324" y1="909.137837" x2="139.37324" y2="667.265771" stroke="black" stroke-width="4.05"/>
<line x1="139.37324" y1="667.265771" x2="102.086672" y2="667.265771" stroke="black" stroke-width="4.05"/>
<line x1="102.086672" y1="667.265771" x2="102.086672" y2="909.137837" stroke="black" stroke-width="4.05"/>
<line x1="102.086672" y1="909.137837" x2="139.37324" y2="909.137837" stroke="black" stroke-width="4.05"/>
<line x1="102.577284" y1="886.569653" x2="138.882625" y2="886.569653" stroke="black" stroke-width="4.05"/>
<line x1="102.577284" y1="690.324566" x2="140.354464" y2="690.324566" stroke="black" stroke-width="4.05"/>
<line x1="119.74873" y1="887.060264" x2="119.74873" y2="690.815182" stroke="black" stroke-width="4.05"/>
<line x1="138.442799" y1="445.034534" x2="138.442799" y2="203.162468" stroke="black" stroke-width="4.05"/>
<line x1="138.442799" y1="203.162468" x2="101.156231" y2="203.162468" stroke="black" stroke-width="4.05"/>
<line x1="101.156231" y1="203.162468" x2="101.156231" y2="445.034534" stroke="black" stroke-width="4.05"/>
<line x1="101.156231" y1="445.034534" x2="138.442799" y2="445.034534" stroke="black" stroke-width="4.05"/>
<line x1="101.646842" y1="422.46635" x2="137.952184" y2="422.46635" stroke="black" stroke-width="4.05"/>
<line x1="101.646842" y1="226.221264" x2="139.424022" y2="226.221264" stroke="black" stroke-width="4.05"/>
<line x1="118.818288" y1="422.956962" x2="118.818288" y2="226.711879" stroke="black" stroke-width="4.05"/>
<line x1="793.981264" y1="716.113854" x2="584.61606" y2="716.113854" stroke="black" stroke-width="4.05"/>
<line x1="584.61606" y1="716.113854" x2="584.61606" y2="1047.328258" stroke="black" stroke-width="4.05"/>
<line x1="584.61606" y1="1047.328258" x2="793.981264" y2="1047.328258" stroke="black" stroke-width="4.05"/>
<line x1="793.981264" y1="1047.328258" x2="793.981264" y2="716.113854" stroke="black" stroke-width="4.05"/>
<line x1="794.654464" y1="988.086654" x2="583.94286" y2="988.086654" stroke="black" stroke-width="4.05"/>
<line x1="583.94286" y1="988.086654" x2="793.30806" y2="938.269854" stroke="black" stroke-width="4.05"/>
<line x1="793.30806" y1="938.269854" x2="761.66766" y2="891.819054" stroke="black" stroke-width="4.05"/>
<line x1="761.66766" y1="891.819054" x2="583.94286" y2="988.759858" stroke="black" stroke-width="4.05"/>
<line x1="1110.575106" y1="1028.171776" x2="1110.575106" y2="1007.813491" stroke="black" stroke-width="4.05"/>
<line x1="1110.575106" y1="1007.813491" x2="1070.851626" y2="1007.813491" stroke="black" stroke-width="4.05"/>
<line x1="1070.851626" y1="1007.813491" x2="1070.851626" y2="1028.171776" stroke="black" stroke-width="4.05"/>
<line x1="1070.851626" y1="1028.171776" x2="1110.575106" y2="1028.171776" stroke="black" stroke-width="4.05"/>
<line x1="1070.851626" y1="808.699558" x2="872.730778" y2="808.699558" stroke="black" stroke-width="4.05"/>
<line x1="1111.568191" y1="808.203013" x2="1111.568191" y2="787.844732" stroke="black" stroke-width="4.05"/>
<line x1="1111.568191" y1="787.844732" x2="1071.844715" y2="787.844732" stroke="black" stroke-width="4.05"/>
<line x1="1071.844715" y1="787.844732" x2="1071.844715" y2="808.203013" stroke="black" stroke-width="4.05"/>
<line x1="1071.844715" y1="808.203013" x2="1111.568191" y2="808.203013" stroke="black" stroke-width="4.05"/>
<path d="m 1072.341256,1007.813491 a 199.11393349999997,199.11393349999997 0 0 1 -199.11393399999997,-199.11393299999997" fill="none" stroke="black" stroke-width="4.05"/>
<line x1="913.136738" y1="247.05077" x2="1080.250153" y2="247.05077" stroke="black" stroke-width="4.05"/>
<line x1="1080.250153" y1="247.05077" x2="1080.250153" y2="414.506628" stroke="black" stroke-width="4.05"/>
<line x1="1080.250153" y1="414.506628" x2="913.136738" y2="414.506628" stroke="black" stroke-width="4.05"/>
<line x1="913.136738" y1="414.506628" x2="913.136738" y2="247.05077" stroke="black" stroke-width="4.05"/>
<line x1="912.794296" y1="246.708324" x2="1080.250153" y2="414.506628" stroke="black" stroke-width="4.05"/>
<line x1="913.136738" y1="414.164185" x2="1079.90771" y2="247.05077" stroke="black" stroke-width="4.05"/>
<line x1="329.685836" y1="149.035162" x2="200.958408" y2="313.798756" stroke="black" stroke-width="4.05"/>
<line x1="200.958408" y1="313.798756" x2="383.696208" y2="456.569176" stroke="black" stroke-width="4.05"/>
<line x1="383.696208" y1="456.569176" x2="512.423636" y2="291.805582" stroke="black" stroke-width="4.05"/>
<line x1="512.423636" y1="291.805582" x2="329.685836" y2="149.035162" stroke="black" stroke-width="4.05"/>
<line x1="355.149295" y1="168.929402" x2="226.42187" y2="333.692996" stroke="black" stroke-width="4.05"/>
<line x1="1637.344138" y1="572.730257" x2="2030.644984" y2="572.730257" stroke="black" stroke-width="4.05"/>
<line x1="2030.644984" y1="572.730257" x2="2030.644984" y2="397.576033" stroke="black" stroke-width="4.05"/>
<line x1="2030.644984" y1="397.576033" x2="1637.344138" y2="397.576033" stroke="black" stroke-width="4.05"/>
<line x1="1637.344138" y1="397.576033" x2="1637.344138" y2="572.730257" stroke="black" stroke-width="4.05"/>
<line x1="1955.010204" y1="424.645322" x2="1669.190357" y2="424.645322" stroke="black" stroke-width="4.05"/>
<line x1="1669.190357" y1="424.645322" x2="1669.190357" y2="543.272501" stroke="black" stroke-width="4.05"/>
<line x1="1669.190357" y1="543.272501" x2="1960.583292" y2="543.272501" stroke="black" stroke-width="4.05"/>
<path d="m 1954.19538,424.388556 a 63.69244503127078,63.69244503127078 0 0 1 4.316342000000077,120.00067899999999" fill="none" stroke="black" stroke-width="4.05"/>
<line x1="1132.995863" y1="600.926753" x2="1153.236467" y2="600.926753" stroke="black" stroke-width="4.05"/>
<line x1="1153.236467" y1="600.926753" x2="1153.236467" y2="561.432888" stroke="black" stroke-width="4.05"/>
<line x1="1153.236467" y1="561.432888" x2="1132.995863" y2="561.432888" stroke="black" stroke-width="4.05"/>
<line x1="1132.995863" y1="561.432888" x2="1132.995863" y2="600.926753" stroke="black" stroke-width="4.05"/>
<line x1="1351.199455" y1="561.432888" x2="1351.199455" y2="364.45725" stroke="black" stroke-width="4.05"/>
<line x1="1351.693127" y1="601.9141" x2="1371.933731" y2="601.9141" stroke="black" stroke-width="4.05"/>
<line x1="1371.933731" y1="601.9141" x2="1371.933731" y2="562.420235" stroke="black" stroke-width="4.05"/>
<line x1="1371.933731" y1="562.420235" x2="1351.693127" y2="562.420235" stroke="black" stroke-width="4.05"/>
<line x1="1351.693127" y1="562.420235" x2="1351.693127" y2="601.9141" stroke="black" stroke-width="4.05"/>
<path d="m 1153.236467,562.91391 a 197.962988,197.962988 0 0 1 197.962988,-197.962988" fill="none" stroke="black" stroke-width="4.05"/>
<line x1="1208.505143" y1="117.809903" x2="1479.052343" y2="117.809903" stroke="black" stroke-width="4.05"/>
<line x1="1479.052343" y1="117.809903" x2="1479.052343" y2="249.757103" stroke="black" stroke-width="4.05"/>
<line x1="1208.505143" y1="249.757103" x2="1479.052343" y2="249.757103" stroke="black" stroke-width="4.05"/>
<line x1="1208.505143" y1="117.809903" x2="1208.505143" y2="249.757103" stroke="black" stroke-width="4.05"/>
<line x1="1215.157943" y1="124.462703" x2="1353.203543" y2="124.462703" stroke="black" stroke-width="4.05"/>
<line x1="1353.203543" y1="124.462703" x2="1353.203543" y2="242.549903" stroke="black" stroke-width="4.05"/>
<line x1="1215.157943" y1="242.549903" x2="1353.203543" y2="242.549903" stroke="black" stroke-width="4.05"/>
<line x1="1215.157943" y1="124.462703" x2="1215.157943" y2="242.549903" stroke="black" stroke-width="4.05"/>
<line x1="1367.617943" y1="132.224303" x2="1464.637943" y2="132.224303" stroke="black" stroke-width="4.05"/>
<line x1="1367.617943" y1="152.737103" x2="1464.637943" y2="152.737103" stroke="black" stroke-width="4.05"/>
<line x1="1368.172343" y1="173.804303" x2="1465.192343" y2="173.804303" stroke="black" stroke-width="4.05"/>
<line x1="1368.172343" y1="194.317103" x2="1465.192343" y2="194.317103" stroke="black" stroke-width="4.05"/>
<line x1="1367.617943" y1="214.829903" x2="1464.637943" y2="214.829903" stroke="black" stroke-width="4.05"/>
<line x1="1367.617943" y1="235.342703" x2="1464.637943" y2="235.342703" stroke="black" stroke-width="4.05"/>
<line x1="1267.825943" y1="242.549903" x2="1267.825943" y2="228.689903" stroke="black" stroke-width="4.05"/>
<line x1="1267.825943" y1="228.689903" x2="1302.198743" y2="228.689903" stroke="black" stroke-width="4.05"/>
<line x1="1302.198743" y1="228.689903" x2="1302.198743" y2="241.995503" stroke="black" stroke-width="4.05"/>
<circle cx="1337.680343" cy="139.431503" r="8.316000000000003" fill="none" stroke="black" stroke-width="4.05"/>
<line x1="2034.234756" y1="166.642459" x2="1850.312599" y2="166.642459" stroke="black" stroke-width="4.05"/>
<line x1="1850.312599" y1="166.642459" x2="1850.312599" y2="117.490849" stroke="black" stroke-width="4.05"/>
<line x1="2034.234756" y1="117.490849" x2="1850.312599" y2="117.490849" stroke="black" stroke-width="4.05"/>
<line x1="2034.234756" y1="166.642459" x2="2034.234756" y2="117.490849" stroke="black" stroke-width="4.05"/>
<line x1="1992.61444" y1="194.389337" x2="1992.61444" y2="166.642459" stroke="black" stroke-width="4.05"/>
<line x1="1893.518453" y1="166.642459" x2="1893.518453" y2="195.974874" stroke="black" stroke-width="4.05"/>
<circle cx="1943.859215" cy="239.577106" r="66.59250380904014" fill="none" stroke="black" stroke-width="4.05"/>
<circle cx="1943.859215" cy="239.577106" r="57.07928897917725" fill="none" stroke="black" stroke-width="4.05"/>
<line x1="1395.085691" y1="798.896383" x2="1395.085691" y2="819.136987" stroke="black" stroke-width="4.05"/>
<line x1="1395.085691" y1="819.136987" x2="1434.579556" y2="819.136987" stroke="black" stroke-width="4.05"/>
<line x1="1434.579556" y1="819.136987" x2="1434.579556" y2="798.896383" stroke="black" stroke-width="4.05"/>
<line x1="1434.579556" y1="798.896383" x2="1395.085691" y2="798.896383" stroke="black" stroke-width="4.05"/>
<line x1="1434.579556" y1="1017.099976" x2="1631.555194" y2="1017.099976" stroke="black" stroke-width="4.05"/>
<line x1="1394.098344" y1="1017.593647" x2="1394.098344" y2="1037.834251" stroke="black" stroke-width="4.05"/>
<line x1="1394.098344" y1="1037.834251" x2="1433.592209" y2="1037.834251" stroke="black" stroke-width="4.05"/>
<line x1="1433.592209" y1="1037.834251" x2="1433.592209" y2="1017.593647" stroke="black" stroke-width="4.05"/>
<line x1="1433.592209" y1="1017.593647" x2="1394.098344" y2="1017.593647" stroke="black" stroke-width="4.05"/>
<path d="m 1433.098534,819.136987 a 197.9629885,197.9629885 0 0 1 197.962988,197.962989" fill="none" stroke="black" stroke-width="4.05"/>
<line x1="1266.299492" y1="1492.232634" x2="1599.439921" y2="1700.401878" stroke="black" stroke-width="4.05"/>
<line x1="1599.439921" y1="1700.401878" x2="1697.229104" y2="1543.906476" stroke="black" stroke-width="4.05"/>
<line x1="1697.229104" y1="1543.906476" x2="1364.088676" y2="1335.737232" stroke="black" stroke-width="4.05"/>
<line x1="1364.088676" y1="1335.737232" x2="1266.299492" y2="1492.232634" stroke="black" stroke-width="4.05"/>
<line x1="1499.091145" y1="1420.096136" x2="1541.900142" y2="1351.58742" stroke="black" stroke-width="4.05"/>
<line x1="1541.900142" y1="1351.58742" x2="1475.406389" y2="1310.037512" stroke="black" stroke-width="4.05"/>
<line x1="1475.406389" y1="1310.037512" x2="1432.597392" y2="1378.546229" stroke="black" stroke-width="4.05"/>
<line x1="1466.844728" y1="1325.233598" x2="1532.66683" y2="1366.363811" stroke="black" stroke-width="4.05"/>
<line x1="1291.579513" y1="1604.222003" x2="1358.07327" y2="1645.771914" stroke="black" stroke-width="4.05"/>
<line x1="1358.07327" y1="1645.771914" x2="1401.301962" y2="1576.591546" stroke="black" stroke-width="4.05"/>
<line x1="1334.808209" y1="1535.041631" x2="1291.579513" y2="1604.222003" stroke="black" stroke-width="4.05"/>
<line x1="1301.484485" y1="1589.865311" x2="1367.306582" y2="1630.995523" stroke="black" stroke-width="4.05"/>
<line x1="1627.377077" y1="1500.258085" x2="1670.186074" y2="1431.749369" stroke="black" stroke-width="4.05"/>
<line x1="1670.186074" y1="1431.749369" x2="1603.69232" y2="1390.199461" stroke="black" stroke-width="4.05"/>
<line x1="1603.69232" y1="1390.199461" x2="1560.88332" y2="1458.708178" stroke="black" stroke-width="4.05"/>
<line x1="1594.459004" y1="1404.975848" x2="1660.952765" y2="1446.52576" stroke="black" stroke-width="4.05"/>
<line x1="1419.865448" y1="1684.383952" x2="1486.359202" y2="1725.933859" stroke="black" stroke-width="4.05"/>
<line x1="1486.359202" y1="1725.933859" x2="1529.587897" y2="1656.753487" stroke="black" stroke-width="4.05"/>
<line x1="1463.09414" y1="1615.20358" x2="1419.865448" y2="1684.383952" stroke="black" stroke-width="4.05"/>
<line x1="1429.098757" y1="1669.607561" x2="1495.592518" y2="1711.157472" stroke="black" stroke-width="4.05"/>
<line x1="870.26985" y1="1270.405984" x2="870.26985" y2="1080.325984" stroke="black" stroke-width="4.05"/>
<line x1="870.26985" y1="1080.325984" x2="406.47465" y2="1080.325984" stroke="black" stroke-width="4.05"/>
<line x1="406.47465" y1="1080.325984" x2="406.47465" y2="1270.405984" stroke="black" stroke-width="4.05"/>
<line x1="406.47465" y1="1270.405984" x2="430.23465" y2="1270.405984" stroke="black" stroke-width="4.05"/>
<line x1="430.23465" y1="1270.405984" x2="430.23465" y2="1103.135584" stroke="black" stroke-width="4.05"/>
<line x1="430.23465" y1="1103.135584" x2="845.55945" y2="1103.135584" stroke="black" stroke-width="4.05"/>
<line x1="845.55945" y1="1103.135584" x2="845.55945" y2="1270.405984" stroke="black" stroke-width="4.05"/>
<line x1="845.55945" y1="1270.405984" x2="870.26985" y2="1270.405984" stroke="black" stroke-width="4.05"/>
<line x1="845.55945" y1="1264.703584" x2="430.23465" y2="1264.703584" stroke="black" stroke-width="4.05"/>
<line x1="638.37225" y1="1265.653984" x2="638.37225" y2="1104.085984" stroke="black" stroke-width="4.05"/>
<line x1="553.560541" y1="1450.60672" x2="644.8945" y2="1373.968426" stroke="black" stroke-width="4.05"/>
<line x1="644.8945" y1="1373.968426" x2="721.68984" y2="1465.489548" stroke="black" stroke-width="4.05"/>
<line x1="721.68984" y1="1465.489548" x2="630.355878" y2="1542.127838" stroke="black" stroke-width="4.05"/>
<line x1="630.355878" y1="1542.127838" x2="553.560541" y2="1450.60672" stroke="black" stroke-width="4.05"/>
<line x1="553.216334" y1="1450.576606" x2="721.68984" y2="1465.489548" stroke="black" stroke-width="4.05"/>
<line x1="630.198832" y1="1541.940682" x2="644.707343" y2="1374.125468" stroke="black" stroke-width="4.05"/>
<line x1="1819.466222" y1="1899.246917" x2="1819.466222" y2="1667.349317" stroke="black" stroke-width="4.05"/>
<line x1="1819.466222" y1="1667.349317" x2="2051.839022" y2="1667.349317" stroke="black" stroke-width="4.05"/>
<line x1="2051.839022" y1="1667.349317" x2="2051.839022" y2="1899.246917" stroke="black" stroke-width="4.05"/>
<line x1="2051.839022" y1="1899.246917" x2="1819.466222" y2="1899.246917" stroke="black" stroke-width="4.05"/>
<line x1="1818.991022" y1="1899.722117" x2="2051.839022" y2="1667.349317" stroke="black" stroke-width="4.05"/>
<line x1="2051.363822" y1="1899.246917" x2="1819.466222" y2="1667.824517" stroke="black" stroke-width="4.05"/>
<line x1="1050.825312" y1="1698.354328" x2="1129.151052" y2="1504.491307" stroke="black" stroke-width="4.05"/>
<line x1="1129.151052" y1="1504.491307" x2="914.139342" y2="1417.620938" stroke="black" stroke-width="4.05"/>
<line x1="914.139342" y1="1417.620938" x2="835.813598" y2="1611.483952" stroke="black" stroke-width="4.05"/>
<line x1="835.813598" y1="1611.483952" x2="1050.825312" y2="1698.354328" stroke="black" stroke-width="4.05"/>
<line x1="1020.864658" y1="1686.249439" x2="1099.190401" y2="1492.386419" stroke="black" stroke-width="4.05"/>
<line x1="1799.832056" y1="1048.556923" x2="2008.920056" y2="1048.556923" stroke="black" stroke-width="4.05"/>
<line x1="2008.920056" y1="1048.556923" x2="2008.920056" y2="816.659323" stroke="black" stroke-width="4.05"/>
<line x1="2008.920056" y1="816.659323" x2="1799.832056" y2="816.659323" stroke="black" stroke-width="4.05"/>
<line x1="1799.832056" y1="816.659323" x2="1799.832056" y2="1048.556923" stroke="black" stroke-width="4.05"/>
<line x1="1799.832056" y1="1016.243323" x2="2008.920056" y2="1016.243323" stroke="black" stroke-width="4.05"/>
<line x1="188.751589" y1="1571.468832" x2="323.15076" y2="1731.639535" stroke="black" stroke-width="4.05"/>
<line x1="323.15076" y1="1731.639535" x2="500.794632" y2="1582.57863" stroke="black" stroke-width="4.05"/>
<line x1="500.794632" y1="1582.57863" x2="366.395454" y2="1422.40793" stroke="black" stroke-width="4.05"/>
<line x1="366.395454" y1="1422.40793" x2="188.751589" y2="1571.468832" stroke="black" stroke-width="4.05"/>
<line x1="213.50524" y1="1550.698052" x2="347.904418" y2="1710.868752" stroke="black" stroke-width="4.05"/>
<line x1="1666.989774" y1="604.690222" x2="1833.081988" y2="604.690222" stroke="black" stroke-width="4.05"/>
<line x1="1833.081988" y1="604.690222" x2="1833.081988" y2="771.122786" stroke="black" stroke-width="4.05"/>
<line x1="1833.081988" y1="771.122786" x2="1666.989774" y2="771.122786" stroke="black" stroke-width="4.05"/>
<line x1="1666.989774" y1="771.122786" x2="1666.989774" y2="604.690222" stroke="black" stroke-width="4.05"/>
<line x1="1666.649423" y1="604.34987" x2="1833.081988" y2="771.122786" stroke="black" stroke-width="4.05"/>
<line x1="1666.989774" y1="770.782435" x2="1832.741633" y2="604.690222" stroke="black" stroke-width="4.05"/>
<line x1="1832.995789" y1="604.424074" x2="1999.088003" y2="604.424074" stroke="black" stroke-width="4.05"/>
<line x1="1999.088003" y1="604.424074" x2="1999.088003" y2="770.856638" stroke="black" stroke-width="4.05"/>
<line x1="1999.088003" y1="770.856638" x2="1832.995789" y2="770.856638" stroke="black" stroke-width="4.05"/>
<line x1="1832.995789" y1="770.856638" x2="1832.995789" y2="604.424074" stroke="black" stroke-width="4.05"/>
<line x1="1832.655438" y1="604.083722" x2="1999.088003" y2="770.856638" stroke="black" stroke-width="4.05"/>
<line x1="1832.995789" y1="770.516287" x2="1998.747648" y2="604.424074" stroke="black" stroke-width="4.05"/>
<line x1="1501.570829" y1="604.276909" x2="1667.663042" y2="604.276909" stroke="black" stroke-width="4.05"/>
<line x1="1667.663042" y1="604.276909" x2="1667.663042" y2="770.709474" stroke="black" stroke-width="4.05"/>
<line x1="1667.663042" y1="770.709474" x2="1501.570829" y2="770.709474" stroke="black" stroke-width="4.05"/>
<line x1="1501.570829" y1="770.709474" x2="1501.570829" y2="604.276909" stroke="black" stroke-width="4.05"/>
<line x1="1501.230478" y1="603.936558" x2="1667.663042" y2="770.709474" stroke="black" stroke-width="4.05"/>
<line x1="1501.570829" y1="770.369123" x2="1667.322688" y2="604.276909" stroke="black" stroke-width="4.05"/>
<line x1="1886.55296" y1="1077.238843" x2="2052.645174" y2="1077.238843" stroke="black" stroke-width="4.05"/>
<line x1="2052.645174" y1="1077.238843" x2="2052.645174" y2="1243.671408" stroke="black" stroke-width="4.05"/>
<line x1="2052.645174" y1="1243.671408" x2="1886.55296" y2="1243.671408" stroke="black" stroke-width="4.05"/>
<line x1="1886.55296" y1="1243.671408" x2="1886.55296" y2="1077.238843" stroke="black" stroke-width="4.05"/>
<line x1="1886.212609" y1="1076.898492" x2="2052.645174" y2="1243.671408" stroke="black" stroke-width="4.05"/>
<line x1="1886.55296" y1="1243.331057" x2="2052.304819" y2="1077.238843" stroke="black" stroke-width="4.05"/>
<line x1="1915.896632" y1="1644.870398" x2="1915.896632" y2="1251.626526" stroke="black" stroke-width="4.05"/>
<line x1="1914.90035" y1="1247.67112" x2="2050.969126" y2="1247.67112" stroke="black" stroke-width="4.05"/>
<line x1="2052.120632" y1="1644.406009" x2="2052.120632" y2="1247.365778" stroke="black" stroke-width="4.05"/>
<line x1="1916.591382" y1="1643.67112" x2="2051.855438" y2="1643.67112" stroke="black" stroke-width="4.05"/>
<line x1="1926.984632" y1="1633.37512" x2="1926.984632" y2="1509.82312" stroke="black" stroke-width="4.05"/>
<line x1="1926.984632" y1="1509.82312" x2="2041.032632" y2="1509.82312" stroke="black" stroke-width="4.05"/>
<line x1="2041.032632" y1="1633.37512" x2="2041.032632" y2="1509.82312" stroke="black" stroke-width="4.05"/>
<line x1="1926.984632" y1="1633.37512" x2="2041.032632" y2="1633.37512" stroke="black" stroke-width="4.05"/>
<line x1="1934.112632" y1="1490.81512" x2="1934.112632" y2="1403.69512" stroke="black" stroke-width="4.05"/>
<line x1="1953.912632" y1="1490.81512" x2="1953.912632" y2="1403.69512" stroke="black" stroke-width="4.05"/>
<line x1="1974.504632" y1="1490.02312" x2="1974.504632" y2="1403.69512" stroke="black" stroke-width="4.05"/>
<line x1="1994.304632" y1="1490.02312" x2="1994.304632" y2="1403.69512" stroke="black" stroke-width="4.05"/>
<line x1="2014.104632" y1="1490.81512" x2="2014.104632" y2="1403.69512" stroke="black" stroke-width="4.05"/>
<line x1="2033.904632" y1="1490.81512" x2="2033.904632" y2="1403.69512" stroke="black" stroke-width="4.05"/>
<line x1="2040.240632" y1="1585.85512" x2="2026.776632" y2="1585.85512" stroke="black" stroke-width="4.05"/>
<line x1="2026.776632" y1="1585.85512" x2="2026.776632" y2="1555.75912" stroke="black" stroke-width="4.05"/>
<line x1="2026.776632" y1="1555.75912" x2="2039.448632" y2="1555.75912" stroke="black" stroke-width="4.05"/>
<line x1="1926.984632" y1="1383.10312" x2="1926.984632" y2="1259.55112" stroke="black" stroke-width="4.05"/>
<line x1="1926.984632" y1="1259.55112" x2="2041.032632" y2="1259.55112" stroke="black" stroke-width="4.05"/>
<line x1="2041.032632" y1="1383.10312" x2="2041.032632" y2="1259.55112" stroke="black" stroke-width="4.05"/>
<line x1="1926.984632" y1="1383.10312" x2="2041.032632" y2="1383.10312" stroke="black" stroke-width="4.05"/>
<line x1="2041.032632" y1="1335.58312" x2="2027.568632" y2="1335.58312" stroke="black" stroke-width="4.05"/>
<line x1="2027.568632" y1="1335.58312" x2="2027.568632" y2="1305.48712" stroke="black" stroke-width="4.05"/>
<line x1="2027.568632" y1="1305.48712" x2="2040.240632" y2="1305.48712" stroke="black" stroke-width="4.05"/>
<circle cx="1941.240632" cy="1524.07912" r="7.128000000000001" fill="none" stroke="black" stroke-width="4.05"/>
<circle cx="1942.032632" cy="1273.80712" r="7.128000000000001" fill="none" stroke="black" stroke-width="4.05"/>
</g>
</svg>
