<?xml version="1.0"?>
<svg xmlns:xlink="http://www.w3.org/1999/xlink" width="2170.8" height="2138.4">
<image x="0" y="0" width="2170.8" height="2138.4" xlink:href="ground16-04.png"/>
<g style="stroke-linecap:round">
<line x1="355.524638" y1="104.449442" x2="594.616565" y2="104.449442" stroke="black" stroke-width="4.05"/>
<line x1="594.616565" y1="104.449442" x2="594.616565" y2="67.591454" stroke="black" stroke-width="4.05"/>
<line x1="594.616565" y1="67.591454" x2="355.524638" y2="67.591454" stroke="black" stroke-width="4.05"/>
<line x1="355.524638" y1="67.591454" x2="355.524638" y2="104.449442" stroke="black" stroke-width="4.05"/>
<line x1="377.833417" y1="68.076428" x2="377.833417" y2="103.964468" stroke="black" stroke-width="4.05"/>
<line x1="571.822812" y1="68.076428" x2="571.822812" y2="105.419387" stroke="black" stroke-width="4.05"/>
<line x1="377.348447" y1="85.0505" x2="571.337838" y2="85.0505" stroke="black" stroke-width="4.05"/>
<line x1="1586.39715" y1="105.206782" x2="1826.184114" y2="105.206782" stroke="black" stroke-width="4.05"/>
<line x1="1826.184114" y1="105.206782" x2="1826.184114" y2="68.24165" stroke="black" stroke-width="4.05"/>
<line x1="1826.184114" y1="68.24165" x2="1586.39715" y2="68.24165" stroke="black" stroke-width="4.05"/>
<line x1="1586.39715" y1="68.24165" x2="1586.39715" y2="105.206782" stroke="black" stroke-width="4.05"/>
<line x1="1608.770783" y1="68.728036" x2="1608.770783" y2="104.720396" stroke="black" stroke-width="4.05"/>
<line x1="1803.3241" y1="68.728036" x2="1803.3241" y2="106.179548" stroke="black" stroke-width="4.05"/>
<line x1="1608.284398" y1="85.751449" x2="1802.837714" y2="85.751449" stroke="black" stroke-width="4.05"/>
<line x1="455.164369" y1="2021.61294" x2="214.682375" y2="2021.61294" stroke="black" stroke-width="4.05"/>
<line x1="214.682375" y1="2021.61294" x2="214.682375" y2="2058.685214" stroke="black" stroke-width="4.05"/>
<line x1="214.682375" y1="2058.685214" x2="455.164369" y2="2058.685214" stroke="black" stroke-width="4.05"/>
<line x1="455.164369" y1="2058.685214" x2="455.164369" y2="2021.61294" stroke="black" stroke-width="4.05"/>
<line x1="432.72589" y1="2058.197422" x2="432.72589" y2="2022.100733" stroke="black" stroke-width="4.05"/>
<line x1="237.608647" y1="2058.197422" x2="237.608647" y2="2020.637354" stroke="black" stroke-width="4.05"/>
<line x1="433.213682" y1="2041.124663" x2="238.096444" y2="2041.124663" stroke="black" stroke-width="4.05"/>
<line x1="1004.397887" y1="2015.058442" x2="764.627821" y2="2015.058442" stroke="black" stroke-width="4.05"/>
<line x1="764.627821" y1="2015.058442" x2="764.627821" y2="2057.944144" stroke="black" stroke-width="4.05"/>
<line x1="764.627821" y1="2057.944144" x2="1004.397887" y2="2057.944144" stroke="black" stroke-width="4.05"/>
<line x1="1004.397887" y1="2057.944144" x2="1004.397887" y2="2015.058442" stroke="black" stroke-width="4.05"/>
<line x1="993.189125" y1="2015.058442" x2="993.189125" y2="2000.438316" stroke="black" stroke-width="4.05"/>
<line x1="993.189125" y1="2000.438316" x2="776.323922" y2="2000.438316" stroke="black" stroke-width="4.05"/>
<line x1="776.323922" y1="2015.058442" x2="776.323922" y2="2000.438316" stroke="black" stroke-width="4.05"/>
<line x1="1502.327146" y1="2021.251694" x2="1262.540182" y2="2021.251694" stroke="black" stroke-width="4.05"/>
<line x1="1262.540182" y1="2021.251694" x2="1262.540182" y2="2058.216826" stroke="black" stroke-width="4.05"/>
<line x1="1262.540182" y1="2058.216826" x2="1502.327146" y2="2058.216826" stroke="black" stroke-width="4.05"/>
<line x1="1502.327146" y1="2058.216826" x2="1502.327146" y2="2021.251694" stroke="black" stroke-width="4.05"/>
<line x1="1479.953513" y1="2057.73044" x2="1479.953513" y2="2021.73808" stroke="black" stroke-width="4.05"/>
<line x1="1285.400196" y1="2057.73044" x2="1285.400196" y2="2020.278928" stroke="black" stroke-width="4.05"/>
<line x1="1480.439898" y1="2040.707027" x2="1285.886581" y2="2040.707027" stroke="black" stroke-width="4.05"/>
<line x1="1977.062742" y1="2015.366839" x2="1737.292676" y2="2015.366839" stroke="black" stroke-width="4.05"/>
<line x1="1737.292676" y1="2015.366839" x2="1737.292676" y2="2058.252541" stroke="black" stroke-width="4.05"/>
<line x1="1737.292676" y1="2058.252541" x2="1977.062742" y2="2058.252541" stroke="black" stroke-width="4.05"/>
<line x1="1977.062742" y1="2058.252541" x2="1977.062742" y2="2015.366839" stroke="black" stroke-width="4.05"/>
<line x1="1965.85398" y1="2015.366839" x2="1965.85398" y2="2000.746714" stroke="black" stroke-width="4.05"/>
<line x1="1965.85398" y1="2000.746714" x2="1748.988778" y2="2000.746714" stroke="black" stroke-width="4.05"/>
<line x1="1748.988778" y1="2015.366839" x2="1748.988778" y2="2000.746714" stroke="black" stroke-width="4.05"/>
<line x1="2064.218674" y1="203.981501" x2="2064.218674" y2="444.463495" stroke="black" stroke-width="4.05"/>
<line x1="2064.218674" y1="444.463495" x2="2101.290948" y2="444.463495" stroke="black" stroke-width="4.05"/>
<line x1="2101.290948" y1="444.463495" x2="2101.290948" y2="203.981501" stroke="black" stroke-width="4.05"/>
<line x1="2101.290948" y1="203.981501" x2="2064.218674" y2="203.981501" stroke="black" stroke-width="4.05"/>
<line x1="2100.803155" y1="226.41998" x2="2064.706466" y2="226.41998" stroke="black" stroke-width="4.05"/>
<line x1="2100.803155" y1="421.537223" x2="2063.243088" y2="421.537223" stroke="black" stroke-width="4.05"/>
<line x1="2083.730396" y1="225.932188" x2="2083.730396" y2="421.049426" stroke="black" stroke-width="4.05"/>
<line x1="2056.953535" y1="776.174944" x2="2056.953535" y2="1027.759766" stroke="black" stroke-width="4.05"/>
<line x1="2056.953535" y1="1027.759766" x2="2101.952448" y2="1027.759766" stroke="black" stroke-width="4.05"/>
<line x1="2101.952448" y1="1027.759766" x2="2101.952448" y2="776.174944" stroke="black" stroke-width="4.05"/>
<line x1="2101.952448" y1="776.174944" x2="2056.953535" y2="776.174944" stroke="black" stroke-width="4.05"/>
<line x1="2056.953535" y1="787.936021" x2="2041.612999" y2="787.936021" stroke="black" stroke-width="4.05"/>
<line x1="2041.612999" y1="787.936021" x2="2041.612999" y2="1015.487334" stroke="black" stroke-width="4.05"/>
<line x1="2056.953535" y1="1015.487334" x2="2041.612999" y2="1015.487334" stroke="black" stroke-width="4.05"/>
<line x1="2064.600925" y1="1369.92258" x2="2064.600925" y2="1611.794646" stroke="black" stroke-width="4.05"/>
<line x1="2064.600925" y1="1611.794646" x2="2101.887493" y2="1611.794646" stroke="black" stroke-width="4.05"/>
<line x1="2101.887493" y1="1611.794646" x2="2101.887493" y2="1369.92258" stroke="black" stroke-width="4.05"/>
<line x1="2101.887493" y1="1369.92258" x2="2064.600925" y2="1369.92258" stroke="black" stroke-width="4.05"/>
<line x1="2101.396882" y1="1392.490764" x2="2065.09154" y2="1392.490764" stroke="black" stroke-width="4.05"/>
<line x1="2101.396882" y1="1588.73585" x2="2063.619702" y2="1588.73585" stroke="black" stroke-width="4.05"/>
<line x1="2084.225436" y1="1392.000152" x2="2084.225436" y2="1588.245235" stroke="black" stroke-width="4.05"/>
<line x1="138.283542" y1="1589.658811" x2="138.283542" y2="1347.786745" stroke="black" stroke-width="4.05"/>
<line x1="138.283542" y1="1347.786745" x2="100.996974" y2="1347.786745" stroke="black" stroke-width="4.05"/>
<line x1="100.996974" y1="1347.786745" x2="100.996974" y2="1589.658811" stroke="black" stroke-width="4.05"/>
<line x1="100.996974" y1="1589.658811" x2="138.283542" y2="1589.658811" stroke="black" stroke-width="4.05"/>
<line x1="101.487586" y1="1567.090627" x2="137.792927" y2="1567.090627" stroke="black" stroke-width="4.05"/>
<line x1="101.487586" y1="1370.845541" x2="139.264765" y2="1370.845541" stroke="black" stroke-width="4.05"/>
<line x1="118.659031" y1="1567.581239" x2="118.659031" y2="1371.336156" stroke="black" stroke-width="4.05"/>
<line x1="145.345295" y1="909.129312" x2="145.345295" y2="667.274292" stroke="black" stroke-width="4.05"/>
<line x1="145.345295" y1="667.274292" x2="102.086672" y2="667.274292" stroke="black" stroke-width="4.05"/>
<line x1="102.086672" y1="667.274292" x2="102.086672" y2="909.129312" stroke="black" stroke-width="4.05"/>
<line x1="102.086672" y1="909.129312" x2="145.345295" y2="909.129312" stroke="black" stroke-width="4.05"/>
<line x1="145.345295" y1="897.82308" x2="160.092554" y2="897.82308" stroke="black" stroke-width="4.05"/>
<line x1="160.092554" y1="897.82308" x2="160.092554" y2="679.072097" stroke="black" stroke-width="4.05"/>
<line x1="145.345295" y1="679.072097" x2="160.092554" y2="679.072097" stroke="black" stroke-width="4.05"/>
<line x1="144.414853" y1="445.02601" x2="144.414853" y2="203.17099" stroke="black" stroke-width="4.05"/>
<line x1="144.414853" y1="203.17099" x2="101.156231" y2="203.17099" stroke="black" stroke-width="4.05"/>
<line x1="101.156231" y1="203.17099" x2="101.156231" y2="445.02601" stroke="black" stroke-width="4.05"/>
<line x1="101.156231" y1="445.02601" x2="144.414853" y2="445.02601" stroke="black" stroke-width="4.05"/>
<line x1="144.414853" y1="433.719778" x2="159.162113" y2="433.719778" stroke="black" stroke-width="4.05"/>
<line x1="159.162113" y1="433.719778" x2="159.162113" y2="214.968794" stroke="black" stroke-width="4.05"/>
<line x1="144.414853" y1="214.968794" x2="159.162113" y2="214.968794" stroke="black" stroke-width="4.05"/>
<line x1="516.593794" y1="715.461178" x2="307.22859" y2="715.461178" stroke="black" stroke-width="4.05"/>
<line x1="307.22859" y1="715.461178" x2="307.22859" y2="1046.675581" stroke="black" stroke-width="4.05"/>
<line x1="307.22859" y1="1046.675581" x2="516.593794" y2="1046.675581" stroke="black" stroke-width="4.05"/>
<line x1="516.593794" y1="1046.675581" x2="516.593794" y2="715.461178" stroke="black" stroke-width="4.05"/>
<line x1="517.266994" y1="987.433978" x2="306.55539" y2="987.433978" stroke="black" stroke-width="4.05"/>
<line x1="306.55539" y1="987.433978" x2="515.92059" y2="937.617178" stroke="black" stroke-width="4.05"/>
<line x1="515.92059" y1="937.617178" x2="484.28019" y2="891.166378" stroke="black" stroke-width="4.05"/>
<line x1="484.28019" y1="891.166378" x2="306.55539" y2="988.107181" stroke="black" stroke-width="4.05"/>
<line x1="1110.575106" y1="1028.171776" x2="1110.575106" y2="1007.813491" stroke="black" stroke-width="4.05"/>
<line x1="1110.575106" y1="1007.813491" x2="1070.851626" y2="1007.813491" stroke="black" stroke-width="4.05"/>
<line x1="1070.851626" y1="1007.813491" x2="1070.851626" y2="1028.171776" stroke="black" stroke-width="4.05"/>
<line x1="1070.851626" y1="1028.171776" x2="1110.575106" y2="1028.171776" stroke="black" stroke-width="4.05"/>
<line x1="1070.851626" y1="808.699558" x2="872.730778" y2="808.699558" stroke="black" stroke-width="4.05"/>
<line x1="1111.568191" y1="808.203013" x2="1111.568191" y2="787.844732" stroke="black" stroke-width="4.05"/>
<line x1="1111.568191" y1="787.844732" x2="1071.844715" y2="787.844732" stroke="black" stroke-width="4.05"/>
<line x1="1071.844715" y1="787.844732" x2="1071.844715" y2="808.203013" stroke="black" stroke-width="4.05"/>
<line x1="1071.844715" y1="808.203013" x2="1111.568191" y2="808.203013" stroke="black" stroke-width="4.05"/>
<path d="m 1072.341256,1007.813491 a 199.11393349999997,199.11393349999997 0 0 1 -199.11393399999997,-199.11393299999997" fill="none" stroke="black" stroke-width="4.05"/>
<line x1="913.136738" y1="247.05077" x2="1080.250153" y2="247.05077" stroke="black" stroke-width="4.05"/>
<line x1="1080.250153" y1="247.05077" x2="1080.250153" y2="414.506628" stroke="black" stroke-width="4.05"/>
<line x1="1080.250153" y1="414.506628" x2="913.136738" y2="414.506628" stroke="black" stroke-width="4.05"/>
<line x1="913.136738" y1="414.506628" x2="913.136738" y2="247.05077" stroke="black" stroke-width="4.05"/>
<line x1="912.794296" y1="246.708324" x2="1080.250153" y2="414.506628" stroke="black" stroke-width="4.05"/>
<line x1="913.136738" y1="414.164185" x2="1079.90771" y2="247.05077" stroke="black" stroke-width="4.05"/>
<line x1="324.335894" y1="150.071296" x2="201.437053" y2="319.227041" stroke="black" stroke-width="4.05"/>
<line x1="201.437053" y1="319.227041" x2="389.04615" y2="455.533034" stroke="black" stroke-width="4.05"/>
<line x1="389.04615" y1="455.533034" x2="511.944995" y2="286.377286" stroke="black" stroke-width="4.05"/>
<line x1="511.944995" y1="286.377286" x2="324.335894" y2="150.071296" stroke="black" stroke-width="4.05"/>
<line x1="350.478148" y1="169.064755" x2="227.579303" y2="338.2205" stroke="black" stroke-width="4.05"/>
<line x1="2030.64498" y1="397.576037" x2="1637.344134" y2="397.576037" stroke="black" stroke-width="4.05"/>
<line x1="1637.344134" y1="397.576037" x2="1637.344134" y2="572.73026" stroke="black" stroke-width="4.05"/>
<line x1="1637.344134" y1="572.73026" x2="2030.64498" y2="572.73026" stroke="black" stroke-width="4.05"/>
<line x1="2030.64498" y1="572.73026" x2="2030.64498" y2="397.576037" stroke="black" stroke-width="4.05"/>
<line x1="1712.978914" y1="545.660971" x2="1998.798761" y2="545.660971" stroke="black" stroke-width="4.05"/>
<line x1="1998.798761" y1="545.660971" x2="1998.798761" y2="427.033793" stroke="black" stroke-width="4.05"/>
<line x1="1998.798761" y1="427.033793" x2="1707.405826" y2="427.033793" stroke="black" stroke-width="4.05"/>
<path d="m 1713.793738,545.917738 a 63.69244535843305,63.69244535843305 0 0 1 -4.316343000000188,-120.00067999999999" fill="none" stroke="black" stroke-width="4.05"/>
<line x1="1132.995863" y1="600.926753" x2="1153.236467" y2="600.926753" stroke="black" stroke-width="4.05"/>
<line x1="1153.236467" y1="600.926753" x2="1153.236467" y2="561.432888" stroke="black" stroke-width="4.05"/>
<line x1="1153.236467" y1="561.432888" x2="1132.995863" y2="561.432888" stroke="black" stroke-width="4.05"/>
<line x1="1132.995863" y1="561.432888" x2="1132.995863" y2="600.926753" stroke="black" stroke-width="4.05"/>
<line x1="1351.199455" y1="561.432888" x2="1351.199455" y2="364.45725" stroke="black" stroke-width="4.05"/>
<line x1="1351.693127" y1="601.9141" x2="1371.933731" y2="601.9141" stroke="black" stroke-width="4.05"/>
<line x1="1371.933731" y1="601.9141" x2="1371.933731" y2="562.420235" stroke="black" stroke-width="4.05"/>
<line x1="1371.933731" y1="562.420235" x2="1351.693127" y2="562.420235" stroke="black" stroke-width="4.05"/>
<line x1="1351.693127" y1="562.420235" x2="1351.693127" y2="601.9141" stroke="black" stroke-width="4.05"/>
<path d="m 1153.236467,562.91391 a 197.962988,197.962988 0 0 1 197.962988,-197.962988" fill="none" stroke="black" stroke-width="4.05"/>
<line x1="1177.553952" y1="117.618847" x2="1448.101152" y2="117.618847" stroke="black" stroke-width="4.05"/>
<line x1="1448.101152" y1="117.618847" x2="1448.101152" y2="249.566047" stroke="black" stroke-width="4.05"/>
<line x1="1177.553952" y1="249.566047" x2="1448.101152" y2="249.566047" stroke="black" stroke-width="4.05"/>
<line x1="1177.553952" y1="117.618847" x2="1177.553952" y2="249.566047" stroke="black" stroke-width="4.05"/>
<line x1="1184.206752" y1="124.271647" x2="1322.252352" y2="124.271647" stroke="black" stroke-width="4.05"/>
<line x1="1322.252352" y1="124.271647" x2="1322.252352" y2="242.358847" stroke="black" stroke-width="4.05"/>
<line x1="1184.206752" y1="242.358847" x2="1322.252352" y2="242.358847" stroke="black" stroke-width="4.05"/>
<line x1="1184.206752" y1="124.271647" x2="1184.206752" y2="242.358847" stroke="black" stroke-width="4.05"/>
<line x1="1336.666752" y1="132.033247" x2="1433.686752" y2="132.033247" stroke="black" stroke-width="4.05"/>
<line x1="1336.666752" y1="152.546047" x2="1433.686752" y2="152.546047" stroke="black" stroke-width="4.05"/>
<line x1="1337.221152" y1="173.613247" x2="1434.241152" y2="173.613247" stroke="black" stroke-width="4.05"/>
<line x1="1337.221152" y1="194.126047" x2="1434.241152" y2="194.126047" stroke="black" stroke-width="4.05"/>
<line x1="1336.666752" y1="214.638847" x2="1433.686752" y2="214.638847" stroke="black" stroke-width="4.05"/>
<line x1="1336.666752" y1="235.151647" x2="1433.686752" y2="235.151647" stroke="black" stroke-width="4.05"/>
<line x1="1236.874752" y1="242.358847" x2="1236.874752" y2="228.498847" stroke="black" stroke-width="4.05"/>
<line x1="1236.874752" y1="228.498847" x2="1271.247552" y2="228.498847" stroke="black" stroke-width="4.05"/>
<line x1="1271.247552" y1="228.498847" x2="1271.247552" y2="241.804447" stroke="black" stroke-width="4.05"/>
<circle cx="1306.729152" cy="139.240447" r="8.316000000000003" fill="none" stroke="black" stroke-width="4.05"/>
<line x1="2034.234756" y1="166.642459" x2="1850.312599" y2="166.642459" stroke="black" stroke-width="4.05"/>
<line x1="1850.312599" y1="166.642459" x2="1850.312599" y2="117.490849" stroke="black" stroke-width="4.05"/>
<line x1="2034.234756" y1="117.490849" x2="1850.312599" y2="117.490849" stroke="black" stroke-width="4.05"/>
<line x1="2034.234756" y1="166.642459" x2="2034.234756" y2="117.490849" stroke="black" stroke-width="4.05"/>
<line x1="1992.61444" y1="194.389337" x2="1992.61444" y2="166.642459" stroke="black" stroke-width="4.05"/>
<line x1="1893.518453" y1="166.642459" x2="1893.518453" y2="195.974874" stroke="black" stroke-width="4.05"/>
<circle cx="1943.859215" cy="239.577106" r="66.59250380904014" fill="none" stroke="black" stroke-width="4.05"/>
<circle cx="1943.859215" cy="239.577106" r="57.07928897917725" fill="none" stroke="black" stroke-width="4.05"/>
<line x1="1395.085691" y1="798.896383" x2="1395.085691" y2="819.136987" stroke="black" stroke-width="4.05"/>
<line x1="1395.085691" y1="819.136987" x2="1434.579556" y2="819.136987" stroke="black" stroke-width="4.05"/>
<line x1="1434.579556" y1="819.136987" x2="1434.579556" y2="798.896383" stroke="black" stroke-width="4.05"/>
<line x1="1434.579556" y1="798.896383" x2="1395.085691" y2="798.896383" stroke="black" stroke-width="4.05"/>
<line x1="1434.579556" y1="1017.099976" x2="1631.555194" y2="1017.099976" stroke="black" stroke-width="4.05"/>
<line x1="1394.098344" y1="1017.593647" x2="1394.098344" y2="1037.834251" stroke="black" stroke-width="4.05"/>
<line x1="1394.098344" y1="1037.834251" x2="1433.592209" y2="1037.834251" stroke="black" stroke-width="4.05"/>
<line x1="1433.592209" y1="1037.834251" x2="1433.592209" y2="1017.593647" stroke="black" stroke-width="4.05"/>
<line x1="1433.592209" y1="1017.593647" x2="1394.098344" y2="1017.593647" stroke="black" stroke-width="4.05"/>
<path d="m 1433.098534,819.136987 a 197.9629885,197.9629885 0 0 1 197.962988,197.962989" fill="none" stroke="black" stroke-width="4.05"/>
<line x1="1247.25969" y1="1467.910314" x2="1309.279511" y2="1351.267996" stroke="black" stroke-width="4.05"/>
<line x1="1309.279511" y1="1351.267996" x2="1321.866814" y2="1357.960781" stroke="black" stroke-width="4.05"/>
<line x1="1259.846989" y1="1474.603103" x2="1321.866814" y2="1357.960781" stroke="black" stroke-width="4.05"/>
<line x1="1247.25969" y1="1467.910314" x2="1259.846989" y2="1474.603103" stroke="black" stroke-width="4.05"/>
<line x1="1266.093594" y1="1462.854956" x2="1292.893283" y2="1479.257395" stroke="black" stroke-width="4.05"/>
<line x1="1315.620212" y1="1369.708927" x2="1345.043801" y2="1383.200935" stroke="black" stroke-width="4.05"/>
<line x1="1654.249086" y1="1684.310414" x2="1716.268907" y2="1567.668096" stroke="black" stroke-width="4.05"/>
<line x1="1716.268907" y1="1567.668096" x2="1704.52076" y2="1561.421495" stroke="black" stroke-width="4.05"/>
<line x1="1642.50094" y1="1678.063817" x2="1704.52076" y2="1561.421495" stroke="black" stroke-width="4.05"/>
<line x1="1654.249086" y1="1684.310414" x2="1642.50094" y2="1678.063817" stroke="black" stroke-width="4.05"/>
<line x1="1646.623044" y1="1666.262448" x2="1618.038612" y2="1653.216628" stroke="black" stroke-width="4.05"/>
<line x1="1696.14967" y1="1573.116422" x2="1668.957008" y2="1555.428647" stroke="black" stroke-width="4.05"/>
<line x1="1531.197004" y1="1284.123748" x2="1524.504218" y2="1296.71105" stroke="black" stroke-width="4.05"/>
<line x1="1524.504218" y1="1296.71105" x2="1641.14654" y2="1358.730875" stroke="black" stroke-width="4.05"/>
<line x1="1647.839326" y1="1346.143572" x2="1641.14654" y2="1358.730875" stroke="black" stroke-width="4.05"/>
<line x1="1531.197004" y1="1284.123748" x2="1647.839326" y2="1346.143572" stroke="black" stroke-width="4.05"/>
<line x1="1628.559238" y1="1352.038086" x2="1615.906382" y2="1381.907858" stroke="black" stroke-width="4.05"/>
<line x1="1536.252365" y1="1302.957652" x2="1519.403742" y2="1330.596493" stroke="black" stroke-width="4.05"/>
<line x1="1314.403934" y1="1689.827807" x2="1321.096723" y2="1677.240504" stroke="black" stroke-width="4.05"/>
<line x1="1321.096723" y1="1677.240504" x2="1437.739045" y2="1739.260328" stroke="black" stroke-width="4.05"/>
<line x1="1431.046256" y1="1751.847628" x2="1437.739045" y2="1739.260328" stroke="black" stroke-width="4.05"/>
<line x1="1314.403934" y1="1689.827807" x2="1431.046256" y2="1751.847628" stroke="black" stroke-width="4.05"/>
<line x1="1425.151742" y1="1732.567543" x2="1442.839522" y2="1705.374882" stroke="black" stroke-width="4.05"/>
<line x1="1332.84487" y1="1683.487109" x2="1346.336878" y2="1654.06352" stroke="black" stroke-width="4.05"/>
<circle cx="1481.12163" cy="1517.985691" r="191.98080000000002" fill="none" stroke="black" stroke-width="4.05"/>
<line x1="875.753298" y1="1270.405984" x2="875.753298" y2="1080.325984" stroke="black" stroke-width="4.05"/>
<line x1="875.753298" y1="1080.325984" x2="411.958098" y2="1080.325984" stroke="black" stroke-width="4.05"/>
<line x1="411.958098" y1="1080.325984" x2="411.958098" y2="1270.405984" stroke="black" stroke-width="4.05"/>
<line x1="411.958098" y1="1270.405984" x2="435.718098" y2="1270.405984" stroke="black" stroke-width="4.05"/>
<line x1="435.718098" y1="1270.405984" x2="435.718098" y2="1103.135584" stroke="black" stroke-width="4.05"/>
<line x1="435.718098" y1="1103.135584" x2="851.042898" y2="1103.135584" stroke="black" stroke-width="4.05"/>
<line x1="851.042898" y1="1103.135584" x2="851.042898" y2="1270.405984" stroke="black" stroke-width="4.05"/>
<line x1="851.042898" y1="1270.405984" x2="875.753298" y2="1270.405984" stroke="black" stroke-width="4.05"/>
<line x1="851.042898" y1="1264.703584" x2="435.718098" y2="1264.703584" stroke="black" stroke-width="4.05"/>
<line x1="643.855698" y1="1265.653984" x2="643.855698" y2="1104.085984" stroke="black" stroke-width="4.05"/>
<line x1="627.219457" y1="1374.162779" x2="721.489367" y2="1447.814502" stroke="black" stroke-width="4.050004"/>
<line x1="721.489367" y1="1447.814502" x2="647.686717" y2="1542.277584" stroke="black" stroke-width="4.050004"/>
<line x1="647.686717" y1="1542.277584" x2="553.416808" y2="1468.625861" stroke="black" stroke-width="4.050004"/>
<line x1="553.416808" y1="1468.625861" x2="627.219457" y2="1374.162779" stroke="black" stroke-width="4.050004"/>
<line x1="627.177208" y1="1373.818676" x2="647.686717" y2="1542.277584" stroke="black" stroke-width="4.050004"/>
<line x1="553.567734" y1="1468.432685" x2="721.296191" y2="1447.663576" stroke="black" stroke-width="4.050004"/>
<line x1="190.186938" y1="1555.190572" x2="307.107464" y2="1728.532382" stroke="black" stroke-width="4.05"/>
<line x1="307.107464" y1="1728.532382" x2="499.359287" y2="1598.85689" stroke="black" stroke-width="4.05"/>
<line x1="499.359287" y1="1598.85689" x2="382.43876" y2="1425.515083" stroke="black" stroke-width="4.05"/>
<line x1="382.43876" y1="1425.515083" x2="190.186938" y2="1555.190572" stroke="black" stroke-width="4.05"/>
<line x1="216.976129" y1="1537.121038" x2="333.896652" y2="1710.462845" stroke="black" stroke-width="4.05"/>
<line x1="1819.466222" y1="1956.683578" x2="1819.466222" y2="1724.785978" stroke="black" stroke-width="4.05"/>
<line x1="1819.466222" y1="1724.785978" x2="2051.839022" y2="1724.785978" stroke="black" stroke-width="4.05"/>
<line x1="2051.839022" y1="1724.785978" x2="2051.839022" y2="1956.683578" stroke="black" stroke-width="4.05"/>
<line x1="2051.839022" y1="1956.683578" x2="1819.466222" y2="1956.683578" stroke="black" stroke-width="4.05"/>
<line x1="1818.991022" y1="1957.158778" x2="2051.839022" y2="1724.785978" stroke="black" stroke-width="4.05"/>
<line x1="2051.363822" y1="1956.683578" x2="1819.466222" y2="1725.261178" stroke="black" stroke-width="4.05"/>
<line x1="1799.832056" y1="1048.556923" x2="2008.920056" y2="1048.556923" stroke="black" stroke-width="4.05"/>
<line x1="2008.920056" y1="1048.556923" x2="2008.920056" y2="816.659323" stroke="black" stroke-width="4.05"/>
<line x1="2008.920056" y1="816.659323" x2="1799.832056" y2="816.659323" stroke="black" stroke-width="4.05"/>
<line x1="1799.832056" y1="816.659323" x2="1799.832056" y2="1048.556923" stroke="black" stroke-width="4.05"/>
<line x1="1799.832056" y1="1016.243323" x2="2008.920056" y2="1016.243323" stroke="black" stroke-width="4.05"/>
<line x1="1020.147973" y1="1709.496284" x2="1137.0685" y2="1536.154474" stroke="black" stroke-width="4.05"/>
<line x1="1137.0685" y1="1536.154474" x2="944.816677" y2="1406.478985" stroke="black" stroke-width="4.05"/>
<line x1="944.816677" y1="1406.478985" x2="827.896151" y2="1579.820792" stroke="black" stroke-width="4.05"/>
<line x1="827.896151" y1="1579.820792" x2="1020.147973" y2="1709.496284" stroke="black" stroke-width="4.05"/>
<line x1="993.358786" y1="1691.426747" x2="1110.279308" y2="1518.08494" stroke="black" stroke-width="4.05"/>
<line x1="1666.989774" y1="604.690222" x2="1833.081988" y2="604.690222" stroke="black" stroke-width="4.05"/>
<line x1="1833.081988" y1="604.690222" x2="1833.081988" y2="771.122786" stroke="black" stroke-width="4.05"/>
<line x1="1833.081988" y1="771.122786" x2="1666.989774" y2="771.122786" stroke="black" stroke-width="4.05"/>
<line x1="1666.989774" y1="771.122786" x2="1666.989774" y2="604.690222" stroke="black" stroke-width="4.05"/>
<line x1="1666.649423" y1="604.34987" x2="1833.081988" y2="771.122786" stroke="black" stroke-width="4.05"/>
<line x1="1666.989774" y1="770.782435" x2="1832.741633" y2="604.690222" stroke="black" stroke-width="4.05"/>
<line x1="1832.995789" y1="604.424074" x2="1999.088003" y2="604.424074" stroke="black" stroke-width="4.05"/>
<line x1="1999.088003" y1="604.424074" x2="1999.088003" y2="770.856638" stroke="black" stroke-width="4.05"/>
<line x1="1999.088003" y1="770.856638" x2="1832.995789" y2="770.856638" stroke="black" stroke-width="4.05"/>
<line x1="1832.995789" y1="770.856638" x2="1832.995789" y2="604.424074" stroke="black" stroke-width="4.05"/>
<line x1="1832.655438" y1="604.083722" x2="1999.088003" y2="770.856638" stroke="black" stroke-width="4.05"/>
<line x1="1832.995789" y1="770.516287" x2="1998.747648" y2="604.424074" stroke="black" stroke-width="4.05"/>
<line x1="1501.570829" y1="604.276909" x2="1667.663042" y2="604.276909" stroke="black" stroke-width="4.05"/>
<line x1="1667.663042" y1="604.276909" x2="1667.663042" y2="770.709474" stroke="black" stroke-width="4.05"/>
<line x1="1667.663042" y1="770.709474" x2="1501.570829" y2="770.709474" stroke="black" stroke-width="4.05"/>
<line x1="1501.570829" y1="770.709474" x2="1501.570829" y2="604.276909" stroke="black" stroke-width="4.05"/>
<line x1="1501.230478" y1="603.936558" x2="1667.663042" y2="770.709474" stroke="black" stroke-width="4.05"/>
<line x1="1501.570829" y1="770.369123" x2="1667.322688" y2="604.276909" stroke="black" stroke-width="4.05"/>
<line x1="1886.55296" y1="1077.238843" x2="2052.645174" y2="1077.238843" stroke="black" stroke-width="4.05"/>
<line x1="2052.645174" y1="1077.238843" x2="2052.645174" y2="1243.671408" stroke="black" stroke-width="4.05"/>
<line x1="2052.645174" y1="1243.671408" x2="1886.55296" y2="1243.671408" stroke="black" stroke-width="4.05"/>
<line x1="1886.55296" y1="1243.671408" x2="1886.55296" y2="1077.238843" stroke="black" stroke-width="4.05"/>
<line x1="1886.212609" y1="1076.898492" x2="2052.645174" y2="1243.671408" stroke="black" stroke-width="4.05"/>
<line x1="1886.55296" y1="1243.331057" x2="2052.304819" y2="1077.238843" stroke="black" stroke-width="4.05"/>
<line x1="1915.896632" y1="1644.870398" x2="1915.896632" y2="1251.626526" stroke="black" stroke-width="4.05"/>
<line x1="1914.90035" y1="1247.67112" x2="2050.969126" y2="1247.67112" stroke="black" stroke-width="4.05"/>
<line x1="2052.120632" y1="1644.406009" x2="2052.120632" y2="1247.365778" stroke="black" stroke-width="4.05"/>
<line x1="1916.591382" y1="1643.67112" x2="2051.855438" y2="1643.67112" stroke="black" stroke-width="4.05"/>
<line x1="1926.984632" y1="1633.37512" x2="1926.984632" y2="1509.82312" stroke="black" stroke-width="4.05"/>
<line x1="1926.984632" y1="1509.82312" x2="2041.032632" y2="1509.82312" stroke="black" stroke-width="4.05"/>
<line x1="2041.032632" y1="1633.37512" x2="2041.032632" y2="1509.82312" stroke="black" stroke-width="4.05"/>
<line x1="1926.984632" y1="1633.37512" x2="2041.032632" y2="1633.37512" stroke="black" stroke-width="4.05"/>
<line x1="1934.112632" y1="1490.81512" x2="1934.112632" y2="1403.69512" stroke="black" stroke-width="4.05"/>
<line x1="1953.912632" y1="1490.81512" x2="1953.912632" y2="1403.69512" stroke="black" stroke-width="4.05"/>
<line x1="1974.504632" y1="1490.02312" x2="1974.504632" y2="1403.69512" stroke="black" stroke-width="4.05"/>
<line x1="1994.304632" y1="1490.02312" x2="1994.304632" y2="1403.69512" stroke="black" stroke-width="4.05"/>
<line x1="2014.104632" y1="1490.81512" x2="2014.104632" y2="1403.69512" stroke="black" stroke-width="4.05"/>
<line x1="2033.904632" y1="1490.81512" x2="2033.904632" y2="1403.69512" stroke="black" stroke-width="4.05"/>
<line x1="2040.240632" y1="1585.85512" x2="2026.776632" y2="1585.85512" stroke="black" stroke-width="4.05"/>
<line x1="2026.776632" y1="1585.85512" x2="2026.776632" y2="1555.75912" stroke="black" stroke-width="4.05"/>
<line x1="2026.776632" y1="1555.75912" x2="2039.448632" y2="1555.75912" stroke="black" stroke-width="4.05"/>
<line x1="1926.984632" y1="1383.10312" x2="1926.984632" y2="1259.55112" stroke="black" stroke-width="4.05"/>
<line x1="1926.984632" y1="1259.55112" x2="2041.032632" y2="1259.55112" stroke="black" stroke-width="4.05"/>
<line x1="2041.032632" y1="1383.10312" x2="2041.032632" y2="1259.55112" stroke="black" stroke-width="4.05"/>
<line x1="1926.984632" y1="1383.10312" x2="2041.032632" y2="1383.10312" stroke="black" stroke-width="4.05"/>
<line x1="2041.032632" y1="1335.58312" x2="2027.568632" y2="1335.58312" stroke="black" stroke-width="4.05"/>
<line x1="2027.568632" y1="1335.58312" x2="2027.568632" y2="1305.48712" stroke="black" stroke-width="4.05"/>
<line x1="2027.568632" y1="1305.48712" x2="2040.240632" y2="1305.48712" stroke="black" stroke-width="4.05"/>
<circle cx="1941.240632" cy="1524.07912" r="7.128000000000001" fill="none" stroke="black" stroke-width="4.05"/>
<circle cx="1942.032632" cy="1273.80712" r="7.128000000000001" fill="none" stroke="black" stroke-width="4.05"/>
</g>
</svg>
