<?xml version="1.0"?>
<svg xmlns:xlink="http://www.w3.org/1999/xlink" width="2170.8" height="2138.4">
<image x="0" y="0" width="2170.8" height="2138.4" xlink:href="ground16-04.png"/>
<g style="stroke-linecap:round">
<line x1="355.533062" y1="110.352848" x2="594.608141" y2="110.352848" stroke="black" stroke-width="4.05"/>
<line x1="594.608141" y1="110.352848" x2="594.608141" y2="67.591451" stroke="black" stroke-width="4.05"/>
<line x1="594.608141" y1="67.591451" x2="355.533062" y2="67.591451" stroke="black" stroke-width="4.05"/>
<line x1="355.533062" y1="67.591451" x2="355.533062" y2="110.352848" stroke="black" stroke-width="4.05"/>
<line x1="366.709334" y1="110.352848" x2="366.709334" y2="124.930598" stroke="black" stroke-width="4.05"/>
<line x1="366.709334" y1="124.930598" x2="582.945941" y2="124.930598" stroke="black" stroke-width="4.05"/>
<line x1="582.945941" y1="110.352848" x2="582.945941" y2="124.930598" stroke="black" stroke-width="4.05"/>
<line x1="1586.405599" y1="111.127352" x2="1826.175665" y2="111.127352" stroke="black" stroke-width="4.05"/>
<line x1="1826.175665" y1="111.127352" x2="1826.175665" y2="68.24165" stroke="black" stroke-width="4.05"/>
<line x1="1826.175665" y1="68.24165" x2="1586.405599" y2="68.24165" stroke="black" stroke-width="4.05"/>
<line x1="1586.405599" y1="68.24165" x2="1586.405599" y2="111.127352" stroke="black" stroke-width="4.05"/>
<line x1="1597.614361" y1="111.127352" x2="1597.614361" y2="125.747478" stroke="black" stroke-width="4.05"/>
<line x1="1597.614361" y1="125.747478" x2="1814.479564" y2="125.747478" stroke="black" stroke-width="4.05"/>
<line x1="1814.479564" y1="111.127352" x2="1814.479564" y2="125.747478" stroke="black" stroke-width="4.05"/>
<line x1="455.155898" y1="2015.675204" x2="214.690846" y2="2015.675204" stroke="black" stroke-width="4.05"/>
<line x1="214.690846" y1="2015.675204" x2="214.690846" y2="2058.685214" stroke="black" stroke-width="4.05"/>
<line x1="214.690846" y1="2058.685214" x2="455.155898" y2="2058.685214" stroke="black" stroke-width="4.05"/>
<line x1="455.155898" y1="2058.685214" x2="455.155898" y2="2015.675204" stroke="black" stroke-width="4.05"/>
<line x1="443.914646" y1="2015.675204" x2="443.914646" y2="2001.012703" stroke="black" stroke-width="4.05"/>
<line x1="443.914646" y1="2001.012703" x2="226.420848" y2="2001.012703" stroke="black" stroke-width="4.05"/>
<line x1="226.420848" y1="2015.675204" x2="226.420848" y2="2001.012703" stroke="black" stroke-width="4.05"/>
<line x1="1004.406336" y1="2020.979012" x2="764.619372" y2="2020.979012" stroke="black" stroke-width="4.05"/>
<line x1="764.619372" y1="2020.979012" x2="764.619372" y2="2057.944144" stroke="black" stroke-width="4.05"/>
<line x1="764.619372" y1="2057.944144" x2="1004.406336" y2="2057.944144" stroke="black" stroke-width="4.05"/>
<line x1="1004.406336" y1="2057.944144" x2="1004.406336" y2="2020.979012" stroke="black" stroke-width="4.05"/>
<line x1="982.032703" y1="2057.457758" x2="982.032703" y2="2021.465398" stroke="black" stroke-width="4.05"/>
<line x1="787.479386" y1="2057.457758" x2="787.479386" y2="2020.006246" stroke="black" stroke-width="4.05"/>
<line x1="982.519088" y1="2040.434345" x2="787.965772" y2="2040.434345" stroke="black" stroke-width="4.05"/>
<line x1="1502.318696" y1="2015.331124" x2="1262.548631" y2="2015.331124" stroke="black" stroke-width="4.05"/>
<line x1="1262.548631" y1="2015.331124" x2="1262.548631" y2="2058.216826" stroke="black" stroke-width="4.05"/>
<line x1="1262.548631" y1="2058.216826" x2="1502.318696" y2="2058.216826" stroke="black" stroke-width="4.05"/>
<line x1="1502.318696" y1="2058.216826" x2="1502.318696" y2="2015.331124" stroke="black" stroke-width="4.05"/>
<line x1="1491.109934" y1="2015.331124" x2="1491.109934" y2="2000.710998" stroke="black" stroke-width="4.05"/>
<line x1="1491.109934" y1="2000.710998" x2="1274.244732" y2="2000.710998" stroke="black" stroke-width="4.05"/>
<line x1="1274.244732" y1="2015.331124" x2="1274.244732" y2="2000.710998" stroke="black" stroke-width="4.05"/>
<line x1="1977.071191" y1="2021.28741" x2="1737.284227" y2="2021.28741" stroke="black" stroke-width="4.05"/>
<line x1="1737.284227" y1="2021.28741" x2="1737.284227" y2="2058.252541" stroke="black" stroke-width="4.05"/>
<line x1="1737.284227" y1="2058.252541" x2="1977.071191" y2="2058.252541" stroke="black" stroke-width="4.05"/>
<line x1="1977.071191" y1="2058.252541" x2="1977.071191" y2="2021.28741" stroke="black" stroke-width="4.05"/>
<line x1="1954.697558" y1="2057.766156" x2="1954.697558" y2="2021.773795" stroke="black" stroke-width="4.05"/>
<line x1="1760.144242" y1="2057.766156" x2="1760.144242" y2="2020.314643" stroke="black" stroke-width="4.05"/>
<line x1="1955.183944" y1="2040.742742" x2="1760.630627" y2="2040.742742" stroke="black" stroke-width="4.05"/>
<line x1="2064.218674" y1="203.981501" x2="2064.218674" y2="444.463495" stroke="black" stroke-width="4.05"/>
<line x1="2064.218674" y1="444.463495" x2="2101.290948" y2="444.463495" stroke="black" stroke-width="4.05"/>
<line x1="2101.290948" y1="444.463495" x2="2101.290948" y2="203.981501" stroke="black" stroke-width="4.05"/>
<line x1="2101.290948" y1="203.981501" x2="2064.218674" y2="203.981501" stroke="black" stroke-width="4.05"/>
<line x1="2100.803155" y1="226.41998" x2="2064.706466" y2="226.41998" stroke="black" stroke-width="4.05"/>
<line x1="2100.803155" y1="421.537223" x2="2063.243088" y2="421.537223" stroke="black" stroke-width="4.05"/>
<line x1="2083.730396" y1="225.932188" x2="2083.730396" y2="421.049426" stroke="black" stroke-width="4.05"/>
<line x1="2056.953535" y1="776.174944" x2="2056.953535" y2="1027.759766" stroke="black" stroke-width="4.05"/>
<line x1="2056.953535" y1="1027.759766" x2="2101.952448" y2="1027.759766" stroke="black" stroke-width="4.05"/>
<line x1="2101.952448" y1="1027.759766" x2="2101.952448" y2="776.174944" stroke="black" stroke-width="4.05"/>
<line x1="2101.952448" y1="776.174944" x2="2056.953535" y2="776.174944" stroke="black" stroke-width="4.05"/>
<line x1="2056.953535" y1="787.936021" x2="2041.612999" y2="787.936021" stroke="black" stroke-width="4.05"/>
<line x1="2041.612999" y1="787.936021" x2="2041.612999" y2="1015.487334" stroke="black" stroke-width="4.05"/>
<line x1="2056.953535" y1="1015.487334" x2="2041.612999" y2="1015.487334" stroke="black" stroke-width="4.05"/>
<line x1="2064.600925" y1="1369.92258" x2="2064.600925" y2="1611.794646" stroke="black" stroke-width="4.05"/>
<line x1="2064.600925" y1="1611.794646" x2="2101.887493" y2="1611.794646" stroke="black" stroke-width="4.05"/>
<line x1="2101.887493" y1="1611.794646" x2="2101.887493" y2="1369.92258" stroke="black" stroke-width="4.05"/>
<line x1="2101.887493" y1="1369.92258" x2="2064.600925" y2="1369.92258" stroke="black" stroke-width="4.05"/>
<line x1="2101.396882" y1="1392.490764" x2="2065.09154" y2="1392.490764" stroke="black" stroke-width="4.05"/>
<line x1="2101.396882" y1="1588.73585" x2="2063.619702" y2="1588.73585" stroke="black" stroke-width="4.05"/>
<line x1="2084.225436" y1="1392.000152" x2="2084.225436" y2="1588.245235" stroke="black" stroke-width="4.05"/>
<line x1="138.283542" y1="1589.658811" x2="138.283542" y2="1347.786745" stroke="black" stroke-width="4.05"/>
<line x1="138.283542" y1="1347.786745" x2="100.996974" y2="1347.786745" stroke="black" stroke-width="4.05"/>
<line x1="100.996974" y1="1347.786745" x2="100.996974" y2="1589.658811" stroke="black" stroke-width="4.05"/>
<line x1="100.996974" y1="1589.658811" x2="138.283542" y2="1589.658811" stroke="black" stroke-width="4.05"/>
<line x1="101.487586" y1="1567.090627" x2="137.792927" y2="1567.090627" stroke="black" stroke-width="4.05"/>
<line x1="101.487586" y1="1370.845541" x2="139.264765" y2="1370.845541" stroke="black" stroke-width="4.05"/>
<line x1="118.659031" y1="1567.581239" x2="118.659031" y2="1371.336156" stroke="black" stroke-width="4.05"/>
<line x1="139.37324" y1="909.137837" x2="139.37324" y2="667.265771" stroke="black" stroke-width="4.05"/>
<line x1="139.37324" y1="667.265771" x2="102.086672" y2="667.265771" stroke="black" stroke-width="4.05"/>
<line x1="102.086672" y1="667.265771" x2="102.086672" y2="909.137837" stroke="black" stroke-width="4.05"/>
<line x1="102.086672" y1="909.137837" x2="139.37324" y2="909.137837" stroke="black" stroke-width="4.05"/>
<line x1="102.577284" y1="886.569653" x2="138.882625" y2="886.569653" stroke="black" stroke-width="4.05"/>
<line x1="102.577284" y1="690.324566" x2="140.354464" y2="690.324566" stroke="black" stroke-width="4.05"/>
<line x1="119.74873" y1="887.060264" x2="119.74873" y2="690.815182" stroke="black" stroke-width="4.05"/>
<line x1="138.442799" y1="445.034534" x2="138.442799" y2="203.162468" stroke="black" stroke-width="4.05"/>
<line x1="138.442799" y1="203.162468" x2="101.156231" y2="203.162468" stroke="black" stroke-width="4.05"/>
<line x1="101.156231" y1="203.162468" x2="101.156231" y2="445.034534" stroke="black" stroke-width="4.05"/>
<line x1="101.156231" y1="445.034534" x2="138.442799" y2="445.034534" stroke="black" stroke-width="4.05"/>
<line x1="101.646842" y1="422.46635" x2="137.952184" y2="422.46635" stroke="black" stroke-width="4.05"/>
<line x1="101.646842" y1="226.221264" x2="139.424022" y2="226.221264" stroke="black" stroke-width="4.05"/>
<line x1="118.818288" y1="422.956962" x2="118.818288" y2="226.711879" stroke="black" stroke-width="4.05"/>
<line x1="646.751938" y1="715.76743" x2="437.386734" y2="715.76743" stroke="black" stroke-width="4.05"/>
<line x1="437.386734" y1="715.76743" x2="437.386734" y2="1046.981833" stroke="black" stroke-width="4.05"/>
<line x1="437.386734" y1="1046.981833" x2="646.751938" y2="1046.981833" stroke="black" stroke-width="4.05"/>
<line x1="646.751938" y1="1046.981833" x2="646.751938" y2="715.76743" stroke="black" stroke-width="4.05"/>
<line x1="647.425138" y1="987.74023" x2="436.713534" y2="987.74023" stroke="black" stroke-width="4.05"/>
<line x1="436.713534" y1="987.74023" x2="646.078734" y2="937.92343" stroke="black" stroke-width="4.05"/>
<line x1="646.078734" y1="937.92343" x2="614.438334" y2="891.47263" stroke="black" stroke-width="4.05"/>
<line x1="614.438334" y1="891.47263" x2="436.713534" y2="988.413433" stroke="black" stroke-width="4.05"/>
<line x1="1110.575106" y1="1028.171776" x2="1110.575106" y2="1007.813491" stroke="black" stroke-width="4.05"/>
<line x1="1110.575106" y1="1007.813491" x2="1070.851626" y2="1007.813491" stroke="black" stroke-width="4.05"/>
<line x1="1070.851626" y1="1007.813491" x2="1070.851626" y2="1028.171776" stroke="black" stroke-width="4.05"/>
<line x1="1070.851626" y1="1028.171776" x2="1110.575106" y2="1028.171776" stroke="black" stroke-width="4.05"/>
<line x1="1070.851626" y1="808.699558" x2="872.730778" y2="808.699558" stroke="black" stroke-width="4.05"/>
<line x1="1111.568191" y1="808.203013" x2="1111.568191" y2="787.844732" stroke="black" stroke-width="4.05"/>
<line x1="1111.568191" y1="787.844732" x2="1071.844715" y2="787.844732" stroke="black" stroke-width="4.05"/>
<line x1="1071.844715" y1="787.844732" x2="1071.844715" y2="808.203013" stroke="black" stroke-width="4.05"/>
<line x1="1071.844715" y1="808.203013" x2="1111.568191" y2="808.203013" stroke="black" stroke-width="4.05"/>
<path d="m 1072.341256,1007.813491 a 199.11393349999997,199.11393349999997 0 0 1 -199.11393399999997,-199.11393299999997" fill="none" stroke="black" stroke-width="4.05"/>
<line x1="913.136738" y1="247.05077" x2="1080.250153" y2="247.05077" stroke="black" stroke-width="4.05"/>
<line x1="1080.250153" y1="247.05077" x2="1080.250153" y2="414.506628" stroke="black" stroke-width="4.05"/>
<line x1="1080.250153" y1="414.506628" x2="913.136738" y2="414.506628" stroke="black" stroke-width="4.05"/>
<line x1="913.136738" y1="414.506628" x2="913.136738" y2="247.05077" stroke="black" stroke-width="4.05"/>
<line x1="912.794296" y1="246.708324" x2="1080.250153" y2="414.506628" stroke="black" stroke-width="4.05"/>
<line x1="913.136738" y1="414.164185" x2="1079.90771" y2="247.05077" stroke="black" stroke-width="4.05"/>
<line x1="378.524182" y1="148.215992" x2="205.182374" y2="265.136519" stroke="black" stroke-width="4.05"/>
<line x1="205.182374" y1="265.136519" x2="334.857866" y2="457.388341" stroke="black" stroke-width="4.05"/>
<line x1="334.857866" y1="457.388341" x2="508.199674" y2="340.467815" stroke="black" stroke-width="4.05"/>
<line x1="508.199674" y1="340.467815" x2="378.524182" y2="148.215992" stroke="black" stroke-width="4.05"/>
<line x1="396.593719" y1="175.005184" x2="223.251908" y2="291.925706" stroke="black" stroke-width="4.05"/>
<line x1="1637.344138" y1="572.730257" x2="2030.644984" y2="572.730257" stroke="black" stroke-width="4.05"/>
<line x1="2030.644984" y1="572.730257" x2="2030.644984" y2="397.576033" stroke="black" stroke-width="4.05"/>
<line x1="2030.644984" y1="397.576033" x2="1637.344138" y2="397.576033" stroke="black" stroke-width="4.05"/>
<line x1="1637.344138" y1="397.576033" x2="1637.344138" y2="572.730257" stroke="black" stroke-width="4.05"/>
<line x1="1955.010204" y1="424.645322" x2="1669.190357" y2="424.645322" stroke="black" stroke-width="4.05"/>
<line x1="1669.190357" y1="424.645322" x2="1669.190357" y2="543.272501" stroke="black" stroke-width="4.05"/>
<line x1="1669.190357" y1="543.272501" x2="1960.583292" y2="543.272501" stroke="black" stroke-width="4.05"/>
<path d="m 1954.19538,424.388556 a 63.69244503127078,63.69244503127078 0 0 1 4.316342000000077,120.00067899999999" fill="none" stroke="black" stroke-width="4.05"/>
<line x1="1132.995863" y1="600.926753" x2="1153.236467" y2="600.926753" stroke="black" stroke-width="4.05"/>
<line x1="1153.236467" y1="600.926753" x2="1153.236467" y2="561.432888" stroke="black" stroke-width="4.05"/>
<line x1="1153.236467" y1="561.432888" x2="1132.995863" y2="561.432888" stroke="black" stroke-width="4.05"/>
<line x1="1132.995863" y1="561.432888" x2="1132.995863" y2="600.926753" stroke="black" stroke-width="4.05"/>
<line x1="1351.199455" y1="561.432888" x2="1351.199455" y2="364.45725" stroke="black" stroke-width="4.05"/>
<line x1="1351.693127" y1="601.9141" x2="1371.933731" y2="601.9141" stroke="black" stroke-width="4.05"/>
<line x1="1371.933731" y1="601.9141" x2="1371.933731" y2="562.420235" stroke="black" stroke-width="4.05"/>
<line x1="1371.933731" y1="562.420235" x2="1351.693127" y2="562.420235" stroke="black" stroke-width="4.05"/>
<line x1="1351.693127" y1="562.420235" x2="1351.693127" y2="601.9141" stroke="black" stroke-width="4.05"/>
<path d="m 1153.236467,562.91391 a 197.962988,197.962988 0 0 1 197.962988,-197.962988" fill="none" stroke="black" stroke-width="4.05"/>
<line x1="1153.063706" y1="117.467672" x2="1423.610906" y2="117.467672" stroke="black" stroke-width="4.05"/>
<line x1="1423.610906" y1="117.467672" x2="1423.610906" y2="249.414872" stroke="black" stroke-width="4.05"/>
<line x1="1153.063706" y1="249.414872" x2="1423.610906" y2="249.414872" stroke="black" stroke-width="4.05"/>
<line x1="1153.063706" y1="117.467672" x2="1153.063706" y2="249.414872" stroke="black" stroke-width="4.05"/>
<line x1="1159.716506" y1="124.120472" x2="1297.762106" y2="124.120472" stroke="black" stroke-width="4.05"/>
<line x1="1297.762106" y1="124.120472" x2="1297.762106" y2="242.207672" stroke="black" stroke-width="4.05"/>
<line x1="1159.716506" y1="242.207672" x2="1297.762106" y2="242.207672" stroke="black" stroke-width="4.05"/>
<line x1="1159.716506" y1="124.120472" x2="1159.716506" y2="242.207672" stroke="black" stroke-width="4.05"/>
<line x1="1312.176506" y1="131.882072" x2="1409.196506" y2="131.882072" stroke="black" stroke-width="4.05"/>
<line x1="1312.176506" y1="152.394872" x2="1409.196506" y2="152.394872" stroke="black" stroke-width="4.05"/>
<line x1="1312.730906" y1="173.462072" x2="1409.750906" y2="173.462072" stroke="black" stroke-width="4.05"/>
<line x1="1312.730906" y1="193.974872" x2="1409.750906" y2="193.974872" stroke="black" stroke-width="4.05"/>
<line x1="1312.176506" y1="214.487672" x2="1409.196506" y2="214.487672" stroke="black" stroke-width="4.05"/>
<line x1="1312.176506" y1="235.000472" x2="1409.196506" y2="235.000472" stroke="black" stroke-width="4.05"/>
<line x1="1212.384506" y1="242.207672" x2="1212.384506" y2="228.347672" stroke="black" stroke-width="4.05"/>
<line x1="1212.384506" y1="228.347672" x2="1246.757306" y2="228.347672" stroke="black" stroke-width="4.05"/>
<line x1="1246.757306" y1="228.347672" x2="1246.757306" y2="241.653272" stroke="black" stroke-width="4.05"/>
<circle cx="1282.238906" cy="139.089272" r="8.316000000000003" fill="none" stroke="black" stroke-width="4.05"/>
<line x1="2034.234756" y1="166.642459" x2="1850.312599" y2="166.642459" stroke="black" stroke-width="4.05"/>
<line x1="1850.312599" y1="166.642459" x2="1850.312599" y2="117.490849" stroke="black" stroke-width="4.05"/>
<line x1="2034.234756" y1="117.490849" x2="1850.312599" y2="117.490849" stroke="black" stroke-width="4.05"/>
<line x1="2034.234756" y1="166.642459" x2="2034.234756" y2="117.490849" stroke="black" stroke-width="4.05"/>
<line x1="1992.61444" y1="194.389337" x2="1992.61444" y2="166.642459" stroke="black" stroke-width="4.05"/>
<line x1="1893.518453" y1="166.642459" x2="1893.518453" y2="195.974874" stroke="black" stroke-width="4.05"/>
<circle cx="1943.859215" cy="239.577106" r="66.59250380904014" fill="none" stroke="black" stroke-width="4.05"/>
<circle cx="1943.859215" cy="239.577106" r="57.07928897917725" fill="none" stroke="black" stroke-width="4.05"/>
<line x1="1395.085691" y1="798.896383" x2="1395.085691" y2="819.136987" stroke="black" stroke-width="4.05"/>
<line x1="1395.085691" y1="819.136987" x2="1434.579556" y2="819.136987" stroke="black" stroke-width="4.05"/>
<line x1="1434.579556" y1="819.136987" x2="1434.579556" y2="798.896383" stroke="black" stroke-width="4.05"/>
<line x1="1434.579556" y1="798.896383" x2="1395.085691" y2="798.896383" stroke="black" stroke-width="4.05"/>
<line x1="1434.579556" y1="1017.099976" x2="1631.555194" y2="1017.099976" stroke="black" stroke-width="4.05"/>
<line x1="1394.098344" y1="1017.593647" x2="1394.098344" y2="1037.834251" stroke="black" stroke-width="4.05"/>
<line x1="1394.098344" y1="1037.834251" x2="1433.592209" y2="1037.834251" stroke="black" stroke-width="4.05"/>
<line x1="1433.592209" y1="1037.834251" x2="1433.592209" y2="1017.593647" stroke="black" stroke-width="4.05"/>
<line x1="1433.592209" y1="1017.593647" x2="1394.098344" y2="1017.593647" stroke="black" stroke-width="4.05"/>
<path d="m 1433.098534,819.136987 a 197.9629885,197.9629885 0 0 1 197.962988,197.962989" fill="none" stroke="black" stroke-width="4.05"/>
<line x1="1678.180298" y1="1426.113688" x2="1285.348298" y2="1426.113688" stroke="black" stroke-width="4.05"/>
<line x1="1285.348298" y1="1426.113688" x2="1285.348298" y2="1610.649688" stroke="black" stroke-width="4.05"/>
<line x1="1285.348298" y1="1610.649688" x2="1678.180298" y2="1610.649688" stroke="black" stroke-width="4.05"/>
<line x1="1678.180298" y1="1610.649688" x2="1678.180298" y2="1426.113688" stroke="black" stroke-width="4.05"/>
<line x1="1518.988298" y1="1610.649688" x2="1518.988298" y2="1691.433688" stroke="black" stroke-width="4.05"/>
<line x1="1518.988298" y1="1691.433688" x2="1597.396298" y2="1691.433688" stroke="black" stroke-width="4.05"/>
<line x1="1597.396298" y1="1691.433688" x2="1597.396298" y2="1610.649688" stroke="black" stroke-width="4.05"/>
<line x1="1596.604298" y1="1674.009688" x2="1518.988298" y2="1674.009688" stroke="black" stroke-width="4.05"/>
<line x1="1597.396298" y1="1344.537688" x2="1518.988298" y2="1344.537688" stroke="black" stroke-width="4.05"/>
<line x1="1518.988298" y1="1344.537688" x2="1518.988298" y2="1426.113688" stroke="black" stroke-width="4.05"/>
<line x1="1597.396298" y1="1426.113688" x2="1597.396298" y2="1344.537688" stroke="black" stroke-width="4.05"/>
<line x1="1596.604298" y1="1361.961688" x2="1518.988298" y2="1361.961688" stroke="black" stroke-width="4.05"/>
<line x1="1367.716298" y1="1610.649688" x2="1367.716298" y2="1691.433688" stroke="black" stroke-width="4.05"/>
<line x1="1367.716298" y1="1691.433688" x2="1446.124298" y2="1691.433688" stroke="black" stroke-width="4.05"/>
<line x1="1446.124298" y1="1691.433688" x2="1446.124298" y2="1610.649688" stroke="black" stroke-width="4.05"/>
<line x1="1446.124298" y1="1674.009688" x2="1367.716298" y2="1674.009688" stroke="black" stroke-width="4.05"/>
<line x1="1446.124298" y1="1344.537688" x2="1367.716298" y2="1344.537688" stroke="black" stroke-width="4.05"/>
<line x1="1367.716298" y1="1344.537688" x2="1367.716298" y2="1426.113688" stroke="black" stroke-width="4.05"/>
<line x1="1446.124298" y1="1426.113688" x2="1446.124298" y2="1344.537688" stroke="black" stroke-width="4.05"/>
<line x1="1446.124298" y1="1361.961688" x2="1367.716298" y2="1361.961688" stroke="black" stroke-width="4.05"/>
<line x1="734.172106" y1="1270.405984" x2="734.172106" y2="1080.325984" stroke="black" stroke-width="4.05"/>
<line x1="734.172106" y1="1080.325984" x2="270.376906" y2="1080.325984" stroke="black" stroke-width="4.05"/>
<line x1="270.376906" y1="1080.325984" x2="270.376906" y2="1270.405984" stroke="black" stroke-width="4.05"/>
<line x1="270.376906" y1="1270.405984" x2="294.136906" y2="1270.405984" stroke="black" stroke-width="4.05"/>
<line x1="294.136906" y1="1270.405984" x2="294.136906" y2="1103.135584" stroke="black" stroke-width="4.05"/>
<line x1="294.136906" y1="1103.135584" x2="709.461706" y2="1103.135584" stroke="black" stroke-width="4.05"/>
<line x1="709.461706" y1="1103.135584" x2="709.461706" y2="1270.405984" stroke="black" stroke-width="4.05"/>
<line x1="709.461706" y1="1270.405984" x2="734.172106" y2="1270.405984" stroke="black" stroke-width="4.05"/>
<line x1="709.461706" y1="1264.703584" x2="294.136906" y2="1264.703584" stroke="black" stroke-width="4.05"/>
<line x1="502.274506" y1="1265.653984" x2="502.274506" y2="1104.085984" stroke="black" stroke-width="4.05"/>
<line x1="553.560541" y1="1450.60672" x2="644.8945" y2="1373.968426" stroke="black" stroke-width="4.05"/>
<line x1="644.8945" y1="1373.968426" x2="721.68984" y2="1465.489548" stroke="black" stroke-width="4.05"/>
<line x1="721.68984" y1="1465.489548" x2="630.355878" y2="1542.127838" stroke="black" stroke-width="4.05"/>
<line x1="630.355878" y1="1542.127838" x2="553.560541" y2="1450.60672" stroke="black" stroke-width="4.05"/>
<line x1="553.216334" y1="1450.576606" x2="721.68984" y2="1465.489548" stroke="black" stroke-width="4.05"/>
<line x1="630.198832" y1="1541.940682" x2="644.707343" y2="1374.125468" stroke="black" stroke-width="4.05"/>
<line x1="188.751589" y1="1571.468832" x2="323.15076" y2="1731.639535" stroke="black" stroke-width="4.05"/>
<line x1="323.15076" y1="1731.639535" x2="500.794632" y2="1582.57863" stroke="black" stroke-width="4.05"/>
<line x1="500.794632" y1="1582.57863" x2="366.395454" y2="1422.40793" stroke="black" stroke-width="4.05"/>
<line x1="366.395454" y1="1422.40793" x2="188.751589" y2="1571.468832" stroke="black" stroke-width="4.05"/>
<line x1="213.50524" y1="1550.698052" x2="347.904418" y2="1710.868752" stroke="black" stroke-width="4.05"/>
<line x1="1919.891822" y1="1939.377139" x2="1919.891822" y2="1668.829939" stroke="black" stroke-width="4.05"/>
<line x1="1919.891822" y1="1668.829939" x2="2051.839022" y2="1668.829939" stroke="black" stroke-width="4.05"/>
<line x1="2051.839022" y1="1939.377139" x2="2051.839022" y2="1668.829939" stroke="black" stroke-width="4.05"/>
<line x1="1919.891822" y1="1939.377139" x2="2051.839022" y2="1939.377139" stroke="black" stroke-width="4.05"/>
<line x1="1926.544622" y1="1932.724339" x2="1926.544622" y2="1794.678739" stroke="black" stroke-width="4.05"/>
<line x1="1926.544622" y1="1794.678739" x2="2044.631822" y2="1794.678739" stroke="black" stroke-width="4.05"/>
<line x1="2044.631822" y1="1932.724339" x2="2044.631822" y2="1794.678739" stroke="black" stroke-width="4.05"/>
<line x1="1926.544622" y1="1932.724339" x2="2044.631822" y2="1932.724339" stroke="black" stroke-width="4.05"/>
<line x1="1934.306222" y1="1780.264339" x2="1934.306222" y2="1683.244339" stroke="black" stroke-width="4.05"/>
<line x1="1954.819022" y1="1780.264339" x2="1954.819022" y2="1683.244339" stroke="black" stroke-width="4.05"/>
<line x1="1975.886222" y1="1779.709939" x2="1975.886222" y2="1682.689939" stroke="black" stroke-width="4.05"/>
<line x1="1996.399022" y1="1779.709939" x2="1996.399022" y2="1682.689939" stroke="black" stroke-width="4.05"/>
<line x1="2016.911822" y1="1780.264339" x2="2016.911822" y2="1683.244339" stroke="black" stroke-width="4.05"/>
<line x1="2037.424622" y1="1780.264339" x2="2037.424622" y2="1683.244339" stroke="black" stroke-width="4.05"/>
<line x1="2044.631822" y1="1880.056339" x2="2030.771822" y2="1880.056339" stroke="black" stroke-width="4.05"/>
<line x1="2030.771822" y1="1880.056339" x2="2030.771822" y2="1845.683539" stroke="black" stroke-width="4.05"/>
<line x1="2030.771822" y1="1845.683539" x2="2044.077422" y2="1845.683539" stroke="black" stroke-width="4.05"/>
<circle cx="1941.513422" cy="1810.201939" r="8.316000000000003" fill="none" stroke="black" stroke-width="4.05"/>
<line x1="1799.832056" y1="1048.556923" x2="2008.920056" y2="1048.556923" stroke="black" stroke-width="4.05"/>
<line x1="2008.920056" y1="1048.556923" x2="2008.920056" y2="816.659323" stroke="black" stroke-width="4.05"/>
<line x1="2008.920056" y1="816.659323" x2="1799.832056" y2="816.659323" stroke="black" stroke-width="4.05"/>
<line x1="1799.832056" y1="816.659323" x2="1799.832056" y2="1048.556923" stroke="black" stroke-width="4.05"/>
<line x1="1799.832056" y1="1016.243323" x2="2008.920056" y2="1016.243323" stroke="black" stroke-width="4.05"/>
<line x1="1045.884953" y1="1700.653957" x2="1130.9287" y2="1509.642565" stroke="black" stroke-width="4.05"/>
<line x1="1130.9287" y1="1509.642565" x2="919.079701" y2="1415.321312" stroke="black" stroke-width="4.05"/>
<line x1="919.079701" y1="1415.321312" x2="834.035954" y2="1606.332712" stroke="black" stroke-width="4.05"/>
<line x1="834.035954" y1="1606.332712" x2="1045.884953" y2="1700.653957" stroke="black" stroke-width="4.05"/>
<line x1="1016.36501" y1="1687.510832" x2="1101.408757" y2="1496.49944" stroke="black" stroke-width="4.05"/>
<line x1="1666.989774" y1="604.690222" x2="1833.081988" y2="604.690222" stroke="black" stroke-width="4.05"/>
<line x1="1833.081988" y1="604.690222" x2="1833.081988" y2="771.122786" stroke="black" stroke-width="4.05"/>
<line x1="1833.081988" y1="771.122786" x2="1666.989774" y2="771.122786" stroke="black" stroke-width="4.05"/>
<line x1="1666.989774" y1="771.122786" x2="1666.989774" y2="604.690222" stroke="black" stroke-width="4.05"/>
<line x1="1666.649423" y1="604.34987" x2="1833.081988" y2="771.122786" stroke="black" stroke-width="4.05"/>
<line x1="1666.989774" y1="770.782435" x2="1832.741633" y2="604.690222" stroke="black" stroke-width="4.05"/>
<line x1="1832.995789" y1="604.424074" x2="1999.088003" y2="604.424074" stroke="black" stroke-width="4.05"/>
<line x1="1999.088003" y1="604.424074" x2="1999.088003" y2="770.856638" stroke="black" stroke-width="4.05"/>
<line x1="1999.088003" y1="770.856638" x2="1832.995789" y2="770.856638" stroke="black" stroke-width="4.05"/>
<line x1="1832.995789" y1="770.856638" x2="1832.995789" y2="604.424074" stroke="black" stroke-width="4.05"/>
<line x1="1832.655438" y1="604.083722" x2="1999.088003" y2="770.856638" stroke="black" stroke-width="4.05"/>
<line x1="1832.995789" y1="770.516287" x2="1998.747648" y2="604.424074" stroke="black" stroke-width="4.05"/>
<line x1="1501.570829" y1="604.276909" x2="1667.663042" y2="604.276909" stroke="black" stroke-width="4.05"/>
<line x1="1667.663042" y1="604.276909" x2="1667.663042" y2="770.709474" stroke="black" stroke-width="4.05"/>
<line x1="1667.663042" y1="770.709474" x2="1501.570829" y2="770.709474" stroke="black" stroke-width="4.05"/>
<line x1="1501.570829" y1="770.709474" x2="1501.570829" y2="604.276909" stroke="black" stroke-width="4.05"/>
<line x1="1501.230478" y1="603.936558" x2="1667.663042" y2="770.709474" stroke="black" stroke-width="4.05"/>
<line x1="1501.570829" y1="770.369123" x2="1667.322688" y2="604.276909" stroke="black" stroke-width="4.05"/>
<line x1="1886.55296" y1="1077.238843" x2="2052.645174" y2="1077.238843" stroke="black" stroke-width="4.05"/>
<line x1="2052.645174" y1="1077.238843" x2="2052.645174" y2="1243.671408" stroke="black" stroke-width="4.05"/>
<line x1="2052.645174" y1="1243.671408" x2="1886.55296" y2="1243.671408" stroke="black" stroke-width="4.05"/>
<line x1="1886.55296" y1="1243.671408" x2="1886.55296" y2="1077.238843" stroke="black" stroke-width="4.05"/>
<line x1="1886.212609" y1="1076.898492" x2="2052.645174" y2="1243.671408" stroke="black" stroke-width="4.05"/>
<line x1="1886.55296" y1="1243.331057" x2="2052.304819" y2="1077.238843" stroke="black" stroke-width="4.05"/>
<line x1="1915.896632" y1="1644.870398" x2="1915.896632" y2="1251.626526" stroke="black" stroke-width="4.05"/>
<line x1="1914.90035" y1="1247.67112" x2="2050.969126" y2="1247.67112" stroke="black" stroke-width="4.05"/>
<line x1="2052.120632" y1="1644.406009" x2="2052.120632" y2="1247.365778" stroke="black" stroke-width="4.05"/>
<line x1="1916.591382" y1="1643.67112" x2="2051.855438" y2="1643.67112" stroke="black" stroke-width="4.05"/>
<line x1="1926.984632" y1="1633.37512" x2="1926.984632" y2="1509.82312" stroke="black" stroke-width="4.05"/>
<line x1="1926.984632" y1="1509.82312" x2="2041.032632" y2="1509.82312" stroke="black" stroke-width="4.05"/>
<line x1="2041.032632" y1="1633.37512" x2="2041.032632" y2="1509.82312" stroke="black" stroke-width="4.05"/>
<line x1="1926.984632" y1="1633.37512" x2="2041.032632" y2="1633.37512" stroke="black" stroke-width="4.05"/>
<line x1="1934.112632" y1="1490.81512" x2="1934.112632" y2="1403.69512" stroke="black" stroke-width="4.05"/>
<line x1="1953.912632" y1="1490.81512" x2="1953.912632" y2="1403.69512" stroke="black" stroke-width="4.05"/>
<line x1="1974.504632" y1="1490.02312" x2="1974.504632" y2="1403.69512" stroke="black" stroke-width="4.05"/>
<line x1="1994.304632" y1="1490.02312" x2="1994.304632" y2="1403.69512" stroke="black" stroke-width="4.05"/>
<line x1="2014.104632" y1="1490.81512" x2="2014.104632" y2="1403.69512" stroke="black" stroke-width="4.05"/>
<line x1="2033.904632" y1="1490.81512" x2="2033.904632" y2="1403.69512" stroke="black" stroke-width="4.05"/>
<line x1="2040.240632" y1="1585.85512" x2="2026.776632" y2="1585.85512" stroke="black" stroke-width="4.05"/>
<line x1="2026.776632" y1="1585.85512" x2="2026.776632" y2="1555.75912" stroke="black" stroke-width="4.05"/>
<line x1="2026.776632" y1="1555.75912" x2="2039.448632" y2="1555.75912" stroke="black" stroke-width="4.05"/>
<line x1="1926.984632" y1="1383.10312" x2="1926.984632" y2="1259.55112" stroke="black" stroke-width="4.05"/>
<line x1="1926.984632" y1="1259.55112" x2="2041.032632" y2="1259.55112" stroke="black" stroke-width="4.05"/>
<line x1="2041.032632" y1="1383.10312" x2="2041.032632" y2="1259.55112" stroke="black" stroke-width="4.05"/>
<line x1="1926.984632" y1="1383.10312" x2="2041.032632" y2="1383.10312" stroke="black" stroke-width="4.05"/>
<line x1="2041.032632" y1="1335.58312" x2="2027.568632" y2="1335.58312" stroke="black" stroke-width="4.05"/>
<line x1="2027.568632" y1="1335.58312" x2="2027.568632" y2="1305.48712" stroke="black" stroke-width="4.05"/>
<line x1="2027.568632" y1="1305.48712" x2="2040.240632" y2="1305.48712" stroke="black" stroke-width="4.05"/>
<circle cx="1941.240632" cy="1524.07912" r="7.128000000000001" fill="none" stroke="black" stroke-width="4.05"/>
<circle cx="1942.032632" cy="1273.80712" r="7.128000000000001" fill="none" stroke="black" stroke-width="4.05"/>
</g>
</svg>
