<?xml version="1.0"?>
<svg xmlns:xlink="http://www.w3.org/1999/xlink" width="2170.8" height="2138.4">
<image x="0" y="0" width="2170.8" height="2138.4" xlink:href="ground16-04.png"/>
<g style="stroke-linecap:round">
<line x1="355.533062" y1="110.352848" x2="594.608141" y2="110.352848" stroke="black" stroke-width="4.05"/>
<line x1="594.608141" y1="110.352848" x2="594.608141" y2="67.591451" stroke="black" stroke-width="4.05"/>
<line x1="594.608141" y1="67.591451" x2="355.533062" y2="67.591451" stroke="black" stroke-width="4.05"/>
<line x1="355.533062" y1="67.591451" x2="355.533062" y2="110.352848" stroke="black" stroke-width="4.05"/>
<line x1="366.709334" y1="110.352848" x2="366.709334" y2="124.930598" stroke="black" stroke-width="4.05"/>
<line x1="366.709334" y1="124.930598" x2="582.945941" y2="124.930598" stroke="black" stroke-width="4.05"/>
<line x1="582.945941" y1="110.352848" x2="582.945941" y2="124.930598" stroke="black" stroke-width="4.05"/>
<line x1="1586.39715" y1="105.206782" x2="1826.184114" y2="105.206782" stroke="black" stroke-width="4.05"/>
<line x1="1826.184114" y1="105.206782" x2="1826.184114" y2="68.24165" stroke="black" stroke-width="4.05"/>
<line x1="1826.184114" y1="68.24165" x2="1586.39715" y2="68.24165" stroke="black" stroke-width="4.05"/>
<line x1="1586.39715" y1="68.24165" x2="1586.39715" y2="105.206782" stroke="black" stroke-width="4.05"/>
<line x1="1608.770783" y1="68.728036" x2="1608.770783" y2="104.720396" stroke="black" stroke-width="4.05"/>
<line x1="1803.3241" y1="68.728036" x2="1803.3241" y2="106.179548" stroke="black" stroke-width="4.05"/>
<line x1="1608.284398" y1="85.751449" x2="1802.837714" y2="85.751449" stroke="black" stroke-width="4.05"/>
<line x1="455.164369" y1="2021.61294" x2="214.682375" y2="2021.61294" stroke="black" stroke-width="4.05"/>
<line x1="214.682375" y1="2021.61294" x2="214.682375" y2="2058.685214" stroke="black" stroke-width="4.05"/>
<line x1="214.682375" y1="2058.685214" x2="455.164369" y2="2058.685214" stroke="black" stroke-width="4.05"/>
<line x1="455.164369" y1="2058.685214" x2="455.164369" y2="2021.61294" stroke="black" stroke-width="4.05"/>
<line x1="432.72589" y1="2058.197422" x2="432.72589" y2="2022.100733" stroke="black" stroke-width="4.05"/>
<line x1="237.608647" y1="2058.197422" x2="237.608647" y2="2020.637354" stroke="black" stroke-width="4.05"/>
<line x1="433.213682" y1="2041.124663" x2="238.096444" y2="2041.124663" stroke="black" stroke-width="4.05"/>
<line x1="1004.397887" y1="2015.058442" x2="764.627821" y2="2015.058442" stroke="black" stroke-width="4.05"/>
<line x1="764.627821" y1="2015.058442" x2="764.627821" y2="2057.944144" stroke="black" stroke-width="4.05"/>
<line x1="764.627821" y1="2057.944144" x2="1004.397887" y2="2057.944144" stroke="black" stroke-width="4.05"/>
<line x1="1004.397887" y1="2057.944144" x2="1004.397887" y2="2015.058442" stroke="black" stroke-width="4.05"/>
<line x1="993.189125" y1="2015.058442" x2="993.189125" y2="2000.438316" stroke="black" stroke-width="4.05"/>
<line x1="993.189125" y1="2000.438316" x2="776.323922" y2="2000.438316" stroke="black" stroke-width="4.05"/>
<line x1="776.323922" y1="2015.058442" x2="776.323922" y2="2000.438316" stroke="black" stroke-width="4.05"/>
<line x1="1502.318696" y1="2015.331124" x2="1262.548631" y2="2015.331124" stroke="black" stroke-width="4.05"/>
<line x1="1262.548631" y1="2015.331124" x2="1262.548631" y2="2058.216826" stroke="black" stroke-width="4.05"/>
<line x1="1262.548631" y1="2058.216826" x2="1502.318696" y2="2058.216826" stroke="black" stroke-width="4.05"/>
<line x1="1502.318696" y1="2058.216826" x2="1502.318696" y2="2015.331124" stroke="black" stroke-width="4.05"/>
<line x1="1491.109934" y1="2015.331124" x2="1491.109934" y2="2000.710998" stroke="black" stroke-width="4.05"/>
<line x1="1491.109934" y1="2000.710998" x2="1274.244732" y2="2000.710998" stroke="black" stroke-width="4.05"/>
<line x1="1274.244732" y1="2015.331124" x2="1274.244732" y2="2000.710998" stroke="black" stroke-width="4.05"/>
<line x1="1977.071191" y1="2021.28741" x2="1737.284227" y2="2021.28741" stroke="black" stroke-width="4.05"/>
<line x1="1737.284227" y1="2021.28741" x2="1737.284227" y2="2058.252541" stroke="black" stroke-width="4.05"/>
<line x1="1737.284227" y1="2058.252541" x2="1977.071191" y2="2058.252541" stroke="black" stroke-width="4.05"/>
<line x1="1977.071191" y1="2058.252541" x2="1977.071191" y2="2021.28741" stroke="black" stroke-width="4.05"/>
<line x1="1954.697558" y1="2057.766156" x2="1954.697558" y2="2021.773795" stroke="black" stroke-width="4.05"/>
<line x1="1760.144242" y1="2057.766156" x2="1760.144242" y2="2020.314643" stroke="black" stroke-width="4.05"/>
<line x1="1955.183944" y1="2040.742742" x2="1760.630627" y2="2040.742742" stroke="black" stroke-width="4.05"/>
<line x1="2058.575306" y1="203.989972" x2="2058.575306" y2="444.455024" stroke="black" stroke-width="4.05"/>
<line x1="2058.575306" y1="444.455024" x2="2101.585316" y2="444.455024" stroke="black" stroke-width="4.05"/>
<line x1="2101.585316" y1="444.455024" x2="2101.585316" y2="203.989972" stroke="black" stroke-width="4.05"/>
<line x1="2101.585316" y1="203.989972" x2="2058.575306" y2="203.989972" stroke="black" stroke-width="4.05"/>
<line x1="2058.575306" y1="215.231224" x2="2043.912805" y2="215.231224" stroke="black" stroke-width="4.05"/>
<line x1="2043.912805" y1="215.231224" x2="2043.912805" y2="432.725022" stroke="black" stroke-width="4.05"/>
<line x1="2058.575306" y1="432.725022" x2="2043.912805" y2="432.725022" stroke="black" stroke-width="4.05"/>
<line x1="2062.857866" y1="776.16608" x2="2062.857866" y2="1027.768633" stroke="black" stroke-width="4.05"/>
<line x1="2062.857866" y1="1027.768633" x2="2101.644464" y2="1027.768633" stroke="black" stroke-width="4.05"/>
<line x1="2101.644464" y1="1027.768633" x2="2101.644464" y2="776.16608" stroke="black" stroke-width="4.05"/>
<line x1="2101.644464" y1="776.16608" x2="2062.857866" y2="776.16608" stroke="black" stroke-width="4.05"/>
<line x1="2101.134114" y1="799.642181" x2="2063.368217" y2="799.642181" stroke="black" stroke-width="4.05"/>
<line x1="2101.134114" y1="1003.782182" x2="2061.837166" y2="1003.782182" stroke="black" stroke-width="4.05"/>
<line x1="2083.271864" y1="799.13183" x2="2083.271864" y2="1003.271832" stroke="black" stroke-width="4.05"/>
<line x1="2064.600925" y1="1369.92258" x2="2064.600925" y2="1611.794646" stroke="black" stroke-width="4.05"/>
<line x1="2064.600925" y1="1611.794646" x2="2101.887493" y2="1611.794646" stroke="black" stroke-width="4.05"/>
<line x1="2101.887493" y1="1611.794646" x2="2101.887493" y2="1369.92258" stroke="black" stroke-width="4.05"/>
<line x1="2101.887493" y1="1369.92258" x2="2064.600925" y2="1369.92258" stroke="black" stroke-width="4.05"/>
<line x1="2101.396882" y1="1392.490764" x2="2065.09154" y2="1392.490764" stroke="black" stroke-width="4.05"/>
<line x1="2101.396882" y1="1588.73585" x2="2063.619702" y2="1588.73585" stroke="black" stroke-width="4.05"/>
<line x1="2084.225436" y1="1392.000152" x2="2084.225436" y2="1588.245235" stroke="black" stroke-width="4.05"/>
<line x1="144.255596" y1="1589.650286" x2="144.255596" y2="1347.795266" stroke="black" stroke-width="4.05"/>
<line x1="144.255596" y1="1347.795266" x2="100.996974" y2="1347.795266" stroke="black" stroke-width="4.05"/>
<line x1="100.996974" y1="1347.795266" x2="100.996974" y2="1589.650286" stroke="black" stroke-width="4.05"/>
<line x1="100.996974" y1="1589.650286" x2="144.255596" y2="1589.650286" stroke="black" stroke-width="4.05"/>
<line x1="144.255596" y1="1578.344054" x2="159.002856" y2="1578.344054" stroke="black" stroke-width="4.05"/>
<line x1="159.002856" y1="1578.344054" x2="159.002856" y2="1359.593071" stroke="black" stroke-width="4.05"/>
<line x1="144.255596" y1="1359.593071" x2="159.002856" y2="1359.593071" stroke="black" stroke-width="4.05"/>
<line x1="145.345295" y1="909.129312" x2="145.345295" y2="667.274292" stroke="black" stroke-width="4.05"/>
<line x1="145.345295" y1="667.274292" x2="102.086672" y2="667.274292" stroke="black" stroke-width="4.05"/>
<line x1="102.086672" y1="667.274292" x2="102.086672" y2="909.129312" stroke="black" stroke-width="4.05"/>
<line x1="102.086672" y1="909.129312" x2="145.345295" y2="909.129312" stroke="black" stroke-width="4.05"/>
<line x1="145.345295" y1="897.82308" x2="160.092554" y2="897.82308" stroke="black" stroke-width="4.05"/>
<line x1="160.092554" y1="897.82308" x2="160.092554" y2="679.072097" stroke="black" stroke-width="4.05"/>
<line x1="145.345295" y1="679.072097" x2="160.092554" y2="679.072097" stroke="black" stroke-width="4.05"/>
<line x1="138.442799" y1="445.034534" x2="138.442799" y2="203.162468" stroke="black" stroke-width="4.05"/>
<line x1="138.442799" y1="203.162468" x2="101.156231" y2="203.162468" stroke="black" stroke-width="4.05"/>
<line x1="101.156231" y1="203.162468" x2="101.156231" y2="445.034534" stroke="black" stroke-width="4.05"/>
<line x1="101.156231" y1="445.034534" x2="138.442799" y2="445.034534" stroke="black" stroke-width="4.05"/>
<line x1="101.646842" y1="422.46635" x2="137.952184" y2="422.46635" stroke="black" stroke-width="4.05"/>
<line x1="101.646842" y1="226.221264" x2="139.424022" y2="226.221264" stroke="black" stroke-width="4.05"/>
<line x1="118.818288" y1="422.956962" x2="118.818288" y2="226.711879" stroke="black" stroke-width="4.05"/>
<line x1="769.930034" y1="716.057262" x2="560.564831" y2="716.057262" stroke="black" stroke-width="4.05"/>
<line x1="560.564831" y1="716.057262" x2="560.564831" y2="1047.271666" stroke="black" stroke-width="4.05"/>
<line x1="560.564831" y1="1047.271666" x2="769.930034" y2="1047.271666" stroke="black" stroke-width="4.05"/>
<line x1="769.930034" y1="1047.271666" x2="769.930034" y2="716.057262" stroke="black" stroke-width="4.05"/>
<line x1="770.603234" y1="988.030062" x2="559.891631" y2="988.030062" stroke="black" stroke-width="4.05"/>
<line x1="559.891631" y1="988.030062" x2="769.256831" y2="938.213262" stroke="black" stroke-width="4.05"/>
<line x1="769.256831" y1="938.213262" x2="737.616431" y2="891.762462" stroke="black" stroke-width="4.05"/>
<line x1="737.616431" y1="891.762462" x2="559.891631" y2="988.703266" stroke="black" stroke-width="4.05"/>
<line x1="1110.575106" y1="1028.171776" x2="1110.575106" y2="1007.813491" stroke="black" stroke-width="4.05"/>
<line x1="1110.575106" y1="1007.813491" x2="1070.851626" y2="1007.813491" stroke="black" stroke-width="4.05"/>
<line x1="1070.851626" y1="1007.813491" x2="1070.851626" y2="1028.171776" stroke="black" stroke-width="4.05"/>
<line x1="1070.851626" y1="1028.171776" x2="1110.575106" y2="1028.171776" stroke="black" stroke-width="4.05"/>
<line x1="1070.851626" y1="808.699558" x2="872.730778" y2="808.699558" stroke="black" stroke-width="4.05"/>
<line x1="1111.568191" y1="808.203013" x2="1111.568191" y2="787.844732" stroke="black" stroke-width="4.05"/>
<line x1="1111.568191" y1="787.844732" x2="1071.844715" y2="787.844732" stroke="black" stroke-width="4.05"/>
<line x1="1071.844715" y1="787.844732" x2="1071.844715" y2="808.203013" stroke="black" stroke-width="4.05"/>
<line x1="1071.844715" y1="808.203013" x2="1111.568191" y2="808.203013" stroke="black" stroke-width="4.05"/>
<path d="m 1072.341256,1007.813491 a 199.11393349999997,199.11393349999997 0 0 1 -199.11393399999997,-199.11393299999997" fill="none" stroke="black" stroke-width="4.05"/>
<line x1="913.136738" y1="247.05077" x2="1080.250153" y2="247.05077" stroke="black" stroke-width="4.05"/>
<line x1="1080.250153" y1="247.05077" x2="1080.250153" y2="414.506628" stroke="black" stroke-width="4.05"/>
<line x1="1080.250153" y1="414.506628" x2="913.136738" y2="414.506628" stroke="black" stroke-width="4.05"/>
<line x1="913.136738" y1="414.506628" x2="913.136738" y2="247.05077" stroke="black" stroke-width="4.05"/>
<line x1="912.794296" y1="246.708324" x2="1080.250153" y2="414.506628" stroke="black" stroke-width="4.05"/>
<line x1="913.136738" y1="414.164185" x2="1079.90771" y2="247.05077" stroke="black" stroke-width="4.05"/>
<line x1="389.254385" y1="150.115561" x2="208.178863" y2="254.659561" stroke="black" stroke-width="4.05"/>
<line x1="208.178863" y1="254.659561" x2="324.127663" y2="455.488776" stroke="black" stroke-width="4.05"/>
<line x1="324.127663" y1="455.488776" x2="505.203185" y2="350.944772" stroke="black" stroke-width="4.05"/>
<line x1="505.203185" y1="350.944772" x2="389.254385" y2="150.115561" stroke="black" stroke-width="4.05"/>
<line x1="405.411185" y1="178.099963" x2="224.335663" y2="282.643963" stroke="black" stroke-width="4.05"/>
<line x1="1637.344138" y1="572.730257" x2="2030.644984" y2="572.730257" stroke="black" stroke-width="4.05"/>
<line x1="2030.644984" y1="572.730257" x2="2030.644984" y2="397.576033" stroke="black" stroke-width="4.05"/>
<line x1="2030.644984" y1="397.576033" x2="1637.344138" y2="397.576033" stroke="black" stroke-width="4.05"/>
<line x1="1637.344138" y1="397.576033" x2="1637.344138" y2="572.730257" stroke="black" stroke-width="4.05"/>
<line x1="1955.010204" y1="424.645322" x2="1669.190357" y2="424.645322" stroke="black" stroke-width="4.05"/>
<line x1="1669.190357" y1="424.645322" x2="1669.190357" y2="543.272501" stroke="black" stroke-width="4.05"/>
<line x1="1669.190357" y1="543.272501" x2="1960.583292" y2="543.272501" stroke="black" stroke-width="4.05"/>
<path d="m 1954.19538,424.388556 a 63.69244503127078,63.69244503127078 0 0 1 4.316342000000077,120.00067899999999" fill="none" stroke="black" stroke-width="4.05"/>
<line x1="1132.995863" y1="600.926753" x2="1153.236467" y2="600.926753" stroke="black" stroke-width="4.05"/>
<line x1="1153.236467" y1="600.926753" x2="1153.236467" y2="561.432888" stroke="black" stroke-width="4.05"/>
<line x1="1153.236467" y1="561.432888" x2="1132.995863" y2="561.432888" stroke="black" stroke-width="4.05"/>
<line x1="1132.995863" y1="561.432888" x2="1132.995863" y2="600.926753" stroke="black" stroke-width="4.05"/>
<line x1="1351.199455" y1="561.432888" x2="1351.199455" y2="364.45725" stroke="black" stroke-width="4.05"/>
<line x1="1351.693127" y1="601.9141" x2="1371.933731" y2="601.9141" stroke="black" stroke-width="4.05"/>
<line x1="1371.933731" y1="601.9141" x2="1371.933731" y2="562.420235" stroke="black" stroke-width="4.05"/>
<line x1="1371.933731" y1="562.420235" x2="1351.693127" y2="562.420235" stroke="black" stroke-width="4.05"/>
<line x1="1351.693127" y1="562.420235" x2="1351.693127" y2="601.9141" stroke="black" stroke-width="4.05"/>
<path d="m 1153.236467,562.91391 a 197.962988,197.962988 0 0 1 197.962988,-197.962988" fill="none" stroke="black" stroke-width="4.05"/>
<line x1="1159.651919" y1="117.508338" x2="1430.199119" y2="117.508338" stroke="black" stroke-width="4.05"/>
<line x1="1430.199119" y1="117.508338" x2="1430.199119" y2="249.455538" stroke="black" stroke-width="4.05"/>
<line x1="1159.651919" y1="249.455538" x2="1430.199119" y2="249.455538" stroke="black" stroke-width="4.05"/>
<line x1="1159.651919" y1="117.508338" x2="1159.651919" y2="249.455538" stroke="black" stroke-width="4.05"/>
<line x1="1166.304719" y1="124.161138" x2="1304.350319" y2="124.161138" stroke="black" stroke-width="4.05"/>
<line x1="1304.350319" y1="124.161138" x2="1304.350319" y2="242.248338" stroke="black" stroke-width="4.05"/>
<line x1="1166.304719" y1="242.248338" x2="1304.350319" y2="242.248338" stroke="black" stroke-width="4.05"/>
<line x1="1166.304719" y1="124.161138" x2="1166.304719" y2="242.248338" stroke="black" stroke-width="4.05"/>
<line x1="1318.764719" y1="131.922738" x2="1415.784719" y2="131.922738" stroke="black" stroke-width="4.05"/>
<line x1="1318.764719" y1="152.435538" x2="1415.784719" y2="152.435538" stroke="black" stroke-width="4.05"/>
<line x1="1319.319119" y1="173.502738" x2="1416.339119" y2="173.502738" stroke="black" stroke-width="4.05"/>
<line x1="1319.319119" y1="194.015538" x2="1416.339119" y2="194.015538" stroke="black" stroke-width="4.05"/>
<line x1="1318.764719" y1="214.528338" x2="1415.784719" y2="214.528338" stroke="black" stroke-width="4.05"/>
<line x1="1318.764719" y1="235.041138" x2="1415.784719" y2="235.041138" stroke="black" stroke-width="4.05"/>
<line x1="1218.972719" y1="242.248338" x2="1218.972719" y2="228.388338" stroke="black" stroke-width="4.05"/>
<line x1="1218.972719" y1="228.388338" x2="1253.345519" y2="228.388338" stroke="black" stroke-width="4.05"/>
<line x1="1253.345519" y1="228.388338" x2="1253.345519" y2="241.693938" stroke="black" stroke-width="4.05"/>
<circle cx="1288.827119" cy="139.129938" r="8.316000000000003" fill="none" stroke="black" stroke-width="4.05"/>
<line x1="2034.234756" y1="166.642459" x2="1850.312599" y2="166.642459" stroke="black" stroke-width="4.05"/>
<line x1="1850.312599" y1="166.642459" x2="1850.312599" y2="117.490849" stroke="black" stroke-width="4.05"/>
<line x1="2034.234756" y1="117.490849" x2="1850.312599" y2="117.490849" stroke="black" stroke-width="4.05"/>
<line x1="2034.234756" y1="166.642459" x2="2034.234756" y2="117.490849" stroke="black" stroke-width="4.05"/>
<line x1="1992.61444" y1="194.389337" x2="1992.61444" y2="166.642459" stroke="black" stroke-width="4.05"/>
<line x1="1893.518453" y1="166.642459" x2="1893.518453" y2="195.974874" stroke="black" stroke-width="4.05"/>
<circle cx="1943.859215" cy="239.577106" r="66.59250380904014" fill="none" stroke="black" stroke-width="4.05"/>
<circle cx="1943.859215" cy="239.577106" r="57.07928897917725" fill="none" stroke="black" stroke-width="4.05"/>
<line x1="1395.085691" y1="798.896383" x2="1395.085691" y2="819.136987" stroke="black" stroke-width="4.05"/>
<line x1="1395.085691" y1="819.136987" x2="1434.579556" y2="819.136987" stroke="black" stroke-width="4.05"/>
<line x1="1434.579556" y1="819.136987" x2="1434.579556" y2="798.896383" stroke="black" stroke-width="4.05"/>
<line x1="1434.579556" y1="798.896383" x2="1395.085691" y2="798.896383" stroke="black" stroke-width="4.05"/>
<line x1="1434.579556" y1="1017.099976" x2="1631.555194" y2="1017.099976" stroke="black" stroke-width="4.05"/>
<line x1="1394.098344" y1="1017.593647" x2="1394.098344" y2="1037.834251" stroke="black" stroke-width="4.05"/>
<line x1="1394.098344" y1="1037.834251" x2="1433.592209" y2="1037.834251" stroke="black" stroke-width="4.05"/>
<line x1="1433.592209" y1="1037.834251" x2="1433.592209" y2="1017.593647" stroke="black" stroke-width="4.05"/>
<line x1="1433.592209" y1="1017.593647" x2="1394.098344" y2="1017.593647" stroke="black" stroke-width="4.05"/>
<path d="m 1433.098534,819.136987 a 197.9629885,197.9629885 0 0 1 197.962988,197.962989" fill="none" stroke="black" stroke-width="4.05"/>
<line x1="1276.379716" y1="1448.181025" x2="1558.959408" y2="1721.065061" stroke="black" stroke-width="4.05"/>
<line x1="1558.959408" y1="1721.065061" x2="1687.148885" y2="1588.320972" stroke="black" stroke-width="4.05"/>
<line x1="1687.148885" y1="1588.320972" x2="1404.569192" y2="1315.436936" stroke="black" stroke-width="4.05"/>
<line x1="1404.569192" y1="1315.436936" x2="1276.379716" y2="1448.181025" stroke="black" stroke-width="4.05"/>
<line x1="1519.082334" y1="1426.020988" x2="1575.199616" y2="1367.909842" stroke="black" stroke-width="4.05"/>
<line x1="1575.199616" y1="1367.909842" x2="1518.797621" y2="1313.443069" stroke="black" stroke-width="4.05"/>
<line x1="1518.797621" y1="1313.443069" x2="1462.680338" y2="1371.554219" stroke="black" stroke-width="4.05"/>
<line x1="1507.26361" y1="1326.527014" x2="1563.095887" y2="1380.443623" stroke="black" stroke-width="4.05"/>
<line x1="1277.823413" y1="1562.979168" x2="1334.225405" y2="1617.445944" stroke="black" stroke-width="4.05"/>
<line x1="1334.225405" y1="1617.445944" x2="1390.892857" y2="1558.76508" stroke="black" stroke-width="4.05"/>
<line x1="1334.490862" y1="1504.298304" x2="1277.823413" y2="1562.979168" stroke="black" stroke-width="4.05"/>
<line x1="1290.496856" y1="1550.995564" x2="1346.329134" y2="1604.912166" stroke="black" stroke-width="4.05"/>
<line x1="1627.898306" y1="1531.10335" x2="1684.015589" y2="1472.992204" stroke="black" stroke-width="4.05"/>
<line x1="1684.015589" y1="1472.992204" x2="1627.61359" y2="1418.525428" stroke="black" stroke-width="4.05"/>
<line x1="1627.61359" y1="1418.525428" x2="1571.496311" y2="1476.636577" stroke="black" stroke-width="4.05"/>
<line x1="1615.509864" y1="1431.059209" x2="1671.91186" y2="1485.525982" stroke="black" stroke-width="4.05"/>
<line x1="1386.639382" y1="1668.06153" x2="1443.041374" y2="1722.528306" stroke="black" stroke-width="4.05"/>
<line x1="1443.041374" y1="1722.528306" x2="1499.70883" y2="1663.847442" stroke="black" stroke-width="4.05"/>
<line x1="1443.306834" y1="1609.380666" x2="1386.639382" y2="1668.06153" stroke="black" stroke-width="4.05"/>
<line x1="1398.743107" y1="1655.527756" x2="1455.145103" y2="1709.994528" stroke="black" stroke-width="4.05"/>
<line x1="809.344454" y1="1270.405984" x2="809.344454" y2="1080.325984" stroke="black" stroke-width="4.05"/>
<line x1="809.344454" y1="1080.325984" x2="345.549254" y2="1080.325984" stroke="black" stroke-width="4.05"/>
<line x1="345.549254" y1="1080.325984" x2="345.549254" y2="1270.405984" stroke="black" stroke-width="4.05"/>
<line x1="345.549254" y1="1270.405984" x2="369.309254" y2="1270.405984" stroke="black" stroke-width="4.05"/>
<line x1="369.309254" y1="1270.405984" x2="369.309254" y2="1103.135584" stroke="black" stroke-width="4.05"/>
<line x1="369.309254" y1="1103.135584" x2="784.634054" y2="1103.135584" stroke="black" stroke-width="4.05"/>
<line x1="784.634054" y1="1103.135584" x2="784.634054" y2="1270.405984" stroke="black" stroke-width="4.05"/>
<line x1="784.634054" y1="1270.405984" x2="809.344454" y2="1270.405984" stroke="black" stroke-width="4.05"/>
<line x1="784.634054" y1="1264.703584" x2="369.309254" y2="1264.703584" stroke="black" stroke-width="4.05"/>
<line x1="577.446854" y1="1265.653984" x2="577.446854" y2="1104.085984" stroke="black" stroke-width="4.05"/>
<line x1="621.207763" y1="1374.186031" x2="721.453748" y2="1441.802804" stroke="black" stroke-width="4.049996"/>
<line x1="721.453748" y1="1441.802804" x2="653.698415" y2="1542.254213" stroke="black" stroke-width="4.049996"/>
<line x1="653.698415" y1="1542.254213" x2="553.45243" y2="1474.63744" stroke="black" stroke-width="4.049996"/>
<line x1="553.45243" y1="1474.63744" x2="621.207763" y2="1374.186031" stroke="black" stroke-width="4.049996"/>
<line x1="621.140897" y1="1373.842051" x2="653.698415" y2="1542.254213" stroke="black" stroke-width="4.049996"/>
<line x1="553.59099" y1="1474.432016" x2="721.248325" y2="1441.664244" stroke="black" stroke-width="4.049996"/>
<line x1="1919.891822" y1="1936.037606" x2="1919.891822" y2="1665.490406" stroke="black" stroke-width="4.05"/>
<line x1="1919.891822" y1="1665.490406" x2="2051.839022" y2="1665.490406" stroke="black" stroke-width="4.05"/>
<line x1="2051.839022" y1="1936.037606" x2="2051.839022" y2="1665.490406" stroke="black" stroke-width="4.05"/>
<line x1="1919.891822" y1="1936.037606" x2="2051.839022" y2="1936.037606" stroke="black" stroke-width="4.05"/>
<line x1="1926.544622" y1="1929.384806" x2="1926.544622" y2="1791.339206" stroke="black" stroke-width="4.05"/>
<line x1="1926.544622" y1="1791.339206" x2="2044.631822" y2="1791.339206" stroke="black" stroke-width="4.05"/>
<line x1="2044.631822" y1="1929.384806" x2="2044.631822" y2="1791.339206" stroke="black" stroke-width="4.05"/>
<line x1="1926.544622" y1="1929.384806" x2="2044.631822" y2="1929.384806" stroke="black" stroke-width="4.05"/>
<line x1="1934.306222" y1="1776.924806" x2="1934.306222" y2="1679.904806" stroke="black" stroke-width="4.05"/>
<line x1="1954.819022" y1="1776.924806" x2="1954.819022" y2="1679.904806" stroke="black" stroke-width="4.05"/>
<line x1="1975.886222" y1="1776.370406" x2="1975.886222" y2="1679.350406" stroke="black" stroke-width="4.05"/>
<line x1="1996.399022" y1="1776.370406" x2="1996.399022" y2="1679.350406" stroke="black" stroke-width="4.05"/>
<line x1="2016.911822" y1="1776.924806" x2="2016.911822" y2="1679.904806" stroke="black" stroke-width="4.05"/>
<line x1="2037.424622" y1="1776.924806" x2="2037.424622" y2="1679.904806" stroke="black" stroke-width="4.05"/>
<line x1="2044.631822" y1="1876.716806" x2="2030.771822" y2="1876.716806" stroke="black" stroke-width="4.05"/>
<line x1="2030.771822" y1="1876.716806" x2="2030.771822" y2="1842.344006" stroke="black" stroke-width="4.05"/>
<line x1="2030.771822" y1="1842.344006" x2="2044.077422" y2="1842.344006" stroke="black" stroke-width="4.05"/>
<circle cx="1941.513422" cy="1806.862406" r="8.316000000000003" fill="none" stroke="black" stroke-width="4.05"/>
<line x1="1799.832056" y1="1048.556923" x2="2008.920056" y2="1048.556923" stroke="black" stroke-width="4.05"/>
<line x1="2008.920056" y1="1048.556923" x2="2008.920056" y2="816.659323" stroke="black" stroke-width="4.05"/>
<line x1="2008.920056" y1="816.659323" x2="1799.832056" y2="816.659323" stroke="black" stroke-width="4.05"/>
<line x1="1799.832056" y1="816.659323" x2="1799.832056" y2="1048.556923" stroke="black" stroke-width="4.05"/>
<line x1="1799.832056" y1="1016.243323" x2="2008.920056" y2="1016.243323" stroke="black" stroke-width="4.05"/>
<line x1="189.49689" y1="1593.236894" x2="344.879557" y2="1733.144076" stroke="black" stroke-width="4.05"/>
<line x1="344.879557" y1="1733.144076" x2="500.049335" y2="1560.810571" stroke="black" stroke-width="4.05"/>
<line x1="500.049335" y1="1560.810571" x2="344.666671" y2="1420.903393" stroke="black" stroke-width="4.05"/>
<line x1="344.666671" y1="1420.903393" x2="189.49689" y2="1593.236894" stroke="black" stroke-width="4.05"/>
<line x1="211.118911" y1="1569.22321" x2="366.501575" y2="1709.130388" stroke="black" stroke-width="4.05"/>
<line x1="1055.682407" y1="1695.883684" x2="1127.194711" y2="1499.405234" stroke="black" stroke-width="4.05"/>
<line x1="1127.194711" y1="1499.405234" x2="909.282247" y2="1420.091582" stroke="black" stroke-width="4.05"/>
<line x1="909.282247" y1="1420.091582" x2="837.769943" y2="1616.570032" stroke="black" stroke-width="4.05"/>
<line x1="837.769943" y1="1616.570032" x2="1055.682407" y2="1695.883684" stroke="black" stroke-width="4.05"/>
<line x1="1025.317555" y1="1684.831784" x2="1096.82986" y2="1488.353332" stroke="black" stroke-width="4.05"/>
<line x1="1666.989774" y1="604.690222" x2="1833.081988" y2="604.690222" stroke="black" stroke-width="4.05"/>
<line x1="1833.081988" y1="604.690222" x2="1833.081988" y2="771.122786" stroke="black" stroke-width="4.05"/>
<line x1="1833.081988" y1="771.122786" x2="1666.989774" y2="771.122786" stroke="black" stroke-width="4.05"/>
<line x1="1666.989774" y1="771.122786" x2="1666.989774" y2="604.690222" stroke="black" stroke-width="4.05"/>
<line x1="1666.649423" y1="604.34987" x2="1833.081988" y2="771.122786" stroke="black" stroke-width="4.05"/>
<line x1="1666.989774" y1="770.782435" x2="1832.741633" y2="604.690222" stroke="black" stroke-width="4.05"/>
<line x1="1832.995789" y1="604.424074" x2="1999.088003" y2="604.424074" stroke="black" stroke-width="4.05"/>
<line x1="1999.088003" y1="604.424074" x2="1999.088003" y2="770.856638" stroke="black" stroke-width="4.05"/>
<line x1="1999.088003" y1="770.856638" x2="1832.995789" y2="770.856638" stroke="black" stroke-width="4.05"/>
<line x1="1832.995789" y1="770.856638" x2="1832.995789" y2="604.424074" stroke="black" stroke-width="4.05"/>
<line x1="1832.655438" y1="604.083722" x2="1999.088003" y2="770.856638" stroke="black" stroke-width="4.05"/>
<line x1="1832.995789" y1="770.516287" x2="1998.747648" y2="604.424074" stroke="black" stroke-width="4.05"/>
<line x1="1501.570829" y1="604.276909" x2="1667.663042" y2="604.276909" stroke="black" stroke-width="4.05"/>
<line x1="1667.663042" y1="604.276909" x2="1667.663042" y2="770.709474" stroke="black" stroke-width="4.05"/>
<line x1="1667.663042" y1="770.709474" x2="1501.570829" y2="770.709474" stroke="black" stroke-width="4.05"/>
<line x1="1501.570829" y1="770.709474" x2="1501.570829" y2="604.276909" stroke="black" stroke-width="4.05"/>
<line x1="1501.230478" y1="603.936558" x2="1667.663042" y2="770.709474" stroke="black" stroke-width="4.05"/>
<line x1="1501.570829" y1="770.369123" x2="1667.322688" y2="604.276909" stroke="black" stroke-width="4.05"/>
<line x1="1886.55296" y1="1077.238843" x2="2052.645174" y2="1077.238843" stroke="black" stroke-width="4.05"/>
<line x1="2052.645174" y1="1077.238843" x2="2052.645174" y2="1243.671408" stroke="black" stroke-width="4.05"/>
<line x1="2052.645174" y1="1243.671408" x2="1886.55296" y2="1243.671408" stroke="black" stroke-width="4.05"/>
<line x1="1886.55296" y1="1243.671408" x2="1886.55296" y2="1077.238843" stroke="black" stroke-width="4.05"/>
<line x1="1886.212609" y1="1076.898492" x2="2052.645174" y2="1243.671408" stroke="black" stroke-width="4.05"/>
<line x1="1886.55296" y1="1243.331057" x2="2052.304819" y2="1077.238843" stroke="black" stroke-width="4.05"/>
<line x1="1915.896632" y1="1644.870398" x2="1915.896632" y2="1251.626526" stroke="black" stroke-width="4.05"/>
<line x1="1914.90035" y1="1247.67112" x2="2050.969126" y2="1247.67112" stroke="black" stroke-width="4.05"/>
<line x1="2052.120632" y1="1644.406009" x2="2052.120632" y2="1247.365778" stroke="black" stroke-width="4.05"/>
<line x1="1916.591382" y1="1643.67112" x2="2051.855438" y2="1643.67112" stroke="black" stroke-width="4.05"/>
<line x1="1926.984632" y1="1633.37512" x2="1926.984632" y2="1509.82312" stroke="black" stroke-width="4.05"/>
<line x1="1926.984632" y1="1509.82312" x2="2041.032632" y2="1509.82312" stroke="black" stroke-width="4.05"/>
<line x1="2041.032632" y1="1633.37512" x2="2041.032632" y2="1509.82312" stroke="black" stroke-width="4.05"/>
<line x1="1926.984632" y1="1633.37512" x2="2041.032632" y2="1633.37512" stroke="black" stroke-width="4.05"/>
<line x1="1934.112632" y1="1490.81512" x2="1934.112632" y2="1403.69512" stroke="black" stroke-width="4.05"/>
<line x1="1953.912632" y1="1490.81512" x2="1953.912632" y2="1403.69512" stroke="black" stroke-width="4.05"/>
<line x1="1974.504632" y1="1490.02312" x2="1974.504632" y2="1403.69512" stroke="black" stroke-width="4.05"/>
<line x1="1994.304632" y1="1490.02312" x2="1994.304632" y2="1403.69512" stroke="black" stroke-width="4.05"/>
<line x1="2014.104632" y1="1490.81512" x2="2014.104632" y2="1403.69512" stroke="black" stroke-width="4.05"/>
<line x1="2033.904632" y1="1490.81512" x2="2033.904632" y2="1403.69512" stroke="black" stroke-width="4.05"/>
<line x1="2040.240632" y1="1585.85512" x2="2026.776632" y2="1585.85512" stroke="black" stroke-width="4.05"/>
<line x1="2026.776632" y1="1585.85512" x2="2026.776632" y2="1555.75912" stroke="black" stroke-width="4.05"/>
<line x1="2026.776632" y1="1555.75912" x2="2039.448632" y2="1555.75912" stroke="black" stroke-width="4.05"/>
<line x1="1926.984632" y1="1383.10312" x2="1926.984632" y2="1259.55112" stroke="black" stroke-width="4.05"/>
<line x1="1926.984632" y1="1259.55112" x2="2041.032632" y2="1259.55112" stroke="black" stroke-width="4.05"/>
<line x1="2041.032632" y1="1383.10312" x2="2041.032632" y2="1259.55112" stroke="black" stroke-width="4.05"/>
<line x1="1926.984632" y1="1383.10312" x2="2041.032632" y2="1383.10312" stroke="black" stroke-width="4.05"/>
<line x1="2041.032632" y1="1335.58312" x2="2027.568632" y2="1335.58312" stroke="black" stroke-width="4.05"/>
<line x1="2027.568632" y1="1335.58312" x2="2027.568632" y2="1305.48712" stroke="black" stroke-width="4.05"/>
<line x1="2027.568632" y1="1305.48712" x2="2040.240632" y2="1305.48712" stroke="black" stroke-width="4.05"/>
<circle cx="1941.240632" cy="1524.07912" r="7.128000000000001" fill="none" stroke="black" stroke-width="4.05"/>
<circle cx="1942.032632" cy="1273.80712" r="7.128000000000001" fill="none" stroke="black" stroke-width="4.05"/>
</g>
</svg>
