<?xml version="1.0"?>
<svg xmlns:xlink="http://www.w3.org/1999/xlink" width="2170.8" height="2138.4">
<image x="0" y="0" width="2170.8" height="2138.4" xlink:href="ground16-04.png"/>
<g style="stroke-linecap:round">
<line x1="355.533062" y1="110.352848" x2="594.608141" y2="110.352848" stroke="black" stroke-width="4.05"/>
<line x1="594.608141" y1="110.352848" x2="594.608141" y2="67.591451" stroke="black" stroke-width="4.05"/>
<line x1="594.608141" y1="67.591451" x2="355.533062" y2="67.591451" stroke="black" stroke-width="4.05"/>
<line x1="355.533062" y1="67.591451" x2="355.533062" y2="110.352848" stroke="black" stroke-width="4.05"/>
<line x1="366.709334" y1="110.352848" x2="366.709334" y2="124.930598" stroke="black" stroke-width="4.05"/>
<line x1="366.709334" y1="124.930598" x2="582.945941" y2="124.930598" stroke="black" stroke-width="4.05"/>
<line x1="582.945941" y1="110.352848" x2="582.945941" y2="124.930598" stroke="black" stroke-width="4.05"/>
<line x1="1586.39715" y1="105.206782" x2="1826.184114" y2="105.206782" stroke="black" stroke-width="4.05"/>
<line x1="1826.184114" y1="105.206782" x2="1826.184114" y2="68.24165" stroke="black" stroke-width="4.05"/>
<line x1="1826.184114" y1="68.24165" x2="1586.39715" y2="68.24165" stroke="black" stroke-width="4.05"/>
<line x1="1586.39715" y1="68.24165" x2="1586.39715" y2="105.206782" stroke="black" stroke-width="4.05"/>
<line x1="1608.770783" y1="68.728036" x2="1608.770783" y2="104.720396" stroke="black" stroke-width="4.05"/>
<line x1="1803.3241" y1="68.728036" x2="1803.3241" y2="106.179548" stroke="black" stroke-width="4.05"/>
<line x1="1608.284398" y1="85.751449" x2="1802.837714" y2="85.751449" stroke="black" stroke-width="4.05"/>
<line x1="455.155898" y1="2015.675204" x2="214.690846" y2="2015.675204" stroke="black" stroke-width="4.05"/>
<line x1="214.690846" y1="2015.675204" x2="214.690846" y2="2058.685214" stroke="black" stroke-width="4.05"/>
<line x1="214.690846" y1="2058.685214" x2="455.155898" y2="2058.685214" stroke="black" stroke-width="4.05"/>
<line x1="455.155898" y1="2058.685214" x2="455.155898" y2="2015.675204" stroke="black" stroke-width="4.05"/>
<line x1="443.914646" y1="2015.675204" x2="443.914646" y2="2001.012703" stroke="black" stroke-width="4.05"/>
<line x1="443.914646" y1="2001.012703" x2="226.420848" y2="2001.012703" stroke="black" stroke-width="4.05"/>
<line x1="226.420848" y1="2015.675204" x2="226.420848" y2="2001.012703" stroke="black" stroke-width="4.05"/>
<line x1="1004.406336" y1="2020.979012" x2="764.619372" y2="2020.979012" stroke="black" stroke-width="4.05"/>
<line x1="764.619372" y1="2020.979012" x2="764.619372" y2="2057.944144" stroke="black" stroke-width="4.05"/>
<line x1="764.619372" y1="2057.944144" x2="1004.406336" y2="2057.944144" stroke="black" stroke-width="4.05"/>
<line x1="1004.406336" y1="2057.944144" x2="1004.406336" y2="2020.979012" stroke="black" stroke-width="4.05"/>
<line x1="982.032703" y1="2057.457758" x2="982.032703" y2="2021.465398" stroke="black" stroke-width="4.05"/>
<line x1="787.479386" y1="2057.457758" x2="787.479386" y2="2020.006246" stroke="black" stroke-width="4.05"/>
<line x1="982.519088" y1="2040.434345" x2="787.965772" y2="2040.434345" stroke="black" stroke-width="4.05"/>
<line x1="1502.327146" y1="2021.251694" x2="1262.540182" y2="2021.251694" stroke="black" stroke-width="4.05"/>
<line x1="1262.540182" y1="2021.251694" x2="1262.540182" y2="2058.216826" stroke="black" stroke-width="4.05"/>
<line x1="1262.540182" y1="2058.216826" x2="1502.327146" y2="2058.216826" stroke="black" stroke-width="4.05"/>
<line x1="1502.327146" y1="2058.216826" x2="1502.327146" y2="2021.251694" stroke="black" stroke-width="4.05"/>
<line x1="1479.953513" y1="2057.73044" x2="1479.953513" y2="2021.73808" stroke="black" stroke-width="4.05"/>
<line x1="1285.400196" y1="2057.73044" x2="1285.400196" y2="2020.278928" stroke="black" stroke-width="4.05"/>
<line x1="1480.439898" y1="2040.707027" x2="1285.886581" y2="2040.707027" stroke="black" stroke-width="4.05"/>
<line x1="1977.071191" y1="2021.28741" x2="1737.284227" y2="2021.28741" stroke="black" stroke-width="4.05"/>
<line x1="1737.284227" y1="2021.28741" x2="1737.284227" y2="2058.252541" stroke="black" stroke-width="4.05"/>
<line x1="1737.284227" y1="2058.252541" x2="1977.071191" y2="2058.252541" stroke="black" stroke-width="4.05"/>
<line x1="1977.071191" y1="2058.252541" x2="1977.071191" y2="2021.28741" stroke="black" stroke-width="4.05"/>
<line x1="1954.697558" y1="2057.766156" x2="1954.697558" y2="2021.773795" stroke="black" stroke-width="4.05"/>
<line x1="1760.144242" y1="2057.766156" x2="1760.144242" y2="2020.314643" stroke="black" stroke-width="4.05"/>
<line x1="1955.183944" y1="2040.742742" x2="1760.630627" y2="2040.742742" stroke="black" stroke-width="4.05"/>
<line x1="2064.218674" y1="203.981501" x2="2064.218674" y2="444.463495" stroke="black" stroke-width="4.05"/>
<line x1="2064.218674" y1="444.463495" x2="2101.290948" y2="444.463495" stroke="black" stroke-width="4.05"/>
<line x1="2101.290948" y1="444.463495" x2="2101.290948" y2="203.981501" stroke="black" stroke-width="4.05"/>
<line x1="2101.290948" y1="203.981501" x2="2064.218674" y2="203.981501" stroke="black" stroke-width="4.05"/>
<line x1="2100.803155" y1="226.41998" x2="2064.706466" y2="226.41998" stroke="black" stroke-width="4.05"/>
<line x1="2100.803155" y1="421.537223" x2="2063.243088" y2="421.537223" stroke="black" stroke-width="4.05"/>
<line x1="2083.730396" y1="225.932188" x2="2083.730396" y2="421.049426" stroke="black" stroke-width="4.05"/>
<line x1="2062.857866" y1="776.16608" x2="2062.857866" y2="1027.768633" stroke="black" stroke-width="4.05"/>
<line x1="2062.857866" y1="1027.768633" x2="2101.644464" y2="1027.768633" stroke="black" stroke-width="4.05"/>
<line x1="2101.644464" y1="1027.768633" x2="2101.644464" y2="776.16608" stroke="black" stroke-width="4.05"/>
<line x1="2101.644464" y1="776.16608" x2="2062.857866" y2="776.16608" stroke="black" stroke-width="4.05"/>
<line x1="2101.134114" y1="799.642181" x2="2063.368217" y2="799.642181" stroke="black" stroke-width="4.05"/>
<line x1="2101.134114" y1="1003.782182" x2="2061.837166" y2="1003.782182" stroke="black" stroke-width="4.05"/>
<line x1="2083.271864" y1="799.13183" x2="2083.271864" y2="1003.271832" stroke="black" stroke-width="4.05"/>
<line x1="2064.600925" y1="1369.92258" x2="2064.600925" y2="1611.794646" stroke="black" stroke-width="4.05"/>
<line x1="2064.600925" y1="1611.794646" x2="2101.887493" y2="1611.794646" stroke="black" stroke-width="4.05"/>
<line x1="2101.887493" y1="1611.794646" x2="2101.887493" y2="1369.92258" stroke="black" stroke-width="4.05"/>
<line x1="2101.887493" y1="1369.92258" x2="2064.600925" y2="1369.92258" stroke="black" stroke-width="4.05"/>
<line x1="2101.396882" y1="1392.490764" x2="2065.09154" y2="1392.490764" stroke="black" stroke-width="4.05"/>
<line x1="2101.396882" y1="1588.73585" x2="2063.619702" y2="1588.73585" stroke="black" stroke-width="4.05"/>
<line x1="2084.225436" y1="1392.000152" x2="2084.225436" y2="1588.245235" stroke="black" stroke-width="4.05"/>
<line x1="138.283542" y1="1589.658811" x2="138.283542" y2="1347.786745" stroke="black" stroke-width="4.05"/>
<line x1="138.283542" y1="1347.786745" x2="100.996974" y2="1347.786745" stroke="black" stroke-width="4.05"/>
<line x1="100.996974" y1="1347.786745" x2="100.996974" y2="1589.658811" stroke="black" stroke-width="4.05"/>
<line x1="100.996974" y1="1589.658811" x2="138.283542" y2="1589.658811" stroke="black" stroke-width="4.05"/>
<line x1="101.487586" y1="1567.090627" x2="137.792927" y2="1567.090627" stroke="black" stroke-width="4.05"/>
<line x1="101.487586" y1="1370.845541" x2="139.264765" y2="1370.845541" stroke="black" stroke-width="4.05"/>
<line x1="118.659031" y1="1567.581239" x2="118.659031" y2="1371.336156" stroke="black" stroke-width="4.05"/>
<line x1="145.345295" y1="909.129312" x2="145.345295" y2="667.274292" stroke="black" stroke-width="4.05"/>
<line x1="145.345295" y1="667.274292" x2="102.086672" y2="667.274292" stroke="black" stroke-width="4.05"/>
<line x1="102.086672" y1="667.274292" x2="102.086672" y2="909.129312" stroke="black" stroke-width="4.05"/>
<line x1="102.086672" y1="909.129312" x2="145.345295" y2="909.129312" stroke="black" stroke-width="4.05"/>
<line x1="145.345295" y1="897.82308" x2="160.092554" y2="897.82308" stroke="black" stroke-width="4.05"/>
<line x1="160.092554" y1="897.82308" x2="160.092554" y2="679.072097" stroke="black" stroke-width="4.05"/>
<line x1="145.345295" y1="679.072097" x2="160.092554" y2="679.072097" stroke="black" stroke-width="4.05"/>
<line x1="144.414853" y1="445.02601" x2="144.414853" y2="203.17099" stroke="black" stroke-width="4.05"/>
<line x1="144.414853" y1="203.17099" x2="101.156231" y2="203.17099" stroke="black" stroke-width="4.05"/>
<line x1="101.156231" y1="203.17099" x2="101.156231" y2="445.02601" stroke="black" stroke-width="4.05"/>
<line x1="101.156231" y1="445.02601" x2="144.414853" y2="445.02601" stroke="black" stroke-width="4.05"/>
<line x1="144.414853" y1="433.719778" x2="159.162113" y2="433.719778" stroke="black" stroke-width="4.05"/>
<line x1="159.162113" y1="433.719778" x2="159.162113" y2="214.968794" stroke="black" stroke-width="4.05"/>
<line x1="144.414853" y1="214.968794" x2="159.162113" y2="214.968794" stroke="black" stroke-width="4.05"/>
<line x1="519.433164" y1="715.467859" x2="310.06796" y2="715.467859" stroke="black" stroke-width="4.05"/>
<line x1="310.06796" y1="715.467859" x2="310.06796" y2="1046.682263" stroke="black" stroke-width="4.05"/>
<line x1="310.06796" y1="1046.682263" x2="519.433164" y2="1046.682263" stroke="black" stroke-width="4.05"/>
<line x1="519.433164" y1="1046.682263" x2="519.433164" y2="715.467859" stroke="black" stroke-width="4.05"/>
<line x1="520.106364" y1="987.440659" x2="309.39476" y2="987.440659" stroke="black" stroke-width="4.05"/>
<line x1="309.39476" y1="987.440659" x2="518.75996" y2="937.623859" stroke="black" stroke-width="4.05"/>
<line x1="518.75996" y1="937.623859" x2="487.11956" y2="891.173059" stroke="black" stroke-width="4.05"/>
<line x1="487.11956" y1="891.173059" x2="309.39476" y2="988.113863" stroke="black" stroke-width="4.05"/>
<line x1="1110.575106" y1="1028.171776" x2="1110.575106" y2="1007.813491" stroke="black" stroke-width="4.05"/>
<line x1="1110.575106" y1="1007.813491" x2="1070.851626" y2="1007.813491" stroke="black" stroke-width="4.05"/>
<line x1="1070.851626" y1="1007.813491" x2="1070.851626" y2="1028.171776" stroke="black" stroke-width="4.05"/>
<line x1="1070.851626" y1="1028.171776" x2="1110.575106" y2="1028.171776" stroke="black" stroke-width="4.05"/>
<line x1="1070.851626" y1="808.699558" x2="872.730778" y2="808.699558" stroke="black" stroke-width="4.05"/>
<line x1="1111.568191" y1="808.203013" x2="1111.568191" y2="787.844732" stroke="black" stroke-width="4.05"/>
<line x1="1111.568191" y1="787.844732" x2="1071.844715" y2="787.844732" stroke="black" stroke-width="4.05"/>
<line x1="1071.844715" y1="787.844732" x2="1071.844715" y2="808.203013" stroke="black" stroke-width="4.05"/>
<line x1="1071.844715" y1="808.203013" x2="1111.568191" y2="808.203013" stroke="black" stroke-width="4.05"/>
<path d="m 1072.341256,1007.813491 a 199.11393349999997,199.11393349999997 0 0 1 -199.11393399999997,-199.11393299999997" fill="none" stroke="black" stroke-width="4.05"/>
<line x1="913.136738" y1="247.05077" x2="1080.250153" y2="247.05077" stroke="black" stroke-width="4.05"/>
<line x1="1080.250153" y1="247.05077" x2="1080.250153" y2="414.506628" stroke="black" stroke-width="4.05"/>
<line x1="1080.250153" y1="414.506628" x2="913.136738" y2="414.506628" stroke="black" stroke-width="4.05"/>
<line x1="913.136738" y1="414.506628" x2="913.136738" y2="247.05077" stroke="black" stroke-width="4.05"/>
<line x1="912.794296" y1="246.708324" x2="1080.250153" y2="414.506628" stroke="black" stroke-width="4.05"/>
<line x1="913.136738" y1="414.164185" x2="1079.90771" y2="247.05077" stroke="black" stroke-width="4.05"/>
<line x1="378.524182" y1="148.215992" x2="205.182374" y2="265.136519" stroke="black" stroke-width="4.05"/>
<line x1="205.182374" y1="265.136519" x2="334.857866" y2="457.388341" stroke="black" stroke-width="4.05"/>
<line x1="334.857866" y1="457.388341" x2="508.199674" y2="340.467815" stroke="black" stroke-width="4.05"/>
<line x1="508.199674" y1="340.467815" x2="378.524182" y2="148.215992" stroke="black" stroke-width="4.05"/>
<line x1="396.593719" y1="175.005184" x2="223.251908" y2="291.925706" stroke="black" stroke-width="4.05"/>
<line x1="2030.64498" y1="397.576037" x2="1637.344134" y2="397.576037" stroke="black" stroke-width="4.05"/>
<line x1="1637.344134" y1="397.576037" x2="1637.344134" y2="572.73026" stroke="black" stroke-width="4.05"/>
<line x1="1637.344134" y1="572.73026" x2="2030.64498" y2="572.73026" stroke="black" stroke-width="4.05"/>
<line x1="2030.64498" y1="572.73026" x2="2030.64498" y2="397.576037" stroke="black" stroke-width="4.05"/>
<line x1="1712.978914" y1="545.660971" x2="1998.798761" y2="545.660971" stroke="black" stroke-width="4.05"/>
<line x1="1998.798761" y1="545.660971" x2="1998.798761" y2="427.033793" stroke="black" stroke-width="4.05"/>
<line x1="1998.798761" y1="427.033793" x2="1707.405826" y2="427.033793" stroke="black" stroke-width="4.05"/>
<path d="m 1713.793738,545.917738 a 63.69244535843305,63.69244535843305 0 0 1 -4.316343000000188,-120.00067999999999" fill="none" stroke="black" stroke-width="4.05"/>
<line x1="1132.995863" y1="600.926753" x2="1153.236467" y2="600.926753" stroke="black" stroke-width="4.05"/>
<line x1="1153.236467" y1="600.926753" x2="1153.236467" y2="561.432888" stroke="black" stroke-width="4.05"/>
<line x1="1153.236467" y1="561.432888" x2="1132.995863" y2="561.432888" stroke="black" stroke-width="4.05"/>
<line x1="1132.995863" y1="561.432888" x2="1132.995863" y2="600.926753" stroke="black" stroke-width="4.05"/>
<line x1="1351.199455" y1="561.432888" x2="1351.199455" y2="364.45725" stroke="black" stroke-width="4.05"/>
<line x1="1351.693127" y1="601.9141" x2="1371.933731" y2="601.9141" stroke="black" stroke-width="4.05"/>
<line x1="1371.933731" y1="601.9141" x2="1371.933731" y2="562.420235" stroke="black" stroke-width="4.05"/>
<line x1="1371.933731" y1="562.420235" x2="1351.693127" y2="562.420235" stroke="black" stroke-width="4.05"/>
<line x1="1351.693127" y1="562.420235" x2="1351.693127" y2="601.9141" stroke="black" stroke-width="4.05"/>
<path d="m 1153.236467,562.91391 a 197.962988,197.962988 0 0 1 197.962988,-197.962988" fill="none" stroke="black" stroke-width="4.05"/>
<line x1="1176.358424" y1="117.611467" x2="1446.905624" y2="117.611467" stroke="black" stroke-width="4.05"/>
<line x1="1446.905624" y1="117.611467" x2="1446.905624" y2="249.558667" stroke="black" stroke-width="4.05"/>
<line x1="1176.358424" y1="249.558667" x2="1446.905624" y2="249.558667" stroke="black" stroke-width="4.05"/>
<line x1="1176.358424" y1="117.611467" x2="1176.358424" y2="249.558667" stroke="black" stroke-width="4.05"/>
<line x1="1183.011224" y1="124.264267" x2="1321.056824" y2="124.264267" stroke="black" stroke-width="4.05"/>
<line x1="1321.056824" y1="124.264267" x2="1321.056824" y2="242.351467" stroke="black" stroke-width="4.05"/>
<line x1="1183.011224" y1="242.351467" x2="1321.056824" y2="242.351467" stroke="black" stroke-width="4.05"/>
<line x1="1183.011224" y1="124.264267" x2="1183.011224" y2="242.351467" stroke="black" stroke-width="4.05"/>
<line x1="1335.471224" y1="132.025867" x2="1432.491224" y2="132.025867" stroke="black" stroke-width="4.05"/>
<line x1="1335.471224" y1="152.538667" x2="1432.491224" y2="152.538667" stroke="black" stroke-width="4.05"/>
<line x1="1336.025624" y1="173.605867" x2="1433.045624" y2="173.605867" stroke="black" stroke-width="4.05"/>
<line x1="1336.025624" y1="194.118667" x2="1433.045624" y2="194.118667" stroke="black" stroke-width="4.05"/>
<line x1="1335.471224" y1="214.631467" x2="1432.491224" y2="214.631467" stroke="black" stroke-width="4.05"/>
<line x1="1335.471224" y1="235.144267" x2="1432.491224" y2="235.144267" stroke="black" stroke-width="4.05"/>
<line x1="1235.679224" y1="242.351467" x2="1235.679224" y2="228.491467" stroke="black" stroke-width="4.05"/>
<line x1="1235.679224" y1="228.491467" x2="1270.052024" y2="228.491467" stroke="black" stroke-width="4.05"/>
<line x1="1270.052024" y1="228.491467" x2="1270.052024" y2="241.797067" stroke="black" stroke-width="4.05"/>
<circle cx="1305.533624" cy="139.233067" r="8.316000000000003" fill="none" stroke="black" stroke-width="4.05"/>
<line x1="2034.234756" y1="166.642459" x2="1850.312599" y2="166.642459" stroke="black" stroke-width="4.05"/>
<line x1="1850.312599" y1="166.642459" x2="1850.312599" y2="117.490849" stroke="black" stroke-width="4.05"/>
<line x1="2034.234756" y1="117.490849" x2="1850.312599" y2="117.490849" stroke="black" stroke-width="4.05"/>
<line x1="2034.234756" y1="166.642459" x2="2034.234756" y2="117.490849" stroke="black" stroke-width="4.05"/>
<line x1="1992.61444" y1="194.389337" x2="1992.61444" y2="166.642459" stroke="black" stroke-width="4.05"/>
<line x1="1893.518453" y1="166.642459" x2="1893.518453" y2="195.974874" stroke="black" stroke-width="4.05"/>
<circle cx="1943.859215" cy="239.577106" r="66.59250380904014" fill="none" stroke="black" stroke-width="4.05"/>
<circle cx="1943.859215" cy="239.577106" r="57.07928897917725" fill="none" stroke="black" stroke-width="4.05"/>
<line x1="1395.085691" y1="798.896383" x2="1395.085691" y2="819.136987" stroke="black" stroke-width="4.05"/>
<line x1="1395.085691" y1="819.136987" x2="1434.579556" y2="819.136987" stroke="black" stroke-width="4.05"/>
<line x1="1434.579556" y1="819.136987" x2="1434.579556" y2="798.896383" stroke="black" stroke-width="4.05"/>
<line x1="1434.579556" y1="798.896383" x2="1395.085691" y2="798.896383" stroke="black" stroke-width="4.05"/>
<line x1="1434.579556" y1="1017.099976" x2="1631.555194" y2="1017.099976" stroke="black" stroke-width="4.05"/>
<line x1="1394.098344" y1="1017.593647" x2="1394.098344" y2="1037.834251" stroke="black" stroke-width="4.05"/>
<line x1="1394.098344" y1="1037.834251" x2="1433.592209" y2="1037.834251" stroke="black" stroke-width="4.05"/>
<line x1="1433.592209" y1="1037.834251" x2="1433.592209" y2="1017.593647" stroke="black" stroke-width="4.05"/>
<line x1="1433.592209" y1="1017.593647" x2="1394.098344" y2="1017.593647" stroke="black" stroke-width="4.05"/>
<path d="m 1433.098534,819.136987 a 197.9629885,197.9629885 0 0 1 197.962988,197.962989" fill="none" stroke="black" stroke-width="4.05"/>
<line x1="1599.439925" y1="1336.408888" x2="1266.299496" y2="1544.578135" stroke="black" stroke-width="4.05"/>
<line x1="1266.299496" y1="1544.578135" x2="1364.088676" y2="1701.073537" stroke="black" stroke-width="4.05"/>
<line x1="1364.088676" y1="1701.073537" x2="1697.229104" y2="1492.904293" stroke="black" stroke-width="4.05"/>
<line x1="1697.229104" y1="1492.904293" x2="1599.439925" y2="1336.408888" stroke="black" stroke-width="4.05"/>
<line x1="1562.226635" y1="1577.263198" x2="1605.035632" y2="1645.771914" stroke="black" stroke-width="4.05"/>
<line x1="1605.035632" y1="1645.771914" x2="1671.529385" y2="1604.222006" stroke="black" stroke-width="4.05"/>
<line x1="1671.529385" y1="1604.222006" x2="1628.720388" y2="1535.71329" stroke="black" stroke-width="4.05"/>
<line x1="1661.62442" y1="1589.865311" x2="1595.802319" y2="1630.995527" stroke="black" stroke-width="4.05"/>
<line x1="1487.702516" y1="1310.037516" x2="1421.208756" y2="1351.587424" stroke="black" stroke-width="4.05"/>
<line x1="1421.208756" y1="1351.587424" x2="1464.437452" y2="1420.767796" stroke="black" stroke-width="4.05"/>
<line x1="1530.931205" y1="1379.217888" x2="1487.702516" y2="1310.037516" stroke="black" stroke-width="4.05"/>
<line x1="1496.264173" y1="1325.233598" x2="1430.442072" y2="1366.363814" stroke="black" stroke-width="4.05"/>
<line x1="1433.940703" y1="1657.425146" x2="1476.7497" y2="1725.933863" stroke="black" stroke-width="4.05"/>
<line x1="1476.7497" y1="1725.933863" x2="1543.243457" y2="1684.383955" stroke="black" stroke-width="4.05"/>
<line x1="1543.243457" y1="1684.383955" x2="1500.434456" y2="1615.875239" stroke="black" stroke-width="4.05"/>
<line x1="1534.010141" y1="1669.607561" x2="1467.516388" y2="1711.157476" stroke="black" stroke-width="4.05"/>
<line x1="1359.416581" y1="1390.199461" x2="1292.922828" y2="1431.749369" stroke="black" stroke-width="4.05"/>
<line x1="1292.922828" y1="1431.749369" x2="1336.15152" y2="1500.929744" stroke="black" stroke-width="4.05"/>
<line x1="1402.645277" y1="1459.379833" x2="1359.416581" y2="1390.199461" stroke="black" stroke-width="4.05"/>
<line x1="1368.649894" y1="1404.975848" x2="1302.15614" y2="1446.525763" stroke="black" stroke-width="4.05"/>
<line x1="806.528185" y1="1270.405984" x2="806.528185" y2="1080.325984" stroke="black" stroke-width="4.05"/>
<line x1="806.528185" y1="1080.325984" x2="342.732985" y2="1080.325984" stroke="black" stroke-width="4.05"/>
<line x1="342.732985" y1="1080.325984" x2="342.732985" y2="1270.405984" stroke="black" stroke-width="4.05"/>
<line x1="342.732985" y1="1270.405984" x2="366.492985" y2="1270.405984" stroke="black" stroke-width="4.05"/>
<line x1="366.492985" y1="1270.405984" x2="366.492985" y2="1103.135584" stroke="black" stroke-width="4.05"/>
<line x1="366.492985" y1="1103.135584" x2="781.817785" y2="1103.135584" stroke="black" stroke-width="4.05"/>
<line x1="781.817785" y1="1103.135584" x2="781.817785" y2="1270.405984" stroke="black" stroke-width="4.05"/>
<line x1="781.817785" y1="1270.405984" x2="806.528185" y2="1270.405984" stroke="black" stroke-width="4.05"/>
<line x1="781.817785" y1="1264.703584" x2="366.492985" y2="1264.703584" stroke="black" stroke-width="4.05"/>
<line x1="574.630585" y1="1265.653984" x2="574.630585" y2="1104.085984" stroke="black" stroke-width="4.05"/>
<line x1="553.901296" y1="1407.625402" x2="687.875818" y2="1374.221804" stroke="black" stroke-width="4.050004"/>
<line x1="687.875818" y1="1374.221804" x2="721.347865" y2="1508.470862" stroke="black" stroke-width="4.050004"/>
<line x1="721.347865" y1="1508.470862" x2="587.373347" y2="1541.87446" stroke="black" stroke-width="4.050004"/>
<line x1="587.373347" y1="1541.87446" x2="553.901296" y2="1407.625402" stroke="black" stroke-width="4.050004"/>
<line x1="553.558309" y1="1407.419316" x2="721.347865" y2="1508.470862" stroke="black" stroke-width="4.050004"/>
<line x1="587.304893" y1="1541.599924" x2="687.601278" y2="1374.290251" stroke="black" stroke-width="4.050004"/>
<line x1="1919.891822" y1="1973.301703" x2="1919.891822" y2="1702.754503" stroke="black" stroke-width="4.05"/>
<line x1="1919.891822" y1="1702.754503" x2="2051.839022" y2="1702.754503" stroke="black" stroke-width="4.05"/>
<line x1="2051.839022" y1="1973.301703" x2="2051.839022" y2="1702.754503" stroke="black" stroke-width="4.05"/>
<line x1="1919.891822" y1="1973.301703" x2="2051.839022" y2="1973.301703" stroke="black" stroke-width="4.05"/>
<line x1="1926.544622" y1="1966.648903" x2="1926.544622" y2="1828.603303" stroke="black" stroke-width="4.05"/>
<line x1="1926.544622" y1="1828.603303" x2="2044.631822" y2="1828.603303" stroke="black" stroke-width="4.05"/>
<line x1="2044.631822" y1="1966.648903" x2="2044.631822" y2="1828.603303" stroke="black" stroke-width="4.05"/>
<line x1="1926.544622" y1="1966.648903" x2="2044.631822" y2="1966.648903" stroke="black" stroke-width="4.05"/>
<line x1="1934.306222" y1="1814.188903" x2="1934.306222" y2="1717.168903" stroke="black" stroke-width="4.05"/>
<line x1="1954.819022" y1="1814.188903" x2="1954.819022" y2="1717.168903" stroke="black" stroke-width="4.05"/>
<line x1="1975.886222" y1="1813.634503" x2="1975.886222" y2="1716.614503" stroke="black" stroke-width="4.05"/>
<line x1="1996.399022" y1="1813.634503" x2="1996.399022" y2="1716.614503" stroke="black" stroke-width="4.05"/>
<line x1="2016.911822" y1="1814.188903" x2="2016.911822" y2="1717.168903" stroke="black" stroke-width="4.05"/>
<line x1="2037.424622" y1="1814.188903" x2="2037.424622" y2="1717.168903" stroke="black" stroke-width="4.05"/>
<line x1="2044.631822" y1="1913.980903" x2="2030.771822" y2="1913.980903" stroke="black" stroke-width="4.05"/>
<line x1="2030.771822" y1="1913.980903" x2="2030.771822" y2="1879.608103" stroke="black" stroke-width="4.05"/>
<line x1="2030.771822" y1="1879.608103" x2="2044.077422" y2="1879.608103" stroke="black" stroke-width="4.05"/>
<circle cx="1941.513422" cy="1844.126503" r="8.316000000000003" fill="none" stroke="black" stroke-width="4.05"/>
<line x1="1799.832056" y1="1048.556923" x2="2008.920056" y2="1048.556923" stroke="black" stroke-width="4.05"/>
<line x1="2008.920056" y1="1048.556923" x2="2008.920056" y2="816.659323" stroke="black" stroke-width="4.05"/>
<line x1="2008.920056" y1="816.659323" x2="1799.832056" y2="816.659323" stroke="black" stroke-width="4.05"/>
<line x1="1799.832056" y1="816.659323" x2="1799.832056" y2="1048.556923" stroke="black" stroke-width="4.05"/>
<line x1="1799.832056" y1="1016.243323" x2="2008.920056" y2="1016.243323" stroke="black" stroke-width="4.05"/>
<line x1="1035.778608" y1="1704.729175" x2="1133.939473" y2="1520.115426" stroke="black" stroke-width="4.05"/>
<line x1="1133.939473" y1="1520.115426" x2="929.186046" y2="1411.246098" stroke="black" stroke-width="4.05"/>
<line x1="929.186046" y1="1411.246098" x2="831.025177" y2="1595.859844" stroke="black" stroke-width="4.05"/>
<line x1="831.025177" y1="1595.859844" x2="1035.778608" y2="1704.729175" stroke="black" stroke-width="4.05"/>
<line x1="1007.247388" y1="1689.558858" x2="1105.40826" y2="1504.945109" stroke="black" stroke-width="4.05"/>
<line x1="189.49689" y1="1593.236894" x2="344.879557" y2="1733.144076" stroke="black" stroke-width="4.05"/>
<line x1="344.879557" y1="1733.144076" x2="500.049335" y2="1560.810571" stroke="black" stroke-width="4.05"/>
<line x1="500.049335" y1="1560.810571" x2="344.666671" y2="1420.903393" stroke="black" stroke-width="4.05"/>
<line x1="344.666671" y1="1420.903393" x2="189.49689" y2="1593.236894" stroke="black" stroke-width="4.05"/>
<line x1="211.118911" y1="1569.22321" x2="366.501575" y2="1709.130388" stroke="black" stroke-width="4.05"/>
<line x1="1666.989774" y1="604.690222" x2="1833.081988" y2="604.690222" stroke="black" stroke-width="4.05"/>
<line x1="1833.081988" y1="604.690222" x2="1833.081988" y2="771.122786" stroke="black" stroke-width="4.05"/>
<line x1="1833.081988" y1="771.122786" x2="1666.989774" y2="771.122786" stroke="black" stroke-width="4.05"/>
<line x1="1666.989774" y1="771.122786" x2="1666.989774" y2="604.690222" stroke="black" stroke-width="4.05"/>
<line x1="1666.649423" y1="604.34987" x2="1833.081988" y2="771.122786" stroke="black" stroke-width="4.05"/>
<line x1="1666.989774" y1="770.782435" x2="1832.741633" y2="604.690222" stroke="black" stroke-width="4.05"/>
<line x1="1832.995789" y1="604.424074" x2="1999.088003" y2="604.424074" stroke="black" stroke-width="4.05"/>
<line x1="1999.088003" y1="604.424074" x2="1999.088003" y2="770.856638" stroke="black" stroke-width="4.05"/>
<line x1="1999.088003" y1="770.856638" x2="1832.995789" y2="770.856638" stroke="black" stroke-width="4.05"/>
<line x1="1832.995789" y1="770.856638" x2="1832.995789" y2="604.424074" stroke="black" stroke-width="4.05"/>
<line x1="1832.655438" y1="604.083722" x2="1999.088003" y2="770.856638" stroke="black" stroke-width="4.05"/>
<line x1="1832.995789" y1="770.516287" x2="1998.747648" y2="604.424074" stroke="black" stroke-width="4.05"/>
<line x1="1501.570829" y1="604.276909" x2="1667.663042" y2="604.276909" stroke="black" stroke-width="4.05"/>
<line x1="1667.663042" y1="604.276909" x2="1667.663042" y2="770.709474" stroke="black" stroke-width="4.05"/>
<line x1="1667.663042" y1="770.709474" x2="1501.570829" y2="770.709474" stroke="black" stroke-width="4.05"/>
<line x1="1501.570829" y1="770.709474" x2="1501.570829" y2="604.276909" stroke="black" stroke-width="4.05"/>
<line x1="1501.230478" y1="603.936558" x2="1667.663042" y2="770.709474" stroke="black" stroke-width="4.05"/>
<line x1="1501.570829" y1="770.369123" x2="1667.322688" y2="604.276909" stroke="black" stroke-width="4.05"/>
<line x1="1886.55296" y1="1077.238843" x2="2052.645174" y2="1077.238843" stroke="black" stroke-width="4.05"/>
<line x1="2052.645174" y1="1077.238843" x2="2052.645174" y2="1243.671408" stroke="black" stroke-width="4.05"/>
<line x1="2052.645174" y1="1243.671408" x2="1886.55296" y2="1243.671408" stroke="black" stroke-width="4.05"/>
<line x1="1886.55296" y1="1243.671408" x2="1886.55296" y2="1077.238843" stroke="black" stroke-width="4.05"/>
<line x1="1886.212609" y1="1076.898492" x2="2052.645174" y2="1243.671408" stroke="black" stroke-width="4.05"/>
<line x1="1886.55296" y1="1243.331057" x2="2052.304819" y2="1077.238843" stroke="black" stroke-width="4.05"/>
<line x1="1915.896632" y1="1644.870398" x2="1915.896632" y2="1251.626526" stroke="black" stroke-width="4.05"/>
<line x1="1914.90035" y1="1247.67112" x2="2050.969126" y2="1247.67112" stroke="black" stroke-width="4.05"/>
<line x1="2052.120632" y1="1644.406009" x2="2052.120632" y2="1247.365778" stroke="black" stroke-width="4.05"/>
<line x1="1916.591382" y1="1643.67112" x2="2051.855438" y2="1643.67112" stroke="black" stroke-width="4.05"/>
<line x1="1926.984632" y1="1633.37512" x2="1926.984632" y2="1509.82312" stroke="black" stroke-width="4.05"/>
<line x1="1926.984632" y1="1509.82312" x2="2041.032632" y2="1509.82312" stroke="black" stroke-width="4.05"/>
<line x1="2041.032632" y1="1633.37512" x2="2041.032632" y2="1509.82312" stroke="black" stroke-width="4.05"/>
<line x1="1926.984632" y1="1633.37512" x2="2041.032632" y2="1633.37512" stroke="black" stroke-width="4.05"/>
<line x1="1934.112632" y1="1490.81512" x2="1934.112632" y2="1403.69512" stroke="black" stroke-width="4.05"/>
<line x1="1953.912632" y1="1490.81512" x2="1953.912632" y2="1403.69512" stroke="black" stroke-width="4.05"/>
<line x1="1974.504632" y1="1490.02312" x2="1974.504632" y2="1403.69512" stroke="black" stroke-width="4.05"/>
<line x1="1994.304632" y1="1490.02312" x2="1994.304632" y2="1403.69512" stroke="black" stroke-width="4.05"/>
<line x1="2014.104632" y1="1490.81512" x2="2014.104632" y2="1403.69512" stroke="black" stroke-width="4.05"/>
<line x1="2033.904632" y1="1490.81512" x2="2033.904632" y2="1403.69512" stroke="black" stroke-width="4.05"/>
<line x1="2040.240632" y1="1585.85512" x2="2026.776632" y2="1585.85512" stroke="black" stroke-width="4.05"/>
<line x1="2026.776632" y1="1585.85512" x2="2026.776632" y2="1555.75912" stroke="black" stroke-width="4.05"/>
<line x1="2026.776632" y1="1555.75912" x2="2039.448632" y2="1555.75912" stroke="black" stroke-width="4.05"/>
<line x1="1926.984632" y1="1383.10312" x2="1926.984632" y2="1259.55112" stroke="black" stroke-width="4.05"/>
<line x1="1926.984632" y1="1259.55112" x2="2041.032632" y2="1259.55112" stroke="black" stroke-width="4.05"/>
<line x1="2041.032632" y1="1383.10312" x2="2041.032632" y2="1259.55112" stroke="black" stroke-width="4.05"/>
<line x1="1926.984632" y1="1383.10312" x2="2041.032632" y2="1383.10312" stroke="black" stroke-width="4.05"/>
<line x1="2041.032632" y1="1335.58312" x2="2027.568632" y2="1335.58312" stroke="black" stroke-width="4.05"/>
<line x1="2027.568632" y1="1335.58312" x2="2027.568632" y2="1305.48712" stroke="black" stroke-width="4.05"/>
<line x1="2027.568632" y1="1305.48712" x2="2040.240632" y2="1305.48712" stroke="black" stroke-width="4.05"/>
<circle cx="1941.240632" cy="1524.07912" r="7.128000000000001" fill="none" stroke="black" stroke-width="4.05"/>
<circle cx="1942.032632" cy="1273.80712" r="7.128000000000001" fill="none" stroke="black" stroke-width="4.05"/>
</g>
</svg>
