<?xml version="1.0"?>
<svg xmlns:xlink="http://www.w3.org/1999/xlink" width="2170.8" height="2138.4">
<image x="0" y="0" width="2170.8" height="2138.4" xlink:href="ground16-04.png"/>
<g style="stroke-linecap:round">
<line x1="355.524638" y1="104.449442" x2="594.616565" y2="104.449442" stroke="black" stroke-width="4.05"/>
<line x1="594.616565" y1="104.449442" x2="594.616565" y2="67.591454" stroke="black" stroke-width="4.05"/>
<line x1="594.616565" y1="67.591454" x2="355.524638" y2="67.591454" stroke="black" stroke-width="4.05"/>
<line x1="355.524638" y1="67.591454" x2="355.524638" y2="104.449442" stroke="black" stroke-width="4.05"/>
<line x1="377.833417" y1="68.076428" x2="377.833417" y2="103.964468" stroke="black" stroke-width="4.05"/>
<line x1="571.822812" y1="68.076428" x2="571.822812" y2="105.419387" stroke="black" stroke-width="4.05"/>
<line x1="377.348447" y1="85.0505" x2="571.337838" y2="85.0505" stroke="black" stroke-width="4.05"/>
<line x1="1586.405599" y1="111.127352" x2="1826.175665" y2="111.127352" stroke="black" stroke-width="4.05"/>
<line x1="1826.175665" y1="111.127352" x2="1826.175665" y2="68.24165" stroke="black" stroke-width="4.05"/>
<line x1="1826.175665" y1="68.24165" x2="1586.405599" y2="68.24165" stroke="black" stroke-width="4.05"/>
<line x1="1586.405599" y1="68.24165" x2="1586.405599" y2="111.127352" stroke="black" stroke-width="4.05"/>
<line x1="1597.614361" y1="111.127352" x2="1597.614361" y2="125.747478" stroke="black" stroke-width="4.05"/>
<line x1="1597.614361" y1="125.747478" x2="1814.479564" y2="125.747478" stroke="black" stroke-width="4.05"/>
<line x1="1814.479564" y1="111.127352" x2="1814.479564" y2="125.747478" stroke="black" stroke-width="4.05"/>
<line x1="455.164369" y1="2021.61294" x2="214.682375" y2="2021.61294" stroke="black" stroke-width="4.05"/>
<line x1="214.682375" y1="2021.61294" x2="214.682375" y2="2058.685214" stroke="black" stroke-width="4.05"/>
<line x1="214.682375" y1="2058.685214" x2="455.164369" y2="2058.685214" stroke="black" stroke-width="4.05"/>
<line x1="455.164369" y1="2058.685214" x2="455.164369" y2="2021.61294" stroke="black" stroke-width="4.05"/>
<line x1="432.72589" y1="2058.197422" x2="432.72589" y2="2022.100733" stroke="black" stroke-width="4.05"/>
<line x1="237.608647" y1="2058.197422" x2="237.608647" y2="2020.637354" stroke="black" stroke-width="4.05"/>
<line x1="433.213682" y1="2041.124663" x2="238.096444" y2="2041.124663" stroke="black" stroke-width="4.05"/>
<line x1="1004.406336" y1="2020.979012" x2="764.619372" y2="2020.979012" stroke="black" stroke-width="4.05"/>
<line x1="764.619372" y1="2020.979012" x2="764.619372" y2="2057.944144" stroke="black" stroke-width="4.05"/>
<line x1="764.619372" y1="2057.944144" x2="1004.406336" y2="2057.944144" stroke="black" stroke-width="4.05"/>
<line x1="1004.406336" y1="2057.944144" x2="1004.406336" y2="2020.979012" stroke="black" stroke-width="4.05"/>
<line x1="982.032703" y1="2057.457758" x2="982.032703" y2="2021.465398" stroke="black" stroke-width="4.05"/>
<line x1="787.479386" y1="2057.457758" x2="787.479386" y2="2020.006246" stroke="black" stroke-width="4.05"/>
<line x1="982.519088" y1="2040.434345" x2="787.965772" y2="2040.434345" stroke="black" stroke-width="4.05"/>
<line x1="1502.327146" y1="2021.251694" x2="1262.540182" y2="2021.251694" stroke="black" stroke-width="4.05"/>
<line x1="1262.540182" y1="2021.251694" x2="1262.540182" y2="2058.216826" stroke="black" stroke-width="4.05"/>
<line x1="1262.540182" y1="2058.216826" x2="1502.327146" y2="2058.216826" stroke="black" stroke-width="4.05"/>
<line x1="1502.327146" y1="2058.216826" x2="1502.327146" y2="2021.251694" stroke="black" stroke-width="4.05"/>
<line x1="1479.953513" y1="2057.73044" x2="1479.953513" y2="2021.73808" stroke="black" stroke-width="4.05"/>
<line x1="1285.400196" y1="2057.73044" x2="1285.400196" y2="2020.278928" stroke="black" stroke-width="4.05"/>
<line x1="1480.439898" y1="2040.707027" x2="1285.886581" y2="2040.707027" stroke="black" stroke-width="4.05"/>
<line x1="1977.071191" y1="2021.28741" x2="1737.284227" y2="2021.28741" stroke="black" stroke-width="4.05"/>
<line x1="1737.284227" y1="2021.28741" x2="1737.284227" y2="2058.252541" stroke="black" stroke-width="4.05"/>
<line x1="1737.284227" y1="2058.252541" x2="1977.071191" y2="2058.252541" stroke="black" stroke-width="4.05"/>
<line x1="1977.071191" y1="2058.252541" x2="1977.071191" y2="2021.28741" stroke="black" stroke-width="4.05"/>
<line x1="1954.697558" y1="2057.766156" x2="1954.697558" y2="2021.773795" stroke="black" stroke-width="4.05"/>
<line x1="1760.144242" y1="2057.766156" x2="1760.144242" y2="2020.314643" stroke="black" stroke-width="4.05"/>
<line x1="1955.183944" y1="2040.742742" x2="1760.630627" y2="2040.742742" stroke="black" stroke-width="4.05"/>
<line x1="2064.218674" y1="203.981501" x2="2064.218674" y2="444.463495" stroke="black" stroke-width="4.05"/>
<line x1="2064.218674" y1="444.463495" x2="2101.290948" y2="444.463495" stroke="black" stroke-width="4.05"/>
<line x1="2101.290948" y1="444.463495" x2="2101.290948" y2="203.981501" stroke="black" stroke-width="4.05"/>
<line x1="2101.290948" y1="203.981501" x2="2064.218674" y2="203.981501" stroke="black" stroke-width="4.05"/>
<line x1="2100.803155" y1="226.41998" x2="2064.706466" y2="226.41998" stroke="black" stroke-width="4.05"/>
<line x1="2100.803155" y1="421.537223" x2="2063.243088" y2="421.537223" stroke="black" stroke-width="4.05"/>
<line x1="2083.730396" y1="225.932188" x2="2083.730396" y2="421.049426" stroke="black" stroke-width="4.05"/>
<line x1="2062.857866" y1="776.16608" x2="2062.857866" y2="1027.768633" stroke="black" stroke-width="4.05"/>
<line x1="2062.857866" y1="1027.768633" x2="2101.644464" y2="1027.768633" stroke="black" stroke-width="4.05"/>
<line x1="2101.644464" y1="1027.768633" x2="2101.644464" y2="776.16608" stroke="black" stroke-width="4.05"/>
<line x1="2101.644464" y1="776.16608" x2="2062.857866" y2="776.16608" stroke="black" stroke-width="4.05"/>
<line x1="2101.134114" y1="799.642181" x2="2063.368217" y2="799.642181" stroke="black" stroke-width="4.05"/>
<line x1="2101.134114" y1="1003.782182" x2="2061.837166" y2="1003.782182" stroke="black" stroke-width="4.05"/>
<line x1="2083.271864" y1="799.13183" x2="2083.271864" y2="1003.271832" stroke="black" stroke-width="4.05"/>
<line x1="2064.600925" y1="1369.92258" x2="2064.600925" y2="1611.794646" stroke="black" stroke-width="4.05"/>
<line x1="2064.600925" y1="1611.794646" x2="2101.887493" y2="1611.794646" stroke="black" stroke-width="4.05"/>
<line x1="2101.887493" y1="1611.794646" x2="2101.887493" y2="1369.92258" stroke="black" stroke-width="4.05"/>
<line x1="2101.887493" y1="1369.92258" x2="2064.600925" y2="1369.92258" stroke="black" stroke-width="4.05"/>
<line x1="2101.396882" y1="1392.490764" x2="2065.09154" y2="1392.490764" stroke="black" stroke-width="4.05"/>
<line x1="2101.396882" y1="1588.73585" x2="2063.619702" y2="1588.73585" stroke="black" stroke-width="4.05"/>
<line x1="2084.225436" y1="1392.000152" x2="2084.225436" y2="1588.245235" stroke="black" stroke-width="4.05"/>
<line x1="138.283542" y1="1589.658811" x2="138.283542" y2="1347.786745" stroke="black" stroke-width="4.05"/>
<line x1="138.283542" y1="1347.786745" x2="100.996974" y2="1347.786745" stroke="black" stroke-width="4.05"/>
<line x1="100.996974" y1="1347.786745" x2="100.996974" y2="1589.658811" stroke="black" stroke-width="4.05"/>
<line x1="100.996974" y1="1589.658811" x2="138.283542" y2="1589.658811" stroke="black" stroke-width="4.05"/>
<line x1="101.487586" y1="1567.090627" x2="137.792927" y2="1567.090627" stroke="black" stroke-width="4.05"/>
<line x1="101.487586" y1="1370.845541" x2="139.264765" y2="1370.845541" stroke="black" stroke-width="4.05"/>
<line x1="118.659031" y1="1567.581239" x2="118.659031" y2="1371.336156" stroke="black" stroke-width="4.05"/>
<line x1="145.345295" y1="909.129312" x2="145.345295" y2="667.274292" stroke="black" stroke-width="4.05"/>
<line x1="145.345295" y1="667.274292" x2="102.086672" y2="667.274292" stroke="black" stroke-width="4.05"/>
<line x1="102.086672" y1="667.274292" x2="102.086672" y2="909.129312" stroke="black" stroke-width="4.05"/>
<line x1="102.086672" y1="909.129312" x2="145.345295" y2="909.129312" stroke="black" stroke-width="4.05"/>
<line x1="145.345295" y1="897.82308" x2="160.092554" y2="897.82308" stroke="black" stroke-width="4.05"/>
<line x1="160.092554" y1="897.82308" x2="160.092554" y2="679.072097" stroke="black" stroke-width="4.05"/>
<line x1="145.345295" y1="679.072097" x2="160.092554" y2="679.072097" stroke="black" stroke-width="4.05"/>
<line x1="138.442799" y1="445.034534" x2="138.442799" y2="203.162468" stroke="black" stroke-width="4.05"/>
<line x1="138.442799" y1="203.162468" x2="101.156231" y2="203.162468" stroke="black" stroke-width="4.05"/>
<line x1="101.156231" y1="203.162468" x2="101.156231" y2="445.034534" stroke="black" stroke-width="4.05"/>
<line x1="101.156231" y1="445.034534" x2="138.442799" y2="445.034534" stroke="black" stroke-width="4.05"/>
<line x1="101.646842" y1="422.46635" x2="137.952184" y2="422.46635" stroke="black" stroke-width="4.05"/>
<line x1="101.646842" y1="226.221264" x2="139.424022" y2="226.221264" stroke="black" stroke-width="4.05"/>
<line x1="118.818288" y1="422.956962" x2="118.818288" y2="226.711879" stroke="black" stroke-width="4.05"/>
<line x1="601.164292" y1="715.660168" x2="391.799088" y2="715.660168" stroke="black" stroke-width="4.05"/>
<line x1="391.799088" y1="715.660168" x2="391.799088" y2="1046.874571" stroke="black" stroke-width="4.05"/>
<line x1="391.799088" y1="1046.874571" x2="601.164292" y2="1046.874571" stroke="black" stroke-width="4.05"/>
<line x1="601.164292" y1="1046.874571" x2="601.164292" y2="715.660168" stroke="black" stroke-width="4.05"/>
<line x1="601.837492" y1="987.632968" x2="391.125888" y2="987.632968" stroke="black" stroke-width="4.05"/>
<line x1="391.125888" y1="987.632968" x2="600.491088" y2="937.816168" stroke="black" stroke-width="4.05"/>
<line x1="600.491088" y1="937.816168" x2="568.850688" y2="891.365368" stroke="black" stroke-width="4.05"/>
<line x1="568.850688" y1="891.365368" x2="391.125888" y2="988.306171" stroke="black" stroke-width="4.05"/>
<line x1="1110.575106" y1="1028.171776" x2="1110.575106" y2="1007.813491" stroke="black" stroke-width="4.05"/>
<line x1="1110.575106" y1="1007.813491" x2="1070.851626" y2="1007.813491" stroke="black" stroke-width="4.05"/>
<line x1="1070.851626" y1="1007.813491" x2="1070.851626" y2="1028.171776" stroke="black" stroke-width="4.05"/>
<line x1="1070.851626" y1="1028.171776" x2="1110.575106" y2="1028.171776" stroke="black" stroke-width="4.05"/>
<line x1="1070.851626" y1="808.699558" x2="872.730778" y2="808.699558" stroke="black" stroke-width="4.05"/>
<line x1="1111.568191" y1="808.203013" x2="1111.568191" y2="787.844732" stroke="black" stroke-width="4.05"/>
<line x1="1111.568191" y1="787.844732" x2="1071.844715" y2="787.844732" stroke="black" stroke-width="4.05"/>
<line x1="1071.844715" y1="787.844732" x2="1071.844715" y2="808.203013" stroke="black" stroke-width="4.05"/>
<line x1="1071.844715" y1="808.203013" x2="1111.568191" y2="808.203013" stroke="black" stroke-width="4.05"/>
<path d="m 1072.341256,1007.813491 a 199.11393349999997,199.11393349999997 0 0 1 -199.11393399999997,-199.11393299999997" fill="none" stroke="black" stroke-width="4.05"/>
<line x1="913.136738" y1="247.05077" x2="1080.250153" y2="247.05077" stroke="black" stroke-width="4.05"/>
<line x1="1080.250153" y1="247.05077" x2="1080.250153" y2="414.506628" stroke="black" stroke-width="4.05"/>
<line x1="1080.250153" y1="414.506628" x2="913.136738" y2="414.506628" stroke="black" stroke-width="4.05"/>
<line x1="913.136738" y1="414.506628" x2="913.136738" y2="247.05077" stroke="black" stroke-width="4.05"/>
<line x1="912.794296" y1="246.708324" x2="1080.250153" y2="414.506628" stroke="black" stroke-width="4.05"/>
<line x1="913.136738" y1="414.164185" x2="1079.90771" y2="247.05077" stroke="black" stroke-width="4.05"/>
<line x1="313.760743" y1="152.700322" x2="202.960987" y2="330.017004" stroke="black" stroke-width="4.05"/>
<line x1="202.960987" y1="330.017004" x2="399.621308" y2="452.904012" stroke="black" stroke-width="4.05"/>
<line x1="399.621308" y1="452.904012" x2="510.421064" y2="275.58733" stroke="black" stroke-width="4.05"/>
<line x1="510.421064" y1="275.58733" x2="313.760743" y2="152.700322" stroke="black" stroke-width="4.05"/>
<line x1="341.164235" y1="169.82392" x2="230.364475" y2="347.140602" stroke="black" stroke-width="4.05"/>
<line x1="1637.344138" y1="572.730257" x2="2030.644984" y2="572.730257" stroke="black" stroke-width="4.05"/>
<line x1="2030.644984" y1="572.730257" x2="2030.644984" y2="397.576033" stroke="black" stroke-width="4.05"/>
<line x1="2030.644984" y1="397.576033" x2="1637.344138" y2="397.576033" stroke="black" stroke-width="4.05"/>
<line x1="1637.344138" y1="397.576033" x2="1637.344138" y2="572.730257" stroke="black" stroke-width="4.05"/>
<line x1="1955.010204" y1="424.645322" x2="1669.190357" y2="424.645322" stroke="black" stroke-width="4.05"/>
<line x1="1669.190357" y1="424.645322" x2="1669.190357" y2="543.272501" stroke="black" stroke-width="4.05"/>
<line x1="1669.190357" y1="543.272501" x2="1960.583292" y2="543.272501" stroke="black" stroke-width="4.05"/>
<path d="m 1954.19538,424.388556 a 63.69244503127078,63.69244503127078 0 0 1 4.316342000000077,120.00067899999999" fill="none" stroke="black" stroke-width="4.05"/>
<line x1="1132.995863" y1="600.926753" x2="1153.236467" y2="600.926753" stroke="black" stroke-width="4.05"/>
<line x1="1153.236467" y1="600.926753" x2="1153.236467" y2="561.432888" stroke="black" stroke-width="4.05"/>
<line x1="1153.236467" y1="561.432888" x2="1132.995863" y2="561.432888" stroke="black" stroke-width="4.05"/>
<line x1="1132.995863" y1="561.432888" x2="1132.995863" y2="600.926753" stroke="black" stroke-width="4.05"/>
<line x1="1351.199455" y1="561.432888" x2="1351.199455" y2="364.45725" stroke="black" stroke-width="4.05"/>
<line x1="1351.693127" y1="601.9141" x2="1371.933731" y2="601.9141" stroke="black" stroke-width="4.05"/>
<line x1="1371.933731" y1="601.9141" x2="1371.933731" y2="562.420235" stroke="black" stroke-width="4.05"/>
<line x1="1371.933731" y1="562.420235" x2="1351.693127" y2="562.420235" stroke="black" stroke-width="4.05"/>
<line x1="1351.693127" y1="562.420235" x2="1351.693127" y2="601.9141" stroke="black" stroke-width="4.05"/>
<path d="m 1153.236467,562.91391 a 197.962988,197.962988 0 0 1 197.962988,-197.962988" fill="none" stroke="black" stroke-width="4.05"/>
<line x1="1160.578616" y1="118.902182" x2="1553.822489" y2="118.902182" stroke="black" stroke-width="4.05"/>
<line x1="1557.777895" y1="117.9059" x2="1557.777895" y2="253.974676" stroke="black" stroke-width="4.05"/>
<line x1="1161.043006" y1="255.126182" x2="1558.083236" y2="255.126182" stroke="black" stroke-width="4.05"/>
<line x1="1161.777895" y1="119.596932" x2="1161.777895" y2="254.860988" stroke="black" stroke-width="4.05"/>
<line x1="1172.073895" y1="129.990182" x2="1295.625895" y2="129.990182" stroke="black" stroke-width="4.05"/>
<line x1="1295.625895" y1="129.990182" x2="1295.625895" y2="244.038182" stroke="black" stroke-width="4.05"/>
<line x1="1172.073895" y1="244.038182" x2="1295.625895" y2="244.038182" stroke="black" stroke-width="4.05"/>
<line x1="1172.073895" y1="129.990182" x2="1172.073895" y2="244.038182" stroke="black" stroke-width="4.05"/>
<line x1="1314.633895" y1="137.118182" x2="1401.753895" y2="137.118182" stroke="black" stroke-width="4.05"/>
<line x1="1314.633895" y1="156.918182" x2="1401.753895" y2="156.918182" stroke="black" stroke-width="4.05"/>
<line x1="1315.425895" y1="177.510182" x2="1401.753895" y2="177.510182" stroke="black" stroke-width="4.05"/>
<line x1="1315.425895" y1="197.310182" x2="1401.753895" y2="197.310182" stroke="black" stroke-width="4.05"/>
<line x1="1314.633895" y1="217.110182" x2="1401.753895" y2="217.110182" stroke="black" stroke-width="4.05"/>
<line x1="1314.633895" y1="236.910182" x2="1401.753895" y2="236.910182" stroke="black" stroke-width="4.05"/>
<line x1="1219.593895" y1="243.246182" x2="1219.593895" y2="229.782182" stroke="black" stroke-width="4.05"/>
<line x1="1219.593895" y1="229.782182" x2="1249.689895" y2="229.782182" stroke="black" stroke-width="4.05"/>
<line x1="1249.689895" y1="229.782182" x2="1249.689895" y2="242.454182" stroke="black" stroke-width="4.05"/>
<line x1="1422.345895" y1="129.990182" x2="1545.897895" y2="129.990182" stroke="black" stroke-width="4.05"/>
<line x1="1545.897895" y1="129.990182" x2="1545.897895" y2="244.038182" stroke="black" stroke-width="4.05"/>
<line x1="1422.345895" y1="244.038182" x2="1545.897895" y2="244.038182" stroke="black" stroke-width="4.05"/>
<line x1="1422.345895" y1="129.990182" x2="1422.345895" y2="244.038182" stroke="black" stroke-width="4.05"/>
<line x1="1469.865895" y1="244.038182" x2="1469.865895" y2="230.574182" stroke="black" stroke-width="4.05"/>
<line x1="1469.865895" y1="230.574182" x2="1499.961895" y2="230.574182" stroke="black" stroke-width="4.05"/>
<line x1="1499.961895" y1="230.574182" x2="1499.961895" y2="243.246182" stroke="black" stroke-width="4.05"/>
<circle cx="1281.369895" cy="144.246182" r="7.128000000000001" fill="none" stroke="black" stroke-width="4.05"/>
<circle cx="1531.641895" cy="145.038182" r="7.128000000000001" fill="none" stroke="black" stroke-width="4.05"/>
<line x1="2034.234756" y1="166.642459" x2="1850.312599" y2="166.642459" stroke="black" stroke-width="4.05"/>
<line x1="1850.312599" y1="166.642459" x2="1850.312599" y2="117.490849" stroke="black" stroke-width="4.05"/>
<line x1="2034.234756" y1="117.490849" x2="1850.312599" y2="117.490849" stroke="black" stroke-width="4.05"/>
<line x1="2034.234756" y1="166.642459" x2="2034.234756" y2="117.490849" stroke="black" stroke-width="4.05"/>
<line x1="1992.61444" y1="194.389337" x2="1992.61444" y2="166.642459" stroke="black" stroke-width="4.05"/>
<line x1="1893.518453" y1="166.642459" x2="1893.518453" y2="195.974874" stroke="black" stroke-width="4.05"/>
<circle cx="1943.859215" cy="239.577106" r="66.59250380904014" fill="none" stroke="black" stroke-width="4.05"/>
<circle cx="1943.859215" cy="239.577106" r="57.07928897917725" fill="none" stroke="black" stroke-width="4.05"/>
<line x1="1395.085691" y1="798.896383" x2="1395.085691" y2="819.136987" stroke="black" stroke-width="4.05"/>
<line x1="1395.085691" y1="819.136987" x2="1434.579556" y2="819.136987" stroke="black" stroke-width="4.05"/>
<line x1="1434.579556" y1="819.136987" x2="1434.579556" y2="798.896383" stroke="black" stroke-width="4.05"/>
<line x1="1434.579556" y1="798.896383" x2="1395.085691" y2="798.896383" stroke="black" stroke-width="4.05"/>
<line x1="1434.579556" y1="1017.099976" x2="1631.555194" y2="1017.099976" stroke="black" stroke-width="4.05"/>
<line x1="1394.098344" y1="1017.593647" x2="1394.098344" y2="1037.834251" stroke="black" stroke-width="4.05"/>
<line x1="1394.098344" y1="1037.834251" x2="1433.592209" y2="1037.834251" stroke="black" stroke-width="4.05"/>
<line x1="1433.592209" y1="1037.834251" x2="1433.592209" y2="1017.593647" stroke="black" stroke-width="4.05"/>
<line x1="1433.592209" y1="1017.593647" x2="1394.098344" y2="1017.593647" stroke="black" stroke-width="4.05"/>
<path d="m 1433.098534,819.136987 a 197.9629885,197.9629885 0 0 1 197.962988,197.962989" fill="none" stroke="black" stroke-width="4.05"/>
<line x1="1611.872132" y1="1345.027622" x2="1265.022065" y2="1529.451076" stroke="black" stroke-width="4.05"/>
<line x1="1265.022065" y1="1529.451076" x2="1351.656468" y2="1692.386694" stroke="black" stroke-width="4.05"/>
<line x1="1351.656468" y1="1692.386694" x2="1698.506536" y2="1507.963241" stroke="black" stroke-width="4.05"/>
<line x1="1698.506536" y1="1507.963241" x2="1611.872132" y2="1345.027622" stroke="black" stroke-width="4.05"/>
<line x1="1557.948344" y1="1582.699356" x2="1595.874136" y2="1654.027394" stroke="black" stroke-width="4.05"/>
<line x1="1595.874136" y1="1654.027394" x2="1665.104288" y2="1617.21707" stroke="black" stroke-width="4.05"/>
<line x1="1665.104288" y1="1617.21707" x2="1627.178497" y2="1545.889032" stroke="black" stroke-width="4.05"/>
<line x1="1656.224924" y1="1602.204412" x2="1587.694064" y2="1638.642917" stroke="black" stroke-width="4.05"/>
<line x1="1502.24648" y1="1310.926082" x2="1433.016328" y2="1347.73641" stroke="black" stroke-width="4.05"/>
<line x1="1433.016328" y1="1347.73641" x2="1471.313941" y2="1419.763741" stroke="black" stroke-width="4.05"/>
<line x1="1540.544094" y1="1382.953414" x2="1502.24648" y2="1310.926082" stroke="black" stroke-width="4.05"/>
<line x1="1509.727262" y1="1326.682379" x2="1441.196402" y2="1363.120884" stroke="black" stroke-width="4.05"/>
<line x1="1424.383096" y1="1653.717262" x2="1462.308887" y2="1725.045296" stroke="black" stroke-width="4.05"/>
<line x1="1462.308887" y1="1725.045296" x2="1531.539043" y2="1688.234969" stroke="black" stroke-width="4.05"/>
<line x1="1531.539043" y1="1688.234969" x2="1493.613252" y2="1616.906934" stroke="black" stroke-width="4.05"/>
<line x1="1523.358968" y1="1672.850491" x2="1454.128816" y2="1709.660819" stroke="black" stroke-width="4.05"/>
<line x1="1368.681235" y1="1381.943981" x2="1299.451079" y2="1418.754308" stroke="black" stroke-width="4.05"/>
<line x1="1299.451079" y1="1418.754308" x2="1337.748692" y2="1490.781643" stroke="black" stroke-width="4.05"/>
<line x1="1406.978845" y1="1453.971316" x2="1368.681235" y2="1381.943981" stroke="black" stroke-width="4.05"/>
<line x1="1376.861306" y1="1397.328462" x2="1307.631154" y2="1434.13879" stroke="black" stroke-width="4.05"/>
<line x1="679.80199" y1="1270.405984" x2="679.80199" y2="1080.325984" stroke="black" stroke-width="4.05"/>
<line x1="679.80199" y1="1080.325984" x2="216.00679" y2="1080.325984" stroke="black" stroke-width="4.05"/>
<line x1="216.00679" y1="1080.325984" x2="216.00679" y2="1270.405984" stroke="black" stroke-width="4.05"/>
<line x1="216.00679" y1="1270.405984" x2="239.76679" y2="1270.405984" stroke="black" stroke-width="4.05"/>
<line x1="239.76679" y1="1270.405984" x2="239.76679" y2="1103.135584" stroke="black" stroke-width="4.05"/>
<line x1="239.76679" y1="1103.135584" x2="655.09159" y2="1103.135584" stroke="black" stroke-width="4.05"/>
<line x1="655.09159" y1="1103.135584" x2="655.09159" y2="1270.405984" stroke="black" stroke-width="4.05"/>
<line x1="655.09159" y1="1270.405984" x2="679.80199" y2="1270.405984" stroke="black" stroke-width="4.05"/>
<line x1="655.09159" y1="1264.703584" x2="239.76679" y2="1264.703584" stroke="black" stroke-width="4.05"/>
<line x1="447.90439" y1="1265.653984" x2="447.90439" y2="1104.085984" stroke="black" stroke-width="4.05"/>
<line x1="594.853474" y1="1374.401192" x2="721.184141" y2="1415.448515" stroke="black" stroke-width="4.05"/>
<line x1="721.184141" y1="1415.448515" x2="680.052708" y2="1542.038058" stroke="black" stroke-width="4.05"/>
<line x1="680.052708" y1="1542.038058" x2="553.722037" y2="1500.990736" stroke="black" stroke-width="4.05"/>
<line x1="553.722037" y1="1500.990736" x2="594.853474" y2="1374.401192" stroke="black" stroke-width="4.05"/>
<line x1="594.678712" y1="1374.058206" x2="680.052708" y2="1542.038058" stroke="black" stroke-width="4.05"/>
<line x1="553.806151" y1="1500.73186" x2="720.925268" y2="1415.364401" stroke="black" stroke-width="4.05"/>
<line x1="188.652769" y1="1576.917292" x2="328.559951" y2="1732.299959" stroke="black" stroke-width="4.05"/>
<line x1="328.559951" y1="1732.299959" x2="500.893452" y2="1577.130178" stroke="black" stroke-width="4.05"/>
<line x1="500.893452" y1="1577.130178" x2="360.986274" y2="1421.74751" stroke="black" stroke-width="4.05"/>
<line x1="360.986274" y1="1421.74751" x2="188.652769" y2="1576.917292" stroke="black" stroke-width="4.05"/>
<line x1="212.666458" y1="1555.295274" x2="352.573636" y2="1710.677938" stroke="black" stroke-width="4.05"/>
<line x1="1819.466222" y1="1899.877079" x2="1819.466222" y2="1667.979479" stroke="black" stroke-width="4.05"/>
<line x1="1819.466222" y1="1667.979479" x2="2051.839022" y2="1667.979479" stroke="black" stroke-width="4.05"/>
<line x1="2051.839022" y1="1667.979479" x2="2051.839022" y2="1899.877079" stroke="black" stroke-width="4.05"/>
<line x1="2051.839022" y1="1899.877079" x2="1819.466222" y2="1899.877079" stroke="black" stroke-width="4.05"/>
<line x1="1818.991022" y1="1900.352279" x2="2051.839022" y2="1667.979479" stroke="black" stroke-width="4.05"/>
<line x1="2051.363822" y1="1899.877079" x2="1819.466222" y2="1668.454679" stroke="black" stroke-width="4.05"/>
<line x1="1025.41261" y1="1708.08948" x2="1136.212366" y2="1530.772798" stroke="black" stroke-width="4.05"/>
<line x1="1136.212366" y1="1530.772798" x2="939.552044" y2="1407.88579" stroke="black" stroke-width="4.05"/>
<line x1="939.552044" y1="1407.88579" x2="828.752288" y2="1585.202472" stroke="black" stroke-width="4.05"/>
<line x1="828.752288" y1="1585.202472" x2="1025.41261" y2="1708.08948" stroke="black" stroke-width="4.05"/>
<line x1="998.009118" y1="1690.965882" x2="1108.808878" y2="1513.6492" stroke="black" stroke-width="4.05"/>
<line x1="1799.832056" y1="1048.556923" x2="2008.920056" y2="1048.556923" stroke="black" stroke-width="4.05"/>
<line x1="2008.920056" y1="1048.556923" x2="2008.920056" y2="816.659323" stroke="black" stroke-width="4.05"/>
<line x1="2008.920056" y1="816.659323" x2="1799.832056" y2="816.659323" stroke="black" stroke-width="4.05"/>
<line x1="1799.832056" y1="816.659323" x2="1799.832056" y2="1048.556923" stroke="black" stroke-width="4.05"/>
<line x1="1799.832056" y1="1016.243323" x2="2008.920056" y2="1016.243323" stroke="black" stroke-width="4.05"/>
<line x1="1666.989774" y1="604.690222" x2="1833.081988" y2="604.690222" stroke="black" stroke-width="4.05"/>
<line x1="1833.081988" y1="604.690222" x2="1833.081988" y2="771.122786" stroke="black" stroke-width="4.05"/>
<line x1="1833.081988" y1="771.122786" x2="1666.989774" y2="771.122786" stroke="black" stroke-width="4.05"/>
<line x1="1666.989774" y1="771.122786" x2="1666.989774" y2="604.690222" stroke="black" stroke-width="4.05"/>
<line x1="1666.649423" y1="604.34987" x2="1833.081988" y2="771.122786" stroke="black" stroke-width="4.05"/>
<line x1="1666.989774" y1="770.782435" x2="1832.741633" y2="604.690222" stroke="black" stroke-width="4.05"/>
<line x1="1832.995789" y1="604.424074" x2="1999.088003" y2="604.424074" stroke="black" stroke-width="4.05"/>
<line x1="1999.088003" y1="604.424074" x2="1999.088003" y2="770.856638" stroke="black" stroke-width="4.05"/>
<line x1="1999.088003" y1="770.856638" x2="1832.995789" y2="770.856638" stroke="black" stroke-width="4.05"/>
<line x1="1832.995789" y1="770.856638" x2="1832.995789" y2="604.424074" stroke="black" stroke-width="4.05"/>
<line x1="1832.655438" y1="604.083722" x2="1999.088003" y2="770.856638" stroke="black" stroke-width="4.05"/>
<line x1="1832.995789" y1="770.516287" x2="1998.747648" y2="604.424074" stroke="black" stroke-width="4.05"/>
<line x1="1501.570829" y1="604.276909" x2="1667.663042" y2="604.276909" stroke="black" stroke-width="4.05"/>
<line x1="1667.663042" y1="604.276909" x2="1667.663042" y2="770.709474" stroke="black" stroke-width="4.05"/>
<line x1="1667.663042" y1="770.709474" x2="1501.570829" y2="770.709474" stroke="black" stroke-width="4.05"/>
<line x1="1501.570829" y1="770.709474" x2="1501.570829" y2="604.276909" stroke="black" stroke-width="4.05"/>
<line x1="1501.230478" y1="603.936558" x2="1667.663042" y2="770.709474" stroke="black" stroke-width="4.05"/>
<line x1="1501.570829" y1="770.369123" x2="1667.322688" y2="604.276909" stroke="black" stroke-width="4.05"/>
<line x1="1886.55296" y1="1077.238843" x2="2052.645174" y2="1077.238843" stroke="black" stroke-width="4.05"/>
<line x1="2052.645174" y1="1077.238843" x2="2052.645174" y2="1243.671408" stroke="black" stroke-width="4.05"/>
<line x1="2052.645174" y1="1243.671408" x2="1886.55296" y2="1243.671408" stroke="black" stroke-width="4.05"/>
<line x1="1886.55296" y1="1243.671408" x2="1886.55296" y2="1077.238843" stroke="black" stroke-width="4.05"/>
<line x1="1886.212609" y1="1076.898492" x2="2052.645174" y2="1243.671408" stroke="black" stroke-width="4.05"/>
<line x1="1886.55296" y1="1243.331057" x2="2052.304819" y2="1077.238843" stroke="black" stroke-width="4.05"/>
<line x1="1915.896632" y1="1644.870398" x2="1915.896632" y2="1251.626526" stroke="black" stroke-width="4.05"/>
<line x1="1914.90035" y1="1247.67112" x2="2050.969126" y2="1247.67112" stroke="black" stroke-width="4.05"/>
<line x1="2052.120632" y1="1644.406009" x2="2052.120632" y2="1247.365778" stroke="black" stroke-width="4.05"/>
<line x1="1916.591382" y1="1643.67112" x2="2051.855438" y2="1643.67112" stroke="black" stroke-width="4.05"/>
<line x1="1926.984632" y1="1633.37512" x2="1926.984632" y2="1509.82312" stroke="black" stroke-width="4.05"/>
<line x1="1926.984632" y1="1509.82312" x2="2041.032632" y2="1509.82312" stroke="black" stroke-width="4.05"/>
<line x1="2041.032632" y1="1633.37512" x2="2041.032632" y2="1509.82312" stroke="black" stroke-width="4.05"/>
<line x1="1926.984632" y1="1633.37512" x2="2041.032632" y2="1633.37512" stroke="black" stroke-width="4.05"/>
<line x1="1934.112632" y1="1490.81512" x2="1934.112632" y2="1403.69512" stroke="black" stroke-width="4.05"/>
<line x1="1953.912632" y1="1490.81512" x2="1953.912632" y2="1403.69512" stroke="black" stroke-width="4.05"/>
<line x1="1974.504632" y1="1490.02312" x2="1974.504632" y2="1403.69512" stroke="black" stroke-width="4.05"/>
<line x1="1994.304632" y1="1490.02312" x2="1994.304632" y2="1403.69512" stroke="black" stroke-width="4.05"/>
<line x1="2014.104632" y1="1490.81512" x2="2014.104632" y2="1403.69512" stroke="black" stroke-width="4.05"/>
<line x1="2033.904632" y1="1490.81512" x2="2033.904632" y2="1403.69512" stroke="black" stroke-width="4.05"/>
<line x1="2040.240632" y1="1585.85512" x2="2026.776632" y2="1585.85512" stroke="black" stroke-width="4.05"/>
<line x1="2026.776632" y1="1585.85512" x2="2026.776632" y2="1555.75912" stroke="black" stroke-width="4.05"/>
<line x1="2026.776632" y1="1555.75912" x2="2039.448632" y2="1555.75912" stroke="black" stroke-width="4.05"/>
<line x1="1926.984632" y1="1383.10312" x2="1926.984632" y2="1259.55112" stroke="black" stroke-width="4.05"/>
<line x1="1926.984632" y1="1259.55112" x2="2041.032632" y2="1259.55112" stroke="black" stroke-width="4.05"/>
<line x1="2041.032632" y1="1383.10312" x2="2041.032632" y2="1259.55112" stroke="black" stroke-width="4.05"/>
<line x1="1926.984632" y1="1383.10312" x2="2041.032632" y2="1383.10312" stroke="black" stroke-width="4.05"/>
<line x1="2041.032632" y1="1335.58312" x2="2027.568632" y2="1335.58312" stroke="black" stroke-width="4.05"/>
<line x1="2027.568632" y1="1335.58312" x2="2027.568632" y2="1305.48712" stroke="black" stroke-width="4.05"/>
<line x1="2027.568632" y1="1305.48712" x2="2040.240632" y2="1305.48712" stroke="black" stroke-width="4.05"/>
<circle cx="1941.240632" cy="1524.07912" r="7.128000000000001" fill="none" stroke="black" stroke-width="4.05"/>
<circle cx="1942.032632" cy="1273.80712" r="7.128000000000001" fill="none" stroke="black" stroke-width="4.05"/>
</g>
</svg>
