<?xml version="1.0"?>
<svg xmlns:xlink="http://www.w3.org/1999/xlink" width="2170.8" height="2138.4">
<image x="0" y="0" width="2170.8" height="2138.4" xlink:href="ground16-04.png"/>
<g style="stroke-linecap:round">
<line x1="355.533062" y1="110.352848" x2="594.608141" y2="110.352848" stroke="black" stroke-width="4.05"/>
<line x1="594.608141" y1="110.352848" x2="594.608141" y2="67.591451" stroke="black" stroke-width="4.05"/>
<line x1="594.608141" y1="67.591451" x2="355.533062" y2="67.591451" stroke="black" stroke-width="4.05"/>
<line x1="355.533062" y1="67.591451" x2="355.533062" y2="110.352848" stroke="black" stroke-width="4.05"/>
<line x1="366.709334" y1="110.352848" x2="366.709334" y2="124.930598" stroke="black" stroke-width="4.05"/>
<line x1="366.709334" y1="124.930598" x2="582.945941" y2="124.930598" stroke="black" stroke-width="4.05"/>
<line x1="582.945941" y1="110.352848" x2="582.945941" y2="124.930598" stroke="black" stroke-width="4.05"/>
<line x1="1586.405599" y1="111.127352" x2="1826.175665" y2="111.127352" stroke="black" stroke-width="4.05"/>
<line x1="1826.175665" y1="111.127352" x2="1826.175665" y2="68.24165" stroke="black" stroke-width="4.05"/>
<line x1="1826.175665" y1="68.24165" x2="1586.405599" y2="68.24165" stroke="black" stroke-width="4.05"/>
<line x1="1586.405599" y1="68.24165" x2="1586.405599" y2="111.127352" stroke="black" stroke-width="4.05"/>
<line x1="1597.614361" y1="111.127352" x2="1597.614361" y2="125.747478" stroke="black" stroke-width="4.05"/>
<line x1="1597.614361" y1="125.747478" x2="1814.479564" y2="125.747478" stroke="black" stroke-width="4.05"/>
<line x1="1814.479564" y1="111.127352" x2="1814.479564" y2="125.747478" stroke="black" stroke-width="4.05"/>
<line x1="455.164369" y1="2021.61294" x2="214.682375" y2="2021.61294" stroke="black" stroke-width="4.05"/>
<line x1="214.682375" y1="2021.61294" x2="214.682375" y2="2058.685214" stroke="black" stroke-width="4.05"/>
<line x1="214.682375" y1="2058.685214" x2="455.164369" y2="2058.685214" stroke="black" stroke-width="4.05"/>
<line x1="455.164369" y1="2058.685214" x2="455.164369" y2="2021.61294" stroke="black" stroke-width="4.05"/>
<line x1="432.72589" y1="2058.197422" x2="432.72589" y2="2022.100733" stroke="black" stroke-width="4.05"/>
<line x1="237.608647" y1="2058.197422" x2="237.608647" y2="2020.637354" stroke="black" stroke-width="4.05"/>
<line x1="433.213682" y1="2041.124663" x2="238.096444" y2="2041.124663" stroke="black" stroke-width="4.05"/>
<line x1="1004.397887" y1="2015.058442" x2="764.627821" y2="2015.058442" stroke="black" stroke-width="4.05"/>
<line x1="764.627821" y1="2015.058442" x2="764.627821" y2="2057.944144" stroke="black" stroke-width="4.05"/>
<line x1="764.627821" y1="2057.944144" x2="1004.397887" y2="2057.944144" stroke="black" stroke-width="4.05"/>
<line x1="1004.397887" y1="2057.944144" x2="1004.397887" y2="2015.058442" stroke="black" stroke-width="4.05"/>
<line x1="993.189125" y1="2015.058442" x2="993.189125" y2="2000.438316" stroke="black" stroke-width="4.05"/>
<line x1="993.189125" y1="2000.438316" x2="776.323922" y2="2000.438316" stroke="black" stroke-width="4.05"/>
<line x1="776.323922" y1="2015.058442" x2="776.323922" y2="2000.438316" stroke="black" stroke-width="4.05"/>
<line x1="1502.318696" y1="2015.331124" x2="1262.548631" y2="2015.331124" stroke="black" stroke-width="4.05"/>
<line x1="1262.548631" y1="2015.331124" x2="1262.548631" y2="2058.216826" stroke="black" stroke-width="4.05"/>
<line x1="1262.548631" y1="2058.216826" x2="1502.318696" y2="2058.216826" stroke="black" stroke-width="4.05"/>
<line x1="1502.318696" y1="2058.216826" x2="1502.318696" y2="2015.331124" stroke="black" stroke-width="4.05"/>
<line x1="1491.109934" y1="2015.331124" x2="1491.109934" y2="2000.710998" stroke="black" stroke-width="4.05"/>
<line x1="1491.109934" y1="2000.710998" x2="1274.244732" y2="2000.710998" stroke="black" stroke-width="4.05"/>
<line x1="1274.244732" y1="2015.331124" x2="1274.244732" y2="2000.710998" stroke="black" stroke-width="4.05"/>
<line x1="1977.071191" y1="2021.28741" x2="1737.284227" y2="2021.28741" stroke="black" stroke-width="4.05"/>
<line x1="1737.284227" y1="2021.28741" x2="1737.284227" y2="2058.252541" stroke="black" stroke-width="4.05"/>
<line x1="1737.284227" y1="2058.252541" x2="1977.071191" y2="2058.252541" stroke="black" stroke-width="4.05"/>
<line x1="1977.071191" y1="2058.252541" x2="1977.071191" y2="2021.28741" stroke="black" stroke-width="4.05"/>
<line x1="1954.697558" y1="2057.766156" x2="1954.697558" y2="2021.773795" stroke="black" stroke-width="4.05"/>
<line x1="1760.144242" y1="2057.766156" x2="1760.144242" y2="2020.314643" stroke="black" stroke-width="4.05"/>
<line x1="1955.183944" y1="2040.742742" x2="1760.630627" y2="2040.742742" stroke="black" stroke-width="4.05"/>
<line x1="2064.218674" y1="203.981501" x2="2064.218674" y2="444.463495" stroke="black" stroke-width="4.05"/>
<line x1="2064.218674" y1="444.463495" x2="2101.290948" y2="444.463495" stroke="black" stroke-width="4.05"/>
<line x1="2101.290948" y1="444.463495" x2="2101.290948" y2="203.981501" stroke="black" stroke-width="4.05"/>
<line x1="2101.290948" y1="203.981501" x2="2064.218674" y2="203.981501" stroke="black" stroke-width="4.05"/>
<line x1="2100.803155" y1="226.41998" x2="2064.706466" y2="226.41998" stroke="black" stroke-width="4.05"/>
<line x1="2100.803155" y1="421.537223" x2="2063.243088" y2="421.537223" stroke="black" stroke-width="4.05"/>
<line x1="2083.730396" y1="225.932188" x2="2083.730396" y2="421.049426" stroke="black" stroke-width="4.05"/>
<line x1="2062.857866" y1="776.16608" x2="2062.857866" y2="1027.768633" stroke="black" stroke-width="4.05"/>
<line x1="2062.857866" y1="1027.768633" x2="2101.644464" y2="1027.768633" stroke="black" stroke-width="4.05"/>
<line x1="2101.644464" y1="1027.768633" x2="2101.644464" y2="776.16608" stroke="black" stroke-width="4.05"/>
<line x1="2101.644464" y1="776.16608" x2="2062.857866" y2="776.16608" stroke="black" stroke-width="4.05"/>
<line x1="2101.134114" y1="799.642181" x2="2063.368217" y2="799.642181" stroke="black" stroke-width="4.05"/>
<line x1="2101.134114" y1="1003.782182" x2="2061.837166" y2="1003.782182" stroke="black" stroke-width="4.05"/>
<line x1="2083.271864" y1="799.13183" x2="2083.271864" y2="1003.271832" stroke="black" stroke-width="4.05"/>
<line x1="2064.600925" y1="1369.92258" x2="2064.600925" y2="1611.794646" stroke="black" stroke-width="4.05"/>
<line x1="2064.600925" y1="1611.794646" x2="2101.887493" y2="1611.794646" stroke="black" stroke-width="4.05"/>
<line x1="2101.887493" y1="1611.794646" x2="2101.887493" y2="1369.92258" stroke="black" stroke-width="4.05"/>
<line x1="2101.887493" y1="1369.92258" x2="2064.600925" y2="1369.92258" stroke="black" stroke-width="4.05"/>
<line x1="2101.396882" y1="1392.490764" x2="2065.09154" y2="1392.490764" stroke="black" stroke-width="4.05"/>
<line x1="2101.396882" y1="1588.73585" x2="2063.619702" y2="1588.73585" stroke="black" stroke-width="4.05"/>
<line x1="2084.225436" y1="1392.000152" x2="2084.225436" y2="1588.245235" stroke="black" stroke-width="4.05"/>
<line x1="144.255596" y1="1589.650286" x2="144.255596" y2="1347.795266" stroke="black" stroke-width="4.05"/>
<line x1="144.255596" y1="1347.795266" x2="100.996974" y2="1347.795266" stroke="black" stroke-width="4.05"/>
<line x1="100.996974" y1="1347.795266" x2="100.996974" y2="1589.650286" stroke="black" stroke-width="4.05"/>
<line x1="100.996974" y1="1589.650286" x2="144.255596" y2="1589.650286" stroke="black" stroke-width="4.05"/>
<line x1="144.255596" y1="1578.344054" x2="159.002856" y2="1578.344054" stroke="black" stroke-width="4.05"/>
<line x1="159.002856" y1="1578.344054" x2="159.002856" y2="1359.593071" stroke="black" stroke-width="4.05"/>
<line x1="144.255596" y1="1359.593071" x2="159.002856" y2="1359.593071" stroke="black" stroke-width="4.05"/>
<line x1="145.345295" y1="909.129312" x2="145.345295" y2="667.274292" stroke="black" stroke-width="4.05"/>
<line x1="145.345295" y1="667.274292" x2="102.086672" y2="667.274292" stroke="black" stroke-width="4.05"/>
<line x1="102.086672" y1="667.274292" x2="102.086672" y2="909.129312" stroke="black" stroke-width="4.05"/>
<line x1="102.086672" y1="909.129312" x2="145.345295" y2="909.129312" stroke="black" stroke-width="4.05"/>
<line x1="145.345295" y1="897.82308" x2="160.092554" y2="897.82308" stroke="black" stroke-width="4.05"/>
<line x1="160.092554" y1="897.82308" x2="160.092554" y2="679.072097" stroke="black" stroke-width="4.05"/>
<line x1="145.345295" y1="679.072097" x2="160.092554" y2="679.072097" stroke="black" stroke-width="4.05"/>
<line x1="138.442799" y1="445.034534" x2="138.442799" y2="203.162468" stroke="black" stroke-width="4.05"/>
<line x1="138.442799" y1="203.162468" x2="101.156231" y2="203.162468" stroke="black" stroke-width="4.05"/>
<line x1="101.156231" y1="203.162468" x2="101.156231" y2="445.034534" stroke="black" stroke-width="4.05"/>
<line x1="101.156231" y1="445.034534" x2="138.442799" y2="445.034534" stroke="black" stroke-width="4.05"/>
<line x1="101.646842" y1="422.46635" x2="137.952184" y2="422.46635" stroke="black" stroke-width="4.05"/>
<line x1="101.646842" y1="226.221264" x2="139.424022" y2="226.221264" stroke="black" stroke-width="4.05"/>
<line x1="118.818288" y1="422.956962" x2="118.818288" y2="226.711879" stroke="black" stroke-width="4.05"/>
<line x1="649.868036" y1="715.774763" x2="440.502833" y2="715.774763" stroke="black" stroke-width="4.05"/>
<line x1="440.502833" y1="715.774763" x2="440.502833" y2="1046.989166" stroke="black" stroke-width="4.05"/>
<line x1="440.502833" y1="1046.989166" x2="649.868036" y2="1046.989166" stroke="black" stroke-width="4.05"/>
<line x1="649.868036" y1="1046.989166" x2="649.868036" y2="715.774763" stroke="black" stroke-width="4.05"/>
<line x1="650.541236" y1="987.747563" x2="439.829633" y2="987.747563" stroke="black" stroke-width="4.05"/>
<line x1="439.829633" y1="987.747563" x2="649.194833" y2="937.930763" stroke="black" stroke-width="4.05"/>
<line x1="649.194833" y1="937.930763" x2="617.554433" y2="891.479963" stroke="black" stroke-width="4.05"/>
<line x1="617.554433" y1="891.479963" x2="439.829633" y2="988.420766" stroke="black" stroke-width="4.05"/>
<line x1="1110.575106" y1="1028.171776" x2="1110.575106" y2="1007.813491" stroke="black" stroke-width="4.05"/>
<line x1="1110.575106" y1="1007.813491" x2="1070.851626" y2="1007.813491" stroke="black" stroke-width="4.05"/>
<line x1="1070.851626" y1="1007.813491" x2="1070.851626" y2="1028.171776" stroke="black" stroke-width="4.05"/>
<line x1="1070.851626" y1="1028.171776" x2="1110.575106" y2="1028.171776" stroke="black" stroke-width="4.05"/>
<line x1="1070.851626" y1="808.699558" x2="872.730778" y2="808.699558" stroke="black" stroke-width="4.05"/>
<line x1="1111.568191" y1="808.203013" x2="1111.568191" y2="787.844732" stroke="black" stroke-width="4.05"/>
<line x1="1111.568191" y1="787.844732" x2="1071.844715" y2="787.844732" stroke="black" stroke-width="4.05"/>
<line x1="1071.844715" y1="787.844732" x2="1071.844715" y2="808.203013" stroke="black" stroke-width="4.05"/>
<line x1="1071.844715" y1="808.203013" x2="1111.568191" y2="808.203013" stroke="black" stroke-width="4.05"/>
<path d="m 1072.341256,1007.813491 a 199.11393349999997,199.11393349999997 0 0 1 -199.11393399999997,-199.11393299999997" fill="none" stroke="black" stroke-width="4.05"/>
<line x1="913.136738" y1="247.05077" x2="1080.250153" y2="247.05077" stroke="black" stroke-width="4.05"/>
<line x1="1080.250153" y1="247.05077" x2="1080.250153" y2="414.506628" stroke="black" stroke-width="4.05"/>
<line x1="1080.250153" y1="414.506628" x2="913.136738" y2="414.506628" stroke="black" stroke-width="4.05"/>
<line x1="913.136738" y1="414.506628" x2="913.136738" y2="247.05077" stroke="black" stroke-width="4.05"/>
<line x1="912.794296" y1="246.708324" x2="1080.250153" y2="414.506628" stroke="black" stroke-width="4.05"/>
<line x1="913.136738" y1="414.164185" x2="1079.90771" y2="247.05077" stroke="black" stroke-width="4.05"/>
<line x1="313.760743" y1="152.700322" x2="202.960987" y2="330.017004" stroke="black" stroke-width="4.05"/>
<line x1="202.960987" y1="330.017004" x2="399.621308" y2="452.904012" stroke="black" stroke-width="4.05"/>
<line x1="399.621308" y1="452.904012" x2="510.421064" y2="275.58733" stroke="black" stroke-width="4.05"/>
<line x1="510.421064" y1="275.58733" x2="313.760743" y2="152.700322" stroke="black" stroke-width="4.05"/>
<line x1="341.164235" y1="169.82392" x2="230.364475" y2="347.140602" stroke="black" stroke-width="4.05"/>
<line x1="2030.64498" y1="397.576037" x2="1637.344134" y2="397.576037" stroke="black" stroke-width="4.05"/>
<line x1="1637.344134" y1="397.576037" x2="1637.344134" y2="572.73026" stroke="black" stroke-width="4.05"/>
<line x1="1637.344134" y1="572.73026" x2="2030.64498" y2="572.73026" stroke="black" stroke-width="4.05"/>
<line x1="2030.64498" y1="572.73026" x2="2030.64498" y2="397.576037" stroke="black" stroke-width="4.05"/>
<line x1="1712.978914" y1="545.660971" x2="1998.798761" y2="545.660971" stroke="black" stroke-width="4.05"/>
<line x1="1998.798761" y1="545.660971" x2="1998.798761" y2="427.033793" stroke="black" stroke-width="4.05"/>
<line x1="1998.798761" y1="427.033793" x2="1707.405826" y2="427.033793" stroke="black" stroke-width="4.05"/>
<path d="m 1713.793738,545.917738 a 63.69244535843305,63.69244535843305 0 0 1 -4.316343000000188,-120.00067999999999" fill="none" stroke="black" stroke-width="4.05"/>
<line x1="1132.995863" y1="600.926753" x2="1153.236467" y2="600.926753" stroke="black" stroke-width="4.05"/>
<line x1="1153.236467" y1="600.926753" x2="1153.236467" y2="561.432888" stroke="black" stroke-width="4.05"/>
<line x1="1153.236467" y1="561.432888" x2="1132.995863" y2="561.432888" stroke="black" stroke-width="4.05"/>
<line x1="1132.995863" y1="561.432888" x2="1132.995863" y2="600.926753" stroke="black" stroke-width="4.05"/>
<line x1="1351.199455" y1="561.432888" x2="1351.199455" y2="364.45725" stroke="black" stroke-width="4.05"/>
<line x1="1351.693127" y1="601.9141" x2="1371.933731" y2="601.9141" stroke="black" stroke-width="4.05"/>
<line x1="1371.933731" y1="601.9141" x2="1371.933731" y2="562.420235" stroke="black" stroke-width="4.05"/>
<line x1="1371.933731" y1="562.420235" x2="1351.693127" y2="562.420235" stroke="black" stroke-width="4.05"/>
<line x1="1351.693127" y1="562.420235" x2="1351.693127" y2="601.9141" stroke="black" stroke-width="4.05"/>
<path d="m 1153.236467,562.91391 a 197.962988,197.962988 0 0 1 197.962988,-197.962988" fill="none" stroke="black" stroke-width="4.05"/>
<line x1="1147.313606" y1="118.8203" x2="1540.557479" y2="118.8203" stroke="black" stroke-width="4.05"/>
<line x1="1544.512885" y1="117.824018" x2="1544.512885" y2="253.892794" stroke="black" stroke-width="4.05"/>
<line x1="1147.777996" y1="255.0443" x2="1544.818226" y2="255.0443" stroke="black" stroke-width="4.05"/>
<line x1="1148.512885" y1="119.51505" x2="1148.512885" y2="254.779106" stroke="black" stroke-width="4.05"/>
<line x1="1158.808885" y1="129.9083" x2="1282.360885" y2="129.9083" stroke="black" stroke-width="4.05"/>
<line x1="1282.360885" y1="129.9083" x2="1282.360885" y2="243.9563" stroke="black" stroke-width="4.05"/>
<line x1="1158.808885" y1="243.9563" x2="1282.360885" y2="243.9563" stroke="black" stroke-width="4.05"/>
<line x1="1158.808885" y1="129.9083" x2="1158.808885" y2="243.9563" stroke="black" stroke-width="4.05"/>
<line x1="1301.368885" y1="137.0363" x2="1388.488885" y2="137.0363" stroke="black" stroke-width="4.05"/>
<line x1="1301.368885" y1="156.8363" x2="1388.488885" y2="156.8363" stroke="black" stroke-width="4.05"/>
<line x1="1302.160885" y1="177.4283" x2="1388.488885" y2="177.4283" stroke="black" stroke-width="4.05"/>
<line x1="1302.160885" y1="197.2283" x2="1388.488885" y2="197.2283" stroke="black" stroke-width="4.05"/>
<line x1="1301.368885" y1="217.0283" x2="1388.488885" y2="217.0283" stroke="black" stroke-width="4.05"/>
<line x1="1301.368885" y1="236.8283" x2="1388.488885" y2="236.8283" stroke="black" stroke-width="4.05"/>
<line x1="1206.328885" y1="243.1643" x2="1206.328885" y2="229.7003" stroke="black" stroke-width="4.05"/>
<line x1="1206.328885" y1="229.7003" x2="1236.424885" y2="229.7003" stroke="black" stroke-width="4.05"/>
<line x1="1236.424885" y1="229.7003" x2="1236.424885" y2="242.3723" stroke="black" stroke-width="4.05"/>
<line x1="1409.080885" y1="129.9083" x2="1532.632885" y2="129.9083" stroke="black" stroke-width="4.05"/>
<line x1="1532.632885" y1="129.9083" x2="1532.632885" y2="243.9563" stroke="black" stroke-width="4.05"/>
<line x1="1409.080885" y1="243.9563" x2="1532.632885" y2="243.9563" stroke="black" stroke-width="4.05"/>
<line x1="1409.080885" y1="129.9083" x2="1409.080885" y2="243.9563" stroke="black" stroke-width="4.05"/>
<line x1="1456.600885" y1="243.9563" x2="1456.600885" y2="230.4923" stroke="black" stroke-width="4.05"/>
<line x1="1456.600885" y1="230.4923" x2="1486.696885" y2="230.4923" stroke="black" stroke-width="4.05"/>
<line x1="1486.696885" y1="230.4923" x2="1486.696885" y2="243.1643" stroke="black" stroke-width="4.05"/>
<circle cx="1268.104885" cy="144.1643" r="7.128000000000001" fill="none" stroke="black" stroke-width="4.05"/>
<circle cx="1518.376885" cy="144.9563" r="7.128000000000001" fill="none" stroke="black" stroke-width="4.05"/>
<line x1="2034.234756" y1="166.642459" x2="1850.312599" y2="166.642459" stroke="black" stroke-width="4.05"/>
<line x1="1850.312599" y1="166.642459" x2="1850.312599" y2="117.490849" stroke="black" stroke-width="4.05"/>
<line x1="2034.234756" y1="117.490849" x2="1850.312599" y2="117.490849" stroke="black" stroke-width="4.05"/>
<line x1="2034.234756" y1="166.642459" x2="2034.234756" y2="117.490849" stroke="black" stroke-width="4.05"/>
<line x1="1992.61444" y1="194.389337" x2="1992.61444" y2="166.642459" stroke="black" stroke-width="4.05"/>
<line x1="1893.518453" y1="166.642459" x2="1893.518453" y2="195.974874" stroke="black" stroke-width="4.05"/>
<circle cx="1943.859215" cy="239.577106" r="66.59250380904014" fill="none" stroke="black" stroke-width="4.05"/>
<circle cx="1943.859215" cy="239.577106" r="57.07928897917725" fill="none" stroke="black" stroke-width="4.05"/>
<line x1="1395.085691" y1="798.896383" x2="1395.085691" y2="819.136987" stroke="black" stroke-width="4.05"/>
<line x1="1395.085691" y1="819.136987" x2="1434.579556" y2="819.136987" stroke="black" stroke-width="4.05"/>
<line x1="1434.579556" y1="819.136987" x2="1434.579556" y2="798.896383" stroke="black" stroke-width="4.05"/>
<line x1="1434.579556" y1="798.896383" x2="1395.085691" y2="798.896383" stroke="black" stroke-width="4.05"/>
<line x1="1434.579556" y1="1017.099976" x2="1631.555194" y2="1017.099976" stroke="black" stroke-width="4.05"/>
<line x1="1394.098344" y1="1017.593647" x2="1394.098344" y2="1037.834251" stroke="black" stroke-width="4.05"/>
<line x1="1394.098344" y1="1037.834251" x2="1433.592209" y2="1037.834251" stroke="black" stroke-width="4.05"/>
<line x1="1433.592209" y1="1037.834251" x2="1433.592209" y2="1017.593647" stroke="black" stroke-width="4.05"/>
<line x1="1433.592209" y1="1017.593647" x2="1394.098344" y2="1017.593647" stroke="black" stroke-width="4.05"/>
<path d="m 1433.098534,819.136987 a 197.9629885,197.9629885 0 0 1 197.962988,197.962989" fill="none" stroke="black" stroke-width="4.05"/>
<line x1="1486.126094" y1="1734.949408" x2="1645.905262" y2="1376.07952" stroke="black" stroke-width="4.05"/>
<line x1="1645.905262" y1="1376.07952" x2="1477.323241" y2="1301.021971" stroke="black" stroke-width="4.05"/>
<line x1="1477.323241" y1="1301.021971" x2="1317.54407" y2="1659.891856" stroke="black" stroke-width="4.05"/>
<line x1="1317.54407" y1="1659.891856" x2="1486.126094" y2="1734.949408" stroke="black" stroke-width="4.05"/>
<line x1="1382.293289" y1="1514.462731" x2="1308.493436" y2="1481.604916" stroke="black" stroke-width="4.05"/>
<line x1="1308.493436" y1="1481.604916" x2="1276.602026" y2="1553.234188" stroke="black" stroke-width="4.05"/>
<line x1="1276.602026" y1="1553.234188" x2="1350.401886" y2="1586.092003" stroke="black" stroke-width="4.05"/>
<line x1="1292.841781" y1="1559.597638" x2="1324.411052" y2="1488.691894" stroke="black" stroke-width="4.05"/>
<line x1="1593.50729" y1="1694.329502" x2="1625.3987" y2="1622.70023" stroke="black" stroke-width="4.05"/>
<line x1="1625.3987" y1="1622.70023" x2="1550.875313" y2="1589.520283" stroke="black" stroke-width="4.05"/>
<line x1="1518.98391" y1="1661.149552" x2="1593.50729" y2="1694.329502" stroke="black" stroke-width="4.05"/>
<line x1="1577.911813" y1="1686.518996" x2="1609.481084" y2="1615.613252" stroke="black" stroke-width="4.05"/>
<line x1="1443.821155" y1="1376.26888" x2="1370.021303" y2="1343.411068" stroke="black" stroke-width="4.05"/>
<line x1="1370.021303" y1="1343.411068" x2="1338.129893" y2="1415.04034" stroke="black" stroke-width="4.05"/>
<line x1="1338.129893" y1="1415.04034" x2="1411.929749" y2="1447.898152" stroke="black" stroke-width="4.05"/>
<line x1="1354.047509" y1="1422.127318" x2="1385.938919" y2="1350.498046" stroke="black" stroke-width="4.05"/>
<line x1="1655.035157" y1="1556.135651" x2="1686.926567" y2="1484.506379" stroke="black" stroke-width="4.05"/>
<line x1="1686.926567" y1="1484.506379" x2="1612.403179" y2="1451.326435" stroke="black" stroke-width="4.05"/>
<line x1="1580.511776" y1="1522.955707" x2="1655.035157" y2="1556.135651" stroke="black" stroke-width="4.05"/>
<line x1="1639.117541" y1="1549.048673" x2="1671.008951" y2="1477.419401" stroke="black" stroke-width="4.05"/>
<line x1="1032.126314" y1="1270.405984" x2="1032.126314" y2="1080.325984" stroke="black" stroke-width="4.05"/>
<line x1="1032.126314" y1="1080.325984" x2="568.331114" y2="1080.325984" stroke="black" stroke-width="4.05"/>
<line x1="568.331114" y1="1080.325984" x2="568.331114" y2="1270.405984" stroke="black" stroke-width="4.05"/>
<line x1="568.331114" y1="1270.405984" x2="592.091114" y2="1270.405984" stroke="black" stroke-width="4.05"/>
<line x1="592.091114" y1="1270.405984" x2="592.091114" y2="1103.135584" stroke="black" stroke-width="4.05"/>
<line x1="592.091114" y1="1103.135584" x2="1007.415914" y2="1103.135584" stroke="black" stroke-width="4.05"/>
<line x1="1007.415914" y1="1103.135584" x2="1007.415914" y2="1270.405984" stroke="black" stroke-width="4.05"/>
<line x1="1007.415914" y1="1270.405984" x2="1032.126314" y2="1270.405984" stroke="black" stroke-width="4.05"/>
<line x1="1007.415914" y1="1264.703584" x2="592.091114" y2="1264.703584" stroke="black" stroke-width="4.05"/>
<line x1="800.228714" y1="1265.653984" x2="800.228714" y2="1104.085984" stroke="black" stroke-width="4.05"/>
<line x1="553.578804" y1="1444.648298" x2="650.852917" y2="1373.974517" stroke="black" stroke-width="4.05"/>
<line x1="650.852917" y1="1373.974517" x2="721.671523" y2="1471.447962" stroke="black" stroke-width="4.05"/>
<line x1="721.671523" y1="1471.447962" x2="624.39741" y2="1542.121744" stroke="black" stroke-width="4.05"/>
<line x1="624.39741" y1="1542.121744" x2="553.578804" y2="1444.648298" stroke="black" stroke-width="4.05"/>
<line x1="553.234648" y1="1444.593787" x2="721.671523" y2="1471.447962" stroke="black" stroke-width="4.05"/>
<line x1="624.252586" y1="1541.922412" x2="650.653585" y2="1374.119338" stroke="black" stroke-width="4.05"/>
<line x1="1035.778608" y1="1704.729175" x2="1133.939473" y2="1520.115426" stroke="black" stroke-width="4.05"/>
<line x1="1133.939473" y1="1520.115426" x2="929.186046" y2="1411.246098" stroke="black" stroke-width="4.05"/>
<line x1="929.186046" y1="1411.246098" x2="831.025177" y2="1595.859844" stroke="black" stroke-width="4.05"/>
<line x1="831.025177" y1="1595.859844" x2="1035.778608" y2="1704.729175" stroke="black" stroke-width="4.05"/>
<line x1="1007.247388" y1="1689.558858" x2="1105.40826" y2="1504.945109" stroke="black" stroke-width="4.05"/>
<line x1="1799.832056" y1="1048.556923" x2="2008.920056" y2="1048.556923" stroke="black" stroke-width="4.05"/>
<line x1="2008.920056" y1="1048.556923" x2="2008.920056" y2="816.659323" stroke="black" stroke-width="4.05"/>
<line x1="2008.920056" y1="816.659323" x2="1799.832056" y2="816.659323" stroke="black" stroke-width="4.05"/>
<line x1="1799.832056" y1="816.659323" x2="1799.832056" y2="1048.556923" stroke="black" stroke-width="4.05"/>
<line x1="1799.832056" y1="1016.243323" x2="2008.920056" y2="1016.243323" stroke="black" stroke-width="4.05"/>
<line x1="188.652769" y1="1576.917292" x2="328.559951" y2="1732.299959" stroke="black" stroke-width="4.05"/>
<line x1="328.559951" y1="1732.299959" x2="500.893452" y2="1577.130178" stroke="black" stroke-width="4.05"/>
<line x1="500.893452" y1="1577.130178" x2="360.986274" y2="1421.74751" stroke="black" stroke-width="4.05"/>
<line x1="360.986274" y1="1421.74751" x2="188.652769" y2="1576.917292" stroke="black" stroke-width="4.05"/>
<line x1="212.666458" y1="1555.295274" x2="352.573636" y2="1710.677938" stroke="black" stroke-width="4.05"/>
<line x1="1819.466222" y1="1928.997544" x2="1819.466222" y2="1697.099944" stroke="black" stroke-width="4.05"/>
<line x1="1819.466222" y1="1697.099944" x2="2051.839022" y2="1697.099944" stroke="black" stroke-width="4.05"/>
<line x1="2051.839022" y1="1697.099944" x2="2051.839022" y2="1928.997544" stroke="black" stroke-width="4.05"/>
<line x1="2051.839022" y1="1928.997544" x2="1819.466222" y2="1928.997544" stroke="black" stroke-width="4.05"/>
<line x1="1818.991022" y1="1929.472744" x2="2051.839022" y2="1697.099944" stroke="black" stroke-width="4.05"/>
<line x1="2051.363822" y1="1928.997544" x2="1819.466222" y2="1697.575144" stroke="black" stroke-width="4.05"/>
<line x1="1666.989774" y1="604.690222" x2="1833.081988" y2="604.690222" stroke="black" stroke-width="4.05"/>
<line x1="1833.081988" y1="604.690222" x2="1833.081988" y2="771.122786" stroke="black" stroke-width="4.05"/>
<line x1="1833.081988" y1="771.122786" x2="1666.989774" y2="771.122786" stroke="black" stroke-width="4.05"/>
<line x1="1666.989774" y1="771.122786" x2="1666.989774" y2="604.690222" stroke="black" stroke-width="4.05"/>
<line x1="1666.649423" y1="604.34987" x2="1833.081988" y2="771.122786" stroke="black" stroke-width="4.05"/>
<line x1="1666.989774" y1="770.782435" x2="1832.741633" y2="604.690222" stroke="black" stroke-width="4.05"/>
<line x1="1832.995789" y1="604.424074" x2="1999.088003" y2="604.424074" stroke="black" stroke-width="4.05"/>
<line x1="1999.088003" y1="604.424074" x2="1999.088003" y2="770.856638" stroke="black" stroke-width="4.05"/>
<line x1="1999.088003" y1="770.856638" x2="1832.995789" y2="770.856638" stroke="black" stroke-width="4.05"/>
<line x1="1832.995789" y1="770.856638" x2="1832.995789" y2="604.424074" stroke="black" stroke-width="4.05"/>
<line x1="1832.655438" y1="604.083722" x2="1999.088003" y2="770.856638" stroke="black" stroke-width="4.05"/>
<line x1="1832.995789" y1="770.516287" x2="1998.747648" y2="604.424074" stroke="black" stroke-width="4.05"/>
<line x1="1501.570829" y1="604.276909" x2="1667.663042" y2="604.276909" stroke="black" stroke-width="4.05"/>
<line x1="1667.663042" y1="604.276909" x2="1667.663042" y2="770.709474" stroke="black" stroke-width="4.05"/>
<line x1="1667.663042" y1="770.709474" x2="1501.570829" y2="770.709474" stroke="black" stroke-width="4.05"/>
<line x1="1501.570829" y1="770.709474" x2="1501.570829" y2="604.276909" stroke="black" stroke-width="4.05"/>
<line x1="1501.230478" y1="603.936558" x2="1667.663042" y2="770.709474" stroke="black" stroke-width="4.05"/>
<line x1="1501.570829" y1="770.369123" x2="1667.322688" y2="604.276909" stroke="black" stroke-width="4.05"/>
<line x1="1886.55296" y1="1077.238843" x2="2052.645174" y2="1077.238843" stroke="black" stroke-width="4.05"/>
<line x1="2052.645174" y1="1077.238843" x2="2052.645174" y2="1243.671408" stroke="black" stroke-width="4.05"/>
<line x1="2052.645174" y1="1243.671408" x2="1886.55296" y2="1243.671408" stroke="black" stroke-width="4.05"/>
<line x1="1886.55296" y1="1243.671408" x2="1886.55296" y2="1077.238843" stroke="black" stroke-width="4.05"/>
<line x1="1886.212609" y1="1076.898492" x2="2052.645174" y2="1243.671408" stroke="black" stroke-width="4.05"/>
<line x1="1886.55296" y1="1243.331057" x2="2052.304819" y2="1077.238843" stroke="black" stroke-width="4.05"/>
<line x1="1915.896632" y1="1644.870398" x2="1915.896632" y2="1251.626526" stroke="black" stroke-width="4.05"/>
<line x1="1914.90035" y1="1247.67112" x2="2050.969126" y2="1247.67112" stroke="black" stroke-width="4.05"/>
<line x1="2052.120632" y1="1644.406009" x2="2052.120632" y2="1247.365778" stroke="black" stroke-width="4.05"/>
<line x1="1916.591382" y1="1643.67112" x2="2051.855438" y2="1643.67112" stroke="black" stroke-width="4.05"/>
<line x1="1926.984632" y1="1633.37512" x2="1926.984632" y2="1509.82312" stroke="black" stroke-width="4.05"/>
<line x1="1926.984632" y1="1509.82312" x2="2041.032632" y2="1509.82312" stroke="black" stroke-width="4.05"/>
<line x1="2041.032632" y1="1633.37512" x2="2041.032632" y2="1509.82312" stroke="black" stroke-width="4.05"/>
<line x1="1926.984632" y1="1633.37512" x2="2041.032632" y2="1633.37512" stroke="black" stroke-width="4.05"/>
<line x1="1934.112632" y1="1490.81512" x2="1934.112632" y2="1403.69512" stroke="black" stroke-width="4.05"/>
<line x1="1953.912632" y1="1490.81512" x2="1953.912632" y2="1403.69512" stroke="black" stroke-width="4.05"/>
<line x1="1974.504632" y1="1490.02312" x2="1974.504632" y2="1403.69512" stroke="black" stroke-width="4.05"/>
<line x1="1994.304632" y1="1490.02312" x2="1994.304632" y2="1403.69512" stroke="black" stroke-width="4.05"/>
<line x1="2014.104632" y1="1490.81512" x2="2014.104632" y2="1403.69512" stroke="black" stroke-width="4.05"/>
<line x1="2033.904632" y1="1490.81512" x2="2033.904632" y2="1403.69512" stroke="black" stroke-width="4.05"/>
<line x1="2040.240632" y1="1585.85512" x2="2026.776632" y2="1585.85512" stroke="black" stroke-width="4.05"/>
<line x1="2026.776632" y1="1585.85512" x2="2026.776632" y2="1555.75912" stroke="black" stroke-width="4.05"/>
<line x1="2026.776632" y1="1555.75912" x2="2039.448632" y2="1555.75912" stroke="black" stroke-width="4.05"/>
<line x1="1926.984632" y1="1383.10312" x2="1926.984632" y2="1259.55112" stroke="black" stroke-width="4.05"/>
<line x1="1926.984632" y1="1259.55112" x2="2041.032632" y2="1259.55112" stroke="black" stroke-width="4.05"/>
<line x1="2041.032632" y1="1383.10312" x2="2041.032632" y2="1259.55112" stroke="black" stroke-width="4.05"/>
<line x1="1926.984632" y1="1383.10312" x2="2041.032632" y2="1383.10312" stroke="black" stroke-width="4.05"/>
<line x1="2041.032632" y1="1335.58312" x2="2027.568632" y2="1335.58312" stroke="black" stroke-width="4.05"/>
<line x1="2027.568632" y1="1335.58312" x2="2027.568632" y2="1305.48712" stroke="black" stroke-width="4.05"/>
<line x1="2027.568632" y1="1305.48712" x2="2040.240632" y2="1305.48712" stroke="black" stroke-width="4.05"/>
<circle cx="1941.240632" cy="1524.07912" r="7.128000000000001" fill="none" stroke="black" stroke-width="4.05"/>
<circle cx="1942.032632" cy="1273.80712" r="7.128000000000001" fill="none" stroke="black" stroke-width="4.05"/>
</g>
</svg>
