<?xml version="1.0"?>
<svg xmlns:xlink="http://www.w3.org/1999/xlink" width="2170.8" height="2138.4">
<image x="0" y="0" width="2170.8" height="2138.4" xlink:href="ground16-04.png"/>
<g style="stroke-linecap:round">
<line x1="355.524638" y1="104.449442" x2="594.616565" y2="104.449442" stroke="black" stroke-width="4.05"/>
<line x1="594.616565" y1="104.449442" x2="594.616565" y2="67.591454" stroke="black" stroke-width="4.05"/>
<line x1="594.616565" y1="67.591454" x2="355.524638" y2="67.591454" stroke="black" stroke-width="4.05"/>
<line x1="355.524638" y1="67.591454" x2="355.524638" y2="104.449442" stroke="black" stroke-width="4.05"/>
<line x1="377.833417" y1="68.076428" x2="377.833417" y2="103.964468" stroke="black" stroke-width="4.05"/>
<line x1="571.822812" y1="68.076428" x2="571.822812" y2="105.419387" stroke="black" stroke-width="4.05"/>
<line x1="377.348447" y1="85.0505" x2="571.337838" y2="85.0505" stroke="black" stroke-width="4.05"/>
<line x1="1586.39715" y1="105.206782" x2="1826.184114" y2="105.206782" stroke="black" stroke-width="4.05"/>
<line x1="1826.184114" y1="105.206782" x2="1826.184114" y2="68.24165" stroke="black" stroke-width="4.05"/>
<line x1="1826.184114" y1="68.24165" x2="1586.39715" y2="68.24165" stroke="black" stroke-width="4.05"/>
<line x1="1586.39715" y1="68.24165" x2="1586.39715" y2="105.206782" stroke="black" stroke-width="4.05"/>
<line x1="1608.770783" y1="68.728036" x2="1608.770783" y2="104.720396" stroke="black" stroke-width="4.05"/>
<line x1="1803.3241" y1="68.728036" x2="1803.3241" y2="106.179548" stroke="black" stroke-width="4.05"/>
<line x1="1608.284398" y1="85.751449" x2="1802.837714" y2="85.751449" stroke="black" stroke-width="4.05"/>
<line x1="455.155898" y1="2015.675204" x2="214.690846" y2="2015.675204" stroke="black" stroke-width="4.05"/>
<line x1="214.690846" y1="2015.675204" x2="214.690846" y2="2058.685214" stroke="black" stroke-width="4.05"/>
<line x1="214.690846" y1="2058.685214" x2="455.155898" y2="2058.685214" stroke="black" stroke-width="4.05"/>
<line x1="455.155898" y1="2058.685214" x2="455.155898" y2="2015.675204" stroke="black" stroke-width="4.05"/>
<line x1="443.914646" y1="2015.675204" x2="443.914646" y2="2001.012703" stroke="black" stroke-width="4.05"/>
<line x1="443.914646" y1="2001.012703" x2="226.420848" y2="2001.012703" stroke="black" stroke-width="4.05"/>
<line x1="226.420848" y1="2015.675204" x2="226.420848" y2="2001.012703" stroke="black" stroke-width="4.05"/>
<line x1="1004.406336" y1="2020.979012" x2="764.619372" y2="2020.979012" stroke="black" stroke-width="4.05"/>
<line x1="764.619372" y1="2020.979012" x2="764.619372" y2="2057.944144" stroke="black" stroke-width="4.05"/>
<line x1="764.619372" y1="2057.944144" x2="1004.406336" y2="2057.944144" stroke="black" stroke-width="4.05"/>
<line x1="1004.406336" y1="2057.944144" x2="1004.406336" y2="2020.979012" stroke="black" stroke-width="4.05"/>
<line x1="982.032703" y1="2057.457758" x2="982.032703" y2="2021.465398" stroke="black" stroke-width="4.05"/>
<line x1="787.479386" y1="2057.457758" x2="787.479386" y2="2020.006246" stroke="black" stroke-width="4.05"/>
<line x1="982.519088" y1="2040.434345" x2="787.965772" y2="2040.434345" stroke="black" stroke-width="4.05"/>
<line x1="1502.318696" y1="2015.331124" x2="1262.548631" y2="2015.331124" stroke="black" stroke-width="4.05"/>
<line x1="1262.548631" y1="2015.331124" x2="1262.548631" y2="2058.216826" stroke="black" stroke-width="4.05"/>
<line x1="1262.548631" y1="2058.216826" x2="1502.318696" y2="2058.216826" stroke="black" stroke-width="4.05"/>
<line x1="1502.318696" y1="2058.216826" x2="1502.318696" y2="2015.331124" stroke="black" stroke-width="4.05"/>
<line x1="1491.109934" y1="2015.331124" x2="1491.109934" y2="2000.710998" stroke="black" stroke-width="4.05"/>
<line x1="1491.109934" y1="2000.710998" x2="1274.244732" y2="2000.710998" stroke="black" stroke-width="4.05"/>
<line x1="1274.244732" y1="2015.331124" x2="1274.244732" y2="2000.710998" stroke="black" stroke-width="4.05"/>
<line x1="1977.062742" y1="2015.366839" x2="1737.292676" y2="2015.366839" stroke="black" stroke-width="4.05"/>
<line x1="1737.292676" y1="2015.366839" x2="1737.292676" y2="2058.252541" stroke="black" stroke-width="4.05"/>
<line x1="1737.292676" y1="2058.252541" x2="1977.062742" y2="2058.252541" stroke="black" stroke-width="4.05"/>
<line x1="1977.062742" y1="2058.252541" x2="1977.062742" y2="2015.366839" stroke="black" stroke-width="4.05"/>
<line x1="1965.85398" y1="2015.366839" x2="1965.85398" y2="2000.746714" stroke="black" stroke-width="4.05"/>
<line x1="1965.85398" y1="2000.746714" x2="1748.988778" y2="2000.746714" stroke="black" stroke-width="4.05"/>
<line x1="1748.988778" y1="2015.366839" x2="1748.988778" y2="2000.746714" stroke="black" stroke-width="4.05"/>
<line x1="2064.218674" y1="203.981501" x2="2064.218674" y2="444.463495" stroke="black" stroke-width="4.05"/>
<line x1="2064.218674" y1="444.463495" x2="2101.290948" y2="444.463495" stroke="black" stroke-width="4.05"/>
<line x1="2101.290948" y1="444.463495" x2="2101.290948" y2="203.981501" stroke="black" stroke-width="4.05"/>
<line x1="2101.290948" y1="203.981501" x2="2064.218674" y2="203.981501" stroke="black" stroke-width="4.05"/>
<line x1="2100.803155" y1="226.41998" x2="2064.706466" y2="226.41998" stroke="black" stroke-width="4.05"/>
<line x1="2100.803155" y1="421.537223" x2="2063.243088" y2="421.537223" stroke="black" stroke-width="4.05"/>
<line x1="2083.730396" y1="225.932188" x2="2083.730396" y2="421.049426" stroke="black" stroke-width="4.05"/>
<line x1="2056.953535" y1="776.174944" x2="2056.953535" y2="1027.759766" stroke="black" stroke-width="4.05"/>
<line x1="2056.953535" y1="1027.759766" x2="2101.952448" y2="1027.759766" stroke="black" stroke-width="4.05"/>
<line x1="2101.952448" y1="1027.759766" x2="2101.952448" y2="776.174944" stroke="black" stroke-width="4.05"/>
<line x1="2101.952448" y1="776.174944" x2="2056.953535" y2="776.174944" stroke="black" stroke-width="4.05"/>
<line x1="2056.953535" y1="787.936021" x2="2041.612999" y2="787.936021" stroke="black" stroke-width="4.05"/>
<line x1="2041.612999" y1="787.936021" x2="2041.612999" y2="1015.487334" stroke="black" stroke-width="4.05"/>
<line x1="2056.953535" y1="1015.487334" x2="2041.612999" y2="1015.487334" stroke="black" stroke-width="4.05"/>
<line x1="2064.600925" y1="1369.92258" x2="2064.600925" y2="1611.794646" stroke="black" stroke-width="4.05"/>
<line x1="2064.600925" y1="1611.794646" x2="2101.887493" y2="1611.794646" stroke="black" stroke-width="4.05"/>
<line x1="2101.887493" y1="1611.794646" x2="2101.887493" y2="1369.92258" stroke="black" stroke-width="4.05"/>
<line x1="2101.887493" y1="1369.92258" x2="2064.600925" y2="1369.92258" stroke="black" stroke-width="4.05"/>
<line x1="2101.396882" y1="1392.490764" x2="2065.09154" y2="1392.490764" stroke="black" stroke-width="4.05"/>
<line x1="2101.396882" y1="1588.73585" x2="2063.619702" y2="1588.73585" stroke="black" stroke-width="4.05"/>
<line x1="2084.225436" y1="1392.000152" x2="2084.225436" y2="1588.245235" stroke="black" stroke-width="4.05"/>
<line x1="138.283542" y1="1589.658811" x2="138.283542" y2="1347.786745" stroke="black" stroke-width="4.05"/>
<line x1="138.283542" y1="1347.786745" x2="100.996974" y2="1347.786745" stroke="black" stroke-width="4.05"/>
<line x1="100.996974" y1="1347.786745" x2="100.996974" y2="1589.658811" stroke="black" stroke-width="4.05"/>
<line x1="100.996974" y1="1589.658811" x2="138.283542" y2="1589.658811" stroke="black" stroke-width="4.05"/>
<line x1="101.487586" y1="1567.090627" x2="137.792927" y2="1567.090627" stroke="black" stroke-width="4.05"/>
<line x1="101.487586" y1="1370.845541" x2="139.264765" y2="1370.845541" stroke="black" stroke-width="4.05"/>
<line x1="118.659031" y1="1567.581239" x2="118.659031" y2="1371.336156" stroke="black" stroke-width="4.05"/>
<line x1="145.345295" y1="909.129312" x2="145.345295" y2="667.274292" stroke="black" stroke-width="4.05"/>
<line x1="145.345295" y1="667.274292" x2="102.086672" y2="667.274292" stroke="black" stroke-width="4.05"/>
<line x1="102.086672" y1="667.274292" x2="102.086672" y2="909.129312" stroke="black" stroke-width="4.05"/>
<line x1="102.086672" y1="909.129312" x2="145.345295" y2="909.129312" stroke="black" stroke-width="4.05"/>
<line x1="145.345295" y1="897.82308" x2="160.092554" y2="897.82308" stroke="black" stroke-width="4.05"/>
<line x1="160.092554" y1="897.82308" x2="160.092554" y2="679.072097" stroke="black" stroke-width="4.05"/>
<line x1="145.345295" y1="679.072097" x2="160.092554" y2="679.072097" stroke="black" stroke-width="4.05"/>
<line x1="138.442799" y1="445.034534" x2="138.442799" y2="203.162468" stroke="black" stroke-width="4.05"/>
<line x1="138.442799" y1="203.162468" x2="101.156231" y2="203.162468" stroke="black" stroke-width="4.05"/>
<line x1="101.156231" y1="203.162468" x2="101.156231" y2="445.034534" stroke="black" stroke-width="4.05"/>
<line x1="101.156231" y1="445.034534" x2="138.442799" y2="445.034534" stroke="black" stroke-width="4.05"/>
<line x1="101.646842" y1="422.46635" x2="137.952184" y2="422.46635" stroke="black" stroke-width="4.05"/>
<line x1="101.646842" y1="226.221264" x2="139.424022" y2="226.221264" stroke="black" stroke-width="4.05"/>
<line x1="118.818288" y1="422.956962" x2="118.818288" y2="226.711879" stroke="black" stroke-width="4.05"/>
<line x1="642.854765" y1="715.75826" x2="433.489561" y2="715.75826" stroke="black" stroke-width="4.05"/>
<line x1="433.489561" y1="715.75826" x2="433.489561" y2="1046.972664" stroke="black" stroke-width="4.05"/>
<line x1="433.489561" y1="1046.972664" x2="642.854765" y2="1046.972664" stroke="black" stroke-width="4.05"/>
<line x1="642.854765" y1="1046.972664" x2="642.854765" y2="715.75826" stroke="black" stroke-width="4.05"/>
<line x1="643.527965" y1="987.73106" x2="432.816361" y2="987.73106" stroke="black" stroke-width="4.05"/>
<line x1="432.816361" y1="987.73106" x2="642.181561" y2="937.91426" stroke="black" stroke-width="4.05"/>
<line x1="642.181561" y1="937.91426" x2="610.541161" y2="891.46346" stroke="black" stroke-width="4.05"/>
<line x1="610.541161" y1="891.46346" x2="432.816361" y2="988.404264" stroke="black" stroke-width="4.05"/>
<line x1="1110.575106" y1="1028.171776" x2="1110.575106" y2="1007.813491" stroke="black" stroke-width="4.05"/>
<line x1="1110.575106" y1="1007.813491" x2="1070.851626" y2="1007.813491" stroke="black" stroke-width="4.05"/>
<line x1="1070.851626" y1="1007.813491" x2="1070.851626" y2="1028.171776" stroke="black" stroke-width="4.05"/>
<line x1="1070.851626" y1="1028.171776" x2="1110.575106" y2="1028.171776" stroke="black" stroke-width="4.05"/>
<line x1="1070.851626" y1="808.699558" x2="872.730778" y2="808.699558" stroke="black" stroke-width="4.05"/>
<line x1="1111.568191" y1="808.203013" x2="1111.568191" y2="787.844732" stroke="black" stroke-width="4.05"/>
<line x1="1111.568191" y1="787.844732" x2="1071.844715" y2="787.844732" stroke="black" stroke-width="4.05"/>
<line x1="1071.844715" y1="787.844732" x2="1071.844715" y2="808.203013" stroke="black" stroke-width="4.05"/>
<line x1="1071.844715" y1="808.203013" x2="1111.568191" y2="808.203013" stroke="black" stroke-width="4.05"/>
<path d="m 1072.341256,1007.813491 a 199.11393349999997,199.11393349999997 0 0 1 -199.11393399999997,-199.11393299999997" fill="none" stroke="black" stroke-width="4.05"/>
<line x1="913.136738" y1="247.05077" x2="1080.250153" y2="247.05077" stroke="black" stroke-width="4.05"/>
<line x1="1080.250153" y1="247.05077" x2="1080.250153" y2="414.506628" stroke="black" stroke-width="4.05"/>
<line x1="1080.250153" y1="414.506628" x2="913.136738" y2="414.506628" stroke="black" stroke-width="4.05"/>
<line x1="913.136738" y1="414.506628" x2="913.136738" y2="247.05077" stroke="black" stroke-width="4.05"/>
<line x1="912.794296" y1="246.708324" x2="1080.250153" y2="414.506628" stroke="black" stroke-width="4.05"/>
<line x1="913.136738" y1="414.164185" x2="1079.90771" y2="247.05077" stroke="black" stroke-width="4.05"/>
<line x1="405.036094" y1="154.355792" x2="214.024702" y2="239.399539" stroke="black" stroke-width="4.05"/>
<line x1="214.024702" y1="239.399539" x2="308.345947" y2="451.248538" stroke="black" stroke-width="4.05"/>
<line x1="308.345947" y1="451.248538" x2="499.357346" y2="366.204791" stroke="black" stroke-width="4.05"/>
<line x1="499.357346" y1="366.204791" x2="405.036094" y2="154.355792" stroke="black" stroke-width="4.05"/>
<line x1="418.179218" y1="183.875735" x2="227.167826" y2="268.919482" stroke="black" stroke-width="4.05"/>
<line x1="2030.64498" y1="397.576037" x2="1637.344134" y2="397.576037" stroke="black" stroke-width="4.05"/>
<line x1="1637.344134" y1="397.576037" x2="1637.344134" y2="572.73026" stroke="black" stroke-width="4.05"/>
<line x1="1637.344134" y1="572.73026" x2="2030.64498" y2="572.73026" stroke="black" stroke-width="4.05"/>
<line x1="2030.64498" y1="572.73026" x2="2030.64498" y2="397.576037" stroke="black" stroke-width="4.05"/>
<line x1="1712.978914" y1="545.660971" x2="1998.798761" y2="545.660971" stroke="black" stroke-width="4.05"/>
<line x1="1998.798761" y1="545.660971" x2="1998.798761" y2="427.033793" stroke="black" stroke-width="4.05"/>
<line x1="1998.798761" y1="427.033793" x2="1707.405826" y2="427.033793" stroke="black" stroke-width="4.05"/>
<path d="m 1713.793738,545.917738 a 63.69244535843305,63.69244535843305 0 0 1 -4.316343000000188,-120.00067999999999" fill="none" stroke="black" stroke-width="4.05"/>
<line x1="1132.995863" y1="600.926753" x2="1153.236467" y2="600.926753" stroke="black" stroke-width="4.05"/>
<line x1="1153.236467" y1="600.926753" x2="1153.236467" y2="561.432888" stroke="black" stroke-width="4.05"/>
<line x1="1153.236467" y1="561.432888" x2="1132.995863" y2="561.432888" stroke="black" stroke-width="4.05"/>
<line x1="1132.995863" y1="561.432888" x2="1132.995863" y2="600.926753" stroke="black" stroke-width="4.05"/>
<line x1="1351.199455" y1="561.432888" x2="1351.199455" y2="364.45725" stroke="black" stroke-width="4.05"/>
<line x1="1351.693127" y1="601.9141" x2="1371.933731" y2="601.9141" stroke="black" stroke-width="4.05"/>
<line x1="1371.933731" y1="601.9141" x2="1371.933731" y2="562.420235" stroke="black" stroke-width="4.05"/>
<line x1="1371.933731" y1="562.420235" x2="1351.693127" y2="562.420235" stroke="black" stroke-width="4.05"/>
<line x1="1351.693127" y1="562.420235" x2="1351.693127" y2="601.9141" stroke="black" stroke-width="4.05"/>
<path d="m 1153.236467,562.91391 a 197.962988,197.962988 0 0 1 197.962988,-197.962988" fill="none" stroke="black" stroke-width="4.05"/>
<line x1="1238.280592" y1="117.993701" x2="1508.827792" y2="117.993701" stroke="black" stroke-width="4.05"/>
<line x1="1508.827792" y1="117.993701" x2="1508.827792" y2="249.940901" stroke="black" stroke-width="4.05"/>
<line x1="1238.280592" y1="249.940901" x2="1508.827792" y2="249.940901" stroke="black" stroke-width="4.05"/>
<line x1="1238.280592" y1="117.993701" x2="1238.280592" y2="249.940901" stroke="black" stroke-width="4.05"/>
<line x1="1244.933392" y1="124.646501" x2="1382.978992" y2="124.646501" stroke="black" stroke-width="4.05"/>
<line x1="1382.978992" y1="124.646501" x2="1382.978992" y2="242.733701" stroke="black" stroke-width="4.05"/>
<line x1="1244.933392" y1="242.733701" x2="1382.978992" y2="242.733701" stroke="black" stroke-width="4.05"/>
<line x1="1244.933392" y1="124.646501" x2="1244.933392" y2="242.733701" stroke="black" stroke-width="4.05"/>
<line x1="1397.393392" y1="132.408101" x2="1494.413392" y2="132.408101" stroke="black" stroke-width="4.05"/>
<line x1="1397.393392" y1="152.920901" x2="1494.413392" y2="152.920901" stroke="black" stroke-width="4.05"/>
<line x1="1397.947792" y1="173.988101" x2="1494.967792" y2="173.988101" stroke="black" stroke-width="4.05"/>
<line x1="1397.947792" y1="194.500901" x2="1494.967792" y2="194.500901" stroke="black" stroke-width="4.05"/>
<line x1="1397.393392" y1="215.013701" x2="1494.413392" y2="215.013701" stroke="black" stroke-width="4.05"/>
<line x1="1397.393392" y1="235.526501" x2="1494.413392" y2="235.526501" stroke="black" stroke-width="4.05"/>
<line x1="1297.601392" y1="242.733701" x2="1297.601392" y2="228.873701" stroke="black" stroke-width="4.05"/>
<line x1="1297.601392" y1="228.873701" x2="1331.974192" y2="228.873701" stroke="black" stroke-width="4.05"/>
<line x1="1331.974192" y1="228.873701" x2="1331.974192" y2="242.179301" stroke="black" stroke-width="4.05"/>
<circle cx="1367.455792" cy="139.615301" r="8.316000000000003" fill="none" stroke="black" stroke-width="4.05"/>
<line x1="2034.234756" y1="166.642459" x2="1850.312599" y2="166.642459" stroke="black" stroke-width="4.05"/>
<line x1="1850.312599" y1="166.642459" x2="1850.312599" y2="117.490849" stroke="black" stroke-width="4.05"/>
<line x1="2034.234756" y1="117.490849" x2="1850.312599" y2="117.490849" stroke="black" stroke-width="4.05"/>
<line x1="2034.234756" y1="166.642459" x2="2034.234756" y2="117.490849" stroke="black" stroke-width="4.05"/>
<line x1="1992.61444" y1="194.389337" x2="1992.61444" y2="166.642459" stroke="black" stroke-width="4.05"/>
<line x1="1893.518453" y1="166.642459" x2="1893.518453" y2="195.974874" stroke="black" stroke-width="4.05"/>
<circle cx="1943.859215" cy="239.577106" r="66.59250380904014" fill="none" stroke="black" stroke-width="4.05"/>
<circle cx="1943.859215" cy="239.577106" r="57.07928897917725" fill="none" stroke="black" stroke-width="4.05"/>
<line x1="1395.085691" y1="798.896383" x2="1395.085691" y2="819.136987" stroke="black" stroke-width="4.05"/>
<line x1="1395.085691" y1="819.136987" x2="1434.579556" y2="819.136987" stroke="black" stroke-width="4.05"/>
<line x1="1434.579556" y1="819.136987" x2="1434.579556" y2="798.896383" stroke="black" stroke-width="4.05"/>
<line x1="1434.579556" y1="798.896383" x2="1395.085691" y2="798.896383" stroke="black" stroke-width="4.05"/>
<line x1="1434.579556" y1="1017.099976" x2="1631.555194" y2="1017.099976" stroke="black" stroke-width="4.05"/>
<line x1="1394.098344" y1="1017.593647" x2="1394.098344" y2="1037.834251" stroke="black" stroke-width="4.05"/>
<line x1="1394.098344" y1="1037.834251" x2="1433.592209" y2="1037.834251" stroke="black" stroke-width="4.05"/>
<line x1="1433.592209" y1="1037.834251" x2="1433.592209" y2="1017.593647" stroke="black" stroke-width="4.05"/>
<line x1="1433.592209" y1="1017.593647" x2="1394.098344" y2="1017.593647" stroke="black" stroke-width="4.05"/>
<path d="m 1433.098534,819.136987 a 197.9629885,197.9629885 0 0 1 197.962988,197.962989" fill="none" stroke="black" stroke-width="4.05"/>
<line x1="1586.928542" y1="1302.513664" x2="1685.102134" y2="1390.909565" stroke="black" stroke-width="4.05"/>
<line x1="1685.102134" y1="1390.909565" x2="1675.563008" y2="1401.503839" stroke="black" stroke-width="4.05"/>
<line x1="1577.389417" y1="1313.107938" x2="1675.563008" y2="1401.503839" stroke="black" stroke-width="4.05"/>
<line x1="1586.928542" y1="1302.513664" x2="1577.389417" y2="1313.107938" stroke="black" stroke-width="4.05"/>
<line x1="1587.277404" y1="1322.011123" x2="1564.878755" y2="1344.046637" stroke="black" stroke-width="4.05"/>
<line x1="1665.675022" y1="1392.600654" x2="1645.465572" y2="1417.886219" stroke="black" stroke-width="4.05"/>
<line x1="1278.496804" y1="1645.061814" x2="1376.670398" y2="1733.457712" stroke="black" stroke-width="4.05"/>
<line x1="1376.670398" y1="1733.457712" x2="1385.57358" y2="1723.569725" stroke="black" stroke-width="4.05"/>
<line x1="1287.399989" y1="1635.173824" x2="1385.57358" y2="1723.569725" stroke="black" stroke-width="4.05"/>
<line x1="1278.496804" y1="1645.061814" x2="1287.399989" y2="1635.173824" stroke="black" stroke-width="4.05"/>
<line x1="1297.853575" y1="1642.028497" x2="1317.427081" y2="1617.449216" stroke="black" stroke-width="4.05"/>
<line x1="1376.251193" y1="1712.618032" x2="1399.992066" y2="1690.51217" stroke="black" stroke-width="4.05"/>
<line x1="1696.56521" y1="1622.47882" x2="1685.970936" y2="1612.939694" stroke="black" stroke-width="4.05"/>
<line x1="1685.970936" y1="1612.939694" x2="1597.575035" y2="1711.113286" stroke="black" stroke-width="4.05"/>
<line x1="1608.169309" y1="1720.652411" x2="1597.575035" y2="1711.113286" stroke="black" stroke-width="4.05"/>
<line x1="1696.56521" y1="1622.47882" x2="1608.169309" y2="1720.652411" stroke="black" stroke-width="4.05"/>
<line x1="1607.114164" y1="1700.519015" x2="1581.192655" y2="1681.015849" stroke="black" stroke-width="4.05"/>
<line x1="1677.067754" y1="1622.827681" x2="1654.32595" y2="1599.793092" stroke="black" stroke-width="4.05"/>
<line x1="1355.359288" y1="1313.976737" x2="1365.953562" y2="1323.515862" stroke="black" stroke-width="4.05"/>
<line x1="1365.953562" y1="1323.515862" x2="1277.557657" y2="1421.689453" stroke="black" stroke-width="4.05"/>
<line x1="1266.963386" y1="1412.150328" x2="1277.557657" y2="1421.689453" stroke="black" stroke-width="4.05"/>
<line x1="1355.359288" y1="1313.976737" x2="1266.963386" y2="1412.150328" stroke="black" stroke-width="4.05"/>
<line x1="1287.096786" y1="1411.095182" x2="1309.202644" y2="1434.836056" stroke="black" stroke-width="4.05"/>
<line x1="1357.050377" y1="1333.403852" x2="1382.335942" y2="1353.613302" stroke="black" stroke-width="4.05"/>
<circle cx="1481.764295" cy="1517.314576" r="191.98080000000002" fill="none" stroke="black" stroke-width="4.05"/>
<line x1="743.761213" y1="1270.405984" x2="743.761213" y2="1080.325984" stroke="black" stroke-width="4.05"/>
<line x1="743.761213" y1="1080.325984" x2="279.966013" y2="1080.325984" stroke="black" stroke-width="4.05"/>
<line x1="279.966013" y1="1080.325984" x2="279.966013" y2="1270.405984" stroke="black" stroke-width="4.05"/>
<line x1="279.966013" y1="1270.405984" x2="303.726013" y2="1270.405984" stroke="black" stroke-width="4.05"/>
<line x1="303.726013" y1="1270.405984" x2="303.726013" y2="1103.135584" stroke="black" stroke-width="4.05"/>
<line x1="303.726013" y1="1103.135584" x2="719.050813" y2="1103.135584" stroke="black" stroke-width="4.05"/>
<line x1="719.050813" y1="1103.135584" x2="719.050813" y2="1270.405984" stroke="black" stroke-width="4.05"/>
<line x1="719.050813" y1="1270.405984" x2="743.761213" y2="1270.405984" stroke="black" stroke-width="4.05"/>
<line x1="719.050813" y1="1264.703584" x2="303.726013" y2="1264.703584" stroke="black" stroke-width="4.05"/>
<line x1="511.863613" y1="1265.653984" x2="511.863613" y2="1104.085984" stroke="black" stroke-width="4.05"/>
<line x1="591.12801" y1="1374.444763" x2="721.132848" y2="1411.723051" stroke="black" stroke-width="4.05"/>
<line x1="721.132848" y1="1411.723051" x2="683.778172" y2="1541.994293" stroke="black" stroke-width="4.05"/>
<line x1="683.778172" y1="1541.994293" x2="553.77333" y2="1504.716005" stroke="black" stroke-width="4.05"/>
<line x1="553.77333" y1="1504.716005" x2="591.12801" y2="1374.444763" stroke="black" stroke-width="4.05"/>
<line x1="590.937995" y1="1374.101968" x2="683.778172" y2="1541.994293" stroke="black" stroke-width="4.05"/>
<line x1="553.849718" y1="1504.449601" x2="720.866448" y2="1411.646659" stroke="black" stroke-width="4.05"/>
<line x1="1799.832056" y1="1048.556923" x2="2008.920056" y2="1048.556923" stroke="black" stroke-width="4.05"/>
<line x1="2008.920056" y1="1048.556923" x2="2008.920056" y2="816.659323" stroke="black" stroke-width="4.05"/>
<line x1="2008.920056" y1="816.659323" x2="1799.832056" y2="816.659323" stroke="black" stroke-width="4.05"/>
<line x1="1799.832056" y1="816.659323" x2="1799.832056" y2="1048.556923" stroke="black" stroke-width="4.05"/>
<line x1="1799.832056" y1="1016.243323" x2="2008.920056" y2="1016.243323" stroke="black" stroke-width="4.05"/>
<line x1="1069.695468" y1="1687.476784" x2="1120.278434" y2="1484.599594" stroke="black" stroke-width="4.05"/>
<line x1="1120.278434" y1="1484.599594" x2="895.269182" y2="1428.498486" stroke="black" stroke-width="4.05"/>
<line x1="895.269182" y1="1428.498486" x2="844.686216" y2="1631.37568" stroke="black" stroke-width="4.05"/>
<line x1="844.686216" y1="1631.37568" x2="1069.695468" y2="1687.476784" stroke="black" stroke-width="4.05"/>
<line x1="1038.341722" y1="1679.65942" x2="1088.924684" y2="1476.782222" stroke="black" stroke-width="4.05"/>
<line x1="191.006107" y1="1604.02892" x2="355.769701" y2="1732.756349" stroke="black" stroke-width="4.05"/>
<line x1="355.769701" y1="1732.756349" x2="498.540121" y2="1550.018549" stroke="black" stroke-width="4.05"/>
<line x1="498.540121" y1="1550.018549" x2="333.776527" y2="1421.29112" stroke="black" stroke-width="4.05"/>
<line x1="333.776527" y1="1421.29112" x2="191.006107" y2="1604.02892" stroke="black" stroke-width="4.05"/>
<line x1="210.900348" y1="1578.565462" x2="375.663942" y2="1707.292886" stroke="black" stroke-width="4.05"/>
<line x1="1919.891822" y1="1952.548182" x2="1919.891822" y2="1682.000982" stroke="black" stroke-width="4.05"/>
<line x1="1919.891822" y1="1682.000982" x2="2051.839022" y2="1682.000982" stroke="black" stroke-width="4.05"/>
<line x1="2051.839022" y1="1952.548182" x2="2051.839022" y2="1682.000982" stroke="black" stroke-width="4.05"/>
<line x1="1919.891822" y1="1952.548182" x2="2051.839022" y2="1952.548182" stroke="black" stroke-width="4.05"/>
<line x1="1926.544622" y1="1945.895382" x2="1926.544622" y2="1807.849782" stroke="black" stroke-width="4.05"/>
<line x1="1926.544622" y1="1807.849782" x2="2044.631822" y2="1807.849782" stroke="black" stroke-width="4.05"/>
<line x1="2044.631822" y1="1945.895382" x2="2044.631822" y2="1807.849782" stroke="black" stroke-width="4.05"/>
<line x1="1926.544622" y1="1945.895382" x2="2044.631822" y2="1945.895382" stroke="black" stroke-width="4.05"/>
<line x1="1934.306222" y1="1793.435382" x2="1934.306222" y2="1696.415382" stroke="black" stroke-width="4.05"/>
<line x1="1954.819022" y1="1793.435382" x2="1954.819022" y2="1696.415382" stroke="black" stroke-width="4.05"/>
<line x1="1975.886222" y1="1792.880982" x2="1975.886222" y2="1695.860982" stroke="black" stroke-width="4.05"/>
<line x1="1996.399022" y1="1792.880982" x2="1996.399022" y2="1695.860982" stroke="black" stroke-width="4.05"/>
<line x1="2016.911822" y1="1793.435382" x2="2016.911822" y2="1696.415382" stroke="black" stroke-width="4.05"/>
<line x1="2037.424622" y1="1793.435382" x2="2037.424622" y2="1696.415382" stroke="black" stroke-width="4.05"/>
<line x1="2044.631822" y1="1893.227382" x2="2030.771822" y2="1893.227382" stroke="black" stroke-width="4.05"/>
<line x1="2030.771822" y1="1893.227382" x2="2030.771822" y2="1858.854582" stroke="black" stroke-width="4.05"/>
<line x1="2030.771822" y1="1858.854582" x2="2044.077422" y2="1858.854582" stroke="black" stroke-width="4.05"/>
<circle cx="1941.513422" cy="1823.372982" r="8.316000000000003" fill="none" stroke="black" stroke-width="4.05"/>
<line x1="1666.989774" y1="604.690222" x2="1833.081988" y2="604.690222" stroke="black" stroke-width="4.05"/>
<line x1="1833.081988" y1="604.690222" x2="1833.081988" y2="771.122786" stroke="black" stroke-width="4.05"/>
<line x1="1833.081988" y1="771.122786" x2="1666.989774" y2="771.122786" stroke="black" stroke-width="4.05"/>
<line x1="1666.989774" y1="771.122786" x2="1666.989774" y2="604.690222" stroke="black" stroke-width="4.05"/>
<line x1="1666.649423" y1="604.34987" x2="1833.081988" y2="771.122786" stroke="black" stroke-width="4.05"/>
<line x1="1666.989774" y1="770.782435" x2="1832.741633" y2="604.690222" stroke="black" stroke-width="4.05"/>
<line x1="1832.995789" y1="604.424074" x2="1999.088003" y2="604.424074" stroke="black" stroke-width="4.05"/>
<line x1="1999.088003" y1="604.424074" x2="1999.088003" y2="770.856638" stroke="black" stroke-width="4.05"/>
<line x1="1999.088003" y1="770.856638" x2="1832.995789" y2="770.856638" stroke="black" stroke-width="4.05"/>
<line x1="1832.995789" y1="770.856638" x2="1832.995789" y2="604.424074" stroke="black" stroke-width="4.05"/>
<line x1="1832.655438" y1="604.083722" x2="1999.088003" y2="770.856638" stroke="black" stroke-width="4.05"/>
<line x1="1832.995789" y1="770.516287" x2="1998.747648" y2="604.424074" stroke="black" stroke-width="4.05"/>
<line x1="1501.570829" y1="604.276909" x2="1667.663042" y2="604.276909" stroke="black" stroke-width="4.05"/>
<line x1="1667.663042" y1="604.276909" x2="1667.663042" y2="770.709474" stroke="black" stroke-width="4.05"/>
<line x1="1667.663042" y1="770.709474" x2="1501.570829" y2="770.709474" stroke="black" stroke-width="4.05"/>
<line x1="1501.570829" y1="770.709474" x2="1501.570829" y2="604.276909" stroke="black" stroke-width="4.05"/>
<line x1="1501.230478" y1="603.936558" x2="1667.663042" y2="770.709474" stroke="black" stroke-width="4.05"/>
<line x1="1501.570829" y1="770.369123" x2="1667.322688" y2="604.276909" stroke="black" stroke-width="4.05"/>
<line x1="1886.55296" y1="1077.238843" x2="2052.645174" y2="1077.238843" stroke="black" stroke-width="4.05"/>
<line x1="2052.645174" y1="1077.238843" x2="2052.645174" y2="1243.671408" stroke="black" stroke-width="4.05"/>
<line x1="2052.645174" y1="1243.671408" x2="1886.55296" y2="1243.671408" stroke="black" stroke-width="4.05"/>
<line x1="1886.55296" y1="1243.671408" x2="1886.55296" y2="1077.238843" stroke="black" stroke-width="4.05"/>
<line x1="1886.212609" y1="1076.898492" x2="2052.645174" y2="1243.671408" stroke="black" stroke-width="4.05"/>
<line x1="1886.55296" y1="1243.331057" x2="2052.304819" y2="1077.238843" stroke="black" stroke-width="4.05"/>
<line x1="1915.896632" y1="1644.870398" x2="1915.896632" y2="1251.626526" stroke="black" stroke-width="4.05"/>
<line x1="1914.90035" y1="1247.67112" x2="2050.969126" y2="1247.67112" stroke="black" stroke-width="4.05"/>
<line x1="2052.120632" y1="1644.406009" x2="2052.120632" y2="1247.365778" stroke="black" stroke-width="4.05"/>
<line x1="1916.591382" y1="1643.67112" x2="2051.855438" y2="1643.67112" stroke="black" stroke-width="4.05"/>
<line x1="1926.984632" y1="1633.37512" x2="1926.984632" y2="1509.82312" stroke="black" stroke-width="4.05"/>
<line x1="1926.984632" y1="1509.82312" x2="2041.032632" y2="1509.82312" stroke="black" stroke-width="4.05"/>
<line x1="2041.032632" y1="1633.37512" x2="2041.032632" y2="1509.82312" stroke="black" stroke-width="4.05"/>
<line x1="1926.984632" y1="1633.37512" x2="2041.032632" y2="1633.37512" stroke="black" stroke-width="4.05"/>
<line x1="1934.112632" y1="1490.81512" x2="1934.112632" y2="1403.69512" stroke="black" stroke-width="4.05"/>
<line x1="1953.912632" y1="1490.81512" x2="1953.912632" y2="1403.69512" stroke="black" stroke-width="4.05"/>
<line x1="1974.504632" y1="1490.02312" x2="1974.504632" y2="1403.69512" stroke="black" stroke-width="4.05"/>
<line x1="1994.304632" y1="1490.02312" x2="1994.304632" y2="1403.69512" stroke="black" stroke-width="4.05"/>
<line x1="2014.104632" y1="1490.81512" x2="2014.104632" y2="1403.69512" stroke="black" stroke-width="4.05"/>
<line x1="2033.904632" y1="1490.81512" x2="2033.904632" y2="1403.69512" stroke="black" stroke-width="4.05"/>
<line x1="2040.240632" y1="1585.85512" x2="2026.776632" y2="1585.85512" stroke="black" stroke-width="4.05"/>
<line x1="2026.776632" y1="1585.85512" x2="2026.776632" y2="1555.75912" stroke="black" stroke-width="4.05"/>
<line x1="2026.776632" y1="1555.75912" x2="2039.448632" y2="1555.75912" stroke="black" stroke-width="4.05"/>
<line x1="1926.984632" y1="1383.10312" x2="1926.984632" y2="1259.55112" stroke="black" stroke-width="4.05"/>
<line x1="1926.984632" y1="1259.55112" x2="2041.032632" y2="1259.55112" stroke="black" stroke-width="4.05"/>
<line x1="2041.032632" y1="1383.10312" x2="2041.032632" y2="1259.55112" stroke="black" stroke-width="4.05"/>
<line x1="1926.984632" y1="1383.10312" x2="2041.032632" y2="1383.10312" stroke="black" stroke-width="4.05"/>
<line x1="2041.032632" y1="1335.58312" x2="2027.568632" y2="1335.58312" stroke="black" stroke-width="4.05"/>
<line x1="2027.568632" y1="1335.58312" x2="2027.568632" y2="1305.48712" stroke="black" stroke-width="4.05"/>
<line x1="2027.568632" y1="1305.48712" x2="2040.240632" y2="1305.48712" stroke="black" stroke-width="4.05"/>
<circle cx="1941.240632" cy="1524.07912" r="7.128000000000001" fill="none" stroke="black" stroke-width="4.05"/>
<circle cx="1942.032632" cy="1273.80712" r="7.128000000000001" fill="none" stroke="black" stroke-width="4.05"/>
</g>
</svg>
