<?xml version="1.0"?>
<svg xmlns:xlink="http://www.w3.org/1999/xlink" width="2170.8" height="2138.4">
<image x="0" y="0" width="2170.8" height="2138.4" xlink:href="ground16-04.png"/>
<g style="stroke-linecap:round">
<line x1="355.524638" y1="104.449442" x2="594.616565" y2="104.449442" stroke="black" stroke-width="4.05"/>
<line x1="594.616565" y1="104.449442" x2="594.616565" y2="67.591454" stroke="black" stroke-width="4.05"/>
<line x1="594.616565" y1="67.591454" x2="355.524638" y2="67.591454" stroke="black" stroke-width="4.05"/>
<line x1="355.524638" y1="67.591454" x2="355.524638" y2="104.449442" stroke="black" stroke-width="4.05"/>
<line x1="377.833417" y1="68.076428" x2="377.833417" y2="103.964468" stroke="black" stroke-width="4.05"/>
<line x1="571.822812" y1="68.076428" x2="571.822812" y2="105.419387" stroke="black" stroke-width="4.05"/>
<line x1="377.348447" y1="85.0505" x2="571.337838" y2="85.0505" stroke="black" stroke-width="4.05"/>
<line x1="1586.39715" y1="105.206782" x2="1826.184114" y2="105.206782" stroke="black" stroke-width="4.05"/>
<line x1="1826.184114" y1="105.206782" x2="1826.184114" y2="68.24165" stroke="black" stroke-width="4.05"/>
<line x1="1826.184114" y1="68.24165" x2="1586.39715" y2="68.24165" stroke="black" stroke-width="4.05"/>
<line x1="1586.39715" y1="68.24165" x2="1586.39715" y2="105.206782" stroke="black" stroke-width="4.05"/>
<line x1="1608.770783" y1="68.728036" x2="1608.770783" y2="104.720396" stroke="black" stroke-width="4.05"/>
<line x1="1803.3241" y1="68.728036" x2="1803.3241" y2="106.179548" stroke="black" stroke-width="4.05"/>
<line x1="1608.284398" y1="85.751449" x2="1802.837714" y2="85.751449" stroke="black" stroke-width="4.05"/>
<line x1="455.155898" y1="2015.675204" x2="214.690846" y2="2015.675204" stroke="black" stroke-width="4.05"/>
<line x1="214.690846" y1="2015.675204" x2="214.690846" y2="2058.685214" stroke="black" stroke-width="4.05"/>
<line x1="214.690846" y1="2058.685214" x2="455.155898" y2="2058.685214" stroke="black" stroke-width="4.05"/>
<line x1="455.155898" y1="2058.685214" x2="455.155898" y2="2015.675204" stroke="black" stroke-width="4.05"/>
<line x1="443.914646" y1="2015.675204" x2="443.914646" y2="2001.012703" stroke="black" stroke-width="4.05"/>
<line x1="443.914646" y1="2001.012703" x2="226.420848" y2="2001.012703" stroke="black" stroke-width="4.05"/>
<line x1="226.420848" y1="2015.675204" x2="226.420848" y2="2001.012703" stroke="black" stroke-width="4.05"/>
<line x1="1004.397887" y1="2015.058442" x2="764.627821" y2="2015.058442" stroke="black" stroke-width="4.05"/>
<line x1="764.627821" y1="2015.058442" x2="764.627821" y2="2057.944144" stroke="black" stroke-width="4.05"/>
<line x1="764.627821" y1="2057.944144" x2="1004.397887" y2="2057.944144" stroke="black" stroke-width="4.05"/>
<line x1="1004.397887" y1="2057.944144" x2="1004.397887" y2="2015.058442" stroke="black" stroke-width="4.05"/>
<line x1="993.189125" y1="2015.058442" x2="993.189125" y2="2000.438316" stroke="black" stroke-width="4.05"/>
<line x1="993.189125" y1="2000.438316" x2="776.323922" y2="2000.438316" stroke="black" stroke-width="4.05"/>
<line x1="776.323922" y1="2015.058442" x2="776.323922" y2="2000.438316" stroke="black" stroke-width="4.05"/>
<line x1="1502.318696" y1="2015.331124" x2="1262.548631" y2="2015.331124" stroke="black" stroke-width="4.05"/>
<line x1="1262.548631" y1="2015.331124" x2="1262.548631" y2="2058.216826" stroke="black" stroke-width="4.05"/>
<line x1="1262.548631" y1="2058.216826" x2="1502.318696" y2="2058.216826" stroke="black" stroke-width="4.05"/>
<line x1="1502.318696" y1="2058.216826" x2="1502.318696" y2="2015.331124" stroke="black" stroke-width="4.05"/>
<line x1="1491.109934" y1="2015.331124" x2="1491.109934" y2="2000.710998" stroke="black" stroke-width="4.05"/>
<line x1="1491.109934" y1="2000.710998" x2="1274.244732" y2="2000.710998" stroke="black" stroke-width="4.05"/>
<line x1="1274.244732" y1="2015.331124" x2="1274.244732" y2="2000.710998" stroke="black" stroke-width="4.05"/>
<line x1="1977.062742" y1="2015.366839" x2="1737.292676" y2="2015.366839" stroke="black" stroke-width="4.05"/>
<line x1="1737.292676" y1="2015.366839" x2="1737.292676" y2="2058.252541" stroke="black" stroke-width="4.05"/>
<line x1="1737.292676" y1="2058.252541" x2="1977.062742" y2="2058.252541" stroke="black" stroke-width="4.05"/>
<line x1="1977.062742" y1="2058.252541" x2="1977.062742" y2="2015.366839" stroke="black" stroke-width="4.05"/>
<line x1="1965.85398" y1="2015.366839" x2="1965.85398" y2="2000.746714" stroke="black" stroke-width="4.05"/>
<line x1="1965.85398" y1="2000.746714" x2="1748.988778" y2="2000.746714" stroke="black" stroke-width="4.05"/>
<line x1="1748.988778" y1="2015.366839" x2="1748.988778" y2="2000.746714" stroke="black" stroke-width="4.05"/>
<line x1="2058.575306" y1="203.989972" x2="2058.575306" y2="444.455024" stroke="black" stroke-width="4.05"/>
<line x1="2058.575306" y1="444.455024" x2="2101.585316" y2="444.455024" stroke="black" stroke-width="4.05"/>
<line x1="2101.585316" y1="444.455024" x2="2101.585316" y2="203.989972" stroke="black" stroke-width="4.05"/>
<line x1="2101.585316" y1="203.989972" x2="2058.575306" y2="203.989972" stroke="black" stroke-width="4.05"/>
<line x1="2058.575306" y1="215.231224" x2="2043.912805" y2="215.231224" stroke="black" stroke-width="4.05"/>
<line x1="2043.912805" y1="215.231224" x2="2043.912805" y2="432.725022" stroke="black" stroke-width="4.05"/>
<line x1="2058.575306" y1="432.725022" x2="2043.912805" y2="432.725022" stroke="black" stroke-width="4.05"/>
<line x1="2056.953535" y1="776.174944" x2="2056.953535" y2="1027.759766" stroke="black" stroke-width="4.05"/>
<line x1="2056.953535" y1="1027.759766" x2="2101.952448" y2="1027.759766" stroke="black" stroke-width="4.05"/>
<line x1="2101.952448" y1="1027.759766" x2="2101.952448" y2="776.174944" stroke="black" stroke-width="4.05"/>
<line x1="2101.952448" y1="776.174944" x2="2056.953535" y2="776.174944" stroke="black" stroke-width="4.05"/>
<line x1="2056.953535" y1="787.936021" x2="2041.612999" y2="787.936021" stroke="black" stroke-width="4.05"/>
<line x1="2041.612999" y1="787.936021" x2="2041.612999" y2="1015.487334" stroke="black" stroke-width="4.05"/>
<line x1="2056.953535" y1="1015.487334" x2="2041.612999" y2="1015.487334" stroke="black" stroke-width="4.05"/>
<line x1="2064.600925" y1="1369.92258" x2="2064.600925" y2="1611.794646" stroke="black" stroke-width="4.05"/>
<line x1="2064.600925" y1="1611.794646" x2="2101.887493" y2="1611.794646" stroke="black" stroke-width="4.05"/>
<line x1="2101.887493" y1="1611.794646" x2="2101.887493" y2="1369.92258" stroke="black" stroke-width="4.05"/>
<line x1="2101.887493" y1="1369.92258" x2="2064.600925" y2="1369.92258" stroke="black" stroke-width="4.05"/>
<line x1="2101.396882" y1="1392.490764" x2="2065.09154" y2="1392.490764" stroke="black" stroke-width="4.05"/>
<line x1="2101.396882" y1="1588.73585" x2="2063.619702" y2="1588.73585" stroke="black" stroke-width="4.05"/>
<line x1="2084.225436" y1="1392.000152" x2="2084.225436" y2="1588.245235" stroke="black" stroke-width="4.05"/>
<line x1="144.255596" y1="1589.650286" x2="144.255596" y2="1347.795266" stroke="black" stroke-width="4.05"/>
<line x1="144.255596" y1="1347.795266" x2="100.996974" y2="1347.795266" stroke="black" stroke-width="4.05"/>
<line x1="100.996974" y1="1347.795266" x2="100.996974" y2="1589.650286" stroke="black" stroke-width="4.05"/>
<line x1="100.996974" y1="1589.650286" x2="144.255596" y2="1589.650286" stroke="black" stroke-width="4.05"/>
<line x1="144.255596" y1="1578.344054" x2="159.002856" y2="1578.344054" stroke="black" stroke-width="4.05"/>
<line x1="159.002856" y1="1578.344054" x2="159.002856" y2="1359.593071" stroke="black" stroke-width="4.05"/>
<line x1="144.255596" y1="1359.593071" x2="159.002856" y2="1359.593071" stroke="black" stroke-width="4.05"/>
<line x1="145.345295" y1="909.129312" x2="145.345295" y2="667.274292" stroke="black" stroke-width="4.05"/>
<line x1="145.345295" y1="667.274292" x2="102.086672" y2="667.274292" stroke="black" stroke-width="4.05"/>
<line x1="102.086672" y1="667.274292" x2="102.086672" y2="909.129312" stroke="black" stroke-width="4.05"/>
<line x1="102.086672" y1="909.129312" x2="145.345295" y2="909.129312" stroke="black" stroke-width="4.05"/>
<line x1="145.345295" y1="897.82308" x2="160.092554" y2="897.82308" stroke="black" stroke-width="4.05"/>
<line x1="160.092554" y1="897.82308" x2="160.092554" y2="679.072097" stroke="black" stroke-width="4.05"/>
<line x1="145.345295" y1="679.072097" x2="160.092554" y2="679.072097" stroke="black" stroke-width="4.05"/>
<line x1="138.442799" y1="445.034534" x2="138.442799" y2="203.162468" stroke="black" stroke-width="4.05"/>
<line x1="138.442799" y1="203.162468" x2="101.156231" y2="203.162468" stroke="black" stroke-width="4.05"/>
<line x1="101.156231" y1="203.162468" x2="101.156231" y2="445.034534" stroke="black" stroke-width="4.05"/>
<line x1="101.156231" y1="445.034534" x2="138.442799" y2="445.034534" stroke="black" stroke-width="4.05"/>
<line x1="101.646842" y1="422.46635" x2="137.952184" y2="422.46635" stroke="black" stroke-width="4.05"/>
<line x1="101.646842" y1="226.221264" x2="139.424022" y2="226.221264" stroke="black" stroke-width="4.05"/>
<line x1="118.818288" y1="422.956962" x2="118.818288" y2="226.711879" stroke="black" stroke-width="4.05"/>
<line x1="543.013013" y1="715.523339" x2="333.647809" y2="715.523339" stroke="black" stroke-width="4.05"/>
<line x1="333.647809" y1="715.523339" x2="333.647809" y2="1046.737742" stroke="black" stroke-width="4.05"/>
<line x1="333.647809" y1="1046.737742" x2="543.013013" y2="1046.737742" stroke="black" stroke-width="4.05"/>
<line x1="543.013013" y1="1046.737742" x2="543.013013" y2="715.523339" stroke="black" stroke-width="4.05"/>
<line x1="543.686213" y1="987.496139" x2="332.974609" y2="987.496139" stroke="black" stroke-width="4.05"/>
<line x1="332.974609" y1="987.496139" x2="542.339809" y2="937.679339" stroke="black" stroke-width="4.05"/>
<line x1="542.339809" y1="937.679339" x2="510.699409" y2="891.228539" stroke="black" stroke-width="4.05"/>
<line x1="510.699409" y1="891.228539" x2="332.974609" y2="988.169342" stroke="black" stroke-width="4.05"/>
<line x1="1110.575106" y1="1028.171776" x2="1110.575106" y2="1007.813491" stroke="black" stroke-width="4.05"/>
<line x1="1110.575106" y1="1007.813491" x2="1070.851626" y2="1007.813491" stroke="black" stroke-width="4.05"/>
<line x1="1070.851626" y1="1007.813491" x2="1070.851626" y2="1028.171776" stroke="black" stroke-width="4.05"/>
<line x1="1070.851626" y1="1028.171776" x2="1110.575106" y2="1028.171776" stroke="black" stroke-width="4.05"/>
<line x1="1070.851626" y1="808.699558" x2="872.730778" y2="808.699558" stroke="black" stroke-width="4.05"/>
<line x1="1111.568191" y1="808.203013" x2="1111.568191" y2="787.844732" stroke="black" stroke-width="4.05"/>
<line x1="1111.568191" y1="787.844732" x2="1071.844715" y2="787.844732" stroke="black" stroke-width="4.05"/>
<line x1="1071.844715" y1="787.844732" x2="1071.844715" y2="808.203013" stroke="black" stroke-width="4.05"/>
<line x1="1071.844715" y1="808.203013" x2="1111.568191" y2="808.203013" stroke="black" stroke-width="4.05"/>
<path d="m 1072.341256,1007.813491 a 199.11393349999997,199.11393349999997 0 0 1 -199.11393399999997,-199.11393299999997" fill="none" stroke="black" stroke-width="4.05"/>
<line x1="913.136738" y1="247.05077" x2="1080.250153" y2="247.05077" stroke="black" stroke-width="4.05"/>
<line x1="1080.250153" y1="247.05077" x2="1080.250153" y2="414.506628" stroke="black" stroke-width="4.05"/>
<line x1="1080.250153" y1="414.506628" x2="913.136738" y2="414.506628" stroke="black" stroke-width="4.05"/>
<line x1="913.136738" y1="414.506628" x2="913.136738" y2="247.05077" stroke="black" stroke-width="4.05"/>
<line x1="912.794296" y1="246.708324" x2="1080.250153" y2="414.506628" stroke="black" stroke-width="4.05"/>
<line x1="913.136738" y1="414.164185" x2="1079.90771" y2="247.05077" stroke="black" stroke-width="4.05"/>
<line x1="303.394741" y1="156.06063" x2="205.233876" y2="340.674379" stroke="black" stroke-width="4.05"/>
<line x1="205.233876" y1="340.674379" x2="409.987303" y2="449.543707" stroke="black" stroke-width="4.05"/>
<line x1="409.987303" y1="449.543707" x2="508.148172" y2="264.929962" stroke="black" stroke-width="4.05"/>
<line x1="508.148172" y1="264.929962" x2="303.394741" y2="156.06063" stroke="black" stroke-width="4.05"/>
<line x1="331.925962" y1="171.230947" x2="233.765089" y2="355.844696" stroke="black" stroke-width="4.05"/>
<line x1="1637.344138" y1="572.730257" x2="2030.644984" y2="572.730257" stroke="black" stroke-width="4.05"/>
<line x1="2030.644984" y1="572.730257" x2="2030.644984" y2="397.576033" stroke="black" stroke-width="4.05"/>
<line x1="2030.644984" y1="397.576033" x2="1637.344138" y2="397.576033" stroke="black" stroke-width="4.05"/>
<line x1="1637.344138" y1="397.576033" x2="1637.344138" y2="572.730257" stroke="black" stroke-width="4.05"/>
<line x1="1955.010204" y1="424.645322" x2="1669.190357" y2="424.645322" stroke="black" stroke-width="4.05"/>
<line x1="1669.190357" y1="424.645322" x2="1669.190357" y2="543.272501" stroke="black" stroke-width="4.05"/>
<line x1="1669.190357" y1="543.272501" x2="1960.583292" y2="543.272501" stroke="black" stroke-width="4.05"/>
<path d="m 1954.19538,424.388556 a 63.69244503127078,63.69244503127078 0 0 1 4.316342000000077,120.00067899999999" fill="none" stroke="black" stroke-width="4.05"/>
<line x1="1132.995863" y1="600.926753" x2="1153.236467" y2="600.926753" stroke="black" stroke-width="4.05"/>
<line x1="1153.236467" y1="600.926753" x2="1153.236467" y2="561.432888" stroke="black" stroke-width="4.05"/>
<line x1="1153.236467" y1="561.432888" x2="1132.995863" y2="561.432888" stroke="black" stroke-width="4.05"/>
<line x1="1132.995863" y1="561.432888" x2="1132.995863" y2="600.926753" stroke="black" stroke-width="4.05"/>
<line x1="1351.199455" y1="561.432888" x2="1351.199455" y2="364.45725" stroke="black" stroke-width="4.05"/>
<line x1="1351.693127" y1="601.9141" x2="1371.933731" y2="601.9141" stroke="black" stroke-width="4.05"/>
<line x1="1371.933731" y1="601.9141" x2="1371.933731" y2="562.420235" stroke="black" stroke-width="4.05"/>
<line x1="1371.933731" y1="562.420235" x2="1351.693127" y2="562.420235" stroke="black" stroke-width="4.05"/>
<line x1="1351.693127" y1="562.420235" x2="1351.693127" y2="601.9141" stroke="black" stroke-width="4.05"/>
<path d="m 1153.236467,562.91391 a 197.962988,197.962988 0 0 1 197.962988,-197.962988" fill="none" stroke="black" stroke-width="4.05"/>
<line x1="1242.360187" y1="118.018883" x2="1512.907387" y2="118.018883" stroke="black" stroke-width="4.05"/>
<line x1="1512.907387" y1="118.018883" x2="1512.907387" y2="249.966083" stroke="black" stroke-width="4.05"/>
<line x1="1242.360187" y1="249.966083" x2="1512.907387" y2="249.966083" stroke="black" stroke-width="4.05"/>
<line x1="1242.360187" y1="118.018883" x2="1242.360187" y2="249.966083" stroke="black" stroke-width="4.05"/>
<line x1="1249.012987" y1="124.671683" x2="1387.058587" y2="124.671683" stroke="black" stroke-width="4.05"/>
<line x1="1387.058587" y1="124.671683" x2="1387.058587" y2="242.758883" stroke="black" stroke-width="4.05"/>
<line x1="1249.012987" y1="242.758883" x2="1387.058587" y2="242.758883" stroke="black" stroke-width="4.05"/>
<line x1="1249.012987" y1="124.671683" x2="1249.012987" y2="242.758883" stroke="black" stroke-width="4.05"/>
<line x1="1401.472987" y1="132.433283" x2="1498.492987" y2="132.433283" stroke="black" stroke-width="4.05"/>
<line x1="1401.472987" y1="152.946083" x2="1498.492987" y2="152.946083" stroke="black" stroke-width="4.05"/>
<line x1="1402.027387" y1="174.013283" x2="1499.047387" y2="174.013283" stroke="black" stroke-width="4.05"/>
<line x1="1402.027387" y1="194.526083" x2="1499.047387" y2="194.526083" stroke="black" stroke-width="4.05"/>
<line x1="1401.472987" y1="215.038883" x2="1498.492987" y2="215.038883" stroke="black" stroke-width="4.05"/>
<line x1="1401.472987" y1="235.551683" x2="1498.492987" y2="235.551683" stroke="black" stroke-width="4.05"/>
<line x1="1301.680987" y1="242.758883" x2="1301.680987" y2="228.898883" stroke="black" stroke-width="4.05"/>
<line x1="1301.680987" y1="228.898883" x2="1336.053787" y2="228.898883" stroke="black" stroke-width="4.05"/>
<line x1="1336.053787" y1="228.898883" x2="1336.053787" y2="242.204483" stroke="black" stroke-width="4.05"/>
<circle cx="1371.535387" cy="139.640483" r="8.316000000000003" fill="none" stroke="black" stroke-width="4.05"/>
<line x1="2034.234756" y1="166.642459" x2="1850.312599" y2="166.642459" stroke="black" stroke-width="4.05"/>
<line x1="1850.312599" y1="166.642459" x2="1850.312599" y2="117.490849" stroke="black" stroke-width="4.05"/>
<line x1="2034.234756" y1="117.490849" x2="1850.312599" y2="117.490849" stroke="black" stroke-width="4.05"/>
<line x1="2034.234756" y1="166.642459" x2="2034.234756" y2="117.490849" stroke="black" stroke-width="4.05"/>
<line x1="1992.61444" y1="194.389337" x2="1992.61444" y2="166.642459" stroke="black" stroke-width="4.05"/>
<line x1="1893.518453" y1="166.642459" x2="1893.518453" y2="195.974874" stroke="black" stroke-width="4.05"/>
<circle cx="1943.859215" cy="239.577106" r="66.59250380904014" fill="none" stroke="black" stroke-width="4.05"/>
<circle cx="1943.859215" cy="239.577106" r="57.07928897917725" fill="none" stroke="black" stroke-width="4.05"/>
<line x1="1395.085691" y1="798.896383" x2="1395.085691" y2="819.136987" stroke="black" stroke-width="4.05"/>
<line x1="1395.085691" y1="819.136987" x2="1434.579556" y2="819.136987" stroke="black" stroke-width="4.05"/>
<line x1="1434.579556" y1="819.136987" x2="1434.579556" y2="798.896383" stroke="black" stroke-width="4.05"/>
<line x1="1434.579556" y1="798.896383" x2="1395.085691" y2="798.896383" stroke="black" stroke-width="4.05"/>
<line x1="1434.579556" y1="1017.099976" x2="1631.555194" y2="1017.099976" stroke="black" stroke-width="4.05"/>
<line x1="1394.098344" y1="1017.593647" x2="1394.098344" y2="1037.834251" stroke="black" stroke-width="4.05"/>
<line x1="1394.098344" y1="1037.834251" x2="1433.592209" y2="1037.834251" stroke="black" stroke-width="4.05"/>
<line x1="1433.592209" y1="1037.834251" x2="1433.592209" y2="1017.593647" stroke="black" stroke-width="4.05"/>
<line x1="1433.592209" y1="1017.593647" x2="1394.098344" y2="1017.593647" stroke="black" stroke-width="4.05"/>
<path d="m 1433.098534,819.136987 a 197.9629885,197.9629885 0 0 1 197.962988,197.962989" fill="none" stroke="black" stroke-width="4.05"/>
<line x1="1720.928527" y1="1535.026439" x2="1675.745752" y2="1659.165098" stroke="black" stroke-width="4.05"/>
<line x1="1675.745752" y1="1659.165098" x2="1662.349493" y2="1654.289262" stroke="black" stroke-width="4.05"/>
<line x1="1707.532268" y1="1530.150602" x2="1662.349493" y2="1654.289262" stroke="black" stroke-width="4.05"/>
<line x1="1720.928527" y1="1535.026439" x2="1707.532268" y2="1530.150602" stroke="black" stroke-width="4.05"/>
<line x1="1702.981483" y1="1542.653777" x2="1674.159833" y2="1530.140764" stroke="black" stroke-width="4.05"/>
<line x1="1666.900274" y1="1641.786084" x2="1635.88531" y2="1632.520354" stroke="black" stroke-width="4.05"/>
<line x1="1287.782849" y1="1377.37431" x2="1242.600073" y2="1501.512966" stroke="black" stroke-width="4.05"/>
<line x1="1242.600073" y1="1501.512966" x2="1255.103251" y2="1506.063748" stroke="black" stroke-width="4.05"/>
<line x1="1300.286027" y1="1381.925088" x2="1255.103251" y2="1506.063748" stroke="black" stroke-width="4.05"/>
<line x1="1287.782849" y1="1377.37431" x2="1300.286027" y2="1381.925088" stroke="black" stroke-width="4.05"/>
<line x1="1297.846465" y1="1394.185295" x2="1327.968342" y2="1403.12597" stroke="black" stroke-width="4.05"/>
<line x1="1261.765256" y1="1493.317602" x2="1291.15494" y2="1507.048754" stroke="black" stroke-width="4.05"/>
<line x1="1465.332617" y1="1756.540843" x2="1470.208457" y2="1743.144588" stroke="black" stroke-width="4.05"/>
<line x1="1470.208457" y1="1743.144588" x2="1346.069801" y2="1697.961812" stroke="black" stroke-width="4.05"/>
<line x1="1341.193961" y1="1711.358068" x2="1346.069801" y2="1697.961812" stroke="black" stroke-width="4.05"/>
<line x1="1465.332617" y1="1756.540843" x2="1341.193961" y2="1711.358068" stroke="black" stroke-width="4.05"/>
<line x1="1359.46606" y1="1702.837649" x2="1367.838709" y2="1671.497629" stroke="black" stroke-width="4.05"/>
<line x1="1457.705286" y1="1738.593803" x2="1470.543354" y2="1708.879064" stroke="black" stroke-width="4.05"/>
<line x1="1623.552779" y1="1324.613308" x2="1618.676939" y2="1338.00957" stroke="black" stroke-width="4.05"/>
<line x1="1618.676939" y1="1338.00957" x2="1494.538283" y2="1292.826791" stroke="black" stroke-width="4.05"/>
<line x1="1499.414123" y1="1279.430532" x2="1494.538283" y2="1292.826791" stroke="black" stroke-width="4.05"/>
<line x1="1623.552779" y1="1324.613308" x2="1499.414123" y2="1279.430532" stroke="black" stroke-width="4.05"/>
<line x1="1507.934542" y1="1297.702631" x2="1494.203389" y2="1327.092311" stroke="black" stroke-width="4.05"/>
<line x1="1606.173768" y1="1333.458785" x2="1596.908034" y2="1364.473746" stroke="black" stroke-width="4.05"/>
<circle cx="1482.373372" cy="1517.985688" r="191.98080000000002" fill="none" stroke="black" stroke-width="4.05"/>
<line x1="772.05717" y1="1270.405984" x2="772.05717" y2="1080.325984" stroke="black" stroke-width="4.05"/>
<line x1="772.05717" y1="1080.325984" x2="308.26197" y2="1080.325984" stroke="black" stroke-width="4.05"/>
<line x1="308.26197" y1="1080.325984" x2="308.26197" y2="1270.405984" stroke="black" stroke-width="4.05"/>
<line x1="308.26197" y1="1270.405984" x2="332.02197" y2="1270.405984" stroke="black" stroke-width="4.05"/>
<line x1="332.02197" y1="1270.405984" x2="332.02197" y2="1103.135584" stroke="black" stroke-width="4.05"/>
<line x1="332.02197" y1="1103.135584" x2="747.34677" y2="1103.135584" stroke="black" stroke-width="4.05"/>
<line x1="747.34677" y1="1103.135584" x2="747.34677" y2="1270.405984" stroke="black" stroke-width="4.05"/>
<line x1="747.34677" y1="1270.405984" x2="772.05717" y2="1270.405984" stroke="black" stroke-width="4.05"/>
<line x1="747.34677" y1="1264.703584" x2="332.02197" y2="1264.703584" stroke="black" stroke-width="4.05"/>
<line x1="540.15957" y1="1265.653984" x2="540.15957" y2="1104.085984" stroke="black" stroke-width="4.05"/>
<line x1="598.453996" y1="1374.361898" x2="721.23089" y2="1419.049037" stroke="black" stroke-width="4.05"/>
<line x1="721.23089" y1="1419.049037" x2="676.452182" y2="1542.077528" stroke="black" stroke-width="4.05"/>
<line x1="676.452182" y1="1542.077528" x2="553.675284" y2="1497.39039" stroke="black" stroke-width="4.05"/>
<line x1="553.675284" y1="1497.39039" x2="598.453996" y2="1374.361898" stroke="black" stroke-width="4.05"/>
<line x1="598.293972" y1="1374.018732" x2="676.452182" y2="1542.077528" stroke="black" stroke-width="4.05"/>
<line x1="553.766857" y1="1497.138797" x2="720.979301" y2="1418.957464" stroke="black" stroke-width="4.05"/>
<line x1="1799.832056" y1="1048.556923" x2="2008.920056" y2="1048.556923" stroke="black" stroke-width="4.05"/>
<line x1="2008.920056" y1="1048.556923" x2="2008.920056" y2="816.659323" stroke="black" stroke-width="4.05"/>
<line x1="2008.920056" y1="816.659323" x2="1799.832056" y2="816.659323" stroke="black" stroke-width="4.05"/>
<line x1="1799.832056" y1="816.659323" x2="1799.832056" y2="1048.556923" stroke="black" stroke-width="4.05"/>
<line x1="1799.832056" y1="1016.243323" x2="2008.920056" y2="1016.243323" stroke="black" stroke-width="4.05"/>
<line x1="1065.123234" y1="1690.4416" x2="1122.755695" y2="1489.453315" stroke="black" stroke-width="4.05"/>
<line x1="1122.755695" y1="1489.453315" x2="899.841413" y2="1425.533674" stroke="black" stroke-width="4.05"/>
<line x1="899.841413" y1="1425.533674" x2="842.208952" y2="1626.521962" stroke="black" stroke-width="4.05"/>
<line x1="842.208952" y1="1626.521962" x2="1065.123234" y2="1690.4416" stroke="black" stroke-width="4.05"/>
<line x1="1034.061404" y1="1681.534768" x2="1091.693869" y2="1480.54648" stroke="black" stroke-width="4.05"/>
<line x1="1919.891822" y1="1976.796853" x2="1919.891822" y2="1706.249653" stroke="black" stroke-width="4.05"/>
<line x1="1919.891822" y1="1706.249653" x2="2051.839022" y2="1706.249653" stroke="black" stroke-width="4.05"/>
<line x1="2051.839022" y1="1976.796853" x2="2051.839022" y2="1706.249653" stroke="black" stroke-width="4.05"/>
<line x1="1919.891822" y1="1976.796853" x2="2051.839022" y2="1976.796853" stroke="black" stroke-width="4.05"/>
<line x1="1926.544622" y1="1970.144053" x2="1926.544622" y2="1832.098453" stroke="black" stroke-width="4.05"/>
<line x1="1926.544622" y1="1832.098453" x2="2044.631822" y2="1832.098453" stroke="black" stroke-width="4.05"/>
<line x1="2044.631822" y1="1970.144053" x2="2044.631822" y2="1832.098453" stroke="black" stroke-width="4.05"/>
<line x1="1926.544622" y1="1970.144053" x2="2044.631822" y2="1970.144053" stroke="black" stroke-width="4.05"/>
<line x1="1934.306222" y1="1817.684053" x2="1934.306222" y2="1720.664053" stroke="black" stroke-width="4.05"/>
<line x1="1954.819022" y1="1817.684053" x2="1954.819022" y2="1720.664053" stroke="black" stroke-width="4.05"/>
<line x1="1975.886222" y1="1817.129653" x2="1975.886222" y2="1720.109653" stroke="black" stroke-width="4.05"/>
<line x1="1996.399022" y1="1817.129653" x2="1996.399022" y2="1720.109653" stroke="black" stroke-width="4.05"/>
<line x1="2016.911822" y1="1817.684053" x2="2016.911822" y2="1720.664053" stroke="black" stroke-width="4.05"/>
<line x1="2037.424622" y1="1817.684053" x2="2037.424622" y2="1720.664053" stroke="black" stroke-width="4.05"/>
<line x1="2044.631822" y1="1917.476053" x2="2030.771822" y2="1917.476053" stroke="black" stroke-width="4.05"/>
<line x1="2030.771822" y1="1917.476053" x2="2030.771822" y2="1883.103253" stroke="black" stroke-width="4.05"/>
<line x1="2030.771822" y1="1883.103253" x2="2044.077422" y2="1883.103253" stroke="black" stroke-width="4.05"/>
<circle cx="1941.513422" cy="1847.621653" r="8.316000000000003" fill="none" stroke="black" stroke-width="4.05"/>
<line x1="192.042241" y1="1609.378862" x2="361.197986" y2="1732.277704" stroke="black" stroke-width="4.05"/>
<line x1="361.197986" y1="1732.277704" x2="497.50398" y2="1544.668607" stroke="black" stroke-width="4.05"/>
<line x1="497.50398" y1="1544.668607" x2="328.348231" y2="1421.769762" stroke="black" stroke-width="4.05"/>
<line x1="328.348231" y1="1421.769762" x2="192.042241" y2="1609.378862" stroke="black" stroke-width="4.05"/>
<line x1="211.035701" y1="1583.236609" x2="380.191446" y2="1706.135454" stroke="black" stroke-width="4.05"/>
<line x1="1666.989774" y1="604.690222" x2="1833.081988" y2="604.690222" stroke="black" stroke-width="4.05"/>
<line x1="1833.081988" y1="604.690222" x2="1833.081988" y2="771.122786" stroke="black" stroke-width="4.05"/>
<line x1="1833.081988" y1="771.122786" x2="1666.989774" y2="771.122786" stroke="black" stroke-width="4.05"/>
<line x1="1666.989774" y1="771.122786" x2="1666.989774" y2="604.690222" stroke="black" stroke-width="4.05"/>
<line x1="1666.649423" y1="604.34987" x2="1833.081988" y2="771.122786" stroke="black" stroke-width="4.05"/>
<line x1="1666.989774" y1="770.782435" x2="1832.741633" y2="604.690222" stroke="black" stroke-width="4.05"/>
<line x1="1832.995789" y1="604.424074" x2="1999.088003" y2="604.424074" stroke="black" stroke-width="4.05"/>
<line x1="1999.088003" y1="604.424074" x2="1999.088003" y2="770.856638" stroke="black" stroke-width="4.05"/>
<line x1="1999.088003" y1="770.856638" x2="1832.995789" y2="770.856638" stroke="black" stroke-width="4.05"/>
<line x1="1832.995789" y1="770.856638" x2="1832.995789" y2="604.424074" stroke="black" stroke-width="4.05"/>
<line x1="1832.655438" y1="604.083722" x2="1999.088003" y2="770.856638" stroke="black" stroke-width="4.05"/>
<line x1="1832.995789" y1="770.516287" x2="1998.747648" y2="604.424074" stroke="black" stroke-width="4.05"/>
<line x1="1501.570829" y1="604.276909" x2="1667.663042" y2="604.276909" stroke="black" stroke-width="4.05"/>
<line x1="1667.663042" y1="604.276909" x2="1667.663042" y2="770.709474" stroke="black" stroke-width="4.05"/>
<line x1="1667.663042" y1="770.709474" x2="1501.570829" y2="770.709474" stroke="black" stroke-width="4.05"/>
<line x1="1501.570829" y1="770.709474" x2="1501.570829" y2="604.276909" stroke="black" stroke-width="4.05"/>
<line x1="1501.230478" y1="603.936558" x2="1667.663042" y2="770.709474" stroke="black" stroke-width="4.05"/>
<line x1="1501.570829" y1="770.369123" x2="1667.322688" y2="604.276909" stroke="black" stroke-width="4.05"/>
<line x1="1886.55296" y1="1077.238843" x2="2052.645174" y2="1077.238843" stroke="black" stroke-width="4.05"/>
<line x1="2052.645174" y1="1077.238843" x2="2052.645174" y2="1243.671408" stroke="black" stroke-width="4.05"/>
<line x1="2052.645174" y1="1243.671408" x2="1886.55296" y2="1243.671408" stroke="black" stroke-width="4.05"/>
<line x1="1886.55296" y1="1243.671408" x2="1886.55296" y2="1077.238843" stroke="black" stroke-width="4.05"/>
<line x1="1886.212609" y1="1076.898492" x2="2052.645174" y2="1243.671408" stroke="black" stroke-width="4.05"/>
<line x1="1886.55296" y1="1243.331057" x2="2052.304819" y2="1077.238843" stroke="black" stroke-width="4.05"/>
<line x1="1915.896632" y1="1644.870398" x2="1915.896632" y2="1251.626526" stroke="black" stroke-width="4.05"/>
<line x1="1914.90035" y1="1247.67112" x2="2050.969126" y2="1247.67112" stroke="black" stroke-width="4.05"/>
<line x1="2052.120632" y1="1644.406009" x2="2052.120632" y2="1247.365778" stroke="black" stroke-width="4.05"/>
<line x1="1916.591382" y1="1643.67112" x2="2051.855438" y2="1643.67112" stroke="black" stroke-width="4.05"/>
<line x1="1926.984632" y1="1633.37512" x2="1926.984632" y2="1509.82312" stroke="black" stroke-width="4.05"/>
<line x1="1926.984632" y1="1509.82312" x2="2041.032632" y2="1509.82312" stroke="black" stroke-width="4.05"/>
<line x1="2041.032632" y1="1633.37512" x2="2041.032632" y2="1509.82312" stroke="black" stroke-width="4.05"/>
<line x1="1926.984632" y1="1633.37512" x2="2041.032632" y2="1633.37512" stroke="black" stroke-width="4.05"/>
<line x1="1934.112632" y1="1490.81512" x2="1934.112632" y2="1403.69512" stroke="black" stroke-width="4.05"/>
<line x1="1953.912632" y1="1490.81512" x2="1953.912632" y2="1403.69512" stroke="black" stroke-width="4.05"/>
<line x1="1974.504632" y1="1490.02312" x2="1974.504632" y2="1403.69512" stroke="black" stroke-width="4.05"/>
<line x1="1994.304632" y1="1490.02312" x2="1994.304632" y2="1403.69512" stroke="black" stroke-width="4.05"/>
<line x1="2014.104632" y1="1490.81512" x2="2014.104632" y2="1403.69512" stroke="black" stroke-width="4.05"/>
<line x1="2033.904632" y1="1490.81512" x2="2033.904632" y2="1403.69512" stroke="black" stroke-width="4.05"/>
<line x1="2040.240632" y1="1585.85512" x2="2026.776632" y2="1585.85512" stroke="black" stroke-width="4.05"/>
<line x1="2026.776632" y1="1585.85512" x2="2026.776632" y2="1555.75912" stroke="black" stroke-width="4.05"/>
<line x1="2026.776632" y1="1555.75912" x2="2039.448632" y2="1555.75912" stroke="black" stroke-width="4.05"/>
<line x1="1926.984632" y1="1383.10312" x2="1926.984632" y2="1259.55112" stroke="black" stroke-width="4.05"/>
<line x1="1926.984632" y1="1259.55112" x2="2041.032632" y2="1259.55112" stroke="black" stroke-width="4.05"/>
<line x1="2041.032632" y1="1383.10312" x2="2041.032632" y2="1259.55112" stroke="black" stroke-width="4.05"/>
<line x1="1926.984632" y1="1383.10312" x2="2041.032632" y2="1383.10312" stroke="black" stroke-width="4.05"/>
<line x1="2041.032632" y1="1335.58312" x2="2027.568632" y2="1335.58312" stroke="black" stroke-width="4.05"/>
<line x1="2027.568632" y1="1335.58312" x2="2027.568632" y2="1305.48712" stroke="black" stroke-width="4.05"/>
<line x1="2027.568632" y1="1305.48712" x2="2040.240632" y2="1305.48712" stroke="black" stroke-width="4.05"/>
<circle cx="1941.240632" cy="1524.07912" r="7.128000000000001" fill="none" stroke="black" stroke-width="4.05"/>
<circle cx="1942.032632" cy="1273.80712" r="7.128000000000001" fill="none" stroke="black" stroke-width="4.05"/>
</g>
</svg>
