<?xml version="1.0"?>
<svg xmlns:xlink="http://www.w3.org/1999/xlink" width="2170.8" height="2138.4">
<image x="0" y="0" width="2170.8" height="2138.4" xlink:href="ground16-04.png"/>
<g style="stroke-linecap:round">
<line x1="355.533062" y1="110.352848" x2="594.608141" y2="110.352848" stroke="black" stroke-width="4.05"/>
<line x1="594.608141" y1="110.352848" x2="594.608141" y2="67.591451" stroke="black" stroke-width="4.05"/>
<line x1="594.608141" y1="67.591451" x2="355.533062" y2="67.591451" stroke="black" stroke-width="4.05"/>
<line x1="355.533062" y1="67.591451" x2="355.533062" y2="110.352848" stroke="black" stroke-width="4.05"/>
<line x1="366.709334" y1="110.352848" x2="366.709334" y2="124.930598" stroke="black" stroke-width="4.05"/>
<line x1="366.709334" y1="124.930598" x2="582.945941" y2="124.930598" stroke="black" stroke-width="4.05"/>
<line x1="582.945941" y1="110.352848" x2="582.945941" y2="124.930598" stroke="black" stroke-width="4.05"/>
<line x1="1586.405599" y1="111.127352" x2="1826.175665" y2="111.127352" stroke="black" stroke-width="4.05"/>
<line x1="1826.175665" y1="111.127352" x2="1826.175665" y2="68.24165" stroke="black" stroke-width="4.05"/>
<line x1="1826.175665" y1="68.24165" x2="1586.405599" y2="68.24165" stroke="black" stroke-width="4.05"/>
<line x1="1586.405599" y1="68.24165" x2="1586.405599" y2="111.127352" stroke="black" stroke-width="4.05"/>
<line x1="1597.614361" y1="111.127352" x2="1597.614361" y2="125.747478" stroke="black" stroke-width="4.05"/>
<line x1="1597.614361" y1="125.747478" x2="1814.479564" y2="125.747478" stroke="black" stroke-width="4.05"/>
<line x1="1814.479564" y1="111.127352" x2="1814.479564" y2="125.747478" stroke="black" stroke-width="4.05"/>
<line x1="455.164369" y1="2021.61294" x2="214.682375" y2="2021.61294" stroke="black" stroke-width="4.05"/>
<line x1="214.682375" y1="2021.61294" x2="214.682375" y2="2058.685214" stroke="black" stroke-width="4.05"/>
<line x1="214.682375" y1="2058.685214" x2="455.164369" y2="2058.685214" stroke="black" stroke-width="4.05"/>
<line x1="455.164369" y1="2058.685214" x2="455.164369" y2="2021.61294" stroke="black" stroke-width="4.05"/>
<line x1="432.72589" y1="2058.197422" x2="432.72589" y2="2022.100733" stroke="black" stroke-width="4.05"/>
<line x1="237.608647" y1="2058.197422" x2="237.608647" y2="2020.637354" stroke="black" stroke-width="4.05"/>
<line x1="433.213682" y1="2041.124663" x2="238.096444" y2="2041.124663" stroke="black" stroke-width="4.05"/>
<line x1="1004.397887" y1="2015.058442" x2="764.627821" y2="2015.058442" stroke="black" stroke-width="4.05"/>
<line x1="764.627821" y1="2015.058442" x2="764.627821" y2="2057.944144" stroke="black" stroke-width="4.05"/>
<line x1="764.627821" y1="2057.944144" x2="1004.397887" y2="2057.944144" stroke="black" stroke-width="4.05"/>
<line x1="1004.397887" y1="2057.944144" x2="1004.397887" y2="2015.058442" stroke="black" stroke-width="4.05"/>
<line x1="993.189125" y1="2015.058442" x2="993.189125" y2="2000.438316" stroke="black" stroke-width="4.05"/>
<line x1="993.189125" y1="2000.438316" x2="776.323922" y2="2000.438316" stroke="black" stroke-width="4.05"/>
<line x1="776.323922" y1="2015.058442" x2="776.323922" y2="2000.438316" stroke="black" stroke-width="4.05"/>
<line x1="1502.318696" y1="2015.331124" x2="1262.548631" y2="2015.331124" stroke="black" stroke-width="4.05"/>
<line x1="1262.548631" y1="2015.331124" x2="1262.548631" y2="2058.216826" stroke="black" stroke-width="4.05"/>
<line x1="1262.548631" y1="2058.216826" x2="1502.318696" y2="2058.216826" stroke="black" stroke-width="4.05"/>
<line x1="1502.318696" y1="2058.216826" x2="1502.318696" y2="2015.331124" stroke="black" stroke-width="4.05"/>
<line x1="1491.109934" y1="2015.331124" x2="1491.109934" y2="2000.710998" stroke="black" stroke-width="4.05"/>
<line x1="1491.109934" y1="2000.710998" x2="1274.244732" y2="2000.710998" stroke="black" stroke-width="4.05"/>
<line x1="1274.244732" y1="2015.331124" x2="1274.244732" y2="2000.710998" stroke="black" stroke-width="4.05"/>
<line x1="1977.071191" y1="2021.28741" x2="1737.284227" y2="2021.28741" stroke="black" stroke-width="4.05"/>
<line x1="1737.284227" y1="2021.28741" x2="1737.284227" y2="2058.252541" stroke="black" stroke-width="4.05"/>
<line x1="1737.284227" y1="2058.252541" x2="1977.071191" y2="2058.252541" stroke="black" stroke-width="4.05"/>
<line x1="1977.071191" y1="2058.252541" x2="1977.071191" y2="2021.28741" stroke="black" stroke-width="4.05"/>
<line x1="1954.697558" y1="2057.766156" x2="1954.697558" y2="2021.773795" stroke="black" stroke-width="4.05"/>
<line x1="1760.144242" y1="2057.766156" x2="1760.144242" y2="2020.314643" stroke="black" stroke-width="4.05"/>
<line x1="1955.183944" y1="2040.742742" x2="1760.630627" y2="2040.742742" stroke="black" stroke-width="4.05"/>
<line x1="2064.218674" y1="203.981501" x2="2064.218674" y2="444.463495" stroke="black" stroke-width="4.05"/>
<line x1="2064.218674" y1="444.463495" x2="2101.290948" y2="444.463495" stroke="black" stroke-width="4.05"/>
<line x1="2101.290948" y1="444.463495" x2="2101.290948" y2="203.981501" stroke="black" stroke-width="4.05"/>
<line x1="2101.290948" y1="203.981501" x2="2064.218674" y2="203.981501" stroke="black" stroke-width="4.05"/>
<line x1="2100.803155" y1="226.41998" x2="2064.706466" y2="226.41998" stroke="black" stroke-width="4.05"/>
<line x1="2100.803155" y1="421.537223" x2="2063.243088" y2="421.537223" stroke="black" stroke-width="4.05"/>
<line x1="2083.730396" y1="225.932188" x2="2083.730396" y2="421.049426" stroke="black" stroke-width="4.05"/>
<line x1="2056.953535" y1="776.174944" x2="2056.953535" y2="1027.759766" stroke="black" stroke-width="4.05"/>
<line x1="2056.953535" y1="1027.759766" x2="2101.952448" y2="1027.759766" stroke="black" stroke-width="4.05"/>
<line x1="2101.952448" y1="1027.759766" x2="2101.952448" y2="776.174944" stroke="black" stroke-width="4.05"/>
<line x1="2101.952448" y1="776.174944" x2="2056.953535" y2="776.174944" stroke="black" stroke-width="4.05"/>
<line x1="2056.953535" y1="787.936021" x2="2041.612999" y2="787.936021" stroke="black" stroke-width="4.05"/>
<line x1="2041.612999" y1="787.936021" x2="2041.612999" y2="1015.487334" stroke="black" stroke-width="4.05"/>
<line x1="2056.953535" y1="1015.487334" x2="2041.612999" y2="1015.487334" stroke="black" stroke-width="4.05"/>
<line x1="2064.600925" y1="1369.92258" x2="2064.600925" y2="1611.794646" stroke="black" stroke-width="4.05"/>
<line x1="2064.600925" y1="1611.794646" x2="2101.887493" y2="1611.794646" stroke="black" stroke-width="4.05"/>
<line x1="2101.887493" y1="1611.794646" x2="2101.887493" y2="1369.92258" stroke="black" stroke-width="4.05"/>
<line x1="2101.887493" y1="1369.92258" x2="2064.600925" y2="1369.92258" stroke="black" stroke-width="4.05"/>
<line x1="2101.396882" y1="1392.490764" x2="2065.09154" y2="1392.490764" stroke="black" stroke-width="4.05"/>
<line x1="2101.396882" y1="1588.73585" x2="2063.619702" y2="1588.73585" stroke="black" stroke-width="4.05"/>
<line x1="2084.225436" y1="1392.000152" x2="2084.225436" y2="1588.245235" stroke="black" stroke-width="4.05"/>
<line x1="144.255596" y1="1589.650286" x2="144.255596" y2="1347.795266" stroke="black" stroke-width="4.05"/>
<line x1="144.255596" y1="1347.795266" x2="100.996974" y2="1347.795266" stroke="black" stroke-width="4.05"/>
<line x1="100.996974" y1="1347.795266" x2="100.996974" y2="1589.650286" stroke="black" stroke-width="4.05"/>
<line x1="100.996974" y1="1589.650286" x2="144.255596" y2="1589.650286" stroke="black" stroke-width="4.05"/>
<line x1="144.255596" y1="1578.344054" x2="159.002856" y2="1578.344054" stroke="black" stroke-width="4.05"/>
<line x1="159.002856" y1="1578.344054" x2="159.002856" y2="1359.593071" stroke="black" stroke-width="4.05"/>
<line x1="144.255596" y1="1359.593071" x2="159.002856" y2="1359.593071" stroke="black" stroke-width="4.05"/>
<line x1="145.345295" y1="909.129312" x2="145.345295" y2="667.274292" stroke="black" stroke-width="4.05"/>
<line x1="145.345295" y1="667.274292" x2="102.086672" y2="667.274292" stroke="black" stroke-width="4.05"/>
<line x1="102.086672" y1="667.274292" x2="102.086672" y2="909.129312" stroke="black" stroke-width="4.05"/>
<line x1="102.086672" y1="909.129312" x2="145.345295" y2="909.129312" stroke="black" stroke-width="4.05"/>
<line x1="145.345295" y1="897.82308" x2="160.092554" y2="897.82308" stroke="black" stroke-width="4.05"/>
<line x1="160.092554" y1="897.82308" x2="160.092554" y2="679.072097" stroke="black" stroke-width="4.05"/>
<line x1="145.345295" y1="679.072097" x2="160.092554" y2="679.072097" stroke="black" stroke-width="4.05"/>
<line x1="144.414853" y1="445.02601" x2="144.414853" y2="203.17099" stroke="black" stroke-width="4.05"/>
<line x1="144.414853" y1="203.17099" x2="101.156231" y2="203.17099" stroke="black" stroke-width="4.05"/>
<line x1="101.156231" y1="203.17099" x2="101.156231" y2="445.02601" stroke="black" stroke-width="4.05"/>
<line x1="101.156231" y1="445.02601" x2="144.414853" y2="445.02601" stroke="black" stroke-width="4.05"/>
<line x1="144.414853" y1="433.719778" x2="159.162113" y2="433.719778" stroke="black" stroke-width="4.05"/>
<line x1="159.162113" y1="433.719778" x2="159.162113" y2="214.968794" stroke="black" stroke-width="4.05"/>
<line x1="144.414853" y1="214.968794" x2="159.162113" y2="214.968794" stroke="black" stroke-width="4.05"/>
<line x1="568.926439" y1="715.584312" x2="359.561236" y2="715.584312" stroke="black" stroke-width="4.05"/>
<line x1="359.561236" y1="715.584312" x2="359.561236" y2="1046.798716" stroke="black" stroke-width="4.05"/>
<line x1="359.561236" y1="1046.798716" x2="568.926439" y2="1046.798716" stroke="black" stroke-width="4.05"/>
<line x1="568.926439" y1="1046.798716" x2="568.926439" y2="715.584312" stroke="black" stroke-width="4.05"/>
<line x1="569.599639" y1="987.557112" x2="358.888036" y2="987.557112" stroke="black" stroke-width="4.05"/>
<line x1="358.888036" y1="987.557112" x2="568.253236" y2="937.740312" stroke="black" stroke-width="4.05"/>
<line x1="568.253236" y1="937.740312" x2="536.612836" y2="891.289512" stroke="black" stroke-width="4.05"/>
<line x1="536.612836" y1="891.289512" x2="358.888036" y2="988.230316" stroke="black" stroke-width="4.05"/>
<line x1="1110.575106" y1="1028.171776" x2="1110.575106" y2="1007.813491" stroke="black" stroke-width="4.05"/>
<line x1="1110.575106" y1="1007.813491" x2="1070.851626" y2="1007.813491" stroke="black" stroke-width="4.05"/>
<line x1="1070.851626" y1="1007.813491" x2="1070.851626" y2="1028.171776" stroke="black" stroke-width="4.05"/>
<line x1="1070.851626" y1="1028.171776" x2="1110.575106" y2="1028.171776" stroke="black" stroke-width="4.05"/>
<line x1="1070.851626" y1="808.699558" x2="872.730778" y2="808.699558" stroke="black" stroke-width="4.05"/>
<line x1="1111.568191" y1="808.203013" x2="1111.568191" y2="787.844732" stroke="black" stroke-width="4.05"/>
<line x1="1111.568191" y1="787.844732" x2="1071.844715" y2="787.844732" stroke="black" stroke-width="4.05"/>
<line x1="1071.844715" y1="787.844732" x2="1071.844715" y2="808.203013" stroke="black" stroke-width="4.05"/>
<line x1="1071.844715" y1="808.203013" x2="1111.568191" y2="808.203013" stroke="black" stroke-width="4.05"/>
<path d="m 1072.341256,1007.813491 a 199.11393349999997,199.11393349999997 0 0 1 -199.11393399999997,-199.11393299999997" fill="none" stroke="black" stroke-width="4.05"/>
<line x1="913.136738" y1="247.05077" x2="1080.250153" y2="247.05077" stroke="black" stroke-width="4.05"/>
<line x1="1080.250153" y1="247.05077" x2="1080.250153" y2="414.506628" stroke="black" stroke-width="4.05"/>
<line x1="1080.250153" y1="414.506628" x2="913.136738" y2="414.506628" stroke="black" stroke-width="4.05"/>
<line x1="913.136738" y1="414.506628" x2="913.136738" y2="247.05077" stroke="black" stroke-width="4.05"/>
<line x1="912.794296" y1="246.708324" x2="1080.250153" y2="414.506628" stroke="black" stroke-width="4.05"/>
<line x1="913.136738" y1="414.164185" x2="1079.90771" y2="247.05077" stroke="black" stroke-width="4.05"/>
<line x1="324.335894" y1="150.071296" x2="201.437053" y2="319.227041" stroke="black" stroke-width="4.05"/>
<line x1="201.437053" y1="319.227041" x2="389.04615" y2="455.533034" stroke="black" stroke-width="4.05"/>
<line x1="389.04615" y1="455.533034" x2="511.944995" y2="286.377286" stroke="black" stroke-width="4.05"/>
<line x1="511.944995" y1="286.377286" x2="324.335894" y2="150.071296" stroke="black" stroke-width="4.05"/>
<line x1="350.478148" y1="169.064755" x2="227.579303" y2="338.2205" stroke="black" stroke-width="4.05"/>
<line x1="1637.344138" y1="572.730257" x2="2030.644984" y2="572.730257" stroke="black" stroke-width="4.05"/>
<line x1="2030.644984" y1="572.730257" x2="2030.644984" y2="397.576033" stroke="black" stroke-width="4.05"/>
<line x1="2030.644984" y1="397.576033" x2="1637.344138" y2="397.576033" stroke="black" stroke-width="4.05"/>
<line x1="1637.344138" y1="397.576033" x2="1637.344138" y2="572.730257" stroke="black" stroke-width="4.05"/>
<line x1="1955.010204" y1="424.645322" x2="1669.190357" y2="424.645322" stroke="black" stroke-width="4.05"/>
<line x1="1669.190357" y1="424.645322" x2="1669.190357" y2="543.272501" stroke="black" stroke-width="4.05"/>
<line x1="1669.190357" y1="543.272501" x2="1960.583292" y2="543.272501" stroke="black" stroke-width="4.05"/>
<path d="m 1954.19538,424.388556 a 63.69244503127078,63.69244503127078 0 0 1 4.316342000000077,120.00067899999999" fill="none" stroke="black" stroke-width="4.05"/>
<line x1="1132.995863" y1="600.926753" x2="1153.236467" y2="600.926753" stroke="black" stroke-width="4.05"/>
<line x1="1153.236467" y1="600.926753" x2="1153.236467" y2="561.432888" stroke="black" stroke-width="4.05"/>
<line x1="1153.236467" y1="561.432888" x2="1132.995863" y2="561.432888" stroke="black" stroke-width="4.05"/>
<line x1="1132.995863" y1="561.432888" x2="1132.995863" y2="600.926753" stroke="black" stroke-width="4.05"/>
<line x1="1351.199455" y1="561.432888" x2="1351.199455" y2="364.45725" stroke="black" stroke-width="4.05"/>
<line x1="1351.693127" y1="601.9141" x2="1371.933731" y2="601.9141" stroke="black" stroke-width="4.05"/>
<line x1="1371.933731" y1="601.9141" x2="1371.933731" y2="562.420235" stroke="black" stroke-width="4.05"/>
<line x1="1371.933731" y1="562.420235" x2="1351.693127" y2="562.420235" stroke="black" stroke-width="4.05"/>
<line x1="1351.693127" y1="562.420235" x2="1351.693127" y2="601.9141" stroke="black" stroke-width="4.05"/>
<path d="m 1153.236467,562.91391 a 197.962988,197.962988 0 0 1 197.962988,-197.962988" fill="none" stroke="black" stroke-width="4.05"/>
<line x1="1239.537953" y1="118.001462" x2="1510.085153" y2="118.001462" stroke="black" stroke-width="4.05"/>
<line x1="1510.085153" y1="118.001462" x2="1510.085153" y2="249.948662" stroke="black" stroke-width="4.05"/>
<line x1="1239.537953" y1="249.948662" x2="1510.085153" y2="249.948662" stroke="black" stroke-width="4.05"/>
<line x1="1239.537953" y1="118.001462" x2="1239.537953" y2="249.948662" stroke="black" stroke-width="4.05"/>
<line x1="1246.190753" y1="124.654262" x2="1384.236353" y2="124.654262" stroke="black" stroke-width="4.05"/>
<line x1="1384.236353" y1="124.654262" x2="1384.236353" y2="242.741462" stroke="black" stroke-width="4.05"/>
<line x1="1246.190753" y1="242.741462" x2="1384.236353" y2="242.741462" stroke="black" stroke-width="4.05"/>
<line x1="1246.190753" y1="124.654262" x2="1246.190753" y2="242.741462" stroke="black" stroke-width="4.05"/>
<line x1="1398.650753" y1="132.415862" x2="1495.670753" y2="132.415862" stroke="black" stroke-width="4.05"/>
<line x1="1398.650753" y1="152.928662" x2="1495.670753" y2="152.928662" stroke="black" stroke-width="4.05"/>
<line x1="1399.205153" y1="173.995862" x2="1496.225153" y2="173.995862" stroke="black" stroke-width="4.05"/>
<line x1="1399.205153" y1="194.508662" x2="1496.225153" y2="194.508662" stroke="black" stroke-width="4.05"/>
<line x1="1398.650753" y1="215.021462" x2="1495.670753" y2="215.021462" stroke="black" stroke-width="4.05"/>
<line x1="1398.650753" y1="235.534262" x2="1495.670753" y2="235.534262" stroke="black" stroke-width="4.05"/>
<line x1="1298.858753" y1="242.741462" x2="1298.858753" y2="228.881462" stroke="black" stroke-width="4.05"/>
<line x1="1298.858753" y1="228.881462" x2="1333.231553" y2="228.881462" stroke="black" stroke-width="4.05"/>
<line x1="1333.231553" y1="228.881462" x2="1333.231553" y2="242.187062" stroke="black" stroke-width="4.05"/>
<circle cx="1368.713153" cy="139.623062" r="8.316000000000003" fill="none" stroke="black" stroke-width="4.05"/>
<line x1="2034.234756" y1="166.642459" x2="1850.312599" y2="166.642459" stroke="black" stroke-width="4.05"/>
<line x1="1850.312599" y1="166.642459" x2="1850.312599" y2="117.490849" stroke="black" stroke-width="4.05"/>
<line x1="2034.234756" y1="117.490849" x2="1850.312599" y2="117.490849" stroke="black" stroke-width="4.05"/>
<line x1="2034.234756" y1="166.642459" x2="2034.234756" y2="117.490849" stroke="black" stroke-width="4.05"/>
<line x1="1992.61444" y1="194.389337" x2="1992.61444" y2="166.642459" stroke="black" stroke-width="4.05"/>
<line x1="1893.518453" y1="166.642459" x2="1893.518453" y2="195.974874" stroke="black" stroke-width="4.05"/>
<circle cx="1943.859215" cy="239.577106" r="66.59250380904014" fill="none" stroke="black" stroke-width="4.05"/>
<circle cx="1943.859215" cy="239.577106" r="57.07928897917725" fill="none" stroke="black" stroke-width="4.05"/>
<line x1="1395.085691" y1="798.896383" x2="1395.085691" y2="819.136987" stroke="black" stroke-width="4.05"/>
<line x1="1395.085691" y1="819.136987" x2="1434.579556" y2="819.136987" stroke="black" stroke-width="4.05"/>
<line x1="1434.579556" y1="819.136987" x2="1434.579556" y2="798.896383" stroke="black" stroke-width="4.05"/>
<line x1="1434.579556" y1="798.896383" x2="1395.085691" y2="798.896383" stroke="black" stroke-width="4.05"/>
<line x1="1434.579556" y1="1017.099976" x2="1631.555194" y2="1017.099976" stroke="black" stroke-width="4.05"/>
<line x1="1394.098344" y1="1017.593647" x2="1394.098344" y2="1037.834251" stroke="black" stroke-width="4.05"/>
<line x1="1394.098344" y1="1037.834251" x2="1433.592209" y2="1037.834251" stroke="black" stroke-width="4.05"/>
<line x1="1433.592209" y1="1037.834251" x2="1433.592209" y2="1017.593647" stroke="black" stroke-width="4.05"/>
<line x1="1433.592209" y1="1017.593647" x2="1394.098344" y2="1017.593647" stroke="black" stroke-width="4.05"/>
<path d="m 1433.098534,819.136987 a 197.9629885,197.9629885 0 0 1 197.962988,197.962989" fill="none" stroke="black" stroke-width="4.05"/>
<line x1="1641.529015" y1="1696.176904" x2="1522.793293" y2="1754.088188" stroke="black" stroke-width="4.05"/>
<line x1="1522.793293" y1="1754.088188" x2="1516.543873" y2="1741.274978" stroke="black" stroke-width="4.05"/>
<line x1="1635.279599" y1="1683.363697" x2="1516.543873" y2="1741.274978" stroke="black" stroke-width="4.05"/>
<line x1="1641.529015" y1="1696.176904" x2="1635.279599" y2="1683.363697" stroke="black" stroke-width="4.05"/>
<line x1="1623.320604" y1="1689.196489" x2="1611.28031" y2="1660.174175" stroke="black" stroke-width="4.05"/>
<line x1="1528.502868" y1="1735.442186" x2="1512.629089" y2="1707.232172" stroke="black" stroke-width="4.05"/>
<line x1="1439.464468" y1="1281.883183" x2="1320.728738" y2="1339.794464" stroke="black" stroke-width="4.05"/>
<line x1="1320.728738" y1="1339.794464" x2="1326.561534" y2="1351.753459" stroke="black" stroke-width="4.05"/>
<line x1="1445.29726" y1="1293.842178" x2="1326.561534" y2="1351.753459" stroke="black" stroke-width="4.05"/>
<line x1="1439.464468" y1="1281.883183" x2="1445.29726" y2="1293.842178" stroke="black" stroke-width="4.05"/>
<line x1="1435.025736" y1="1300.966769" x2="1450.482883" y2="1328.322568" stroke="black" stroke-width="4.05"/>
<line x1="1340.207996" y1="1347.212466" x2="1351.810703" y2="1377.505624" stroke="black" stroke-width="4.05"/>
<line x1="1303.791876" y1="1677.969194" x2="1316.605082" y2="1671.719774" stroke="black" stroke-width="4.05"/>
<line x1="1316.605082" y1="1671.719774" x2="1258.693798" y2="1552.984049" stroke="black" stroke-width="4.05"/>
<line x1="1245.880591" y1="1559.233469" x2="1258.693798" y2="1552.984049" stroke="black" stroke-width="4.05"/>
<line x1="1303.791876" y1="1677.969194" x2="1245.880591" y2="1559.233469" stroke="black" stroke-width="4.05"/>
<line x1="1264.943218" y1="1565.797255" x2="1292.736604" y2="1549.069265" stroke="black" stroke-width="4.05"/>
<line x1="1310.77229" y1="1659.760783" x2="1340.64882" y2="1647.303862" stroke="black" stroke-width="4.05"/>
<line x1="1717.648009" y1="1477.175486" x2="1704.834806" y2="1483.424903" stroke="black" stroke-width="4.05"/>
<line x1="1704.834806" y1="1483.424903" x2="1646.923518" y2="1364.689177" stroke="black" stroke-width="4.05"/>
<line x1="1659.736728" y1="1358.439761" x2="1646.923518" y2="1364.689177" stroke="black" stroke-width="4.05"/>
<line x1="1717.648009" y1="1477.175486" x2="1659.736728" y2="1358.439761" stroke="black" stroke-width="4.05"/>
<line x1="1653.172938" y1="1377.502387" x2="1622.879784" y2="1389.105094" stroke="black" stroke-width="4.05"/>
<line x1="1699.002014" y1="1471.465912" x2="1670.791997" y2="1487.33969" stroke="black" stroke-width="4.05"/>
<circle cx="1481.764302" cy="1518.204474" r="191.98080000000002" fill="none" stroke="black" stroke-width="4.05"/>
<line x1="694.55601" y1="1270.405984" x2="694.55601" y2="1080.325984" stroke="black" stroke-width="4.05"/>
<line x1="694.55601" y1="1080.325984" x2="230.76081" y2="1080.325984" stroke="black" stroke-width="4.05"/>
<line x1="230.76081" y1="1080.325984" x2="230.76081" y2="1270.405984" stroke="black" stroke-width="4.05"/>
<line x1="230.76081" y1="1270.405984" x2="254.52081" y2="1270.405984" stroke="black" stroke-width="4.05"/>
<line x1="254.52081" y1="1270.405984" x2="254.52081" y2="1103.135584" stroke="black" stroke-width="4.05"/>
<line x1="254.52081" y1="1103.135584" x2="669.84561" y2="1103.135584" stroke="black" stroke-width="4.05"/>
<line x1="669.84561" y1="1103.135584" x2="669.84561" y2="1270.405984" stroke="black" stroke-width="4.05"/>
<line x1="669.84561" y1="1270.405984" x2="694.55601" y2="1270.405984" stroke="black" stroke-width="4.05"/>
<line x1="669.84561" y1="1264.703584" x2="254.52081" y2="1264.703584" stroke="black" stroke-width="4.05"/>
<line x1="462.65841" y1="1265.653984" x2="462.65841" y2="1104.085984" stroke="black" stroke-width="4.05"/>
<line x1="624.229502" y1="1374.173053" x2="721.472944" y2="1444.824547" stroke="black" stroke-width="4.049996"/>
<line x1="721.472944" y1="1444.824547" x2="650.676672" y2="1542.267259" stroke="black" stroke-width="4.049996"/>
<line x1="650.676672" y1="1542.267259" x2="553.433231" y2="1471.615762" stroke="black" stroke-width="4.049996"/>
<line x1="553.433231" y1="1471.615762" x2="624.229502" y2="1374.173053" stroke="black" stroke-width="4.049996"/>
<line x1="624.175013" y1="1373.829005" x2="650.676672" y2="1542.267259" stroke="black" stroke-width="4.049996"/>
<line x1="553.578008" y1="1471.416491" x2="721.273673" y2="1444.67977" stroke="black" stroke-width="4.049996"/>
<line x1="1819.466222" y1="1954.352304" x2="1819.466222" y2="1722.454704" stroke="black" stroke-width="4.05"/>
<line x1="1819.466222" y1="1722.454704" x2="2051.839022" y2="1722.454704" stroke="black" stroke-width="4.05"/>
<line x1="2051.839022" y1="1722.454704" x2="2051.839022" y2="1954.352304" stroke="black" stroke-width="4.05"/>
<line x1="2051.839022" y1="1954.352304" x2="1819.466222" y2="1954.352304" stroke="black" stroke-width="4.05"/>
<line x1="1818.991022" y1="1954.827504" x2="2051.839022" y2="1722.454704" stroke="black" stroke-width="4.05"/>
<line x1="2051.363822" y1="1954.352304" x2="1819.466222" y2="1722.929904" stroke="black" stroke-width="4.05"/>
<line x1="1020.147973" y1="1709.496284" x2="1137.0685" y2="1536.154474" stroke="black" stroke-width="4.05"/>
<line x1="1137.0685" y1="1536.154474" x2="944.816677" y2="1406.478985" stroke="black" stroke-width="4.05"/>
<line x1="944.816677" y1="1406.478985" x2="827.896151" y2="1579.820792" stroke="black" stroke-width="4.05"/>
<line x1="827.896151" y1="1579.820792" x2="1020.147973" y2="1709.496284" stroke="black" stroke-width="4.05"/>
<line x1="993.358786" y1="1691.426747" x2="1110.279308" y2="1518.08494" stroke="black" stroke-width="4.05"/>
<line x1="1799.832056" y1="1048.556923" x2="2008.920056" y2="1048.556923" stroke="black" stroke-width="4.05"/>
<line x1="2008.920056" y1="1048.556923" x2="2008.920056" y2="816.659323" stroke="black" stroke-width="4.05"/>
<line x1="2008.920056" y1="816.659323" x2="1799.832056" y2="816.659323" stroke="black" stroke-width="4.05"/>
<line x1="1799.832056" y1="816.659323" x2="1799.832056" y2="1048.556923" stroke="black" stroke-width="4.05"/>
<line x1="1799.832056" y1="1016.243323" x2="2008.920056" y2="1016.243323" stroke="black" stroke-width="4.05"/>
<line x1="196.260952" y1="1625.166342" x2="377.336473" y2="1729.710342" stroke="black" stroke-width="4.05"/>
<line x1="377.336473" y1="1729.710342" x2="493.285273" y2="1528.881131" stroke="black" stroke-width="4.05"/>
<line x1="493.285273" y1="1528.881131" x2="312.209752" y2="1424.337127" stroke="black" stroke-width="4.05"/>
<line x1="312.209752" y1="1424.337127" x2="196.260952" y2="1625.166342" stroke="black" stroke-width="4.05"/>
<line x1="212.417752" y1="1597.181944" x2="393.493273" y2="1701.725944" stroke="black" stroke-width="4.05"/>
<line x1="1666.989774" y1="604.690222" x2="1833.081988" y2="604.690222" stroke="black" stroke-width="4.05"/>
<line x1="1833.081988" y1="604.690222" x2="1833.081988" y2="771.122786" stroke="black" stroke-width="4.05"/>
<line x1="1833.081988" y1="771.122786" x2="1666.989774" y2="771.122786" stroke="black" stroke-width="4.05"/>
<line x1="1666.989774" y1="771.122786" x2="1666.989774" y2="604.690222" stroke="black" stroke-width="4.05"/>
<line x1="1666.649423" y1="604.34987" x2="1833.081988" y2="771.122786" stroke="black" stroke-width="4.05"/>
<line x1="1666.989774" y1="770.782435" x2="1832.741633" y2="604.690222" stroke="black" stroke-width="4.05"/>
<line x1="1832.995789" y1="604.424074" x2="1999.088003" y2="604.424074" stroke="black" stroke-width="4.05"/>
<line x1="1999.088003" y1="604.424074" x2="1999.088003" y2="770.856638" stroke="black" stroke-width="4.05"/>
<line x1="1999.088003" y1="770.856638" x2="1832.995789" y2="770.856638" stroke="black" stroke-width="4.05"/>
<line x1="1832.995789" y1="770.856638" x2="1832.995789" y2="604.424074" stroke="black" stroke-width="4.05"/>
<line x1="1832.655438" y1="604.083722" x2="1999.088003" y2="770.856638" stroke="black" stroke-width="4.05"/>
<line x1="1832.995789" y1="770.516287" x2="1998.747648" y2="604.424074" stroke="black" stroke-width="4.05"/>
<line x1="1501.570829" y1="604.276909" x2="1667.663042" y2="604.276909" stroke="black" stroke-width="4.05"/>
<line x1="1667.663042" y1="604.276909" x2="1667.663042" y2="770.709474" stroke="black" stroke-width="4.05"/>
<line x1="1667.663042" y1="770.709474" x2="1501.570829" y2="770.709474" stroke="black" stroke-width="4.05"/>
<line x1="1501.570829" y1="770.709474" x2="1501.570829" y2="604.276909" stroke="black" stroke-width="4.05"/>
<line x1="1501.230478" y1="603.936558" x2="1667.663042" y2="770.709474" stroke="black" stroke-width="4.05"/>
<line x1="1501.570829" y1="770.369123" x2="1667.322688" y2="604.276909" stroke="black" stroke-width="4.05"/>
<line x1="1886.55296" y1="1077.238843" x2="2052.645174" y2="1077.238843" stroke="black" stroke-width="4.05"/>
<line x1="2052.645174" y1="1077.238843" x2="2052.645174" y2="1243.671408" stroke="black" stroke-width="4.05"/>
<line x1="2052.645174" y1="1243.671408" x2="1886.55296" y2="1243.671408" stroke="black" stroke-width="4.05"/>
<line x1="1886.55296" y1="1243.671408" x2="1886.55296" y2="1077.238843" stroke="black" stroke-width="4.05"/>
<line x1="1886.212609" y1="1076.898492" x2="2052.645174" y2="1243.671408" stroke="black" stroke-width="4.05"/>
<line x1="1886.55296" y1="1243.331057" x2="2052.304819" y2="1077.238843" stroke="black" stroke-width="4.05"/>
<line x1="1915.896632" y1="1644.870398" x2="1915.896632" y2="1251.626526" stroke="black" stroke-width="4.05"/>
<line x1="1914.90035" y1="1247.67112" x2="2050.969126" y2="1247.67112" stroke="black" stroke-width="4.05"/>
<line x1="2052.120632" y1="1644.406009" x2="2052.120632" y2="1247.365778" stroke="black" stroke-width="4.05"/>
<line x1="1916.591382" y1="1643.67112" x2="2051.855438" y2="1643.67112" stroke="black" stroke-width="4.05"/>
<line x1="1926.984632" y1="1633.37512" x2="1926.984632" y2="1509.82312" stroke="black" stroke-width="4.05"/>
<line x1="1926.984632" y1="1509.82312" x2="2041.032632" y2="1509.82312" stroke="black" stroke-width="4.05"/>
<line x1="2041.032632" y1="1633.37512" x2="2041.032632" y2="1509.82312" stroke="black" stroke-width="4.05"/>
<line x1="1926.984632" y1="1633.37512" x2="2041.032632" y2="1633.37512" stroke="black" stroke-width="4.05"/>
<line x1="1934.112632" y1="1490.81512" x2="1934.112632" y2="1403.69512" stroke="black" stroke-width="4.05"/>
<line x1="1953.912632" y1="1490.81512" x2="1953.912632" y2="1403.69512" stroke="black" stroke-width="4.05"/>
<line x1="1974.504632" y1="1490.02312" x2="1974.504632" y2="1403.69512" stroke="black" stroke-width="4.05"/>
<line x1="1994.304632" y1="1490.02312" x2="1994.304632" y2="1403.69512" stroke="black" stroke-width="4.05"/>
<line x1="2014.104632" y1="1490.81512" x2="2014.104632" y2="1403.69512" stroke="black" stroke-width="4.05"/>
<line x1="2033.904632" y1="1490.81512" x2="2033.904632" y2="1403.69512" stroke="black" stroke-width="4.05"/>
<line x1="2040.240632" y1="1585.85512" x2="2026.776632" y2="1585.85512" stroke="black" stroke-width="4.05"/>
<line x1="2026.776632" y1="1585.85512" x2="2026.776632" y2="1555.75912" stroke="black" stroke-width="4.05"/>
<line x1="2026.776632" y1="1555.75912" x2="2039.448632" y2="1555.75912" stroke="black" stroke-width="4.05"/>
<line x1="1926.984632" y1="1383.10312" x2="1926.984632" y2="1259.55112" stroke="black" stroke-width="4.05"/>
<line x1="1926.984632" y1="1259.55112" x2="2041.032632" y2="1259.55112" stroke="black" stroke-width="4.05"/>
<line x1="2041.032632" y1="1383.10312" x2="2041.032632" y2="1259.55112" stroke="black" stroke-width="4.05"/>
<line x1="1926.984632" y1="1383.10312" x2="2041.032632" y2="1383.10312" stroke="black" stroke-width="4.05"/>
<line x1="2041.032632" y1="1335.58312" x2="2027.568632" y2="1335.58312" stroke="black" stroke-width="4.05"/>
<line x1="2027.568632" y1="1335.58312" x2="2027.568632" y2="1305.48712" stroke="black" stroke-width="4.05"/>
<line x1="2027.568632" y1="1305.48712" x2="2040.240632" y2="1305.48712" stroke="black" stroke-width="4.05"/>
<circle cx="1941.240632" cy="1524.07912" r="7.128000000000001" fill="none" stroke="black" stroke-width="4.05"/>
<circle cx="1942.032632" cy="1273.80712" r="7.128000000000001" fill="none" stroke="black" stroke-width="4.05"/>
</g>
</svg>
