<?xml version="1.0"?>
<svg xmlns:xlink="http://www.w3.org/1999/xlink" width="2170.8" height="2138.4">
<image x="0" y="0" width="2170.8" height="2138.4" xlink:href="ground16-04.png"/>
<g style="stroke-linecap:round">
<line x1="355.533062" y1="110.352848" x2="594.608141" y2="110.352848" stroke="black" stroke-width="4.05"/>
<line x1="594.608141" y1="110.352848" x2="594.608141" y2="67.591451" stroke="black" stroke-width="4.05"/>
<line x1="594.608141" y1="67.591451" x2="355.533062" y2="67.591451" stroke="black" stroke-width="4.05"/>
<line x1="355.533062" y1="67.591451" x2="355.533062" y2="110.352848" stroke="black" stroke-width="4.05"/>
<line x1="366.709334" y1="110.352848" x2="366.709334" y2="124.930598" stroke="black" stroke-width="4.05"/>
<line x1="366.709334" y1="124.930598" x2="582.945941" y2="124.930598" stroke="black" stroke-width="4.05"/>
<line x1="582.945941" y1="110.352848" x2="582.945941" y2="124.930598" stroke="black" stroke-width="4.05"/>
<line x1="1586.405599" y1="111.127352" x2="1826.175665" y2="111.127352" stroke="black" stroke-width="4.05"/>
<line x1="1826.175665" y1="111.127352" x2="1826.175665" y2="68.24165" stroke="black" stroke-width="4.05"/>
<line x1="1826.175665" y1="68.24165" x2="1586.405599" y2="68.24165" stroke="black" stroke-width="4.05"/>
<line x1="1586.405599" y1="68.24165" x2="1586.405599" y2="111.127352" stroke="black" stroke-width="4.05"/>
<line x1="1597.614361" y1="111.127352" x2="1597.614361" y2="125.747478" stroke="black" stroke-width="4.05"/>
<line x1="1597.614361" y1="125.747478" x2="1814.479564" y2="125.747478" stroke="black" stroke-width="4.05"/>
<line x1="1814.479564" y1="111.127352" x2="1814.479564" y2="125.747478" stroke="black" stroke-width="4.05"/>
<line x1="455.155898" y1="2015.675204" x2="214.690846" y2="2015.675204" stroke="black" stroke-width="4.05"/>
<line x1="214.690846" y1="2015.675204" x2="214.690846" y2="2058.685214" stroke="black" stroke-width="4.05"/>
<line x1="214.690846" y1="2058.685214" x2="455.155898" y2="2058.685214" stroke="black" stroke-width="4.05"/>
<line x1="455.155898" y1="2058.685214" x2="455.155898" y2="2015.675204" stroke="black" stroke-width="4.05"/>
<line x1="443.914646" y1="2015.675204" x2="443.914646" y2="2001.012703" stroke="black" stroke-width="4.05"/>
<line x1="443.914646" y1="2001.012703" x2="226.420848" y2="2001.012703" stroke="black" stroke-width="4.05"/>
<line x1="226.420848" y1="2015.675204" x2="226.420848" y2="2001.012703" stroke="black" stroke-width="4.05"/>
<line x1="1004.406336" y1="2020.979012" x2="764.619372" y2="2020.979012" stroke="black" stroke-width="4.05"/>
<line x1="764.619372" y1="2020.979012" x2="764.619372" y2="2057.944144" stroke="black" stroke-width="4.05"/>
<line x1="764.619372" y1="2057.944144" x2="1004.406336" y2="2057.944144" stroke="black" stroke-width="4.05"/>
<line x1="1004.406336" y1="2057.944144" x2="1004.406336" y2="2020.979012" stroke="black" stroke-width="4.05"/>
<line x1="982.032703" y1="2057.457758" x2="982.032703" y2="2021.465398" stroke="black" stroke-width="4.05"/>
<line x1="787.479386" y1="2057.457758" x2="787.479386" y2="2020.006246" stroke="black" stroke-width="4.05"/>
<line x1="982.519088" y1="2040.434345" x2="787.965772" y2="2040.434345" stroke="black" stroke-width="4.05"/>
<line x1="1502.318696" y1="2015.331124" x2="1262.548631" y2="2015.331124" stroke="black" stroke-width="4.05"/>
<line x1="1262.548631" y1="2015.331124" x2="1262.548631" y2="2058.216826" stroke="black" stroke-width="4.05"/>
<line x1="1262.548631" y1="2058.216826" x2="1502.318696" y2="2058.216826" stroke="black" stroke-width="4.05"/>
<line x1="1502.318696" y1="2058.216826" x2="1502.318696" y2="2015.331124" stroke="black" stroke-width="4.05"/>
<line x1="1491.109934" y1="2015.331124" x2="1491.109934" y2="2000.710998" stroke="black" stroke-width="4.05"/>
<line x1="1491.109934" y1="2000.710998" x2="1274.244732" y2="2000.710998" stroke="black" stroke-width="4.05"/>
<line x1="1274.244732" y1="2015.331124" x2="1274.244732" y2="2000.710998" stroke="black" stroke-width="4.05"/>
<line x1="1977.071191" y1="2021.28741" x2="1737.284227" y2="2021.28741" stroke="black" stroke-width="4.05"/>
<line x1="1737.284227" y1="2021.28741" x2="1737.284227" y2="2058.252541" stroke="black" stroke-width="4.05"/>
<line x1="1737.284227" y1="2058.252541" x2="1977.071191" y2="2058.252541" stroke="black" stroke-width="4.05"/>
<line x1="1977.071191" y1="2058.252541" x2="1977.071191" y2="2021.28741" stroke="black" stroke-width="4.05"/>
<line x1="1954.697558" y1="2057.766156" x2="1954.697558" y2="2021.773795" stroke="black" stroke-width="4.05"/>
<line x1="1760.144242" y1="2057.766156" x2="1760.144242" y2="2020.314643" stroke="black" stroke-width="4.05"/>
<line x1="1955.183944" y1="2040.742742" x2="1760.630627" y2="2040.742742" stroke="black" stroke-width="4.05"/>
<line x1="2058.575306" y1="203.989972" x2="2058.575306" y2="444.455024" stroke="black" stroke-width="4.05"/>
<line x1="2058.575306" y1="444.455024" x2="2101.585316" y2="444.455024" stroke="black" stroke-width="4.05"/>
<line x1="2101.585316" y1="444.455024" x2="2101.585316" y2="203.989972" stroke="black" stroke-width="4.05"/>
<line x1="2101.585316" y1="203.989972" x2="2058.575306" y2="203.989972" stroke="black" stroke-width="4.05"/>
<line x1="2058.575306" y1="215.231224" x2="2043.912805" y2="215.231224" stroke="black" stroke-width="4.05"/>
<line x1="2043.912805" y1="215.231224" x2="2043.912805" y2="432.725022" stroke="black" stroke-width="4.05"/>
<line x1="2058.575306" y1="432.725022" x2="2043.912805" y2="432.725022" stroke="black" stroke-width="4.05"/>
<line x1="2062.857866" y1="776.16608" x2="2062.857866" y2="1027.768633" stroke="black" stroke-width="4.05"/>
<line x1="2062.857866" y1="1027.768633" x2="2101.644464" y2="1027.768633" stroke="black" stroke-width="4.05"/>
<line x1="2101.644464" y1="1027.768633" x2="2101.644464" y2="776.16608" stroke="black" stroke-width="4.05"/>
<line x1="2101.644464" y1="776.16608" x2="2062.857866" y2="776.16608" stroke="black" stroke-width="4.05"/>
<line x1="2101.134114" y1="799.642181" x2="2063.368217" y2="799.642181" stroke="black" stroke-width="4.05"/>
<line x1="2101.134114" y1="1003.782182" x2="2061.837166" y2="1003.782182" stroke="black" stroke-width="4.05"/>
<line x1="2083.271864" y1="799.13183" x2="2083.271864" y2="1003.271832" stroke="black" stroke-width="4.05"/>
<line x1="2064.600925" y1="1369.92258" x2="2064.600925" y2="1611.794646" stroke="black" stroke-width="4.05"/>
<line x1="2064.600925" y1="1611.794646" x2="2101.887493" y2="1611.794646" stroke="black" stroke-width="4.05"/>
<line x1="2101.887493" y1="1611.794646" x2="2101.887493" y2="1369.92258" stroke="black" stroke-width="4.05"/>
<line x1="2101.887493" y1="1369.92258" x2="2064.600925" y2="1369.92258" stroke="black" stroke-width="4.05"/>
<line x1="2101.396882" y1="1392.490764" x2="2065.09154" y2="1392.490764" stroke="black" stroke-width="4.05"/>
<line x1="2101.396882" y1="1588.73585" x2="2063.619702" y2="1588.73585" stroke="black" stroke-width="4.05"/>
<line x1="2084.225436" y1="1392.000152" x2="2084.225436" y2="1588.245235" stroke="black" stroke-width="4.05"/>
<line x1="138.283542" y1="1589.658811" x2="138.283542" y2="1347.786745" stroke="black" stroke-width="4.05"/>
<line x1="138.283542" y1="1347.786745" x2="100.996974" y2="1347.786745" stroke="black" stroke-width="4.05"/>
<line x1="100.996974" y1="1347.786745" x2="100.996974" y2="1589.658811" stroke="black" stroke-width="4.05"/>
<line x1="100.996974" y1="1589.658811" x2="138.283542" y2="1589.658811" stroke="black" stroke-width="4.05"/>
<line x1="101.487586" y1="1567.090627" x2="137.792927" y2="1567.090627" stroke="black" stroke-width="4.05"/>
<line x1="101.487586" y1="1370.845541" x2="139.264765" y2="1370.845541" stroke="black" stroke-width="4.05"/>
<line x1="118.659031" y1="1567.581239" x2="118.659031" y2="1371.336156" stroke="black" stroke-width="4.05"/>
<line x1="139.37324" y1="909.137837" x2="139.37324" y2="667.265771" stroke="black" stroke-width="4.05"/>
<line x1="139.37324" y1="667.265771" x2="102.086672" y2="667.265771" stroke="black" stroke-width="4.05"/>
<line x1="102.086672" y1="667.265771" x2="102.086672" y2="909.137837" stroke="black" stroke-width="4.05"/>
<line x1="102.086672" y1="909.137837" x2="139.37324" y2="909.137837" stroke="black" stroke-width="4.05"/>
<line x1="102.577284" y1="886.569653" x2="138.882625" y2="886.569653" stroke="black" stroke-width="4.05"/>
<line x1="102.577284" y1="690.324566" x2="140.354464" y2="690.324566" stroke="black" stroke-width="4.05"/>
<line x1="119.74873" y1="887.060264" x2="119.74873" y2="690.815182" stroke="black" stroke-width="4.05"/>
<line x1="138.442799" y1="445.034534" x2="138.442799" y2="203.162468" stroke="black" stroke-width="4.05"/>
<line x1="138.442799" y1="203.162468" x2="101.156231" y2="203.162468" stroke="black" stroke-width="4.05"/>
<line x1="101.156231" y1="203.162468" x2="101.156231" y2="445.034534" stroke="black" stroke-width="4.05"/>
<line x1="101.156231" y1="445.034534" x2="138.442799" y2="445.034534" stroke="black" stroke-width="4.05"/>
<line x1="101.646842" y1="422.46635" x2="137.952184" y2="422.46635" stroke="black" stroke-width="4.05"/>
<line x1="101.646842" y1="226.221264" x2="139.424022" y2="226.221264" stroke="black" stroke-width="4.05"/>
<line x1="118.818288" y1="422.956962" x2="118.818288" y2="226.711879" stroke="black" stroke-width="4.05"/>
<line x1="598.266058" y1="715.653346" x2="388.900854" y2="715.653346" stroke="black" stroke-width="4.05"/>
<line x1="388.900854" y1="715.653346" x2="388.900854" y2="1046.867749" stroke="black" stroke-width="4.05"/>
<line x1="388.900854" y1="1046.867749" x2="598.266058" y2="1046.867749" stroke="black" stroke-width="4.05"/>
<line x1="598.266058" y1="1046.867749" x2="598.266058" y2="715.653346" stroke="black" stroke-width="4.05"/>
<line x1="598.939258" y1="987.626146" x2="388.227654" y2="987.626146" stroke="black" stroke-width="4.05"/>
<line x1="388.227654" y1="987.626146" x2="597.592854" y2="937.809346" stroke="black" stroke-width="4.05"/>
<line x1="597.592854" y1="937.809346" x2="565.952454" y2="891.358546" stroke="black" stroke-width="4.05"/>
<line x1="565.952454" y1="891.358546" x2="388.227654" y2="988.299349" stroke="black" stroke-width="4.05"/>
<line x1="1110.575106" y1="1028.171776" x2="1110.575106" y2="1007.813491" stroke="black" stroke-width="4.05"/>
<line x1="1110.575106" y1="1007.813491" x2="1070.851626" y2="1007.813491" stroke="black" stroke-width="4.05"/>
<line x1="1070.851626" y1="1007.813491" x2="1070.851626" y2="1028.171776" stroke="black" stroke-width="4.05"/>
<line x1="1070.851626" y1="1028.171776" x2="1110.575106" y2="1028.171776" stroke="black" stroke-width="4.05"/>
<line x1="1070.851626" y1="808.699558" x2="872.730778" y2="808.699558" stroke="black" stroke-width="4.05"/>
<line x1="1111.568191" y1="808.203013" x2="1111.568191" y2="787.844732" stroke="black" stroke-width="4.05"/>
<line x1="1111.568191" y1="787.844732" x2="1071.844715" y2="787.844732" stroke="black" stroke-width="4.05"/>
<line x1="1071.844715" y1="787.844732" x2="1071.844715" y2="808.203013" stroke="black" stroke-width="4.05"/>
<line x1="1071.844715" y1="808.203013" x2="1111.568191" y2="808.203013" stroke="black" stroke-width="4.05"/>
<path d="m 1072.341256,1007.813491 a 199.11393349999997,199.11393349999997 0 0 1 -199.11393399999997,-199.11393299999997" fill="none" stroke="black" stroke-width="4.05"/>
<line x1="913.136738" y1="247.05077" x2="1080.250153" y2="247.05077" stroke="black" stroke-width="4.05"/>
<line x1="1080.250153" y1="247.05077" x2="1080.250153" y2="414.506628" stroke="black" stroke-width="4.05"/>
<line x1="1080.250153" y1="414.506628" x2="913.136738" y2="414.506628" stroke="black" stroke-width="4.05"/>
<line x1="913.136738" y1="414.506628" x2="913.136738" y2="247.05077" stroke="black" stroke-width="4.05"/>
<line x1="912.794296" y1="246.708324" x2="1080.250153" y2="414.506628" stroke="black" stroke-width="4.05"/>
<line x1="913.136738" y1="414.164185" x2="1079.90771" y2="247.05077" stroke="black" stroke-width="4.05"/>
<line x1="345.906803" y1="147.054701" x2="200.662074" y2="297.460022" stroke="black" stroke-width="4.05"/>
<line x1="200.662074" y1="297.460022" x2="367.475249" y2="458.549633" stroke="black" stroke-width="4.05"/>
<line x1="367.475249" y1="458.549633" x2="512.719978" y2="308.144308" stroke="black" stroke-width="4.05"/>
<line x1="512.719978" y1="308.144308" x2="345.906803" y2="147.054701" stroke="black" stroke-width="4.05"/>
<line x1="369.151265" y1="169.501612" x2="223.906532" y2="319.906933" stroke="black" stroke-width="4.05"/>
<line x1="1637.344138" y1="572.730257" x2="2030.644984" y2="572.730257" stroke="black" stroke-width="4.05"/>
<line x1="2030.644984" y1="572.730257" x2="2030.644984" y2="397.576033" stroke="black" stroke-width="4.05"/>
<line x1="2030.644984" y1="397.576033" x2="1637.344138" y2="397.576033" stroke="black" stroke-width="4.05"/>
<line x1="1637.344138" y1="397.576033" x2="1637.344138" y2="572.730257" stroke="black" stroke-width="4.05"/>
<line x1="1955.010204" y1="424.645322" x2="1669.190357" y2="424.645322" stroke="black" stroke-width="4.05"/>
<line x1="1669.190357" y1="424.645322" x2="1669.190357" y2="543.272501" stroke="black" stroke-width="4.05"/>
<line x1="1669.190357" y1="543.272501" x2="1960.583292" y2="543.272501" stroke="black" stroke-width="4.05"/>
<path d="m 1954.19538,424.388556 a 63.69244503127078,63.69244503127078 0 0 1 4.316342000000077,120.00067899999999" fill="none" stroke="black" stroke-width="4.05"/>
<line x1="1132.995863" y1="600.926753" x2="1153.236467" y2="600.926753" stroke="black" stroke-width="4.05"/>
<line x1="1153.236467" y1="600.926753" x2="1153.236467" y2="561.432888" stroke="black" stroke-width="4.05"/>
<line x1="1153.236467" y1="561.432888" x2="1132.995863" y2="561.432888" stroke="black" stroke-width="4.05"/>
<line x1="1132.995863" y1="561.432888" x2="1132.995863" y2="600.926753" stroke="black" stroke-width="4.05"/>
<line x1="1351.199455" y1="561.432888" x2="1351.199455" y2="364.45725" stroke="black" stroke-width="4.05"/>
<line x1="1351.693127" y1="601.9141" x2="1371.933731" y2="601.9141" stroke="black" stroke-width="4.05"/>
<line x1="1371.933731" y1="601.9141" x2="1371.933731" y2="562.420235" stroke="black" stroke-width="4.05"/>
<line x1="1371.933731" y1="562.420235" x2="1351.693127" y2="562.420235" stroke="black" stroke-width="4.05"/>
<line x1="1351.693127" y1="562.420235" x2="1351.693127" y2="601.9141" stroke="black" stroke-width="4.05"/>
<path d="m 1153.236467,562.91391 a 197.962988,197.962988 0 0 1 197.962988,-197.962988" fill="none" stroke="black" stroke-width="4.05"/>
<line x1="2034.234756" y1="166.642459" x2="1850.312599" y2="166.642459" stroke="black" stroke-width="4.05"/>
<line x1="1850.312599" y1="166.642459" x2="1850.312599" y2="117.490849" stroke="black" stroke-width="4.05"/>
<line x1="2034.234756" y1="117.490849" x2="1850.312599" y2="117.490849" stroke="black" stroke-width="4.05"/>
<line x1="2034.234756" y1="166.642459" x2="2034.234756" y2="117.490849" stroke="black" stroke-width="4.05"/>
<line x1="1992.61444" y1="194.389337" x2="1992.61444" y2="166.642459" stroke="black" stroke-width="4.05"/>
<line x1="1893.518453" y1="166.642459" x2="1893.518453" y2="195.974874" stroke="black" stroke-width="4.05"/>
<circle cx="1943.859215" cy="239.577106" r="66.59250380904014" fill="none" stroke="black" stroke-width="4.05"/>
<circle cx="1943.859215" cy="239.577106" r="57.07928897917725" fill="none" stroke="black" stroke-width="4.05"/>
<line x1="1395.085691" y1="798.896383" x2="1395.085691" y2="819.136987" stroke="black" stroke-width="4.05"/>
<line x1="1395.085691" y1="819.136987" x2="1434.579556" y2="819.136987" stroke="black" stroke-width="4.05"/>
<line x1="1434.579556" y1="819.136987" x2="1434.579556" y2="798.896383" stroke="black" stroke-width="4.05"/>
<line x1="1434.579556" y1="798.896383" x2="1395.085691" y2="798.896383" stroke="black" stroke-width="4.05"/>
<line x1="1434.579556" y1="1017.099976" x2="1631.555194" y2="1017.099976" stroke="black" stroke-width="4.05"/>
<line x1="1394.098344" y1="1017.593647" x2="1394.098344" y2="1037.834251" stroke="black" stroke-width="4.05"/>
<line x1="1394.098344" y1="1037.834251" x2="1433.592209" y2="1037.834251" stroke="black" stroke-width="4.05"/>
<line x1="1433.592209" y1="1037.834251" x2="1433.592209" y2="1017.593647" stroke="black" stroke-width="4.05"/>
<line x1="1433.592209" y1="1017.593647" x2="1394.098344" y2="1017.593647" stroke="black" stroke-width="4.05"/>
<path d="m 1433.098534,819.136987 a 197.9629885,197.9629885 0 0 1 197.962988,197.962989" fill="none" stroke="black" stroke-width="4.05"/>
<line x1="1274.822521" y1="1398.082136" x2="1369.851332" y2="1306.313874" stroke="black" stroke-width="4.05"/>
<line x1="1369.851332" y1="1306.313874" x2="1379.754385" y2="1316.568784" stroke="black" stroke-width="4.05"/>
<line x1="1284.72557" y1="1408.337042" x2="1379.754385" y2="1316.568784" stroke="black" stroke-width="4.05"/>
<line x1="1274.822521" y1="1398.082136" x2="1284.72557" y2="1408.337042" stroke="black" stroke-width="4.05"/>
<line x1="1294.296818" y1="1399.094197" x2="1314.716206" y2="1422.975402" stroke="black" stroke-width="4.05"/>
<line x1="1370.183137" y1="1325.811629" x2="1393.997368" y2="1347.735683" stroke="black" stroke-width="4.05"/>
<line x1="1595.021126" y1="1729.657501" x2="1690.049945" y2="1637.889239" stroke="black" stroke-width="4.05"/>
<line x1="1690.049945" y1="1637.889239" x2="1680.807096" y2="1628.317994" stroke="black" stroke-width="4.05"/>
<line x1="1585.778281" y1="1720.086253" x2="1680.807096" y2="1628.317994" stroke="black" stroke-width="4.05"/>
<line x1="1595.021126" y1="1729.657501" x2="1585.778281" y2="1720.086253" stroke="black" stroke-width="4.05"/>
<line x1="1593.34546" y1="1710.136289" x2="1570.191433" y2="1688.8959" stroke="black" stroke-width="4.05"/>
<line x1="1669.231778" y1="1636.85372" x2="1648.835852" y2="1611.628654" stroke="black" stroke-width="4.05"/>
<line x1="1601.656121" y1="1311.032182" x2="1591.401215" y2="1320.935231" stroke="black" stroke-width="4.05"/>
<line x1="1591.401215" y1="1320.935231" x2="1683.169474" y2="1415.964046" stroke="black" stroke-width="4.05"/>
<line x1="1693.424383" y1="1406.060993" x2="1683.169474" y2="1415.964046" stroke="black" stroke-width="4.05"/>
<line x1="1601.656121" y1="1311.032182" x2="1693.424383" y2="1406.060993" stroke="black" stroke-width="4.05"/>
<line x1="1673.266424" y1="1405.709136" x2="1652.002578" y2="1430.207028" stroke="black" stroke-width="4.05"/>
<line x1="1600.64406" y1="1330.506479" x2="1576.079194" y2="1351.58607" stroke="black" stroke-width="4.05"/>
<line x1="1270.104214" y1="1629.886921" x2="1280.359123" y2="1619.983872" stroke="black" stroke-width="4.05"/>
<line x1="1280.359123" y1="1619.983872" x2="1372.127382" y2="1715.01269" stroke="black" stroke-width="4.05"/>
<line x1="1361.872476" y1="1724.91574" x2="1372.127382" y2="1715.01269" stroke="black" stroke-width="4.05"/>
<line x1="1270.104214" y1="1629.886921" x2="1361.872476" y2="1724.91574" stroke="black" stroke-width="4.05"/>
<line x1="1362.224333" y1="1704.757781" x2="1387.449403" y2="1684.361851" stroke="black" stroke-width="4.05"/>
<line x1="1289.601968" y1="1629.55512" x2="1311.526022" y2="1605.74089" stroke="black" stroke-width="4.05"/>
<circle cx="1481.764298" cy="1517.973959" r="191.98080000000002" fill="none" stroke="black" stroke-width="4.05"/>
<line x1="684.733572" y1="1270.405984" x2="684.733572" y2="1080.325984" stroke="black" stroke-width="4.05"/>
<line x1="684.733572" y1="1080.325984" x2="220.938372" y2="1080.325984" stroke="black" stroke-width="4.05"/>
<line x1="220.938372" y1="1080.325984" x2="220.938372" y2="1270.405984" stroke="black" stroke-width="4.05"/>
<line x1="220.938372" y1="1270.405984" x2="244.698372" y2="1270.405984" stroke="black" stroke-width="4.05"/>
<line x1="244.698372" y1="1270.405984" x2="244.698372" y2="1103.135584" stroke="black" stroke-width="4.05"/>
<line x1="244.698372" y1="1103.135584" x2="660.023172" y2="1103.135584" stroke="black" stroke-width="4.05"/>
<line x1="660.023172" y1="1103.135584" x2="660.023172" y2="1270.405984" stroke="black" stroke-width="4.05"/>
<line x1="660.023172" y1="1270.405984" x2="684.733572" y2="1270.405984" stroke="black" stroke-width="4.05"/>
<line x1="660.023172" y1="1264.703584" x2="244.698372" y2="1264.703584" stroke="black" stroke-width="4.05"/>
<line x1="452.835972" y1="1265.653984" x2="452.835972" y2="1104.085984" stroke="black" stroke-width="4.05"/>
<line x1="579.033126" y1="1374.604805" x2="720.947689" y2="1399.628171" stroke="black" stroke-width="4.05"/>
<line x1="720.947689" y1="1399.628171" x2="695.873045" y2="1541.833542" stroke="black" stroke-width="4.05"/>
<line x1="695.873045" y1="1541.833542" x2="553.958482" y2="1516.810176" stroke="black" stroke-width="4.05"/>
<line x1="553.958482" y1="1516.810176" x2="579.033126" y2="1374.604805" stroke="black" stroke-width="4.05"/>
<line x1="578.793596" y1="1374.262718" x2="695.873045" y2="1541.833542" stroke="black" stroke-width="4.05"/>
<line x1="554.00976" y1="1516.519368" x2="720.656881" y2="1399.576896" stroke="black" stroke-width="4.05"/>
<line x1="192.086507" y1="1544.460372" x2="296.630507" y2="1725.535894" stroke="black" stroke-width="4.05"/>
<line x1="296.630507" y1="1725.535894" x2="497.459718" y2="1609.587094" stroke="black" stroke-width="4.05"/>
<line x1="497.459718" y1="1609.587094" x2="392.915722" y2="1428.511572" stroke="black" stroke-width="4.05"/>
<line x1="392.915722" y1="1428.511572" x2="192.086507" y2="1544.460372" stroke="black" stroke-width="4.05"/>
<line x1="220.070905" y1="1528.303572" x2="324.614905" y2="1709.379094" stroke="black" stroke-width="4.05"/>
<line x1="1799.832056" y1="1048.556923" x2="2008.920056" y2="1048.556923" stroke="black" stroke-width="4.05"/>
<line x1="2008.920056" y1="1048.556923" x2="2008.920056" y2="816.659323" stroke="black" stroke-width="4.05"/>
<line x1="2008.920056" y1="816.659323" x2="1799.832056" y2="816.659323" stroke="black" stroke-width="4.05"/>
<line x1="1799.832056" y1="816.659323" x2="1799.832056" y2="1048.556923" stroke="black" stroke-width="4.05"/>
<line x1="1799.832056" y1="1016.243323" x2="2008.920056" y2="1016.243323" stroke="black" stroke-width="4.05"/>
<line x1="1202.393484" y1="117.772175" x2="1472.940684" y2="117.772175" stroke="black" stroke-width="4.05"/>
<line x1="1472.940684" y1="117.772175" x2="1472.940684" y2="249.719375" stroke="black" stroke-width="4.05"/>
<line x1="1202.393484" y1="249.719375" x2="1472.940684" y2="249.719375" stroke="black" stroke-width="4.05"/>
<line x1="1202.393484" y1="117.772175" x2="1202.393484" y2="249.719375" stroke="black" stroke-width="4.05"/>
<line x1="1209.046284" y1="124.424975" x2="1347.091884" y2="124.424975" stroke="black" stroke-width="4.05"/>
<line x1="1347.091884" y1="124.424975" x2="1347.091884" y2="242.512175" stroke="black" stroke-width="4.05"/>
<line x1="1209.046284" y1="242.512175" x2="1347.091884" y2="242.512175" stroke="black" stroke-width="4.05"/>
<line x1="1209.046284" y1="124.424975" x2="1209.046284" y2="242.512175" stroke="black" stroke-width="4.05"/>
<line x1="1361.506284" y1="132.186575" x2="1458.526284" y2="132.186575" stroke="black" stroke-width="4.05"/>
<line x1="1361.506284" y1="152.699375" x2="1458.526284" y2="152.699375" stroke="black" stroke-width="4.05"/>
<line x1="1362.060684" y1="173.766575" x2="1459.080684" y2="173.766575" stroke="black" stroke-width="4.05"/>
<line x1="1362.060684" y1="194.279375" x2="1459.080684" y2="194.279375" stroke="black" stroke-width="4.05"/>
<line x1="1361.506284" y1="214.792175" x2="1458.526284" y2="214.792175" stroke="black" stroke-width="4.05"/>
<line x1="1361.506284" y1="235.304975" x2="1458.526284" y2="235.304975" stroke="black" stroke-width="4.05"/>
<line x1="1261.714284" y1="242.512175" x2="1261.714284" y2="228.652175" stroke="black" stroke-width="4.05"/>
<line x1="1261.714284" y1="228.652175" x2="1296.087084" y2="228.652175" stroke="black" stroke-width="4.05"/>
<line x1="1296.087084" y1="228.652175" x2="1296.087084" y2="241.957775" stroke="black" stroke-width="4.05"/>
<circle cx="1331.568684" cy="139.393775" r="8.316000000000003" fill="none" stroke="black" stroke-width="4.05"/>
<line x1="1065.123234" y1="1690.4416" x2="1122.755695" y2="1489.453315" stroke="black" stroke-width="4.05"/>
<line x1="1122.755695" y1="1489.453315" x2="899.841413" y2="1425.533674" stroke="black" stroke-width="4.05"/>
<line x1="899.841413" y1="1425.533674" x2="842.208952" y2="1626.521962" stroke="black" stroke-width="4.05"/>
<line x1="842.208952" y1="1626.521962" x2="1065.123234" y2="1690.4416" stroke="black" stroke-width="4.05"/>
<line x1="1034.061404" y1="1681.534768" x2="1091.693869" y2="1480.54648" stroke="black" stroke-width="4.05"/>
<line x1="1819.466222" y1="1922.513252" x2="1819.466222" y2="1690.615652" stroke="black" stroke-width="4.05"/>
<line x1="1819.466222" y1="1690.615652" x2="2051.839022" y2="1690.615652" stroke="black" stroke-width="4.05"/>
<line x1="2051.839022" y1="1690.615652" x2="2051.839022" y2="1922.513252" stroke="black" stroke-width="4.05"/>
<line x1="2051.839022" y1="1922.513252" x2="1819.466222" y2="1922.513252" stroke="black" stroke-width="4.05"/>
<line x1="1818.991022" y1="1922.988452" x2="2051.839022" y2="1690.615652" stroke="black" stroke-width="4.05"/>
<line x1="2051.363822" y1="1922.513252" x2="1819.466222" y2="1691.090852" stroke="black" stroke-width="4.05"/>
<line x1="1666.989774" y1="604.690222" x2="1833.081988" y2="604.690222" stroke="black" stroke-width="4.05"/>
<line x1="1833.081988" y1="604.690222" x2="1833.081988" y2="771.122786" stroke="black" stroke-width="4.05"/>
<line x1="1833.081988" y1="771.122786" x2="1666.989774" y2="771.122786" stroke="black" stroke-width="4.05"/>
<line x1="1666.989774" y1="771.122786" x2="1666.989774" y2="604.690222" stroke="black" stroke-width="4.05"/>
<line x1="1666.649423" y1="604.34987" x2="1833.081988" y2="771.122786" stroke="black" stroke-width="4.05"/>
<line x1="1666.989774" y1="770.782435" x2="1832.741633" y2="604.690222" stroke="black" stroke-width="4.05"/>
<line x1="1832.995789" y1="604.424074" x2="1999.088003" y2="604.424074" stroke="black" stroke-width="4.05"/>
<line x1="1999.088003" y1="604.424074" x2="1999.088003" y2="770.856638" stroke="black" stroke-width="4.05"/>
<line x1="1999.088003" y1="770.856638" x2="1832.995789" y2="770.856638" stroke="black" stroke-width="4.05"/>
<line x1="1832.995789" y1="770.856638" x2="1832.995789" y2="604.424074" stroke="black" stroke-width="4.05"/>
<line x1="1832.655438" y1="604.083722" x2="1999.088003" y2="770.856638" stroke="black" stroke-width="4.05"/>
<line x1="1832.995789" y1="770.516287" x2="1998.747648" y2="604.424074" stroke="black" stroke-width="4.05"/>
<line x1="1501.570829" y1="604.276909" x2="1667.663042" y2="604.276909" stroke="black" stroke-width="4.05"/>
<line x1="1667.663042" y1="604.276909" x2="1667.663042" y2="770.709474" stroke="black" stroke-width="4.05"/>
<line x1="1667.663042" y1="770.709474" x2="1501.570829" y2="770.709474" stroke="black" stroke-width="4.05"/>
<line x1="1501.570829" y1="770.709474" x2="1501.570829" y2="604.276909" stroke="black" stroke-width="4.05"/>
<line x1="1501.230478" y1="603.936558" x2="1667.663042" y2="770.709474" stroke="black" stroke-width="4.05"/>
<line x1="1501.570829" y1="770.369123" x2="1667.322688" y2="604.276909" stroke="black" stroke-width="4.05"/>
<line x1="1886.55296" y1="1077.238843" x2="2052.645174" y2="1077.238843" stroke="black" stroke-width="4.05"/>
<line x1="2052.645174" y1="1077.238843" x2="2052.645174" y2="1243.671408" stroke="black" stroke-width="4.05"/>
<line x1="2052.645174" y1="1243.671408" x2="1886.55296" y2="1243.671408" stroke="black" stroke-width="4.05"/>
<line x1="1886.55296" y1="1243.671408" x2="1886.55296" y2="1077.238843" stroke="black" stroke-width="4.05"/>
<line x1="1886.212609" y1="1076.898492" x2="2052.645174" y2="1243.671408" stroke="black" stroke-width="4.05"/>
<line x1="1886.55296" y1="1243.331057" x2="2052.304819" y2="1077.238843" stroke="black" stroke-width="4.05"/>
<line x1="1915.896632" y1="1644.870398" x2="1915.896632" y2="1251.626526" stroke="black" stroke-width="4.05"/>
<line x1="1914.90035" y1="1247.67112" x2="2050.969126" y2="1247.67112" stroke="black" stroke-width="4.05"/>
<line x1="2052.120632" y1="1644.406009" x2="2052.120632" y2="1247.365778" stroke="black" stroke-width="4.05"/>
<line x1="1916.591382" y1="1643.67112" x2="2051.855438" y2="1643.67112" stroke="black" stroke-width="4.05"/>
<line x1="1926.984632" y1="1633.37512" x2="1926.984632" y2="1509.82312" stroke="black" stroke-width="4.05"/>
<line x1="1926.984632" y1="1509.82312" x2="2041.032632" y2="1509.82312" stroke="black" stroke-width="4.05"/>
<line x1="2041.032632" y1="1633.37512" x2="2041.032632" y2="1509.82312" stroke="black" stroke-width="4.05"/>
<line x1="1926.984632" y1="1633.37512" x2="2041.032632" y2="1633.37512" stroke="black" stroke-width="4.05"/>
<line x1="1934.112632" y1="1490.81512" x2="1934.112632" y2="1403.69512" stroke="black" stroke-width="4.05"/>
<line x1="1953.912632" y1="1490.81512" x2="1953.912632" y2="1403.69512" stroke="black" stroke-width="4.05"/>
<line x1="1974.504632" y1="1490.02312" x2="1974.504632" y2="1403.69512" stroke="black" stroke-width="4.05"/>
<line x1="1994.304632" y1="1490.02312" x2="1994.304632" y2="1403.69512" stroke="black" stroke-width="4.05"/>
<line x1="2014.104632" y1="1490.81512" x2="2014.104632" y2="1403.69512" stroke="black" stroke-width="4.05"/>
<line x1="2033.904632" y1="1490.81512" x2="2033.904632" y2="1403.69512" stroke="black" stroke-width="4.05"/>
<line x1="2040.240632" y1="1585.85512" x2="2026.776632" y2="1585.85512" stroke="black" stroke-width="4.05"/>
<line x1="2026.776632" y1="1585.85512" x2="2026.776632" y2="1555.75912" stroke="black" stroke-width="4.05"/>
<line x1="2026.776632" y1="1555.75912" x2="2039.448632" y2="1555.75912" stroke="black" stroke-width="4.05"/>
<line x1="1926.984632" y1="1383.10312" x2="1926.984632" y2="1259.55112" stroke="black" stroke-width="4.05"/>
<line x1="1926.984632" y1="1259.55112" x2="2041.032632" y2="1259.55112" stroke="black" stroke-width="4.05"/>
<line x1="2041.032632" y1="1383.10312" x2="2041.032632" y2="1259.55112" stroke="black" stroke-width="4.05"/>
<line x1="1926.984632" y1="1383.10312" x2="2041.032632" y2="1383.10312" stroke="black" stroke-width="4.05"/>
<line x1="2041.032632" y1="1335.58312" x2="2027.568632" y2="1335.58312" stroke="black" stroke-width="4.05"/>
<line x1="2027.568632" y1="1335.58312" x2="2027.568632" y2="1305.48712" stroke="black" stroke-width="4.05"/>
<line x1="2027.568632" y1="1305.48712" x2="2040.240632" y2="1305.48712" stroke="black" stroke-width="4.05"/>
<circle cx="1941.240632" cy="1524.07912" r="7.128000000000001" fill="none" stroke="black" stroke-width="4.05"/>
<circle cx="1942.032632" cy="1273.80712" r="7.128000000000001" fill="none" stroke="black" stroke-width="4.05"/>
</g>
</svg>
