<?xml version="1.0"?>
<svg xmlns:xlink="http://www.w3.org/1999/xlink" width="2170.8" height="2138.4">
<image x="0" y="0" width="2170.8" height="2138.4" xlink:href="ground16-04.png"/>
<g style="stroke-linecap:round">
<line x1="355.524638" y1="104.449442" x2="594.616565" y2="104.449442" stroke="black" stroke-width="4.05"/>
<line x1="594.616565" y1="104.449442" x2="594.616565" y2="67.591454" stroke="black" stroke-width="4.05"/>
<line x1="594.616565" y1="67.591454" x2="355.524638" y2="67.591454" stroke="black" stroke-width="4.05"/>
<line x1="355.524638" y1="67.591454" x2="355.524638" y2="104.449442" stroke="black" stroke-width="4.05"/>
<line x1="377.833417" y1="68.076428" x2="377.833417" y2="103.964468" stroke="black" stroke-width="4.05"/>
<line x1="571.822812" y1="68.076428" x2="571.822812" y2="105.419387" stroke="black" stroke-width="4.05"/>
<line x1="377.348447" y1="85.0505" x2="571.337838" y2="85.0505" stroke="black" stroke-width="4.05"/>
<line x1="1586.39715" y1="105.206782" x2="1826.184114" y2="105.206782" stroke="black" stroke-width="4.05"/>
<line x1="1826.184114" y1="105.206782" x2="1826.184114" y2="68.24165" stroke="black" stroke-width="4.05"/>
<line x1="1826.184114" y1="68.24165" x2="1586.39715" y2="68.24165" stroke="black" stroke-width="4.05"/>
<line x1="1586.39715" y1="68.24165" x2="1586.39715" y2="105.206782" stroke="black" stroke-width="4.05"/>
<line x1="1608.770783" y1="68.728036" x2="1608.770783" y2="104.720396" stroke="black" stroke-width="4.05"/>
<line x1="1803.3241" y1="68.728036" x2="1803.3241" y2="106.179548" stroke="black" stroke-width="4.05"/>
<line x1="1608.284398" y1="85.751449" x2="1802.837714" y2="85.751449" stroke="black" stroke-width="4.05"/>
<line x1="455.155898" y1="2015.675204" x2="214.690846" y2="2015.675204" stroke="black" stroke-width="4.05"/>
<line x1="214.690846" y1="2015.675204" x2="214.690846" y2="2058.685214" stroke="black" stroke-width="4.05"/>
<line x1="214.690846" y1="2058.685214" x2="455.155898" y2="2058.685214" stroke="black" stroke-width="4.05"/>
<line x1="455.155898" y1="2058.685214" x2="455.155898" y2="2015.675204" stroke="black" stroke-width="4.05"/>
<line x1="443.914646" y1="2015.675204" x2="443.914646" y2="2001.012703" stroke="black" stroke-width="4.05"/>
<line x1="443.914646" y1="2001.012703" x2="226.420848" y2="2001.012703" stroke="black" stroke-width="4.05"/>
<line x1="226.420848" y1="2015.675204" x2="226.420848" y2="2001.012703" stroke="black" stroke-width="4.05"/>
<line x1="1004.406336" y1="2020.979012" x2="764.619372" y2="2020.979012" stroke="black" stroke-width="4.05"/>
<line x1="764.619372" y1="2020.979012" x2="764.619372" y2="2057.944144" stroke="black" stroke-width="4.05"/>
<line x1="764.619372" y1="2057.944144" x2="1004.406336" y2="2057.944144" stroke="black" stroke-width="4.05"/>
<line x1="1004.406336" y1="2057.944144" x2="1004.406336" y2="2020.979012" stroke="black" stroke-width="4.05"/>
<line x1="982.032703" y1="2057.457758" x2="982.032703" y2="2021.465398" stroke="black" stroke-width="4.05"/>
<line x1="787.479386" y1="2057.457758" x2="787.479386" y2="2020.006246" stroke="black" stroke-width="4.05"/>
<line x1="982.519088" y1="2040.434345" x2="787.965772" y2="2040.434345" stroke="black" stroke-width="4.05"/>
<line x1="1502.318696" y1="2015.331124" x2="1262.548631" y2="2015.331124" stroke="black" stroke-width="4.05"/>
<line x1="1262.548631" y1="2015.331124" x2="1262.548631" y2="2058.216826" stroke="black" stroke-width="4.05"/>
<line x1="1262.548631" y1="2058.216826" x2="1502.318696" y2="2058.216826" stroke="black" stroke-width="4.05"/>
<line x1="1502.318696" y1="2058.216826" x2="1502.318696" y2="2015.331124" stroke="black" stroke-width="4.05"/>
<line x1="1491.109934" y1="2015.331124" x2="1491.109934" y2="2000.710998" stroke="black" stroke-width="4.05"/>
<line x1="1491.109934" y1="2000.710998" x2="1274.244732" y2="2000.710998" stroke="black" stroke-width="4.05"/>
<line x1="1274.244732" y1="2015.331124" x2="1274.244732" y2="2000.710998" stroke="black" stroke-width="4.05"/>
<line x1="1977.071191" y1="2021.28741" x2="1737.284227" y2="2021.28741" stroke="black" stroke-width="4.05"/>
<line x1="1737.284227" y1="2021.28741" x2="1737.284227" y2="2058.252541" stroke="black" stroke-width="4.05"/>
<line x1="1737.284227" y1="2058.252541" x2="1977.071191" y2="2058.252541" stroke="black" stroke-width="4.05"/>
<line x1="1977.071191" y1="2058.252541" x2="1977.071191" y2="2021.28741" stroke="black" stroke-width="4.05"/>
<line x1="1954.697558" y1="2057.766156" x2="1954.697558" y2="2021.773795" stroke="black" stroke-width="4.05"/>
<line x1="1760.144242" y1="2057.766156" x2="1760.144242" y2="2020.314643" stroke="black" stroke-width="4.05"/>
<line x1="1955.183944" y1="2040.742742" x2="1760.630627" y2="2040.742742" stroke="black" stroke-width="4.05"/>
<line x1="2064.218674" y1="203.981501" x2="2064.218674" y2="444.463495" stroke="black" stroke-width="4.05"/>
<line x1="2064.218674" y1="444.463495" x2="2101.290948" y2="444.463495" stroke="black" stroke-width="4.05"/>
<line x1="2101.290948" y1="444.463495" x2="2101.290948" y2="203.981501" stroke="black" stroke-width="4.05"/>
<line x1="2101.290948" y1="203.981501" x2="2064.218674" y2="203.981501" stroke="black" stroke-width="4.05"/>
<line x1="2100.803155" y1="226.41998" x2="2064.706466" y2="226.41998" stroke="black" stroke-width="4.05"/>
<line x1="2100.803155" y1="421.537223" x2="2063.243088" y2="421.537223" stroke="black" stroke-width="4.05"/>
<line x1="2083.730396" y1="225.932188" x2="2083.730396" y2="421.049426" stroke="black" stroke-width="4.05"/>
<line x1="2062.857866" y1="776.16608" x2="2062.857866" y2="1027.768633" stroke="black" stroke-width="4.05"/>
<line x1="2062.857866" y1="1027.768633" x2="2101.644464" y2="1027.768633" stroke="black" stroke-width="4.05"/>
<line x1="2101.644464" y1="1027.768633" x2="2101.644464" y2="776.16608" stroke="black" stroke-width="4.05"/>
<line x1="2101.644464" y1="776.16608" x2="2062.857866" y2="776.16608" stroke="black" stroke-width="4.05"/>
<line x1="2101.134114" y1="799.642181" x2="2063.368217" y2="799.642181" stroke="black" stroke-width="4.05"/>
<line x1="2101.134114" y1="1003.782182" x2="2061.837166" y2="1003.782182" stroke="black" stroke-width="4.05"/>
<line x1="2083.271864" y1="799.13183" x2="2083.271864" y2="1003.271832" stroke="black" stroke-width="4.05"/>
<line x1="2064.600925" y1="1369.92258" x2="2064.600925" y2="1611.794646" stroke="black" stroke-width="4.05"/>
<line x1="2064.600925" y1="1611.794646" x2="2101.887493" y2="1611.794646" stroke="black" stroke-width="4.05"/>
<line x1="2101.887493" y1="1611.794646" x2="2101.887493" y2="1369.92258" stroke="black" stroke-width="4.05"/>
<line x1="2101.887493" y1="1369.92258" x2="2064.600925" y2="1369.92258" stroke="black" stroke-width="4.05"/>
<line x1="2101.396882" y1="1392.490764" x2="2065.09154" y2="1392.490764" stroke="black" stroke-width="4.05"/>
<line x1="2101.396882" y1="1588.73585" x2="2063.619702" y2="1588.73585" stroke="black" stroke-width="4.05"/>
<line x1="2084.225436" y1="1392.000152" x2="2084.225436" y2="1588.245235" stroke="black" stroke-width="4.05"/>
<line x1="138.283542" y1="1589.658811" x2="138.283542" y2="1347.786745" stroke="black" stroke-width="4.05"/>
<line x1="138.283542" y1="1347.786745" x2="100.996974" y2="1347.786745" stroke="black" stroke-width="4.05"/>
<line x1="100.996974" y1="1347.786745" x2="100.996974" y2="1589.658811" stroke="black" stroke-width="4.05"/>
<line x1="100.996974" y1="1589.658811" x2="138.283542" y2="1589.658811" stroke="black" stroke-width="4.05"/>
<line x1="101.487586" y1="1567.090627" x2="137.792927" y2="1567.090627" stroke="black" stroke-width="4.05"/>
<line x1="101.487586" y1="1370.845541" x2="139.264765" y2="1370.845541" stroke="black" stroke-width="4.05"/>
<line x1="118.659031" y1="1567.581239" x2="118.659031" y2="1371.336156" stroke="black" stroke-width="4.05"/>
<line x1="145.345295" y1="909.129312" x2="145.345295" y2="667.274292" stroke="black" stroke-width="4.05"/>
<line x1="145.345295" y1="667.274292" x2="102.086672" y2="667.274292" stroke="black" stroke-width="4.05"/>
<line x1="102.086672" y1="667.274292" x2="102.086672" y2="909.129312" stroke="black" stroke-width="4.05"/>
<line x1="102.086672" y1="909.129312" x2="145.345295" y2="909.129312" stroke="black" stroke-width="4.05"/>
<line x1="145.345295" y1="897.82308" x2="160.092554" y2="897.82308" stroke="black" stroke-width="4.05"/>
<line x1="160.092554" y1="897.82308" x2="160.092554" y2="679.072097" stroke="black" stroke-width="4.05"/>
<line x1="145.345295" y1="679.072097" x2="160.092554" y2="679.072097" stroke="black" stroke-width="4.05"/>
<line x1="144.414853" y1="445.02601" x2="144.414853" y2="203.17099" stroke="black" stroke-width="4.05"/>
<line x1="144.414853" y1="203.17099" x2="101.156231" y2="203.17099" stroke="black" stroke-width="4.05"/>
<line x1="101.156231" y1="203.17099" x2="101.156231" y2="445.02601" stroke="black" stroke-width="4.05"/>
<line x1="101.156231" y1="445.02601" x2="144.414853" y2="445.02601" stroke="black" stroke-width="4.05"/>
<line x1="144.414853" y1="433.719778" x2="159.162113" y2="433.719778" stroke="black" stroke-width="4.05"/>
<line x1="159.162113" y1="433.719778" x2="159.162113" y2="214.968794" stroke="black" stroke-width="4.05"/>
<line x1="144.414853" y1="214.968794" x2="159.162113" y2="214.968794" stroke="black" stroke-width="4.05"/>
<line x1="539.066934" y1="715.514054" x2="329.70173" y2="715.514054" stroke="black" stroke-width="4.05"/>
<line x1="329.70173" y1="715.514054" x2="329.70173" y2="1046.728458" stroke="black" stroke-width="4.05"/>
<line x1="329.70173" y1="1046.728458" x2="539.066934" y2="1046.728458" stroke="black" stroke-width="4.05"/>
<line x1="539.066934" y1="1046.728458" x2="539.066934" y2="715.514054" stroke="black" stroke-width="4.05"/>
<line x1="539.740134" y1="987.486854" x2="329.02853" y2="987.486854" stroke="black" stroke-width="4.05"/>
<line x1="329.02853" y1="987.486854" x2="538.39373" y2="937.670054" stroke="black" stroke-width="4.05"/>
<line x1="538.39373" y1="937.670054" x2="506.75333" y2="891.219254" stroke="black" stroke-width="4.05"/>
<line x1="506.75333" y1="891.219254" x2="329.02853" y2="988.160058" stroke="black" stroke-width="4.05"/>
<line x1="1110.575106" y1="1028.171776" x2="1110.575106" y2="1007.813491" stroke="black" stroke-width="4.05"/>
<line x1="1110.575106" y1="1007.813491" x2="1070.851626" y2="1007.813491" stroke="black" stroke-width="4.05"/>
<line x1="1070.851626" y1="1007.813491" x2="1070.851626" y2="1028.171776" stroke="black" stroke-width="4.05"/>
<line x1="1070.851626" y1="1028.171776" x2="1110.575106" y2="1028.171776" stroke="black" stroke-width="4.05"/>
<line x1="1070.851626" y1="808.699558" x2="872.730778" y2="808.699558" stroke="black" stroke-width="4.05"/>
<line x1="1111.568191" y1="808.203013" x2="1111.568191" y2="787.844732" stroke="black" stroke-width="4.05"/>
<line x1="1111.568191" y1="787.844732" x2="1071.844715" y2="787.844732" stroke="black" stroke-width="4.05"/>
<line x1="1071.844715" y1="787.844732" x2="1071.844715" y2="808.203013" stroke="black" stroke-width="4.05"/>
<line x1="1071.844715" y1="808.203013" x2="1111.568191" y2="808.203013" stroke="black" stroke-width="4.05"/>
<path d="m 1072.341256,1007.813491 a 199.11393349999997,199.11393349999997 0 0 1 -199.11393399999997,-199.11393299999997" fill="none" stroke="black" stroke-width="4.05"/>
<line x1="913.136738" y1="247.05077" x2="1080.250153" y2="247.05077" stroke="black" stroke-width="4.05"/>
<line x1="1080.250153" y1="247.05077" x2="1080.250153" y2="414.506628" stroke="black" stroke-width="4.05"/>
<line x1="1080.250153" y1="414.506628" x2="913.136738" y2="414.506628" stroke="black" stroke-width="4.05"/>
<line x1="913.136738" y1="414.506628" x2="913.136738" y2="247.05077" stroke="black" stroke-width="4.05"/>
<line x1="912.794296" y1="246.708324" x2="1080.250153" y2="414.506628" stroke="black" stroke-width="4.05"/>
<line x1="913.136738" y1="414.164185" x2="1079.90771" y2="247.05077" stroke="black" stroke-width="4.05"/>
<line x1="383.905861" y1="149.07213" x2="206.589179" y2="259.871886" stroke="black" stroke-width="4.05"/>
<line x1="206.589179" y1="259.871886" x2="329.476187" y2="456.532207" stroke="black" stroke-width="4.05"/>
<line x1="329.476187" y1="456.532207" x2="506.792869" y2="345.732451" stroke="black" stroke-width="4.05"/>
<line x1="506.792869" y1="345.732451" x2="383.905861" y2="149.07213" stroke="black" stroke-width="4.05"/>
<line x1="401.029459" y1="176.475618" x2="223.712777" y2="287.275378" stroke="black" stroke-width="4.05"/>
<line x1="1637.344138" y1="572.730257" x2="2030.644984" y2="572.730257" stroke="black" stroke-width="4.05"/>
<line x1="2030.644984" y1="572.730257" x2="2030.644984" y2="397.576033" stroke="black" stroke-width="4.05"/>
<line x1="2030.644984" y1="397.576033" x2="1637.344138" y2="397.576033" stroke="black" stroke-width="4.05"/>
<line x1="1637.344138" y1="397.576033" x2="1637.344138" y2="572.730257" stroke="black" stroke-width="4.05"/>
<line x1="1955.010204" y1="424.645322" x2="1669.190357" y2="424.645322" stroke="black" stroke-width="4.05"/>
<line x1="1669.190357" y1="424.645322" x2="1669.190357" y2="543.272501" stroke="black" stroke-width="4.05"/>
<line x1="1669.190357" y1="543.272501" x2="1960.583292" y2="543.272501" stroke="black" stroke-width="4.05"/>
<path d="m 1954.19538,424.388556 a 63.69244503127078,63.69244503127078 0 0 1 4.316342000000077,120.00067899999999" fill="none" stroke="black" stroke-width="4.05"/>
<line x1="1132.995863" y1="600.926753" x2="1153.236467" y2="600.926753" stroke="black" stroke-width="4.05"/>
<line x1="1153.236467" y1="600.926753" x2="1153.236467" y2="561.432888" stroke="black" stroke-width="4.05"/>
<line x1="1153.236467" y1="561.432888" x2="1132.995863" y2="561.432888" stroke="black" stroke-width="4.05"/>
<line x1="1132.995863" y1="561.432888" x2="1132.995863" y2="600.926753" stroke="black" stroke-width="4.05"/>
<line x1="1351.199455" y1="561.432888" x2="1351.199455" y2="364.45725" stroke="black" stroke-width="4.05"/>
<line x1="1351.693127" y1="601.9141" x2="1371.933731" y2="601.9141" stroke="black" stroke-width="4.05"/>
<line x1="1371.933731" y1="601.9141" x2="1371.933731" y2="562.420235" stroke="black" stroke-width="4.05"/>
<line x1="1371.933731" y1="562.420235" x2="1351.693127" y2="562.420235" stroke="black" stroke-width="4.05"/>
<line x1="1351.693127" y1="562.420235" x2="1351.693127" y2="601.9141" stroke="black" stroke-width="4.05"/>
<path d="m 1153.236467,562.91391 a 197.962988,197.962988 0 0 1 197.962988,-197.962988" fill="none" stroke="black" stroke-width="4.05"/>
<line x1="1218.260365" y1="117.87012" x2="1488.807565" y2="117.87012" stroke="black" stroke-width="4.05"/>
<line x1="1488.807565" y1="117.87012" x2="1488.807565" y2="249.81732" stroke="black" stroke-width="4.05"/>
<line x1="1218.260365" y1="249.81732" x2="1488.807565" y2="249.81732" stroke="black" stroke-width="4.05"/>
<line x1="1218.260365" y1="117.87012" x2="1218.260365" y2="249.81732" stroke="black" stroke-width="4.05"/>
<line x1="1224.913165" y1="124.52292" x2="1362.958765" y2="124.52292" stroke="black" stroke-width="4.05"/>
<line x1="1362.958765" y1="124.52292" x2="1362.958765" y2="242.61012" stroke="black" stroke-width="4.05"/>
<line x1="1224.913165" y1="242.61012" x2="1362.958765" y2="242.61012" stroke="black" stroke-width="4.05"/>
<line x1="1224.913165" y1="124.52292" x2="1224.913165" y2="242.61012" stroke="black" stroke-width="4.05"/>
<line x1="1377.373165" y1="132.28452" x2="1474.393165" y2="132.28452" stroke="black" stroke-width="4.05"/>
<line x1="1377.373165" y1="152.79732" x2="1474.393165" y2="152.79732" stroke="black" stroke-width="4.05"/>
<line x1="1377.927565" y1="173.86452" x2="1474.947565" y2="173.86452" stroke="black" stroke-width="4.05"/>
<line x1="1377.927565" y1="194.37732" x2="1474.947565" y2="194.37732" stroke="black" stroke-width="4.05"/>
<line x1="1377.373165" y1="214.89012" x2="1474.393165" y2="214.89012" stroke="black" stroke-width="4.05"/>
<line x1="1377.373165" y1="235.40292" x2="1474.393165" y2="235.40292" stroke="black" stroke-width="4.05"/>
<line x1="1277.581165" y1="242.61012" x2="1277.581165" y2="228.75012" stroke="black" stroke-width="4.05"/>
<line x1="1277.581165" y1="228.75012" x2="1311.953965" y2="228.75012" stroke="black" stroke-width="4.05"/>
<line x1="1311.953965" y1="228.75012" x2="1311.953965" y2="242.05572" stroke="black" stroke-width="4.05"/>
<circle cx="1347.435565" cy="139.49172" r="8.316000000000003" fill="none" stroke="black" stroke-width="4.05"/>
<line x1="2034.234756" y1="166.642459" x2="1850.312599" y2="166.642459" stroke="black" stroke-width="4.05"/>
<line x1="1850.312599" y1="166.642459" x2="1850.312599" y2="117.490849" stroke="black" stroke-width="4.05"/>
<line x1="2034.234756" y1="117.490849" x2="1850.312599" y2="117.490849" stroke="black" stroke-width="4.05"/>
<line x1="2034.234756" y1="166.642459" x2="2034.234756" y2="117.490849" stroke="black" stroke-width="4.05"/>
<line x1="1992.61444" y1="194.389337" x2="1992.61444" y2="166.642459" stroke="black" stroke-width="4.05"/>
<line x1="1893.518453" y1="166.642459" x2="1893.518453" y2="195.974874" stroke="black" stroke-width="4.05"/>
<circle cx="1943.859215" cy="239.577106" r="66.59250380904014" fill="none" stroke="black" stroke-width="4.05"/>
<circle cx="1943.859215" cy="239.577106" r="57.07928897917725" fill="none" stroke="black" stroke-width="4.05"/>
<line x1="1395.085691" y1="798.896383" x2="1395.085691" y2="819.136987" stroke="black" stroke-width="4.05"/>
<line x1="1395.085691" y1="819.136987" x2="1434.579556" y2="819.136987" stroke="black" stroke-width="4.05"/>
<line x1="1434.579556" y1="819.136987" x2="1434.579556" y2="798.896383" stroke="black" stroke-width="4.05"/>
<line x1="1434.579556" y1="798.896383" x2="1395.085691" y2="798.896383" stroke="black" stroke-width="4.05"/>
<line x1="1434.579556" y1="1017.099976" x2="1631.555194" y2="1017.099976" stroke="black" stroke-width="4.05"/>
<line x1="1394.098344" y1="1017.593647" x2="1394.098344" y2="1037.834251" stroke="black" stroke-width="4.05"/>
<line x1="1394.098344" y1="1037.834251" x2="1433.592209" y2="1037.834251" stroke="black" stroke-width="4.05"/>
<line x1="1433.592209" y1="1037.834251" x2="1433.592209" y2="1017.593647" stroke="black" stroke-width="4.05"/>
<line x1="1433.592209" y1="1017.593647" x2="1394.098344" y2="1017.593647" stroke="black" stroke-width="4.05"/>
<path d="m 1433.098534,819.136987 a 197.9629885,197.9629885 0 0 1 197.962988,197.962989" fill="none" stroke="black" stroke-width="4.05"/>
<line x1="1262.728012" y1="1614.934458" x2="1244.342462" y2="1484.114501" stroke="black" stroke-width="4.05"/>
<line x1="1244.342462" y1="1484.114501" x2="1258.459726" y2="1482.130451" stroke="black" stroke-width="4.05"/>
<line x1="1276.845271" y1="1612.950408" x2="1258.459726" y2="1482.130451" stroke="black" stroke-width="4.05"/>
<line x1="1262.728012" y1="1614.934458" x2="1276.845271" y2="1612.950408" stroke="black" stroke-width="4.05"/>
<line x1="1274.993489" y1="1599.774296" x2="1306.316005" y2="1597.291686" stroke="black" stroke-width="4.05"/>
<line x1="1260.311508" y1="1495.306562" x2="1292.046091" y2="1488.927074" stroke="black" stroke-width="4.05"/>
<line x1="1719.186134" y1="1550.783452" x2="1700.800589" y2="1419.963494" stroke="black" stroke-width="4.05"/>
<line x1="1700.800589" y1="1419.963494" x2="1687.624474" y2="1421.815277" stroke="black" stroke-width="4.05"/>
<line x1="1706.010023" y1="1552.635234" x2="1687.624474" y2="1421.815277" stroke="black" stroke-width="4.05"/>
<line x1="1719.186134" y1="1550.783452" x2="1706.010023" y2="1552.635234" stroke="black" stroke-width="4.05"/>
<line x1="1702.408208" y1="1540.664813" x2="1671.614773" y2="1546.91203" stroke="black" stroke-width="4.05"/>
<line x1="1687.726228" y1="1436.197079" x2="1655.330292" y2="1437.870809" stroke="black" stroke-width="4.05"/>
<line x1="1384.411086" y1="1299.353839" x2="1386.39514" y2="1313.471099" stroke="black" stroke-width="4.05"/>
<line x1="1386.39514" y1="1313.471099" x2="1517.215093" y2="1295.085553" stroke="black" stroke-width="4.05"/>
<line x1="1515.231043" y1="1280.96829" x2="1517.215093" y2="1295.085553" stroke="black" stroke-width="4.05"/>
<line x1="1384.411086" y1="1299.353839" x2="1515.231043" y2="1280.96829" stroke="black" stroke-width="4.05"/>
<line x1="1503.097834" y1="1297.069607" x2="1510.41847" y2="1328.671919" stroke="black" stroke-width="4.05"/>
<line x1="1399.571248" y1="1311.619316" x2="1402.186129" y2="1343.882984" stroke="black" stroke-width="4.05"/>
<line x1="1447.488673" y1="1755.003082" x2="1445.50462" y2="1740.885818" stroke="black" stroke-width="4.05"/>
<line x1="1445.50462" y1="1740.885818" x2="1576.324577" y2="1722.500276" stroke="black" stroke-width="4.05"/>
<line x1="1578.308627" y1="1736.617536" x2="1576.324577" y2="1722.500276" stroke="black" stroke-width="4.05"/>
<line x1="1447.488673" y1="1755.003082" x2="1578.308627" y2="1736.617536" stroke="black" stroke-width="4.05"/>
<line x1="1562.207314" y1="1724.484326" x2="1560.533587" y2="1692.088391" stroke="black" stroke-width="4.05"/>
<line x1="1458.680731" y1="1739.03404" x2="1452.301247" y2="1707.299453" stroke="black" stroke-width="4.05"/>
<circle cx="1481.359856" cy="1517.985688" r="191.98080000000002" fill="none" stroke="black" stroke-width="4.05"/>
<line x1="871.925155" y1="1270.405984" x2="871.925155" y2="1080.325984" stroke="black" stroke-width="4.05"/>
<line x1="871.925155" y1="1080.325984" x2="408.129955" y2="1080.325984" stroke="black" stroke-width="4.05"/>
<line x1="408.129955" y1="1080.325984" x2="408.129955" y2="1270.405984" stroke="black" stroke-width="4.05"/>
<line x1="408.129955" y1="1270.405984" x2="431.889955" y2="1270.405984" stroke="black" stroke-width="4.05"/>
<line x1="431.889955" y1="1270.405984" x2="431.889955" y2="1103.135584" stroke="black" stroke-width="4.05"/>
<line x1="431.889955" y1="1103.135584" x2="847.214755" y2="1103.135584" stroke="black" stroke-width="4.05"/>
<line x1="847.214755" y1="1103.135584" x2="847.214755" y2="1270.405984" stroke="black" stroke-width="4.05"/>
<line x1="847.214755" y1="1270.405984" x2="871.925155" y2="1270.405984" stroke="black" stroke-width="4.05"/>
<line x1="847.214755" y1="1264.703584" x2="431.889955" y2="1264.703584" stroke="black" stroke-width="4.05"/>
<line x1="640.027555" y1="1265.653984" x2="640.027555" y2="1104.085984" stroke="black" stroke-width="4.05"/>
<line x1="553.673639" y1="1429.045207" x2="666.456016" y2="1374.037571" stroke="black" stroke-width="4.049996"/>
<line x1="666.456016" y1="1374.037571" x2="721.576372" y2="1487.051057" stroke="black" stroke-width="4.049996"/>
<line x1="721.576372" y1="1487.051057" x2="608.793998" y2="1542.058697" stroke="black" stroke-width="4.049996"/>
<line x1="608.793998" y1="1542.058697" x2="553.673639" y2="1429.045207" stroke="black" stroke-width="4.049996"/>
<line x1="553.329806" y1="1428.926818" x2="721.576372" y2="1487.051057" stroke="black" stroke-width="4.049996"/>
<line x1="608.681279" y1="1541.827584" x2="666.224903" y2="1374.150287" stroke="black" stroke-width="4.049996"/>
<line x1="1799.832056" y1="1048.556923" x2="2008.920056" y2="1048.556923" stroke="black" stroke-width="4.05"/>
<line x1="2008.920056" y1="1048.556923" x2="2008.920056" y2="816.659323" stroke="black" stroke-width="4.05"/>
<line x1="2008.920056" y1="816.659323" x2="1799.832056" y2="816.659323" stroke="black" stroke-width="4.05"/>
<line x1="1799.832056" y1="816.659323" x2="1799.832056" y2="1048.556923" stroke="black" stroke-width="4.05"/>
<line x1="1799.832056" y1="1016.243323" x2="2008.920056" y2="1016.243323" stroke="black" stroke-width="4.05"/>
<line x1="191.043076" y1="1549.808896" x2="301.842832" y2="1727.125578" stroke="black" stroke-width="4.05"/>
<line x1="301.842832" y1="1727.125578" x2="498.503153" y2="1604.23857" stroke="black" stroke-width="4.05"/>
<line x1="498.503153" y1="1604.23857" x2="387.703397" y2="1426.921888" stroke="black" stroke-width="4.05"/>
<line x1="387.703397" y1="1426.921888" x2="191.043076" y2="1549.808896" stroke="black" stroke-width="4.05"/>
<line x1="218.446564" y1="1532.685298" x2="329.246323" y2="1710.00198" stroke="black" stroke-width="4.05"/>
<line x1="1919.891822" y1="1940.948759" x2="1919.891822" y2="1670.401559" stroke="black" stroke-width="4.05"/>
<line x1="1919.891822" y1="1670.401559" x2="2051.839022" y2="1670.401559" stroke="black" stroke-width="4.05"/>
<line x1="2051.839022" y1="1940.948759" x2="2051.839022" y2="1670.401559" stroke="black" stroke-width="4.05"/>
<line x1="1919.891822" y1="1940.948759" x2="2051.839022" y2="1940.948759" stroke="black" stroke-width="4.05"/>
<line x1="1926.544622" y1="1934.295959" x2="1926.544622" y2="1796.250359" stroke="black" stroke-width="4.05"/>
<line x1="1926.544622" y1="1796.250359" x2="2044.631822" y2="1796.250359" stroke="black" stroke-width="4.05"/>
<line x1="2044.631822" y1="1934.295959" x2="2044.631822" y2="1796.250359" stroke="black" stroke-width="4.05"/>
<line x1="1926.544622" y1="1934.295959" x2="2044.631822" y2="1934.295959" stroke="black" stroke-width="4.05"/>
<line x1="1934.306222" y1="1781.835959" x2="1934.306222" y2="1684.815959" stroke="black" stroke-width="4.05"/>
<line x1="1954.819022" y1="1781.835959" x2="1954.819022" y2="1684.815959" stroke="black" stroke-width="4.05"/>
<line x1="1975.886222" y1="1781.281559" x2="1975.886222" y2="1684.261559" stroke="black" stroke-width="4.05"/>
<line x1="1996.399022" y1="1781.281559" x2="1996.399022" y2="1684.261559" stroke="black" stroke-width="4.05"/>
<line x1="2016.911822" y1="1781.835959" x2="2016.911822" y2="1684.815959" stroke="black" stroke-width="4.05"/>
<line x1="2037.424622" y1="1781.835959" x2="2037.424622" y2="1684.815959" stroke="black" stroke-width="4.05"/>
<line x1="2044.631822" y1="1881.627959" x2="2030.771822" y2="1881.627959" stroke="black" stroke-width="4.05"/>
<line x1="2030.771822" y1="1881.627959" x2="2030.771822" y2="1847.255159" stroke="black" stroke-width="4.05"/>
<line x1="2030.771822" y1="1847.255159" x2="2044.077422" y2="1847.255159" stroke="black" stroke-width="4.05"/>
<circle cx="1941.513422" cy="1811.773559" r="8.316000000000003" fill="none" stroke="black" stroke-width="4.05"/>
<line x1="1666.989774" y1="604.690222" x2="1833.081988" y2="604.690222" stroke="black" stroke-width="4.05"/>
<line x1="1833.081988" y1="604.690222" x2="1833.081988" y2="771.122786" stroke="black" stroke-width="4.05"/>
<line x1="1833.081988" y1="771.122786" x2="1666.989774" y2="771.122786" stroke="black" stroke-width="4.05"/>
<line x1="1666.989774" y1="771.122786" x2="1666.989774" y2="604.690222" stroke="black" stroke-width="4.05"/>
<line x1="1666.649423" y1="604.34987" x2="1833.081988" y2="771.122786" stroke="black" stroke-width="4.05"/>
<line x1="1666.989774" y1="770.782435" x2="1832.741633" y2="604.690222" stroke="black" stroke-width="4.05"/>
<line x1="1832.995789" y1="604.424074" x2="1999.088003" y2="604.424074" stroke="black" stroke-width="4.05"/>
<line x1="1999.088003" y1="604.424074" x2="1999.088003" y2="770.856638" stroke="black" stroke-width="4.05"/>
<line x1="1999.088003" y1="770.856638" x2="1832.995789" y2="770.856638" stroke="black" stroke-width="4.05"/>
<line x1="1832.995789" y1="770.856638" x2="1832.995789" y2="604.424074" stroke="black" stroke-width="4.05"/>
<line x1="1832.655438" y1="604.083722" x2="1999.088003" y2="770.856638" stroke="black" stroke-width="4.05"/>
<line x1="1832.995789" y1="770.516287" x2="1998.747648" y2="604.424074" stroke="black" stroke-width="4.05"/>
<line x1="1501.570829" y1="604.276909" x2="1667.663042" y2="604.276909" stroke="black" stroke-width="4.05"/>
<line x1="1667.663042" y1="604.276909" x2="1667.663042" y2="770.709474" stroke="black" stroke-width="4.05"/>
<line x1="1667.663042" y1="770.709474" x2="1501.570829" y2="770.709474" stroke="black" stroke-width="4.05"/>
<line x1="1501.570829" y1="770.709474" x2="1501.570829" y2="604.276909" stroke="black" stroke-width="4.05"/>
<line x1="1501.230478" y1="603.936558" x2="1667.663042" y2="770.709474" stroke="black" stroke-width="4.05"/>
<line x1="1501.570829" y1="770.369123" x2="1667.322688" y2="604.276909" stroke="black" stroke-width="4.05"/>
<line x1="1886.55296" y1="1077.238843" x2="2052.645174" y2="1077.238843" stroke="black" stroke-width="4.05"/>
<line x1="2052.645174" y1="1077.238843" x2="2052.645174" y2="1243.671408" stroke="black" stroke-width="4.05"/>
<line x1="2052.645174" y1="1243.671408" x2="1886.55296" y2="1243.671408" stroke="black" stroke-width="4.05"/>
<line x1="1886.55296" y1="1243.671408" x2="1886.55296" y2="1077.238843" stroke="black" stroke-width="4.05"/>
<line x1="1886.212609" y1="1076.898492" x2="2052.645174" y2="1243.671408" stroke="black" stroke-width="4.05"/>
<line x1="1886.55296" y1="1243.331057" x2="2052.304819" y2="1077.238843" stroke="black" stroke-width="4.05"/>
<line x1="1915.896632" y1="1644.870398" x2="1915.896632" y2="1251.626526" stroke="black" stroke-width="4.05"/>
<line x1="1914.90035" y1="1247.67112" x2="2050.969126" y2="1247.67112" stroke="black" stroke-width="4.05"/>
<line x1="2052.120632" y1="1644.406009" x2="2052.120632" y2="1247.365778" stroke="black" stroke-width="4.05"/>
<line x1="1916.591382" y1="1643.67112" x2="2051.855438" y2="1643.67112" stroke="black" stroke-width="4.05"/>
<line x1="1926.984632" y1="1633.37512" x2="1926.984632" y2="1509.82312" stroke="black" stroke-width="4.05"/>
<line x1="1926.984632" y1="1509.82312" x2="2041.032632" y2="1509.82312" stroke="black" stroke-width="4.05"/>
<line x1="2041.032632" y1="1633.37512" x2="2041.032632" y2="1509.82312" stroke="black" stroke-width="4.05"/>
<line x1="1926.984632" y1="1633.37512" x2="2041.032632" y2="1633.37512" stroke="black" stroke-width="4.05"/>
<line x1="1934.112632" y1="1490.81512" x2="1934.112632" y2="1403.69512" stroke="black" stroke-width="4.05"/>
<line x1="1953.912632" y1="1490.81512" x2="1953.912632" y2="1403.69512" stroke="black" stroke-width="4.05"/>
<line x1="1974.504632" y1="1490.02312" x2="1974.504632" y2="1403.69512" stroke="black" stroke-width="4.05"/>
<line x1="1994.304632" y1="1490.02312" x2="1994.304632" y2="1403.69512" stroke="black" stroke-width="4.05"/>
<line x1="2014.104632" y1="1490.81512" x2="2014.104632" y2="1403.69512" stroke="black" stroke-width="4.05"/>
<line x1="2033.904632" y1="1490.81512" x2="2033.904632" y2="1403.69512" stroke="black" stroke-width="4.05"/>
<line x1="2040.240632" y1="1585.85512" x2="2026.776632" y2="1585.85512" stroke="black" stroke-width="4.05"/>
<line x1="2026.776632" y1="1585.85512" x2="2026.776632" y2="1555.75912" stroke="black" stroke-width="4.05"/>
<line x1="2026.776632" y1="1555.75912" x2="2039.448632" y2="1555.75912" stroke="black" stroke-width="4.05"/>
<line x1="1926.984632" y1="1383.10312" x2="1926.984632" y2="1259.55112" stroke="black" stroke-width="4.05"/>
<line x1="1926.984632" y1="1259.55112" x2="2041.032632" y2="1259.55112" stroke="black" stroke-width="4.05"/>
<line x1="2041.032632" y1="1383.10312" x2="2041.032632" y2="1259.55112" stroke="black" stroke-width="4.05"/>
<line x1="1926.984632" y1="1383.10312" x2="2041.032632" y2="1383.10312" stroke="black" stroke-width="4.05"/>
<line x1="2041.032632" y1="1335.58312" x2="2027.568632" y2="1335.58312" stroke="black" stroke-width="4.05"/>
<line x1="2027.568632" y1="1335.58312" x2="2027.568632" y2="1305.48712" stroke="black" stroke-width="4.05"/>
<line x1="2027.568632" y1="1305.48712" x2="2040.240632" y2="1305.48712" stroke="black" stroke-width="4.05"/>
<circle cx="1941.240632" cy="1524.07912" r="7.128000000000001" fill="none" stroke="black" stroke-width="4.05"/>
<circle cx="1942.032632" cy="1273.80712" r="7.128000000000001" fill="none" stroke="black" stroke-width="4.05"/>
</g>
</svg>
