<?xml version="1.0"?>
<svg xmlns:xlink="http://www.w3.org/1999/xlink" width="2170.8" height="2138.4">
<image x="0" y="0" width="2170.8" height="2138.4" xlink:href="ground16-04.png"/>
<g style="stroke-linecap:round">
<line x1="355.524638" y1="104.449442" x2="594.616565" y2="104.449442" stroke="black" stroke-width="4.05"/>
<line x1="594.616565" y1="104.449442" x2="594.616565" y2="67.591454" stroke="black" stroke-width="4.05"/>
<line x1="594.616565" y1="67.591454" x2="355.524638" y2="67.591454" stroke="black" stroke-width="4.05"/>
<line x1="355.524638" y1="67.591454" x2="355.524638" y2="104.449442" stroke="black" stroke-width="4.05"/>
<line x1="377.833417" y1="68.076428" x2="377.833417" y2="103.964468" stroke="black" stroke-width="4.05"/>
<line x1="571.822812" y1="68.076428" x2="571.822812" y2="105.419387" stroke="black" stroke-width="4.05"/>
<line x1="377.348447" y1="85.0505" x2="571.337838" y2="85.0505" stroke="black" stroke-width="4.05"/>
<line x1="1586.405599" y1="111.127352" x2="1826.175665" y2="111.127352" stroke="black" stroke-width="4.05"/>
<line x1="1826.175665" y1="111.127352" x2="1826.175665" y2="68.24165" stroke="black" stroke-width="4.05"/>
<line x1="1826.175665" y1="68.24165" x2="1586.405599" y2="68.24165" stroke="black" stroke-width="4.05"/>
<line x1="1586.405599" y1="68.24165" x2="1586.405599" y2="111.127352" stroke="black" stroke-width="4.05"/>
<line x1="1597.614361" y1="111.127352" x2="1597.614361" y2="125.747478" stroke="black" stroke-width="4.05"/>
<line x1="1597.614361" y1="125.747478" x2="1814.479564" y2="125.747478" stroke="black" stroke-width="4.05"/>
<line x1="1814.479564" y1="111.127352" x2="1814.479564" y2="125.747478" stroke="black" stroke-width="4.05"/>
<line x1="455.164369" y1="2021.61294" x2="214.682375" y2="2021.61294" stroke="black" stroke-width="4.05"/>
<line x1="214.682375" y1="2021.61294" x2="214.682375" y2="2058.685214" stroke="black" stroke-width="4.05"/>
<line x1="214.682375" y1="2058.685214" x2="455.164369" y2="2058.685214" stroke="black" stroke-width="4.05"/>
<line x1="455.164369" y1="2058.685214" x2="455.164369" y2="2021.61294" stroke="black" stroke-width="4.05"/>
<line x1="432.72589" y1="2058.197422" x2="432.72589" y2="2022.100733" stroke="black" stroke-width="4.05"/>
<line x1="237.608647" y1="2058.197422" x2="237.608647" y2="2020.637354" stroke="black" stroke-width="4.05"/>
<line x1="433.213682" y1="2041.124663" x2="238.096444" y2="2041.124663" stroke="black" stroke-width="4.05"/>
<line x1="1004.406336" y1="2020.979012" x2="764.619372" y2="2020.979012" stroke="black" stroke-width="4.05"/>
<line x1="764.619372" y1="2020.979012" x2="764.619372" y2="2057.944144" stroke="black" stroke-width="4.05"/>
<line x1="764.619372" y1="2057.944144" x2="1004.406336" y2="2057.944144" stroke="black" stroke-width="4.05"/>
<line x1="1004.406336" y1="2057.944144" x2="1004.406336" y2="2020.979012" stroke="black" stroke-width="4.05"/>
<line x1="982.032703" y1="2057.457758" x2="982.032703" y2="2021.465398" stroke="black" stroke-width="4.05"/>
<line x1="787.479386" y1="2057.457758" x2="787.479386" y2="2020.006246" stroke="black" stroke-width="4.05"/>
<line x1="982.519088" y1="2040.434345" x2="787.965772" y2="2040.434345" stroke="black" stroke-width="4.05"/>
<line x1="1502.318696" y1="2015.331124" x2="1262.548631" y2="2015.331124" stroke="black" stroke-width="4.05"/>
<line x1="1262.548631" y1="2015.331124" x2="1262.548631" y2="2058.216826" stroke="black" stroke-width="4.05"/>
<line x1="1262.548631" y1="2058.216826" x2="1502.318696" y2="2058.216826" stroke="black" stroke-width="4.05"/>
<line x1="1502.318696" y1="2058.216826" x2="1502.318696" y2="2015.331124" stroke="black" stroke-width="4.05"/>
<line x1="1491.109934" y1="2015.331124" x2="1491.109934" y2="2000.710998" stroke="black" stroke-width="4.05"/>
<line x1="1491.109934" y1="2000.710998" x2="1274.244732" y2="2000.710998" stroke="black" stroke-width="4.05"/>
<line x1="1274.244732" y1="2015.331124" x2="1274.244732" y2="2000.710998" stroke="black" stroke-width="4.05"/>
<line x1="1977.062742" y1="2015.366839" x2="1737.292676" y2="2015.366839" stroke="black" stroke-width="4.05"/>
<line x1="1737.292676" y1="2015.366839" x2="1737.292676" y2="2058.252541" stroke="black" stroke-width="4.05"/>
<line x1="1737.292676" y1="2058.252541" x2="1977.062742" y2="2058.252541" stroke="black" stroke-width="4.05"/>
<line x1="1977.062742" y1="2058.252541" x2="1977.062742" y2="2015.366839" stroke="black" stroke-width="4.05"/>
<line x1="1965.85398" y1="2015.366839" x2="1965.85398" y2="2000.746714" stroke="black" stroke-width="4.05"/>
<line x1="1965.85398" y1="2000.746714" x2="1748.988778" y2="2000.746714" stroke="black" stroke-width="4.05"/>
<line x1="1748.988778" y1="2015.366839" x2="1748.988778" y2="2000.746714" stroke="black" stroke-width="4.05"/>
<line x1="2064.218674" y1="203.981501" x2="2064.218674" y2="444.463495" stroke="black" stroke-width="4.05"/>
<line x1="2064.218674" y1="444.463495" x2="2101.290948" y2="444.463495" stroke="black" stroke-width="4.05"/>
<line x1="2101.290948" y1="444.463495" x2="2101.290948" y2="203.981501" stroke="black" stroke-width="4.05"/>
<line x1="2101.290948" y1="203.981501" x2="2064.218674" y2="203.981501" stroke="black" stroke-width="4.05"/>
<line x1="2100.803155" y1="226.41998" x2="2064.706466" y2="226.41998" stroke="black" stroke-width="4.05"/>
<line x1="2100.803155" y1="421.537223" x2="2063.243088" y2="421.537223" stroke="black" stroke-width="4.05"/>
<line x1="2083.730396" y1="225.932188" x2="2083.730396" y2="421.049426" stroke="black" stroke-width="4.05"/>
<line x1="2056.953535" y1="776.174944" x2="2056.953535" y2="1027.759766" stroke="black" stroke-width="4.05"/>
<line x1="2056.953535" y1="1027.759766" x2="2101.952448" y2="1027.759766" stroke="black" stroke-width="4.05"/>
<line x1="2101.952448" y1="1027.759766" x2="2101.952448" y2="776.174944" stroke="black" stroke-width="4.05"/>
<line x1="2101.952448" y1="776.174944" x2="2056.953535" y2="776.174944" stroke="black" stroke-width="4.05"/>
<line x1="2056.953535" y1="787.936021" x2="2041.612999" y2="787.936021" stroke="black" stroke-width="4.05"/>
<line x1="2041.612999" y1="787.936021" x2="2041.612999" y2="1015.487334" stroke="black" stroke-width="4.05"/>
<line x1="2056.953535" y1="1015.487334" x2="2041.612999" y2="1015.487334" stroke="black" stroke-width="4.05"/>
<line x1="2064.600925" y1="1369.92258" x2="2064.600925" y2="1611.794646" stroke="black" stroke-width="4.05"/>
<line x1="2064.600925" y1="1611.794646" x2="2101.887493" y2="1611.794646" stroke="black" stroke-width="4.05"/>
<line x1="2101.887493" y1="1611.794646" x2="2101.887493" y2="1369.92258" stroke="black" stroke-width="4.05"/>
<line x1="2101.887493" y1="1369.92258" x2="2064.600925" y2="1369.92258" stroke="black" stroke-width="4.05"/>
<line x1="2101.396882" y1="1392.490764" x2="2065.09154" y2="1392.490764" stroke="black" stroke-width="4.05"/>
<line x1="2101.396882" y1="1588.73585" x2="2063.619702" y2="1588.73585" stroke="black" stroke-width="4.05"/>
<line x1="2084.225436" y1="1392.000152" x2="2084.225436" y2="1588.245235" stroke="black" stroke-width="4.05"/>
<line x1="138.283542" y1="1589.658811" x2="138.283542" y2="1347.786745" stroke="black" stroke-width="4.05"/>
<line x1="138.283542" y1="1347.786745" x2="100.996974" y2="1347.786745" stroke="black" stroke-width="4.05"/>
<line x1="100.996974" y1="1347.786745" x2="100.996974" y2="1589.658811" stroke="black" stroke-width="4.05"/>
<line x1="100.996974" y1="1589.658811" x2="138.283542" y2="1589.658811" stroke="black" stroke-width="4.05"/>
<line x1="101.487586" y1="1567.090627" x2="137.792927" y2="1567.090627" stroke="black" stroke-width="4.05"/>
<line x1="101.487586" y1="1370.845541" x2="139.264765" y2="1370.845541" stroke="black" stroke-width="4.05"/>
<line x1="118.659031" y1="1567.581239" x2="118.659031" y2="1371.336156" stroke="black" stroke-width="4.05"/>
<line x1="139.37324" y1="909.137837" x2="139.37324" y2="667.265771" stroke="black" stroke-width="4.05"/>
<line x1="139.37324" y1="667.265771" x2="102.086672" y2="667.265771" stroke="black" stroke-width="4.05"/>
<line x1="102.086672" y1="667.265771" x2="102.086672" y2="909.137837" stroke="black" stroke-width="4.05"/>
<line x1="102.086672" y1="909.137837" x2="139.37324" y2="909.137837" stroke="black" stroke-width="4.05"/>
<line x1="102.577284" y1="886.569653" x2="138.882625" y2="886.569653" stroke="black" stroke-width="4.05"/>
<line x1="102.577284" y1="690.324566" x2="140.354464" y2="690.324566" stroke="black" stroke-width="4.05"/>
<line x1="119.74873" y1="887.060264" x2="119.74873" y2="690.815182" stroke="black" stroke-width="4.05"/>
<line x1="138.442799" y1="445.034534" x2="138.442799" y2="203.162468" stroke="black" stroke-width="4.05"/>
<line x1="138.442799" y1="203.162468" x2="101.156231" y2="203.162468" stroke="black" stroke-width="4.05"/>
<line x1="101.156231" y1="203.162468" x2="101.156231" y2="445.034534" stroke="black" stroke-width="4.05"/>
<line x1="101.156231" y1="445.034534" x2="138.442799" y2="445.034534" stroke="black" stroke-width="4.05"/>
<line x1="101.646842" y1="422.46635" x2="137.952184" y2="422.46635" stroke="black" stroke-width="4.05"/>
<line x1="101.646842" y1="226.221264" x2="139.424022" y2="226.221264" stroke="black" stroke-width="4.05"/>
<line x1="118.818288" y1="422.956962" x2="118.818288" y2="226.711879" stroke="black" stroke-width="4.05"/>
<line x1="735.470435" y1="715.976179" x2="526.105231" y2="715.976179" stroke="black" stroke-width="4.05"/>
<line x1="526.105231" y1="715.976179" x2="526.105231" y2="1047.190583" stroke="black" stroke-width="4.05"/>
<line x1="526.105231" y1="1047.190583" x2="735.470435" y2="1047.190583" stroke="black" stroke-width="4.05"/>
<line x1="735.470435" y1="1047.190583" x2="735.470435" y2="715.976179" stroke="black" stroke-width="4.05"/>
<line x1="736.143635" y1="987.948979" x2="525.432031" y2="987.948979" stroke="black" stroke-width="4.05"/>
<line x1="525.432031" y1="987.948979" x2="734.797231" y2="938.132179" stroke="black" stroke-width="4.05"/>
<line x1="734.797231" y1="938.132179" x2="703.156831" y2="891.681379" stroke="black" stroke-width="4.05"/>
<line x1="703.156831" y1="891.681379" x2="525.432031" y2="988.622183" stroke="black" stroke-width="4.05"/>
<line x1="1110.575106" y1="1028.171776" x2="1110.575106" y2="1007.813491" stroke="black" stroke-width="4.05"/>
<line x1="1110.575106" y1="1007.813491" x2="1070.851626" y2="1007.813491" stroke="black" stroke-width="4.05"/>
<line x1="1070.851626" y1="1007.813491" x2="1070.851626" y2="1028.171776" stroke="black" stroke-width="4.05"/>
<line x1="1070.851626" y1="1028.171776" x2="1110.575106" y2="1028.171776" stroke="black" stroke-width="4.05"/>
<line x1="1070.851626" y1="808.699558" x2="872.730778" y2="808.699558" stroke="black" stroke-width="4.05"/>
<line x1="1111.568191" y1="808.203013" x2="1111.568191" y2="787.844732" stroke="black" stroke-width="4.05"/>
<line x1="1111.568191" y1="787.844732" x2="1071.844715" y2="787.844732" stroke="black" stroke-width="4.05"/>
<line x1="1071.844715" y1="787.844732" x2="1071.844715" y2="808.203013" stroke="black" stroke-width="4.05"/>
<line x1="1071.844715" y1="808.203013" x2="1111.568191" y2="808.203013" stroke="black" stroke-width="4.05"/>
<path d="m 1072.341256,1007.813491 a 199.11393349999997,199.11393349999997 0 0 1 -199.11393399999997,-199.11393299999997" fill="none" stroke="black" stroke-width="4.05"/>
<line x1="913.136738" y1="247.05077" x2="1080.250153" y2="247.05077" stroke="black" stroke-width="4.05"/>
<line x1="1080.250153" y1="247.05077" x2="1080.250153" y2="414.506628" stroke="black" stroke-width="4.05"/>
<line x1="1080.250153" y1="414.506628" x2="913.136738" y2="414.506628" stroke="black" stroke-width="4.05"/>
<line x1="913.136738" y1="414.506628" x2="913.136738" y2="247.05077" stroke="black" stroke-width="4.05"/>
<line x1="912.794296" y1="246.708324" x2="1080.250153" y2="414.506628" stroke="black" stroke-width="4.05"/>
<line x1="913.136738" y1="414.164185" x2="1079.90771" y2="247.05077" stroke="black" stroke-width="4.05"/>
<line x1="356.797469" y1="146.681824" x2="201.414802" y2="286.589005" stroke="black" stroke-width="4.05"/>
<line x1="201.414802" y1="286.589005" x2="356.584583" y2="458.922506" stroke="black" stroke-width="4.05"/>
<line x1="356.584583" y1="458.922506" x2="511.967246" y2="319.015328" stroke="black" stroke-width="4.05"/>
<line x1="511.967246" y1="319.015328" x2="356.797469" y2="146.681824" stroke="black" stroke-width="4.05"/>
<line x1="378.419486" y1="170.695512" x2="223.036823" y2="310.60269" stroke="black" stroke-width="4.05"/>
<line x1="2030.64498" y1="397.576037" x2="1637.344134" y2="397.576037" stroke="black" stroke-width="4.05"/>
<line x1="1637.344134" y1="397.576037" x2="1637.344134" y2="572.73026" stroke="black" stroke-width="4.05"/>
<line x1="1637.344134" y1="572.73026" x2="2030.64498" y2="572.73026" stroke="black" stroke-width="4.05"/>
<line x1="2030.64498" y1="572.73026" x2="2030.64498" y2="397.576037" stroke="black" stroke-width="4.05"/>
<line x1="1712.978914" y1="545.660971" x2="1998.798761" y2="545.660971" stroke="black" stroke-width="4.05"/>
<line x1="1998.798761" y1="545.660971" x2="1998.798761" y2="427.033793" stroke="black" stroke-width="4.05"/>
<line x1="1998.798761" y1="427.033793" x2="1707.405826" y2="427.033793" stroke="black" stroke-width="4.05"/>
<path d="m 1713.793738,545.917738 a 63.69244535843305,63.69244535843305 0 0 1 -4.316343000000188,-120.00067999999999" fill="none" stroke="black" stroke-width="4.05"/>
<line x1="1132.995863" y1="600.926753" x2="1153.236467" y2="600.926753" stroke="black" stroke-width="4.05"/>
<line x1="1153.236467" y1="600.926753" x2="1153.236467" y2="561.432888" stroke="black" stroke-width="4.05"/>
<line x1="1153.236467" y1="561.432888" x2="1132.995863" y2="561.432888" stroke="black" stroke-width="4.05"/>
<line x1="1132.995863" y1="561.432888" x2="1132.995863" y2="600.926753" stroke="black" stroke-width="4.05"/>
<line x1="1351.199455" y1="561.432888" x2="1351.199455" y2="364.45725" stroke="black" stroke-width="4.05"/>
<line x1="1351.693127" y1="601.9141" x2="1371.933731" y2="601.9141" stroke="black" stroke-width="4.05"/>
<line x1="1371.933731" y1="601.9141" x2="1371.933731" y2="562.420235" stroke="black" stroke-width="4.05"/>
<line x1="1371.933731" y1="562.420235" x2="1351.693127" y2="562.420235" stroke="black" stroke-width="4.05"/>
<line x1="1351.693127" y1="562.420235" x2="1351.693127" y2="601.9141" stroke="black" stroke-width="4.05"/>
<path d="m 1153.236467,562.91391 a 197.962988,197.962988 0 0 1 197.962988,-197.962988" fill="none" stroke="black" stroke-width="4.05"/>
<line x1="1140.654226" y1="118.779192" x2="1533.898098" y2="118.779192" stroke="black" stroke-width="4.05"/>
<line x1="1537.853504" y1="117.78291" x2="1537.853504" y2="253.851685" stroke="black" stroke-width="4.05"/>
<line x1="1141.118615" y1="255.003192" x2="1538.158846" y2="255.003192" stroke="black" stroke-width="4.05"/>
<line x1="1141.853504" y1="119.473942" x2="1141.853504" y2="254.737998" stroke="black" stroke-width="4.05"/>
<line x1="1152.149504" y1="129.867192" x2="1275.701504" y2="129.867192" stroke="black" stroke-width="4.05"/>
<line x1="1275.701504" y1="129.867192" x2="1275.701504" y2="243.915192" stroke="black" stroke-width="4.05"/>
<line x1="1152.149504" y1="243.915192" x2="1275.701504" y2="243.915192" stroke="black" stroke-width="4.05"/>
<line x1="1152.149504" y1="129.867192" x2="1152.149504" y2="243.915192" stroke="black" stroke-width="4.05"/>
<line x1="1294.709504" y1="136.995192" x2="1381.829504" y2="136.995192" stroke="black" stroke-width="4.05"/>
<line x1="1294.709504" y1="156.795192" x2="1381.829504" y2="156.795192" stroke="black" stroke-width="4.05"/>
<line x1="1295.501504" y1="177.387192" x2="1381.829504" y2="177.387192" stroke="black" stroke-width="4.05"/>
<line x1="1295.501504" y1="197.187192" x2="1381.829504" y2="197.187192" stroke="black" stroke-width="4.05"/>
<line x1="1294.709504" y1="216.987192" x2="1381.829504" y2="216.987192" stroke="black" stroke-width="4.05"/>
<line x1="1294.709504" y1="236.787192" x2="1381.829504" y2="236.787192" stroke="black" stroke-width="4.05"/>
<line x1="1199.669504" y1="243.123192" x2="1199.669504" y2="229.659192" stroke="black" stroke-width="4.05"/>
<line x1="1199.669504" y1="229.659192" x2="1229.765504" y2="229.659192" stroke="black" stroke-width="4.05"/>
<line x1="1229.765504" y1="229.659192" x2="1229.765504" y2="242.331192" stroke="black" stroke-width="4.05"/>
<line x1="1402.421504" y1="129.867192" x2="1525.973504" y2="129.867192" stroke="black" stroke-width="4.05"/>
<line x1="1525.973504" y1="129.867192" x2="1525.973504" y2="243.915192" stroke="black" stroke-width="4.05"/>
<line x1="1402.421504" y1="243.915192" x2="1525.973504" y2="243.915192" stroke="black" stroke-width="4.05"/>
<line x1="1402.421504" y1="129.867192" x2="1402.421504" y2="243.915192" stroke="black" stroke-width="4.05"/>
<line x1="1449.941504" y1="243.915192" x2="1449.941504" y2="230.451192" stroke="black" stroke-width="4.05"/>
<line x1="1449.941504" y1="230.451192" x2="1480.037504" y2="230.451192" stroke="black" stroke-width="4.05"/>
<line x1="1480.037504" y1="230.451192" x2="1480.037504" y2="243.123192" stroke="black" stroke-width="4.05"/>
<circle cx="1261.445504" cy="144.123192" r="7.128000000000001" fill="none" stroke="black" stroke-width="4.05"/>
<circle cx="1511.717504" cy="144.915192" r="7.128000000000001" fill="none" stroke="black" stroke-width="4.05"/>
<line x1="2034.234756" y1="166.642459" x2="1850.312599" y2="166.642459" stroke="black" stroke-width="4.05"/>
<line x1="1850.312599" y1="166.642459" x2="1850.312599" y2="117.490849" stroke="black" stroke-width="4.05"/>
<line x1="2034.234756" y1="117.490849" x2="1850.312599" y2="117.490849" stroke="black" stroke-width="4.05"/>
<line x1="2034.234756" y1="166.642459" x2="2034.234756" y2="117.490849" stroke="black" stroke-width="4.05"/>
<line x1="1992.61444" y1="194.389337" x2="1992.61444" y2="166.642459" stroke="black" stroke-width="4.05"/>
<line x1="1893.518453" y1="166.642459" x2="1893.518453" y2="195.974874" stroke="black" stroke-width="4.05"/>
<circle cx="1943.859215" cy="239.577106" r="66.59250380904014" fill="none" stroke="black" stroke-width="4.05"/>
<circle cx="1943.859215" cy="239.577106" r="57.07928897917725" fill="none" stroke="black" stroke-width="4.05"/>
<line x1="1395.085691" y1="798.896383" x2="1395.085691" y2="819.136987" stroke="black" stroke-width="4.05"/>
<line x1="1395.085691" y1="819.136987" x2="1434.579556" y2="819.136987" stroke="black" stroke-width="4.05"/>
<line x1="1434.579556" y1="819.136987" x2="1434.579556" y2="798.896383" stroke="black" stroke-width="4.05"/>
<line x1="1434.579556" y1="798.896383" x2="1395.085691" y2="798.896383" stroke="black" stroke-width="4.05"/>
<line x1="1434.579556" y1="1017.099976" x2="1631.555194" y2="1017.099976" stroke="black" stroke-width="4.05"/>
<line x1="1394.098344" y1="1017.593647" x2="1394.098344" y2="1037.834251" stroke="black" stroke-width="4.05"/>
<line x1="1394.098344" y1="1037.834251" x2="1433.592209" y2="1037.834251" stroke="black" stroke-width="4.05"/>
<line x1="1433.592209" y1="1037.834251" x2="1433.592209" y2="1017.593647" stroke="black" stroke-width="4.05"/>
<line x1="1433.592209" y1="1017.593647" x2="1394.098344" y2="1017.593647" stroke="black" stroke-width="4.05"/>
<path d="m 1433.098534,819.136987 a 197.9629885,197.9629885 0 0 1 197.962988,197.962989" fill="none" stroke="black" stroke-width="4.05"/>
<line x1="1271.992183" y1="1462.619045" x2="1572.918955" y2="1715.126584" stroke="black" stroke-width="4.05"/>
<line x1="1572.918955" y1="1715.126584" x2="1691.53641" y2="1573.763807" stroke="black" stroke-width="4.05"/>
<line x1="1691.53641" y1="1573.763807" x2="1390.609638" y2="1321.256264" stroke="black" stroke-width="4.05"/>
<line x1="1390.609638" y1="1321.256264" x2="1271.992183" y2="1462.619045" stroke="black" stroke-width="4.05"/>
<line x1="1512.557784" y1="1423.582909" x2="1564.484738" y2="1361.698776" stroke="black" stroke-width="4.05"/>
<line x1="1564.484738" y1="1361.698776" x2="1504.420726" y2="1311.299082" stroke="black" stroke-width="4.05"/>
<line x1="1504.420726" y1="1311.299082" x2="1452.493771" y2="1373.183219" stroke="black" stroke-width="4.05"/>
<line x1="1493.827502" y1="1325.15573" x2="1553.284807" y2="1375.04633" stroke="black" stroke-width="4.05"/>
<line x1="1281.440275" y1="1577.036837" x2="1341.504288" y2="1627.436527" stroke="black" stroke-width="4.05"/>
<line x1="1341.504288" y1="1627.436527" x2="1393.940333" y2="1564.945686" stroke="black" stroke-width="4.05"/>
<line x1="1333.87632" y1="1514.545996" x2="1281.440275" y2="1577.036837" stroke="black" stroke-width="4.05"/>
<line x1="1293.246911" y1="1564.198366" x2="1352.704223" y2="1614.088969" stroke="black" stroke-width="4.05"/>
<line x1="1628.438861" y1="1520.818675" x2="1680.365812" y2="1458.934542" stroke="black" stroke-width="4.05"/>
<line x1="1680.365812" y1="1458.934542" x2="1620.301799" y2="1408.534852" stroke="black" stroke-width="4.05"/>
<line x1="1620.301799" y1="1408.534852" x2="1568.374848" y2="1470.418985" stroke="black" stroke-width="4.05"/>
<line x1="1609.101871" y1="1421.88241" x2="1669.165884" y2="1472.2821" stroke="black" stroke-width="4.05"/>
<line x1="1397.321352" y1="1674.272603" x2="1457.385365" y2="1724.672297" stroke="black" stroke-width="4.05"/>
<line x1="1457.385365" y1="1724.672297" x2="1509.821406" y2="1662.181452" stroke="black" stroke-width="4.05"/>
<line x1="1449.757393" y1="1611.781762" x2="1397.321352" y2="1674.272603" stroke="black" stroke-width="4.05"/>
<line x1="1408.52128" y1="1660.925045" x2="1468.585292" y2="1711.324735" stroke="black" stroke-width="4.05"/>
<line x1="835.795127" y1="1270.405984" x2="835.795127" y2="1080.325984" stroke="black" stroke-width="4.05"/>
<line x1="835.795127" y1="1080.325984" x2="371.999927" y2="1080.325984" stroke="black" stroke-width="4.05"/>
<line x1="371.999927" y1="1080.325984" x2="371.999927" y2="1270.405984" stroke="black" stroke-width="4.05"/>
<line x1="371.999927" y1="1270.405984" x2="395.759927" y2="1270.405984" stroke="black" stroke-width="4.05"/>
<line x1="395.759927" y1="1270.405984" x2="395.759927" y2="1103.135584" stroke="black" stroke-width="4.05"/>
<line x1="395.759927" y1="1103.135584" x2="811.084727" y2="1103.135584" stroke="black" stroke-width="4.05"/>
<line x1="811.084727" y1="1103.135584" x2="811.084727" y2="1270.405984" stroke="black" stroke-width="4.05"/>
<line x1="811.084727" y1="1270.405984" x2="835.795127" y2="1270.405984" stroke="black" stroke-width="4.05"/>
<line x1="811.084727" y1="1264.703584" x2="395.759927" y2="1264.703584" stroke="black" stroke-width="4.05"/>
<line x1="603.897527" y1="1265.653984" x2="603.897527" y2="1104.085984" stroke="black" stroke-width="4.05"/>
<line x1="598.453996" y1="1374.361898" x2="721.23089" y2="1419.049037" stroke="black" stroke-width="4.05"/>
<line x1="721.23089" y1="1419.049037" x2="676.452182" y2="1542.077528" stroke="black" stroke-width="4.05"/>
<line x1="676.452182" y1="1542.077528" x2="553.675284" y2="1497.39039" stroke="black" stroke-width="4.05"/>
<line x1="553.675284" y1="1497.39039" x2="598.453996" y2="1374.361898" stroke="black" stroke-width="4.05"/>
<line x1="598.293972" y1="1374.018732" x2="676.452182" y2="1542.077528" stroke="black" stroke-width="4.05"/>
<line x1="553.766857" y1="1497.138797" x2="720.979301" y2="1418.957464" stroke="black" stroke-width="4.05"/>
<line x1="1799.832056" y1="1048.556923" x2="2008.920056" y2="1048.556923" stroke="black" stroke-width="4.05"/>
<line x1="2008.920056" y1="1048.556923" x2="2008.920056" y2="816.659323" stroke="black" stroke-width="4.05"/>
<line x1="2008.920056" y1="816.659323" x2="1799.832056" y2="816.659323" stroke="black" stroke-width="4.05"/>
<line x1="1799.832056" y1="816.659323" x2="1799.832056" y2="1048.556923" stroke="black" stroke-width="4.05"/>
<line x1="1799.832056" y1="1016.243323" x2="2008.920056" y2="1016.243323" stroke="black" stroke-width="4.05"/>
<line x1="1919.891822" y1="1983.002645" x2="1919.891822" y2="1712.455445" stroke="black" stroke-width="4.05"/>
<line x1="1919.891822" y1="1712.455445" x2="2051.839022" y2="1712.455445" stroke="black" stroke-width="4.05"/>
<line x1="2051.839022" y1="1983.002645" x2="2051.839022" y2="1712.455445" stroke="black" stroke-width="4.05"/>
<line x1="1919.891822" y1="1983.002645" x2="2051.839022" y2="1983.002645" stroke="black" stroke-width="4.05"/>
<line x1="1926.544622" y1="1976.349845" x2="1926.544622" y2="1838.304245" stroke="black" stroke-width="4.05"/>
<line x1="1926.544622" y1="1838.304245" x2="2044.631822" y2="1838.304245" stroke="black" stroke-width="4.05"/>
<line x1="2044.631822" y1="1976.349845" x2="2044.631822" y2="1838.304245" stroke="black" stroke-width="4.05"/>
<line x1="1926.544622" y1="1976.349845" x2="2044.631822" y2="1976.349845" stroke="black" stroke-width="4.05"/>
<line x1="1934.306222" y1="1823.889845" x2="1934.306222" y2="1726.869845" stroke="black" stroke-width="4.05"/>
<line x1="1954.819022" y1="1823.889845" x2="1954.819022" y2="1726.869845" stroke="black" stroke-width="4.05"/>
<line x1="1975.886222" y1="1823.335445" x2="1975.886222" y2="1726.315445" stroke="black" stroke-width="4.05"/>
<line x1="1996.399022" y1="1823.335445" x2="1996.399022" y2="1726.315445" stroke="black" stroke-width="4.05"/>
<line x1="2016.911822" y1="1823.889845" x2="2016.911822" y2="1726.869845" stroke="black" stroke-width="4.05"/>
<line x1="2037.424622" y1="1823.889845" x2="2037.424622" y2="1726.869845" stroke="black" stroke-width="4.05"/>
<line x1="2044.631822" y1="1923.681845" x2="2030.771822" y2="1923.681845" stroke="black" stroke-width="4.05"/>
<line x1="2030.771822" y1="1923.681845" x2="2030.771822" y2="1889.309045" stroke="black" stroke-width="4.05"/>
<line x1="2030.771822" y1="1889.309045" x2="2044.077422" y2="1889.309045" stroke="black" stroke-width="4.05"/>
<circle cx="1941.513422" cy="1853.827445" r="8.316000000000003" fill="none" stroke="black" stroke-width="4.05"/>
<line x1="193.264463" y1="1614.689381" x2="366.60627" y2="1731.609907" stroke="black" stroke-width="4.05"/>
<line x1="366.60627" y1="1731.609907" x2="496.281762" y2="1539.358085" stroke="black" stroke-width="4.05"/>
<line x1="496.281762" y1="1539.358085" x2="322.939955" y2="1422.437558" stroke="black" stroke-width="4.05"/>
<line x1="322.939955" y1="1422.437558" x2="193.264463" y2="1614.689381" stroke="black" stroke-width="4.05"/>
<line x1="211.333997" y1="1587.900193" x2="384.675808" y2="1704.820716" stroke="black" stroke-width="4.05"/>
<line x1="1666.989774" y1="604.690222" x2="1833.081988" y2="604.690222" stroke="black" stroke-width="4.05"/>
<line x1="1833.081988" y1="604.690222" x2="1833.081988" y2="771.122786" stroke="black" stroke-width="4.05"/>
<line x1="1833.081988" y1="771.122786" x2="1666.989774" y2="771.122786" stroke="black" stroke-width="4.05"/>
<line x1="1666.989774" y1="771.122786" x2="1666.989774" y2="604.690222" stroke="black" stroke-width="4.05"/>
<line x1="1666.649423" y1="604.34987" x2="1833.081988" y2="771.122786" stroke="black" stroke-width="4.05"/>
<line x1="1666.989774" y1="770.782435" x2="1832.741633" y2="604.690222" stroke="black" stroke-width="4.05"/>
<line x1="1832.995789" y1="604.424074" x2="1999.088003" y2="604.424074" stroke="black" stroke-width="4.05"/>
<line x1="1999.088003" y1="604.424074" x2="1999.088003" y2="770.856638" stroke="black" stroke-width="4.05"/>
<line x1="1999.088003" y1="770.856638" x2="1832.995789" y2="770.856638" stroke="black" stroke-width="4.05"/>
<line x1="1832.995789" y1="770.856638" x2="1832.995789" y2="604.424074" stroke="black" stroke-width="4.05"/>
<line x1="1832.655438" y1="604.083722" x2="1999.088003" y2="770.856638" stroke="black" stroke-width="4.05"/>
<line x1="1832.995789" y1="770.516287" x2="1998.747648" y2="604.424074" stroke="black" stroke-width="4.05"/>
<line x1="1501.570829" y1="604.276909" x2="1667.663042" y2="604.276909" stroke="black" stroke-width="4.05"/>
<line x1="1667.663042" y1="604.276909" x2="1667.663042" y2="770.709474" stroke="black" stroke-width="4.05"/>
<line x1="1667.663042" y1="770.709474" x2="1501.570829" y2="770.709474" stroke="black" stroke-width="4.05"/>
<line x1="1501.570829" y1="770.709474" x2="1501.570829" y2="604.276909" stroke="black" stroke-width="4.05"/>
<line x1="1501.230478" y1="603.936558" x2="1667.663042" y2="770.709474" stroke="black" stroke-width="4.05"/>
<line x1="1501.570829" y1="770.369123" x2="1667.322688" y2="604.276909" stroke="black" stroke-width="4.05"/>
<line x1="1886.55296" y1="1077.238843" x2="2052.645174" y2="1077.238843" stroke="black" stroke-width="4.05"/>
<line x1="2052.645174" y1="1077.238843" x2="2052.645174" y2="1243.671408" stroke="black" stroke-width="4.05"/>
<line x1="2052.645174" y1="1243.671408" x2="1886.55296" y2="1243.671408" stroke="black" stroke-width="4.05"/>
<line x1="1886.55296" y1="1243.671408" x2="1886.55296" y2="1077.238843" stroke="black" stroke-width="4.05"/>
<line x1="1886.212609" y1="1076.898492" x2="2052.645174" y2="1243.671408" stroke="black" stroke-width="4.05"/>
<line x1="1886.55296" y1="1243.331057" x2="2052.304819" y2="1077.238843" stroke="black" stroke-width="4.05"/>
<line x1="1915.896632" y1="1644.870398" x2="1915.896632" y2="1251.626526" stroke="black" stroke-width="4.05"/>
<line x1="1914.90035" y1="1247.67112" x2="2050.969126" y2="1247.67112" stroke="black" stroke-width="4.05"/>
<line x1="2052.120632" y1="1644.406009" x2="2052.120632" y2="1247.365778" stroke="black" stroke-width="4.05"/>
<line x1="1916.591382" y1="1643.67112" x2="2051.855438" y2="1643.67112" stroke="black" stroke-width="4.05"/>
<line x1="1926.984632" y1="1633.37512" x2="1926.984632" y2="1509.82312" stroke="black" stroke-width="4.05"/>
<line x1="1926.984632" y1="1509.82312" x2="2041.032632" y2="1509.82312" stroke="black" stroke-width="4.05"/>
<line x1="2041.032632" y1="1633.37512" x2="2041.032632" y2="1509.82312" stroke="black" stroke-width="4.05"/>
<line x1="1926.984632" y1="1633.37512" x2="2041.032632" y2="1633.37512" stroke="black" stroke-width="4.05"/>
<line x1="1934.112632" y1="1490.81512" x2="1934.112632" y2="1403.69512" stroke="black" stroke-width="4.05"/>
<line x1="1953.912632" y1="1490.81512" x2="1953.912632" y2="1403.69512" stroke="black" stroke-width="4.05"/>
<line x1="1974.504632" y1="1490.02312" x2="1974.504632" y2="1403.69512" stroke="black" stroke-width="4.05"/>
<line x1="1994.304632" y1="1490.02312" x2="1994.304632" y2="1403.69512" stroke="black" stroke-width="4.05"/>
<line x1="2014.104632" y1="1490.81512" x2="2014.104632" y2="1403.69512" stroke="black" stroke-width="4.05"/>
<line x1="2033.904632" y1="1490.81512" x2="2033.904632" y2="1403.69512" stroke="black" stroke-width="4.05"/>
<line x1="2040.240632" y1="1585.85512" x2="2026.776632" y2="1585.85512" stroke="black" stroke-width="4.05"/>
<line x1="2026.776632" y1="1585.85512" x2="2026.776632" y2="1555.75912" stroke="black" stroke-width="4.05"/>
<line x1="2026.776632" y1="1555.75912" x2="2039.448632" y2="1555.75912" stroke="black" stroke-width="4.05"/>
<line x1="1926.984632" y1="1383.10312" x2="1926.984632" y2="1259.55112" stroke="black" stroke-width="4.05"/>
<line x1="1926.984632" y1="1259.55112" x2="2041.032632" y2="1259.55112" stroke="black" stroke-width="4.05"/>
<line x1="2041.032632" y1="1383.10312" x2="2041.032632" y2="1259.55112" stroke="black" stroke-width="4.05"/>
<line x1="1926.984632" y1="1383.10312" x2="2041.032632" y2="1383.10312" stroke="black" stroke-width="4.05"/>
<line x1="2041.032632" y1="1335.58312" x2="2027.568632" y2="1335.58312" stroke="black" stroke-width="4.05"/>
<line x1="2027.568632" y1="1335.58312" x2="2027.568632" y2="1305.48712" stroke="black" stroke-width="4.05"/>
<line x1="2027.568632" y1="1305.48712" x2="2040.240632" y2="1305.48712" stroke="black" stroke-width="4.05"/>
<circle cx="1941.240632" cy="1524.07912" r="7.128000000000001" fill="none" stroke="black" stroke-width="4.05"/>
<circle cx="1942.032632" cy="1273.80712" r="7.128000000000001" fill="none" stroke="black" stroke-width="4.05"/>
</g>
</svg>
