<?xml version="1.0"?>
<svg xmlns:xlink="http://www.w3.org/1999/xlink" width="2170.8" height="2138.4">
<image x="0" y="0" width="2170.8" height="2138.4" xlink:href="ground16-04.png"/>
<g style="stroke-linecap:round">
<line x1="355.533062" y1="110.352848" x2="594.608141" y2="110.352848" stroke="black" stroke-width="4.05"/>
<line x1="594.608141" y1="110.352848" x2="594.608141" y2="67.591451" stroke="black" stroke-width="4.05"/>
<line x1="594.608141" y1="67.591451" x2="355.533062" y2="67.591451" stroke="black" stroke-width="4.05"/>
<line x1="355.533062" y1="67.591451" x2="355.533062" y2="110.352848" stroke="black" stroke-width="4.05"/>
<line x1="366.709334" y1="110.352848" x2="366.709334" y2="124.930598" stroke="black" stroke-width="4.05"/>
<line x1="366.709334" y1="124.930598" x2="582.945941" y2="124.930598" stroke="black" stroke-width="4.05"/>
<line x1="582.945941" y1="110.352848" x2="582.945941" y2="124.930598" stroke="black" stroke-width="4.05"/>
<line x1="1586.405599" y1="111.127352" x2="1826.175665" y2="111.127352" stroke="black" stroke-width="4.05"/>
<line x1="1826.175665" y1="111.127352" x2="1826.175665" y2="68.24165" stroke="black" stroke-width="4.05"/>
<line x1="1826.175665" y1="68.24165" x2="1586.405599" y2="68.24165" stroke="black" stroke-width="4.05"/>
<line x1="1586.405599" y1="68.24165" x2="1586.405599" y2="111.127352" stroke="black" stroke-width="4.05"/>
<line x1="1597.614361" y1="111.127352" x2="1597.614361" y2="125.747478" stroke="black" stroke-width="4.05"/>
<line x1="1597.614361" y1="125.747478" x2="1814.479564" y2="125.747478" stroke="black" stroke-width="4.05"/>
<line x1="1814.479564" y1="111.127352" x2="1814.479564" y2="125.747478" stroke="black" stroke-width="4.05"/>
<line x1="455.155898" y1="2015.675204" x2="214.690846" y2="2015.675204" stroke="black" stroke-width="4.05"/>
<line x1="214.690846" y1="2015.675204" x2="214.690846" y2="2058.685214" stroke="black" stroke-width="4.05"/>
<line x1="214.690846" y1="2058.685214" x2="455.155898" y2="2058.685214" stroke="black" stroke-width="4.05"/>
<line x1="455.155898" y1="2058.685214" x2="455.155898" y2="2015.675204" stroke="black" stroke-width="4.05"/>
<line x1="443.914646" y1="2015.675204" x2="443.914646" y2="2001.012703" stroke="black" stroke-width="4.05"/>
<line x1="443.914646" y1="2001.012703" x2="226.420848" y2="2001.012703" stroke="black" stroke-width="4.05"/>
<line x1="226.420848" y1="2015.675204" x2="226.420848" y2="2001.012703" stroke="black" stroke-width="4.05"/>
<line x1="1004.406336" y1="2020.979012" x2="764.619372" y2="2020.979012" stroke="black" stroke-width="4.05"/>
<line x1="764.619372" y1="2020.979012" x2="764.619372" y2="2057.944144" stroke="black" stroke-width="4.05"/>
<line x1="764.619372" y1="2057.944144" x2="1004.406336" y2="2057.944144" stroke="black" stroke-width="4.05"/>
<line x1="1004.406336" y1="2057.944144" x2="1004.406336" y2="2020.979012" stroke="black" stroke-width="4.05"/>
<line x1="982.032703" y1="2057.457758" x2="982.032703" y2="2021.465398" stroke="black" stroke-width="4.05"/>
<line x1="787.479386" y1="2057.457758" x2="787.479386" y2="2020.006246" stroke="black" stroke-width="4.05"/>
<line x1="982.519088" y1="2040.434345" x2="787.965772" y2="2040.434345" stroke="black" stroke-width="4.05"/>
<line x1="1502.327146" y1="2021.251694" x2="1262.540182" y2="2021.251694" stroke="black" stroke-width="4.05"/>
<line x1="1262.540182" y1="2021.251694" x2="1262.540182" y2="2058.216826" stroke="black" stroke-width="4.05"/>
<line x1="1262.540182" y1="2058.216826" x2="1502.327146" y2="2058.216826" stroke="black" stroke-width="4.05"/>
<line x1="1502.327146" y1="2058.216826" x2="1502.327146" y2="2021.251694" stroke="black" stroke-width="4.05"/>
<line x1="1479.953513" y1="2057.73044" x2="1479.953513" y2="2021.73808" stroke="black" stroke-width="4.05"/>
<line x1="1285.400196" y1="2057.73044" x2="1285.400196" y2="2020.278928" stroke="black" stroke-width="4.05"/>
<line x1="1480.439898" y1="2040.707027" x2="1285.886581" y2="2040.707027" stroke="black" stroke-width="4.05"/>
<line x1="1977.062742" y1="2015.366839" x2="1737.292676" y2="2015.366839" stroke="black" stroke-width="4.05"/>
<line x1="1737.292676" y1="2015.366839" x2="1737.292676" y2="2058.252541" stroke="black" stroke-width="4.05"/>
<line x1="1737.292676" y1="2058.252541" x2="1977.062742" y2="2058.252541" stroke="black" stroke-width="4.05"/>
<line x1="1977.062742" y1="2058.252541" x2="1977.062742" y2="2015.366839" stroke="black" stroke-width="4.05"/>
<line x1="1965.85398" y1="2015.366839" x2="1965.85398" y2="2000.746714" stroke="black" stroke-width="4.05"/>
<line x1="1965.85398" y1="2000.746714" x2="1748.988778" y2="2000.746714" stroke="black" stroke-width="4.05"/>
<line x1="1748.988778" y1="2015.366839" x2="1748.988778" y2="2000.746714" stroke="black" stroke-width="4.05"/>
<line x1="2064.218674" y1="203.981501" x2="2064.218674" y2="444.463495" stroke="black" stroke-width="4.05"/>
<line x1="2064.218674" y1="444.463495" x2="2101.290948" y2="444.463495" stroke="black" stroke-width="4.05"/>
<line x1="2101.290948" y1="444.463495" x2="2101.290948" y2="203.981501" stroke="black" stroke-width="4.05"/>
<line x1="2101.290948" y1="203.981501" x2="2064.218674" y2="203.981501" stroke="black" stroke-width="4.05"/>
<line x1="2100.803155" y1="226.41998" x2="2064.706466" y2="226.41998" stroke="black" stroke-width="4.05"/>
<line x1="2100.803155" y1="421.537223" x2="2063.243088" y2="421.537223" stroke="black" stroke-width="4.05"/>
<line x1="2083.730396" y1="225.932188" x2="2083.730396" y2="421.049426" stroke="black" stroke-width="4.05"/>
<line x1="2056.953535" y1="776.174944" x2="2056.953535" y2="1027.759766" stroke="black" stroke-width="4.05"/>
<line x1="2056.953535" y1="1027.759766" x2="2101.952448" y2="1027.759766" stroke="black" stroke-width="4.05"/>
<line x1="2101.952448" y1="1027.759766" x2="2101.952448" y2="776.174944" stroke="black" stroke-width="4.05"/>
<line x1="2101.952448" y1="776.174944" x2="2056.953535" y2="776.174944" stroke="black" stroke-width="4.05"/>
<line x1="2056.953535" y1="787.936021" x2="2041.612999" y2="787.936021" stroke="black" stroke-width="4.05"/>
<line x1="2041.612999" y1="787.936021" x2="2041.612999" y2="1015.487334" stroke="black" stroke-width="4.05"/>
<line x1="2056.953535" y1="1015.487334" x2="2041.612999" y2="1015.487334" stroke="black" stroke-width="4.05"/>
<line x1="2064.600925" y1="1369.92258" x2="2064.600925" y2="1611.794646" stroke="black" stroke-width="4.05"/>
<line x1="2064.600925" y1="1611.794646" x2="2101.887493" y2="1611.794646" stroke="black" stroke-width="4.05"/>
<line x1="2101.887493" y1="1611.794646" x2="2101.887493" y2="1369.92258" stroke="black" stroke-width="4.05"/>
<line x1="2101.887493" y1="1369.92258" x2="2064.600925" y2="1369.92258" stroke="black" stroke-width="4.05"/>
<line x1="2101.396882" y1="1392.490764" x2="2065.09154" y2="1392.490764" stroke="black" stroke-width="4.05"/>
<line x1="2101.396882" y1="1588.73585" x2="2063.619702" y2="1588.73585" stroke="black" stroke-width="4.05"/>
<line x1="2084.225436" y1="1392.000152" x2="2084.225436" y2="1588.245235" stroke="black" stroke-width="4.05"/>
<line x1="138.283542" y1="1589.658811" x2="138.283542" y2="1347.786745" stroke="black" stroke-width="4.05"/>
<line x1="138.283542" y1="1347.786745" x2="100.996974" y2="1347.786745" stroke="black" stroke-width="4.05"/>
<line x1="100.996974" y1="1347.786745" x2="100.996974" y2="1589.658811" stroke="black" stroke-width="4.05"/>
<line x1="100.996974" y1="1589.658811" x2="138.283542" y2="1589.658811" stroke="black" stroke-width="4.05"/>
<line x1="101.487586" y1="1567.090627" x2="137.792927" y2="1567.090627" stroke="black" stroke-width="4.05"/>
<line x1="101.487586" y1="1370.845541" x2="139.264765" y2="1370.845541" stroke="black" stroke-width="4.05"/>
<line x1="118.659031" y1="1567.581239" x2="118.659031" y2="1371.336156" stroke="black" stroke-width="4.05"/>
<line x1="139.37324" y1="909.137837" x2="139.37324" y2="667.265771" stroke="black" stroke-width="4.05"/>
<line x1="139.37324" y1="667.265771" x2="102.086672" y2="667.265771" stroke="black" stroke-width="4.05"/>
<line x1="102.086672" y1="667.265771" x2="102.086672" y2="909.137837" stroke="black" stroke-width="4.05"/>
<line x1="102.086672" y1="909.137837" x2="139.37324" y2="909.137837" stroke="black" stroke-width="4.05"/>
<line x1="102.577284" y1="886.569653" x2="138.882625" y2="886.569653" stroke="black" stroke-width="4.05"/>
<line x1="102.577284" y1="690.324566" x2="140.354464" y2="690.324566" stroke="black" stroke-width="4.05"/>
<line x1="119.74873" y1="887.060264" x2="119.74873" y2="690.815182" stroke="black" stroke-width="4.05"/>
<line x1="138.442799" y1="445.034534" x2="138.442799" y2="203.162468" stroke="black" stroke-width="4.05"/>
<line x1="138.442799" y1="203.162468" x2="101.156231" y2="203.162468" stroke="black" stroke-width="4.05"/>
<line x1="101.156231" y1="203.162468" x2="101.156231" y2="445.034534" stroke="black" stroke-width="4.05"/>
<line x1="101.156231" y1="445.034534" x2="138.442799" y2="445.034534" stroke="black" stroke-width="4.05"/>
<line x1="101.646842" y1="422.46635" x2="137.952184" y2="422.46635" stroke="black" stroke-width="4.05"/>
<line x1="101.646842" y1="226.221264" x2="139.424022" y2="226.221264" stroke="black" stroke-width="4.05"/>
<line x1="118.818288" y1="422.956962" x2="118.818288" y2="226.711879" stroke="black" stroke-width="4.05"/>
<line x1="608.399021" y1="715.677188" x2="399.033817" y2="715.677188" stroke="black" stroke-width="4.05"/>
<line x1="399.033817" y1="715.677188" x2="399.033817" y2="1046.891592" stroke="black" stroke-width="4.05"/>
<line x1="399.033817" y1="1046.891592" x2="608.399021" y2="1046.891592" stroke="black" stroke-width="4.05"/>
<line x1="608.399021" y1="1046.891592" x2="608.399021" y2="715.677188" stroke="black" stroke-width="4.05"/>
<line x1="609.072221" y1="987.649988" x2="398.360617" y2="987.649988" stroke="black" stroke-width="4.05"/>
<line x1="398.360617" y1="987.649988" x2="607.725817" y2="937.833188" stroke="black" stroke-width="4.05"/>
<line x1="607.725817" y1="937.833188" x2="576.085417" y2="891.382388" stroke="black" stroke-width="4.05"/>
<line x1="576.085417" y1="891.382388" x2="398.360617" y2="988.323192" stroke="black" stroke-width="4.05"/>
<line x1="1110.575106" y1="1028.171776" x2="1110.575106" y2="1007.813491" stroke="black" stroke-width="4.05"/>
<line x1="1110.575106" y1="1007.813491" x2="1070.851626" y2="1007.813491" stroke="black" stroke-width="4.05"/>
<line x1="1070.851626" y1="1007.813491" x2="1070.851626" y2="1028.171776" stroke="black" stroke-width="4.05"/>
<line x1="1070.851626" y1="1028.171776" x2="1110.575106" y2="1028.171776" stroke="black" stroke-width="4.05"/>
<line x1="1070.851626" y1="808.699558" x2="872.730778" y2="808.699558" stroke="black" stroke-width="4.05"/>
<line x1="1111.568191" y1="808.203013" x2="1111.568191" y2="787.844732" stroke="black" stroke-width="4.05"/>
<line x1="1111.568191" y1="787.844732" x2="1071.844715" y2="787.844732" stroke="black" stroke-width="4.05"/>
<line x1="1071.844715" y1="787.844732" x2="1071.844715" y2="808.203013" stroke="black" stroke-width="4.05"/>
<line x1="1071.844715" y1="808.203013" x2="1111.568191" y2="808.203013" stroke="black" stroke-width="4.05"/>
<path d="m 1072.341256,1007.813491 a 199.11393349999997,199.11393349999997 0 0 1 -199.11393399999997,-199.11393299999997" fill="none" stroke="black" stroke-width="4.05"/>
<line x1="913.136738" y1="247.05077" x2="1080.250153" y2="247.05077" stroke="black" stroke-width="4.05"/>
<line x1="1080.250153" y1="247.05077" x2="1080.250153" y2="414.506628" stroke="black" stroke-width="4.05"/>
<line x1="1080.250153" y1="414.506628" x2="913.136738" y2="414.506628" stroke="black" stroke-width="4.05"/>
<line x1="913.136738" y1="414.506628" x2="913.136738" y2="247.05077" stroke="black" stroke-width="4.05"/>
<line x1="912.794296" y1="246.708324" x2="1080.250153" y2="414.506628" stroke="black" stroke-width="4.05"/>
<line x1="913.136738" y1="414.164185" x2="1079.90771" y2="247.05077" stroke="black" stroke-width="4.05"/>
<line x1="356.797469" y1="146.681824" x2="201.414802" y2="286.589005" stroke="black" stroke-width="4.05"/>
<line x1="201.414802" y1="286.589005" x2="356.584583" y2="458.922506" stroke="black" stroke-width="4.05"/>
<line x1="356.584583" y1="458.922506" x2="511.967246" y2="319.015328" stroke="black" stroke-width="4.05"/>
<line x1="511.967246" y1="319.015328" x2="356.797469" y2="146.681824" stroke="black" stroke-width="4.05"/>
<line x1="378.419486" y1="170.695512" x2="223.036823" y2="310.60269" stroke="black" stroke-width="4.05"/>
<line x1="1637.344138" y1="572.730257" x2="2030.644984" y2="572.730257" stroke="black" stroke-width="4.05"/>
<line x1="2030.644984" y1="572.730257" x2="2030.644984" y2="397.576033" stroke="black" stroke-width="4.05"/>
<line x1="2030.644984" y1="397.576033" x2="1637.344138" y2="397.576033" stroke="black" stroke-width="4.05"/>
<line x1="1637.344138" y1="397.576033" x2="1637.344138" y2="572.730257" stroke="black" stroke-width="4.05"/>
<line x1="1955.010204" y1="424.645322" x2="1669.190357" y2="424.645322" stroke="black" stroke-width="4.05"/>
<line x1="1669.190357" y1="424.645322" x2="1669.190357" y2="543.272501" stroke="black" stroke-width="4.05"/>
<line x1="1669.190357" y1="543.272501" x2="1960.583292" y2="543.272501" stroke="black" stroke-width="4.05"/>
<path d="m 1954.19538,424.388556 a 63.69244503127078,63.69244503127078 0 0 1 4.316342000000077,120.00067899999999" fill="none" stroke="black" stroke-width="4.05"/>
<line x1="1132.995863" y1="600.926753" x2="1153.236467" y2="600.926753" stroke="black" stroke-width="4.05"/>
<line x1="1153.236467" y1="600.926753" x2="1153.236467" y2="561.432888" stroke="black" stroke-width="4.05"/>
<line x1="1153.236467" y1="561.432888" x2="1132.995863" y2="561.432888" stroke="black" stroke-width="4.05"/>
<line x1="1132.995863" y1="561.432888" x2="1132.995863" y2="600.926753" stroke="black" stroke-width="4.05"/>
<line x1="1351.199455" y1="561.432888" x2="1351.199455" y2="364.45725" stroke="black" stroke-width="4.05"/>
<line x1="1351.693127" y1="601.9141" x2="1371.933731" y2="601.9141" stroke="black" stroke-width="4.05"/>
<line x1="1371.933731" y1="601.9141" x2="1371.933731" y2="562.420235" stroke="black" stroke-width="4.05"/>
<line x1="1371.933731" y1="562.420235" x2="1351.693127" y2="562.420235" stroke="black" stroke-width="4.05"/>
<line x1="1351.693127" y1="562.420235" x2="1351.693127" y2="601.9141" stroke="black" stroke-width="4.05"/>
<path d="m 1153.236467,562.91391 a 197.962988,197.962988 0 0 1 197.962988,-197.962988" fill="none" stroke="black" stroke-width="4.05"/>
<line x1="1151.139751" y1="118.843916" x2="1544.383624" y2="118.843916" stroke="black" stroke-width="4.05"/>
<line x1="1548.33903" y1="117.847634" x2="1548.33903" y2="253.91641" stroke="black" stroke-width="4.05"/>
<line x1="1151.60414" y1="255.067916" x2="1548.644371" y2="255.067916" stroke="black" stroke-width="4.05"/>
<line x1="1152.33903" y1="119.538666" x2="1152.33903" y2="254.802722" stroke="black" stroke-width="4.05"/>
<line x1="1162.63503" y1="129.931916" x2="1286.18703" y2="129.931916" stroke="black" stroke-width="4.05"/>
<line x1="1286.18703" y1="129.931916" x2="1286.18703" y2="243.979916" stroke="black" stroke-width="4.05"/>
<line x1="1162.63503" y1="243.979916" x2="1286.18703" y2="243.979916" stroke="black" stroke-width="4.05"/>
<line x1="1162.63503" y1="129.931916" x2="1162.63503" y2="243.979916" stroke="black" stroke-width="4.05"/>
<line x1="1305.19503" y1="137.059916" x2="1392.31503" y2="137.059916" stroke="black" stroke-width="4.05"/>
<line x1="1305.19503" y1="156.859916" x2="1392.31503" y2="156.859916" stroke="black" stroke-width="4.05"/>
<line x1="1305.98703" y1="177.451916" x2="1392.31503" y2="177.451916" stroke="black" stroke-width="4.05"/>
<line x1="1305.98703" y1="197.251916" x2="1392.31503" y2="197.251916" stroke="black" stroke-width="4.05"/>
<line x1="1305.19503" y1="217.051916" x2="1392.31503" y2="217.051916" stroke="black" stroke-width="4.05"/>
<line x1="1305.19503" y1="236.851916" x2="1392.31503" y2="236.851916" stroke="black" stroke-width="4.05"/>
<line x1="1210.15503" y1="243.187916" x2="1210.15503" y2="229.723916" stroke="black" stroke-width="4.05"/>
<line x1="1210.15503" y1="229.723916" x2="1240.25103" y2="229.723916" stroke="black" stroke-width="4.05"/>
<line x1="1240.25103" y1="229.723916" x2="1240.25103" y2="242.395916" stroke="black" stroke-width="4.05"/>
<line x1="1412.90703" y1="129.931916" x2="1536.45903" y2="129.931916" stroke="black" stroke-width="4.05"/>
<line x1="1536.45903" y1="129.931916" x2="1536.45903" y2="243.979916" stroke="black" stroke-width="4.05"/>
<line x1="1412.90703" y1="243.979916" x2="1536.45903" y2="243.979916" stroke="black" stroke-width="4.05"/>
<line x1="1412.90703" y1="129.931916" x2="1412.90703" y2="243.979916" stroke="black" stroke-width="4.05"/>
<line x1="1460.42703" y1="243.979916" x2="1460.42703" y2="230.515916" stroke="black" stroke-width="4.05"/>
<line x1="1460.42703" y1="230.515916" x2="1490.52303" y2="230.515916" stroke="black" stroke-width="4.05"/>
<line x1="1490.52303" y1="230.515916" x2="1490.52303" y2="243.187916" stroke="black" stroke-width="4.05"/>
<circle cx="1271.93103" cy="144.187916" r="7.128000000000001" fill="none" stroke="black" stroke-width="4.05"/>
<circle cx="1522.20303" cy="144.979916" r="7.128000000000001" fill="none" stroke="black" stroke-width="4.05"/>
<line x1="2034.234756" y1="166.642459" x2="1850.312599" y2="166.642459" stroke="black" stroke-width="4.05"/>
<line x1="1850.312599" y1="166.642459" x2="1850.312599" y2="117.490849" stroke="black" stroke-width="4.05"/>
<line x1="2034.234756" y1="117.490849" x2="1850.312599" y2="117.490849" stroke="black" stroke-width="4.05"/>
<line x1="2034.234756" y1="166.642459" x2="2034.234756" y2="117.490849" stroke="black" stroke-width="4.05"/>
<line x1="1992.61444" y1="194.389337" x2="1992.61444" y2="166.642459" stroke="black" stroke-width="4.05"/>
<line x1="1893.518453" y1="166.642459" x2="1893.518453" y2="195.974874" stroke="black" stroke-width="4.05"/>
<circle cx="1943.859215" cy="239.577106" r="66.59250380904014" fill="none" stroke="black" stroke-width="4.05"/>
<circle cx="1943.859215" cy="239.577106" r="57.07928897917725" fill="none" stroke="black" stroke-width="4.05"/>
<line x1="1395.085691" y1="798.896383" x2="1395.085691" y2="819.136987" stroke="black" stroke-width="4.05"/>
<line x1="1395.085691" y1="819.136987" x2="1434.579556" y2="819.136987" stroke="black" stroke-width="4.05"/>
<line x1="1434.579556" y1="819.136987" x2="1434.579556" y2="798.896383" stroke="black" stroke-width="4.05"/>
<line x1="1434.579556" y1="798.896383" x2="1395.085691" y2="798.896383" stroke="black" stroke-width="4.05"/>
<line x1="1434.579556" y1="1017.099976" x2="1631.555194" y2="1017.099976" stroke="black" stroke-width="4.05"/>
<line x1="1394.098344" y1="1017.593647" x2="1394.098344" y2="1037.834251" stroke="black" stroke-width="4.05"/>
<line x1="1394.098344" y1="1037.834251" x2="1433.592209" y2="1037.834251" stroke="black" stroke-width="4.05"/>
<line x1="1433.592209" y1="1037.834251" x2="1433.592209" y2="1017.593647" stroke="black" stroke-width="4.05"/>
<line x1="1433.592209" y1="1017.593647" x2="1394.098344" y2="1017.593647" stroke="black" stroke-width="4.05"/>
<path d="m 1433.098534,819.136987 a 197.9629885,197.9629885 0 0 1 197.962988,197.962989" fill="none" stroke="black" stroke-width="4.05"/>
<line x1="1586.43441" y1="1328.674774" x2="1268.626644" y2="1559.575631" stroke="black" stroke-width="4.05"/>
<line x1="1268.626644" y1="1559.575631" x2="1377.094187" y2="1708.86839" stroke="black" stroke-width="4.05"/>
<line x1="1377.094187" y1="1708.86839" x2="1694.901949" y2="1477.967537" stroke="black" stroke-width="4.05"/>
<line x1="1694.901949" y1="1477.967537" x2="1586.43441" y2="1328.674774" stroke="black" stroke-width="4.05"/>
<line x1="1566.112918" y1="1571.538244" x2="1613.596561" y2="1636.893875" stroke="black" stroke-width="4.05"/>
<line x1="1613.596561" y1="1636.893875" x2="1677.029965" y2="1590.806808" stroke="black" stroke-width="4.05"/>
<line x1="1677.029965" y1="1590.806808" x2="1629.546322" y2="1525.451177" stroke="black" stroke-width="4.05"/>
<line x1="1666.147655" y1="1577.17602" x2="1603.35499" y2="1622.79756" stroke="black" stroke-width="4.05"/>
<line x1="1473.129612" y1="1310.162047" x2="1409.696208" y2="1356.249114" stroke="black" stroke-width="4.05"/>
<line x1="1409.696208" y1="1356.249114" x2="1457.645378" y2="1422.245484" stroke="black" stroke-width="4.05"/>
<line x1="1521.078779" y1="1376.158417" x2="1473.129612" y2="1310.162047" stroke="black" stroke-width="4.05"/>
<line x1="1482.730441" y1="1324.723889" x2="1419.93778" y2="1370.345429" stroke="black" stroke-width="4.05"/>
<line x1="1443.731299" y1="1660.453697" x2="1491.214943" y2="1725.809328" stroke="black" stroke-width="4.05"/>
<line x1="1491.214943" y1="1725.809328" x2="1554.648347" y2="1679.722261" stroke="black" stroke-width="4.05"/>
<line x1="1554.648347" y1="1679.722261" x2="1507.164703" y2="1614.36663" stroke="black" stroke-width="4.05"/>
<line x1="1544.406775" y1="1665.625946" x2="1480.973375" y2="1711.713013" stroke="black" stroke-width="4.05"/>
<line x1="1350.747994" y1="1399.0775" x2="1287.31459" y2="1445.164567" stroke="black" stroke-width="4.05"/>
<line x1="1287.31459" y1="1445.164567" x2="1335.26376" y2="1511.160937" stroke="black" stroke-width="4.05"/>
<line x1="1398.69716" y1="1465.07387" x2="1350.747994" y2="1399.0775" stroke="black" stroke-width="4.05"/>
<line x1="1360.989562" y1="1413.173812" x2="1297.556161" y2="1459.260878" stroke="black" stroke-width="4.05"/>
<line x1="774.332435" y1="1270.405984" x2="774.332435" y2="1080.325984" stroke="black" stroke-width="4.05"/>
<line x1="774.332435" y1="1080.325984" x2="310.537235" y2="1080.325984" stroke="black" stroke-width="4.05"/>
<line x1="310.537235" y1="1080.325984" x2="310.537235" y2="1270.405984" stroke="black" stroke-width="4.05"/>
<line x1="310.537235" y1="1270.405984" x2="334.297235" y2="1270.405984" stroke="black" stroke-width="4.05"/>
<line x1="334.297235" y1="1270.405984" x2="334.297235" y2="1103.135584" stroke="black" stroke-width="4.05"/>
<line x1="334.297235" y1="1103.135584" x2="749.622035" y2="1103.135584" stroke="black" stroke-width="4.05"/>
<line x1="749.622035" y1="1103.135584" x2="749.622035" y2="1270.405984" stroke="black" stroke-width="4.05"/>
<line x1="749.622035" y1="1270.405984" x2="774.332435" y2="1270.405984" stroke="black" stroke-width="4.05"/>
<line x1="749.622035" y1="1264.703584" x2="334.297235" y2="1264.703584" stroke="black" stroke-width="4.05"/>
<line x1="542.434835" y1="1265.653984" x2="542.434835" y2="1104.085984" stroke="black" stroke-width="4.05"/>
<line x1="553.808934" y1="1415.233721" x2="680.267498" y2="1374.144844" stroke="black" stroke-width="4.05"/>
<line x1="680.267498" y1="1374.144844" x2="721.440572" y2="1500.86254" stroke="black" stroke-width="4.05"/>
<line x1="721.440572" y1="1500.86254" x2="594.982012" y2="1541.95142" stroke="black" stroke-width="4.05"/>
<line x1="594.982012" y1="1541.95142" x2="553.808934" y2="1415.233721" stroke="black" stroke-width="4.05"/>
<line x1="553.465598" y1="1415.058782" x2="721.440572" y2="1500.86254" stroke="black" stroke-width="4.05"/>
<line x1="594.897811" y1="1541.692285" x2="680.00836" y2="1374.229044" stroke="black" stroke-width="4.05"/>
<line x1="192.086507" y1="1544.460372" x2="296.630507" y2="1725.535894" stroke="black" stroke-width="4.05"/>
<line x1="296.630507" y1="1725.535894" x2="497.459718" y2="1609.587094" stroke="black" stroke-width="4.05"/>
<line x1="497.459718" y1="1609.587094" x2="392.915722" y2="1428.511572" stroke="black" stroke-width="4.05"/>
<line x1="392.915722" y1="1428.511572" x2="192.086507" y2="1544.460372" stroke="black" stroke-width="4.05"/>
<line x1="220.070905" y1="1528.303572" x2="324.614905" y2="1709.379094" stroke="black" stroke-width="4.05"/>
<line x1="1004.104678" y1="1712.603437" x2="1138.503848" y2="1552.432734" stroke="black" stroke-width="4.05"/>
<line x1="1138.503848" y1="1552.432734" x2="960.859984" y2="1403.371832" stroke="black" stroke-width="4.05"/>
<line x1="960.859984" y1="1403.371832" x2="826.460806" y2="1563.542532" stroke="black" stroke-width="4.05"/>
<line x1="826.460806" y1="1563.542532" x2="1004.104678" y2="1712.603437" stroke="black" stroke-width="4.05"/>
<line x1="979.35102" y1="1691.832654" x2="1113.750198" y2="1531.661954" stroke="black" stroke-width="4.05"/>
<line x1="1819.466222" y1="1955.64569" x2="1819.466222" y2="1723.74809" stroke="black" stroke-width="4.05"/>
<line x1="1819.466222" y1="1723.74809" x2="2051.839022" y2="1723.74809" stroke="black" stroke-width="4.05"/>
<line x1="2051.839022" y1="1723.74809" x2="2051.839022" y2="1955.64569" stroke="black" stroke-width="4.05"/>
<line x1="2051.839022" y1="1955.64569" x2="1819.466222" y2="1955.64569" stroke="black" stroke-width="4.05"/>
<line x1="1818.991022" y1="1956.12089" x2="2051.839022" y2="1723.74809" stroke="black" stroke-width="4.05"/>
<line x1="2051.363822" y1="1955.64569" x2="1819.466222" y2="1724.22329" stroke="black" stroke-width="4.05"/>
<line x1="1799.832056" y1="1048.556923" x2="2008.920056" y2="1048.556923" stroke="black" stroke-width="4.05"/>
<line x1="2008.920056" y1="1048.556923" x2="2008.920056" y2="816.659323" stroke="black" stroke-width="4.05"/>
<line x1="2008.920056" y1="816.659323" x2="1799.832056" y2="816.659323" stroke="black" stroke-width="4.05"/>
<line x1="1799.832056" y1="816.659323" x2="1799.832056" y2="1048.556923" stroke="black" stroke-width="4.05"/>
<line x1="1799.832056" y1="1016.243323" x2="2008.920056" y2="1016.243323" stroke="black" stroke-width="4.05"/>
<line x1="1666.989774" y1="604.690222" x2="1833.081988" y2="604.690222" stroke="black" stroke-width="4.05"/>
<line x1="1833.081988" y1="604.690222" x2="1833.081988" y2="771.122786" stroke="black" stroke-width="4.05"/>
<line x1="1833.081988" y1="771.122786" x2="1666.989774" y2="771.122786" stroke="black" stroke-width="4.05"/>
<line x1="1666.989774" y1="771.122786" x2="1666.989774" y2="604.690222" stroke="black" stroke-width="4.05"/>
<line x1="1666.649423" y1="604.34987" x2="1833.081988" y2="771.122786" stroke="black" stroke-width="4.05"/>
<line x1="1666.989774" y1="770.782435" x2="1832.741633" y2="604.690222" stroke="black" stroke-width="4.05"/>
<line x1="1832.995789" y1="604.424074" x2="1999.088003" y2="604.424074" stroke="black" stroke-width="4.05"/>
<line x1="1999.088003" y1="604.424074" x2="1999.088003" y2="770.856638" stroke="black" stroke-width="4.05"/>
<line x1="1999.088003" y1="770.856638" x2="1832.995789" y2="770.856638" stroke="black" stroke-width="4.05"/>
<line x1="1832.995789" y1="770.856638" x2="1832.995789" y2="604.424074" stroke="black" stroke-width="4.05"/>
<line x1="1832.655438" y1="604.083722" x2="1999.088003" y2="770.856638" stroke="black" stroke-width="4.05"/>
<line x1="1832.995789" y1="770.516287" x2="1998.747648" y2="604.424074" stroke="black" stroke-width="4.05"/>
<line x1="1501.570829" y1="604.276909" x2="1667.663042" y2="604.276909" stroke="black" stroke-width="4.05"/>
<line x1="1667.663042" y1="604.276909" x2="1667.663042" y2="770.709474" stroke="black" stroke-width="4.05"/>
<line x1="1667.663042" y1="770.709474" x2="1501.570829" y2="770.709474" stroke="black" stroke-width="4.05"/>
<line x1="1501.570829" y1="770.709474" x2="1501.570829" y2="604.276909" stroke="black" stroke-width="4.05"/>
<line x1="1501.230478" y1="603.936558" x2="1667.663042" y2="770.709474" stroke="black" stroke-width="4.05"/>
<line x1="1501.570829" y1="770.369123" x2="1667.322688" y2="604.276909" stroke="black" stroke-width="4.05"/>
<line x1="1886.55296" y1="1077.238843" x2="2052.645174" y2="1077.238843" stroke="black" stroke-width="4.05"/>
<line x1="2052.645174" y1="1077.238843" x2="2052.645174" y2="1243.671408" stroke="black" stroke-width="4.05"/>
<line x1="2052.645174" y1="1243.671408" x2="1886.55296" y2="1243.671408" stroke="black" stroke-width="4.05"/>
<line x1="1886.55296" y1="1243.671408" x2="1886.55296" y2="1077.238843" stroke="black" stroke-width="4.05"/>
<line x1="1886.212609" y1="1076.898492" x2="2052.645174" y2="1243.671408" stroke="black" stroke-width="4.05"/>
<line x1="1886.55296" y1="1243.331057" x2="2052.304819" y2="1077.238843" stroke="black" stroke-width="4.05"/>
<line x1="1915.896632" y1="1644.870398" x2="1915.896632" y2="1251.626526" stroke="black" stroke-width="4.05"/>
<line x1="1914.90035" y1="1247.67112" x2="2050.969126" y2="1247.67112" stroke="black" stroke-width="4.05"/>
<line x1="2052.120632" y1="1644.406009" x2="2052.120632" y2="1247.365778" stroke="black" stroke-width="4.05"/>
<line x1="1916.591382" y1="1643.67112" x2="2051.855438" y2="1643.67112" stroke="black" stroke-width="4.05"/>
<line x1="1926.984632" y1="1633.37512" x2="1926.984632" y2="1509.82312" stroke="black" stroke-width="4.05"/>
<line x1="1926.984632" y1="1509.82312" x2="2041.032632" y2="1509.82312" stroke="black" stroke-width="4.05"/>
<line x1="2041.032632" y1="1633.37512" x2="2041.032632" y2="1509.82312" stroke="black" stroke-width="4.05"/>
<line x1="1926.984632" y1="1633.37512" x2="2041.032632" y2="1633.37512" stroke="black" stroke-width="4.05"/>
<line x1="1934.112632" y1="1490.81512" x2="1934.112632" y2="1403.69512" stroke="black" stroke-width="4.05"/>
<line x1="1953.912632" y1="1490.81512" x2="1953.912632" y2="1403.69512" stroke="black" stroke-width="4.05"/>
<line x1="1974.504632" y1="1490.02312" x2="1974.504632" y2="1403.69512" stroke="black" stroke-width="4.05"/>
<line x1="1994.304632" y1="1490.02312" x2="1994.304632" y2="1403.69512" stroke="black" stroke-width="4.05"/>
<line x1="2014.104632" y1="1490.81512" x2="2014.104632" y2="1403.69512" stroke="black" stroke-width="4.05"/>
<line x1="2033.904632" y1="1490.81512" x2="2033.904632" y2="1403.69512" stroke="black" stroke-width="4.05"/>
<line x1="2040.240632" y1="1585.85512" x2="2026.776632" y2="1585.85512" stroke="black" stroke-width="4.05"/>
<line x1="2026.776632" y1="1585.85512" x2="2026.776632" y2="1555.75912" stroke="black" stroke-width="4.05"/>
<line x1="2026.776632" y1="1555.75912" x2="2039.448632" y2="1555.75912" stroke="black" stroke-width="4.05"/>
<line x1="1926.984632" y1="1383.10312" x2="1926.984632" y2="1259.55112" stroke="black" stroke-width="4.05"/>
<line x1="1926.984632" y1="1259.55112" x2="2041.032632" y2="1259.55112" stroke="black" stroke-width="4.05"/>
<line x1="2041.032632" y1="1383.10312" x2="2041.032632" y2="1259.55112" stroke="black" stroke-width="4.05"/>
<line x1="1926.984632" y1="1383.10312" x2="2041.032632" y2="1383.10312" stroke="black" stroke-width="4.05"/>
<line x1="2041.032632" y1="1335.58312" x2="2027.568632" y2="1335.58312" stroke="black" stroke-width="4.05"/>
<line x1="2027.568632" y1="1335.58312" x2="2027.568632" y2="1305.48712" stroke="black" stroke-width="4.05"/>
<line x1="2027.568632" y1="1305.48712" x2="2040.240632" y2="1305.48712" stroke="black" stroke-width="4.05"/>
<circle cx="1941.240632" cy="1524.07912" r="7.128000000000001" fill="none" stroke="black" stroke-width="4.05"/>
<circle cx="1942.032632" cy="1273.80712" r="7.128000000000001" fill="none" stroke="black" stroke-width="4.05"/>
</g>
</svg>
