<?xml version="1.0"?>
<svg xmlns:xlink="http://www.w3.org/1999/xlink" width="2170.8" height="2138.4">
<image x="0" y="0" width="2170.8" height="2138.4" xlink:href="ground16-04.png"/>
<g style="stroke-linecap:round">
<line x1="355.524638" y1="104.449442" x2="594.616565" y2="104.449442" stroke="black" stroke-width="4.05"/>
<line x1="594.616565" y1="104.449442" x2="594.616565" y2="67.591454" stroke="black" stroke-width="4.05"/>
<line x1="594.616565" y1="67.591454" x2="355.524638" y2="67.591454" stroke="black" stroke-width="4.05"/>
<line x1="355.524638" y1="67.591454" x2="355.524638" y2="104.449442" stroke="black" stroke-width="4.05"/>
<line x1="377.833417" y1="68.076428" x2="377.833417" y2="103.964468" stroke="black" stroke-width="4.05"/>
<line x1="571.822812" y1="68.076428" x2="571.822812" y2="105.419387" stroke="black" stroke-width="4.05"/>
<line x1="377.348447" y1="85.0505" x2="571.337838" y2="85.0505" stroke="black" stroke-width="4.05"/>
<line x1="1586.405599" y1="111.127352" x2="1826.175665" y2="111.127352" stroke="black" stroke-width="4.05"/>
<line x1="1826.175665" y1="111.127352" x2="1826.175665" y2="68.24165" stroke="black" stroke-width="4.05"/>
<line x1="1826.175665" y1="68.24165" x2="1586.405599" y2="68.24165" stroke="black" stroke-width="4.05"/>
<line x1="1586.405599" y1="68.24165" x2="1586.405599" y2="111.127352" stroke="black" stroke-width="4.05"/>
<line x1="1597.614361" y1="111.127352" x2="1597.614361" y2="125.747478" stroke="black" stroke-width="4.05"/>
<line x1="1597.614361" y1="125.747478" x2="1814.479564" y2="125.747478" stroke="black" stroke-width="4.05"/>
<line x1="1814.479564" y1="111.127352" x2="1814.479564" y2="125.747478" stroke="black" stroke-width="4.05"/>
<line x1="455.155898" y1="2015.675204" x2="214.690846" y2="2015.675204" stroke="black" stroke-width="4.05"/>
<line x1="214.690846" y1="2015.675204" x2="214.690846" y2="2058.685214" stroke="black" stroke-width="4.05"/>
<line x1="214.690846" y1="2058.685214" x2="455.155898" y2="2058.685214" stroke="black" stroke-width="4.05"/>
<line x1="455.155898" y1="2058.685214" x2="455.155898" y2="2015.675204" stroke="black" stroke-width="4.05"/>
<line x1="443.914646" y1="2015.675204" x2="443.914646" y2="2001.012703" stroke="black" stroke-width="4.05"/>
<line x1="443.914646" y1="2001.012703" x2="226.420848" y2="2001.012703" stroke="black" stroke-width="4.05"/>
<line x1="226.420848" y1="2015.675204" x2="226.420848" y2="2001.012703" stroke="black" stroke-width="4.05"/>
<line x1="1004.397887" y1="2015.058442" x2="764.627821" y2="2015.058442" stroke="black" stroke-width="4.05"/>
<line x1="764.627821" y1="2015.058442" x2="764.627821" y2="2057.944144" stroke="black" stroke-width="4.05"/>
<line x1="764.627821" y1="2057.944144" x2="1004.397887" y2="2057.944144" stroke="black" stroke-width="4.05"/>
<line x1="1004.397887" y1="2057.944144" x2="1004.397887" y2="2015.058442" stroke="black" stroke-width="4.05"/>
<line x1="993.189125" y1="2015.058442" x2="993.189125" y2="2000.438316" stroke="black" stroke-width="4.05"/>
<line x1="993.189125" y1="2000.438316" x2="776.323922" y2="2000.438316" stroke="black" stroke-width="4.05"/>
<line x1="776.323922" y1="2015.058442" x2="776.323922" y2="2000.438316" stroke="black" stroke-width="4.05"/>
<line x1="1502.327146" y1="2021.251694" x2="1262.540182" y2="2021.251694" stroke="black" stroke-width="4.05"/>
<line x1="1262.540182" y1="2021.251694" x2="1262.540182" y2="2058.216826" stroke="black" stroke-width="4.05"/>
<line x1="1262.540182" y1="2058.216826" x2="1502.327146" y2="2058.216826" stroke="black" stroke-width="4.05"/>
<line x1="1502.327146" y1="2058.216826" x2="1502.327146" y2="2021.251694" stroke="black" stroke-width="4.05"/>
<line x1="1479.953513" y1="2057.73044" x2="1479.953513" y2="2021.73808" stroke="black" stroke-width="4.05"/>
<line x1="1285.400196" y1="2057.73044" x2="1285.400196" y2="2020.278928" stroke="black" stroke-width="4.05"/>
<line x1="1480.439898" y1="2040.707027" x2="1285.886581" y2="2040.707027" stroke="black" stroke-width="4.05"/>
<line x1="1977.062742" y1="2015.366839" x2="1737.292676" y2="2015.366839" stroke="black" stroke-width="4.05"/>
<line x1="1737.292676" y1="2015.366839" x2="1737.292676" y2="2058.252541" stroke="black" stroke-width="4.05"/>
<line x1="1737.292676" y1="2058.252541" x2="1977.062742" y2="2058.252541" stroke="black" stroke-width="4.05"/>
<line x1="1977.062742" y1="2058.252541" x2="1977.062742" y2="2015.366839" stroke="black" stroke-width="4.05"/>
<line x1="1965.85398" y1="2015.366839" x2="1965.85398" y2="2000.746714" stroke="black" stroke-width="4.05"/>
<line x1="1965.85398" y1="2000.746714" x2="1748.988778" y2="2000.746714" stroke="black" stroke-width="4.05"/>
<line x1="1748.988778" y1="2015.366839" x2="1748.988778" y2="2000.746714" stroke="black" stroke-width="4.05"/>
<line x1="2058.575306" y1="203.989972" x2="2058.575306" y2="444.455024" stroke="black" stroke-width="4.05"/>
<line x1="2058.575306" y1="444.455024" x2="2101.585316" y2="444.455024" stroke="black" stroke-width="4.05"/>
<line x1="2101.585316" y1="444.455024" x2="2101.585316" y2="203.989972" stroke="black" stroke-width="4.05"/>
<line x1="2101.585316" y1="203.989972" x2="2058.575306" y2="203.989972" stroke="black" stroke-width="4.05"/>
<line x1="2058.575306" y1="215.231224" x2="2043.912805" y2="215.231224" stroke="black" stroke-width="4.05"/>
<line x1="2043.912805" y1="215.231224" x2="2043.912805" y2="432.725022" stroke="black" stroke-width="4.05"/>
<line x1="2058.575306" y1="432.725022" x2="2043.912805" y2="432.725022" stroke="black" stroke-width="4.05"/>
<line x1="2056.953535" y1="776.174944" x2="2056.953535" y2="1027.759766" stroke="black" stroke-width="4.05"/>
<line x1="2056.953535" y1="1027.759766" x2="2101.952448" y2="1027.759766" stroke="black" stroke-width="4.05"/>
<line x1="2101.952448" y1="1027.759766" x2="2101.952448" y2="776.174944" stroke="black" stroke-width="4.05"/>
<line x1="2101.952448" y1="776.174944" x2="2056.953535" y2="776.174944" stroke="black" stroke-width="4.05"/>
<line x1="2056.953535" y1="787.936021" x2="2041.612999" y2="787.936021" stroke="black" stroke-width="4.05"/>
<line x1="2041.612999" y1="787.936021" x2="2041.612999" y2="1015.487334" stroke="black" stroke-width="4.05"/>
<line x1="2056.953535" y1="1015.487334" x2="2041.612999" y2="1015.487334" stroke="black" stroke-width="4.05"/>
<line x1="2064.600925" y1="1369.92258" x2="2064.600925" y2="1611.794646" stroke="black" stroke-width="4.05"/>
<line x1="2064.600925" y1="1611.794646" x2="2101.887493" y2="1611.794646" stroke="black" stroke-width="4.05"/>
<line x1="2101.887493" y1="1611.794646" x2="2101.887493" y2="1369.92258" stroke="black" stroke-width="4.05"/>
<line x1="2101.887493" y1="1369.92258" x2="2064.600925" y2="1369.92258" stroke="black" stroke-width="4.05"/>
<line x1="2101.396882" y1="1392.490764" x2="2065.09154" y2="1392.490764" stroke="black" stroke-width="4.05"/>
<line x1="2101.396882" y1="1588.73585" x2="2063.619702" y2="1588.73585" stroke="black" stroke-width="4.05"/>
<line x1="2084.225436" y1="1392.000152" x2="2084.225436" y2="1588.245235" stroke="black" stroke-width="4.05"/>
<line x1="144.255596" y1="1589.650286" x2="144.255596" y2="1347.795266" stroke="black" stroke-width="4.05"/>
<line x1="144.255596" y1="1347.795266" x2="100.996974" y2="1347.795266" stroke="black" stroke-width="4.05"/>
<line x1="100.996974" y1="1347.795266" x2="100.996974" y2="1589.650286" stroke="black" stroke-width="4.05"/>
<line x1="100.996974" y1="1589.650286" x2="144.255596" y2="1589.650286" stroke="black" stroke-width="4.05"/>
<line x1="144.255596" y1="1578.344054" x2="159.002856" y2="1578.344054" stroke="black" stroke-width="4.05"/>
<line x1="159.002856" y1="1578.344054" x2="159.002856" y2="1359.593071" stroke="black" stroke-width="4.05"/>
<line x1="144.255596" y1="1359.593071" x2="159.002856" y2="1359.593071" stroke="black" stroke-width="4.05"/>
<line x1="145.345295" y1="909.129312" x2="145.345295" y2="667.274292" stroke="black" stroke-width="4.05"/>
<line x1="145.345295" y1="667.274292" x2="102.086672" y2="667.274292" stroke="black" stroke-width="4.05"/>
<line x1="102.086672" y1="667.274292" x2="102.086672" y2="909.129312" stroke="black" stroke-width="4.05"/>
<line x1="102.086672" y1="909.129312" x2="145.345295" y2="909.129312" stroke="black" stroke-width="4.05"/>
<line x1="145.345295" y1="897.82308" x2="160.092554" y2="897.82308" stroke="black" stroke-width="4.05"/>
<line x1="160.092554" y1="897.82308" x2="160.092554" y2="679.072097" stroke="black" stroke-width="4.05"/>
<line x1="145.345295" y1="679.072097" x2="160.092554" y2="679.072097" stroke="black" stroke-width="4.05"/>
<line x1="144.414853" y1="445.02601" x2="144.414853" y2="203.17099" stroke="black" stroke-width="4.05"/>
<line x1="144.414853" y1="203.17099" x2="101.156231" y2="203.17099" stroke="black" stroke-width="4.05"/>
<line x1="101.156231" y1="203.17099" x2="101.156231" y2="445.02601" stroke="black" stroke-width="4.05"/>
<line x1="101.156231" y1="445.02601" x2="144.414853" y2="445.02601" stroke="black" stroke-width="4.05"/>
<line x1="144.414853" y1="433.719778" x2="159.162113" y2="433.719778" stroke="black" stroke-width="4.05"/>
<line x1="159.162113" y1="433.719778" x2="159.162113" y2="214.968794" stroke="black" stroke-width="4.05"/>
<line x1="144.414853" y1="214.968794" x2="159.162113" y2="214.968794" stroke="black" stroke-width="4.05"/>
<line x1="474.766783" y1="715.362761" x2="265.40158" y2="715.362761" stroke="black" stroke-width="4.05"/>
<line x1="265.40158" y1="715.362761" x2="265.40158" y2="1046.577164" stroke="black" stroke-width="4.05"/>
<line x1="265.40158" y1="1046.577164" x2="474.766783" y2="1046.577164" stroke="black" stroke-width="4.05"/>
<line x1="474.766783" y1="1046.577164" x2="474.766783" y2="715.362761" stroke="black" stroke-width="4.05"/>
<line x1="475.439983" y1="987.335561" x2="264.72838" y2="987.335561" stroke="black" stroke-width="4.05"/>
<line x1="264.72838" y1="987.335561" x2="474.09358" y2="937.518761" stroke="black" stroke-width="4.05"/>
<line x1="474.09358" y1="937.518761" x2="442.45318" y2="891.067961" stroke="black" stroke-width="4.05"/>
<line x1="442.45318" y1="891.067961" x2="264.72838" y2="988.008764" stroke="black" stroke-width="4.05"/>
<line x1="1110.575106" y1="1028.171776" x2="1110.575106" y2="1007.813491" stroke="black" stroke-width="4.05"/>
<line x1="1110.575106" y1="1007.813491" x2="1070.851626" y2="1007.813491" stroke="black" stroke-width="4.05"/>
<line x1="1070.851626" y1="1007.813491" x2="1070.851626" y2="1028.171776" stroke="black" stroke-width="4.05"/>
<line x1="1070.851626" y1="1028.171776" x2="1110.575106" y2="1028.171776" stroke="black" stroke-width="4.05"/>
<line x1="1070.851626" y1="808.699558" x2="872.730778" y2="808.699558" stroke="black" stroke-width="4.05"/>
<line x1="1111.568191" y1="808.203013" x2="1111.568191" y2="787.844732" stroke="black" stroke-width="4.05"/>
<line x1="1111.568191" y1="787.844732" x2="1071.844715" y2="787.844732" stroke="black" stroke-width="4.05"/>
<line x1="1071.844715" y1="787.844732" x2="1071.844715" y2="808.203013" stroke="black" stroke-width="4.05"/>
<line x1="1071.844715" y1="808.203013" x2="1111.568191" y2="808.203013" stroke="black" stroke-width="4.05"/>
<path d="m 1072.341256,1007.813491 a 199.11393349999997,199.11393349999997 0 0 1 -199.11393399999997,-199.11393299999997" fill="none" stroke="black" stroke-width="4.05"/>
<line x1="913.136738" y1="247.05077" x2="1080.250153" y2="247.05077" stroke="black" stroke-width="4.05"/>
<line x1="1080.250153" y1="247.05077" x2="1080.250153" y2="414.506628" stroke="black" stroke-width="4.05"/>
<line x1="1080.250153" y1="414.506628" x2="913.136738" y2="414.506628" stroke="black" stroke-width="4.05"/>
<line x1="913.136738" y1="414.506628" x2="913.136738" y2="247.05077" stroke="black" stroke-width="4.05"/>
<line x1="912.794296" y1="246.708324" x2="1080.250153" y2="414.506628" stroke="black" stroke-width="4.05"/>
<line x1="913.136738" y1="414.164185" x2="1079.90771" y2="247.05077" stroke="black" stroke-width="4.05"/>
<line x1="319.025376" y1="151.293517" x2="202.10485" y2="324.635324" stroke="black" stroke-width="4.05"/>
<line x1="202.10485" y1="324.635324" x2="394.356672" y2="454.310816" stroke="black" stroke-width="4.05"/>
<line x1="394.356672" y1="454.310816" x2="511.277198" y2="280.969009" stroke="black" stroke-width="4.05"/>
<line x1="511.277198" y1="280.969009" x2="319.025376" y2="151.293517" stroke="black" stroke-width="4.05"/>
<line x1="345.814564" y1="169.363051" x2="228.894041" y2="342.704862" stroke="black" stroke-width="4.05"/>
<line x1="1637.344138" y1="572.730257" x2="2030.644984" y2="572.730257" stroke="black" stroke-width="4.05"/>
<line x1="2030.644984" y1="572.730257" x2="2030.644984" y2="397.576033" stroke="black" stroke-width="4.05"/>
<line x1="2030.644984" y1="397.576033" x2="1637.344138" y2="397.576033" stroke="black" stroke-width="4.05"/>
<line x1="1637.344138" y1="397.576033" x2="1637.344138" y2="572.730257" stroke="black" stroke-width="4.05"/>
<line x1="1955.010204" y1="424.645322" x2="1669.190357" y2="424.645322" stroke="black" stroke-width="4.05"/>
<line x1="1669.190357" y1="424.645322" x2="1669.190357" y2="543.272501" stroke="black" stroke-width="4.05"/>
<line x1="1669.190357" y1="543.272501" x2="1960.583292" y2="543.272501" stroke="black" stroke-width="4.05"/>
<path d="m 1954.19538,424.388556 a 63.69244503127078,63.69244503127078 0 0 1 4.316342000000077,120.00067899999999" fill="none" stroke="black" stroke-width="4.05"/>
<line x1="1132.995863" y1="600.926753" x2="1153.236467" y2="600.926753" stroke="black" stroke-width="4.05"/>
<line x1="1153.236467" y1="600.926753" x2="1153.236467" y2="561.432888" stroke="black" stroke-width="4.05"/>
<line x1="1153.236467" y1="561.432888" x2="1132.995863" y2="561.432888" stroke="black" stroke-width="4.05"/>
<line x1="1132.995863" y1="561.432888" x2="1132.995863" y2="600.926753" stroke="black" stroke-width="4.05"/>
<line x1="1351.199455" y1="561.432888" x2="1351.199455" y2="364.45725" stroke="black" stroke-width="4.05"/>
<line x1="1351.693127" y1="601.9141" x2="1371.933731" y2="601.9141" stroke="black" stroke-width="4.05"/>
<line x1="1371.933731" y1="601.9141" x2="1371.933731" y2="562.420235" stroke="black" stroke-width="4.05"/>
<line x1="1371.933731" y1="562.420235" x2="1351.693127" y2="562.420235" stroke="black" stroke-width="4.05"/>
<line x1="1351.693127" y1="562.420235" x2="1351.693127" y2="601.9141" stroke="black" stroke-width="4.05"/>
<path d="m 1153.236467,562.91391 a 197.962988,197.962988 0 0 1 197.962988,-197.962988" fill="none" stroke="black" stroke-width="4.05"/>
<line x1="1144.544494" y1="118.803208" x2="1537.788366" y2="118.803208" stroke="black" stroke-width="4.05"/>
<line x1="1541.743772" y1="117.806926" x2="1541.743772" y2="253.875701" stroke="black" stroke-width="4.05"/>
<line x1="1145.008883" y1="255.027208" x2="1542.049114" y2="255.027208" stroke="black" stroke-width="4.05"/>
<line x1="1145.743772" y1="119.497957" x2="1145.743772" y2="254.762014" stroke="black" stroke-width="4.05"/>
<line x1="1156.039772" y1="129.891208" x2="1279.591772" y2="129.891208" stroke="black" stroke-width="4.05"/>
<line x1="1279.591772" y1="129.891208" x2="1279.591772" y2="243.939208" stroke="black" stroke-width="4.05"/>
<line x1="1156.039772" y1="243.939208" x2="1279.591772" y2="243.939208" stroke="black" stroke-width="4.05"/>
<line x1="1156.039772" y1="129.891208" x2="1156.039772" y2="243.939208" stroke="black" stroke-width="4.05"/>
<line x1="1298.599772" y1="137.019208" x2="1385.719772" y2="137.019208" stroke="black" stroke-width="4.05"/>
<line x1="1298.599772" y1="156.819208" x2="1385.719772" y2="156.819208" stroke="black" stroke-width="4.05"/>
<line x1="1299.391772" y1="177.411208" x2="1385.719772" y2="177.411208" stroke="black" stroke-width="4.05"/>
<line x1="1299.391772" y1="197.211208" x2="1385.719772" y2="197.211208" stroke="black" stroke-width="4.05"/>
<line x1="1298.599772" y1="217.011208" x2="1385.719772" y2="217.011208" stroke="black" stroke-width="4.05"/>
<line x1="1298.599772" y1="236.811208" x2="1385.719772" y2="236.811208" stroke="black" stroke-width="4.05"/>
<line x1="1203.559772" y1="243.147208" x2="1203.559772" y2="229.683208" stroke="black" stroke-width="4.05"/>
<line x1="1203.559772" y1="229.683208" x2="1233.655772" y2="229.683208" stroke="black" stroke-width="4.05"/>
<line x1="1233.655772" y1="229.683208" x2="1233.655772" y2="242.355208" stroke="black" stroke-width="4.05"/>
<line x1="1406.311772" y1="129.891208" x2="1529.863772" y2="129.891208" stroke="black" stroke-width="4.05"/>
<line x1="1529.863772" y1="129.891208" x2="1529.863772" y2="243.939208" stroke="black" stroke-width="4.05"/>
<line x1="1406.311772" y1="243.939208" x2="1529.863772" y2="243.939208" stroke="black" stroke-width="4.05"/>
<line x1="1406.311772" y1="129.891208" x2="1406.311772" y2="243.939208" stroke="black" stroke-width="4.05"/>
<line x1="1453.831772" y1="243.939208" x2="1453.831772" y2="230.475208" stroke="black" stroke-width="4.05"/>
<line x1="1453.831772" y1="230.475208" x2="1483.927772" y2="230.475208" stroke="black" stroke-width="4.05"/>
<line x1="1483.927772" y1="230.475208" x2="1483.927772" y2="243.147208" stroke="black" stroke-width="4.05"/>
<circle cx="1265.335772" cy="144.147208" r="7.128000000000001" fill="none" stroke="black" stroke-width="4.05"/>
<circle cx="1515.607772" cy="144.939208" r="7.128000000000001" fill="none" stroke="black" stroke-width="4.05"/>
<line x1="2034.234756" y1="166.642459" x2="1850.312599" y2="166.642459" stroke="black" stroke-width="4.05"/>
<line x1="1850.312599" y1="166.642459" x2="1850.312599" y2="117.490849" stroke="black" stroke-width="4.05"/>
<line x1="2034.234756" y1="117.490849" x2="1850.312599" y2="117.490849" stroke="black" stroke-width="4.05"/>
<line x1="2034.234756" y1="166.642459" x2="2034.234756" y2="117.490849" stroke="black" stroke-width="4.05"/>
<line x1="1992.61444" y1="194.389337" x2="1992.61444" y2="166.642459" stroke="black" stroke-width="4.05"/>
<line x1="1893.518453" y1="166.642459" x2="1893.518453" y2="195.974874" stroke="black" stroke-width="4.05"/>
<circle cx="1943.859215" cy="239.577106" r="66.59250380904014" fill="none" stroke="black" stroke-width="4.05"/>
<circle cx="1943.859215" cy="239.577106" r="57.07928897917725" fill="none" stroke="black" stroke-width="4.05"/>
<line x1="1395.085691" y1="798.896383" x2="1395.085691" y2="819.136987" stroke="black" stroke-width="4.05"/>
<line x1="1395.085691" y1="819.136987" x2="1434.579556" y2="819.136987" stroke="black" stroke-width="4.05"/>
<line x1="1434.579556" y1="819.136987" x2="1434.579556" y2="798.896383" stroke="black" stroke-width="4.05"/>
<line x1="1434.579556" y1="798.896383" x2="1395.085691" y2="798.896383" stroke="black" stroke-width="4.05"/>
<line x1="1434.579556" y1="1017.099976" x2="1631.555194" y2="1017.099976" stroke="black" stroke-width="4.05"/>
<line x1="1394.098344" y1="1017.593647" x2="1394.098344" y2="1037.834251" stroke="black" stroke-width="4.05"/>
<line x1="1394.098344" y1="1037.834251" x2="1433.592209" y2="1037.834251" stroke="black" stroke-width="4.05"/>
<line x1="1433.592209" y1="1037.834251" x2="1433.592209" y2="1017.593647" stroke="black" stroke-width="4.05"/>
<line x1="1433.592209" y1="1017.593647" x2="1394.098344" y2="1017.593647" stroke="black" stroke-width="4.05"/>
<path d="m 1433.098534,819.136987 a 197.9629885,197.9629885 0 0 1 197.962988,197.962989" fill="none" stroke="black" stroke-width="4.05"/>
<line x1="1439.881096" y1="1754.088188" x2="1321.14537" y2="1696.176907" stroke="black" stroke-width="4.05"/>
<line x1="1321.14537" y1="1696.176907" x2="1327.39479" y2="1683.363697" stroke="black" stroke-width="4.05"/>
<line x1="1446.130512" y1="1741.274986" x2="1327.39479" y2="1683.363697" stroke="black" stroke-width="4.05"/>
<line x1="1439.881096" y1="1754.088188" x2="1446.130512" y2="1741.274986" stroke="black" stroke-width="4.05"/>
<line x1="1434.171521" y1="1735.442194" x2="1449.628672" y2="1708.086391" stroke="black" stroke-width="4.05"/>
<line x1="1339.353781" y1="1689.196489" x2="1351.810703" y2="1659.319963" stroke="black" stroke-width="4.05"/>
<line x1="1641.945647" y1="1339.794468" x2="1523.209918" y2="1281.883187" stroke="black" stroke-width="4.05"/>
<line x1="1523.209918" y1="1281.883187" x2="1517.377126" y2="1293.842178" stroke="black" stroke-width="4.05"/>
<line x1="1636.112855" y1="1351.753459" x2="1517.377126" y2="1293.842178" stroke="black" stroke-width="4.05"/>
<line x1="1641.945647" y1="1339.794468" x2="1636.112855" y2="1351.753459" stroke="black" stroke-width="4.05"/>
<line x1="1624.174819" y1="1348.045726" x2="1612.134526" y2="1377.06804" stroke="black" stroke-width="4.05"/>
<line x1="1529.35708" y1="1301.800025" x2="1512.629086" y2="1329.593411" stroke="black" stroke-width="4.05"/>
<line x1="1246.297219" y1="1476.737903" x2="1259.110426" y2="1482.987323" stroke="black" stroke-width="4.05"/>
<line x1="1259.110426" y1="1482.987323" x2="1317.02171" y2="1364.251597" stroke="black" stroke-width="4.05"/>
<line x1="1304.2085" y1="1358.002177" x2="1317.02171" y2="1364.251597" stroke="black" stroke-width="4.05"/>
<line x1="1246.297219" y1="1476.737903" x2="1304.2085" y2="1358.002177" stroke="black" stroke-width="4.05"/>
<line x1="1310.772294" y1="1377.064804" x2="1341.065444" y2="1388.66751" stroke="black" stroke-width="4.05"/>
<line x1="1264.943218" y1="1471.028328" x2="1293.153235" y2="1486.902107" stroke="black" stroke-width="4.05"/>
<line x1="1659.3201" y1="1679.240041" x2="1646.50689" y2="1672.990621" stroke="black" stroke-width="4.05"/>
<line x1="1646.50689" y1="1672.990621" x2="1704.418175" y2="1554.254892" stroke="black" stroke-width="4.05"/>
<line x1="1717.231381" y1="1560.504316" x2="1704.418175" y2="1554.254892" stroke="black" stroke-width="4.05"/>
<line x1="1659.3201" y1="1679.240041" x2="1717.231381" y2="1560.504316" stroke="black" stroke-width="4.05"/>
<line x1="1698.168758" y1="1567.068102" x2="1670.375369" y2="1550.340112" stroke="black" stroke-width="4.05"/>
<line x1="1652.339686" y1="1661.031626" x2="1622.463156" y2="1648.574701" stroke="black" stroke-width="4.05"/>
<circle cx="1481.764302" cy="1518.621109" r="191.98080000000002" fill="none" stroke="black" stroke-width="4.05"/>
<line x1="825.88635" y1="1270.405984" x2="825.88635" y2="1080.325984" stroke="black" stroke-width="4.05"/>
<line x1="825.88635" y1="1080.325984" x2="362.09115" y2="1080.325984" stroke="black" stroke-width="4.05"/>
<line x1="362.09115" y1="1080.325984" x2="362.09115" y2="1270.405984" stroke="black" stroke-width="4.05"/>
<line x1="362.09115" y1="1270.405984" x2="385.85115" y2="1270.405984" stroke="black" stroke-width="4.05"/>
<line x1="385.85115" y1="1270.405984" x2="385.85115" y2="1103.135584" stroke="black" stroke-width="4.05"/>
<line x1="385.85115" y1="1103.135584" x2="801.17595" y2="1103.135584" stroke="black" stroke-width="4.05"/>
<line x1="801.17595" y1="1103.135584" x2="801.17595" y2="1270.405984" stroke="black" stroke-width="4.05"/>
<line x1="801.17595" y1="1270.405984" x2="825.88635" y2="1270.405984" stroke="black" stroke-width="4.05"/>
<line x1="801.17595" y1="1264.703584" x2="385.85115" y2="1264.703584" stroke="black" stroke-width="4.05"/>
<line x1="593.98875" y1="1265.653984" x2="593.98875" y2="1104.085984" stroke="black" stroke-width="4.05"/>
<line x1="608.641816" y1="1374.266884" x2="721.346976" y2="1429.23686" stroke="black" stroke-width="4.05"/>
<line x1="721.346976" y1="1429.23686" x2="666.264352" y2="1542.172972" stroke="black" stroke-width="4.05"/>
<line x1="666.264352" y1="1542.172972" x2="553.559195" y2="1487.202995" stroke="black" stroke-width="4.05"/>
<line x1="553.559195" y1="1487.202995" x2="608.641816" y2="1374.266884" stroke="black" stroke-width="4.05"/>
<line x1="608.523505" y1="1373.923289" x2="666.264352" y2="1542.172972" stroke="black" stroke-width="4.05"/>
<line x1="553.671839" y1="1486.97204" x2="721.116022" y2="1429.12422" stroke="black" stroke-width="4.05"/>
<line x1="1799.832056" y1="1048.556923" x2="2008.920056" y2="1048.556923" stroke="black" stroke-width="4.05"/>
<line x1="2008.920056" y1="1048.556923" x2="2008.920056" y2="816.659323" stroke="black" stroke-width="4.05"/>
<line x1="2008.920056" y1="816.659323" x2="1799.832056" y2="816.659323" stroke="black" stroke-width="4.05"/>
<line x1="1799.832056" y1="816.659323" x2="1799.832056" y2="1048.556923" stroke="black" stroke-width="4.05"/>
<line x1="1799.832056" y1="1016.243323" x2="2008.920056" y2="1016.243323" stroke="black" stroke-width="4.05"/>
<line x1="189.49689" y1="1593.236894" x2="344.879557" y2="1733.144076" stroke="black" stroke-width="4.05"/>
<line x1="344.879557" y1="1733.144076" x2="500.049335" y2="1560.810571" stroke="black" stroke-width="4.05"/>
<line x1="500.049335" y1="1560.810571" x2="344.666671" y2="1420.903393" stroke="black" stroke-width="4.05"/>
<line x1="344.666671" y1="1420.903393" x2="189.49689" y2="1593.236894" stroke="black" stroke-width="4.05"/>
<line x1="211.118911" y1="1569.22321" x2="366.501575" y2="1709.130388" stroke="black" stroke-width="4.05"/>
<line x1="1045.884953" y1="1700.653957" x2="1130.9287" y2="1509.642565" stroke="black" stroke-width="4.05"/>
<line x1="1130.9287" y1="1509.642565" x2="919.079701" y2="1415.321312" stroke="black" stroke-width="4.05"/>
<line x1="919.079701" y1="1415.321312" x2="834.035954" y2="1606.332712" stroke="black" stroke-width="4.05"/>
<line x1="834.035954" y1="1606.332712" x2="1045.884953" y2="1700.653957" stroke="black" stroke-width="4.05"/>
<line x1="1016.36501" y1="1687.510832" x2="1101.408757" y2="1496.49944" stroke="black" stroke-width="4.05"/>
<line x1="1819.466222" y1="1920.236468" x2="1819.466222" y2="1688.338868" stroke="black" stroke-width="4.05"/>
<line x1="1819.466222" y1="1688.338868" x2="2051.839022" y2="1688.338868" stroke="black" stroke-width="4.05"/>
<line x1="2051.839022" y1="1688.338868" x2="2051.839022" y2="1920.236468" stroke="black" stroke-width="4.05"/>
<line x1="2051.839022" y1="1920.236468" x2="1819.466222" y2="1920.236468" stroke="black" stroke-width="4.05"/>
<line x1="1818.991022" y1="1920.711668" x2="2051.839022" y2="1688.338868" stroke="black" stroke-width="4.05"/>
<line x1="2051.363822" y1="1920.236468" x2="1819.466222" y2="1688.814068" stroke="black" stroke-width="4.05"/>
<line x1="1666.989774" y1="604.690222" x2="1833.081988" y2="604.690222" stroke="black" stroke-width="4.05"/>
<line x1="1833.081988" y1="604.690222" x2="1833.081988" y2="771.122786" stroke="black" stroke-width="4.05"/>
<line x1="1833.081988" y1="771.122786" x2="1666.989774" y2="771.122786" stroke="black" stroke-width="4.05"/>
<line x1="1666.989774" y1="771.122786" x2="1666.989774" y2="604.690222" stroke="black" stroke-width="4.05"/>
<line x1="1666.649423" y1="604.34987" x2="1833.081988" y2="771.122786" stroke="black" stroke-width="4.05"/>
<line x1="1666.989774" y1="770.782435" x2="1832.741633" y2="604.690222" stroke="black" stroke-width="4.05"/>
<line x1="1832.995789" y1="604.424074" x2="1999.088003" y2="604.424074" stroke="black" stroke-width="4.05"/>
<line x1="1999.088003" y1="604.424074" x2="1999.088003" y2="770.856638" stroke="black" stroke-width="4.05"/>
<line x1="1999.088003" y1="770.856638" x2="1832.995789" y2="770.856638" stroke="black" stroke-width="4.05"/>
<line x1="1832.995789" y1="770.856638" x2="1832.995789" y2="604.424074" stroke="black" stroke-width="4.05"/>
<line x1="1832.655438" y1="604.083722" x2="1999.088003" y2="770.856638" stroke="black" stroke-width="4.05"/>
<line x1="1832.995789" y1="770.516287" x2="1998.747648" y2="604.424074" stroke="black" stroke-width="4.05"/>
<line x1="1501.570829" y1="604.276909" x2="1667.663042" y2="604.276909" stroke="black" stroke-width="4.05"/>
<line x1="1667.663042" y1="604.276909" x2="1667.663042" y2="770.709474" stroke="black" stroke-width="4.05"/>
<line x1="1667.663042" y1="770.709474" x2="1501.570829" y2="770.709474" stroke="black" stroke-width="4.05"/>
<line x1="1501.570829" y1="770.709474" x2="1501.570829" y2="604.276909" stroke="black" stroke-width="4.05"/>
<line x1="1501.230478" y1="603.936558" x2="1667.663042" y2="770.709474" stroke="black" stroke-width="4.05"/>
<line x1="1501.570829" y1="770.369123" x2="1667.322688" y2="604.276909" stroke="black" stroke-width="4.05"/>
<line x1="1886.55296" y1="1077.238843" x2="2052.645174" y2="1077.238843" stroke="black" stroke-width="4.05"/>
<line x1="2052.645174" y1="1077.238843" x2="2052.645174" y2="1243.671408" stroke="black" stroke-width="4.05"/>
<line x1="2052.645174" y1="1243.671408" x2="1886.55296" y2="1243.671408" stroke="black" stroke-width="4.05"/>
<line x1="1886.55296" y1="1243.671408" x2="1886.55296" y2="1077.238843" stroke="black" stroke-width="4.05"/>
<line x1="1886.212609" y1="1076.898492" x2="2052.645174" y2="1243.671408" stroke="black" stroke-width="4.05"/>
<line x1="1886.55296" y1="1243.331057" x2="2052.304819" y2="1077.238843" stroke="black" stroke-width="4.05"/>
<line x1="1915.896632" y1="1644.870398" x2="1915.896632" y2="1251.626526" stroke="black" stroke-width="4.05"/>
<line x1="1914.90035" y1="1247.67112" x2="2050.969126" y2="1247.67112" stroke="black" stroke-width="4.05"/>
<line x1="2052.120632" y1="1644.406009" x2="2052.120632" y2="1247.365778" stroke="black" stroke-width="4.05"/>
<line x1="1916.591382" y1="1643.67112" x2="2051.855438" y2="1643.67112" stroke="black" stroke-width="4.05"/>
<line x1="1926.984632" y1="1633.37512" x2="1926.984632" y2="1509.82312" stroke="black" stroke-width="4.05"/>
<line x1="1926.984632" y1="1509.82312" x2="2041.032632" y2="1509.82312" stroke="black" stroke-width="4.05"/>
<line x1="2041.032632" y1="1633.37512" x2="2041.032632" y2="1509.82312" stroke="black" stroke-width="4.05"/>
<line x1="1926.984632" y1="1633.37512" x2="2041.032632" y2="1633.37512" stroke="black" stroke-width="4.05"/>
<line x1="1934.112632" y1="1490.81512" x2="1934.112632" y2="1403.69512" stroke="black" stroke-width="4.05"/>
<line x1="1953.912632" y1="1490.81512" x2="1953.912632" y2="1403.69512" stroke="black" stroke-width="4.05"/>
<line x1="1974.504632" y1="1490.02312" x2="1974.504632" y2="1403.69512" stroke="black" stroke-width="4.05"/>
<line x1="1994.304632" y1="1490.02312" x2="1994.304632" y2="1403.69512" stroke="black" stroke-width="4.05"/>
<line x1="2014.104632" y1="1490.81512" x2="2014.104632" y2="1403.69512" stroke="black" stroke-width="4.05"/>
<line x1="2033.904632" y1="1490.81512" x2="2033.904632" y2="1403.69512" stroke="black" stroke-width="4.05"/>
<line x1="2040.240632" y1="1585.85512" x2="2026.776632" y2="1585.85512" stroke="black" stroke-width="4.05"/>
<line x1="2026.776632" y1="1585.85512" x2="2026.776632" y2="1555.75912" stroke="black" stroke-width="4.05"/>
<line x1="2026.776632" y1="1555.75912" x2="2039.448632" y2="1555.75912" stroke="black" stroke-width="4.05"/>
<line x1="1926.984632" y1="1383.10312" x2="1926.984632" y2="1259.55112" stroke="black" stroke-width="4.05"/>
<line x1="1926.984632" y1="1259.55112" x2="2041.032632" y2="1259.55112" stroke="black" stroke-width="4.05"/>
<line x1="2041.032632" y1="1383.10312" x2="2041.032632" y2="1259.55112" stroke="black" stroke-width="4.05"/>
<line x1="1926.984632" y1="1383.10312" x2="2041.032632" y2="1383.10312" stroke="black" stroke-width="4.05"/>
<line x1="2041.032632" y1="1335.58312" x2="2027.568632" y2="1335.58312" stroke="black" stroke-width="4.05"/>
<line x1="2027.568632" y1="1335.58312" x2="2027.568632" y2="1305.48712" stroke="black" stroke-width="4.05"/>
<line x1="2027.568632" y1="1305.48712" x2="2040.240632" y2="1305.48712" stroke="black" stroke-width="4.05"/>
<circle cx="1941.240632" cy="1524.07912" r="7.128000000000001" fill="none" stroke="black" stroke-width="4.05"/>
<circle cx="1942.032632" cy="1273.80712" r="7.128000000000001" fill="none" stroke="black" stroke-width="4.05"/>
</g>
</svg>
