<?xml version="1.0"?>
<svg xmlns:xlink="http://www.w3.org/1999/xlink" width="2170.8" height="2138.4">
<image x="0" y="0" width="2170.8" height="2138.4" xlink:href="ground16-04.png"/>
<g style="stroke-linecap:round">
<line x1="355.524638" y1="104.449442" x2="594.616565" y2="104.449442" stroke="black" stroke-width="4.05"/>
<line x1="594.616565" y1="104.449442" x2="594.616565" y2="67.591454" stroke="black" stroke-width="4.05"/>
<line x1="594.616565" y1="67.591454" x2="355.524638" y2="67.591454" stroke="black" stroke-width="4.05"/>
<line x1="355.524638" y1="67.591454" x2="355.524638" y2="104.449442" stroke="black" stroke-width="4.05"/>
<line x1="377.833417" y1="68.076428" x2="377.833417" y2="103.964468" stroke="black" stroke-width="4.05"/>
<line x1="571.822812" y1="68.076428" x2="571.822812" y2="105.419387" stroke="black" stroke-width="4.05"/>
<line x1="377.348447" y1="85.0505" x2="571.337838" y2="85.0505" stroke="black" stroke-width="4.05"/>
<line x1="1586.39715" y1="105.206782" x2="1826.184114" y2="105.206782" stroke="black" stroke-width="4.05"/>
<line x1="1826.184114" y1="105.206782" x2="1826.184114" y2="68.24165" stroke="black" stroke-width="4.05"/>
<line x1="1826.184114" y1="68.24165" x2="1586.39715" y2="68.24165" stroke="black" stroke-width="4.05"/>
<line x1="1586.39715" y1="68.24165" x2="1586.39715" y2="105.206782" stroke="black" stroke-width="4.05"/>
<line x1="1608.770783" y1="68.728036" x2="1608.770783" y2="104.720396" stroke="black" stroke-width="4.05"/>
<line x1="1803.3241" y1="68.728036" x2="1803.3241" y2="106.179548" stroke="black" stroke-width="4.05"/>
<line x1="1608.284398" y1="85.751449" x2="1802.837714" y2="85.751449" stroke="black" stroke-width="4.05"/>
<line x1="455.164369" y1="2021.61294" x2="214.682375" y2="2021.61294" stroke="black" stroke-width="4.05"/>
<line x1="214.682375" y1="2021.61294" x2="214.682375" y2="2058.685214" stroke="black" stroke-width="4.05"/>
<line x1="214.682375" y1="2058.685214" x2="455.164369" y2="2058.685214" stroke="black" stroke-width="4.05"/>
<line x1="455.164369" y1="2058.685214" x2="455.164369" y2="2021.61294" stroke="black" stroke-width="4.05"/>
<line x1="432.72589" y1="2058.197422" x2="432.72589" y2="2022.100733" stroke="black" stroke-width="4.05"/>
<line x1="237.608647" y1="2058.197422" x2="237.608647" y2="2020.637354" stroke="black" stroke-width="4.05"/>
<line x1="433.213682" y1="2041.124663" x2="238.096444" y2="2041.124663" stroke="black" stroke-width="4.05"/>
<line x1="1004.406336" y1="2020.979012" x2="764.619372" y2="2020.979012" stroke="black" stroke-width="4.05"/>
<line x1="764.619372" y1="2020.979012" x2="764.619372" y2="2057.944144" stroke="black" stroke-width="4.05"/>
<line x1="764.619372" y1="2057.944144" x2="1004.406336" y2="2057.944144" stroke="black" stroke-width="4.05"/>
<line x1="1004.406336" y1="2057.944144" x2="1004.406336" y2="2020.979012" stroke="black" stroke-width="4.05"/>
<line x1="982.032703" y1="2057.457758" x2="982.032703" y2="2021.465398" stroke="black" stroke-width="4.05"/>
<line x1="787.479386" y1="2057.457758" x2="787.479386" y2="2020.006246" stroke="black" stroke-width="4.05"/>
<line x1="982.519088" y1="2040.434345" x2="787.965772" y2="2040.434345" stroke="black" stroke-width="4.05"/>
<line x1="1502.327146" y1="2021.251694" x2="1262.540182" y2="2021.251694" stroke="black" stroke-width="4.05"/>
<line x1="1262.540182" y1="2021.251694" x2="1262.540182" y2="2058.216826" stroke="black" stroke-width="4.05"/>
<line x1="1262.540182" y1="2058.216826" x2="1502.327146" y2="2058.216826" stroke="black" stroke-width="4.05"/>
<line x1="1502.327146" y1="2058.216826" x2="1502.327146" y2="2021.251694" stroke="black" stroke-width="4.05"/>
<line x1="1479.953513" y1="2057.73044" x2="1479.953513" y2="2021.73808" stroke="black" stroke-width="4.05"/>
<line x1="1285.400196" y1="2057.73044" x2="1285.400196" y2="2020.278928" stroke="black" stroke-width="4.05"/>
<line x1="1480.439898" y1="2040.707027" x2="1285.886581" y2="2040.707027" stroke="black" stroke-width="4.05"/>
<line x1="1977.062742" y1="2015.366839" x2="1737.292676" y2="2015.366839" stroke="black" stroke-width="4.05"/>
<line x1="1737.292676" y1="2015.366839" x2="1737.292676" y2="2058.252541" stroke="black" stroke-width="4.05"/>
<line x1="1737.292676" y1="2058.252541" x2="1977.062742" y2="2058.252541" stroke="black" stroke-width="4.05"/>
<line x1="1977.062742" y1="2058.252541" x2="1977.062742" y2="2015.366839" stroke="black" stroke-width="4.05"/>
<line x1="1965.85398" y1="2015.366839" x2="1965.85398" y2="2000.746714" stroke="black" stroke-width="4.05"/>
<line x1="1965.85398" y1="2000.746714" x2="1748.988778" y2="2000.746714" stroke="black" stroke-width="4.05"/>
<line x1="1748.988778" y1="2015.366839" x2="1748.988778" y2="2000.746714" stroke="black" stroke-width="4.05"/>
<line x1="2058.575306" y1="203.989972" x2="2058.575306" y2="444.455024" stroke="black" stroke-width="4.05"/>
<line x1="2058.575306" y1="444.455024" x2="2101.585316" y2="444.455024" stroke="black" stroke-width="4.05"/>
<line x1="2101.585316" y1="444.455024" x2="2101.585316" y2="203.989972" stroke="black" stroke-width="4.05"/>
<line x1="2101.585316" y1="203.989972" x2="2058.575306" y2="203.989972" stroke="black" stroke-width="4.05"/>
<line x1="2058.575306" y1="215.231224" x2="2043.912805" y2="215.231224" stroke="black" stroke-width="4.05"/>
<line x1="2043.912805" y1="215.231224" x2="2043.912805" y2="432.725022" stroke="black" stroke-width="4.05"/>
<line x1="2058.575306" y1="432.725022" x2="2043.912805" y2="432.725022" stroke="black" stroke-width="4.05"/>
<line x1="2056.953535" y1="776.174944" x2="2056.953535" y2="1027.759766" stroke="black" stroke-width="4.05"/>
<line x1="2056.953535" y1="1027.759766" x2="2101.952448" y2="1027.759766" stroke="black" stroke-width="4.05"/>
<line x1="2101.952448" y1="1027.759766" x2="2101.952448" y2="776.174944" stroke="black" stroke-width="4.05"/>
<line x1="2101.952448" y1="776.174944" x2="2056.953535" y2="776.174944" stroke="black" stroke-width="4.05"/>
<line x1="2056.953535" y1="787.936021" x2="2041.612999" y2="787.936021" stroke="black" stroke-width="4.05"/>
<line x1="2041.612999" y1="787.936021" x2="2041.612999" y2="1015.487334" stroke="black" stroke-width="4.05"/>
<line x1="2056.953535" y1="1015.487334" x2="2041.612999" y2="1015.487334" stroke="black" stroke-width="4.05"/>
<line x1="2064.600925" y1="1369.92258" x2="2064.600925" y2="1611.794646" stroke="black" stroke-width="4.05"/>
<line x1="2064.600925" y1="1611.794646" x2="2101.887493" y2="1611.794646" stroke="black" stroke-width="4.05"/>
<line x1="2101.887493" y1="1611.794646" x2="2101.887493" y2="1369.92258" stroke="black" stroke-width="4.05"/>
<line x1="2101.887493" y1="1369.92258" x2="2064.600925" y2="1369.92258" stroke="black" stroke-width="4.05"/>
<line x1="2101.396882" y1="1392.490764" x2="2065.09154" y2="1392.490764" stroke="black" stroke-width="4.05"/>
<line x1="2101.396882" y1="1588.73585" x2="2063.619702" y2="1588.73585" stroke="black" stroke-width="4.05"/>
<line x1="2084.225436" y1="1392.000152" x2="2084.225436" y2="1588.245235" stroke="black" stroke-width="4.05"/>
<line x1="144.255596" y1="1589.650286" x2="144.255596" y2="1347.795266" stroke="black" stroke-width="4.05"/>
<line x1="144.255596" y1="1347.795266" x2="100.996974" y2="1347.795266" stroke="black" stroke-width="4.05"/>
<line x1="100.996974" y1="1347.795266" x2="100.996974" y2="1589.650286" stroke="black" stroke-width="4.05"/>
<line x1="100.996974" y1="1589.650286" x2="144.255596" y2="1589.650286" stroke="black" stroke-width="4.05"/>
<line x1="144.255596" y1="1578.344054" x2="159.002856" y2="1578.344054" stroke="black" stroke-width="4.05"/>
<line x1="159.002856" y1="1578.344054" x2="159.002856" y2="1359.593071" stroke="black" stroke-width="4.05"/>
<line x1="144.255596" y1="1359.593071" x2="159.002856" y2="1359.593071" stroke="black" stroke-width="4.05"/>
<line x1="139.37324" y1="909.137837" x2="139.37324" y2="667.265771" stroke="black" stroke-width="4.05"/>
<line x1="139.37324" y1="667.265771" x2="102.086672" y2="667.265771" stroke="black" stroke-width="4.05"/>
<line x1="102.086672" y1="667.265771" x2="102.086672" y2="909.137837" stroke="black" stroke-width="4.05"/>
<line x1="102.086672" y1="909.137837" x2="139.37324" y2="909.137837" stroke="black" stroke-width="4.05"/>
<line x1="102.577284" y1="886.569653" x2="138.882625" y2="886.569653" stroke="black" stroke-width="4.05"/>
<line x1="102.577284" y1="690.324566" x2="140.354464" y2="690.324566" stroke="black" stroke-width="4.05"/>
<line x1="119.74873" y1="887.060264" x2="119.74873" y2="690.815182" stroke="black" stroke-width="4.05"/>
<line x1="144.414853" y1="445.02601" x2="144.414853" y2="203.17099" stroke="black" stroke-width="4.05"/>
<line x1="144.414853" y1="203.17099" x2="101.156231" y2="203.17099" stroke="black" stroke-width="4.05"/>
<line x1="101.156231" y1="203.17099" x2="101.156231" y2="445.02601" stroke="black" stroke-width="4.05"/>
<line x1="101.156231" y1="445.02601" x2="144.414853" y2="445.02601" stroke="black" stroke-width="4.05"/>
<line x1="144.414853" y1="433.719778" x2="159.162113" y2="433.719778" stroke="black" stroke-width="4.05"/>
<line x1="159.162113" y1="433.719778" x2="159.162113" y2="214.968794" stroke="black" stroke-width="4.05"/>
<line x1="144.414853" y1="214.968794" x2="159.162113" y2="214.968794" stroke="black" stroke-width="4.05"/>
<line x1="510.057533" y1="715.445798" x2="300.692329" y2="715.445798" stroke="black" stroke-width="4.05"/>
<line x1="300.692329" y1="715.445798" x2="300.692329" y2="1046.660202" stroke="black" stroke-width="4.05"/>
<line x1="300.692329" y1="1046.660202" x2="510.057533" y2="1046.660202" stroke="black" stroke-width="4.05"/>
<line x1="510.057533" y1="1046.660202" x2="510.057533" y2="715.445798" stroke="black" stroke-width="4.05"/>
<line x1="510.730733" y1="987.418598" x2="300.019129" y2="987.418598" stroke="black" stroke-width="4.05"/>
<line x1="300.019129" y1="987.418598" x2="509.384329" y2="937.601798" stroke="black" stroke-width="4.05"/>
<line x1="509.384329" y1="937.601798" x2="477.743929" y2="891.150998" stroke="black" stroke-width="4.05"/>
<line x1="477.743929" y1="891.150998" x2="300.019129" y2="988.091802" stroke="black" stroke-width="4.05"/>
<line x1="1110.575106" y1="1028.171776" x2="1110.575106" y2="1007.813491" stroke="black" stroke-width="4.05"/>
<line x1="1110.575106" y1="1007.813491" x2="1070.851626" y2="1007.813491" stroke="black" stroke-width="4.05"/>
<line x1="1070.851626" y1="1007.813491" x2="1070.851626" y2="1028.171776" stroke="black" stroke-width="4.05"/>
<line x1="1070.851626" y1="1028.171776" x2="1110.575106" y2="1028.171776" stroke="black" stroke-width="4.05"/>
<line x1="1070.851626" y1="808.699558" x2="872.730778" y2="808.699558" stroke="black" stroke-width="4.05"/>
<line x1="1111.568191" y1="808.203013" x2="1111.568191" y2="787.844732" stroke="black" stroke-width="4.05"/>
<line x1="1111.568191" y1="787.844732" x2="1071.844715" y2="787.844732" stroke="black" stroke-width="4.05"/>
<line x1="1071.844715" y1="787.844732" x2="1071.844715" y2="808.203013" stroke="black" stroke-width="4.05"/>
<line x1="1071.844715" y1="808.203013" x2="1111.568191" y2="808.203013" stroke="black" stroke-width="4.05"/>
<path d="m 1072.341256,1007.813491 a 199.11393349999997,199.11393349999997 0 0 1 -199.11393399999997,-199.11393299999997" fill="none" stroke="black" stroke-width="4.05"/>
<line x1="913.136738" y1="247.05077" x2="1080.250153" y2="247.05077" stroke="black" stroke-width="4.05"/>
<line x1="1080.250153" y1="247.05077" x2="1080.250153" y2="414.506628" stroke="black" stroke-width="4.05"/>
<line x1="1080.250153" y1="414.506628" x2="913.136738" y2="414.506628" stroke="black" stroke-width="4.05"/>
<line x1="913.136738" y1="414.506628" x2="913.136738" y2="247.05077" stroke="black" stroke-width="4.05"/>
<line x1="912.794296" y1="246.708324" x2="1080.250153" y2="414.506628" stroke="black" stroke-width="4.05"/>
<line x1="913.136738" y1="414.164185" x2="1079.90771" y2="247.05077" stroke="black" stroke-width="4.05"/>
<line x1="313.760743" y1="152.700322" x2="202.960987" y2="330.017004" stroke="black" stroke-width="4.05"/>
<line x1="202.960987" y1="330.017004" x2="399.621308" y2="452.904012" stroke="black" stroke-width="4.05"/>
<line x1="399.621308" y1="452.904012" x2="510.421064" y2="275.58733" stroke="black" stroke-width="4.05"/>
<line x1="510.421064" y1="275.58733" x2="313.760743" y2="152.700322" stroke="black" stroke-width="4.05"/>
<line x1="341.164235" y1="169.82392" x2="230.364475" y2="347.140602" stroke="black" stroke-width="4.05"/>
<line x1="1637.344138" y1="572.730257" x2="2030.644984" y2="572.730257" stroke="black" stroke-width="4.05"/>
<line x1="2030.644984" y1="572.730257" x2="2030.644984" y2="397.576033" stroke="black" stroke-width="4.05"/>
<line x1="2030.644984" y1="397.576033" x2="1637.344138" y2="397.576033" stroke="black" stroke-width="4.05"/>
<line x1="1637.344138" y1="397.576033" x2="1637.344138" y2="572.730257" stroke="black" stroke-width="4.05"/>
<line x1="1955.010204" y1="424.645322" x2="1669.190357" y2="424.645322" stroke="black" stroke-width="4.05"/>
<line x1="1669.190357" y1="424.645322" x2="1669.190357" y2="543.272501" stroke="black" stroke-width="4.05"/>
<line x1="1669.190357" y1="543.272501" x2="1960.583292" y2="543.272501" stroke="black" stroke-width="4.05"/>
<path d="m 1954.19538,424.388556 a 63.69244503127078,63.69244503127078 0 0 1 4.316342000000077,120.00067899999999" fill="none" stroke="black" stroke-width="4.05"/>
<line x1="1132.995863" y1="600.926753" x2="1153.236467" y2="600.926753" stroke="black" stroke-width="4.05"/>
<line x1="1153.236467" y1="600.926753" x2="1153.236467" y2="561.432888" stroke="black" stroke-width="4.05"/>
<line x1="1153.236467" y1="561.432888" x2="1132.995863" y2="561.432888" stroke="black" stroke-width="4.05"/>
<line x1="1132.995863" y1="561.432888" x2="1132.995863" y2="600.926753" stroke="black" stroke-width="4.05"/>
<line x1="1351.199455" y1="561.432888" x2="1351.199455" y2="364.45725" stroke="black" stroke-width="4.05"/>
<line x1="1351.693127" y1="601.9141" x2="1371.933731" y2="601.9141" stroke="black" stroke-width="4.05"/>
<line x1="1371.933731" y1="601.9141" x2="1371.933731" y2="562.420235" stroke="black" stroke-width="4.05"/>
<line x1="1371.933731" y1="562.420235" x2="1351.693127" y2="562.420235" stroke="black" stroke-width="4.05"/>
<line x1="1351.693127" y1="562.420235" x2="1351.693127" y2="601.9141" stroke="black" stroke-width="4.05"/>
<path d="m 1153.236467,562.91391 a 197.962988,197.962988 0 0 1 197.962988,-197.962988" fill="none" stroke="black" stroke-width="4.05"/>
<line x1="1178.031942" y1="117.621796" x2="1448.579142" y2="117.621796" stroke="black" stroke-width="4.05"/>
<line x1="1448.579142" y1="117.621796" x2="1448.579142" y2="249.568996" stroke="black" stroke-width="4.05"/>
<line x1="1178.031942" y1="249.568996" x2="1448.579142" y2="249.568996" stroke="black" stroke-width="4.05"/>
<line x1="1178.031942" y1="117.621796" x2="1178.031942" y2="249.568996" stroke="black" stroke-width="4.05"/>
<line x1="1184.684742" y1="124.274596" x2="1322.730342" y2="124.274596" stroke="black" stroke-width="4.05"/>
<line x1="1322.730342" y1="124.274596" x2="1322.730342" y2="242.361796" stroke="black" stroke-width="4.05"/>
<line x1="1184.684742" y1="242.361796" x2="1322.730342" y2="242.361796" stroke="black" stroke-width="4.05"/>
<line x1="1184.684742" y1="124.274596" x2="1184.684742" y2="242.361796" stroke="black" stroke-width="4.05"/>
<line x1="1337.144742" y1="132.036196" x2="1434.164742" y2="132.036196" stroke="black" stroke-width="4.05"/>
<line x1="1337.144742" y1="152.548996" x2="1434.164742" y2="152.548996" stroke="black" stroke-width="4.05"/>
<line x1="1337.699142" y1="173.616196" x2="1434.719142" y2="173.616196" stroke="black" stroke-width="4.05"/>
<line x1="1337.699142" y1="194.128996" x2="1434.719142" y2="194.128996" stroke="black" stroke-width="4.05"/>
<line x1="1337.144742" y1="214.641796" x2="1434.164742" y2="214.641796" stroke="black" stroke-width="4.05"/>
<line x1="1337.144742" y1="235.154596" x2="1434.164742" y2="235.154596" stroke="black" stroke-width="4.05"/>
<line x1="1237.352742" y1="242.361796" x2="1237.352742" y2="228.501796" stroke="black" stroke-width="4.05"/>
<line x1="1237.352742" y1="228.501796" x2="1271.725542" y2="228.501796" stroke="black" stroke-width="4.05"/>
<line x1="1271.725542" y1="228.501796" x2="1271.725542" y2="241.807396" stroke="black" stroke-width="4.05"/>
<circle cx="1307.207142" cy="139.243396" r="8.316000000000003" fill="none" stroke="black" stroke-width="4.05"/>
<line x1="2034.234756" y1="166.642459" x2="1850.312599" y2="166.642459" stroke="black" stroke-width="4.05"/>
<line x1="1850.312599" y1="166.642459" x2="1850.312599" y2="117.490849" stroke="black" stroke-width="4.05"/>
<line x1="2034.234756" y1="117.490849" x2="1850.312599" y2="117.490849" stroke="black" stroke-width="4.05"/>
<line x1="2034.234756" y1="166.642459" x2="2034.234756" y2="117.490849" stroke="black" stroke-width="4.05"/>
<line x1="1992.61444" y1="194.389337" x2="1992.61444" y2="166.642459" stroke="black" stroke-width="4.05"/>
<line x1="1893.518453" y1="166.642459" x2="1893.518453" y2="195.974874" stroke="black" stroke-width="4.05"/>
<circle cx="1943.859215" cy="239.577106" r="66.59250380904014" fill="none" stroke="black" stroke-width="4.05"/>
<circle cx="1943.859215" cy="239.577106" r="57.07928897917725" fill="none" stroke="black" stroke-width="4.05"/>
<line x1="1395.085691" y1="798.896383" x2="1395.085691" y2="819.136987" stroke="black" stroke-width="4.05"/>
<line x1="1395.085691" y1="819.136987" x2="1434.579556" y2="819.136987" stroke="black" stroke-width="4.05"/>
<line x1="1434.579556" y1="819.136987" x2="1434.579556" y2="798.896383" stroke="black" stroke-width="4.05"/>
<line x1="1434.579556" y1="798.896383" x2="1395.085691" y2="798.896383" stroke="black" stroke-width="4.05"/>
<line x1="1434.579556" y1="1017.099976" x2="1631.555194" y2="1017.099976" stroke="black" stroke-width="4.05"/>
<line x1="1394.098344" y1="1017.593647" x2="1394.098344" y2="1037.834251" stroke="black" stroke-width="4.05"/>
<line x1="1394.098344" y1="1037.834251" x2="1433.592209" y2="1037.834251" stroke="black" stroke-width="4.05"/>
<line x1="1433.592209" y1="1037.834251" x2="1433.592209" y2="1017.593647" stroke="black" stroke-width="4.05"/>
<line x1="1433.592209" y1="1017.593647" x2="1394.098344" y2="1017.593647" stroke="black" stroke-width="4.05"/>
<path d="m 1433.098534,819.136987 a 197.9629885,197.9629885 0 0 1 197.962988,197.962989" fill="none" stroke="black" stroke-width="4.05"/>
<line x1="1650.094222" y1="1654.075588" x2="1477.888006" y2="1301.000526" stroke="black" stroke-width="4.05"/>
<line x1="1477.888006" y1="1301.000526" x2="1312.02815" y2="1381.895784" stroke="black" stroke-width="4.05"/>
<line x1="1312.02815" y1="1381.895784" x2="1484.234359" y2="1734.970849" stroke="black" stroke-width="4.05"/>
<line x1="1484.234359" y1="1734.970849" x2="1650.094222" y2="1654.075588" stroke="black" stroke-width="4.05"/>
<line x1="1414.44918" y1="1591.890023" x2="1341.841007" y2="1627.303399" stroke="black" stroke-width="4.05"/>
<line x1="1341.841007" y1="1627.303399" x2="1376.212806" y2="1697.776042" stroke="black" stroke-width="4.05"/>
<line x1="1376.212806" y1="1697.776042" x2="1448.820986" y2="1662.362669" stroke="black" stroke-width="4.05"/>
<line x1="1391.526205" y1="1689.426022" x2="1357.50159" y2="1619.665218" stroke="black" stroke-width="4.05"/>
<line x1="1688.000868" y1="1545.706847" x2="1653.629062" y2="1475.234201" stroke="black" stroke-width="4.05"/>
<line x1="1653.629062" y1="1475.234201" x2="1580.309042" y2="1510.994765" stroke="black" stroke-width="4.05"/>
<line x1="1614.680842" y1="1581.467411" x2="1688.000868" y2="1545.706847" stroke="black" stroke-width="4.05"/>
<line x1="1671.993094" y1="1552.633178" x2="1637.968475" y2="1482.872382" stroke="black" stroke-width="4.05"/>
<line x1="1348.135902" y1="1455.927649" x2="1275.527725" y2="1491.341026" stroke="black" stroke-width="4.05"/>
<line x1="1275.527725" y1="1491.341026" x2="1309.899532" y2="1561.813672" stroke="black" stroke-width="4.05"/>
<line x1="1309.899532" y1="1561.813672" x2="1382.507705" y2="1526.400292" stroke="black" stroke-width="4.05"/>
<line x1="1325.560115" y1="1554.17549" x2="1291.188312" y2="1483.702848" stroke="black" stroke-width="4.05"/>
<line x1="1621.68759" y1="1409.74447" x2="1587.315784" y2="1339.271827" stroke="black" stroke-width="4.05"/>
<line x1="1587.315784" y1="1339.271827" x2="1513.995761" y2="1375.032395" stroke="black" stroke-width="4.05"/>
<line x1="1548.367567" y1="1445.505037" x2="1621.68759" y2="1409.74447" stroke="black" stroke-width="4.05"/>
<line x1="1606.027" y1="1417.382651" x2="1571.655193" y2="1346.910005" stroke="black" stroke-width="4.05"/>
<line x1="729.41459" y1="1270.405984" x2="729.41459" y2="1080.325984" stroke="black" stroke-width="4.05"/>
<line x1="729.41459" y1="1080.325984" x2="265.61939" y2="1080.325984" stroke="black" stroke-width="4.05"/>
<line x1="265.61939" y1="1080.325984" x2="265.61939" y2="1270.405984" stroke="black" stroke-width="4.05"/>
<line x1="265.61939" y1="1270.405984" x2="289.37939" y2="1270.405984" stroke="black" stroke-width="4.05"/>
<line x1="289.37939" y1="1270.405984" x2="289.37939" y2="1103.135584" stroke="black" stroke-width="4.05"/>
<line x1="289.37939" y1="1103.135584" x2="704.70419" y2="1103.135584" stroke="black" stroke-width="4.05"/>
<line x1="704.70419" y1="1103.135584" x2="704.70419" y2="1270.405984" stroke="black" stroke-width="4.05"/>
<line x1="704.70419" y1="1270.405984" x2="729.41459" y2="1270.405984" stroke="black" stroke-width="4.05"/>
<line x1="704.70419" y1="1264.703584" x2="289.37939" y2="1264.703584" stroke="black" stroke-width="4.05"/>
<line x1="497.51699" y1="1265.653984" x2="497.51699" y2="1104.085984" stroke="black" stroke-width="4.05"/>
<line x1="553.56835" y1="1447.639909" x2="647.861314" y2="1373.970172" stroke="black" stroke-width="4.05"/>
<line x1="647.861314" y1="1373.970172" x2="721.68201" y2="1468.456358" stroke="black" stroke-width="4.05"/>
<line x1="721.68201" y1="1468.456358" x2="627.389046" y2="1542.126092" stroke="black" stroke-width="4.05"/>
<line x1="627.389046" y1="1542.126092" x2="553.56835" y2="1447.639909" stroke="black" stroke-width="4.05"/>
<line x1="553.224164" y1="1447.597649" x2="721.68201" y2="1468.456358" stroke="black" stroke-width="4.05"/>
<line x1="627.238087" y1="1541.932873" x2="647.668087" y2="1374.121134" stroke="black" stroke-width="4.05"/>
<line x1="1819.466222" y1="1949.408453" x2="1819.466222" y2="1717.510853" stroke="black" stroke-width="4.05"/>
<line x1="1819.466222" y1="1717.510853" x2="2051.839022" y2="1717.510853" stroke="black" stroke-width="4.05"/>
<line x1="2051.839022" y1="1717.510853" x2="2051.839022" y2="1949.408453" stroke="black" stroke-width="4.05"/>
<line x1="2051.839022" y1="1949.408453" x2="1819.466222" y2="1949.408453" stroke="black" stroke-width="4.05"/>
<line x1="1818.991022" y1="1949.883653" x2="2051.839022" y2="1717.510853" stroke="black" stroke-width="4.05"/>
<line x1="2051.363822" y1="1949.408453" x2="1819.466222" y2="1717.986053" stroke="black" stroke-width="4.05"/>
<line x1="1055.682407" y1="1695.883684" x2="1127.194711" y2="1499.405234" stroke="black" stroke-width="4.05"/>
<line x1="1127.194711" y1="1499.405234" x2="909.282247" y2="1420.091582" stroke="black" stroke-width="4.05"/>
<line x1="909.282247" y1="1420.091582" x2="837.769943" y2="1616.570032" stroke="black" stroke-width="4.05"/>
<line x1="837.769943" y1="1616.570032" x2="1055.682407" y2="1695.883684" stroke="black" stroke-width="4.05"/>
<line x1="1025.317555" y1="1684.831784" x2="1096.82986" y2="1488.353332" stroke="black" stroke-width="4.05"/>
<line x1="1799.832056" y1="1048.556923" x2="2008.920056" y2="1048.556923" stroke="black" stroke-width="4.05"/>
<line x1="2008.920056" y1="1048.556923" x2="2008.920056" y2="816.659323" stroke="black" stroke-width="4.05"/>
<line x1="2008.920056" y1="816.659323" x2="1799.832056" y2="816.659323" stroke="black" stroke-width="4.05"/>
<line x1="1799.832056" y1="816.659323" x2="1799.832056" y2="1048.556923" stroke="black" stroke-width="4.05"/>
<line x1="1799.832056" y1="1016.243323" x2="2008.920056" y2="1016.243323" stroke="black" stroke-width="4.05"/>
<line x1="189.49689" y1="1593.236894" x2="344.879557" y2="1733.144076" stroke="black" stroke-width="4.05"/>
<line x1="344.879557" y1="1733.144076" x2="500.049335" y2="1560.810571" stroke="black" stroke-width="4.05"/>
<line x1="500.049335" y1="1560.810571" x2="344.666671" y2="1420.903393" stroke="black" stroke-width="4.05"/>
<line x1="344.666671" y1="1420.903393" x2="189.49689" y2="1593.236894" stroke="black" stroke-width="4.05"/>
<line x1="211.118911" y1="1569.22321" x2="366.501575" y2="1709.130388" stroke="black" stroke-width="4.05"/>
<line x1="1666.989774" y1="604.690222" x2="1833.081988" y2="604.690222" stroke="black" stroke-width="4.05"/>
<line x1="1833.081988" y1="604.690222" x2="1833.081988" y2="771.122786" stroke="black" stroke-width="4.05"/>
<line x1="1833.081988" y1="771.122786" x2="1666.989774" y2="771.122786" stroke="black" stroke-width="4.05"/>
<line x1="1666.989774" y1="771.122786" x2="1666.989774" y2="604.690222" stroke="black" stroke-width="4.05"/>
<line x1="1666.649423" y1="604.34987" x2="1833.081988" y2="771.122786" stroke="black" stroke-width="4.05"/>
<line x1="1666.989774" y1="770.782435" x2="1832.741633" y2="604.690222" stroke="black" stroke-width="4.05"/>
<line x1="1832.995789" y1="604.424074" x2="1999.088003" y2="604.424074" stroke="black" stroke-width="4.05"/>
<line x1="1999.088003" y1="604.424074" x2="1999.088003" y2="770.856638" stroke="black" stroke-width="4.05"/>
<line x1="1999.088003" y1="770.856638" x2="1832.995789" y2="770.856638" stroke="black" stroke-width="4.05"/>
<line x1="1832.995789" y1="770.856638" x2="1832.995789" y2="604.424074" stroke="black" stroke-width="4.05"/>
<line x1="1832.655438" y1="604.083722" x2="1999.088003" y2="770.856638" stroke="black" stroke-width="4.05"/>
<line x1="1832.995789" y1="770.516287" x2="1998.747648" y2="604.424074" stroke="black" stroke-width="4.05"/>
<line x1="1501.570829" y1="604.276909" x2="1667.663042" y2="604.276909" stroke="black" stroke-width="4.05"/>
<line x1="1667.663042" y1="604.276909" x2="1667.663042" y2="770.709474" stroke="black" stroke-width="4.05"/>
<line x1="1667.663042" y1="770.709474" x2="1501.570829" y2="770.709474" stroke="black" stroke-width="4.05"/>
<line x1="1501.570829" y1="770.709474" x2="1501.570829" y2="604.276909" stroke="black" stroke-width="4.05"/>
<line x1="1501.230478" y1="603.936558" x2="1667.663042" y2="770.709474" stroke="black" stroke-width="4.05"/>
<line x1="1501.570829" y1="770.369123" x2="1667.322688" y2="604.276909" stroke="black" stroke-width="4.05"/>
<line x1="1886.55296" y1="1077.238843" x2="2052.645174" y2="1077.238843" stroke="black" stroke-width="4.05"/>
<line x1="2052.645174" y1="1077.238843" x2="2052.645174" y2="1243.671408" stroke="black" stroke-width="4.05"/>
<line x1="2052.645174" y1="1243.671408" x2="1886.55296" y2="1243.671408" stroke="black" stroke-width="4.05"/>
<line x1="1886.55296" y1="1243.671408" x2="1886.55296" y2="1077.238843" stroke="black" stroke-width="4.05"/>
<line x1="1886.212609" y1="1076.898492" x2="2052.645174" y2="1243.671408" stroke="black" stroke-width="4.05"/>
<line x1="1886.55296" y1="1243.331057" x2="2052.304819" y2="1077.238843" stroke="black" stroke-width="4.05"/>
<line x1="1915.896632" y1="1644.870398" x2="1915.896632" y2="1251.626526" stroke="black" stroke-width="4.05"/>
<line x1="1914.90035" y1="1247.67112" x2="2050.969126" y2="1247.67112" stroke="black" stroke-width="4.05"/>
<line x1="2052.120632" y1="1644.406009" x2="2052.120632" y2="1247.365778" stroke="black" stroke-width="4.05"/>
<line x1="1916.591382" y1="1643.67112" x2="2051.855438" y2="1643.67112" stroke="black" stroke-width="4.05"/>
<line x1="1926.984632" y1="1633.37512" x2="1926.984632" y2="1509.82312" stroke="black" stroke-width="4.05"/>
<line x1="1926.984632" y1="1509.82312" x2="2041.032632" y2="1509.82312" stroke="black" stroke-width="4.05"/>
<line x1="2041.032632" y1="1633.37512" x2="2041.032632" y2="1509.82312" stroke="black" stroke-width="4.05"/>
<line x1="1926.984632" y1="1633.37512" x2="2041.032632" y2="1633.37512" stroke="black" stroke-width="4.05"/>
<line x1="1934.112632" y1="1490.81512" x2="1934.112632" y2="1403.69512" stroke="black" stroke-width="4.05"/>
<line x1="1953.912632" y1="1490.81512" x2="1953.912632" y2="1403.69512" stroke="black" stroke-width="4.05"/>
<line x1="1974.504632" y1="1490.02312" x2="1974.504632" y2="1403.69512" stroke="black" stroke-width="4.05"/>
<line x1="1994.304632" y1="1490.02312" x2="1994.304632" y2="1403.69512" stroke="black" stroke-width="4.05"/>
<line x1="2014.104632" y1="1490.81512" x2="2014.104632" y2="1403.69512" stroke="black" stroke-width="4.05"/>
<line x1="2033.904632" y1="1490.81512" x2="2033.904632" y2="1403.69512" stroke="black" stroke-width="4.05"/>
<line x1="2040.240632" y1="1585.85512" x2="2026.776632" y2="1585.85512" stroke="black" stroke-width="4.05"/>
<line x1="2026.776632" y1="1585.85512" x2="2026.776632" y2="1555.75912" stroke="black" stroke-width="4.05"/>
<line x1="2026.776632" y1="1555.75912" x2="2039.448632" y2="1555.75912" stroke="black" stroke-width="4.05"/>
<line x1="1926.984632" y1="1383.10312" x2="1926.984632" y2="1259.55112" stroke="black" stroke-width="4.05"/>
<line x1="1926.984632" y1="1259.55112" x2="2041.032632" y2="1259.55112" stroke="black" stroke-width="4.05"/>
<line x1="2041.032632" y1="1383.10312" x2="2041.032632" y2="1259.55112" stroke="black" stroke-width="4.05"/>
<line x1="1926.984632" y1="1383.10312" x2="2041.032632" y2="1383.10312" stroke="black" stroke-width="4.05"/>
<line x1="2041.032632" y1="1335.58312" x2="2027.568632" y2="1335.58312" stroke="black" stroke-width="4.05"/>
<line x1="2027.568632" y1="1335.58312" x2="2027.568632" y2="1305.48712" stroke="black" stroke-width="4.05"/>
<line x1="2027.568632" y1="1305.48712" x2="2040.240632" y2="1305.48712" stroke="black" stroke-width="4.05"/>
<circle cx="1941.240632" cy="1524.07912" r="7.128000000000001" fill="none" stroke="black" stroke-width="4.05"/>
<circle cx="1942.032632" cy="1273.80712" r="7.128000000000001" fill="none" stroke="black" stroke-width="4.05"/>
</g>
</svg>
