<?xml version="1.0"?>
<svg xmlns:xlink="http://www.w3.org/1999/xlink" width="2170.8" height="2138.4">
<image x="0" y="0" width="2170.8" height="2138.4" xlink:href="ground16-04.png"/>
<g style="stroke-linecap:round">
<line x1="355.524638" y1="104.449442" x2="594.616565" y2="104.449442" stroke="black" stroke-width="4.05"/>
<line x1="594.616565" y1="104.449442" x2="594.616565" y2="67.591454" stroke="black" stroke-width="4.05"/>
<line x1="594.616565" y1="67.591454" x2="355.524638" y2="67.591454" stroke="black" stroke-width="4.05"/>
<line x1="355.524638" y1="67.591454" x2="355.524638" y2="104.449442" stroke="black" stroke-width="4.05"/>
<line x1="377.833417" y1="68.076428" x2="377.833417" y2="103.964468" stroke="black" stroke-width="4.05"/>
<line x1="571.822812" y1="68.076428" x2="571.822812" y2="105.419387" stroke="black" stroke-width="4.05"/>
<line x1="377.348447" y1="85.0505" x2="571.337838" y2="85.0505" stroke="black" stroke-width="4.05"/>
<line x1="1586.39715" y1="105.206782" x2="1826.184114" y2="105.206782" stroke="black" stroke-width="4.05"/>
<line x1="1826.184114" y1="105.206782" x2="1826.184114" y2="68.24165" stroke="black" stroke-width="4.05"/>
<line x1="1826.184114" y1="68.24165" x2="1586.39715" y2="68.24165" stroke="black" stroke-width="4.05"/>
<line x1="1586.39715" y1="68.24165" x2="1586.39715" y2="105.206782" stroke="black" stroke-width="4.05"/>
<line x1="1608.770783" y1="68.728036" x2="1608.770783" y2="104.720396" stroke="black" stroke-width="4.05"/>
<line x1="1803.3241" y1="68.728036" x2="1803.3241" y2="106.179548" stroke="black" stroke-width="4.05"/>
<line x1="1608.284398" y1="85.751449" x2="1802.837714" y2="85.751449" stroke="black" stroke-width="4.05"/>
<line x1="455.155898" y1="2015.675204" x2="214.690846" y2="2015.675204" stroke="black" stroke-width="4.05"/>
<line x1="214.690846" y1="2015.675204" x2="214.690846" y2="2058.685214" stroke="black" stroke-width="4.05"/>
<line x1="214.690846" y1="2058.685214" x2="455.155898" y2="2058.685214" stroke="black" stroke-width="4.05"/>
<line x1="455.155898" y1="2058.685214" x2="455.155898" y2="2015.675204" stroke="black" stroke-width="4.05"/>
<line x1="443.914646" y1="2015.675204" x2="443.914646" y2="2001.012703" stroke="black" stroke-width="4.05"/>
<line x1="443.914646" y1="2001.012703" x2="226.420848" y2="2001.012703" stroke="black" stroke-width="4.05"/>
<line x1="226.420848" y1="2015.675204" x2="226.420848" y2="2001.012703" stroke="black" stroke-width="4.05"/>
<line x1="1004.406336" y1="2020.979012" x2="764.619372" y2="2020.979012" stroke="black" stroke-width="4.05"/>
<line x1="764.619372" y1="2020.979012" x2="764.619372" y2="2057.944144" stroke="black" stroke-width="4.05"/>
<line x1="764.619372" y1="2057.944144" x2="1004.406336" y2="2057.944144" stroke="black" stroke-width="4.05"/>
<line x1="1004.406336" y1="2057.944144" x2="1004.406336" y2="2020.979012" stroke="black" stroke-width="4.05"/>
<line x1="982.032703" y1="2057.457758" x2="982.032703" y2="2021.465398" stroke="black" stroke-width="4.05"/>
<line x1="787.479386" y1="2057.457758" x2="787.479386" y2="2020.006246" stroke="black" stroke-width="4.05"/>
<line x1="982.519088" y1="2040.434345" x2="787.965772" y2="2040.434345" stroke="black" stroke-width="4.05"/>
<line x1="1502.327146" y1="2021.251694" x2="1262.540182" y2="2021.251694" stroke="black" stroke-width="4.05"/>
<line x1="1262.540182" y1="2021.251694" x2="1262.540182" y2="2058.216826" stroke="black" stroke-width="4.05"/>
<line x1="1262.540182" y1="2058.216826" x2="1502.327146" y2="2058.216826" stroke="black" stroke-width="4.05"/>
<line x1="1502.327146" y1="2058.216826" x2="1502.327146" y2="2021.251694" stroke="black" stroke-width="4.05"/>
<line x1="1479.953513" y1="2057.73044" x2="1479.953513" y2="2021.73808" stroke="black" stroke-width="4.05"/>
<line x1="1285.400196" y1="2057.73044" x2="1285.400196" y2="2020.278928" stroke="black" stroke-width="4.05"/>
<line x1="1480.439898" y1="2040.707027" x2="1285.886581" y2="2040.707027" stroke="black" stroke-width="4.05"/>
<line x1="1977.062742" y1="2015.366839" x2="1737.292676" y2="2015.366839" stroke="black" stroke-width="4.05"/>
<line x1="1737.292676" y1="2015.366839" x2="1737.292676" y2="2058.252541" stroke="black" stroke-width="4.05"/>
<line x1="1737.292676" y1="2058.252541" x2="1977.062742" y2="2058.252541" stroke="black" stroke-width="4.05"/>
<line x1="1977.062742" y1="2058.252541" x2="1977.062742" y2="2015.366839" stroke="black" stroke-width="4.05"/>
<line x1="1965.85398" y1="2015.366839" x2="1965.85398" y2="2000.746714" stroke="black" stroke-width="4.05"/>
<line x1="1965.85398" y1="2000.746714" x2="1748.988778" y2="2000.746714" stroke="black" stroke-width="4.05"/>
<line x1="1748.988778" y1="2015.366839" x2="1748.988778" y2="2000.746714" stroke="black" stroke-width="4.05"/>
<line x1="2058.575306" y1="203.989972" x2="2058.575306" y2="444.455024" stroke="black" stroke-width="4.05"/>
<line x1="2058.575306" y1="444.455024" x2="2101.585316" y2="444.455024" stroke="black" stroke-width="4.05"/>
<line x1="2101.585316" y1="444.455024" x2="2101.585316" y2="203.989972" stroke="black" stroke-width="4.05"/>
<line x1="2101.585316" y1="203.989972" x2="2058.575306" y2="203.989972" stroke="black" stroke-width="4.05"/>
<line x1="2058.575306" y1="215.231224" x2="2043.912805" y2="215.231224" stroke="black" stroke-width="4.05"/>
<line x1="2043.912805" y1="215.231224" x2="2043.912805" y2="432.725022" stroke="black" stroke-width="4.05"/>
<line x1="2058.575306" y1="432.725022" x2="2043.912805" y2="432.725022" stroke="black" stroke-width="4.05"/>
<line x1="2056.953535" y1="776.174944" x2="2056.953535" y2="1027.759766" stroke="black" stroke-width="4.05"/>
<line x1="2056.953535" y1="1027.759766" x2="2101.952448" y2="1027.759766" stroke="black" stroke-width="4.05"/>
<line x1="2101.952448" y1="1027.759766" x2="2101.952448" y2="776.174944" stroke="black" stroke-width="4.05"/>
<line x1="2101.952448" y1="776.174944" x2="2056.953535" y2="776.174944" stroke="black" stroke-width="4.05"/>
<line x1="2056.953535" y1="787.936021" x2="2041.612999" y2="787.936021" stroke="black" stroke-width="4.05"/>
<line x1="2041.612999" y1="787.936021" x2="2041.612999" y2="1015.487334" stroke="black" stroke-width="4.05"/>
<line x1="2056.953535" y1="1015.487334" x2="2041.612999" y2="1015.487334" stroke="black" stroke-width="4.05"/>
<line x1="2064.600925" y1="1369.92258" x2="2064.600925" y2="1611.794646" stroke="black" stroke-width="4.05"/>
<line x1="2064.600925" y1="1611.794646" x2="2101.887493" y2="1611.794646" stroke="black" stroke-width="4.05"/>
<line x1="2101.887493" y1="1611.794646" x2="2101.887493" y2="1369.92258" stroke="black" stroke-width="4.05"/>
<line x1="2101.887493" y1="1369.92258" x2="2064.600925" y2="1369.92258" stroke="black" stroke-width="4.05"/>
<line x1="2101.396882" y1="1392.490764" x2="2065.09154" y2="1392.490764" stroke="black" stroke-width="4.05"/>
<line x1="2101.396882" y1="1588.73585" x2="2063.619702" y2="1588.73585" stroke="black" stroke-width="4.05"/>
<line x1="2084.225436" y1="1392.000152" x2="2084.225436" y2="1588.245235" stroke="black" stroke-width="4.05"/>
<line x1="138.283542" y1="1589.658811" x2="138.283542" y2="1347.786745" stroke="black" stroke-width="4.05"/>
<line x1="138.283542" y1="1347.786745" x2="100.996974" y2="1347.786745" stroke="black" stroke-width="4.05"/>
<line x1="100.996974" y1="1347.786745" x2="100.996974" y2="1589.658811" stroke="black" stroke-width="4.05"/>
<line x1="100.996974" y1="1589.658811" x2="138.283542" y2="1589.658811" stroke="black" stroke-width="4.05"/>
<line x1="101.487586" y1="1567.090627" x2="137.792927" y2="1567.090627" stroke="black" stroke-width="4.05"/>
<line x1="101.487586" y1="1370.845541" x2="139.264765" y2="1370.845541" stroke="black" stroke-width="4.05"/>
<line x1="118.659031" y1="1567.581239" x2="118.659031" y2="1371.336156" stroke="black" stroke-width="4.05"/>
<line x1="139.37324" y1="909.137837" x2="139.37324" y2="667.265771" stroke="black" stroke-width="4.05"/>
<line x1="139.37324" y1="667.265771" x2="102.086672" y2="667.265771" stroke="black" stroke-width="4.05"/>
<line x1="102.086672" y1="667.265771" x2="102.086672" y2="909.137837" stroke="black" stroke-width="4.05"/>
<line x1="102.086672" y1="909.137837" x2="139.37324" y2="909.137837" stroke="black" stroke-width="4.05"/>
<line x1="102.577284" y1="886.569653" x2="138.882625" y2="886.569653" stroke="black" stroke-width="4.05"/>
<line x1="102.577284" y1="690.324566" x2="140.354464" y2="690.324566" stroke="black" stroke-width="4.05"/>
<line x1="119.74873" y1="887.060264" x2="119.74873" y2="690.815182" stroke="black" stroke-width="4.05"/>
<line x1="138.442799" y1="445.034534" x2="138.442799" y2="203.162468" stroke="black" stroke-width="4.05"/>
<line x1="138.442799" y1="203.162468" x2="101.156231" y2="203.162468" stroke="black" stroke-width="4.05"/>
<line x1="101.156231" y1="203.162468" x2="101.156231" y2="445.034534" stroke="black" stroke-width="4.05"/>
<line x1="101.156231" y1="445.034534" x2="138.442799" y2="445.034534" stroke="black" stroke-width="4.05"/>
<line x1="101.646842" y1="422.46635" x2="137.952184" y2="422.46635" stroke="black" stroke-width="4.05"/>
<line x1="101.646842" y1="226.221264" x2="139.424022" y2="226.221264" stroke="black" stroke-width="4.05"/>
<line x1="118.818288" y1="422.956962" x2="118.818288" y2="226.711879" stroke="black" stroke-width="4.05"/>
<line x1="449.323841" y1="715.302896" x2="239.958637" y2="715.302896" stroke="black" stroke-width="4.05"/>
<line x1="239.958637" y1="715.302896" x2="239.958637" y2="1046.5173" stroke="black" stroke-width="4.05"/>
<line x1="239.958637" y1="1046.5173" x2="449.323841" y2="1046.5173" stroke="black" stroke-width="4.05"/>
<line x1="449.323841" y1="1046.5173" x2="449.323841" y2="715.302896" stroke="black" stroke-width="4.05"/>
<line x1="449.997041" y1="987.275696" x2="239.285437" y2="987.275696" stroke="black" stroke-width="4.05"/>
<line x1="239.285437" y1="987.275696" x2="448.650637" y2="937.458896" stroke="black" stroke-width="4.05"/>
<line x1="448.650637" y1="937.458896" x2="417.010237" y2="891.008096" stroke="black" stroke-width="4.05"/>
<line x1="417.010237" y1="891.008096" x2="239.285437" y2="987.9489" stroke="black" stroke-width="4.05"/>
<line x1="1110.575106" y1="1028.171776" x2="1110.575106" y2="1007.813491" stroke="black" stroke-width="4.05"/>
<line x1="1110.575106" y1="1007.813491" x2="1070.851626" y2="1007.813491" stroke="black" stroke-width="4.05"/>
<line x1="1070.851626" y1="1007.813491" x2="1070.851626" y2="1028.171776" stroke="black" stroke-width="4.05"/>
<line x1="1070.851626" y1="1028.171776" x2="1110.575106" y2="1028.171776" stroke="black" stroke-width="4.05"/>
<line x1="1070.851626" y1="808.699558" x2="872.730778" y2="808.699558" stroke="black" stroke-width="4.05"/>
<line x1="1111.568191" y1="808.203013" x2="1111.568191" y2="787.844732" stroke="black" stroke-width="4.05"/>
<line x1="1111.568191" y1="787.844732" x2="1071.844715" y2="787.844732" stroke="black" stroke-width="4.05"/>
<line x1="1071.844715" y1="787.844732" x2="1071.844715" y2="808.203013" stroke="black" stroke-width="4.05"/>
<line x1="1071.844715" y1="808.203013" x2="1111.568191" y2="808.203013" stroke="black" stroke-width="4.05"/>
<path d="m 1072.341256,1007.813491 a 199.11393349999997,199.11393349999997 0 0 1 -199.11393399999997,-199.11393299999997" fill="none" stroke="black" stroke-width="4.05"/>
<line x1="913.136738" y1="247.05077" x2="1080.250153" y2="247.05077" stroke="black" stroke-width="4.05"/>
<line x1="1080.250153" y1="247.05077" x2="1080.250153" y2="414.506628" stroke="black" stroke-width="4.05"/>
<line x1="1080.250153" y1="414.506628" x2="913.136738" y2="414.506628" stroke="black" stroke-width="4.05"/>
<line x1="913.136738" y1="414.506628" x2="913.136738" y2="247.05077" stroke="black" stroke-width="4.05"/>
<line x1="912.794296" y1="246.708324" x2="1080.250153" y2="414.506628" stroke="black" stroke-width="4.05"/>
<line x1="913.136738" y1="414.164185" x2="1079.90771" y2="247.05077" stroke="black" stroke-width="4.05"/>
<line x1="394.563236" y1="151.345019" x2="209.949487" y2="249.505884" stroke="black" stroke-width="4.05"/>
<line x1="209.949487" y1="249.505884" x2="318.818819" y2="454.259315" stroke="black" stroke-width="4.05"/>
<line x1="318.818819" y1="454.259315" x2="503.432564" y2="356.098446" stroke="black" stroke-width="4.05"/>
<line x1="503.432564" y1="356.098446" x2="394.563236" y2="151.345019" stroke="black" stroke-width="4.05"/>
<line x1="409.733554" y1="179.876232" x2="225.119804" y2="278.037104" stroke="black" stroke-width="4.05"/>
<line x1="2030.64498" y1="397.576037" x2="1637.344134" y2="397.576037" stroke="black" stroke-width="4.05"/>
<line x1="1637.344134" y1="397.576037" x2="1637.344134" y2="572.73026" stroke="black" stroke-width="4.05"/>
<line x1="1637.344134" y1="572.73026" x2="2030.64498" y2="572.73026" stroke="black" stroke-width="4.05"/>
<line x1="2030.64498" y1="572.73026" x2="2030.64498" y2="397.576037" stroke="black" stroke-width="4.05"/>
<line x1="1712.978914" y1="545.660971" x2="1998.798761" y2="545.660971" stroke="black" stroke-width="4.05"/>
<line x1="1998.798761" y1="545.660971" x2="1998.798761" y2="427.033793" stroke="black" stroke-width="4.05"/>
<line x1="1998.798761" y1="427.033793" x2="1707.405826" y2="427.033793" stroke="black" stroke-width="4.05"/>
<path d="m 1713.793738,545.917738 a 63.69244535843305,63.69244535843305 0 0 1 -4.316343000000188,-120.00067999999999" fill="none" stroke="black" stroke-width="4.05"/>
<line x1="1132.995863" y1="600.926753" x2="1153.236467" y2="600.926753" stroke="black" stroke-width="4.05"/>
<line x1="1153.236467" y1="600.926753" x2="1153.236467" y2="561.432888" stroke="black" stroke-width="4.05"/>
<line x1="1153.236467" y1="561.432888" x2="1132.995863" y2="561.432888" stroke="black" stroke-width="4.05"/>
<line x1="1132.995863" y1="561.432888" x2="1132.995863" y2="600.926753" stroke="black" stroke-width="4.05"/>
<line x1="1351.199455" y1="561.432888" x2="1351.199455" y2="364.45725" stroke="black" stroke-width="4.05"/>
<line x1="1351.693127" y1="601.9141" x2="1371.933731" y2="601.9141" stroke="black" stroke-width="4.05"/>
<line x1="1371.933731" y1="601.9141" x2="1371.933731" y2="562.420235" stroke="black" stroke-width="4.05"/>
<line x1="1371.933731" y1="562.420235" x2="1351.693127" y2="562.420235" stroke="black" stroke-width="4.05"/>
<line x1="1351.693127" y1="562.420235" x2="1351.693127" y2="601.9141" stroke="black" stroke-width="4.05"/>
<path d="m 1153.236467,562.91391 a 197.962988,197.962988 0 0 1 197.962988,-197.962988" fill="none" stroke="black" stroke-width="4.05"/>
<line x1="1158.061018" y1="118.886641" x2="1551.30489" y2="118.886641" stroke="black" stroke-width="4.05"/>
<line x1="1555.260296" y1="117.890359" x2="1555.260296" y2="253.959134" stroke="black" stroke-width="4.05"/>
<line x1="1158.525407" y1="255.110641" x2="1555.565638" y2="255.110641" stroke="black" stroke-width="4.05"/>
<line x1="1159.260296" y1="119.581391" x2="1159.260296" y2="254.845447" stroke="black" stroke-width="4.05"/>
<line x1="1169.556296" y1="129.974641" x2="1293.108296" y2="129.974641" stroke="black" stroke-width="4.05"/>
<line x1="1293.108296" y1="129.974641" x2="1293.108296" y2="244.022641" stroke="black" stroke-width="4.05"/>
<line x1="1169.556296" y1="244.022641" x2="1293.108296" y2="244.022641" stroke="black" stroke-width="4.05"/>
<line x1="1169.556296" y1="129.974641" x2="1169.556296" y2="244.022641" stroke="black" stroke-width="4.05"/>
<line x1="1312.116296" y1="137.102641" x2="1399.236296" y2="137.102641" stroke="black" stroke-width="4.05"/>
<line x1="1312.116296" y1="156.902641" x2="1399.236296" y2="156.902641" stroke="black" stroke-width="4.05"/>
<line x1="1312.908296" y1="177.494641" x2="1399.236296" y2="177.494641" stroke="black" stroke-width="4.05"/>
<line x1="1312.908296" y1="197.294641" x2="1399.236296" y2="197.294641" stroke="black" stroke-width="4.05"/>
<line x1="1312.116296" y1="217.094641" x2="1399.236296" y2="217.094641" stroke="black" stroke-width="4.05"/>
<line x1="1312.116296" y1="236.894641" x2="1399.236296" y2="236.894641" stroke="black" stroke-width="4.05"/>
<line x1="1217.076296" y1="243.230641" x2="1217.076296" y2="229.766641" stroke="black" stroke-width="4.05"/>
<line x1="1217.076296" y1="229.766641" x2="1247.172296" y2="229.766641" stroke="black" stroke-width="4.05"/>
<line x1="1247.172296" y1="229.766641" x2="1247.172296" y2="242.438641" stroke="black" stroke-width="4.05"/>
<line x1="1419.828296" y1="129.974641" x2="1543.380296" y2="129.974641" stroke="black" stroke-width="4.05"/>
<line x1="1543.380296" y1="129.974641" x2="1543.380296" y2="244.022641" stroke="black" stroke-width="4.05"/>
<line x1="1419.828296" y1="244.022641" x2="1543.380296" y2="244.022641" stroke="black" stroke-width="4.05"/>
<line x1="1419.828296" y1="129.974641" x2="1419.828296" y2="244.022641" stroke="black" stroke-width="4.05"/>
<line x1="1467.348296" y1="244.022641" x2="1467.348296" y2="230.558641" stroke="black" stroke-width="4.05"/>
<line x1="1467.348296" y1="230.558641" x2="1497.444296" y2="230.558641" stroke="black" stroke-width="4.05"/>
<line x1="1497.444296" y1="230.558641" x2="1497.444296" y2="243.230641" stroke="black" stroke-width="4.05"/>
<circle cx="1278.852296" cy="144.230641" r="7.128000000000001" fill="none" stroke="black" stroke-width="4.05"/>
<circle cx="1529.124296" cy="145.022641" r="7.128000000000001" fill="none" stroke="black" stroke-width="4.05"/>
<line x1="2034.234756" y1="166.642459" x2="1850.312599" y2="166.642459" stroke="black" stroke-width="4.05"/>
<line x1="1850.312599" y1="166.642459" x2="1850.312599" y2="117.490849" stroke="black" stroke-width="4.05"/>
<line x1="2034.234756" y1="117.490849" x2="1850.312599" y2="117.490849" stroke="black" stroke-width="4.05"/>
<line x1="2034.234756" y1="166.642459" x2="2034.234756" y2="117.490849" stroke="black" stroke-width="4.05"/>
<line x1="1992.61444" y1="194.389337" x2="1992.61444" y2="166.642459" stroke="black" stroke-width="4.05"/>
<line x1="1893.518453" y1="166.642459" x2="1893.518453" y2="195.974874" stroke="black" stroke-width="4.05"/>
<circle cx="1943.859215" cy="239.577106" r="66.59250380904014" fill="none" stroke="black" stroke-width="4.05"/>
<circle cx="1943.859215" cy="239.577106" r="57.07928897917725" fill="none" stroke="black" stroke-width="4.05"/>
<line x1="1395.085691" y1="798.896383" x2="1395.085691" y2="819.136987" stroke="black" stroke-width="4.05"/>
<line x1="1395.085691" y1="819.136987" x2="1434.579556" y2="819.136987" stroke="black" stroke-width="4.05"/>
<line x1="1434.579556" y1="819.136987" x2="1434.579556" y2="798.896383" stroke="black" stroke-width="4.05"/>
<line x1="1434.579556" y1="798.896383" x2="1395.085691" y2="798.896383" stroke="black" stroke-width="4.05"/>
<line x1="1434.579556" y1="1017.099976" x2="1631.555194" y2="1017.099976" stroke="black" stroke-width="4.05"/>
<line x1="1394.098344" y1="1017.593647" x2="1394.098344" y2="1037.834251" stroke="black" stroke-width="4.05"/>
<line x1="1394.098344" y1="1037.834251" x2="1433.592209" y2="1037.834251" stroke="black" stroke-width="4.05"/>
<line x1="1433.592209" y1="1037.834251" x2="1433.592209" y2="1017.593647" stroke="black" stroke-width="4.05"/>
<line x1="1433.592209" y1="1017.593647" x2="1394.098344" y2="1017.593647" stroke="black" stroke-width="4.05"/>
<path d="m 1433.098534,819.136987 a 197.9629885,197.9629885 0 0 1 197.962988,197.962989" fill="none" stroke="black" stroke-width="4.05"/>
<line x1="1376.470055" y1="1328.484438" x2="1403.872632" y2="1720.359518" stroke="black" stroke-width="4.05"/>
<line x1="1403.872632" y1="1720.359518" x2="1587.959111" y2="1707.486937" stroke="black" stroke-width="4.05"/>
<line x1="1587.959111" y1="1707.486937" x2="1560.556537" y2="1315.611857" stroke="black" stroke-width="4.05"/>
<line x1="1560.556537" y1="1315.611857" x2="1376.470055" y2="1328.484438" stroke="black" stroke-width="4.05"/>
<line x1="1571.661209" y1="1474.416072" x2="1652.248418" y2="1468.780866" stroke="black" stroke-width="4.05"/>
<line x1="1652.248418" y1="1468.780866" x2="1646.778956" y2="1390.563864" stroke="black" stroke-width="4.05"/>
<line x1="1646.778956" y1="1390.563864" x2="1566.191743" y2="1396.19907" stroke="black" stroke-width="4.05"/>
<line x1="1629.45265" y1="1392.56937" x2="1634.866866" y2="1469.996305" stroke="black" stroke-width="4.05"/>
<line x1="1300.727977" y1="1414.762106" x2="1306.197443" y2="1492.979108" stroke="black" stroke-width="4.05"/>
<line x1="1306.197443" y1="1492.979108" x2="1387.574726" y2="1487.288653" stroke="black" stroke-width="4.05"/>
<line x1="1382.105264" y1="1409.071651" x2="1300.727977" y2="1414.762106" stroke="black" stroke-width="4.05"/>
<line x1="1318.164782" y1="1414.336738" x2="1323.578999" y2="1491.763673" stroke="black" stroke-width="4.05"/>
<line x1="1582.21341" y1="1625.319583" x2="1662.800623" y2="1619.684377" stroke="black" stroke-width="4.05"/>
<line x1="1662.800623" y1="1619.684377" x2="1657.331161" y2="1541.467375" stroke="black" stroke-width="4.05"/>
<line x1="1657.331161" y1="1541.467375" x2="1576.743944" y2="1547.102581" stroke="black" stroke-width="4.05"/>
<line x1="1639.949602" y1="1542.682811" x2="1645.419067" y2="1620.899809" stroke="black" stroke-width="4.05"/>
<line x1="1311.280178" y1="1565.665614" x2="1316.749644" y2="1643.882616" stroke="black" stroke-width="4.05"/>
<line x1="1316.749644" y1="1643.882616" x2="1398.126928" y2="1638.192164" stroke="black" stroke-width="4.05"/>
<line x1="1392.657462" y1="1559.975162" x2="1311.280178" y2="1565.665614" stroke="black" stroke-width="4.05"/>
<line x1="1328.661738" y1="1564.450178" x2="1334.1312" y2="1642.667184" stroke="black" stroke-width="4.05"/>
<line x1="680.955653" y1="1270.405984" x2="680.955653" y2="1080.325984" stroke="black" stroke-width="4.05"/>
<line x1="680.955653" y1="1080.325984" x2="217.160453" y2="1080.325984" stroke="black" stroke-width="4.05"/>
<line x1="217.160453" y1="1080.325984" x2="217.160453" y2="1270.405984" stroke="black" stroke-width="4.05"/>
<line x1="217.160453" y1="1270.405984" x2="240.920453" y2="1270.405984" stroke="black" stroke-width="4.05"/>
<line x1="240.920453" y1="1270.405984" x2="240.920453" y2="1103.135584" stroke="black" stroke-width="4.05"/>
<line x1="240.920453" y1="1103.135584" x2="656.245253" y2="1103.135584" stroke="black" stroke-width="4.05"/>
<line x1="656.245253" y1="1103.135584" x2="656.245253" y2="1270.405984" stroke="black" stroke-width="4.05"/>
<line x1="656.245253" y1="1270.405984" x2="680.955653" y2="1270.405984" stroke="black" stroke-width="4.05"/>
<line x1="656.245253" y1="1264.703584" x2="240.920453" y2="1264.703584" stroke="black" stroke-width="4.05"/>
<line x1="449.058053" y1="1265.653984" x2="449.058053" y2="1104.085984" stroke="black" stroke-width="4.05"/>
<line x1="553.62677" y1="1435.448675" x2="660.052537" y2="1374.003727" stroke="black" stroke-width="4.050004"/>
<line x1="660.052537" y1="1374.003727" x2="721.623398" y2="1480.647586" stroke="black" stroke-width="4.050004"/>
<line x1="721.623398" y1="1480.647586" x2="615.197628" y2="1542.09253" stroke="black" stroke-width="4.050004"/>
<line x1="615.197628" y1="1542.09253" x2="553.62677" y2="1435.448675" stroke="black" stroke-width="4.050004"/>
<line x1="553.282772" y1="1435.3565" x2="721.623398" y2="1480.647586" stroke="black" stroke-width="4.050004"/>
<line x1="615.071718" y1="1541.874445" x2="659.834453" y2="1374.129641" stroke="black" stroke-width="4.050004"/>
<line x1="1799.832056" y1="1048.556923" x2="2008.920056" y2="1048.556923" stroke="black" stroke-width="4.05"/>
<line x1="2008.920056" y1="1048.556923" x2="2008.920056" y2="816.659323" stroke="black" stroke-width="4.05"/>
<line x1="2008.920056" y1="816.659323" x2="1799.832056" y2="816.659323" stroke="black" stroke-width="4.05"/>
<line x1="1799.832056" y1="816.659323" x2="1799.832056" y2="1048.556923" stroke="black" stroke-width="4.05"/>
<line x1="1799.832056" y1="1016.243323" x2="2008.920056" y2="1016.243323" stroke="black" stroke-width="4.05"/>
<line x1="1074.161448" y1="1684.354208" x2="1117.633288" y2="1479.835285" stroke="black" stroke-width="4.05"/>
<line x1="1117.633288" y1="1479.835285" x2="890.803202" y2="1431.621061" stroke="black" stroke-width="4.05"/>
<line x1="890.803202" y1="1431.621061" x2="847.331363" y2="1636.139984" stroke="black" stroke-width="4.05"/>
<line x1="847.331363" y1="1636.139984" x2="1074.161448" y2="1684.354208" stroke="black" stroke-width="4.05"/>
<line x1="1042.553974" y1="1677.635834" x2="1086.025813" y2="1473.116908" stroke="black" stroke-width="4.05"/>
<line x1="1819.466222" y1="1906.69144" x2="1819.466222" y2="1674.79384" stroke="black" stroke-width="4.05"/>
<line x1="1819.466222" y1="1674.79384" x2="2051.839022" y2="1674.79384" stroke="black" stroke-width="4.05"/>
<line x1="2051.839022" y1="1674.79384" x2="2051.839022" y2="1906.69144" stroke="black" stroke-width="4.05"/>
<line x1="2051.839022" y1="1906.69144" x2="1819.466222" y2="1906.69144" stroke="black" stroke-width="4.05"/>
<line x1="1818.991022" y1="1907.16664" x2="2051.839022" y2="1674.79384" stroke="black" stroke-width="4.05"/>
<line x1="2051.363822" y1="1906.69144" x2="1819.466222" y2="1675.26904" stroke="black" stroke-width="4.05"/>
<line x1="190.15731" y1="1598.646085" x2="350.328013" y2="1733.045256" stroke="black" stroke-width="4.05"/>
<line x1="350.328013" y1="1733.045256" x2="499.388915" y2="1555.401391" stroke="black" stroke-width="4.05"/>
<line x1="499.388915" y1="1555.401391" x2="339.218215" y2="1421.002213" stroke="black" stroke-width="4.05"/>
<line x1="339.218215" y1="1421.002213" x2="190.15731" y2="1598.646085" stroke="black" stroke-width="4.05"/>
<line x1="210.928093" y1="1573.892428" x2="371.098793" y2="1708.291606" stroke="black" stroke-width="4.05"/>
<line x1="1666.989774" y1="604.690222" x2="1833.081988" y2="604.690222" stroke="black" stroke-width="4.05"/>
<line x1="1833.081988" y1="604.690222" x2="1833.081988" y2="771.122786" stroke="black" stroke-width="4.05"/>
<line x1="1833.081988" y1="771.122786" x2="1666.989774" y2="771.122786" stroke="black" stroke-width="4.05"/>
<line x1="1666.989774" y1="771.122786" x2="1666.989774" y2="604.690222" stroke="black" stroke-width="4.05"/>
<line x1="1666.649423" y1="604.34987" x2="1833.081988" y2="771.122786" stroke="black" stroke-width="4.05"/>
<line x1="1666.989774" y1="770.782435" x2="1832.741633" y2="604.690222" stroke="black" stroke-width="4.05"/>
<line x1="1832.995789" y1="604.424074" x2="1999.088003" y2="604.424074" stroke="black" stroke-width="4.05"/>
<line x1="1999.088003" y1="604.424074" x2="1999.088003" y2="770.856638" stroke="black" stroke-width="4.05"/>
<line x1="1999.088003" y1="770.856638" x2="1832.995789" y2="770.856638" stroke="black" stroke-width="4.05"/>
<line x1="1832.995789" y1="770.856638" x2="1832.995789" y2="604.424074" stroke="black" stroke-width="4.05"/>
<line x1="1832.655438" y1="604.083722" x2="1999.088003" y2="770.856638" stroke="black" stroke-width="4.05"/>
<line x1="1832.995789" y1="770.516287" x2="1998.747648" y2="604.424074" stroke="black" stroke-width="4.05"/>
<line x1="1501.570829" y1="604.276909" x2="1667.663042" y2="604.276909" stroke="black" stroke-width="4.05"/>
<line x1="1667.663042" y1="604.276909" x2="1667.663042" y2="770.709474" stroke="black" stroke-width="4.05"/>
<line x1="1667.663042" y1="770.709474" x2="1501.570829" y2="770.709474" stroke="black" stroke-width="4.05"/>
<line x1="1501.570829" y1="770.709474" x2="1501.570829" y2="604.276909" stroke="black" stroke-width="4.05"/>
<line x1="1501.230478" y1="603.936558" x2="1667.663042" y2="770.709474" stroke="black" stroke-width="4.05"/>
<line x1="1501.570829" y1="770.369123" x2="1667.322688" y2="604.276909" stroke="black" stroke-width="4.05"/>
<line x1="1886.55296" y1="1077.238843" x2="2052.645174" y2="1077.238843" stroke="black" stroke-width="4.05"/>
<line x1="2052.645174" y1="1077.238843" x2="2052.645174" y2="1243.671408" stroke="black" stroke-width="4.05"/>
<line x1="2052.645174" y1="1243.671408" x2="1886.55296" y2="1243.671408" stroke="black" stroke-width="4.05"/>
<line x1="1886.55296" y1="1243.671408" x2="1886.55296" y2="1077.238843" stroke="black" stroke-width="4.05"/>
<line x1="1886.212609" y1="1076.898492" x2="2052.645174" y2="1243.671408" stroke="black" stroke-width="4.05"/>
<line x1="1886.55296" y1="1243.331057" x2="2052.304819" y2="1077.238843" stroke="black" stroke-width="4.05"/>
<line x1="1915.896632" y1="1644.870398" x2="1915.896632" y2="1251.626526" stroke="black" stroke-width="4.05"/>
<line x1="1914.90035" y1="1247.67112" x2="2050.969126" y2="1247.67112" stroke="black" stroke-width="4.05"/>
<line x1="2052.120632" y1="1644.406009" x2="2052.120632" y2="1247.365778" stroke="black" stroke-width="4.05"/>
<line x1="1916.591382" y1="1643.67112" x2="2051.855438" y2="1643.67112" stroke="black" stroke-width="4.05"/>
<line x1="1926.984632" y1="1633.37512" x2="1926.984632" y2="1509.82312" stroke="black" stroke-width="4.05"/>
<line x1="1926.984632" y1="1509.82312" x2="2041.032632" y2="1509.82312" stroke="black" stroke-width="4.05"/>
<line x1="2041.032632" y1="1633.37512" x2="2041.032632" y2="1509.82312" stroke="black" stroke-width="4.05"/>
<line x1="1926.984632" y1="1633.37512" x2="2041.032632" y2="1633.37512" stroke="black" stroke-width="4.05"/>
<line x1="1934.112632" y1="1490.81512" x2="1934.112632" y2="1403.69512" stroke="black" stroke-width="4.05"/>
<line x1="1953.912632" y1="1490.81512" x2="1953.912632" y2="1403.69512" stroke="black" stroke-width="4.05"/>
<line x1="1974.504632" y1="1490.02312" x2="1974.504632" y2="1403.69512" stroke="black" stroke-width="4.05"/>
<line x1="1994.304632" y1="1490.02312" x2="1994.304632" y2="1403.69512" stroke="black" stroke-width="4.05"/>
<line x1="2014.104632" y1="1490.81512" x2="2014.104632" y2="1403.69512" stroke="black" stroke-width="4.05"/>
<line x1="2033.904632" y1="1490.81512" x2="2033.904632" y2="1403.69512" stroke="black" stroke-width="4.05"/>
<line x1="2040.240632" y1="1585.85512" x2="2026.776632" y2="1585.85512" stroke="black" stroke-width="4.05"/>
<line x1="2026.776632" y1="1585.85512" x2="2026.776632" y2="1555.75912" stroke="black" stroke-width="4.05"/>
<line x1="2026.776632" y1="1555.75912" x2="2039.448632" y2="1555.75912" stroke="black" stroke-width="4.05"/>
<line x1="1926.984632" y1="1383.10312" x2="1926.984632" y2="1259.55112" stroke="black" stroke-width="4.05"/>
<line x1="1926.984632" y1="1259.55112" x2="2041.032632" y2="1259.55112" stroke="black" stroke-width="4.05"/>
<line x1="2041.032632" y1="1383.10312" x2="2041.032632" y2="1259.55112" stroke="black" stroke-width="4.05"/>
<line x1="1926.984632" y1="1383.10312" x2="2041.032632" y2="1383.10312" stroke="black" stroke-width="4.05"/>
<line x1="2041.032632" y1="1335.58312" x2="2027.568632" y2="1335.58312" stroke="black" stroke-width="4.05"/>
<line x1="2027.568632" y1="1335.58312" x2="2027.568632" y2="1305.48712" stroke="black" stroke-width="4.05"/>
<line x1="2027.568632" y1="1305.48712" x2="2040.240632" y2="1305.48712" stroke="black" stroke-width="4.05"/>
<circle cx="1941.240632" cy="1524.07912" r="7.128000000000001" fill="none" stroke="black" stroke-width="4.05"/>
<circle cx="1942.032632" cy="1273.80712" r="7.128000000000001" fill="none" stroke="black" stroke-width="4.05"/>
</g>
</svg>
