<?xml version="1.0"?>
<svg xmlns:xlink="http://www.w3.org/1999/xlink" width="2170.8" height="2138.4">
<image x="0" y="0" width="2170.8" height="2138.4" xlink:href="ground16-04.png"/>
<g style="stroke-linecap:round">
<line x1="355.533062" y1="110.352848" x2="594.608141" y2="110.352848" stroke="black" stroke-width="4.05"/>
<line x1="594.608141" y1="110.352848" x2="594.608141" y2="67.591451" stroke="black" stroke-width="4.05"/>
<line x1="594.608141" y1="67.591451" x2="355.533062" y2="67.591451" stroke="black" stroke-width="4.05"/>
<line x1="355.533062" y1="67.591451" x2="355.533062" y2="110.352848" stroke="black" stroke-width="4.05"/>
<line x1="366.709334" y1="110.352848" x2="366.709334" y2="124.930598" stroke="black" stroke-width="4.05"/>
<line x1="366.709334" y1="124.930598" x2="582.945941" y2="124.930598" stroke="black" stroke-width="4.05"/>
<line x1="582.945941" y1="110.352848" x2="582.945941" y2="124.930598" stroke="black" stroke-width="4.05"/>
<line x1="1586.405599" y1="111.127352" x2="1826.175665" y2="111.127352" stroke="black" stroke-width="4.05"/>
<line x1="1826.175665" y1="111.127352" x2="1826.175665" y2="68.24165" stroke="black" stroke-width="4.05"/>
<line x1="1826.175665" y1="68.24165" x2="1586.405599" y2="68.24165" stroke="black" stroke-width="4.05"/>
<line x1="1586.405599" y1="68.24165" x2="1586.405599" y2="111.127352" stroke="black" stroke-width="4.05"/>
<line x1="1597.614361" y1="111.127352" x2="1597.614361" y2="125.747478" stroke="black" stroke-width="4.05"/>
<line x1="1597.614361" y1="125.747478" x2="1814.479564" y2="125.747478" stroke="black" stroke-width="4.05"/>
<line x1="1814.479564" y1="111.127352" x2="1814.479564" y2="125.747478" stroke="black" stroke-width="4.05"/>
<line x1="455.155898" y1="2015.675204" x2="214.690846" y2="2015.675204" stroke="black" stroke-width="4.05"/>
<line x1="214.690846" y1="2015.675204" x2="214.690846" y2="2058.685214" stroke="black" stroke-width="4.05"/>
<line x1="214.690846" y1="2058.685214" x2="455.155898" y2="2058.685214" stroke="black" stroke-width="4.05"/>
<line x1="455.155898" y1="2058.685214" x2="455.155898" y2="2015.675204" stroke="black" stroke-width="4.05"/>
<line x1="443.914646" y1="2015.675204" x2="443.914646" y2="2001.012703" stroke="black" stroke-width="4.05"/>
<line x1="443.914646" y1="2001.012703" x2="226.420848" y2="2001.012703" stroke="black" stroke-width="4.05"/>
<line x1="226.420848" y1="2015.675204" x2="226.420848" y2="2001.012703" stroke="black" stroke-width="4.05"/>
<line x1="1004.406336" y1="2020.979012" x2="764.619372" y2="2020.979012" stroke="black" stroke-width="4.05"/>
<line x1="764.619372" y1="2020.979012" x2="764.619372" y2="2057.944144" stroke="black" stroke-width="4.05"/>
<line x1="764.619372" y1="2057.944144" x2="1004.406336" y2="2057.944144" stroke="black" stroke-width="4.05"/>
<line x1="1004.406336" y1="2057.944144" x2="1004.406336" y2="2020.979012" stroke="black" stroke-width="4.05"/>
<line x1="982.032703" y1="2057.457758" x2="982.032703" y2="2021.465398" stroke="black" stroke-width="4.05"/>
<line x1="787.479386" y1="2057.457758" x2="787.479386" y2="2020.006246" stroke="black" stroke-width="4.05"/>
<line x1="982.519088" y1="2040.434345" x2="787.965772" y2="2040.434345" stroke="black" stroke-width="4.05"/>
<line x1="1502.318696" y1="2015.331124" x2="1262.548631" y2="2015.331124" stroke="black" stroke-width="4.05"/>
<line x1="1262.548631" y1="2015.331124" x2="1262.548631" y2="2058.216826" stroke="black" stroke-width="4.05"/>
<line x1="1262.548631" y1="2058.216826" x2="1502.318696" y2="2058.216826" stroke="black" stroke-width="4.05"/>
<line x1="1502.318696" y1="2058.216826" x2="1502.318696" y2="2015.331124" stroke="black" stroke-width="4.05"/>
<line x1="1491.109934" y1="2015.331124" x2="1491.109934" y2="2000.710998" stroke="black" stroke-width="4.05"/>
<line x1="1491.109934" y1="2000.710998" x2="1274.244732" y2="2000.710998" stroke="black" stroke-width="4.05"/>
<line x1="1274.244732" y1="2015.331124" x2="1274.244732" y2="2000.710998" stroke="black" stroke-width="4.05"/>
<line x1="1977.071191" y1="2021.28741" x2="1737.284227" y2="2021.28741" stroke="black" stroke-width="4.05"/>
<line x1="1737.284227" y1="2021.28741" x2="1737.284227" y2="2058.252541" stroke="black" stroke-width="4.05"/>
<line x1="1737.284227" y1="2058.252541" x2="1977.071191" y2="2058.252541" stroke="black" stroke-width="4.05"/>
<line x1="1977.071191" y1="2058.252541" x2="1977.071191" y2="2021.28741" stroke="black" stroke-width="4.05"/>
<line x1="1954.697558" y1="2057.766156" x2="1954.697558" y2="2021.773795" stroke="black" stroke-width="4.05"/>
<line x1="1760.144242" y1="2057.766156" x2="1760.144242" y2="2020.314643" stroke="black" stroke-width="4.05"/>
<line x1="1955.183944" y1="2040.742742" x2="1760.630627" y2="2040.742742" stroke="black" stroke-width="4.05"/>
<line x1="2058.575306" y1="203.989972" x2="2058.575306" y2="444.455024" stroke="black" stroke-width="4.05"/>
<line x1="2058.575306" y1="444.455024" x2="2101.585316" y2="444.455024" stroke="black" stroke-width="4.05"/>
<line x1="2101.585316" y1="444.455024" x2="2101.585316" y2="203.989972" stroke="black" stroke-width="4.05"/>
<line x1="2101.585316" y1="203.989972" x2="2058.575306" y2="203.989972" stroke="black" stroke-width="4.05"/>
<line x1="2058.575306" y1="215.231224" x2="2043.912805" y2="215.231224" stroke="black" stroke-width="4.05"/>
<line x1="2043.912805" y1="215.231224" x2="2043.912805" y2="432.725022" stroke="black" stroke-width="4.05"/>
<line x1="2058.575306" y1="432.725022" x2="2043.912805" y2="432.725022" stroke="black" stroke-width="4.05"/>
<line x1="2056.953535" y1="776.174944" x2="2056.953535" y2="1027.759766" stroke="black" stroke-width="4.05"/>
<line x1="2056.953535" y1="1027.759766" x2="2101.952448" y2="1027.759766" stroke="black" stroke-width="4.05"/>
<line x1="2101.952448" y1="1027.759766" x2="2101.952448" y2="776.174944" stroke="black" stroke-width="4.05"/>
<line x1="2101.952448" y1="776.174944" x2="2056.953535" y2="776.174944" stroke="black" stroke-width="4.05"/>
<line x1="2056.953535" y1="787.936021" x2="2041.612999" y2="787.936021" stroke="black" stroke-width="4.05"/>
<line x1="2041.612999" y1="787.936021" x2="2041.612999" y2="1015.487334" stroke="black" stroke-width="4.05"/>
<line x1="2056.953535" y1="1015.487334" x2="2041.612999" y2="1015.487334" stroke="black" stroke-width="4.05"/>
<line x1="2064.600925" y1="1369.92258" x2="2064.600925" y2="1611.794646" stroke="black" stroke-width="4.05"/>
<line x1="2064.600925" y1="1611.794646" x2="2101.887493" y2="1611.794646" stroke="black" stroke-width="4.05"/>
<line x1="2101.887493" y1="1611.794646" x2="2101.887493" y2="1369.92258" stroke="black" stroke-width="4.05"/>
<line x1="2101.887493" y1="1369.92258" x2="2064.600925" y2="1369.92258" stroke="black" stroke-width="4.05"/>
<line x1="2101.396882" y1="1392.490764" x2="2065.09154" y2="1392.490764" stroke="black" stroke-width="4.05"/>
<line x1="2101.396882" y1="1588.73585" x2="2063.619702" y2="1588.73585" stroke="black" stroke-width="4.05"/>
<line x1="2084.225436" y1="1392.000152" x2="2084.225436" y2="1588.245235" stroke="black" stroke-width="4.05"/>
<line x1="138.283542" y1="1589.658811" x2="138.283542" y2="1347.786745" stroke="black" stroke-width="4.05"/>
<line x1="138.283542" y1="1347.786745" x2="100.996974" y2="1347.786745" stroke="black" stroke-width="4.05"/>
<line x1="100.996974" y1="1347.786745" x2="100.996974" y2="1589.658811" stroke="black" stroke-width="4.05"/>
<line x1="100.996974" y1="1589.658811" x2="138.283542" y2="1589.658811" stroke="black" stroke-width="4.05"/>
<line x1="101.487586" y1="1567.090627" x2="137.792927" y2="1567.090627" stroke="black" stroke-width="4.05"/>
<line x1="101.487586" y1="1370.845541" x2="139.264765" y2="1370.845541" stroke="black" stroke-width="4.05"/>
<line x1="118.659031" y1="1567.581239" x2="118.659031" y2="1371.336156" stroke="black" stroke-width="4.05"/>
<line x1="139.37324" y1="909.137837" x2="139.37324" y2="667.265771" stroke="black" stroke-width="4.05"/>
<line x1="139.37324" y1="667.265771" x2="102.086672" y2="667.265771" stroke="black" stroke-width="4.05"/>
<line x1="102.086672" y1="667.265771" x2="102.086672" y2="909.137837" stroke="black" stroke-width="4.05"/>
<line x1="102.086672" y1="909.137837" x2="139.37324" y2="909.137837" stroke="black" stroke-width="4.05"/>
<line x1="102.577284" y1="886.569653" x2="138.882625" y2="886.569653" stroke="black" stroke-width="4.05"/>
<line x1="102.577284" y1="690.324566" x2="140.354464" y2="690.324566" stroke="black" stroke-width="4.05"/>
<line x1="119.74873" y1="887.060264" x2="119.74873" y2="690.815182" stroke="black" stroke-width="4.05"/>
<line x1="138.442799" y1="445.034534" x2="138.442799" y2="203.162468" stroke="black" stroke-width="4.05"/>
<line x1="138.442799" y1="203.162468" x2="101.156231" y2="203.162468" stroke="black" stroke-width="4.05"/>
<line x1="101.156231" y1="203.162468" x2="101.156231" y2="445.034534" stroke="black" stroke-width="4.05"/>
<line x1="101.156231" y1="445.034534" x2="138.442799" y2="445.034534" stroke="black" stroke-width="4.05"/>
<line x1="101.646842" y1="422.46635" x2="137.952184" y2="422.46635" stroke="black" stroke-width="4.05"/>
<line x1="101.646842" y1="226.221264" x2="139.424022" y2="226.221264" stroke="black" stroke-width="4.05"/>
<line x1="118.818288" y1="422.956962" x2="118.818288" y2="226.711879" stroke="black" stroke-width="4.05"/>
<line x1="497.220505" y1="715.415594" x2="287.855302" y2="715.415594" stroke="black" stroke-width="4.05"/>
<line x1="287.855302" y1="715.415594" x2="287.855302" y2="1046.629998" stroke="black" stroke-width="4.05"/>
<line x1="287.855302" y1="1046.629998" x2="497.220505" y2="1046.629998" stroke="black" stroke-width="4.05"/>
<line x1="497.220505" y1="1046.629998" x2="497.220505" y2="715.415594" stroke="black" stroke-width="4.05"/>
<line x1="497.893705" y1="987.388394" x2="287.182102" y2="987.388394" stroke="black" stroke-width="4.05"/>
<line x1="287.182102" y1="987.388394" x2="496.547302" y2="937.571594" stroke="black" stroke-width="4.05"/>
<line x1="496.547302" y1="937.571594" x2="464.906902" y2="891.120794" stroke="black" stroke-width="4.05"/>
<line x1="464.906902" y1="891.120794" x2="287.182102" y2="988.061598" stroke="black" stroke-width="4.05"/>
<line x1="1110.575106" y1="1028.171776" x2="1110.575106" y2="1007.813491" stroke="black" stroke-width="4.05"/>
<line x1="1110.575106" y1="1007.813491" x2="1070.851626" y2="1007.813491" stroke="black" stroke-width="4.05"/>
<line x1="1070.851626" y1="1007.813491" x2="1070.851626" y2="1028.171776" stroke="black" stroke-width="4.05"/>
<line x1="1070.851626" y1="1028.171776" x2="1110.575106" y2="1028.171776" stroke="black" stroke-width="4.05"/>
<line x1="1070.851626" y1="808.699558" x2="872.730778" y2="808.699558" stroke="black" stroke-width="4.05"/>
<line x1="1111.568191" y1="808.203013" x2="1111.568191" y2="787.844732" stroke="black" stroke-width="4.05"/>
<line x1="1111.568191" y1="787.844732" x2="1071.844715" y2="787.844732" stroke="black" stroke-width="4.05"/>
<line x1="1071.844715" y1="787.844732" x2="1071.844715" y2="808.203013" stroke="black" stroke-width="4.05"/>
<line x1="1071.844715" y1="808.203013" x2="1111.568191" y2="808.203013" stroke="black" stroke-width="4.05"/>
<path d="m 1072.341256,1007.813491 a 199.11393349999997,199.11393349999997 0 0 1 -199.11393399999997,-199.11393299999997" fill="none" stroke="black" stroke-width="4.05"/>
<line x1="913.136738" y1="247.05077" x2="1080.250153" y2="247.05077" stroke="black" stroke-width="4.05"/>
<line x1="1080.250153" y1="247.05077" x2="1080.250153" y2="414.506628" stroke="black" stroke-width="4.05"/>
<line x1="1080.250153" y1="414.506628" x2="913.136738" y2="414.506628" stroke="black" stroke-width="4.05"/>
<line x1="913.136738" y1="414.506628" x2="913.136738" y2="247.05077" stroke="black" stroke-width="4.05"/>
<line x1="912.794296" y1="246.708324" x2="1080.250153" y2="414.506628" stroke="black" stroke-width="4.05"/>
<line x1="913.136738" y1="414.164185" x2="1079.90771" y2="247.05077" stroke="black" stroke-width="4.05"/>
<line x1="319.025376" y1="151.293517" x2="202.10485" y2="324.635324" stroke="black" stroke-width="4.05"/>
<line x1="202.10485" y1="324.635324" x2="394.356672" y2="454.310816" stroke="black" stroke-width="4.05"/>
<line x1="394.356672" y1="454.310816" x2="511.277198" y2="280.969009" stroke="black" stroke-width="4.05"/>
<line x1="511.277198" y1="280.969009" x2="319.025376" y2="151.293517" stroke="black" stroke-width="4.05"/>
<line x1="345.814564" y1="169.363051" x2="228.894041" y2="342.704862" stroke="black" stroke-width="4.05"/>
<line x1="2030.64498" y1="397.576037" x2="1637.344134" y2="397.576037" stroke="black" stroke-width="4.05"/>
<line x1="1637.344134" y1="397.576037" x2="1637.344134" y2="572.73026" stroke="black" stroke-width="4.05"/>
<line x1="1637.344134" y1="572.73026" x2="2030.64498" y2="572.73026" stroke="black" stroke-width="4.05"/>
<line x1="2030.64498" y1="572.73026" x2="2030.64498" y2="397.576037" stroke="black" stroke-width="4.05"/>
<line x1="1712.978914" y1="545.660971" x2="1998.798761" y2="545.660971" stroke="black" stroke-width="4.05"/>
<line x1="1998.798761" y1="545.660971" x2="1998.798761" y2="427.033793" stroke="black" stroke-width="4.05"/>
<line x1="1998.798761" y1="427.033793" x2="1707.405826" y2="427.033793" stroke="black" stroke-width="4.05"/>
<path d="m 1713.793738,545.917738 a 63.69244535843305,63.69244535843305 0 0 1 -4.316343000000188,-120.00067999999999" fill="none" stroke="black" stroke-width="4.05"/>
<line x1="1132.995863" y1="600.926753" x2="1153.236467" y2="600.926753" stroke="black" stroke-width="4.05"/>
<line x1="1153.236467" y1="600.926753" x2="1153.236467" y2="561.432888" stroke="black" stroke-width="4.05"/>
<line x1="1153.236467" y1="561.432888" x2="1132.995863" y2="561.432888" stroke="black" stroke-width="4.05"/>
<line x1="1132.995863" y1="561.432888" x2="1132.995863" y2="600.926753" stroke="black" stroke-width="4.05"/>
<line x1="1351.199455" y1="561.432888" x2="1351.199455" y2="364.45725" stroke="black" stroke-width="4.05"/>
<line x1="1351.693127" y1="601.9141" x2="1371.933731" y2="601.9141" stroke="black" stroke-width="4.05"/>
<line x1="1371.933731" y1="601.9141" x2="1371.933731" y2="562.420235" stroke="black" stroke-width="4.05"/>
<line x1="1371.933731" y1="562.420235" x2="1351.693127" y2="562.420235" stroke="black" stroke-width="4.05"/>
<line x1="1351.693127" y1="562.420235" x2="1351.693127" y2="601.9141" stroke="black" stroke-width="4.05"/>
<path d="m 1153.236467,562.91391 a 197.962988,197.962988 0 0 1 197.962988,-197.962988" fill="none" stroke="black" stroke-width="4.05"/>
<line x1="2034.234756" y1="166.642459" x2="1850.312599" y2="166.642459" stroke="black" stroke-width="4.05"/>
<line x1="1850.312599" y1="166.642459" x2="1850.312599" y2="117.490849" stroke="black" stroke-width="4.05"/>
<line x1="2034.234756" y1="117.490849" x2="1850.312599" y2="117.490849" stroke="black" stroke-width="4.05"/>
<line x1="2034.234756" y1="166.642459" x2="2034.234756" y2="117.490849" stroke="black" stroke-width="4.05"/>
<line x1="1992.61444" y1="194.389337" x2="1992.61444" y2="166.642459" stroke="black" stroke-width="4.05"/>
<line x1="1893.518453" y1="166.642459" x2="1893.518453" y2="195.974874" stroke="black" stroke-width="4.05"/>
<circle cx="1943.859215" cy="239.577106" r="66.59250380904014" fill="none" stroke="black" stroke-width="4.05"/>
<circle cx="1943.859215" cy="239.577106" r="57.07928897917725" fill="none" stroke="black" stroke-width="4.05"/>
<line x1="1395.085691" y1="798.896383" x2="1395.085691" y2="819.136987" stroke="black" stroke-width="4.05"/>
<line x1="1395.085691" y1="819.136987" x2="1434.579556" y2="819.136987" stroke="black" stroke-width="4.05"/>
<line x1="1434.579556" y1="819.136987" x2="1434.579556" y2="798.896383" stroke="black" stroke-width="4.05"/>
<line x1="1434.579556" y1="798.896383" x2="1395.085691" y2="798.896383" stroke="black" stroke-width="4.05"/>
<line x1="1434.579556" y1="1017.099976" x2="1631.555194" y2="1017.099976" stroke="black" stroke-width="4.05"/>
<line x1="1394.098344" y1="1017.593647" x2="1394.098344" y2="1037.834251" stroke="black" stroke-width="4.05"/>
<line x1="1394.098344" y1="1037.834251" x2="1433.592209" y2="1037.834251" stroke="black" stroke-width="4.05"/>
<line x1="1433.592209" y1="1037.834251" x2="1433.592209" y2="1017.593647" stroke="black" stroke-width="4.05"/>
<line x1="1433.592209" y1="1017.593647" x2="1394.098344" y2="1017.593647" stroke="black" stroke-width="4.05"/>
<path d="m 1433.098534,819.136987 a 197.9629885,197.9629885 0 0 1 197.962988,197.962989" fill="none" stroke="black" stroke-width="4.05"/>
<line x1="1355.331352" y1="1314.6484" x2="1482.319404" y2="1278.235163" stroke="black" stroke-width="4.05"/>
<line x1="1482.319404" y1="1278.235163" x2="1486.24889" y2="1291.938908" stroke="black" stroke-width="4.05"/>
<line x1="1359.260838" y1="1328.352145" x2="1486.24889" y2="1291.938908" stroke="black" stroke-width="4.05"/>
<line x1="1355.331352" y1="1314.6484" x2="1359.260838" y2="1328.352145" stroke="black" stroke-width="4.05"/>
<line x1="1372.051001" y1="1324.684627" x2="1378.868706" y2="1355.3568" stroke="black" stroke-width="4.05"/>
<line x1="1473.458728" y1="1295.60643" x2="1484.192725" y2="1326.144323" stroke="black" stroke-width="4.05"/>
<line x1="1482.384737" y1="1757.736212" x2="1609.372789" y2="1721.322976" stroke="black" stroke-width="4.05"/>
<line x1="1609.372789" y1="1721.322976" x2="1605.705268" y2="1708.532809" stroke="black" stroke-width="4.05"/>
<line x1="1478.717215" y1="1744.946046" x2="1605.705268" y2="1708.532809" stroke="black" stroke-width="4.05"/>
<line x1="1482.384737" y1="1757.736212" x2="1478.717215" y2="1744.946046" stroke="black" stroke-width="4.05"/>
<line x1="1490.069866" y1="1739.713327" x2="1479.597829" y2="1710.089017" stroke="black" stroke-width="4.05"/>
<line x1="1591.477589" y1="1710.63513" x2="1585.311505" y2="1678.78741" stroke="black" stroke-width="4.05"/>
<line x1="1684.775776" y1="1391.226937" x2="1671.072026" y2="1395.15642" stroke="black" stroke-width="4.05"/>
<line x1="1671.072026" y1="1395.15642" x2="1707.485267" y2="1522.144472" stroke="black" stroke-width="4.05"/>
<line x1="1721.189012" y1="1518.21499" x2="1707.485267" y2="1522.144472" stroke="black" stroke-width="4.05"/>
<line x1="1684.775776" y1="1391.226937" x2="1721.189012" y2="1518.21499" stroke="black" stroke-width="4.05"/>
<line x1="1703.555777" y1="1508.440727" x2="1673.279852" y2="1520.088311" stroke="black" stroke-width="4.05"/>
<line x1="1674.739548" y1="1407.946583" x2="1643.153792" y2="1415.026253" stroke="black" stroke-width="4.05"/>
<line x1="1242.339581" y1="1517.104771" x2="1256.043326" y2="1513.175285" stroke="black" stroke-width="4.05"/>
<line x1="1256.043326" y1="1513.175285" x2="1292.456563" y2="1640.163337" stroke="black" stroke-width="4.05"/>
<line x1="1278.752818" y1="1644.092824" x2="1292.456563" y2="1640.163337" stroke="black" stroke-width="4.05"/>
<line x1="1242.339581" y1="1517.104771" x2="1278.752818" y2="1644.092824" stroke="black" stroke-width="4.05"/>
<line x1="1288.52708" y1="1626.459592" x2="1320.374801" y2="1620.293504" stroke="black" stroke-width="4.05"/>
<line x1="1259.710848" y1="1525.965448" x2="1290.248741" y2="1515.231446" stroke="black" stroke-width="4.05"/>
<circle cx="1481.764295" cy="1517.65988" r="191.98080000000002" fill="none" stroke="black" stroke-width="4.05"/>
<line x1="756.540749" y1="1270.405984" x2="756.540749" y2="1080.325984" stroke="black" stroke-width="4.05"/>
<line x1="756.540749" y1="1080.325984" x2="292.745549" y2="1080.325984" stroke="black" stroke-width="4.05"/>
<line x1="292.745549" y1="1080.325984" x2="292.745549" y2="1270.405984" stroke="black" stroke-width="4.05"/>
<line x1="292.745549" y1="1270.405984" x2="316.505549" y2="1270.405984" stroke="black" stroke-width="4.05"/>
<line x1="316.505549" y1="1270.405984" x2="316.505549" y2="1103.135584" stroke="black" stroke-width="4.05"/>
<line x1="316.505549" y1="1103.135584" x2="731.830349" y2="1103.135584" stroke="black" stroke-width="4.05"/>
<line x1="731.830349" y1="1103.135584" x2="731.830349" y2="1270.405984" stroke="black" stroke-width="4.05"/>
<line x1="731.830349" y1="1270.405984" x2="756.540749" y2="1270.405984" stroke="black" stroke-width="4.05"/>
<line x1="731.830349" y1="1264.703584" x2="316.505549" y2="1264.703584" stroke="black" stroke-width="4.05"/>
<line x1="524.643149" y1="1265.653984" x2="524.643149" y2="1104.085984" stroke="black" stroke-width="4.05"/>
<line x1="553.648626" y1="1432.279948" x2="663.221268" y2="1374.019139" stroke="black" stroke-width="4.05"/>
<line x1="663.221268" y1="1374.019139" x2="721.601467" y2="1483.816316" stroke="black" stroke-width="4.05"/>
<line x1="721.601467" y1="1483.816316" x2="612.028822" y2="1542.077125" stroke="black" stroke-width="4.05"/>
<line x1="612.028822" y1="1542.077125" x2="553.648626" y2="1432.279948" stroke="black" stroke-width="4.05"/>
<line x1="553.304707" y1="1432.174799" x2="721.601467" y2="1483.816316" stroke="black" stroke-width="4.05"/>
<line x1="611.909435" y1="1541.85259" x2="662.996736" y2="1374.138526" stroke="black" stroke-width="4.05"/>
<line x1="1045.884953" y1="1700.653957" x2="1130.9287" y2="1509.642565" stroke="black" stroke-width="4.05"/>
<line x1="1130.9287" y1="1509.642565" x2="919.079701" y2="1415.321312" stroke="black" stroke-width="4.05"/>
<line x1="919.079701" y1="1415.321312" x2="834.035954" y2="1606.332712" stroke="black" stroke-width="4.05"/>
<line x1="834.035954" y1="1606.332712" x2="1045.884953" y2="1700.653957" stroke="black" stroke-width="4.05"/>
<line x1="1016.36501" y1="1687.510832" x2="1101.408757" y2="1496.49944" stroke="black" stroke-width="4.05"/>
<line x1="1176.694582" y1="117.613541" x2="1447.241782" y2="117.613541" stroke="black" stroke-width="4.05"/>
<line x1="1447.241782" y1="117.613541" x2="1447.241782" y2="249.560741" stroke="black" stroke-width="4.05"/>
<line x1="1176.694582" y1="249.560741" x2="1447.241782" y2="249.560741" stroke="black" stroke-width="4.05"/>
<line x1="1176.694582" y1="117.613541" x2="1176.694582" y2="249.560741" stroke="black" stroke-width="4.05"/>
<line x1="1183.347382" y1="124.266341" x2="1321.392982" y2="124.266341" stroke="black" stroke-width="4.05"/>
<line x1="1321.392982" y1="124.266341" x2="1321.392982" y2="242.353541" stroke="black" stroke-width="4.05"/>
<line x1="1183.347382" y1="242.353541" x2="1321.392982" y2="242.353541" stroke="black" stroke-width="4.05"/>
<line x1="1183.347382" y1="124.266341" x2="1183.347382" y2="242.353541" stroke="black" stroke-width="4.05"/>
<line x1="1335.807382" y1="132.027941" x2="1432.827382" y2="132.027941" stroke="black" stroke-width="4.05"/>
<line x1="1335.807382" y1="152.540741" x2="1432.827382" y2="152.540741" stroke="black" stroke-width="4.05"/>
<line x1="1336.361782" y1="173.607941" x2="1433.381782" y2="173.607941" stroke="black" stroke-width="4.05"/>
<line x1="1336.361782" y1="194.120741" x2="1433.381782" y2="194.120741" stroke="black" stroke-width="4.05"/>
<line x1="1335.807382" y1="214.633541" x2="1432.827382" y2="214.633541" stroke="black" stroke-width="4.05"/>
<line x1="1335.807382" y1="235.146341" x2="1432.827382" y2="235.146341" stroke="black" stroke-width="4.05"/>
<line x1="1236.015382" y1="242.353541" x2="1236.015382" y2="228.493541" stroke="black" stroke-width="4.05"/>
<line x1="1236.015382" y1="228.493541" x2="1270.388182" y2="228.493541" stroke="black" stroke-width="4.05"/>
<line x1="1270.388182" y1="228.493541" x2="1270.388182" y2="241.799141" stroke="black" stroke-width="4.05"/>
<circle cx="1305.869782" cy="139.235141" r="8.316000000000003" fill="none" stroke="black" stroke-width="4.05"/>
<line x1="1919.891822" y1="1984.037638" x2="1919.891822" y2="1713.490438" stroke="black" stroke-width="4.05"/>
<line x1="1919.891822" y1="1713.490438" x2="2051.839022" y2="1713.490438" stroke="black" stroke-width="4.05"/>
<line x1="2051.839022" y1="1984.037638" x2="2051.839022" y2="1713.490438" stroke="black" stroke-width="4.05"/>
<line x1="1919.891822" y1="1984.037638" x2="2051.839022" y2="1984.037638" stroke="black" stroke-width="4.05"/>
<line x1="1926.544622" y1="1977.384838" x2="1926.544622" y2="1839.339238" stroke="black" stroke-width="4.05"/>
<line x1="1926.544622" y1="1839.339238" x2="2044.631822" y2="1839.339238" stroke="black" stroke-width="4.05"/>
<line x1="2044.631822" y1="1977.384838" x2="2044.631822" y2="1839.339238" stroke="black" stroke-width="4.05"/>
<line x1="1926.544622" y1="1977.384838" x2="2044.631822" y2="1977.384838" stroke="black" stroke-width="4.05"/>
<line x1="1934.306222" y1="1824.924838" x2="1934.306222" y2="1727.904838" stroke="black" stroke-width="4.05"/>
<line x1="1954.819022" y1="1824.924838" x2="1954.819022" y2="1727.904838" stroke="black" stroke-width="4.05"/>
<line x1="1975.886222" y1="1824.370438" x2="1975.886222" y2="1727.350438" stroke="black" stroke-width="4.05"/>
<line x1="1996.399022" y1="1824.370438" x2="1996.399022" y2="1727.350438" stroke="black" stroke-width="4.05"/>
<line x1="2016.911822" y1="1824.924838" x2="2016.911822" y2="1727.904838" stroke="black" stroke-width="4.05"/>
<line x1="2037.424622" y1="1824.924838" x2="2037.424622" y2="1727.904838" stroke="black" stroke-width="4.05"/>
<line x1="2044.631822" y1="1924.716838" x2="2030.771822" y2="1924.716838" stroke="black" stroke-width="4.05"/>
<line x1="2030.771822" y1="1924.716838" x2="2030.771822" y2="1890.344038" stroke="black" stroke-width="4.05"/>
<line x1="2030.771822" y1="1890.344038" x2="2044.077422" y2="1890.344038" stroke="black" stroke-width="4.05"/>
<circle cx="1941.513422" cy="1854.862438" r="8.316000000000003" fill="none" stroke="black" stroke-width="4.05"/>
<line x1="192.042241" y1="1609.378862" x2="361.197986" y2="1732.277704" stroke="black" stroke-width="4.05"/>
<line x1="361.197986" y1="1732.277704" x2="497.50398" y2="1544.668607" stroke="black" stroke-width="4.05"/>
<line x1="497.50398" y1="1544.668607" x2="328.348231" y2="1421.769762" stroke="black" stroke-width="4.05"/>
<line x1="328.348231" y1="1421.769762" x2="192.042241" y2="1609.378862" stroke="black" stroke-width="4.05"/>
<line x1="211.035701" y1="1583.236609" x2="380.191446" y2="1706.135454" stroke="black" stroke-width="4.05"/>
<line x1="1799.832056" y1="1048.556923" x2="2008.920056" y2="1048.556923" stroke="black" stroke-width="4.05"/>
<line x1="2008.920056" y1="1048.556923" x2="2008.920056" y2="816.659323" stroke="black" stroke-width="4.05"/>
<line x1="2008.920056" y1="816.659323" x2="1799.832056" y2="816.659323" stroke="black" stroke-width="4.05"/>
<line x1="1799.832056" y1="816.659323" x2="1799.832056" y2="1048.556923" stroke="black" stroke-width="4.05"/>
<line x1="1799.832056" y1="1016.243323" x2="2008.920056" y2="1016.243323" stroke="black" stroke-width="4.05"/>
<line x1="1666.989774" y1="604.690222" x2="1833.081988" y2="604.690222" stroke="black" stroke-width="4.05"/>
<line x1="1833.081988" y1="604.690222" x2="1833.081988" y2="771.122786" stroke="black" stroke-width="4.05"/>
<line x1="1833.081988" y1="771.122786" x2="1666.989774" y2="771.122786" stroke="black" stroke-width="4.05"/>
<line x1="1666.989774" y1="771.122786" x2="1666.989774" y2="604.690222" stroke="black" stroke-width="4.05"/>
<line x1="1666.649423" y1="604.34987" x2="1833.081988" y2="771.122786" stroke="black" stroke-width="4.05"/>
<line x1="1666.989774" y1="770.782435" x2="1832.741633" y2="604.690222" stroke="black" stroke-width="4.05"/>
<line x1="1832.995789" y1="604.424074" x2="1999.088003" y2="604.424074" stroke="black" stroke-width="4.05"/>
<line x1="1999.088003" y1="604.424074" x2="1999.088003" y2="770.856638" stroke="black" stroke-width="4.05"/>
<line x1="1999.088003" y1="770.856638" x2="1832.995789" y2="770.856638" stroke="black" stroke-width="4.05"/>
<line x1="1832.995789" y1="770.856638" x2="1832.995789" y2="604.424074" stroke="black" stroke-width="4.05"/>
<line x1="1832.655438" y1="604.083722" x2="1999.088003" y2="770.856638" stroke="black" stroke-width="4.05"/>
<line x1="1832.995789" y1="770.516287" x2="1998.747648" y2="604.424074" stroke="black" stroke-width="4.05"/>
<line x1="1501.570829" y1="604.276909" x2="1667.663042" y2="604.276909" stroke="black" stroke-width="4.05"/>
<line x1="1667.663042" y1="604.276909" x2="1667.663042" y2="770.709474" stroke="black" stroke-width="4.05"/>
<line x1="1667.663042" y1="770.709474" x2="1501.570829" y2="770.709474" stroke="black" stroke-width="4.05"/>
<line x1="1501.570829" y1="770.709474" x2="1501.570829" y2="604.276909" stroke="black" stroke-width="4.05"/>
<line x1="1501.230478" y1="603.936558" x2="1667.663042" y2="770.709474" stroke="black" stroke-width="4.05"/>
<line x1="1501.570829" y1="770.369123" x2="1667.322688" y2="604.276909" stroke="black" stroke-width="4.05"/>
<line x1="1886.55296" y1="1077.238843" x2="2052.645174" y2="1077.238843" stroke="black" stroke-width="4.05"/>
<line x1="2052.645174" y1="1077.238843" x2="2052.645174" y2="1243.671408" stroke="black" stroke-width="4.05"/>
<line x1="2052.645174" y1="1243.671408" x2="1886.55296" y2="1243.671408" stroke="black" stroke-width="4.05"/>
<line x1="1886.55296" y1="1243.671408" x2="1886.55296" y2="1077.238843" stroke="black" stroke-width="4.05"/>
<line x1="1886.212609" y1="1076.898492" x2="2052.645174" y2="1243.671408" stroke="black" stroke-width="4.05"/>
<line x1="1886.55296" y1="1243.331057" x2="2052.304819" y2="1077.238843" stroke="black" stroke-width="4.05"/>
<line x1="1915.896632" y1="1644.870398" x2="1915.896632" y2="1251.626526" stroke="black" stroke-width="4.05"/>
<line x1="1914.90035" y1="1247.67112" x2="2050.969126" y2="1247.67112" stroke="black" stroke-width="4.05"/>
<line x1="2052.120632" y1="1644.406009" x2="2052.120632" y2="1247.365778" stroke="black" stroke-width="4.05"/>
<line x1="1916.591382" y1="1643.67112" x2="2051.855438" y2="1643.67112" stroke="black" stroke-width="4.05"/>
<line x1="1926.984632" y1="1633.37512" x2="1926.984632" y2="1509.82312" stroke="black" stroke-width="4.05"/>
<line x1="1926.984632" y1="1509.82312" x2="2041.032632" y2="1509.82312" stroke="black" stroke-width="4.05"/>
<line x1="2041.032632" y1="1633.37512" x2="2041.032632" y2="1509.82312" stroke="black" stroke-width="4.05"/>
<line x1="1926.984632" y1="1633.37512" x2="2041.032632" y2="1633.37512" stroke="black" stroke-width="4.05"/>
<line x1="1934.112632" y1="1490.81512" x2="1934.112632" y2="1403.69512" stroke="black" stroke-width="4.05"/>
<line x1="1953.912632" y1="1490.81512" x2="1953.912632" y2="1403.69512" stroke="black" stroke-width="4.05"/>
<line x1="1974.504632" y1="1490.02312" x2="1974.504632" y2="1403.69512" stroke="black" stroke-width="4.05"/>
<line x1="1994.304632" y1="1490.02312" x2="1994.304632" y2="1403.69512" stroke="black" stroke-width="4.05"/>
<line x1="2014.104632" y1="1490.81512" x2="2014.104632" y2="1403.69512" stroke="black" stroke-width="4.05"/>
<line x1="2033.904632" y1="1490.81512" x2="2033.904632" y2="1403.69512" stroke="black" stroke-width="4.05"/>
<line x1="2040.240632" y1="1585.85512" x2="2026.776632" y2="1585.85512" stroke="black" stroke-width="4.05"/>
<line x1="2026.776632" y1="1585.85512" x2="2026.776632" y2="1555.75912" stroke="black" stroke-width="4.05"/>
<line x1="2026.776632" y1="1555.75912" x2="2039.448632" y2="1555.75912" stroke="black" stroke-width="4.05"/>
<line x1="1926.984632" y1="1383.10312" x2="1926.984632" y2="1259.55112" stroke="black" stroke-width="4.05"/>
<line x1="1926.984632" y1="1259.55112" x2="2041.032632" y2="1259.55112" stroke="black" stroke-width="4.05"/>
<line x1="2041.032632" y1="1383.10312" x2="2041.032632" y2="1259.55112" stroke="black" stroke-width="4.05"/>
<line x1="1926.984632" y1="1383.10312" x2="2041.032632" y2="1383.10312" stroke="black" stroke-width="4.05"/>
<line x1="2041.032632" y1="1335.58312" x2="2027.568632" y2="1335.58312" stroke="black" stroke-width="4.05"/>
<line x1="2027.568632" y1="1335.58312" x2="2027.568632" y2="1305.48712" stroke="black" stroke-width="4.05"/>
<line x1="2027.568632" y1="1305.48712" x2="2040.240632" y2="1305.48712" stroke="black" stroke-width="4.05"/>
<circle cx="1941.240632" cy="1524.07912" r="7.128000000000001" fill="none" stroke="black" stroke-width="4.05"/>
<circle cx="1942.032632" cy="1273.80712" r="7.128000000000001" fill="none" stroke="black" stroke-width="4.05"/>
</g>
</svg>
