<?xml version="1.0"?>
<svg xmlns:xlink="http://www.w3.org/1999/xlink" width="2170.8" height="2138.4">
<image x="0" y="0" width="2170.8" height="2138.4" xlink:href="ground16-04.png"/>
<g style="stroke-linecap:round">
<line x1="355.524638" y1="104.449442" x2="594.616565" y2="104.449442" stroke="black" stroke-width="4.05"/>
<line x1="594.616565" y1="104.449442" x2="594.616565" y2="67.591454" stroke="black" stroke-width="4.05"/>
<line x1="594.616565" y1="67.591454" x2="355.524638" y2="67.591454" stroke="black" stroke-width="4.05"/>
<line x1="355.524638" y1="67.591454" x2="355.524638" y2="104.449442" stroke="black" stroke-width="4.05"/>
<line x1="377.833417" y1="68.076428" x2="377.833417" y2="103.964468" stroke="black" stroke-width="4.05"/>
<line x1="571.822812" y1="68.076428" x2="571.822812" y2="105.419387" stroke="black" stroke-width="4.05"/>
<line x1="377.348447" y1="85.0505" x2="571.337838" y2="85.0505" stroke="black" stroke-width="4.05"/>
<line x1="1586.39715" y1="105.206782" x2="1826.184114" y2="105.206782" stroke="black" stroke-width="4.05"/>
<line x1="1826.184114" y1="105.206782" x2="1826.184114" y2="68.24165" stroke="black" stroke-width="4.05"/>
<line x1="1826.184114" y1="68.24165" x2="1586.39715" y2="68.24165" stroke="black" stroke-width="4.05"/>
<line x1="1586.39715" y1="68.24165" x2="1586.39715" y2="105.206782" stroke="black" stroke-width="4.05"/>
<line x1="1608.770783" y1="68.728036" x2="1608.770783" y2="104.720396" stroke="black" stroke-width="4.05"/>
<line x1="1803.3241" y1="68.728036" x2="1803.3241" y2="106.179548" stroke="black" stroke-width="4.05"/>
<line x1="1608.284398" y1="85.751449" x2="1802.837714" y2="85.751449" stroke="black" stroke-width="4.05"/>
<line x1="455.164369" y1="2021.61294" x2="214.682375" y2="2021.61294" stroke="black" stroke-width="4.05"/>
<line x1="214.682375" y1="2021.61294" x2="214.682375" y2="2058.685214" stroke="black" stroke-width="4.05"/>
<line x1="214.682375" y1="2058.685214" x2="455.164369" y2="2058.685214" stroke="black" stroke-width="4.05"/>
<line x1="455.164369" y1="2058.685214" x2="455.164369" y2="2021.61294" stroke="black" stroke-width="4.05"/>
<line x1="432.72589" y1="2058.197422" x2="432.72589" y2="2022.100733" stroke="black" stroke-width="4.05"/>
<line x1="237.608647" y1="2058.197422" x2="237.608647" y2="2020.637354" stroke="black" stroke-width="4.05"/>
<line x1="433.213682" y1="2041.124663" x2="238.096444" y2="2041.124663" stroke="black" stroke-width="4.05"/>
<line x1="1004.406336" y1="2020.979012" x2="764.619372" y2="2020.979012" stroke="black" stroke-width="4.05"/>
<line x1="764.619372" y1="2020.979012" x2="764.619372" y2="2057.944144" stroke="black" stroke-width="4.05"/>
<line x1="764.619372" y1="2057.944144" x2="1004.406336" y2="2057.944144" stroke="black" stroke-width="4.05"/>
<line x1="1004.406336" y1="2057.944144" x2="1004.406336" y2="2020.979012" stroke="black" stroke-width="4.05"/>
<line x1="982.032703" y1="2057.457758" x2="982.032703" y2="2021.465398" stroke="black" stroke-width="4.05"/>
<line x1="787.479386" y1="2057.457758" x2="787.479386" y2="2020.006246" stroke="black" stroke-width="4.05"/>
<line x1="982.519088" y1="2040.434345" x2="787.965772" y2="2040.434345" stroke="black" stroke-width="4.05"/>
<line x1="1502.318696" y1="2015.331124" x2="1262.548631" y2="2015.331124" stroke="black" stroke-width="4.05"/>
<line x1="1262.548631" y1="2015.331124" x2="1262.548631" y2="2058.216826" stroke="black" stroke-width="4.05"/>
<line x1="1262.548631" y1="2058.216826" x2="1502.318696" y2="2058.216826" stroke="black" stroke-width="4.05"/>
<line x1="1502.318696" y1="2058.216826" x2="1502.318696" y2="2015.331124" stroke="black" stroke-width="4.05"/>
<line x1="1491.109934" y1="2015.331124" x2="1491.109934" y2="2000.710998" stroke="black" stroke-width="4.05"/>
<line x1="1491.109934" y1="2000.710998" x2="1274.244732" y2="2000.710998" stroke="black" stroke-width="4.05"/>
<line x1="1274.244732" y1="2015.331124" x2="1274.244732" y2="2000.710998" stroke="black" stroke-width="4.05"/>
<line x1="1977.071191" y1="2021.28741" x2="1737.284227" y2="2021.28741" stroke="black" stroke-width="4.05"/>
<line x1="1737.284227" y1="2021.28741" x2="1737.284227" y2="2058.252541" stroke="black" stroke-width="4.05"/>
<line x1="1737.284227" y1="2058.252541" x2="1977.071191" y2="2058.252541" stroke="black" stroke-width="4.05"/>
<line x1="1977.071191" y1="2058.252541" x2="1977.071191" y2="2021.28741" stroke="black" stroke-width="4.05"/>
<line x1="1954.697558" y1="2057.766156" x2="1954.697558" y2="2021.773795" stroke="black" stroke-width="4.05"/>
<line x1="1760.144242" y1="2057.766156" x2="1760.144242" y2="2020.314643" stroke="black" stroke-width="4.05"/>
<line x1="1955.183944" y1="2040.742742" x2="1760.630627" y2="2040.742742" stroke="black" stroke-width="4.05"/>
<line x1="2058.575306" y1="203.989972" x2="2058.575306" y2="444.455024" stroke="black" stroke-width="4.05"/>
<line x1="2058.575306" y1="444.455024" x2="2101.585316" y2="444.455024" stroke="black" stroke-width="4.05"/>
<line x1="2101.585316" y1="444.455024" x2="2101.585316" y2="203.989972" stroke="black" stroke-width="4.05"/>
<line x1="2101.585316" y1="203.989972" x2="2058.575306" y2="203.989972" stroke="black" stroke-width="4.05"/>
<line x1="2058.575306" y1="215.231224" x2="2043.912805" y2="215.231224" stroke="black" stroke-width="4.05"/>
<line x1="2043.912805" y1="215.231224" x2="2043.912805" y2="432.725022" stroke="black" stroke-width="4.05"/>
<line x1="2058.575306" y1="432.725022" x2="2043.912805" y2="432.725022" stroke="black" stroke-width="4.05"/>
<line x1="2062.857866" y1="776.16608" x2="2062.857866" y2="1027.768633" stroke="black" stroke-width="4.05"/>
<line x1="2062.857866" y1="1027.768633" x2="2101.644464" y2="1027.768633" stroke="black" stroke-width="4.05"/>
<line x1="2101.644464" y1="1027.768633" x2="2101.644464" y2="776.16608" stroke="black" stroke-width="4.05"/>
<line x1="2101.644464" y1="776.16608" x2="2062.857866" y2="776.16608" stroke="black" stroke-width="4.05"/>
<line x1="2101.134114" y1="799.642181" x2="2063.368217" y2="799.642181" stroke="black" stroke-width="4.05"/>
<line x1="2101.134114" y1="1003.782182" x2="2061.837166" y2="1003.782182" stroke="black" stroke-width="4.05"/>
<line x1="2083.271864" y1="799.13183" x2="2083.271864" y2="1003.271832" stroke="black" stroke-width="4.05"/>
<line x1="2064.600925" y1="1369.92258" x2="2064.600925" y2="1611.794646" stroke="black" stroke-width="4.05"/>
<line x1="2064.600925" y1="1611.794646" x2="2101.887493" y2="1611.794646" stroke="black" stroke-width="4.05"/>
<line x1="2101.887493" y1="1611.794646" x2="2101.887493" y2="1369.92258" stroke="black" stroke-width="4.05"/>
<line x1="2101.887493" y1="1369.92258" x2="2064.600925" y2="1369.92258" stroke="black" stroke-width="4.05"/>
<line x1="2101.396882" y1="1392.490764" x2="2065.09154" y2="1392.490764" stroke="black" stroke-width="4.05"/>
<line x1="2101.396882" y1="1588.73585" x2="2063.619702" y2="1588.73585" stroke="black" stroke-width="4.05"/>
<line x1="2084.225436" y1="1392.000152" x2="2084.225436" y2="1588.245235" stroke="black" stroke-width="4.05"/>
<line x1="138.283542" y1="1589.658811" x2="138.283542" y2="1347.786745" stroke="black" stroke-width="4.05"/>
<line x1="138.283542" y1="1347.786745" x2="100.996974" y2="1347.786745" stroke="black" stroke-width="4.05"/>
<line x1="100.996974" y1="1347.786745" x2="100.996974" y2="1589.658811" stroke="black" stroke-width="4.05"/>
<line x1="100.996974" y1="1589.658811" x2="138.283542" y2="1589.658811" stroke="black" stroke-width="4.05"/>
<line x1="101.487586" y1="1567.090627" x2="137.792927" y2="1567.090627" stroke="black" stroke-width="4.05"/>
<line x1="101.487586" y1="1370.845541" x2="139.264765" y2="1370.845541" stroke="black" stroke-width="4.05"/>
<line x1="118.659031" y1="1567.581239" x2="118.659031" y2="1371.336156" stroke="black" stroke-width="4.05"/>
<line x1="145.345295" y1="909.129312" x2="145.345295" y2="667.274292" stroke="black" stroke-width="4.05"/>
<line x1="145.345295" y1="667.274292" x2="102.086672" y2="667.274292" stroke="black" stroke-width="4.05"/>
<line x1="102.086672" y1="667.274292" x2="102.086672" y2="909.129312" stroke="black" stroke-width="4.05"/>
<line x1="102.086672" y1="909.129312" x2="145.345295" y2="909.129312" stroke="black" stroke-width="4.05"/>
<line x1="145.345295" y1="897.82308" x2="160.092554" y2="897.82308" stroke="black" stroke-width="4.05"/>
<line x1="160.092554" y1="897.82308" x2="160.092554" y2="679.072097" stroke="black" stroke-width="4.05"/>
<line x1="145.345295" y1="679.072097" x2="160.092554" y2="679.072097" stroke="black" stroke-width="4.05"/>
<line x1="138.442799" y1="445.034534" x2="138.442799" y2="203.162468" stroke="black" stroke-width="4.05"/>
<line x1="138.442799" y1="203.162468" x2="101.156231" y2="203.162468" stroke="black" stroke-width="4.05"/>
<line x1="101.156231" y1="203.162468" x2="101.156231" y2="445.034534" stroke="black" stroke-width="4.05"/>
<line x1="101.156231" y1="445.034534" x2="138.442799" y2="445.034534" stroke="black" stroke-width="4.05"/>
<line x1="101.646842" y1="422.46635" x2="137.952184" y2="422.46635" stroke="black" stroke-width="4.05"/>
<line x1="101.646842" y1="226.221264" x2="139.424022" y2="226.221264" stroke="black" stroke-width="4.05"/>
<line x1="118.818288" y1="422.956962" x2="118.818288" y2="226.711879" stroke="black" stroke-width="4.05"/>
<line x1="511.409858" y1="715.448981" x2="302.044655" y2="715.448981" stroke="black" stroke-width="4.05"/>
<line x1="302.044655" y1="715.448981" x2="302.044655" y2="1046.663384" stroke="black" stroke-width="4.05"/>
<line x1="302.044655" y1="1046.663384" x2="511.409858" y2="1046.663384" stroke="black" stroke-width="4.05"/>
<line x1="511.409858" y1="1046.663384" x2="511.409858" y2="715.448981" stroke="black" stroke-width="4.05"/>
<line x1="512.083058" y1="987.421781" x2="301.371455" y2="987.421781" stroke="black" stroke-width="4.05"/>
<line x1="301.371455" y1="987.421781" x2="510.736655" y2="937.604981" stroke="black" stroke-width="4.05"/>
<line x1="510.736655" y1="937.604981" x2="479.096255" y2="891.154181" stroke="black" stroke-width="4.05"/>
<line x1="479.096255" y1="891.154181" x2="301.371455" y2="988.094984" stroke="black" stroke-width="4.05"/>
<line x1="1110.575106" y1="1028.171776" x2="1110.575106" y2="1007.813491" stroke="black" stroke-width="4.05"/>
<line x1="1110.575106" y1="1007.813491" x2="1070.851626" y2="1007.813491" stroke="black" stroke-width="4.05"/>
<line x1="1070.851626" y1="1007.813491" x2="1070.851626" y2="1028.171776" stroke="black" stroke-width="4.05"/>
<line x1="1070.851626" y1="1028.171776" x2="1110.575106" y2="1028.171776" stroke="black" stroke-width="4.05"/>
<line x1="1070.851626" y1="808.699558" x2="872.730778" y2="808.699558" stroke="black" stroke-width="4.05"/>
<line x1="1111.568191" y1="808.203013" x2="1111.568191" y2="787.844732" stroke="black" stroke-width="4.05"/>
<line x1="1111.568191" y1="787.844732" x2="1071.844715" y2="787.844732" stroke="black" stroke-width="4.05"/>
<line x1="1071.844715" y1="787.844732" x2="1071.844715" y2="808.203013" stroke="black" stroke-width="4.05"/>
<line x1="1071.844715" y1="808.203013" x2="1111.568191" y2="808.203013" stroke="black" stroke-width="4.05"/>
<path d="m 1072.341256,1007.813491 a 199.11393349999997,199.11393349999997 0 0 1 -199.11393399999997,-199.11393299999997" fill="none" stroke="black" stroke-width="4.05"/>
<line x1="913.136738" y1="247.05077" x2="1080.250153" y2="247.05077" stroke="black" stroke-width="4.05"/>
<line x1="1080.250153" y1="247.05077" x2="1080.250153" y2="414.506628" stroke="black" stroke-width="4.05"/>
<line x1="1080.250153" y1="414.506628" x2="913.136738" y2="414.506628" stroke="black" stroke-width="4.05"/>
<line x1="913.136738" y1="414.506628" x2="913.136738" y2="247.05077" stroke="black" stroke-width="4.05"/>
<line x1="912.794296" y1="246.708324" x2="1080.250153" y2="414.506628" stroke="black" stroke-width="4.05"/>
<line x1="913.136738" y1="414.164185" x2="1079.90771" y2="247.05077" stroke="black" stroke-width="4.05"/>
<line x1="378.524182" y1="148.215992" x2="205.182374" y2="265.136519" stroke="black" stroke-width="4.05"/>
<line x1="205.182374" y1="265.136519" x2="334.857866" y2="457.388341" stroke="black" stroke-width="4.05"/>
<line x1="334.857866" y1="457.388341" x2="508.199674" y2="340.467815" stroke="black" stroke-width="4.05"/>
<line x1="508.199674" y1="340.467815" x2="378.524182" y2="148.215992" stroke="black" stroke-width="4.05"/>
<line x1="396.593719" y1="175.005184" x2="223.251908" y2="291.925706" stroke="black" stroke-width="4.05"/>
<line x1="2030.64498" y1="397.576037" x2="1637.344134" y2="397.576037" stroke="black" stroke-width="4.05"/>
<line x1="1637.344134" y1="397.576037" x2="1637.344134" y2="572.73026" stroke="black" stroke-width="4.05"/>
<line x1="1637.344134" y1="572.73026" x2="2030.64498" y2="572.73026" stroke="black" stroke-width="4.05"/>
<line x1="2030.64498" y1="572.73026" x2="2030.64498" y2="397.576037" stroke="black" stroke-width="4.05"/>
<line x1="1712.978914" y1="545.660971" x2="1998.798761" y2="545.660971" stroke="black" stroke-width="4.05"/>
<line x1="1998.798761" y1="545.660971" x2="1998.798761" y2="427.033793" stroke="black" stroke-width="4.05"/>
<line x1="1998.798761" y1="427.033793" x2="1707.405826" y2="427.033793" stroke="black" stroke-width="4.05"/>
<path d="m 1713.793738,545.917738 a 63.69244535843305,63.69244535843305 0 0 1 -4.316343000000188,-120.00067999999999" fill="none" stroke="black" stroke-width="4.05"/>
<line x1="1132.995863" y1="600.926753" x2="1153.236467" y2="600.926753" stroke="black" stroke-width="4.05"/>
<line x1="1153.236467" y1="600.926753" x2="1153.236467" y2="561.432888" stroke="black" stroke-width="4.05"/>
<line x1="1153.236467" y1="561.432888" x2="1132.995863" y2="561.432888" stroke="black" stroke-width="4.05"/>
<line x1="1132.995863" y1="561.432888" x2="1132.995863" y2="600.926753" stroke="black" stroke-width="4.05"/>
<line x1="1351.199455" y1="561.432888" x2="1351.199455" y2="364.45725" stroke="black" stroke-width="4.05"/>
<line x1="1351.693127" y1="601.9141" x2="1371.933731" y2="601.9141" stroke="black" stroke-width="4.05"/>
<line x1="1371.933731" y1="601.9141" x2="1371.933731" y2="562.420235" stroke="black" stroke-width="4.05"/>
<line x1="1371.933731" y1="562.420235" x2="1351.693127" y2="562.420235" stroke="black" stroke-width="4.05"/>
<line x1="1351.693127" y1="562.420235" x2="1351.693127" y2="601.9141" stroke="black" stroke-width="4.05"/>
<path d="m 1153.236467,562.91391 a 197.962988,197.962988 0 0 1 197.962988,-197.962988" fill="none" stroke="black" stroke-width="4.05"/>
<line x1="1255.137728" y1="118.097759" x2="1525.684928" y2="118.097759" stroke="black" stroke-width="4.05"/>
<line x1="1525.684928" y1="118.097759" x2="1525.684928" y2="250.044959" stroke="black" stroke-width="4.05"/>
<line x1="1255.137728" y1="250.044959" x2="1525.684928" y2="250.044959" stroke="black" stroke-width="4.05"/>
<line x1="1255.137728" y1="118.097759" x2="1255.137728" y2="250.044959" stroke="black" stroke-width="4.05"/>
<line x1="1261.790528" y1="124.750559" x2="1399.836128" y2="124.750559" stroke="black" stroke-width="4.05"/>
<line x1="1399.836128" y1="124.750559" x2="1399.836128" y2="242.837759" stroke="black" stroke-width="4.05"/>
<line x1="1261.790528" y1="242.837759" x2="1399.836128" y2="242.837759" stroke="black" stroke-width="4.05"/>
<line x1="1261.790528" y1="124.750559" x2="1261.790528" y2="242.837759" stroke="black" stroke-width="4.05"/>
<line x1="1414.250528" y1="132.512159" x2="1511.270528" y2="132.512159" stroke="black" stroke-width="4.05"/>
<line x1="1414.250528" y1="153.024959" x2="1511.270528" y2="153.024959" stroke="black" stroke-width="4.05"/>
<line x1="1414.804928" y1="174.092159" x2="1511.824928" y2="174.092159" stroke="black" stroke-width="4.05"/>
<line x1="1414.804928" y1="194.604959" x2="1511.824928" y2="194.604959" stroke="black" stroke-width="4.05"/>
<line x1="1414.250528" y1="215.117759" x2="1511.270528" y2="215.117759" stroke="black" stroke-width="4.05"/>
<line x1="1414.250528" y1="235.630559" x2="1511.270528" y2="235.630559" stroke="black" stroke-width="4.05"/>
<line x1="1314.458528" y1="242.837759" x2="1314.458528" y2="228.977759" stroke="black" stroke-width="4.05"/>
<line x1="1314.458528" y1="228.977759" x2="1348.831328" y2="228.977759" stroke="black" stroke-width="4.05"/>
<line x1="1348.831328" y1="228.977759" x2="1348.831328" y2="242.283359" stroke="black" stroke-width="4.05"/>
<circle cx="1384.312928" cy="139.719359" r="8.316000000000003" fill="none" stroke="black" stroke-width="4.05"/>
<line x1="2034.234756" y1="166.642459" x2="1850.312599" y2="166.642459" stroke="black" stroke-width="4.05"/>
<line x1="1850.312599" y1="166.642459" x2="1850.312599" y2="117.490849" stroke="black" stroke-width="4.05"/>
<line x1="2034.234756" y1="117.490849" x2="1850.312599" y2="117.490849" stroke="black" stroke-width="4.05"/>
<line x1="2034.234756" y1="166.642459" x2="2034.234756" y2="117.490849" stroke="black" stroke-width="4.05"/>
<line x1="1992.61444" y1="194.389337" x2="1992.61444" y2="166.642459" stroke="black" stroke-width="4.05"/>
<line x1="1893.518453" y1="166.642459" x2="1893.518453" y2="195.974874" stroke="black" stroke-width="4.05"/>
<circle cx="1943.859215" cy="239.577106" r="66.59250380904014" fill="none" stroke="black" stroke-width="4.05"/>
<circle cx="1943.859215" cy="239.577106" r="57.07928897917725" fill="none" stroke="black" stroke-width="4.05"/>
<line x1="1395.085691" y1="798.896383" x2="1395.085691" y2="819.136987" stroke="black" stroke-width="4.05"/>
<line x1="1395.085691" y1="819.136987" x2="1434.579556" y2="819.136987" stroke="black" stroke-width="4.05"/>
<line x1="1434.579556" y1="819.136987" x2="1434.579556" y2="798.896383" stroke="black" stroke-width="4.05"/>
<line x1="1434.579556" y1="798.896383" x2="1395.085691" y2="798.896383" stroke="black" stroke-width="4.05"/>
<line x1="1434.579556" y1="1017.099976" x2="1631.555194" y2="1017.099976" stroke="black" stroke-width="4.05"/>
<line x1="1394.098344" y1="1017.593647" x2="1394.098344" y2="1037.834251" stroke="black" stroke-width="4.05"/>
<line x1="1394.098344" y1="1037.834251" x2="1433.592209" y2="1037.834251" stroke="black" stroke-width="4.05"/>
<line x1="1433.592209" y1="1037.834251" x2="1433.592209" y2="1017.593647" stroke="black" stroke-width="4.05"/>
<line x1="1433.592209" y1="1017.593647" x2="1394.098344" y2="1017.593647" stroke="black" stroke-width="4.05"/>
<path d="m 1433.098534,819.136987 a 197.9629885,197.9629885 0 0 1 197.962988,197.962989" fill="none" stroke="black" stroke-width="4.05"/>
<line x1="1687.148885" y1="1587.79035" x2="1404.569192" y2="1314.906314" stroke="black" stroke-width="4.05"/>
<line x1="1404.569192" y1="1314.906314" x2="1276.379712" y2="1447.650403" stroke="black" stroke-width="4.05"/>
<line x1="1276.379712" y1="1447.650403" x2="1558.959408" y2="1720.534439" stroke="black" stroke-width="4.05"/>
<line x1="1558.959408" y1="1720.534439" x2="1687.148885" y2="1587.79035" stroke="black" stroke-width="4.05"/>
<line x1="1444.446266" y1="1609.950388" x2="1388.328984" y2="1668.061534" stroke="black" stroke-width="4.05"/>
<line x1="1388.328984" y1="1668.061534" x2="1444.73098" y2="1722.528306" stroke="black" stroke-width="4.05"/>
<line x1="1444.73098" y1="1722.528306" x2="1500.848262" y2="1664.417156" stroke="black" stroke-width="4.05"/>
<line x1="1456.264991" y1="1709.444362" x2="1400.432713" y2="1655.527752" stroke="black" stroke-width="4.05"/>
<line x1="1685.705188" y1="1472.992207" x2="1629.303196" y2="1418.525431" stroke="black" stroke-width="4.05"/>
<line x1="1629.303196" y1="1418.525431" x2="1572.635743" y2="1477.206295" stroke="black" stroke-width="4.05"/>
<line x1="1629.037739" y1="1531.673071" x2="1685.705188" y2="1472.992207" stroke="black" stroke-width="4.05"/>
<line x1="1673.031744" y1="1484.975812" x2="1617.199466" y2="1431.059209" stroke="black" stroke-width="4.05"/>
<line x1="1335.630294" y1="1504.868026" x2="1279.513012" y2="1562.979172" stroke="black" stroke-width="4.05"/>
<line x1="1279.513012" y1="1562.979172" x2="1335.915011" y2="1617.445948" stroke="black" stroke-width="4.05"/>
<line x1="1335.915011" y1="1617.445948" x2="1392.03229" y2="1559.334798" stroke="black" stroke-width="4.05"/>
<line x1="1348.018736" y1="1604.912166" x2="1291.616741" y2="1550.445397" stroke="black" stroke-width="4.05"/>
<line x1="1576.889219" y1="1367.909845" x2="1520.487227" y2="1313.443069" stroke="black" stroke-width="4.05"/>
<line x1="1520.487227" y1="1313.443069" x2="1463.819771" y2="1372.123933" stroke="black" stroke-width="4.05"/>
<line x1="1520.221766" y1="1426.590709" x2="1576.889219" y2="1367.909845" stroke="black" stroke-width="4.05"/>
<line x1="1564.785493" y1="1380.44362" x2="1508.383498" y2="1325.976847" stroke="black" stroke-width="4.05"/>
<line x1="927.390082" y1="1270.405984" x2="927.390082" y2="1080.325984" stroke="black" stroke-width="4.05"/>
<line x1="927.390082" y1="1080.325984" x2="463.594882" y2="1080.325984" stroke="black" stroke-width="4.05"/>
<line x1="463.594882" y1="1080.325984" x2="463.594882" y2="1270.405984" stroke="black" stroke-width="4.05"/>
<line x1="463.594882" y1="1270.405984" x2="487.354882" y2="1270.405984" stroke="black" stroke-width="4.05"/>
<line x1="487.354882" y1="1270.405984" x2="487.354882" y2="1103.135584" stroke="black" stroke-width="4.05"/>
<line x1="487.354882" y1="1103.135584" x2="902.679682" y2="1103.135584" stroke="black" stroke-width="4.05"/>
<line x1="902.679682" y1="1103.135584" x2="902.679682" y2="1270.405984" stroke="black" stroke-width="4.05"/>
<line x1="902.679682" y1="1270.405984" x2="927.390082" y2="1270.405984" stroke="black" stroke-width="4.05"/>
<line x1="902.679682" y1="1264.703584" x2="487.354882" y2="1264.703584" stroke="black" stroke-width="4.05"/>
<line x1="695.492482" y1="1265.653984" x2="695.492482" y2="1104.085984" stroke="black" stroke-width="4.05"/>
<line x1="554.013868" y1="1399.3758" x2="696.125423" y2="1374.317698" stroke="black" stroke-width="4.05"/>
<line x1="696.125423" y1="1374.317698" x2="721.234872" y2="1516.720464" stroke="black" stroke-width="4.05"/>
<line x1="721.234872" y1="1516.720464" x2="579.123317" y2="1541.778563" stroke="black" stroke-width="4.05"/>
<line x1="579.123317" y1="1541.778563" x2="554.013868" y2="1399.3758" stroke="black" stroke-width="4.05"/>
<line x1="553.671306" y1="1399.135936" x2="721.234872" y2="1516.720464" stroke="black" stroke-width="4.05"/>
<line x1="579.07197" y1="1541.487352" x2="695.834208" y2="1374.369048" stroke="black" stroke-width="4.05"/>
<line x1="1799.832056" y1="1048.556923" x2="2008.920056" y2="1048.556923" stroke="black" stroke-width="4.05"/>
<line x1="2008.920056" y1="1048.556923" x2="2008.920056" y2="816.659323" stroke="black" stroke-width="4.05"/>
<line x1="2008.920056" y1="816.659323" x2="1799.832056" y2="816.659323" stroke="black" stroke-width="4.05"/>
<line x1="1799.832056" y1="816.659323" x2="1799.832056" y2="1048.556923" stroke="black" stroke-width="4.05"/>
<line x1="1799.832056" y1="1016.243323" x2="2008.920056" y2="1016.243323" stroke="black" stroke-width="4.05"/>
<line x1="1004.104678" y1="1712.603437" x2="1138.503848" y2="1552.432734" stroke="black" stroke-width="4.05"/>
<line x1="1138.503848" y1="1552.432734" x2="960.859984" y2="1403.371832" stroke="black" stroke-width="4.05"/>
<line x1="960.859984" y1="1403.371832" x2="826.460806" y2="1563.542532" stroke="black" stroke-width="4.05"/>
<line x1="826.460806" y1="1563.542532" x2="1004.104678" y2="1712.603437" stroke="black" stroke-width="4.05"/>
<line x1="979.35102" y1="1691.832654" x2="1113.750198" y2="1531.661954" stroke="black" stroke-width="4.05"/>
<line x1="1919.891822" y1="1959.471868" x2="1919.891822" y2="1688.924668" stroke="black" stroke-width="4.05"/>
<line x1="1919.891822" y1="1688.924668" x2="2051.839022" y2="1688.924668" stroke="black" stroke-width="4.05"/>
<line x1="2051.839022" y1="1959.471868" x2="2051.839022" y2="1688.924668" stroke="black" stroke-width="4.05"/>
<line x1="1919.891822" y1="1959.471868" x2="2051.839022" y2="1959.471868" stroke="black" stroke-width="4.05"/>
<line x1="1926.544622" y1="1952.819068" x2="1926.544622" y2="1814.773468" stroke="black" stroke-width="4.05"/>
<line x1="1926.544622" y1="1814.773468" x2="2044.631822" y2="1814.773468" stroke="black" stroke-width="4.05"/>
<line x1="2044.631822" y1="1952.819068" x2="2044.631822" y2="1814.773468" stroke="black" stroke-width="4.05"/>
<line x1="1926.544622" y1="1952.819068" x2="2044.631822" y2="1952.819068" stroke="black" stroke-width="4.05"/>
<line x1="1934.306222" y1="1800.359068" x2="1934.306222" y2="1703.339068" stroke="black" stroke-width="4.05"/>
<line x1="1954.819022" y1="1800.359068" x2="1954.819022" y2="1703.339068" stroke="black" stroke-width="4.05"/>
<line x1="1975.886222" y1="1799.804668" x2="1975.886222" y2="1702.784668" stroke="black" stroke-width="4.05"/>
<line x1="1996.399022" y1="1799.804668" x2="1996.399022" y2="1702.784668" stroke="black" stroke-width="4.05"/>
<line x1="2016.911822" y1="1800.359068" x2="2016.911822" y2="1703.339068" stroke="black" stroke-width="4.05"/>
<line x1="2037.424622" y1="1800.359068" x2="2037.424622" y2="1703.339068" stroke="black" stroke-width="4.05"/>
<line x1="2044.631822" y1="1900.151068" x2="2030.771822" y2="1900.151068" stroke="black" stroke-width="4.05"/>
<line x1="2030.771822" y1="1900.151068" x2="2030.771822" y2="1865.778268" stroke="black" stroke-width="4.05"/>
<line x1="2030.771822" y1="1865.778268" x2="2044.077422" y2="1865.778268" stroke="black" stroke-width="4.05"/>
<circle cx="1941.513422" cy="1830.296668" r="8.316000000000003" fill="none" stroke="black" stroke-width="4.05"/>
<line x1="1666.989774" y1="604.690222" x2="1833.081988" y2="604.690222" stroke="black" stroke-width="4.05"/>
<line x1="1833.081988" y1="604.690222" x2="1833.081988" y2="771.122786" stroke="black" stroke-width="4.05"/>
<line x1="1833.081988" y1="771.122786" x2="1666.989774" y2="771.122786" stroke="black" stroke-width="4.05"/>
<line x1="1666.989774" y1="771.122786" x2="1666.989774" y2="604.690222" stroke="black" stroke-width="4.05"/>
<line x1="1666.649423" y1="604.34987" x2="1833.081988" y2="771.122786" stroke="black" stroke-width="4.05"/>
<line x1="1666.989774" y1="770.782435" x2="1832.741633" y2="604.690222" stroke="black" stroke-width="4.05"/>
<line x1="1832.995789" y1="604.424074" x2="1999.088003" y2="604.424074" stroke="black" stroke-width="4.05"/>
<line x1="1999.088003" y1="604.424074" x2="1999.088003" y2="770.856638" stroke="black" stroke-width="4.05"/>
<line x1="1999.088003" y1="770.856638" x2="1832.995789" y2="770.856638" stroke="black" stroke-width="4.05"/>
<line x1="1832.995789" y1="770.856638" x2="1832.995789" y2="604.424074" stroke="black" stroke-width="4.05"/>
<line x1="1832.655438" y1="604.083722" x2="1999.088003" y2="770.856638" stroke="black" stroke-width="4.05"/>
<line x1="1832.995789" y1="770.516287" x2="1998.747648" y2="604.424074" stroke="black" stroke-width="4.05"/>
<line x1="1501.570829" y1="604.276909" x2="1667.663042" y2="604.276909" stroke="black" stroke-width="4.05"/>
<line x1="1667.663042" y1="604.276909" x2="1667.663042" y2="770.709474" stroke="black" stroke-width="4.05"/>
<line x1="1667.663042" y1="770.709474" x2="1501.570829" y2="770.709474" stroke="black" stroke-width="4.05"/>
<line x1="1501.570829" y1="770.709474" x2="1501.570829" y2="604.276909" stroke="black" stroke-width="4.05"/>
<line x1="1501.230478" y1="603.936558" x2="1667.663042" y2="770.709474" stroke="black" stroke-width="4.05"/>
<line x1="1501.570829" y1="770.369123" x2="1667.322688" y2="604.276909" stroke="black" stroke-width="4.05"/>
<line x1="1886.55296" y1="1077.238843" x2="2052.645174" y2="1077.238843" stroke="black" stroke-width="4.05"/>
<line x1="2052.645174" y1="1077.238843" x2="2052.645174" y2="1243.671408" stroke="black" stroke-width="4.05"/>
<line x1="2052.645174" y1="1243.671408" x2="1886.55296" y2="1243.671408" stroke="black" stroke-width="4.05"/>
<line x1="1886.55296" y1="1243.671408" x2="1886.55296" y2="1077.238843" stroke="black" stroke-width="4.05"/>
<line x1="1886.212609" y1="1076.898492" x2="2052.645174" y2="1243.671408" stroke="black" stroke-width="4.05"/>
<line x1="1886.55296" y1="1243.331057" x2="2052.304819" y2="1077.238843" stroke="black" stroke-width="4.05"/>
<line x1="1915.896632" y1="1644.870398" x2="1915.896632" y2="1251.626526" stroke="black" stroke-width="4.05"/>
<line x1="1914.90035" y1="1247.67112" x2="2050.969126" y2="1247.67112" stroke="black" stroke-width="4.05"/>
<line x1="2052.120632" y1="1644.406009" x2="2052.120632" y2="1247.365778" stroke="black" stroke-width="4.05"/>
<line x1="1916.591382" y1="1643.67112" x2="2051.855438" y2="1643.67112" stroke="black" stroke-width="4.05"/>
<line x1="1926.984632" y1="1633.37512" x2="1926.984632" y2="1509.82312" stroke="black" stroke-width="4.05"/>
<line x1="1926.984632" y1="1509.82312" x2="2041.032632" y2="1509.82312" stroke="black" stroke-width="4.05"/>
<line x1="2041.032632" y1="1633.37512" x2="2041.032632" y2="1509.82312" stroke="black" stroke-width="4.05"/>
<line x1="1926.984632" y1="1633.37512" x2="2041.032632" y2="1633.37512" stroke="black" stroke-width="4.05"/>
<line x1="1934.112632" y1="1490.81512" x2="1934.112632" y2="1403.69512" stroke="black" stroke-width="4.05"/>
<line x1="1953.912632" y1="1490.81512" x2="1953.912632" y2="1403.69512" stroke="black" stroke-width="4.05"/>
<line x1="1974.504632" y1="1490.02312" x2="1974.504632" y2="1403.69512" stroke="black" stroke-width="4.05"/>
<line x1="1994.304632" y1="1490.02312" x2="1994.304632" y2="1403.69512" stroke="black" stroke-width="4.05"/>
<line x1="2014.104632" y1="1490.81512" x2="2014.104632" y2="1403.69512" stroke="black" stroke-width="4.05"/>
<line x1="2033.904632" y1="1490.81512" x2="2033.904632" y2="1403.69512" stroke="black" stroke-width="4.05"/>
<line x1="2040.240632" y1="1585.85512" x2="2026.776632" y2="1585.85512" stroke="black" stroke-width="4.05"/>
<line x1="2026.776632" y1="1585.85512" x2="2026.776632" y2="1555.75912" stroke="black" stroke-width="4.05"/>
<line x1="2026.776632" y1="1555.75912" x2="2039.448632" y2="1555.75912" stroke="black" stroke-width="4.05"/>
<line x1="1926.984632" y1="1383.10312" x2="1926.984632" y2="1259.55112" stroke="black" stroke-width="4.05"/>
<line x1="1926.984632" y1="1259.55112" x2="2041.032632" y2="1259.55112" stroke="black" stroke-width="4.05"/>
<line x1="2041.032632" y1="1383.10312" x2="2041.032632" y2="1259.55112" stroke="black" stroke-width="4.05"/>
<line x1="1926.984632" y1="1383.10312" x2="2041.032632" y2="1383.10312" stroke="black" stroke-width="4.05"/>
<line x1="2041.032632" y1="1335.58312" x2="2027.568632" y2="1335.58312" stroke="black" stroke-width="4.05"/>
<line x1="2027.568632" y1="1335.58312" x2="2027.568632" y2="1305.48712" stroke="black" stroke-width="4.05"/>
<line x1="2027.568632" y1="1305.48712" x2="2040.240632" y2="1305.48712" stroke="black" stroke-width="4.05"/>
<circle cx="1941.240632" cy="1524.07912" r="7.128000000000001" fill="none" stroke="black" stroke-width="4.05"/>
<circle cx="1942.032632" cy="1273.80712" r="7.128000000000001" fill="none" stroke="black" stroke-width="4.05"/>
</g>
</svg>
