<?xml version="1.0"?>
<svg xmlns:xlink="http://www.w3.org/1999/xlink" width="2352.24" height="2506.68">
<image x="0" y="0" width="2352.24" height="2506.68" xlink:href="groundempty-03.png"/>
<g style="stroke-linecap:round">
<line x1="97.870362" y1="1211.87798" x2="97.870362" y2="936.036621" stroke="black" stroke-width="3.9204"/>
<line x1="97.870362" y1="936.036621" x2="55.34715" y2="936.036621" stroke="black" stroke-width="3.9204"/>
<line x1="55.34715" y1="936.036621" x2="55.34715" y2="1211.87798" stroke="black" stroke-width="3.9204"/>
<line x1="55.34715" y1="1211.87798" x2="97.870362" y2="1211.87798" stroke="black" stroke-width="3.9204"/>
<line x1="55.906666" y1="1186.140249" x2="97.310846" y2="1186.140249" stroke="black" stroke-width="3.9204"/>
<line x1="55.906666" y1="962.333872" x2="98.989395" y2="962.333872" stroke="black" stroke-width="3.9204"/>
<line x1="75.489726" y1="1186.699766" x2="75.489726" y2="962.893388" stroke="black" stroke-width="3.9204"/>
<line x1="2247.440204" y1="865.889988" x2="2247.440204" y2="1117.978345" stroke="black" stroke-width="3.9204"/>
<line x1="2247.440204" y1="1117.978345" x2="2286.301695" y2="1117.978345" stroke="black" stroke-width="3.9204"/>
<line x1="2286.301695" y1="1117.978345" x2="2286.301695" y2="865.889988" stroke="black" stroke-width="3.9204"/>
<line x1="2286.301695" y1="865.889988" x2="2247.440204" y2="865.889988" stroke="black" stroke-width="3.9204"/>
<line x1="2285.79036" y1="889.411418" x2="2247.951539" y2="889.411418" stroke="black" stroke-width="3.9204"/>
<line x1="2285.79036" y1="1093.945581" x2="2246.417534" y2="1093.945581" stroke="black" stroke-width="3.9204"/>
<line x1="2267.89362" y1="888.900083" x2="2267.89362" y2="1093.434246" stroke="black" stroke-width="3.9204"/>
<line x1="1161.502381" y1="1542.083578" x2="1181.935902" y2="1542.083578" stroke="black" stroke-width="3.9204"/>
<line x1="1181.935902" y1="1542.083578" x2="1181.935902" y2="1502.213292" stroke="black" stroke-width="3.9204"/>
<line x1="1181.935902" y1="1502.213292" x2="1161.502381" y2="1502.213292" stroke="black" stroke-width="3.9204"/>
<line x1="1161.502381" y1="1502.213292" x2="1161.502381" y2="1542.083578" stroke="black" stroke-width="3.9204"/>
<line x1="1381.785701" y1="1502.213292" x2="1381.785701" y2="1303.360245" stroke="black" stroke-width="3.9204"/>
<line x1="1382.284083" y1="1543.080334" x2="1402.717603" y2="1543.080334" stroke="black" stroke-width="3.9204"/>
<line x1="1402.717603" y1="1543.080334" x2="1402.717603" y2="1503.210048" stroke="black" stroke-width="3.9204"/>
<line x1="1402.717603" y1="1503.210048" x2="1382.284083" y2="1503.210048" stroke="black" stroke-width="3.9204"/>
<line x1="1382.284083" y1="1503.210048" x2="1382.284083" y2="1543.080334" stroke="black" stroke-width="3.9204"/>
<path d="m 1181.935902,1503.708426 a 199.84979899999996,199.84979899999996 0 0 1 199.84979900000008,-199.84979899999985" fill="none" stroke="black" stroke-width="3.9204"/>
<line x1="1474.645222" y1="911.202966" x2="1474.645222" y2="929.755304" stroke="black" stroke-width="3.9204"/>
<line x1="1474.645222" y1="929.755304" x2="1510.844908" y2="929.755304" stroke="black" stroke-width="3.9204"/>
<line x1="1510.844908" y1="929.755304" x2="1510.844908" y2="911.202966" stroke="black" stroke-width="3.9204"/>
<line x1="1510.844908" y1="911.202966" x2="1474.645222" y2="911.202966" stroke="black" stroke-width="3.9204"/>
<line x1="1510.844908" y1="1111.206235" x2="1691.390848" y2="1111.206235" stroke="black" stroke-width="3.9204"/>
<line x1="1473.740227" y1="1111.658732" x2="1473.740227" y2="1130.211071" stroke="black" stroke-width="3.9204"/>
<line x1="1473.740227" y1="1130.211071" x2="1509.939918" y2="1130.211071" stroke="black" stroke-width="3.9204"/>
<line x1="1509.939918" y1="1130.211071" x2="1509.939918" y2="1111.658732" stroke="black" stroke-width="3.9204"/>
<line x1="1509.939918" y1="1111.658732" x2="1473.740227" y2="1111.658732" stroke="black" stroke-width="3.9204"/>
<path d="m 1509.48742,929.755304 a 181.45093100000008,181.45093100000008 0 0 1 181.45093100000008,181.45093100000008" fill="none" stroke="black" stroke-width="3.9204"/>
<line x1="1643.872705" y1="316.784695" x2="1643.872705" y2="710.028566" stroke="black" stroke-width="3.9204"/>
<line x1="1644.868986" y1="713.983973" x2="1508.80021" y2="713.983973" stroke="black" stroke-width="3.9204"/>
<line x1="1507.648705" y1="317.249084" x2="1507.648705" y2="714.289312" stroke="black" stroke-width="3.9204"/>
<line x1="1643.177955" y1="317.983973" x2="1507.913898" y2="317.983973" stroke="black" stroke-width="3.9204"/>
<line x1="1632.784705" y1="328.279973" x2="1632.784705" y2="451.831973" stroke="black" stroke-width="3.9204"/>
<line x1="1632.784705" y1="451.831973" x2="1518.736705" y2="451.831973" stroke="black" stroke-width="3.9204"/>
<line x1="1518.736705" y1="328.279973" x2="1518.736705" y2="451.831973" stroke="black" stroke-width="3.9204"/>
<line x1="1632.784705" y1="328.279973" x2="1518.736705" y2="328.279973" stroke="black" stroke-width="3.9204"/>
<line x1="1625.656705" y1="470.839973" x2="1625.656705" y2="557.959973" stroke="black" stroke-width="3.9204"/>
<line x1="1605.856705" y1="470.839973" x2="1605.856705" y2="557.959973" stroke="black" stroke-width="3.9204"/>
<line x1="1585.264705" y1="471.631973" x2="1585.264705" y2="557.959973" stroke="black" stroke-width="3.9204"/>
<line x1="1565.464705" y1="471.631973" x2="1565.464705" y2="557.959973" stroke="black" stroke-width="3.9204"/>
<line x1="1545.664705" y1="470.839973" x2="1545.664705" y2="557.959973" stroke="black" stroke-width="3.9204"/>
<line x1="1525.864705" y1="470.839973" x2="1525.864705" y2="557.959973" stroke="black" stroke-width="3.9204"/>
<line x1="1519.528705" y1="375.799973" x2="1532.992705" y2="375.799973" stroke="black" stroke-width="3.9204"/>
<line x1="1532.992705" y1="375.799973" x2="1532.992705" y2="405.895973" stroke="black" stroke-width="3.9204"/>
<line x1="1532.992705" y1="405.895973" x2="1520.320705" y2="405.895973" stroke="black" stroke-width="3.9204"/>
<line x1="1632.784705" y1="578.551973" x2="1632.784705" y2="702.103973" stroke="black" stroke-width="3.9204"/>
<line x1="1632.784705" y1="702.103973" x2="1518.736705" y2="702.103973" stroke="black" stroke-width="3.9204"/>
<line x1="1518.736705" y1="578.551973" x2="1518.736705" y2="702.103973" stroke="black" stroke-width="3.9204"/>
<line x1="1632.784705" y1="578.551973" x2="1518.736705" y2="578.551973" stroke="black" stroke-width="3.9204"/>
<line x1="1518.736705" y1="626.071973" x2="1532.200705" y2="626.071973" stroke="black" stroke-width="3.9204"/>
<line x1="1532.200705" y1="626.071973" x2="1532.200705" y2="656.167973" stroke="black" stroke-width="3.9204"/>
<line x1="1532.200705" y1="656.167973" x2="1519.528705" y2="656.167973" stroke="black" stroke-width="3.9204"/>
<circle cx="1618.528705" cy="437.575973" r="7.128" fill="none" stroke="black" stroke-width="3.9204"/>
<circle cx="1617.736705" cy="687.847973" r="7.128" fill="none" stroke="black" stroke-width="3.9204"/>
<line x1="1191.95425" y1="774.161562" x2="1173.272174" y2="774.161562" stroke="black" stroke-width="3.920396"/>
<line x1="1173.272174" y1="774.161562" x2="1173.272174" y2="810.614396" stroke="black" stroke-width="3.920396"/>
<line x1="1173.272174" y1="810.614396" x2="1191.95425" y2="810.614396" stroke="black" stroke-width="3.920396"/>
<line x1="1191.95425" y1="810.614396" x2="1191.95425" y2="774.161562" stroke="black" stroke-width="3.920396"/>
<line x1="990.552357" y1="810.614396" x2="990.552357" y2="992.422894" stroke="black" stroke-width="3.920396"/>
<line x1="990.096695" y1="773.250243" x2="971.414619" y2="773.250243" stroke="black" stroke-width="3.920396"/>
<line x1="971.414619" y1="773.250243" x2="971.414619" y2="809.703073" stroke="black" stroke-width="3.920396"/>
<line x1="971.414619" y1="809.703073" x2="990.096695" y2="809.703073" stroke="black" stroke-width="3.920396"/>
<line x1="990.096695" y1="809.703073" x2="990.096695" y2="773.250243" stroke="black" stroke-width="3.920396"/>
<path d="m 1173.272174,809.247412 a 182.71981899999992,182.71981899999992 0 0 1 -182.71981699999992,182.7198209999999" fill="none" stroke="black" stroke-width="3.920396"/>
<line x1="1789.386307" y1="235.945773" x2="1941.975617" y2="235.945773" stroke="black" stroke-width="3.9204"/>
<line x1="1941.975617" y1="235.945773" x2="1941.975617" y2="388.847765" stroke="black" stroke-width="3.9204"/>
<line x1="1941.975617" y1="388.847765" x2="1789.386307" y2="388.847765" stroke="black" stroke-width="3.9204"/>
<line x1="1789.386307" y1="388.847765" x2="1789.386307" y2="235.945773" stroke="black" stroke-width="3.9204"/>
<line x1="1789.073625" y1="235.633092" x2="1941.975617" y2="388.847765" stroke="black" stroke-width="3.9204"/>
<line x1="1789.386307" y1="388.535083" x2="1941.662931" y2="235.945773" stroke="black" stroke-width="3.9204"/>
<line x1="1246.017857" y1="379.392726" x2="1062.273857" y2="379.392726" stroke="black" stroke-width="3.9204"/>
<line x1="1062.273857" y1="379.392726" x2="1062.273857" y2="330.288726" stroke="black" stroke-width="3.9204"/>
<line x1="1246.017857" y1="330.288726" x2="1062.273857" y2="330.288726" stroke="black" stroke-width="3.9204"/>
<line x1="1246.017857" y1="379.392726" x2="1246.017857" y2="330.288726" stroke="black" stroke-width="3.9204"/>
<line x1="1204.437857" y1="407.112726" x2="1204.437857" y2="379.392726" stroke="black" stroke-width="3.9204"/>
<line x1="1105.437857" y1="379.392726" x2="1105.437857" y2="408.696726" stroke="black" stroke-width="3.9204"/>
<circle cx="1155.729857" cy="452.256726" r="66.528" fill="none" stroke="black" stroke-width="3.9204"/>
<circle cx="1155.729857" cy="452.256726" r="57.024" fill="none" stroke="black" stroke-width="3.9204"/>
<line x1="960.909353" y1="534.445338" x2="936.357353" y2="553.057338" stroke="black" stroke-width="3.9204"/>
<line x1="936.357353" y1="553.057338" x2="936.357353" y2="700.369338" stroke="black" stroke-width="3.9204"/>
<line x1="936.357353" y1="700.369338" x2="964.473353" y2="719.377338" stroke="black" stroke-width="3.9204"/>
<line x1="963.681353" y1="556.225338" x2="963.681353" y2="699.181338" stroke="black" stroke-width="3.9204"/>
<circle cx="985.461353" cy="625.525338" r="13.068000000000001" fill="none" stroke="black" stroke-width="3.9204"/>
<path d="m 963.014006,557.778589 a 74.84400060548079,74.84400060548079 0 1 1 0.4020470000000387,139.60900400000003" fill="none" stroke="black" stroke-width="3.9204"/>
<path d="m 960.251989,534.491639 a 95.4359995551865,95.4359995551865 0 1 1 3.074960000000033,184.466997" fill="none" stroke="black" stroke-width="3.9204"/>
<line x1="1299.109977" y1="330.846401" x2="1299.109977" y2="722.094401" stroke="black" stroke-width="3.9204"/>
<line x1="1299.109977" y1="722.094401" x2="1473.349977" y2="722.094401" stroke="black" stroke-width="3.9204"/>
<line x1="1473.349977" y1="722.094401" x2="1473.349977" y2="330.846401" stroke="black" stroke-width="3.9204"/>
<line x1="1473.349977" y1="330.846401" x2="1299.109977" y2="330.846401" stroke="black" stroke-width="3.9204"/>
<line x1="1446.421977" y1="646.854401" x2="1446.421977" y2="362.526401" stroke="black" stroke-width="3.9204"/>
<line x1="1446.421977" y1="362.526401" x2="1328.413977" y2="362.526401" stroke="black" stroke-width="3.9204"/>
<line x1="1328.413977" y1="362.526401" x2="1328.413977" y2="652.398401" stroke="black" stroke-width="3.9204"/>
<path d="m 1446.677401,646.043829 a 63.359999516600396,63.359999516600396 0 0 1 -119.37433099999998,4.293812000000003" fill="none" stroke="black" stroke-width="3.9204"/>
<line x1="1573.557991" y1="1914.454238" x2="1573.557991" y2="2104.534238" stroke="black" stroke-width="3.9204"/>
<line x1="1573.557991" y1="2104.534238" x2="2037.353191" y2="2104.534238" stroke="black" stroke-width="3.9204"/>
<line x1="2037.353191" y1="2104.534238" x2="2037.353191" y2="1914.454238" stroke="black" stroke-width="3.9204"/>
<line x1="2037.353191" y1="1914.454238" x2="2013.593191" y2="1914.454238" stroke="black" stroke-width="3.9204"/>
<line x1="2013.593191" y1="1914.454238" x2="2013.593191" y2="2081.724638" stroke="black" stroke-width="3.9204"/>
<line x1="2013.593191" y1="2081.724638" x2="1598.268391" y2="2081.724638" stroke="black" stroke-width="3.9204"/>
<line x1="1598.268391" y1="2081.724638" x2="1598.268391" y2="1914.454238" stroke="black" stroke-width="3.9204"/>
<line x1="1598.268391" y1="1914.454238" x2="1573.557991" y2="1914.454238" stroke="black" stroke-width="3.9204"/>
<line x1="1598.268391" y1="1920.156638" x2="2013.593191" y2="1920.156638" stroke="black" stroke-width="3.9204"/>
<line x1="1805.455591" y1="1919.206238" x2="1805.455591" y2="2080.774238" stroke="black" stroke-width="3.9204"/>
<line x1="927.659605" y1="1215.759996" x2="927.659605" y2="1196.116911" stroke="black" stroke-width="3.9204"/>
<line x1="927.659605" y1="1196.116911" x2="889.331632" y2="1196.116911" stroke="black" stroke-width="3.9204"/>
<line x1="889.331632" y1="1196.116911" x2="889.331632" y2="1215.759996" stroke="black" stroke-width="3.9204"/>
<line x1="889.331632" y1="1215.759996" x2="927.659605" y2="1215.759996" stroke="black" stroke-width="3.9204"/>
<line x1="889.331632" y1="1003.997951" x2="698.170873" y2="1003.997951" stroke="black" stroke-width="3.9204"/>
<line x1="928.617806" y1="1003.518854" x2="928.617806" y2="983.875769" stroke="black" stroke-width="3.9204"/>
<line x1="928.617806" y1="983.875769" x2="890.289833" y2="983.875769" stroke="black" stroke-width="3.9204"/>
<line x1="890.289833" y1="983.875769" x2="890.289833" y2="1003.518854" stroke="black" stroke-width="3.9204"/>
<line x1="890.289833" y1="1003.518854" x2="928.617806" y2="1003.518854" stroke="black" stroke-width="3.9204"/>
<path d="m 890.768934,1196.116911 a 192.11896000000002,192.11896000000002 0 0 1 -192.1189599999999,-192.11896000000013" fill="none" stroke="black" stroke-width="3.9204"/>
<line x1="924.972773" y1="1470.753322" x2="924.972773" y2="1451.746906" stroke="black" stroke-width="3.9204"/>
<line x1="924.972773" y1="1451.746906" x2="887.88708" y2="1451.746906" stroke="black" stroke-width="3.9204"/>
<line x1="887.88708" y1="1451.746906" x2="887.88708" y2="1470.753322" stroke="black" stroke-width="3.9204"/>
<line x1="887.88708" y1="1470.753322" x2="924.972773" y2="1470.753322" stroke="black" stroke-width="3.9204"/>
<line x1="887.88708" y1="1265.854867" x2="702.922184" y2="1265.854867" stroke="black" stroke-width="3.9204"/>
<line x1="925.899916" y1="1265.391294" x2="925.899916" y2="1246.384878" stroke="black" stroke-width="3.9204"/>
<line x1="925.899916" y1="1246.384878" x2="888.814223" y2="1246.384878" stroke="black" stroke-width="3.9204"/>
<line x1="888.814223" y1="1246.384878" x2="888.814223" y2="1265.391294" stroke="black" stroke-width="3.9204"/>
<line x1="888.814223" y1="1265.391294" x2="925.899916" y2="1265.391294" stroke="black" stroke-width="3.9204"/>
<path d="m 889.277792,1451.746906 a 185.892039,185.892039 0 0 1 -185.89203899999995,-185.89203900000007" fill="none" stroke="black" stroke-width="3.9204"/>
<line x1="530.210657" y1="680.74424" x2="530.210657" y2="471.37904" stroke="black" stroke-width="3.9204"/>
<line x1="530.210657" y1="471.37904" x2="198.996257" y2="471.37904" stroke="black" stroke-width="3.9204"/>
<line x1="198.996257" y1="471.37904" x2="198.996257" y2="680.74424" stroke="black" stroke-width="3.9204"/>
<line x1="198.996257" y1="680.74424" x2="530.210657" y2="680.74424" stroke="black" stroke-width="3.9204"/>
<line x1="258.237857" y1="681.41744" x2="258.237857" y2="470.70584" stroke="black" stroke-width="3.9204"/>
<line x1="258.237857" y1="470.70584" x2="308.054657" y2="680.07104" stroke="black" stroke-width="3.9204"/>
<line x1="308.054657" y1="680.07104" x2="354.505457" y2="648.43064" stroke="black" stroke-width="3.9204"/>
<line x1="354.505457" y1="648.43064" x2="257.564657" y2="470.70584" stroke="black" stroke-width="3.9204"/>
<line x1="1868.762103" y1="646.55615" x2="1790.927571" y2="1012.738839" stroke="black" stroke-width="3.9204"/>
<line x1="1790.927571" y1="1012.738839" x2="1962.944842" y2="1049.302239" stroke="black" stroke-width="3.9204"/>
<line x1="1962.944842" y1="1049.302239" x2="2040.779375" y2="683.119551" stroke="black" stroke-width="3.9204"/>
<line x1="2040.779375" y1="683.119551" x2="1868.762103" y2="646.55615" stroke="black" stroke-width="3.9204"/>
<line x1="2009.237559" y1="831.512136" x2="2084.541256" y2="847.518428" stroke="black" stroke-width="3.9204"/>
<line x1="2084.541256" y1="847.518428" x2="2100.076779" y2="774.429547" stroke="black" stroke-width="3.9204"/>
<line x1="2100.076779" y1="774.429547" x2="2024.773083" y2="758.423247" stroke="black" stroke-width="3.9204"/>
<line x1="2083.677881" y1="771.715478" x2="2068.299284" y2="844.066092" stroke="black" stroke-width="3.9204"/>
<line x1="1776.71384" y1="705.696631" x2="1761.178316" y2="778.785512" stroke="black" stroke-width="3.9204"/>
<line x1="1761.178316" y1="778.785512" x2="1837.220287" y2="794.948735" stroke="black" stroke-width="3.9204"/>
<line x1="1852.755807" y1="721.85985" x2="1776.71384" y2="705.696631" stroke="black" stroke-width="3.9204"/>
<line x1="1792.798888" y1="709.887242" x2="1777.420292" y2="782.237856" stroke="black" stroke-width="3.9204"/>
<line x1="1979.264988" y1="972.521997" x2="2054.568685" y2="988.528294" stroke="black" stroke-width="3.9204"/>
<line x1="2054.568685" y1="988.528294" x2="2070.104205" y2="915.439409" stroke="black" stroke-width="3.9204"/>
<line x1="2070.104205" y1="915.439409" x2="1994.800508" y2="899.433117" stroke="black" stroke-width="3.9204"/>
<line x1="2053.862233" y1="911.987073" x2="2038.326709" y2="985.075954" stroke="black" stroke-width="3.9204"/>
<line x1="1746.741265" y1="846.706497" x2="1731.205745" y2="919.795382" stroke="black" stroke-width="3.9204"/>
<line x1="1731.205745" y1="919.795382" x2="1807.247713" y2="935.958597" stroke="black" stroke-width="3.9204"/>
<line x1="1822.783236" y1="862.869716" x2="1746.741265" y2="846.706497" stroke="black" stroke-width="3.9204"/>
<line x1="1762.983244" y1="850.158833" x2="1747.447721" y2="923.247717" stroke="black" stroke-width="3.9204"/>
<line x1="2139.715655" y1="1488.014799" x2="1968.440792" y2="1368.086849" stroke="black" stroke-width="3.9204"/>
<line x1="1968.440792" y1="1368.086849" x2="1835.429793" y2="1558.046243" stroke="black" stroke-width="3.9204"/>
<line x1="1835.429793" y1="1558.046243" x2="2006.704656" y2="1677.974194" stroke="black" stroke-width="3.9204"/>
<line x1="2006.704656" y1="1677.974194" x2="2139.715655" y2="1488.014799" stroke="black" stroke-width="3.9204"/>
<line x1="2121.181334" y1="1514.484552" x2="1949.906471" y2="1394.556602" stroke="black" stroke-width="3.9204"/>
<line x1="1631.03545" y1="1532.099646" x2="1459.760588" y2="1652.027597" stroke="black" stroke-width="3.9204"/>
<line x1="1459.760588" y1="1652.027597" x2="1592.771586" y2="1841.986991" stroke="black" stroke-width="3.9204"/>
<line x1="1592.771586" y1="1841.986991" x2="1764.046449" y2="1722.05904" stroke="black" stroke-width="3.9204"/>
<line x1="1764.046449" y1="1722.05904" x2="1631.03545" y2="1532.099646" stroke="black" stroke-width="3.9204"/>
<line x1="1649.569771" y1="1558.569399" x2="1478.294908" y2="1678.497349" stroke="black" stroke-width="3.9204"/>
<line x1="901.134547" y1="394.871954" x2="828.047246" y2="238.135733" stroke="black" stroke-width="3.9204"/>
<line x1="828.047246" y1="238.135733" x2="654.212525" y2="319.196196" stroke="black" stroke-width="3.9204"/>
<line x1="654.212525" y1="319.196196" x2="727.299825" y2="475.932418" stroke="black" stroke-width="3.9204"/>
<line x1="727.299825" y1="475.932418" x2="901.134547" y2="394.871954" stroke="black" stroke-width="3.9204"/>
<line x1="876.911674" y1="406.167264" x2="803.824374" y2="249.431043" stroke="black" stroke-width="3.9204"/>
<line x1="628.031666" y1="104.836553" x2="761.547311" y2="104.836553" stroke="black" stroke-width="3.9204"/>
<line x1="761.547311" y1="104.836553" x2="761.547311" y2="238.625794" stroke="black" stroke-width="3.9204"/>
<line x1="761.547311" y1="238.625794" x2="628.031666" y2="238.625794" stroke="black" stroke-width="3.9204"/>
<line x1="628.031666" y1="238.625794" x2="628.031666" y2="104.836553" stroke="black" stroke-width="3.9204"/>
<line x1="627.758069" y1="104.562957" x2="761.547311" y2="238.625794" stroke="black" stroke-width="3.9204"/>
<line x1="628.031666" y1="238.352198" x2="761.273715" y2="104.836553" stroke="black" stroke-width="3.9204"/>
<line x1="200.015256" y1="1874.22844" x2="428.899217" y2="1874.22844" stroke="black" stroke-width="3.9204"/>
<line x1="428.899217" y1="1874.22844" x2="428.899217" y2="2103.581423" stroke="black" stroke-width="3.9204"/>
<line x1="428.899217" y1="2103.581423" x2="200.015256" y2="2103.581423" stroke="black" stroke-width="3.9204"/>
<line x1="200.015256" y1="2103.581423" x2="200.015256" y2="1874.22844" stroke="black" stroke-width="3.9204"/>
<line x1="199.546233" y1="1873.759413" x2="428.899217" y2="2103.581423" stroke="black" stroke-width="3.9204"/>
<line x1="200.015256" y1="2103.1124" x2="428.430194" y2="1874.22844" stroke="black" stroke-width="3.9204"/>
<line x1="356.725164" y1="1621.39274" x2="199.988942" y2="1694.48004" stroke="black" stroke-width="3.9204"/>
<line x1="199.988942" y1="1694.48004" x2="281.049405" y2="1868.314762" stroke="black" stroke-width="3.9204"/>
<line x1="281.049405" y1="1868.314762" x2="437.785627" y2="1795.227461" stroke="black" stroke-width="3.9204"/>
<line x1="437.785627" y1="1795.227461" x2="356.725164" y2="1621.39274" stroke="black" stroke-width="3.9204"/>
<line x1="368.020473" y1="1645.615612" x2="211.284252" y2="1718.702913" stroke="black" stroke-width="3.9204"/>
</g>
</svg>
