<?xml version="1.0"?>
<svg xmlns:xlink="http://www.w3.org/1999/xlink" width="2352.24" height="2506.68">
<image x="0" y="0" width="2352.24" height="2506.68" xlink:href="groundempty-03.png"/>
<g style="stroke-linecap:round">
<line x1="104.681368" y1="1211.868856" x2="104.681368" y2="936.045741" stroke="black" stroke-width="3.9204"/>
<line x1="104.681368" y1="936.045741" x2="55.347154" y2="936.045741" stroke="black" stroke-width="3.9204"/>
<line x1="55.347154" y1="936.045741" x2="55.347154" y2="1211.868856" stroke="black" stroke-width="3.9204"/>
<line x1="55.347154" y1="1211.868856" x2="104.681368" y2="1211.868856" stroke="black" stroke-width="3.9204"/>
<line x1="104.681368" y1="1198.974685" x2="121.499853" y2="1198.974685" stroke="black" stroke-width="3.9204"/>
<line x1="121.499853" y1="1198.974685" x2="121.499853" y2="949.500526" stroke="black" stroke-width="3.9204"/>
<line x1="104.681368" y1="949.500526" x2="121.499853" y2="949.500526" stroke="black" stroke-width="3.9204"/>
<line x1="2241.215706" y1="865.898328" x2="2241.215706" y2="1117.97001" stroke="black" stroke-width="3.9204"/>
<line x1="2241.215706" y1="1117.97001" x2="2286.301695" y2="1117.97001" stroke="black" stroke-width="3.9204"/>
<line x1="2286.301695" y1="1117.97001" x2="2286.301695" y2="865.898328" stroke="black" stroke-width="3.9204"/>
<line x1="2286.301695" y1="865.898328" x2="2241.215706" y2="865.898328" stroke="black" stroke-width="3.9204"/>
<line x1="2241.215706" y1="877.682168" x2="2225.84548" y2="877.682168" stroke="black" stroke-width="3.9204"/>
<line x1="2225.84548" y1="877.682168" x2="2225.84548" y2="1105.673829" stroke="black" stroke-width="3.9204"/>
<line x1="2241.215706" y1="1105.673829" x2="2225.84548" y2="1105.673829" stroke="black" stroke-width="3.9204"/>
<line x1="1161.502381" y1="1542.083578" x2="1181.935902" y2="1542.083578" stroke="black" stroke-width="3.9204"/>
<line x1="1181.935902" y1="1542.083578" x2="1181.935902" y2="1502.213292" stroke="black" stroke-width="3.9204"/>
<line x1="1181.935902" y1="1502.213292" x2="1161.502381" y2="1502.213292" stroke="black" stroke-width="3.9204"/>
<line x1="1161.502381" y1="1502.213292" x2="1161.502381" y2="1542.083578" stroke="black" stroke-width="3.9204"/>
<line x1="1381.785701" y1="1502.213292" x2="1381.785701" y2="1303.360245" stroke="black" stroke-width="3.9204"/>
<line x1="1382.284083" y1="1543.080334" x2="1402.717603" y2="1543.080334" stroke="black" stroke-width="3.9204"/>
<line x1="1402.717603" y1="1543.080334" x2="1402.717603" y2="1503.210048" stroke="black" stroke-width="3.9204"/>
<line x1="1402.717603" y1="1503.210048" x2="1382.284083" y2="1503.210048" stroke="black" stroke-width="3.9204"/>
<line x1="1382.284083" y1="1503.210048" x2="1382.284083" y2="1543.080334" stroke="black" stroke-width="3.9204"/>
<path d="m 1181.935902,1503.708426 a 199.84979899999996,199.84979899999996 0 0 1 199.84979900000008,-199.84979899999985" fill="none" stroke="black" stroke-width="3.9204"/>
<line x1="1474.645222" y1="911.202966" x2="1474.645222" y2="929.755304" stroke="black" stroke-width="3.9204"/>
<line x1="1474.645222" y1="929.755304" x2="1510.844908" y2="929.755304" stroke="black" stroke-width="3.9204"/>
<line x1="1510.844908" y1="929.755304" x2="1510.844908" y2="911.202966" stroke="black" stroke-width="3.9204"/>
<line x1="1510.844908" y1="911.202966" x2="1474.645222" y2="911.202966" stroke="black" stroke-width="3.9204"/>
<line x1="1510.844908" y1="1111.206235" x2="1691.390848" y2="1111.206235" stroke="black" stroke-width="3.9204"/>
<line x1="1473.740227" y1="1111.658732" x2="1473.740227" y2="1130.211071" stroke="black" stroke-width="3.9204"/>
<line x1="1473.740227" y1="1130.211071" x2="1509.939918" y2="1130.211071" stroke="black" stroke-width="3.9204"/>
<line x1="1509.939918" y1="1130.211071" x2="1509.939918" y2="1111.658732" stroke="black" stroke-width="3.9204"/>
<line x1="1509.939918" y1="1111.658732" x2="1473.740227" y2="1111.658732" stroke="black" stroke-width="3.9204"/>
<path d="m 1509.48742,929.755304 a 181.45093100000008,181.45093100000008 0 0 1 181.45093100000008,181.45093100000008" fill="none" stroke="black" stroke-width="3.9204"/>
<line x1="1643.872705" y1="316.784695" x2="1643.872705" y2="710.028566" stroke="black" stroke-width="3.9204"/>
<line x1="1644.868986" y1="713.983973" x2="1508.80021" y2="713.983973" stroke="black" stroke-width="3.9204"/>
<line x1="1507.648705" y1="317.249084" x2="1507.648705" y2="714.289312" stroke="black" stroke-width="3.9204"/>
<line x1="1643.177955" y1="317.983973" x2="1507.913898" y2="317.983973" stroke="black" stroke-width="3.9204"/>
<line x1="1632.784705" y1="328.279973" x2="1632.784705" y2="451.831973" stroke="black" stroke-width="3.9204"/>
<line x1="1632.784705" y1="451.831973" x2="1518.736705" y2="451.831973" stroke="black" stroke-width="3.9204"/>
<line x1="1518.736705" y1="328.279973" x2="1518.736705" y2="451.831973" stroke="black" stroke-width="3.9204"/>
<line x1="1632.784705" y1="328.279973" x2="1518.736705" y2="328.279973" stroke="black" stroke-width="3.9204"/>
<line x1="1625.656705" y1="470.839973" x2="1625.656705" y2="557.959973" stroke="black" stroke-width="3.9204"/>
<line x1="1605.856705" y1="470.839973" x2="1605.856705" y2="557.959973" stroke="black" stroke-width="3.9204"/>
<line x1="1585.264705" y1="471.631973" x2="1585.264705" y2="557.959973" stroke="black" stroke-width="3.9204"/>
<line x1="1565.464705" y1="471.631973" x2="1565.464705" y2="557.959973" stroke="black" stroke-width="3.9204"/>
<line x1="1545.664705" y1="470.839973" x2="1545.664705" y2="557.959973" stroke="black" stroke-width="3.9204"/>
<line x1="1525.864705" y1="470.839973" x2="1525.864705" y2="557.959973" stroke="black" stroke-width="3.9204"/>
<line x1="1519.528705" y1="375.799973" x2="1532.992705" y2="375.799973" stroke="black" stroke-width="3.9204"/>
<line x1="1532.992705" y1="375.799973" x2="1532.992705" y2="405.895973" stroke="black" stroke-width="3.9204"/>
<line x1="1532.992705" y1="405.895973" x2="1520.320705" y2="405.895973" stroke="black" stroke-width="3.9204"/>
<line x1="1632.784705" y1="578.551973" x2="1632.784705" y2="702.103973" stroke="black" stroke-width="3.9204"/>
<line x1="1632.784705" y1="702.103973" x2="1518.736705" y2="702.103973" stroke="black" stroke-width="3.9204"/>
<line x1="1518.736705" y1="578.551973" x2="1518.736705" y2="702.103973" stroke="black" stroke-width="3.9204"/>
<line x1="1632.784705" y1="578.551973" x2="1518.736705" y2="578.551973" stroke="black" stroke-width="3.9204"/>
<line x1="1518.736705" y1="626.071973" x2="1532.200705" y2="626.071973" stroke="black" stroke-width="3.9204"/>
<line x1="1532.200705" y1="626.071973" x2="1532.200705" y2="656.167973" stroke="black" stroke-width="3.9204"/>
<line x1="1532.200705" y1="656.167973" x2="1519.528705" y2="656.167973" stroke="black" stroke-width="3.9204"/>
<circle cx="1618.528705" cy="437.575973" r="7.128" fill="none" stroke="black" stroke-width="3.9204"/>
<circle cx="1617.736705" cy="687.847973" r="7.128" fill="none" stroke="black" stroke-width="3.9204"/>
<line x1="1191.95425" y1="774.161562" x2="1173.272174" y2="774.161562" stroke="black" stroke-width="3.920396"/>
<line x1="1173.272174" y1="774.161562" x2="1173.272174" y2="810.614396" stroke="black" stroke-width="3.920396"/>
<line x1="1173.272174" y1="810.614396" x2="1191.95425" y2="810.614396" stroke="black" stroke-width="3.920396"/>
<line x1="1191.95425" y1="810.614396" x2="1191.95425" y2="774.161562" stroke="black" stroke-width="3.920396"/>
<line x1="990.552357" y1="810.614396" x2="990.552357" y2="992.422894" stroke="black" stroke-width="3.920396"/>
<line x1="990.096695" y1="773.250243" x2="971.414619" y2="773.250243" stroke="black" stroke-width="3.920396"/>
<line x1="971.414619" y1="773.250243" x2="971.414619" y2="809.703073" stroke="black" stroke-width="3.920396"/>
<line x1="971.414619" y1="809.703073" x2="990.096695" y2="809.703073" stroke="black" stroke-width="3.920396"/>
<line x1="990.096695" y1="809.703073" x2="990.096695" y2="773.250243" stroke="black" stroke-width="3.920396"/>
<path d="m 1173.272174,809.247412 a 182.71981899999992,182.71981899999992 0 0 1 -182.71981699999992,182.7198209999999" fill="none" stroke="black" stroke-width="3.920396"/>
<line x1="1789.386307" y1="235.945773" x2="1941.975617" y2="235.945773" stroke="black" stroke-width="3.9204"/>
<line x1="1941.975617" y1="235.945773" x2="1941.975617" y2="388.847765" stroke="black" stroke-width="3.9204"/>
<line x1="1941.975617" y1="388.847765" x2="1789.386307" y2="388.847765" stroke="black" stroke-width="3.9204"/>
<line x1="1789.386307" y1="388.847765" x2="1789.386307" y2="235.945773" stroke="black" stroke-width="3.9204"/>
<line x1="1789.073625" y1="235.633092" x2="1941.975617" y2="388.847765" stroke="black" stroke-width="3.9204"/>
<line x1="1789.386307" y1="388.535083" x2="1941.662931" y2="235.945773" stroke="black" stroke-width="3.9204"/>
<line x1="1246.017857" y1="379.392726" x2="1062.273857" y2="379.392726" stroke="black" stroke-width="3.9204"/>
<line x1="1062.273857" y1="379.392726" x2="1062.273857" y2="330.288726" stroke="black" stroke-width="3.9204"/>
<line x1="1246.017857" y1="330.288726" x2="1062.273857" y2="330.288726" stroke="black" stroke-width="3.9204"/>
<line x1="1246.017857" y1="379.392726" x2="1246.017857" y2="330.288726" stroke="black" stroke-width="3.9204"/>
<line x1="1204.437857" y1="407.112726" x2="1204.437857" y2="379.392726" stroke="black" stroke-width="3.9204"/>
<line x1="1105.437857" y1="379.392726" x2="1105.437857" y2="408.696726" stroke="black" stroke-width="3.9204"/>
<circle cx="1155.729857" cy="452.256726" r="66.528" fill="none" stroke="black" stroke-width="3.9204"/>
<circle cx="1155.729857" cy="452.256726" r="57.024" fill="none" stroke="black" stroke-width="3.9204"/>
<line x1="960.909353" y1="534.445338" x2="936.357353" y2="553.057338" stroke="black" stroke-width="3.9204"/>
<line x1="936.357353" y1="553.057338" x2="936.357353" y2="700.369338" stroke="black" stroke-width="3.9204"/>
<line x1="936.357353" y1="700.369338" x2="964.473353" y2="719.377338" stroke="black" stroke-width="3.9204"/>
<line x1="963.681353" y1="556.225338" x2="963.681353" y2="699.181338" stroke="black" stroke-width="3.9204"/>
<circle cx="985.461353" cy="625.525338" r="13.068000000000001" fill="none" stroke="black" stroke-width="3.9204"/>
<path d="m 963.014006,557.778589 a 74.84400060548079,74.84400060548079 0 1 1 0.4020470000000387,139.60900400000003" fill="none" stroke="black" stroke-width="3.9204"/>
<path d="m 960.251989,534.491639 a 95.4359995551865,95.4359995551865 0 1 1 3.074960000000033,184.466997" fill="none" stroke="black" stroke-width="3.9204"/>
<line x1="1473.349977" y1="722.094401" x2="1473.349977" y2="330.846401" stroke="black" stroke-width="3.9204"/>
<line x1="1473.349977" y1="330.846401" x2="1299.109977" y2="330.846401" stroke="black" stroke-width="3.9204"/>
<line x1="1299.109977" y1="330.846401" x2="1299.109977" y2="722.094401" stroke="black" stroke-width="3.9204"/>
<line x1="1299.109977" y1="722.094401" x2="1473.349977" y2="722.094401" stroke="black" stroke-width="3.9204"/>
<line x1="1326.037977" y1="406.086401" x2="1326.037977" y2="690.414401" stroke="black" stroke-width="3.9204"/>
<line x1="1326.037977" y1="690.414401" x2="1444.045977" y2="690.414401" stroke="black" stroke-width="3.9204"/>
<line x1="1444.045977" y1="690.414401" x2="1444.045977" y2="400.542401" stroke="black" stroke-width="3.9204"/>
<path d="m 1325.782553,406.896974 a 63.35999936674695,63.35999936674695 0 0 1 119.37433099999998,-4.293813" fill="none" stroke="black" stroke-width="3.9204"/>
<line x1="1615.021052" y1="1914.454238" x2="1615.021052" y2="2104.534238" stroke="black" stroke-width="3.9204"/>
<line x1="1615.021052" y1="2104.534238" x2="2078.816252" y2="2104.534238" stroke="black" stroke-width="3.9204"/>
<line x1="2078.816252" y1="2104.534238" x2="2078.816252" y2="1914.454238" stroke="black" stroke-width="3.9204"/>
<line x1="2078.816252" y1="1914.454238" x2="2055.056252" y2="1914.454238" stroke="black" stroke-width="3.9204"/>
<line x1="2055.056252" y1="1914.454238" x2="2055.056252" y2="2081.724638" stroke="black" stroke-width="3.9204"/>
<line x1="2055.056252" y1="2081.724638" x2="1639.731452" y2="2081.724638" stroke="black" stroke-width="3.9204"/>
<line x1="1639.731452" y1="2081.724638" x2="1639.731452" y2="1914.454238" stroke="black" stroke-width="3.9204"/>
<line x1="1639.731452" y1="1914.454238" x2="1615.021052" y2="1914.454238" stroke="black" stroke-width="3.9204"/>
<line x1="1639.731452" y1="1920.156638" x2="2055.056252" y2="1920.156638" stroke="black" stroke-width="3.9204"/>
<line x1="1846.918652" y1="1919.206238" x2="1846.918652" y2="2080.774238" stroke="black" stroke-width="3.9204"/>
<line x1="927.659605" y1="1215.759996" x2="927.659605" y2="1196.116911" stroke="black" stroke-width="3.9204"/>
<line x1="927.659605" y1="1196.116911" x2="889.331632" y2="1196.116911" stroke="black" stroke-width="3.9204"/>
<line x1="889.331632" y1="1196.116911" x2="889.331632" y2="1215.759996" stroke="black" stroke-width="3.9204"/>
<line x1="889.331632" y1="1215.759996" x2="927.659605" y2="1215.759996" stroke="black" stroke-width="3.9204"/>
<line x1="889.331632" y1="1003.997951" x2="698.170873" y2="1003.997951" stroke="black" stroke-width="3.9204"/>
<line x1="928.617806" y1="1003.518854" x2="928.617806" y2="983.875769" stroke="black" stroke-width="3.9204"/>
<line x1="928.617806" y1="983.875769" x2="890.289833" y2="983.875769" stroke="black" stroke-width="3.9204"/>
<line x1="890.289833" y1="983.875769" x2="890.289833" y2="1003.518854" stroke="black" stroke-width="3.9204"/>
<line x1="890.289833" y1="1003.518854" x2="928.617806" y2="1003.518854" stroke="black" stroke-width="3.9204"/>
<path d="m 890.768934,1196.116911 a 192.11896000000002,192.11896000000002 0 0 1 -192.1189599999999,-192.11896000000013" fill="none" stroke="black" stroke-width="3.9204"/>
<line x1="924.972773" y1="1470.753322" x2="924.972773" y2="1451.746906" stroke="black" stroke-width="3.9204"/>
<line x1="924.972773" y1="1451.746906" x2="887.88708" y2="1451.746906" stroke="black" stroke-width="3.9204"/>
<line x1="887.88708" y1="1451.746906" x2="887.88708" y2="1470.753322" stroke="black" stroke-width="3.9204"/>
<line x1="887.88708" y1="1470.753322" x2="924.972773" y2="1470.753322" stroke="black" stroke-width="3.9204"/>
<line x1="887.88708" y1="1265.854867" x2="702.922184" y2="1265.854867" stroke="black" stroke-width="3.9204"/>
<line x1="925.899916" y1="1265.391294" x2="925.899916" y2="1246.384878" stroke="black" stroke-width="3.9204"/>
<line x1="925.899916" y1="1246.384878" x2="888.814223" y2="1246.384878" stroke="black" stroke-width="3.9204"/>
<line x1="888.814223" y1="1246.384878" x2="888.814223" y2="1265.391294" stroke="black" stroke-width="3.9204"/>
<line x1="888.814223" y1="1265.391294" x2="925.899916" y2="1265.391294" stroke="black" stroke-width="3.9204"/>
<path d="m 889.277792,1451.746906 a 185.892039,185.892039 0 0 1 -185.89203899999995,-185.89203900000007" fill="none" stroke="black" stroke-width="3.9204"/>
<line x1="529.870382" y1="565.391934" x2="529.870382" y2="356.026734" stroke="black" stroke-width="3.9204"/>
<line x1="529.870382" y1="356.026734" x2="198.655982" y2="356.026734" stroke="black" stroke-width="3.9204"/>
<line x1="198.655982" y1="356.026734" x2="198.655982" y2="565.391934" stroke="black" stroke-width="3.9204"/>
<line x1="198.655982" y1="565.391934" x2="529.870382" y2="565.391934" stroke="black" stroke-width="3.9204"/>
<line x1="257.897582" y1="566.065134" x2="257.897582" y2="355.353534" stroke="black" stroke-width="3.9204"/>
<line x1="257.897582" y1="355.353534" x2="307.714382" y2="564.718734" stroke="black" stroke-width="3.9204"/>
<line x1="307.714382" y1="564.718734" x2="354.165182" y2="533.078334" stroke="black" stroke-width="3.9204"/>
<line x1="354.165182" y1="533.078334" x2="257.224382" y2="355.353534" stroke="black" stroke-width="3.9204"/>
<line x1="1730.313906" y1="794.638532" x2="1786.611028" y2="704.544299" stroke="black" stroke-width="3.9204"/>
<line x1="1786.611028" y1="704.544299" x2="1796.33343" y2="710.619525" stroke="black" stroke-width="3.9204"/>
<line x1="1740.036304" y1="800.713762" x2="1796.33343" y2="710.619525" stroke="black" stroke-width="3.9204"/>
<line x1="1730.313906" y1="794.638532" x2="1740.036304" y2="800.713762" stroke="black" stroke-width="3.9204"/>
<line x1="1745.706517" y1="791.639521" x2="1766.285766" y2="806.30135" stroke="black" stroke-width="3.9204"/>
<line x1="1790.663217" y1="719.693766" x2="1813.510686" y2="732.167968" stroke="black" stroke-width="3.9204"/>
<line x1="2044.671489" y1="991.070954" x2="2100.968615" y2="900.976717" stroke="black" stroke-width="3.9204"/>
<line x1="2100.968615" y1="900.976717" x2="2091.894374" y2="895.3065" stroke="black" stroke-width="3.9204"/>
<line x1="2035.597248" y1="985.400737" x2="2091.894374" y2="895.3065" stroke="black" stroke-width="3.9204"/>
<line x1="2044.671489" y1="991.070954" x2="2035.597248" y2="985.400737" stroke="black" stroke-width="3.9204"/>
<line x1="2039.56613" y1="976.164627" x2="2017.366817" y2="964.095442" stroke="black" stroke-width="3.9204"/>
<line x1="2084.522826" y1="904.218872" x2="2063.700433" y2="888.503869" stroke="black" stroke-width="3.9204"/>
<line x1="1968.405338" y1="663.128429" x2="1962.330104" y2="672.850827" stroke="black" stroke-width="3.9204"/>
<line x1="1962.330104" y1="672.850827" x2="2052.424341" y2="729.147957" stroke="black" stroke-width="3.9204"/>
<line x1="2058.499571" y1="719.425555" x2="2052.424341" y2="729.147957" stroke="black" stroke-width="3.9204"/>
<line x1="1968.405338" y1="663.128429" x2="2058.499571" y2="719.425555" stroke="black" stroke-width="3.9204"/>
<line x1="2042.701943" y1="723.072727" x2="2030.875902" y2="746.32521" stroke="black" stroke-width="3.9204"/>
<line x1="1971.404345" y1="678.521044" x2="1956.337507" y2="699.74845" stroke="black" stroke-width="3.9204"/>
<line x1="1771.729772" y1="976.432838" x2="1777.805002" y2="966.710436" stroke="black" stroke-width="3.9204"/>
<line x1="1777.805002" y1="966.710436" x2="1867.899235" y2="1023.007566" stroke="black" stroke-width="3.9204"/>
<line x1="1861.824009" y1="1032.729964" x2="1867.899235" y2="1023.007566" stroke="black" stroke-width="3.9204"/>
<line x1="1771.729772" y1="976.432838" x2="1861.824009" y2="1032.729964" stroke="black" stroke-width="3.9204"/>
<line x1="1858.176837" y1="1016.932332" x2="1873.891836" y2="996.109943" stroke="black" stroke-width="3.9204"/>
<line x1="1786.879239" y1="972.380653" x2="1799.353441" y2="949.533184" stroke="black" stroke-width="3.9204"/>
<circle cx="1915.114671" cy="847.929199" r="154.38783949151258" fill="none" stroke="black" stroke-width="3.9204"/>
<line x1="901.134547" y1="351.045834" x2="780.053282" y2="238.135733" stroke="black" stroke-width="3.9204"/>
<line x1="780.053282" y1="238.135733" x2="654.825715" y2="372.425859" stroke="black" stroke-width="3.9204"/>
<line x1="654.825715" y1="372.425859" x2="775.906976" y2="485.335961" stroke="black" stroke-width="3.9204"/>
<line x1="775.906976" y1="485.335961" x2="901.134547" y2="351.045834" stroke="black" stroke-width="3.9204"/>
<line x1="883.684803" y1="369.758395" x2="762.603542" y2="256.848289" stroke="black" stroke-width="3.9204"/>
<line x1="2139.715655" y1="1447.434977" x2="1942.019066" y2="1379.362581" stroke="black" stroke-width="3.9204"/>
<line x1="1942.019066" y1="1379.362581" x2="1866.520593" y2="1598.62607" stroke="black" stroke-width="3.9204"/>
<line x1="1866.520593" y1="1598.62607" x2="2064.217181" y2="1666.698466" stroke="black" stroke-width="3.9204"/>
<line x1="2064.217181" y1="1666.698466" x2="2139.715655" y2="1447.434977" stroke="black" stroke-width="3.9204"/>
<line x1="2129.195376" y1="1477.988083" x2="1931.498787" y2="1409.915691" stroke="black" stroke-width="3.9204"/>
<line x1="1506.795151" y1="1532.099642" x2="1459.760588" y2="1735.828728" stroke="black" stroke-width="3.9204"/>
<line x1="1459.760588" y1="1735.828728" x2="1685.714667" y2="1787.994339" stroke="black" stroke-width="3.9204"/>
<line x1="1685.714667" y1="1787.994339" x2="1732.749231" y2="1584.265249" stroke="black" stroke-width="3.9204"/>
<line x1="1732.749231" y1="1584.265249" x2="1506.795151" y2="1532.099642" stroke="black" stroke-width="3.9204"/>
<line x1="1538.280557" y1="1539.368618" x2="1491.245993" y2="1743.097708" stroke="black" stroke-width="3.9204"/>
<line x1="628.031666" y1="104.836553" x2="761.547311" y2="104.836553" stroke="black" stroke-width="3.9204"/>
<line x1="761.547311" y1="104.836553" x2="761.547311" y2="238.625794" stroke="black" stroke-width="3.9204"/>
<line x1="761.547311" y1="238.625794" x2="628.031666" y2="238.625794" stroke="black" stroke-width="3.9204"/>
<line x1="628.031666" y1="238.625794" x2="628.031666" y2="104.836553" stroke="black" stroke-width="3.9204"/>
<line x1="627.758069" y1="104.562957" x2="761.547311" y2="238.625794" stroke="black" stroke-width="3.9204"/>
<line x1="628.031666" y1="238.352198" x2="761.273715" y2="104.836553" stroke="black" stroke-width="3.9204"/>
<line x1="200.015256" y1="1874.22844" x2="428.899217" y2="1874.22844" stroke="black" stroke-width="3.9204"/>
<line x1="428.899217" y1="1874.22844" x2="428.899217" y2="2103.581423" stroke="black" stroke-width="3.9204"/>
<line x1="428.899217" y1="2103.581423" x2="200.015256" y2="2103.581423" stroke="black" stroke-width="3.9204"/>
<line x1="200.015256" y1="2103.581423" x2="200.015256" y2="1874.22844" stroke="black" stroke-width="3.9204"/>
<line x1="199.546233" y1="1873.759413" x2="428.899217" y2="2103.581423" stroke="black" stroke-width="3.9204"/>
<line x1="200.015256" y1="2103.1124" x2="428.430194" y2="1874.22844" stroke="black" stroke-width="3.9204"/>
<line x1="399.571904" y1="1621.39274" x2="199.988946" y2="1645.898447" stroke="black" stroke-width="3.9204"/>
<line x1="199.988946" y1="1645.898447" x2="227.168002" y2="1867.254092" stroke="black" stroke-width="3.9204"/>
<line x1="227.168002" y1="1867.254092" x2="426.75096" y2="1842.748384" stroke="black" stroke-width="3.9204"/>
<line x1="426.75096" y1="1842.748384" x2="399.571904" y2="1621.39274" stroke="black" stroke-width="3.9204"/>
<line x1="403.359149" y1="1652.237382" x2="203.776191" y2="1676.743085" stroke="black" stroke-width="3.9204"/>
</g>
</svg>
