<?xml version="1.0"?>
<svg xmlns:xlink="http://www.w3.org/1999/xlink" width="2352.24" height="2506.68">
<image x="0" y="0" width="2352.24" height="2506.68" xlink:href="groundempty-03.png"/>
<g style="stroke-linecap:round">
<line x1="97.870362" y1="1211.87798" x2="97.870362" y2="936.036621" stroke="black" stroke-width="3.9204"/>
<line x1="97.870362" y1="936.036621" x2="55.34715" y2="936.036621" stroke="black" stroke-width="3.9204"/>
<line x1="55.34715" y1="936.036621" x2="55.34715" y2="1211.87798" stroke="black" stroke-width="3.9204"/>
<line x1="55.34715" y1="1211.87798" x2="97.870362" y2="1211.87798" stroke="black" stroke-width="3.9204"/>
<line x1="55.906666" y1="1186.140249" x2="97.310846" y2="1186.140249" stroke="black" stroke-width="3.9204"/>
<line x1="55.906666" y1="962.333872" x2="98.989395" y2="962.333872" stroke="black" stroke-width="3.9204"/>
<line x1="75.489726" y1="1186.699766" x2="75.489726" y2="962.893388" stroke="black" stroke-width="3.9204"/>
<line x1="2241.215706" y1="865.898328" x2="2241.215706" y2="1117.97001" stroke="black" stroke-width="3.9204"/>
<line x1="2241.215706" y1="1117.97001" x2="2286.301695" y2="1117.97001" stroke="black" stroke-width="3.9204"/>
<line x1="2286.301695" y1="1117.97001" x2="2286.301695" y2="865.898328" stroke="black" stroke-width="3.9204"/>
<line x1="2286.301695" y1="865.898328" x2="2241.215706" y2="865.898328" stroke="black" stroke-width="3.9204"/>
<line x1="2241.215706" y1="877.682168" x2="2225.84548" y2="877.682168" stroke="black" stroke-width="3.9204"/>
<line x1="2225.84548" y1="877.682168" x2="2225.84548" y2="1105.673829" stroke="black" stroke-width="3.9204"/>
<line x1="2241.215706" y1="1105.673829" x2="2225.84548" y2="1105.673829" stroke="black" stroke-width="3.9204"/>
<line x1="1161.502381" y1="1542.083578" x2="1181.935902" y2="1542.083578" stroke="black" stroke-width="3.9204"/>
<line x1="1181.935902" y1="1542.083578" x2="1181.935902" y2="1502.213292" stroke="black" stroke-width="3.9204"/>
<line x1="1181.935902" y1="1502.213292" x2="1161.502381" y2="1502.213292" stroke="black" stroke-width="3.9204"/>
<line x1="1161.502381" y1="1502.213292" x2="1161.502381" y2="1542.083578" stroke="black" stroke-width="3.9204"/>
<line x1="1381.785701" y1="1502.213292" x2="1381.785701" y2="1303.360245" stroke="black" stroke-width="3.9204"/>
<line x1="1382.284083" y1="1543.080334" x2="1402.717603" y2="1543.080334" stroke="black" stroke-width="3.9204"/>
<line x1="1402.717603" y1="1543.080334" x2="1402.717603" y2="1503.210048" stroke="black" stroke-width="3.9204"/>
<line x1="1402.717603" y1="1503.210048" x2="1382.284083" y2="1503.210048" stroke="black" stroke-width="3.9204"/>
<line x1="1382.284083" y1="1503.210048" x2="1382.284083" y2="1543.080334" stroke="black" stroke-width="3.9204"/>
<path d="m 1181.935902,1503.708426 a 199.84979899999996,199.84979899999996 0 0 1 199.84979900000008,-199.84979899999985" fill="none" stroke="black" stroke-width="3.9204"/>
<line x1="1474.645222" y1="911.202966" x2="1474.645222" y2="929.755304" stroke="black" stroke-width="3.9204"/>
<line x1="1474.645222" y1="929.755304" x2="1510.844908" y2="929.755304" stroke="black" stroke-width="3.9204"/>
<line x1="1510.844908" y1="929.755304" x2="1510.844908" y2="911.202966" stroke="black" stroke-width="3.9204"/>
<line x1="1510.844908" y1="911.202966" x2="1474.645222" y2="911.202966" stroke="black" stroke-width="3.9204"/>
<line x1="1510.844908" y1="1111.206235" x2="1691.390848" y2="1111.206235" stroke="black" stroke-width="3.9204"/>
<line x1="1473.740227" y1="1111.658732" x2="1473.740227" y2="1130.211071" stroke="black" stroke-width="3.9204"/>
<line x1="1473.740227" y1="1130.211071" x2="1509.939918" y2="1130.211071" stroke="black" stroke-width="3.9204"/>
<line x1="1509.939918" y1="1130.211071" x2="1509.939918" y2="1111.658732" stroke="black" stroke-width="3.9204"/>
<line x1="1509.939918" y1="1111.658732" x2="1473.740227" y2="1111.658732" stroke="black" stroke-width="3.9204"/>
<path d="m 1509.48742,929.755304 a 181.45093100000008,181.45093100000008 0 0 1 181.45093100000008,181.45093100000008" fill="none" stroke="black" stroke-width="3.9204"/>
<line x1="1643.872705" y1="316.784695" x2="1643.872705" y2="710.028566" stroke="black" stroke-width="3.9204"/>
<line x1="1644.868986" y1="713.983973" x2="1508.80021" y2="713.983973" stroke="black" stroke-width="3.9204"/>
<line x1="1507.648705" y1="317.249084" x2="1507.648705" y2="714.289312" stroke="black" stroke-width="3.9204"/>
<line x1="1643.177955" y1="317.983973" x2="1507.913898" y2="317.983973" stroke="black" stroke-width="3.9204"/>
<line x1="1632.784705" y1="328.279973" x2="1632.784705" y2="451.831973" stroke="black" stroke-width="3.9204"/>
<line x1="1632.784705" y1="451.831973" x2="1518.736705" y2="451.831973" stroke="black" stroke-width="3.9204"/>
<line x1="1518.736705" y1="328.279973" x2="1518.736705" y2="451.831973" stroke="black" stroke-width="3.9204"/>
<line x1="1632.784705" y1="328.279973" x2="1518.736705" y2="328.279973" stroke="black" stroke-width="3.9204"/>
<line x1="1625.656705" y1="470.839973" x2="1625.656705" y2="557.959973" stroke="black" stroke-width="3.9204"/>
<line x1="1605.856705" y1="470.839973" x2="1605.856705" y2="557.959973" stroke="black" stroke-width="3.9204"/>
<line x1="1585.264705" y1="471.631973" x2="1585.264705" y2="557.959973" stroke="black" stroke-width="3.9204"/>
<line x1="1565.464705" y1="471.631973" x2="1565.464705" y2="557.959973" stroke="black" stroke-width="3.9204"/>
<line x1="1545.664705" y1="470.839973" x2="1545.664705" y2="557.959973" stroke="black" stroke-width="3.9204"/>
<line x1="1525.864705" y1="470.839973" x2="1525.864705" y2="557.959973" stroke="black" stroke-width="3.9204"/>
<line x1="1519.528705" y1="375.799973" x2="1532.992705" y2="375.799973" stroke="black" stroke-width="3.9204"/>
<line x1="1532.992705" y1="375.799973" x2="1532.992705" y2="405.895973" stroke="black" stroke-width="3.9204"/>
<line x1="1532.992705" y1="405.895973" x2="1520.320705" y2="405.895973" stroke="black" stroke-width="3.9204"/>
<line x1="1632.784705" y1="578.551973" x2="1632.784705" y2="702.103973" stroke="black" stroke-width="3.9204"/>
<line x1="1632.784705" y1="702.103973" x2="1518.736705" y2="702.103973" stroke="black" stroke-width="3.9204"/>
<line x1="1518.736705" y1="578.551973" x2="1518.736705" y2="702.103973" stroke="black" stroke-width="3.9204"/>
<line x1="1632.784705" y1="578.551973" x2="1518.736705" y2="578.551973" stroke="black" stroke-width="3.9204"/>
<line x1="1518.736705" y1="626.071973" x2="1532.200705" y2="626.071973" stroke="black" stroke-width="3.9204"/>
<line x1="1532.200705" y1="626.071973" x2="1532.200705" y2="656.167973" stroke="black" stroke-width="3.9204"/>
<line x1="1532.200705" y1="656.167973" x2="1519.528705" y2="656.167973" stroke="black" stroke-width="3.9204"/>
<circle cx="1618.528705" cy="437.575973" r="7.128" fill="none" stroke="black" stroke-width="3.9204"/>
<circle cx="1617.736705" cy="687.847973" r="7.128" fill="none" stroke="black" stroke-width="3.9204"/>
<line x1="1191.95425" y1="774.161562" x2="1173.272174" y2="774.161562" stroke="black" stroke-width="3.920396"/>
<line x1="1173.272174" y1="774.161562" x2="1173.272174" y2="810.614396" stroke="black" stroke-width="3.920396"/>
<line x1="1173.272174" y1="810.614396" x2="1191.95425" y2="810.614396" stroke="black" stroke-width="3.920396"/>
<line x1="1191.95425" y1="810.614396" x2="1191.95425" y2="774.161562" stroke="black" stroke-width="3.920396"/>
<line x1="990.552357" y1="810.614396" x2="990.552357" y2="992.422894" stroke="black" stroke-width="3.920396"/>
<line x1="990.096695" y1="773.250243" x2="971.414619" y2="773.250243" stroke="black" stroke-width="3.920396"/>
<line x1="971.414619" y1="773.250243" x2="971.414619" y2="809.703073" stroke="black" stroke-width="3.920396"/>
<line x1="971.414619" y1="809.703073" x2="990.096695" y2="809.703073" stroke="black" stroke-width="3.920396"/>
<line x1="990.096695" y1="809.703073" x2="990.096695" y2="773.250243" stroke="black" stroke-width="3.920396"/>
<path d="m 1173.272174,809.247412 a 182.71981899999992,182.71981899999992 0 0 1 -182.71981699999992,182.7198209999999" fill="none" stroke="black" stroke-width="3.920396"/>
<line x1="1789.386307" y1="235.945773" x2="1941.975617" y2="235.945773" stroke="black" stroke-width="3.9204"/>
<line x1="1941.975617" y1="235.945773" x2="1941.975617" y2="388.847765" stroke="black" stroke-width="3.9204"/>
<line x1="1941.975617" y1="388.847765" x2="1789.386307" y2="388.847765" stroke="black" stroke-width="3.9204"/>
<line x1="1789.386307" y1="388.847765" x2="1789.386307" y2="235.945773" stroke="black" stroke-width="3.9204"/>
<line x1="1789.073625" y1="235.633092" x2="1941.975617" y2="388.847765" stroke="black" stroke-width="3.9204"/>
<line x1="1789.386307" y1="388.535083" x2="1941.662931" y2="235.945773" stroke="black" stroke-width="3.9204"/>
<line x1="1246.017857" y1="379.392726" x2="1062.273857" y2="379.392726" stroke="black" stroke-width="3.9204"/>
<line x1="1062.273857" y1="379.392726" x2="1062.273857" y2="330.288726" stroke="black" stroke-width="3.9204"/>
<line x1="1246.017857" y1="330.288726" x2="1062.273857" y2="330.288726" stroke="black" stroke-width="3.9204"/>
<line x1="1246.017857" y1="379.392726" x2="1246.017857" y2="330.288726" stroke="black" stroke-width="3.9204"/>
<line x1="1204.437857" y1="407.112726" x2="1204.437857" y2="379.392726" stroke="black" stroke-width="3.9204"/>
<line x1="1105.437857" y1="379.392726" x2="1105.437857" y2="408.696726" stroke="black" stroke-width="3.9204"/>
<circle cx="1155.729857" cy="452.256726" r="66.528" fill="none" stroke="black" stroke-width="3.9204"/>
<circle cx="1155.729857" cy="452.256726" r="57.024" fill="none" stroke="black" stroke-width="3.9204"/>
<line x1="960.909353" y1="534.445338" x2="936.357353" y2="553.057338" stroke="black" stroke-width="3.9204"/>
<line x1="936.357353" y1="553.057338" x2="936.357353" y2="700.369338" stroke="black" stroke-width="3.9204"/>
<line x1="936.357353" y1="700.369338" x2="964.473353" y2="719.377338" stroke="black" stroke-width="3.9204"/>
<line x1="963.681353" y1="556.225338" x2="963.681353" y2="699.181338" stroke="black" stroke-width="3.9204"/>
<circle cx="985.461353" cy="625.525338" r="13.068000000000001" fill="none" stroke="black" stroke-width="3.9204"/>
<path d="m 963.014006,557.778589 a 74.84400060548079,74.84400060548079 0 1 1 0.4020470000000387,139.60900400000003" fill="none" stroke="black" stroke-width="3.9204"/>
<path d="m 960.251989,534.491639 a 95.4359995551865,95.4359995551865 0 1 1 3.074960000000033,184.466997" fill="none" stroke="black" stroke-width="3.9204"/>
<line x1="1299.109977" y1="330.846401" x2="1299.109977" y2="722.094401" stroke="black" stroke-width="3.9204"/>
<line x1="1299.109977" y1="722.094401" x2="1473.349977" y2="722.094401" stroke="black" stroke-width="3.9204"/>
<line x1="1473.349977" y1="722.094401" x2="1473.349977" y2="330.846401" stroke="black" stroke-width="3.9204"/>
<line x1="1473.349977" y1="330.846401" x2="1299.109977" y2="330.846401" stroke="black" stroke-width="3.9204"/>
<line x1="1446.421977" y1="646.854401" x2="1446.421977" y2="362.526401" stroke="black" stroke-width="3.9204"/>
<line x1="1446.421977" y1="362.526401" x2="1328.413977" y2="362.526401" stroke="black" stroke-width="3.9204"/>
<line x1="1328.413977" y1="362.526401" x2="1328.413977" y2="652.398401" stroke="black" stroke-width="3.9204"/>
<path d="m 1446.677401,646.043829 a 63.359999516600396,63.359999516600396 0 0 1 -119.37433099999998,4.293812000000003" fill="none" stroke="black" stroke-width="3.9204"/>
<line x1="1574.609505" y1="1914.454238" x2="1574.609505" y2="2104.534238" stroke="black" stroke-width="3.9204"/>
<line x1="1574.609505" y1="2104.534238" x2="2038.404705" y2="2104.534238" stroke="black" stroke-width="3.9204"/>
<line x1="2038.404705" y1="2104.534238" x2="2038.404705" y2="1914.454238" stroke="black" stroke-width="3.9204"/>
<line x1="2038.404705" y1="1914.454238" x2="2014.644705" y2="1914.454238" stroke="black" stroke-width="3.9204"/>
<line x1="2014.644705" y1="1914.454238" x2="2014.644705" y2="2081.724638" stroke="black" stroke-width="3.9204"/>
<line x1="2014.644705" y1="2081.724638" x2="1599.319905" y2="2081.724638" stroke="black" stroke-width="3.9204"/>
<line x1="1599.319905" y1="2081.724638" x2="1599.319905" y2="1914.454238" stroke="black" stroke-width="3.9204"/>
<line x1="1599.319905" y1="1914.454238" x2="1574.609505" y2="1914.454238" stroke="black" stroke-width="3.9204"/>
<line x1="1599.319905" y1="1920.156638" x2="2014.644705" y2="1920.156638" stroke="black" stroke-width="3.9204"/>
<line x1="1806.507105" y1="1919.206238" x2="1806.507105" y2="2080.774238" stroke="black" stroke-width="3.9204"/>
<line x1="927.659605" y1="1215.759996" x2="927.659605" y2="1196.116911" stroke="black" stroke-width="3.9204"/>
<line x1="927.659605" y1="1196.116911" x2="889.331632" y2="1196.116911" stroke="black" stroke-width="3.9204"/>
<line x1="889.331632" y1="1196.116911" x2="889.331632" y2="1215.759996" stroke="black" stroke-width="3.9204"/>
<line x1="889.331632" y1="1215.759996" x2="927.659605" y2="1215.759996" stroke="black" stroke-width="3.9204"/>
<line x1="889.331632" y1="1003.997951" x2="698.170873" y2="1003.997951" stroke="black" stroke-width="3.9204"/>
<line x1="928.617806" y1="1003.518854" x2="928.617806" y2="983.875769" stroke="black" stroke-width="3.9204"/>
<line x1="928.617806" y1="983.875769" x2="890.289833" y2="983.875769" stroke="black" stroke-width="3.9204"/>
<line x1="890.289833" y1="983.875769" x2="890.289833" y2="1003.518854" stroke="black" stroke-width="3.9204"/>
<line x1="890.289833" y1="1003.518854" x2="928.617806" y2="1003.518854" stroke="black" stroke-width="3.9204"/>
<path d="m 890.768934,1196.116911 a 192.11896000000002,192.11896000000002 0 0 1 -192.1189599999999,-192.11896000000013" fill="none" stroke="black" stroke-width="3.9204"/>
<line x1="924.972773" y1="1470.753322" x2="924.972773" y2="1451.746906" stroke="black" stroke-width="3.9204"/>
<line x1="924.972773" y1="1451.746906" x2="887.88708" y2="1451.746906" stroke="black" stroke-width="3.9204"/>
<line x1="887.88708" y1="1451.746906" x2="887.88708" y2="1470.753322" stroke="black" stroke-width="3.9204"/>
<line x1="887.88708" y1="1470.753322" x2="924.972773" y2="1470.753322" stroke="black" stroke-width="3.9204"/>
<line x1="887.88708" y1="1265.854867" x2="702.922184" y2="1265.854867" stroke="black" stroke-width="3.9204"/>
<line x1="925.899916" y1="1265.391294" x2="925.899916" y2="1246.384878" stroke="black" stroke-width="3.9204"/>
<line x1="925.899916" y1="1246.384878" x2="888.814223" y2="1246.384878" stroke="black" stroke-width="3.9204"/>
<line x1="888.814223" y1="1246.384878" x2="888.814223" y2="1265.391294" stroke="black" stroke-width="3.9204"/>
<line x1="888.814223" y1="1265.391294" x2="925.899916" y2="1265.391294" stroke="black" stroke-width="3.9204"/>
<path d="m 889.277792,1451.746906 a 185.892039,185.892039 0 0 1 -185.89203899999995,-185.89203900000007" fill="none" stroke="black" stroke-width="3.9204"/>
<line x1="530.226156" y1="685.999619" x2="530.226156" y2="476.634419" stroke="black" stroke-width="3.9204"/>
<line x1="530.226156" y1="476.634419" x2="199.011756" y2="476.634419" stroke="black" stroke-width="3.9204"/>
<line x1="199.011756" y1="476.634419" x2="199.011756" y2="685.999619" stroke="black" stroke-width="3.9204"/>
<line x1="199.011756" y1="685.999619" x2="530.226156" y2="685.999619" stroke="black" stroke-width="3.9204"/>
<line x1="258.253356" y1="686.672819" x2="258.253356" y2="475.961219" stroke="black" stroke-width="3.9204"/>
<line x1="258.253356" y1="475.961219" x2="308.070156" y2="685.326419" stroke="black" stroke-width="3.9204"/>
<line x1="308.070156" y1="685.326419" x2="354.520956" y2="653.686019" stroke="black" stroke-width="3.9204"/>
<line x1="354.520956" y1="653.686019" x2="257.580156" y2="475.961219" stroke="black" stroke-width="3.9204"/>
<line x1="1852.52863" y1="1033.623982" x2="2099.251836" y2="778.134618" stroke="black" stroke-width="3.9204"/>
<line x1="2099.251836" y1="778.134618" x2="1979.233645" y2="662.234404" stroke="black" stroke-width="3.9204"/>
<line x1="1979.233645" y1="662.234404" x2="1732.510439" y2="917.723767" stroke="black" stroke-width="3.9204"/>
<line x1="1732.510439" y1="917.723767" x2="1852.52863" y2="1033.623982" stroke="black" stroke-width="3.9204"/>
<line x1="1832.493029" y1="814.188763" x2="1779.952878" y2="763.451326" stroke="black" stroke-width="3.9204"/>
<line x1="1779.952878" y1="763.451326" x2="1730.707724" y2="814.446179" stroke="black" stroke-width="3.9204"/>
<line x1="1730.707724" y1="814.446179" x2="1783.247875" y2="865.183616" stroke="black" stroke-width="3.9204"/>
<line x1="1742.537337" y1="824.874451" x2="1791.285067" y2="774.394695" stroke="black" stroke-width="3.9204"/>
<line x1="1956.321311" y1="1032.31869" x2="2005.566469" y2="981.323838" stroke="black" stroke-width="3.9204"/>
<line x1="2005.566469" y1="981.323838" x2="1952.511216" y2="930.088978" stroke="black" stroke-width="3.9204"/>
<line x1="1903.266058" y1="981.08383" x2="1956.321311" y2="1032.31869" stroke="black" stroke-width="3.9204"/>
<line x1="1945.486549" y1="1020.860221" x2="1994.234279" y2="970.380469" stroke="black" stroke-width="3.9204"/>
<line x1="1927.501361" y1="715.804753" x2="1874.96121" y2="665.067316" stroke="black" stroke-width="3.9204"/>
<line x1="1874.96121" y1="665.067316" x2="1825.716052" y2="716.062173" stroke="black" stroke-width="3.9204"/>
<line x1="1825.716052" y1="716.062173" x2="1878.256203" y2="766.799605" stroke="black" stroke-width="3.9204"/>
<line x1="1837.048245" y1="727.005538" x2="1886.293399" y2="676.010685" stroke="black" stroke-width="3.9204"/>
<line x1="2051.329643" y1="933.934684" x2="2100.574801" y2="882.939832" stroke="black" stroke-width="3.9204"/>
<line x1="2100.574801" y1="882.939832" x2="2047.519548" y2="831.704968" stroke="black" stroke-width="3.9204"/>
<line x1="1998.27439" y1="882.69982" x2="2051.329643" y2="933.934684" stroke="black" stroke-width="3.9204"/>
<line x1="2039.997453" y1="922.991315" x2="2089.242611" y2="871.996463" stroke="black" stroke-width="3.9204"/>
<line x1="1527.832988" y1="1532.099646" x2="1459.760592" y2="1729.796235" stroke="black" stroke-width="3.9204"/>
<line x1="1459.760592" y1="1729.796235" x2="1679.024081" y2="1805.294708" stroke="black" stroke-width="3.9204"/>
<line x1="1679.024081" y1="1805.294708" x2="1747.096477" y2="1607.598119" stroke="black" stroke-width="3.9204"/>
<line x1="1747.096477" y1="1607.598119" x2="1527.832988" y2="1532.099646" stroke="black" stroke-width="3.9204"/>
<line x1="1558.386094" y1="1542.619925" x2="1490.313702" y2="1740.316513" stroke="black" stroke-width="3.9204"/>
<line x1="2139.715655" y1="1488.014799" x2="1968.440792" y2="1368.086849" stroke="black" stroke-width="3.9204"/>
<line x1="1968.440792" y1="1368.086849" x2="1835.429793" y2="1558.046243" stroke="black" stroke-width="3.9204"/>
<line x1="1835.429793" y1="1558.046243" x2="2006.704656" y2="1677.974194" stroke="black" stroke-width="3.9204"/>
<line x1="2006.704656" y1="1677.974194" x2="2139.715655" y2="1488.014799" stroke="black" stroke-width="3.9204"/>
<line x1="2121.181334" y1="1514.484552" x2="1949.906471" y2="1394.556602" stroke="black" stroke-width="3.9204"/>
<line x1="628.031666" y1="104.836553" x2="761.547311" y2="104.836553" stroke="black" stroke-width="3.9204"/>
<line x1="761.547311" y1="104.836553" x2="761.547311" y2="238.625794" stroke="black" stroke-width="3.9204"/>
<line x1="761.547311" y1="238.625794" x2="628.031666" y2="238.625794" stroke="black" stroke-width="3.9204"/>
<line x1="628.031666" y1="238.625794" x2="628.031666" y2="104.836553" stroke="black" stroke-width="3.9204"/>
<line x1="627.758069" y1="104.562957" x2="761.547311" y2="238.625794" stroke="black" stroke-width="3.9204"/>
<line x1="628.031666" y1="238.352198" x2="761.273715" y2="104.836553" stroke="black" stroke-width="3.9204"/>
<line x1="200.015256" y1="1874.22844" x2="428.899217" y2="1874.22844" stroke="black" stroke-width="3.9204"/>
<line x1="428.899217" y1="1874.22844" x2="428.899217" y2="2103.581423" stroke="black" stroke-width="3.9204"/>
<line x1="428.899217" y1="2103.581423" x2="200.015256" y2="2103.581423" stroke="black" stroke-width="3.9204"/>
<line x1="200.015256" y1="2103.581423" x2="200.015256" y2="1874.22844" stroke="black" stroke-width="3.9204"/>
<line x1="199.546233" y1="1873.759413" x2="428.899217" y2="2103.581423" stroke="black" stroke-width="3.9204"/>
<line x1="200.015256" y1="2103.1124" x2="428.430194" y2="1874.22844" stroke="black" stroke-width="3.9204"/>
<line x1="378.964527" y1="1621.39274" x2="199.988938" y2="1669.3491" stroke="black" stroke-width="3.9204"/>
<line x1="199.988938" y1="1669.3491" x2="253.176906" y2="1867.849303" stroke="black" stroke-width="3.9204"/>
<line x1="253.176906" y1="1867.849303" x2="432.152495" y2="1819.892935" stroke="black" stroke-width="3.9204"/>
<line x1="432.152495" y1="1819.892935" x2="378.964527" y2="1621.39274" stroke="black" stroke-width="3.9204"/>
<line x1="386.375964" y1="1649.052599" x2="207.400379" y2="1697.008967" stroke="black" stroke-width="3.9204"/>
</g>
</svg>
