<?xml version="1.0"?>
<svg xmlns:xlink="http://www.w3.org/1999/xlink" width="2352.24" height="2506.68">
<image x="0" y="0" width="2352.24" height="2506.68" xlink:href="groundempty-03.png"/>
<g style="stroke-linecap:round">
<line x1="104.681368" y1="1211.868856" x2="104.681368" y2="936.045741" stroke="black" stroke-width="3.9204"/>
<line x1="104.681368" y1="936.045741" x2="55.347154" y2="936.045741" stroke="black" stroke-width="3.9204"/>
<line x1="55.347154" y1="936.045741" x2="55.347154" y2="1211.868856" stroke="black" stroke-width="3.9204"/>
<line x1="55.347154" y1="1211.868856" x2="104.681368" y2="1211.868856" stroke="black" stroke-width="3.9204"/>
<line x1="104.681368" y1="1198.974685" x2="121.499853" y2="1198.974685" stroke="black" stroke-width="3.9204"/>
<line x1="121.499853" y1="1198.974685" x2="121.499853" y2="949.500526" stroke="black" stroke-width="3.9204"/>
<line x1="104.681368" y1="949.500526" x2="121.499853" y2="949.500526" stroke="black" stroke-width="3.9204"/>
<line x1="2241.215706" y1="865.898328" x2="2241.215706" y2="1117.97001" stroke="black" stroke-width="3.9204"/>
<line x1="2241.215706" y1="1117.97001" x2="2286.301695" y2="1117.97001" stroke="black" stroke-width="3.9204"/>
<line x1="2286.301695" y1="1117.97001" x2="2286.301695" y2="865.898328" stroke="black" stroke-width="3.9204"/>
<line x1="2286.301695" y1="865.898328" x2="2241.215706" y2="865.898328" stroke="black" stroke-width="3.9204"/>
<line x1="2241.215706" y1="877.682168" x2="2225.84548" y2="877.682168" stroke="black" stroke-width="3.9204"/>
<line x1="2225.84548" y1="877.682168" x2="2225.84548" y2="1105.673829" stroke="black" stroke-width="3.9204"/>
<line x1="2241.215706" y1="1105.673829" x2="2225.84548" y2="1105.673829" stroke="black" stroke-width="3.9204"/>
<line x1="1161.502381" y1="1542.083578" x2="1181.935902" y2="1542.083578" stroke="black" stroke-width="3.9204"/>
<line x1="1181.935902" y1="1542.083578" x2="1181.935902" y2="1502.213292" stroke="black" stroke-width="3.9204"/>
<line x1="1181.935902" y1="1502.213292" x2="1161.502381" y2="1502.213292" stroke="black" stroke-width="3.9204"/>
<line x1="1161.502381" y1="1502.213292" x2="1161.502381" y2="1542.083578" stroke="black" stroke-width="3.9204"/>
<line x1="1381.785701" y1="1502.213292" x2="1381.785701" y2="1303.360245" stroke="black" stroke-width="3.9204"/>
<line x1="1382.284083" y1="1543.080334" x2="1402.717603" y2="1543.080334" stroke="black" stroke-width="3.9204"/>
<line x1="1402.717603" y1="1543.080334" x2="1402.717603" y2="1503.210048" stroke="black" stroke-width="3.9204"/>
<line x1="1402.717603" y1="1503.210048" x2="1382.284083" y2="1503.210048" stroke="black" stroke-width="3.9204"/>
<line x1="1382.284083" y1="1503.210048" x2="1382.284083" y2="1543.080334" stroke="black" stroke-width="3.9204"/>
<path d="m 1181.935902,1503.708426 a 199.84979899999996,199.84979899999996 0 0 1 199.84979900000008,-199.84979899999985" fill="none" stroke="black" stroke-width="3.9204"/>
<line x1="1474.645222" y1="911.202966" x2="1474.645222" y2="929.755304" stroke="black" stroke-width="3.9204"/>
<line x1="1474.645222" y1="929.755304" x2="1510.844908" y2="929.755304" stroke="black" stroke-width="3.9204"/>
<line x1="1510.844908" y1="929.755304" x2="1510.844908" y2="911.202966" stroke="black" stroke-width="3.9204"/>
<line x1="1510.844908" y1="911.202966" x2="1474.645222" y2="911.202966" stroke="black" stroke-width="3.9204"/>
<line x1="1510.844908" y1="1111.206235" x2="1691.390848" y2="1111.206235" stroke="black" stroke-width="3.9204"/>
<line x1="1473.740227" y1="1111.658732" x2="1473.740227" y2="1130.211071" stroke="black" stroke-width="3.9204"/>
<line x1="1473.740227" y1="1130.211071" x2="1509.939918" y2="1130.211071" stroke="black" stroke-width="3.9204"/>
<line x1="1509.939918" y1="1130.211071" x2="1509.939918" y2="1111.658732" stroke="black" stroke-width="3.9204"/>
<line x1="1509.939918" y1="1111.658732" x2="1473.740227" y2="1111.658732" stroke="black" stroke-width="3.9204"/>
<path d="m 1509.48742,929.755304 a 181.45093100000008,181.45093100000008 0 0 1 181.45093100000008,181.45093100000008" fill="none" stroke="black" stroke-width="3.9204"/>
<line x1="1639.595905" y1="380.263404" x2="1639.595905" y2="650.810604" stroke="black" stroke-width="3.9204"/>
<line x1="1639.595905" y1="650.810604" x2="1507.648705" y2="650.810604" stroke="black" stroke-width="3.9204"/>
<line x1="1507.648705" y1="380.263404" x2="1507.648705" y2="650.810604" stroke="black" stroke-width="3.9204"/>
<line x1="1639.595905" y1="380.263404" x2="1507.648705" y2="380.263404" stroke="black" stroke-width="3.9204"/>
<line x1="1632.943105" y1="386.916204" x2="1632.943105" y2="524.961804" stroke="black" stroke-width="3.9204"/>
<line x1="1632.943105" y1="524.961804" x2="1514.855905" y2="524.961804" stroke="black" stroke-width="3.9204"/>
<line x1="1514.855905" y1="386.916204" x2="1514.855905" y2="524.961804" stroke="black" stroke-width="3.9204"/>
<line x1="1632.943105" y1="386.916204" x2="1514.855905" y2="386.916204" stroke="black" stroke-width="3.9204"/>
<line x1="1625.181505" y1="539.376204" x2="1625.181505" y2="636.396204" stroke="black" stroke-width="3.9204"/>
<line x1="1604.668705" y1="539.376204" x2="1604.668705" y2="636.396204" stroke="black" stroke-width="3.9204"/>
<line x1="1583.601505" y1="539.930604" x2="1583.601505" y2="636.950604" stroke="black" stroke-width="3.9204"/>
<line x1="1563.088705" y1="539.930604" x2="1563.088705" y2="636.950604" stroke="black" stroke-width="3.9204"/>
<line x1="1542.575905" y1="539.376204" x2="1542.575905" y2="636.396204" stroke="black" stroke-width="3.9204"/>
<line x1="1522.063105" y1="539.376204" x2="1522.063105" y2="636.396204" stroke="black" stroke-width="3.9204"/>
<line x1="1514.855905" y1="439.584204" x2="1528.715905" y2="439.584204" stroke="black" stroke-width="3.9204"/>
<line x1="1528.715905" y1="439.584204" x2="1528.715905" y2="473.957004" stroke="black" stroke-width="3.9204"/>
<line x1="1528.715905" y1="473.957004" x2="1515.410305" y2="473.957004" stroke="black" stroke-width="3.9204"/>
<circle cx="1617.974305" cy="509.438604" r="8.316" fill="none" stroke="black" stroke-width="3.9204"/>
<line x1="1191.95425" y1="774.161562" x2="1173.272174" y2="774.161562" stroke="black" stroke-width="3.920396"/>
<line x1="1173.272174" y1="774.161562" x2="1173.272174" y2="810.614396" stroke="black" stroke-width="3.920396"/>
<line x1="1173.272174" y1="810.614396" x2="1191.95425" y2="810.614396" stroke="black" stroke-width="3.920396"/>
<line x1="1191.95425" y1="810.614396" x2="1191.95425" y2="774.161562" stroke="black" stroke-width="3.920396"/>
<line x1="990.552357" y1="810.614396" x2="990.552357" y2="992.422894" stroke="black" stroke-width="3.920396"/>
<line x1="990.096695" y1="773.250243" x2="971.414619" y2="773.250243" stroke="black" stroke-width="3.920396"/>
<line x1="971.414619" y1="773.250243" x2="971.414619" y2="809.703073" stroke="black" stroke-width="3.920396"/>
<line x1="971.414619" y1="809.703073" x2="990.096695" y2="809.703073" stroke="black" stroke-width="3.920396"/>
<line x1="990.096695" y1="809.703073" x2="990.096695" y2="773.250243" stroke="black" stroke-width="3.920396"/>
<path d="m 1173.272174,809.247412 a 182.71981899999992,182.71981899999992 0 0 1 -182.71981699999992,182.7198209999999" fill="none" stroke="black" stroke-width="3.920396"/>
<line x1="1789.386307" y1="235.945773" x2="1941.975617" y2="235.945773" stroke="black" stroke-width="3.9204"/>
<line x1="1941.975617" y1="235.945773" x2="1941.975617" y2="388.847765" stroke="black" stroke-width="3.9204"/>
<line x1="1941.975617" y1="388.847765" x2="1789.386307" y2="388.847765" stroke="black" stroke-width="3.9204"/>
<line x1="1789.386307" y1="388.847765" x2="1789.386307" y2="235.945773" stroke="black" stroke-width="3.9204"/>
<line x1="1789.073625" y1="235.633092" x2="1941.975617" y2="388.847765" stroke="black" stroke-width="3.9204"/>
<line x1="1789.386307" y1="388.535083" x2="1941.662931" y2="235.945773" stroke="black" stroke-width="3.9204"/>
<line x1="1246.017857" y1="379.392726" x2="1062.273857" y2="379.392726" stroke="black" stroke-width="3.9204"/>
<line x1="1062.273857" y1="379.392726" x2="1062.273857" y2="330.288726" stroke="black" stroke-width="3.9204"/>
<line x1="1246.017857" y1="330.288726" x2="1062.273857" y2="330.288726" stroke="black" stroke-width="3.9204"/>
<line x1="1246.017857" y1="379.392726" x2="1246.017857" y2="330.288726" stroke="black" stroke-width="3.9204"/>
<line x1="1204.437857" y1="407.112726" x2="1204.437857" y2="379.392726" stroke="black" stroke-width="3.9204"/>
<line x1="1105.437857" y1="379.392726" x2="1105.437857" y2="408.696726" stroke="black" stroke-width="3.9204"/>
<circle cx="1155.729857" cy="452.256726" r="66.528" fill="none" stroke="black" stroke-width="3.9204"/>
<circle cx="1155.729857" cy="452.256726" r="57.024" fill="none" stroke="black" stroke-width="3.9204"/>
<line x1="960.909353" y1="534.445338" x2="936.357353" y2="553.057338" stroke="black" stroke-width="3.9204"/>
<line x1="936.357353" y1="553.057338" x2="936.357353" y2="700.369338" stroke="black" stroke-width="3.9204"/>
<line x1="936.357353" y1="700.369338" x2="964.473353" y2="719.377338" stroke="black" stroke-width="3.9204"/>
<line x1="963.681353" y1="556.225338" x2="963.681353" y2="699.181338" stroke="black" stroke-width="3.9204"/>
<circle cx="985.461353" cy="625.525338" r="13.068000000000001" fill="none" stroke="black" stroke-width="3.9204"/>
<path d="m 963.014006,557.778589 a 74.84400060548079,74.84400060548079 0 1 1 0.4020470000000387,139.60900400000003" fill="none" stroke="black" stroke-width="3.9204"/>
<path d="m 960.251989,534.491639 a 95.4359995551865,95.4359995551865 0 1 1 3.074960000000033,184.466997" fill="none" stroke="black" stroke-width="3.9204"/>
<line x1="1473.349977" y1="722.094401" x2="1473.349977" y2="330.846401" stroke="black" stroke-width="3.9204"/>
<line x1="1473.349977" y1="330.846401" x2="1299.109977" y2="330.846401" stroke="black" stroke-width="3.9204"/>
<line x1="1299.109977" y1="330.846401" x2="1299.109977" y2="722.094401" stroke="black" stroke-width="3.9204"/>
<line x1="1299.109977" y1="722.094401" x2="1473.349977" y2="722.094401" stroke="black" stroke-width="3.9204"/>
<line x1="1326.037977" y1="406.086401" x2="1326.037977" y2="690.414401" stroke="black" stroke-width="3.9204"/>
<line x1="1326.037977" y1="690.414401" x2="1444.045977" y2="690.414401" stroke="black" stroke-width="3.9204"/>
<line x1="1444.045977" y1="690.414401" x2="1444.045977" y2="400.542401" stroke="black" stroke-width="3.9204"/>
<path d="m 1325.782553,406.896974 a 63.35999936674695,63.35999936674695 0 0 1 119.37433099999998,-4.293813" fill="none" stroke="black" stroke-width="3.9204"/>
<line x1="1610.754085" y1="1914.454238" x2="1610.754085" y2="2104.534238" stroke="black" stroke-width="3.9204"/>
<line x1="1610.754085" y1="2104.534238" x2="2074.549285" y2="2104.534238" stroke="black" stroke-width="3.9204"/>
<line x1="2074.549285" y1="2104.534238" x2="2074.549285" y2="1914.454238" stroke="black" stroke-width="3.9204"/>
<line x1="2074.549285" y1="1914.454238" x2="2050.789285" y2="1914.454238" stroke="black" stroke-width="3.9204"/>
<line x1="2050.789285" y1="1914.454238" x2="2050.789285" y2="2081.724638" stroke="black" stroke-width="3.9204"/>
<line x1="2050.789285" y1="2081.724638" x2="1635.464485" y2="2081.724638" stroke="black" stroke-width="3.9204"/>
<line x1="1635.464485" y1="2081.724638" x2="1635.464485" y2="1914.454238" stroke="black" stroke-width="3.9204"/>
<line x1="1635.464485" y1="1914.454238" x2="1610.754085" y2="1914.454238" stroke="black" stroke-width="3.9204"/>
<line x1="1635.464485" y1="1920.156638" x2="2050.789285" y2="1920.156638" stroke="black" stroke-width="3.9204"/>
<line x1="1842.651685" y1="1919.206238" x2="1842.651685" y2="2080.774238" stroke="black" stroke-width="3.9204"/>
<line x1="927.659605" y1="1215.759996" x2="927.659605" y2="1196.116911" stroke="black" stroke-width="3.9204"/>
<line x1="927.659605" y1="1196.116911" x2="889.331632" y2="1196.116911" stroke="black" stroke-width="3.9204"/>
<line x1="889.331632" y1="1196.116911" x2="889.331632" y2="1215.759996" stroke="black" stroke-width="3.9204"/>
<line x1="889.331632" y1="1215.759996" x2="927.659605" y2="1215.759996" stroke="black" stroke-width="3.9204"/>
<line x1="889.331632" y1="1003.997951" x2="698.170873" y2="1003.997951" stroke="black" stroke-width="3.9204"/>
<line x1="928.617806" y1="1003.518854" x2="928.617806" y2="983.875769" stroke="black" stroke-width="3.9204"/>
<line x1="928.617806" y1="983.875769" x2="890.289833" y2="983.875769" stroke="black" stroke-width="3.9204"/>
<line x1="890.289833" y1="983.875769" x2="890.289833" y2="1003.518854" stroke="black" stroke-width="3.9204"/>
<line x1="890.289833" y1="1003.518854" x2="928.617806" y2="1003.518854" stroke="black" stroke-width="3.9204"/>
<path d="m 890.768934,1196.116911 a 192.11896000000002,192.11896000000002 0 0 1 -192.1189599999999,-192.11896000000013" fill="none" stroke="black" stroke-width="3.9204"/>
<line x1="924.972773" y1="1470.753322" x2="924.972773" y2="1451.746906" stroke="black" stroke-width="3.9204"/>
<line x1="924.972773" y1="1451.746906" x2="887.88708" y2="1451.746906" stroke="black" stroke-width="3.9204"/>
<line x1="887.88708" y1="1451.746906" x2="887.88708" y2="1470.753322" stroke="black" stroke-width="3.9204"/>
<line x1="887.88708" y1="1470.753322" x2="924.972773" y2="1470.753322" stroke="black" stroke-width="3.9204"/>
<line x1="887.88708" y1="1265.854867" x2="702.922184" y2="1265.854867" stroke="black" stroke-width="3.9204"/>
<line x1="925.899916" y1="1265.391294" x2="925.899916" y2="1246.384878" stroke="black" stroke-width="3.9204"/>
<line x1="925.899916" y1="1246.384878" x2="888.814223" y2="1246.384878" stroke="black" stroke-width="3.9204"/>
<line x1="888.814223" y1="1246.384878" x2="888.814223" y2="1265.391294" stroke="black" stroke-width="3.9204"/>
<line x1="888.814223" y1="1265.391294" x2="925.899916" y2="1265.391294" stroke="black" stroke-width="3.9204"/>
<path d="m 889.277792,1451.746906 a 185.892039,185.892039 0 0 1 -185.89203899999995,-185.89203900000007" fill="none" stroke="black" stroke-width="3.9204"/>
<line x1="529.959308" y1="595.53766" x2="529.959308" y2="386.17246" stroke="black" stroke-width="3.9204"/>
<line x1="529.959308" y1="386.17246" x2="198.744908" y2="386.17246" stroke="black" stroke-width="3.9204"/>
<line x1="198.744908" y1="386.17246" x2="198.744908" y2="595.53766" stroke="black" stroke-width="3.9204"/>
<line x1="198.744908" y1="595.53766" x2="529.959308" y2="595.53766" stroke="black" stroke-width="3.9204"/>
<line x1="257.986508" y1="596.21086" x2="257.986508" y2="385.49926" stroke="black" stroke-width="3.9204"/>
<line x1="257.986508" y1="385.49926" x2="307.803308" y2="594.86446" stroke="black" stroke-width="3.9204"/>
<line x1="307.803308" y1="594.86446" x2="354.254108" y2="563.22406" stroke="black" stroke-width="3.9204"/>
<line x1="354.254108" y1="563.22406" x2="257.313308" y2="385.49926" stroke="black" stroke-width="3.9204"/>
<line x1="2086.701566" y1="772.215313" x2="2101.060091" y2="874.3815" stroke="black" stroke-width="3.9204"/>
<line x1="2101.060091" y1="874.3815" x2="2090.034964" y2="875.93098" stroke="black" stroke-width="3.9204"/>
<line x1="2075.676439" y1="773.764794" x2="2090.034964" y2="875.93098" stroke="black" stroke-width="3.9204"/>
<line x1="2086.701566" y1="772.215313" x2="2075.676439" y2="773.764794" stroke="black" stroke-width="3.9204"/>
<line x1="2077.122623" y1="784.054913" x2="2052.660745" y2="785.993753" stroke="black" stroke-width="3.9204"/>
<line x1="2088.58878" y1="865.640861" x2="2063.805088" y2="870.623036" stroke="black" stroke-width="3.9204"/>
<line x1="1730.22243" y1="822.31519" x2="1744.58095" y2="924.481376" stroke="black" stroke-width="3.9204"/>
<line x1="1744.58095" y1="924.481376" x2="1754.87107" y2="923.035192" stroke="black" stroke-width="3.9204"/>
<line x1="1740.512549" y1="820.86901" x2="1754.87107" y2="923.035192" stroke="black" stroke-width="3.9204"/>
<line x1="1730.22243" y1="822.31519" x2="1740.512549" y2="820.86901" stroke="black" stroke-width="3.9204"/>
<line x1="1743.325452" y1="830.217524" x2="1767.374136" y2="825.338646" stroke="black" stroke-width="3.9204"/>
<line x1="1754.791608" y1="911.803468" x2="1780.091791" y2="910.496339" stroke="black" stroke-width="3.9204"/>
<line x1="1991.670995" y1="1018.673647" x2="1990.121511" y2="1007.64852" stroke="black" stroke-width="3.9204"/>
<line x1="1990.121511" y1="1007.64852" x2="1887.955328" y2="1022.007041" stroke="black" stroke-width="3.9204"/>
<line x1="1889.504805" y1="1033.032168" x2="1887.955328" y2="1022.007041" stroke="black" stroke-width="3.9204"/>
<line x1="1991.670995" y1="1018.673647" x2="1889.504805" y2="1033.032168" stroke="black" stroke-width="3.9204"/>
<line x1="1898.980455" y1="1020.457556" x2="1893.263273" y2="995.777165" stroke="black" stroke-width="3.9204"/>
<line x1="1979.831395" y1="1009.0947" x2="1977.789255" y2="983.897814" stroke="black" stroke-width="3.9204"/>
<line x1="1942.409423" y1="662.826218" x2="1943.958907" y2="673.851345" stroke="black" stroke-width="3.9204"/>
<line x1="1943.958907" y1="673.851345" x2="1841.792717" y2="688.209865" stroke="black" stroke-width="3.9204"/>
<line x1="1840.24324" y1="677.184738" x2="1841.792717" y2="688.209865" stroke="black" stroke-width="3.9204"/>
<line x1="1942.409423" y1="662.826218" x2="1840.24324" y2="677.184738" stroke="black" stroke-width="3.9204"/>
<line x1="1852.817848" y1="686.660385" x2="1854.124977" y2="711.960571" stroke="black" stroke-width="3.9204"/>
<line x1="1933.668784" y1="675.297525" x2="1938.650959" y2="700.081221" stroke="black" stroke-width="3.9204"/>
<circle cx="1915.957118" cy="847.929191" r="149.93084053523273" fill="none" stroke="black" stroke-width="3.9204"/>
<line x1="901.134547" y1="394.871954" x2="828.047246" y2="238.135733" stroke="black" stroke-width="3.9204"/>
<line x1="828.047246" y1="238.135733" x2="654.212525" y2="319.196196" stroke="black" stroke-width="3.9204"/>
<line x1="654.212525" y1="319.196196" x2="727.299825" y2="475.932418" stroke="black" stroke-width="3.9204"/>
<line x1="727.299825" y1="475.932418" x2="901.134547" y2="394.871954" stroke="black" stroke-width="3.9204"/>
<line x1="876.911674" y1="406.167264" x2="803.824374" y2="249.431043" stroke="black" stroke-width="3.9204"/>
<line x1="2139.715655" y1="1520.412272" x2="1997.117983" y2="1367.494987" stroke="black" stroke-width="3.9204"/>
<line x1="1997.117983" y1="1367.494987" x2="1827.518814" y2="1525.64877" stroke="black" stroke-width="3.9204"/>
<line x1="1827.518814" y1="1525.64877" x2="1970.116485" y2="1678.566055" stroke="black" stroke-width="3.9204"/>
<line x1="1970.116485" y1="1678.566055" x2="2139.715655" y2="1520.412272" stroke="black" stroke-width="3.9204"/>
<line x1="2116.082984" y1="1542.450092" x2="1973.485309" y2="1389.532811" stroke="black" stroke-width="3.9204"/>
<line x1="1602.358259" y1="1532.099646" x2="1459.760588" y2="1685.016931" stroke="black" stroke-width="3.9204"/>
<line x1="1459.760588" y1="1685.016931" x2="1629.359757" y2="1843.170714" stroke="black" stroke-width="3.9204"/>
<line x1="1629.359757" y1="1843.170714" x2="1771.957428" y2="1690.253429" stroke="black" stroke-width="3.9204"/>
<line x1="1771.957428" y1="1690.253429" x2="1602.358259" y2="1532.099646" stroke="black" stroke-width="3.9204"/>
<line x1="1625.990933" y1="1554.13747" x2="1483.393258" y2="1707.054751" stroke="black" stroke-width="3.9204"/>
<line x1="628.031666" y1="104.836553" x2="761.547311" y2="104.836553" stroke="black" stroke-width="3.9204"/>
<line x1="761.547311" y1="104.836553" x2="761.547311" y2="238.625794" stroke="black" stroke-width="3.9204"/>
<line x1="761.547311" y1="238.625794" x2="628.031666" y2="238.625794" stroke="black" stroke-width="3.9204"/>
<line x1="628.031666" y1="238.625794" x2="628.031666" y2="104.836553" stroke="black" stroke-width="3.9204"/>
<line x1="627.758069" y1="104.562957" x2="761.547311" y2="238.625794" stroke="black" stroke-width="3.9204"/>
<line x1="628.031666" y1="238.352198" x2="761.273715" y2="104.836553" stroke="black" stroke-width="3.9204"/>
<line x1="200.015256" y1="1874.22844" x2="428.899217" y2="1874.22844" stroke="black" stroke-width="3.9204"/>
<line x1="428.899217" y1="1874.22844" x2="428.899217" y2="2103.581423" stroke="black" stroke-width="3.9204"/>
<line x1="428.899217" y1="2103.581423" x2="200.015256" y2="2103.581423" stroke="black" stroke-width="3.9204"/>
<line x1="200.015256" y1="2103.581423" x2="200.015256" y2="1874.22844" stroke="black" stroke-width="3.9204"/>
<line x1="199.546233" y1="1873.759413" x2="428.899217" y2="2103.581423" stroke="black" stroke-width="3.9204"/>
<line x1="200.015256" y1="2103.1124" x2="428.430194" y2="1874.22844" stroke="black" stroke-width="3.9204"/>
<line x1="344.488023" y1="1621.39274" x2="199.988942" y2="1708.216543" stroke="black" stroke-width="3.9204"/>
<line x1="199.988942" y1="1708.216543" x2="296.284436" y2="1868.479157" stroke="black" stroke-width="3.9204"/>
<line x1="296.284436" y1="1868.479157" x2="440.783513" y2="1781.655353" stroke="black" stroke-width="3.9204"/>
<line x1="440.783513" y1="1781.655353" x2="344.488023" y2="1621.39274" stroke="black" stroke-width="3.9204"/>
<line x1="357.906245" y1="1643.724415" x2="213.407168" y2="1730.548219" stroke="black" stroke-width="3.9204"/>
</g>
</svg>
