<?xml version="1.0"?>
<svg xmlns:xlink="http://www.w3.org/1999/xlink" width="2352.24" height="2506.68">
<image x="0" y="0" width="2352.24" height="2506.68" xlink:href="groundempty-03.png"/>
<g style="stroke-linecap:round">
<line x1="104.681368" y1="1211.868856" x2="104.681368" y2="936.045741" stroke="black" stroke-width="3.9204"/>
<line x1="104.681368" y1="936.045741" x2="55.347154" y2="936.045741" stroke="black" stroke-width="3.9204"/>
<line x1="55.347154" y1="936.045741" x2="55.347154" y2="1211.868856" stroke="black" stroke-width="3.9204"/>
<line x1="55.347154" y1="1211.868856" x2="104.681368" y2="1211.868856" stroke="black" stroke-width="3.9204"/>
<line x1="104.681368" y1="1198.974685" x2="121.499853" y2="1198.974685" stroke="black" stroke-width="3.9204"/>
<line x1="121.499853" y1="1198.974685" x2="121.499853" y2="949.500526" stroke="black" stroke-width="3.9204"/>
<line x1="104.681368" y1="949.500526" x2="121.499853" y2="949.500526" stroke="black" stroke-width="3.9204"/>
<line x1="2241.215706" y1="865.898328" x2="2241.215706" y2="1117.97001" stroke="black" stroke-width="3.9204"/>
<line x1="2241.215706" y1="1117.97001" x2="2286.301695" y2="1117.97001" stroke="black" stroke-width="3.9204"/>
<line x1="2286.301695" y1="1117.97001" x2="2286.301695" y2="865.898328" stroke="black" stroke-width="3.9204"/>
<line x1="2286.301695" y1="865.898328" x2="2241.215706" y2="865.898328" stroke="black" stroke-width="3.9204"/>
<line x1="2241.215706" y1="877.682168" x2="2225.84548" y2="877.682168" stroke="black" stroke-width="3.9204"/>
<line x1="2225.84548" y1="877.682168" x2="2225.84548" y2="1105.673829" stroke="black" stroke-width="3.9204"/>
<line x1="2241.215706" y1="1105.673829" x2="2225.84548" y2="1105.673829" stroke="black" stroke-width="3.9204"/>
<line x1="1161.502381" y1="1542.083578" x2="1181.935902" y2="1542.083578" stroke="black" stroke-width="3.9204"/>
<line x1="1181.935902" y1="1542.083578" x2="1181.935902" y2="1502.213292" stroke="black" stroke-width="3.9204"/>
<line x1="1181.935902" y1="1502.213292" x2="1161.502381" y2="1502.213292" stroke="black" stroke-width="3.9204"/>
<line x1="1161.502381" y1="1502.213292" x2="1161.502381" y2="1542.083578" stroke="black" stroke-width="3.9204"/>
<line x1="1381.785701" y1="1502.213292" x2="1381.785701" y2="1303.360245" stroke="black" stroke-width="3.9204"/>
<line x1="1382.284083" y1="1543.080334" x2="1402.717603" y2="1543.080334" stroke="black" stroke-width="3.9204"/>
<line x1="1402.717603" y1="1543.080334" x2="1402.717603" y2="1503.210048" stroke="black" stroke-width="3.9204"/>
<line x1="1402.717603" y1="1503.210048" x2="1382.284083" y2="1503.210048" stroke="black" stroke-width="3.9204"/>
<line x1="1382.284083" y1="1503.210048" x2="1382.284083" y2="1543.080334" stroke="black" stroke-width="3.9204"/>
<path d="m 1181.935902,1503.708426 a 199.84979899999996,199.84979899999996 0 0 1 199.84979900000008,-199.84979899999985" fill="none" stroke="black" stroke-width="3.9204"/>
<line x1="1474.645222" y1="911.202966" x2="1474.645222" y2="929.755304" stroke="black" stroke-width="3.9204"/>
<line x1="1474.645222" y1="929.755304" x2="1510.844908" y2="929.755304" stroke="black" stroke-width="3.9204"/>
<line x1="1510.844908" y1="929.755304" x2="1510.844908" y2="911.202966" stroke="black" stroke-width="3.9204"/>
<line x1="1510.844908" y1="911.202966" x2="1474.645222" y2="911.202966" stroke="black" stroke-width="3.9204"/>
<line x1="1510.844908" y1="1111.206235" x2="1691.390848" y2="1111.206235" stroke="black" stroke-width="3.9204"/>
<line x1="1473.740227" y1="1111.658732" x2="1473.740227" y2="1130.211071" stroke="black" stroke-width="3.9204"/>
<line x1="1473.740227" y1="1130.211071" x2="1509.939918" y2="1130.211071" stroke="black" stroke-width="3.9204"/>
<line x1="1509.939918" y1="1130.211071" x2="1509.939918" y2="1111.658732" stroke="black" stroke-width="3.9204"/>
<line x1="1509.939918" y1="1111.658732" x2="1473.740227" y2="1111.658732" stroke="black" stroke-width="3.9204"/>
<path d="m 1509.48742,929.755304 a 181.45093100000008,181.45093100000008 0 0 1 181.45093100000008,181.45093100000008" fill="none" stroke="black" stroke-width="3.9204"/>
<line x1="1643.872705" y1="316.784695" x2="1643.872705" y2="710.028566" stroke="black" stroke-width="3.9204"/>
<line x1="1644.868986" y1="713.983973" x2="1508.80021" y2="713.983973" stroke="black" stroke-width="3.9204"/>
<line x1="1507.648705" y1="317.249084" x2="1507.648705" y2="714.289312" stroke="black" stroke-width="3.9204"/>
<line x1="1643.177955" y1="317.983973" x2="1507.913898" y2="317.983973" stroke="black" stroke-width="3.9204"/>
<line x1="1632.784705" y1="328.279973" x2="1632.784705" y2="451.831973" stroke="black" stroke-width="3.9204"/>
<line x1="1632.784705" y1="451.831973" x2="1518.736705" y2="451.831973" stroke="black" stroke-width="3.9204"/>
<line x1="1518.736705" y1="328.279973" x2="1518.736705" y2="451.831973" stroke="black" stroke-width="3.9204"/>
<line x1="1632.784705" y1="328.279973" x2="1518.736705" y2="328.279973" stroke="black" stroke-width="3.9204"/>
<line x1="1625.656705" y1="470.839973" x2="1625.656705" y2="557.959973" stroke="black" stroke-width="3.9204"/>
<line x1="1605.856705" y1="470.839973" x2="1605.856705" y2="557.959973" stroke="black" stroke-width="3.9204"/>
<line x1="1585.264705" y1="471.631973" x2="1585.264705" y2="557.959973" stroke="black" stroke-width="3.9204"/>
<line x1="1565.464705" y1="471.631973" x2="1565.464705" y2="557.959973" stroke="black" stroke-width="3.9204"/>
<line x1="1545.664705" y1="470.839973" x2="1545.664705" y2="557.959973" stroke="black" stroke-width="3.9204"/>
<line x1="1525.864705" y1="470.839973" x2="1525.864705" y2="557.959973" stroke="black" stroke-width="3.9204"/>
<line x1="1519.528705" y1="375.799973" x2="1532.992705" y2="375.799973" stroke="black" stroke-width="3.9204"/>
<line x1="1532.992705" y1="375.799973" x2="1532.992705" y2="405.895973" stroke="black" stroke-width="3.9204"/>
<line x1="1532.992705" y1="405.895973" x2="1520.320705" y2="405.895973" stroke="black" stroke-width="3.9204"/>
<line x1="1632.784705" y1="578.551973" x2="1632.784705" y2="702.103973" stroke="black" stroke-width="3.9204"/>
<line x1="1632.784705" y1="702.103973" x2="1518.736705" y2="702.103973" stroke="black" stroke-width="3.9204"/>
<line x1="1518.736705" y1="578.551973" x2="1518.736705" y2="702.103973" stroke="black" stroke-width="3.9204"/>
<line x1="1632.784705" y1="578.551973" x2="1518.736705" y2="578.551973" stroke="black" stroke-width="3.9204"/>
<line x1="1518.736705" y1="626.071973" x2="1532.200705" y2="626.071973" stroke="black" stroke-width="3.9204"/>
<line x1="1532.200705" y1="626.071973" x2="1532.200705" y2="656.167973" stroke="black" stroke-width="3.9204"/>
<line x1="1532.200705" y1="656.167973" x2="1519.528705" y2="656.167973" stroke="black" stroke-width="3.9204"/>
<circle cx="1618.528705" cy="437.575973" r="7.128" fill="none" stroke="black" stroke-width="3.9204"/>
<circle cx="1617.736705" cy="687.847973" r="7.128" fill="none" stroke="black" stroke-width="3.9204"/>
<line x1="1191.95425" y1="774.161562" x2="1173.272174" y2="774.161562" stroke="black" stroke-width="3.920396"/>
<line x1="1173.272174" y1="774.161562" x2="1173.272174" y2="810.614396" stroke="black" stroke-width="3.920396"/>
<line x1="1173.272174" y1="810.614396" x2="1191.95425" y2="810.614396" stroke="black" stroke-width="3.920396"/>
<line x1="1191.95425" y1="810.614396" x2="1191.95425" y2="774.161562" stroke="black" stroke-width="3.920396"/>
<line x1="990.552357" y1="810.614396" x2="990.552357" y2="992.422894" stroke="black" stroke-width="3.920396"/>
<line x1="990.096695" y1="773.250243" x2="971.414619" y2="773.250243" stroke="black" stroke-width="3.920396"/>
<line x1="971.414619" y1="773.250243" x2="971.414619" y2="809.703073" stroke="black" stroke-width="3.920396"/>
<line x1="971.414619" y1="809.703073" x2="990.096695" y2="809.703073" stroke="black" stroke-width="3.920396"/>
<line x1="990.096695" y1="809.703073" x2="990.096695" y2="773.250243" stroke="black" stroke-width="3.920396"/>
<path d="m 1173.272174,809.247412 a 182.71981899999992,182.71981899999992 0 0 1 -182.71981699999992,182.7198209999999" fill="none" stroke="black" stroke-width="3.920396"/>
<line x1="1789.386307" y1="235.945773" x2="1941.975617" y2="235.945773" stroke="black" stroke-width="3.9204"/>
<line x1="1941.975617" y1="235.945773" x2="1941.975617" y2="388.847765" stroke="black" stroke-width="3.9204"/>
<line x1="1941.975617" y1="388.847765" x2="1789.386307" y2="388.847765" stroke="black" stroke-width="3.9204"/>
<line x1="1789.386307" y1="388.847765" x2="1789.386307" y2="235.945773" stroke="black" stroke-width="3.9204"/>
<line x1="1789.073625" y1="235.633092" x2="1941.975617" y2="388.847765" stroke="black" stroke-width="3.9204"/>
<line x1="1789.386307" y1="388.535083" x2="1941.662931" y2="235.945773" stroke="black" stroke-width="3.9204"/>
<line x1="1246.017857" y1="379.392726" x2="1062.273857" y2="379.392726" stroke="black" stroke-width="3.9204"/>
<line x1="1062.273857" y1="379.392726" x2="1062.273857" y2="330.288726" stroke="black" stroke-width="3.9204"/>
<line x1="1246.017857" y1="330.288726" x2="1062.273857" y2="330.288726" stroke="black" stroke-width="3.9204"/>
<line x1="1246.017857" y1="379.392726" x2="1246.017857" y2="330.288726" stroke="black" stroke-width="3.9204"/>
<line x1="1204.437857" y1="407.112726" x2="1204.437857" y2="379.392726" stroke="black" stroke-width="3.9204"/>
<line x1="1105.437857" y1="379.392726" x2="1105.437857" y2="408.696726" stroke="black" stroke-width="3.9204"/>
<circle cx="1155.729857" cy="452.256726" r="66.528" fill="none" stroke="black" stroke-width="3.9204"/>
<circle cx="1155.729857" cy="452.256726" r="57.024" fill="none" stroke="black" stroke-width="3.9204"/>
<line x1="960.909353" y1="534.445338" x2="936.357353" y2="553.057338" stroke="black" stroke-width="3.9204"/>
<line x1="936.357353" y1="553.057338" x2="936.357353" y2="700.369338" stroke="black" stroke-width="3.9204"/>
<line x1="936.357353" y1="700.369338" x2="964.473353" y2="719.377338" stroke="black" stroke-width="3.9204"/>
<line x1="963.681353" y1="556.225338" x2="963.681353" y2="699.181338" stroke="black" stroke-width="3.9204"/>
<circle cx="985.461353" cy="625.525338" r="13.068000000000001" fill="none" stroke="black" stroke-width="3.9204"/>
<path d="m 963.014006,557.778589 a 74.84400060548079,74.84400060548079 0 1 1 0.4020470000000387,139.60900400000003" fill="none" stroke="black" stroke-width="3.9204"/>
<path d="m 960.251989,534.491639 a 95.4359995551865,95.4359995551865 0 1 1 3.074960000000033,184.466997" fill="none" stroke="black" stroke-width="3.9204"/>
<line x1="1473.349977" y1="722.094401" x2="1473.349977" y2="330.846401" stroke="black" stroke-width="3.9204"/>
<line x1="1473.349977" y1="330.846401" x2="1299.109977" y2="330.846401" stroke="black" stroke-width="3.9204"/>
<line x1="1299.109977" y1="330.846401" x2="1299.109977" y2="722.094401" stroke="black" stroke-width="3.9204"/>
<line x1="1299.109977" y1="722.094401" x2="1473.349977" y2="722.094401" stroke="black" stroke-width="3.9204"/>
<line x1="1326.037977" y1="406.086401" x2="1326.037977" y2="690.414401" stroke="black" stroke-width="3.9204"/>
<line x1="1326.037977" y1="690.414401" x2="1444.045977" y2="690.414401" stroke="black" stroke-width="3.9204"/>
<line x1="1444.045977" y1="690.414401" x2="1444.045977" y2="400.542401" stroke="black" stroke-width="3.9204"/>
<path d="m 1325.782553,406.896974 a 63.35999936674695,63.35999936674695 0 0 1 119.37433099999998,-4.293813" fill="none" stroke="black" stroke-width="3.9204"/>
<line x1="1610.024316" y1="1914.454238" x2="1610.024316" y2="2104.534238" stroke="black" stroke-width="3.9204"/>
<line x1="1610.024316" y1="2104.534238" x2="2073.819516" y2="2104.534238" stroke="black" stroke-width="3.9204"/>
<line x1="2073.819516" y1="2104.534238" x2="2073.819516" y2="1914.454238" stroke="black" stroke-width="3.9204"/>
<line x1="2073.819516" y1="1914.454238" x2="2050.059516" y2="1914.454238" stroke="black" stroke-width="3.9204"/>
<line x1="2050.059516" y1="1914.454238" x2="2050.059516" y2="2081.724638" stroke="black" stroke-width="3.9204"/>
<line x1="2050.059516" y1="2081.724638" x2="1634.734716" y2="2081.724638" stroke="black" stroke-width="3.9204"/>
<line x1="1634.734716" y1="2081.724638" x2="1634.734716" y2="1914.454238" stroke="black" stroke-width="3.9204"/>
<line x1="1634.734716" y1="1914.454238" x2="1610.024316" y2="1914.454238" stroke="black" stroke-width="3.9204"/>
<line x1="1634.734716" y1="1920.156638" x2="2050.059516" y2="1920.156638" stroke="black" stroke-width="3.9204"/>
<line x1="1841.921916" y1="1919.206238" x2="1841.921916" y2="2080.774238" stroke="black" stroke-width="3.9204"/>
<line x1="927.659605" y1="1215.759996" x2="927.659605" y2="1196.116911" stroke="black" stroke-width="3.9204"/>
<line x1="927.659605" y1="1196.116911" x2="889.331632" y2="1196.116911" stroke="black" stroke-width="3.9204"/>
<line x1="889.331632" y1="1196.116911" x2="889.331632" y2="1215.759996" stroke="black" stroke-width="3.9204"/>
<line x1="889.331632" y1="1215.759996" x2="927.659605" y2="1215.759996" stroke="black" stroke-width="3.9204"/>
<line x1="889.331632" y1="1003.997951" x2="698.170873" y2="1003.997951" stroke="black" stroke-width="3.9204"/>
<line x1="928.617806" y1="1003.518854" x2="928.617806" y2="983.875769" stroke="black" stroke-width="3.9204"/>
<line x1="928.617806" y1="983.875769" x2="890.289833" y2="983.875769" stroke="black" stroke-width="3.9204"/>
<line x1="890.289833" y1="983.875769" x2="890.289833" y2="1003.518854" stroke="black" stroke-width="3.9204"/>
<line x1="890.289833" y1="1003.518854" x2="928.617806" y2="1003.518854" stroke="black" stroke-width="3.9204"/>
<path d="m 890.768934,1196.116911 a 192.11896000000002,192.11896000000002 0 0 1 -192.1189599999999,-192.11896000000013" fill="none" stroke="black" stroke-width="3.9204"/>
<line x1="924.972773" y1="1470.753322" x2="924.972773" y2="1451.746906" stroke="black" stroke-width="3.9204"/>
<line x1="924.972773" y1="1451.746906" x2="887.88708" y2="1451.746906" stroke="black" stroke-width="3.9204"/>
<line x1="887.88708" y1="1451.746906" x2="887.88708" y2="1470.753322" stroke="black" stroke-width="3.9204"/>
<line x1="887.88708" y1="1470.753322" x2="924.972773" y2="1470.753322" stroke="black" stroke-width="3.9204"/>
<line x1="887.88708" y1="1265.854867" x2="702.922184" y2="1265.854867" stroke="black" stroke-width="3.9204"/>
<line x1="925.899916" y1="1265.391294" x2="925.899916" y2="1246.384878" stroke="black" stroke-width="3.9204"/>
<line x1="925.899916" y1="1246.384878" x2="888.814223" y2="1246.384878" stroke="black" stroke-width="3.9204"/>
<line x1="888.814223" y1="1246.384878" x2="888.814223" y2="1265.391294" stroke="black" stroke-width="3.9204"/>
<line x1="888.814223" y1="1265.391294" x2="925.899916" y2="1265.391294" stroke="black" stroke-width="3.9204"/>
<path d="m 889.277792,1451.746906 a 185.892039,185.892039 0 0 1 -185.89203899999995,-185.89203900000007" fill="none" stroke="black" stroke-width="3.9204"/>
<line x1="530.387554" y1="740.712729" x2="530.387554" y2="531.347529" stroke="black" stroke-width="3.9204"/>
<line x1="530.387554" y1="531.347529" x2="199.173154" y2="531.347529" stroke="black" stroke-width="3.9204"/>
<line x1="199.173154" y1="531.347529" x2="199.173154" y2="740.712729" stroke="black" stroke-width="3.9204"/>
<line x1="199.173154" y1="740.712729" x2="530.387554" y2="740.712729" stroke="black" stroke-width="3.9204"/>
<line x1="258.414754" y1="741.385929" x2="258.414754" y2="530.674329" stroke="black" stroke-width="3.9204"/>
<line x1="258.414754" y1="530.674329" x2="308.231554" y2="740.039529" stroke="black" stroke-width="3.9204"/>
<line x1="308.231554" y1="740.039529" x2="354.682354" y2="708.399129" stroke="black" stroke-width="3.9204"/>
<line x1="354.682354" y1="708.399129" x2="257.741554" y2="530.674329" stroke="black" stroke-width="3.9204"/>
<line x1="2101.073024" y1="828.764846" x2="2083.232998" y2="929.940656" stroke="black" stroke-width="3.9204"/>
<line x1="2083.232998" y1="929.940656" x2="2072.314748" y2="928.01547" stroke="black" stroke-width="3.9204"/>
<line x1="2090.154774" y1="826.839664" x2="2072.314748" y2="928.01547" stroke="black" stroke-width="3.9204"/>
<line x1="2101.073024" y1="828.764846" x2="2090.154774" y2="826.839664" stroke="black" stroke-width="3.9204"/>
<line x1="2088.357935" y1="837.030031" x2="2064.59447" y2="831.338866" stroke="black" stroke-width="3.9204"/>
<line x1="2074.111582" y1="917.825099" x2="2049.106855" y2="914.917121" stroke="black" stroke-width="3.9204"/>
<line x1="1748.049522" y1="766.517277" x2="1730.209496" y2="867.693087" stroke="black" stroke-width="3.9204"/>
<line x1="1730.209496" y1="867.693087" x2="1740.399863" y2="869.489922" stroke="black" stroke-width="3.9204"/>
<line x1="1758.239889" y1="768.314115" x2="1740.399863" y2="869.489922" stroke="black" stroke-width="3.9204"/>
<line x1="1748.049522" y1="766.517277" x2="1758.239889" y2="768.314115" stroke="black" stroke-width="3.9204"/>
<line x1="1758.027162" y1="778.03329" x2="1782.304013" y2="780.812925" stroke="black" stroke-width="3.9204"/>
<line x1="1743.780812" y1="858.828362" x2="1768.143817" y2="865.375759" stroke="black" stroke-width="3.9204"/>
<line x1="1935.233729" y1="1032.932847" x2="1937.158906" y2="1022.014596" stroke="black" stroke-width="3.9204"/>
<line x1="1937.158906" y1="1022.014596" x2="1835.9831" y2="1004.174567" stroke="black" stroke-width="3.9204"/>
<line x1="1834.057918" y1="1015.092821" x2="1835.9831" y2="1004.174567" stroke="black" stroke-width="3.9204"/>
<line x1="1935.233729" y1="1032.932847" x2="1834.057918" y2="1015.092821" stroke="black" stroke-width="3.9204"/>
<line x1="1846.901351" y1="1006.099752" x2="1849.08145" y2="980.966678" stroke="black" stroke-width="3.9204"/>
<line x1="1926.968539" y1="1020.217758" x2="1932.788052" y2="995.726409" stroke="black" stroke-width="3.9204"/>
<line x1="1998.080833" y1="680.765572" x2="1996.155648" y2="691.683823" stroke="black" stroke-width="3.9204"/>
<line x1="1996.155648" y1="691.683823" x2="1894.979841" y2="673.843797" stroke="black" stroke-width="3.9204"/>
<line x1="1896.905023" y1="662.925546" x2="1894.979841" y2="673.843797" stroke="black" stroke-width="3.9204"/>
<line x1="1998.080833" y1="680.765572" x2="1896.905023" y2="662.925546" stroke="black" stroke-width="3.9204"/>
<line x1="1905.898096" y1="675.768983" x2="1899.350695" y2="700.131984" stroke="black" stroke-width="3.9204"/>
<line x1="1985.965281" y1="689.886989" x2="1983.057302" y2="714.89172" stroke="black" stroke-width="3.9204"/>
<circle cx="1916.069372" cy="847.929195" r="149.3006827416926" fill="none" stroke="black" stroke-width="3.9204"/>
<line x1="2139.715651" y1="1457.147685" x2="1947.249133" y2="1375.450497" stroke="black" stroke-width="3.9204"/>
<line x1="1947.249133" y1="1375.450497" x2="1856.639521" y2="1588.913362" stroke="black" stroke-width="3.9204"/>
<line x1="1856.639521" y1="1588.913362" x2="2049.106039" y2="1670.61055" stroke="black" stroke-width="3.9204"/>
<line x1="2049.106039" y1="1670.61055" x2="2139.715651" y2="1457.147685" stroke="black" stroke-width="3.9204"/>
<line x1="2127.089721" y1="1486.892512" x2="1934.623203" y2="1405.19532" stroke="black" stroke-width="3.9204"/>
<line x1="1561.128462" y1="1532.099646" x2="1459.760588" y2="1714.972129" stroke="black" stroke-width="3.9204"/>
<line x1="1459.760588" y1="1714.972129" x2="1662.582798" y2="1827.398319" stroke="black" stroke-width="3.9204"/>
<line x1="1662.582798" y1="1827.398319" x2="1763.950672" y2="1644.525832" stroke="black" stroke-width="3.9204"/>
<line x1="1763.950672" y1="1644.525832" x2="1561.128462" y2="1532.099646" stroke="black" stroke-width="3.9204"/>
<line x1="1589.39057" y1="1547.765588" x2="1488.022696" y2="1730.638075" stroke="black" stroke-width="3.9204"/>
<line x1="901.134547" y1="374.738336" x2="805.484374" y2="238.135733" stroke="black" stroke-width="3.9204"/>
<line x1="805.484374" y1="238.135733" x2="653.979665" y2="344.22047" stroke="black" stroke-width="3.9204"/>
<line x1="653.979665" y1="344.22047" x2="749.629841" y2="480.823073" stroke="black" stroke-width="3.9204"/>
<line x1="749.629841" y1="480.823073" x2="901.134547" y2="374.738336" stroke="black" stroke-width="3.9204"/>
<line x1="880.023232" y1="389.520636" x2="784.37306" y2="252.918032" stroke="black" stroke-width="3.9204"/>
<line x1="628.031666" y1="104.836553" x2="761.547311" y2="104.836553" stroke="black" stroke-width="3.9204"/>
<line x1="761.547311" y1="104.836553" x2="761.547311" y2="238.625794" stroke="black" stroke-width="3.9204"/>
<line x1="761.547311" y1="238.625794" x2="628.031666" y2="238.625794" stroke="black" stroke-width="3.9204"/>
<line x1="628.031666" y1="238.625794" x2="628.031666" y2="104.836553" stroke="black" stroke-width="3.9204"/>
<line x1="627.758069" y1="104.562957" x2="761.547311" y2="238.625794" stroke="black" stroke-width="3.9204"/>
<line x1="628.031666" y1="238.352198" x2="761.273715" y2="104.836553" stroke="black" stroke-width="3.9204"/>
<line x1="200.015256" y1="1874.22844" x2="428.899217" y2="1874.22844" stroke="black" stroke-width="3.9204"/>
<line x1="428.899217" y1="1874.22844" x2="428.899217" y2="2103.581423" stroke="black" stroke-width="3.9204"/>
<line x1="428.899217" y1="2103.581423" x2="200.015256" y2="2103.581423" stroke="black" stroke-width="3.9204"/>
<line x1="200.015256" y1="2103.581423" x2="200.015256" y2="1874.22844" stroke="black" stroke-width="3.9204"/>
<line x1="199.546233" y1="1873.759413" x2="428.899217" y2="2103.581423" stroke="black" stroke-width="3.9204"/>
<line x1="200.015256" y1="2103.1124" x2="428.430194" y2="1874.22844" stroke="black" stroke-width="3.9204"/>
<line x1="411.32282" y1="1621.39274" x2="199.988942" y2="1632.468281" stroke="black" stroke-width="3.9204"/>
<line x1="199.988942" y1="1632.468281" x2="212.272719" y2="1866.856761" stroke="black" stroke-width="3.9204"/>
<line x1="212.272719" y1="1866.856761" x2="423.606601" y2="1855.781227" stroke="black" stroke-width="3.9204"/>
<line x1="423.606601" y1="1855.781227" x2="411.32282" y2="1621.39274" stroke="black" stroke-width="3.9204"/>
<line x1="413.03449" y1="1654.05343" x2="201.700612" y2="1665.128971" stroke="black" stroke-width="3.9204"/>
</g>
</svg>
