<?xml version="1.0"?>
<svg xmlns:xlink="http://www.w3.org/1999/xlink" width="2352.24" height="2506.68">
<image x="0" y="0" width="2352.24" height="2506.68" xlink:href="groundempty-03.png"/>
<g style="stroke-linecap:round">
<line x1="97.870362" y1="1211.87798" x2="97.870362" y2="936.036621" stroke="black" stroke-width="3.9204"/>
<line x1="97.870362" y1="936.036621" x2="55.34715" y2="936.036621" stroke="black" stroke-width="3.9204"/>
<line x1="55.34715" y1="936.036621" x2="55.34715" y2="1211.87798" stroke="black" stroke-width="3.9204"/>
<line x1="55.34715" y1="1211.87798" x2="97.870362" y2="1211.87798" stroke="black" stroke-width="3.9204"/>
<line x1="55.906666" y1="1186.140249" x2="97.310846" y2="1186.140249" stroke="black" stroke-width="3.9204"/>
<line x1="55.906666" y1="962.333872" x2="98.989395" y2="962.333872" stroke="black" stroke-width="3.9204"/>
<line x1="75.489726" y1="1186.699766" x2="75.489726" y2="962.893388" stroke="black" stroke-width="3.9204"/>
<line x1="2241.215706" y1="865.898328" x2="2241.215706" y2="1117.97001" stroke="black" stroke-width="3.9204"/>
<line x1="2241.215706" y1="1117.97001" x2="2286.301695" y2="1117.97001" stroke="black" stroke-width="3.9204"/>
<line x1="2286.301695" y1="1117.97001" x2="2286.301695" y2="865.898328" stroke="black" stroke-width="3.9204"/>
<line x1="2286.301695" y1="865.898328" x2="2241.215706" y2="865.898328" stroke="black" stroke-width="3.9204"/>
<line x1="2241.215706" y1="877.682168" x2="2225.84548" y2="877.682168" stroke="black" stroke-width="3.9204"/>
<line x1="2225.84548" y1="877.682168" x2="2225.84548" y2="1105.673829" stroke="black" stroke-width="3.9204"/>
<line x1="2241.215706" y1="1105.673829" x2="2225.84548" y2="1105.673829" stroke="black" stroke-width="3.9204"/>
<line x1="1161.502381" y1="1542.083578" x2="1181.935902" y2="1542.083578" stroke="black" stroke-width="3.9204"/>
<line x1="1181.935902" y1="1542.083578" x2="1181.935902" y2="1502.213292" stroke="black" stroke-width="3.9204"/>
<line x1="1181.935902" y1="1502.213292" x2="1161.502381" y2="1502.213292" stroke="black" stroke-width="3.9204"/>
<line x1="1161.502381" y1="1502.213292" x2="1161.502381" y2="1542.083578" stroke="black" stroke-width="3.9204"/>
<line x1="1381.785701" y1="1502.213292" x2="1381.785701" y2="1303.360245" stroke="black" stroke-width="3.9204"/>
<line x1="1382.284083" y1="1543.080334" x2="1402.717603" y2="1543.080334" stroke="black" stroke-width="3.9204"/>
<line x1="1402.717603" y1="1543.080334" x2="1402.717603" y2="1503.210048" stroke="black" stroke-width="3.9204"/>
<line x1="1402.717603" y1="1503.210048" x2="1382.284083" y2="1503.210048" stroke="black" stroke-width="3.9204"/>
<line x1="1382.284083" y1="1503.210048" x2="1382.284083" y2="1543.080334" stroke="black" stroke-width="3.9204"/>
<path d="m 1181.935902,1503.708426 a 199.84979899999996,199.84979899999996 0 0 1 199.84979900000008,-199.84979899999985" fill="none" stroke="black" stroke-width="3.9204"/>
<line x1="1474.645222" y1="911.202966" x2="1474.645222" y2="929.755304" stroke="black" stroke-width="3.9204"/>
<line x1="1474.645222" y1="929.755304" x2="1510.844908" y2="929.755304" stroke="black" stroke-width="3.9204"/>
<line x1="1510.844908" y1="929.755304" x2="1510.844908" y2="911.202966" stroke="black" stroke-width="3.9204"/>
<line x1="1510.844908" y1="911.202966" x2="1474.645222" y2="911.202966" stroke="black" stroke-width="3.9204"/>
<line x1="1510.844908" y1="1111.206235" x2="1691.390848" y2="1111.206235" stroke="black" stroke-width="3.9204"/>
<line x1="1473.740227" y1="1111.658732" x2="1473.740227" y2="1130.211071" stroke="black" stroke-width="3.9204"/>
<line x1="1473.740227" y1="1130.211071" x2="1509.939918" y2="1130.211071" stroke="black" stroke-width="3.9204"/>
<line x1="1509.939918" y1="1130.211071" x2="1509.939918" y2="1111.658732" stroke="black" stroke-width="3.9204"/>
<line x1="1509.939918" y1="1111.658732" x2="1473.740227" y2="1111.658732" stroke="black" stroke-width="3.9204"/>
<path d="m 1509.48742,929.755304 a 181.45093100000008,181.45093100000008 0 0 1 181.45093100000008,181.45093100000008" fill="none" stroke="black" stroke-width="3.9204"/>
<line x1="1643.872705" y1="316.784695" x2="1643.872705" y2="710.028566" stroke="black" stroke-width="3.9204"/>
<line x1="1644.868986" y1="713.983973" x2="1508.80021" y2="713.983973" stroke="black" stroke-width="3.9204"/>
<line x1="1507.648705" y1="317.249084" x2="1507.648705" y2="714.289312" stroke="black" stroke-width="3.9204"/>
<line x1="1643.177955" y1="317.983973" x2="1507.913898" y2="317.983973" stroke="black" stroke-width="3.9204"/>
<line x1="1632.784705" y1="328.279973" x2="1632.784705" y2="451.831973" stroke="black" stroke-width="3.9204"/>
<line x1="1632.784705" y1="451.831973" x2="1518.736705" y2="451.831973" stroke="black" stroke-width="3.9204"/>
<line x1="1518.736705" y1="328.279973" x2="1518.736705" y2="451.831973" stroke="black" stroke-width="3.9204"/>
<line x1="1632.784705" y1="328.279973" x2="1518.736705" y2="328.279973" stroke="black" stroke-width="3.9204"/>
<line x1="1625.656705" y1="470.839973" x2="1625.656705" y2="557.959973" stroke="black" stroke-width="3.9204"/>
<line x1="1605.856705" y1="470.839973" x2="1605.856705" y2="557.959973" stroke="black" stroke-width="3.9204"/>
<line x1="1585.264705" y1="471.631973" x2="1585.264705" y2="557.959973" stroke="black" stroke-width="3.9204"/>
<line x1="1565.464705" y1="471.631973" x2="1565.464705" y2="557.959973" stroke="black" stroke-width="3.9204"/>
<line x1="1545.664705" y1="470.839973" x2="1545.664705" y2="557.959973" stroke="black" stroke-width="3.9204"/>
<line x1="1525.864705" y1="470.839973" x2="1525.864705" y2="557.959973" stroke="black" stroke-width="3.9204"/>
<line x1="1519.528705" y1="375.799973" x2="1532.992705" y2="375.799973" stroke="black" stroke-width="3.9204"/>
<line x1="1532.992705" y1="375.799973" x2="1532.992705" y2="405.895973" stroke="black" stroke-width="3.9204"/>
<line x1="1532.992705" y1="405.895973" x2="1520.320705" y2="405.895973" stroke="black" stroke-width="3.9204"/>
<line x1="1632.784705" y1="578.551973" x2="1632.784705" y2="702.103973" stroke="black" stroke-width="3.9204"/>
<line x1="1632.784705" y1="702.103973" x2="1518.736705" y2="702.103973" stroke="black" stroke-width="3.9204"/>
<line x1="1518.736705" y1="578.551973" x2="1518.736705" y2="702.103973" stroke="black" stroke-width="3.9204"/>
<line x1="1632.784705" y1="578.551973" x2="1518.736705" y2="578.551973" stroke="black" stroke-width="3.9204"/>
<line x1="1518.736705" y1="626.071973" x2="1532.200705" y2="626.071973" stroke="black" stroke-width="3.9204"/>
<line x1="1532.200705" y1="626.071973" x2="1532.200705" y2="656.167973" stroke="black" stroke-width="3.9204"/>
<line x1="1532.200705" y1="656.167973" x2="1519.528705" y2="656.167973" stroke="black" stroke-width="3.9204"/>
<circle cx="1618.528705" cy="437.575973" r="7.128" fill="none" stroke="black" stroke-width="3.9204"/>
<circle cx="1617.736705" cy="687.847973" r="7.128" fill="none" stroke="black" stroke-width="3.9204"/>
<line x1="1191.95425" y1="774.161562" x2="1173.272174" y2="774.161562" stroke="black" stroke-width="3.920396"/>
<line x1="1173.272174" y1="774.161562" x2="1173.272174" y2="810.614396" stroke="black" stroke-width="3.920396"/>
<line x1="1173.272174" y1="810.614396" x2="1191.95425" y2="810.614396" stroke="black" stroke-width="3.920396"/>
<line x1="1191.95425" y1="810.614396" x2="1191.95425" y2="774.161562" stroke="black" stroke-width="3.920396"/>
<line x1="990.552357" y1="810.614396" x2="990.552357" y2="992.422894" stroke="black" stroke-width="3.920396"/>
<line x1="990.096695" y1="773.250243" x2="971.414619" y2="773.250243" stroke="black" stroke-width="3.920396"/>
<line x1="971.414619" y1="773.250243" x2="971.414619" y2="809.703073" stroke="black" stroke-width="3.920396"/>
<line x1="971.414619" y1="809.703073" x2="990.096695" y2="809.703073" stroke="black" stroke-width="3.920396"/>
<line x1="990.096695" y1="809.703073" x2="990.096695" y2="773.250243" stroke="black" stroke-width="3.920396"/>
<path d="m 1173.272174,809.247412 a 182.71981899999992,182.71981899999992 0 0 1 -182.71981699999992,182.7198209999999" fill="none" stroke="black" stroke-width="3.920396"/>
<line x1="1789.386307" y1="235.945773" x2="1941.975617" y2="235.945773" stroke="black" stroke-width="3.9204"/>
<line x1="1941.975617" y1="235.945773" x2="1941.975617" y2="388.847765" stroke="black" stroke-width="3.9204"/>
<line x1="1941.975617" y1="388.847765" x2="1789.386307" y2="388.847765" stroke="black" stroke-width="3.9204"/>
<line x1="1789.386307" y1="388.847765" x2="1789.386307" y2="235.945773" stroke="black" stroke-width="3.9204"/>
<line x1="1789.073625" y1="235.633092" x2="1941.975617" y2="388.847765" stroke="black" stroke-width="3.9204"/>
<line x1="1789.386307" y1="388.535083" x2="1941.662931" y2="235.945773" stroke="black" stroke-width="3.9204"/>
<line x1="1246.017857" y1="379.392726" x2="1062.273857" y2="379.392726" stroke="black" stroke-width="3.9204"/>
<line x1="1062.273857" y1="379.392726" x2="1062.273857" y2="330.288726" stroke="black" stroke-width="3.9204"/>
<line x1="1246.017857" y1="330.288726" x2="1062.273857" y2="330.288726" stroke="black" stroke-width="3.9204"/>
<line x1="1246.017857" y1="379.392726" x2="1246.017857" y2="330.288726" stroke="black" stroke-width="3.9204"/>
<line x1="1204.437857" y1="407.112726" x2="1204.437857" y2="379.392726" stroke="black" stroke-width="3.9204"/>
<line x1="1105.437857" y1="379.392726" x2="1105.437857" y2="408.696726" stroke="black" stroke-width="3.9204"/>
<circle cx="1155.729857" cy="452.256726" r="66.528" fill="none" stroke="black" stroke-width="3.9204"/>
<circle cx="1155.729857" cy="452.256726" r="57.024" fill="none" stroke="black" stroke-width="3.9204"/>
<line x1="960.909353" y1="534.445338" x2="936.357353" y2="553.057338" stroke="black" stroke-width="3.9204"/>
<line x1="936.357353" y1="553.057338" x2="936.357353" y2="700.369338" stroke="black" stroke-width="3.9204"/>
<line x1="936.357353" y1="700.369338" x2="964.473353" y2="719.377338" stroke="black" stroke-width="3.9204"/>
<line x1="963.681353" y1="556.225338" x2="963.681353" y2="699.181338" stroke="black" stroke-width="3.9204"/>
<circle cx="985.461353" cy="625.525338" r="13.068000000000001" fill="none" stroke="black" stroke-width="3.9204"/>
<path d="m 963.014006,557.778589 a 74.84400060548079,74.84400060548079 0 1 1 0.4020470000000387,139.60900400000003" fill="none" stroke="black" stroke-width="3.9204"/>
<path d="m 960.251989,534.491639 a 95.4359995551865,95.4359995551865 0 1 1 3.074960000000033,184.466997" fill="none" stroke="black" stroke-width="3.9204"/>
<line x1="1299.109977" y1="330.846401" x2="1299.109977" y2="722.094401" stroke="black" stroke-width="3.9204"/>
<line x1="1299.109977" y1="722.094401" x2="1473.349977" y2="722.094401" stroke="black" stroke-width="3.9204"/>
<line x1="1473.349977" y1="722.094401" x2="1473.349977" y2="330.846401" stroke="black" stroke-width="3.9204"/>
<line x1="1473.349977" y1="330.846401" x2="1299.109977" y2="330.846401" stroke="black" stroke-width="3.9204"/>
<line x1="1446.421977" y1="646.854401" x2="1446.421977" y2="362.526401" stroke="black" stroke-width="3.9204"/>
<line x1="1446.421977" y1="362.526401" x2="1328.413977" y2="362.526401" stroke="black" stroke-width="3.9204"/>
<line x1="1328.413977" y1="362.526401" x2="1328.413977" y2="652.398401" stroke="black" stroke-width="3.9204"/>
<path d="m 1446.677401,646.043829 a 63.359999516600396,63.359999516600396 0 0 1 -119.37433099999998,4.293812000000003" fill="none" stroke="black" stroke-width="3.9204"/>
<line x1="1572.597295" y1="1914.454238" x2="1572.597295" y2="2104.534238" stroke="black" stroke-width="3.9204"/>
<line x1="1572.597295" y1="2104.534238" x2="2036.392495" y2="2104.534238" stroke="black" stroke-width="3.9204"/>
<line x1="2036.392495" y1="2104.534238" x2="2036.392495" y2="1914.454238" stroke="black" stroke-width="3.9204"/>
<line x1="2036.392495" y1="1914.454238" x2="2012.632495" y2="1914.454238" stroke="black" stroke-width="3.9204"/>
<line x1="2012.632495" y1="1914.454238" x2="2012.632495" y2="2081.724638" stroke="black" stroke-width="3.9204"/>
<line x1="2012.632495" y1="2081.724638" x2="1597.307695" y2="2081.724638" stroke="black" stroke-width="3.9204"/>
<line x1="1597.307695" y1="2081.724638" x2="1597.307695" y2="1914.454238" stroke="black" stroke-width="3.9204"/>
<line x1="1597.307695" y1="1914.454238" x2="1572.597295" y2="1914.454238" stroke="black" stroke-width="3.9204"/>
<line x1="1597.307695" y1="1920.156638" x2="2012.632495" y2="1920.156638" stroke="black" stroke-width="3.9204"/>
<line x1="1804.494895" y1="1919.206238" x2="1804.494895" y2="2080.774238" stroke="black" stroke-width="3.9204"/>
<line x1="927.659605" y1="1215.759996" x2="927.659605" y2="1196.116911" stroke="black" stroke-width="3.9204"/>
<line x1="927.659605" y1="1196.116911" x2="889.331632" y2="1196.116911" stroke="black" stroke-width="3.9204"/>
<line x1="889.331632" y1="1196.116911" x2="889.331632" y2="1215.759996" stroke="black" stroke-width="3.9204"/>
<line x1="889.331632" y1="1215.759996" x2="927.659605" y2="1215.759996" stroke="black" stroke-width="3.9204"/>
<line x1="889.331632" y1="1003.997951" x2="698.170873" y2="1003.997951" stroke="black" stroke-width="3.9204"/>
<line x1="928.617806" y1="1003.518854" x2="928.617806" y2="983.875769" stroke="black" stroke-width="3.9204"/>
<line x1="928.617806" y1="983.875769" x2="890.289833" y2="983.875769" stroke="black" stroke-width="3.9204"/>
<line x1="890.289833" y1="983.875769" x2="890.289833" y2="1003.518854" stroke="black" stroke-width="3.9204"/>
<line x1="890.289833" y1="1003.518854" x2="928.617806" y2="1003.518854" stroke="black" stroke-width="3.9204"/>
<path d="m 890.768934,1196.116911 a 192.11896000000002,192.11896000000002 0 0 1 -192.1189599999999,-192.11896000000013" fill="none" stroke="black" stroke-width="3.9204"/>
<line x1="924.972773" y1="1470.753322" x2="924.972773" y2="1451.746906" stroke="black" stroke-width="3.9204"/>
<line x1="924.972773" y1="1451.746906" x2="887.88708" y2="1451.746906" stroke="black" stroke-width="3.9204"/>
<line x1="887.88708" y1="1451.746906" x2="887.88708" y2="1470.753322" stroke="black" stroke-width="3.9204"/>
<line x1="887.88708" y1="1470.753322" x2="924.972773" y2="1470.753322" stroke="black" stroke-width="3.9204"/>
<line x1="887.88708" y1="1265.854867" x2="702.922184" y2="1265.854867" stroke="black" stroke-width="3.9204"/>
<line x1="925.899916" y1="1265.391294" x2="925.899916" y2="1246.384878" stroke="black" stroke-width="3.9204"/>
<line x1="925.899916" y1="1246.384878" x2="888.814223" y2="1246.384878" stroke="black" stroke-width="3.9204"/>
<line x1="888.814223" y1="1246.384878" x2="888.814223" y2="1265.391294" stroke="black" stroke-width="3.9204"/>
<line x1="888.814223" y1="1265.391294" x2="925.899916" y2="1265.391294" stroke="black" stroke-width="3.9204"/>
<path d="m 889.277792,1451.746906 a 185.892039,185.892039 0 0 1 -185.89203899999995,-185.89203900000007" fill="none" stroke="black" stroke-width="3.9204"/>
<line x1="529.912821" y1="579.779101" x2="529.912821" y2="370.413901" stroke="black" stroke-width="3.9204"/>
<line x1="529.912821" y1="370.413901" x2="198.698421" y2="370.413901" stroke="black" stroke-width="3.9204"/>
<line x1="198.698421" y1="370.413901" x2="198.698421" y2="579.779101" stroke="black" stroke-width="3.9204"/>
<line x1="198.698421" y1="579.779101" x2="529.912821" y2="579.779101" stroke="black" stroke-width="3.9204"/>
<line x1="257.940021" y1="580.452301" x2="257.940021" y2="369.740701" stroke="black" stroke-width="3.9204"/>
<line x1="257.940021" y1="369.740701" x2="307.756821" y2="579.105901" stroke="black" stroke-width="3.9204"/>
<line x1="307.756821" y1="579.105901" x2="354.207621" y2="547.465501" stroke="black" stroke-width="3.9204"/>
<line x1="354.207621" y1="547.465501" x2="257.266821" y2="369.740701" stroke="black" stroke-width="3.9204"/>
<line x1="1931.899535" y1="655.27727" x2="1756.905302" y2="958.376169" stroke="black" stroke-width="3.9204"/>
<line x1="1756.905302" y1="958.376169" x2="1899.288452" y2="1040.581124" stroke="black" stroke-width="3.9204"/>
<line x1="1899.288452" y1="1040.581124" x2="2074.282686" y2="737.482221" stroke="black" stroke-width="3.9204"/>
<line x1="2074.282686" y1="737.482221" x2="1931.899535" y2="655.27727" stroke="black" stroke-width="3.9204"/>
<line x1="2003.367683" y1="860.310606" x2="2065.69851" y2="896.297324" stroke="black" stroke-width="3.9204"/>
<line x1="2065.69851" y1="896.297324" x2="2100.626792" y2="835.799758" stroke="black" stroke-width="3.9204"/>
<line x1="2100.626792" y1="835.799758" x2="2038.295968" y2="799.813044" stroke="black" stroke-width="3.9204"/>
<line x1="2086.83008" y1="828.649004" x2="2052.254604" y2="888.535482" stroke="black" stroke-width="3.9204"/>
<line x1="1832.970906" y1="681.268563" x2="1798.042621" y2="741.766125" stroke="black" stroke-width="3.9204"/>
<line x1="1798.042621" y1="741.766125" x2="1860.984532" y2="778.105655" stroke="black" stroke-width="3.9204"/>
<line x1="1895.912817" y1="717.608093" x2="1832.970906" y2="681.268563" stroke="black" stroke-width="3.9204"/>
<line x1="1846.062001" y1="689.641492" x2="1811.486528" y2="749.527966" stroke="black" stroke-width="3.9204"/>
<line x1="1935.98079" y1="977.028125" x2="1998.311618" y2="1013.014843" stroke="black" stroke-width="3.9204"/>
<line x1="1998.311618" y1="1013.014843" x2="2033.239903" y2="952.517277" stroke="black" stroke-width="3.9204"/>
<line x1="2033.239903" y1="952.517277" x2="1970.909076" y2="916.530564" stroke="black" stroke-width="3.9204"/>
<line x1="2019.795996" y1="944.75544" x2="1984.867715" y2="1005.253001" stroke="black" stroke-width="3.9204"/>
<line x1="1765.584014" y1="797.986083" x2="1730.655733" y2="858.483644" stroke="black" stroke-width="3.9204"/>
<line x1="1730.655733" y1="858.483644" x2="1793.597644" y2="894.823174" stroke="black" stroke-width="3.9204"/>
<line x1="1828.525925" y1="834.325609" x2="1765.584014" y2="797.986083" stroke="black" stroke-width="3.9204"/>
<line x1="1779.027917" y1="805.747924" x2="1744.099636" y2="866.245486" stroke="black" stroke-width="3.9204"/>
<line x1="1534.691026" y1="1532.099646" x2="1459.760588" y2="1727.300112" stroke="black" stroke-width="3.9204"/>
<line x1="1459.760588" y1="1727.300112" x2="1676.255649" y2="1810.404779" stroke="black" stroke-width="3.9204"/>
<line x1="1676.255649" y1="1810.404779" x2="1751.186084" y2="1615.204317" stroke="black" stroke-width="3.9204"/>
<line x1="1751.186084" y1="1615.204317" x2="1534.691026" y2="1532.099646" stroke="black" stroke-width="3.9204"/>
<line x1="1564.85837" y1="1543.679807" x2="1489.927931" y2="1738.880269" stroke="black" stroke-width="3.9204"/>
<line x1="2139.715655" y1="1472.303353" x2="1956.843171" y2="1370.935479" stroke="black" stroke-width="3.9204"/>
<line x1="1956.843171" y1="1370.935479" x2="1844.416981" y2="1573.75769" stroke="black" stroke-width="3.9204"/>
<line x1="1844.416981" y1="1573.75769" x2="2027.289469" y2="1675.125564" stroke="black" stroke-width="3.9204"/>
<line x1="2027.289469" y1="1675.125564" x2="2139.715655" y2="1472.303353" stroke="black" stroke-width="3.9204"/>
<line x1="2124.049712" y1="1500.565461" x2="1941.177225" y2="1399.197587" stroke="black" stroke-width="3.9204"/>
<line x1="901.134547" y1="407.856129" x2="842.695132" y2="238.135737" stroke="black" stroke-width="3.9204"/>
<line x1="842.695132" y1="238.135737" x2="654.459787" y2="302.950363" stroke="black" stroke-width="3.9204"/>
<line x1="654.459787" y1="302.950363" x2="712.899206" y2="472.670756" stroke="black" stroke-width="3.9204"/>
<line x1="712.899206" y1="472.670756" x2="901.134547" y2="407.856129" stroke="black" stroke-width="3.9204"/>
<line x1="874.905031" y1="416.887673" x2="816.465617" y2="247.167285" stroke="black" stroke-width="3.9204"/>
<line x1="628.031666" y1="104.836553" x2="761.547311" y2="104.836553" stroke="black" stroke-width="3.9204"/>
<line x1="761.547311" y1="104.836553" x2="761.547311" y2="238.625794" stroke="black" stroke-width="3.9204"/>
<line x1="761.547311" y1="238.625794" x2="628.031666" y2="238.625794" stroke="black" stroke-width="3.9204"/>
<line x1="628.031666" y1="238.625794" x2="628.031666" y2="104.836553" stroke="black" stroke-width="3.9204"/>
<line x1="627.758069" y1="104.562957" x2="761.547311" y2="238.625794" stroke="black" stroke-width="3.9204"/>
<line x1="628.031666" y1="238.352198" x2="761.273715" y2="104.836553" stroke="black" stroke-width="3.9204"/>
<line x1="200.015256" y1="1874.22844" x2="428.899217" y2="1874.22844" stroke="black" stroke-width="3.9204"/>
<line x1="428.899217" y1="1874.22844" x2="428.899217" y2="2103.581423" stroke="black" stroke-width="3.9204"/>
<line x1="428.899217" y1="2103.581423" x2="200.015256" y2="2103.581423" stroke="black" stroke-width="3.9204"/>
<line x1="200.015256" y1="2103.581423" x2="200.015256" y2="1874.22844" stroke="black" stroke-width="3.9204"/>
<line x1="199.546233" y1="1873.759413" x2="428.899217" y2="2103.581423" stroke="black" stroke-width="3.9204"/>
<line x1="200.015256" y1="2103.1124" x2="428.430194" y2="1874.22844" stroke="black" stroke-width="3.9204"/>
<line x1="411.32282" y1="1621.39274" x2="199.988942" y2="1632.468281" stroke="black" stroke-width="3.9204"/>
<line x1="199.988942" y1="1632.468281" x2="212.272719" y2="1866.856761" stroke="black" stroke-width="3.9204"/>
<line x1="212.272719" y1="1866.856761" x2="423.606601" y2="1855.781227" stroke="black" stroke-width="3.9204"/>
<line x1="423.606601" y1="1855.781227" x2="411.32282" y2="1621.39274" stroke="black" stroke-width="3.9204"/>
<line x1="413.03449" y1="1654.05343" x2="201.700612" y2="1665.128971" stroke="black" stroke-width="3.9204"/>
</g>
</svg>
