<?xml version="1.0"?>
<svg xmlns:xlink="http://www.w3.org/1999/xlink" width="2352.24" height="2506.68">
<image x="0" y="0" width="2352.24" height="2506.68" xlink:href="groundempty-03.png"/>
<g style="stroke-linecap:round">
<line x1="104.681368" y1="1211.868856" x2="104.681368" y2="936.045741" stroke="black" stroke-width="3.9204"/>
<line x1="104.681368" y1="936.045741" x2="55.347154" y2="936.045741" stroke="black" stroke-width="3.9204"/>
<line x1="55.347154" y1="936.045741" x2="55.347154" y2="1211.868856" stroke="black" stroke-width="3.9204"/>
<line x1="55.347154" y1="1211.868856" x2="104.681368" y2="1211.868856" stroke="black" stroke-width="3.9204"/>
<line x1="104.681368" y1="1198.974685" x2="121.499853" y2="1198.974685" stroke="black" stroke-width="3.9204"/>
<line x1="121.499853" y1="1198.974685" x2="121.499853" y2="949.500526" stroke="black" stroke-width="3.9204"/>
<line x1="104.681368" y1="949.500526" x2="121.499853" y2="949.500526" stroke="black" stroke-width="3.9204"/>
<line x1="2247.440204" y1="865.889988" x2="2247.440204" y2="1117.978345" stroke="black" stroke-width="3.9204"/>
<line x1="2247.440204" y1="1117.978345" x2="2286.301695" y2="1117.978345" stroke="black" stroke-width="3.9204"/>
<line x1="2286.301695" y1="1117.978345" x2="2286.301695" y2="865.889988" stroke="black" stroke-width="3.9204"/>
<line x1="2286.301695" y1="865.889988" x2="2247.440204" y2="865.889988" stroke="black" stroke-width="3.9204"/>
<line x1="2285.79036" y1="889.411418" x2="2247.951539" y2="889.411418" stroke="black" stroke-width="3.9204"/>
<line x1="2285.79036" y1="1093.945581" x2="2246.417534" y2="1093.945581" stroke="black" stroke-width="3.9204"/>
<line x1="2267.89362" y1="888.900083" x2="2267.89362" y2="1093.434246" stroke="black" stroke-width="3.9204"/>
<line x1="1161.502381" y1="1542.083578" x2="1181.935902" y2="1542.083578" stroke="black" stroke-width="3.9204"/>
<line x1="1181.935902" y1="1542.083578" x2="1181.935902" y2="1502.213292" stroke="black" stroke-width="3.9204"/>
<line x1="1181.935902" y1="1502.213292" x2="1161.502381" y2="1502.213292" stroke="black" stroke-width="3.9204"/>
<line x1="1161.502381" y1="1502.213292" x2="1161.502381" y2="1542.083578" stroke="black" stroke-width="3.9204"/>
<line x1="1381.785701" y1="1502.213292" x2="1381.785701" y2="1303.360245" stroke="black" stroke-width="3.9204"/>
<line x1="1382.284083" y1="1543.080334" x2="1402.717603" y2="1543.080334" stroke="black" stroke-width="3.9204"/>
<line x1="1402.717603" y1="1543.080334" x2="1402.717603" y2="1503.210048" stroke="black" stroke-width="3.9204"/>
<line x1="1402.717603" y1="1503.210048" x2="1382.284083" y2="1503.210048" stroke="black" stroke-width="3.9204"/>
<line x1="1382.284083" y1="1503.210048" x2="1382.284083" y2="1543.080334" stroke="black" stroke-width="3.9204"/>
<path d="m 1181.935902,1503.708426 a 199.84979899999996,199.84979899999996 0 0 1 199.84979900000008,-199.84979899999985" fill="none" stroke="black" stroke-width="3.9204"/>
<line x1="1474.645222" y1="911.202966" x2="1474.645222" y2="929.755304" stroke="black" stroke-width="3.9204"/>
<line x1="1474.645222" y1="929.755304" x2="1510.844908" y2="929.755304" stroke="black" stroke-width="3.9204"/>
<line x1="1510.844908" y1="929.755304" x2="1510.844908" y2="911.202966" stroke="black" stroke-width="3.9204"/>
<line x1="1510.844908" y1="911.202966" x2="1474.645222" y2="911.202966" stroke="black" stroke-width="3.9204"/>
<line x1="1510.844908" y1="1111.206235" x2="1691.390848" y2="1111.206235" stroke="black" stroke-width="3.9204"/>
<line x1="1473.740227" y1="1111.658732" x2="1473.740227" y2="1130.211071" stroke="black" stroke-width="3.9204"/>
<line x1="1473.740227" y1="1130.211071" x2="1509.939918" y2="1130.211071" stroke="black" stroke-width="3.9204"/>
<line x1="1509.939918" y1="1130.211071" x2="1509.939918" y2="1111.658732" stroke="black" stroke-width="3.9204"/>
<line x1="1509.939918" y1="1111.658732" x2="1473.740227" y2="1111.658732" stroke="black" stroke-width="3.9204"/>
<path d="m 1509.48742,929.755304 a 181.45093100000008,181.45093100000008 0 0 1 181.45093100000008,181.45093100000008" fill="none" stroke="black" stroke-width="3.9204"/>
<line x1="1643.872705" y1="316.784695" x2="1643.872705" y2="710.028566" stroke="black" stroke-width="3.9204"/>
<line x1="1644.868986" y1="713.983973" x2="1508.80021" y2="713.983973" stroke="black" stroke-width="3.9204"/>
<line x1="1507.648705" y1="317.249084" x2="1507.648705" y2="714.289312" stroke="black" stroke-width="3.9204"/>
<line x1="1643.177955" y1="317.983973" x2="1507.913898" y2="317.983973" stroke="black" stroke-width="3.9204"/>
<line x1="1632.784705" y1="328.279973" x2="1632.784705" y2="451.831973" stroke="black" stroke-width="3.9204"/>
<line x1="1632.784705" y1="451.831973" x2="1518.736705" y2="451.831973" stroke="black" stroke-width="3.9204"/>
<line x1="1518.736705" y1="328.279973" x2="1518.736705" y2="451.831973" stroke="black" stroke-width="3.9204"/>
<line x1="1632.784705" y1="328.279973" x2="1518.736705" y2="328.279973" stroke="black" stroke-width="3.9204"/>
<line x1="1625.656705" y1="470.839973" x2="1625.656705" y2="557.959973" stroke="black" stroke-width="3.9204"/>
<line x1="1605.856705" y1="470.839973" x2="1605.856705" y2="557.959973" stroke="black" stroke-width="3.9204"/>
<line x1="1585.264705" y1="471.631973" x2="1585.264705" y2="557.959973" stroke="black" stroke-width="3.9204"/>
<line x1="1565.464705" y1="471.631973" x2="1565.464705" y2="557.959973" stroke="black" stroke-width="3.9204"/>
<line x1="1545.664705" y1="470.839973" x2="1545.664705" y2="557.959973" stroke="black" stroke-width="3.9204"/>
<line x1="1525.864705" y1="470.839973" x2="1525.864705" y2="557.959973" stroke="black" stroke-width="3.9204"/>
<line x1="1519.528705" y1="375.799973" x2="1532.992705" y2="375.799973" stroke="black" stroke-width="3.9204"/>
<line x1="1532.992705" y1="375.799973" x2="1532.992705" y2="405.895973" stroke="black" stroke-width="3.9204"/>
<line x1="1532.992705" y1="405.895973" x2="1520.320705" y2="405.895973" stroke="black" stroke-width="3.9204"/>
<line x1="1632.784705" y1="578.551973" x2="1632.784705" y2="702.103973" stroke="black" stroke-width="3.9204"/>
<line x1="1632.784705" y1="702.103973" x2="1518.736705" y2="702.103973" stroke="black" stroke-width="3.9204"/>
<line x1="1518.736705" y1="578.551973" x2="1518.736705" y2="702.103973" stroke="black" stroke-width="3.9204"/>
<line x1="1632.784705" y1="578.551973" x2="1518.736705" y2="578.551973" stroke="black" stroke-width="3.9204"/>
<line x1="1518.736705" y1="626.071973" x2="1532.200705" y2="626.071973" stroke="black" stroke-width="3.9204"/>
<line x1="1532.200705" y1="626.071973" x2="1532.200705" y2="656.167973" stroke="black" stroke-width="3.9204"/>
<line x1="1532.200705" y1="656.167973" x2="1519.528705" y2="656.167973" stroke="black" stroke-width="3.9204"/>
<circle cx="1618.528705" cy="437.575973" r="7.128" fill="none" stroke="black" stroke-width="3.9204"/>
<circle cx="1617.736705" cy="687.847973" r="7.128" fill="none" stroke="black" stroke-width="3.9204"/>
<line x1="1191.95425" y1="774.161562" x2="1173.272174" y2="774.161562" stroke="black" stroke-width="3.920396"/>
<line x1="1173.272174" y1="774.161562" x2="1173.272174" y2="810.614396" stroke="black" stroke-width="3.920396"/>
<line x1="1173.272174" y1="810.614396" x2="1191.95425" y2="810.614396" stroke="black" stroke-width="3.920396"/>
<line x1="1191.95425" y1="810.614396" x2="1191.95425" y2="774.161562" stroke="black" stroke-width="3.920396"/>
<line x1="990.552357" y1="810.614396" x2="990.552357" y2="992.422894" stroke="black" stroke-width="3.920396"/>
<line x1="990.096695" y1="773.250243" x2="971.414619" y2="773.250243" stroke="black" stroke-width="3.920396"/>
<line x1="971.414619" y1="773.250243" x2="971.414619" y2="809.703073" stroke="black" stroke-width="3.920396"/>
<line x1="971.414619" y1="809.703073" x2="990.096695" y2="809.703073" stroke="black" stroke-width="3.920396"/>
<line x1="990.096695" y1="809.703073" x2="990.096695" y2="773.250243" stroke="black" stroke-width="3.920396"/>
<path d="m 1173.272174,809.247412 a 182.71981899999992,182.71981899999992 0 0 1 -182.71981699999992,182.7198209999999" fill="none" stroke="black" stroke-width="3.920396"/>
<line x1="1789.386307" y1="235.945773" x2="1941.975617" y2="235.945773" stroke="black" stroke-width="3.9204"/>
<line x1="1941.975617" y1="235.945773" x2="1941.975617" y2="388.847765" stroke="black" stroke-width="3.9204"/>
<line x1="1941.975617" y1="388.847765" x2="1789.386307" y2="388.847765" stroke="black" stroke-width="3.9204"/>
<line x1="1789.386307" y1="388.847765" x2="1789.386307" y2="235.945773" stroke="black" stroke-width="3.9204"/>
<line x1="1789.073625" y1="235.633092" x2="1941.975617" y2="388.847765" stroke="black" stroke-width="3.9204"/>
<line x1="1789.386307" y1="388.535083" x2="1941.662931" y2="235.945773" stroke="black" stroke-width="3.9204"/>
<line x1="1246.017857" y1="379.392726" x2="1062.273857" y2="379.392726" stroke="black" stroke-width="3.9204"/>
<line x1="1062.273857" y1="379.392726" x2="1062.273857" y2="330.288726" stroke="black" stroke-width="3.9204"/>
<line x1="1246.017857" y1="330.288726" x2="1062.273857" y2="330.288726" stroke="black" stroke-width="3.9204"/>
<line x1="1246.017857" y1="379.392726" x2="1246.017857" y2="330.288726" stroke="black" stroke-width="3.9204"/>
<line x1="1204.437857" y1="407.112726" x2="1204.437857" y2="379.392726" stroke="black" stroke-width="3.9204"/>
<line x1="1105.437857" y1="379.392726" x2="1105.437857" y2="408.696726" stroke="black" stroke-width="3.9204"/>
<circle cx="1155.729857" cy="452.256726" r="66.528" fill="none" stroke="black" stroke-width="3.9204"/>
<circle cx="1155.729857" cy="452.256726" r="57.024" fill="none" stroke="black" stroke-width="3.9204"/>
<line x1="960.909353" y1="534.445338" x2="936.357353" y2="553.057338" stroke="black" stroke-width="3.9204"/>
<line x1="936.357353" y1="553.057338" x2="936.357353" y2="700.369338" stroke="black" stroke-width="3.9204"/>
<line x1="936.357353" y1="700.369338" x2="964.473353" y2="719.377338" stroke="black" stroke-width="3.9204"/>
<line x1="963.681353" y1="556.225338" x2="963.681353" y2="699.181338" stroke="black" stroke-width="3.9204"/>
<circle cx="985.461353" cy="625.525338" r="13.068000000000001" fill="none" stroke="black" stroke-width="3.9204"/>
<path d="m 963.014006,557.778589 a 74.84400060548079,74.84400060548079 0 1 1 0.4020470000000387,139.60900400000003" fill="none" stroke="black" stroke-width="3.9204"/>
<path d="m 960.251989,534.491639 a 95.4359995551865,95.4359995551865 0 1 1 3.074960000000033,184.466997" fill="none" stroke="black" stroke-width="3.9204"/>
<line x1="1473.349977" y1="722.094401" x2="1473.349977" y2="330.846401" stroke="black" stroke-width="3.9204"/>
<line x1="1473.349977" y1="330.846401" x2="1299.109977" y2="330.846401" stroke="black" stroke-width="3.9204"/>
<line x1="1299.109977" y1="330.846401" x2="1299.109977" y2="722.094401" stroke="black" stroke-width="3.9204"/>
<line x1="1299.109977" y1="722.094401" x2="1473.349977" y2="722.094401" stroke="black" stroke-width="3.9204"/>
<line x1="1326.037977" y1="406.086401" x2="1326.037977" y2="690.414401" stroke="black" stroke-width="3.9204"/>
<line x1="1326.037977" y1="690.414401" x2="1444.045977" y2="690.414401" stroke="black" stroke-width="3.9204"/>
<line x1="1444.045977" y1="690.414401" x2="1444.045977" y2="400.542401" stroke="black" stroke-width="3.9204"/>
<path d="m 1325.782553,406.896974 a 63.35999936674695,63.35999936674695 0 0 1 119.37433099999998,-4.293813" fill="none" stroke="black" stroke-width="3.9204"/>
<line x1="1602.853338" y1="1914.454238" x2="1602.853338" y2="2104.534238" stroke="black" stroke-width="3.9204"/>
<line x1="1602.853338" y1="2104.534238" x2="2066.648538" y2="2104.534238" stroke="black" stroke-width="3.9204"/>
<line x1="2066.648538" y1="2104.534238" x2="2066.648538" y2="1914.454238" stroke="black" stroke-width="3.9204"/>
<line x1="2066.648538" y1="1914.454238" x2="2042.888538" y2="1914.454238" stroke="black" stroke-width="3.9204"/>
<line x1="2042.888538" y1="1914.454238" x2="2042.888538" y2="2081.724638" stroke="black" stroke-width="3.9204"/>
<line x1="2042.888538" y1="2081.724638" x2="1627.563738" y2="2081.724638" stroke="black" stroke-width="3.9204"/>
<line x1="1627.563738" y1="2081.724638" x2="1627.563738" y2="1914.454238" stroke="black" stroke-width="3.9204"/>
<line x1="1627.563738" y1="1914.454238" x2="1602.853338" y2="1914.454238" stroke="black" stroke-width="3.9204"/>
<line x1="1627.563738" y1="1920.156638" x2="2042.888538" y2="1920.156638" stroke="black" stroke-width="3.9204"/>
<line x1="1834.750938" y1="1919.206238" x2="1834.750938" y2="2080.774238" stroke="black" stroke-width="3.9204"/>
<line x1="927.659605" y1="1215.759996" x2="927.659605" y2="1196.116911" stroke="black" stroke-width="3.9204"/>
<line x1="927.659605" y1="1196.116911" x2="889.331632" y2="1196.116911" stroke="black" stroke-width="3.9204"/>
<line x1="889.331632" y1="1196.116911" x2="889.331632" y2="1215.759996" stroke="black" stroke-width="3.9204"/>
<line x1="889.331632" y1="1215.759996" x2="927.659605" y2="1215.759996" stroke="black" stroke-width="3.9204"/>
<line x1="889.331632" y1="1003.997951" x2="698.170873" y2="1003.997951" stroke="black" stroke-width="3.9204"/>
<line x1="928.617806" y1="1003.518854" x2="928.617806" y2="983.875769" stroke="black" stroke-width="3.9204"/>
<line x1="928.617806" y1="983.875769" x2="890.289833" y2="983.875769" stroke="black" stroke-width="3.9204"/>
<line x1="890.289833" y1="983.875769" x2="890.289833" y2="1003.518854" stroke="black" stroke-width="3.9204"/>
<line x1="890.289833" y1="1003.518854" x2="928.617806" y2="1003.518854" stroke="black" stroke-width="3.9204"/>
<path d="m 890.768934,1196.116911 a 192.11896000000002,192.11896000000002 0 0 1 -192.1189599999999,-192.11896000000013" fill="none" stroke="black" stroke-width="3.9204"/>
<line x1="924.972773" y1="1470.753322" x2="924.972773" y2="1451.746906" stroke="black" stroke-width="3.9204"/>
<line x1="924.972773" y1="1451.746906" x2="887.88708" y2="1451.746906" stroke="black" stroke-width="3.9204"/>
<line x1="887.88708" y1="1451.746906" x2="887.88708" y2="1470.753322" stroke="black" stroke-width="3.9204"/>
<line x1="887.88708" y1="1470.753322" x2="924.972773" y2="1470.753322" stroke="black" stroke-width="3.9204"/>
<line x1="887.88708" y1="1265.854867" x2="702.922184" y2="1265.854867" stroke="black" stroke-width="3.9204"/>
<line x1="925.899916" y1="1265.391294" x2="925.899916" y2="1246.384878" stroke="black" stroke-width="3.9204"/>
<line x1="925.899916" y1="1246.384878" x2="888.814223" y2="1246.384878" stroke="black" stroke-width="3.9204"/>
<line x1="888.814223" y1="1246.384878" x2="888.814223" y2="1265.391294" stroke="black" stroke-width="3.9204"/>
<line x1="888.814223" y1="1265.391294" x2="925.899916" y2="1265.391294" stroke="black" stroke-width="3.9204"/>
<path d="m 889.277792,1451.746906 a 185.892039,185.892039 0 0 1 -185.89203899999995,-185.89203900000007" fill="none" stroke="black" stroke-width="3.9204"/>
<line x1="530.465047" y1="766.983147" x2="530.465047" y2="557.617947" stroke="black" stroke-width="3.9204"/>
<line x1="530.465047" y1="557.617947" x2="199.250647" y2="557.617947" stroke="black" stroke-width="3.9204"/>
<line x1="199.250647" y1="557.617947" x2="199.250647" y2="766.983147" stroke="black" stroke-width="3.9204"/>
<line x1="199.250647" y1="766.983147" x2="530.465047" y2="766.983147" stroke="black" stroke-width="3.9204"/>
<line x1="258.492247" y1="767.656347" x2="258.492247" y2="556.944747" stroke="black" stroke-width="3.9204"/>
<line x1="258.492247" y1="556.944747" x2="308.309047" y2="766.309947" stroke="black" stroke-width="3.9204"/>
<line x1="308.309047" y1="766.309947" x2="354.759847" y2="734.669547" stroke="black" stroke-width="3.9204"/>
<line x1="354.759847" y1="734.669547" x2="257.819047" y2="556.944747" stroke="black" stroke-width="3.9204"/>
<line x1="2035.609888" y1="991.526505" x2="1941.261494" y2="1033.533116" stroke="black" stroke-width="3.9204"/>
<line x1="1941.261494" y1="1033.533116" x2="1936.728407" y2="1023.351635" stroke="black" stroke-width="3.9204"/>
<line x1="2031.076801" y1="981.345024" x2="1936.728407" y2="1023.351635" stroke="black" stroke-width="3.9204"/>
<line x1="2035.609888" y1="991.526505" x2="2031.076801" y2="981.345024" stroke="black" stroke-width="3.9204"/>
<line x1="2021.574084" y1="985.575904" x2="2012.958819" y2="962.572232" stroke="black" stroke-width="3.9204"/>
<line x1="1946.23112" y1="1019.120751" x2="1934.598592" y2="996.647141" stroke="black" stroke-width="3.9204"/>
<line x1="1889.040055" y1="662.325274" x2="1794.691661" y2="704.331885" stroke="black" stroke-width="3.9204"/>
<line x1="1794.691661" y1="704.331885" x2="1798.922545" y2="713.834601" stroke="black" stroke-width="3.9204"/>
<line x1="1893.270935" y1="671.827991" x2="1798.922545" y2="713.834601" stroke="black" stroke-width="3.9204"/>
<line x1="1889.040055" y1="662.325274" x2="1893.270935" y2="671.827991" stroke="black" stroke-width="3.9204"/>
<line x1="1885.051397" y1="677.114195" x2="1896.381721" y2="698.909045" stroke="black" stroke-width="3.9204"/>
<line x1="1809.708437" y1="710.659042" x2="1817.947138" y2="734.643689" stroke="black" stroke-width="3.9204"/>
<line x1="1772.232228" y1="968.086101" x2="1782.413713" y2="963.553013" stroke="black" stroke-width="3.9204"/>
<line x1="1782.413713" y1="963.553013" x2="1740.407098" y2="869.204619" stroke="black" stroke-width="3.9204"/>
<line x1="1730.225618" y1="873.737707" x2="1740.407098" y2="869.204619" stroke="black" stroke-width="3.9204"/>
<line x1="1772.232228" y1="968.086101" x2="1730.225618" y2="873.737707" stroke="black" stroke-width="3.9204"/>
<line x1="1744.940186" y1="879.3861" x2="1767.111596" y2="867.074809" stroke="black" stroke-width="3.9204"/>
<line x1="1778.182829" y1="954.0503" x2="1801.865265" y2="945.132828" stroke="black" stroke-width="3.9204"/>
<line x1="2101.056899" y1="822.497243" x2="2090.875422" y2="827.03033" stroke="black" stroke-width="3.9204"/>
<line x1="2090.875422" y1="827.03033" x2="2048.868807" y2="732.681936" stroke="black" stroke-width="3.9204"/>
<line x1="2059.050292" y1="728.148845" x2="2048.868807" y2="732.681936" stroke="black" stroke-width="3.9204"/>
<line x1="2101.056899" y1="822.497243" x2="2059.050292" y2="728.148845" stroke="black" stroke-width="3.9204"/>
<line x1="2053.401895" y1="742.863417" x2="2029.417256" y2="751.102118" stroke="black" stroke-width="3.9204"/>
<line x1="2086.644538" y1="817.527613" x2="2064.170925" y2="829.160145" stroke="black" stroke-width="3.9204"/>
<circle cx="1915.64126" cy="848.117473" r="150.08625427453433" fill="none" stroke="black" stroke-width="3.9204"/>
<line x1="1631.03545" y1="1532.099646" x2="1459.760588" y2="1652.027597" stroke="black" stroke-width="3.9204"/>
<line x1="1459.760588" y1="1652.027597" x2="1592.771586" y2="1841.986991" stroke="black" stroke-width="3.9204"/>
<line x1="1592.771586" y1="1841.986991" x2="1764.046449" y2="1722.05904" stroke="black" stroke-width="3.9204"/>
<line x1="1764.046449" y1="1722.05904" x2="1631.03545" y2="1532.099646" stroke="black" stroke-width="3.9204"/>
<line x1="1649.569771" y1="1558.569399" x2="1478.294908" y2="1678.497349" stroke="black" stroke-width="3.9204"/>
<line x1="2139.715655" y1="1504.109887" x2="1981.914937" y2="1366.935816" stroke="black" stroke-width="3.9204"/>
<line x1="1981.914937" y1="1366.935816" x2="1829.776422" y2="1541.951156" stroke="black" stroke-width="3.9204"/>
<line x1="1829.776422" y1="1541.951156" x2="1987.577139" y2="1679.125227" stroke="black" stroke-width="3.9204"/>
<line x1="1987.577139" y1="1679.125227" x2="2139.715655" y2="1504.109887" stroke="black" stroke-width="3.9204"/>
<line x1="2118.516024" y1="1528.49727" x2="1960.715307" y2="1391.323202" stroke="black" stroke-width="3.9204"/>
<line x1="901.134547" y1="370.838144" x2="801.136108" y2="238.135733" stroke="black" stroke-width="3.9204"/>
<line x1="801.136108" y1="238.135733" x2="653.957069" y2="349.043092" stroke="black" stroke-width="3.9204"/>
<line x1="653.957069" y1="349.043092" x2="753.955508" y2="481.745504" stroke="black" stroke-width="3.9204"/>
<line x1="753.955508" y1="481.745504" x2="901.134547" y2="370.838144" stroke="black" stroke-width="3.9204"/>
<line x1="880.625988" y1="386.292448" x2="780.627553" y2="253.590036" stroke="black" stroke-width="3.9204"/>
<line x1="628.031666" y1="104.836553" x2="761.547311" y2="104.836553" stroke="black" stroke-width="3.9204"/>
<line x1="761.547311" y1="104.836553" x2="761.547311" y2="238.625794" stroke="black" stroke-width="3.9204"/>
<line x1="761.547311" y1="238.625794" x2="628.031666" y2="238.625794" stroke="black" stroke-width="3.9204"/>
<line x1="628.031666" y1="238.625794" x2="628.031666" y2="104.836553" stroke="black" stroke-width="3.9204"/>
<line x1="627.758069" y1="104.562957" x2="761.547311" y2="238.625794" stroke="black" stroke-width="3.9204"/>
<line x1="628.031666" y1="238.352198" x2="761.273715" y2="104.836553" stroke="black" stroke-width="3.9204"/>
<line x1="200.015256" y1="1874.22844" x2="428.899217" y2="1874.22844" stroke="black" stroke-width="3.9204"/>
<line x1="428.899217" y1="1874.22844" x2="428.899217" y2="2103.581423" stroke="black" stroke-width="3.9204"/>
<line x1="428.899217" y1="2103.581423" x2="200.015256" y2="2103.581423" stroke="black" stroke-width="3.9204"/>
<line x1="200.015256" y1="2103.581423" x2="200.015256" y2="1874.22844" stroke="black" stroke-width="3.9204"/>
<line x1="199.546233" y1="1873.759413" x2="428.899217" y2="2103.581423" stroke="black" stroke-width="3.9204"/>
<line x1="200.015256" y1="2103.1124" x2="428.430194" y2="1874.22844" stroke="black" stroke-width="3.9204"/>
<line x1="383.822303" y1="1621.392736" x2="199.988942" y2="1663.834008" stroke="black" stroke-width="3.9204"/>
<line x1="199.988942" y1="1663.834008" x2="247.060175" y2="1867.721918" stroke="black" stroke-width="3.9204"/>
<line x1="247.060175" y1="1867.721918" x2="430.893536" y2="1825.280642" stroke="black" stroke-width="3.9204"/>
<line x1="430.893536" y1="1825.280642" x2="383.822303" y2="1621.392736" stroke="black" stroke-width="3.9204"/>
<line x1="390.381409" y1="1649.803344" x2="206.548048" y2="1692.24462" stroke="black" stroke-width="3.9204"/>
</g>
</svg>
