<?xml version="1.0"?>
<svg xmlns:xlink="http://www.w3.org/1999/xlink" width="2352.24" height="2506.68">
<image x="0" y="0" width="2352.24" height="2506.68" xlink:href="groundempty-03.png"/>
<g style="stroke-linecap:round">
<line x1="104.681368" y1="1211.868856" x2="104.681368" y2="936.045741" stroke="black" stroke-width="3.9204"/>
<line x1="104.681368" y1="936.045741" x2="55.347154" y2="936.045741" stroke="black" stroke-width="3.9204"/>
<line x1="55.347154" y1="936.045741" x2="55.347154" y2="1211.868856" stroke="black" stroke-width="3.9204"/>
<line x1="55.347154" y1="1211.868856" x2="104.681368" y2="1211.868856" stroke="black" stroke-width="3.9204"/>
<line x1="104.681368" y1="1198.974685" x2="121.499853" y2="1198.974685" stroke="black" stroke-width="3.9204"/>
<line x1="121.499853" y1="1198.974685" x2="121.499853" y2="949.500526" stroke="black" stroke-width="3.9204"/>
<line x1="104.681368" y1="949.500526" x2="121.499853" y2="949.500526" stroke="black" stroke-width="3.9204"/>
<line x1="2247.440204" y1="865.889988" x2="2247.440204" y2="1117.978345" stroke="black" stroke-width="3.9204"/>
<line x1="2247.440204" y1="1117.978345" x2="2286.301695" y2="1117.978345" stroke="black" stroke-width="3.9204"/>
<line x1="2286.301695" y1="1117.978345" x2="2286.301695" y2="865.889988" stroke="black" stroke-width="3.9204"/>
<line x1="2286.301695" y1="865.889988" x2="2247.440204" y2="865.889988" stroke="black" stroke-width="3.9204"/>
<line x1="2285.79036" y1="889.411418" x2="2247.951539" y2="889.411418" stroke="black" stroke-width="3.9204"/>
<line x1="2285.79036" y1="1093.945581" x2="2246.417534" y2="1093.945581" stroke="black" stroke-width="3.9204"/>
<line x1="2267.89362" y1="888.900083" x2="2267.89362" y2="1093.434246" stroke="black" stroke-width="3.9204"/>
<line x1="1161.502381" y1="1542.083578" x2="1181.935902" y2="1542.083578" stroke="black" stroke-width="3.9204"/>
<line x1="1181.935902" y1="1542.083578" x2="1181.935902" y2="1502.213292" stroke="black" stroke-width="3.9204"/>
<line x1="1181.935902" y1="1502.213292" x2="1161.502381" y2="1502.213292" stroke="black" stroke-width="3.9204"/>
<line x1="1161.502381" y1="1502.213292" x2="1161.502381" y2="1542.083578" stroke="black" stroke-width="3.9204"/>
<line x1="1381.785701" y1="1502.213292" x2="1381.785701" y2="1303.360245" stroke="black" stroke-width="3.9204"/>
<line x1="1382.284083" y1="1543.080334" x2="1402.717603" y2="1543.080334" stroke="black" stroke-width="3.9204"/>
<line x1="1402.717603" y1="1543.080334" x2="1402.717603" y2="1503.210048" stroke="black" stroke-width="3.9204"/>
<line x1="1402.717603" y1="1503.210048" x2="1382.284083" y2="1503.210048" stroke="black" stroke-width="3.9204"/>
<line x1="1382.284083" y1="1503.210048" x2="1382.284083" y2="1543.080334" stroke="black" stroke-width="3.9204"/>
<path d="m 1181.935902,1503.708426 a 199.84979899999996,199.84979899999996 0 0 1 199.84979900000008,-199.84979899999985" fill="none" stroke="black" stroke-width="3.9204"/>
<line x1="1474.645222" y1="911.202966" x2="1474.645222" y2="929.755304" stroke="black" stroke-width="3.9204"/>
<line x1="1474.645222" y1="929.755304" x2="1510.844908" y2="929.755304" stroke="black" stroke-width="3.9204"/>
<line x1="1510.844908" y1="929.755304" x2="1510.844908" y2="911.202966" stroke="black" stroke-width="3.9204"/>
<line x1="1510.844908" y1="911.202966" x2="1474.645222" y2="911.202966" stroke="black" stroke-width="3.9204"/>
<line x1="1510.844908" y1="1111.206235" x2="1691.390848" y2="1111.206235" stroke="black" stroke-width="3.9204"/>
<line x1="1473.740227" y1="1111.658732" x2="1473.740227" y2="1130.211071" stroke="black" stroke-width="3.9204"/>
<line x1="1473.740227" y1="1130.211071" x2="1509.939918" y2="1130.211071" stroke="black" stroke-width="3.9204"/>
<line x1="1509.939918" y1="1130.211071" x2="1509.939918" y2="1111.658732" stroke="black" stroke-width="3.9204"/>
<line x1="1509.939918" y1="1111.658732" x2="1473.740227" y2="1111.658732" stroke="black" stroke-width="3.9204"/>
<path d="m 1509.48742,929.755304 a 181.45093100000008,181.45093100000008 0 0 1 181.45093100000008,181.45093100000008" fill="none" stroke="black" stroke-width="3.9204"/>
<line x1="1643.872705" y1="316.784695" x2="1643.872705" y2="710.028566" stroke="black" stroke-width="3.9204"/>
<line x1="1644.868986" y1="713.983973" x2="1508.80021" y2="713.983973" stroke="black" stroke-width="3.9204"/>
<line x1="1507.648705" y1="317.249084" x2="1507.648705" y2="714.289312" stroke="black" stroke-width="3.9204"/>
<line x1="1643.177955" y1="317.983973" x2="1507.913898" y2="317.983973" stroke="black" stroke-width="3.9204"/>
<line x1="1632.784705" y1="328.279973" x2="1632.784705" y2="451.831973" stroke="black" stroke-width="3.9204"/>
<line x1="1632.784705" y1="451.831973" x2="1518.736705" y2="451.831973" stroke="black" stroke-width="3.9204"/>
<line x1="1518.736705" y1="328.279973" x2="1518.736705" y2="451.831973" stroke="black" stroke-width="3.9204"/>
<line x1="1632.784705" y1="328.279973" x2="1518.736705" y2="328.279973" stroke="black" stroke-width="3.9204"/>
<line x1="1625.656705" y1="470.839973" x2="1625.656705" y2="557.959973" stroke="black" stroke-width="3.9204"/>
<line x1="1605.856705" y1="470.839973" x2="1605.856705" y2="557.959973" stroke="black" stroke-width="3.9204"/>
<line x1="1585.264705" y1="471.631973" x2="1585.264705" y2="557.959973" stroke="black" stroke-width="3.9204"/>
<line x1="1565.464705" y1="471.631973" x2="1565.464705" y2="557.959973" stroke="black" stroke-width="3.9204"/>
<line x1="1545.664705" y1="470.839973" x2="1545.664705" y2="557.959973" stroke="black" stroke-width="3.9204"/>
<line x1="1525.864705" y1="470.839973" x2="1525.864705" y2="557.959973" stroke="black" stroke-width="3.9204"/>
<line x1="1519.528705" y1="375.799973" x2="1532.992705" y2="375.799973" stroke="black" stroke-width="3.9204"/>
<line x1="1532.992705" y1="375.799973" x2="1532.992705" y2="405.895973" stroke="black" stroke-width="3.9204"/>
<line x1="1532.992705" y1="405.895973" x2="1520.320705" y2="405.895973" stroke="black" stroke-width="3.9204"/>
<line x1="1632.784705" y1="578.551973" x2="1632.784705" y2="702.103973" stroke="black" stroke-width="3.9204"/>
<line x1="1632.784705" y1="702.103973" x2="1518.736705" y2="702.103973" stroke="black" stroke-width="3.9204"/>
<line x1="1518.736705" y1="578.551973" x2="1518.736705" y2="702.103973" stroke="black" stroke-width="3.9204"/>
<line x1="1632.784705" y1="578.551973" x2="1518.736705" y2="578.551973" stroke="black" stroke-width="3.9204"/>
<line x1="1518.736705" y1="626.071973" x2="1532.200705" y2="626.071973" stroke="black" stroke-width="3.9204"/>
<line x1="1532.200705" y1="626.071973" x2="1532.200705" y2="656.167973" stroke="black" stroke-width="3.9204"/>
<line x1="1532.200705" y1="656.167973" x2="1519.528705" y2="656.167973" stroke="black" stroke-width="3.9204"/>
<circle cx="1618.528705" cy="437.575973" r="7.128" fill="none" stroke="black" stroke-width="3.9204"/>
<circle cx="1617.736705" cy="687.847973" r="7.128" fill="none" stroke="black" stroke-width="3.9204"/>
<line x1="1191.95425" y1="774.161562" x2="1173.272174" y2="774.161562" stroke="black" stroke-width="3.920396"/>
<line x1="1173.272174" y1="774.161562" x2="1173.272174" y2="810.614396" stroke="black" stroke-width="3.920396"/>
<line x1="1173.272174" y1="810.614396" x2="1191.95425" y2="810.614396" stroke="black" stroke-width="3.920396"/>
<line x1="1191.95425" y1="810.614396" x2="1191.95425" y2="774.161562" stroke="black" stroke-width="3.920396"/>
<line x1="990.552357" y1="810.614396" x2="990.552357" y2="992.422894" stroke="black" stroke-width="3.920396"/>
<line x1="990.096695" y1="773.250243" x2="971.414619" y2="773.250243" stroke="black" stroke-width="3.920396"/>
<line x1="971.414619" y1="773.250243" x2="971.414619" y2="809.703073" stroke="black" stroke-width="3.920396"/>
<line x1="971.414619" y1="809.703073" x2="990.096695" y2="809.703073" stroke="black" stroke-width="3.920396"/>
<line x1="990.096695" y1="809.703073" x2="990.096695" y2="773.250243" stroke="black" stroke-width="3.920396"/>
<path d="m 1173.272174,809.247412 a 182.71981899999992,182.71981899999992 0 0 1 -182.71981699999992,182.7198209999999" fill="none" stroke="black" stroke-width="3.920396"/>
<line x1="1789.386307" y1="235.945773" x2="1941.975617" y2="235.945773" stroke="black" stroke-width="3.9204"/>
<line x1="1941.975617" y1="235.945773" x2="1941.975617" y2="388.847765" stroke="black" stroke-width="3.9204"/>
<line x1="1941.975617" y1="388.847765" x2="1789.386307" y2="388.847765" stroke="black" stroke-width="3.9204"/>
<line x1="1789.386307" y1="388.847765" x2="1789.386307" y2="235.945773" stroke="black" stroke-width="3.9204"/>
<line x1="1789.073625" y1="235.633092" x2="1941.975617" y2="388.847765" stroke="black" stroke-width="3.9204"/>
<line x1="1789.386307" y1="388.535083" x2="1941.662931" y2="235.945773" stroke="black" stroke-width="3.9204"/>
<line x1="1246.017857" y1="379.392726" x2="1062.273857" y2="379.392726" stroke="black" stroke-width="3.9204"/>
<line x1="1062.273857" y1="379.392726" x2="1062.273857" y2="330.288726" stroke="black" stroke-width="3.9204"/>
<line x1="1246.017857" y1="330.288726" x2="1062.273857" y2="330.288726" stroke="black" stroke-width="3.9204"/>
<line x1="1246.017857" y1="379.392726" x2="1246.017857" y2="330.288726" stroke="black" stroke-width="3.9204"/>
<line x1="1204.437857" y1="407.112726" x2="1204.437857" y2="379.392726" stroke="black" stroke-width="3.9204"/>
<line x1="1105.437857" y1="379.392726" x2="1105.437857" y2="408.696726" stroke="black" stroke-width="3.9204"/>
<circle cx="1155.729857" cy="452.256726" r="66.528" fill="none" stroke="black" stroke-width="3.9204"/>
<circle cx="1155.729857" cy="452.256726" r="57.024" fill="none" stroke="black" stroke-width="3.9204"/>
<line x1="960.909353" y1="534.445338" x2="936.357353" y2="553.057338" stroke="black" stroke-width="3.9204"/>
<line x1="936.357353" y1="553.057338" x2="936.357353" y2="700.369338" stroke="black" stroke-width="3.9204"/>
<line x1="936.357353" y1="700.369338" x2="964.473353" y2="719.377338" stroke="black" stroke-width="3.9204"/>
<line x1="963.681353" y1="556.225338" x2="963.681353" y2="699.181338" stroke="black" stroke-width="3.9204"/>
<circle cx="985.461353" cy="625.525338" r="13.068000000000001" fill="none" stroke="black" stroke-width="3.9204"/>
<path d="m 963.014006,557.778589 a 74.84400060548079,74.84400060548079 0 1 1 0.4020470000000387,139.60900400000003" fill="none" stroke="black" stroke-width="3.9204"/>
<path d="m 960.251989,534.491639 a 95.4359995551865,95.4359995551865 0 1 1 3.074960000000033,184.466997" fill="none" stroke="black" stroke-width="3.9204"/>
<line x1="1299.109977" y1="330.846401" x2="1299.109977" y2="722.094401" stroke="black" stroke-width="3.9204"/>
<line x1="1299.109977" y1="722.094401" x2="1473.349977" y2="722.094401" stroke="black" stroke-width="3.9204"/>
<line x1="1473.349977" y1="722.094401" x2="1473.349977" y2="330.846401" stroke="black" stroke-width="3.9204"/>
<line x1="1473.349977" y1="330.846401" x2="1299.109977" y2="330.846401" stroke="black" stroke-width="3.9204"/>
<line x1="1446.421977" y1="646.854401" x2="1446.421977" y2="362.526401" stroke="black" stroke-width="3.9204"/>
<line x1="1446.421977" y1="362.526401" x2="1328.413977" y2="362.526401" stroke="black" stroke-width="3.9204"/>
<line x1="1328.413977" y1="362.526401" x2="1328.413977" y2="652.398401" stroke="black" stroke-width="3.9204"/>
<path d="m 1446.677401,646.043829 a 63.359999516600396,63.359999516600396 0 0 1 -119.37433099999998,4.293812000000003" fill="none" stroke="black" stroke-width="3.9204"/>
<line x1="1578.708684" y1="1914.454238" x2="1578.708684" y2="2104.534238" stroke="black" stroke-width="3.9204"/>
<line x1="1578.708684" y1="2104.534238" x2="2042.503884" y2="2104.534238" stroke="black" stroke-width="3.9204"/>
<line x1="2042.503884" y1="2104.534238" x2="2042.503884" y2="1914.454238" stroke="black" stroke-width="3.9204"/>
<line x1="2042.503884" y1="1914.454238" x2="2018.743884" y2="1914.454238" stroke="black" stroke-width="3.9204"/>
<line x1="2018.743884" y1="1914.454238" x2="2018.743884" y2="2081.724638" stroke="black" stroke-width="3.9204"/>
<line x1="2018.743884" y1="2081.724638" x2="1603.419084" y2="2081.724638" stroke="black" stroke-width="3.9204"/>
<line x1="1603.419084" y1="2081.724638" x2="1603.419084" y2="1914.454238" stroke="black" stroke-width="3.9204"/>
<line x1="1603.419084" y1="1914.454238" x2="1578.708684" y2="1914.454238" stroke="black" stroke-width="3.9204"/>
<line x1="1603.419084" y1="1920.156638" x2="2018.743884" y2="1920.156638" stroke="black" stroke-width="3.9204"/>
<line x1="1810.606284" y1="1919.206238" x2="1810.606284" y2="2080.774238" stroke="black" stroke-width="3.9204"/>
<line x1="927.659605" y1="1215.759996" x2="927.659605" y2="1196.116911" stroke="black" stroke-width="3.9204"/>
<line x1="927.659605" y1="1196.116911" x2="889.331632" y2="1196.116911" stroke="black" stroke-width="3.9204"/>
<line x1="889.331632" y1="1196.116911" x2="889.331632" y2="1215.759996" stroke="black" stroke-width="3.9204"/>
<line x1="889.331632" y1="1215.759996" x2="927.659605" y2="1215.759996" stroke="black" stroke-width="3.9204"/>
<line x1="889.331632" y1="1003.997951" x2="698.170873" y2="1003.997951" stroke="black" stroke-width="3.9204"/>
<line x1="928.617806" y1="1003.518854" x2="928.617806" y2="983.875769" stroke="black" stroke-width="3.9204"/>
<line x1="928.617806" y1="983.875769" x2="890.289833" y2="983.875769" stroke="black" stroke-width="3.9204"/>
<line x1="890.289833" y1="983.875769" x2="890.289833" y2="1003.518854" stroke="black" stroke-width="3.9204"/>
<line x1="890.289833" y1="1003.518854" x2="928.617806" y2="1003.518854" stroke="black" stroke-width="3.9204"/>
<path d="m 890.768934,1196.116911 a 192.11896000000002,192.11896000000002 0 0 1 -192.1189599999999,-192.11896000000013" fill="none" stroke="black" stroke-width="3.9204"/>
<line x1="924.972773" y1="1470.753322" x2="924.972773" y2="1451.746906" stroke="black" stroke-width="3.9204"/>
<line x1="924.972773" y1="1451.746906" x2="887.88708" y2="1451.746906" stroke="black" stroke-width="3.9204"/>
<line x1="887.88708" y1="1451.746906" x2="887.88708" y2="1470.753322" stroke="black" stroke-width="3.9204"/>
<line x1="887.88708" y1="1470.753322" x2="924.972773" y2="1470.753322" stroke="black" stroke-width="3.9204"/>
<line x1="887.88708" y1="1265.854867" x2="702.922184" y2="1265.854867" stroke="black" stroke-width="3.9204"/>
<line x1="925.899916" y1="1265.391294" x2="925.899916" y2="1246.384878" stroke="black" stroke-width="3.9204"/>
<line x1="925.899916" y1="1246.384878" x2="888.814223" y2="1246.384878" stroke="black" stroke-width="3.9204"/>
<line x1="888.814223" y1="1246.384878" x2="888.814223" y2="1265.391294" stroke="black" stroke-width="3.9204"/>
<line x1="888.814223" y1="1265.391294" x2="925.899916" y2="1265.391294" stroke="black" stroke-width="3.9204"/>
<path d="m 889.277792,1451.746906 a 185.892039,185.892039 0 0 1 -185.89203899999995,-185.89203900000007" fill="none" stroke="black" stroke-width="3.9204"/>
<line x1="530.362503" y1="732.221151" x2="530.362503" y2="522.855951" stroke="black" stroke-width="3.9204"/>
<line x1="530.362503" y1="522.855951" x2="199.148103" y2="522.855951" stroke="black" stroke-width="3.9204"/>
<line x1="199.148103" y1="522.855951" x2="199.148103" y2="732.221151" stroke="black" stroke-width="3.9204"/>
<line x1="199.148103" y1="732.221151" x2="530.362503" y2="732.221151" stroke="black" stroke-width="3.9204"/>
<line x1="258.389703" y1="732.894351" x2="258.389703" y2="522.182751" stroke="black" stroke-width="3.9204"/>
<line x1="258.389703" y1="522.182751" x2="308.206503" y2="731.547951" stroke="black" stroke-width="3.9204"/>
<line x1="308.206503" y1="731.547951" x2="354.657303" y2="699.907551" stroke="black" stroke-width="3.9204"/>
<line x1="354.657303" y1="699.907551" x2="257.716503" y2="522.182751" stroke="black" stroke-width="3.9204"/>
<line x1="1911.709305" y1="652.346648" x2="1767.675932" y2="975.850904" stroke="black" stroke-width="3.9204"/>
<line x1="1767.675932" y1="975.850904" x2="1919.644662" y2="1043.511741" stroke="black" stroke-width="3.9204"/>
<line x1="1919.644662" y1="1043.511741" x2="2063.678035" y2="720.007485" stroke="black" stroke-width="3.9204"/>
<line x1="2063.678035" y1="720.007485" x2="1911.709305" y2="652.346648" stroke="black" stroke-width="3.9204"/>
<line x1="2005.309675" y1="851.104976" x2="2071.836756" y2="880.724742" stroke="black" stroke-width="3.9204"/>
<line x1="2071.836756" y1="880.724742" x2="2100.585354" y2="816.154337" stroke="black" stroke-width="3.9204"/>
<line x1="2100.585354" y1="816.154337" x2="2034.058269" y2="786.53457" stroke="black" stroke-width="3.9204"/>
<line x1="2085.945987" y1="810.417988" x2="2057.487779" y2="874.336166" stroke="black" stroke-width="3.9204"/>
<line x1="1814.910229" y1="688.963576" x2="1786.161631" y2="753.533982" stroke="black" stroke-width="3.9204"/>
<line x1="1786.161631" y1="753.533982" x2="1853.340944" y2="783.444139" stroke="black" stroke-width="3.9204"/>
<line x1="1882.089539" y1="718.873733" x2="1814.910229" y2="688.963576" stroke="black" stroke-width="3.9204"/>
<line x1="1828.968816" y1="696.004377" x2="1800.510608" y2="759.922559" stroke="black" stroke-width="3.9204"/>
<line x1="1949.84521" y1="975.680204" x2="2016.372291" y2="1005.299967" stroke="black" stroke-width="3.9204"/>
<line x1="2016.372291" y1="1005.299967" x2="2045.120889" y2="940.729561" stroke="black" stroke-width="3.9204"/>
<line x1="2045.120889" y1="940.729561" x2="1978.593808" y2="911.109799" stroke="black" stroke-width="3.9204"/>
<line x1="2030.771912" y1="934.340988" x2="2002.023314" y2="998.911394" stroke="black" stroke-width="3.9204"/>
<line x1="1759.445765" y1="813.538804" x2="1730.697162" y2="878.10921" stroke="black" stroke-width="3.9204"/>
<line x1="1730.697162" y1="878.10921" x2="1797.876476" y2="908.019363" stroke="black" stroke-width="3.9204"/>
<line x1="1826.625074" y1="843.448958" x2="1759.445765" y2="813.538804" stroke="black" stroke-width="3.9204"/>
<line x1="1773.794741" y1="819.927381" x2="1745.046143" y2="884.497787" stroke="black" stroke-width="3.9204"/>
<line x1="2139.715655" y1="1531.307523" x2="2008.132311" y2="1368.815628" stroke="black" stroke-width="3.9204"/>
<line x1="2008.132311" y1="1368.815628" x2="1827.914026" y2="1514.753515" stroke="black" stroke-width="3.9204"/>
<line x1="1827.914026" y1="1514.753515" x2="1959.497369" y2="1677.245411" stroke="black" stroke-width="3.9204"/>
<line x1="1959.497369" y1="1677.245411" x2="2139.715655" y2="1531.307523" stroke="black" stroke-width="3.9204"/>
<line x1="2114.603267" y1="1551.643129" x2="1983.019928" y2="1389.151233" stroke="black" stroke-width="3.9204"/>
<line x1="1541.457775" y1="1532.09965" x2="1459.760588" y2="1724.566168" stroke="black" stroke-width="3.9204"/>
<line x1="1459.760588" y1="1724.566168" x2="1673.223453" y2="1815.175779" stroke="black" stroke-width="3.9204"/>
<line x1="1673.223453" y1="1815.175779" x2="1754.920641" y2="1622.709261" stroke="black" stroke-width="3.9204"/>
<line x1="1754.920641" y1="1622.709261" x2="1541.457775" y2="1532.09965" stroke="black" stroke-width="3.9204"/>
<line x1="1571.202603" y1="1544.725579" x2="1489.505411" y2="1737.192097" stroke="black" stroke-width="3.9204"/>
<line x1="901.134543" y1="403.423511" x2="837.686508" y2="238.135733" stroke="black" stroke-width="3.920404"/>
<line x1="837.686508" y1="238.135733" x2="654.367345" y2="308.505372" stroke="black" stroke-width="3.920404"/>
<line x1="654.367345" y1="308.505372" x2="717.815372" y2="473.793147" stroke="black" stroke-width="3.920404"/>
<line x1="717.815372" y1="473.793147" x2="901.134543" y2="403.423511" stroke="black" stroke-width="3.920404"/>
<line x1="875.590068" y1="413.229117" x2="812.142037" y2="247.941342" stroke="black" stroke-width="3.920404"/>
<line x1="628.031666" y1="104.836553" x2="761.547311" y2="104.836553" stroke="black" stroke-width="3.9204"/>
<line x1="761.547311" y1="104.836553" x2="761.547311" y2="238.625794" stroke="black" stroke-width="3.9204"/>
<line x1="761.547311" y1="238.625794" x2="628.031666" y2="238.625794" stroke="black" stroke-width="3.9204"/>
<line x1="628.031666" y1="238.625794" x2="628.031666" y2="104.836553" stroke="black" stroke-width="3.9204"/>
<line x1="627.758069" y1="104.562957" x2="761.547311" y2="238.625794" stroke="black" stroke-width="3.9204"/>
<line x1="628.031666" y1="238.352198" x2="761.273715" y2="104.836553" stroke="black" stroke-width="3.9204"/>
<line x1="200.015256" y1="1874.22844" x2="428.899217" y2="1874.22844" stroke="black" stroke-width="3.9204"/>
<line x1="428.899217" y1="1874.22844" x2="428.899217" y2="2103.581423" stroke="black" stroke-width="3.9204"/>
<line x1="428.899217" y1="2103.581423" x2="200.015256" y2="2103.581423" stroke="black" stroke-width="3.9204"/>
<line x1="200.015256" y1="2103.581423" x2="200.015256" y2="1874.22844" stroke="black" stroke-width="3.9204"/>
<line x1="199.546233" y1="1873.759413" x2="428.899217" y2="2103.581423" stroke="black" stroke-width="3.9204"/>
<line x1="200.015256" y1="2103.1124" x2="428.430194" y2="1874.22844" stroke="black" stroke-width="3.9204"/>
<line x1="399.571904" y1="1621.39274" x2="199.988946" y2="1645.898447" stroke="black" stroke-width="3.9204"/>
<line x1="199.988946" y1="1645.898447" x2="227.168002" y2="1867.254092" stroke="black" stroke-width="3.9204"/>
<line x1="227.168002" y1="1867.254092" x2="426.75096" y2="1842.748384" stroke="black" stroke-width="3.9204"/>
<line x1="426.75096" y1="1842.748384" x2="399.571904" y2="1621.39274" stroke="black" stroke-width="3.9204"/>
<line x1="403.359149" y1="1652.237382" x2="203.776191" y2="1676.743085" stroke="black" stroke-width="3.9204"/>
</g>
</svg>
