<?xml version="1.0"?>
<svg xmlns:xlink="http://www.w3.org/1999/xlink" width="2352.24" height="2506.68">
<image x="0" y="0" width="2352.24" height="2506.68" xlink:href="groundempty-03.png"/>
<g style="stroke-linecap:round">
<line x1="97.870362" y1="1211.87798" x2="97.870362" y2="936.036621" stroke="black" stroke-width="3.9204"/>
<line x1="97.870362" y1="936.036621" x2="55.34715" y2="936.036621" stroke="black" stroke-width="3.9204"/>
<line x1="55.34715" y1="936.036621" x2="55.34715" y2="1211.87798" stroke="black" stroke-width="3.9204"/>
<line x1="55.34715" y1="1211.87798" x2="97.870362" y2="1211.87798" stroke="black" stroke-width="3.9204"/>
<line x1="55.906666" y1="1186.140249" x2="97.310846" y2="1186.140249" stroke="black" stroke-width="3.9204"/>
<line x1="55.906666" y1="962.333872" x2="98.989395" y2="962.333872" stroke="black" stroke-width="3.9204"/>
<line x1="75.489726" y1="1186.699766" x2="75.489726" y2="962.893388" stroke="black" stroke-width="3.9204"/>
<line x1="2241.215706" y1="865.898328" x2="2241.215706" y2="1117.97001" stroke="black" stroke-width="3.9204"/>
<line x1="2241.215706" y1="1117.97001" x2="2286.301695" y2="1117.97001" stroke="black" stroke-width="3.9204"/>
<line x1="2286.301695" y1="1117.97001" x2="2286.301695" y2="865.898328" stroke="black" stroke-width="3.9204"/>
<line x1="2286.301695" y1="865.898328" x2="2241.215706" y2="865.898328" stroke="black" stroke-width="3.9204"/>
<line x1="2241.215706" y1="877.682168" x2="2225.84548" y2="877.682168" stroke="black" stroke-width="3.9204"/>
<line x1="2225.84548" y1="877.682168" x2="2225.84548" y2="1105.673829" stroke="black" stroke-width="3.9204"/>
<line x1="2241.215706" y1="1105.673829" x2="2225.84548" y2="1105.673829" stroke="black" stroke-width="3.9204"/>
<line x1="1161.502381" y1="1542.083578" x2="1181.935902" y2="1542.083578" stroke="black" stroke-width="3.9204"/>
<line x1="1181.935902" y1="1542.083578" x2="1181.935902" y2="1502.213292" stroke="black" stroke-width="3.9204"/>
<line x1="1181.935902" y1="1502.213292" x2="1161.502381" y2="1502.213292" stroke="black" stroke-width="3.9204"/>
<line x1="1161.502381" y1="1502.213292" x2="1161.502381" y2="1542.083578" stroke="black" stroke-width="3.9204"/>
<line x1="1381.785701" y1="1502.213292" x2="1381.785701" y2="1303.360245" stroke="black" stroke-width="3.9204"/>
<line x1="1382.284083" y1="1543.080334" x2="1402.717603" y2="1543.080334" stroke="black" stroke-width="3.9204"/>
<line x1="1402.717603" y1="1543.080334" x2="1402.717603" y2="1503.210048" stroke="black" stroke-width="3.9204"/>
<line x1="1402.717603" y1="1503.210048" x2="1382.284083" y2="1503.210048" stroke="black" stroke-width="3.9204"/>
<line x1="1382.284083" y1="1503.210048" x2="1382.284083" y2="1543.080334" stroke="black" stroke-width="3.9204"/>
<path d="m 1181.935902,1503.708426 a 199.84979899999996,199.84979899999996 0 0 1 199.84979900000008,-199.84979899999985" fill="none" stroke="black" stroke-width="3.9204"/>
<line x1="1474.645222" y1="911.202966" x2="1474.645222" y2="929.755304" stroke="black" stroke-width="3.9204"/>
<line x1="1474.645222" y1="929.755304" x2="1510.844908" y2="929.755304" stroke="black" stroke-width="3.9204"/>
<line x1="1510.844908" y1="929.755304" x2="1510.844908" y2="911.202966" stroke="black" stroke-width="3.9204"/>
<line x1="1510.844908" y1="911.202966" x2="1474.645222" y2="911.202966" stroke="black" stroke-width="3.9204"/>
<line x1="1510.844908" y1="1111.206235" x2="1691.390848" y2="1111.206235" stroke="black" stroke-width="3.9204"/>
<line x1="1473.740227" y1="1111.658732" x2="1473.740227" y2="1130.211071" stroke="black" stroke-width="3.9204"/>
<line x1="1473.740227" y1="1130.211071" x2="1509.939918" y2="1130.211071" stroke="black" stroke-width="3.9204"/>
<line x1="1509.939918" y1="1130.211071" x2="1509.939918" y2="1111.658732" stroke="black" stroke-width="3.9204"/>
<line x1="1509.939918" y1="1111.658732" x2="1473.740227" y2="1111.658732" stroke="black" stroke-width="3.9204"/>
<path d="m 1509.48742,929.755304 a 181.45093100000008,181.45093100000008 0 0 1 181.45093100000008,181.45093100000008" fill="none" stroke="black" stroke-width="3.9204"/>
<line x1="1639.595905" y1="380.263404" x2="1639.595905" y2="650.810604" stroke="black" stroke-width="3.9204"/>
<line x1="1639.595905" y1="650.810604" x2="1507.648705" y2="650.810604" stroke="black" stroke-width="3.9204"/>
<line x1="1507.648705" y1="380.263404" x2="1507.648705" y2="650.810604" stroke="black" stroke-width="3.9204"/>
<line x1="1639.595905" y1="380.263404" x2="1507.648705" y2="380.263404" stroke="black" stroke-width="3.9204"/>
<line x1="1632.943105" y1="386.916204" x2="1632.943105" y2="524.961804" stroke="black" stroke-width="3.9204"/>
<line x1="1632.943105" y1="524.961804" x2="1514.855905" y2="524.961804" stroke="black" stroke-width="3.9204"/>
<line x1="1514.855905" y1="386.916204" x2="1514.855905" y2="524.961804" stroke="black" stroke-width="3.9204"/>
<line x1="1632.943105" y1="386.916204" x2="1514.855905" y2="386.916204" stroke="black" stroke-width="3.9204"/>
<line x1="1625.181505" y1="539.376204" x2="1625.181505" y2="636.396204" stroke="black" stroke-width="3.9204"/>
<line x1="1604.668705" y1="539.376204" x2="1604.668705" y2="636.396204" stroke="black" stroke-width="3.9204"/>
<line x1="1583.601505" y1="539.930604" x2="1583.601505" y2="636.950604" stroke="black" stroke-width="3.9204"/>
<line x1="1563.088705" y1="539.930604" x2="1563.088705" y2="636.950604" stroke="black" stroke-width="3.9204"/>
<line x1="1542.575905" y1="539.376204" x2="1542.575905" y2="636.396204" stroke="black" stroke-width="3.9204"/>
<line x1="1522.063105" y1="539.376204" x2="1522.063105" y2="636.396204" stroke="black" stroke-width="3.9204"/>
<line x1="1514.855905" y1="439.584204" x2="1528.715905" y2="439.584204" stroke="black" stroke-width="3.9204"/>
<line x1="1528.715905" y1="439.584204" x2="1528.715905" y2="473.957004" stroke="black" stroke-width="3.9204"/>
<line x1="1528.715905" y1="473.957004" x2="1515.410305" y2="473.957004" stroke="black" stroke-width="3.9204"/>
<circle cx="1617.974305" cy="509.438604" r="8.316" fill="none" stroke="black" stroke-width="3.9204"/>
<line x1="1191.95425" y1="774.161562" x2="1173.272174" y2="774.161562" stroke="black" stroke-width="3.920396"/>
<line x1="1173.272174" y1="774.161562" x2="1173.272174" y2="810.614396" stroke="black" stroke-width="3.920396"/>
<line x1="1173.272174" y1="810.614396" x2="1191.95425" y2="810.614396" stroke="black" stroke-width="3.920396"/>
<line x1="1191.95425" y1="810.614396" x2="1191.95425" y2="774.161562" stroke="black" stroke-width="3.920396"/>
<line x1="990.552357" y1="810.614396" x2="990.552357" y2="992.422894" stroke="black" stroke-width="3.920396"/>
<line x1="990.096695" y1="773.250243" x2="971.414619" y2="773.250243" stroke="black" stroke-width="3.920396"/>
<line x1="971.414619" y1="773.250243" x2="971.414619" y2="809.703073" stroke="black" stroke-width="3.920396"/>
<line x1="971.414619" y1="809.703073" x2="990.096695" y2="809.703073" stroke="black" stroke-width="3.920396"/>
<line x1="990.096695" y1="809.703073" x2="990.096695" y2="773.250243" stroke="black" stroke-width="3.920396"/>
<path d="m 1173.272174,809.247412 a 182.71981899999992,182.71981899999992 0 0 1 -182.71981699999992,182.7198209999999" fill="none" stroke="black" stroke-width="3.920396"/>
<line x1="1789.386307" y1="235.945773" x2="1941.975617" y2="235.945773" stroke="black" stroke-width="3.9204"/>
<line x1="1941.975617" y1="235.945773" x2="1941.975617" y2="388.847765" stroke="black" stroke-width="3.9204"/>
<line x1="1941.975617" y1="388.847765" x2="1789.386307" y2="388.847765" stroke="black" stroke-width="3.9204"/>
<line x1="1789.386307" y1="388.847765" x2="1789.386307" y2="235.945773" stroke="black" stroke-width="3.9204"/>
<line x1="1789.073625" y1="235.633092" x2="1941.975617" y2="388.847765" stroke="black" stroke-width="3.9204"/>
<line x1="1789.386307" y1="388.535083" x2="1941.662931" y2="235.945773" stroke="black" stroke-width="3.9204"/>
<line x1="1246.017857" y1="379.392726" x2="1062.273857" y2="379.392726" stroke="black" stroke-width="3.9204"/>
<line x1="1062.273857" y1="379.392726" x2="1062.273857" y2="330.288726" stroke="black" stroke-width="3.9204"/>
<line x1="1246.017857" y1="330.288726" x2="1062.273857" y2="330.288726" stroke="black" stroke-width="3.9204"/>
<line x1="1246.017857" y1="379.392726" x2="1246.017857" y2="330.288726" stroke="black" stroke-width="3.9204"/>
<line x1="1204.437857" y1="407.112726" x2="1204.437857" y2="379.392726" stroke="black" stroke-width="3.9204"/>
<line x1="1105.437857" y1="379.392726" x2="1105.437857" y2="408.696726" stroke="black" stroke-width="3.9204"/>
<circle cx="1155.729857" cy="452.256726" r="66.528" fill="none" stroke="black" stroke-width="3.9204"/>
<circle cx="1155.729857" cy="452.256726" r="57.024" fill="none" stroke="black" stroke-width="3.9204"/>
<line x1="960.909353" y1="534.445338" x2="936.357353" y2="553.057338" stroke="black" stroke-width="3.9204"/>
<line x1="936.357353" y1="553.057338" x2="936.357353" y2="700.369338" stroke="black" stroke-width="3.9204"/>
<line x1="936.357353" y1="700.369338" x2="964.473353" y2="719.377338" stroke="black" stroke-width="3.9204"/>
<line x1="963.681353" y1="556.225338" x2="963.681353" y2="699.181338" stroke="black" stroke-width="3.9204"/>
<circle cx="985.461353" cy="625.525338" r="13.068000000000001" fill="none" stroke="black" stroke-width="3.9204"/>
<path d="m 963.014006,557.778589 a 74.84400060548079,74.84400060548079 0 1 1 0.4020470000000387,139.60900400000003" fill="none" stroke="black" stroke-width="3.9204"/>
<path d="m 960.251989,534.491639 a 95.4359995551865,95.4359995551865 0 1 1 3.074960000000033,184.466997" fill="none" stroke="black" stroke-width="3.9204"/>
<line x1="1473.349977" y1="722.094401" x2="1473.349977" y2="330.846401" stroke="black" stroke-width="3.9204"/>
<line x1="1473.349977" y1="330.846401" x2="1299.109977" y2="330.846401" stroke="black" stroke-width="3.9204"/>
<line x1="1299.109977" y1="330.846401" x2="1299.109977" y2="722.094401" stroke="black" stroke-width="3.9204"/>
<line x1="1299.109977" y1="722.094401" x2="1473.349977" y2="722.094401" stroke="black" stroke-width="3.9204"/>
<line x1="1326.037977" y1="406.086401" x2="1326.037977" y2="690.414401" stroke="black" stroke-width="3.9204"/>
<line x1="1326.037977" y1="690.414401" x2="1444.045977" y2="690.414401" stroke="black" stroke-width="3.9204"/>
<line x1="1444.045977" y1="690.414401" x2="1444.045977" y2="400.542401" stroke="black" stroke-width="3.9204"/>
<path d="m 1325.782553,406.896974 a 63.35999936674695,63.35999936674695 0 0 1 119.37433099999998,-4.293813" fill="none" stroke="black" stroke-width="3.9204"/>
<line x1="1597.262115" y1="1914.454238" x2="1597.262115" y2="2104.534238" stroke="black" stroke-width="3.9204"/>
<line x1="1597.262115" y1="2104.534238" x2="2061.057315" y2="2104.534238" stroke="black" stroke-width="3.9204"/>
<line x1="2061.057315" y1="2104.534238" x2="2061.057315" y2="1914.454238" stroke="black" stroke-width="3.9204"/>
<line x1="2061.057315" y1="1914.454238" x2="2037.297315" y2="1914.454238" stroke="black" stroke-width="3.9204"/>
<line x1="2037.297315" y1="1914.454238" x2="2037.297315" y2="2081.724638" stroke="black" stroke-width="3.9204"/>
<line x1="2037.297315" y1="2081.724638" x2="1621.972515" y2="2081.724638" stroke="black" stroke-width="3.9204"/>
<line x1="1621.972515" y1="2081.724638" x2="1621.972515" y2="1914.454238" stroke="black" stroke-width="3.9204"/>
<line x1="1621.972515" y1="1914.454238" x2="1597.262115" y2="1914.454238" stroke="black" stroke-width="3.9204"/>
<line x1="1621.972515" y1="1920.156638" x2="2037.297315" y2="1920.156638" stroke="black" stroke-width="3.9204"/>
<line x1="1829.159715" y1="1919.206238" x2="1829.159715" y2="2080.774238" stroke="black" stroke-width="3.9204"/>
<line x1="927.659605" y1="1215.759996" x2="927.659605" y2="1196.116911" stroke="black" stroke-width="3.9204"/>
<line x1="927.659605" y1="1196.116911" x2="889.331632" y2="1196.116911" stroke="black" stroke-width="3.9204"/>
<line x1="889.331632" y1="1196.116911" x2="889.331632" y2="1215.759996" stroke="black" stroke-width="3.9204"/>
<line x1="889.331632" y1="1215.759996" x2="927.659605" y2="1215.759996" stroke="black" stroke-width="3.9204"/>
<line x1="889.331632" y1="1003.997951" x2="698.170873" y2="1003.997951" stroke="black" stroke-width="3.9204"/>
<line x1="928.617806" y1="1003.518854" x2="928.617806" y2="983.875769" stroke="black" stroke-width="3.9204"/>
<line x1="928.617806" y1="983.875769" x2="890.289833" y2="983.875769" stroke="black" stroke-width="3.9204"/>
<line x1="890.289833" y1="983.875769" x2="890.289833" y2="1003.518854" stroke="black" stroke-width="3.9204"/>
<line x1="890.289833" y1="1003.518854" x2="928.617806" y2="1003.518854" stroke="black" stroke-width="3.9204"/>
<path d="m 890.768934,1196.116911 a 192.11896000000002,192.11896000000002 0 0 1 -192.1189599999999,-192.11896000000013" fill="none" stroke="black" stroke-width="3.9204"/>
<line x1="924.972773" y1="1470.753322" x2="924.972773" y2="1451.746906" stroke="black" stroke-width="3.9204"/>
<line x1="924.972773" y1="1451.746906" x2="887.88708" y2="1451.746906" stroke="black" stroke-width="3.9204"/>
<line x1="887.88708" y1="1451.746906" x2="887.88708" y2="1470.753322" stroke="black" stroke-width="3.9204"/>
<line x1="887.88708" y1="1470.753322" x2="924.972773" y2="1470.753322" stroke="black" stroke-width="3.9204"/>
<line x1="887.88708" y1="1265.854867" x2="702.922184" y2="1265.854867" stroke="black" stroke-width="3.9204"/>
<line x1="925.899916" y1="1265.391294" x2="925.899916" y2="1246.384878" stroke="black" stroke-width="3.9204"/>
<line x1="925.899916" y1="1246.384878" x2="888.814223" y2="1246.384878" stroke="black" stroke-width="3.9204"/>
<line x1="888.814223" y1="1246.384878" x2="888.814223" y2="1265.391294" stroke="black" stroke-width="3.9204"/>
<line x1="888.814223" y1="1265.391294" x2="925.899916" y2="1265.391294" stroke="black" stroke-width="3.9204"/>
<path d="m 889.277792,1451.746906 a 185.892039,185.892039 0 0 1 -185.89203899999995,-185.89203900000007" fill="none" stroke="black" stroke-width="3.9204"/>
<line x1="530.223028" y1="684.938264" x2="530.223028" y2="475.573064" stroke="black" stroke-width="3.9204"/>
<line x1="530.223028" y1="475.573064" x2="199.008628" y2="475.573064" stroke="black" stroke-width="3.9204"/>
<line x1="199.008628" y1="475.573064" x2="199.008628" y2="684.938264" stroke="black" stroke-width="3.9204"/>
<line x1="199.008628" y1="684.938264" x2="530.223028" y2="684.938264" stroke="black" stroke-width="3.9204"/>
<line x1="258.250228" y1="685.611464" x2="258.250228" y2="474.899864" stroke="black" stroke-width="3.9204"/>
<line x1="258.250228" y1="474.899864" x2="308.067028" y2="684.265064" stroke="black" stroke-width="3.9204"/>
<line x1="308.067028" y1="684.265064" x2="354.517828" y2="652.624664" stroke="black" stroke-width="3.9204"/>
<line x1="354.517828" y1="652.624664" x2="257.577028" y2="474.899864" stroke="black" stroke-width="3.9204"/>
<line x1="2051.974707" y1="993.912844" x2="1940.020858" y2="649.354325" stroke="black" stroke-width="3.9204"/>
<line x1="1940.020858" y1="649.354325" x2="1778.161715" y2="701.945549" stroke="black" stroke-width="3.9204"/>
<line x1="1778.161715" y1="701.945549" x2="1890.115564" y2="1046.504064" stroke="black" stroke-width="3.9204"/>
<line x1="1890.115564" y1="1046.504064" x2="2051.974707" y2="993.912844" stroke="black" stroke-width="3.9204"/>
<line x1="1844.74717" y1="906.874507" x2="1773.890379" y2="929.89727" stroke="black" stroke-width="3.9204"/>
<line x1="1773.890379" y1="929.89727" x2="1796.236006" y2="998.67004" stroke="black" stroke-width="3.9204"/>
<line x1="1796.236006" y1="998.67004" x2="1867.092797" y2="975.647273" stroke="black" stroke-width="3.9204"/>
<line x1="1811.29313" y1="993.009671" x2="1789.173215" y2="924.931577" stroke="black" stroke-width="3.9204"/>
<line x1="2100.503402" y1="899.807571" x2="2078.157775" y2="831.034805" stroke="black" stroke-width="3.9204"/>
<line x1="2078.157775" y1="831.034805" x2="2006.606313" y2="854.283284" stroke="black" stroke-width="3.9204"/>
<line x1="2028.951936" y1="923.05605" x2="2100.503402" y2="899.807571" stroke="black" stroke-width="3.9204"/>
<line x1="2084.99485" y1="904.078589" x2="2062.874939" y2="836.000499" stroke="black" stroke-width="3.9204"/>
<line x1="1801.635909" y1="774.19169" x2="1730.779119" y2="797.214461" stroke="black" stroke-width="3.9204"/>
<line x1="1730.779119" y1="797.214461" x2="1753.124745" y2="865.987226" stroke="black" stroke-width="3.9204"/>
<line x1="1753.124745" y1="865.987226" x2="1823.981536" y2="842.964459" stroke="black" stroke-width="3.9204"/>
<line x1="1768.407581" y1="861.021533" x2="1746.061959" y2="792.248763" stroke="black" stroke-width="3.9204"/>
<line x1="2057.392141" y1="767.124757" x2="2035.046519" y2="698.351988" stroke="black" stroke-width="3.9204"/>
<line x1="2035.046519" y1="698.351988" x2="1963.495049" y2="721.600466" stroke="black" stroke-width="3.9204"/>
<line x1="1985.840679" y1="790.373236" x2="2057.392141" y2="767.124757" stroke="black" stroke-width="3.9204"/>
<line x1="2042.109309" y1="772.090451" x2="2019.763679" y2="703.317685" stroke="black" stroke-width="3.9204"/>
<line x1="1506.795151" y1="1532.099642" x2="1459.760588" y2="1735.828728" stroke="black" stroke-width="3.9204"/>
<line x1="1459.760588" y1="1735.828728" x2="1685.714667" y2="1787.994339" stroke="black" stroke-width="3.9204"/>
<line x1="1685.714667" y1="1787.994339" x2="1732.749231" y2="1584.265249" stroke="black" stroke-width="3.9204"/>
<line x1="1732.749231" y1="1584.265249" x2="1506.795151" y2="1532.099642" stroke="black" stroke-width="3.9204"/>
<line x1="1538.280557" y1="1539.368618" x2="1491.245993" y2="1743.097708" stroke="black" stroke-width="3.9204"/>
<line x1="901.134547" y1="366.95732" x2="796.816881" y2="238.135733" stroke="black" stroke-width="3.9204"/>
<line x1="796.816881" y1="238.135733" x2="653.942033" y2="353.833504" stroke="black" stroke-width="3.9204"/>
<line x1="653.942033" y1="353.833504" x2="758.259695" y2="482.655092" stroke="black" stroke-width="3.9204"/>
<line x1="758.259695" y1="482.655092" x2="901.134547" y2="366.95732" stroke="black" stroke-width="3.9204"/>
<line x1="881.225754" y1="383.079142" x2="776.908092" y2="254.257554" stroke="black" stroke-width="3.9204"/>
<line x1="628.031666" y1="104.836553" x2="761.547311" y2="104.836553" stroke="black" stroke-width="3.9204"/>
<line x1="761.547311" y1="104.836553" x2="761.547311" y2="238.625794" stroke="black" stroke-width="3.9204"/>
<line x1="761.547311" y1="238.625794" x2="628.031666" y2="238.625794" stroke="black" stroke-width="3.9204"/>
<line x1="628.031666" y1="238.625794" x2="628.031666" y2="104.836553" stroke="black" stroke-width="3.9204"/>
<line x1="627.758069" y1="104.562957" x2="761.547311" y2="238.625794" stroke="black" stroke-width="3.9204"/>
<line x1="628.031666" y1="238.352198" x2="761.273715" y2="104.836553" stroke="black" stroke-width="3.9204"/>
<line x1="200.015256" y1="1874.22844" x2="428.899217" y2="1874.22844" stroke="black" stroke-width="3.9204"/>
<line x1="428.899217" y1="1874.22844" x2="428.899217" y2="2103.581423" stroke="black" stroke-width="3.9204"/>
<line x1="428.899217" y1="2103.581423" x2="200.015256" y2="2103.581423" stroke="black" stroke-width="3.9204"/>
<line x1="200.015256" y1="2103.581423" x2="200.015256" y2="1874.22844" stroke="black" stroke-width="3.9204"/>
<line x1="199.546233" y1="1873.759413" x2="428.899217" y2="2103.581423" stroke="black" stroke-width="3.9204"/>
<line x1="200.015256" y1="2103.1124" x2="428.430194" y2="1874.22844" stroke="black" stroke-width="3.9204"/>
<line x1="394.101453" y1="1621.39274" x2="199.988942" y2="1652.137138" stroke="black" stroke-width="3.9204"/>
<line x1="199.988942" y1="1652.137138" x2="234.087278" y2="1867.42556" stroke="black" stroke-width="3.9204"/>
<line x1="234.087278" y1="1867.42556" x2="428.19979" y2="1836.681157" stroke="black" stroke-width="3.9204"/>
<line x1="428.19979" y1="1836.681157" x2="394.101453" y2="1621.39274" stroke="black" stroke-width="3.9204"/>
<line x1="398.852859" y1="1651.391945" x2="204.740348" y2="1682.136348" stroke="black" stroke-width="3.9204"/>
</g>
</svg>
