<?xml version="1.0"?>
<svg xmlns:xlink="http://www.w3.org/1999/xlink" width="2352.24" height="2506.68">
<image x="0" y="0" width="2352.24" height="2506.68" xlink:href="groundempty-03.png"/>
<g style="stroke-linecap:round">
<line x1="97.870362" y1="1211.87798" x2="97.870362" y2="936.036621" stroke="black" stroke-width="3.9204"/>
<line x1="97.870362" y1="936.036621" x2="55.34715" y2="936.036621" stroke="black" stroke-width="3.9204"/>
<line x1="55.34715" y1="936.036621" x2="55.34715" y2="1211.87798" stroke="black" stroke-width="3.9204"/>
<line x1="55.34715" y1="1211.87798" x2="97.870362" y2="1211.87798" stroke="black" stroke-width="3.9204"/>
<line x1="55.906666" y1="1186.140249" x2="97.310846" y2="1186.140249" stroke="black" stroke-width="3.9204"/>
<line x1="55.906666" y1="962.333872" x2="98.989395" y2="962.333872" stroke="black" stroke-width="3.9204"/>
<line x1="75.489726" y1="1186.699766" x2="75.489726" y2="962.893388" stroke="black" stroke-width="3.9204"/>
<line x1="2247.440204" y1="865.889988" x2="2247.440204" y2="1117.978345" stroke="black" stroke-width="3.9204"/>
<line x1="2247.440204" y1="1117.978345" x2="2286.301695" y2="1117.978345" stroke="black" stroke-width="3.9204"/>
<line x1="2286.301695" y1="1117.978345" x2="2286.301695" y2="865.889988" stroke="black" stroke-width="3.9204"/>
<line x1="2286.301695" y1="865.889988" x2="2247.440204" y2="865.889988" stroke="black" stroke-width="3.9204"/>
<line x1="2285.79036" y1="889.411418" x2="2247.951539" y2="889.411418" stroke="black" stroke-width="3.9204"/>
<line x1="2285.79036" y1="1093.945581" x2="2246.417534" y2="1093.945581" stroke="black" stroke-width="3.9204"/>
<line x1="2267.89362" y1="888.900083" x2="2267.89362" y2="1093.434246" stroke="black" stroke-width="3.9204"/>
<line x1="1161.502381" y1="1542.083578" x2="1181.935902" y2="1542.083578" stroke="black" stroke-width="3.9204"/>
<line x1="1181.935902" y1="1542.083578" x2="1181.935902" y2="1502.213292" stroke="black" stroke-width="3.9204"/>
<line x1="1181.935902" y1="1502.213292" x2="1161.502381" y2="1502.213292" stroke="black" stroke-width="3.9204"/>
<line x1="1161.502381" y1="1502.213292" x2="1161.502381" y2="1542.083578" stroke="black" stroke-width="3.9204"/>
<line x1="1381.785701" y1="1502.213292" x2="1381.785701" y2="1303.360245" stroke="black" stroke-width="3.9204"/>
<line x1="1382.284083" y1="1543.080334" x2="1402.717603" y2="1543.080334" stroke="black" stroke-width="3.9204"/>
<line x1="1402.717603" y1="1543.080334" x2="1402.717603" y2="1503.210048" stroke="black" stroke-width="3.9204"/>
<line x1="1402.717603" y1="1503.210048" x2="1382.284083" y2="1503.210048" stroke="black" stroke-width="3.9204"/>
<line x1="1382.284083" y1="1503.210048" x2="1382.284083" y2="1543.080334" stroke="black" stroke-width="3.9204"/>
<path d="m 1181.935902,1503.708426 a 199.84979899999996,199.84979899999996 0 0 1 199.84979900000008,-199.84979899999985" fill="none" stroke="black" stroke-width="3.9204"/>
<line x1="1474.645222" y1="911.202966" x2="1474.645222" y2="929.755304" stroke="black" stroke-width="3.9204"/>
<line x1="1474.645222" y1="929.755304" x2="1510.844908" y2="929.755304" stroke="black" stroke-width="3.9204"/>
<line x1="1510.844908" y1="929.755304" x2="1510.844908" y2="911.202966" stroke="black" stroke-width="3.9204"/>
<line x1="1510.844908" y1="911.202966" x2="1474.645222" y2="911.202966" stroke="black" stroke-width="3.9204"/>
<line x1="1510.844908" y1="1111.206235" x2="1691.390848" y2="1111.206235" stroke="black" stroke-width="3.9204"/>
<line x1="1473.740227" y1="1111.658732" x2="1473.740227" y2="1130.211071" stroke="black" stroke-width="3.9204"/>
<line x1="1473.740227" y1="1130.211071" x2="1509.939918" y2="1130.211071" stroke="black" stroke-width="3.9204"/>
<line x1="1509.939918" y1="1130.211071" x2="1509.939918" y2="1111.658732" stroke="black" stroke-width="3.9204"/>
<line x1="1509.939918" y1="1111.658732" x2="1473.740227" y2="1111.658732" stroke="black" stroke-width="3.9204"/>
<path d="m 1509.48742,929.755304 a 181.45093100000008,181.45093100000008 0 0 1 181.45093100000008,181.45093100000008" fill="none" stroke="black" stroke-width="3.9204"/>
<line x1="1639.595905" y1="380.263404" x2="1639.595905" y2="650.810604" stroke="black" stroke-width="3.9204"/>
<line x1="1639.595905" y1="650.810604" x2="1507.648705" y2="650.810604" stroke="black" stroke-width="3.9204"/>
<line x1="1507.648705" y1="380.263404" x2="1507.648705" y2="650.810604" stroke="black" stroke-width="3.9204"/>
<line x1="1639.595905" y1="380.263404" x2="1507.648705" y2="380.263404" stroke="black" stroke-width="3.9204"/>
<line x1="1632.943105" y1="386.916204" x2="1632.943105" y2="524.961804" stroke="black" stroke-width="3.9204"/>
<line x1="1632.943105" y1="524.961804" x2="1514.855905" y2="524.961804" stroke="black" stroke-width="3.9204"/>
<line x1="1514.855905" y1="386.916204" x2="1514.855905" y2="524.961804" stroke="black" stroke-width="3.9204"/>
<line x1="1632.943105" y1="386.916204" x2="1514.855905" y2="386.916204" stroke="black" stroke-width="3.9204"/>
<line x1="1625.181505" y1="539.376204" x2="1625.181505" y2="636.396204" stroke="black" stroke-width="3.9204"/>
<line x1="1604.668705" y1="539.376204" x2="1604.668705" y2="636.396204" stroke="black" stroke-width="3.9204"/>
<line x1="1583.601505" y1="539.930604" x2="1583.601505" y2="636.950604" stroke="black" stroke-width="3.9204"/>
<line x1="1563.088705" y1="539.930604" x2="1563.088705" y2="636.950604" stroke="black" stroke-width="3.9204"/>
<line x1="1542.575905" y1="539.376204" x2="1542.575905" y2="636.396204" stroke="black" stroke-width="3.9204"/>
<line x1="1522.063105" y1="539.376204" x2="1522.063105" y2="636.396204" stroke="black" stroke-width="3.9204"/>
<line x1="1514.855905" y1="439.584204" x2="1528.715905" y2="439.584204" stroke="black" stroke-width="3.9204"/>
<line x1="1528.715905" y1="439.584204" x2="1528.715905" y2="473.957004" stroke="black" stroke-width="3.9204"/>
<line x1="1528.715905" y1="473.957004" x2="1515.410305" y2="473.957004" stroke="black" stroke-width="3.9204"/>
<circle cx="1617.974305" cy="509.438604" r="8.316" fill="none" stroke="black" stroke-width="3.9204"/>
<line x1="1191.95425" y1="774.161562" x2="1173.272174" y2="774.161562" stroke="black" stroke-width="3.920396"/>
<line x1="1173.272174" y1="774.161562" x2="1173.272174" y2="810.614396" stroke="black" stroke-width="3.920396"/>
<line x1="1173.272174" y1="810.614396" x2="1191.95425" y2="810.614396" stroke="black" stroke-width="3.920396"/>
<line x1="1191.95425" y1="810.614396" x2="1191.95425" y2="774.161562" stroke="black" stroke-width="3.920396"/>
<line x1="990.552357" y1="810.614396" x2="990.552357" y2="992.422894" stroke="black" stroke-width="3.920396"/>
<line x1="990.096695" y1="773.250243" x2="971.414619" y2="773.250243" stroke="black" stroke-width="3.920396"/>
<line x1="971.414619" y1="773.250243" x2="971.414619" y2="809.703073" stroke="black" stroke-width="3.920396"/>
<line x1="971.414619" y1="809.703073" x2="990.096695" y2="809.703073" stroke="black" stroke-width="3.920396"/>
<line x1="990.096695" y1="809.703073" x2="990.096695" y2="773.250243" stroke="black" stroke-width="3.920396"/>
<path d="m 1173.272174,809.247412 a 182.71981899999992,182.71981899999992 0 0 1 -182.71981699999992,182.7198209999999" fill="none" stroke="black" stroke-width="3.920396"/>
<line x1="1789.386307" y1="235.945773" x2="1941.975617" y2="235.945773" stroke="black" stroke-width="3.9204"/>
<line x1="1941.975617" y1="235.945773" x2="1941.975617" y2="388.847765" stroke="black" stroke-width="3.9204"/>
<line x1="1941.975617" y1="388.847765" x2="1789.386307" y2="388.847765" stroke="black" stroke-width="3.9204"/>
<line x1="1789.386307" y1="388.847765" x2="1789.386307" y2="235.945773" stroke="black" stroke-width="3.9204"/>
<line x1="1789.073625" y1="235.633092" x2="1941.975617" y2="388.847765" stroke="black" stroke-width="3.9204"/>
<line x1="1789.386307" y1="388.535083" x2="1941.662931" y2="235.945773" stroke="black" stroke-width="3.9204"/>
<line x1="1246.017857" y1="379.392726" x2="1062.273857" y2="379.392726" stroke="black" stroke-width="3.9204"/>
<line x1="1062.273857" y1="379.392726" x2="1062.273857" y2="330.288726" stroke="black" stroke-width="3.9204"/>
<line x1="1246.017857" y1="330.288726" x2="1062.273857" y2="330.288726" stroke="black" stroke-width="3.9204"/>
<line x1="1246.017857" y1="379.392726" x2="1246.017857" y2="330.288726" stroke="black" stroke-width="3.9204"/>
<line x1="1204.437857" y1="407.112726" x2="1204.437857" y2="379.392726" stroke="black" stroke-width="3.9204"/>
<line x1="1105.437857" y1="379.392726" x2="1105.437857" y2="408.696726" stroke="black" stroke-width="3.9204"/>
<circle cx="1155.729857" cy="452.256726" r="66.528" fill="none" stroke="black" stroke-width="3.9204"/>
<circle cx="1155.729857" cy="452.256726" r="57.024" fill="none" stroke="black" stroke-width="3.9204"/>
<line x1="960.909353" y1="534.445338" x2="936.357353" y2="553.057338" stroke="black" stroke-width="3.9204"/>
<line x1="936.357353" y1="553.057338" x2="936.357353" y2="700.369338" stroke="black" stroke-width="3.9204"/>
<line x1="936.357353" y1="700.369338" x2="964.473353" y2="719.377338" stroke="black" stroke-width="3.9204"/>
<line x1="963.681353" y1="556.225338" x2="963.681353" y2="699.181338" stroke="black" stroke-width="3.9204"/>
<circle cx="985.461353" cy="625.525338" r="13.068000000000001" fill="none" stroke="black" stroke-width="3.9204"/>
<path d="m 963.014006,557.778589 a 74.84400060548079,74.84400060548079 0 1 1 0.4020470000000387,139.60900400000003" fill="none" stroke="black" stroke-width="3.9204"/>
<path d="m 960.251989,534.491639 a 95.4359995551865,95.4359995551865 0 1 1 3.074960000000033,184.466997" fill="none" stroke="black" stroke-width="3.9204"/>
<line x1="1473.349977" y1="722.094401" x2="1473.349977" y2="330.846401" stroke="black" stroke-width="3.9204"/>
<line x1="1473.349977" y1="330.846401" x2="1299.109977" y2="330.846401" stroke="black" stroke-width="3.9204"/>
<line x1="1299.109977" y1="330.846401" x2="1299.109977" y2="722.094401" stroke="black" stroke-width="3.9204"/>
<line x1="1299.109977" y1="722.094401" x2="1473.349977" y2="722.094401" stroke="black" stroke-width="3.9204"/>
<line x1="1326.037977" y1="406.086401" x2="1326.037977" y2="690.414401" stroke="black" stroke-width="3.9204"/>
<line x1="1326.037977" y1="690.414401" x2="1444.045977" y2="690.414401" stroke="black" stroke-width="3.9204"/>
<line x1="1444.045977" y1="690.414401" x2="1444.045977" y2="400.542401" stroke="black" stroke-width="3.9204"/>
<path d="m 1325.782553,406.896974 a 63.35999936674695,63.35999936674695 0 0 1 119.37433099999998,-4.293813" fill="none" stroke="black" stroke-width="3.9204"/>
<line x1="1618.862034" y1="1914.454238" x2="1618.862034" y2="2104.534238" stroke="black" stroke-width="3.9204"/>
<line x1="1618.862034" y1="2104.534238" x2="2082.657234" y2="2104.534238" stroke="black" stroke-width="3.9204"/>
<line x1="2082.657234" y1="2104.534238" x2="2082.657234" y2="1914.454238" stroke="black" stroke-width="3.9204"/>
<line x1="2082.657234" y1="1914.454238" x2="2058.897234" y2="1914.454238" stroke="black" stroke-width="3.9204"/>
<line x1="2058.897234" y1="1914.454238" x2="2058.897234" y2="2081.724638" stroke="black" stroke-width="3.9204"/>
<line x1="2058.897234" y1="2081.724638" x2="1643.572434" y2="2081.724638" stroke="black" stroke-width="3.9204"/>
<line x1="1643.572434" y1="2081.724638" x2="1643.572434" y2="1914.454238" stroke="black" stroke-width="3.9204"/>
<line x1="1643.572434" y1="1914.454238" x2="1618.862034" y2="1914.454238" stroke="black" stroke-width="3.9204"/>
<line x1="1643.572434" y1="1920.156638" x2="2058.897234" y2="1920.156638" stroke="black" stroke-width="3.9204"/>
<line x1="1850.759634" y1="1919.206238" x2="1850.759634" y2="2080.774238" stroke="black" stroke-width="3.9204"/>
<line x1="927.659605" y1="1215.759996" x2="927.659605" y2="1196.116911" stroke="black" stroke-width="3.9204"/>
<line x1="927.659605" y1="1196.116911" x2="889.331632" y2="1196.116911" stroke="black" stroke-width="3.9204"/>
<line x1="889.331632" y1="1196.116911" x2="889.331632" y2="1215.759996" stroke="black" stroke-width="3.9204"/>
<line x1="889.331632" y1="1215.759996" x2="927.659605" y2="1215.759996" stroke="black" stroke-width="3.9204"/>
<line x1="889.331632" y1="1003.997951" x2="698.170873" y2="1003.997951" stroke="black" stroke-width="3.9204"/>
<line x1="928.617806" y1="1003.518854" x2="928.617806" y2="983.875769" stroke="black" stroke-width="3.9204"/>
<line x1="928.617806" y1="983.875769" x2="890.289833" y2="983.875769" stroke="black" stroke-width="3.9204"/>
<line x1="890.289833" y1="983.875769" x2="890.289833" y2="1003.518854" stroke="black" stroke-width="3.9204"/>
<line x1="890.289833" y1="1003.518854" x2="928.617806" y2="1003.518854" stroke="black" stroke-width="3.9204"/>
<path d="m 890.768934,1196.116911 a 192.11896000000002,192.11896000000002 0 0 1 -192.1189599999999,-192.11896000000013" fill="none" stroke="black" stroke-width="3.9204"/>
<line x1="924.972773" y1="1470.753322" x2="924.972773" y2="1451.746906" stroke="black" stroke-width="3.9204"/>
<line x1="924.972773" y1="1451.746906" x2="887.88708" y2="1451.746906" stroke="black" stroke-width="3.9204"/>
<line x1="887.88708" y1="1451.746906" x2="887.88708" y2="1470.753322" stroke="black" stroke-width="3.9204"/>
<line x1="887.88708" y1="1470.753322" x2="924.972773" y2="1470.753322" stroke="black" stroke-width="3.9204"/>
<line x1="887.88708" y1="1265.854867" x2="702.922184" y2="1265.854867" stroke="black" stroke-width="3.9204"/>
<line x1="925.899916" y1="1265.391294" x2="925.899916" y2="1246.384878" stroke="black" stroke-width="3.9204"/>
<line x1="925.899916" y1="1246.384878" x2="888.814223" y2="1246.384878" stroke="black" stroke-width="3.9204"/>
<line x1="888.814223" y1="1246.384878" x2="888.814223" y2="1265.391294" stroke="black" stroke-width="3.9204"/>
<line x1="888.814223" y1="1265.391294" x2="925.899916" y2="1265.391294" stroke="black" stroke-width="3.9204"/>
<path d="m 889.277792,1451.746906 a 185.892039,185.892039 0 0 1 -185.89203899999995,-185.89203900000007" fill="none" stroke="black" stroke-width="3.9204"/>
<line x1="530.317343" y1="716.911395" x2="530.317343" y2="507.546195" stroke="black" stroke-width="3.9204"/>
<line x1="530.317343" y1="507.546195" x2="199.102943" y2="507.546195" stroke="black" stroke-width="3.9204"/>
<line x1="199.102943" y1="507.546195" x2="199.102943" y2="716.911395" stroke="black" stroke-width="3.9204"/>
<line x1="199.102943" y1="716.911395" x2="530.317343" y2="716.911395" stroke="black" stroke-width="3.9204"/>
<line x1="258.344543" y1="717.584595" x2="258.344543" y2="506.872995" stroke="black" stroke-width="3.9204"/>
<line x1="258.344543" y1="506.872995" x2="308.161343" y2="716.238195" stroke="black" stroke-width="3.9204"/>
<line x1="308.161343" y1="716.238195" x2="354.612143" y2="684.597795" stroke="black" stroke-width="3.9204"/>
<line x1="354.612143" y1="684.597795" x2="257.671343" y2="506.872995" stroke="black" stroke-width="3.9204"/>
<line x1="1997.05431" y1="1015.787884" x2="1895.717344" y2="1033.656327" stroke="black" stroke-width="3.9204"/>
<line x1="1895.717344" y1="1033.656327" x2="1893.789093" y2="1022.720684" stroke="black" stroke-width="3.9204"/>
<line x1="1995.12606" y1="1004.852241" x2="1893.789093" y2="1022.720684" stroke="black" stroke-width="3.9204"/>
<line x1="1997.05431" y1="1015.787884" x2="1995.12606" y2="1004.852241" stroke="black" stroke-width="3.9204"/>
<line x1="1984.91946" y1="1006.651943" x2="1982.135398" y2="982.336422" stroke="black" stroke-width="3.9204"/>
<line x1="1903.995696" y1="1020.920983" x2="1898.166909" y2="996.390624" stroke="black" stroke-width="3.9204"/>
<line x1="1934.707587" y1="662.202066" x2="1833.370625" y2="680.070505" stroke="black" stroke-width="3.9204"/>
<line x1="1833.370625" y1="680.070505" x2="1835.170322" y2="690.277108" stroke="black" stroke-width="3.9204"/>
<line x1="1936.507288" y1="672.408665" x2="1835.170322" y2="690.277108" stroke="black" stroke-width="3.9204"/>
<line x1="1934.707587" y1="662.202066" x2="1936.507288" y2="672.408665" stroke="black" stroke-width="3.9204"/>
<line x1="1927.286828" y1="675.537901" x2="1932.987066" y2="699.339219" stroke="black" stroke-width="3.9204"/>
<line x1="1846.363068" y1="689.806945" x2="1848.546636" y2="714.980055" stroke="black" stroke-width="3.9204"/>
<line x1="1748.082822" y1="929.642492" x2="1759.018465" y2="927.714241" stroke="black" stroke-width="3.9204"/>
<line x1="1759.018465" y1="927.714241" x2="1741.150022" y2="826.377275" stroke="black" stroke-width="3.9204"/>
<line x1="1730.214379" y1="828.305522" x2="1741.150022" y2="826.377275" stroke="black" stroke-width="3.9204"/>
<line x1="1748.082822" y1="929.642492" x2="1730.214379" y2="828.305522" stroke="black" stroke-width="3.9204"/>
<line x1="1743.078273" y1="837.312918" x2="1767.480082" y2="830.75509" stroke="black" stroke-width="3.9204"/>
<line x1="1757.218764" y1="917.507638" x2="1782.263324" y2="914.595026" stroke="black" stroke-width="3.9204"/>
<line x1="2101.068145" y1="868.153362" x2="2090.132502" y2="870.081613" stroke="black" stroke-width="3.9204"/>
<line x1="2090.132502" y1="870.081613" x2="2072.26406" y2="768.744647" stroke="black" stroke-width="3.9204"/>
<line x1="2083.199703" y1="766.816396" x2="2072.26406" y2="768.744647" stroke="black" stroke-width="3.9204"/>
<line x1="2101.068145" y1="868.153362" x2="2083.199703" y2="766.816396" stroke="black" stroke-width="3.9204"/>
<line x1="2074.192311" y1="779.68029" x2="2049.0192" y2="781.863861" stroke="black" stroke-width="3.9204"/>
<line x1="2088.332805" y1="859.87501" x2="2063.802447" y2="865.703797" stroke="black" stroke-width="3.9204"/>
<circle cx="1915.641264" cy="848.229442" r="149.53849647676287" fill="none" stroke="black" stroke-width="3.9204"/>
<line x1="901.134547" y1="370.838144" x2="801.136108" y2="238.135733" stroke="black" stroke-width="3.9204"/>
<line x1="801.136108" y1="238.135733" x2="653.957069" y2="349.043092" stroke="black" stroke-width="3.9204"/>
<line x1="653.957069" y1="349.043092" x2="753.955508" y2="481.745504" stroke="black" stroke-width="3.9204"/>
<line x1="753.955508" y1="481.745504" x2="901.134547" y2="370.838144" stroke="black" stroke-width="3.9204"/>
<line x1="880.625988" y1="386.292448" x2="780.627553" y2="253.590036" stroke="black" stroke-width="3.9204"/>
<line x1="2139.715655" y1="1509.529773" x2="1986.79837" y2="1366.932101" stroke="black" stroke-width="3.9204"/>
<line x1="1986.79837" y1="1366.932101" x2="1828.644587" y2="1536.53127" stroke="black" stroke-width="3.9204"/>
<line x1="1828.644587" y1="1536.53127" x2="1981.561872" y2="1679.128942" stroke="black" stroke-width="3.9204"/>
<line x1="1981.561872" y1="1679.128942" x2="2139.715655" y2="1509.529773" stroke="black" stroke-width="3.9204"/>
<line x1="2117.677831" y1="1533.162447" x2="1964.76055" y2="1390.564771" stroke="black" stroke-width="3.9204"/>
<line x1="1513.876542" y1="1532.099646" x2="1459.760588" y2="1734.063147" stroke="black" stroke-width="3.9204"/>
<line x1="1459.760588" y1="1734.063147" x2="1683.756467" y2="1794.082661" stroke="black" stroke-width="3.9204"/>
<line x1="1683.756467" y1="1794.082661" x2="1737.872425" y2="1592.11916" stroke="black" stroke-width="3.9204"/>
<line x1="1737.872425" y1="1592.11916" x2="1513.876542" y2="1532.099646" stroke="black" stroke-width="3.9204"/>
<line x1="1545.089084" y1="1540.463023" x2="1490.973125" y2="1742.42652" stroke="black" stroke-width="3.9204"/>
<line x1="628.031666" y1="104.836553" x2="761.547311" y2="104.836553" stroke="black" stroke-width="3.9204"/>
<line x1="761.547311" y1="104.836553" x2="761.547311" y2="238.625794" stroke="black" stroke-width="3.9204"/>
<line x1="761.547311" y1="238.625794" x2="628.031666" y2="238.625794" stroke="black" stroke-width="3.9204"/>
<line x1="628.031666" y1="238.625794" x2="628.031666" y2="104.836553" stroke="black" stroke-width="3.9204"/>
<line x1="627.758069" y1="104.562957" x2="761.547311" y2="238.625794" stroke="black" stroke-width="3.9204"/>
<line x1="628.031666" y1="238.352198" x2="761.273715" y2="104.836553" stroke="black" stroke-width="3.9204"/>
<line x1="200.015256" y1="1874.22844" x2="428.899217" y2="1874.22844" stroke="black" stroke-width="3.9204"/>
<line x1="428.899217" y1="1874.22844" x2="428.899217" y2="2103.581423" stroke="black" stroke-width="3.9204"/>
<line x1="428.899217" y1="2103.581423" x2="200.015256" y2="2103.581423" stroke="black" stroke-width="3.9204"/>
<line x1="200.015256" y1="2103.581423" x2="200.015256" y2="1874.22844" stroke="black" stroke-width="3.9204"/>
<line x1="199.546233" y1="1873.759413" x2="428.899217" y2="2103.581423" stroke="black" stroke-width="3.9204"/>
<line x1="200.015256" y1="2103.1124" x2="428.430194" y2="1874.22844" stroke="black" stroke-width="3.9204"/>
<line x1="356.725164" y1="1621.39274" x2="199.988942" y2="1694.48004" stroke="black" stroke-width="3.9204"/>
<line x1="199.988942" y1="1694.48004" x2="281.049405" y2="1868.314762" stroke="black" stroke-width="3.9204"/>
<line x1="281.049405" y1="1868.314762" x2="437.785627" y2="1795.227461" stroke="black" stroke-width="3.9204"/>
<line x1="437.785627" y1="1795.227461" x2="356.725164" y2="1621.39274" stroke="black" stroke-width="3.9204"/>
<line x1="368.020473" y1="1645.615612" x2="211.284252" y2="1718.702913" stroke="black" stroke-width="3.9204"/>
</g>
</svg>
