<?xml version="1.0"?>
<svg xmlns:xlink="http://www.w3.org/1999/xlink" width="2352.24" height="2506.68">
<image x="0" y="0" width="2352.24" height="2506.68" xlink:href="groundempty-03.png"/>
<g style="stroke-linecap:round">
<line x1="104.681368" y1="1211.868856" x2="104.681368" y2="936.045741" stroke="black" stroke-width="3.9204"/>
<line x1="104.681368" y1="936.045741" x2="55.347154" y2="936.045741" stroke="black" stroke-width="3.9204"/>
<line x1="55.347154" y1="936.045741" x2="55.347154" y2="1211.868856" stroke="black" stroke-width="3.9204"/>
<line x1="55.347154" y1="1211.868856" x2="104.681368" y2="1211.868856" stroke="black" stroke-width="3.9204"/>
<line x1="104.681368" y1="1198.974685" x2="121.499853" y2="1198.974685" stroke="black" stroke-width="3.9204"/>
<line x1="121.499853" y1="1198.974685" x2="121.499853" y2="949.500526" stroke="black" stroke-width="3.9204"/>
<line x1="104.681368" y1="949.500526" x2="121.499853" y2="949.500526" stroke="black" stroke-width="3.9204"/>
<line x1="2247.440204" y1="865.889988" x2="2247.440204" y2="1117.978345" stroke="black" stroke-width="3.9204"/>
<line x1="2247.440204" y1="1117.978345" x2="2286.301695" y2="1117.978345" stroke="black" stroke-width="3.9204"/>
<line x1="2286.301695" y1="1117.978345" x2="2286.301695" y2="865.889988" stroke="black" stroke-width="3.9204"/>
<line x1="2286.301695" y1="865.889988" x2="2247.440204" y2="865.889988" stroke="black" stroke-width="3.9204"/>
<line x1="2285.79036" y1="889.411418" x2="2247.951539" y2="889.411418" stroke="black" stroke-width="3.9204"/>
<line x1="2285.79036" y1="1093.945581" x2="2246.417534" y2="1093.945581" stroke="black" stroke-width="3.9204"/>
<line x1="2267.89362" y1="888.900083" x2="2267.89362" y2="1093.434246" stroke="black" stroke-width="3.9204"/>
<line x1="1161.502381" y1="1542.083578" x2="1181.935902" y2="1542.083578" stroke="black" stroke-width="3.9204"/>
<line x1="1181.935902" y1="1542.083578" x2="1181.935902" y2="1502.213292" stroke="black" stroke-width="3.9204"/>
<line x1="1181.935902" y1="1502.213292" x2="1161.502381" y2="1502.213292" stroke="black" stroke-width="3.9204"/>
<line x1="1161.502381" y1="1502.213292" x2="1161.502381" y2="1542.083578" stroke="black" stroke-width="3.9204"/>
<line x1="1381.785701" y1="1502.213292" x2="1381.785701" y2="1303.360245" stroke="black" stroke-width="3.9204"/>
<line x1="1382.284083" y1="1543.080334" x2="1402.717603" y2="1543.080334" stroke="black" stroke-width="3.9204"/>
<line x1="1402.717603" y1="1543.080334" x2="1402.717603" y2="1503.210048" stroke="black" stroke-width="3.9204"/>
<line x1="1402.717603" y1="1503.210048" x2="1382.284083" y2="1503.210048" stroke="black" stroke-width="3.9204"/>
<line x1="1382.284083" y1="1503.210048" x2="1382.284083" y2="1543.080334" stroke="black" stroke-width="3.9204"/>
<path d="m 1181.935902,1503.708426 a 199.84979899999996,199.84979899999996 0 0 1 199.84979900000008,-199.84979899999985" fill="none" stroke="black" stroke-width="3.9204"/>
<line x1="1474.645222" y1="911.202966" x2="1474.645222" y2="929.755304" stroke="black" stroke-width="3.9204"/>
<line x1="1474.645222" y1="929.755304" x2="1510.844908" y2="929.755304" stroke="black" stroke-width="3.9204"/>
<line x1="1510.844908" y1="929.755304" x2="1510.844908" y2="911.202966" stroke="black" stroke-width="3.9204"/>
<line x1="1510.844908" y1="911.202966" x2="1474.645222" y2="911.202966" stroke="black" stroke-width="3.9204"/>
<line x1="1510.844908" y1="1111.206235" x2="1691.390848" y2="1111.206235" stroke="black" stroke-width="3.9204"/>
<line x1="1473.740227" y1="1111.658732" x2="1473.740227" y2="1130.211071" stroke="black" stroke-width="3.9204"/>
<line x1="1473.740227" y1="1130.211071" x2="1509.939918" y2="1130.211071" stroke="black" stroke-width="3.9204"/>
<line x1="1509.939918" y1="1130.211071" x2="1509.939918" y2="1111.658732" stroke="black" stroke-width="3.9204"/>
<line x1="1509.939918" y1="1111.658732" x2="1473.740227" y2="1111.658732" stroke="black" stroke-width="3.9204"/>
<path d="m 1509.48742,929.755304 a 181.45093100000008,181.45093100000008 0 0 1 181.45093100000008,181.45093100000008" fill="none" stroke="black" stroke-width="3.9204"/>
<line x1="1639.595905" y1="380.263404" x2="1639.595905" y2="650.810604" stroke="black" stroke-width="3.9204"/>
<line x1="1639.595905" y1="650.810604" x2="1507.648705" y2="650.810604" stroke="black" stroke-width="3.9204"/>
<line x1="1507.648705" y1="380.263404" x2="1507.648705" y2="650.810604" stroke="black" stroke-width="3.9204"/>
<line x1="1639.595905" y1="380.263404" x2="1507.648705" y2="380.263404" stroke="black" stroke-width="3.9204"/>
<line x1="1632.943105" y1="386.916204" x2="1632.943105" y2="524.961804" stroke="black" stroke-width="3.9204"/>
<line x1="1632.943105" y1="524.961804" x2="1514.855905" y2="524.961804" stroke="black" stroke-width="3.9204"/>
<line x1="1514.855905" y1="386.916204" x2="1514.855905" y2="524.961804" stroke="black" stroke-width="3.9204"/>
<line x1="1632.943105" y1="386.916204" x2="1514.855905" y2="386.916204" stroke="black" stroke-width="3.9204"/>
<line x1="1625.181505" y1="539.376204" x2="1625.181505" y2="636.396204" stroke="black" stroke-width="3.9204"/>
<line x1="1604.668705" y1="539.376204" x2="1604.668705" y2="636.396204" stroke="black" stroke-width="3.9204"/>
<line x1="1583.601505" y1="539.930604" x2="1583.601505" y2="636.950604" stroke="black" stroke-width="3.9204"/>
<line x1="1563.088705" y1="539.930604" x2="1563.088705" y2="636.950604" stroke="black" stroke-width="3.9204"/>
<line x1="1542.575905" y1="539.376204" x2="1542.575905" y2="636.396204" stroke="black" stroke-width="3.9204"/>
<line x1="1522.063105" y1="539.376204" x2="1522.063105" y2="636.396204" stroke="black" stroke-width="3.9204"/>
<line x1="1514.855905" y1="439.584204" x2="1528.715905" y2="439.584204" stroke="black" stroke-width="3.9204"/>
<line x1="1528.715905" y1="439.584204" x2="1528.715905" y2="473.957004" stroke="black" stroke-width="3.9204"/>
<line x1="1528.715905" y1="473.957004" x2="1515.410305" y2="473.957004" stroke="black" stroke-width="3.9204"/>
<circle cx="1617.974305" cy="509.438604" r="8.316" fill="none" stroke="black" stroke-width="3.9204"/>
<line x1="1191.95425" y1="774.161562" x2="1173.272174" y2="774.161562" stroke="black" stroke-width="3.920396"/>
<line x1="1173.272174" y1="774.161562" x2="1173.272174" y2="810.614396" stroke="black" stroke-width="3.920396"/>
<line x1="1173.272174" y1="810.614396" x2="1191.95425" y2="810.614396" stroke="black" stroke-width="3.920396"/>
<line x1="1191.95425" y1="810.614396" x2="1191.95425" y2="774.161562" stroke="black" stroke-width="3.920396"/>
<line x1="990.552357" y1="810.614396" x2="990.552357" y2="992.422894" stroke="black" stroke-width="3.920396"/>
<line x1="990.096695" y1="773.250243" x2="971.414619" y2="773.250243" stroke="black" stroke-width="3.920396"/>
<line x1="971.414619" y1="773.250243" x2="971.414619" y2="809.703073" stroke="black" stroke-width="3.920396"/>
<line x1="971.414619" y1="809.703073" x2="990.096695" y2="809.703073" stroke="black" stroke-width="3.920396"/>
<line x1="990.096695" y1="809.703073" x2="990.096695" y2="773.250243" stroke="black" stroke-width="3.920396"/>
<path d="m 1173.272174,809.247412 a 182.71981899999992,182.71981899999992 0 0 1 -182.71981699999992,182.7198209999999" fill="none" stroke="black" stroke-width="3.920396"/>
<line x1="1789.386307" y1="235.945773" x2="1941.975617" y2="235.945773" stroke="black" stroke-width="3.9204"/>
<line x1="1941.975617" y1="235.945773" x2="1941.975617" y2="388.847765" stroke="black" stroke-width="3.9204"/>
<line x1="1941.975617" y1="388.847765" x2="1789.386307" y2="388.847765" stroke="black" stroke-width="3.9204"/>
<line x1="1789.386307" y1="388.847765" x2="1789.386307" y2="235.945773" stroke="black" stroke-width="3.9204"/>
<line x1="1789.073625" y1="235.633092" x2="1941.975617" y2="388.847765" stroke="black" stroke-width="3.9204"/>
<line x1="1789.386307" y1="388.535083" x2="1941.662931" y2="235.945773" stroke="black" stroke-width="3.9204"/>
<line x1="1246.017857" y1="379.392726" x2="1062.273857" y2="379.392726" stroke="black" stroke-width="3.9204"/>
<line x1="1062.273857" y1="379.392726" x2="1062.273857" y2="330.288726" stroke="black" stroke-width="3.9204"/>
<line x1="1246.017857" y1="330.288726" x2="1062.273857" y2="330.288726" stroke="black" stroke-width="3.9204"/>
<line x1="1246.017857" y1="379.392726" x2="1246.017857" y2="330.288726" stroke="black" stroke-width="3.9204"/>
<line x1="1204.437857" y1="407.112726" x2="1204.437857" y2="379.392726" stroke="black" stroke-width="3.9204"/>
<line x1="1105.437857" y1="379.392726" x2="1105.437857" y2="408.696726" stroke="black" stroke-width="3.9204"/>
<circle cx="1155.729857" cy="452.256726" r="66.528" fill="none" stroke="black" stroke-width="3.9204"/>
<circle cx="1155.729857" cy="452.256726" r="57.024" fill="none" stroke="black" stroke-width="3.9204"/>
<line x1="960.909353" y1="534.445338" x2="936.357353" y2="553.057338" stroke="black" stroke-width="3.9204"/>
<line x1="936.357353" y1="553.057338" x2="936.357353" y2="700.369338" stroke="black" stroke-width="3.9204"/>
<line x1="936.357353" y1="700.369338" x2="964.473353" y2="719.377338" stroke="black" stroke-width="3.9204"/>
<line x1="963.681353" y1="556.225338" x2="963.681353" y2="699.181338" stroke="black" stroke-width="3.9204"/>
<circle cx="985.461353" cy="625.525338" r="13.068000000000001" fill="none" stroke="black" stroke-width="3.9204"/>
<path d="m 963.014006,557.778589 a 74.84400060548079,74.84400060548079 0 1 1 0.4020470000000387,139.60900400000003" fill="none" stroke="black" stroke-width="3.9204"/>
<path d="m 960.251989,534.491639 a 95.4359995551865,95.4359995551865 0 1 1 3.074960000000033,184.466997" fill="none" stroke="black" stroke-width="3.9204"/>
<line x1="1473.349977" y1="722.094401" x2="1473.349977" y2="330.846401" stroke="black" stroke-width="3.9204"/>
<line x1="1473.349977" y1="330.846401" x2="1299.109977" y2="330.846401" stroke="black" stroke-width="3.9204"/>
<line x1="1299.109977" y1="330.846401" x2="1299.109977" y2="722.094401" stroke="black" stroke-width="3.9204"/>
<line x1="1299.109977" y1="722.094401" x2="1473.349977" y2="722.094401" stroke="black" stroke-width="3.9204"/>
<line x1="1326.037977" y1="406.086401" x2="1326.037977" y2="690.414401" stroke="black" stroke-width="3.9204"/>
<line x1="1326.037977" y1="690.414401" x2="1444.045977" y2="690.414401" stroke="black" stroke-width="3.9204"/>
<line x1="1444.045977" y1="690.414401" x2="1444.045977" y2="400.542401" stroke="black" stroke-width="3.9204"/>
<path d="m 1325.782553,406.896974 a 63.35999936674695,63.35999936674695 0 0 1 119.37433099999998,-4.293813" fill="none" stroke="black" stroke-width="3.9204"/>
<line x1="1573.131495" y1="1914.454238" x2="1573.131495" y2="2104.534238" stroke="black" stroke-width="3.9204"/>
<line x1="1573.131495" y1="2104.534238" x2="2036.926695" y2="2104.534238" stroke="black" stroke-width="3.9204"/>
<line x1="2036.926695" y1="2104.534238" x2="2036.926695" y2="1914.454238" stroke="black" stroke-width="3.9204"/>
<line x1="2036.926695" y1="1914.454238" x2="2013.166695" y2="1914.454238" stroke="black" stroke-width="3.9204"/>
<line x1="2013.166695" y1="1914.454238" x2="2013.166695" y2="2081.724638" stroke="black" stroke-width="3.9204"/>
<line x1="2013.166695" y1="2081.724638" x2="1597.841895" y2="2081.724638" stroke="black" stroke-width="3.9204"/>
<line x1="1597.841895" y1="2081.724638" x2="1597.841895" y2="1914.454238" stroke="black" stroke-width="3.9204"/>
<line x1="1597.841895" y1="1914.454238" x2="1573.131495" y2="1914.454238" stroke="black" stroke-width="3.9204"/>
<line x1="1597.841895" y1="1920.156638" x2="2013.166695" y2="1920.156638" stroke="black" stroke-width="3.9204"/>
<line x1="1805.029095" y1="1919.206238" x2="1805.029095" y2="2080.774238" stroke="black" stroke-width="3.9204"/>
<line x1="927.659605" y1="1215.759996" x2="927.659605" y2="1196.116911" stroke="black" stroke-width="3.9204"/>
<line x1="927.659605" y1="1196.116911" x2="889.331632" y2="1196.116911" stroke="black" stroke-width="3.9204"/>
<line x1="889.331632" y1="1196.116911" x2="889.331632" y2="1215.759996" stroke="black" stroke-width="3.9204"/>
<line x1="889.331632" y1="1215.759996" x2="927.659605" y2="1215.759996" stroke="black" stroke-width="3.9204"/>
<line x1="889.331632" y1="1003.997951" x2="698.170873" y2="1003.997951" stroke="black" stroke-width="3.9204"/>
<line x1="928.617806" y1="1003.518854" x2="928.617806" y2="983.875769" stroke="black" stroke-width="3.9204"/>
<line x1="928.617806" y1="983.875769" x2="890.289833" y2="983.875769" stroke="black" stroke-width="3.9204"/>
<line x1="890.289833" y1="983.875769" x2="890.289833" y2="1003.518854" stroke="black" stroke-width="3.9204"/>
<line x1="890.289833" y1="1003.518854" x2="928.617806" y2="1003.518854" stroke="black" stroke-width="3.9204"/>
<path d="m 890.768934,1196.116911 a 192.11896000000002,192.11896000000002 0 0 1 -192.1189599999999,-192.11896000000013" fill="none" stroke="black" stroke-width="3.9204"/>
<line x1="924.972773" y1="1470.753322" x2="924.972773" y2="1451.746906" stroke="black" stroke-width="3.9204"/>
<line x1="924.972773" y1="1451.746906" x2="887.88708" y2="1451.746906" stroke="black" stroke-width="3.9204"/>
<line x1="887.88708" y1="1451.746906" x2="887.88708" y2="1470.753322" stroke="black" stroke-width="3.9204"/>
<line x1="887.88708" y1="1470.753322" x2="924.972773" y2="1470.753322" stroke="black" stroke-width="3.9204"/>
<line x1="887.88708" y1="1265.854867" x2="702.922184" y2="1265.854867" stroke="black" stroke-width="3.9204"/>
<line x1="925.899916" y1="1265.391294" x2="925.899916" y2="1246.384878" stroke="black" stroke-width="3.9204"/>
<line x1="925.899916" y1="1246.384878" x2="888.814223" y2="1246.384878" stroke="black" stroke-width="3.9204"/>
<line x1="888.814223" y1="1246.384878" x2="888.814223" y2="1265.391294" stroke="black" stroke-width="3.9204"/>
<line x1="888.814223" y1="1265.391294" x2="925.899916" y2="1265.391294" stroke="black" stroke-width="3.9204"/>
<path d="m 889.277792,1451.746906 a 185.892039,185.892039 0 0 1 -185.89203899999995,-185.89203900000007" fill="none" stroke="black" stroke-width="3.9204"/>
<line x1="530.290395" y1="707.776633" x2="530.290395" y2="498.411433" stroke="black" stroke-width="3.9204"/>
<line x1="530.290395" y1="498.411433" x2="199.075995" y2="498.411433" stroke="black" stroke-width="3.9204"/>
<line x1="199.075995" y1="498.411433" x2="199.075995" y2="707.776633" stroke="black" stroke-width="3.9204"/>
<line x1="199.075995" y1="707.776633" x2="530.290395" y2="707.776633" stroke="black" stroke-width="3.9204"/>
<line x1="258.317595" y1="708.449833" x2="258.317595" y2="497.738233" stroke="black" stroke-width="3.9204"/>
<line x1="258.317595" y1="497.738233" x2="308.134395" y2="707.103433" stroke="black" stroke-width="3.9204"/>
<line x1="308.134395" y1="707.103433" x2="354.585195" y2="675.463033" stroke="black" stroke-width="3.9204"/>
<line x1="354.585195" y1="675.463033" x2="257.644395" y2="497.738233" stroke="black" stroke-width="3.9204"/>
<line x1="2100.763986" y1="863.552064" x2="1809.510758" y2="695.396937" stroke="black" stroke-width="3.9204"/>
<line x1="1809.510758" y1="695.396937" x2="1730.518531" y2="832.215487" stroke="black" stroke-width="3.9204"/>
<line x1="1730.518531" y1="832.215487" x2="2021.771759" y2="1000.370614" stroke="black" stroke-width="3.9204"/>
<line x1="2021.771759" y1="1000.370614" x2="2100.763986" y2="863.552064" stroke="black" stroke-width="3.9204"/>
<line x1="1903.743737" y1="932.227105" x2="1869.163449" y2="992.121922" stroke="black" stroke-width="3.9204"/>
<line x1="1869.163449" y1="992.121922" x2="1927.296653" y2="1025.685144" stroke="black" stroke-width="3.9204"/>
<line x1="1927.296653" y1="1025.685144" x2="1961.876941" y2="965.790326" stroke="black" stroke-width="3.9204"/>
<line x1="1934.167942" y1="1012.42763" x2="1876.621943" y2="979.203432" stroke="black" stroke-width="3.9204"/>
<line x1="2075.78848" y1="768.489753" x2="2017.655276" y2="734.926532" stroke="black" stroke-width="3.9204"/>
<line x1="2017.655276" y1="734.926532" x2="1982.735964" y2="795.408554" stroke="black" stroke-width="3.9204"/>
<line x1="2040.869168" y1="828.971776" x2="2075.78848" y2="768.489753" stroke="black" stroke-width="3.9204"/>
<line x1="2067.742781" y1="781.06922" x2="2010.196782" y2="747.845022" stroke="black" stroke-width="3.9204"/>
<line x1="1791.587758" y1="867.473818" x2="1757.00747" y2="927.368636" stroke="black" stroke-width="3.9204"/>
<line x1="1757.00747" y1="927.368636" x2="1815.140674" y2="960.931858" stroke="black" stroke-width="3.9204"/>
<line x1="1815.140674" y1="960.931858" x2="1849.720962" y2="901.03704" stroke="black" stroke-width="3.9204"/>
<line x1="1822.599167" y1="948.013367" x2="1764.465963" y2="914.450146" stroke="black" stroke-width="3.9204"/>
<line x1="1963.6325" y1="703.736467" x2="1905.499296" y2="670.173245" stroke="black" stroke-width="3.9204"/>
<line x1="1905.499296" y1="670.173245" x2="1870.579985" y2="730.655268" stroke="black" stroke-width="3.9204"/>
<line x1="1928.713189" y1="764.218489" x2="1963.6325" y2="703.736467" stroke="black" stroke-width="3.9204"/>
<line x1="1956.174007" y1="716.654957" x2="1898.040803" y2="683.091735" stroke="black" stroke-width="3.9204"/>
<line x1="901.134547" y1="355.339294" x2="783.930989" y2="238.135737" stroke="black" stroke-width="3.9204"/>
<line x1="783.930989" y1="238.135737" x2="653.941593" y2="368.125136" stroke="black" stroke-width="3.9204"/>
<line x1="653.941593" y1="368.125136" x2="771.145147" y2="485.32869" stroke="black" stroke-width="3.9204"/>
<line x1="771.145147" y1="485.32869" x2="901.134547" y2="355.339294" stroke="black" stroke-width="3.9204"/>
<line x1="883.021265" y1="373.452568" x2="765.817716" y2="256.249018" stroke="black" stroke-width="3.9204"/>
<line x1="1585.59289" y1="1532.099646" x2="1459.760592" y2="1699.084748" stroke="black" stroke-width="3.9204"/>
<line x1="1459.760592" y1="1699.084748" x2="1644.962252" y2="1838.644208" stroke="black" stroke-width="3.9204"/>
<line x1="1644.962252" y1="1838.644208" x2="1770.79455" y2="1671.659106" stroke="black" stroke-width="3.9204"/>
<line x1="1770.79455" y1="1671.659106" x2="1585.59289" y2="1532.099646" stroke="black" stroke-width="3.9204"/>
<line x1="1611.39968" y1="1551.546458" x2="1485.567381" y2="1718.531559" stroke="black" stroke-width="3.9204"/>
<line x1="2139.715655" y1="1509.529773" x2="1986.79837" y2="1366.932101" stroke="black" stroke-width="3.9204"/>
<line x1="1986.79837" y1="1366.932101" x2="1828.644587" y2="1536.53127" stroke="black" stroke-width="3.9204"/>
<line x1="1828.644587" y1="1536.53127" x2="1981.561872" y2="1679.128942" stroke="black" stroke-width="3.9204"/>
<line x1="1981.561872" y1="1679.128942" x2="2139.715655" y2="1509.529773" stroke="black" stroke-width="3.9204"/>
<line x1="2117.677831" y1="1533.162447" x2="1964.76055" y2="1390.564771" stroke="black" stroke-width="3.9204"/>
<line x1="628.031666" y1="104.836553" x2="761.547311" y2="104.836553" stroke="black" stroke-width="3.9204"/>
<line x1="761.547311" y1="104.836553" x2="761.547311" y2="238.625794" stroke="black" stroke-width="3.9204"/>
<line x1="761.547311" y1="238.625794" x2="628.031666" y2="238.625794" stroke="black" stroke-width="3.9204"/>
<line x1="628.031666" y1="238.625794" x2="628.031666" y2="104.836553" stroke="black" stroke-width="3.9204"/>
<line x1="627.758069" y1="104.562957" x2="761.547311" y2="238.625794" stroke="black" stroke-width="3.9204"/>
<line x1="628.031666" y1="238.352198" x2="761.273715" y2="104.836553" stroke="black" stroke-width="3.9204"/>
<line x1="200.015256" y1="1874.22844" x2="428.899217" y2="1874.22844" stroke="black" stroke-width="3.9204"/>
<line x1="428.899217" y1="1874.22844" x2="428.899217" y2="2103.581423" stroke="black" stroke-width="3.9204"/>
<line x1="428.899217" y1="2103.581423" x2="200.015256" y2="2103.581423" stroke="black" stroke-width="3.9204"/>
<line x1="200.015256" y1="2103.581423" x2="200.015256" y2="1874.22844" stroke="black" stroke-width="3.9204"/>
<line x1="199.546233" y1="1873.759413" x2="428.899217" y2="2103.581423" stroke="black" stroke-width="3.9204"/>
<line x1="200.015256" y1="2103.1124" x2="428.430194" y2="1874.22844" stroke="black" stroke-width="3.9204"/>
<line x1="378.964527" y1="1621.39274" x2="199.988938" y2="1669.3491" stroke="black" stroke-width="3.9204"/>
<line x1="199.988938" y1="1669.3491" x2="253.176906" y2="1867.849303" stroke="black" stroke-width="3.9204"/>
<line x1="253.176906" y1="1867.849303" x2="432.152495" y2="1819.892935" stroke="black" stroke-width="3.9204"/>
<line x1="432.152495" y1="1819.892935" x2="378.964527" y2="1621.39274" stroke="black" stroke-width="3.9204"/>
<line x1="386.375964" y1="1649.052599" x2="207.400379" y2="1697.008967" stroke="black" stroke-width="3.9204"/>
</g>
</svg>
