<?xml version="1.0"?>
<svg xmlns:xlink="http://www.w3.org/1999/xlink" width="2352.24" height="2506.68">
<image x="0" y="0" width="2352.24" height="2506.68" xlink:href="groundempty-03.png"/>
<g style="stroke-linecap:round">
<line x1="104.681368" y1="1211.868856" x2="104.681368" y2="936.045741" stroke="black" stroke-width="3.9204"/>
<line x1="104.681368" y1="936.045741" x2="55.347154" y2="936.045741" stroke="black" stroke-width="3.9204"/>
<line x1="55.347154" y1="936.045741" x2="55.347154" y2="1211.868856" stroke="black" stroke-width="3.9204"/>
<line x1="55.347154" y1="1211.868856" x2="104.681368" y2="1211.868856" stroke="black" stroke-width="3.9204"/>
<line x1="104.681368" y1="1198.974685" x2="121.499853" y2="1198.974685" stroke="black" stroke-width="3.9204"/>
<line x1="121.499853" y1="1198.974685" x2="121.499853" y2="949.500526" stroke="black" stroke-width="3.9204"/>
<line x1="104.681368" y1="949.500526" x2="121.499853" y2="949.500526" stroke="black" stroke-width="3.9204"/>
<line x1="2247.440204" y1="865.889988" x2="2247.440204" y2="1117.978345" stroke="black" stroke-width="3.9204"/>
<line x1="2247.440204" y1="1117.978345" x2="2286.301695" y2="1117.978345" stroke="black" stroke-width="3.9204"/>
<line x1="2286.301695" y1="1117.978345" x2="2286.301695" y2="865.889988" stroke="black" stroke-width="3.9204"/>
<line x1="2286.301695" y1="865.889988" x2="2247.440204" y2="865.889988" stroke="black" stroke-width="3.9204"/>
<line x1="2285.79036" y1="889.411418" x2="2247.951539" y2="889.411418" stroke="black" stroke-width="3.9204"/>
<line x1="2285.79036" y1="1093.945581" x2="2246.417534" y2="1093.945581" stroke="black" stroke-width="3.9204"/>
<line x1="2267.89362" y1="888.900083" x2="2267.89362" y2="1093.434246" stroke="black" stroke-width="3.9204"/>
<line x1="1161.502381" y1="1542.083578" x2="1181.935902" y2="1542.083578" stroke="black" stroke-width="3.9204"/>
<line x1="1181.935902" y1="1542.083578" x2="1181.935902" y2="1502.213292" stroke="black" stroke-width="3.9204"/>
<line x1="1181.935902" y1="1502.213292" x2="1161.502381" y2="1502.213292" stroke="black" stroke-width="3.9204"/>
<line x1="1161.502381" y1="1502.213292" x2="1161.502381" y2="1542.083578" stroke="black" stroke-width="3.9204"/>
<line x1="1381.785701" y1="1502.213292" x2="1381.785701" y2="1303.360245" stroke="black" stroke-width="3.9204"/>
<line x1="1382.284083" y1="1543.080334" x2="1402.717603" y2="1543.080334" stroke="black" stroke-width="3.9204"/>
<line x1="1402.717603" y1="1543.080334" x2="1402.717603" y2="1503.210048" stroke="black" stroke-width="3.9204"/>
<line x1="1402.717603" y1="1503.210048" x2="1382.284083" y2="1503.210048" stroke="black" stroke-width="3.9204"/>
<line x1="1382.284083" y1="1503.210048" x2="1382.284083" y2="1543.080334" stroke="black" stroke-width="3.9204"/>
<path d="m 1181.935902,1503.708426 a 199.84979899999996,199.84979899999996 0 0 1 199.84979900000008,-199.84979899999985" fill="none" stroke="black" stroke-width="3.9204"/>
<line x1="1474.645222" y1="911.202966" x2="1474.645222" y2="929.755304" stroke="black" stroke-width="3.9204"/>
<line x1="1474.645222" y1="929.755304" x2="1510.844908" y2="929.755304" stroke="black" stroke-width="3.9204"/>
<line x1="1510.844908" y1="929.755304" x2="1510.844908" y2="911.202966" stroke="black" stroke-width="3.9204"/>
<line x1="1510.844908" y1="911.202966" x2="1474.645222" y2="911.202966" stroke="black" stroke-width="3.9204"/>
<line x1="1510.844908" y1="1111.206235" x2="1691.390848" y2="1111.206235" stroke="black" stroke-width="3.9204"/>
<line x1="1473.740227" y1="1111.658732" x2="1473.740227" y2="1130.211071" stroke="black" stroke-width="3.9204"/>
<line x1="1473.740227" y1="1130.211071" x2="1509.939918" y2="1130.211071" stroke="black" stroke-width="3.9204"/>
<line x1="1509.939918" y1="1130.211071" x2="1509.939918" y2="1111.658732" stroke="black" stroke-width="3.9204"/>
<line x1="1509.939918" y1="1111.658732" x2="1473.740227" y2="1111.658732" stroke="black" stroke-width="3.9204"/>
<path d="m 1509.48742,929.755304 a 181.45093100000008,181.45093100000008 0 0 1 181.45093100000008,181.45093100000008" fill="none" stroke="black" stroke-width="3.9204"/>
<line x1="1639.595905" y1="380.263404" x2="1639.595905" y2="650.810604" stroke="black" stroke-width="3.9204"/>
<line x1="1639.595905" y1="650.810604" x2="1507.648705" y2="650.810604" stroke="black" stroke-width="3.9204"/>
<line x1="1507.648705" y1="380.263404" x2="1507.648705" y2="650.810604" stroke="black" stroke-width="3.9204"/>
<line x1="1639.595905" y1="380.263404" x2="1507.648705" y2="380.263404" stroke="black" stroke-width="3.9204"/>
<line x1="1632.943105" y1="386.916204" x2="1632.943105" y2="524.961804" stroke="black" stroke-width="3.9204"/>
<line x1="1632.943105" y1="524.961804" x2="1514.855905" y2="524.961804" stroke="black" stroke-width="3.9204"/>
<line x1="1514.855905" y1="386.916204" x2="1514.855905" y2="524.961804" stroke="black" stroke-width="3.9204"/>
<line x1="1632.943105" y1="386.916204" x2="1514.855905" y2="386.916204" stroke="black" stroke-width="3.9204"/>
<line x1="1625.181505" y1="539.376204" x2="1625.181505" y2="636.396204" stroke="black" stroke-width="3.9204"/>
<line x1="1604.668705" y1="539.376204" x2="1604.668705" y2="636.396204" stroke="black" stroke-width="3.9204"/>
<line x1="1583.601505" y1="539.930604" x2="1583.601505" y2="636.950604" stroke="black" stroke-width="3.9204"/>
<line x1="1563.088705" y1="539.930604" x2="1563.088705" y2="636.950604" stroke="black" stroke-width="3.9204"/>
<line x1="1542.575905" y1="539.376204" x2="1542.575905" y2="636.396204" stroke="black" stroke-width="3.9204"/>
<line x1="1522.063105" y1="539.376204" x2="1522.063105" y2="636.396204" stroke="black" stroke-width="3.9204"/>
<line x1="1514.855905" y1="439.584204" x2="1528.715905" y2="439.584204" stroke="black" stroke-width="3.9204"/>
<line x1="1528.715905" y1="439.584204" x2="1528.715905" y2="473.957004" stroke="black" stroke-width="3.9204"/>
<line x1="1528.715905" y1="473.957004" x2="1515.410305" y2="473.957004" stroke="black" stroke-width="3.9204"/>
<circle cx="1617.974305" cy="509.438604" r="8.316" fill="none" stroke="black" stroke-width="3.9204"/>
<line x1="1191.95425" y1="774.161562" x2="1173.272174" y2="774.161562" stroke="black" stroke-width="3.920396"/>
<line x1="1173.272174" y1="774.161562" x2="1173.272174" y2="810.614396" stroke="black" stroke-width="3.920396"/>
<line x1="1173.272174" y1="810.614396" x2="1191.95425" y2="810.614396" stroke="black" stroke-width="3.920396"/>
<line x1="1191.95425" y1="810.614396" x2="1191.95425" y2="774.161562" stroke="black" stroke-width="3.920396"/>
<line x1="990.552357" y1="810.614396" x2="990.552357" y2="992.422894" stroke="black" stroke-width="3.920396"/>
<line x1="990.096695" y1="773.250243" x2="971.414619" y2="773.250243" stroke="black" stroke-width="3.920396"/>
<line x1="971.414619" y1="773.250243" x2="971.414619" y2="809.703073" stroke="black" stroke-width="3.920396"/>
<line x1="971.414619" y1="809.703073" x2="990.096695" y2="809.703073" stroke="black" stroke-width="3.920396"/>
<line x1="990.096695" y1="809.703073" x2="990.096695" y2="773.250243" stroke="black" stroke-width="3.920396"/>
<path d="m 1173.272174,809.247412 a 182.71981899999992,182.71981899999992 0 0 1 -182.71981699999992,182.7198209999999" fill="none" stroke="black" stroke-width="3.920396"/>
<line x1="1789.386307" y1="235.945773" x2="1941.975617" y2="235.945773" stroke="black" stroke-width="3.9204"/>
<line x1="1941.975617" y1="235.945773" x2="1941.975617" y2="388.847765" stroke="black" stroke-width="3.9204"/>
<line x1="1941.975617" y1="388.847765" x2="1789.386307" y2="388.847765" stroke="black" stroke-width="3.9204"/>
<line x1="1789.386307" y1="388.847765" x2="1789.386307" y2="235.945773" stroke="black" stroke-width="3.9204"/>
<line x1="1789.073625" y1="235.633092" x2="1941.975617" y2="388.847765" stroke="black" stroke-width="3.9204"/>
<line x1="1789.386307" y1="388.535083" x2="1941.662931" y2="235.945773" stroke="black" stroke-width="3.9204"/>
<line x1="1246.017857" y1="379.392726" x2="1062.273857" y2="379.392726" stroke="black" stroke-width="3.9204"/>
<line x1="1062.273857" y1="379.392726" x2="1062.273857" y2="330.288726" stroke="black" stroke-width="3.9204"/>
<line x1="1246.017857" y1="330.288726" x2="1062.273857" y2="330.288726" stroke="black" stroke-width="3.9204"/>
<line x1="1246.017857" y1="379.392726" x2="1246.017857" y2="330.288726" stroke="black" stroke-width="3.9204"/>
<line x1="1204.437857" y1="407.112726" x2="1204.437857" y2="379.392726" stroke="black" stroke-width="3.9204"/>
<line x1="1105.437857" y1="379.392726" x2="1105.437857" y2="408.696726" stroke="black" stroke-width="3.9204"/>
<circle cx="1155.729857" cy="452.256726" r="66.528" fill="none" stroke="black" stroke-width="3.9204"/>
<circle cx="1155.729857" cy="452.256726" r="57.024" fill="none" stroke="black" stroke-width="3.9204"/>
<line x1="960.909353" y1="534.445338" x2="936.357353" y2="553.057338" stroke="black" stroke-width="3.9204"/>
<line x1="936.357353" y1="553.057338" x2="936.357353" y2="700.369338" stroke="black" stroke-width="3.9204"/>
<line x1="936.357353" y1="700.369338" x2="964.473353" y2="719.377338" stroke="black" stroke-width="3.9204"/>
<line x1="963.681353" y1="556.225338" x2="963.681353" y2="699.181338" stroke="black" stroke-width="3.9204"/>
<circle cx="985.461353" cy="625.525338" r="13.068000000000001" fill="none" stroke="black" stroke-width="3.9204"/>
<path d="m 963.014006,557.778589 a 74.84400060548079,74.84400060548079 0 1 1 0.4020470000000387,139.60900400000003" fill="none" stroke="black" stroke-width="3.9204"/>
<path d="m 960.251989,534.491639 a 95.4359995551865,95.4359995551865 0 1 1 3.074960000000033,184.466997" fill="none" stroke="black" stroke-width="3.9204"/>
<line x1="1299.109977" y1="330.846401" x2="1299.109977" y2="722.094401" stroke="black" stroke-width="3.9204"/>
<line x1="1299.109977" y1="722.094401" x2="1473.349977" y2="722.094401" stroke="black" stroke-width="3.9204"/>
<line x1="1473.349977" y1="722.094401" x2="1473.349977" y2="330.846401" stroke="black" stroke-width="3.9204"/>
<line x1="1473.349977" y1="330.846401" x2="1299.109977" y2="330.846401" stroke="black" stroke-width="3.9204"/>
<line x1="1446.421977" y1="646.854401" x2="1446.421977" y2="362.526401" stroke="black" stroke-width="3.9204"/>
<line x1="1446.421977" y1="362.526401" x2="1328.413977" y2="362.526401" stroke="black" stroke-width="3.9204"/>
<line x1="1328.413977" y1="362.526401" x2="1328.413977" y2="652.398401" stroke="black" stroke-width="3.9204"/>
<path d="m 1446.677401,646.043829 a 63.359999516600396,63.359999516600396 0 0 1 -119.37433099999998,4.293812000000003" fill="none" stroke="black" stroke-width="3.9204"/>
<line x1="1593.470039" y1="1914.454238" x2="1593.470039" y2="2104.534238" stroke="black" stroke-width="3.9204"/>
<line x1="1593.470039" y1="2104.534238" x2="2057.265239" y2="2104.534238" stroke="black" stroke-width="3.9204"/>
<line x1="2057.265239" y1="2104.534238" x2="2057.265239" y2="1914.454238" stroke="black" stroke-width="3.9204"/>
<line x1="2057.265239" y1="1914.454238" x2="2033.505239" y2="1914.454238" stroke="black" stroke-width="3.9204"/>
<line x1="2033.505239" y1="1914.454238" x2="2033.505239" y2="2081.724638" stroke="black" stroke-width="3.9204"/>
<line x1="2033.505239" y1="2081.724638" x2="1618.180439" y2="2081.724638" stroke="black" stroke-width="3.9204"/>
<line x1="1618.180439" y1="2081.724638" x2="1618.180439" y2="1914.454238" stroke="black" stroke-width="3.9204"/>
<line x1="1618.180439" y1="1914.454238" x2="1593.470039" y2="1914.454238" stroke="black" stroke-width="3.9204"/>
<line x1="1618.180439" y1="1920.156638" x2="2033.505239" y2="1920.156638" stroke="black" stroke-width="3.9204"/>
<line x1="1825.367639" y1="1919.206238" x2="1825.367639" y2="2080.774238" stroke="black" stroke-width="3.9204"/>
<line x1="927.659605" y1="1215.759996" x2="927.659605" y2="1196.116911" stroke="black" stroke-width="3.9204"/>
<line x1="927.659605" y1="1196.116911" x2="889.331632" y2="1196.116911" stroke="black" stroke-width="3.9204"/>
<line x1="889.331632" y1="1196.116911" x2="889.331632" y2="1215.759996" stroke="black" stroke-width="3.9204"/>
<line x1="889.331632" y1="1215.759996" x2="927.659605" y2="1215.759996" stroke="black" stroke-width="3.9204"/>
<line x1="889.331632" y1="1003.997951" x2="698.170873" y2="1003.997951" stroke="black" stroke-width="3.9204"/>
<line x1="928.617806" y1="1003.518854" x2="928.617806" y2="983.875769" stroke="black" stroke-width="3.9204"/>
<line x1="928.617806" y1="983.875769" x2="890.289833" y2="983.875769" stroke="black" stroke-width="3.9204"/>
<line x1="890.289833" y1="983.875769" x2="890.289833" y2="1003.518854" stroke="black" stroke-width="3.9204"/>
<line x1="890.289833" y1="1003.518854" x2="928.617806" y2="1003.518854" stroke="black" stroke-width="3.9204"/>
<path d="m 890.768934,1196.116911 a 192.11896000000002,192.11896000000002 0 0 1 -192.1189599999999,-192.11896000000013" fill="none" stroke="black" stroke-width="3.9204"/>
<line x1="924.972773" y1="1470.753322" x2="924.972773" y2="1451.746906" stroke="black" stroke-width="3.9204"/>
<line x1="924.972773" y1="1451.746906" x2="887.88708" y2="1451.746906" stroke="black" stroke-width="3.9204"/>
<line x1="887.88708" y1="1451.746906" x2="887.88708" y2="1470.753322" stroke="black" stroke-width="3.9204"/>
<line x1="887.88708" y1="1470.753322" x2="924.972773" y2="1470.753322" stroke="black" stroke-width="3.9204"/>
<line x1="887.88708" y1="1265.854867" x2="702.922184" y2="1265.854867" stroke="black" stroke-width="3.9204"/>
<line x1="925.899916" y1="1265.391294" x2="925.899916" y2="1246.384878" stroke="black" stroke-width="3.9204"/>
<line x1="925.899916" y1="1246.384878" x2="888.814223" y2="1246.384878" stroke="black" stroke-width="3.9204"/>
<line x1="888.814223" y1="1246.384878" x2="888.814223" y2="1265.391294" stroke="black" stroke-width="3.9204"/>
<line x1="888.814223" y1="1265.391294" x2="925.899916" y2="1265.391294" stroke="black" stroke-width="3.9204"/>
<path d="m 889.277792,1451.746906 a 185.892039,185.892039 0 0 1 -185.89203899999995,-185.89203900000007" fill="none" stroke="black" stroke-width="3.9204"/>
<line x1="530.19831" y1="676.559565" x2="530.19831" y2="467.194365" stroke="black" stroke-width="3.9204"/>
<line x1="530.19831" y1="467.194365" x2="198.98391" y2="467.194365" stroke="black" stroke-width="3.9204"/>
<line x1="198.98391" y1="467.194365" x2="198.98391" y2="676.559565" stroke="black" stroke-width="3.9204"/>
<line x1="198.98391" y1="676.559565" x2="530.19831" y2="676.559565" stroke="black" stroke-width="3.9204"/>
<line x1="258.22551" y1="677.232765" x2="258.22551" y2="466.521165" stroke="black" stroke-width="3.9204"/>
<line x1="258.22551" y1="466.521165" x2="308.04231" y2="675.886365" stroke="black" stroke-width="3.9204"/>
<line x1="308.04231" y1="675.886365" x2="354.49311" y2="644.245965" stroke="black" stroke-width="3.9204"/>
<line x1="354.49311" y1="644.245965" x2="257.55231" y2="466.521165" stroke="black" stroke-width="3.9204"/>
<line x1="1890.810239" y1="649.354329" x2="1778.85639" y2="993.91284" stroke="black" stroke-width="3.9204"/>
<line x1="1778.85639" y1="993.91284" x2="1940.715533" y2="1046.504064" stroke="black" stroke-width="3.9204"/>
<line x1="1940.715533" y1="1046.504064" x2="2052.669378" y2="701.945553" stroke="black" stroke-width="3.9204"/>
<line x1="2052.669378" y1="701.945553" x2="1890.810239" y2="649.354329" stroke="black" stroke-width="3.9204"/>
<line x1="2007.300981" y1="841.575109" x2="2078.157771" y2="864.597876" stroke="black" stroke-width="3.9204"/>
<line x1="2078.157771" y1="864.597876" x2="2100.503402" y2="795.825111" stroke="black" stroke-width="3.9204"/>
<line x1="2100.503402" y1="795.825111" x2="2029.646611" y2="772.802344" stroke="black" stroke-width="3.9204"/>
<line x1="2084.99485" y1="791.554088" x2="2062.874939" y2="859.632183" stroke="black" stroke-width="3.9204"/>
<line x1="1796.236006" y1="696.962641" x2="1773.890383" y2="765.735407" stroke="black" stroke-width="3.9204"/>
<line x1="1773.890383" y1="765.735407" x2="1845.441845" y2="788.983886" stroke="black" stroke-width="3.9204"/>
<line x1="1867.787472" y1="720.21112" x2="1796.236006" y2="696.962641" stroke="black" stroke-width="3.9204"/>
<line x1="1811.29313" y1="702.62301" x2="1789.173215" y2="770.701104" stroke="black" stroke-width="3.9204"/>
<line x1="1964.189724" y1="974.257923" x2="2035.046515" y2="997.28069" stroke="black" stroke-width="3.9204"/>
<line x1="2035.046515" y1="997.28069" x2="2057.392141" y2="928.507924" stroke="black" stroke-width="3.9204"/>
<line x1="2057.392141" y1="928.507924" x2="1986.53535" y2="905.485157" stroke="black" stroke-width="3.9204"/>
<line x1="2042.109305" y1="923.542231" x2="2019.763675" y2="992.314996" stroke="black" stroke-width="3.9204"/>
<line x1="1753.124749" y1="829.645455" x2="1730.779119" y2="898.41822" stroke="black" stroke-width="3.9204"/>
<line x1="1730.779119" y1="898.41822" x2="1802.330589" y2="921.666699" stroke="black" stroke-width="3.9204"/>
<line x1="1824.676211" y1="852.893934" x2="1753.124749" y2="829.645455" stroke="black" stroke-width="3.9204"/>
<line x1="1768.407581" y1="834.611148" x2="1746.061959" y2="903.383918" stroke="black" stroke-width="3.9204"/>
<line x1="1631.03545" y1="1532.099646" x2="1459.760588" y2="1652.027597" stroke="black" stroke-width="3.9204"/>
<line x1="1459.760588" y1="1652.027597" x2="1592.771586" y2="1841.986991" stroke="black" stroke-width="3.9204"/>
<line x1="1592.771586" y1="1841.986991" x2="1764.046449" y2="1722.05904" stroke="black" stroke-width="3.9204"/>
<line x1="1764.046449" y1="1722.05904" x2="1631.03545" y2="1532.099646" stroke="black" stroke-width="3.9204"/>
<line x1="1649.569771" y1="1558.569399" x2="1478.294908" y2="1678.497349" stroke="black" stroke-width="3.9204"/>
<line x1="901.134547" y1="355.339294" x2="783.930989" y2="238.135737" stroke="black" stroke-width="3.9204"/>
<line x1="783.930989" y1="238.135737" x2="653.941593" y2="368.125136" stroke="black" stroke-width="3.9204"/>
<line x1="653.941593" y1="368.125136" x2="771.145147" y2="485.32869" stroke="black" stroke-width="3.9204"/>
<line x1="771.145147" y1="485.32869" x2="901.134547" y2="355.339294" stroke="black" stroke-width="3.9204"/>
<line x1="883.021265" y1="373.452568" x2="765.817716" y2="256.249018" stroke="black" stroke-width="3.9204"/>
<line x1="2139.715655" y1="1467.181366" x2="1953.416884" y2="1372.257398" stroke="black" stroke-width="3.9204"/>
<line x1="1953.416884" y1="1372.257398" x2="1848.137576" y2="1578.879672" stroke="black" stroke-width="3.9204"/>
<line x1="1848.137576" y1="1578.879672" x2="2034.43635" y2="1673.803641" stroke="black" stroke-width="3.9204"/>
<line x1="2034.43635" y1="1673.803641" x2="2139.715655" y2="1467.181366" stroke="black" stroke-width="3.9204"/>
<line x1="2125.045589" y1="1495.972994" x2="1938.746815" y2="1401.04903" stroke="black" stroke-width="3.9204"/>
<line x1="628.031666" y1="104.836553" x2="761.547311" y2="104.836553" stroke="black" stroke-width="3.9204"/>
<line x1="761.547311" y1="104.836553" x2="761.547311" y2="238.625794" stroke="black" stroke-width="3.9204"/>
<line x1="761.547311" y1="238.625794" x2="628.031666" y2="238.625794" stroke="black" stroke-width="3.9204"/>
<line x1="628.031666" y1="238.625794" x2="628.031666" y2="104.836553" stroke="black" stroke-width="3.9204"/>
<line x1="627.758069" y1="104.562957" x2="761.547311" y2="238.625794" stroke="black" stroke-width="3.9204"/>
<line x1="628.031666" y1="238.352198" x2="761.273715" y2="104.836553" stroke="black" stroke-width="3.9204"/>
<line x1="200.015256" y1="1874.22844" x2="428.899217" y2="1874.22844" stroke="black" stroke-width="3.9204"/>
<line x1="428.899217" y1="1874.22844" x2="428.899217" y2="2103.581423" stroke="black" stroke-width="3.9204"/>
<line x1="428.899217" y1="2103.581423" x2="200.015256" y2="2103.581423" stroke="black" stroke-width="3.9204"/>
<line x1="200.015256" y1="2103.581423" x2="200.015256" y2="1874.22844" stroke="black" stroke-width="3.9204"/>
<line x1="199.546233" y1="1873.759413" x2="428.899217" y2="2103.581423" stroke="black" stroke-width="3.9204"/>
<line x1="200.015256" y1="2103.1124" x2="428.430194" y2="1874.22844" stroke="black" stroke-width="3.9204"/>
<line x1="399.571904" y1="1621.39274" x2="199.988946" y2="1645.898447" stroke="black" stroke-width="3.9204"/>
<line x1="199.988946" y1="1645.898447" x2="227.168002" y2="1867.254092" stroke="black" stroke-width="3.9204"/>
<line x1="227.168002" y1="1867.254092" x2="426.75096" y2="1842.748384" stroke="black" stroke-width="3.9204"/>
<line x1="426.75096" y1="1842.748384" x2="399.571904" y2="1621.39274" stroke="black" stroke-width="3.9204"/>
<line x1="403.359149" y1="1652.237382" x2="203.776191" y2="1676.743085" stroke="black" stroke-width="3.9204"/>
</g>
</svg>
