<?xml version="1.0"?>
<svg xmlns:xlink="http://www.w3.org/1999/xlink" width="380.799826" height="134.318448">
<g style="stroke-linecap:round">
<line x1="2.1875" y1="3.130947" x2="374.577529" y2="3.130947" stroke="black" stroke-width="3.375"/>
<line x1="378.323179" y1="2.1875" x2="378.323179" y2="131.040508" stroke="black" stroke-width="3.375"/>
<line x1="2.627262" y1="132.130948" x2="378.612326" y2="132.130948" stroke="black" stroke-width="3.375"/>
<line x1="3.323179" y1="3.788855" x2="3.323179" y2="131.879818" stroke="black" stroke-width="3.375"/>
<line x1="13.073179" y1="13.630947" x2="130.073179" y2="13.630947" stroke="black" stroke-width="3.375"/>
<line x1="130.073179" y1="13.630947" x2="130.073179" y2="121.630948" stroke="black" stroke-width="3.375"/>
<line x1="13.073179" y1="121.630948" x2="130.073179" y2="121.630948" stroke="black" stroke-width="3.375"/>
<line x1="13.073179" y1="13.630947" x2="13.073179" y2="121.630948" stroke="black" stroke-width="3.375"/>
<line x1="148.073179" y1="20.380947" x2="230.573179" y2="20.380947" stroke="black" stroke-width="3.375"/>
<line x1="148.073179" y1="39.130947" x2="230.573179" y2="39.130947" stroke="black" stroke-width="3.375"/>
<line x1="148.823179" y1="58.630947" x2="230.573179" y2="58.630947" stroke="black" stroke-width="3.375"/>
<line x1="148.823179" y1="77.380948" x2="230.573179" y2="77.380948" stroke="black" stroke-width="3.375"/>
<line x1="148.073179" y1="96.130948" x2="230.573179" y2="96.130948" stroke="black" stroke-width="3.375"/>
<line x1="148.073179" y1="114.880948" x2="230.573179" y2="114.880948" stroke="black" stroke-width="3.375"/>
<line x1="58.073179" y1="120.880948" x2="58.073179" y2="108.130948" stroke="black" stroke-width="3.375"/>
<line x1="58.073179" y1="108.130948" x2="86.573179" y2="108.130948" stroke="black" stroke-width="3.375"/>
<line x1="86.573179" y1="108.130948" x2="86.573179" y2="120.130948" stroke="black" stroke-width="3.375"/>
<line x1="250.073179" y1="13.630947" x2="367.073179" y2="13.630947" stroke="black" stroke-width="3.375"/>
<line x1="367.073179" y1="13.630947" x2="367.073179" y2="121.630948" stroke="black" stroke-width="3.375"/>
<line x1="250.073179" y1="121.630948" x2="367.073179" y2="121.630948" stroke="black" stroke-width="3.375"/>
<line x1="250.073179" y1="13.630947" x2="250.073179" y2="121.630948" stroke="black" stroke-width="3.375"/>
<line x1="295.073179" y1="121.630948" x2="295.073179" y2="108.880948" stroke="black" stroke-width="3.375"/>
<line x1="295.073179" y1="108.880948" x2="323.573179" y2="108.880948" stroke="black" stroke-width="3.375"/>
<line x1="323.573179" y1="108.880948" x2="323.573179" y2="120.880948" stroke="black" stroke-width="3.375"/>
<circle cx="116.573179" cy="27.130947" r="6.75" fill="none" stroke="black" stroke-width="3.375"/>
<circle cx="353.573179" cy="27.880947" r="6.75" fill="none" stroke="black" stroke-width="3.375"/>
</g>
</svg>
