<?xml version="1.0"?>
<svg xmlns:xlink="http://www.w3.org/1999/xlink" width="5498.133887999999" height="2960.5336319999997">
<image x="0" y="0" width="5498.133887999999" height="2960.5336319999997" xlink:href="ground16-07.png"/>
<g style="stroke-linecap:round">
<line x1="1294.244566" y1="1161.032193" x2="1316.799022" y2="1161.032193" stroke="black" stroke-width="4.758"/>
<line x1="1316.799022" y1="1161.032193" x2="1316.799022" y2="1117.023503" stroke="black" stroke-width="4.758"/>
<line x1="1316.799022" y1="1117.023503" x2="1294.244566" y2="1117.023503" stroke="black" stroke-width="4.758"/>
<line x1="1294.244566" y1="1117.023503" x2="1294.244566" y2="1161.032193" stroke="black" stroke-width="4.758"/>
<line x1="1537.39259" y1="1117.023503" x2="1537.39259" y2="897.530148" stroke="black" stroke-width="4.758"/>
<line x1="1537.942699" y1="1162.13241" x2="1560.497154" y2="1162.13241" stroke="black" stroke-width="4.758"/>
<line x1="1560.497154" y1="1162.13241" x2="1560.497154" y2="1118.12372" stroke="black" stroke-width="4.758"/>
<line x1="1560.497154" y1="1118.12372" x2="1537.942699" y2="1118.12372" stroke="black" stroke-width="4.758"/>
<line x1="1537.942699" y1="1118.12372" x2="1537.942699" y2="1162.13241" stroke="black" stroke-width="4.758"/>
<path d="m 1316.799022,1118.673829 a 220.59357050000006,220.59357050000006 0 0 1 220.593568,-220.5935730000001" fill="none" stroke="black" stroke-width="4.758"/>
<line x1="1546.852786" y1="1890.830668" x2="1524.29833" y2="1890.830668" stroke="black" stroke-width="4.758"/>
<line x1="1524.29833" y1="1890.830668" x2="1524.29833" y2="1934.839358" stroke="black" stroke-width="4.758"/>
<line x1="1524.29833" y1="1934.839358" x2="1546.852786" y2="1934.839358" stroke="black" stroke-width="4.758"/>
<line x1="1546.852786" y1="1934.839358" x2="1546.852786" y2="1890.830668" stroke="black" stroke-width="4.758"/>
<line x1="1303.704762" y1="1934.839358" x2="1303.704762" y2="2154.332713" stroke="black" stroke-width="4.758"/>
<line x1="1303.154654" y1="1889.730451" x2="1280.600198" y2="1889.730451" stroke="black" stroke-width="4.758"/>
<line x1="1280.600198" y1="1889.730451" x2="1280.600198" y2="1933.739141" stroke="black" stroke-width="4.758"/>
<line x1="1280.600198" y1="1933.739141" x2="1303.154654" y2="1933.739141" stroke="black" stroke-width="4.758"/>
<line x1="1303.154654" y1="1933.739141" x2="1303.154654" y2="1889.730451" stroke="black" stroke-width="4.758"/>
<path d="m 1524.29833,1933.189032 a 220.59357049999994,220.59357049999994 0 0 1 -220.593568,220.59357299999988" fill="none" stroke="black" stroke-width="4.758"/>
<line x1="4403.657584" y1="115.472526" x2="4618.156079" y2="115.472526" stroke="black" stroke-width="4.758"/>
<line x1="4618.156079" y1="115.472526" x2="4618.156079" y2="82.405824" stroke="black" stroke-width="4.758"/>
<line x1="4618.156079" y1="82.405824" x2="4403.657584" y2="82.405824" stroke="black" stroke-width="4.758"/>
<line x1="4403.657584" y1="82.405824" x2="4403.657584" y2="115.472526" stroke="black" stroke-width="4.758"/>
<line x1="4423.671642" y1="82.840912" x2="4423.671642" y2="115.037438" stroke="black" stroke-width="4.758"/>
<line x1="4597.706933" y1="82.840912" x2="4597.706933" y2="116.342703" stroke="black" stroke-width="4.758"/>
<line x1="4423.236554" y1="98.068998" x2="4597.271845" y2="98.068998" stroke="black" stroke-width="4.758"/>
<line x1="2442.739291" y1="114.132448" x2="2657.237786" y2="114.132448" stroke="black" stroke-width="4.758"/>
<line x1="2657.237786" y1="114.132448" x2="2657.237786" y2="81.065746" stroke="black" stroke-width="4.758"/>
<line x1="2657.237786" y1="81.065746" x2="2442.739291" y2="81.065746" stroke="black" stroke-width="4.758"/>
<line x1="2442.739291" y1="81.065746" x2="2442.739291" y2="114.132448" stroke="black" stroke-width="4.758"/>
<line x1="2462.753349" y1="81.500834" x2="2462.753349" y2="113.69736" stroke="black" stroke-width="4.758"/>
<line x1="2636.78864" y1="81.500834" x2="2636.78864" y2="115.002625" stroke="black" stroke-width="4.758"/>
<line x1="2462.31826" y1="96.728921" x2="2636.353552" y2="96.728921" stroke="black" stroke-width="4.758"/>
<line x1="1253.916155" y1="1507.813934" x2="1253.916155" y2="1485.259478" stroke="black" stroke-width="4.758"/>
<line x1="1253.916155" y1="1485.259478" x2="1209.907466" y2="1485.259478" stroke="black" stroke-width="4.758"/>
<line x1="1209.907466" y1="1485.259478" x2="1209.907466" y2="1507.813934" stroke="black" stroke-width="4.758"/>
<line x1="1209.907466" y1="1507.813934" x2="1253.916155" y2="1507.813934" stroke="black" stroke-width="4.758"/>
<line x1="1209.907466" y1="1264.66591" x2="990.414111" y2="1264.66591" stroke="black" stroke-width="4.758"/>
<line x1="1255.016372" y1="1264.115802" x2="1255.016372" y2="1241.561346" stroke="black" stroke-width="4.758"/>
<line x1="1255.016372" y1="1241.561346" x2="1211.007683" y2="1241.561346" stroke="black" stroke-width="4.758"/>
<line x1="1211.007683" y1="1241.561346" x2="1211.007683" y2="1264.115802" stroke="black" stroke-width="4.758"/>
<line x1="1211.007683" y1="1264.115802" x2="1255.016372" y2="1264.115802" stroke="black" stroke-width="4.758"/>
<path d="m 1211.557792,1485.259478 a 220.59357050000006,220.59357050000006 0 0 1 -220.5935730000001,-220.593568" fill="none" stroke="black" stroke-width="4.758"/>
<line x1="1253.394872" y1="1837.912218" x2="1253.394872" y2="1815.357762" stroke="black" stroke-width="4.758"/>
<line x1="1253.394872" y1="1815.357762" x2="1209.386183" y2="1815.357762" stroke="black" stroke-width="4.758"/>
<line x1="1209.386183" y1="1815.357762" x2="1209.386183" y2="1837.912218" stroke="black" stroke-width="4.758"/>
<line x1="1209.386183" y1="1837.912218" x2="1253.394872" y2="1837.912218" stroke="black" stroke-width="4.758"/>
<line x1="1209.386183" y1="1594.764194" x2="989.892827" y2="1594.764194" stroke="black" stroke-width="4.758"/>
<line x1="1254.495089" y1="1594.214086" x2="1254.495089" y2="1571.65963" stroke="black" stroke-width="4.758"/>
<line x1="1254.495089" y1="1571.65963" x2="1210.4864" y2="1571.65963" stroke="black" stroke-width="4.758"/>
<line x1="1210.4864" y1="1571.65963" x2="1210.4864" y2="1594.214086" stroke="black" stroke-width="4.758"/>
<line x1="1210.4864" y1="1594.214086" x2="1254.495089" y2="1594.214086" stroke="black" stroke-width="4.758"/>
<path d="m 1211.036509,1815.357762 a 220.5935705,220.5935705 0 0 1 -220.593573,-220.593568" fill="none" stroke="black" stroke-width="4.758"/>
<line x1="2469.579154" y1="1558.52728" x2="2492.277729" y2="1558.52728" stroke="black" stroke-width="4.758"/>
<line x1="2492.277729" y1="1558.52728" x2="2492.277729" y2="1514.237384" stroke="black" stroke-width="4.758"/>
<line x1="2492.277729" y1="1514.237384" x2="2469.579154" y2="1514.237384" stroke="black" stroke-width="4.758"/>
<line x1="2469.579154" y1="1514.237384" x2="2469.579154" y2="1558.52728" stroke="black" stroke-width="4.758"/>
<line x1="2714.280841" y1="1514.237384" x2="2714.280841" y2="1293.341516" stroke="black" stroke-width="4.758"/>
<line x1="2714.834465" y1="1559.634529" x2="2737.53304" y2="1559.634529" stroke="black" stroke-width="4.758"/>
<line x1="2737.53304" y1="1559.634529" x2="2737.53304" y2="1515.344628" stroke="black" stroke-width="4.758"/>
<line x1="2737.53304" y1="1515.344628" x2="2714.834465" y2="1515.344628" stroke="black" stroke-width="4.758"/>
<line x1="2714.834465" y1="1515.344628" x2="2714.834465" y2="1559.634529" stroke="black" stroke-width="4.758"/>
<path d="m 2492.277729,1515.898252 a 222.00311199999987,222.00311199999987 0 0 1 222.00311199999987,-222.00311199999987" fill="none" stroke="black" stroke-width="4.758"/>
<line x1="194.941386" y1="532.266526" x2="194.941386" y2="311.809742" stroke="black" stroke-width="4.758005"/>
<line x1="194.941386" y1="311.809742" x2="160.95616" y2="311.809742" stroke="black" stroke-width="4.758005"/>
<line x1="160.95616" y1="311.809742" x2="160.95616" y2="532.266526" stroke="black" stroke-width="4.758005"/>
<line x1="160.95616" y1="532.266526" x2="194.941386" y2="532.266526" stroke="black" stroke-width="4.758005"/>
<line x1="161.403333" y1="511.696523" x2="194.494209" y2="511.696523" stroke="black" stroke-width="4.758005"/>
<line x1="161.403333" y1="332.826918" x2="195.835731" y2="332.826918" stroke="black" stroke-width="4.758005"/>
<line x1="177.054423" y1="512.143695" x2="177.054423" y2="333.274095" stroke="black" stroke-width="4.758005"/>
<line x1="193.040199" y1="2237.218729" x2="193.040199" y2="2016.777166" stroke="black" stroke-width="4.758"/>
<line x1="193.040199" y1="2016.777166" x2="153.611627" y2="2016.777166" stroke="black" stroke-width="4.758"/>
<line x1="153.611627" y1="2016.777166" x2="153.611627" y2="2237.218729" stroke="black" stroke-width="4.758"/>
<line x1="153.611627" y1="2237.218729" x2="193.040199" y2="2237.218729" stroke="black" stroke-width="4.758"/>
<line x1="193.040199" y1="2226.913535" x2="206.481757" y2="2226.913535" stroke="black" stroke-width="4.758"/>
<line x1="206.481757" y1="2226.913535" x2="206.481757" y2="2027.53041" stroke="black" stroke-width="4.758"/>
<line x1="193.040199" y1="2027.53041" x2="206.481757" y2="2027.53041" stroke="black" stroke-width="4.758"/>
<line x1="2630.64014" y1="2277.391122" x2="2605.995975" y2="2277.391122" stroke="black" stroke-width="4.758"/>
<line x1="2605.995975" y1="2277.391122" x2="2605.995975" y2="2325.477299" stroke="black" stroke-width="4.758"/>
<line x1="2605.995975" y1="2325.477299" x2="2630.64014" y2="2325.477299" stroke="black" stroke-width="4.758"/>
<line x1="2630.64014" y1="2325.477299" x2="2630.64014" y2="2277.391122" stroke="black" stroke-width="4.758"/>
<line x1="2364.964024" y1="2325.477299" x2="2364.964024" y2="2565.307097" stroke="black" stroke-width="4.758"/>
<line x1="2364.362948" y1="2276.188969" x2="2339.718783" y2="2276.188969" stroke="black" stroke-width="4.758"/>
<line x1="2339.718783" y1="2276.188969" x2="2339.718783" y2="2324.275141" stroke="black" stroke-width="4.758"/>
<line x1="2339.718783" y1="2324.275141" x2="2364.362948" y2="2324.275141" stroke="black" stroke-width="4.758"/>
<line x1="2364.362948" y1="2324.275141" x2="2364.362948" y2="2276.188969" stroke="black" stroke-width="4.758"/>
<path d="m 2605.995975,2323.674065 a 241.03195099999994,241.03195099999994 0 0 1 -241.03195099999994,241.03195099999994" fill="none" stroke="black" stroke-width="4.758"/>
<line x1="568.88256" y1="1213.185645" x2="374.921777" y2="1213.185645" stroke="black" stroke-width="4.757996"/>
<line x1="374.921777" y1="1213.185645" x2="374.921777" y2="1161.3513" stroke="black" stroke-width="4.757996"/>
<line x1="568.88256" y1="1161.3513" x2="374.921777" y2="1161.3513" stroke="black" stroke-width="4.757996"/>
<line x1="568.88256" y1="1213.185645" x2="568.88256" y2="1161.3513" stroke="black" stroke-width="4.757996"/>
<line x1="524.99057" y1="1242.446969" x2="524.99057" y2="1213.185645" stroke="black" stroke-width="4.757996"/>
<line x1="420.485839" y1="1213.185645" x2="420.485839" y2="1244.119045" stroke="black" stroke-width="4.757996"/>
<circle cx="473.574242" cy="1290.101128" r="70.2271798019802" fill="none" stroke="black" stroke-width="4.757996"/>
<circle cx="473.574242" cy="1290.101128" r="60.19472554455446" fill="none" stroke="black" stroke-width="4.757996"/>
<line x1="863.33509" y1="1185.323243" x2="844.699588" y2="1160.740241" stroke="black" stroke-width="4.758"/>
<line x1="844.699588" y1="1160.740241" x2="697.201573" y2="1160.740241" stroke="black" stroke-width="4.758"/>
<line x1="697.201573" y1="1160.740241" x2="678.169571" y2="1188.891744" stroke="black" stroke-width="4.758"/>
<line x1="841.527588" y1="1188.098743" x2="698.391073" y2="1188.098743" stroke="black" stroke-width="4.758"/>
<circle cx="772.140081" cy="1209.906246" r="13.084501320000001" fill="none" stroke="black" stroke-width="4.758"/>
<path d="m 839.972378,1187.430553 a 74.93850864961598,74.93850864961598 0 1 1 -139.78529200000003,0.4025530000001254" fill="none" stroke="black" stroke-width="4.758"/>
<path d="m 863.288735,1184.665049 a 95.55651022076711,95.55651022076711 0 1 1 -184.699931,3.078845000000001" fill="none" stroke="black" stroke-width="4.758"/>
<line x1="1762.197068" y1="1315.274263" x2="1829.639143" y2="1453.551009" stroke="black" stroke-width="4.758"/>
<line x1="1829.639143" y1="1453.551009" x2="1691.079041" y2="1521.131286" stroke="black" stroke-width="4.758"/>
<line x1="1691.079041" y1="1521.131286" x2="1623.636966" y2="1382.854541" stroke="black" stroke-width="4.758"/>
<line x1="1623.636966" y1="1382.854541" x2="1762.197068" y2="1315.274263" stroke="black" stroke-width="4.758"/>
<line x1="1762.342218" y1="1314.852705" x2="1691.079041" y2="1521.131286" stroke="black" stroke-width="4.758"/>
<line x1="1623.920318" y1="1382.716338" x2="1829.500941" y2="1453.267657" stroke="black" stroke-width="4.758"/>
<line x1="1760.620465" y1="755.041294" x2="1760.620465" y2="1148.781725" stroke="black" stroke-width="4.758"/>
<line x1="1761.618002" y1="1152.742126" x2="1625.377407" y2="1152.742126" stroke="black" stroke-width="4.758"/>
<line x1="1624.224451" y1="755.50627" x2="1624.224451" y2="1153.047849" stroke="black" stroke-width="4.758"/>
<line x1="1759.924836" y1="756.242086" x2="1624.489978" y2="756.242086" stroke="black" stroke-width="4.758"/>
<line x1="1749.518464" y1="766.551087" x2="1749.518464" y2="890.259099" stroke="black" stroke-width="4.758"/>
<line x1="1749.518464" y1="890.259099" x2="1635.326452" y2="890.259099" stroke="black" stroke-width="4.758"/>
<line x1="1635.326452" y1="766.551087" x2="1635.326452" y2="890.259099" stroke="black" stroke-width="4.758"/>
<line x1="1749.518464" y1="766.551087" x2="1635.326452" y2="766.551087" stroke="black" stroke-width="4.758"/>
<line x1="1742.381463" y1="909.291101" x2="1742.381463" y2="996.52111" stroke="black" stroke-width="4.758"/>
<line x1="1722.556461" y1="909.291101" x2="1722.556461" y2="996.52111" stroke="black" stroke-width="4.758"/>
<line x1="1701.938459" y1="910.084101" x2="1701.938459" y2="996.52111" stroke="black" stroke-width="4.758"/>
<line x1="1682.113457" y1="910.084101" x2="1682.113457" y2="996.52111" stroke="black" stroke-width="4.758"/>
<line x1="1662.288455" y1="909.291101" x2="1662.288455" y2="996.52111" stroke="black" stroke-width="4.758"/>
<line x1="1642.463453" y1="909.291101" x2="1642.463453" y2="996.52111" stroke="black" stroke-width="4.758"/>
<line x1="1636.119452" y1="814.131091" x2="1649.600454" y2="814.131091" stroke="black" stroke-width="4.758"/>
<line x1="1649.600454" y1="814.131091" x2="1649.600454" y2="844.265094" stroke="black" stroke-width="4.758"/>
<line x1="1649.600454" y1="844.265094" x2="1636.912452" y2="844.265094" stroke="black" stroke-width="4.758"/>
<line x1="1749.518464" y1="1017.139112" x2="1749.518464" y2="1140.847124" stroke="black" stroke-width="4.758"/>
<line x1="1749.518464" y1="1140.847124" x2="1635.326452" y2="1140.847124" stroke="black" stroke-width="4.758"/>
<line x1="1635.326452" y1="1017.139112" x2="1635.326452" y2="1140.847124" stroke="black" stroke-width="4.758"/>
<line x1="1749.518464" y1="1017.139112" x2="1635.326452" y2="1017.139112" stroke="black" stroke-width="4.758"/>
<line x1="1635.326452" y1="1064.719117" x2="1648.807454" y2="1064.719117" stroke="black" stroke-width="4.758"/>
<line x1="1648.807454" y1="1064.719117" x2="1648.807454" y2="1094.85312" stroke="black" stroke-width="4.758"/>
<line x1="1648.807454" y1="1094.85312" x2="1636.119452" y2="1094.85312" stroke="black" stroke-width="4.758"/>
<circle cx="1735.244462" cy="875.985098" r="7.1370007200000005" fill="none" stroke="black" stroke-width="4.758"/>
<circle cx="1734.451462" cy="1126.573123" r="7.1370007200000005" fill="none" stroke="black" stroke-width="4.758"/>
<line x1="2535.336615" y1="514.719219" x2="2535.336615" y2="646.991632" stroke="black" stroke-width="4.758"/>
<line x1="2535.336615" y1="646.991632" x2="2521.062614" y2="646.991632" stroke="black" stroke-width="4.758"/>
<line x1="2521.062614" y1="514.719219" x2="2521.062614" y2="646.991632" stroke="black" stroke-width="4.758"/>
<line x1="2535.336615" y1="514.719219" x2="2521.062614" y2="514.719219" stroke="black" stroke-width="4.758"/>
<line x1="2521.062614" y1="528.04162" x2="2489.659811" y2="526.13842" stroke="black" stroke-width="4.758"/>
<line x1="2521.062614" y1="633.669231" x2="2488.708211" y2="635.572431" stroke="black" stroke-width="4.758"/>
<line x1="2073.810569" y1="514.719219" x2="2073.810569" y2="646.991632" stroke="black" stroke-width="4.758"/>
<line x1="2073.810569" y1="646.991632" x2="2087.13297" y2="646.991632" stroke="black" stroke-width="4.758"/>
<line x1="2087.13297" y1="514.719219" x2="2087.13297" y2="646.991632" stroke="black" stroke-width="4.758"/>
<line x1="2073.810569" y1="514.719219" x2="2087.13297" y2="514.719219" stroke="black" stroke-width="4.758"/>
<line x1="2089.03617" y1="527.09002" x2="2120.438973" y2="525.18682" stroke="black" stroke-width="4.758"/>
<line x1="2089.03617" y1="632.717631" x2="2121.390573" y2="635.572431" stroke="black" stroke-width="4.758"/>
<line x1="2370.709799" y1="810.666849" x2="2370.709799" y2="796.392847" stroke="black" stroke-width="4.758"/>
<line x1="2370.709799" y1="796.392847" x2="2238.437385" y2="796.392847" stroke="black" stroke-width="4.758"/>
<line x1="2238.437385" y1="810.666849" x2="2238.437385" y2="796.392847" stroke="black" stroke-width="4.758"/>
<line x1="2370.709799" y1="810.666849" x2="2238.437385" y2="810.666849" stroke="black" stroke-width="4.758"/>
<line x1="2252.711387" y1="796.392847" x2="2249.856586" y2="764.038444" stroke="black" stroke-width="4.758"/>
<line x1="2357.387397" y1="796.392847" x2="2359.290597" y2="764.038444" stroke="black" stroke-width="4.758"/>
<line x1="2371.661399" y1="350.092402" x2="2371.661399" y2="364.366404" stroke="black" stroke-width="4.758"/>
<line x1="2371.661399" y1="364.366404" x2="2239.388985" y2="364.366404" stroke="black" stroke-width="4.758"/>
<line x1="2239.388985" y1="350.092402" x2="2239.388985" y2="364.366404" stroke="black" stroke-width="4.758"/>
<line x1="2371.661399" y1="350.092402" x2="2239.388985" y2="350.092402" stroke="black" stroke-width="4.758"/>
<line x1="2253.662987" y1="364.366404" x2="2250.808187" y2="396.720807" stroke="black" stroke-width="4.758"/>
<line x1="2358.338997" y1="364.366404" x2="2360.242198" y2="396.720807" stroke="black" stroke-width="4.758"/>
<circle cx="2305.049392" cy="580.379625" r="192.22321939199998" fill="none" stroke="black" stroke-width="4.758"/>
<line x1="1878.886453" y1="2846.549827" x2="1664.387958" y2="2846.549827" stroke="black" stroke-width="4.758"/>
<line x1="1664.387958" y1="2846.549827" x2="1664.387958" y2="2879.616529" stroke="black" stroke-width="4.758"/>
<line x1="1664.387958" y1="2879.616529" x2="1878.886453" y2="2879.616529" stroke="black" stroke-width="4.758"/>
<line x1="1878.886453" y1="2879.616529" x2="1878.886453" y2="2846.549827" stroke="black" stroke-width="4.758"/>
<line x1="1858.872395" y1="2879.181441" x2="1858.872395" y2="2846.984915" stroke="black" stroke-width="4.758"/>
<line x1="1684.837104" y1="2879.181441" x2="1684.837104" y2="2845.67965" stroke="black" stroke-width="4.758"/>
<line x1="1859.307483" y1="2863.953355" x2="1685.272192" y2="2863.953355" stroke="black" stroke-width="4.758"/>
<line x1="3594.394222" y1="1100.186746" x2="3594.394222" y2="909.866727" stroke="black" stroke-width="4.758"/>
<line x1="3594.394222" y1="909.866727" x2="3130.013376" y2="909.866727" stroke="black" stroke-width="4.758"/>
<line x1="3130.013376" y1="909.866727" x2="3130.013376" y2="1100.186746" stroke="black" stroke-width="4.758"/>
<line x1="3130.013376" y1="1100.186746" x2="3153.803378" y2="1100.186746" stroke="black" stroke-width="4.758"/>
<line x1="3153.803378" y1="1100.186746" x2="3153.803378" y2="932.705129" stroke="black" stroke-width="4.758"/>
<line x1="3153.803378" y1="932.705129" x2="3569.65262" y2="932.705129" stroke="black" stroke-width="4.758"/>
<line x1="3569.65262" y1="932.705129" x2="3569.65262" y2="1100.186746" stroke="black" stroke-width="4.758"/>
<line x1="3569.65262" y1="1100.186746" x2="3594.394222" y2="1100.186746" stroke="black" stroke-width="4.758"/>
<line x1="3569.65262" y1="1094.477145" x2="3153.803378" y2="1094.477145" stroke="black" stroke-width="4.758"/>
<line x1="3362.203799" y1="1095.428745" x2="3362.203799" y2="933.656729" stroke="black" stroke-width="4.758"/>
<line x1="3332.267372" y1="1286.341528" x2="3447.951832" y2="1376.724135" stroke="black" stroke-width="4.758"/>
<line x1="3447.951832" y1="1376.724135" x2="3357.384015" y2="1492.645653" stroke="black" stroke-width="4.758"/>
<line x1="3357.384015" y1="1492.645653" x2="3241.699555" y2="1402.263046" stroke="black" stroke-width="4.758"/>
<line x1="3241.699555" y1="1402.263046" x2="3332.267372" y2="1286.341528" stroke="black" stroke-width="4.758"/>
<line x1="3332.215523" y1="1285.91926" x2="3357.384015" y2="1492.645653" stroke="black" stroke-width="4.758"/>
<line x1="3241.884765" y1="1402.025987" x2="3447.714773" y2="1376.538925" stroke="black" stroke-width="4.758"/>
<line x1="421.513809" y1="793.235486" x2="211.884233" y2="793.235486" stroke="black" stroke-width="4.758"/>
<line x1="211.884233" y1="793.235486" x2="211.884233" y2="1124.86812" stroke="black" stroke-width="4.758"/>
<line x1="211.884233" y1="1124.86812" x2="421.513809" y2="1124.86812" stroke="black" stroke-width="4.758"/>
<line x1="421.513809" y1="1124.86812" x2="421.513809" y2="793.235486" stroke="black" stroke-width="4.758"/>
<line x1="422.187859" y1="1065.551714" x2="211.210183" y2="1065.551714" stroke="black" stroke-width="4.758"/>
<line x1="211.210183" y1="1065.551714" x2="420.839759" y2="1015.672009" stroke="black" stroke-width="4.758"/>
<line x1="420.839759" y1="1015.672009" x2="389.159406" y2="969.16255" stroke="black" stroke-width="4.758"/>
<line x1="389.159406" y1="969.16255" x2="211.210183" y2="1066.225764" stroke="black" stroke-width="4.758"/>
<line x1="2025.345003" y1="2258.352886" x2="2234.974574" y2="2258.352886" stroke="black" stroke-width="4.758"/>
<line x1="2234.974574" y1="2258.352886" x2="2234.974574" y2="1926.720257" stroke="black" stroke-width="4.758"/>
<line x1="2234.974574" y1="1926.720257" x2="2025.345003" y2="1926.720257" stroke="black" stroke-width="4.758"/>
<line x1="2025.345003" y1="1926.720257" x2="2025.345003" y2="2258.352886" stroke="black" stroke-width="4.758"/>
<line x1="2024.670949" y1="1986.036659" x2="2235.64862" y2="1986.036659" stroke="black" stroke-width="4.758"/>
<line x1="2235.64862" y1="1986.036659" x2="2026.019049" y2="2035.916364" stroke="black" stroke-width="4.758"/>
<line x1="2026.019049" y1="2035.916364" x2="2057.699402" y2="2082.425818" stroke="black" stroke-width="4.758"/>
<line x1="2057.699402" y1="2082.425818" x2="2235.64862" y2="1985.362609" stroke="black" stroke-width="4.758"/>
<line x1="2815.325991" y1="1450.582836" x2="2827.410136" y2="1479.051288" stroke="black" stroke-width="4.758"/>
<line x1="2827.410136" y1="1479.051288" x2="3020.557663" y2="1397.065027" stroke="black" stroke-width="4.758"/>
<line x1="3020.557663" y1="1397.065027" x2="3008.473518" y2="1368.596571" stroke="black" stroke-width="4.758"/>
<line x1="3008.473518" y1="1368.596571" x2="2815.325991" y2="1450.582836" stroke="black" stroke-width="4.758"/>
<line x1="2895.081331" y1="1638.474645" x2="2907.165476" y2="1666.943101" stroke="black" stroke-width="4.758"/>
<line x1="2907.165476" y1="1666.943101" x2="3100.313003" y2="1584.956841" stroke="black" stroke-width="4.758"/>
<line x1="3100.313003" y1="1584.956841" x2="3088.228862" y2="1556.488384" stroke="black" stroke-width="4.758"/>
<line x1="3088.228862" y1="1556.488384" x2="2895.081331" y2="1638.474645" stroke="black" stroke-width="4.758"/>
<line x1="2827.224226" y1="1478.613314" x2="2895.081331" y2="1638.474645" stroke="black" stroke-width="4.758"/>
<line x1="3019.30989" y1="1396.560895" x2="3053.809535" y2="1410.862524" stroke="black" stroke-width="4.758"/>
<line x1="3101.21656" y1="1522.546466" x2="3087.53882" y2="1557.298179" stroke="black" stroke-width="4.758"/>
<line x1="3053.065895" y1="1409.110615" x2="3101.9602" y2="1524.29837" stroke="black" stroke-width="4.758"/>
<line x1="2868.579898" y1="1461.57576" x2="2936.437012" y2="1621.437091" stroke="black" stroke-width="4.758"/>
<line x1="3596.441453" y1="814.47124" x2="3393.033285" y2="814.47124" stroke="black" stroke-width="4.758"/>
<line x1="3393.033285" y1="814.47124" x2="3393.033285" y2="610.646253" stroke="black" stroke-width="4.758"/>
<line x1="3393.033285" y1="610.646253" x2="3596.441453" y2="610.646253" stroke="black" stroke-width="4.758"/>
<line x1="3596.441453" y1="610.646253" x2="3596.441453" y2="814.47124" stroke="black" stroke-width="4.758"/>
<line x1="3596.858276" y1="814.888063" x2="3393.033285" y2="610.646253" stroke="black" stroke-width="4.758"/>
<line x1="3596.441453" y1="611.063076" x2="3393.450108" y2="814.47124" stroke="black" stroke-width="4.758"/>
<line x1="777.483095" y1="904.061226" x2="997.841944" y2="904.061226" stroke="black" stroke-width="4.757996"/>
<line x1="997.841944" y1="904.061226" x2="997.841944" y2="1124.871631" stroke="black" stroke-width="4.757996"/>
<line x1="997.841944" y1="1124.871631" x2="777.483095" y2="1124.871631" stroke="black" stroke-width="4.757996"/>
<line x1="777.483095" y1="1124.871631" x2="777.483095" y2="904.061226" stroke="black" stroke-width="4.757996"/>
<line x1="777.031543" y1="903.60967" x2="997.841944" y2="1124.871631" stroke="black" stroke-width="4.757996"/>
<line x1="777.483095" y1="1124.420075" x2="997.390388" y2="904.061226" stroke="black" stroke-width="4.757996"/>
<line x1="676.607136" y1="1747.938186" x2="676.607136" y2="1557.618167" stroke="black" stroke-width="4.758"/>
<line x1="676.607136" y1="1557.618167" x2="212.22629" y2="1557.618167" stroke="black" stroke-width="4.758"/>
<line x1="212.22629" y1="1557.618167" x2="212.22629" y2="1747.938186" stroke="black" stroke-width="4.758"/>
<line x1="212.22629" y1="1747.938186" x2="236.016292" y2="1747.938186" stroke="black" stroke-width="4.758"/>
<line x1="236.016292" y1="1747.938186" x2="236.016292" y2="1580.45657" stroke="black" stroke-width="4.758"/>
<line x1="236.016292" y1="1580.45657" x2="651.865534" y2="1580.45657" stroke="black" stroke-width="4.758"/>
<line x1="651.865534" y1="1580.45657" x2="651.865534" y2="1747.938186" stroke="black" stroke-width="4.758"/>
<line x1="651.865534" y1="1747.938186" x2="676.607136" y2="1747.938186" stroke="black" stroke-width="4.758"/>
<line x1="651.865534" y1="1742.228586" x2="236.016292" y2="1742.228586" stroke="black" stroke-width="4.758"/>
<line x1="444.416713" y1="1743.180186" x2="444.416713" y2="1581.40817" stroke="black" stroke-width="4.758"/>
<line x1="2894.538346" y1="1004.582722" x2="2881.468026" y2="1032.612107" stroke="black" stroke-width="4.758"/>
<line x1="2881.468026" y1="1032.612107" x2="3071.636617" y2="1121.289174" stroke="black" stroke-width="4.758"/>
<line x1="3071.636617" y1="1121.289174" x2="3084.706933" y2="1093.259789" stroke="black" stroke-width="4.758"/>
<line x1="3084.706933" y1="1093.259789" x2="2894.538346" y2="1004.582722" stroke="black" stroke-width="4.758"/>
<line x1="2808.274255" y1="1189.576658" x2="2795.20394" y2="1217.606039" stroke="black" stroke-width="4.758"/>
<line x1="2795.20394" y1="1217.606039" x2="2985.372527" y2="1306.283109" stroke="black" stroke-width="4.758"/>
<line x1="2985.372527" y1="1306.283109" x2="2998.442847" y2="1278.253724" stroke="black" stroke-width="4.758"/>
<line x1="2998.442847" y1="1278.253724" x2="2808.274255" y2="1189.576658" stroke="black" stroke-width="4.758"/>
<line x1="2881.669109" y1="1032.180887" x2="2808.274255" y2="1189.576658" stroke="black" stroke-width="4.758"/>
<line x1="3071.176338" y1="1120.024568" x2="3083.632929" y2="1155.232459" stroke="black" stroke-width="4.758"/>
<line x1="3032.357072" y1="1265.19389" x2="2997.379323" y2="1278.282783" stroke="black" stroke-width="4.758"/>
<line x1="3084.437251" y1="1153.507573" x2="3031.552745" y2="1266.918775" stroke="black" stroke-width="4.758"/>
<line x1="2922.002829" y1="1051.513793" x2="2848.607975" y2="1208.909564" stroke="black" stroke-width="4.758"/>
<line x1="1588.622541" y1="321.59638" x2="1588.622541" y2="131.276361" stroke="black" stroke-width="4.758"/>
<line x1="1588.622541" y1="131.276361" x2="1124.241694" y2="131.276361" stroke="black" stroke-width="4.758"/>
<line x1="1124.241694" y1="131.276361" x2="1124.241694" y2="321.59638" stroke="black" stroke-width="4.758"/>
<line x1="1124.241694" y1="321.59638" x2="1148.031696" y2="321.59638" stroke="black" stroke-width="4.758"/>
<line x1="1148.031696" y1="321.59638" x2="1148.031696" y2="154.114763" stroke="black" stroke-width="4.758"/>
<line x1="1148.031696" y1="154.114763" x2="1563.880938" y2="154.114763" stroke="black" stroke-width="4.758"/>
<line x1="1563.880938" y1="154.114763" x2="1563.880938" y2="321.59638" stroke="black" stroke-width="4.758"/>
<line x1="1563.880938" y1="321.59638" x2="1588.622541" y2="321.59638" stroke="black" stroke-width="4.758"/>
<line x1="1563.880938" y1="315.88678" x2="1148.031696" y2="315.88678" stroke="black" stroke-width="4.758"/>
<line x1="1356.432117" y1="316.83838" x2="1356.432117" y2="155.066364" stroke="black" stroke-width="4.758"/>
<line x1="983.956195" y1="1974.352173" x2="1216.146619" y2="1974.352173" stroke="black" stroke-width="4.758"/>
<line x1="1216.146619" y1="1974.352173" x2="1216.146619" y2="2207.018396" stroke="black" stroke-width="4.758"/>
<line x1="1216.146619" y1="2207.018396" x2="983.956195" y2="2207.018396" stroke="black" stroke-width="4.758"/>
<line x1="983.956195" y1="2207.018396" x2="983.956195" y2="1974.352173" stroke="black" stroke-width="4.758"/>
<line x1="983.480395" y1="1973.876373" x2="1216.146619" y2="2207.018396" stroke="black" stroke-width="4.758"/>
<line x1="983.956195" y1="2206.542596" x2="1215.670819" y2="1974.352173" stroke="black" stroke-width="4.758"/>
<line x1="373.832503" y1="1522.052933" x2="373.832503" y2="1161.21801" stroke="black" stroke-width="4.758005"/>
<line x1="373.832503" y1="1161.21801" x2="213.136786" y2="1161.21801" stroke="black" stroke-width="4.758005"/>
<line x1="213.136786" y1="1161.21801" x2="213.136786" y2="1522.052933" stroke="black" stroke-width="4.758005"/>
<line x1="213.136786" y1="1522.052933" x2="373.832503" y2="1522.052933" stroke="black" stroke-width="4.758005"/>
<line x1="237.971579" y1="1230.609341" x2="237.971579" y2="1492.835532" stroke="black" stroke-width="4.758005"/>
<line x1="237.971579" y1="1492.835532" x2="346.806404" y2="1492.835532" stroke="black" stroke-width="4.758005"/>
<line x1="346.806404" y1="1492.835532" x2="346.806404" y2="1225.496297" stroke="black" stroke-width="4.758005"/>
<path d="m 237.73601,1231.356907 a 58.434804782169536,58.434804782169536 0 0 1 110.09494500000002,-3.9600400000001628" fill="none" stroke="black" stroke-width="4.758005"/>
<line x1="619.394498" y1="130.465104" x2="839.753347" y2="130.465104" stroke="black" stroke-width="4.757996"/>
<line x1="839.753347" y1="130.465104" x2="839.753347" y2="351.27551" stroke="black" stroke-width="4.757996"/>
<line x1="839.753347" y1="351.27551" x2="619.394498" y2="351.27551" stroke="black" stroke-width="4.757996"/>
<line x1="619.394498" y1="351.27551" x2="619.394498" y2="130.465104" stroke="black" stroke-width="4.757996"/>
<line x1="618.942946" y1="130.013548" x2="839.753347" y2="351.27551" stroke="black" stroke-width="4.757996"/>
<line x1="619.394498" y1="350.823953" x2="839.301791" y2="130.465104" stroke="black" stroke-width="4.757996"/>
<line x1="584.946561" y1="550.401086" x2="613.819403" y2="561.484332" stroke="black" stroke-width="4.758"/>
<line x1="613.819403" y1="561.484332" x2="689.014971" y2="365.593188" stroke="black" stroke-width="4.758"/>
<line x1="689.014971" y1="365.593188" x2="660.142124" y2="354.509941" stroke="black" stroke-width="4.758"/>
<line x1="660.142124" y1="354.509941" x2="584.946561" y2="550.401086" stroke="black" stroke-width="4.758"/>
<line x1="775.507335" y1="623.550514" x2="804.380177" y2="634.633761" stroke="black" stroke-width="4.758"/>
<line x1="804.380177" y1="634.633761" x2="879.575745" y2="438.742617" stroke="black" stroke-width="4.758"/>
<line x1="879.575745" y1="438.742617" x2="850.702898" y2="427.65937" stroke="black" stroke-width="4.758"/>
<line x1="850.702898" y1="427.65937" x2="775.507335" y2="623.550514" stroke="black" stroke-width="4.758"/>
<line x1="613.375204" y1="561.313824" x2="775.507335" y2="623.550514" stroke="black" stroke-width="4.758"/>
<line x1="687.785547" y1="366.140561" x2="722.03875" y2="351.258337" stroke="black" stroke-width="4.758"/>
<line x1="835.309137" y1="394.738765" x2="850.806072" y2="428.718272" stroke="black" stroke-width="4.758"/>
<line x1="720.261958" y1="350.576286" x2="837.085933" y2="395.420811" stroke="black" stroke-width="4.758"/>
<line x1="629.847481" y1="519.729759" x2="791.979612" y2="581.966449" stroke="black" stroke-width="4.758"/>
<line x1="429.340922" y1="2298.092222" x2="210.279051" y2="2298.092222" stroke="black" stroke-width="4.758"/>
<line x1="210.279051" y1="2298.092222" x2="210.279051" y2="2644.646694" stroke="black" stroke-width="4.758"/>
<line x1="210.279051" y1="2644.646694" x2="429.340922" y2="2644.646694" stroke="black" stroke-width="4.758"/>
<line x1="429.340922" y1="2644.646694" x2="429.340922" y2="2298.092222" stroke="black" stroke-width="4.758"/>
<line x1="430.0453" y1="2582.66134" x2="209.574674" y2="2582.66134" stroke="black" stroke-width="4.758"/>
<line x1="209.574674" y1="2582.66134" x2="428.636544" y2="2530.537295" stroke="black" stroke-width="4.758"/>
<line x1="428.636544" y1="2530.537295" x2="395.53073" y2="2481.935144" stroke="black" stroke-width="4.758"/>
<line x1="395.53073" y1="2481.935144" x2="209.574674" y2="2583.365718" stroke="black" stroke-width="4.758"/>
<line x1="566.835259" y1="2507.863361" x2="566.835259" y2="2643.468802" stroke="black" stroke-width="4.758"/>
<line x1="566.835259" y1="2643.468802" x2="430.951933" y2="2643.468802" stroke="black" stroke-width="4.758"/>
<line x1="430.951933" y1="2643.468802" x2="430.951933" y2="2507.863361" stroke="black" stroke-width="4.758"/>
<line x1="430.951933" y1="2507.863361" x2="566.835259" y2="2507.863361" stroke="black" stroke-width="4.758"/>
<line x1="567.113139" y1="2507.585481" x2="430.951933" y2="2643.468802" stroke="black" stroke-width="4.758"/>
<line x1="431.229813" y1="2507.863361" x2="566.835259" y2="2643.190926" stroke="black" stroke-width="4.758"/>
<line x1="1217.492208" y1="2297.808777" x2="998.430337" y2="2297.808777" stroke="black" stroke-width="4.758"/>
<line x1="998.430337" y1="2297.808777" x2="998.430337" y2="2644.363249" stroke="black" stroke-width="4.758"/>
<line x1="998.430337" y1="2644.363249" x2="1217.492208" y2="2644.363249" stroke="black" stroke-width="4.758"/>
<line x1="1217.492208" y1="2644.363249" x2="1217.492208" y2="2297.808777" stroke="black" stroke-width="4.758"/>
<line x1="1218.196586" y1="2582.377895" x2="997.725959" y2="2582.377895" stroke="black" stroke-width="4.758"/>
<line x1="997.725959" y1="2582.377895" x2="1216.78783" y2="2530.25385" stroke="black" stroke-width="4.758"/>
<line x1="1216.78783" y1="2530.25385" x2="1183.682015" y2="2481.651699" stroke="black" stroke-width="4.758"/>
<line x1="1183.682015" y1="2481.651699" x2="997.725959" y2="2583.082273" stroke="black" stroke-width="4.758"/>
<line x1="927.865344" y1="2643.613331" x2="859.30902" y2="2575.057011" stroke="black" stroke-width="4.758005"/>
<line x1="859.30902" y1="2575.057011" x2="928.005828" y2="2506.360203" stroke="black" stroke-width="4.758005"/>
<line x1="928.005828" y1="2506.360203" x2="996.562152" y2="2574.916527" stroke="black" stroke-width="4.758005"/>
<line x1="996.562152" y1="2574.916527" x2="927.865344" y2="2643.613331" stroke="black" stroke-width="4.758005"/>
<line x1="927.865344" y1="2643.8943" x2="928.005828" y2="2506.360203" stroke="black" stroke-width="4.758005"/>
<line x1="996.421668" y1="2575.057011" x2="859.449504" y2="2575.197496" stroke="black" stroke-width="4.758005"/>
<line x1="1661.943566" y1="2607.239065" x2="1882.302415" y2="2607.239065" stroke="black" stroke-width="4.757996"/>
<line x1="1882.302415" y1="2607.239065" x2="1882.302415" y2="2828.04947" stroke="black" stroke-width="4.757996"/>
<line x1="1882.302415" y1="2828.04947" x2="1661.943566" y2="2828.04947" stroke="black" stroke-width="4.757996"/>
<line x1="1661.943566" y1="2828.04947" x2="1661.943566" y2="2607.239065" stroke="black" stroke-width="4.757996"/>
<line x1="1661.492014" y1="2606.787508" x2="1882.302415" y2="2828.04947" stroke="black" stroke-width="4.757996"/>
<line x1="1661.943566" y1="2827.597914" x2="1881.850859" y2="2607.239065" stroke="black" stroke-width="4.757996"/>
<line x1="1860.670769" y1="2331.923993" x2="1830.662431" y2="2339.405909" stroke="black" stroke-width="4.758"/>
<line x1="1830.662431" y1="2339.405909" x2="1881.424375" y2="2543.000948" stroke="black" stroke-width="4.758"/>
<line x1="1881.424375" y1="2543.000948" x2="1911.432714" y2="2535.519027" stroke="black" stroke-width="4.758"/>
<line x1="1911.432714" y1="2535.519027" x2="1860.670769" y2="2331.923993" stroke="black" stroke-width="4.758"/>
<line x1="1662.615731" y1="2381.304659" x2="1632.607396" y2="2388.786579" stroke="black" stroke-width="4.758"/>
<line x1="1632.607396" y1="2388.786579" x2="1683.369336" y2="2592.381613" stroke="black" stroke-width="4.758"/>
<line x1="1683.369336" y1="2592.381613" x2="1713.377675" y2="2584.899697" stroke="black" stroke-width="4.758"/>
<line x1="1713.377675" y1="2584.899697" x2="1662.615731" y2="2381.304659" stroke="black" stroke-width="4.758"/>
<line x1="1831.124098" y1="2339.290805" x2="1662.615731" y2="2381.304659" stroke="black" stroke-width="4.758"/>
<line x1="1882.117496" y1="2541.847401" x2="1862.595011" y2="2573.685033" stroke="black" stroke-width="4.758"/>
<line x1="1744.86999" y1="2603.037178" x2="1712.685795" y2="2584.091467" stroke="black" stroke-width="4.758"/>
<line x1="1864.441679" y1="2573.224608" x2="1743.023322" y2="2603.497602" stroke="black" stroke-width="4.758"/>
<line x1="1841.482436" y1="2382.802583" x2="1672.974074" y2="2424.816436" stroke="black" stroke-width="4.758"/>
<line x1="2976.846071" y1="2474.847604" x2="3146.352878" y2="2474.847604" stroke="black" stroke-width="4.758005"/>
<line x1="3146.352878" y1="2474.847604" x2="3146.352878" y2="2644.701759" stroke="black" stroke-width="4.758005"/>
<line x1="3146.352878" y1="2644.701759" x2="2976.846071" y2="2644.701759" stroke="black" stroke-width="4.758005"/>
<line x1="2976.846071" y1="2644.701759" x2="2976.846071" y2="2474.847604" stroke="black" stroke-width="4.758005"/>
<line x1="2976.498719" y1="2474.500253" x2="3146.352878" y2="2644.701759" stroke="black" stroke-width="4.758005"/>
<line x1="2976.846071" y1="2644.354411" x2="3146.005526" y2="2474.847604" stroke="black" stroke-width="4.758005"/>
<line x1="3434.14941" y1="2338.590075" x2="3603.656217" y2="2338.590075" stroke="black" stroke-width="4.758005"/>
<line x1="3603.656217" y1="2338.590075" x2="3603.656217" y2="2508.444229" stroke="black" stroke-width="4.758005"/>
<line x1="3603.656217" y1="2508.444229" x2="3434.14941" y2="2508.444229" stroke="black" stroke-width="4.758005"/>
<line x1="3434.14941" y1="2508.444229" x2="3434.14941" y2="2338.590075" stroke="black" stroke-width="4.758005"/>
<line x1="3433.802058" y1="2338.242723" x2="3603.656217" y2="2508.444229" stroke="black" stroke-width="4.758005"/>
<line x1="3434.14941" y1="2508.096882" x2="3603.308865" y2="2338.590075" stroke="black" stroke-width="4.758005"/>
<line x1="3266.406297" y1="2337.896583" x2="3435.913104" y2="2337.896583" stroke="black" stroke-width="4.758005"/>
<line x1="3435.913104" y1="2337.896583" x2="3435.913104" y2="2507.750737" stroke="black" stroke-width="4.758005"/>
<line x1="3435.913104" y1="2507.750737" x2="3266.406297" y2="2507.750737" stroke="black" stroke-width="4.758005"/>
<line x1="3266.406297" y1="2507.750737" x2="3266.406297" y2="2337.896583" stroke="black" stroke-width="4.758005"/>
<line x1="3266.058945" y1="2337.549231" x2="3435.913104" y2="2507.750737" stroke="black" stroke-width="4.758005"/>
<line x1="3266.406297" y1="2507.40339" x2="3435.565752" y2="2337.896583" stroke="black" stroke-width="4.758005"/>
</g>
</svg>
