<?xml version="1.0"?>
<svg xmlns:xlink="http://www.w3.org/1999/xlink" width="5498.133887999999" height="2960.5336319999997">
<image x="0" y="0" width="5498.133887999999" height="2960.5336319999997" xlink:href="ground16-07.png"/>
<g style="stroke-linecap:round">
<line x1="1294.244566" y1="1161.032193" x2="1316.799022" y2="1161.032193" stroke="black" stroke-width="4.758"/>
<line x1="1316.799022" y1="1161.032193" x2="1316.799022" y2="1117.023503" stroke="black" stroke-width="4.758"/>
<line x1="1316.799022" y1="1117.023503" x2="1294.244566" y2="1117.023503" stroke="black" stroke-width="4.758"/>
<line x1="1294.244566" y1="1117.023503" x2="1294.244566" y2="1161.032193" stroke="black" stroke-width="4.758"/>
<line x1="1537.39259" y1="1117.023503" x2="1537.39259" y2="897.530148" stroke="black" stroke-width="4.758"/>
<line x1="1537.942699" y1="1162.13241" x2="1560.497154" y2="1162.13241" stroke="black" stroke-width="4.758"/>
<line x1="1560.497154" y1="1162.13241" x2="1560.497154" y2="1118.12372" stroke="black" stroke-width="4.758"/>
<line x1="1560.497154" y1="1118.12372" x2="1537.942699" y2="1118.12372" stroke="black" stroke-width="4.758"/>
<line x1="1537.942699" y1="1118.12372" x2="1537.942699" y2="1162.13241" stroke="black" stroke-width="4.758"/>
<path d="m 1316.799022,1118.673829 a 220.59357050000006,220.59357050000006 0 0 1 220.593568,-220.5935730000001" fill="none" stroke="black" stroke-width="4.758"/>
<line x1="1546.852786" y1="1890.830668" x2="1524.29833" y2="1890.830668" stroke="black" stroke-width="4.758"/>
<line x1="1524.29833" y1="1890.830668" x2="1524.29833" y2="1934.839358" stroke="black" stroke-width="4.758"/>
<line x1="1524.29833" y1="1934.839358" x2="1546.852786" y2="1934.839358" stroke="black" stroke-width="4.758"/>
<line x1="1546.852786" y1="1934.839358" x2="1546.852786" y2="1890.830668" stroke="black" stroke-width="4.758"/>
<line x1="1303.704762" y1="1934.839358" x2="1303.704762" y2="2154.332713" stroke="black" stroke-width="4.758"/>
<line x1="1303.154654" y1="1889.730451" x2="1280.600198" y2="1889.730451" stroke="black" stroke-width="4.758"/>
<line x1="1280.600198" y1="1889.730451" x2="1280.600198" y2="1933.739141" stroke="black" stroke-width="4.758"/>
<line x1="1280.600198" y1="1933.739141" x2="1303.154654" y2="1933.739141" stroke="black" stroke-width="4.758"/>
<line x1="1303.154654" y1="1933.739141" x2="1303.154654" y2="1889.730451" stroke="black" stroke-width="4.758"/>
<path d="m 1524.29833,1933.189032 a 220.59357049999994,220.59357049999994 0 0 1 -220.593568,220.59357299999988" fill="none" stroke="black" stroke-width="4.758"/>
<line x1="4403.66499" y1="112.016592" x2="4618.148673" y2="112.016592" stroke="black" stroke-width="4.758"/>
<line x1="4618.148673" y1="112.016592" x2="4618.148673" y2="73.653658" stroke="black" stroke-width="4.758"/>
<line x1="4618.148673" y1="73.653658" x2="4403.66499" y2="73.653658" stroke="black" stroke-width="4.758"/>
<line x1="4403.66499" y1="73.653658" x2="4403.66499" y2="112.016592" stroke="black" stroke-width="4.758"/>
<line x1="4413.691665" y1="112.016592" x2="4413.691665" y2="125.094868" stroke="black" stroke-width="4.758"/>
<line x1="4413.691665" y1="125.094868" x2="4607.686055" y2="125.094868" stroke="black" stroke-width="4.758"/>
<line x1="4607.686055" y1="112.016592" x2="4607.686055" y2="125.094868" stroke="black" stroke-width="4.758"/>
<line x1="2442.739291" y1="114.132448" x2="2657.237786" y2="114.132448" stroke="black" stroke-width="4.758"/>
<line x1="2657.237786" y1="114.132448" x2="2657.237786" y2="81.065746" stroke="black" stroke-width="4.758"/>
<line x1="2657.237786" y1="81.065746" x2="2442.739291" y2="81.065746" stroke="black" stroke-width="4.758"/>
<line x1="2442.739291" y1="81.065746" x2="2442.739291" y2="114.132448" stroke="black" stroke-width="4.758"/>
<line x1="2462.753349" y1="81.500834" x2="2462.753349" y2="113.69736" stroke="black" stroke-width="4.758"/>
<line x1="2636.78864" y1="81.500834" x2="2636.78864" y2="115.002625" stroke="black" stroke-width="4.758"/>
<line x1="2462.31826" y1="96.728921" x2="2636.353552" y2="96.728921" stroke="black" stroke-width="4.758"/>
<line x1="1253.916155" y1="1507.813934" x2="1253.916155" y2="1485.259478" stroke="black" stroke-width="4.758"/>
<line x1="1253.916155" y1="1485.259478" x2="1209.907466" y2="1485.259478" stroke="black" stroke-width="4.758"/>
<line x1="1209.907466" y1="1485.259478" x2="1209.907466" y2="1507.813934" stroke="black" stroke-width="4.758"/>
<line x1="1209.907466" y1="1507.813934" x2="1253.916155" y2="1507.813934" stroke="black" stroke-width="4.758"/>
<line x1="1209.907466" y1="1264.66591" x2="990.414111" y2="1264.66591" stroke="black" stroke-width="4.758"/>
<line x1="1255.016372" y1="1264.115802" x2="1255.016372" y2="1241.561346" stroke="black" stroke-width="4.758"/>
<line x1="1255.016372" y1="1241.561346" x2="1211.007683" y2="1241.561346" stroke="black" stroke-width="4.758"/>
<line x1="1211.007683" y1="1241.561346" x2="1211.007683" y2="1264.115802" stroke="black" stroke-width="4.758"/>
<line x1="1211.007683" y1="1264.115802" x2="1255.016372" y2="1264.115802" stroke="black" stroke-width="4.758"/>
<path d="m 1211.557792,1485.259478 a 220.59357050000006,220.59357050000006 0 0 1 -220.5935730000001,-220.593568" fill="none" stroke="black" stroke-width="4.758"/>
<line x1="1253.394872" y1="1837.912218" x2="1253.394872" y2="1815.357762" stroke="black" stroke-width="4.758"/>
<line x1="1253.394872" y1="1815.357762" x2="1209.386183" y2="1815.357762" stroke="black" stroke-width="4.758"/>
<line x1="1209.386183" y1="1815.357762" x2="1209.386183" y2="1837.912218" stroke="black" stroke-width="4.758"/>
<line x1="1209.386183" y1="1837.912218" x2="1253.394872" y2="1837.912218" stroke="black" stroke-width="4.758"/>
<line x1="1209.386183" y1="1594.764194" x2="989.892827" y2="1594.764194" stroke="black" stroke-width="4.758"/>
<line x1="1254.495089" y1="1594.214086" x2="1254.495089" y2="1571.65963" stroke="black" stroke-width="4.758"/>
<line x1="1254.495089" y1="1571.65963" x2="1210.4864" y2="1571.65963" stroke="black" stroke-width="4.758"/>
<line x1="1210.4864" y1="1571.65963" x2="1210.4864" y2="1594.214086" stroke="black" stroke-width="4.758"/>
<line x1="1210.4864" y1="1594.214086" x2="1254.495089" y2="1594.214086" stroke="black" stroke-width="4.758"/>
<path d="m 1211.036509,1815.357762 a 220.5935705,220.5935705 0 0 1 -220.593573,-220.593568" fill="none" stroke="black" stroke-width="4.758"/>
<line x1="2469.579154" y1="1558.52728" x2="2492.277729" y2="1558.52728" stroke="black" stroke-width="4.758"/>
<line x1="2492.277729" y1="1558.52728" x2="2492.277729" y2="1514.237384" stroke="black" stroke-width="4.758"/>
<line x1="2492.277729" y1="1514.237384" x2="2469.579154" y2="1514.237384" stroke="black" stroke-width="4.758"/>
<line x1="2469.579154" y1="1514.237384" x2="2469.579154" y2="1558.52728" stroke="black" stroke-width="4.758"/>
<line x1="2714.280841" y1="1514.237384" x2="2714.280841" y2="1293.341516" stroke="black" stroke-width="4.758"/>
<line x1="2714.834465" y1="1559.634529" x2="2737.53304" y2="1559.634529" stroke="black" stroke-width="4.758"/>
<line x1="2737.53304" y1="1559.634529" x2="2737.53304" y2="1515.344628" stroke="black" stroke-width="4.758"/>
<line x1="2737.53304" y1="1515.344628" x2="2714.834465" y2="1515.344628" stroke="black" stroke-width="4.758"/>
<line x1="2714.834465" y1="1515.344628" x2="2714.834465" y2="1559.634529" stroke="black" stroke-width="4.758"/>
<path d="m 2492.277729,1515.898252 a 222.00311199999987,222.00311199999987 0 0 1 222.00311199999987,-222.00311199999987" fill="none" stroke="black" stroke-width="4.758"/>
<line x1="194.941386" y1="532.266526" x2="194.941386" y2="311.809742" stroke="black" stroke-width="4.758005"/>
<line x1="194.941386" y1="311.809742" x2="160.95616" y2="311.809742" stroke="black" stroke-width="4.758005"/>
<line x1="160.95616" y1="311.809742" x2="160.95616" y2="532.266526" stroke="black" stroke-width="4.758005"/>
<line x1="160.95616" y1="532.266526" x2="194.941386" y2="532.266526" stroke="black" stroke-width="4.758005"/>
<line x1="161.403333" y1="511.696523" x2="194.494209" y2="511.696523" stroke="black" stroke-width="4.758005"/>
<line x1="161.403333" y1="332.826918" x2="195.835731" y2="332.826918" stroke="black" stroke-width="4.758005"/>
<line x1="177.054423" y1="512.143695" x2="177.054423" y2="333.274095" stroke="black" stroke-width="4.758005"/>
<line x1="196.592134" y1="2237.226342" x2="196.592134" y2="2016.769557" stroke="black" stroke-width="4.758005"/>
<line x1="196.592134" y1="2016.769557" x2="162.606909" y2="2016.769557" stroke="black" stroke-width="4.758005"/>
<line x1="162.606909" y1="2016.769557" x2="162.606909" y2="2237.226342" stroke="black" stroke-width="4.758005"/>
<line x1="162.606909" y1="2237.226342" x2="196.592134" y2="2237.226342" stroke="black" stroke-width="4.758005"/>
<line x1="163.054082" y1="2216.656338" x2="196.144957" y2="2216.656338" stroke="black" stroke-width="4.758005"/>
<line x1="163.054082" y1="2037.786734" x2="197.48648" y2="2037.786734" stroke="black" stroke-width="4.758005"/>
<line x1="178.705172" y1="2217.103511" x2="178.705172" y2="2038.233911" stroke="black" stroke-width="4.758005"/>
<line x1="2630.64014" y1="2277.391122" x2="2605.995975" y2="2277.391122" stroke="black" stroke-width="4.758"/>
<line x1="2605.995975" y1="2277.391122" x2="2605.995975" y2="2325.477299" stroke="black" stroke-width="4.758"/>
<line x1="2605.995975" y1="2325.477299" x2="2630.64014" y2="2325.477299" stroke="black" stroke-width="4.758"/>
<line x1="2630.64014" y1="2325.477299" x2="2630.64014" y2="2277.391122" stroke="black" stroke-width="4.758"/>
<line x1="2364.964024" y1="2325.477299" x2="2364.964024" y2="2565.307097" stroke="black" stroke-width="4.758"/>
<line x1="2364.362948" y1="2276.188969" x2="2339.718783" y2="2276.188969" stroke="black" stroke-width="4.758"/>
<line x1="2339.718783" y1="2276.188969" x2="2339.718783" y2="2324.275141" stroke="black" stroke-width="4.758"/>
<line x1="2339.718783" y1="2324.275141" x2="2364.362948" y2="2324.275141" stroke="black" stroke-width="4.758"/>
<line x1="2364.362948" y1="2324.275141" x2="2364.362948" y2="2276.188969" stroke="black" stroke-width="4.758"/>
<path d="m 2605.995975,2323.674065 a 241.03195099999994,241.03195099999994 0 0 1 -241.03195099999994,241.03195099999994" fill="none" stroke="black" stroke-width="4.758"/>
<line x1="568.88256" y1="1213.185645" x2="374.921777" y2="1213.185645" stroke="black" stroke-width="4.757996"/>
<line x1="374.921777" y1="1213.185645" x2="374.921777" y2="1161.3513" stroke="black" stroke-width="4.757996"/>
<line x1="568.88256" y1="1161.3513" x2="374.921777" y2="1161.3513" stroke="black" stroke-width="4.757996"/>
<line x1="568.88256" y1="1213.185645" x2="568.88256" y2="1161.3513" stroke="black" stroke-width="4.757996"/>
<line x1="524.99057" y1="1242.446969" x2="524.99057" y2="1213.185645" stroke="black" stroke-width="4.757996"/>
<line x1="420.485839" y1="1213.185645" x2="420.485839" y2="1244.119045" stroke="black" stroke-width="4.757996"/>
<circle cx="473.574242" cy="1290.101128" r="70.2271798019802" fill="none" stroke="black" stroke-width="4.757996"/>
<circle cx="473.574242" cy="1290.101128" r="60.19472554455446" fill="none" stroke="black" stroke-width="4.757996"/>
<line x1="863.33509" y1="1185.323243" x2="844.699588" y2="1160.740241" stroke="black" stroke-width="4.758"/>
<line x1="844.699588" y1="1160.740241" x2="697.201573" y2="1160.740241" stroke="black" stroke-width="4.758"/>
<line x1="697.201573" y1="1160.740241" x2="678.169571" y2="1188.891744" stroke="black" stroke-width="4.758"/>
<line x1="841.527588" y1="1188.098743" x2="698.391073" y2="1188.098743" stroke="black" stroke-width="4.758"/>
<circle cx="772.140081" cy="1209.906246" r="13.084501320000001" fill="none" stroke="black" stroke-width="4.758"/>
<path d="m 839.972378,1187.430553 a 74.93850864961598,74.93850864961598 0 1 1 -139.78529200000003,0.4025530000001254" fill="none" stroke="black" stroke-width="4.758"/>
<path d="m 863.288735,1184.665049 a 95.55651022076711,95.55651022076711 0 1 1 -184.699931,3.078845000000001" fill="none" stroke="black" stroke-width="4.758"/>
<line x1="1725.087087" y1="1314.833941" x2="1829.926932" y2="1416.076601" stroke="black" stroke-width="4.758005"/>
<line x1="1829.926932" y1="1416.076601" x2="1728.476806" y2="1521.131282" stroke="black" stroke-width="4.758005"/>
<line x1="1728.476806" y1="1521.131282" x2="1623.636966" y2="1419.888623" stroke="black" stroke-width="4.758005"/>
<line x1="1623.636966" y1="1419.888623" x2="1725.087087" y2="1314.833941" stroke="black" stroke-width="4.758005"/>
<line x1="1725.079717" y1="1314.411642" x2="1728.476806" y2="1521.131282" stroke="black" stroke-width="4.758005"/>
<line x1="1623.844428" y1="1419.673786" x2="1829.712099" y2="1415.869139" stroke="black" stroke-width="4.758005"/>
<line x1="1760.572264" y1="748.486109" x2="1760.572264" y2="1142.226539" stroke="black" stroke-width="4.758"/>
<line x1="1761.569801" y1="1146.18694" x2="1625.329206" y2="1146.18694" stroke="black" stroke-width="4.758"/>
<line x1="1624.17625" y1="748.951084" x2="1624.17625" y2="1146.492664" stroke="black" stroke-width="4.758"/>
<line x1="1759.876635" y1="749.6869" x2="1624.441777" y2="749.6869" stroke="black" stroke-width="4.758"/>
<line x1="1749.470263" y1="759.995901" x2="1749.470263" y2="883.703914" stroke="black" stroke-width="4.758"/>
<line x1="1749.470263" y1="883.703914" x2="1635.278251" y2="883.703914" stroke="black" stroke-width="4.758"/>
<line x1="1635.278251" y1="759.995901" x2="1635.278251" y2="883.703914" stroke="black" stroke-width="4.758"/>
<line x1="1749.470263" y1="759.995901" x2="1635.278251" y2="759.995901" stroke="black" stroke-width="4.758"/>
<line x1="1742.333262" y1="902.735916" x2="1742.333262" y2="989.965924" stroke="black" stroke-width="4.758"/>
<line x1="1722.50826" y1="902.735916" x2="1722.50826" y2="989.965924" stroke="black" stroke-width="4.758"/>
<line x1="1701.890258" y1="903.528916" x2="1701.890258" y2="989.965924" stroke="black" stroke-width="4.758"/>
<line x1="1682.065256" y1="903.528916" x2="1682.065256" y2="989.965924" stroke="black" stroke-width="4.758"/>
<line x1="1662.240254" y1="902.735916" x2="1662.240254" y2="989.965924" stroke="black" stroke-width="4.758"/>
<line x1="1642.415252" y1="902.735916" x2="1642.415252" y2="989.965924" stroke="black" stroke-width="4.758"/>
<line x1="1636.071251" y1="807.575906" x2="1649.552253" y2="807.575906" stroke="black" stroke-width="4.758"/>
<line x1="1649.552253" y1="807.575906" x2="1649.552253" y2="837.709909" stroke="black" stroke-width="4.758"/>
<line x1="1649.552253" y1="837.709909" x2="1636.864251" y2="837.709909" stroke="black" stroke-width="4.758"/>
<line x1="1749.470263" y1="1010.583927" x2="1749.470263" y2="1134.291939" stroke="black" stroke-width="4.758"/>
<line x1="1749.470263" y1="1134.291939" x2="1635.278251" y2="1134.291939" stroke="black" stroke-width="4.758"/>
<line x1="1635.278251" y1="1010.583927" x2="1635.278251" y2="1134.291939" stroke="black" stroke-width="4.758"/>
<line x1="1749.470263" y1="1010.583927" x2="1635.278251" y2="1010.583927" stroke="black" stroke-width="4.758"/>
<line x1="1635.278251" y1="1058.163931" x2="1648.759252" y2="1058.163931" stroke="black" stroke-width="4.758"/>
<line x1="1648.759252" y1="1058.163931" x2="1648.759252" y2="1088.297934" stroke="black" stroke-width="4.758"/>
<line x1="1648.759252" y1="1088.297934" x2="1636.071251" y2="1088.297934" stroke="black" stroke-width="4.758"/>
<circle cx="1735.196261" cy="869.429912" r="7.1370007200000005" fill="none" stroke="black" stroke-width="4.758"/>
<circle cx="1734.403261" cy="1120.017938" r="7.1370007200000005" fill="none" stroke="black" stroke-width="4.758"/>
<line x1="1945.898272" y1="540.022552" x2="1945.898272" y2="407.750138" stroke="black" stroke-width="4.758"/>
<line x1="1945.898272" y1="407.750138" x2="1960.172274" y2="407.750138" stroke="black" stroke-width="4.758"/>
<line x1="1960.172274" y1="540.022552" x2="1960.172274" y2="407.750138" stroke="black" stroke-width="4.758"/>
<line x1="1945.898272" y1="540.022552" x2="1960.172274" y2="540.022552" stroke="black" stroke-width="4.758"/>
<line x1="1960.172274" y1="526.70015" x2="1991.575077" y2="528.60335" stroke="black" stroke-width="4.758"/>
<line x1="1960.172274" y1="421.07254" x2="1992.526677" y2="419.169339" stroke="black" stroke-width="4.758"/>
<line x1="2407.424319" y1="540.022552" x2="2407.424319" y2="407.750138" stroke="black" stroke-width="4.758"/>
<line x1="2407.424319" y1="407.750138" x2="2394.101918" y2="407.750138" stroke="black" stroke-width="4.758"/>
<line x1="2394.101918" y1="540.022552" x2="2394.101918" y2="407.750138" stroke="black" stroke-width="4.758"/>
<line x1="2407.424319" y1="540.022552" x2="2394.101918" y2="540.022552" stroke="black" stroke-width="4.758"/>
<line x1="2392.198717" y1="527.65175" x2="2360.795914" y2="529.554951" stroke="black" stroke-width="4.758"/>
<line x1="2392.198717" y1="422.02414" x2="2359.844314" y2="419.169339" stroke="black" stroke-width="4.758"/>
<line x1="2110.525089" y1="244.074922" x2="2110.525089" y2="258.348923" stroke="black" stroke-width="4.758"/>
<line x1="2110.525089" y1="258.348923" x2="2242.797502" y2="258.348923" stroke="black" stroke-width="4.758"/>
<line x1="2242.797502" y1="244.074922" x2="2242.797502" y2="258.348923" stroke="black" stroke-width="4.758"/>
<line x1="2110.525089" y1="244.074922" x2="2242.797502" y2="244.074922" stroke="black" stroke-width="4.758"/>
<line x1="2228.523501" y1="258.348923" x2="2231.378301" y2="290.703326" stroke="black" stroke-width="4.758"/>
<line x1="2123.84749" y1="258.348923" x2="2121.94429" y2="290.703326" stroke="black" stroke-width="4.758"/>
<line x1="2109.573489" y1="704.649368" x2="2109.573489" y2="690.375367" stroke="black" stroke-width="4.758"/>
<line x1="2109.573489" y1="690.375367" x2="2241.845902" y2="690.375367" stroke="black" stroke-width="4.758"/>
<line x1="2241.845902" y1="704.649368" x2="2241.845902" y2="690.375367" stroke="black" stroke-width="4.758"/>
<line x1="2109.573489" y1="704.649368" x2="2241.845902" y2="704.649368" stroke="black" stroke-width="4.758"/>
<line x1="2227.571901" y1="690.375367" x2="2230.426701" y2="658.020964" stroke="black" stroke-width="4.758"/>
<line x1="2122.89589" y1="690.375367" x2="2120.99269" y2="658.020964" stroke="black" stroke-width="4.758"/>
<circle cx="2176.185496" cy="474.362145" r="192.22321939199998" fill="none" stroke="black" stroke-width="4.758"/>
<line x1="1878.886453" y1="2846.549827" x2="1664.387958" y2="2846.549827" stroke="black" stroke-width="4.758"/>
<line x1="1664.387958" y1="2846.549827" x2="1664.387958" y2="2879.616529" stroke="black" stroke-width="4.758"/>
<line x1="1664.387958" y1="2879.616529" x2="1878.886453" y2="2879.616529" stroke="black" stroke-width="4.758"/>
<line x1="1878.886453" y1="2879.616529" x2="1878.886453" y2="2846.549827" stroke="black" stroke-width="4.758"/>
<line x1="1858.872395" y1="2879.181441" x2="1858.872395" y2="2846.984915" stroke="black" stroke-width="4.758"/>
<line x1="1684.837104" y1="2879.181441" x2="1684.837104" y2="2845.67965" stroke="black" stroke-width="4.758"/>
<line x1="1859.307483" y1="2863.953355" x2="1685.272192" y2="2863.953355" stroke="black" stroke-width="4.758"/>
<line x1="3594.392962" y1="1099.985015" x2="3594.392962" y2="909.664996" stroke="black" stroke-width="4.758"/>
<line x1="3594.392962" y1="909.664996" x2="3130.012116" y2="909.664996" stroke="black" stroke-width="4.758"/>
<line x1="3130.012116" y1="909.664996" x2="3130.012116" y2="1099.985015" stroke="black" stroke-width="4.758"/>
<line x1="3130.012116" y1="1099.985015" x2="3153.802118" y2="1099.985015" stroke="black" stroke-width="4.758"/>
<line x1="3153.802118" y1="1099.985015" x2="3153.802118" y2="932.503398" stroke="black" stroke-width="4.758"/>
<line x1="3153.802118" y1="932.503398" x2="3569.65136" y2="932.503398" stroke="black" stroke-width="4.758"/>
<line x1="3569.65136" y1="932.503398" x2="3569.65136" y2="1099.985015" stroke="black" stroke-width="4.758"/>
<line x1="3569.65136" y1="1099.985015" x2="3594.392962" y2="1099.985015" stroke="black" stroke-width="4.758"/>
<line x1="3569.65136" y1="1094.275415" x2="3153.802118" y2="1094.275415" stroke="black" stroke-width="4.758"/>
<line x1="3362.202539" y1="1095.227015" x2="3362.202539" y2="933.454999" stroke="black" stroke-width="4.758"/>
<line x1="3266.918702" y1="1492.226257" x2="3241.69956" y2="1312.782741" stroke="black" stroke-width="4.758"/>
<line x1="3241.69956" y1="1312.782741" x2="3421.51079" y2="1287.511916" stroke="black" stroke-width="4.758"/>
<line x1="3421.51079" y1="1287.511916" x2="3446.729933" y2="1466.955437" stroke="black" stroke-width="4.758"/>
<line x1="3446.729933" y1="1466.955437" x2="3266.918702" y2="1492.226257" stroke="black" stroke-width="4.758"/>
<line x1="3266.60267" y1="1492.645649" x2="3421.51079" y2="1287.511916" stroke="black" stroke-width="4.758"/>
<line x1="3446.362219" y1="1467.007115" x2="3241.751237" y2="1313.150451" stroke="black" stroke-width="4.758"/>
<line x1="421.513809" y1="793.235486" x2="211.884233" y2="793.235486" stroke="black" stroke-width="4.758"/>
<line x1="211.884233" y1="793.235486" x2="211.884233" y2="1124.86812" stroke="black" stroke-width="4.758"/>
<line x1="211.884233" y1="1124.86812" x2="421.513809" y2="1124.86812" stroke="black" stroke-width="4.758"/>
<line x1="421.513809" y1="1124.86812" x2="421.513809" y2="793.235486" stroke="black" stroke-width="4.758"/>
<line x1="422.187859" y1="1065.551714" x2="211.210183" y2="1065.551714" stroke="black" stroke-width="4.758"/>
<line x1="211.210183" y1="1065.551714" x2="420.839759" y2="1015.672009" stroke="black" stroke-width="4.758"/>
<line x1="420.839759" y1="1015.672009" x2="389.159406" y2="969.16255" stroke="black" stroke-width="4.758"/>
<line x1="389.159406" y1="969.16255" x2="211.210183" y2="1066.225764" stroke="black" stroke-width="4.758"/>
<line x1="676.607136" y1="1747.938186" x2="676.607136" y2="1557.618167" stroke="black" stroke-width="4.758"/>
<line x1="676.607136" y1="1557.618167" x2="212.22629" y2="1557.618167" stroke="black" stroke-width="4.758"/>
<line x1="212.22629" y1="1557.618167" x2="212.22629" y2="1747.938186" stroke="black" stroke-width="4.758"/>
<line x1="212.22629" y1="1747.938186" x2="236.016292" y2="1747.938186" stroke="black" stroke-width="4.758"/>
<line x1="236.016292" y1="1747.938186" x2="236.016292" y2="1580.45657" stroke="black" stroke-width="4.758"/>
<line x1="236.016292" y1="1580.45657" x2="651.865534" y2="1580.45657" stroke="black" stroke-width="4.758"/>
<line x1="651.865534" y1="1580.45657" x2="651.865534" y2="1747.938186" stroke="black" stroke-width="4.758"/>
<line x1="651.865534" y1="1747.938186" x2="676.607136" y2="1747.938186" stroke="black" stroke-width="4.758"/>
<line x1="651.865534" y1="1742.228586" x2="236.016292" y2="1742.228586" stroke="black" stroke-width="4.758"/>
<line x1="444.416713" y1="1743.180186" x2="444.416713" y2="1581.40817" stroke="black" stroke-width="4.758"/>
<line x1="1904.015986" y1="1927.394307" x2="1904.015986" y2="2137.023878" stroke="black" stroke-width="4.758"/>
<line x1="1904.015986" y1="2137.023878" x2="2235.64862" y2="2137.023878" stroke="black" stroke-width="4.758"/>
<line x1="2235.64862" y1="2137.023878" x2="2235.64862" y2="1927.394307" stroke="black" stroke-width="4.758"/>
<line x1="2235.64862" y1="1927.394307" x2="1904.015986" y2="1927.394307" stroke="black" stroke-width="4.758"/>
<line x1="2176.332214" y1="1926.720253" x2="2176.332214" y2="2137.697924" stroke="black" stroke-width="4.758"/>
<line x1="2176.332214" y1="2137.697924" x2="2126.452509" y2="1928.068357" stroke="black" stroke-width="4.758"/>
<line x1="2126.452509" y1="1928.068357" x2="2079.943054" y2="1959.748706" stroke="black" stroke-width="4.758"/>
<line x1="2079.943054" y1="1959.748706" x2="2177.006264" y2="2137.697924" stroke="black" stroke-width="4.758"/>
<line x1="2955.504399" y1="1004.582722" x2="2934.412231" y2="1027.201301" stroke="black" stroke-width="4.758"/>
<line x1="2934.412231" y1="1027.201301" x2="3087.870585" y2="1170.303527" stroke="black" stroke-width="4.758"/>
<line x1="3087.870585" y1="1170.303527" x2="3108.962752" y2="1147.684948" stroke="black" stroke-width="4.758"/>
<line x1="3108.962752" y1="1147.684948" x2="2955.504399" y2="1004.582722" stroke="black" stroke-width="4.758"/>
<line x1="2816.296103" y1="1153.865335" x2="2795.20394" y2="1176.483914" stroke="black" stroke-width="4.758"/>
<line x1="2795.20394" y1="1176.483914" x2="2948.662293" y2="1319.586144" stroke="black" stroke-width="4.758"/>
<line x1="2948.662293" y1="1319.586144" x2="2969.754456" y2="1296.967566" stroke="black" stroke-width="4.758"/>
<line x1="2969.754456" y1="1296.967566" x2="2816.296103" y2="1153.865335" stroke="black" stroke-width="4.758"/>
<line x1="2934.736723" y1="1026.853319" x2="2816.296103" y2="1153.865335" stroke="black" stroke-width="4.758"/>
<line x1="3087.823617" y1="1168.958581" x2="3088.790703" y2="1206.292571" stroke="black" stroke-width="4.758"/>
<line x1="3006.044515" y1="1295.026998" x2="2968.734006" y2="1296.666552" stroke="black" stroke-width="4.758"/>
<line x1="3090.088685" y1="1204.900662" x2="3004.746536" y2="1296.418911" stroke="black" stroke-width="4.758"/>
<line x1="2967.122172" y1="1057.703815" x2="2848.681552" y2="1184.715827" stroke="black" stroke-width="4.758"/>
<line x1="3595.45697" y1="656.954083" x2="3392.048802" y2="656.954083" stroke="black" stroke-width="4.758"/>
<line x1="3392.048802" y1="656.954083" x2="3392.048802" y2="453.129096" stroke="black" stroke-width="4.758"/>
<line x1="3392.048802" y1="453.129096" x2="3595.45697" y2="453.129096" stroke="black" stroke-width="4.758"/>
<line x1="3595.45697" y1="453.129096" x2="3595.45697" y2="656.954083" stroke="black" stroke-width="4.758"/>
<line x1="3595.873793" y1="657.370906" x2="3392.048802" y2="453.129096" stroke="black" stroke-width="4.758"/>
<line x1="3595.45697" y1="453.545919" x2="3392.465625" y2="656.954083" stroke="black" stroke-width="4.758"/>
<line x1="777.483095" y1="904.061226" x2="997.841944" y2="904.061226" stroke="black" stroke-width="4.757996"/>
<line x1="997.841944" y1="904.061226" x2="997.841944" y2="1124.871631" stroke="black" stroke-width="4.757996"/>
<line x1="997.841944" y1="1124.871631" x2="777.483095" y2="1124.871631" stroke="black" stroke-width="4.757996"/>
<line x1="777.483095" y1="1124.871631" x2="777.483095" y2="904.061226" stroke="black" stroke-width="4.757996"/>
<line x1="777.031543" y1="903.60967" x2="997.841944" y2="1124.871631" stroke="black" stroke-width="4.757996"/>
<line x1="777.483095" y1="1124.420075" x2="997.390388" y2="904.061226" stroke="black" stroke-width="4.757996"/>
<line x1="2815.325991" y1="1508.943126" x2="2952.673279" y2="1666.943101" stroke="black" stroke-width="4.758"/>
<line x1="2952.673279" y1="1666.943101" x2="3127.909612" y2="1514.612478" stroke="black" stroke-width="4.758"/>
<line x1="3127.909612" y1="1514.612478" x2="2990.562329" y2="1356.612503" stroke="black" stroke-width="4.758"/>
<line x1="2990.562329" y1="1356.612503" x2="2815.325991" y2="1508.943126" stroke="black" stroke-width="4.758"/>
<line x1="2839.744173" y1="1487.716726" x2="2977.091452" y2="1645.716701" stroke="black" stroke-width="4.758"/>
<line x1="1398.302522" y1="595.657208" x2="1588.622541" y2="595.657208" stroke="black" stroke-width="4.758"/>
<line x1="1588.622541" y1="595.657208" x2="1588.622541" y2="131.276361" stroke="black" stroke-width="4.758"/>
<line x1="1588.622541" y1="131.276361" x2="1398.302522" y2="131.276361" stroke="black" stroke-width="4.758"/>
<line x1="1398.302522" y1="131.276361" x2="1398.302522" y2="155.066364" stroke="black" stroke-width="4.758"/>
<line x1="1398.302522" y1="155.066364" x2="1565.784138" y2="155.066364" stroke="black" stroke-width="4.758"/>
<line x1="1565.784138" y1="155.066364" x2="1565.784138" y2="570.915606" stroke="black" stroke-width="4.758"/>
<line x1="1565.784138" y1="570.915606" x2="1398.302522" y2="570.915606" stroke="black" stroke-width="4.758"/>
<line x1="1398.302522" y1="570.915606" x2="1398.302522" y2="595.657208" stroke="black" stroke-width="4.758"/>
<line x1="1404.012122" y1="570.915606" x2="1404.012122" y2="155.066364" stroke="black" stroke-width="4.758"/>
<line x1="1403.060522" y1="363.466785" x2="1564.832538" y2="363.466785" stroke="black" stroke-width="4.758"/>
<line x1="213.13679" y1="1161.21801" x2="213.13679" y2="1522.052933" stroke="black" stroke-width="4.758005"/>
<line x1="213.13679" y1="1522.052933" x2="373.832507" y2="1522.052933" stroke="black" stroke-width="4.758005"/>
<line x1="373.832507" y1="1522.052933" x2="373.832507" y2="1161.21801" stroke="black" stroke-width="4.758005"/>
<line x1="373.832507" y1="1161.21801" x2="213.13679" y2="1161.21801" stroke="black" stroke-width="4.758005"/>
<line x1="348.997714" y1="1452.661602" x2="348.997714" y2="1190.435411" stroke="black" stroke-width="4.758005"/>
<line x1="348.997714" y1="1190.435411" x2="240.162889" y2="1190.435411" stroke="black" stroke-width="4.758005"/>
<line x1="240.162889" y1="1190.435411" x2="240.162889" y2="1457.774646" stroke="black" stroke-width="4.758005"/>
<path d="m 349.233283,1451.914037 a 58.43480492002392,58.43480492002392 0 0 1 -110.09494499999997,3.9600390000000516" fill="none" stroke="black" stroke-width="4.758005"/>
<line x1="619.394498" y1="130.465104" x2="839.753347" y2="130.465104" stroke="black" stroke-width="4.757996"/>
<line x1="839.753347" y1="130.465104" x2="839.753347" y2="351.27551" stroke="black" stroke-width="4.757996"/>
<line x1="839.753347" y1="351.27551" x2="619.394498" y2="351.27551" stroke="black" stroke-width="4.757996"/>
<line x1="619.394498" y1="351.27551" x2="619.394498" y2="130.465104" stroke="black" stroke-width="4.757996"/>
<line x1="618.942946" y1="130.013548" x2="839.753347" y2="351.27551" stroke="black" stroke-width="4.757996"/>
<line x1="619.394498" y1="350.823953" x2="839.301791" y2="130.465104" stroke="black" stroke-width="4.757996"/>
<line x1="622.570772" y1="597.594824" x2="653.42244" y2="595.437463" stroke="black" stroke-width="4.758"/>
<line x1="653.42244" y1="595.437463" x2="638.785592" y2="386.120775" stroke="black" stroke-width="4.758"/>
<line x1="638.785592" y1="386.120775" x2="607.933924" y2="388.278131" stroke="black" stroke-width="4.758"/>
<line x1="607.933924" y1="388.278131" x2="622.570772" y2="597.594824" stroke="black" stroke-width="4.758"/>
<line x1="826.191772" y1="583.356257" x2="857.043441" y2="581.1989" stroke="black" stroke-width="4.758"/>
<line x1="857.043441" y1="581.1989" x2="842.406589" y2="371.882207" stroke="black" stroke-width="4.758"/>
<line x1="842.406589" y1="371.882207" x2="811.554921" y2="374.039568" stroke="black" stroke-width="4.758"/>
<line x1="811.554921" y1="374.039568" x2="826.191772" y2="583.356257" stroke="black" stroke-width="4.758"/>
<line x1="652.947798" y1="595.470655" x2="826.191772" y2="583.356257" stroke="black" stroke-width="4.758"/>
<line x1="637.902688" y1="387.136436" x2="662.657128" y2="359.172531" stroke="black" stroke-width="4.758"/>
<line x1="783.690589" y1="350.709048" x2="812.095945" y2="374.955655" stroke="black" stroke-width="4.758"/>
<line x1="660.758563" y1="359.305292" x2="785.589151" y2="350.576286" stroke="black" stroke-width="4.758"/>
<line x1="650.302566" y1="550.821213" x2="823.54654" y2="538.70681" stroke="black" stroke-width="4.758"/>
<line x1="429.340922" y1="2298.092222" x2="210.279051" y2="2298.092222" stroke="black" stroke-width="4.758"/>
<line x1="210.279051" y1="2298.092222" x2="210.279051" y2="2644.646694" stroke="black" stroke-width="4.758"/>
<line x1="210.279051" y1="2644.646694" x2="429.340922" y2="2644.646694" stroke="black" stroke-width="4.758"/>
<line x1="429.340922" y1="2644.646694" x2="429.340922" y2="2298.092222" stroke="black" stroke-width="4.758"/>
<line x1="430.0453" y1="2582.66134" x2="209.574674" y2="2582.66134" stroke="black" stroke-width="4.758"/>
<line x1="209.574674" y1="2582.66134" x2="428.636544" y2="2530.537295" stroke="black" stroke-width="4.758"/>
<line x1="428.636544" y1="2530.537295" x2="395.53073" y2="2481.935144" stroke="black" stroke-width="4.758"/>
<line x1="395.53073" y1="2481.935144" x2="209.574674" y2="2583.365718" stroke="black" stroke-width="4.758"/>
<line x1="566.557374" y1="2643.190922" x2="430.951933" y2="2643.190922" stroke="black" stroke-width="4.758"/>
<line x1="430.951933" y1="2643.190922" x2="430.951933" y2="2507.307596" stroke="black" stroke-width="4.758"/>
<line x1="430.951933" y1="2507.307596" x2="566.557374" y2="2507.307596" stroke="black" stroke-width="4.758"/>
<line x1="566.557374" y1="2507.307596" x2="566.557374" y2="2643.190922" stroke="black" stroke-width="4.758"/>
<line x1="566.835254" y1="2643.468802" x2="430.951933" y2="2507.307596" stroke="black" stroke-width="4.758"/>
<line x1="566.557374" y1="2507.585476" x2="431.229809" y2="2643.190922" stroke="black" stroke-width="4.758"/>
<line x1="1217.492208" y1="2297.808777" x2="998.430337" y2="2297.808777" stroke="black" stroke-width="4.758"/>
<line x1="998.430337" y1="2297.808777" x2="998.430337" y2="2644.363249" stroke="black" stroke-width="4.758"/>
<line x1="998.430337" y1="2644.363249" x2="1217.492208" y2="2644.363249" stroke="black" stroke-width="4.758"/>
<line x1="1217.492208" y1="2644.363249" x2="1217.492208" y2="2297.808777" stroke="black" stroke-width="4.758"/>
<line x1="1218.196586" y1="2582.377895" x2="997.725959" y2="2582.377895" stroke="black" stroke-width="4.758"/>
<line x1="997.725959" y1="2582.377895" x2="1216.78783" y2="2530.25385" stroke="black" stroke-width="4.758"/>
<line x1="1216.78783" y1="2530.25385" x2="1183.682015" y2="2481.651699" stroke="black" stroke-width="4.758"/>
<line x1="1183.682015" y1="2481.651699" x2="997.725959" y2="2583.082273" stroke="black" stroke-width="4.758"/>
<line x1="996.284272" y1="2643.616423" x2="860.67883" y2="2643.616423" stroke="black" stroke-width="4.758"/>
<line x1="860.67883" y1="2643.616423" x2="860.67883" y2="2507.733097" stroke="black" stroke-width="4.758"/>
<line x1="860.67883" y1="2507.733097" x2="996.284272" y2="2507.733097" stroke="black" stroke-width="4.758"/>
<line x1="996.284272" y1="2507.733097" x2="996.284272" y2="2643.616423" stroke="black" stroke-width="4.758"/>
<line x1="996.562152" y1="2643.894304" x2="860.67883" y2="2507.733097" stroke="black" stroke-width="4.758"/>
<line x1="996.284272" y1="2508.010978" x2="860.956706" y2="2643.616423" stroke="black" stroke-width="4.758"/>
<line x1="1661.943566" y1="2607.239065" x2="1882.302415" y2="2607.239065" stroke="black" stroke-width="4.757996"/>
<line x1="1882.302415" y1="2607.239065" x2="1882.302415" y2="2828.04947" stroke="black" stroke-width="4.757996"/>
<line x1="1882.302415" y1="2828.04947" x2="1661.943566" y2="2828.04947" stroke="black" stroke-width="4.757996"/>
<line x1="1661.943566" y1="2828.04947" x2="1661.943566" y2="2607.239065" stroke="black" stroke-width="4.757996"/>
<line x1="1661.492014" y1="2606.787508" x2="1882.302415" y2="2828.04947" stroke="black" stroke-width="4.757996"/>
<line x1="1661.943566" y1="2827.597914" x2="1881.850859" y2="2607.239065" stroke="black" stroke-width="4.757996"/>
<line x1="1887.693767" y1="2365.349325" x2="1856.771474" y2="2365.889072" stroke="black" stroke-width="4.758"/>
<line x1="1856.771474" y1="2365.889072" x2="1860.433473" y2="2575.684935" stroke="black" stroke-width="4.758"/>
<line x1="1860.433473" y1="2575.684935" x2="1891.355767" y2="2575.145188" stroke="black" stroke-width="4.758"/>
<line x1="1891.355767" y1="2575.145188" x2="1887.693767" y2="2365.349325" stroke="black" stroke-width="4.758"/>
<line x1="1683.606637" y1="2368.91168" x2="1652.684343" y2="2369.451426" stroke="black" stroke-width="4.758"/>
<line x1="1652.684343" y1="2369.451426" x2="1656.346342" y2="2579.24729" stroke="black" stroke-width="4.758"/>
<line x1="1656.346342" y1="2579.24729" x2="1687.268636" y2="2578.707543" stroke="black" stroke-width="4.758"/>
<line x1="1687.268636" y1="2578.707543" x2="1683.606637" y2="2368.91168" stroke="black" stroke-width="4.758"/>
<line x1="1857.247203" y1="2365.880767" x2="1683.606637" y2="2368.91168" stroke="black" stroke-width="4.758"/>
<line x1="1861.368323" y1="2574.716871" x2="1835.184289" y2="2601.346907" stroke="black" stroke-width="4.758"/>
<line x1="1713.873753" y1="2603.464389" x2="1686.776302" y2="2577.764388" stroke="black" stroke-width="4.758"/>
<line x1="1837.087203" y1="2601.313689" x2="1711.970844" y2="2603.497602" stroke="black" stroke-width="4.758"/>
<line x1="1857.552037" y1="2410.607465" x2="1683.91147" y2="2413.638373" stroke="black" stroke-width="4.758"/>
<line x1="3434.14941" y1="2338.590075" x2="3603.656217" y2="2338.590075" stroke="black" stroke-width="4.758005"/>
<line x1="3603.656217" y1="2338.590075" x2="3603.656217" y2="2508.444229" stroke="black" stroke-width="4.758005"/>
<line x1="3603.656217" y1="2508.444229" x2="3434.14941" y2="2508.444229" stroke="black" stroke-width="4.758005"/>
<line x1="3434.14941" y1="2508.444229" x2="3434.14941" y2="2338.590075" stroke="black" stroke-width="4.758005"/>
<line x1="3433.802058" y1="2338.242723" x2="3603.656217" y2="2508.444229" stroke="black" stroke-width="4.758005"/>
<line x1="3434.14941" y1="2508.096882" x2="3603.308865" y2="2338.590075" stroke="black" stroke-width="4.758005"/>
<line x1="2808.66057" y1="2475.357719" x2="2978.167377" y2="2475.357719" stroke="black" stroke-width="4.758005"/>
<line x1="2978.167377" y1="2475.357719" x2="2978.167377" y2="2645.211874" stroke="black" stroke-width="4.758005"/>
<line x1="2978.167377" y1="2645.211874" x2="2808.66057" y2="2645.211874" stroke="black" stroke-width="4.758005"/>
<line x1="2808.66057" y1="2645.211874" x2="2808.66057" y2="2475.357719" stroke="black" stroke-width="4.758005"/>
<line x1="2808.313218" y1="2475.010368" x2="2978.167377" y2="2645.211874" stroke="black" stroke-width="4.758005"/>
<line x1="2808.66057" y1="2644.864526" x2="2977.820025" y2="2475.357719" stroke="black" stroke-width="4.758005"/>
<line x1="3266.406297" y1="2337.896583" x2="3435.913104" y2="2337.896583" stroke="black" stroke-width="4.758005"/>
<line x1="3435.913104" y1="2337.896583" x2="3435.913104" y2="2507.750737" stroke="black" stroke-width="4.758005"/>
<line x1="3435.913104" y1="2507.750737" x2="3266.406297" y2="2507.750737" stroke="black" stroke-width="4.758005"/>
<line x1="3266.406297" y1="2507.750737" x2="3266.406297" y2="2337.896583" stroke="black" stroke-width="4.758005"/>
<line x1="3266.058945" y1="2337.549231" x2="3435.913104" y2="2507.750737" stroke="black" stroke-width="4.758005"/>
<line x1="3266.406297" y1="2507.40339" x2="3435.565752" y2="2337.896583" stroke="black" stroke-width="4.758005"/>
<line x1="2976.846071" y1="2474.847604" x2="3146.352878" y2="2474.847604" stroke="black" stroke-width="4.758005"/>
<line x1="3146.352878" y1="2474.847604" x2="3146.352878" y2="2644.701759" stroke="black" stroke-width="4.758005"/>
<line x1="3146.352878" y1="2644.701759" x2="2976.846071" y2="2644.701759" stroke="black" stroke-width="4.758005"/>
<line x1="2976.846071" y1="2644.701759" x2="2976.846071" y2="2474.847604" stroke="black" stroke-width="4.758005"/>
<line x1="2976.498719" y1="2474.500253" x2="3146.352878" y2="2644.701759" stroke="black" stroke-width="4.758005"/>
<line x1="2976.846071" y1="2644.354411" x2="3146.005526" y2="2474.847604" stroke="black" stroke-width="4.758005"/>
</g>
</svg>
