<?xml version="1.0"?>
<svg xmlns:xlink="http://www.w3.org/1999/xlink" width="5498.133887999999" height="2960.5336319999997">
<image x="0" y="0" width="5498.133887999999" height="2960.5336319999997" xlink:href="ground16-07.png"/>
<g style="stroke-linecap:round">
<line x1="1294.244566" y1="1161.032193" x2="1316.799022" y2="1161.032193" stroke="black" stroke-width="4.758"/>
<line x1="1316.799022" y1="1161.032193" x2="1316.799022" y2="1117.023503" stroke="black" stroke-width="4.758"/>
<line x1="1316.799022" y1="1117.023503" x2="1294.244566" y2="1117.023503" stroke="black" stroke-width="4.758"/>
<line x1="1294.244566" y1="1117.023503" x2="1294.244566" y2="1161.032193" stroke="black" stroke-width="4.758"/>
<line x1="1537.39259" y1="1117.023503" x2="1537.39259" y2="897.530148" stroke="black" stroke-width="4.758"/>
<line x1="1537.942699" y1="1162.13241" x2="1560.497154" y2="1162.13241" stroke="black" stroke-width="4.758"/>
<line x1="1560.497154" y1="1162.13241" x2="1560.497154" y2="1118.12372" stroke="black" stroke-width="4.758"/>
<line x1="1560.497154" y1="1118.12372" x2="1537.942699" y2="1118.12372" stroke="black" stroke-width="4.758"/>
<line x1="1537.942699" y1="1118.12372" x2="1537.942699" y2="1162.13241" stroke="black" stroke-width="4.758"/>
<path d="m 1316.799022,1118.673829 a 220.59357050000006,220.59357050000006 0 0 1 220.593568,-220.5935730000001" fill="none" stroke="black" stroke-width="4.758"/>
<line x1="1546.852786" y1="1890.830668" x2="1524.29833" y2="1890.830668" stroke="black" stroke-width="4.758"/>
<line x1="1524.29833" y1="1890.830668" x2="1524.29833" y2="1934.839358" stroke="black" stroke-width="4.758"/>
<line x1="1524.29833" y1="1934.839358" x2="1546.852786" y2="1934.839358" stroke="black" stroke-width="4.758"/>
<line x1="1546.852786" y1="1934.839358" x2="1546.852786" y2="1890.830668" stroke="black" stroke-width="4.758"/>
<line x1="1303.704762" y1="1934.839358" x2="1303.704762" y2="2154.332713" stroke="black" stroke-width="4.758"/>
<line x1="1303.154654" y1="1889.730451" x2="1280.600198" y2="1889.730451" stroke="black" stroke-width="4.758"/>
<line x1="1280.600198" y1="1889.730451" x2="1280.600198" y2="1933.739141" stroke="black" stroke-width="4.758"/>
<line x1="1280.600198" y1="1933.739141" x2="1303.154654" y2="1933.739141" stroke="black" stroke-width="4.758"/>
<line x1="1303.154654" y1="1933.739141" x2="1303.154654" y2="1889.730451" stroke="black" stroke-width="4.758"/>
<path d="m 1524.29833,1933.189032 a 220.59357049999994,220.59357049999994 0 0 1 -220.593568,220.59357299999988" fill="none" stroke="black" stroke-width="4.758"/>
<line x1="4403.657584" y1="115.472526" x2="4618.156079" y2="115.472526" stroke="black" stroke-width="4.758"/>
<line x1="4618.156079" y1="115.472526" x2="4618.156079" y2="82.405824" stroke="black" stroke-width="4.758"/>
<line x1="4618.156079" y1="82.405824" x2="4403.657584" y2="82.405824" stroke="black" stroke-width="4.758"/>
<line x1="4403.657584" y1="82.405824" x2="4403.657584" y2="115.472526" stroke="black" stroke-width="4.758"/>
<line x1="4423.671642" y1="82.840912" x2="4423.671642" y2="115.037438" stroke="black" stroke-width="4.758"/>
<line x1="4597.706933" y1="82.840912" x2="4597.706933" y2="116.342703" stroke="black" stroke-width="4.758"/>
<line x1="4423.236554" y1="98.068998" x2="4597.271845" y2="98.068998" stroke="black" stroke-width="4.758"/>
<line x1="2442.746697" y1="110.676514" x2="2657.23038" y2="110.676514" stroke="black" stroke-width="4.758"/>
<line x1="2657.23038" y1="110.676514" x2="2657.23038" y2="72.31358" stroke="black" stroke-width="4.758"/>
<line x1="2657.23038" y1="72.31358" x2="2442.746697" y2="72.31358" stroke="black" stroke-width="4.758"/>
<line x1="2442.746697" y1="72.31358" x2="2442.746697" y2="110.676514" stroke="black" stroke-width="4.758"/>
<line x1="2452.773372" y1="110.676514" x2="2452.773372" y2="123.754791" stroke="black" stroke-width="4.758"/>
<line x1="2452.773372" y1="123.754791" x2="2646.767762" y2="123.754791" stroke="black" stroke-width="4.758"/>
<line x1="2646.767762" y1="110.676514" x2="2646.767762" y2="123.754791" stroke="black" stroke-width="4.758"/>
<line x1="1253.916155" y1="1507.813934" x2="1253.916155" y2="1485.259478" stroke="black" stroke-width="4.758"/>
<line x1="1253.916155" y1="1485.259478" x2="1209.907466" y2="1485.259478" stroke="black" stroke-width="4.758"/>
<line x1="1209.907466" y1="1485.259478" x2="1209.907466" y2="1507.813934" stroke="black" stroke-width="4.758"/>
<line x1="1209.907466" y1="1507.813934" x2="1253.916155" y2="1507.813934" stroke="black" stroke-width="4.758"/>
<line x1="1209.907466" y1="1264.66591" x2="990.414111" y2="1264.66591" stroke="black" stroke-width="4.758"/>
<line x1="1255.016372" y1="1264.115802" x2="1255.016372" y2="1241.561346" stroke="black" stroke-width="4.758"/>
<line x1="1255.016372" y1="1241.561346" x2="1211.007683" y2="1241.561346" stroke="black" stroke-width="4.758"/>
<line x1="1211.007683" y1="1241.561346" x2="1211.007683" y2="1264.115802" stroke="black" stroke-width="4.758"/>
<line x1="1211.007683" y1="1264.115802" x2="1255.016372" y2="1264.115802" stroke="black" stroke-width="4.758"/>
<path d="m 1211.557792,1485.259478 a 220.59357050000006,220.59357050000006 0 0 1 -220.5935730000001,-220.593568" fill="none" stroke="black" stroke-width="4.758"/>
<line x1="1253.394872" y1="1837.912218" x2="1253.394872" y2="1815.357762" stroke="black" stroke-width="4.758"/>
<line x1="1253.394872" y1="1815.357762" x2="1209.386183" y2="1815.357762" stroke="black" stroke-width="4.758"/>
<line x1="1209.386183" y1="1815.357762" x2="1209.386183" y2="1837.912218" stroke="black" stroke-width="4.758"/>
<line x1="1209.386183" y1="1837.912218" x2="1253.394872" y2="1837.912218" stroke="black" stroke-width="4.758"/>
<line x1="1209.386183" y1="1594.764194" x2="989.892827" y2="1594.764194" stroke="black" stroke-width="4.758"/>
<line x1="1254.495089" y1="1594.214086" x2="1254.495089" y2="1571.65963" stroke="black" stroke-width="4.758"/>
<line x1="1254.495089" y1="1571.65963" x2="1210.4864" y2="1571.65963" stroke="black" stroke-width="4.758"/>
<line x1="1210.4864" y1="1571.65963" x2="1210.4864" y2="1594.214086" stroke="black" stroke-width="4.758"/>
<line x1="1210.4864" y1="1594.214086" x2="1254.495089" y2="1594.214086" stroke="black" stroke-width="4.758"/>
<path d="m 1211.036509,1815.357762 a 220.5935705,220.5935705 0 0 1 -220.593573,-220.593568" fill="none" stroke="black" stroke-width="4.758"/>
<line x1="2469.579154" y1="1558.52728" x2="2492.277729" y2="1558.52728" stroke="black" stroke-width="4.758"/>
<line x1="2492.277729" y1="1558.52728" x2="2492.277729" y2="1514.237384" stroke="black" stroke-width="4.758"/>
<line x1="2492.277729" y1="1514.237384" x2="2469.579154" y2="1514.237384" stroke="black" stroke-width="4.758"/>
<line x1="2469.579154" y1="1514.237384" x2="2469.579154" y2="1558.52728" stroke="black" stroke-width="4.758"/>
<line x1="2714.280841" y1="1514.237384" x2="2714.280841" y2="1293.341516" stroke="black" stroke-width="4.758"/>
<line x1="2714.834465" y1="1559.634529" x2="2737.53304" y2="1559.634529" stroke="black" stroke-width="4.758"/>
<line x1="2737.53304" y1="1559.634529" x2="2737.53304" y2="1515.344628" stroke="black" stroke-width="4.758"/>
<line x1="2737.53304" y1="1515.344628" x2="2714.834465" y2="1515.344628" stroke="black" stroke-width="4.758"/>
<line x1="2714.834465" y1="1515.344628" x2="2714.834465" y2="1559.634529" stroke="black" stroke-width="4.758"/>
<path d="m 2492.277729,1515.898252 a 222.00311199999987,222.00311199999987 0 0 1 222.00311199999987,-222.00311199999987" fill="none" stroke="black" stroke-width="4.758"/>
<line x1="191.38945" y1="532.258913" x2="191.38945" y2="311.81735" stroke="black" stroke-width="4.758"/>
<line x1="191.38945" y1="311.81735" x2="151.960878" y2="311.81735" stroke="black" stroke-width="4.758"/>
<line x1="151.960878" y1="311.81735" x2="151.960878" y2="532.258913" stroke="black" stroke-width="4.758"/>
<line x1="151.960878" y1="532.258913" x2="191.38945" y2="532.258913" stroke="black" stroke-width="4.758"/>
<line x1="191.38945" y1="521.953719" x2="204.831009" y2="521.953719" stroke="black" stroke-width="4.758"/>
<line x1="204.831009" y1="521.953719" x2="204.831009" y2="322.570594" stroke="black" stroke-width="4.758"/>
<line x1="191.38945" y1="322.570594" x2="204.831009" y2="322.570594" stroke="black" stroke-width="4.758"/>
<line x1="196.592134" y1="2237.226342" x2="196.592134" y2="2016.769557" stroke="black" stroke-width="4.758005"/>
<line x1="196.592134" y1="2016.769557" x2="162.606909" y2="2016.769557" stroke="black" stroke-width="4.758005"/>
<line x1="162.606909" y1="2016.769557" x2="162.606909" y2="2237.226342" stroke="black" stroke-width="4.758005"/>
<line x1="162.606909" y1="2237.226342" x2="196.592134" y2="2237.226342" stroke="black" stroke-width="4.758005"/>
<line x1="163.054082" y1="2216.656338" x2="196.144957" y2="2216.656338" stroke="black" stroke-width="4.758005"/>
<line x1="163.054082" y1="2037.786734" x2="197.48648" y2="2037.786734" stroke="black" stroke-width="4.758005"/>
<line x1="178.705172" y1="2217.103511" x2="178.705172" y2="2038.233911" stroke="black" stroke-width="4.758005"/>
<line x1="2630.64014" y1="2277.391122" x2="2605.995975" y2="2277.391122" stroke="black" stroke-width="4.758"/>
<line x1="2605.995975" y1="2277.391122" x2="2605.995975" y2="2325.477299" stroke="black" stroke-width="4.758"/>
<line x1="2605.995975" y1="2325.477299" x2="2630.64014" y2="2325.477299" stroke="black" stroke-width="4.758"/>
<line x1="2630.64014" y1="2325.477299" x2="2630.64014" y2="2277.391122" stroke="black" stroke-width="4.758"/>
<line x1="2364.964024" y1="2325.477299" x2="2364.964024" y2="2565.307097" stroke="black" stroke-width="4.758"/>
<line x1="2364.362948" y1="2276.188969" x2="2339.718783" y2="2276.188969" stroke="black" stroke-width="4.758"/>
<line x1="2339.718783" y1="2276.188969" x2="2339.718783" y2="2324.275141" stroke="black" stroke-width="4.758"/>
<line x1="2339.718783" y1="2324.275141" x2="2364.362948" y2="2324.275141" stroke="black" stroke-width="4.758"/>
<line x1="2364.362948" y1="2324.275141" x2="2364.362948" y2="2276.188969" stroke="black" stroke-width="4.758"/>
<path d="m 2605.995975,2323.674065 a 241.03195099999994,241.03195099999994 0 0 1 -241.03195099999994,241.03195099999994" fill="none" stroke="black" stroke-width="4.758"/>
<line x1="568.88256" y1="1213.185645" x2="374.921777" y2="1213.185645" stroke="black" stroke-width="4.757996"/>
<line x1="374.921777" y1="1213.185645" x2="374.921777" y2="1161.3513" stroke="black" stroke-width="4.757996"/>
<line x1="568.88256" y1="1161.3513" x2="374.921777" y2="1161.3513" stroke="black" stroke-width="4.757996"/>
<line x1="568.88256" y1="1213.185645" x2="568.88256" y2="1161.3513" stroke="black" stroke-width="4.757996"/>
<line x1="524.99057" y1="1242.446969" x2="524.99057" y2="1213.185645" stroke="black" stroke-width="4.757996"/>
<line x1="420.485839" y1="1213.185645" x2="420.485839" y2="1244.119045" stroke="black" stroke-width="4.757996"/>
<circle cx="473.574242" cy="1290.101128" r="70.2271798019802" fill="none" stroke="black" stroke-width="4.757996"/>
<circle cx="473.574242" cy="1290.101128" r="60.19472554455446" fill="none" stroke="black" stroke-width="4.757996"/>
<line x1="907.212269" y1="1292.854054" x2="636.323442" y2="1292.854054" stroke="black" stroke-width="4.758"/>
<line x1="636.323442" y1="1292.854054" x2="636.323442" y2="1160.740241" stroke="black" stroke-width="4.758"/>
<line x1="907.212269" y1="1160.740241" x2="636.323442" y2="1160.740241" stroke="black" stroke-width="4.758"/>
<line x1="907.212269" y1="1292.854054" x2="907.212269" y2="1160.740241" stroke="black" stroke-width="4.758"/>
<line x1="900.551068" y1="1286.192853" x2="762.331154" y2="1286.192853" stroke="black" stroke-width="4.758"/>
<line x1="762.331154" y1="1286.192853" x2="762.331154" y2="1167.956541" stroke="black" stroke-width="4.758"/>
<line x1="900.551068" y1="1167.956541" x2="762.331154" y2="1167.956541" stroke="black" stroke-width="4.758"/>
<line x1="900.551068" y1="1286.192853" x2="900.551068" y2="1167.956541" stroke="black" stroke-width="4.758"/>
<line x1="747.898553" y1="1278.421453" x2="650.756043" y2="1278.421453" stroke="black" stroke-width="4.758"/>
<line x1="747.898553" y1="1257.882751" x2="650.756043" y2="1257.882751" stroke="black" stroke-width="4.758"/>
<line x1="747.343453" y1="1236.788948" x2="650.200943" y2="1236.788948" stroke="black" stroke-width="4.758"/>
<line x1="747.343453" y1="1216.250246" x2="650.200943" y2="1216.250246" stroke="black" stroke-width="4.758"/>
<line x1="747.898553" y1="1195.711544" x2="650.756043" y2="1195.711544" stroke="black" stroke-width="4.758"/>
<line x1="747.898553" y1="1175.172842" x2="650.756043" y2="1175.172842" stroke="black" stroke-width="4.758"/>
<line x1="847.816563" y1="1167.956541" x2="847.816563" y2="1181.834043" stroke="black" stroke-width="4.758"/>
<line x1="847.816563" y1="1181.834043" x2="813.40036" y2="1181.834043" stroke="black" stroke-width="4.758"/>
<line x1="813.40036" y1="1181.834043" x2="813.40036" y2="1168.511641" stroke="black" stroke-width="4.758"/>
<circle cx="777.873956" cy="1271.205152" r="8.32650084" fill="none" stroke="black" stroke-width="4.758"/>
<line x1="1699.176924" y1="1314.906761" x2="1829.748401" y2="1390.292238" stroke="black" stroke-width="4.758"/>
<line x1="1829.748401" y1="1390.292238" x2="1754.208443" y2="1521.131282" stroke="black" stroke-width="4.758"/>
<line x1="1754.208443" y1="1521.131282" x2="1623.636966" y2="1445.745804" stroke="black" stroke-width="4.758"/>
<line x1="1623.636966" y1="1445.745804" x2="1699.176924" y2="1314.906761" stroke="black" stroke-width="4.758"/>
<line x1="1699.063838" y1="1314.484717" x2="1754.208443" y2="1521.131282" stroke="black" stroke-width="4.758"/>
<line x1="1623.791447" y1="1445.478237" x2="1829.480838" y2="1390.137758" stroke="black" stroke-width="4.758"/>
<line x1="1761.487293" y1="872.930206" x2="1761.487293" y2="1266.670636" stroke="black" stroke-width="4.758"/>
<line x1="1762.48483" y1="1270.631037" x2="1626.244236" y2="1270.631037" stroke="black" stroke-width="4.758"/>
<line x1="1625.09128" y1="873.395181" x2="1625.09128" y2="1270.936761" stroke="black" stroke-width="4.758"/>
<line x1="1760.791665" y1="874.130997" x2="1625.356807" y2="874.130997" stroke="black" stroke-width="4.758"/>
<line x1="1750.385292" y1="884.439998" x2="1750.385292" y2="1008.148011" stroke="black" stroke-width="4.758"/>
<line x1="1750.385292" y1="1008.148011" x2="1636.193281" y2="1008.148011" stroke="black" stroke-width="4.758"/>
<line x1="1636.193281" y1="884.439998" x2="1636.193281" y2="1008.148011" stroke="black" stroke-width="4.758"/>
<line x1="1750.385292" y1="884.439998" x2="1636.193281" y2="884.439998" stroke="black" stroke-width="4.758"/>
<line x1="1743.248291" y1="1027.180013" x2="1743.248291" y2="1114.410022" stroke="black" stroke-width="4.758"/>
<line x1="1723.423289" y1="1027.180013" x2="1723.423289" y2="1114.410022" stroke="black" stroke-width="4.758"/>
<line x1="1702.805287" y1="1027.973013" x2="1702.805287" y2="1114.410022" stroke="black" stroke-width="4.758"/>
<line x1="1682.980285" y1="1027.973013" x2="1682.980285" y2="1114.410022" stroke="black" stroke-width="4.758"/>
<line x1="1663.155283" y1="1027.180013" x2="1663.155283" y2="1114.410022" stroke="black" stroke-width="4.758"/>
<line x1="1643.330281" y1="1027.180013" x2="1643.330281" y2="1114.410022" stroke="black" stroke-width="4.758"/>
<line x1="1636.986281" y1="932.020003" x2="1650.467282" y2="932.020003" stroke="black" stroke-width="4.758"/>
<line x1="1650.467282" y1="932.020003" x2="1650.467282" y2="962.154006" stroke="black" stroke-width="4.758"/>
<line x1="1650.467282" y1="962.154006" x2="1637.779281" y2="962.154006" stroke="black" stroke-width="4.758"/>
<line x1="1750.385292" y1="1135.028024" x2="1750.385292" y2="1258.736036" stroke="black" stroke-width="4.758"/>
<line x1="1750.385292" y1="1258.736036" x2="1636.193281" y2="1258.736036" stroke="black" stroke-width="4.758"/>
<line x1="1636.193281" y1="1135.028024" x2="1636.193281" y2="1258.736036" stroke="black" stroke-width="4.758"/>
<line x1="1750.385292" y1="1135.028024" x2="1636.193281" y2="1135.028024" stroke="black" stroke-width="4.758"/>
<line x1="1636.193281" y1="1182.608029" x2="1649.674282" y2="1182.608029" stroke="black" stroke-width="4.758"/>
<line x1="1649.674282" y1="1182.608029" x2="1649.674282" y2="1212.742032" stroke="black" stroke-width="4.758"/>
<line x1="1649.674282" y1="1212.742032" x2="1636.986281" y2="1212.742032" stroke="black" stroke-width="4.758"/>
<circle cx="1736.111291" cy="993.87401" r="7.1370007200000005" fill="none" stroke="black" stroke-width="4.758"/>
<circle cx="1735.318291" cy="1244.462035" r="7.1370007200000005" fill="none" stroke="black" stroke-width="4.758"/>
<line x1="2259.510252" y1="799.953404" x2="2259.510252" y2="667.680991" stroke="black" stroke-width="4.758"/>
<line x1="2259.510252" y1="667.680991" x2="2273.784254" y2="667.680991" stroke="black" stroke-width="4.758"/>
<line x1="2273.784254" y1="799.953404" x2="2273.784254" y2="667.680991" stroke="black" stroke-width="4.758"/>
<line x1="2259.510252" y1="799.953404" x2="2273.784254" y2="799.953404" stroke="black" stroke-width="4.758"/>
<line x1="2273.784254" y1="786.631003" x2="2305.187057" y2="788.534203" stroke="black" stroke-width="4.758"/>
<line x1="2273.784254" y1="681.003392" x2="2306.138657" y2="679.100192" stroke="black" stroke-width="4.758"/>
<line x1="2721.036299" y1="799.953404" x2="2721.036299" y2="667.680991" stroke="black" stroke-width="4.758"/>
<line x1="2721.036299" y1="667.680991" x2="2707.713897" y2="667.680991" stroke="black" stroke-width="4.758"/>
<line x1="2707.713897" y1="799.953404" x2="2707.713897" y2="667.680991" stroke="black" stroke-width="4.758"/>
<line x1="2721.036299" y1="799.953404" x2="2707.713897" y2="799.953404" stroke="black" stroke-width="4.758"/>
<line x1="2705.810697" y1="787.582603" x2="2674.407894" y2="789.485803" stroke="black" stroke-width="4.758"/>
<line x1="2705.810697" y1="681.954992" x2="2673.456294" y2="679.100192" stroke="black" stroke-width="4.758"/>
<line x1="2424.137069" y1="504.005774" x2="2424.137069" y2="518.279776" stroke="black" stroke-width="4.758"/>
<line x1="2424.137069" y1="518.279776" x2="2556.409482" y2="518.279776" stroke="black" stroke-width="4.758"/>
<line x1="2556.409482" y1="504.005774" x2="2556.409482" y2="518.279776" stroke="black" stroke-width="4.758"/>
<line x1="2424.137069" y1="504.005774" x2="2556.409482" y2="504.005774" stroke="black" stroke-width="4.758"/>
<line x1="2542.135481" y1="518.279776" x2="2544.990281" y2="550.634179" stroke="black" stroke-width="4.758"/>
<line x1="2437.45947" y1="518.279776" x2="2435.55627" y2="550.634179" stroke="black" stroke-width="4.758"/>
<line x1="2423.185469" y1="964.580221" x2="2423.185469" y2="950.306219" stroke="black" stroke-width="4.758"/>
<line x1="2423.185469" y1="950.306219" x2="2555.457882" y2="950.306219" stroke="black" stroke-width="4.758"/>
<line x1="2555.457882" y1="964.580221" x2="2555.457882" y2="950.306219" stroke="black" stroke-width="4.758"/>
<line x1="2423.185469" y1="964.580221" x2="2555.457882" y2="964.580221" stroke="black" stroke-width="4.758"/>
<line x1="2541.183881" y1="950.306219" x2="2544.038681" y2="917.951816" stroke="black" stroke-width="4.758"/>
<line x1="2436.50787" y1="950.306219" x2="2434.60467" y2="917.951816" stroke="black" stroke-width="4.758"/>
<circle cx="2489.797475" cy="734.292998" r="192.22321939199998" fill="none" stroke="black" stroke-width="4.758"/>
<line x1="1878.886453" y1="2846.549827" x2="1664.387958" y2="2846.549827" stroke="black" stroke-width="4.758"/>
<line x1="1664.387958" y1="2846.549827" x2="1664.387958" y2="2879.616529" stroke="black" stroke-width="4.758"/>
<line x1="1664.387958" y1="2879.616529" x2="1878.886453" y2="2879.616529" stroke="black" stroke-width="4.758"/>
<line x1="1878.886453" y1="2879.616529" x2="1878.886453" y2="2846.549827" stroke="black" stroke-width="4.758"/>
<line x1="1858.872395" y1="2879.181441" x2="1858.872395" y2="2846.984915" stroke="black" stroke-width="4.758"/>
<line x1="1684.837104" y1="2879.181441" x2="1684.837104" y2="2845.67965" stroke="black" stroke-width="4.758"/>
<line x1="1859.307483" y1="2863.953355" x2="1685.272192" y2="2863.953355" stroke="black" stroke-width="4.758"/>
<line x1="3594.388279" y1="1099.235939" x2="3594.388279" y2="908.915919" stroke="black" stroke-width="4.758"/>
<line x1="3594.388279" y1="908.915919" x2="3130.007433" y2="908.915919" stroke="black" stroke-width="4.758"/>
<line x1="3130.007433" y1="908.915919" x2="3130.007433" y2="1099.235939" stroke="black" stroke-width="4.758"/>
<line x1="3130.007433" y1="1099.235939" x2="3153.797435" y2="1099.235939" stroke="black" stroke-width="4.758"/>
<line x1="3153.797435" y1="1099.235939" x2="3153.797435" y2="931.754322" stroke="black" stroke-width="4.758"/>
<line x1="3153.797435" y1="931.754322" x2="3569.646677" y2="931.754322" stroke="black" stroke-width="4.758"/>
<line x1="3569.646677" y1="931.754322" x2="3569.646677" y2="1099.235939" stroke="black" stroke-width="4.758"/>
<line x1="3569.646677" y1="1099.235939" x2="3594.388279" y2="1099.235939" stroke="black" stroke-width="4.758"/>
<line x1="3569.646677" y1="1093.526338" x2="3153.797435" y2="1093.526338" stroke="black" stroke-width="4.758"/>
<line x1="3362.197856" y1="1094.477938" x2="3362.197856" y2="932.705922" stroke="black" stroke-width="4.758"/>
<line x1="3255.050439" y1="1492.22705" x2="3241.69956" y2="1301.300589" stroke="black" stroke-width="4.758"/>
<line x1="3241.69956" y1="1301.300589" x2="3433.01727" y2="1287.922347" stroke="black" stroke-width="4.758"/>
<line x1="3433.01727" y1="1287.922347" x2="3446.368149" y2="1478.848813" stroke="black" stroke-width="4.758"/>
<line x1="3446.368149" y1="1478.848813" x2="3255.050439" y2="1492.22705" stroke="black" stroke-width="4.758"/>
<line x1="3254.686557" y1="1492.645653" x2="3433.01727" y2="1287.922347" stroke="black" stroke-width="4.758"/>
<line x1="3445.976905" y1="1478.876171" x2="3241.726918" y2="1301.691828" stroke="black" stroke-width="4.758"/>
<line x1="542.842817" y1="1124.194065" x2="542.842817" y2="914.564494" stroke="black" stroke-width="4.758"/>
<line x1="542.842817" y1="914.564494" x2="211.210183" y2="914.564494" stroke="black" stroke-width="4.758"/>
<line x1="211.210183" y1="914.564494" x2="211.210183" y2="1124.194065" stroke="black" stroke-width="4.758"/>
<line x1="211.210183" y1="1124.194065" x2="542.842817" y2="1124.194065" stroke="black" stroke-width="4.758"/>
<line x1="270.526589" y1="1124.868116" x2="270.526589" y2="913.89044" stroke="black" stroke-width="4.758"/>
<line x1="270.526589" y1="913.89044" x2="320.406294" y2="1123.520015" stroke="black" stroke-width="4.758"/>
<line x1="320.406294" y1="1123.520015" x2="366.915749" y2="1091.839662" stroke="black" stroke-width="4.758"/>
<line x1="366.915749" y1="1091.839662" x2="269.852539" y2="913.89044" stroke="black" stroke-width="4.758"/>
<line x1="676.607136" y1="1747.938186" x2="676.607136" y2="1557.618167" stroke="black" stroke-width="4.758"/>
<line x1="676.607136" y1="1557.618167" x2="212.22629" y2="1557.618167" stroke="black" stroke-width="4.758"/>
<line x1="212.22629" y1="1557.618167" x2="212.22629" y2="1747.938186" stroke="black" stroke-width="4.758"/>
<line x1="212.22629" y1="1747.938186" x2="236.016292" y2="1747.938186" stroke="black" stroke-width="4.758"/>
<line x1="236.016292" y1="1747.938186" x2="236.016292" y2="1580.45657" stroke="black" stroke-width="4.758"/>
<line x1="236.016292" y1="1580.45657" x2="651.865534" y2="1580.45657" stroke="black" stroke-width="4.758"/>
<line x1="651.865534" y1="1580.45657" x2="651.865534" y2="1747.938186" stroke="black" stroke-width="4.758"/>
<line x1="651.865534" y1="1747.938186" x2="676.607136" y2="1747.938186" stroke="black" stroke-width="4.758"/>
<line x1="651.865534" y1="1742.228586" x2="236.016292" y2="1742.228586" stroke="black" stroke-width="4.758"/>
<line x1="444.416713" y1="1743.180186" x2="444.416713" y2="1581.40817" stroke="black" stroke-width="4.758"/>
<line x1="2025.345003" y1="2258.352886" x2="2234.974574" y2="2258.352886" stroke="black" stroke-width="4.758"/>
<line x1="2234.974574" y1="2258.352886" x2="2234.974574" y2="1926.720257" stroke="black" stroke-width="4.758"/>
<line x1="2234.974574" y1="1926.720257" x2="2025.345003" y2="1926.720257" stroke="black" stroke-width="4.758"/>
<line x1="2025.345003" y1="1926.720257" x2="2025.345003" y2="2258.352886" stroke="black" stroke-width="4.758"/>
<line x1="2024.670949" y1="1986.036659" x2="2235.64862" y2="1986.036659" stroke="black" stroke-width="4.758"/>
<line x1="2235.64862" y1="1986.036659" x2="2026.019049" y2="2035.916364" stroke="black" stroke-width="4.758"/>
<line x1="2026.019049" y1="2035.916364" x2="2057.699402" y2="2082.425818" stroke="black" stroke-width="4.758"/>
<line x1="2057.699402" y1="2082.425818" x2="2235.64862" y2="1985.362609" stroke="black" stroke-width="4.758"/>
<line x1="3595.83828" y1="717.963461" x2="3392.430112" y2="717.963461" stroke="black" stroke-width="4.758"/>
<line x1="3392.430112" y1="717.963461" x2="3392.430112" y2="514.138474" stroke="black" stroke-width="4.758"/>
<line x1="3392.430112" y1="514.138474" x2="3595.83828" y2="514.138474" stroke="black" stroke-width="4.758"/>
<line x1="3595.83828" y1="514.138474" x2="3595.83828" y2="717.963461" stroke="black" stroke-width="4.758"/>
<line x1="3596.255103" y1="718.380284" x2="3392.430112" y2="514.138474" stroke="black" stroke-width="4.758"/>
<line x1="3595.83828" y1="514.555297" x2="3392.846935" y2="717.963461" stroke="black" stroke-width="4.758"/>
<line x1="1398.302522" y1="595.657208" x2="1588.622541" y2="595.657208" stroke="black" stroke-width="4.758"/>
<line x1="1588.622541" y1="595.657208" x2="1588.622541" y2="131.276361" stroke="black" stroke-width="4.758"/>
<line x1="1588.622541" y1="131.276361" x2="1398.302522" y2="131.276361" stroke="black" stroke-width="4.758"/>
<line x1="1398.302522" y1="131.276361" x2="1398.302522" y2="155.066364" stroke="black" stroke-width="4.758"/>
<line x1="1398.302522" y1="155.066364" x2="1565.784138" y2="155.066364" stroke="black" stroke-width="4.758"/>
<line x1="1565.784138" y1="155.066364" x2="1565.784138" y2="570.915606" stroke="black" stroke-width="4.758"/>
<line x1="1565.784138" y1="570.915606" x2="1398.302522" y2="570.915606" stroke="black" stroke-width="4.758"/>
<line x1="1398.302522" y1="570.915606" x2="1398.302522" y2="595.657208" stroke="black" stroke-width="4.758"/>
<line x1="1404.012122" y1="570.915606" x2="1404.012122" y2="155.066364" stroke="black" stroke-width="4.758"/>
<line x1="1403.060522" y1="363.466785" x2="1564.832538" y2="363.466785" stroke="black" stroke-width="4.758"/>
<line x1="2815.325991" y1="1479.227638" x2="2833.938328" y2="1503.92704" stroke="black" stroke-width="4.758"/>
<line x1="2833.938328" y1="1503.92704" x2="3001.514277" y2="1377.649504" stroke="black" stroke-width="4.758"/>
<line x1="3001.514277" y1="1377.649504" x2="2982.901944" y2="1352.950102" stroke="black" stroke-width="4.758"/>
<line x1="2982.901944" y1="1352.950102" x2="2815.325991" y2="1479.227638" stroke="black" stroke-width="4.758"/>
<line x1="2938.167404" y1="1642.243695" x2="2956.779741" y2="1666.943097" stroke="black" stroke-width="4.758"/>
<line x1="2956.779741" y1="1666.943097" x2="3124.355686" y2="1540.665561" stroke="black" stroke-width="4.758"/>
<line x1="3124.355686" y1="1540.665561" x2="3105.743353" y2="1515.96616" stroke="black" stroke-width="4.758"/>
<line x1="3105.743353" y1="1515.96616" x2="2938.167404" y2="1642.243695" stroke="black" stroke-width="4.758"/>
<line x1="2833.651985" y1="1503.547043" x2="2938.167404" y2="1642.243695" stroke="black" stroke-width="4.758"/>
<line x1="3000.181609" y1="1377.462211" x2="3037.116346" y2="1382.992792" stroke="black" stroke-width="4.758"/>
<line x1="3110.133969" y1="1479.890454" x2="3105.269716" y2="1516.918839" stroke="black" stroke-width="4.758"/>
<line x1="3035.970972" y1="1381.472831" x2="3111.279343" y2="1481.410415" stroke="black" stroke-width="4.758"/>
<line x1="2869.657462" y1="1477.010736" x2="2974.172885" y2="1615.707388" stroke="black" stroke-width="4.758"/>
<line x1="2915.283325" y1="1004.582722" x2="2795.203935" y2="1176.073862" stroke="black" stroke-width="4.758"/>
<line x1="2795.203935" y1="1176.073862" x2="2985.403198" y2="1309.252815" stroke="black" stroke-width="4.758"/>
<line x1="2985.403198" y1="1309.252815" x2="3105.482583" y2="1137.76168" stroke="black" stroke-width="4.758"/>
<line x1="3105.482583" y1="1137.76168" x2="2915.283325" y2="1004.582722" stroke="black" stroke-width="4.758"/>
<line x1="2941.786498" y1="1023.140448" x2="2821.707113" y2="1194.631584" stroke="black" stroke-width="4.758"/>
<line x1="777.483095" y1="904.061226" x2="997.841944" y2="904.061226" stroke="black" stroke-width="4.757996"/>
<line x1="997.841944" y1="904.061226" x2="997.841944" y2="1124.871631" stroke="black" stroke-width="4.757996"/>
<line x1="997.841944" y1="1124.871631" x2="777.483095" y2="1124.871631" stroke="black" stroke-width="4.757996"/>
<line x1="777.483095" y1="1124.871631" x2="777.483095" y2="904.061226" stroke="black" stroke-width="4.757996"/>
<line x1="777.031543" y1="903.60967" x2="997.841944" y2="1124.871631" stroke="black" stroke-width="4.757996"/>
<line x1="777.483095" y1="1124.420075" x2="997.390388" y2="904.061226" stroke="black" stroke-width="4.757996"/>
<line x1="983.956195" y1="1974.352173" x2="1216.146619" y2="1974.352173" stroke="black" stroke-width="4.758"/>
<line x1="1216.146619" y1="1974.352173" x2="1216.146619" y2="2207.018396" stroke="black" stroke-width="4.758"/>
<line x1="1216.146619" y1="2207.018396" x2="983.956195" y2="2207.018396" stroke="black" stroke-width="4.758"/>
<line x1="983.956195" y1="2207.018396" x2="983.956195" y2="1974.352173" stroke="black" stroke-width="4.758"/>
<line x1="983.480395" y1="1973.876373" x2="1216.146619" y2="2207.018396" stroke="black" stroke-width="4.758"/>
<line x1="983.956195" y1="2206.542596" x2="1215.670819" y2="1974.352173" stroke="black" stroke-width="4.758"/>
<line x1="373.832503" y1="1522.052933" x2="373.832503" y2="1161.21801" stroke="black" stroke-width="4.758005"/>
<line x1="373.832503" y1="1161.21801" x2="213.136786" y2="1161.21801" stroke="black" stroke-width="4.758005"/>
<line x1="213.136786" y1="1161.21801" x2="213.136786" y2="1522.052933" stroke="black" stroke-width="4.758005"/>
<line x1="213.136786" y1="1522.052933" x2="373.832503" y2="1522.052933" stroke="black" stroke-width="4.758005"/>
<line x1="237.971579" y1="1230.609341" x2="237.971579" y2="1492.835532" stroke="black" stroke-width="4.758005"/>
<line x1="237.971579" y1="1492.835532" x2="346.806404" y2="1492.835532" stroke="black" stroke-width="4.758005"/>
<line x1="346.806404" y1="1492.835532" x2="346.806404" y2="1225.496297" stroke="black" stroke-width="4.758005"/>
<path d="m 237.73601,1231.356907 a 58.434804782169536,58.434804782169536 0 0 1 110.09494500000002,-3.9600400000001628" fill="none" stroke="black" stroke-width="4.758005"/>
<line x1="619.394498" y1="130.465104" x2="839.753347" y2="130.465104" stroke="black" stroke-width="4.757996"/>
<line x1="839.753347" y1="130.465104" x2="839.753347" y2="351.27551" stroke="black" stroke-width="4.757996"/>
<line x1="839.753347" y1="351.27551" x2="619.394498" y2="351.27551" stroke="black" stroke-width="4.757996"/>
<line x1="619.394498" y1="351.27551" x2="619.394498" y2="130.465104" stroke="black" stroke-width="4.757996"/>
<line x1="618.942946" y1="130.013548" x2="839.753347" y2="351.27551" stroke="black" stroke-width="4.757996"/>
<line x1="619.394498" y1="350.823953" x2="839.301791" y2="130.465104" stroke="black" stroke-width="4.757996"/>
<line x1="591.655716" y1="563.450735" x2="621.528906" y2="571.455233" stroke="black" stroke-width="4.758"/>
<line x1="621.528906" y1="571.455233" x2="675.83634" y2="368.777123" stroke="black" stroke-width="4.758"/>
<line x1="675.83634" y1="368.777123" x2="645.963151" y2="360.772624" stroke="black" stroke-width="4.758"/>
<line x1="645.963151" y1="360.772624" x2="591.655716" y2="563.450735" stroke="black" stroke-width="4.758"/>
<line x1="788.818776" y1="616.280422" x2="818.691965" y2="624.284916" stroke="black" stroke-width="4.758"/>
<line x1="818.691965" y1="624.284916" x2="872.999404" y2="421.606806" stroke="black" stroke-width="4.758"/>
<line x1="872.999404" y1="421.606806" x2="843.12621" y2="413.602307" stroke="black" stroke-width="4.758"/>
<line x1="843.12621" y1="413.602307" x2="788.818776" y2="616.280422" stroke="black" stroke-width="4.758"/>
<line x1="621.069319" y1="571.332089" x2="788.818776" y2="616.280422" stroke="black" stroke-width="4.758"/>
<line x1="674.670873" y1="369.450005" x2="707.180814" y2="351.068872" stroke="black" stroke-width="4.758"/>
<line x1="824.375639" y1="382.471128" x2="843.339509" y2="414.644631" stroke="black" stroke-width="4.758"/>
<line x1="705.342464" y1="350.576286" x2="826.21399" y2="382.963714" stroke="black" stroke-width="4.758"/>
<line x1="633.104641" y1="528.254003" x2="800.854098" y2="573.202336" stroke="black" stroke-width="4.758"/>
<line x1="429.340922" y1="2298.092222" x2="210.279051" y2="2298.092222" stroke="black" stroke-width="4.758"/>
<line x1="210.279051" y1="2298.092222" x2="210.279051" y2="2644.646694" stroke="black" stroke-width="4.758"/>
<line x1="210.279051" y1="2644.646694" x2="429.340922" y2="2644.646694" stroke="black" stroke-width="4.758"/>
<line x1="429.340922" y1="2644.646694" x2="429.340922" y2="2298.092222" stroke="black" stroke-width="4.758"/>
<line x1="430.0453" y1="2582.66134" x2="209.574674" y2="2582.66134" stroke="black" stroke-width="4.758"/>
<line x1="209.574674" y1="2582.66134" x2="428.636544" y2="2530.537295" stroke="black" stroke-width="4.758"/>
<line x1="428.636544" y1="2530.537295" x2="395.53073" y2="2481.935144" stroke="black" stroke-width="4.758"/>
<line x1="395.53073" y1="2481.935144" x2="209.574674" y2="2583.365718" stroke="black" stroke-width="4.758"/>
<line x1="566.835259" y1="2507.863361" x2="566.835259" y2="2643.468802" stroke="black" stroke-width="4.758"/>
<line x1="566.835259" y1="2643.468802" x2="430.951933" y2="2643.468802" stroke="black" stroke-width="4.758"/>
<line x1="430.951933" y1="2643.468802" x2="430.951933" y2="2507.863361" stroke="black" stroke-width="4.758"/>
<line x1="430.951933" y1="2507.863361" x2="566.835259" y2="2507.863361" stroke="black" stroke-width="4.758"/>
<line x1="567.113139" y1="2507.585481" x2="430.951933" y2="2643.468802" stroke="black" stroke-width="4.758"/>
<line x1="431.229813" y1="2507.863361" x2="566.835259" y2="2643.190926" stroke="black" stroke-width="4.758"/>
<line x1="1217.492208" y1="2297.808777" x2="998.430337" y2="2297.808777" stroke="black" stroke-width="4.758"/>
<line x1="998.430337" y1="2297.808777" x2="998.430337" y2="2644.363249" stroke="black" stroke-width="4.758"/>
<line x1="998.430337" y1="2644.363249" x2="1217.492208" y2="2644.363249" stroke="black" stroke-width="4.758"/>
<line x1="1217.492208" y1="2644.363249" x2="1217.492208" y2="2297.808777" stroke="black" stroke-width="4.758"/>
<line x1="1218.196586" y1="2582.377895" x2="997.725959" y2="2582.377895" stroke="black" stroke-width="4.758"/>
<line x1="997.725959" y1="2582.377895" x2="1216.78783" y2="2530.25385" stroke="black" stroke-width="4.758"/>
<line x1="1216.78783" y1="2530.25385" x2="1183.682015" y2="2481.651699" stroke="black" stroke-width="4.758"/>
<line x1="1183.682015" y1="2481.651699" x2="997.725959" y2="2583.082273" stroke="black" stroke-width="4.758"/>
<line x1="996.284272" y1="2508.288863" x2="996.284272" y2="2643.894304" stroke="black" stroke-width="4.758"/>
<line x1="996.284272" y1="2643.894304" x2="860.400946" y2="2643.894304" stroke="black" stroke-width="4.758"/>
<line x1="860.400946" y1="2643.894304" x2="860.400946" y2="2508.288863" stroke="black" stroke-width="4.758"/>
<line x1="860.400946" y1="2508.288863" x2="996.284272" y2="2508.288863" stroke="black" stroke-width="4.758"/>
<line x1="996.562152" y1="2508.010982" x2="860.400946" y2="2643.894304" stroke="black" stroke-width="4.758"/>
<line x1="860.678826" y1="2508.288863" x2="996.284272" y2="2643.616428" stroke="black" stroke-width="4.758"/>
<line x1="1661.943566" y1="2607.239065" x2="1882.302415" y2="2607.239065" stroke="black" stroke-width="4.757996"/>
<line x1="1882.302415" y1="2607.239065" x2="1882.302415" y2="2828.04947" stroke="black" stroke-width="4.757996"/>
<line x1="1882.302415" y1="2828.04947" x2="1661.943566" y2="2828.04947" stroke="black" stroke-width="4.757996"/>
<line x1="1661.943566" y1="2828.04947" x2="1661.943566" y2="2607.239065" stroke="black" stroke-width="4.757996"/>
<line x1="1661.492014" y1="2606.787508" x2="1882.302415" y2="2828.04947" stroke="black" stroke-width="4.757996"/>
<line x1="1661.943566" y1="2827.597914" x2="1881.850859" y2="2607.239065" stroke="black" stroke-width="4.757996"/>
<line x1="1841.683678" y1="2318.193562" x2="1813.008663" y2="2329.77902" stroke="black" stroke-width="4.758"/>
<line x1="1813.008663" y1="2329.77902" x2="1891.611549" y2="2524.32799" stroke="black" stroke-width="4.758"/>
<line x1="1891.611549" y1="2524.32799" x2="1920.286564" y2="2512.742532" stroke="black" stroke-width="4.758"/>
<line x1="1920.286564" y1="2512.742532" x2="1841.683678" y2="2318.193562" stroke="black" stroke-width="4.758"/>
<line x1="1652.428561" y1="2394.65759" x2="1623.753541" y2="2406.243053" stroke="black" stroke-width="4.758"/>
<line x1="1623.753541" y1="2406.243053" x2="1702.356427" y2="2600.792018" stroke="black" stroke-width="4.758"/>
<line x1="1702.356427" y1="2600.792018" x2="1731.031447" y2="2589.20656" stroke="black" stroke-width="4.758"/>
<line x1="1731.031447" y1="2589.20656" x2="1652.428561" y2="2394.65759" stroke="black" stroke-width="4.758"/>
<line x1="1813.449817" y1="2329.600785" x2="1652.428561" y2="2394.65759" stroke="black" stroke-width="4.758"/>
<line x1="1892.137378" y1="2523.089205" x2="1877.235827" y2="2557.334001" stroke="black" stroke-width="4.758"/>
<line x1="1764.741528" y1="2602.784651" x2="1730.233816" y2="2588.502491" stroke="black" stroke-width="4.758"/>
<line x1="1879.000446" y1="2556.62105" x2="1762.976909" y2="2603.497602" stroke="black" stroke-width="4.758"/>
<line x1="1829.763019" y1="2371.24751" x2="1668.741766" y2="2436.30432" stroke="black" stroke-width="4.758"/>
<line x1="2808.66057" y1="2475.357719" x2="2978.167377" y2="2475.357719" stroke="black" stroke-width="4.758005"/>
<line x1="2978.167377" y1="2475.357719" x2="2978.167377" y2="2645.211874" stroke="black" stroke-width="4.758005"/>
<line x1="2978.167377" y1="2645.211874" x2="2808.66057" y2="2645.211874" stroke="black" stroke-width="4.758005"/>
<line x1="2808.66057" y1="2645.211874" x2="2808.66057" y2="2475.357719" stroke="black" stroke-width="4.758005"/>
<line x1="2808.313218" y1="2475.010368" x2="2978.167377" y2="2645.211874" stroke="black" stroke-width="4.758005"/>
<line x1="2808.66057" y1="2644.864526" x2="2977.820025" y2="2475.357719" stroke="black" stroke-width="4.758005"/>
<line x1="3266.406297" y1="2337.896583" x2="3435.913104" y2="2337.896583" stroke="black" stroke-width="4.758005"/>
<line x1="3435.913104" y1="2337.896583" x2="3435.913104" y2="2507.750737" stroke="black" stroke-width="4.758005"/>
<line x1="3435.913104" y1="2507.750737" x2="3266.406297" y2="2507.750737" stroke="black" stroke-width="4.758005"/>
<line x1="3266.406297" y1="2507.750737" x2="3266.406297" y2="2337.896583" stroke="black" stroke-width="4.758005"/>
<line x1="3266.058945" y1="2337.549231" x2="3435.913104" y2="2507.750737" stroke="black" stroke-width="4.758005"/>
<line x1="3266.406297" y1="2507.40339" x2="3435.565752" y2="2337.896583" stroke="black" stroke-width="4.758005"/>
<line x1="3434.14941" y1="2338.590075" x2="3603.656217" y2="2338.590075" stroke="black" stroke-width="4.758005"/>
<line x1="3603.656217" y1="2338.590075" x2="3603.656217" y2="2508.444229" stroke="black" stroke-width="4.758005"/>
<line x1="3603.656217" y1="2508.444229" x2="3434.14941" y2="2508.444229" stroke="black" stroke-width="4.758005"/>
<line x1="3434.14941" y1="2508.444229" x2="3434.14941" y2="2338.590075" stroke="black" stroke-width="4.758005"/>
<line x1="3433.802058" y1="2338.242723" x2="3603.656217" y2="2508.444229" stroke="black" stroke-width="4.758005"/>
<line x1="3434.14941" y1="2508.096882" x2="3603.308865" y2="2338.590075" stroke="black" stroke-width="4.758005"/>
<line x1="2976.846071" y1="2474.847604" x2="3146.352878" y2="2474.847604" stroke="black" stroke-width="4.758005"/>
<line x1="3146.352878" y1="2474.847604" x2="3146.352878" y2="2644.701759" stroke="black" stroke-width="4.758005"/>
<line x1="3146.352878" y1="2644.701759" x2="2976.846071" y2="2644.701759" stroke="black" stroke-width="4.758005"/>
<line x1="2976.846071" y1="2644.701759" x2="2976.846071" y2="2474.847604" stroke="black" stroke-width="4.758005"/>
<line x1="2976.498719" y1="2474.500253" x2="3146.352878" y2="2644.701759" stroke="black" stroke-width="4.758005"/>
<line x1="2976.846071" y1="2644.354411" x2="3146.005526" y2="2474.847604" stroke="black" stroke-width="4.758005"/>
</g>
</svg>
