<?xml version="1.0"?>
<svg xmlns:xlink="http://www.w3.org/1999/xlink" width="5498.133887999999" height="2960.5336319999997">
<image x="0" y="0" width="5498.133887999999" height="2960.5336319999997" xlink:href="ground16-07.png"/>
<g style="stroke-linecap:round">
<line x1="1294.244566" y1="1161.032193" x2="1316.799022" y2="1161.032193" stroke="black" stroke-width="4.758"/>
<line x1="1316.799022" y1="1161.032193" x2="1316.799022" y2="1117.023503" stroke="black" stroke-width="4.758"/>
<line x1="1316.799022" y1="1117.023503" x2="1294.244566" y2="1117.023503" stroke="black" stroke-width="4.758"/>
<line x1="1294.244566" y1="1117.023503" x2="1294.244566" y2="1161.032193" stroke="black" stroke-width="4.758"/>
<line x1="1537.39259" y1="1117.023503" x2="1537.39259" y2="897.530148" stroke="black" stroke-width="4.758"/>
<line x1="1537.942699" y1="1162.13241" x2="1560.497154" y2="1162.13241" stroke="black" stroke-width="4.758"/>
<line x1="1560.497154" y1="1162.13241" x2="1560.497154" y2="1118.12372" stroke="black" stroke-width="4.758"/>
<line x1="1560.497154" y1="1118.12372" x2="1537.942699" y2="1118.12372" stroke="black" stroke-width="4.758"/>
<line x1="1537.942699" y1="1118.12372" x2="1537.942699" y2="1162.13241" stroke="black" stroke-width="4.758"/>
<path d="m 1316.799022,1118.673829 a 220.59357050000006,220.59357050000006 0 0 1 220.593568,-220.5935730000001" fill="none" stroke="black" stroke-width="4.758"/>
<line x1="1546.852786" y1="1890.830668" x2="1524.29833" y2="1890.830668" stroke="black" stroke-width="4.758"/>
<line x1="1524.29833" y1="1890.830668" x2="1524.29833" y2="1934.839358" stroke="black" stroke-width="4.758"/>
<line x1="1524.29833" y1="1934.839358" x2="1546.852786" y2="1934.839358" stroke="black" stroke-width="4.758"/>
<line x1="1546.852786" y1="1934.839358" x2="1546.852786" y2="1890.830668" stroke="black" stroke-width="4.758"/>
<line x1="1303.704762" y1="1934.839358" x2="1303.704762" y2="2154.332713" stroke="black" stroke-width="4.758"/>
<line x1="1303.154654" y1="1889.730451" x2="1280.600198" y2="1889.730451" stroke="black" stroke-width="4.758"/>
<line x1="1280.600198" y1="1889.730451" x2="1280.600198" y2="1933.739141" stroke="black" stroke-width="4.758"/>
<line x1="1280.600198" y1="1933.739141" x2="1303.154654" y2="1933.739141" stroke="black" stroke-width="4.758"/>
<line x1="1303.154654" y1="1933.739141" x2="1303.154654" y2="1889.730451" stroke="black" stroke-width="4.758"/>
<path d="m 1524.29833,1933.189032 a 220.59357049999994,220.59357049999994 0 0 1 -220.593568,220.59357299999988" fill="none" stroke="black" stroke-width="4.758"/>
<line x1="4403.657584" y1="115.472526" x2="4618.156079" y2="115.472526" stroke="black" stroke-width="4.758"/>
<line x1="4618.156079" y1="115.472526" x2="4618.156079" y2="82.405824" stroke="black" stroke-width="4.758"/>
<line x1="4618.156079" y1="82.405824" x2="4403.657584" y2="82.405824" stroke="black" stroke-width="4.758"/>
<line x1="4403.657584" y1="82.405824" x2="4403.657584" y2="115.472526" stroke="black" stroke-width="4.758"/>
<line x1="4423.671642" y1="82.840912" x2="4423.671642" y2="115.037438" stroke="black" stroke-width="4.758"/>
<line x1="4597.706933" y1="82.840912" x2="4597.706933" y2="116.342703" stroke="black" stroke-width="4.758"/>
<line x1="4423.236554" y1="98.068998" x2="4597.271845" y2="98.068998" stroke="black" stroke-width="4.758"/>
<line x1="2442.746697" y1="110.676514" x2="2657.23038" y2="110.676514" stroke="black" stroke-width="4.758"/>
<line x1="2657.23038" y1="110.676514" x2="2657.23038" y2="72.31358" stroke="black" stroke-width="4.758"/>
<line x1="2657.23038" y1="72.31358" x2="2442.746697" y2="72.31358" stroke="black" stroke-width="4.758"/>
<line x1="2442.746697" y1="72.31358" x2="2442.746697" y2="110.676514" stroke="black" stroke-width="4.758"/>
<line x1="2452.773372" y1="110.676514" x2="2452.773372" y2="123.754791" stroke="black" stroke-width="4.758"/>
<line x1="2452.773372" y1="123.754791" x2="2646.767762" y2="123.754791" stroke="black" stroke-width="4.758"/>
<line x1="2646.767762" y1="110.676514" x2="2646.767762" y2="123.754791" stroke="black" stroke-width="4.758"/>
<line x1="1253.916155" y1="1507.813934" x2="1253.916155" y2="1485.259478" stroke="black" stroke-width="4.758"/>
<line x1="1253.916155" y1="1485.259478" x2="1209.907466" y2="1485.259478" stroke="black" stroke-width="4.758"/>
<line x1="1209.907466" y1="1485.259478" x2="1209.907466" y2="1507.813934" stroke="black" stroke-width="4.758"/>
<line x1="1209.907466" y1="1507.813934" x2="1253.916155" y2="1507.813934" stroke="black" stroke-width="4.758"/>
<line x1="1209.907466" y1="1264.66591" x2="990.414111" y2="1264.66591" stroke="black" stroke-width="4.758"/>
<line x1="1255.016372" y1="1264.115802" x2="1255.016372" y2="1241.561346" stroke="black" stroke-width="4.758"/>
<line x1="1255.016372" y1="1241.561346" x2="1211.007683" y2="1241.561346" stroke="black" stroke-width="4.758"/>
<line x1="1211.007683" y1="1241.561346" x2="1211.007683" y2="1264.115802" stroke="black" stroke-width="4.758"/>
<line x1="1211.007683" y1="1264.115802" x2="1255.016372" y2="1264.115802" stroke="black" stroke-width="4.758"/>
<path d="m 1211.557792,1485.259478 a 220.59357050000006,220.59357050000006 0 0 1 -220.5935730000001,-220.593568" fill="none" stroke="black" stroke-width="4.758"/>
<line x1="1253.394872" y1="1837.912218" x2="1253.394872" y2="1815.357762" stroke="black" stroke-width="4.758"/>
<line x1="1253.394872" y1="1815.357762" x2="1209.386183" y2="1815.357762" stroke="black" stroke-width="4.758"/>
<line x1="1209.386183" y1="1815.357762" x2="1209.386183" y2="1837.912218" stroke="black" stroke-width="4.758"/>
<line x1="1209.386183" y1="1837.912218" x2="1253.394872" y2="1837.912218" stroke="black" stroke-width="4.758"/>
<line x1="1209.386183" y1="1594.764194" x2="989.892827" y2="1594.764194" stroke="black" stroke-width="4.758"/>
<line x1="1254.495089" y1="1594.214086" x2="1254.495089" y2="1571.65963" stroke="black" stroke-width="4.758"/>
<line x1="1254.495089" y1="1571.65963" x2="1210.4864" y2="1571.65963" stroke="black" stroke-width="4.758"/>
<line x1="1210.4864" y1="1571.65963" x2="1210.4864" y2="1594.214086" stroke="black" stroke-width="4.758"/>
<line x1="1210.4864" y1="1594.214086" x2="1254.495089" y2="1594.214086" stroke="black" stroke-width="4.758"/>
<path d="m 1211.036509,1815.357762 a 220.5935705,220.5935705 0 0 1 -220.593573,-220.593568" fill="none" stroke="black" stroke-width="4.758"/>
<line x1="2469.579154" y1="1558.52728" x2="2492.277729" y2="1558.52728" stroke="black" stroke-width="4.758"/>
<line x1="2492.277729" y1="1558.52728" x2="2492.277729" y2="1514.237384" stroke="black" stroke-width="4.758"/>
<line x1="2492.277729" y1="1514.237384" x2="2469.579154" y2="1514.237384" stroke="black" stroke-width="4.758"/>
<line x1="2469.579154" y1="1514.237384" x2="2469.579154" y2="1558.52728" stroke="black" stroke-width="4.758"/>
<line x1="2714.280841" y1="1514.237384" x2="2714.280841" y2="1293.341516" stroke="black" stroke-width="4.758"/>
<line x1="2714.834465" y1="1559.634529" x2="2737.53304" y2="1559.634529" stroke="black" stroke-width="4.758"/>
<line x1="2737.53304" y1="1559.634529" x2="2737.53304" y2="1515.344628" stroke="black" stroke-width="4.758"/>
<line x1="2737.53304" y1="1515.344628" x2="2714.834465" y2="1515.344628" stroke="black" stroke-width="4.758"/>
<line x1="2714.834465" y1="1515.344628" x2="2714.834465" y2="1559.634529" stroke="black" stroke-width="4.758"/>
<path d="m 2492.277729,1515.898252 a 222.00311199999987,222.00311199999987 0 0 1 222.00311199999987,-222.00311199999987" fill="none" stroke="black" stroke-width="4.758"/>
<line x1="191.38945" y1="532.258913" x2="191.38945" y2="311.81735" stroke="black" stroke-width="4.758"/>
<line x1="191.38945" y1="311.81735" x2="151.960878" y2="311.81735" stroke="black" stroke-width="4.758"/>
<line x1="151.960878" y1="311.81735" x2="151.960878" y2="532.258913" stroke="black" stroke-width="4.758"/>
<line x1="151.960878" y1="532.258913" x2="191.38945" y2="532.258913" stroke="black" stroke-width="4.758"/>
<line x1="191.38945" y1="521.953719" x2="204.831009" y2="521.953719" stroke="black" stroke-width="4.758"/>
<line x1="204.831009" y1="521.953719" x2="204.831009" y2="322.570594" stroke="black" stroke-width="4.758"/>
<line x1="191.38945" y1="322.570594" x2="204.831009" y2="322.570594" stroke="black" stroke-width="4.758"/>
<line x1="196.592134" y1="2237.226342" x2="196.592134" y2="2016.769557" stroke="black" stroke-width="4.758005"/>
<line x1="196.592134" y1="2016.769557" x2="162.606909" y2="2016.769557" stroke="black" stroke-width="4.758005"/>
<line x1="162.606909" y1="2016.769557" x2="162.606909" y2="2237.226342" stroke="black" stroke-width="4.758005"/>
<line x1="162.606909" y1="2237.226342" x2="196.592134" y2="2237.226342" stroke="black" stroke-width="4.758005"/>
<line x1="163.054082" y1="2216.656338" x2="196.144957" y2="2216.656338" stroke="black" stroke-width="4.758005"/>
<line x1="163.054082" y1="2037.786734" x2="197.48648" y2="2037.786734" stroke="black" stroke-width="4.758005"/>
<line x1="178.705172" y1="2217.103511" x2="178.705172" y2="2038.233911" stroke="black" stroke-width="4.758005"/>
<line x1="2630.64014" y1="2277.391122" x2="2605.995975" y2="2277.391122" stroke="black" stroke-width="4.758"/>
<line x1="2605.995975" y1="2277.391122" x2="2605.995975" y2="2325.477299" stroke="black" stroke-width="4.758"/>
<line x1="2605.995975" y1="2325.477299" x2="2630.64014" y2="2325.477299" stroke="black" stroke-width="4.758"/>
<line x1="2630.64014" y1="2325.477299" x2="2630.64014" y2="2277.391122" stroke="black" stroke-width="4.758"/>
<line x1="2364.964024" y1="2325.477299" x2="2364.964024" y2="2565.307097" stroke="black" stroke-width="4.758"/>
<line x1="2364.362948" y1="2276.188969" x2="2339.718783" y2="2276.188969" stroke="black" stroke-width="4.758"/>
<line x1="2339.718783" y1="2276.188969" x2="2339.718783" y2="2324.275141" stroke="black" stroke-width="4.758"/>
<line x1="2339.718783" y1="2324.275141" x2="2364.362948" y2="2324.275141" stroke="black" stroke-width="4.758"/>
<line x1="2364.362948" y1="2324.275141" x2="2364.362948" y2="2276.188969" stroke="black" stroke-width="4.758"/>
<path d="m 2605.995975,2323.674065 a 241.03195099999994,241.03195099999994 0 0 1 -241.03195099999994,241.03195099999994" fill="none" stroke="black" stroke-width="4.758"/>
<line x1="568.88256" y1="1213.185645" x2="374.921777" y2="1213.185645" stroke="black" stroke-width="4.757996"/>
<line x1="374.921777" y1="1213.185645" x2="374.921777" y2="1161.3513" stroke="black" stroke-width="4.757996"/>
<line x1="568.88256" y1="1161.3513" x2="374.921777" y2="1161.3513" stroke="black" stroke-width="4.757996"/>
<line x1="568.88256" y1="1213.185645" x2="568.88256" y2="1161.3513" stroke="black" stroke-width="4.757996"/>
<line x1="524.99057" y1="1242.446969" x2="524.99057" y2="1213.185645" stroke="black" stroke-width="4.757996"/>
<line x1="420.485839" y1="1213.185645" x2="420.485839" y2="1244.119045" stroke="black" stroke-width="4.757996"/>
<circle cx="473.574242" cy="1290.101128" r="70.2271798019802" fill="none" stroke="black" stroke-width="4.757996"/>
<circle cx="473.574242" cy="1290.101128" r="60.19472554455446" fill="none" stroke="black" stroke-width="4.757996"/>
<line x1="907.212269" y1="1292.854054" x2="636.323442" y2="1292.854054" stroke="black" stroke-width="4.758"/>
<line x1="636.323442" y1="1292.854054" x2="636.323442" y2="1160.740241" stroke="black" stroke-width="4.758"/>
<line x1="907.212269" y1="1160.740241" x2="636.323442" y2="1160.740241" stroke="black" stroke-width="4.758"/>
<line x1="907.212269" y1="1292.854054" x2="907.212269" y2="1160.740241" stroke="black" stroke-width="4.758"/>
<line x1="900.551068" y1="1286.192853" x2="762.331154" y2="1286.192853" stroke="black" stroke-width="4.758"/>
<line x1="762.331154" y1="1286.192853" x2="762.331154" y2="1167.956541" stroke="black" stroke-width="4.758"/>
<line x1="900.551068" y1="1167.956541" x2="762.331154" y2="1167.956541" stroke="black" stroke-width="4.758"/>
<line x1="900.551068" y1="1286.192853" x2="900.551068" y2="1167.956541" stroke="black" stroke-width="4.758"/>
<line x1="747.898553" y1="1278.421453" x2="650.756043" y2="1278.421453" stroke="black" stroke-width="4.758"/>
<line x1="747.898553" y1="1257.882751" x2="650.756043" y2="1257.882751" stroke="black" stroke-width="4.758"/>
<line x1="747.343453" y1="1236.788948" x2="650.200943" y2="1236.788948" stroke="black" stroke-width="4.758"/>
<line x1="747.343453" y1="1216.250246" x2="650.200943" y2="1216.250246" stroke="black" stroke-width="4.758"/>
<line x1="747.898553" y1="1195.711544" x2="650.756043" y2="1195.711544" stroke="black" stroke-width="4.758"/>
<line x1="747.898553" y1="1175.172842" x2="650.756043" y2="1175.172842" stroke="black" stroke-width="4.758"/>
<line x1="847.816563" y1="1167.956541" x2="847.816563" y2="1181.834043" stroke="black" stroke-width="4.758"/>
<line x1="847.816563" y1="1181.834043" x2="813.40036" y2="1181.834043" stroke="black" stroke-width="4.758"/>
<line x1="813.40036" y1="1181.834043" x2="813.40036" y2="1168.511641" stroke="black" stroke-width="4.758"/>
<circle cx="777.873956" cy="1271.205152" r="8.32650084" fill="none" stroke="black" stroke-width="4.758"/>
<line x1="1728.687991" y1="1314.84851" x2="1829.927121" y2="1419.684703" stroke="black" stroke-width="4.757996"/>
<line x1="1829.927121" y1="1419.684703" x2="1724.876105" y2="1521.131291" stroke="black" stroke-width="4.757996"/>
<line x1="1724.876105" y1="1521.131291" x2="1623.63697" y2="1416.295099" stroke="black" stroke-width="4.757996"/>
<line x1="1623.63697" y1="1416.295099" x2="1728.687991" y2="1314.84851" stroke="black" stroke-width="4.757996"/>
<line x1="1728.695361" y1="1314.426225" x2="1724.876105" y2="1521.131291" stroke="black" stroke-width="4.757996"/>
<line x1="1623.851798" y1="1416.087641" x2="1829.719664" y2="1419.469874" stroke="black" stroke-width="4.757996"/>
<line x1="1760.935541" y1="797.891635" x2="1760.935541" y2="1191.632065" stroke="black" stroke-width="4.758"/>
<line x1="1761.933078" y1="1195.592466" x2="1625.692484" y2="1195.592466" stroke="black" stroke-width="4.758"/>
<line x1="1624.539528" y1="798.356611" x2="1624.539528" y2="1195.89819" stroke="black" stroke-width="4.758"/>
<line x1="1760.239913" y1="799.092426" x2="1624.805055" y2="799.092426" stroke="black" stroke-width="4.758"/>
<line x1="1749.83354" y1="809.401428" x2="1749.83354" y2="933.10944" stroke="black" stroke-width="4.758"/>
<line x1="1749.83354" y1="933.10944" x2="1635.641529" y2="933.10944" stroke="black" stroke-width="4.758"/>
<line x1="1635.641529" y1="809.401428" x2="1635.641529" y2="933.10944" stroke="black" stroke-width="4.758"/>
<line x1="1749.83354" y1="809.401428" x2="1635.641529" y2="809.401428" stroke="black" stroke-width="4.758"/>
<line x1="1742.69654" y1="952.141442" x2="1742.69654" y2="1039.371451" stroke="black" stroke-width="4.758"/>
<line x1="1722.871538" y1="952.141442" x2="1722.871538" y2="1039.371451" stroke="black" stroke-width="4.758"/>
<line x1="1702.253536" y1="952.934442" x2="1702.253536" y2="1039.371451" stroke="black" stroke-width="4.758"/>
<line x1="1682.428534" y1="952.934442" x2="1682.428534" y2="1039.371451" stroke="black" stroke-width="4.758"/>
<line x1="1662.603532" y1="952.141442" x2="1662.603532" y2="1039.371451" stroke="black" stroke-width="4.758"/>
<line x1="1642.77853" y1="952.141442" x2="1642.77853" y2="1039.371451" stroke="black" stroke-width="4.758"/>
<line x1="1636.434529" y1="856.981432" x2="1649.91553" y2="856.981432" stroke="black" stroke-width="4.758"/>
<line x1="1649.91553" y1="856.981432" x2="1649.91553" y2="887.115435" stroke="black" stroke-width="4.758"/>
<line x1="1649.91553" y1="887.115435" x2="1637.227529" y2="887.115435" stroke="black" stroke-width="4.758"/>
<line x1="1749.83354" y1="1059.989453" x2="1749.83354" y2="1183.697465" stroke="black" stroke-width="4.758"/>
<line x1="1749.83354" y1="1183.697465" x2="1635.641529" y2="1183.697465" stroke="black" stroke-width="4.758"/>
<line x1="1635.641529" y1="1059.989453" x2="1635.641529" y2="1183.697465" stroke="black" stroke-width="4.758"/>
<line x1="1749.83354" y1="1059.989453" x2="1635.641529" y2="1059.989453" stroke="black" stroke-width="4.758"/>
<line x1="1635.641529" y1="1107.569458" x2="1649.12253" y2="1107.569458" stroke="black" stroke-width="4.758"/>
<line x1="1649.12253" y1="1107.569458" x2="1649.12253" y2="1137.703461" stroke="black" stroke-width="4.758"/>
<line x1="1649.12253" y1="1137.703461" x2="1636.434529" y2="1137.703461" stroke="black" stroke-width="4.758"/>
<circle cx="1735.559539" cy="918.835439" r="7.1370007200000005" fill="none" stroke="black" stroke-width="4.758"/>
<circle cx="1734.766539" cy="1169.423464" r="7.1370007200000005" fill="none" stroke="black" stroke-width="4.758"/>
<line x1="1916.681687" y1="513.872325" x2="2310.009726" y2="513.872325" stroke="black" stroke-width="4.758"/>
<line x1="2310.009726" y1="513.872325" x2="2310.009726" y2="329.103307" stroke="black" stroke-width="4.758"/>
<line x1="2310.009726" y1="329.103307" x2="1916.681687" y2="329.103307" stroke="black" stroke-width="4.758"/>
<line x1="1916.681687" y1="329.103307" x2="1916.681687" y2="513.872325" stroke="black" stroke-width="4.758"/>
<line x1="2076.074703" y1="329.103307" x2="2076.074703" y2="248.217299" stroke="black" stroke-width="4.758"/>
<line x1="2076.074703" y1="248.217299" x2="1997.567695" y2="248.217299" stroke="black" stroke-width="4.758"/>
<line x1="1997.567695" y1="248.217299" x2="1997.567695" y2="329.103307" stroke="black" stroke-width="4.758"/>
<line x1="1998.360695" y1="265.6633" x2="2076.074703" y2="265.6633" stroke="black" stroke-width="4.758"/>
<line x1="1997.567695" y1="595.551334" x2="2076.074703" y2="595.551334" stroke="black" stroke-width="4.758"/>
<line x1="2076.074703" y1="595.551334" x2="2076.074703" y2="513.872325" stroke="black" stroke-width="4.758"/>
<line x1="1997.567695" y1="513.872325" x2="1997.567695" y2="595.551334" stroke="black" stroke-width="4.758"/>
<line x1="1998.360695" y1="578.105332" x2="2076.074703" y2="578.105332" stroke="black" stroke-width="4.758"/>
<line x1="2227.537718" y1="329.103307" x2="2227.537718" y2="248.217299" stroke="black" stroke-width="4.758"/>
<line x1="2227.537718" y1="248.217299" x2="2149.03071" y2="248.217299" stroke="black" stroke-width="4.758"/>
<line x1="2149.03071" y1="248.217299" x2="2149.03071" y2="329.103307" stroke="black" stroke-width="4.758"/>
<line x1="2149.03071" y1="265.6633" x2="2227.537718" y2="265.6633" stroke="black" stroke-width="4.758"/>
<line x1="2149.03071" y1="595.551334" x2="2227.537718" y2="595.551334" stroke="black" stroke-width="4.758"/>
<line x1="2227.537718" y1="595.551334" x2="2227.537718" y2="513.872325" stroke="black" stroke-width="4.758"/>
<line x1="2149.03071" y1="513.872325" x2="2149.03071" y2="595.551334" stroke="black" stroke-width="4.758"/>
<line x1="2149.03071" y1="578.105332" x2="2227.537718" y2="578.105332" stroke="black" stroke-width="4.758"/>
<line x1="1878.886453" y1="2846.549827" x2="1664.387958" y2="2846.549827" stroke="black" stroke-width="4.758"/>
<line x1="1664.387958" y1="2846.549827" x2="1664.387958" y2="2879.616529" stroke="black" stroke-width="4.758"/>
<line x1="1664.387958" y1="2879.616529" x2="1878.886453" y2="2879.616529" stroke="black" stroke-width="4.758"/>
<line x1="1878.886453" y1="2879.616529" x2="1878.886453" y2="2846.549827" stroke="black" stroke-width="4.758"/>
<line x1="1858.872395" y1="2879.181441" x2="1858.872395" y2="2846.984915" stroke="black" stroke-width="4.758"/>
<line x1="1684.837104" y1="2879.181441" x2="1684.837104" y2="2845.67965" stroke="black" stroke-width="4.758"/>
<line x1="1859.307483" y1="2863.953355" x2="1685.272192" y2="2863.953355" stroke="black" stroke-width="4.758"/>
<line x1="3594.390901" y1="1099.655713" x2="3594.390901" y2="909.335694" stroke="black" stroke-width="4.758"/>
<line x1="3594.390901" y1="909.335694" x2="3130.010054" y2="909.335694" stroke="black" stroke-width="4.758"/>
<line x1="3130.010054" y1="909.335694" x2="3130.010054" y2="1099.655713" stroke="black" stroke-width="4.758"/>
<line x1="3130.010054" y1="1099.655713" x2="3153.800056" y2="1099.655713" stroke="black" stroke-width="4.758"/>
<line x1="3153.800056" y1="1099.655713" x2="3153.800056" y2="932.174096" stroke="black" stroke-width="4.758"/>
<line x1="3153.800056" y1="932.174096" x2="3569.649298" y2="932.174096" stroke="black" stroke-width="4.758"/>
<line x1="3569.649298" y1="932.174096" x2="3569.649298" y2="1099.655713" stroke="black" stroke-width="4.758"/>
<line x1="3569.649298" y1="1099.655713" x2="3594.390901" y2="1099.655713" stroke="black" stroke-width="4.758"/>
<line x1="3569.649298" y1="1093.946113" x2="3153.800056" y2="1093.946113" stroke="black" stroke-width="4.758"/>
<line x1="3362.200477" y1="1094.897713" x2="3362.200477" y2="933.125696" stroke="black" stroke-width="4.758"/>
<line x1="3446.748458" y1="1328.787064" x2="3405.893923" y2="1492.645657" stroke="black" stroke-width="4.757996"/>
<line x1="3405.893923" y1="1492.645657" x2="3241.699555" y2="1451.707403" stroke="black" stroke-width="4.757996"/>
<line x1="3241.699555" y1="1451.707403" x2="3282.554091" y2="1287.848809" stroke="black" stroke-width="4.757996"/>
<line x1="3282.554091" y1="1287.848809" x2="3446.748458" y2="1328.787064" stroke="black" stroke-width="4.757996"/>
<line x1="3447.167955" y1="1328.535005" x2="3241.699555" y2="1451.707403" stroke="black" stroke-width="4.757996"/>
<line x1="3282.889865" y1="1287.932528" x2="3405.977641" y2="1492.309884" stroke="black" stroke-width="4.757996"/>
<line x1="421.513809" y1="793.235486" x2="211.884233" y2="793.235486" stroke="black" stroke-width="4.758"/>
<line x1="211.884233" y1="793.235486" x2="211.884233" y2="1124.86812" stroke="black" stroke-width="4.758"/>
<line x1="211.884233" y1="1124.86812" x2="421.513809" y2="1124.86812" stroke="black" stroke-width="4.758"/>
<line x1="421.513809" y1="1124.86812" x2="421.513809" y2="793.235486" stroke="black" stroke-width="4.758"/>
<line x1="422.187859" y1="1065.551714" x2="211.210183" y2="1065.551714" stroke="black" stroke-width="4.758"/>
<line x1="211.210183" y1="1065.551714" x2="420.839759" y2="1015.672009" stroke="black" stroke-width="4.758"/>
<line x1="420.839759" y1="1015.672009" x2="389.159406" y2="969.16255" stroke="black" stroke-width="4.758"/>
<line x1="389.159406" y1="969.16255" x2="211.210183" y2="1066.225764" stroke="black" stroke-width="4.758"/>
<line x1="402.546309" y1="1557.618167" x2="212.22629" y2="1557.618167" stroke="black" stroke-width="4.758"/>
<line x1="212.22629" y1="1557.618167" x2="212.22629" y2="2021.999014" stroke="black" stroke-width="4.758"/>
<line x1="212.22629" y1="2021.999014" x2="402.546309" y2="2021.999014" stroke="black" stroke-width="4.758"/>
<line x1="402.546309" y1="2021.999014" x2="402.546309" y2="1998.209012" stroke="black" stroke-width="4.758"/>
<line x1="402.546309" y1="1998.209012" x2="235.064692" y2="1998.209012" stroke="black" stroke-width="4.758"/>
<line x1="235.064692" y1="1998.209012" x2="235.064692" y2="1582.35977" stroke="black" stroke-width="4.758"/>
<line x1="235.064692" y1="1582.35977" x2="402.546309" y2="1582.35977" stroke="black" stroke-width="4.758"/>
<line x1="402.546309" y1="1582.35977" x2="402.546309" y2="1557.618167" stroke="black" stroke-width="4.758"/>
<line x1="396.836708" y1="1582.35977" x2="396.836708" y2="1998.209012" stroke="black" stroke-width="4.758"/>
<line x1="397.788308" y1="1789.808591" x2="236.016292" y2="1789.808591" stroke="black" stroke-width="4.758"/>
<line x1="1904.015986" y1="1927.394307" x2="1904.015986" y2="2137.023878" stroke="black" stroke-width="4.758"/>
<line x1="1904.015986" y1="2137.023878" x2="2235.64862" y2="2137.023878" stroke="black" stroke-width="4.758"/>
<line x1="2235.64862" y1="2137.023878" x2="2235.64862" y2="1927.394307" stroke="black" stroke-width="4.758"/>
<line x1="2235.64862" y1="1927.394307" x2="1904.015986" y2="1927.394307" stroke="black" stroke-width="4.758"/>
<line x1="2176.332214" y1="1926.720253" x2="2176.332214" y2="2137.697924" stroke="black" stroke-width="4.758"/>
<line x1="2176.332214" y1="2137.697924" x2="2126.452509" y2="1928.068357" stroke="black" stroke-width="4.758"/>
<line x1="2126.452509" y1="1928.068357" x2="2079.943054" y2="1959.748706" stroke="black" stroke-width="4.758"/>
<line x1="2079.943054" y1="1959.748706" x2="2177.006264" y2="2137.697924" stroke="black" stroke-width="4.758"/>
<line x1="2815.325991" y1="1447.509476" x2="2826.409233" y2="1476.382323" stroke="black" stroke-width="4.758"/>
<line x1="2826.409233" y1="1476.382323" x2="3022.300382" y2="1401.186755" stroke="black" stroke-width="4.758"/>
<line x1="3022.300382" y1="1401.186755" x2="3011.217135" y2="1372.313913" stroke="black" stroke-width="4.758"/>
<line x1="3011.217135" y1="1372.313913" x2="2815.325991" y2="1447.509476" stroke="black" stroke-width="4.758"/>
<line x1="2888.475415" y1="1638.070255" x2="2899.558662" y2="1666.943097" stroke="black" stroke-width="4.758"/>
<line x1="2899.558662" y1="1666.943097" x2="3095.449811" y2="1591.747529" stroke="black" stroke-width="4.758"/>
<line x1="3095.449811" y1="1591.747529" x2="3084.366564" y2="1562.874687" stroke="black" stroke-width="4.758"/>
<line x1="3084.366564" y1="1562.874687" x2="2888.475415" y2="1638.070255" stroke="black" stroke-width="4.758"/>
<line x1="2826.238725" y1="1475.938124" x2="2888.475415" y2="1638.070255" stroke="black" stroke-width="4.758"/>
<line x1="3021.070963" y1="1400.639383" x2="3055.050474" y2="1416.136318" stroke="black" stroke-width="4.758"/>
<line x1="3098.530902" y1="1529.406709" x2="3083.648679" y2="1563.659907" stroke="black" stroke-width="4.758"/>
<line x1="3054.368428" y1="1414.359526" x2="3099.212953" y2="1531.183501" stroke="black" stroke-width="4.758"/>
<line x1="2868.163811" y1="1460.35424" x2="2930.400501" y2="1622.486371" stroke="black" stroke-width="4.758"/>
<line x1="983.956195" y1="1974.352173" x2="1216.146619" y2="1974.352173" stroke="black" stroke-width="4.758"/>
<line x1="1216.146619" y1="1974.352173" x2="1216.146619" y2="2207.018396" stroke="black" stroke-width="4.758"/>
<line x1="1216.146619" y1="2207.018396" x2="983.956195" y2="2207.018396" stroke="black" stroke-width="4.758"/>
<line x1="983.956195" y1="2207.018396" x2="983.956195" y2="1974.352173" stroke="black" stroke-width="4.758"/>
<line x1="983.480395" y1="1973.876373" x2="1216.146619" y2="2207.018396" stroke="black" stroke-width="4.758"/>
<line x1="983.956195" y1="2206.542596" x2="1215.670819" y2="1974.352173" stroke="black" stroke-width="4.758"/>
<line x1="1398.302522" y1="595.657208" x2="1588.622541" y2="595.657208" stroke="black" stroke-width="4.758"/>
<line x1="1588.622541" y1="595.657208" x2="1588.622541" y2="131.276361" stroke="black" stroke-width="4.758"/>
<line x1="1588.622541" y1="131.276361" x2="1398.302522" y2="131.276361" stroke="black" stroke-width="4.758"/>
<line x1="1398.302522" y1="131.276361" x2="1398.302522" y2="155.066364" stroke="black" stroke-width="4.758"/>
<line x1="1398.302522" y1="155.066364" x2="1565.784138" y2="155.066364" stroke="black" stroke-width="4.758"/>
<line x1="1565.784138" y1="155.066364" x2="1565.784138" y2="570.915606" stroke="black" stroke-width="4.758"/>
<line x1="1565.784138" y1="570.915606" x2="1398.302522" y2="570.915606" stroke="black" stroke-width="4.758"/>
<line x1="1398.302522" y1="570.915606" x2="1398.302522" y2="595.657208" stroke="black" stroke-width="4.758"/>
<line x1="1404.012122" y1="570.915606" x2="1404.012122" y2="155.066364" stroke="black" stroke-width="4.758"/>
<line x1="1403.060522" y1="363.466785" x2="1564.832538" y2="363.466785" stroke="black" stroke-width="4.758"/>
<line x1="3595.987959" y1="741.912429" x2="3392.57979" y2="741.912429" stroke="black" stroke-width="4.758"/>
<line x1="3392.57979" y1="741.912429" x2="3392.57979" y2="538.087442" stroke="black" stroke-width="4.758"/>
<line x1="3392.57979" y1="538.087442" x2="3595.987959" y2="538.087442" stroke="black" stroke-width="4.758"/>
<line x1="3595.987959" y1="538.087442" x2="3595.987959" y2="741.912429" stroke="black" stroke-width="4.758"/>
<line x1="3596.404782" y1="742.329252" x2="3392.57979" y2="538.087442" stroke="black" stroke-width="4.758"/>
<line x1="3595.987959" y1="538.504265" x2="3392.996613" y2="741.912429" stroke="black" stroke-width="4.758"/>
<line x1="2949.40748" y1="1004.582718" x2="2929.117542" y2="1027.923627" stroke="black" stroke-width="4.758"/>
<line x1="2929.117542" y1="1027.923627" x2="3087.476609" y2="1165.583061" stroke="black" stroke-width="4.758"/>
<line x1="3087.476609" y1="1165.583061" x2="3107.766547" y2="1142.242157" stroke="black" stroke-width="4.758"/>
<line x1="3107.766547" y1="1142.242157" x2="2949.40748" y2="1004.582718" stroke="black" stroke-width="4.758"/>
<line x1="2815.493878" y1="1158.632693" x2="2795.20394" y2="1181.973602" stroke="black" stroke-width="4.758"/>
<line x1="2795.20394" y1="1181.973602" x2="2953.563007" y2="1319.633037" stroke="black" stroke-width="4.758"/>
<line x1="2953.563007" y1="1319.633037" x2="2973.852945" y2="1296.292132" stroke="black" stroke-width="4.758"/>
<line x1="2973.852945" y1="1296.292132" x2="2815.493878" y2="1158.632693" stroke="black" stroke-width="4.758"/>
<line x1="2929.429693" y1="1027.564534" x2="2815.493878" y2="1158.632693" stroke="black" stroke-width="4.758"/>
<line x1="3087.382735" y1="1164.240574" x2="3089.652165" y2="1201.518071" stroke="black" stroke-width="4.758"/>
<line x1="3010.053174" y1="1293.08624" x2="2972.822613" y2="1296.026918" stroke="black" stroke-width="4.758"/>
<line x1="3090.900775" y1="1200.08171" x2="3008.80456" y2="1294.522601" stroke="black" stroke-width="4.758"/>
<line x1="2962.872084" y1="1057.266" x2="2848.936264" y2="1188.334159" stroke="black" stroke-width="4.758"/>
<line x1="777.483095" y1="904.061226" x2="997.841944" y2="904.061226" stroke="black" stroke-width="4.757996"/>
<line x1="997.841944" y1="904.061226" x2="997.841944" y2="1124.871631" stroke="black" stroke-width="4.757996"/>
<line x1="997.841944" y1="1124.871631" x2="777.483095" y2="1124.871631" stroke="black" stroke-width="4.757996"/>
<line x1="777.483095" y1="1124.871631" x2="777.483095" y2="904.061226" stroke="black" stroke-width="4.757996"/>
<line x1="777.031543" y1="903.60967" x2="997.841944" y2="1124.871631" stroke="black" stroke-width="4.757996"/>
<line x1="777.483095" y1="1124.420075" x2="997.390388" y2="904.061226" stroke="black" stroke-width="4.757996"/>
<line x1="373.832503" y1="1522.052933" x2="373.832503" y2="1161.21801" stroke="black" stroke-width="4.758005"/>
<line x1="373.832503" y1="1161.21801" x2="213.136786" y2="1161.21801" stroke="black" stroke-width="4.758005"/>
<line x1="213.136786" y1="1161.21801" x2="213.136786" y2="1522.052933" stroke="black" stroke-width="4.758005"/>
<line x1="213.136786" y1="1522.052933" x2="373.832503" y2="1522.052933" stroke="black" stroke-width="4.758005"/>
<line x1="237.971579" y1="1230.609341" x2="237.971579" y2="1492.835532" stroke="black" stroke-width="4.758005"/>
<line x1="237.971579" y1="1492.835532" x2="346.806404" y2="1492.835532" stroke="black" stroke-width="4.758005"/>
<line x1="346.806404" y1="1492.835532" x2="346.806404" y2="1225.496297" stroke="black" stroke-width="4.758005"/>
<path d="m 237.73601,1231.356907 a 58.434804782169536,58.434804782169536 0 0 1 110.09494500000002,-3.9600400000001628" fill="none" stroke="black" stroke-width="4.758005"/>
<line x1="619.394498" y1="130.465104" x2="839.753347" y2="130.465104" stroke="black" stroke-width="4.757996"/>
<line x1="839.753347" y1="130.465104" x2="839.753347" y2="351.27551" stroke="black" stroke-width="4.757996"/>
<line x1="839.753347" y1="351.27551" x2="619.394498" y2="351.27551" stroke="black" stroke-width="4.757996"/>
<line x1="619.394498" y1="351.27551" x2="619.394498" y2="130.465104" stroke="black" stroke-width="4.757996"/>
<line x1="618.942946" y1="130.013548" x2="839.753347" y2="351.27551" stroke="black" stroke-width="4.757996"/>
<line x1="619.394498" y1="350.823953" x2="839.301791" y2="130.465104" stroke="black" stroke-width="4.757996"/>
<line x1="596.998532" y1="570.862567" x2="627.35732" y2="576.763717" stroke="black" stroke-width="4.758"/>
<line x1="627.35732" y1="576.763717" x2="667.394357" y2="370.791026" stroke="black" stroke-width="4.758"/>
<line x1="667.394357" y1="370.791026" x2="637.035569" y2="364.889872" stroke="black" stroke-width="4.758"/>
<line x1="637.035569" y1="364.889872" x2="596.998532" y2="570.862567" stroke="black" stroke-width="4.758"/>
<line x1="797.366528" y1="609.810158" x2="827.725311" y2="615.711308" stroke="black" stroke-width="4.758"/>
<line x1="827.725311" y1="615.711308" x2="867.762352" y2="409.738617" stroke="black" stroke-width="4.758"/>
<line x1="867.762352" y1="409.738617" x2="837.40356" y2="403.837467" stroke="black" stroke-width="4.758"/>
<line x1="837.40356" y1="403.837467" x2="797.366528" y2="609.810158" stroke="black" stroke-width="4.758"/>
<line x1="626.890265" y1="576.672932" x2="797.366528" y2="609.810158" stroke="black" stroke-width="4.758"/>
<line x1="666.278663" y1="371.543565" x2="697.427208" y2="350.939432" stroke="black" stroke-width="4.758"/>
<line x1="816.527066" y1="374.090096" x2="837.689049" y2="404.862371" stroke="black" stroke-width="4.758"/>
<line x1="695.558975" y1="350.576286" x2="818.3953" y2="374.453246" stroke="black" stroke-width="4.758"/>
<line x1="635.891296" y1="532.860241" x2="806.367559" y2="565.997472" stroke="black" stroke-width="4.758"/>
<line x1="429.340922" y1="2298.092222" x2="210.279051" y2="2298.092222" stroke="black" stroke-width="4.758"/>
<line x1="210.279051" y1="2298.092222" x2="210.279051" y2="2644.646694" stroke="black" stroke-width="4.758"/>
<line x1="210.279051" y1="2644.646694" x2="429.340922" y2="2644.646694" stroke="black" stroke-width="4.758"/>
<line x1="429.340922" y1="2644.646694" x2="429.340922" y2="2298.092222" stroke="black" stroke-width="4.758"/>
<line x1="430.0453" y1="2582.66134" x2="209.574674" y2="2582.66134" stroke="black" stroke-width="4.758"/>
<line x1="209.574674" y1="2582.66134" x2="428.636544" y2="2530.537295" stroke="black" stroke-width="4.758"/>
<line x1="428.636544" y1="2530.537295" x2="395.53073" y2="2481.935144" stroke="black" stroke-width="4.758"/>
<line x1="395.53073" y1="2481.935144" x2="209.574674" y2="2583.365718" stroke="black" stroke-width="4.758"/>
<line x1="566.557374" y1="2643.190922" x2="430.951933" y2="2643.190922" stroke="black" stroke-width="4.758"/>
<line x1="430.951933" y1="2643.190922" x2="430.951933" y2="2507.307596" stroke="black" stroke-width="4.758"/>
<line x1="430.951933" y1="2507.307596" x2="566.557374" y2="2507.307596" stroke="black" stroke-width="4.758"/>
<line x1="566.557374" y1="2507.307596" x2="566.557374" y2="2643.190922" stroke="black" stroke-width="4.758"/>
<line x1="566.835254" y1="2643.468802" x2="430.951933" y2="2507.307596" stroke="black" stroke-width="4.758"/>
<line x1="566.557374" y1="2507.585476" x2="431.229809" y2="2643.190922" stroke="black" stroke-width="4.758"/>
<line x1="1217.492208" y1="2297.808777" x2="998.430337" y2="2297.808777" stroke="black" stroke-width="4.758"/>
<line x1="998.430337" y1="2297.808777" x2="998.430337" y2="2644.363249" stroke="black" stroke-width="4.758"/>
<line x1="998.430337" y1="2644.363249" x2="1217.492208" y2="2644.363249" stroke="black" stroke-width="4.758"/>
<line x1="1217.492208" y1="2644.363249" x2="1217.492208" y2="2297.808777" stroke="black" stroke-width="4.758"/>
<line x1="1218.196586" y1="2582.377895" x2="997.725959" y2="2582.377895" stroke="black" stroke-width="4.758"/>
<line x1="997.725959" y1="2582.377895" x2="1216.78783" y2="2530.25385" stroke="black" stroke-width="4.758"/>
<line x1="1216.78783" y1="2530.25385" x2="1183.682015" y2="2481.651699" stroke="black" stroke-width="4.758"/>
<line x1="1183.682015" y1="2481.651699" x2="997.725959" y2="2583.082273" stroke="black" stroke-width="4.758"/>
<line x1="928.005828" y1="2506.641176" x2="996.562152" y2="2575.197496" stroke="black" stroke-width="4.758005"/>
<line x1="996.562152" y1="2575.197496" x2="927.865344" y2="2643.894304" stroke="black" stroke-width="4.758005"/>
<line x1="927.865344" y1="2643.894304" x2="859.30902" y2="2575.33798" stroke="black" stroke-width="4.758005"/>
<line x1="859.30902" y1="2575.33798" x2="928.005828" y2="2506.641176" stroke="black" stroke-width="4.758005"/>
<line x1="928.005828" y1="2506.360207" x2="927.865344" y2="2643.894304" stroke="black" stroke-width="4.758005"/>
<line x1="859.449504" y1="2575.197496" x2="996.421668" y2="2575.057011" stroke="black" stroke-width="4.758005"/>
<line x1="1661.943566" y1="2607.239065" x2="1882.302415" y2="2607.239065" stroke="black" stroke-width="4.757996"/>
<line x1="1882.302415" y1="2607.239065" x2="1882.302415" y2="2828.04947" stroke="black" stroke-width="4.757996"/>
<line x1="1882.302415" y1="2828.04947" x2="1661.943566" y2="2828.04947" stroke="black" stroke-width="4.757996"/>
<line x1="1661.943566" y1="2828.04947" x2="1661.943566" y2="2607.239065" stroke="black" stroke-width="4.757996"/>
<line x1="1661.492014" y1="2606.787508" x2="1882.302415" y2="2828.04947" stroke="black" stroke-width="4.757996"/>
<line x1="1661.943566" y1="2827.597914" x2="1881.850859" y2="2607.239065" stroke="black" stroke-width="4.757996"/>
<line x1="1848.983239" y1="2322.703763" x2="1819.741181" y2="2332.772609" stroke="black" stroke-width="4.758"/>
<line x1="1819.741181" y1="2332.772609" x2="1888.054441" y2="2531.168713" stroke="black" stroke-width="4.758"/>
<line x1="1888.054441" y1="2531.168713" x2="1917.296491" y2="2521.099863" stroke="black" stroke-width="4.758"/>
<line x1="1917.296491" y1="2521.099863" x2="1848.983239" y2="2322.703763" stroke="black" stroke-width="4.758"/>
<line x1="1655.985668" y1="2389.158157" x2="1626.743614" y2="2399.226998" stroke="black" stroke-width="4.758"/>
<line x1="1626.743614" y1="2399.226998" x2="1695.056866" y2="2597.623102" stroke="black" stroke-width="4.758"/>
<line x1="1695.056866" y1="2597.623102" x2="1724.298925" y2="2587.554256" stroke="black" stroke-width="4.758"/>
<line x1="1724.298925" y1="2587.554256" x2="1655.985668" y2="2389.158157" stroke="black" stroke-width="4.758"/>
<line x1="1820.191058" y1="2332.617705" x2="1655.985668" y2="2389.158157" stroke="black" stroke-width="4.758"/>
<line x1="1888.644385" y1="2529.959145" x2="1871.971021" y2="2563.377125" stroke="black" stroke-width="4.758"/>
<line x1="1757.252184" y1="2602.877983" x2="1723.539239" y2="2586.809405" stroke="black" stroke-width="4.758"/>
<line x1="1873.770536" y1="2562.757501" x2="1755.452673" y2="2603.497607" stroke="black" stroke-width="4.758"/>
<line x1="1834.302288" y1="2375.061118" x2="1670.096893" y2="2431.60157" stroke="black" stroke-width="4.758"/>
<line x1="2808.66057" y1="2475.357719" x2="2978.167377" y2="2475.357719" stroke="black" stroke-width="4.758005"/>
<line x1="2978.167377" y1="2475.357719" x2="2978.167377" y2="2645.211874" stroke="black" stroke-width="4.758005"/>
<line x1="2978.167377" y1="2645.211874" x2="2808.66057" y2="2645.211874" stroke="black" stroke-width="4.758005"/>
<line x1="2808.66057" y1="2645.211874" x2="2808.66057" y2="2475.357719" stroke="black" stroke-width="4.758005"/>
<line x1="2808.313218" y1="2475.010368" x2="2978.167377" y2="2645.211874" stroke="black" stroke-width="4.758005"/>
<line x1="2808.66057" y1="2644.864526" x2="2977.820025" y2="2475.357719" stroke="black" stroke-width="4.758005"/>
<line x1="2976.846071" y1="2474.847604" x2="3146.352878" y2="2474.847604" stroke="black" stroke-width="4.758005"/>
<line x1="3146.352878" y1="2474.847604" x2="3146.352878" y2="2644.701759" stroke="black" stroke-width="4.758005"/>
<line x1="3146.352878" y1="2644.701759" x2="2976.846071" y2="2644.701759" stroke="black" stroke-width="4.758005"/>
<line x1="2976.846071" y1="2644.701759" x2="2976.846071" y2="2474.847604" stroke="black" stroke-width="4.758005"/>
<line x1="2976.498719" y1="2474.500253" x2="3146.352878" y2="2644.701759" stroke="black" stroke-width="4.758005"/>
<line x1="2976.846071" y1="2644.354411" x2="3146.005526" y2="2474.847604" stroke="black" stroke-width="4.758005"/>
<line x1="3434.14941" y1="2338.590075" x2="3603.656217" y2="2338.590075" stroke="black" stroke-width="4.758005"/>
<line x1="3603.656217" y1="2338.590075" x2="3603.656217" y2="2508.444229" stroke="black" stroke-width="4.758005"/>
<line x1="3603.656217" y1="2508.444229" x2="3434.14941" y2="2508.444229" stroke="black" stroke-width="4.758005"/>
<line x1="3434.14941" y1="2508.444229" x2="3434.14941" y2="2338.590075" stroke="black" stroke-width="4.758005"/>
<line x1="3433.802058" y1="2338.242723" x2="3603.656217" y2="2508.444229" stroke="black" stroke-width="4.758005"/>
<line x1="3434.14941" y1="2508.096882" x2="3603.308865" y2="2338.590075" stroke="black" stroke-width="4.758005"/>
<line x1="3266.406297" y1="2337.896583" x2="3435.913104" y2="2337.896583" stroke="black" stroke-width="4.758005"/>
<line x1="3435.913104" y1="2337.896583" x2="3435.913104" y2="2507.750737" stroke="black" stroke-width="4.758005"/>
<line x1="3435.913104" y1="2507.750737" x2="3266.406297" y2="2507.750737" stroke="black" stroke-width="4.758005"/>
<line x1="3266.406297" y1="2507.750737" x2="3266.406297" y2="2337.896583" stroke="black" stroke-width="4.758005"/>
<line x1="3266.058945" y1="2337.549231" x2="3435.913104" y2="2507.750737" stroke="black" stroke-width="4.758005"/>
<line x1="3266.406297" y1="2507.40339" x2="3435.565752" y2="2337.896583" stroke="black" stroke-width="4.758005"/>
</g>
</svg>
