<?xml version="1.0"?>
<svg xmlns:xlink="http://www.w3.org/1999/xlink" width="5498.133887999999" height="2960.5336319999997">
<image x="0" y="0" width="5498.133887999999" height="2960.5336319999997" xlink:href="ground16-07.png"/>
<g style="stroke-linecap:round">
<line x1="1294.244566" y1="1161.032193" x2="1316.799022" y2="1161.032193" stroke="black" stroke-width="4.758"/>
<line x1="1316.799022" y1="1161.032193" x2="1316.799022" y2="1117.023503" stroke="black" stroke-width="4.758"/>
<line x1="1316.799022" y1="1117.023503" x2="1294.244566" y2="1117.023503" stroke="black" stroke-width="4.758"/>
<line x1="1294.244566" y1="1117.023503" x2="1294.244566" y2="1161.032193" stroke="black" stroke-width="4.758"/>
<line x1="1537.39259" y1="1117.023503" x2="1537.39259" y2="897.530148" stroke="black" stroke-width="4.758"/>
<line x1="1537.942699" y1="1162.13241" x2="1560.497154" y2="1162.13241" stroke="black" stroke-width="4.758"/>
<line x1="1560.497154" y1="1162.13241" x2="1560.497154" y2="1118.12372" stroke="black" stroke-width="4.758"/>
<line x1="1560.497154" y1="1118.12372" x2="1537.942699" y2="1118.12372" stroke="black" stroke-width="4.758"/>
<line x1="1537.942699" y1="1118.12372" x2="1537.942699" y2="1162.13241" stroke="black" stroke-width="4.758"/>
<path d="m 1316.799022,1118.673829 a 220.59357050000006,220.59357050000006 0 0 1 220.593568,-220.5935730000001" fill="none" stroke="black" stroke-width="4.758"/>
<line x1="1546.852786" y1="1890.830668" x2="1524.29833" y2="1890.830668" stroke="black" stroke-width="4.758"/>
<line x1="1524.29833" y1="1890.830668" x2="1524.29833" y2="1934.839358" stroke="black" stroke-width="4.758"/>
<line x1="1524.29833" y1="1934.839358" x2="1546.852786" y2="1934.839358" stroke="black" stroke-width="4.758"/>
<line x1="1546.852786" y1="1934.839358" x2="1546.852786" y2="1890.830668" stroke="black" stroke-width="4.758"/>
<line x1="1303.704762" y1="1934.839358" x2="1303.704762" y2="2154.332713" stroke="black" stroke-width="4.758"/>
<line x1="1303.154654" y1="1889.730451" x2="1280.600198" y2="1889.730451" stroke="black" stroke-width="4.758"/>
<line x1="1280.600198" y1="1889.730451" x2="1280.600198" y2="1933.739141" stroke="black" stroke-width="4.758"/>
<line x1="1280.600198" y1="1933.739141" x2="1303.154654" y2="1933.739141" stroke="black" stroke-width="4.758"/>
<line x1="1303.154654" y1="1933.739141" x2="1303.154654" y2="1889.730451" stroke="black" stroke-width="4.758"/>
<path d="m 1524.29833,1933.189032 a 220.59357049999994,220.59357049999994 0 0 1 -220.593568,220.59357299999988" fill="none" stroke="black" stroke-width="4.758"/>
<line x1="4403.66499" y1="112.016592" x2="4618.148673" y2="112.016592" stroke="black" stroke-width="4.758"/>
<line x1="4618.148673" y1="112.016592" x2="4618.148673" y2="73.653658" stroke="black" stroke-width="4.758"/>
<line x1="4618.148673" y1="73.653658" x2="4403.66499" y2="73.653658" stroke="black" stroke-width="4.758"/>
<line x1="4403.66499" y1="73.653658" x2="4403.66499" y2="112.016592" stroke="black" stroke-width="4.758"/>
<line x1="4413.691665" y1="112.016592" x2="4413.691665" y2="125.094868" stroke="black" stroke-width="4.758"/>
<line x1="4413.691665" y1="125.094868" x2="4607.686055" y2="125.094868" stroke="black" stroke-width="4.758"/>
<line x1="4607.686055" y1="112.016592" x2="4607.686055" y2="125.094868" stroke="black" stroke-width="4.758"/>
<line x1="2442.739291" y1="114.132448" x2="2657.237786" y2="114.132448" stroke="black" stroke-width="4.758"/>
<line x1="2657.237786" y1="114.132448" x2="2657.237786" y2="81.065746" stroke="black" stroke-width="4.758"/>
<line x1="2657.237786" y1="81.065746" x2="2442.739291" y2="81.065746" stroke="black" stroke-width="4.758"/>
<line x1="2442.739291" y1="81.065746" x2="2442.739291" y2="114.132448" stroke="black" stroke-width="4.758"/>
<line x1="2462.753349" y1="81.500834" x2="2462.753349" y2="113.69736" stroke="black" stroke-width="4.758"/>
<line x1="2636.78864" y1="81.500834" x2="2636.78864" y2="115.002625" stroke="black" stroke-width="4.758"/>
<line x1="2462.31826" y1="96.728921" x2="2636.353552" y2="96.728921" stroke="black" stroke-width="4.758"/>
<line x1="1253.916155" y1="1507.813934" x2="1253.916155" y2="1485.259478" stroke="black" stroke-width="4.758"/>
<line x1="1253.916155" y1="1485.259478" x2="1209.907466" y2="1485.259478" stroke="black" stroke-width="4.758"/>
<line x1="1209.907466" y1="1485.259478" x2="1209.907466" y2="1507.813934" stroke="black" stroke-width="4.758"/>
<line x1="1209.907466" y1="1507.813934" x2="1253.916155" y2="1507.813934" stroke="black" stroke-width="4.758"/>
<line x1="1209.907466" y1="1264.66591" x2="990.414111" y2="1264.66591" stroke="black" stroke-width="4.758"/>
<line x1="1255.016372" y1="1264.115802" x2="1255.016372" y2="1241.561346" stroke="black" stroke-width="4.758"/>
<line x1="1255.016372" y1="1241.561346" x2="1211.007683" y2="1241.561346" stroke="black" stroke-width="4.758"/>
<line x1="1211.007683" y1="1241.561346" x2="1211.007683" y2="1264.115802" stroke="black" stroke-width="4.758"/>
<line x1="1211.007683" y1="1264.115802" x2="1255.016372" y2="1264.115802" stroke="black" stroke-width="4.758"/>
<path d="m 1211.557792,1485.259478 a 220.59357050000006,220.59357050000006 0 0 1 -220.5935730000001,-220.593568" fill="none" stroke="black" stroke-width="4.758"/>
<line x1="1253.394872" y1="1837.912218" x2="1253.394872" y2="1815.357762" stroke="black" stroke-width="4.758"/>
<line x1="1253.394872" y1="1815.357762" x2="1209.386183" y2="1815.357762" stroke="black" stroke-width="4.758"/>
<line x1="1209.386183" y1="1815.357762" x2="1209.386183" y2="1837.912218" stroke="black" stroke-width="4.758"/>
<line x1="1209.386183" y1="1837.912218" x2="1253.394872" y2="1837.912218" stroke="black" stroke-width="4.758"/>
<line x1="1209.386183" y1="1594.764194" x2="989.892827" y2="1594.764194" stroke="black" stroke-width="4.758"/>
<line x1="1254.495089" y1="1594.214086" x2="1254.495089" y2="1571.65963" stroke="black" stroke-width="4.758"/>
<line x1="1254.495089" y1="1571.65963" x2="1210.4864" y2="1571.65963" stroke="black" stroke-width="4.758"/>
<line x1="1210.4864" y1="1571.65963" x2="1210.4864" y2="1594.214086" stroke="black" stroke-width="4.758"/>
<line x1="1210.4864" y1="1594.214086" x2="1254.495089" y2="1594.214086" stroke="black" stroke-width="4.758"/>
<path d="m 1211.036509,1815.357762 a 220.5935705,220.5935705 0 0 1 -220.593573,-220.593568" fill="none" stroke="black" stroke-width="4.758"/>
<line x1="2469.579154" y1="1558.52728" x2="2492.277729" y2="1558.52728" stroke="black" stroke-width="4.758"/>
<line x1="2492.277729" y1="1558.52728" x2="2492.277729" y2="1514.237384" stroke="black" stroke-width="4.758"/>
<line x1="2492.277729" y1="1514.237384" x2="2469.579154" y2="1514.237384" stroke="black" stroke-width="4.758"/>
<line x1="2469.579154" y1="1514.237384" x2="2469.579154" y2="1558.52728" stroke="black" stroke-width="4.758"/>
<line x1="2714.280841" y1="1514.237384" x2="2714.280841" y2="1293.341516" stroke="black" stroke-width="4.758"/>
<line x1="2714.834465" y1="1559.634529" x2="2737.53304" y2="1559.634529" stroke="black" stroke-width="4.758"/>
<line x1="2737.53304" y1="1559.634529" x2="2737.53304" y2="1515.344628" stroke="black" stroke-width="4.758"/>
<line x1="2737.53304" y1="1515.344628" x2="2714.834465" y2="1515.344628" stroke="black" stroke-width="4.758"/>
<line x1="2714.834465" y1="1515.344628" x2="2714.834465" y2="1559.634529" stroke="black" stroke-width="4.758"/>
<path d="m 2492.277729,1515.898252 a 222.00311199999987,222.00311199999987 0 0 1 222.00311199999987,-222.00311199999987" fill="none" stroke="black" stroke-width="4.758"/>
<line x1="191.38945" y1="532.258913" x2="191.38945" y2="311.81735" stroke="black" stroke-width="4.758"/>
<line x1="191.38945" y1="311.81735" x2="151.960878" y2="311.81735" stroke="black" stroke-width="4.758"/>
<line x1="151.960878" y1="311.81735" x2="151.960878" y2="532.258913" stroke="black" stroke-width="4.758"/>
<line x1="151.960878" y1="532.258913" x2="191.38945" y2="532.258913" stroke="black" stroke-width="4.758"/>
<line x1="191.38945" y1="521.953719" x2="204.831009" y2="521.953719" stroke="black" stroke-width="4.758"/>
<line x1="204.831009" y1="521.953719" x2="204.831009" y2="322.570594" stroke="black" stroke-width="4.758"/>
<line x1="191.38945" y1="322.570594" x2="204.831009" y2="322.570594" stroke="black" stroke-width="4.758"/>
<line x1="196.592134" y1="2237.226342" x2="196.592134" y2="2016.769557" stroke="black" stroke-width="4.758005"/>
<line x1="196.592134" y1="2016.769557" x2="162.606909" y2="2016.769557" stroke="black" stroke-width="4.758005"/>
<line x1="162.606909" y1="2016.769557" x2="162.606909" y2="2237.226342" stroke="black" stroke-width="4.758005"/>
<line x1="162.606909" y1="2237.226342" x2="196.592134" y2="2237.226342" stroke="black" stroke-width="4.758005"/>
<line x1="163.054082" y1="2216.656338" x2="196.144957" y2="2216.656338" stroke="black" stroke-width="4.758005"/>
<line x1="163.054082" y1="2037.786734" x2="197.48648" y2="2037.786734" stroke="black" stroke-width="4.758005"/>
<line x1="178.705172" y1="2217.103511" x2="178.705172" y2="2038.233911" stroke="black" stroke-width="4.758005"/>
<line x1="2630.64014" y1="2277.391122" x2="2605.995975" y2="2277.391122" stroke="black" stroke-width="4.758"/>
<line x1="2605.995975" y1="2277.391122" x2="2605.995975" y2="2325.477299" stroke="black" stroke-width="4.758"/>
<line x1="2605.995975" y1="2325.477299" x2="2630.64014" y2="2325.477299" stroke="black" stroke-width="4.758"/>
<line x1="2630.64014" y1="2325.477299" x2="2630.64014" y2="2277.391122" stroke="black" stroke-width="4.758"/>
<line x1="2364.964024" y1="2325.477299" x2="2364.964024" y2="2565.307097" stroke="black" stroke-width="4.758"/>
<line x1="2364.362948" y1="2276.188969" x2="2339.718783" y2="2276.188969" stroke="black" stroke-width="4.758"/>
<line x1="2339.718783" y1="2276.188969" x2="2339.718783" y2="2324.275141" stroke="black" stroke-width="4.758"/>
<line x1="2339.718783" y1="2324.275141" x2="2364.362948" y2="2324.275141" stroke="black" stroke-width="4.758"/>
<line x1="2364.362948" y1="2324.275141" x2="2364.362948" y2="2276.188969" stroke="black" stroke-width="4.758"/>
<path d="m 2605.995975,2323.674065 a 241.03195099999994,241.03195099999994 0 0 1 -241.03195099999994,241.03195099999994" fill="none" stroke="black" stroke-width="4.758"/>
<line x1="568.88256" y1="1213.185645" x2="374.921777" y2="1213.185645" stroke="black" stroke-width="4.757996"/>
<line x1="374.921777" y1="1213.185645" x2="374.921777" y2="1161.3513" stroke="black" stroke-width="4.757996"/>
<line x1="568.88256" y1="1161.3513" x2="374.921777" y2="1161.3513" stroke="black" stroke-width="4.757996"/>
<line x1="568.88256" y1="1213.185645" x2="568.88256" y2="1161.3513" stroke="black" stroke-width="4.757996"/>
<line x1="524.99057" y1="1242.446969" x2="524.99057" y2="1213.185645" stroke="black" stroke-width="4.757996"/>
<line x1="420.485839" y1="1213.185645" x2="420.485839" y2="1244.119045" stroke="black" stroke-width="4.757996"/>
<circle cx="473.574242" cy="1290.101128" r="70.2271798019802" fill="none" stroke="black" stroke-width="4.757996"/>
<circle cx="473.574242" cy="1290.101128" r="60.19472554455446" fill="none" stroke="black" stroke-width="4.757996"/>
<line x1="863.33509" y1="1185.323243" x2="844.699588" y2="1160.740241" stroke="black" stroke-width="4.758"/>
<line x1="844.699588" y1="1160.740241" x2="697.201573" y2="1160.740241" stroke="black" stroke-width="4.758"/>
<line x1="697.201573" y1="1160.740241" x2="678.169571" y2="1188.891744" stroke="black" stroke-width="4.758"/>
<line x1="841.527588" y1="1188.098743" x2="698.391073" y2="1188.098743" stroke="black" stroke-width="4.758"/>
<circle cx="772.140081" cy="1209.906246" r="13.084501320000001" fill="none" stroke="black" stroke-width="4.758"/>
<path d="m 839.972378,1187.430553 a 74.93850864961598,74.93850864961598 0 1 1 -139.78529200000003,0.4025530000001254" fill="none" stroke="black" stroke-width="4.758"/>
<path d="m 863.288735,1184.665049 a 95.55651022076711,95.55651022076711 0 1 1 -184.699931,3.078845000000001" fill="none" stroke="black" stroke-width="4.758"/>
<line x1="1750.614293" y1="1315.069374" x2="1829.796281" y2="1441.787042" stroke="black" stroke-width="4.757996"/>
<line x1="1829.796281" y1="1441.787042" x2="1702.818945" y2="1521.131286" stroke="black" stroke-width="4.757996"/>
<line x1="1702.818945" y1="1521.131286" x2="1623.636957" y2="1394.413618" stroke="black" stroke-width="4.757996"/>
<line x1="1623.636957" y1="1394.413618" x2="1750.614293" y2="1315.069374" stroke="black" stroke-width="4.757996"/>
<line x1="1750.7117" y1="1314.64745" x2="1702.818945" y2="1521.131286" stroke="black" stroke-width="4.757996"/>
<line x1="1623.896625" y1="1394.251362" x2="1829.63402" y2="1441.527379" stroke="black" stroke-width="4.757996"/>
<line x1="1761.494021" y1="873.845112" x2="1761.494021" y2="1267.585543" stroke="black" stroke-width="4.758"/>
<line x1="1762.491557" y1="1271.545944" x2="1626.250963" y2="1271.545944" stroke="black" stroke-width="4.758"/>
<line x1="1625.098007" y1="874.310088" x2="1625.098007" y2="1271.851667" stroke="black" stroke-width="4.758"/>
<line x1="1760.798392" y1="875.045904" x2="1625.363534" y2="875.045904" stroke="black" stroke-width="4.758"/>
<line x1="1750.392019" y1="885.354905" x2="1750.392019" y2="1009.062917" stroke="black" stroke-width="4.758"/>
<line x1="1750.392019" y1="1009.062917" x2="1636.200008" y2="1009.062917" stroke="black" stroke-width="4.758"/>
<line x1="1636.200008" y1="885.354905" x2="1636.200008" y2="1009.062917" stroke="black" stroke-width="4.758"/>
<line x1="1750.392019" y1="885.354905" x2="1636.200008" y2="885.354905" stroke="black" stroke-width="4.758"/>
<line x1="1743.255019" y1="1028.094919" x2="1743.255019" y2="1115.324928" stroke="black" stroke-width="4.758"/>
<line x1="1723.430017" y1="1028.094919" x2="1723.430017" y2="1115.324928" stroke="black" stroke-width="4.758"/>
<line x1="1702.812015" y1="1028.887919" x2="1702.812015" y2="1115.324928" stroke="black" stroke-width="4.758"/>
<line x1="1682.987013" y1="1028.887919" x2="1682.987013" y2="1115.324928" stroke="black" stroke-width="4.758"/>
<line x1="1663.162011" y1="1028.094919" x2="1663.162011" y2="1115.324928" stroke="black" stroke-width="4.758"/>
<line x1="1643.337009" y1="1028.094919" x2="1643.337009" y2="1115.324928" stroke="black" stroke-width="4.758"/>
<line x1="1636.993008" y1="932.934909" x2="1650.474009" y2="932.934909" stroke="black" stroke-width="4.758"/>
<line x1="1650.474009" y1="932.934909" x2="1650.474009" y2="963.068913" stroke="black" stroke-width="4.758"/>
<line x1="1650.474009" y1="963.068913" x2="1637.786008" y2="963.068913" stroke="black" stroke-width="4.758"/>
<line x1="1750.392019" y1="1135.94293" x2="1750.392019" y2="1259.650942" stroke="black" stroke-width="4.758"/>
<line x1="1750.392019" y1="1259.650942" x2="1636.200008" y2="1259.650942" stroke="black" stroke-width="4.758"/>
<line x1="1636.200008" y1="1135.94293" x2="1636.200008" y2="1259.650942" stroke="black" stroke-width="4.758"/>
<line x1="1750.392019" y1="1135.94293" x2="1636.200008" y2="1135.94293" stroke="black" stroke-width="4.758"/>
<line x1="1636.200008" y1="1183.522935" x2="1649.681009" y2="1183.522935" stroke="black" stroke-width="4.758"/>
<line x1="1649.681009" y1="1183.522935" x2="1649.681009" y2="1213.656938" stroke="black" stroke-width="4.758"/>
<line x1="1649.681009" y1="1213.656938" x2="1636.993008" y2="1213.656938" stroke="black" stroke-width="4.758"/>
<circle cx="1736.118018" cy="994.788916" r="7.1370007200000005" fill="none" stroke="black" stroke-width="4.758"/>
<circle cx="1735.325018" cy="1245.376941" r="7.1370007200000005" fill="none" stroke="black" stroke-width="4.758"/>
<line x1="2525.578807" y1="939.897005" x2="2393.306393" y2="939.897005" stroke="black" stroke-width="4.758"/>
<line x1="2393.306393" y1="939.897005" x2="2393.306393" y2="925.623004" stroke="black" stroke-width="4.758"/>
<line x1="2525.578807" y1="925.623004" x2="2393.306393" y2="925.623004" stroke="black" stroke-width="4.758"/>
<line x1="2525.578807" y1="939.897005" x2="2525.578807" y2="925.623004" stroke="black" stroke-width="4.758"/>
<line x1="2512.256405" y1="925.623004" x2="2514.159605" y2="894.220201" stroke="black" stroke-width="4.758"/>
<line x1="2406.628795" y1="925.623004" x2="2404.725594" y2="893.268601" stroke="black" stroke-width="4.758"/>
<line x1="2525.578807" y1="478.370959" x2="2393.306393" y2="478.370959" stroke="black" stroke-width="4.758"/>
<line x1="2393.306393" y1="478.370959" x2="2393.306393" y2="491.69336" stroke="black" stroke-width="4.758"/>
<line x1="2525.578807" y1="491.69336" x2="2393.306393" y2="491.69336" stroke="black" stroke-width="4.758"/>
<line x1="2525.578807" y1="478.370959" x2="2525.578807" y2="491.69336" stroke="black" stroke-width="4.758"/>
<line x1="2513.208005" y1="493.59656" x2="2515.111205" y2="524.999363" stroke="black" stroke-width="4.758"/>
<line x1="2407.580395" y1="493.59656" x2="2404.725594" y2="525.950963" stroke="black" stroke-width="4.758"/>
<line x1="2229.631177" y1="775.270189" x2="2243.905178" y2="775.270189" stroke="black" stroke-width="4.758"/>
<line x1="2243.905178" y1="775.270189" x2="2243.905178" y2="642.997775" stroke="black" stroke-width="4.758"/>
<line x1="2229.631177" y1="642.997775" x2="2243.905178" y2="642.997775" stroke="black" stroke-width="4.758"/>
<line x1="2229.631177" y1="775.270189" x2="2229.631177" y2="642.997775" stroke="black" stroke-width="4.758"/>
<line x1="2243.905178" y1="657.271777" x2="2276.259581" y2="654.416976" stroke="black" stroke-width="4.758"/>
<line x1="2243.905178" y1="761.947787" x2="2276.259581" y2="763.850987" stroke="black" stroke-width="4.758"/>
<line x1="2690.205623" y1="776.221789" x2="2675.931622" y2="776.221789" stroke="black" stroke-width="4.758"/>
<line x1="2675.931622" y1="776.221789" x2="2675.931622" y2="643.949375" stroke="black" stroke-width="4.758"/>
<line x1="2690.205623" y1="643.949375" x2="2675.931622" y2="643.949375" stroke="black" stroke-width="4.758"/>
<line x1="2690.205623" y1="776.221789" x2="2690.205623" y2="643.949375" stroke="black" stroke-width="4.758"/>
<line x1="2675.931622" y1="658.223377" x2="2643.577218" y2="655.368577" stroke="black" stroke-width="4.758"/>
<line x1="2675.931622" y1="762.899387" x2="2643.577218" y2="764.802588" stroke="black" stroke-width="4.758"/>
<circle cx="2459.9184" cy="709.609782" r="192.22321939199998" fill="none" stroke="black" stroke-width="4.758"/>
<line x1="1878.886453" y1="2846.549827" x2="1664.387958" y2="2846.549827" stroke="black" stroke-width="4.758"/>
<line x1="1664.387958" y1="2846.549827" x2="1664.387958" y2="2879.616529" stroke="black" stroke-width="4.758"/>
<line x1="1664.387958" y1="2879.616529" x2="1878.886453" y2="2879.616529" stroke="black" stroke-width="4.758"/>
<line x1="1878.886453" y1="2879.616529" x2="1878.886453" y2="2846.549827" stroke="black" stroke-width="4.758"/>
<line x1="1858.872395" y1="2879.181441" x2="1858.872395" y2="2846.984915" stroke="black" stroke-width="4.758"/>
<line x1="1684.837104" y1="2879.181441" x2="1684.837104" y2="2845.67965" stroke="black" stroke-width="4.758"/>
<line x1="1859.307483" y1="2863.953355" x2="1685.272192" y2="2863.953355" stroke="black" stroke-width="4.758"/>
<line x1="3594.388451" y1="1099.263557" x2="3594.388451" y2="908.943538" stroke="black" stroke-width="4.758"/>
<line x1="3594.388451" y1="908.943538" x2="3130.007604" y2="908.943538" stroke="black" stroke-width="4.758"/>
<line x1="3130.007604" y1="908.943538" x2="3130.007604" y2="1099.263557" stroke="black" stroke-width="4.758"/>
<line x1="3130.007604" y1="1099.263557" x2="3153.797607" y2="1099.263557" stroke="black" stroke-width="4.758"/>
<line x1="3153.797607" y1="1099.263557" x2="3153.797607" y2="931.78194" stroke="black" stroke-width="4.758"/>
<line x1="3153.797607" y1="931.78194" x2="3569.646849" y2="931.78194" stroke="black" stroke-width="4.758"/>
<line x1="3569.646849" y1="931.78194" x2="3569.646849" y2="1099.263557" stroke="black" stroke-width="4.758"/>
<line x1="3569.646849" y1="1099.263557" x2="3594.388451" y2="1099.263557" stroke="black" stroke-width="4.758"/>
<line x1="3569.646849" y1="1093.553957" x2="3153.797607" y2="1093.553957" stroke="black" stroke-width="4.758"/>
<line x1="3362.198028" y1="1094.505557" x2="3362.198028" y2="932.73354" stroke="black" stroke-width="4.758"/>
<line x1="3384.099302" y1="1492.223936" x2="3241.69956" y2="1428.823482" stroke="black" stroke-width="4.758"/>
<line x1="3241.69956" y1="1428.823482" x2="3305.229928" y2="1286.131938" stroke="black" stroke-width="4.758"/>
<line x1="3305.229928" y1="1286.131938" x2="3447.629671" y2="1349.532391" stroke="black" stroke-width="4.758"/>
<line x1="3447.629671" y1="1349.532391" x2="3384.099302" y2="1492.223936" stroke="black" stroke-width="4.758"/>
<line x1="3384.261184" y1="1492.645657" x2="3305.229928" y2="1286.131938" stroke="black" stroke-width="4.758"/>
<line x1="3447.499751" y1="1349.824193" x2="3241.991362" y2="1428.953402" stroke="black" stroke-width="4.758"/>
<line x1="542.842817" y1="1124.194065" x2="542.842817" y2="914.564494" stroke="black" stroke-width="4.758"/>
<line x1="542.842817" y1="914.564494" x2="211.210183" y2="914.564494" stroke="black" stroke-width="4.758"/>
<line x1="211.210183" y1="914.564494" x2="211.210183" y2="1124.194065" stroke="black" stroke-width="4.758"/>
<line x1="211.210183" y1="1124.194065" x2="542.842817" y2="1124.194065" stroke="black" stroke-width="4.758"/>
<line x1="270.526589" y1="1124.868116" x2="270.526589" y2="913.89044" stroke="black" stroke-width="4.758"/>
<line x1="270.526589" y1="913.89044" x2="320.406294" y2="1123.520015" stroke="black" stroke-width="4.758"/>
<line x1="320.406294" y1="1123.520015" x2="366.915749" y2="1091.839662" stroke="black" stroke-width="4.758"/>
<line x1="366.915749" y1="1091.839662" x2="269.852539" y2="913.89044" stroke="black" stroke-width="4.758"/>
<line x1="676.607136" y1="1747.938186" x2="676.607136" y2="1557.618167" stroke="black" stroke-width="4.758"/>
<line x1="676.607136" y1="1557.618167" x2="212.22629" y2="1557.618167" stroke="black" stroke-width="4.758"/>
<line x1="212.22629" y1="1557.618167" x2="212.22629" y2="1747.938186" stroke="black" stroke-width="4.758"/>
<line x1="212.22629" y1="1747.938186" x2="236.016292" y2="1747.938186" stroke="black" stroke-width="4.758"/>
<line x1="236.016292" y1="1747.938186" x2="236.016292" y2="1580.45657" stroke="black" stroke-width="4.758"/>
<line x1="236.016292" y1="1580.45657" x2="651.865534" y2="1580.45657" stroke="black" stroke-width="4.758"/>
<line x1="651.865534" y1="1580.45657" x2="651.865534" y2="1747.938186" stroke="black" stroke-width="4.758"/>
<line x1="651.865534" y1="1747.938186" x2="676.607136" y2="1747.938186" stroke="black" stroke-width="4.758"/>
<line x1="651.865534" y1="1742.228586" x2="236.016292" y2="1742.228586" stroke="black" stroke-width="4.758"/>
<line x1="444.416713" y1="1743.180186" x2="444.416713" y2="1581.40817" stroke="black" stroke-width="4.758"/>
<line x1="2025.345003" y1="2258.352886" x2="2234.974574" y2="2258.352886" stroke="black" stroke-width="4.758"/>
<line x1="2234.974574" y1="2258.352886" x2="2234.974574" y2="1926.720257" stroke="black" stroke-width="4.758"/>
<line x1="2234.974574" y1="1926.720257" x2="2025.345003" y2="1926.720257" stroke="black" stroke-width="4.758"/>
<line x1="2025.345003" y1="1926.720257" x2="2025.345003" y2="2258.352886" stroke="black" stroke-width="4.758"/>
<line x1="2024.670949" y1="1986.036659" x2="2235.64862" y2="1986.036659" stroke="black" stroke-width="4.758"/>
<line x1="2235.64862" y1="1986.036659" x2="2026.019049" y2="2035.916364" stroke="black" stroke-width="4.758"/>
<line x1="2026.019049" y1="2035.916364" x2="2057.699402" y2="2082.425818" stroke="black" stroke-width="4.758"/>
<line x1="2057.699402" y1="2082.425818" x2="2235.64862" y2="1985.362609" stroke="black" stroke-width="4.758"/>
<line x1="983.956195" y1="1974.352173" x2="1216.146619" y2="1974.352173" stroke="black" stroke-width="4.758"/>
<line x1="1216.146619" y1="1974.352173" x2="1216.146619" y2="2207.018396" stroke="black" stroke-width="4.758"/>
<line x1="1216.146619" y1="2207.018396" x2="983.956195" y2="2207.018396" stroke="black" stroke-width="4.758"/>
<line x1="983.956195" y1="2207.018396" x2="983.956195" y2="1974.352173" stroke="black" stroke-width="4.758"/>
<line x1="983.480395" y1="1973.876373" x2="1216.146619" y2="2207.018396" stroke="black" stroke-width="4.758"/>
<line x1="983.956195" y1="2206.542596" x2="1215.670819" y2="1974.352173" stroke="black" stroke-width="4.758"/>
<line x1="3595.790026" y1="710.243156" x2="3392.381858" y2="710.243156" stroke="black" stroke-width="4.758"/>
<line x1="3392.381858" y1="710.243156" x2="3392.381858" y2="506.418169" stroke="black" stroke-width="4.758"/>
<line x1="3392.381858" y1="506.418169" x2="3595.790026" y2="506.418169" stroke="black" stroke-width="4.758"/>
<line x1="3595.790026" y1="506.418169" x2="3595.790026" y2="710.243156" stroke="black" stroke-width="4.758"/>
<line x1="3596.206849" y1="710.659978" x2="3392.381858" y2="506.418169" stroke="black" stroke-width="4.758"/>
<line x1="3595.790026" y1="506.834992" x2="3392.79868" y2="710.243156" stroke="black" stroke-width="4.758"/>
<line x1="1588.622541" y1="321.59638" x2="1588.622541" y2="131.276361" stroke="black" stroke-width="4.758"/>
<line x1="1588.622541" y1="131.276361" x2="1124.241694" y2="131.276361" stroke="black" stroke-width="4.758"/>
<line x1="1124.241694" y1="131.276361" x2="1124.241694" y2="321.59638" stroke="black" stroke-width="4.758"/>
<line x1="1124.241694" y1="321.59638" x2="1148.031696" y2="321.59638" stroke="black" stroke-width="4.758"/>
<line x1="1148.031696" y1="321.59638" x2="1148.031696" y2="154.114763" stroke="black" stroke-width="4.758"/>
<line x1="1148.031696" y1="154.114763" x2="1563.880938" y2="154.114763" stroke="black" stroke-width="4.758"/>
<line x1="1563.880938" y1="154.114763" x2="1563.880938" y2="321.59638" stroke="black" stroke-width="4.758"/>
<line x1="1563.880938" y1="321.59638" x2="1588.622541" y2="321.59638" stroke="black" stroke-width="4.758"/>
<line x1="1563.880938" y1="315.88678" x2="1148.031696" y2="315.88678" stroke="black" stroke-width="4.758"/>
<line x1="1356.432117" y1="316.83838" x2="1356.432117" y2="155.066364" stroke="black" stroke-width="4.758"/>
<line x1="2815.325991" y1="1524.165366" x2="2968.436367" y2="1666.943101" stroke="black" stroke-width="4.758"/>
<line x1="2968.436367" y1="1666.943101" x2="3126.789857" y2="1497.129773" stroke="black" stroke-width="4.758"/>
<line x1="3126.789857" y1="1497.129773" x2="2973.679481" y2="1354.352038" stroke="black" stroke-width="4.758"/>
<line x1="2973.679481" y1="1354.352038" x2="2815.325991" y2="1524.165366" stroke="black" stroke-width="4.758"/>
<line x1="2837.391641" y1="1500.502852" x2="2990.502017" y2="1643.280587" stroke="black" stroke-width="4.758"/>
<line x1="2923.21874" y1="1004.582718" x2="2906.374687" y2="1030.520288" stroke="black" stroke-width="4.758"/>
<line x1="2906.374687" y1="1030.520288" x2="3082.351106" y2="1144.80071" stroke="black" stroke-width="4.758"/>
<line x1="3082.351106" y1="1144.80071" x2="3099.195159" y2="1118.863144" stroke="black" stroke-width="4.758"/>
<line x1="3099.195159" y1="1118.863144" x2="2923.21874" y2="1004.582718" stroke="black" stroke-width="4.758"/>
<line x1="2812.047988" y1="1175.770663" x2="2795.203935" y2="1201.708228" stroke="black" stroke-width="4.758"/>
<line x1="2795.203935" y1="1201.708228" x2="2971.180354" y2="1315.988655" stroke="black" stroke-width="4.758"/>
<line x1="2971.180354" y1="1315.988655" x2="2988.024407" y2="1290.05109" stroke="black" stroke-width="4.758"/>
<line x1="2988.024407" y1="1290.05109" x2="2812.047988" y2="1175.770663" stroke="black" stroke-width="4.758"/>
<line x1="2906.633826" y1="1030.12125" x2="2812.047988" y2="1175.770663" stroke="black" stroke-width="4.758"/>
<line x1="3082.071305" y1="1143.484352" x2="3089.50668" y2="1180.083226" stroke="black" stroke-width="4.758"/>
<line x1="3023.42616" y1="1281.838296" x2="2986.967188" y2="1289.931849" stroke="black" stroke-width="4.758"/>
<line x1="3090.543233" y1="1178.487067" x2="3022.389603" y2="1283.434455" stroke="black" stroke-width="4.758"/>
<line x1="2943.884397" y1="1054.879382" x2="2849.298564" y2="1200.528795" stroke="black" stroke-width="4.758"/>
<line x1="777.483095" y1="904.061226" x2="997.841944" y2="904.061226" stroke="black" stroke-width="4.757996"/>
<line x1="997.841944" y1="904.061226" x2="997.841944" y2="1124.871631" stroke="black" stroke-width="4.757996"/>
<line x1="997.841944" y1="1124.871631" x2="777.483095" y2="1124.871631" stroke="black" stroke-width="4.757996"/>
<line x1="777.483095" y1="1124.871631" x2="777.483095" y2="904.061226" stroke="black" stroke-width="4.757996"/>
<line x1="777.031543" y1="903.60967" x2="997.841944" y2="1124.871631" stroke="black" stroke-width="4.757996"/>
<line x1="777.483095" y1="1124.420075" x2="997.390388" y2="904.061226" stroke="black" stroke-width="4.757996"/>
<line x1="373.832503" y1="1522.052933" x2="373.832503" y2="1161.21801" stroke="black" stroke-width="4.758005"/>
<line x1="373.832503" y1="1161.21801" x2="213.136786" y2="1161.21801" stroke="black" stroke-width="4.758005"/>
<line x1="213.136786" y1="1161.21801" x2="213.136786" y2="1522.052933" stroke="black" stroke-width="4.758005"/>
<line x1="213.136786" y1="1522.052933" x2="373.832503" y2="1522.052933" stroke="black" stroke-width="4.758005"/>
<line x1="237.971579" y1="1230.609341" x2="237.971579" y2="1492.835532" stroke="black" stroke-width="4.758005"/>
<line x1="237.971579" y1="1492.835532" x2="346.806404" y2="1492.835532" stroke="black" stroke-width="4.758005"/>
<line x1="346.806404" y1="1492.835532" x2="346.806404" y2="1225.496297" stroke="black" stroke-width="4.758005"/>
<path d="m 237.73601,1231.356907 a 58.434804782169536,58.434804782169536 0 0 1 110.09494500000002,-3.9600400000001628" fill="none" stroke="black" stroke-width="4.758005"/>
<line x1="619.394498" y1="130.465104" x2="839.753347" y2="130.465104" stroke="black" stroke-width="4.757996"/>
<line x1="839.753347" y1="130.465104" x2="839.753347" y2="351.27551" stroke="black" stroke-width="4.757996"/>
<line x1="839.753347" y1="351.27551" x2="619.394498" y2="351.27551" stroke="black" stroke-width="4.757996"/>
<line x1="619.394498" y1="351.27551" x2="619.394498" y2="130.465104" stroke="black" stroke-width="4.757996"/>
<line x1="618.942946" y1="130.013548" x2="839.753347" y2="351.27551" stroke="black" stroke-width="4.757996"/>
<line x1="619.394498" y1="350.823953" x2="839.301791" y2="130.465104" stroke="black" stroke-width="4.757996"/>
<line x1="645.963155" y1="624.161772" x2="675.836345" y2="616.157278" stroke="black" stroke-width="4.758"/>
<line x1="675.836345" y1="616.157278" x2="621.528906" y2="413.479167" stroke="black" stroke-width="4.758"/>
<line x1="621.528906" y1="413.479167" x2="591.655716" y2="421.483662" stroke="black" stroke-width="4.758"/>
<line x1="591.655716" y1="421.483662" x2="645.963155" y2="624.161772" stroke="black" stroke-width="4.758"/>
<line x1="843.126214" y1="571.332094" x2="872.999404" y2="563.327595" stroke="black" stroke-width="4.758"/>
<line x1="872.999404" y1="563.327595" x2="818.69197" y2="360.64948" stroke="black" stroke-width="4.758"/>
<line x1="818.69197" y1="360.64948" x2="788.818776" y2="368.653979" stroke="black" stroke-width="4.758"/>
<line x1="788.818776" y1="368.653979" x2="843.126214" y2="571.332094" stroke="black" stroke-width="4.758"/>
<line x1="675.376757" y1="616.280422" x2="843.126214" y2="571.332094" stroke="black" stroke-width="4.758"/>
<line x1="620.856028" y1="414.644635" x2="639.819889" y2="382.471133" stroke="black" stroke-width="4.758"/>
<line x1="757.014719" y1="351.068876" x2="789.524656" y2="369.45001" stroke="black" stroke-width="4.758"/>
<line x1="637.981539" y1="382.963718" x2="758.853065" y2="350.576291" stroke="black" stroke-width="4.758"/>
<line x1="664.26061" y1="572.956048" x2="832.010062" y2="528.007715" stroke="black" stroke-width="4.758"/>
<line x1="429.340922" y1="2298.092222" x2="210.279051" y2="2298.092222" stroke="black" stroke-width="4.758"/>
<line x1="210.279051" y1="2298.092222" x2="210.279051" y2="2644.646694" stroke="black" stroke-width="4.758"/>
<line x1="210.279051" y1="2644.646694" x2="429.340922" y2="2644.646694" stroke="black" stroke-width="4.758"/>
<line x1="429.340922" y1="2644.646694" x2="429.340922" y2="2298.092222" stroke="black" stroke-width="4.758"/>
<line x1="430.0453" y1="2582.66134" x2="209.574674" y2="2582.66134" stroke="black" stroke-width="4.758"/>
<line x1="209.574674" y1="2582.66134" x2="428.636544" y2="2530.537295" stroke="black" stroke-width="4.758"/>
<line x1="428.636544" y1="2530.537295" x2="395.53073" y2="2481.935144" stroke="black" stroke-width="4.758"/>
<line x1="395.53073" y1="2481.935144" x2="209.574674" y2="2583.365718" stroke="black" stroke-width="4.758"/>
<line x1="499.508261" y1="2643.187829" x2="430.951937" y2="2574.631509" stroke="black" stroke-width="4.758005"/>
<line x1="430.951937" y1="2574.631509" x2="499.648746" y2="2505.934701" stroke="black" stroke-width="4.758005"/>
<line x1="499.648746" y1="2505.934701" x2="568.20507" y2="2574.491025" stroke="black" stroke-width="4.758005"/>
<line x1="568.20507" y1="2574.491025" x2="499.508261" y2="2643.187829" stroke="black" stroke-width="4.758005"/>
<line x1="499.508261" y1="2643.468798" x2="499.648746" y2="2505.934701" stroke="black" stroke-width="4.758005"/>
<line x1="568.064585" y1="2574.631509" x2="431.092422" y2="2574.771994" stroke="black" stroke-width="4.758005"/>
<line x1="1217.492208" y1="2297.808777" x2="998.430337" y2="2297.808777" stroke="black" stroke-width="4.758"/>
<line x1="998.430337" y1="2297.808777" x2="998.430337" y2="2644.363249" stroke="black" stroke-width="4.758"/>
<line x1="998.430337" y1="2644.363249" x2="1217.492208" y2="2644.363249" stroke="black" stroke-width="4.758"/>
<line x1="1217.492208" y1="2644.363249" x2="1217.492208" y2="2297.808777" stroke="black" stroke-width="4.758"/>
<line x1="1218.196586" y1="2582.377895" x2="997.725959" y2="2582.377895" stroke="black" stroke-width="4.758"/>
<line x1="997.725959" y1="2582.377895" x2="1216.78783" y2="2530.25385" stroke="black" stroke-width="4.758"/>
<line x1="1216.78783" y1="2530.25385" x2="1183.682015" y2="2481.651699" stroke="black" stroke-width="4.758"/>
<line x1="1183.682015" y1="2481.651699" x2="997.725959" y2="2583.082273" stroke="black" stroke-width="4.758"/>
<line x1="996.284272" y1="2508.288863" x2="996.284272" y2="2643.894304" stroke="black" stroke-width="4.758"/>
<line x1="996.284272" y1="2643.894304" x2="860.400946" y2="2643.894304" stroke="black" stroke-width="4.758"/>
<line x1="860.400946" y1="2643.894304" x2="860.400946" y2="2508.288863" stroke="black" stroke-width="4.758"/>
<line x1="860.400946" y1="2508.288863" x2="996.284272" y2="2508.288863" stroke="black" stroke-width="4.758"/>
<line x1="996.562152" y1="2508.010982" x2="860.400946" y2="2643.894304" stroke="black" stroke-width="4.758"/>
<line x1="860.678826" y1="2508.288863" x2="996.284272" y2="2643.616428" stroke="black" stroke-width="4.758"/>
<line x1="1661.943566" y1="2607.239065" x2="1882.302415" y2="2607.239065" stroke="black" stroke-width="4.757996"/>
<line x1="1882.302415" y1="2607.239065" x2="1882.302415" y2="2828.04947" stroke="black" stroke-width="4.757996"/>
<line x1="1882.302415" y1="2828.04947" x2="1661.943566" y2="2828.04947" stroke="black" stroke-width="4.757996"/>
<line x1="1661.943566" y1="2828.04947" x2="1661.943566" y2="2607.239065" stroke="black" stroke-width="4.757996"/>
<line x1="1661.492014" y1="2606.787508" x2="1882.302415" y2="2828.04947" stroke="black" stroke-width="4.757996"/>
<line x1="1661.943566" y1="2827.597914" x2="1881.850859" y2="2607.239065" stroke="black" stroke-width="4.757996"/>
<line x1="1848.983239" y1="2322.703763" x2="1819.741181" y2="2332.772609" stroke="black" stroke-width="4.758"/>
<line x1="1819.741181" y1="2332.772609" x2="1888.054441" y2="2531.168713" stroke="black" stroke-width="4.758"/>
<line x1="1888.054441" y1="2531.168713" x2="1917.296491" y2="2521.099863" stroke="black" stroke-width="4.758"/>
<line x1="1917.296491" y1="2521.099863" x2="1848.983239" y2="2322.703763" stroke="black" stroke-width="4.758"/>
<line x1="1655.985668" y1="2389.158157" x2="1626.743614" y2="2399.226998" stroke="black" stroke-width="4.758"/>
<line x1="1626.743614" y1="2399.226998" x2="1695.056866" y2="2597.623102" stroke="black" stroke-width="4.758"/>
<line x1="1695.056866" y1="2597.623102" x2="1724.298925" y2="2587.554256" stroke="black" stroke-width="4.758"/>
<line x1="1724.298925" y1="2587.554256" x2="1655.985668" y2="2389.158157" stroke="black" stroke-width="4.758"/>
<line x1="1820.191058" y1="2332.617705" x2="1655.985668" y2="2389.158157" stroke="black" stroke-width="4.758"/>
<line x1="1888.644385" y1="2529.959145" x2="1871.971021" y2="2563.377125" stroke="black" stroke-width="4.758"/>
<line x1="1757.252184" y1="2602.877983" x2="1723.539239" y2="2586.809405" stroke="black" stroke-width="4.758"/>
<line x1="1873.770536" y1="2562.757501" x2="1755.452673" y2="2603.497607" stroke="black" stroke-width="4.758"/>
<line x1="1834.302288" y1="2375.061118" x2="1670.096893" y2="2431.60157" stroke="black" stroke-width="4.758"/>
<line x1="2976.846071" y1="2474.847604" x2="3146.352878" y2="2474.847604" stroke="black" stroke-width="4.758005"/>
<line x1="3146.352878" y1="2474.847604" x2="3146.352878" y2="2644.701759" stroke="black" stroke-width="4.758005"/>
<line x1="3146.352878" y1="2644.701759" x2="2976.846071" y2="2644.701759" stroke="black" stroke-width="4.758005"/>
<line x1="2976.846071" y1="2644.701759" x2="2976.846071" y2="2474.847604" stroke="black" stroke-width="4.758005"/>
<line x1="2976.498719" y1="2474.500253" x2="3146.352878" y2="2644.701759" stroke="black" stroke-width="4.758005"/>
<line x1="2976.846071" y1="2644.354411" x2="3146.005526" y2="2474.847604" stroke="black" stroke-width="4.758005"/>
<line x1="3266.406297" y1="2337.896583" x2="3435.913104" y2="2337.896583" stroke="black" stroke-width="4.758005"/>
<line x1="3435.913104" y1="2337.896583" x2="3435.913104" y2="2507.750737" stroke="black" stroke-width="4.758005"/>
<line x1="3435.913104" y1="2507.750737" x2="3266.406297" y2="2507.750737" stroke="black" stroke-width="4.758005"/>
<line x1="3266.406297" y1="2507.750737" x2="3266.406297" y2="2337.896583" stroke="black" stroke-width="4.758005"/>
<line x1="3266.058945" y1="2337.549231" x2="3435.913104" y2="2507.750737" stroke="black" stroke-width="4.758005"/>
<line x1="3266.406297" y1="2507.40339" x2="3435.565752" y2="2337.896583" stroke="black" stroke-width="4.758005"/>
<line x1="3434.14941" y1="2338.590075" x2="3603.656217" y2="2338.590075" stroke="black" stroke-width="4.758005"/>
<line x1="3603.656217" y1="2338.590075" x2="3603.656217" y2="2508.444229" stroke="black" stroke-width="4.758005"/>
<line x1="3603.656217" y1="2508.444229" x2="3434.14941" y2="2508.444229" stroke="black" stroke-width="4.758005"/>
<line x1="3434.14941" y1="2508.444229" x2="3434.14941" y2="2338.590075" stroke="black" stroke-width="4.758005"/>
<line x1="3433.802058" y1="2338.242723" x2="3603.656217" y2="2508.444229" stroke="black" stroke-width="4.758005"/>
<line x1="3434.14941" y1="2508.096882" x2="3603.308865" y2="2338.590075" stroke="black" stroke-width="4.758005"/>
<line x1="2808.66057" y1="2475.357719" x2="2978.167377" y2="2475.357719" stroke="black" stroke-width="4.758005"/>
<line x1="2978.167377" y1="2475.357719" x2="2978.167377" y2="2645.211874" stroke="black" stroke-width="4.758005"/>
<line x1="2978.167377" y1="2645.211874" x2="2808.66057" y2="2645.211874" stroke="black" stroke-width="4.758005"/>
<line x1="2808.66057" y1="2645.211874" x2="2808.66057" y2="2475.357719" stroke="black" stroke-width="4.758005"/>
<line x1="2808.313218" y1="2475.010368" x2="2978.167377" y2="2645.211874" stroke="black" stroke-width="4.758005"/>
<line x1="2808.66057" y1="2644.864526" x2="2977.820025" y2="2475.357719" stroke="black" stroke-width="4.758005"/>
</g>
</svg>
