<?xml version="1.0"?>
<svg xmlns:xlink="http://www.w3.org/1999/xlink" width="5498.133887999999" height="2960.5336319999997">
<image x="0" y="0" width="5498.133887999999" height="2960.5336319999997" xlink:href="ground16-07.png"/>
<g style="stroke-linecap:round">
<line x1="1294.244566" y1="1161.032193" x2="1316.799022" y2="1161.032193" stroke="black" stroke-width="4.758"/>
<line x1="1316.799022" y1="1161.032193" x2="1316.799022" y2="1117.023503" stroke="black" stroke-width="4.758"/>
<line x1="1316.799022" y1="1117.023503" x2="1294.244566" y2="1117.023503" stroke="black" stroke-width="4.758"/>
<line x1="1294.244566" y1="1117.023503" x2="1294.244566" y2="1161.032193" stroke="black" stroke-width="4.758"/>
<line x1="1537.39259" y1="1117.023503" x2="1537.39259" y2="897.530148" stroke="black" stroke-width="4.758"/>
<line x1="1537.942699" y1="1162.13241" x2="1560.497154" y2="1162.13241" stroke="black" stroke-width="4.758"/>
<line x1="1560.497154" y1="1162.13241" x2="1560.497154" y2="1118.12372" stroke="black" stroke-width="4.758"/>
<line x1="1560.497154" y1="1118.12372" x2="1537.942699" y2="1118.12372" stroke="black" stroke-width="4.758"/>
<line x1="1537.942699" y1="1118.12372" x2="1537.942699" y2="1162.13241" stroke="black" stroke-width="4.758"/>
<path d="m 1316.799022,1118.673829 a 220.59357050000006,220.59357050000006 0 0 1 220.593568,-220.5935730000001" fill="none" stroke="black" stroke-width="4.758"/>
<line x1="1546.852786" y1="1890.830668" x2="1524.29833" y2="1890.830668" stroke="black" stroke-width="4.758"/>
<line x1="1524.29833" y1="1890.830668" x2="1524.29833" y2="1934.839358" stroke="black" stroke-width="4.758"/>
<line x1="1524.29833" y1="1934.839358" x2="1546.852786" y2="1934.839358" stroke="black" stroke-width="4.758"/>
<line x1="1546.852786" y1="1934.839358" x2="1546.852786" y2="1890.830668" stroke="black" stroke-width="4.758"/>
<line x1="1303.704762" y1="1934.839358" x2="1303.704762" y2="2154.332713" stroke="black" stroke-width="4.758"/>
<line x1="1303.154654" y1="1889.730451" x2="1280.600198" y2="1889.730451" stroke="black" stroke-width="4.758"/>
<line x1="1280.600198" y1="1889.730451" x2="1280.600198" y2="1933.739141" stroke="black" stroke-width="4.758"/>
<line x1="1280.600198" y1="1933.739141" x2="1303.154654" y2="1933.739141" stroke="black" stroke-width="4.758"/>
<line x1="1303.154654" y1="1933.739141" x2="1303.154654" y2="1889.730451" stroke="black" stroke-width="4.758"/>
<path d="m 1524.29833,1933.189032 a 220.59357049999994,220.59357049999994 0 0 1 -220.593568,220.59357299999988" fill="none" stroke="black" stroke-width="4.758"/>
<line x1="4403.66499" y1="112.016592" x2="4618.148673" y2="112.016592" stroke="black" stroke-width="4.758"/>
<line x1="4618.148673" y1="112.016592" x2="4618.148673" y2="73.653658" stroke="black" stroke-width="4.758"/>
<line x1="4618.148673" y1="73.653658" x2="4403.66499" y2="73.653658" stroke="black" stroke-width="4.758"/>
<line x1="4403.66499" y1="73.653658" x2="4403.66499" y2="112.016592" stroke="black" stroke-width="4.758"/>
<line x1="4413.691665" y1="112.016592" x2="4413.691665" y2="125.094868" stroke="black" stroke-width="4.758"/>
<line x1="4413.691665" y1="125.094868" x2="4607.686055" y2="125.094868" stroke="black" stroke-width="4.758"/>
<line x1="4607.686055" y1="112.016592" x2="4607.686055" y2="125.094868" stroke="black" stroke-width="4.758"/>
<line x1="2442.739291" y1="114.132448" x2="2657.237786" y2="114.132448" stroke="black" stroke-width="4.758"/>
<line x1="2657.237786" y1="114.132448" x2="2657.237786" y2="81.065746" stroke="black" stroke-width="4.758"/>
<line x1="2657.237786" y1="81.065746" x2="2442.739291" y2="81.065746" stroke="black" stroke-width="4.758"/>
<line x1="2442.739291" y1="81.065746" x2="2442.739291" y2="114.132448" stroke="black" stroke-width="4.758"/>
<line x1="2462.753349" y1="81.500834" x2="2462.753349" y2="113.69736" stroke="black" stroke-width="4.758"/>
<line x1="2636.78864" y1="81.500834" x2="2636.78864" y2="115.002625" stroke="black" stroke-width="4.758"/>
<line x1="2462.31826" y1="96.728921" x2="2636.353552" y2="96.728921" stroke="black" stroke-width="4.758"/>
<line x1="1253.916155" y1="1507.813934" x2="1253.916155" y2="1485.259478" stroke="black" stroke-width="4.758"/>
<line x1="1253.916155" y1="1485.259478" x2="1209.907466" y2="1485.259478" stroke="black" stroke-width="4.758"/>
<line x1="1209.907466" y1="1485.259478" x2="1209.907466" y2="1507.813934" stroke="black" stroke-width="4.758"/>
<line x1="1209.907466" y1="1507.813934" x2="1253.916155" y2="1507.813934" stroke="black" stroke-width="4.758"/>
<line x1="1209.907466" y1="1264.66591" x2="990.414111" y2="1264.66591" stroke="black" stroke-width="4.758"/>
<line x1="1255.016372" y1="1264.115802" x2="1255.016372" y2="1241.561346" stroke="black" stroke-width="4.758"/>
<line x1="1255.016372" y1="1241.561346" x2="1211.007683" y2="1241.561346" stroke="black" stroke-width="4.758"/>
<line x1="1211.007683" y1="1241.561346" x2="1211.007683" y2="1264.115802" stroke="black" stroke-width="4.758"/>
<line x1="1211.007683" y1="1264.115802" x2="1255.016372" y2="1264.115802" stroke="black" stroke-width="4.758"/>
<path d="m 1211.557792,1485.259478 a 220.59357050000006,220.59357050000006 0 0 1 -220.5935730000001,-220.593568" fill="none" stroke="black" stroke-width="4.758"/>
<line x1="1253.394872" y1="1837.912218" x2="1253.394872" y2="1815.357762" stroke="black" stroke-width="4.758"/>
<line x1="1253.394872" y1="1815.357762" x2="1209.386183" y2="1815.357762" stroke="black" stroke-width="4.758"/>
<line x1="1209.386183" y1="1815.357762" x2="1209.386183" y2="1837.912218" stroke="black" stroke-width="4.758"/>
<line x1="1209.386183" y1="1837.912218" x2="1253.394872" y2="1837.912218" stroke="black" stroke-width="4.758"/>
<line x1="1209.386183" y1="1594.764194" x2="989.892827" y2="1594.764194" stroke="black" stroke-width="4.758"/>
<line x1="1254.495089" y1="1594.214086" x2="1254.495089" y2="1571.65963" stroke="black" stroke-width="4.758"/>
<line x1="1254.495089" y1="1571.65963" x2="1210.4864" y2="1571.65963" stroke="black" stroke-width="4.758"/>
<line x1="1210.4864" y1="1571.65963" x2="1210.4864" y2="1594.214086" stroke="black" stroke-width="4.758"/>
<line x1="1210.4864" y1="1594.214086" x2="1254.495089" y2="1594.214086" stroke="black" stroke-width="4.758"/>
<path d="m 1211.036509,1815.357762 a 220.5935705,220.5935705 0 0 1 -220.593573,-220.593568" fill="none" stroke="black" stroke-width="4.758"/>
<line x1="2469.579154" y1="1558.52728" x2="2492.277729" y2="1558.52728" stroke="black" stroke-width="4.758"/>
<line x1="2492.277729" y1="1558.52728" x2="2492.277729" y2="1514.237384" stroke="black" stroke-width="4.758"/>
<line x1="2492.277729" y1="1514.237384" x2="2469.579154" y2="1514.237384" stroke="black" stroke-width="4.758"/>
<line x1="2469.579154" y1="1514.237384" x2="2469.579154" y2="1558.52728" stroke="black" stroke-width="4.758"/>
<line x1="2714.280841" y1="1514.237384" x2="2714.280841" y2="1293.341516" stroke="black" stroke-width="4.758"/>
<line x1="2714.834465" y1="1559.634529" x2="2737.53304" y2="1559.634529" stroke="black" stroke-width="4.758"/>
<line x1="2737.53304" y1="1559.634529" x2="2737.53304" y2="1515.344628" stroke="black" stroke-width="4.758"/>
<line x1="2737.53304" y1="1515.344628" x2="2714.834465" y2="1515.344628" stroke="black" stroke-width="4.758"/>
<line x1="2714.834465" y1="1515.344628" x2="2714.834465" y2="1559.634529" stroke="black" stroke-width="4.758"/>
<path d="m 2492.277729,1515.898252 a 222.00311199999987,222.00311199999987 0 0 1 222.00311199999987,-222.00311199999987" fill="none" stroke="black" stroke-width="4.758"/>
<line x1="191.38945" y1="532.258913" x2="191.38945" y2="311.81735" stroke="black" stroke-width="4.758"/>
<line x1="191.38945" y1="311.81735" x2="151.960878" y2="311.81735" stroke="black" stroke-width="4.758"/>
<line x1="151.960878" y1="311.81735" x2="151.960878" y2="532.258913" stroke="black" stroke-width="4.758"/>
<line x1="151.960878" y1="532.258913" x2="191.38945" y2="532.258913" stroke="black" stroke-width="4.758"/>
<line x1="191.38945" y1="521.953719" x2="204.831009" y2="521.953719" stroke="black" stroke-width="4.758"/>
<line x1="204.831009" y1="521.953719" x2="204.831009" y2="322.570594" stroke="black" stroke-width="4.758"/>
<line x1="191.38945" y1="322.570594" x2="204.831009" y2="322.570594" stroke="black" stroke-width="4.758"/>
<line x1="196.592134" y1="2237.226342" x2="196.592134" y2="2016.769557" stroke="black" stroke-width="4.758005"/>
<line x1="196.592134" y1="2016.769557" x2="162.606909" y2="2016.769557" stroke="black" stroke-width="4.758005"/>
<line x1="162.606909" y1="2016.769557" x2="162.606909" y2="2237.226342" stroke="black" stroke-width="4.758005"/>
<line x1="162.606909" y1="2237.226342" x2="196.592134" y2="2237.226342" stroke="black" stroke-width="4.758005"/>
<line x1="163.054082" y1="2216.656338" x2="196.144957" y2="2216.656338" stroke="black" stroke-width="4.758005"/>
<line x1="163.054082" y1="2037.786734" x2="197.48648" y2="2037.786734" stroke="black" stroke-width="4.758005"/>
<line x1="178.705172" y1="2217.103511" x2="178.705172" y2="2038.233911" stroke="black" stroke-width="4.758005"/>
<line x1="2630.64014" y1="2277.391122" x2="2605.995975" y2="2277.391122" stroke="black" stroke-width="4.758"/>
<line x1="2605.995975" y1="2277.391122" x2="2605.995975" y2="2325.477299" stroke="black" stroke-width="4.758"/>
<line x1="2605.995975" y1="2325.477299" x2="2630.64014" y2="2325.477299" stroke="black" stroke-width="4.758"/>
<line x1="2630.64014" y1="2325.477299" x2="2630.64014" y2="2277.391122" stroke="black" stroke-width="4.758"/>
<line x1="2364.964024" y1="2325.477299" x2="2364.964024" y2="2565.307097" stroke="black" stroke-width="4.758"/>
<line x1="2364.362948" y1="2276.188969" x2="2339.718783" y2="2276.188969" stroke="black" stroke-width="4.758"/>
<line x1="2339.718783" y1="2276.188969" x2="2339.718783" y2="2324.275141" stroke="black" stroke-width="4.758"/>
<line x1="2339.718783" y1="2324.275141" x2="2364.362948" y2="2324.275141" stroke="black" stroke-width="4.758"/>
<line x1="2364.362948" y1="2324.275141" x2="2364.362948" y2="2276.188969" stroke="black" stroke-width="4.758"/>
<path d="m 2605.995975,2323.674065 a 241.03195099999994,241.03195099999994 0 0 1 -241.03195099999994,241.03195099999994" fill="none" stroke="black" stroke-width="4.758"/>
<line x1="568.88256" y1="1213.185645" x2="374.921777" y2="1213.185645" stroke="black" stroke-width="4.757996"/>
<line x1="374.921777" y1="1213.185645" x2="374.921777" y2="1161.3513" stroke="black" stroke-width="4.757996"/>
<line x1="568.88256" y1="1161.3513" x2="374.921777" y2="1161.3513" stroke="black" stroke-width="4.757996"/>
<line x1="568.88256" y1="1213.185645" x2="568.88256" y2="1161.3513" stroke="black" stroke-width="4.757996"/>
<line x1="524.99057" y1="1242.446969" x2="524.99057" y2="1213.185645" stroke="black" stroke-width="4.757996"/>
<line x1="420.485839" y1="1213.185645" x2="420.485839" y2="1244.119045" stroke="black" stroke-width="4.757996"/>
<circle cx="473.574242" cy="1290.101128" r="70.2271798019802" fill="none" stroke="black" stroke-width="4.757996"/>
<circle cx="473.574242" cy="1290.101128" r="60.19472554455446" fill="none" stroke="black" stroke-width="4.757996"/>
<line x1="863.33509" y1="1185.323243" x2="844.699588" y2="1160.740241" stroke="black" stroke-width="4.758"/>
<line x1="844.699588" y1="1160.740241" x2="697.201573" y2="1160.740241" stroke="black" stroke-width="4.758"/>
<line x1="697.201573" y1="1160.740241" x2="678.169571" y2="1188.891744" stroke="black" stroke-width="4.758"/>
<line x1="841.527588" y1="1188.098743" x2="698.391073" y2="1188.098743" stroke="black" stroke-width="4.758"/>
<circle cx="772.140081" cy="1209.906246" r="13.084501320000001" fill="none" stroke="black" stroke-width="4.758"/>
<path d="m 839.972378,1187.430553 a 74.93850864961598,74.93850864961598 0 1 1 -139.78529200000003,0.4025530000001254" fill="none" stroke="black" stroke-width="4.758"/>
<path d="m 863.288735,1184.665049 a 95.55651022076711,95.55651022076711 0 1 1 -184.699931,3.078845000000001" fill="none" stroke="black" stroke-width="4.758"/>
<line x1="1743.185922" y1="1314.969403" x2="1829.865703" y2="1434.273882" stroke="black" stroke-width="4.758"/>
<line x1="1829.865703" y1="1434.273882" x2="1710.316743" y2="1521.131286" stroke="black" stroke-width="4.758"/>
<line x1="1710.316743" y1="1521.131286" x2="1623.636966" y2="1401.826803" stroke="black" stroke-width="4.758"/>
<line x1="1623.636966" y1="1401.826803" x2="1743.185922" y2="1314.969403" stroke="black" stroke-width="4.758"/>
<line x1="1743.252776" y1="1314.547303" x2="1710.316743" y2="1521.131286" stroke="black" stroke-width="4.758"/>
<line x1="1623.881443" y1="1401.649185" x2="1829.68808" y2="1434.029409" stroke="black" stroke-width="4.758"/>
<line x1="1761.733145" y1="906.366371" x2="1761.733145" y2="1300.106802" stroke="black" stroke-width="4.758"/>
<line x1="1762.730682" y1="1304.067203" x2="1626.490088" y2="1304.067203" stroke="black" stroke-width="4.758"/>
<line x1="1625.337132" y1="906.831347" x2="1625.337132" y2="1304.372926" stroke="black" stroke-width="4.758"/>
<line x1="1761.037517" y1="907.567163" x2="1625.602659" y2="907.567163" stroke="black" stroke-width="4.758"/>
<line x1="1750.631144" y1="917.876164" x2="1750.631144" y2="1041.584176" stroke="black" stroke-width="4.758"/>
<line x1="1750.631144" y1="1041.584176" x2="1636.439133" y2="1041.584176" stroke="black" stroke-width="4.758"/>
<line x1="1636.439133" y1="917.876164" x2="1636.439133" y2="1041.584176" stroke="black" stroke-width="4.758"/>
<line x1="1750.631144" y1="917.876164" x2="1636.439133" y2="917.876164" stroke="black" stroke-width="4.758"/>
<line x1="1743.494144" y1="1060.616178" x2="1743.494144" y2="1147.846187" stroke="black" stroke-width="4.758"/>
<line x1="1723.669142" y1="1060.616178" x2="1723.669142" y2="1147.846187" stroke="black" stroke-width="4.758"/>
<line x1="1703.051139" y1="1061.409178" x2="1703.051139" y2="1147.846187" stroke="black" stroke-width="4.758"/>
<line x1="1683.226137" y1="1061.409178" x2="1683.226137" y2="1147.846187" stroke="black" stroke-width="4.758"/>
<line x1="1663.401135" y1="1060.616178" x2="1663.401135" y2="1147.846187" stroke="black" stroke-width="4.758"/>
<line x1="1643.576133" y1="1060.616178" x2="1643.576133" y2="1147.846187" stroke="black" stroke-width="4.758"/>
<line x1="1637.232133" y1="965.456169" x2="1650.713134" y2="965.456169" stroke="black" stroke-width="4.758"/>
<line x1="1650.713134" y1="965.456169" x2="1650.713134" y2="995.590172" stroke="black" stroke-width="4.758"/>
<line x1="1650.713134" y1="995.590172" x2="1638.025133" y2="995.590172" stroke="black" stroke-width="4.758"/>
<line x1="1750.631144" y1="1168.464189" x2="1750.631144" y2="1292.172202" stroke="black" stroke-width="4.758"/>
<line x1="1750.631144" y1="1292.172202" x2="1636.439133" y2="1292.172202" stroke="black" stroke-width="4.758"/>
<line x1="1636.439133" y1="1168.464189" x2="1636.439133" y2="1292.172202" stroke="black" stroke-width="4.758"/>
<line x1="1750.631144" y1="1168.464189" x2="1636.439133" y2="1168.464189" stroke="black" stroke-width="4.758"/>
<line x1="1636.439133" y1="1216.044194" x2="1649.920134" y2="1216.044194" stroke="black" stroke-width="4.758"/>
<line x1="1649.920134" y1="1216.044194" x2="1649.920134" y2="1246.178197" stroke="black" stroke-width="4.758"/>
<line x1="1649.920134" y1="1246.178197" x2="1637.232133" y2="1246.178197" stroke="black" stroke-width="4.758"/>
<circle cx="1736.357143" cy="1027.310175" r="7.1370007200000005" fill="none" stroke="black" stroke-width="4.758"/>
<circle cx="1735.564143" cy="1277.8982" r="7.1370007200000005" fill="none" stroke="black" stroke-width="4.758"/>
<line x1="2471.416619" y1="461.740443" x2="2471.416619" y2="594.012856" stroke="black" stroke-width="4.758"/>
<line x1="2471.416619" y1="594.012856" x2="2457.142618" y2="594.012856" stroke="black" stroke-width="4.758"/>
<line x1="2457.142618" y1="461.740443" x2="2457.142618" y2="594.012856" stroke="black" stroke-width="4.758"/>
<line x1="2471.416619" y1="461.740443" x2="2457.142618" y2="461.740443" stroke="black" stroke-width="4.758"/>
<line x1="2457.142618" y1="475.062844" x2="2425.739815" y2="473.159644" stroke="black" stroke-width="4.758"/>
<line x1="2457.142618" y1="580.690455" x2="2424.788214" y2="582.593655" stroke="black" stroke-width="4.758"/>
<line x1="2009.890573" y1="461.740443" x2="2009.890573" y2="594.012856" stroke="black" stroke-width="4.758"/>
<line x1="2009.890573" y1="594.012856" x2="2023.212974" y2="594.012856" stroke="black" stroke-width="4.758"/>
<line x1="2023.212974" y1="461.740443" x2="2023.212974" y2="594.012856" stroke="black" stroke-width="4.758"/>
<line x1="2009.890573" y1="461.740443" x2="2023.212974" y2="461.740443" stroke="black" stroke-width="4.758"/>
<line x1="2025.116174" y1="474.111244" x2="2056.518977" y2="472.208044" stroke="black" stroke-width="4.758"/>
<line x1="2025.116174" y1="579.738855" x2="2057.470577" y2="582.593655" stroke="black" stroke-width="4.758"/>
<line x1="2306.789803" y1="757.688073" x2="2306.789803" y2="743.414071" stroke="black" stroke-width="4.758"/>
<line x1="2306.789803" y1="743.414071" x2="2174.517389" y2="743.414071" stroke="black" stroke-width="4.758"/>
<line x1="2174.517389" y1="757.688073" x2="2174.517389" y2="743.414071" stroke="black" stroke-width="4.758"/>
<line x1="2306.789803" y1="757.688073" x2="2174.517389" y2="757.688073" stroke="black" stroke-width="4.758"/>
<line x1="2188.791391" y1="743.414071" x2="2185.93659" y2="711.059668" stroke="black" stroke-width="4.758"/>
<line x1="2293.467401" y1="743.414071" x2="2295.370601" y2="711.059668" stroke="black" stroke-width="4.758"/>
<line x1="2307.741403" y1="297.113626" x2="2307.741403" y2="311.387628" stroke="black" stroke-width="4.758"/>
<line x1="2307.741403" y1="311.387628" x2="2175.468989" y2="311.387628" stroke="black" stroke-width="4.758"/>
<line x1="2175.468989" y1="297.113626" x2="2175.468989" y2="311.387628" stroke="black" stroke-width="4.758"/>
<line x1="2307.741403" y1="297.113626" x2="2175.468989" y2="297.113626" stroke="black" stroke-width="4.758"/>
<line x1="2189.742991" y1="311.387628" x2="2186.88819" y2="343.742031" stroke="black" stroke-width="4.758"/>
<line x1="2294.419001" y1="311.387628" x2="2296.322201" y2="343.742031" stroke="black" stroke-width="4.758"/>
<circle cx="2241.129396" cy="527.40085" r="192.22321939199998" fill="none" stroke="black" stroke-width="4.758"/>
<line x1="1878.886453" y1="2846.549827" x2="1664.387958" y2="2846.549827" stroke="black" stroke-width="4.758"/>
<line x1="1664.387958" y1="2846.549827" x2="1664.387958" y2="2879.616529" stroke="black" stroke-width="4.758"/>
<line x1="1664.387958" y1="2879.616529" x2="1878.886453" y2="2879.616529" stroke="black" stroke-width="4.758"/>
<line x1="1878.886453" y1="2879.616529" x2="1878.886453" y2="2846.549827" stroke="black" stroke-width="4.758"/>
<line x1="1858.872395" y1="2879.181441" x2="1858.872395" y2="2846.984915" stroke="black" stroke-width="4.758"/>
<line x1="1684.837104" y1="2879.181441" x2="1684.837104" y2="2845.67965" stroke="black" stroke-width="4.758"/>
<line x1="1859.307483" y1="2863.953355" x2="1685.272192" y2="2863.953355" stroke="black" stroke-width="4.758"/>
<line x1="3594.389645" y1="1099.454701" x2="3594.389645" y2="909.134682" stroke="black" stroke-width="4.758"/>
<line x1="3594.389645" y1="909.134682" x2="3130.008798" y2="909.134682" stroke="black" stroke-width="4.758"/>
<line x1="3130.008798" y1="909.134682" x2="3130.008798" y2="1099.454701" stroke="black" stroke-width="4.758"/>
<line x1="3130.008798" y1="1099.454701" x2="3153.798801" y2="1099.454701" stroke="black" stroke-width="4.758"/>
<line x1="3153.798801" y1="1099.454701" x2="3153.798801" y2="931.973084" stroke="black" stroke-width="4.758"/>
<line x1="3153.798801" y1="931.973084" x2="3569.648043" y2="931.973084" stroke="black" stroke-width="4.758"/>
<line x1="3569.648043" y1="931.973084" x2="3569.648043" y2="1099.454701" stroke="black" stroke-width="4.758"/>
<line x1="3569.648043" y1="1099.454701" x2="3594.389645" y2="1099.454701" stroke="black" stroke-width="4.758"/>
<line x1="3569.648043" y1="1093.7451" x2="3153.798801" y2="1093.7451" stroke="black" stroke-width="4.758"/>
<line x1="3362.199222" y1="1094.696701" x2="3362.199222" y2="932.924684" stroke="black" stroke-width="4.758"/>
<line x1="3397.015516" y1="1287.182103" x2="3447.377528" y2="1442.180436" stroke="black" stroke-width="4.758005"/>
<line x1="3447.377528" y1="1442.180436" x2="3292.061581" y2="1492.645649" stroke="black" stroke-width="4.758005"/>
<line x1="3292.061581" y1="1492.645649" x2="3241.699564" y2="1337.647316" stroke="black" stroke-width="4.758005"/>
<line x1="3241.699564" y1="1337.647316" x2="3397.015516" y2="1287.182103" stroke="black" stroke-width="4.758005"/>
<line x1="3397.229939" y1="1286.761285" x2="3292.061581" y2="1492.645649" stroke="black" stroke-width="4.758005"/>
<line x1="3242.017187" y1="1337.544115" x2="3447.274328" y2="1441.862818" stroke="black" stroke-width="4.758005"/>
<line x1="421.513809" y1="793.235486" x2="211.884233" y2="793.235486" stroke="black" stroke-width="4.758"/>
<line x1="211.884233" y1="793.235486" x2="211.884233" y2="1124.86812" stroke="black" stroke-width="4.758"/>
<line x1="211.884233" y1="1124.86812" x2="421.513809" y2="1124.86812" stroke="black" stroke-width="4.758"/>
<line x1="421.513809" y1="1124.86812" x2="421.513809" y2="793.235486" stroke="black" stroke-width="4.758"/>
<line x1="422.187859" y1="1065.551714" x2="211.210183" y2="1065.551714" stroke="black" stroke-width="4.758"/>
<line x1="211.210183" y1="1065.551714" x2="420.839759" y2="1015.672009" stroke="black" stroke-width="4.758"/>
<line x1="420.839759" y1="1015.672009" x2="389.159406" y2="969.16255" stroke="black" stroke-width="4.758"/>
<line x1="389.159406" y1="969.16255" x2="211.210183" y2="1066.225764" stroke="black" stroke-width="4.758"/>
<line x1="402.546309" y1="1557.618167" x2="212.22629" y2="1557.618167" stroke="black" stroke-width="4.758"/>
<line x1="212.22629" y1="1557.618167" x2="212.22629" y2="2021.999014" stroke="black" stroke-width="4.758"/>
<line x1="212.22629" y1="2021.999014" x2="402.546309" y2="2021.999014" stroke="black" stroke-width="4.758"/>
<line x1="402.546309" y1="2021.999014" x2="402.546309" y2="1998.209012" stroke="black" stroke-width="4.758"/>
<line x1="402.546309" y1="1998.209012" x2="235.064692" y2="1998.209012" stroke="black" stroke-width="4.758"/>
<line x1="235.064692" y1="1998.209012" x2="235.064692" y2="1582.35977" stroke="black" stroke-width="4.758"/>
<line x1="235.064692" y1="1582.35977" x2="402.546309" y2="1582.35977" stroke="black" stroke-width="4.758"/>
<line x1="402.546309" y1="1582.35977" x2="402.546309" y2="1557.618167" stroke="black" stroke-width="4.758"/>
<line x1="396.836708" y1="1582.35977" x2="396.836708" y2="1998.209012" stroke="black" stroke-width="4.758"/>
<line x1="397.788308" y1="1789.808591" x2="236.016292" y2="1789.808591" stroke="black" stroke-width="4.758"/>
<line x1="1904.015986" y1="1927.394307" x2="1904.015986" y2="2137.023878" stroke="black" stroke-width="4.758"/>
<line x1="1904.015986" y1="2137.023878" x2="2235.64862" y2="2137.023878" stroke="black" stroke-width="4.758"/>
<line x1="2235.64862" y1="2137.023878" x2="2235.64862" y2="1927.394307" stroke="black" stroke-width="4.758"/>
<line x1="2235.64862" y1="1927.394307" x2="1904.015986" y2="1927.394307" stroke="black" stroke-width="4.758"/>
<line x1="2176.332214" y1="1926.720253" x2="2176.332214" y2="2137.697924" stroke="black" stroke-width="4.758"/>
<line x1="2176.332214" y1="2137.697924" x2="2126.452509" y2="1928.068357" stroke="black" stroke-width="4.758"/>
<line x1="2126.452509" y1="1928.068357" x2="2079.943054" y2="1959.748706" stroke="black" stroke-width="4.758"/>
<line x1="2079.943054" y1="1959.748706" x2="2177.006264" y2="2137.697924" stroke="black" stroke-width="4.758"/>
<line x1="1588.622541" y1="321.59638" x2="1588.622541" y2="131.276361" stroke="black" stroke-width="4.758"/>
<line x1="1588.622541" y1="131.276361" x2="1124.241694" y2="131.276361" stroke="black" stroke-width="4.758"/>
<line x1="1124.241694" y1="131.276361" x2="1124.241694" y2="321.59638" stroke="black" stroke-width="4.758"/>
<line x1="1124.241694" y1="321.59638" x2="1148.031696" y2="321.59638" stroke="black" stroke-width="4.758"/>
<line x1="1148.031696" y1="321.59638" x2="1148.031696" y2="154.114763" stroke="black" stroke-width="4.758"/>
<line x1="1148.031696" y1="154.114763" x2="1563.880938" y2="154.114763" stroke="black" stroke-width="4.758"/>
<line x1="1563.880938" y1="154.114763" x2="1563.880938" y2="321.59638" stroke="black" stroke-width="4.758"/>
<line x1="1563.880938" y1="321.59638" x2="1588.622541" y2="321.59638" stroke="black" stroke-width="4.758"/>
<line x1="1563.880938" y1="315.88678" x2="1148.031696" y2="315.88678" stroke="black" stroke-width="4.758"/>
<line x1="1356.432117" y1="316.83838" x2="1356.432117" y2="155.066364" stroke="black" stroke-width="4.758"/>
<line x1="983.956195" y1="1974.352173" x2="1216.146619" y2="1974.352173" stroke="black" stroke-width="4.758"/>
<line x1="1216.146619" y1="1974.352173" x2="1216.146619" y2="2207.018396" stroke="black" stroke-width="4.758"/>
<line x1="1216.146619" y1="2207.018396" x2="983.956195" y2="2207.018396" stroke="black" stroke-width="4.758"/>
<line x1="983.956195" y1="2207.018396" x2="983.956195" y2="1974.352173" stroke="black" stroke-width="4.758"/>
<line x1="983.480395" y1="1973.876373" x2="1216.146619" y2="2207.018396" stroke="black" stroke-width="4.758"/>
<line x1="983.956195" y1="2206.542596" x2="1215.670819" y2="1974.352173" stroke="black" stroke-width="4.758"/>
<line x1="777.483095" y1="904.061226" x2="997.841944" y2="904.061226" stroke="black" stroke-width="4.757996"/>
<line x1="997.841944" y1="904.061226" x2="997.841944" y2="1124.871631" stroke="black" stroke-width="4.757996"/>
<line x1="997.841944" y1="1124.871631" x2="777.483095" y2="1124.871631" stroke="black" stroke-width="4.757996"/>
<line x1="777.483095" y1="1124.871631" x2="777.483095" y2="904.061226" stroke="black" stroke-width="4.757996"/>
<line x1="777.031543" y1="903.60967" x2="997.841944" y2="1124.871631" stroke="black" stroke-width="4.757996"/>
<line x1="777.483095" y1="1124.420075" x2="997.390388" y2="904.061226" stroke="black" stroke-width="4.757996"/>
<line x1="3596.26509" y1="786.253394" x2="3392.856922" y2="786.253394" stroke="black" stroke-width="4.758"/>
<line x1="3392.856922" y1="786.253394" x2="3392.856922" y2="582.428407" stroke="black" stroke-width="4.758"/>
<line x1="3392.856922" y1="582.428407" x2="3596.26509" y2="582.428407" stroke="black" stroke-width="4.758"/>
<line x1="3596.26509" y1="582.428407" x2="3596.26509" y2="786.253394" stroke="black" stroke-width="4.758"/>
<line x1="3596.681913" y1="786.670217" x2="3392.856922" y2="582.428407" stroke="black" stroke-width="4.758"/>
<line x1="3596.26509" y1="582.84523" x2="3393.273745" y2="786.253394" stroke="black" stroke-width="4.758"/>
<line x1="2930.020337" y1="1004.582722" x2="2912.281335" y2="1029.916639" stroke="black" stroke-width="4.758"/>
<line x1="2912.281335" y1="1029.916639" x2="3084.162226" y2="1150.268935" stroke="black" stroke-width="4.758"/>
<line x1="3084.162226" y1="1150.268935" x2="3101.901228" y2="1124.935014" stroke="black" stroke-width="4.758"/>
<line x1="3101.901228" y1="1124.935014" x2="2930.020337" y2="1004.582722" stroke="black" stroke-width="4.758"/>
<line x1="2812.942933" y1="1171.786578" x2="2795.203935" y2="1197.120494" stroke="black" stroke-width="4.758"/>
<line x1="2795.203935" y1="1197.120494" x2="2967.084822" y2="1317.47279" stroke="black" stroke-width="4.758"/>
<line x1="2967.084822" y1="1317.47279" x2="2984.823824" y2="1292.138874" stroke="black" stroke-width="4.758"/>
<line x1="2984.823824" y1="1292.138874" x2="2812.942933" y2="1171.786578" stroke="black" stroke-width="4.758"/>
<line x1="2912.554242" y1="1029.526888" x2="2812.942933" y2="1171.786578" stroke="black" stroke-width="4.758"/>
<line x1="3083.928533" y1="1148.943611" x2="3090.082099" y2="1185.779676" stroke="black" stroke-width="4.758"/>
<line x1="3020.490632" y1="1285.166588" x2="2983.771411" y2="1291.982811" stroke="black" stroke-width="4.758"/>
<line x1="3091.17373" y1="1184.220669" x2="3019.399002" y2="1286.7256" stroke="black" stroke-width="4.758"/>
<line x1="2948.91808" y1="1055.569962" x2="2849.306771" y2="1197.829656" stroke="black" stroke-width="4.758"/>
<line x1="2815.325991" y1="1512.739561" x2="2838.6669" y2="1533.029499" stroke="black" stroke-width="4.758"/>
<line x1="2838.6669" y1="1533.029499" x2="2976.326334" y2="1374.670432" stroke="black" stroke-width="4.758"/>
<line x1="2976.326334" y1="1374.670432" x2="2952.98543" y2="1354.380494" stroke="black" stroke-width="4.758"/>
<line x1="2952.98543" y1="1354.380494" x2="2815.325991" y2="1512.739561" stroke="black" stroke-width="4.758"/>
<line x1="2969.375966" y1="1646.653163" x2="2992.716875" y2="1666.943101" stroke="black" stroke-width="4.758"/>
<line x1="2992.716875" y1="1666.943101" x2="3130.37631" y2="1508.584034" stroke="black" stroke-width="4.758"/>
<line x1="3130.37631" y1="1508.584034" x2="3107.035405" y2="1488.294096" stroke="black" stroke-width="4.758"/>
<line x1="3107.035405" y1="1488.294096" x2="2969.375966" y2="1646.653163" stroke="black" stroke-width="4.758"/>
<line x1="2838.307807" y1="1532.717348" x2="2969.375966" y2="1646.653163" stroke="black" stroke-width="4.758"/>
<line x1="2974.983847" y1="1374.764306" x2="3012.261344" y2="1372.494876" stroke="black" stroke-width="4.758"/>
<line x1="3103.829513" y1="1452.093867" x2="3106.770191" y2="1489.324428" stroke="black" stroke-width="4.758"/>
<line x1="3010.824983" y1="1371.246266" x2="3105.265878" y2="1453.342485" stroke="black" stroke-width="4.758"/>
<line x1="2868.009273" y1="1499.274957" x2="2999.077432" y2="1613.210777" stroke="black" stroke-width="4.758"/>
<line x1="373.832503" y1="1522.052933" x2="373.832503" y2="1161.21801" stroke="black" stroke-width="4.758005"/>
<line x1="373.832503" y1="1161.21801" x2="213.136786" y2="1161.21801" stroke="black" stroke-width="4.758005"/>
<line x1="213.136786" y1="1161.21801" x2="213.136786" y2="1522.052933" stroke="black" stroke-width="4.758005"/>
<line x1="213.136786" y1="1522.052933" x2="373.832503" y2="1522.052933" stroke="black" stroke-width="4.758005"/>
<line x1="237.971579" y1="1230.609341" x2="237.971579" y2="1492.835532" stroke="black" stroke-width="4.758005"/>
<line x1="237.971579" y1="1492.835532" x2="346.806404" y2="1492.835532" stroke="black" stroke-width="4.758005"/>
<line x1="346.806404" y1="1492.835532" x2="346.806404" y2="1225.496297" stroke="black" stroke-width="4.758005"/>
<path d="m 237.73601,1231.356907 a 58.434804782169536,58.434804782169536 0 0 1 110.09494500000002,-3.9600400000001628" fill="none" stroke="black" stroke-width="4.758005"/>
<line x1="619.394498" y1="130.465104" x2="839.753347" y2="130.465104" stroke="black" stroke-width="4.757996"/>
<line x1="839.753347" y1="130.465104" x2="839.753347" y2="351.27551" stroke="black" stroke-width="4.757996"/>
<line x1="839.753347" y1="351.27551" x2="619.394498" y2="351.27551" stroke="black" stroke-width="4.757996"/>
<line x1="619.394498" y1="351.27551" x2="619.394498" y2="130.465104" stroke="black" stroke-width="4.757996"/>
<line x1="618.942946" y1="130.013548" x2="839.753347" y2="351.27551" stroke="black" stroke-width="4.757996"/>
<line x1="619.394498" y1="350.823953" x2="839.301791" y2="130.465104" stroke="black" stroke-width="4.757996"/>
<line x1="660.142129" y1="634.463248" x2="689.014975" y2="623.380002" stroke="black" stroke-width="4.758"/>
<line x1="689.014975" y1="623.380002" x2="613.819408" y2="427.488857" stroke="black" stroke-width="4.758"/>
<line x1="613.819408" y1="427.488857" x2="584.946566" y2="438.572104" stroke="black" stroke-width="4.758"/>
<line x1="584.946566" y1="438.572104" x2="660.142129" y2="634.463248" stroke="black" stroke-width="4.758"/>
<line x1="850.702907" y1="561.313824" x2="879.575749" y2="550.230577" stroke="black" stroke-width="4.758"/>
<line x1="879.575749" y1="550.230577" x2="804.380182" y2="354.339429" stroke="black" stroke-width="4.758"/>
<line x1="804.380182" y1="354.339429" x2="775.50734" y2="365.422675" stroke="black" stroke-width="4.758"/>
<line x1="775.50734" y1="365.422675" x2="850.702907" y2="561.313824" stroke="black" stroke-width="4.758"/>
<line x1="688.570776" y1="623.550514" x2="850.702907" y2="561.313824" stroke="black" stroke-width="4.758"/>
<line x1="613.272035" y1="428.718276" x2="628.76897" y2="394.738765" stroke="black" stroke-width="4.758"/>
<line x1="742.039362" y1="351.258337" x2="776.29256" y2="366.140561" stroke="black" stroke-width="4.758"/>
<line x1="626.992179" y1="395.420811" x2="743.816153" y2="350.576286" stroke="black" stroke-width="4.758"/>
<line x1="672.986893" y1="581.625428" x2="835.119024" y2="519.388738" stroke="black" stroke-width="4.758"/>
<line x1="429.340922" y1="2298.092222" x2="210.279051" y2="2298.092222" stroke="black" stroke-width="4.758"/>
<line x1="210.279051" y1="2298.092222" x2="210.279051" y2="2644.646694" stroke="black" stroke-width="4.758"/>
<line x1="210.279051" y1="2644.646694" x2="429.340922" y2="2644.646694" stroke="black" stroke-width="4.758"/>
<line x1="429.340922" y1="2644.646694" x2="429.340922" y2="2298.092222" stroke="black" stroke-width="4.758"/>
<line x1="430.0453" y1="2582.66134" x2="209.574674" y2="2582.66134" stroke="black" stroke-width="4.758"/>
<line x1="209.574674" y1="2582.66134" x2="428.636544" y2="2530.537295" stroke="black" stroke-width="4.758"/>
<line x1="428.636544" y1="2530.537295" x2="395.53073" y2="2481.935144" stroke="black" stroke-width="4.758"/>
<line x1="395.53073" y1="2481.935144" x2="209.574674" y2="2583.365718" stroke="black" stroke-width="4.758"/>
<line x1="431.232906" y1="2574.771989" x2="499.789226" y2="2506.215665" stroke="black" stroke-width="4.758005"/>
<line x1="499.789226" y1="2506.215665" x2="568.486034" y2="2574.912474" stroke="black" stroke-width="4.758005"/>
<line x1="568.486034" y1="2574.912474" x2="499.92971" y2="2643.468798" stroke="black" stroke-width="4.758005"/>
<line x1="499.92971" y1="2643.468798" x2="431.232906" y2="2574.771989" stroke="black" stroke-width="4.758005"/>
<line x1="430.951937" y1="2574.771989" x2="568.486034" y2="2574.912474" stroke="black" stroke-width="4.758005"/>
<line x1="499.789226" y1="2643.328313" x2="499.648741" y2="2506.35615" stroke="black" stroke-width="4.758005"/>
<line x1="1217.492208" y1="2297.808777" x2="998.430337" y2="2297.808777" stroke="black" stroke-width="4.758"/>
<line x1="998.430337" y1="2297.808777" x2="998.430337" y2="2644.363249" stroke="black" stroke-width="4.758"/>
<line x1="998.430337" y1="2644.363249" x2="1217.492208" y2="2644.363249" stroke="black" stroke-width="4.758"/>
<line x1="1217.492208" y1="2644.363249" x2="1217.492208" y2="2297.808777" stroke="black" stroke-width="4.758"/>
<line x1="1218.196586" y1="2582.377895" x2="997.725959" y2="2582.377895" stroke="black" stroke-width="4.758"/>
<line x1="997.725959" y1="2582.377895" x2="1216.78783" y2="2530.25385" stroke="black" stroke-width="4.758"/>
<line x1="1216.78783" y1="2530.25385" x2="1183.682015" y2="2481.651699" stroke="black" stroke-width="4.758"/>
<line x1="1183.682015" y1="2481.651699" x2="997.725959" y2="2583.082273" stroke="black" stroke-width="4.758"/>
<line x1="996.284272" y1="2643.616423" x2="860.67883" y2="2643.616423" stroke="black" stroke-width="4.758"/>
<line x1="860.67883" y1="2643.616423" x2="860.67883" y2="2507.733097" stroke="black" stroke-width="4.758"/>
<line x1="860.67883" y1="2507.733097" x2="996.284272" y2="2507.733097" stroke="black" stroke-width="4.758"/>
<line x1="996.284272" y1="2507.733097" x2="996.284272" y2="2643.616423" stroke="black" stroke-width="4.758"/>
<line x1="996.562152" y1="2643.894304" x2="860.67883" y2="2507.733097" stroke="black" stroke-width="4.758"/>
<line x1="996.284272" y1="2508.010978" x2="860.956706" y2="2643.616423" stroke="black" stroke-width="4.758"/>
<line x1="1661.943566" y1="2607.239065" x2="1882.302415" y2="2607.239065" stroke="black" stroke-width="4.757996"/>
<line x1="1882.302415" y1="2607.239065" x2="1882.302415" y2="2828.04947" stroke="black" stroke-width="4.757996"/>
<line x1="1882.302415" y1="2828.04947" x2="1661.943566" y2="2828.04947" stroke="black" stroke-width="4.757996"/>
<line x1="1661.943566" y1="2828.04947" x2="1661.943566" y2="2607.239065" stroke="black" stroke-width="4.757996"/>
<line x1="1661.492014" y1="2606.787508" x2="1882.302415" y2="2828.04947" stroke="black" stroke-width="4.757996"/>
<line x1="1661.943566" y1="2827.597914" x2="1881.850859" y2="2607.239065" stroke="black" stroke-width="4.757996"/>
<line x1="1885.80963" y1="2362.318805" x2="1854.901469" y2="2363.398144" stroke="black" stroke-width="4.758"/>
<line x1="1854.901469" y1="2363.398144" x2="1862.224354" y2="2573.098142" stroke="black" stroke-width="4.758"/>
<line x1="1862.224354" y1="2573.098142" x2="1893.132519" y2="2572.018808" stroke="black" stroke-width="4.758"/>
<line x1="1893.132519" y1="2572.018808" x2="1885.80963" y2="2362.318805" stroke="black" stroke-width="4.758"/>
<line x1="1681.815756" y1="2369.44243" x2="1650.907591" y2="2370.521765" stroke="black" stroke-width="4.758"/>
<line x1="1650.907591" y1="2370.521765" x2="1658.23048" y2="2580.221768" stroke="black" stroke-width="4.758"/>
<line x1="1658.23048" y1="2580.221768" x2="1689.13864" y2="2579.142429" stroke="black" stroke-width="4.758"/>
<line x1="1689.13864" y1="2579.142429" x2="1681.815756" y2="2369.44243" stroke="black" stroke-width="4.758"/>
<line x1="1855.376978" y1="2363.381535" x2="1681.815756" y2="2369.44243" stroke="black" stroke-width="4.758"/>
<line x1="1863.142163" y1="2572.11391" x2="1837.42688" y2="2599.196863" stroke="black" stroke-width="4.758"/>
<line x1="1716.171775" y1="2603.431184" x2="1688.629918" y2="2578.208015" stroke="black" stroke-width="4.758"/>
<line x1="1839.328921" y1="2599.130441" x2="1714.269738" y2="2603.497607" stroke="black" stroke-width="4.758"/>
<line x1="1856.462358" y1="2408.096105" x2="1682.901131" y2="2414.156995" stroke="black" stroke-width="4.758"/>
<line x1="3266.406297" y1="2337.896583" x2="3435.913104" y2="2337.896583" stroke="black" stroke-width="4.758005"/>
<line x1="3435.913104" y1="2337.896583" x2="3435.913104" y2="2507.750737" stroke="black" stroke-width="4.758005"/>
<line x1="3435.913104" y1="2507.750737" x2="3266.406297" y2="2507.750737" stroke="black" stroke-width="4.758005"/>
<line x1="3266.406297" y1="2507.750737" x2="3266.406297" y2="2337.896583" stroke="black" stroke-width="4.758005"/>
<line x1="3266.058945" y1="2337.549231" x2="3435.913104" y2="2507.750737" stroke="black" stroke-width="4.758005"/>
<line x1="3266.406297" y1="2507.40339" x2="3435.565752" y2="2337.896583" stroke="black" stroke-width="4.758005"/>
<line x1="2808.66057" y1="2475.357719" x2="2978.167377" y2="2475.357719" stroke="black" stroke-width="4.758005"/>
<line x1="2978.167377" y1="2475.357719" x2="2978.167377" y2="2645.211874" stroke="black" stroke-width="4.758005"/>
<line x1="2978.167377" y1="2645.211874" x2="2808.66057" y2="2645.211874" stroke="black" stroke-width="4.758005"/>
<line x1="2808.66057" y1="2645.211874" x2="2808.66057" y2="2475.357719" stroke="black" stroke-width="4.758005"/>
<line x1="2808.313218" y1="2475.010368" x2="2978.167377" y2="2645.211874" stroke="black" stroke-width="4.758005"/>
<line x1="2808.66057" y1="2644.864526" x2="2977.820025" y2="2475.357719" stroke="black" stroke-width="4.758005"/>
<line x1="2976.846071" y1="2474.847604" x2="3146.352878" y2="2474.847604" stroke="black" stroke-width="4.758005"/>
<line x1="3146.352878" y1="2474.847604" x2="3146.352878" y2="2644.701759" stroke="black" stroke-width="4.758005"/>
<line x1="3146.352878" y1="2644.701759" x2="2976.846071" y2="2644.701759" stroke="black" stroke-width="4.758005"/>
<line x1="2976.846071" y1="2644.701759" x2="2976.846071" y2="2474.847604" stroke="black" stroke-width="4.758005"/>
<line x1="2976.498719" y1="2474.500253" x2="3146.352878" y2="2644.701759" stroke="black" stroke-width="4.758005"/>
<line x1="2976.846071" y1="2644.354411" x2="3146.005526" y2="2474.847604" stroke="black" stroke-width="4.758005"/>
</g>
</svg>
