<?xml version="1.0"?>
<svg xmlns:xlink="http://www.w3.org/1999/xlink" width="5498.133887999999" height="2960.5336319999997">
<image x="0" y="0" width="5498.133887999999" height="2960.5336319999997" xlink:href="ground16-07.png"/>
<g style="stroke-linecap:round">
<line x1="1294.244566" y1="1161.032193" x2="1316.799022" y2="1161.032193" stroke="black" stroke-width="4.758"/>
<line x1="1316.799022" y1="1161.032193" x2="1316.799022" y2="1117.023503" stroke="black" stroke-width="4.758"/>
<line x1="1316.799022" y1="1117.023503" x2="1294.244566" y2="1117.023503" stroke="black" stroke-width="4.758"/>
<line x1="1294.244566" y1="1117.023503" x2="1294.244566" y2="1161.032193" stroke="black" stroke-width="4.758"/>
<line x1="1537.39259" y1="1117.023503" x2="1537.39259" y2="897.530148" stroke="black" stroke-width="4.758"/>
<line x1="1537.942699" y1="1162.13241" x2="1560.497154" y2="1162.13241" stroke="black" stroke-width="4.758"/>
<line x1="1560.497154" y1="1162.13241" x2="1560.497154" y2="1118.12372" stroke="black" stroke-width="4.758"/>
<line x1="1560.497154" y1="1118.12372" x2="1537.942699" y2="1118.12372" stroke="black" stroke-width="4.758"/>
<line x1="1537.942699" y1="1118.12372" x2="1537.942699" y2="1162.13241" stroke="black" stroke-width="4.758"/>
<path d="m 1316.799022,1118.673829 a 220.59357050000006,220.59357050000006 0 0 1 220.593568,-220.5935730000001" fill="none" stroke="black" stroke-width="4.758"/>
<line x1="1546.852786" y1="1890.830668" x2="1524.29833" y2="1890.830668" stroke="black" stroke-width="4.758"/>
<line x1="1524.29833" y1="1890.830668" x2="1524.29833" y2="1934.839358" stroke="black" stroke-width="4.758"/>
<line x1="1524.29833" y1="1934.839358" x2="1546.852786" y2="1934.839358" stroke="black" stroke-width="4.758"/>
<line x1="1546.852786" y1="1934.839358" x2="1546.852786" y2="1890.830668" stroke="black" stroke-width="4.758"/>
<line x1="1303.704762" y1="1934.839358" x2="1303.704762" y2="2154.332713" stroke="black" stroke-width="4.758"/>
<line x1="1303.154654" y1="1889.730451" x2="1280.600198" y2="1889.730451" stroke="black" stroke-width="4.758"/>
<line x1="1280.600198" y1="1889.730451" x2="1280.600198" y2="1933.739141" stroke="black" stroke-width="4.758"/>
<line x1="1280.600198" y1="1933.739141" x2="1303.154654" y2="1933.739141" stroke="black" stroke-width="4.758"/>
<line x1="1303.154654" y1="1933.739141" x2="1303.154654" y2="1889.730451" stroke="black" stroke-width="4.758"/>
<path d="m 1524.29833,1933.189032 a 220.59357049999994,220.59357049999994 0 0 1 -220.593568,220.59357299999988" fill="none" stroke="black" stroke-width="4.758"/>
<line x1="4403.657584" y1="115.472526" x2="4618.156079" y2="115.472526" stroke="black" stroke-width="4.758"/>
<line x1="4618.156079" y1="115.472526" x2="4618.156079" y2="82.405824" stroke="black" stroke-width="4.758"/>
<line x1="4618.156079" y1="82.405824" x2="4403.657584" y2="82.405824" stroke="black" stroke-width="4.758"/>
<line x1="4403.657584" y1="82.405824" x2="4403.657584" y2="115.472526" stroke="black" stroke-width="4.758"/>
<line x1="4423.671642" y1="82.840912" x2="4423.671642" y2="115.037438" stroke="black" stroke-width="4.758"/>
<line x1="4597.706933" y1="82.840912" x2="4597.706933" y2="116.342703" stroke="black" stroke-width="4.758"/>
<line x1="4423.236554" y1="98.068998" x2="4597.271845" y2="98.068998" stroke="black" stroke-width="4.758"/>
<line x1="2442.746697" y1="110.676514" x2="2657.23038" y2="110.676514" stroke="black" stroke-width="4.758"/>
<line x1="2657.23038" y1="110.676514" x2="2657.23038" y2="72.31358" stroke="black" stroke-width="4.758"/>
<line x1="2657.23038" y1="72.31358" x2="2442.746697" y2="72.31358" stroke="black" stroke-width="4.758"/>
<line x1="2442.746697" y1="72.31358" x2="2442.746697" y2="110.676514" stroke="black" stroke-width="4.758"/>
<line x1="2452.773372" y1="110.676514" x2="2452.773372" y2="123.754791" stroke="black" stroke-width="4.758"/>
<line x1="2452.773372" y1="123.754791" x2="2646.767762" y2="123.754791" stroke="black" stroke-width="4.758"/>
<line x1="2646.767762" y1="110.676514" x2="2646.767762" y2="123.754791" stroke="black" stroke-width="4.758"/>
<line x1="1253.916155" y1="1507.813934" x2="1253.916155" y2="1485.259478" stroke="black" stroke-width="4.758"/>
<line x1="1253.916155" y1="1485.259478" x2="1209.907466" y2="1485.259478" stroke="black" stroke-width="4.758"/>
<line x1="1209.907466" y1="1485.259478" x2="1209.907466" y2="1507.813934" stroke="black" stroke-width="4.758"/>
<line x1="1209.907466" y1="1507.813934" x2="1253.916155" y2="1507.813934" stroke="black" stroke-width="4.758"/>
<line x1="1209.907466" y1="1264.66591" x2="990.414111" y2="1264.66591" stroke="black" stroke-width="4.758"/>
<line x1="1255.016372" y1="1264.115802" x2="1255.016372" y2="1241.561346" stroke="black" stroke-width="4.758"/>
<line x1="1255.016372" y1="1241.561346" x2="1211.007683" y2="1241.561346" stroke="black" stroke-width="4.758"/>
<line x1="1211.007683" y1="1241.561346" x2="1211.007683" y2="1264.115802" stroke="black" stroke-width="4.758"/>
<line x1="1211.007683" y1="1264.115802" x2="1255.016372" y2="1264.115802" stroke="black" stroke-width="4.758"/>
<path d="m 1211.557792,1485.259478 a 220.59357050000006,220.59357050000006 0 0 1 -220.5935730000001,-220.593568" fill="none" stroke="black" stroke-width="4.758"/>
<line x1="1253.394872" y1="1837.912218" x2="1253.394872" y2="1815.357762" stroke="black" stroke-width="4.758"/>
<line x1="1253.394872" y1="1815.357762" x2="1209.386183" y2="1815.357762" stroke="black" stroke-width="4.758"/>
<line x1="1209.386183" y1="1815.357762" x2="1209.386183" y2="1837.912218" stroke="black" stroke-width="4.758"/>
<line x1="1209.386183" y1="1837.912218" x2="1253.394872" y2="1837.912218" stroke="black" stroke-width="4.758"/>
<line x1="1209.386183" y1="1594.764194" x2="989.892827" y2="1594.764194" stroke="black" stroke-width="4.758"/>
<line x1="1254.495089" y1="1594.214086" x2="1254.495089" y2="1571.65963" stroke="black" stroke-width="4.758"/>
<line x1="1254.495089" y1="1571.65963" x2="1210.4864" y2="1571.65963" stroke="black" stroke-width="4.758"/>
<line x1="1210.4864" y1="1571.65963" x2="1210.4864" y2="1594.214086" stroke="black" stroke-width="4.758"/>
<line x1="1210.4864" y1="1594.214086" x2="1254.495089" y2="1594.214086" stroke="black" stroke-width="4.758"/>
<path d="m 1211.036509,1815.357762 a 220.5935705,220.5935705 0 0 1 -220.593573,-220.593568" fill="none" stroke="black" stroke-width="4.758"/>
<line x1="2469.579154" y1="1558.52728" x2="2492.277729" y2="1558.52728" stroke="black" stroke-width="4.758"/>
<line x1="2492.277729" y1="1558.52728" x2="2492.277729" y2="1514.237384" stroke="black" stroke-width="4.758"/>
<line x1="2492.277729" y1="1514.237384" x2="2469.579154" y2="1514.237384" stroke="black" stroke-width="4.758"/>
<line x1="2469.579154" y1="1514.237384" x2="2469.579154" y2="1558.52728" stroke="black" stroke-width="4.758"/>
<line x1="2714.280841" y1="1514.237384" x2="2714.280841" y2="1293.341516" stroke="black" stroke-width="4.758"/>
<line x1="2714.834465" y1="1559.634529" x2="2737.53304" y2="1559.634529" stroke="black" stroke-width="4.758"/>
<line x1="2737.53304" y1="1559.634529" x2="2737.53304" y2="1515.344628" stroke="black" stroke-width="4.758"/>
<line x1="2737.53304" y1="1515.344628" x2="2714.834465" y2="1515.344628" stroke="black" stroke-width="4.758"/>
<line x1="2714.834465" y1="1515.344628" x2="2714.834465" y2="1559.634529" stroke="black" stroke-width="4.758"/>
<path d="m 2492.277729,1515.898252 a 222.00311199999987,222.00311199999987 0 0 1 222.00311199999987,-222.00311199999987" fill="none" stroke="black" stroke-width="4.758"/>
<line x1="191.38945" y1="532.258913" x2="191.38945" y2="311.81735" stroke="black" stroke-width="4.758"/>
<line x1="191.38945" y1="311.81735" x2="151.960878" y2="311.81735" stroke="black" stroke-width="4.758"/>
<line x1="151.960878" y1="311.81735" x2="151.960878" y2="532.258913" stroke="black" stroke-width="4.758"/>
<line x1="151.960878" y1="532.258913" x2="191.38945" y2="532.258913" stroke="black" stroke-width="4.758"/>
<line x1="191.38945" y1="521.953719" x2="204.831009" y2="521.953719" stroke="black" stroke-width="4.758"/>
<line x1="204.831009" y1="521.953719" x2="204.831009" y2="322.570594" stroke="black" stroke-width="4.758"/>
<line x1="191.38945" y1="322.570594" x2="204.831009" y2="322.570594" stroke="black" stroke-width="4.758"/>
<line x1="196.592134" y1="2237.226342" x2="196.592134" y2="2016.769557" stroke="black" stroke-width="4.758005"/>
<line x1="196.592134" y1="2016.769557" x2="162.606909" y2="2016.769557" stroke="black" stroke-width="4.758005"/>
<line x1="162.606909" y1="2016.769557" x2="162.606909" y2="2237.226342" stroke="black" stroke-width="4.758005"/>
<line x1="162.606909" y1="2237.226342" x2="196.592134" y2="2237.226342" stroke="black" stroke-width="4.758005"/>
<line x1="163.054082" y1="2216.656338" x2="196.144957" y2="2216.656338" stroke="black" stroke-width="4.758005"/>
<line x1="163.054082" y1="2037.786734" x2="197.48648" y2="2037.786734" stroke="black" stroke-width="4.758005"/>
<line x1="178.705172" y1="2217.103511" x2="178.705172" y2="2038.233911" stroke="black" stroke-width="4.758005"/>
<line x1="2630.64014" y1="2277.391122" x2="2605.995975" y2="2277.391122" stroke="black" stroke-width="4.758"/>
<line x1="2605.995975" y1="2277.391122" x2="2605.995975" y2="2325.477299" stroke="black" stroke-width="4.758"/>
<line x1="2605.995975" y1="2325.477299" x2="2630.64014" y2="2325.477299" stroke="black" stroke-width="4.758"/>
<line x1="2630.64014" y1="2325.477299" x2="2630.64014" y2="2277.391122" stroke="black" stroke-width="4.758"/>
<line x1="2364.964024" y1="2325.477299" x2="2364.964024" y2="2565.307097" stroke="black" stroke-width="4.758"/>
<line x1="2364.362948" y1="2276.188969" x2="2339.718783" y2="2276.188969" stroke="black" stroke-width="4.758"/>
<line x1="2339.718783" y1="2276.188969" x2="2339.718783" y2="2324.275141" stroke="black" stroke-width="4.758"/>
<line x1="2339.718783" y1="2324.275141" x2="2364.362948" y2="2324.275141" stroke="black" stroke-width="4.758"/>
<line x1="2364.362948" y1="2324.275141" x2="2364.362948" y2="2276.188969" stroke="black" stroke-width="4.758"/>
<path d="m 2605.995975,2323.674065 a 241.03195099999994,241.03195099999994 0 0 1 -241.03195099999994,241.03195099999994" fill="none" stroke="black" stroke-width="4.758"/>
<line x1="568.88256" y1="1213.185645" x2="374.921777" y2="1213.185645" stroke="black" stroke-width="4.757996"/>
<line x1="374.921777" y1="1213.185645" x2="374.921777" y2="1161.3513" stroke="black" stroke-width="4.757996"/>
<line x1="568.88256" y1="1161.3513" x2="374.921777" y2="1161.3513" stroke="black" stroke-width="4.757996"/>
<line x1="568.88256" y1="1213.185645" x2="568.88256" y2="1161.3513" stroke="black" stroke-width="4.757996"/>
<line x1="524.99057" y1="1242.446969" x2="524.99057" y2="1213.185645" stroke="black" stroke-width="4.757996"/>
<line x1="420.485839" y1="1213.185645" x2="420.485839" y2="1244.119045" stroke="black" stroke-width="4.757996"/>
<circle cx="473.574242" cy="1290.101128" r="70.2271798019802" fill="none" stroke="black" stroke-width="4.757996"/>
<circle cx="473.574242" cy="1290.101128" r="60.19472554455446" fill="none" stroke="black" stroke-width="4.757996"/>
<line x1="907.212269" y1="1292.854054" x2="636.323442" y2="1292.854054" stroke="black" stroke-width="4.758"/>
<line x1="636.323442" y1="1292.854054" x2="636.323442" y2="1160.740241" stroke="black" stroke-width="4.758"/>
<line x1="907.212269" y1="1160.740241" x2="636.323442" y2="1160.740241" stroke="black" stroke-width="4.758"/>
<line x1="907.212269" y1="1292.854054" x2="907.212269" y2="1160.740241" stroke="black" stroke-width="4.758"/>
<line x1="900.551068" y1="1286.192853" x2="762.331154" y2="1286.192853" stroke="black" stroke-width="4.758"/>
<line x1="762.331154" y1="1286.192853" x2="762.331154" y2="1167.956541" stroke="black" stroke-width="4.758"/>
<line x1="900.551068" y1="1167.956541" x2="762.331154" y2="1167.956541" stroke="black" stroke-width="4.758"/>
<line x1="900.551068" y1="1286.192853" x2="900.551068" y2="1167.956541" stroke="black" stroke-width="4.758"/>
<line x1="747.898553" y1="1278.421453" x2="650.756043" y2="1278.421453" stroke="black" stroke-width="4.758"/>
<line x1="747.898553" y1="1257.882751" x2="650.756043" y2="1257.882751" stroke="black" stroke-width="4.758"/>
<line x1="747.343453" y1="1236.788948" x2="650.200943" y2="1236.788948" stroke="black" stroke-width="4.758"/>
<line x1="747.343453" y1="1216.250246" x2="650.200943" y2="1216.250246" stroke="black" stroke-width="4.758"/>
<line x1="747.898553" y1="1195.711544" x2="650.756043" y2="1195.711544" stroke="black" stroke-width="4.758"/>
<line x1="747.898553" y1="1175.172842" x2="650.756043" y2="1175.172842" stroke="black" stroke-width="4.758"/>
<line x1="847.816563" y1="1167.956541" x2="847.816563" y2="1181.834043" stroke="black" stroke-width="4.758"/>
<line x1="847.816563" y1="1181.834043" x2="813.40036" y2="1181.834043" stroke="black" stroke-width="4.758"/>
<line x1="813.40036" y1="1181.834043" x2="813.40036" y2="1168.511641" stroke="black" stroke-width="4.758"/>
<circle cx="777.873956" cy="1271.205152" r="8.32650084" fill="none" stroke="black" stroke-width="4.758"/>
<line x1="1725.087087" y1="1314.833941" x2="1829.926932" y2="1416.076601" stroke="black" stroke-width="4.758005"/>
<line x1="1829.926932" y1="1416.076601" x2="1728.476806" y2="1521.131282" stroke="black" stroke-width="4.758005"/>
<line x1="1728.476806" y1="1521.131282" x2="1623.636966" y2="1419.888623" stroke="black" stroke-width="4.758005"/>
<line x1="1623.636966" y1="1419.888623" x2="1725.087087" y2="1314.833941" stroke="black" stroke-width="4.758005"/>
<line x1="1725.079717" y1="1314.411642" x2="1728.476806" y2="1521.131282" stroke="black" stroke-width="4.758005"/>
<line x1="1623.844428" y1="1419.673786" x2="1829.712099" y2="1415.869139" stroke="black" stroke-width="4.758005"/>
<line x1="1761.126276" y1="823.831562" x2="1761.126276" y2="1217.571992" stroke="black" stroke-width="4.758"/>
<line x1="1762.123812" y1="1221.532393" x2="1625.883218" y2="1221.532393" stroke="black" stroke-width="4.758"/>
<line x1="1624.730262" y1="824.296537" x2="1624.730262" y2="1221.838117" stroke="black" stroke-width="4.758"/>
<line x1="1760.430647" y1="825.032353" x2="1624.995789" y2="825.032353" stroke="black" stroke-width="4.758"/>
<line x1="1750.024275" y1="835.341354" x2="1750.024275" y2="959.049367" stroke="black" stroke-width="4.758"/>
<line x1="1750.024275" y1="959.049367" x2="1635.832263" y2="959.049367" stroke="black" stroke-width="4.758"/>
<line x1="1635.832263" y1="835.341354" x2="1635.832263" y2="959.049367" stroke="black" stroke-width="4.758"/>
<line x1="1750.024275" y1="835.341354" x2="1635.832263" y2="835.341354" stroke="black" stroke-width="4.758"/>
<line x1="1742.887274" y1="978.081369" x2="1742.887274" y2="1065.311378" stroke="black" stroke-width="4.758"/>
<line x1="1723.062272" y1="978.081369" x2="1723.062272" y2="1065.311378" stroke="black" stroke-width="4.758"/>
<line x1="1702.44427" y1="978.874369" x2="1702.44427" y2="1065.311378" stroke="black" stroke-width="4.758"/>
<line x1="1682.619268" y1="978.874369" x2="1682.619268" y2="1065.311378" stroke="black" stroke-width="4.758"/>
<line x1="1662.794266" y1="978.081369" x2="1662.794266" y2="1065.311378" stroke="black" stroke-width="4.758"/>
<line x1="1642.969264" y1="978.081369" x2="1642.969264" y2="1065.311378" stroke="black" stroke-width="4.758"/>
<line x1="1636.625263" y1="882.921359" x2="1650.106264" y2="882.921359" stroke="black" stroke-width="4.758"/>
<line x1="1650.106264" y1="882.921359" x2="1650.106264" y2="913.055362" stroke="black" stroke-width="4.758"/>
<line x1="1650.106264" y1="913.055362" x2="1637.418263" y2="913.055362" stroke="black" stroke-width="4.758"/>
<line x1="1750.024275" y1="1085.92938" x2="1750.024275" y2="1209.637392" stroke="black" stroke-width="4.758"/>
<line x1="1750.024275" y1="1209.637392" x2="1635.832263" y2="1209.637392" stroke="black" stroke-width="4.758"/>
<line x1="1635.832263" y1="1085.92938" x2="1635.832263" y2="1209.637392" stroke="black" stroke-width="4.758"/>
<line x1="1750.024275" y1="1085.92938" x2="1635.832263" y2="1085.92938" stroke="black" stroke-width="4.758"/>
<line x1="1635.832263" y1="1133.509385" x2="1649.313264" y2="1133.509385" stroke="black" stroke-width="4.758"/>
<line x1="1649.313264" y1="1133.509385" x2="1649.313264" y2="1163.643388" stroke="black" stroke-width="4.758"/>
<line x1="1649.313264" y1="1163.643388" x2="1636.625263" y2="1163.643388" stroke="black" stroke-width="4.758"/>
<circle cx="1735.750273" cy="944.775365" r="7.1370007200000005" fill="none" stroke="black" stroke-width="4.758"/>
<circle cx="1734.957273" cy="1195.363391" r="7.1370007200000005" fill="none" stroke="black" stroke-width="4.758"/>
<line x1="2436.417746" y1="513.314208" x2="2568.690159" y2="513.314208" stroke="black" stroke-width="4.758"/>
<line x1="2568.690159" y1="513.314208" x2="2568.690159" y2="527.588209" stroke="black" stroke-width="4.758"/>
<line x1="2436.417746" y1="527.588209" x2="2568.690159" y2="527.588209" stroke="black" stroke-width="4.758"/>
<line x1="2436.417746" y1="513.314208" x2="2436.417746" y2="527.588209" stroke="black" stroke-width="4.758"/>
<line x1="2449.740147" y1="527.588209" x2="2447.836947" y2="558.991012" stroke="black" stroke-width="4.758"/>
<line x1="2555.367758" y1="527.588209" x2="2557.270958" y2="559.942612" stroke="black" stroke-width="4.758"/>
<line x1="2436.417746" y1="974.840254" x2="2568.690159" y2="974.840254" stroke="black" stroke-width="4.758"/>
<line x1="2568.690159" y1="974.840254" x2="2568.690159" y2="961.517853" stroke="black" stroke-width="4.758"/>
<line x1="2436.417746" y1="961.517853" x2="2568.690159" y2="961.517853" stroke="black" stroke-width="4.758"/>
<line x1="2436.417746" y1="974.840254" x2="2436.417746" y2="961.517853" stroke="black" stroke-width="4.758"/>
<line x1="2448.788547" y1="959.614653" x2="2446.885347" y2="928.211849" stroke="black" stroke-width="4.758"/>
<line x1="2554.416158" y1="959.614653" x2="2557.270958" y2="927.260249" stroke="black" stroke-width="4.758"/>
<line x1="2732.365375" y1="677.941024" x2="2718.091374" y2="677.941024" stroke="black" stroke-width="4.758"/>
<line x1="2718.091374" y1="677.941024" x2="2718.091374" y2="810.213438" stroke="black" stroke-width="4.758"/>
<line x1="2732.365375" y1="810.213438" x2="2718.091374" y2="810.213438" stroke="black" stroke-width="4.758"/>
<line x1="2732.365375" y1="677.941024" x2="2732.365375" y2="810.213438" stroke="black" stroke-width="4.758"/>
<line x1="2718.091374" y1="795.939436" x2="2685.736971" y2="798.794236" stroke="black" stroke-width="4.758"/>
<line x1="2718.091374" y1="691.263426" x2="2685.736971" y2="689.360225" stroke="black" stroke-width="4.758"/>
<line x1="2271.790929" y1="676.989424" x2="2286.06493" y2="676.989424" stroke="black" stroke-width="4.758"/>
<line x1="2286.06493" y1="676.989424" x2="2286.06493" y2="809.261837" stroke="black" stroke-width="4.758"/>
<line x1="2271.790929" y1="809.261837" x2="2286.06493" y2="809.261837" stroke="black" stroke-width="4.758"/>
<line x1="2271.790929" y1="676.989424" x2="2271.790929" y2="809.261837" stroke="black" stroke-width="4.758"/>
<line x1="2286.06493" y1="794.987836" x2="2318.419334" y2="797.842636" stroke="black" stroke-width="4.758"/>
<line x1="2286.06493" y1="690.311825" x2="2318.419334" y2="688.408625" stroke="black" stroke-width="4.758"/>
<circle cx="2502.078152" cy="743.601431" r="192.22321939199998" fill="none" stroke="black" stroke-width="4.758"/>
<line x1="1878.886453" y1="2846.549827" x2="1664.387958" y2="2846.549827" stroke="black" stroke-width="4.758"/>
<line x1="1664.387958" y1="2846.549827" x2="1664.387958" y2="2879.616529" stroke="black" stroke-width="4.758"/>
<line x1="1664.387958" y1="2879.616529" x2="1878.886453" y2="2879.616529" stroke="black" stroke-width="4.758"/>
<line x1="1878.886453" y1="2879.616529" x2="1878.886453" y2="2846.549827" stroke="black" stroke-width="4.758"/>
<line x1="1858.872395" y1="2879.181441" x2="1858.872395" y2="2846.984915" stroke="black" stroke-width="4.758"/>
<line x1="1684.837104" y1="2879.181441" x2="1684.837104" y2="2845.67965" stroke="black" stroke-width="4.758"/>
<line x1="1859.307483" y1="2863.953355" x2="1685.272192" y2="2863.953355" stroke="black" stroke-width="4.758"/>
<line x1="3594.406294" y1="1102.117943" x2="3594.406294" y2="911.797924" stroke="black" stroke-width="4.758"/>
<line x1="3594.406294" y1="911.797924" x2="3130.025447" y2="911.797924" stroke="black" stroke-width="4.758"/>
<line x1="3130.025447" y1="911.797924" x2="3130.025447" y2="1102.117943" stroke="black" stroke-width="4.758"/>
<line x1="3130.025447" y1="1102.117943" x2="3153.815449" y2="1102.117943" stroke="black" stroke-width="4.758"/>
<line x1="3153.815449" y1="1102.117943" x2="3153.815449" y2="934.636326" stroke="black" stroke-width="4.758"/>
<line x1="3153.815449" y1="934.636326" x2="3569.664691" y2="934.636326" stroke="black" stroke-width="4.758"/>
<line x1="3569.664691" y1="934.636326" x2="3569.664691" y2="1102.117943" stroke="black" stroke-width="4.758"/>
<line x1="3569.664691" y1="1102.117943" x2="3594.406294" y2="1102.117943" stroke="black" stroke-width="4.758"/>
<line x1="3569.664691" y1="1096.408343" x2="3153.815449" y2="1096.408343" stroke="black" stroke-width="4.758"/>
<line x1="3362.21587" y1="1097.359943" x2="3362.21587" y2="935.587926" stroke="black" stroke-width="4.758"/>
<line x1="3439.273367" y1="1288.576457" x2="3446.158682" y2="1485.746222" stroke="black" stroke-width="4.758"/>
<line x1="3446.158682" y1="1485.746222" x2="3248.584884" y2="1492.645649" stroke="black" stroke-width="4.758"/>
<line x1="3248.584884" y1="1492.645649" x2="3241.699564" y2="1295.475889" stroke="black" stroke-width="4.758"/>
<line x1="3241.699564" y1="1295.475889" x2="3439.273367" y2="1288.576457" stroke="black" stroke-width="4.758"/>
<line x1="3439.663293" y1="1288.158308" x2="3248.584884" y2="1492.645649" stroke="black" stroke-width="4.758"/>
<line x1="3242.103598" y1="1295.461778" x2="3446.144576" y2="1485.342188" stroke="black" stroke-width="4.758"/>
<line x1="421.513809" y1="793.235486" x2="211.884233" y2="793.235486" stroke="black" stroke-width="4.758"/>
<line x1="211.884233" y1="793.235486" x2="211.884233" y2="1124.86812" stroke="black" stroke-width="4.758"/>
<line x1="211.884233" y1="1124.86812" x2="421.513809" y2="1124.86812" stroke="black" stroke-width="4.758"/>
<line x1="421.513809" y1="1124.86812" x2="421.513809" y2="793.235486" stroke="black" stroke-width="4.758"/>
<line x1="422.187859" y1="1065.551714" x2="211.210183" y2="1065.551714" stroke="black" stroke-width="4.758"/>
<line x1="211.210183" y1="1065.551714" x2="420.839759" y2="1015.672009" stroke="black" stroke-width="4.758"/>
<line x1="420.839759" y1="1015.672009" x2="389.159406" y2="969.16255" stroke="black" stroke-width="4.758"/>
<line x1="389.159406" y1="969.16255" x2="211.210183" y2="1066.225764" stroke="black" stroke-width="4.758"/>
<line x1="676.607136" y1="1747.938186" x2="676.607136" y2="1557.618167" stroke="black" stroke-width="4.758"/>
<line x1="676.607136" y1="1557.618167" x2="212.22629" y2="1557.618167" stroke="black" stroke-width="4.758"/>
<line x1="212.22629" y1="1557.618167" x2="212.22629" y2="1747.938186" stroke="black" stroke-width="4.758"/>
<line x1="212.22629" y1="1747.938186" x2="236.016292" y2="1747.938186" stroke="black" stroke-width="4.758"/>
<line x1="236.016292" y1="1747.938186" x2="236.016292" y2="1580.45657" stroke="black" stroke-width="4.758"/>
<line x1="236.016292" y1="1580.45657" x2="651.865534" y2="1580.45657" stroke="black" stroke-width="4.758"/>
<line x1="651.865534" y1="1580.45657" x2="651.865534" y2="1747.938186" stroke="black" stroke-width="4.758"/>
<line x1="651.865534" y1="1747.938186" x2="676.607136" y2="1747.938186" stroke="black" stroke-width="4.758"/>
<line x1="651.865534" y1="1742.228586" x2="236.016292" y2="1742.228586" stroke="black" stroke-width="4.758"/>
<line x1="444.416713" y1="1743.180186" x2="444.416713" y2="1581.40817" stroke="black" stroke-width="4.758"/>
<line x1="1904.015986" y1="1927.394307" x2="1904.015986" y2="2137.023878" stroke="black" stroke-width="4.758"/>
<line x1="1904.015986" y1="2137.023878" x2="2235.64862" y2="2137.023878" stroke="black" stroke-width="4.758"/>
<line x1="2235.64862" y1="2137.023878" x2="2235.64862" y2="1927.394307" stroke="black" stroke-width="4.758"/>
<line x1="2235.64862" y1="1927.394307" x2="1904.015986" y2="1927.394307" stroke="black" stroke-width="4.758"/>
<line x1="2176.332214" y1="1926.720253" x2="2176.332214" y2="2137.697924" stroke="black" stroke-width="4.758"/>
<line x1="2176.332214" y1="2137.697924" x2="2126.452509" y2="1928.068357" stroke="black" stroke-width="4.758"/>
<line x1="2126.452509" y1="1928.068357" x2="2079.943054" y2="1959.748706" stroke="black" stroke-width="4.758"/>
<line x1="2079.943054" y1="1959.748706" x2="2177.006264" y2="2137.697924" stroke="black" stroke-width="4.758"/>
<line x1="983.956195" y1="1974.352173" x2="1216.146619" y2="1974.352173" stroke="black" stroke-width="4.758"/>
<line x1="1216.146619" y1="1974.352173" x2="1216.146619" y2="2207.018396" stroke="black" stroke-width="4.758"/>
<line x1="1216.146619" y1="2207.018396" x2="983.956195" y2="2207.018396" stroke="black" stroke-width="4.758"/>
<line x1="983.956195" y1="2207.018396" x2="983.956195" y2="1974.352173" stroke="black" stroke-width="4.758"/>
<line x1="983.480395" y1="1973.876373" x2="1216.146619" y2="2207.018396" stroke="black" stroke-width="4.758"/>
<line x1="983.956195" y1="2206.542596" x2="1215.670819" y2="1974.352173" stroke="black" stroke-width="4.758"/>
<line x1="2815.325991" y1="1453.91978" x2="2828.396311" y2="1481.949166" stroke="black" stroke-width="4.758"/>
<line x1="2828.396311" y1="1481.949166" x2="3018.564898" y2="1393.272095" stroke="black" stroke-width="4.758"/>
<line x1="3018.564898" y1="1393.272095" x2="3005.494587" y2="1365.242714" stroke="black" stroke-width="4.758"/>
<line x1="3005.494587" y1="1365.242714" x2="2815.325991" y2="1453.91978" stroke="black" stroke-width="4.758"/>
<line x1="2901.590086" y1="1638.913712" x2="2914.660397" y2="1666.943097" stroke="black" stroke-width="4.758"/>
<line x1="2914.660397" y1="1666.943097" x2="3104.828988" y2="1578.266026" stroke="black" stroke-width="4.758"/>
<line x1="3104.828988" y1="1578.266026" x2="3091.758673" y2="1550.236641" stroke="black" stroke-width="4.758"/>
<line x1="3091.758673" y1="1550.236641" x2="2901.590086" y2="1638.913712" stroke="black" stroke-width="4.758"/>
<line x1="2828.195232" y1="1481.517941" x2="2901.590086" y2="1638.913712" stroke="black" stroke-width="4.758"/>
<line x1="3017.300296" y1="1392.811815" x2="3052.278045" y2="1405.900709" stroke="black" stroke-width="4.758"/>
<line x1="3103.553901" y1="1515.862136" x2="3091.097311" y2="1551.070031" stroke="black" stroke-width="4.758"/>
<line x1="3051.473718" y1="1404.175824" x2="3104.358228" y2="1517.587025" stroke="black" stroke-width="4.758"/>
<line x1="2868.931113" y1="1463.047476" x2="2942.325967" y2="1620.443246" stroke="black" stroke-width="4.758"/>
<line x1="2887.04342" y1="1004.582718" x2="2874.959275" y2="1033.051174" stroke="black" stroke-width="4.758"/>
<line x1="2874.959275" y1="1033.051174" x2="3068.106807" y2="1115.037439" stroke="black" stroke-width="4.758"/>
<line x1="3068.106807" y1="1115.037439" x2="3080.190947" y2="1086.568983" stroke="black" stroke-width="4.758"/>
<line x1="3080.190947" y1="1086.568983" x2="2887.04342" y2="1004.582718" stroke="black" stroke-width="4.758"/>
<line x1="2807.28808" y1="1192.474531" x2="2795.203935" y2="1220.942987" stroke="black" stroke-width="4.758"/>
<line x1="2795.203935" y1="1220.942987" x2="2988.351462" y2="1302.929248" stroke="black" stroke-width="4.758"/>
<line x1="2988.351462" y1="1302.929248" x2="3000.435603" y2="1274.460796" stroke="black" stroke-width="4.758"/>
<line x1="3000.435603" y1="1274.460796" x2="2807.28808" y2="1192.474531" stroke="black" stroke-width="4.758"/>
<line x1="2875.145185" y1="1032.6132" x2="2807.28808" y2="1192.474531" stroke="black" stroke-width="4.758"/>
<line x1="3067.60267" y1="1113.789667" x2="3081.28041" y2="1148.54138" stroke="black" stroke-width="4.758"/>
<line x1="3033.87339" y1="1260.225321" x2="2999.373741" y2="1274.52695" stroke="black" stroke-width="4.758"/>
<line x1="3082.024051" y1="1146.789475" x2="3033.129749" y2="1261.97723" stroke="black" stroke-width="4.758"/>
<line x1="2916.129046" y1="1050.526702" x2="2848.271937" y2="1210.388037" stroke="black" stroke-width="4.758"/>
<line x1="1398.302522" y1="595.657208" x2="1588.622541" y2="595.657208" stroke="black" stroke-width="4.758"/>
<line x1="1588.622541" y1="595.657208" x2="1588.622541" y2="131.276361" stroke="black" stroke-width="4.758"/>
<line x1="1588.622541" y1="131.276361" x2="1398.302522" y2="131.276361" stroke="black" stroke-width="4.758"/>
<line x1="1398.302522" y1="131.276361" x2="1398.302522" y2="155.066364" stroke="black" stroke-width="4.758"/>
<line x1="1398.302522" y1="155.066364" x2="1565.784138" y2="155.066364" stroke="black" stroke-width="4.758"/>
<line x1="1565.784138" y1="155.066364" x2="1565.784138" y2="570.915606" stroke="black" stroke-width="4.758"/>
<line x1="1565.784138" y1="570.915606" x2="1398.302522" y2="570.915606" stroke="black" stroke-width="4.758"/>
<line x1="1398.302522" y1="570.915606" x2="1398.302522" y2="595.657208" stroke="black" stroke-width="4.758"/>
<line x1="1404.012122" y1="570.915606" x2="1404.012122" y2="155.066364" stroke="black" stroke-width="4.758"/>
<line x1="1403.060522" y1="363.466785" x2="1564.832538" y2="363.466785" stroke="black" stroke-width="4.758"/>
<line x1="3596.950088" y1="895.852904" x2="3393.54192" y2="895.852904" stroke="black" stroke-width="4.758"/>
<line x1="3393.54192" y1="895.852904" x2="3393.54192" y2="692.027917" stroke="black" stroke-width="4.758"/>
<line x1="3393.54192" y1="692.027917" x2="3596.950088" y2="692.027917" stroke="black" stroke-width="4.758"/>
<line x1="3596.950088" y1="692.027917" x2="3596.950088" y2="895.852904" stroke="black" stroke-width="4.758"/>
<line x1="3597.366911" y1="896.269727" x2="3393.54192" y2="692.027917" stroke="black" stroke-width="4.758"/>
<line x1="3596.950088" y1="692.44474" x2="3393.958743" y2="895.852904" stroke="black" stroke-width="4.758"/>
<line x1="213.13679" y1="1161.21801" x2="213.13679" y2="1522.052933" stroke="black" stroke-width="4.758005"/>
<line x1="213.13679" y1="1522.052933" x2="373.832507" y2="1522.052933" stroke="black" stroke-width="4.758005"/>
<line x1="373.832507" y1="1522.052933" x2="373.832507" y2="1161.21801" stroke="black" stroke-width="4.758005"/>
<line x1="373.832507" y1="1161.21801" x2="213.13679" y2="1161.21801" stroke="black" stroke-width="4.758005"/>
<line x1="348.997714" y1="1452.661602" x2="348.997714" y2="1190.435411" stroke="black" stroke-width="4.758005"/>
<line x1="348.997714" y1="1190.435411" x2="240.162889" y2="1190.435411" stroke="black" stroke-width="4.758005"/>
<line x1="240.162889" y1="1190.435411" x2="240.162889" y2="1457.774646" stroke="black" stroke-width="4.758005"/>
<path d="m 349.233283,1451.914037 a 58.43480492002392,58.43480492002392 0 0 1 -110.09494499999997,3.9600390000000516" fill="none" stroke="black" stroke-width="4.758005"/>
<line x1="619.394498" y1="130.465104" x2="839.753347" y2="130.465104" stroke="black" stroke-width="4.757996"/>
<line x1="839.753347" y1="130.465104" x2="839.753347" y2="351.27551" stroke="black" stroke-width="4.757996"/>
<line x1="839.753347" y1="351.27551" x2="619.394498" y2="351.27551" stroke="black" stroke-width="4.757996"/>
<line x1="619.394498" y1="351.27551" x2="619.394498" y2="130.465104" stroke="black" stroke-width="4.757996"/>
<line x1="618.942946" y1="130.013548" x2="839.753347" y2="351.27551" stroke="black" stroke-width="4.757996"/>
<line x1="619.394498" y1="350.823953" x2="839.301791" y2="130.465104" stroke="black" stroke-width="4.757996"/>
<line x1="606.252786" y1="579.958194" x2="637.062104" y2="582.653663" stroke="black" stroke-width="4.758"/>
<line x1="637.062104" y1="582.653663" x2="655.349804" y2="373.624296" stroke="black" stroke-width="4.758"/>
<line x1="655.349804" y1="373.624296" x2="624.540487" y2="370.928832" stroke="black" stroke-width="4.758"/>
<line x1="624.540487" y1="370.928832" x2="606.252786" y2="579.958194" stroke="black" stroke-width="4.758"/>
<line x1="809.594276" y1="597.74827" x2="840.403594" y2="600.443739" stroke="black" stroke-width="4.758"/>
<line x1="840.403594" y1="600.443739" x2="858.69129" y2="391.414372" stroke="black" stroke-width="4.758"/>
<line x1="858.69129" y1="391.414372" x2="827.881973" y2="388.718907" stroke="black" stroke-width="4.758"/>
<line x1="827.881973" y1="388.718907" x2="809.594276" y2="597.74827" stroke="black" stroke-width="4.758"/>
<line x1="636.58811" y1="582.612189" x2="809.594276" y2="597.74827" stroke="black" stroke-width="4.758"/>
<line x1="654.318887" y1="374.48934" x2="683.143074" y2="350.742164" stroke="black" stroke-width="4.758"/>
<line x1="804.010397" y1="361.316684" x2="828.273028" y2="389.708356" stroke="black" stroke-width="4.758"/>
<line x1="681.247116" y1="350.576291" x2="805.90635" y2="361.482562" stroke="black" stroke-width="4.758"/>
<line x1="640.960162" y1="538.09865" x2="813.966324" y2="553.234726" stroke="black" stroke-width="4.758"/>
<line x1="429.340922" y1="2298.092222" x2="210.279051" y2="2298.092222" stroke="black" stroke-width="4.758"/>
<line x1="210.279051" y1="2298.092222" x2="210.279051" y2="2644.646694" stroke="black" stroke-width="4.758"/>
<line x1="210.279051" y1="2644.646694" x2="429.340922" y2="2644.646694" stroke="black" stroke-width="4.758"/>
<line x1="429.340922" y1="2644.646694" x2="429.340922" y2="2298.092222" stroke="black" stroke-width="4.758"/>
<line x1="430.0453" y1="2582.66134" x2="209.574674" y2="2582.66134" stroke="black" stroke-width="4.758"/>
<line x1="209.574674" y1="2582.66134" x2="428.636544" y2="2530.537295" stroke="black" stroke-width="4.758"/>
<line x1="428.636544" y1="2530.537295" x2="395.53073" y2="2481.935144" stroke="black" stroke-width="4.758"/>
<line x1="395.53073" y1="2481.935144" x2="209.574674" y2="2583.365718" stroke="black" stroke-width="4.758"/>
<line x1="431.229813" y1="2507.585476" x2="566.835254" y2="2507.585476" stroke="black" stroke-width="4.758"/>
<line x1="566.835254" y1="2507.585476" x2="566.835254" y2="2643.468802" stroke="black" stroke-width="4.758"/>
<line x1="566.835254" y1="2643.468802" x2="431.229813" y2="2643.468802" stroke="black" stroke-width="4.758"/>
<line x1="431.229813" y1="2643.468802" x2="431.229813" y2="2507.585476" stroke="black" stroke-width="4.758"/>
<line x1="430.951933" y1="2507.307596" x2="566.835254" y2="2643.468802" stroke="black" stroke-width="4.758"/>
<line x1="431.229813" y1="2643.190922" x2="566.557378" y2="2507.585476" stroke="black" stroke-width="4.758"/>
<line x1="1217.492208" y1="2297.808777" x2="998.430337" y2="2297.808777" stroke="black" stroke-width="4.758"/>
<line x1="998.430337" y1="2297.808777" x2="998.430337" y2="2644.363249" stroke="black" stroke-width="4.758"/>
<line x1="998.430337" y1="2644.363249" x2="1217.492208" y2="2644.363249" stroke="black" stroke-width="4.758"/>
<line x1="1217.492208" y1="2644.363249" x2="1217.492208" y2="2297.808777" stroke="black" stroke-width="4.758"/>
<line x1="1218.196586" y1="2582.377895" x2="997.725959" y2="2582.377895" stroke="black" stroke-width="4.758"/>
<line x1="997.725959" y1="2582.377895" x2="1216.78783" y2="2530.25385" stroke="black" stroke-width="4.758"/>
<line x1="1216.78783" y1="2530.25385" x2="1183.682015" y2="2481.651699" stroke="black" stroke-width="4.758"/>
<line x1="1183.682015" y1="2481.651699" x2="997.725959" y2="2583.082273" stroke="black" stroke-width="4.758"/>
<line x1="860.678826" y1="2643.616423" x2="860.678826" y2="2508.010982" stroke="black" stroke-width="4.758"/>
<line x1="860.678826" y1="2508.010982" x2="996.562152" y2="2508.010982" stroke="black" stroke-width="4.758"/>
<line x1="996.562152" y1="2508.010982" x2="996.562152" y2="2643.616423" stroke="black" stroke-width="4.758"/>
<line x1="996.562152" y1="2643.616423" x2="860.678826" y2="2643.616423" stroke="black" stroke-width="4.758"/>
<line x1="860.400946" y1="2643.894304" x2="996.562152" y2="2508.010982" stroke="black" stroke-width="4.758"/>
<line x1="996.284272" y1="2643.616423" x2="860.678826" y2="2508.288858" stroke="black" stroke-width="4.758"/>
<line x1="1661.943566" y1="2607.239065" x2="1882.302415" y2="2607.239065" stroke="black" stroke-width="4.757996"/>
<line x1="1882.302415" y1="2607.239065" x2="1882.302415" y2="2828.04947" stroke="black" stroke-width="4.757996"/>
<line x1="1882.302415" y1="2828.04947" x2="1661.943566" y2="2828.04947" stroke="black" stroke-width="4.757996"/>
<line x1="1661.943566" y1="2828.04947" x2="1661.943566" y2="2607.239065" stroke="black" stroke-width="4.757996"/>
<line x1="1661.492014" y1="2606.787508" x2="1882.302415" y2="2828.04947" stroke="black" stroke-width="4.757996"/>
<line x1="1661.943566" y1="2827.597914" x2="1881.850859" y2="2607.239065" stroke="black" stroke-width="4.757996"/>
<line x1="1875.880881" y1="2348.285875" x2="1845.184403" y2="2352.05493" stroke="black" stroke-width="4.758"/>
<line x1="1845.184403" y1="2352.05493" x2="1870.755977" y2="2560.318726" stroke="black" stroke-width="4.758"/>
<line x1="1870.755977" y1="2560.318726" x2="1901.452455" y2="2556.549671" stroke="black" stroke-width="4.758"/>
<line x1="1901.452455" y1="2556.549671" x2="1875.880881" y2="2348.285875" stroke="black" stroke-width="4.758"/>
<line x1="1673.284124" y1="2373.161627" x2="1642.587646" y2="2376.930682" stroke="black" stroke-width="4.758"/>
<line x1="1642.587646" y1="2376.930682" x2="1668.159224" y2="2585.194482" stroke="black" stroke-width="4.758"/>
<line x1="1668.159224" y1="2585.194482" x2="1698.855702" y2="2581.425427" stroke="black" stroke-width="4.758"/>
<line x1="1698.855702" y1="2581.425427" x2="1673.284124" y2="2373.161627" stroke="black" stroke-width="4.758"/>
<line x1="1845.656652" y1="2351.996944" x2="1673.284124" y2="2373.161627" stroke="black" stroke-width="4.758"/>
<line x1="1871.584517" y1="2559.258247" x2="1848.327516" y2="2588.479375" stroke="black" stroke-width="4.758"/>
<line x1="1727.902872" y1="2603.265663" x2="1698.267477" y2="2580.538902" stroke="black" stroke-width="4.758"/>
<line x1="1850.21653" y1="2588.247431" x2="1726.013862" y2="2603.497602" stroke="black" stroke-width="4.758"/>
<line x1="1850.635032" y1="2396.446757" x2="1678.262499" y2="2417.611445" stroke="black" stroke-width="4.758"/>
<line x1="2808.66057" y1="2475.357719" x2="2978.167377" y2="2475.357719" stroke="black" stroke-width="4.758005"/>
<line x1="2978.167377" y1="2475.357719" x2="2978.167377" y2="2645.211874" stroke="black" stroke-width="4.758005"/>
<line x1="2978.167377" y1="2645.211874" x2="2808.66057" y2="2645.211874" stroke="black" stroke-width="4.758005"/>
<line x1="2808.66057" y1="2645.211874" x2="2808.66057" y2="2475.357719" stroke="black" stroke-width="4.758005"/>
<line x1="2808.313218" y1="2475.010368" x2="2978.167377" y2="2645.211874" stroke="black" stroke-width="4.758005"/>
<line x1="2808.66057" y1="2644.864526" x2="2977.820025" y2="2475.357719" stroke="black" stroke-width="4.758005"/>
<line x1="2976.846071" y1="2474.847604" x2="3146.352878" y2="2474.847604" stroke="black" stroke-width="4.758005"/>
<line x1="3146.352878" y1="2474.847604" x2="3146.352878" y2="2644.701759" stroke="black" stroke-width="4.758005"/>
<line x1="3146.352878" y1="2644.701759" x2="2976.846071" y2="2644.701759" stroke="black" stroke-width="4.758005"/>
<line x1="2976.846071" y1="2644.701759" x2="2976.846071" y2="2474.847604" stroke="black" stroke-width="4.758005"/>
<line x1="2976.498719" y1="2474.500253" x2="3146.352878" y2="2644.701759" stroke="black" stroke-width="4.758005"/>
<line x1="2976.846071" y1="2644.354411" x2="3146.005526" y2="2474.847604" stroke="black" stroke-width="4.758005"/>
<line x1="3434.14941" y1="2338.590075" x2="3603.656217" y2="2338.590075" stroke="black" stroke-width="4.758005"/>
<line x1="3603.656217" y1="2338.590075" x2="3603.656217" y2="2508.444229" stroke="black" stroke-width="4.758005"/>
<line x1="3603.656217" y1="2508.444229" x2="3434.14941" y2="2508.444229" stroke="black" stroke-width="4.758005"/>
<line x1="3434.14941" y1="2508.444229" x2="3434.14941" y2="2338.590075" stroke="black" stroke-width="4.758005"/>
<line x1="3433.802058" y1="2338.242723" x2="3603.656217" y2="2508.444229" stroke="black" stroke-width="4.758005"/>
<line x1="3434.14941" y1="2508.096882" x2="3603.308865" y2="2338.590075" stroke="black" stroke-width="4.758005"/>
</g>
</svg>
