<?xml version="1.0"?>
<svg xmlns:xlink="http://www.w3.org/1999/xlink" width="5498.133887999999" height="2960.5336319999997">
<image x="0" y="0" width="5498.133887999999" height="2960.5336319999997" xlink:href="ground16-07.png"/>
<g style="stroke-linecap:round">
<line x1="1294.244566" y1="1161.032193" x2="1316.799022" y2="1161.032193" stroke="black" stroke-width="4.758"/>
<line x1="1316.799022" y1="1161.032193" x2="1316.799022" y2="1117.023503" stroke="black" stroke-width="4.758"/>
<line x1="1316.799022" y1="1117.023503" x2="1294.244566" y2="1117.023503" stroke="black" stroke-width="4.758"/>
<line x1="1294.244566" y1="1117.023503" x2="1294.244566" y2="1161.032193" stroke="black" stroke-width="4.758"/>
<line x1="1537.39259" y1="1117.023503" x2="1537.39259" y2="897.530148" stroke="black" stroke-width="4.758"/>
<line x1="1537.942699" y1="1162.13241" x2="1560.497154" y2="1162.13241" stroke="black" stroke-width="4.758"/>
<line x1="1560.497154" y1="1162.13241" x2="1560.497154" y2="1118.12372" stroke="black" stroke-width="4.758"/>
<line x1="1560.497154" y1="1118.12372" x2="1537.942699" y2="1118.12372" stroke="black" stroke-width="4.758"/>
<line x1="1537.942699" y1="1118.12372" x2="1537.942699" y2="1162.13241" stroke="black" stroke-width="4.758"/>
<path d="m 1316.799022,1118.673829 a 220.59357050000006,220.59357050000006 0 0 1 220.593568,-220.5935730000001" fill="none" stroke="black" stroke-width="4.758"/>
<line x1="1546.852786" y1="1890.830668" x2="1524.29833" y2="1890.830668" stroke="black" stroke-width="4.758"/>
<line x1="1524.29833" y1="1890.830668" x2="1524.29833" y2="1934.839358" stroke="black" stroke-width="4.758"/>
<line x1="1524.29833" y1="1934.839358" x2="1546.852786" y2="1934.839358" stroke="black" stroke-width="4.758"/>
<line x1="1546.852786" y1="1934.839358" x2="1546.852786" y2="1890.830668" stroke="black" stroke-width="4.758"/>
<line x1="1303.704762" y1="1934.839358" x2="1303.704762" y2="2154.332713" stroke="black" stroke-width="4.758"/>
<line x1="1303.154654" y1="1889.730451" x2="1280.600198" y2="1889.730451" stroke="black" stroke-width="4.758"/>
<line x1="1280.600198" y1="1889.730451" x2="1280.600198" y2="1933.739141" stroke="black" stroke-width="4.758"/>
<line x1="1280.600198" y1="1933.739141" x2="1303.154654" y2="1933.739141" stroke="black" stroke-width="4.758"/>
<line x1="1303.154654" y1="1933.739141" x2="1303.154654" y2="1889.730451" stroke="black" stroke-width="4.758"/>
<path d="m 1524.29833,1933.189032 a 220.59357049999994,220.59357049999994 0 0 1 -220.593568,220.59357299999988" fill="none" stroke="black" stroke-width="4.758"/>
<line x1="4403.66499" y1="112.016592" x2="4618.148673" y2="112.016592" stroke="black" stroke-width="4.758"/>
<line x1="4618.148673" y1="112.016592" x2="4618.148673" y2="73.653658" stroke="black" stroke-width="4.758"/>
<line x1="4618.148673" y1="73.653658" x2="4403.66499" y2="73.653658" stroke="black" stroke-width="4.758"/>
<line x1="4403.66499" y1="73.653658" x2="4403.66499" y2="112.016592" stroke="black" stroke-width="4.758"/>
<line x1="4413.691665" y1="112.016592" x2="4413.691665" y2="125.094868" stroke="black" stroke-width="4.758"/>
<line x1="4413.691665" y1="125.094868" x2="4607.686055" y2="125.094868" stroke="black" stroke-width="4.758"/>
<line x1="4607.686055" y1="112.016592" x2="4607.686055" y2="125.094868" stroke="black" stroke-width="4.758"/>
<line x1="2442.746697" y1="110.676514" x2="2657.23038" y2="110.676514" stroke="black" stroke-width="4.758"/>
<line x1="2657.23038" y1="110.676514" x2="2657.23038" y2="72.31358" stroke="black" stroke-width="4.758"/>
<line x1="2657.23038" y1="72.31358" x2="2442.746697" y2="72.31358" stroke="black" stroke-width="4.758"/>
<line x1="2442.746697" y1="72.31358" x2="2442.746697" y2="110.676514" stroke="black" stroke-width="4.758"/>
<line x1="2452.773372" y1="110.676514" x2="2452.773372" y2="123.754791" stroke="black" stroke-width="4.758"/>
<line x1="2452.773372" y1="123.754791" x2="2646.767762" y2="123.754791" stroke="black" stroke-width="4.758"/>
<line x1="2646.767762" y1="110.676514" x2="2646.767762" y2="123.754791" stroke="black" stroke-width="4.758"/>
<line x1="1253.916155" y1="1507.813934" x2="1253.916155" y2="1485.259478" stroke="black" stroke-width="4.758"/>
<line x1="1253.916155" y1="1485.259478" x2="1209.907466" y2="1485.259478" stroke="black" stroke-width="4.758"/>
<line x1="1209.907466" y1="1485.259478" x2="1209.907466" y2="1507.813934" stroke="black" stroke-width="4.758"/>
<line x1="1209.907466" y1="1507.813934" x2="1253.916155" y2="1507.813934" stroke="black" stroke-width="4.758"/>
<line x1="1209.907466" y1="1264.66591" x2="990.414111" y2="1264.66591" stroke="black" stroke-width="4.758"/>
<line x1="1255.016372" y1="1264.115802" x2="1255.016372" y2="1241.561346" stroke="black" stroke-width="4.758"/>
<line x1="1255.016372" y1="1241.561346" x2="1211.007683" y2="1241.561346" stroke="black" stroke-width="4.758"/>
<line x1="1211.007683" y1="1241.561346" x2="1211.007683" y2="1264.115802" stroke="black" stroke-width="4.758"/>
<line x1="1211.007683" y1="1264.115802" x2="1255.016372" y2="1264.115802" stroke="black" stroke-width="4.758"/>
<path d="m 1211.557792,1485.259478 a 220.59357050000006,220.59357050000006 0 0 1 -220.5935730000001,-220.593568" fill="none" stroke="black" stroke-width="4.758"/>
<line x1="1253.394872" y1="1837.912218" x2="1253.394872" y2="1815.357762" stroke="black" stroke-width="4.758"/>
<line x1="1253.394872" y1="1815.357762" x2="1209.386183" y2="1815.357762" stroke="black" stroke-width="4.758"/>
<line x1="1209.386183" y1="1815.357762" x2="1209.386183" y2="1837.912218" stroke="black" stroke-width="4.758"/>
<line x1="1209.386183" y1="1837.912218" x2="1253.394872" y2="1837.912218" stroke="black" stroke-width="4.758"/>
<line x1="1209.386183" y1="1594.764194" x2="989.892827" y2="1594.764194" stroke="black" stroke-width="4.758"/>
<line x1="1254.495089" y1="1594.214086" x2="1254.495089" y2="1571.65963" stroke="black" stroke-width="4.758"/>
<line x1="1254.495089" y1="1571.65963" x2="1210.4864" y2="1571.65963" stroke="black" stroke-width="4.758"/>
<line x1="1210.4864" y1="1571.65963" x2="1210.4864" y2="1594.214086" stroke="black" stroke-width="4.758"/>
<line x1="1210.4864" y1="1594.214086" x2="1254.495089" y2="1594.214086" stroke="black" stroke-width="4.758"/>
<path d="m 1211.036509,1815.357762 a 220.5935705,220.5935705 0 0 1 -220.593573,-220.593568" fill="none" stroke="black" stroke-width="4.758"/>
<line x1="2469.579154" y1="1558.52728" x2="2492.277729" y2="1558.52728" stroke="black" stroke-width="4.758"/>
<line x1="2492.277729" y1="1558.52728" x2="2492.277729" y2="1514.237384" stroke="black" stroke-width="4.758"/>
<line x1="2492.277729" y1="1514.237384" x2="2469.579154" y2="1514.237384" stroke="black" stroke-width="4.758"/>
<line x1="2469.579154" y1="1514.237384" x2="2469.579154" y2="1558.52728" stroke="black" stroke-width="4.758"/>
<line x1="2714.280841" y1="1514.237384" x2="2714.280841" y2="1293.341516" stroke="black" stroke-width="4.758"/>
<line x1="2714.834465" y1="1559.634529" x2="2737.53304" y2="1559.634529" stroke="black" stroke-width="4.758"/>
<line x1="2737.53304" y1="1559.634529" x2="2737.53304" y2="1515.344628" stroke="black" stroke-width="4.758"/>
<line x1="2737.53304" y1="1515.344628" x2="2714.834465" y2="1515.344628" stroke="black" stroke-width="4.758"/>
<line x1="2714.834465" y1="1515.344628" x2="2714.834465" y2="1559.634529" stroke="black" stroke-width="4.758"/>
<path d="m 2492.277729,1515.898252 a 222.00311199999987,222.00311199999987 0 0 1 222.00311199999987,-222.00311199999987" fill="none" stroke="black" stroke-width="4.758"/>
<line x1="194.941386" y1="532.266526" x2="194.941386" y2="311.809742" stroke="black" stroke-width="4.758005"/>
<line x1="194.941386" y1="311.809742" x2="160.95616" y2="311.809742" stroke="black" stroke-width="4.758005"/>
<line x1="160.95616" y1="311.809742" x2="160.95616" y2="532.266526" stroke="black" stroke-width="4.758005"/>
<line x1="160.95616" y1="532.266526" x2="194.941386" y2="532.266526" stroke="black" stroke-width="4.758005"/>
<line x1="161.403333" y1="511.696523" x2="194.494209" y2="511.696523" stroke="black" stroke-width="4.758005"/>
<line x1="161.403333" y1="332.826918" x2="195.835731" y2="332.826918" stroke="black" stroke-width="4.758005"/>
<line x1="177.054423" y1="512.143695" x2="177.054423" y2="333.274095" stroke="black" stroke-width="4.758005"/>
<line x1="193.040199" y1="2237.218729" x2="193.040199" y2="2016.777166" stroke="black" stroke-width="4.758"/>
<line x1="193.040199" y1="2016.777166" x2="153.611627" y2="2016.777166" stroke="black" stroke-width="4.758"/>
<line x1="153.611627" y1="2016.777166" x2="153.611627" y2="2237.218729" stroke="black" stroke-width="4.758"/>
<line x1="153.611627" y1="2237.218729" x2="193.040199" y2="2237.218729" stroke="black" stroke-width="4.758"/>
<line x1="193.040199" y1="2226.913535" x2="206.481757" y2="2226.913535" stroke="black" stroke-width="4.758"/>
<line x1="206.481757" y1="2226.913535" x2="206.481757" y2="2027.53041" stroke="black" stroke-width="4.758"/>
<line x1="193.040199" y1="2027.53041" x2="206.481757" y2="2027.53041" stroke="black" stroke-width="4.758"/>
<line x1="2630.64014" y1="2277.391122" x2="2605.995975" y2="2277.391122" stroke="black" stroke-width="4.758"/>
<line x1="2605.995975" y1="2277.391122" x2="2605.995975" y2="2325.477299" stroke="black" stroke-width="4.758"/>
<line x1="2605.995975" y1="2325.477299" x2="2630.64014" y2="2325.477299" stroke="black" stroke-width="4.758"/>
<line x1="2630.64014" y1="2325.477299" x2="2630.64014" y2="2277.391122" stroke="black" stroke-width="4.758"/>
<line x1="2364.964024" y1="2325.477299" x2="2364.964024" y2="2565.307097" stroke="black" stroke-width="4.758"/>
<line x1="2364.362948" y1="2276.188969" x2="2339.718783" y2="2276.188969" stroke="black" stroke-width="4.758"/>
<line x1="2339.718783" y1="2276.188969" x2="2339.718783" y2="2324.275141" stroke="black" stroke-width="4.758"/>
<line x1="2339.718783" y1="2324.275141" x2="2364.362948" y2="2324.275141" stroke="black" stroke-width="4.758"/>
<line x1="2364.362948" y1="2324.275141" x2="2364.362948" y2="2276.188969" stroke="black" stroke-width="4.758"/>
<path d="m 2605.995975,2323.674065 a 241.03195099999994,241.03195099999994 0 0 1 -241.03195099999994,241.03195099999994" fill="none" stroke="black" stroke-width="4.758"/>
<line x1="568.88256" y1="1213.185645" x2="374.921777" y2="1213.185645" stroke="black" stroke-width="4.757996"/>
<line x1="374.921777" y1="1213.185645" x2="374.921777" y2="1161.3513" stroke="black" stroke-width="4.757996"/>
<line x1="568.88256" y1="1161.3513" x2="374.921777" y2="1161.3513" stroke="black" stroke-width="4.757996"/>
<line x1="568.88256" y1="1213.185645" x2="568.88256" y2="1161.3513" stroke="black" stroke-width="4.757996"/>
<line x1="524.99057" y1="1242.446969" x2="524.99057" y2="1213.185645" stroke="black" stroke-width="4.757996"/>
<line x1="420.485839" y1="1213.185645" x2="420.485839" y2="1244.119045" stroke="black" stroke-width="4.757996"/>
<circle cx="473.574242" cy="1290.101128" r="70.2271798019802" fill="none" stroke="black" stroke-width="4.757996"/>
<circle cx="473.574242" cy="1290.101128" r="60.19472554455446" fill="none" stroke="black" stroke-width="4.757996"/>
<line x1="863.33509" y1="1185.323243" x2="844.699588" y2="1160.740241" stroke="black" stroke-width="4.758"/>
<line x1="844.699588" y1="1160.740241" x2="697.201573" y2="1160.740241" stroke="black" stroke-width="4.758"/>
<line x1="697.201573" y1="1160.740241" x2="678.169571" y2="1188.891744" stroke="black" stroke-width="4.758"/>
<line x1="841.527588" y1="1188.098743" x2="698.391073" y2="1188.098743" stroke="black" stroke-width="4.758"/>
<circle cx="772.140081" cy="1209.906246" r="13.084501320000001" fill="none" stroke="black" stroke-width="4.758"/>
<path d="m 839.972378,1187.430553 a 74.93850864961598,74.93850864961598 0 1 1 -139.78529200000003,0.4025530000001254" fill="none" stroke="black" stroke-width="4.758"/>
<path d="m 863.288735,1184.665049 a 95.55651022076711,95.55651022076711 0 1 1 -184.699931,3.078845000000001" fill="none" stroke="black" stroke-width="4.758"/>
<line x1="1766.219363" y1="1315.3587" x2="1829.571315" y2="1457.649515" stroke="black" stroke-width="4.758005"/>
<line x1="1829.571315" y1="1457.649515" x2="1686.988923" y2="1521.131286" stroke="black" stroke-width="4.758005"/>
<line x1="1686.988923" y1="1521.131286" x2="1623.63697" y2="1378.840471" stroke="black" stroke-width="4.758005"/>
<line x1="1623.63697" y1="1378.840471" x2="1766.219363" y2="1315.3587" stroke="black" stroke-width="4.758005"/>
<line x1="1766.381126" y1="1314.9373" x2="1686.988923" y2="1521.131286" stroke="black" stroke-width="4.758005"/>
<line x1="1623.928548" y1="1378.710653" x2="1829.441497" y2="1457.357934" stroke="black" stroke-width="4.758005"/>
<line x1="1760.929876" y1="797.121614" x2="1760.929876" y2="1190.862045" stroke="black" stroke-width="4.758"/>
<line x1="1761.927413" y1="1194.822446" x2="1625.686818" y2="1194.822446" stroke="black" stroke-width="4.758"/>
<line x1="1624.533862" y1="797.58659" x2="1624.533862" y2="1195.128169" stroke="black" stroke-width="4.758"/>
<line x1="1760.234247" y1="798.322406" x2="1624.799389" y2="798.322406" stroke="black" stroke-width="4.758"/>
<line x1="1749.827875" y1="808.631407" x2="1749.827875" y2="932.339419" stroke="black" stroke-width="4.758"/>
<line x1="1749.827875" y1="932.339419" x2="1635.635863" y2="932.339419" stroke="black" stroke-width="4.758"/>
<line x1="1635.635863" y1="808.631407" x2="1635.635863" y2="932.339419" stroke="black" stroke-width="4.758"/>
<line x1="1749.827875" y1="808.631407" x2="1635.635863" y2="808.631407" stroke="black" stroke-width="4.758"/>
<line x1="1742.690874" y1="951.371421" x2="1742.690874" y2="1038.60143" stroke="black" stroke-width="4.758"/>
<line x1="1722.865872" y1="951.371421" x2="1722.865872" y2="1038.60143" stroke="black" stroke-width="4.758"/>
<line x1="1702.24787" y1="952.164421" x2="1702.24787" y2="1038.60143" stroke="black" stroke-width="4.758"/>
<line x1="1682.422868" y1="952.164421" x2="1682.422868" y2="1038.60143" stroke="black" stroke-width="4.758"/>
<line x1="1662.597866" y1="951.371421" x2="1662.597866" y2="1038.60143" stroke="black" stroke-width="4.758"/>
<line x1="1642.772864" y1="951.371421" x2="1642.772864" y2="1038.60143" stroke="black" stroke-width="4.758"/>
<line x1="1636.428863" y1="856.211412" x2="1649.909865" y2="856.211412" stroke="black" stroke-width="4.758"/>
<line x1="1649.909865" y1="856.211412" x2="1649.909865" y2="886.345415" stroke="black" stroke-width="4.758"/>
<line x1="1649.909865" y1="886.345415" x2="1637.221863" y2="886.345415" stroke="black" stroke-width="4.758"/>
<line x1="1749.827875" y1="1059.219432" x2="1749.827875" y2="1182.927445" stroke="black" stroke-width="4.758"/>
<line x1="1749.827875" y1="1182.927445" x2="1635.635863" y2="1182.927445" stroke="black" stroke-width="4.758"/>
<line x1="1635.635863" y1="1059.219432" x2="1635.635863" y2="1182.927445" stroke="black" stroke-width="4.758"/>
<line x1="1749.827875" y1="1059.219432" x2="1635.635863" y2="1059.219432" stroke="black" stroke-width="4.758"/>
<line x1="1635.635863" y1="1106.799437" x2="1649.116865" y2="1106.799437" stroke="black" stroke-width="4.758"/>
<line x1="1649.116865" y1="1106.799437" x2="1649.116865" y2="1136.93344" stroke="black" stroke-width="4.758"/>
<line x1="1649.116865" y1="1136.93344" x2="1636.428863" y2="1136.93344" stroke="black" stroke-width="4.758"/>
<circle cx="1735.553873" cy="918.065418" r="7.1370007200000005" fill="none" stroke="black" stroke-width="4.758"/>
<circle cx="1734.760873" cy="1168.653443" r="7.1370007200000005" fill="none" stroke="black" stroke-width="4.758"/>
<line x1="2382.722107" y1="821.493159" x2="2250.449693" y2="821.493159" stroke="black" stroke-width="4.758"/>
<line x1="2250.449693" y1="821.493159" x2="2250.449693" y2="807.219157" stroke="black" stroke-width="4.758"/>
<line x1="2382.722107" y1="807.219157" x2="2250.449693" y2="807.219157" stroke="black" stroke-width="4.758"/>
<line x1="2382.722107" y1="821.493159" x2="2382.722107" y2="807.219157" stroke="black" stroke-width="4.758"/>
<line x1="2369.399705" y1="807.219157" x2="2371.302905" y2="775.816354" stroke="black" stroke-width="4.758"/>
<line x1="2263.772095" y1="807.219157" x2="2261.868894" y2="774.864754" stroke="black" stroke-width="4.758"/>
<line x1="2382.722107" y1="359.967112" x2="2250.449693" y2="359.967112" stroke="black" stroke-width="4.758"/>
<line x1="2250.449693" y1="359.967112" x2="2250.449693" y2="373.289514" stroke="black" stroke-width="4.758"/>
<line x1="2382.722107" y1="373.289514" x2="2250.449693" y2="373.289514" stroke="black" stroke-width="4.758"/>
<line x1="2382.722107" y1="359.967112" x2="2382.722107" y2="373.289514" stroke="black" stroke-width="4.758"/>
<line x1="2370.351305" y1="375.192714" x2="2372.254506" y2="406.595517" stroke="black" stroke-width="4.758"/>
<line x1="2264.723695" y1="375.192714" x2="2261.868894" y2="407.547117" stroke="black" stroke-width="4.758"/>
<line x1="2086.774477" y1="656.866342" x2="2101.048478" y2="656.866342" stroke="black" stroke-width="4.758"/>
<line x1="2101.048478" y1="656.866342" x2="2101.048478" y2="524.593929" stroke="black" stroke-width="4.758"/>
<line x1="2086.774477" y1="524.593929" x2="2101.048478" y2="524.593929" stroke="black" stroke-width="4.758"/>
<line x1="2086.774477" y1="656.866342" x2="2086.774477" y2="524.593929" stroke="black" stroke-width="4.758"/>
<line x1="2101.048478" y1="538.86793" x2="2133.402881" y2="536.01313" stroke="black" stroke-width="4.758"/>
<line x1="2101.048478" y1="643.543941" x2="2133.402881" y2="645.447141" stroke="black" stroke-width="4.758"/>
<line x1="2547.348923" y1="657.817942" x2="2533.074922" y2="657.817942" stroke="black" stroke-width="4.758"/>
<line x1="2533.074922" y1="657.817942" x2="2533.074922" y2="525.545529" stroke="black" stroke-width="4.758"/>
<line x1="2547.348923" y1="525.545529" x2="2533.074922" y2="525.545529" stroke="black" stroke-width="4.758"/>
<line x1="2547.348923" y1="657.817942" x2="2547.348923" y2="525.545529" stroke="black" stroke-width="4.758"/>
<line x1="2533.074922" y1="539.81953" x2="2500.720518" y2="536.96473" stroke="black" stroke-width="4.758"/>
<line x1="2533.074922" y1="644.495541" x2="2500.720518" y2="646.398741" stroke="black" stroke-width="4.758"/>
<circle cx="2317.0617" cy="591.205936" r="192.22321939199998" fill="none" stroke="black" stroke-width="4.758"/>
<line x1="1878.886453" y1="2846.549827" x2="1664.387958" y2="2846.549827" stroke="black" stroke-width="4.758"/>
<line x1="1664.387958" y1="2846.549827" x2="1664.387958" y2="2879.616529" stroke="black" stroke-width="4.758"/>
<line x1="1664.387958" y1="2879.616529" x2="1878.886453" y2="2879.616529" stroke="black" stroke-width="4.758"/>
<line x1="1878.886453" y1="2879.616529" x2="1878.886453" y2="2846.549827" stroke="black" stroke-width="4.758"/>
<line x1="1858.872395" y1="2879.181441" x2="1858.872395" y2="2846.984915" stroke="black" stroke-width="4.758"/>
<line x1="1684.837104" y1="2879.181441" x2="1684.837104" y2="2845.67965" stroke="black" stroke-width="4.758"/>
<line x1="1859.307483" y1="2863.953355" x2="1685.272192" y2="2863.953355" stroke="black" stroke-width="4.758"/>
<line x1="3594.399236" y1="1100.988672" x2="3594.399236" y2="910.668652" stroke="black" stroke-width="4.758"/>
<line x1="3594.399236" y1="910.668652" x2="3130.018389" y2="910.668652" stroke="black" stroke-width="4.758"/>
<line x1="3130.018389" y1="910.668652" x2="3130.018389" y2="1100.988672" stroke="black" stroke-width="4.758"/>
<line x1="3130.018389" y1="1100.988672" x2="3153.808392" y2="1100.988672" stroke="black" stroke-width="4.758"/>
<line x1="3153.808392" y1="1100.988672" x2="3153.808392" y2="933.507055" stroke="black" stroke-width="4.758"/>
<line x1="3153.808392" y1="933.507055" x2="3569.657633" y2="933.507055" stroke="black" stroke-width="4.758"/>
<line x1="3569.657633" y1="933.507055" x2="3569.657633" y2="1100.988672" stroke="black" stroke-width="4.758"/>
<line x1="3569.657633" y1="1100.988672" x2="3594.399236" y2="1100.988672" stroke="black" stroke-width="4.758"/>
<line x1="3569.657633" y1="1095.279071" x2="3153.808392" y2="1095.279071" stroke="black" stroke-width="4.758"/>
<line x1="3362.208813" y1="1096.230671" x2="3362.208813" y2="934.458655" stroke="black" stroke-width="4.758"/>
<line x1="3272.508485" y1="1287.173627" x2="3446.877277" y2="1317.919549" stroke="black" stroke-width="4.758005"/>
<line x1="3446.877277" y1="1317.919549" x2="3416.068351" y2="1492.645653" stroke="black" stroke-width="4.758005"/>
<line x1="3416.068351" y1="1492.645653" x2="3241.69956" y2="1461.899731" stroke="black" stroke-width="4.758005"/>
<line x1="3241.69956" y1="1461.899731" x2="3272.508485" y2="1287.173627" stroke="black" stroke-width="4.758005"/>
<line x1="3272.214176" y1="1286.753311" x2="3416.068351" y2="1492.645653" stroke="black" stroke-width="4.758005"/>
<line x1="3241.762559" y1="1461.542419" x2="3446.519964" y2="1317.856549" stroke="black" stroke-width="4.758005"/>
<line x1="542.842817" y1="1124.194065" x2="542.842817" y2="914.564494" stroke="black" stroke-width="4.758"/>
<line x1="542.842817" y1="914.564494" x2="211.210183" y2="914.564494" stroke="black" stroke-width="4.758"/>
<line x1="211.210183" y1="914.564494" x2="211.210183" y2="1124.194065" stroke="black" stroke-width="4.758"/>
<line x1="211.210183" y1="1124.194065" x2="542.842817" y2="1124.194065" stroke="black" stroke-width="4.758"/>
<line x1="270.526589" y1="1124.868116" x2="270.526589" y2="913.89044" stroke="black" stroke-width="4.758"/>
<line x1="270.526589" y1="913.89044" x2="320.406294" y2="1123.520015" stroke="black" stroke-width="4.758"/>
<line x1="320.406294" y1="1123.520015" x2="366.915749" y2="1091.839662" stroke="black" stroke-width="4.758"/>
<line x1="366.915749" y1="1091.839662" x2="269.852539" y2="913.89044" stroke="black" stroke-width="4.758"/>
<line x1="2025.345003" y1="2258.352886" x2="2234.974574" y2="2258.352886" stroke="black" stroke-width="4.758"/>
<line x1="2234.974574" y1="2258.352886" x2="2234.974574" y2="1926.720257" stroke="black" stroke-width="4.758"/>
<line x1="2234.974574" y1="1926.720257" x2="2025.345003" y2="1926.720257" stroke="black" stroke-width="4.758"/>
<line x1="2025.345003" y1="1926.720257" x2="2025.345003" y2="2258.352886" stroke="black" stroke-width="4.758"/>
<line x1="2024.670949" y1="1986.036659" x2="2235.64862" y2="1986.036659" stroke="black" stroke-width="4.758"/>
<line x1="2235.64862" y1="1986.036659" x2="2026.019049" y2="2035.916364" stroke="black" stroke-width="4.758"/>
<line x1="2026.019049" y1="2035.916364" x2="2057.699402" y2="2082.425818" stroke="black" stroke-width="4.758"/>
<line x1="2057.699402" y1="2082.425818" x2="2235.64862" y2="1985.362609" stroke="black" stroke-width="4.758"/>
<line x1="1588.622541" y1="321.59638" x2="1588.622541" y2="131.276361" stroke="black" stroke-width="4.758"/>
<line x1="1588.622541" y1="131.276361" x2="1124.241694" y2="131.276361" stroke="black" stroke-width="4.758"/>
<line x1="1124.241694" y1="131.276361" x2="1124.241694" y2="321.59638" stroke="black" stroke-width="4.758"/>
<line x1="1124.241694" y1="321.59638" x2="1148.031696" y2="321.59638" stroke="black" stroke-width="4.758"/>
<line x1="1148.031696" y1="321.59638" x2="1148.031696" y2="154.114763" stroke="black" stroke-width="4.758"/>
<line x1="1148.031696" y1="154.114763" x2="1563.880938" y2="154.114763" stroke="black" stroke-width="4.758"/>
<line x1="1563.880938" y1="154.114763" x2="1563.880938" y2="321.59638" stroke="black" stroke-width="4.758"/>
<line x1="1563.880938" y1="321.59638" x2="1588.622541" y2="321.59638" stroke="black" stroke-width="4.758"/>
<line x1="1563.880938" y1="315.88678" x2="1148.031696" y2="315.88678" stroke="black" stroke-width="4.758"/>
<line x1="1356.432117" y1="316.83838" x2="1356.432117" y2="155.066364" stroke="black" stroke-width="4.758"/>
<line x1="2932.551223" y1="1004.582718" x2="2795.203935" y2="1162.582693" stroke="black" stroke-width="4.758"/>
<line x1="2795.203935" y1="1162.582693" x2="2970.440274" y2="1314.913321" stroke="black" stroke-width="4.758"/>
<line x1="2970.440274" y1="1314.913321" x2="3107.787557" y2="1156.913341" stroke="black" stroke-width="4.758"/>
<line x1="3107.787557" y1="1156.913341" x2="2932.551223" y2="1004.582718" stroke="black" stroke-width="4.758"/>
<line x1="2956.969396" y1="1025.809118" x2="2819.622117" y2="1183.809093" stroke="black" stroke-width="4.758"/>
<line x1="3595.167199" y1="610.590902" x2="3391.759031" y2="610.590902" stroke="black" stroke-width="4.758"/>
<line x1="3391.759031" y1="610.590902" x2="3391.759031" y2="406.765915" stroke="black" stroke-width="4.758"/>
<line x1="3391.759031" y1="406.765915" x2="3595.167199" y2="406.765915" stroke="black" stroke-width="4.758"/>
<line x1="3595.167199" y1="406.765915" x2="3595.167199" y2="610.590902" stroke="black" stroke-width="4.758"/>
<line x1="3595.584022" y1="611.007725" x2="3391.759031" y2="406.765915" stroke="black" stroke-width="4.758"/>
<line x1="3595.167199" y1="407.182738" x2="3392.175854" y2="610.590902" stroke="black" stroke-width="4.758"/>
<line x1="676.607136" y1="1747.938186" x2="676.607136" y2="1557.618167" stroke="black" stroke-width="4.758"/>
<line x1="676.607136" y1="1557.618167" x2="212.22629" y2="1557.618167" stroke="black" stroke-width="4.758"/>
<line x1="212.22629" y1="1557.618167" x2="212.22629" y2="1747.938186" stroke="black" stroke-width="4.758"/>
<line x1="212.22629" y1="1747.938186" x2="236.016292" y2="1747.938186" stroke="black" stroke-width="4.758"/>
<line x1="236.016292" y1="1747.938186" x2="236.016292" y2="1580.45657" stroke="black" stroke-width="4.758"/>
<line x1="236.016292" y1="1580.45657" x2="651.865534" y2="1580.45657" stroke="black" stroke-width="4.758"/>
<line x1="651.865534" y1="1580.45657" x2="651.865534" y2="1747.938186" stroke="black" stroke-width="4.758"/>
<line x1="651.865534" y1="1747.938186" x2="676.607136" y2="1747.938186" stroke="black" stroke-width="4.758"/>
<line x1="651.865534" y1="1742.228586" x2="236.016292" y2="1742.228586" stroke="black" stroke-width="4.758"/>
<line x1="444.416713" y1="1743.180186" x2="444.416713" y2="1581.40817" stroke="black" stroke-width="4.758"/>
<line x1="373.832503" y1="1522.052933" x2="373.832503" y2="1161.21801" stroke="black" stroke-width="4.758005"/>
<line x1="373.832503" y1="1161.21801" x2="213.136786" y2="1161.21801" stroke="black" stroke-width="4.758005"/>
<line x1="213.136786" y1="1161.21801" x2="213.136786" y2="1522.052933" stroke="black" stroke-width="4.758005"/>
<line x1="213.136786" y1="1522.052933" x2="373.832503" y2="1522.052933" stroke="black" stroke-width="4.758005"/>
<line x1="237.971579" y1="1230.609341" x2="237.971579" y2="1492.835532" stroke="black" stroke-width="4.758005"/>
<line x1="237.971579" y1="1492.835532" x2="346.806404" y2="1492.835532" stroke="black" stroke-width="4.758005"/>
<line x1="346.806404" y1="1492.835532" x2="346.806404" y2="1225.496297" stroke="black" stroke-width="4.758005"/>
<path d="m 237.73601,1231.356907 a 58.434804782169536,58.434804782169536 0 0 1 110.09494500000002,-3.9600400000001628" fill="none" stroke="black" stroke-width="4.758005"/>
<line x1="619.394498" y1="130.465104" x2="839.753347" y2="130.465104" stroke="black" stroke-width="4.757996"/>
<line x1="839.753347" y1="130.465104" x2="839.753347" y2="351.27551" stroke="black" stroke-width="4.757996"/>
<line x1="839.753347" y1="351.27551" x2="619.394498" y2="351.27551" stroke="black" stroke-width="4.757996"/>
<line x1="619.394498" y1="351.27551" x2="619.394498" y2="130.465104" stroke="black" stroke-width="4.757996"/>
<line x1="618.942946" y1="130.013548" x2="839.753347" y2="351.27551" stroke="black" stroke-width="4.757996"/>
<line x1="619.394498" y1="350.823953" x2="839.301791" y2="130.465104" stroke="black" stroke-width="4.757996"/>
<line x1="641.443143" y1="620.055309" x2="671.577485" y2="613.098249" stroke="black" stroke-width="4.758"/>
<line x1="671.577485" y1="613.098249" x2="624.376495" y2="408.648299" stroke="black" stroke-width="4.758"/>
<line x1="624.376495" y1="408.648299" x2="594.242152" y2="415.605359" stroke="black" stroke-width="4.758"/>
<line x1="594.242152" y1="415.605359" x2="641.443143" y2="620.055309" stroke="black" stroke-width="4.758"/>
<line x1="840.329823" y1="574.138701" x2="870.464169" y2="567.181637" stroke="black" stroke-width="4.758"/>
<line x1="870.464169" y1="567.181637" x2="823.263179" y2="362.731691" stroke="black" stroke-width="4.758"/>
<line x1="823.263179" y1="362.731691" x2="793.128837" y2="369.688751" stroke="black" stroke-width="4.758"/>
<line x1="793.128837" y1="369.688751" x2="840.329823" y2="574.138701" stroke="black" stroke-width="4.758"/>
<line x1="671.113884" y1="613.205278" x2="840.329823" y2="574.138701" stroke="black" stroke-width="4.758"/>
<line x1="623.66335" y1="409.789571" x2="643.738503" y2="378.297503" stroke="black" stroke-width="4.758"/>
<line x1="761.957863" y1="351.004414" x2="793.806504" y2="370.508934" stroke="black" stroke-width="4.758"/>
<line x1="641.884082" y1="378.72563" x2="763.81228" y2="350.576286" stroke="black" stroke-width="4.758"/>
<line x1="661.516503" y1="569.519348" x2="830.732447" y2="530.452768" stroke="black" stroke-width="4.758"/>
<line x1="429.340922" y1="2298.092222" x2="210.279051" y2="2298.092222" stroke="black" stroke-width="4.758"/>
<line x1="210.279051" y1="2298.092222" x2="210.279051" y2="2644.646694" stroke="black" stroke-width="4.758"/>
<line x1="210.279051" y1="2644.646694" x2="429.340922" y2="2644.646694" stroke="black" stroke-width="4.758"/>
<line x1="429.340922" y1="2644.646694" x2="429.340922" y2="2298.092222" stroke="black" stroke-width="4.758"/>
<line x1="430.0453" y1="2582.66134" x2="209.574674" y2="2582.66134" stroke="black" stroke-width="4.758"/>
<line x1="209.574674" y1="2582.66134" x2="428.636544" y2="2530.537295" stroke="black" stroke-width="4.758"/>
<line x1="428.636544" y1="2530.537295" x2="395.53073" y2="2481.935144" stroke="black" stroke-width="4.758"/>
<line x1="395.53073" y1="2481.935144" x2="209.574674" y2="2583.365718" stroke="black" stroke-width="4.758"/>
<line x1="499.508261" y1="2643.187829" x2="430.951937" y2="2574.631509" stroke="black" stroke-width="4.758005"/>
<line x1="430.951937" y1="2574.631509" x2="499.648746" y2="2505.934701" stroke="black" stroke-width="4.758005"/>
<line x1="499.648746" y1="2505.934701" x2="568.20507" y2="2574.491025" stroke="black" stroke-width="4.758005"/>
<line x1="568.20507" y1="2574.491025" x2="499.508261" y2="2643.187829" stroke="black" stroke-width="4.758005"/>
<line x1="499.508261" y1="2643.468798" x2="499.648746" y2="2505.934701" stroke="black" stroke-width="4.758005"/>
<line x1="568.064585" y1="2574.631509" x2="431.092422" y2="2574.771994" stroke="black" stroke-width="4.758005"/>
<line x1="1217.492208" y1="2297.808777" x2="998.430337" y2="2297.808777" stroke="black" stroke-width="4.758"/>
<line x1="998.430337" y1="2297.808777" x2="998.430337" y2="2644.363249" stroke="black" stroke-width="4.758"/>
<line x1="998.430337" y1="2644.363249" x2="1217.492208" y2="2644.363249" stroke="black" stroke-width="4.758"/>
<line x1="1217.492208" y1="2644.363249" x2="1217.492208" y2="2297.808777" stroke="black" stroke-width="4.758"/>
<line x1="1218.196586" y1="2582.377895" x2="997.725959" y2="2582.377895" stroke="black" stroke-width="4.758"/>
<line x1="997.725959" y1="2582.377895" x2="1216.78783" y2="2530.25385" stroke="black" stroke-width="4.758"/>
<line x1="1216.78783" y1="2530.25385" x2="1183.682015" y2="2481.651699" stroke="black" stroke-width="4.758"/>
<line x1="1183.682015" y1="2481.651699" x2="997.725959" y2="2583.082273" stroke="black" stroke-width="4.758"/>
<line x1="928.005828" y1="2506.641176" x2="996.562152" y2="2575.197496" stroke="black" stroke-width="4.758005"/>
<line x1="996.562152" y1="2575.197496" x2="927.865344" y2="2643.894304" stroke="black" stroke-width="4.758005"/>
<line x1="927.865344" y1="2643.894304" x2="859.30902" y2="2575.33798" stroke="black" stroke-width="4.758005"/>
<line x1="859.30902" y1="2575.33798" x2="928.005828" y2="2506.641176" stroke="black" stroke-width="4.758005"/>
<line x1="928.005828" y1="2506.360207" x2="927.865344" y2="2643.894304" stroke="black" stroke-width="4.758005"/>
<line x1="859.449504" y1="2575.197496" x2="996.421668" y2="2575.057011" stroke="black" stroke-width="4.758005"/>
<line x1="1661.943566" y1="2607.239065" x2="1882.302415" y2="2607.239065" stroke="black" stroke-width="4.757996"/>
<line x1="1882.302415" y1="2607.239065" x2="1882.302415" y2="2828.04947" stroke="black" stroke-width="4.757996"/>
<line x1="1882.302415" y1="2828.04947" x2="1661.943566" y2="2828.04947" stroke="black" stroke-width="4.757996"/>
<line x1="1661.943566" y1="2828.04947" x2="1661.943566" y2="2607.239065" stroke="black" stroke-width="4.757996"/>
<line x1="1661.492014" y1="2606.787508" x2="1882.302415" y2="2828.04947" stroke="black" stroke-width="4.757996"/>
<line x1="1661.943566" y1="2827.597914" x2="1881.850859" y2="2607.239065" stroke="black" stroke-width="4.757996"/>
<line x1="1903.00014" y1="2378.354958" x2="1872.374116" y2="2374.050752" stroke="black" stroke-width="4.758"/>
<line x1="1872.374116" y1="2374.050752" x2="1843.171729" y2="2581.836545" stroke="black" stroke-width="4.758"/>
<line x1="1843.171729" y1="2581.836545" x2="1873.797749" y2="2586.140747" stroke="black" stroke-width="4.758"/>
<line x1="1873.797749" y1="2586.140747" x2="1903.00014" y2="2378.354958" stroke="black" stroke-width="4.758"/>
<line x1="1700.868385" y1="2349.947193" x2="1670.24236" y2="2345.642982" stroke="black" stroke-width="4.758"/>
<line x1="1670.24236" y1="2345.642982" x2="1641.039969" y2="2553.42878" stroke="black" stroke-width="4.758"/>
<line x1="1641.039969" y1="2553.42878" x2="1671.665994" y2="2557.732986" stroke="black" stroke-width="4.758"/>
<line x1="1671.665994" y1="2557.732986" x2="1700.868385" y2="2349.947193" stroke="black" stroke-width="4.758"/>
<line x1="1872.845286" y1="2374.116968" x2="1700.868385" y2="2349.947193" stroke="black" stroke-width="4.758"/>
<line x1="1844.2465" y1="2581.026641" x2="1814.218988" y2="2603.232727" stroke="black" stroke-width="4.758"/>
<line x1="1694.07074" y1="2586.346993" x2="1671.327264" y2="2556.724427" stroke="black" stroke-width="4.758"/>
<line x1="1816.103663" y1="2603.497602" x2="1692.18606" y2="2586.082118" stroke="black" stroke-width="4.758"/>
<line x1="1866.149567" y1="2418.340692" x2="1694.172667" y2="2394.170917" stroke="black" stroke-width="4.758"/>
<line x1="2808.66057" y1="2475.357719" x2="2978.167377" y2="2475.357719" stroke="black" stroke-width="4.758005"/>
<line x1="2978.167377" y1="2475.357719" x2="2978.167377" y2="2645.211874" stroke="black" stroke-width="4.758005"/>
<line x1="2978.167377" y1="2645.211874" x2="2808.66057" y2="2645.211874" stroke="black" stroke-width="4.758005"/>
<line x1="2808.66057" y1="2645.211874" x2="2808.66057" y2="2475.357719" stroke="black" stroke-width="4.758005"/>
<line x1="2808.313218" y1="2475.010368" x2="2978.167377" y2="2645.211874" stroke="black" stroke-width="4.758005"/>
<line x1="2808.66057" y1="2644.864526" x2="2977.820025" y2="2475.357719" stroke="black" stroke-width="4.758005"/>
<line x1="2976.846071" y1="2474.847604" x2="3146.352878" y2="2474.847604" stroke="black" stroke-width="4.758005"/>
<line x1="3146.352878" y1="2474.847604" x2="3146.352878" y2="2644.701759" stroke="black" stroke-width="4.758005"/>
<line x1="3146.352878" y1="2644.701759" x2="2976.846071" y2="2644.701759" stroke="black" stroke-width="4.758005"/>
<line x1="2976.846071" y1="2644.701759" x2="2976.846071" y2="2474.847604" stroke="black" stroke-width="4.758005"/>
<line x1="2976.498719" y1="2474.500253" x2="3146.352878" y2="2644.701759" stroke="black" stroke-width="4.758005"/>
<line x1="2976.846071" y1="2644.354411" x2="3146.005526" y2="2474.847604" stroke="black" stroke-width="4.758005"/>
<line x1="3266.406297" y1="2337.896583" x2="3435.913104" y2="2337.896583" stroke="black" stroke-width="4.758005"/>
<line x1="3435.913104" y1="2337.896583" x2="3435.913104" y2="2507.750737" stroke="black" stroke-width="4.758005"/>
<line x1="3435.913104" y1="2507.750737" x2="3266.406297" y2="2507.750737" stroke="black" stroke-width="4.758005"/>
<line x1="3266.406297" y1="2507.750737" x2="3266.406297" y2="2337.896583" stroke="black" stroke-width="4.758005"/>
<line x1="3266.058945" y1="2337.549231" x2="3435.913104" y2="2507.750737" stroke="black" stroke-width="4.758005"/>
<line x1="3266.406297" y1="2507.40339" x2="3435.565752" y2="2337.896583" stroke="black" stroke-width="4.758005"/>
<line x1="3434.14941" y1="2338.590075" x2="3603.656217" y2="2338.590075" stroke="black" stroke-width="4.758005"/>
<line x1="3603.656217" y1="2338.590075" x2="3603.656217" y2="2508.444229" stroke="black" stroke-width="4.758005"/>
<line x1="3603.656217" y1="2508.444229" x2="3434.14941" y2="2508.444229" stroke="black" stroke-width="4.758005"/>
<line x1="3434.14941" y1="2508.444229" x2="3434.14941" y2="2338.590075" stroke="black" stroke-width="4.758005"/>
<line x1="3433.802058" y1="2338.242723" x2="3603.656217" y2="2508.444229" stroke="black" stroke-width="4.758005"/>
<line x1="3434.14941" y1="2508.096882" x2="3603.308865" y2="2338.590075" stroke="black" stroke-width="4.758005"/>
</g>
</svg>
