<?xml version="1.0"?>
<svg xmlns:xlink="http://www.w3.org/1999/xlink" width="5498.133887999999" height="2960.5336319999997">
<image x="0" y="0" width="5498.133887999999" height="2960.5336319999997" xlink:href="ground16-07.png"/>
<g style="stroke-linecap:round">
<line x1="1294.244566" y1="1161.032193" x2="1316.799022" y2="1161.032193" stroke="black" stroke-width="4.758"/>
<line x1="1316.799022" y1="1161.032193" x2="1316.799022" y2="1117.023503" stroke="black" stroke-width="4.758"/>
<line x1="1316.799022" y1="1117.023503" x2="1294.244566" y2="1117.023503" stroke="black" stroke-width="4.758"/>
<line x1="1294.244566" y1="1117.023503" x2="1294.244566" y2="1161.032193" stroke="black" stroke-width="4.758"/>
<line x1="1537.39259" y1="1117.023503" x2="1537.39259" y2="897.530148" stroke="black" stroke-width="4.758"/>
<line x1="1537.942699" y1="1162.13241" x2="1560.497154" y2="1162.13241" stroke="black" stroke-width="4.758"/>
<line x1="1560.497154" y1="1162.13241" x2="1560.497154" y2="1118.12372" stroke="black" stroke-width="4.758"/>
<line x1="1560.497154" y1="1118.12372" x2="1537.942699" y2="1118.12372" stroke="black" stroke-width="4.758"/>
<line x1="1537.942699" y1="1118.12372" x2="1537.942699" y2="1162.13241" stroke="black" stroke-width="4.758"/>
<path d="m 1316.799022,1118.673829 a 220.59357050000006,220.59357050000006 0 0 1 220.593568,-220.5935730000001" fill="none" stroke="black" stroke-width="4.758"/>
<line x1="1546.852786" y1="1890.830668" x2="1524.29833" y2="1890.830668" stroke="black" stroke-width="4.758"/>
<line x1="1524.29833" y1="1890.830668" x2="1524.29833" y2="1934.839358" stroke="black" stroke-width="4.758"/>
<line x1="1524.29833" y1="1934.839358" x2="1546.852786" y2="1934.839358" stroke="black" stroke-width="4.758"/>
<line x1="1546.852786" y1="1934.839358" x2="1546.852786" y2="1890.830668" stroke="black" stroke-width="4.758"/>
<line x1="1303.704762" y1="1934.839358" x2="1303.704762" y2="2154.332713" stroke="black" stroke-width="4.758"/>
<line x1="1303.154654" y1="1889.730451" x2="1280.600198" y2="1889.730451" stroke="black" stroke-width="4.758"/>
<line x1="1280.600198" y1="1889.730451" x2="1280.600198" y2="1933.739141" stroke="black" stroke-width="4.758"/>
<line x1="1280.600198" y1="1933.739141" x2="1303.154654" y2="1933.739141" stroke="black" stroke-width="4.758"/>
<line x1="1303.154654" y1="1933.739141" x2="1303.154654" y2="1889.730451" stroke="black" stroke-width="4.758"/>
<path d="m 1524.29833,1933.189032 a 220.59357049999994,220.59357049999994 0 0 1 -220.593568,220.59357299999988" fill="none" stroke="black" stroke-width="4.758"/>
<line x1="4403.657584" y1="115.472526" x2="4618.156079" y2="115.472526" stroke="black" stroke-width="4.758"/>
<line x1="4618.156079" y1="115.472526" x2="4618.156079" y2="82.405824" stroke="black" stroke-width="4.758"/>
<line x1="4618.156079" y1="82.405824" x2="4403.657584" y2="82.405824" stroke="black" stroke-width="4.758"/>
<line x1="4403.657584" y1="82.405824" x2="4403.657584" y2="115.472526" stroke="black" stroke-width="4.758"/>
<line x1="4423.671642" y1="82.840912" x2="4423.671642" y2="115.037438" stroke="black" stroke-width="4.758"/>
<line x1="4597.706933" y1="82.840912" x2="4597.706933" y2="116.342703" stroke="black" stroke-width="4.758"/>
<line x1="4423.236554" y1="98.068998" x2="4597.271845" y2="98.068998" stroke="black" stroke-width="4.758"/>
<line x1="2442.739291" y1="114.132448" x2="2657.237786" y2="114.132448" stroke="black" stroke-width="4.758"/>
<line x1="2657.237786" y1="114.132448" x2="2657.237786" y2="81.065746" stroke="black" stroke-width="4.758"/>
<line x1="2657.237786" y1="81.065746" x2="2442.739291" y2="81.065746" stroke="black" stroke-width="4.758"/>
<line x1="2442.739291" y1="81.065746" x2="2442.739291" y2="114.132448" stroke="black" stroke-width="4.758"/>
<line x1="2462.753349" y1="81.500834" x2="2462.753349" y2="113.69736" stroke="black" stroke-width="4.758"/>
<line x1="2636.78864" y1="81.500834" x2="2636.78864" y2="115.002625" stroke="black" stroke-width="4.758"/>
<line x1="2462.31826" y1="96.728921" x2="2636.353552" y2="96.728921" stroke="black" stroke-width="4.758"/>
<line x1="1253.916155" y1="1507.813934" x2="1253.916155" y2="1485.259478" stroke="black" stroke-width="4.758"/>
<line x1="1253.916155" y1="1485.259478" x2="1209.907466" y2="1485.259478" stroke="black" stroke-width="4.758"/>
<line x1="1209.907466" y1="1485.259478" x2="1209.907466" y2="1507.813934" stroke="black" stroke-width="4.758"/>
<line x1="1209.907466" y1="1507.813934" x2="1253.916155" y2="1507.813934" stroke="black" stroke-width="4.758"/>
<line x1="1209.907466" y1="1264.66591" x2="990.414111" y2="1264.66591" stroke="black" stroke-width="4.758"/>
<line x1="1255.016372" y1="1264.115802" x2="1255.016372" y2="1241.561346" stroke="black" stroke-width="4.758"/>
<line x1="1255.016372" y1="1241.561346" x2="1211.007683" y2="1241.561346" stroke="black" stroke-width="4.758"/>
<line x1="1211.007683" y1="1241.561346" x2="1211.007683" y2="1264.115802" stroke="black" stroke-width="4.758"/>
<line x1="1211.007683" y1="1264.115802" x2="1255.016372" y2="1264.115802" stroke="black" stroke-width="4.758"/>
<path d="m 1211.557792,1485.259478 a 220.59357050000006,220.59357050000006 0 0 1 -220.5935730000001,-220.593568" fill="none" stroke="black" stroke-width="4.758"/>
<line x1="1253.394872" y1="1837.912218" x2="1253.394872" y2="1815.357762" stroke="black" stroke-width="4.758"/>
<line x1="1253.394872" y1="1815.357762" x2="1209.386183" y2="1815.357762" stroke="black" stroke-width="4.758"/>
<line x1="1209.386183" y1="1815.357762" x2="1209.386183" y2="1837.912218" stroke="black" stroke-width="4.758"/>
<line x1="1209.386183" y1="1837.912218" x2="1253.394872" y2="1837.912218" stroke="black" stroke-width="4.758"/>
<line x1="1209.386183" y1="1594.764194" x2="989.892827" y2="1594.764194" stroke="black" stroke-width="4.758"/>
<line x1="1254.495089" y1="1594.214086" x2="1254.495089" y2="1571.65963" stroke="black" stroke-width="4.758"/>
<line x1="1254.495089" y1="1571.65963" x2="1210.4864" y2="1571.65963" stroke="black" stroke-width="4.758"/>
<line x1="1210.4864" y1="1571.65963" x2="1210.4864" y2="1594.214086" stroke="black" stroke-width="4.758"/>
<line x1="1210.4864" y1="1594.214086" x2="1254.495089" y2="1594.214086" stroke="black" stroke-width="4.758"/>
<path d="m 1211.036509,1815.357762 a 220.5935705,220.5935705 0 0 1 -220.593573,-220.593568" fill="none" stroke="black" stroke-width="4.758"/>
<line x1="2469.579154" y1="1558.52728" x2="2492.277729" y2="1558.52728" stroke="black" stroke-width="4.758"/>
<line x1="2492.277729" y1="1558.52728" x2="2492.277729" y2="1514.237384" stroke="black" stroke-width="4.758"/>
<line x1="2492.277729" y1="1514.237384" x2="2469.579154" y2="1514.237384" stroke="black" stroke-width="4.758"/>
<line x1="2469.579154" y1="1514.237384" x2="2469.579154" y2="1558.52728" stroke="black" stroke-width="4.758"/>
<line x1="2714.280841" y1="1514.237384" x2="2714.280841" y2="1293.341516" stroke="black" stroke-width="4.758"/>
<line x1="2714.834465" y1="1559.634529" x2="2737.53304" y2="1559.634529" stroke="black" stroke-width="4.758"/>
<line x1="2737.53304" y1="1559.634529" x2="2737.53304" y2="1515.344628" stroke="black" stroke-width="4.758"/>
<line x1="2737.53304" y1="1515.344628" x2="2714.834465" y2="1515.344628" stroke="black" stroke-width="4.758"/>
<line x1="2714.834465" y1="1515.344628" x2="2714.834465" y2="1559.634529" stroke="black" stroke-width="4.758"/>
<path d="m 2492.277729,1515.898252 a 222.00311199999987,222.00311199999987 0 0 1 222.00311199999987,-222.00311199999987" fill="none" stroke="black" stroke-width="4.758"/>
<line x1="191.38945" y1="532.258913" x2="191.38945" y2="311.81735" stroke="black" stroke-width="4.758"/>
<line x1="191.38945" y1="311.81735" x2="151.960878" y2="311.81735" stroke="black" stroke-width="4.758"/>
<line x1="151.960878" y1="311.81735" x2="151.960878" y2="532.258913" stroke="black" stroke-width="4.758"/>
<line x1="151.960878" y1="532.258913" x2="191.38945" y2="532.258913" stroke="black" stroke-width="4.758"/>
<line x1="191.38945" y1="521.953719" x2="204.831009" y2="521.953719" stroke="black" stroke-width="4.758"/>
<line x1="204.831009" y1="521.953719" x2="204.831009" y2="322.570594" stroke="black" stroke-width="4.758"/>
<line x1="191.38945" y1="322.570594" x2="204.831009" y2="322.570594" stroke="black" stroke-width="4.758"/>
<line x1="196.592134" y1="2237.226342" x2="196.592134" y2="2016.769557" stroke="black" stroke-width="4.758005"/>
<line x1="196.592134" y1="2016.769557" x2="162.606909" y2="2016.769557" stroke="black" stroke-width="4.758005"/>
<line x1="162.606909" y1="2016.769557" x2="162.606909" y2="2237.226342" stroke="black" stroke-width="4.758005"/>
<line x1="162.606909" y1="2237.226342" x2="196.592134" y2="2237.226342" stroke="black" stroke-width="4.758005"/>
<line x1="163.054082" y1="2216.656338" x2="196.144957" y2="2216.656338" stroke="black" stroke-width="4.758005"/>
<line x1="163.054082" y1="2037.786734" x2="197.48648" y2="2037.786734" stroke="black" stroke-width="4.758005"/>
<line x1="178.705172" y1="2217.103511" x2="178.705172" y2="2038.233911" stroke="black" stroke-width="4.758005"/>
<line x1="2630.64014" y1="2277.391122" x2="2605.995975" y2="2277.391122" stroke="black" stroke-width="4.758"/>
<line x1="2605.995975" y1="2277.391122" x2="2605.995975" y2="2325.477299" stroke="black" stroke-width="4.758"/>
<line x1="2605.995975" y1="2325.477299" x2="2630.64014" y2="2325.477299" stroke="black" stroke-width="4.758"/>
<line x1="2630.64014" y1="2325.477299" x2="2630.64014" y2="2277.391122" stroke="black" stroke-width="4.758"/>
<line x1="2364.964024" y1="2325.477299" x2="2364.964024" y2="2565.307097" stroke="black" stroke-width="4.758"/>
<line x1="2364.362948" y1="2276.188969" x2="2339.718783" y2="2276.188969" stroke="black" stroke-width="4.758"/>
<line x1="2339.718783" y1="2276.188969" x2="2339.718783" y2="2324.275141" stroke="black" stroke-width="4.758"/>
<line x1="2339.718783" y1="2324.275141" x2="2364.362948" y2="2324.275141" stroke="black" stroke-width="4.758"/>
<line x1="2364.362948" y1="2324.275141" x2="2364.362948" y2="2276.188969" stroke="black" stroke-width="4.758"/>
<path d="m 2605.995975,2323.674065 a 241.03195099999994,241.03195099999994 0 0 1 -241.03195099999994,241.03195099999994" fill="none" stroke="black" stroke-width="4.758"/>
<line x1="568.88256" y1="1213.185645" x2="374.921777" y2="1213.185645" stroke="black" stroke-width="4.757996"/>
<line x1="374.921777" y1="1213.185645" x2="374.921777" y2="1161.3513" stroke="black" stroke-width="4.757996"/>
<line x1="568.88256" y1="1161.3513" x2="374.921777" y2="1161.3513" stroke="black" stroke-width="4.757996"/>
<line x1="568.88256" y1="1213.185645" x2="568.88256" y2="1161.3513" stroke="black" stroke-width="4.757996"/>
<line x1="524.99057" y1="1242.446969" x2="524.99057" y2="1213.185645" stroke="black" stroke-width="4.757996"/>
<line x1="420.485839" y1="1213.185645" x2="420.485839" y2="1244.119045" stroke="black" stroke-width="4.757996"/>
<circle cx="473.574242" cy="1290.101128" r="70.2271798019802" fill="none" stroke="black" stroke-width="4.757996"/>
<circle cx="473.574242" cy="1290.101128" r="60.19472554455446" fill="none" stroke="black" stroke-width="4.757996"/>
<line x1="863.33509" y1="1185.323243" x2="844.699588" y2="1160.740241" stroke="black" stroke-width="4.758"/>
<line x1="844.699588" y1="1160.740241" x2="697.201573" y2="1160.740241" stroke="black" stroke-width="4.758"/>
<line x1="697.201573" y1="1160.740241" x2="678.169571" y2="1188.891744" stroke="black" stroke-width="4.758"/>
<line x1="841.527588" y1="1188.098743" x2="698.391073" y2="1188.098743" stroke="black" stroke-width="4.758"/>
<circle cx="772.140081" cy="1209.906246" r="13.084501320000001" fill="none" stroke="black" stroke-width="4.758"/>
<path d="m 839.972378,1187.430553 a 74.93850864961598,74.93850864961598 0 1 1 -139.78529200000003,0.4025530000001254" fill="none" stroke="black" stroke-width="4.758"/>
<path d="m 863.288735,1184.665049 a 95.55651022076711,95.55651022076711 0 1 1 -184.699931,3.078845000000001" fill="none" stroke="black" stroke-width="4.758"/>
<line x1="1774.582469" y1="1315.5548" x2="1829.40979" y2="1466.19162" stroke="black" stroke-width="4.758"/>
<line x1="1829.40979" y1="1466.19162" x2="1678.464291" y2="1521.131286" stroke="black" stroke-width="4.758"/>
<line x1="1678.464291" y1="1521.131286" x2="1623.63697" y2="1370.494467" stroke="black" stroke-width="4.758"/>
<line x1="1623.63697" y1="1370.494467" x2="1774.582469" y2="1315.5548" stroke="black" stroke-width="4.758"/>
<line x1="1774.778803" y1="1315.13377" x2="1678.464291" y2="1521.131286" stroke="black" stroke-width="4.758"/>
<line x1="1623.945654" y1="1370.382121" x2="1829.297435" y2="1465.882936" stroke="black" stroke-width="4.758"/>
<line x1="1761.588172" y1="886.649614" x2="1761.588172" y2="1280.390044" stroke="black" stroke-width="4.758"/>
<line x1="1762.585709" y1="1284.350445" x2="1626.345114" y2="1284.350445" stroke="black" stroke-width="4.758"/>
<line x1="1625.192158" y1="887.114589" x2="1625.192158" y2="1284.656169" stroke="black" stroke-width="4.758"/>
<line x1="1760.892543" y1="887.850405" x2="1625.457685" y2="887.850405" stroke="black" stroke-width="4.758"/>
<line x1="1750.486171" y1="898.159406" x2="1750.486171" y2="1021.867419" stroke="black" stroke-width="4.758"/>
<line x1="1750.486171" y1="1021.867419" x2="1636.294159" y2="1021.867419" stroke="black" stroke-width="4.758"/>
<line x1="1636.294159" y1="898.159406" x2="1636.294159" y2="1021.867419" stroke="black" stroke-width="4.758"/>
<line x1="1750.486171" y1="898.159406" x2="1636.294159" y2="898.159406" stroke="black" stroke-width="4.758"/>
<line x1="1743.34917" y1="1040.899421" x2="1743.34917" y2="1128.12943" stroke="black" stroke-width="4.758"/>
<line x1="1723.524168" y1="1040.899421" x2="1723.524168" y2="1128.12943" stroke="black" stroke-width="4.758"/>
<line x1="1702.906166" y1="1041.692421" x2="1702.906166" y2="1128.12943" stroke="black" stroke-width="4.758"/>
<line x1="1683.081164" y1="1041.692421" x2="1683.081164" y2="1128.12943" stroke="black" stroke-width="4.758"/>
<line x1="1663.256162" y1="1040.899421" x2="1663.256162" y2="1128.12943" stroke="black" stroke-width="4.758"/>
<line x1="1643.43116" y1="1040.899421" x2="1643.43116" y2="1128.12943" stroke="black" stroke-width="4.758"/>
<line x1="1637.087159" y1="945.739411" x2="1650.568161" y2="945.739411" stroke="black" stroke-width="4.758"/>
<line x1="1650.568161" y1="945.739411" x2="1650.568161" y2="975.873414" stroke="black" stroke-width="4.758"/>
<line x1="1650.568161" y1="975.873414" x2="1637.880159" y2="975.873414" stroke="black" stroke-width="4.758"/>
<line x1="1750.486171" y1="1148.747432" x2="1750.486171" y2="1272.455444" stroke="black" stroke-width="4.758"/>
<line x1="1750.486171" y1="1272.455444" x2="1636.294159" y2="1272.455444" stroke="black" stroke-width="4.758"/>
<line x1="1636.294159" y1="1148.747432" x2="1636.294159" y2="1272.455444" stroke="black" stroke-width="4.758"/>
<line x1="1750.486171" y1="1148.747432" x2="1636.294159" y2="1148.747432" stroke="black" stroke-width="4.758"/>
<line x1="1636.294159" y1="1196.327437" x2="1649.77516" y2="1196.327437" stroke="black" stroke-width="4.758"/>
<line x1="1649.77516" y1="1196.327437" x2="1649.77516" y2="1226.46144" stroke="black" stroke-width="4.758"/>
<line x1="1649.77516" y1="1226.46144" x2="1637.087159" y2="1226.46144" stroke="black" stroke-width="4.758"/>
<circle cx="1736.212169" cy="1007.593418" r="7.1370007200000005" fill="none" stroke="black" stroke-width="4.758"/>
<circle cx="1735.419169" cy="1258.181443" r="7.1370007200000005" fill="none" stroke="black" stroke-width="4.758"/>
<line x1="2133.520541" y1="318.184172" x2="2133.520541" y2="711.512211" stroke="black" stroke-width="4.758"/>
<line x1="2133.520541" y1="711.512211" x2="2318.289559" y2="711.512211" stroke="black" stroke-width="4.758"/>
<line x1="2318.289559" y1="711.512211" x2="2318.289559" y2="318.184172" stroke="black" stroke-width="4.758"/>
<line x1="2318.289559" y1="318.184172" x2="2133.520541" y2="318.184172" stroke="black" stroke-width="4.758"/>
<line x1="2318.289559" y1="477.577188" x2="2399.175567" y2="477.577188" stroke="black" stroke-width="4.758"/>
<line x1="2399.175567" y1="477.577188" x2="2399.175567" y2="399.07018" stroke="black" stroke-width="4.758"/>
<line x1="2399.175567" y1="399.07018" x2="2318.289559" y2="399.07018" stroke="black" stroke-width="4.758"/>
<line x1="2381.729566" y1="399.86318" x2="2381.729566" y2="477.577188" stroke="black" stroke-width="4.758"/>
<line x1="2051.841532" y1="399.07018" x2="2051.841532" y2="477.577188" stroke="black" stroke-width="4.758"/>
<line x1="2051.841532" y1="477.577188" x2="2133.520541" y2="477.577188" stroke="black" stroke-width="4.758"/>
<line x1="2133.520541" y1="399.07018" x2="2051.841532" y2="399.07018" stroke="black" stroke-width="4.758"/>
<line x1="2069.287534" y1="399.86318" x2="2069.287534" y2="477.577188" stroke="black" stroke-width="4.758"/>
<line x1="2318.289559" y1="629.040203" x2="2399.175567" y2="629.040203" stroke="black" stroke-width="4.758"/>
<line x1="2399.175567" y1="629.040203" x2="2399.175567" y2="550.533195" stroke="black" stroke-width="4.758"/>
<line x1="2399.175567" y1="550.533195" x2="2318.289559" y2="550.533195" stroke="black" stroke-width="4.758"/>
<line x1="2381.729566" y1="550.533195" x2="2381.729566" y2="629.040203" stroke="black" stroke-width="4.758"/>
<line x1="2051.841532" y1="550.533195" x2="2051.841532" y2="629.040203" stroke="black" stroke-width="4.758"/>
<line x1="2051.841532" y1="629.040203" x2="2133.520541" y2="629.040203" stroke="black" stroke-width="4.758"/>
<line x1="2133.520541" y1="550.533195" x2="2051.841532" y2="550.533195" stroke="black" stroke-width="4.758"/>
<line x1="2069.287534" y1="550.533195" x2="2069.287534" y2="629.040203" stroke="black" stroke-width="4.758"/>
<line x1="1878.886453" y1="2846.549827" x2="1664.387958" y2="2846.549827" stroke="black" stroke-width="4.758"/>
<line x1="1664.387958" y1="2846.549827" x2="1664.387958" y2="2879.616529" stroke="black" stroke-width="4.758"/>
<line x1="1664.387958" y1="2879.616529" x2="1878.886453" y2="2879.616529" stroke="black" stroke-width="4.758"/>
<line x1="1878.886453" y1="2879.616529" x2="1878.886453" y2="2846.549827" stroke="black" stroke-width="4.758"/>
<line x1="1858.872395" y1="2879.181441" x2="1858.872395" y2="2846.984915" stroke="black" stroke-width="4.758"/>
<line x1="1684.837104" y1="2879.181441" x2="1684.837104" y2="2845.67965" stroke="black" stroke-width="4.758"/>
<line x1="1859.307483" y1="2863.953355" x2="1685.272192" y2="2863.953355" stroke="black" stroke-width="4.758"/>
<line x1="3594.399183" y1="1100.980416" x2="3594.399183" y2="910.660396" stroke="black" stroke-width="4.758"/>
<line x1="3594.399183" y1="910.660396" x2="3130.018336" y2="910.660396" stroke="black" stroke-width="4.758"/>
<line x1="3130.018336" y1="910.660396" x2="3130.018336" y2="1100.980416" stroke="black" stroke-width="4.758"/>
<line x1="3130.018336" y1="1100.980416" x2="3153.808339" y2="1100.980416" stroke="black" stroke-width="4.758"/>
<line x1="3153.808339" y1="1100.980416" x2="3153.808339" y2="933.498799" stroke="black" stroke-width="4.758"/>
<line x1="3153.808339" y1="933.498799" x2="3569.657581" y2="933.498799" stroke="black" stroke-width="4.758"/>
<line x1="3569.657581" y1="933.498799" x2="3569.657581" y2="1100.980416" stroke="black" stroke-width="4.758"/>
<line x1="3569.657581" y1="1100.980416" x2="3594.399183" y2="1100.980416" stroke="black" stroke-width="4.758"/>
<line x1="3569.657581" y1="1095.270815" x2="3153.808339" y2="1095.270815" stroke="black" stroke-width="4.758"/>
<line x1="3362.20876" y1="1096.222415" x2="3362.20876" y2="934.450399" stroke="black" stroke-width="4.758"/>
<line x1="3433.01727" y1="1288.34095" x2="3446.368149" y2="1479.267411" stroke="black" stroke-width="4.758"/>
<line x1="3446.368149" y1="1479.267411" x2="3255.050439" y2="1492.645653" stroke="black" stroke-width="4.758"/>
<line x1="3255.050439" y1="1492.645653" x2="3241.69956" y2="1301.719187" stroke="black" stroke-width="4.758"/>
<line x1="3241.69956" y1="1301.719187" x2="3433.01727" y2="1288.34095" stroke="black" stroke-width="4.758"/>
<line x1="3433.381151" y1="1287.922347" x2="3255.050439" y2="1492.645653" stroke="black" stroke-width="4.758"/>
<line x1="3242.090804" y1="1301.691828" x2="3446.34079" y2="1478.876171" stroke="black" stroke-width="4.758"/>
<line x1="542.842817" y1="1124.194065" x2="542.842817" y2="914.564494" stroke="black" stroke-width="4.758"/>
<line x1="542.842817" y1="914.564494" x2="211.210183" y2="914.564494" stroke="black" stroke-width="4.758"/>
<line x1="211.210183" y1="914.564494" x2="211.210183" y2="1124.194065" stroke="black" stroke-width="4.758"/>
<line x1="211.210183" y1="1124.194065" x2="542.842817" y2="1124.194065" stroke="black" stroke-width="4.758"/>
<line x1="270.526589" y1="1124.868116" x2="270.526589" y2="913.89044" stroke="black" stroke-width="4.758"/>
<line x1="270.526589" y1="913.89044" x2="320.406294" y2="1123.520015" stroke="black" stroke-width="4.758"/>
<line x1="320.406294" y1="1123.520015" x2="366.915749" y2="1091.839662" stroke="black" stroke-width="4.758"/>
<line x1="366.915749" y1="1091.839662" x2="269.852539" y2="913.89044" stroke="black" stroke-width="4.758"/>
<line x1="676.607136" y1="1747.938186" x2="676.607136" y2="1557.618167" stroke="black" stroke-width="4.758"/>
<line x1="676.607136" y1="1557.618167" x2="212.22629" y2="1557.618167" stroke="black" stroke-width="4.758"/>
<line x1="212.22629" y1="1557.618167" x2="212.22629" y2="1747.938186" stroke="black" stroke-width="4.758"/>
<line x1="212.22629" y1="1747.938186" x2="236.016292" y2="1747.938186" stroke="black" stroke-width="4.758"/>
<line x1="236.016292" y1="1747.938186" x2="236.016292" y2="1580.45657" stroke="black" stroke-width="4.758"/>
<line x1="236.016292" y1="1580.45657" x2="651.865534" y2="1580.45657" stroke="black" stroke-width="4.758"/>
<line x1="651.865534" y1="1580.45657" x2="651.865534" y2="1747.938186" stroke="black" stroke-width="4.758"/>
<line x1="651.865534" y1="1747.938186" x2="676.607136" y2="1747.938186" stroke="black" stroke-width="4.758"/>
<line x1="651.865534" y1="1742.228586" x2="236.016292" y2="1742.228586" stroke="black" stroke-width="4.758"/>
<line x1="444.416713" y1="1743.180186" x2="444.416713" y2="1581.40817" stroke="black" stroke-width="4.758"/>
<line x1="1904.015986" y1="1927.394307" x2="1904.015986" y2="2137.023878" stroke="black" stroke-width="4.758"/>
<line x1="1904.015986" y1="2137.023878" x2="2235.64862" y2="2137.023878" stroke="black" stroke-width="4.758"/>
<line x1="2235.64862" y1="2137.023878" x2="2235.64862" y2="1927.394307" stroke="black" stroke-width="4.758"/>
<line x1="2235.64862" y1="1927.394307" x2="1904.015986" y2="1927.394307" stroke="black" stroke-width="4.758"/>
<line x1="2176.332214" y1="1926.720253" x2="2176.332214" y2="2137.697924" stroke="black" stroke-width="4.758"/>
<line x1="2176.332214" y1="2137.697924" x2="2126.452509" y2="1928.068357" stroke="black" stroke-width="4.758"/>
<line x1="2126.452509" y1="1928.068357" x2="2079.943054" y2="1959.748706" stroke="black" stroke-width="4.758"/>
<line x1="2079.943054" y1="1959.748706" x2="2177.006264" y2="2137.697924" stroke="black" stroke-width="4.758"/>
<line x1="1588.622541" y1="321.59638" x2="1588.622541" y2="131.276361" stroke="black" stroke-width="4.758"/>
<line x1="1588.622541" y1="131.276361" x2="1124.241694" y2="131.276361" stroke="black" stroke-width="4.758"/>
<line x1="1124.241694" y1="131.276361" x2="1124.241694" y2="321.59638" stroke="black" stroke-width="4.758"/>
<line x1="1124.241694" y1="321.59638" x2="1148.031696" y2="321.59638" stroke="black" stroke-width="4.758"/>
<line x1="1148.031696" y1="321.59638" x2="1148.031696" y2="154.114763" stroke="black" stroke-width="4.758"/>
<line x1="1148.031696" y1="154.114763" x2="1563.880938" y2="154.114763" stroke="black" stroke-width="4.758"/>
<line x1="1563.880938" y1="154.114763" x2="1563.880938" y2="321.59638" stroke="black" stroke-width="4.758"/>
<line x1="1563.880938" y1="321.59638" x2="1588.622541" y2="321.59638" stroke="black" stroke-width="4.758"/>
<line x1="1563.880938" y1="315.88678" x2="1148.031696" y2="315.88678" stroke="black" stroke-width="4.758"/>
<line x1="1356.432117" y1="316.83838" x2="1356.432117" y2="155.066364" stroke="black" stroke-width="4.758"/>
<line x1="2932.551223" y1="1004.582718" x2="2795.203935" y2="1162.582693" stroke="black" stroke-width="4.758"/>
<line x1="2795.203935" y1="1162.582693" x2="2970.440274" y2="1314.913321" stroke="black" stroke-width="4.758"/>
<line x1="2970.440274" y1="1314.913321" x2="3107.787557" y2="1156.913341" stroke="black" stroke-width="4.758"/>
<line x1="3107.787557" y1="1156.913341" x2="2932.551223" y2="1004.582718" stroke="black" stroke-width="4.758"/>
<line x1="2956.969396" y1="1025.809118" x2="2819.622117" y2="1183.809093" stroke="black" stroke-width="4.758"/>
<line x1="983.956195" y1="1974.352173" x2="1216.146619" y2="1974.352173" stroke="black" stroke-width="4.758"/>
<line x1="1216.146619" y1="1974.352173" x2="1216.146619" y2="2207.018396" stroke="black" stroke-width="4.758"/>
<line x1="1216.146619" y1="2207.018396" x2="983.956195" y2="2207.018396" stroke="black" stroke-width="4.758"/>
<line x1="983.956195" y1="2207.018396" x2="983.956195" y2="1974.352173" stroke="black" stroke-width="4.758"/>
<line x1="983.480395" y1="1973.876373" x2="1216.146619" y2="2207.018396" stroke="black" stroke-width="4.758"/>
<line x1="983.956195" y1="2206.542596" x2="1215.670819" y2="1974.352173" stroke="black" stroke-width="4.758"/>
<line x1="2815.325986" y1="1465.470025" x2="2831.254569" y2="1491.979643" stroke="black" stroke-width="4.758"/>
<line x1="2831.254569" y1="1491.979643" x2="3011.112115" y2="1383.910323" stroke="black" stroke-width="4.758"/>
<line x1="3011.112115" y1="1383.910323" x2="2995.183528" y2="1357.40071" stroke="black" stroke-width="4.758"/>
<line x1="2995.183528" y1="1357.40071" x2="2815.325986" y2="1465.470025" stroke="black" stroke-width="4.758"/>
<line x1="2920.454641" y1="1640.433487" x2="2936.383224" y2="1666.943101" stroke="black" stroke-width="4.758"/>
<line x1="2936.383224" y1="1666.943101" x2="3116.24077" y2="1558.873786" stroke="black" stroke-width="4.758"/>
<line x1="3116.24077" y1="1558.873786" x2="3100.312183" y2="1532.364168" stroke="black" stroke-width="4.758"/>
<line x1="3100.312183" y1="1532.364168" x2="2920.454641" y2="1640.433487" stroke="black" stroke-width="4.758"/>
<line x1="2831.009515" y1="1491.571803" x2="2920.454641" y2="1640.433487" stroke="black" stroke-width="4.758"/>
<line x1="3009.806326" y1="1383.584753" x2="3045.960627" y2="1392.945775" stroke="black" stroke-width="4.758"/>
<line x1="3108.449686" y1="1496.945035" x2="3099.741562" y2="1533.262121" stroke="black" stroke-width="4.758"/>
<line x1="3044.980404" y1="1391.314411" x2="3109.429904" y2="1498.576395" stroke="black" stroke-width="4.758"/>
<line x1="2869.59155" y1="1468.944458" x2="2959.036677" y2="1617.806146" stroke="black" stroke-width="4.758"/>
<line x1="3596.974292" y1="899.725687" x2="3393.566124" y2="899.725687" stroke="black" stroke-width="4.758"/>
<line x1="3393.566124" y1="899.725687" x2="3393.566124" y2="695.900701" stroke="black" stroke-width="4.758"/>
<line x1="3393.566124" y1="695.900701" x2="3596.974292" y2="695.900701" stroke="black" stroke-width="4.758"/>
<line x1="3596.974292" y1="695.900701" x2="3596.974292" y2="899.725687" stroke="black" stroke-width="4.758"/>
<line x1="3597.391115" y1="900.14251" x2="3393.566124" y2="695.900701" stroke="black" stroke-width="4.758"/>
<line x1="3596.974292" y1="696.317523" x2="3393.982947" y2="899.725687" stroke="black" stroke-width="4.758"/>
<line x1="777.483095" y1="904.061226" x2="997.841944" y2="904.061226" stroke="black" stroke-width="4.757996"/>
<line x1="997.841944" y1="904.061226" x2="997.841944" y2="1124.871631" stroke="black" stroke-width="4.757996"/>
<line x1="997.841944" y1="1124.871631" x2="777.483095" y2="1124.871631" stroke="black" stroke-width="4.757996"/>
<line x1="777.483095" y1="1124.871631" x2="777.483095" y2="904.061226" stroke="black" stroke-width="4.757996"/>
<line x1="777.031543" y1="903.60967" x2="997.841944" y2="1124.871631" stroke="black" stroke-width="4.757996"/>
<line x1="777.483095" y1="1124.420075" x2="997.390388" y2="904.061226" stroke="black" stroke-width="4.757996"/>
<line x1="213.13679" y1="1161.21801" x2="213.13679" y2="1522.052933" stroke="black" stroke-width="4.758005"/>
<line x1="213.13679" y1="1522.052933" x2="373.832507" y2="1522.052933" stroke="black" stroke-width="4.758005"/>
<line x1="373.832507" y1="1522.052933" x2="373.832507" y2="1161.21801" stroke="black" stroke-width="4.758005"/>
<line x1="373.832507" y1="1161.21801" x2="213.13679" y2="1161.21801" stroke="black" stroke-width="4.758005"/>
<line x1="348.997714" y1="1452.661602" x2="348.997714" y2="1190.435411" stroke="black" stroke-width="4.758005"/>
<line x1="348.997714" y1="1190.435411" x2="240.162889" y2="1190.435411" stroke="black" stroke-width="4.758005"/>
<line x1="240.162889" y1="1190.435411" x2="240.162889" y2="1457.774646" stroke="black" stroke-width="4.758005"/>
<path d="m 349.233283,1451.914037 a 58.43480492002392,58.43480492002392 0 0 1 -110.09494499999997,3.9600390000000516" fill="none" stroke="black" stroke-width="4.758005"/>
<line x1="619.394498" y1="130.465104" x2="839.753347" y2="130.465104" stroke="black" stroke-width="4.757996"/>
<line x1="839.753347" y1="130.465104" x2="839.753347" y2="351.27551" stroke="black" stroke-width="4.757996"/>
<line x1="839.753347" y1="351.27551" x2="619.394498" y2="351.27551" stroke="black" stroke-width="4.757996"/>
<line x1="619.394498" y1="351.27551" x2="619.394498" y2="130.465104" stroke="black" stroke-width="4.757996"/>
<line x1="618.942946" y1="130.013548" x2="839.753347" y2="351.27551" stroke="black" stroke-width="4.757996"/>
<line x1="619.394498" y1="350.823953" x2="839.301791" y2="130.465104" stroke="black" stroke-width="4.757996"/>
<line x1="583.985128" y1="548.009076" x2="612.660143" y2="559.594534" stroke="black" stroke-width="4.758"/>
<line x1="612.660143" y1="559.594534" x2="691.263029" y2="365.045568" stroke="black" stroke-width="4.758"/>
<line x1="691.263029" y1="365.045568" x2="662.58801" y2="353.460106" stroke="black" stroke-width="4.758"/>
<line x1="662.58801" y1="353.460106" x2="583.985128" y2="548.009076" stroke="black" stroke-width="4.758"/>
<line x1="773.240245" y1="624.473108" x2="801.915264" y2="636.058571" stroke="black" stroke-width="4.758"/>
<line x1="801.915264" y1="636.058571" x2="880.51815" y2="441.509601" stroke="black" stroke-width="4.758"/>
<line x1="880.51815" y1="441.509601" x2="851.843131" y2="429.924143" stroke="black" stroke-width="4.758"/>
<line x1="851.843131" y1="429.924143" x2="773.240245" y2="624.473108" stroke="black" stroke-width="4.758"/>
<line x1="612.218988" y1="559.416298" x2="773.240245" y2="624.473108" stroke="black" stroke-width="4.758"/>
<line x1="690.024244" y1="365.571398" x2="724.531955" y2="351.289242" stroke="black" stroke-width="4.758"/>
<line x1="837.026259" y1="396.739892" x2="851.927806" y2="430.984688" stroke="black" stroke-width="4.758"/>
<line x1="722.767341" y1="350.576291" x2="838.790874" y2="397.452843" stroke="black" stroke-width="4.758"/>
<line x1="629.414499" y1="518.126048" x2="790.435756" y2="583.182859" stroke="black" stroke-width="4.758"/>
<line x1="429.340922" y1="2298.092222" x2="210.279051" y2="2298.092222" stroke="black" stroke-width="4.758"/>
<line x1="210.279051" y1="2298.092222" x2="210.279051" y2="2644.646694" stroke="black" stroke-width="4.758"/>
<line x1="210.279051" y1="2644.646694" x2="429.340922" y2="2644.646694" stroke="black" stroke-width="4.758"/>
<line x1="429.340922" y1="2644.646694" x2="429.340922" y2="2298.092222" stroke="black" stroke-width="4.758"/>
<line x1="430.0453" y1="2582.66134" x2="209.574674" y2="2582.66134" stroke="black" stroke-width="4.758"/>
<line x1="209.574674" y1="2582.66134" x2="428.636544" y2="2530.537295" stroke="black" stroke-width="4.758"/>
<line x1="428.636544" y1="2530.537295" x2="395.53073" y2="2481.935144" stroke="black" stroke-width="4.758"/>
<line x1="395.53073" y1="2481.935144" x2="209.574674" y2="2583.365718" stroke="black" stroke-width="4.758"/>
<line x1="499.648746" y1="2506.215674" x2="568.20507" y2="2574.771994" stroke="black" stroke-width="4.758005"/>
<line x1="568.20507" y1="2574.771994" x2="499.508261" y2="2643.468802" stroke="black" stroke-width="4.758005"/>
<line x1="499.508261" y1="2643.468802" x2="430.951937" y2="2574.912478" stroke="black" stroke-width="4.758005"/>
<line x1="430.951937" y1="2574.912478" x2="499.648746" y2="2506.215674" stroke="black" stroke-width="4.758005"/>
<line x1="499.648746" y1="2505.934705" x2="499.508261" y2="2643.468802" stroke="black" stroke-width="4.758005"/>
<line x1="431.092422" y1="2574.771994" x2="568.064585" y2="2574.631509" stroke="black" stroke-width="4.758005"/>
<line x1="1217.492208" y1="2297.808777" x2="998.430337" y2="2297.808777" stroke="black" stroke-width="4.758"/>
<line x1="998.430337" y1="2297.808777" x2="998.430337" y2="2644.363249" stroke="black" stroke-width="4.758"/>
<line x1="998.430337" y1="2644.363249" x2="1217.492208" y2="2644.363249" stroke="black" stroke-width="4.758"/>
<line x1="1217.492208" y1="2644.363249" x2="1217.492208" y2="2297.808777" stroke="black" stroke-width="4.758"/>
<line x1="1218.196586" y1="2582.377895" x2="997.725959" y2="2582.377895" stroke="black" stroke-width="4.758"/>
<line x1="997.725959" y1="2582.377895" x2="1216.78783" y2="2530.25385" stroke="black" stroke-width="4.758"/>
<line x1="1216.78783" y1="2530.25385" x2="1183.682015" y2="2481.651699" stroke="black" stroke-width="4.758"/>
<line x1="1183.682015" y1="2481.651699" x2="997.725959" y2="2583.082273" stroke="black" stroke-width="4.758"/>
<line x1="928.005828" y1="2506.641176" x2="996.562152" y2="2575.197496" stroke="black" stroke-width="4.758005"/>
<line x1="996.562152" y1="2575.197496" x2="927.865344" y2="2643.894304" stroke="black" stroke-width="4.758005"/>
<line x1="927.865344" y1="2643.894304" x2="859.30902" y2="2575.33798" stroke="black" stroke-width="4.758005"/>
<line x1="859.30902" y1="2575.33798" x2="928.005828" y2="2506.641176" stroke="black" stroke-width="4.758005"/>
<line x1="928.005828" y1="2506.360207" x2="927.865344" y2="2643.894304" stroke="black" stroke-width="4.758005"/>
<line x1="859.449504" y1="2575.197496" x2="996.421668" y2="2575.057011" stroke="black" stroke-width="4.758005"/>
<line x1="1661.943566" y1="2607.239065" x2="1882.302415" y2="2607.239065" stroke="black" stroke-width="4.757996"/>
<line x1="1882.302415" y1="2607.239065" x2="1882.302415" y2="2828.04947" stroke="black" stroke-width="4.757996"/>
<line x1="1882.302415" y1="2828.04947" x2="1661.943566" y2="2828.04947" stroke="black" stroke-width="4.757996"/>
<line x1="1661.943566" y1="2828.04947" x2="1661.943566" y2="2607.239065" stroke="black" stroke-width="4.757996"/>
<line x1="1661.492014" y1="2606.787508" x2="1882.302415" y2="2828.04947" stroke="black" stroke-width="4.757996"/>
<line x1="1661.943566" y1="2827.597914" x2="1881.850859" y2="2607.239065" stroke="black" stroke-width="4.757996"/>
<line x1="1903.00014" y1="2378.354958" x2="1872.374116" y2="2374.050752" stroke="black" stroke-width="4.758"/>
<line x1="1872.374116" y1="2374.050752" x2="1843.171729" y2="2581.836545" stroke="black" stroke-width="4.758"/>
<line x1="1843.171729" y1="2581.836545" x2="1873.797749" y2="2586.140747" stroke="black" stroke-width="4.758"/>
<line x1="1873.797749" y1="2586.140747" x2="1903.00014" y2="2378.354958" stroke="black" stroke-width="4.758"/>
<line x1="1700.868385" y1="2349.947193" x2="1670.24236" y2="2345.642982" stroke="black" stroke-width="4.758"/>
<line x1="1670.24236" y1="2345.642982" x2="1641.039969" y2="2553.42878" stroke="black" stroke-width="4.758"/>
<line x1="1641.039969" y1="2553.42878" x2="1671.665994" y2="2557.732986" stroke="black" stroke-width="4.758"/>
<line x1="1671.665994" y1="2557.732986" x2="1700.868385" y2="2349.947193" stroke="black" stroke-width="4.758"/>
<line x1="1872.845286" y1="2374.116968" x2="1700.868385" y2="2349.947193" stroke="black" stroke-width="4.758"/>
<line x1="1844.2465" y1="2581.026641" x2="1814.218988" y2="2603.232727" stroke="black" stroke-width="4.758"/>
<line x1="1694.07074" y1="2586.346993" x2="1671.327264" y2="2556.724427" stroke="black" stroke-width="4.758"/>
<line x1="1816.103663" y1="2603.497602" x2="1692.18606" y2="2586.082118" stroke="black" stroke-width="4.758"/>
<line x1="1866.149567" y1="2418.340692" x2="1694.172667" y2="2394.170917" stroke="black" stroke-width="4.758"/>
<line x1="2976.846071" y1="2474.847604" x2="3146.352878" y2="2474.847604" stroke="black" stroke-width="4.758005"/>
<line x1="3146.352878" y1="2474.847604" x2="3146.352878" y2="2644.701759" stroke="black" stroke-width="4.758005"/>
<line x1="3146.352878" y1="2644.701759" x2="2976.846071" y2="2644.701759" stroke="black" stroke-width="4.758005"/>
<line x1="2976.846071" y1="2644.701759" x2="2976.846071" y2="2474.847604" stroke="black" stroke-width="4.758005"/>
<line x1="2976.498719" y1="2474.500253" x2="3146.352878" y2="2644.701759" stroke="black" stroke-width="4.758005"/>
<line x1="2976.846071" y1="2644.354411" x2="3146.005526" y2="2474.847604" stroke="black" stroke-width="4.758005"/>
<line x1="2808.66057" y1="2475.357719" x2="2978.167377" y2="2475.357719" stroke="black" stroke-width="4.758005"/>
<line x1="2978.167377" y1="2475.357719" x2="2978.167377" y2="2645.211874" stroke="black" stroke-width="4.758005"/>
<line x1="2978.167377" y1="2645.211874" x2="2808.66057" y2="2645.211874" stroke="black" stroke-width="4.758005"/>
<line x1="2808.66057" y1="2645.211874" x2="2808.66057" y2="2475.357719" stroke="black" stroke-width="4.758005"/>
<line x1="2808.313218" y1="2475.010368" x2="2978.167377" y2="2645.211874" stroke="black" stroke-width="4.758005"/>
<line x1="2808.66057" y1="2644.864526" x2="2977.820025" y2="2475.357719" stroke="black" stroke-width="4.758005"/>
<line x1="3266.406297" y1="2337.896583" x2="3435.913104" y2="2337.896583" stroke="black" stroke-width="4.758005"/>
<line x1="3435.913104" y1="2337.896583" x2="3435.913104" y2="2507.750737" stroke="black" stroke-width="4.758005"/>
<line x1="3435.913104" y1="2507.750737" x2="3266.406297" y2="2507.750737" stroke="black" stroke-width="4.758005"/>
<line x1="3266.406297" y1="2507.750737" x2="3266.406297" y2="2337.896583" stroke="black" stroke-width="4.758005"/>
<line x1="3266.058945" y1="2337.549231" x2="3435.913104" y2="2507.750737" stroke="black" stroke-width="4.758005"/>
<line x1="3266.406297" y1="2507.40339" x2="3435.565752" y2="2337.896583" stroke="black" stroke-width="4.758005"/>
<line x1="3434.14941" y1="2338.590075" x2="3603.656217" y2="2338.590075" stroke="black" stroke-width="4.758005"/>
<line x1="3603.656217" y1="2338.590075" x2="3603.656217" y2="2508.444229" stroke="black" stroke-width="4.758005"/>
<line x1="3603.656217" y1="2508.444229" x2="3434.14941" y2="2508.444229" stroke="black" stroke-width="4.758005"/>
<line x1="3434.14941" y1="2508.444229" x2="3434.14941" y2="2338.590075" stroke="black" stroke-width="4.758005"/>
<line x1="3433.802058" y1="2338.242723" x2="3603.656217" y2="2508.444229" stroke="black" stroke-width="4.758005"/>
<line x1="3434.14941" y1="2508.096882" x2="3603.308865" y2="2338.590075" stroke="black" stroke-width="4.758005"/>
</g>
</svg>
