<?xml version="1.0"?>
<svg xmlns:xlink="http://www.w3.org/1999/xlink" width="5498.133887999999" height="2960.5336319999997">
<image x="0" y="0" width="5498.133887999999" height="2960.5336319999997" xlink:href="ground16-07.png"/>
<g style="stroke-linecap:round">
<line x1="1294.244566" y1="1161.032193" x2="1316.799022" y2="1161.032193" stroke="black" stroke-width="4.758"/>
<line x1="1316.799022" y1="1161.032193" x2="1316.799022" y2="1117.023503" stroke="black" stroke-width="4.758"/>
<line x1="1316.799022" y1="1117.023503" x2="1294.244566" y2="1117.023503" stroke="black" stroke-width="4.758"/>
<line x1="1294.244566" y1="1117.023503" x2="1294.244566" y2="1161.032193" stroke="black" stroke-width="4.758"/>
<line x1="1537.39259" y1="1117.023503" x2="1537.39259" y2="897.530148" stroke="black" stroke-width="4.758"/>
<line x1="1537.942699" y1="1162.13241" x2="1560.497154" y2="1162.13241" stroke="black" stroke-width="4.758"/>
<line x1="1560.497154" y1="1162.13241" x2="1560.497154" y2="1118.12372" stroke="black" stroke-width="4.758"/>
<line x1="1560.497154" y1="1118.12372" x2="1537.942699" y2="1118.12372" stroke="black" stroke-width="4.758"/>
<line x1="1537.942699" y1="1118.12372" x2="1537.942699" y2="1162.13241" stroke="black" stroke-width="4.758"/>
<path d="m 1316.799022,1118.673829 a 220.59357050000006,220.59357050000006 0 0 1 220.593568,-220.5935730000001" fill="none" stroke="black" stroke-width="4.758"/>
<line x1="1546.852786" y1="1890.830668" x2="1524.29833" y2="1890.830668" stroke="black" stroke-width="4.758"/>
<line x1="1524.29833" y1="1890.830668" x2="1524.29833" y2="1934.839358" stroke="black" stroke-width="4.758"/>
<line x1="1524.29833" y1="1934.839358" x2="1546.852786" y2="1934.839358" stroke="black" stroke-width="4.758"/>
<line x1="1546.852786" y1="1934.839358" x2="1546.852786" y2="1890.830668" stroke="black" stroke-width="4.758"/>
<line x1="1303.704762" y1="1934.839358" x2="1303.704762" y2="2154.332713" stroke="black" stroke-width="4.758"/>
<line x1="1303.154654" y1="1889.730451" x2="1280.600198" y2="1889.730451" stroke="black" stroke-width="4.758"/>
<line x1="1280.600198" y1="1889.730451" x2="1280.600198" y2="1933.739141" stroke="black" stroke-width="4.758"/>
<line x1="1280.600198" y1="1933.739141" x2="1303.154654" y2="1933.739141" stroke="black" stroke-width="4.758"/>
<line x1="1303.154654" y1="1933.739141" x2="1303.154654" y2="1889.730451" stroke="black" stroke-width="4.758"/>
<path d="m 1524.29833,1933.189032 a 220.59357049999994,220.59357049999994 0 0 1 -220.593568,220.59357299999988" fill="none" stroke="black" stroke-width="4.758"/>
<line x1="4403.657584" y1="115.472526" x2="4618.156079" y2="115.472526" stroke="black" stroke-width="4.758"/>
<line x1="4618.156079" y1="115.472526" x2="4618.156079" y2="82.405824" stroke="black" stroke-width="4.758"/>
<line x1="4618.156079" y1="82.405824" x2="4403.657584" y2="82.405824" stroke="black" stroke-width="4.758"/>
<line x1="4403.657584" y1="82.405824" x2="4403.657584" y2="115.472526" stroke="black" stroke-width="4.758"/>
<line x1="4423.671642" y1="82.840912" x2="4423.671642" y2="115.037438" stroke="black" stroke-width="4.758"/>
<line x1="4597.706933" y1="82.840912" x2="4597.706933" y2="116.342703" stroke="black" stroke-width="4.758"/>
<line x1="4423.236554" y1="98.068998" x2="4597.271845" y2="98.068998" stroke="black" stroke-width="4.758"/>
<line x1="2442.746697" y1="110.676514" x2="2657.23038" y2="110.676514" stroke="black" stroke-width="4.758"/>
<line x1="2657.23038" y1="110.676514" x2="2657.23038" y2="72.31358" stroke="black" stroke-width="4.758"/>
<line x1="2657.23038" y1="72.31358" x2="2442.746697" y2="72.31358" stroke="black" stroke-width="4.758"/>
<line x1="2442.746697" y1="72.31358" x2="2442.746697" y2="110.676514" stroke="black" stroke-width="4.758"/>
<line x1="2452.773372" y1="110.676514" x2="2452.773372" y2="123.754791" stroke="black" stroke-width="4.758"/>
<line x1="2452.773372" y1="123.754791" x2="2646.767762" y2="123.754791" stroke="black" stroke-width="4.758"/>
<line x1="2646.767762" y1="110.676514" x2="2646.767762" y2="123.754791" stroke="black" stroke-width="4.758"/>
<line x1="1253.916155" y1="1507.813934" x2="1253.916155" y2="1485.259478" stroke="black" stroke-width="4.758"/>
<line x1="1253.916155" y1="1485.259478" x2="1209.907466" y2="1485.259478" stroke="black" stroke-width="4.758"/>
<line x1="1209.907466" y1="1485.259478" x2="1209.907466" y2="1507.813934" stroke="black" stroke-width="4.758"/>
<line x1="1209.907466" y1="1507.813934" x2="1253.916155" y2="1507.813934" stroke="black" stroke-width="4.758"/>
<line x1="1209.907466" y1="1264.66591" x2="990.414111" y2="1264.66591" stroke="black" stroke-width="4.758"/>
<line x1="1255.016372" y1="1264.115802" x2="1255.016372" y2="1241.561346" stroke="black" stroke-width="4.758"/>
<line x1="1255.016372" y1="1241.561346" x2="1211.007683" y2="1241.561346" stroke="black" stroke-width="4.758"/>
<line x1="1211.007683" y1="1241.561346" x2="1211.007683" y2="1264.115802" stroke="black" stroke-width="4.758"/>
<line x1="1211.007683" y1="1264.115802" x2="1255.016372" y2="1264.115802" stroke="black" stroke-width="4.758"/>
<path d="m 1211.557792,1485.259478 a 220.59357050000006,220.59357050000006 0 0 1 -220.5935730000001,-220.593568" fill="none" stroke="black" stroke-width="4.758"/>
<line x1="1253.394872" y1="1837.912218" x2="1253.394872" y2="1815.357762" stroke="black" stroke-width="4.758"/>
<line x1="1253.394872" y1="1815.357762" x2="1209.386183" y2="1815.357762" stroke="black" stroke-width="4.758"/>
<line x1="1209.386183" y1="1815.357762" x2="1209.386183" y2="1837.912218" stroke="black" stroke-width="4.758"/>
<line x1="1209.386183" y1="1837.912218" x2="1253.394872" y2="1837.912218" stroke="black" stroke-width="4.758"/>
<line x1="1209.386183" y1="1594.764194" x2="989.892827" y2="1594.764194" stroke="black" stroke-width="4.758"/>
<line x1="1254.495089" y1="1594.214086" x2="1254.495089" y2="1571.65963" stroke="black" stroke-width="4.758"/>
<line x1="1254.495089" y1="1571.65963" x2="1210.4864" y2="1571.65963" stroke="black" stroke-width="4.758"/>
<line x1="1210.4864" y1="1571.65963" x2="1210.4864" y2="1594.214086" stroke="black" stroke-width="4.758"/>
<line x1="1210.4864" y1="1594.214086" x2="1254.495089" y2="1594.214086" stroke="black" stroke-width="4.758"/>
<path d="m 1211.036509,1815.357762 a 220.5935705,220.5935705 0 0 1 -220.593573,-220.593568" fill="none" stroke="black" stroke-width="4.758"/>
<line x1="2469.579154" y1="1558.52728" x2="2492.277729" y2="1558.52728" stroke="black" stroke-width="4.758"/>
<line x1="2492.277729" y1="1558.52728" x2="2492.277729" y2="1514.237384" stroke="black" stroke-width="4.758"/>
<line x1="2492.277729" y1="1514.237384" x2="2469.579154" y2="1514.237384" stroke="black" stroke-width="4.758"/>
<line x1="2469.579154" y1="1514.237384" x2="2469.579154" y2="1558.52728" stroke="black" stroke-width="4.758"/>
<line x1="2714.280841" y1="1514.237384" x2="2714.280841" y2="1293.341516" stroke="black" stroke-width="4.758"/>
<line x1="2714.834465" y1="1559.634529" x2="2737.53304" y2="1559.634529" stroke="black" stroke-width="4.758"/>
<line x1="2737.53304" y1="1559.634529" x2="2737.53304" y2="1515.344628" stroke="black" stroke-width="4.758"/>
<line x1="2737.53304" y1="1515.344628" x2="2714.834465" y2="1515.344628" stroke="black" stroke-width="4.758"/>
<line x1="2714.834465" y1="1515.344628" x2="2714.834465" y2="1559.634529" stroke="black" stroke-width="4.758"/>
<path d="m 2492.277729,1515.898252 a 222.00311199999987,222.00311199999987 0 0 1 222.00311199999987,-222.00311199999987" fill="none" stroke="black" stroke-width="4.758"/>
<line x1="194.941386" y1="532.266526" x2="194.941386" y2="311.809742" stroke="black" stroke-width="4.758005"/>
<line x1="194.941386" y1="311.809742" x2="160.95616" y2="311.809742" stroke="black" stroke-width="4.758005"/>
<line x1="160.95616" y1="311.809742" x2="160.95616" y2="532.266526" stroke="black" stroke-width="4.758005"/>
<line x1="160.95616" y1="532.266526" x2="194.941386" y2="532.266526" stroke="black" stroke-width="4.758005"/>
<line x1="161.403333" y1="511.696523" x2="194.494209" y2="511.696523" stroke="black" stroke-width="4.758005"/>
<line x1="161.403333" y1="332.826918" x2="195.835731" y2="332.826918" stroke="black" stroke-width="4.758005"/>
<line x1="177.054423" y1="512.143695" x2="177.054423" y2="333.274095" stroke="black" stroke-width="4.758005"/>
<line x1="193.040199" y1="2237.218729" x2="193.040199" y2="2016.777166" stroke="black" stroke-width="4.758"/>
<line x1="193.040199" y1="2016.777166" x2="153.611627" y2="2016.777166" stroke="black" stroke-width="4.758"/>
<line x1="153.611627" y1="2016.777166" x2="153.611627" y2="2237.218729" stroke="black" stroke-width="4.758"/>
<line x1="153.611627" y1="2237.218729" x2="193.040199" y2="2237.218729" stroke="black" stroke-width="4.758"/>
<line x1="193.040199" y1="2226.913535" x2="206.481757" y2="2226.913535" stroke="black" stroke-width="4.758"/>
<line x1="206.481757" y1="2226.913535" x2="206.481757" y2="2027.53041" stroke="black" stroke-width="4.758"/>
<line x1="193.040199" y1="2027.53041" x2="206.481757" y2="2027.53041" stroke="black" stroke-width="4.758"/>
<line x1="2630.64014" y1="2277.391122" x2="2605.995975" y2="2277.391122" stroke="black" stroke-width="4.758"/>
<line x1="2605.995975" y1="2277.391122" x2="2605.995975" y2="2325.477299" stroke="black" stroke-width="4.758"/>
<line x1="2605.995975" y1="2325.477299" x2="2630.64014" y2="2325.477299" stroke="black" stroke-width="4.758"/>
<line x1="2630.64014" y1="2325.477299" x2="2630.64014" y2="2277.391122" stroke="black" stroke-width="4.758"/>
<line x1="2364.964024" y1="2325.477299" x2="2364.964024" y2="2565.307097" stroke="black" stroke-width="4.758"/>
<line x1="2364.362948" y1="2276.188969" x2="2339.718783" y2="2276.188969" stroke="black" stroke-width="4.758"/>
<line x1="2339.718783" y1="2276.188969" x2="2339.718783" y2="2324.275141" stroke="black" stroke-width="4.758"/>
<line x1="2339.718783" y1="2324.275141" x2="2364.362948" y2="2324.275141" stroke="black" stroke-width="4.758"/>
<line x1="2364.362948" y1="2324.275141" x2="2364.362948" y2="2276.188969" stroke="black" stroke-width="4.758"/>
<path d="m 2605.995975,2323.674065 a 241.03195099999994,241.03195099999994 0 0 1 -241.03195099999994,241.03195099999994" fill="none" stroke="black" stroke-width="4.758"/>
<line x1="568.88256" y1="1213.185645" x2="374.921777" y2="1213.185645" stroke="black" stroke-width="4.757996"/>
<line x1="374.921777" y1="1213.185645" x2="374.921777" y2="1161.3513" stroke="black" stroke-width="4.757996"/>
<line x1="568.88256" y1="1161.3513" x2="374.921777" y2="1161.3513" stroke="black" stroke-width="4.757996"/>
<line x1="568.88256" y1="1213.185645" x2="568.88256" y2="1161.3513" stroke="black" stroke-width="4.757996"/>
<line x1="524.99057" y1="1242.446969" x2="524.99057" y2="1213.185645" stroke="black" stroke-width="4.757996"/>
<line x1="420.485839" y1="1213.185645" x2="420.485839" y2="1244.119045" stroke="black" stroke-width="4.757996"/>
<circle cx="473.574242" cy="1290.101128" r="70.2271798019802" fill="none" stroke="black" stroke-width="4.757996"/>
<circle cx="473.574242" cy="1290.101128" r="60.19472554455446" fill="none" stroke="black" stroke-width="4.757996"/>
<line x1="863.33509" y1="1185.323243" x2="844.699588" y2="1160.740241" stroke="black" stroke-width="4.758"/>
<line x1="844.699588" y1="1160.740241" x2="697.201573" y2="1160.740241" stroke="black" stroke-width="4.758"/>
<line x1="697.201573" y1="1160.740241" x2="678.169571" y2="1188.891744" stroke="black" stroke-width="4.758"/>
<line x1="841.527588" y1="1188.098743" x2="698.391073" y2="1188.098743" stroke="black" stroke-width="4.758"/>
<circle cx="772.140081" cy="1209.906246" r="13.084501320000001" fill="none" stroke="black" stroke-width="4.758"/>
<path d="m 839.972378,1187.430553 a 74.93850864961598,74.93850864961598 0 1 1 -139.78529200000003,0.4025530000001254" fill="none" stroke="black" stroke-width="4.758"/>
<path d="m 863.288735,1184.665049 a 95.55651022076711,95.55651022076711 0 1 1 -184.699931,3.078845000000001" fill="none" stroke="black" stroke-width="4.758"/>
<line x1="1746.877531" y1="1315.015922" x2="1829.834353" y2="1438.004467" stroke="black" stroke-width="4.758"/>
<line x1="1829.834353" y1="1438.004467" x2="1706.593784" y2="1521.131282" stroke="black" stroke-width="4.758"/>
<line x1="1706.593784" y1="1521.131282" x2="1623.636966" y2="1398.142736" stroke="black" stroke-width="4.758"/>
<line x1="1623.636966" y1="1398.142736" x2="1746.877531" y2="1315.015922" stroke="black" stroke-width="4.758"/>
<line x1="1746.959567" y1="1314.593905" x2="1706.593784" y2="1521.131282" stroke="black" stroke-width="4.758"/>
<line x1="1623.88899" y1="1397.972744" x2="1829.664361" y2="1437.752438" stroke="black" stroke-width="4.758"/>
<line x1="1760.768659" y1="775.195739" x2="1760.768659" y2="1168.93617" stroke="black" stroke-width="4.758"/>
<line x1="1761.766196" y1="1172.896571" x2="1625.525601" y2="1172.896571" stroke="black" stroke-width="4.758"/>
<line x1="1624.372645" y1="775.660715" x2="1624.372645" y2="1173.202294" stroke="black" stroke-width="4.758"/>
<line x1="1760.073031" y1="776.396531" x2="1624.638173" y2="776.396531" stroke="black" stroke-width="4.758"/>
<line x1="1749.666658" y1="786.705532" x2="1749.666658" y2="910.413544" stroke="black" stroke-width="4.758"/>
<line x1="1749.666658" y1="910.413544" x2="1635.474646" y2="910.413544" stroke="black" stroke-width="4.758"/>
<line x1="1635.474646" y1="786.705532" x2="1635.474646" y2="910.413544" stroke="black" stroke-width="4.758"/>
<line x1="1749.666658" y1="786.705532" x2="1635.474646" y2="786.705532" stroke="black" stroke-width="4.758"/>
<line x1="1742.529657" y1="929.445546" x2="1742.529657" y2="1016.675555" stroke="black" stroke-width="4.758"/>
<line x1="1722.704655" y1="929.445546" x2="1722.704655" y2="1016.675555" stroke="black" stroke-width="4.758"/>
<line x1="1702.086653" y1="930.238546" x2="1702.086653" y2="1016.675555" stroke="black" stroke-width="4.758"/>
<line x1="1682.261651" y1="930.238546" x2="1682.261651" y2="1016.675555" stroke="black" stroke-width="4.758"/>
<line x1="1662.436649" y1="929.445546" x2="1662.436649" y2="1016.675555" stroke="black" stroke-width="4.758"/>
<line x1="1642.611647" y1="929.445546" x2="1642.611647" y2="1016.675555" stroke="black" stroke-width="4.758"/>
<line x1="1636.267646" y1="834.285537" x2="1649.748648" y2="834.285537" stroke="black" stroke-width="4.758"/>
<line x1="1649.748648" y1="834.285537" x2="1649.748648" y2="864.41954" stroke="black" stroke-width="4.758"/>
<line x1="1649.748648" y1="864.41954" x2="1637.060647" y2="864.41954" stroke="black" stroke-width="4.758"/>
<line x1="1749.666658" y1="1037.293557" x2="1749.666658" y2="1161.001569" stroke="black" stroke-width="4.758"/>
<line x1="1749.666658" y1="1161.001569" x2="1635.474646" y2="1161.001569" stroke="black" stroke-width="4.758"/>
<line x1="1635.474646" y1="1037.293557" x2="1635.474646" y2="1161.001569" stroke="black" stroke-width="4.758"/>
<line x1="1749.666658" y1="1037.293557" x2="1635.474646" y2="1037.293557" stroke="black" stroke-width="4.758"/>
<line x1="1635.474646" y1="1084.873562" x2="1648.955648" y2="1084.873562" stroke="black" stroke-width="4.758"/>
<line x1="1648.955648" y1="1084.873562" x2="1648.955648" y2="1115.007565" stroke="black" stroke-width="4.758"/>
<line x1="1648.955648" y1="1115.007565" x2="1636.267646" y2="1115.007565" stroke="black" stroke-width="4.758"/>
<circle cx="1735.392656" cy="896.139543" r="7.1370007200000005" fill="none" stroke="black" stroke-width="4.758"/>
<circle cx="1734.599656" cy="1146.727568" r="7.1370007200000005" fill="none" stroke="black" stroke-width="4.758"/>
<line x1="2138.676773" y1="699.803054" x2="2138.676773" y2="567.530641" stroke="black" stroke-width="4.758"/>
<line x1="2138.676773" y1="567.530641" x2="2152.950774" y2="567.530641" stroke="black" stroke-width="4.758"/>
<line x1="2152.950774" y1="699.803054" x2="2152.950774" y2="567.530641" stroke="black" stroke-width="4.758"/>
<line x1="2138.676773" y1="699.803054" x2="2152.950774" y2="699.803054" stroke="black" stroke-width="4.758"/>
<line x1="2152.950774" y1="686.480653" x2="2184.353577" y2="688.383853" stroke="black" stroke-width="4.758"/>
<line x1="2152.950774" y1="580.853042" x2="2185.305177" y2="578.949842" stroke="black" stroke-width="4.758"/>
<line x1="2600.202819" y1="699.803054" x2="2600.202819" y2="567.530641" stroke="black" stroke-width="4.758"/>
<line x1="2600.202819" y1="567.530641" x2="2586.880418" y2="567.530641" stroke="black" stroke-width="4.758"/>
<line x1="2586.880418" y1="699.803054" x2="2586.880418" y2="567.530641" stroke="black" stroke-width="4.758"/>
<line x1="2600.202819" y1="699.803054" x2="2586.880418" y2="699.803054" stroke="black" stroke-width="4.758"/>
<line x1="2584.977218" y1="687.432253" x2="2553.574414" y2="689.335453" stroke="black" stroke-width="4.758"/>
<line x1="2584.977218" y1="581.804642" x2="2552.622814" y2="578.949842" stroke="black" stroke-width="4.758"/>
<line x1="2303.303589" y1="403.855424" x2="2303.303589" y2="418.129426" stroke="black" stroke-width="4.758"/>
<line x1="2303.303589" y1="418.129426" x2="2435.576002" y2="418.129426" stroke="black" stroke-width="4.758"/>
<line x1="2435.576002" y1="403.855424" x2="2435.576002" y2="418.129426" stroke="black" stroke-width="4.758"/>
<line x1="2303.303589" y1="403.855424" x2="2435.576002" y2="403.855424" stroke="black" stroke-width="4.758"/>
<line x1="2421.302001" y1="418.129426" x2="2424.156801" y2="450.483829" stroke="black" stroke-width="4.758"/>
<line x1="2316.62599" y1="418.129426" x2="2314.72279" y2="450.483829" stroke="black" stroke-width="4.758"/>
<line x1="2302.351989" y1="864.429871" x2="2302.351989" y2="850.155869" stroke="black" stroke-width="4.758"/>
<line x1="2302.351989" y1="850.155869" x2="2434.624402" y2="850.155869" stroke="black" stroke-width="4.758"/>
<line x1="2434.624402" y1="864.429871" x2="2434.624402" y2="850.155869" stroke="black" stroke-width="4.758"/>
<line x1="2302.351989" y1="864.429871" x2="2434.624402" y2="864.429871" stroke="black" stroke-width="4.758"/>
<line x1="2420.350401" y1="850.155869" x2="2423.205201" y2="817.801466" stroke="black" stroke-width="4.758"/>
<line x1="2315.67439" y1="850.155869" x2="2313.77119" y2="817.801466" stroke="black" stroke-width="4.758"/>
<circle cx="2368.963996" cy="634.142647" r="192.22321939199998" fill="none" stroke="black" stroke-width="4.758"/>
<line x1="1878.886453" y1="2846.549827" x2="1664.387958" y2="2846.549827" stroke="black" stroke-width="4.758"/>
<line x1="1664.387958" y1="2846.549827" x2="1664.387958" y2="2879.616529" stroke="black" stroke-width="4.758"/>
<line x1="1664.387958" y1="2879.616529" x2="1878.886453" y2="2879.616529" stroke="black" stroke-width="4.758"/>
<line x1="1878.886453" y1="2879.616529" x2="1878.886453" y2="2846.549827" stroke="black" stroke-width="4.758"/>
<line x1="1858.872395" y1="2879.181441" x2="1858.872395" y2="2846.984915" stroke="black" stroke-width="4.758"/>
<line x1="1684.837104" y1="2879.181441" x2="1684.837104" y2="2845.67965" stroke="black" stroke-width="4.758"/>
<line x1="1859.307483" y1="2863.953355" x2="1685.272192" y2="2863.953355" stroke="black" stroke-width="4.758"/>
<line x1="3594.397932" y1="1100.780386" x2="3594.397932" y2="910.460366" stroke="black" stroke-width="4.758"/>
<line x1="3594.397932" y1="910.460366" x2="3130.017085" y2="910.460366" stroke="black" stroke-width="4.758"/>
<line x1="3130.017085" y1="910.460366" x2="3130.017085" y2="1100.780386" stroke="black" stroke-width="4.758"/>
<line x1="3130.017085" y1="1100.780386" x2="3153.807087" y2="1100.780386" stroke="black" stroke-width="4.758"/>
<line x1="3153.807087" y1="1100.780386" x2="3153.807087" y2="933.298769" stroke="black" stroke-width="4.758"/>
<line x1="3153.807087" y1="933.298769" x2="3569.656329" y2="933.298769" stroke="black" stroke-width="4.758"/>
<line x1="3569.656329" y1="933.298769" x2="3569.656329" y2="1100.780386" stroke="black" stroke-width="4.758"/>
<line x1="3569.656329" y1="1100.780386" x2="3594.397932" y2="1100.780386" stroke="black" stroke-width="4.758"/>
<line x1="3569.656329" y1="1095.070785" x2="3153.807087" y2="1095.070785" stroke="black" stroke-width="4.758"/>
<line x1="3362.207509" y1="1096.022385" x2="3362.207509" y2="934.250369" stroke="black" stroke-width="4.758"/>
<line x1="3446.612151" y1="1456.738156" x2="3277.680643" y2="1492.645653" stroke="black" stroke-width="4.758"/>
<line x1="3277.680643" y1="1492.645653" x2="3241.69956" y2="1323.367979" stroke="black" stroke-width="4.758"/>
<line x1="3241.69956" y1="1323.367979" x2="3410.631067" y2="1287.460477" stroke="black" stroke-width="4.758"/>
<line x1="3410.631067" y1="1287.460477" x2="3446.612151" y2="1456.738156" stroke="black" stroke-width="4.758"/>
<line x1="3447.031899" y1="1457.010745" x2="3241.69956" y2="1323.367979" stroke="black" stroke-width="4.758"/>
<line x1="3410.704649" y1="1287.806653" x2="3278.026814" y2="1492.572076" stroke="black" stroke-width="4.758"/>
<line x1="421.513809" y1="793.235486" x2="211.884233" y2="793.235486" stroke="black" stroke-width="4.758"/>
<line x1="211.884233" y1="793.235486" x2="211.884233" y2="1124.86812" stroke="black" stroke-width="4.758"/>
<line x1="211.884233" y1="1124.86812" x2="421.513809" y2="1124.86812" stroke="black" stroke-width="4.758"/>
<line x1="421.513809" y1="1124.86812" x2="421.513809" y2="793.235486" stroke="black" stroke-width="4.758"/>
<line x1="422.187859" y1="1065.551714" x2="211.210183" y2="1065.551714" stroke="black" stroke-width="4.758"/>
<line x1="211.210183" y1="1065.551714" x2="420.839759" y2="1015.672009" stroke="black" stroke-width="4.758"/>
<line x1="420.839759" y1="1015.672009" x2="389.159406" y2="969.16255" stroke="black" stroke-width="4.758"/>
<line x1="389.159406" y1="969.16255" x2="211.210183" y2="1066.225764" stroke="black" stroke-width="4.758"/>
<line x1="2025.345003" y1="2258.352886" x2="2234.974574" y2="2258.352886" stroke="black" stroke-width="4.758"/>
<line x1="2234.974574" y1="2258.352886" x2="2234.974574" y2="1926.720257" stroke="black" stroke-width="4.758"/>
<line x1="2234.974574" y1="1926.720257" x2="2025.345003" y2="1926.720257" stroke="black" stroke-width="4.758"/>
<line x1="2025.345003" y1="1926.720257" x2="2025.345003" y2="2258.352886" stroke="black" stroke-width="4.758"/>
<line x1="2024.670949" y1="1986.036659" x2="2235.64862" y2="1986.036659" stroke="black" stroke-width="4.758"/>
<line x1="2235.64862" y1="1986.036659" x2="2026.019049" y2="2035.916364" stroke="black" stroke-width="4.758"/>
<line x1="2026.019049" y1="2035.916364" x2="2057.699402" y2="2082.425818" stroke="black" stroke-width="4.758"/>
<line x1="2057.699402" y1="2082.425818" x2="2235.64862" y2="1985.362609" stroke="black" stroke-width="4.758"/>
<line x1="3594.46546" y1="498.312347" x2="3391.057292" y2="498.312347" stroke="black" stroke-width="4.758"/>
<line x1="3391.057292" y1="498.312347" x2="3391.057292" y2="294.48736" stroke="black" stroke-width="4.758"/>
<line x1="3391.057292" y1="294.48736" x2="3594.46546" y2="294.48736" stroke="black" stroke-width="4.758"/>
<line x1="3594.46546" y1="294.48736" x2="3594.46546" y2="498.312347" stroke="black" stroke-width="4.758"/>
<line x1="3594.882283" y1="498.72917" x2="3391.057292" y2="294.48736" stroke="black" stroke-width="4.758"/>
<line x1="3594.46546" y1="294.904183" x2="3391.474115" y2="498.312347" stroke="black" stroke-width="4.758"/>
<line x1="2815.325991" y1="1450.582836" x2="2827.410136" y2="1479.051288" stroke="black" stroke-width="4.758"/>
<line x1="2827.410136" y1="1479.051288" x2="3020.557663" y2="1397.065027" stroke="black" stroke-width="4.758"/>
<line x1="3020.557663" y1="1397.065027" x2="3008.473518" y2="1368.596571" stroke="black" stroke-width="4.758"/>
<line x1="3008.473518" y1="1368.596571" x2="2815.325991" y2="1450.582836" stroke="black" stroke-width="4.758"/>
<line x1="2895.081331" y1="1638.474645" x2="2907.165476" y2="1666.943101" stroke="black" stroke-width="4.758"/>
<line x1="2907.165476" y1="1666.943101" x2="3100.313003" y2="1584.956841" stroke="black" stroke-width="4.758"/>
<line x1="3100.313003" y1="1584.956841" x2="3088.228862" y2="1556.488384" stroke="black" stroke-width="4.758"/>
<line x1="3088.228862" y1="1556.488384" x2="2895.081331" y2="1638.474645" stroke="black" stroke-width="4.758"/>
<line x1="2827.224226" y1="1478.613314" x2="2895.081331" y2="1638.474645" stroke="black" stroke-width="4.758"/>
<line x1="3019.30989" y1="1396.560895" x2="3053.809535" y2="1410.862524" stroke="black" stroke-width="4.758"/>
<line x1="3101.21656" y1="1522.546466" x2="3087.53882" y2="1557.298179" stroke="black" stroke-width="4.758"/>
<line x1="3053.065895" y1="1409.110615" x2="3101.9602" y2="1524.29837" stroke="black" stroke-width="4.758"/>
<line x1="2868.579898" y1="1461.57576" x2="2936.437012" y2="1621.437091" stroke="black" stroke-width="4.758"/>
<line x1="983.956195" y1="1974.352173" x2="1216.146619" y2="1974.352173" stroke="black" stroke-width="4.758"/>
<line x1="1216.146619" y1="1974.352173" x2="1216.146619" y2="2207.018396" stroke="black" stroke-width="4.758"/>
<line x1="1216.146619" y1="2207.018396" x2="983.956195" y2="2207.018396" stroke="black" stroke-width="4.758"/>
<line x1="983.956195" y1="2207.018396" x2="983.956195" y2="1974.352173" stroke="black" stroke-width="4.758"/>
<line x1="983.480395" y1="1973.876373" x2="1216.146619" y2="2207.018396" stroke="black" stroke-width="4.758"/>
<line x1="983.956195" y1="2206.542596" x2="1215.670819" y2="1974.352173" stroke="black" stroke-width="4.758"/>
<line x1="2953.203915" y1="1004.582722" x2="2795.20394" y2="1141.93001" stroke="black" stroke-width="4.758"/>
<line x1="2795.20394" y1="1141.93001" x2="2947.534563" y2="1317.166344" stroke="black" stroke-width="4.758"/>
<line x1="2947.534563" y1="1317.166344" x2="3105.534542" y2="1179.81906" stroke="black" stroke-width="4.758"/>
<line x1="3105.534542" y1="1179.81906" x2="2953.203915" y2="1004.582722" stroke="black" stroke-width="4.758"/>
<line x1="2974.430315" y1="1029.000904" x2="2816.43034" y2="1166.348183" stroke="black" stroke-width="4.758"/>
<line x1="676.607136" y1="1747.938186" x2="676.607136" y2="1557.618167" stroke="black" stroke-width="4.758"/>
<line x1="676.607136" y1="1557.618167" x2="212.22629" y2="1557.618167" stroke="black" stroke-width="4.758"/>
<line x1="212.22629" y1="1557.618167" x2="212.22629" y2="1747.938186" stroke="black" stroke-width="4.758"/>
<line x1="212.22629" y1="1747.938186" x2="236.016292" y2="1747.938186" stroke="black" stroke-width="4.758"/>
<line x1="236.016292" y1="1747.938186" x2="236.016292" y2="1580.45657" stroke="black" stroke-width="4.758"/>
<line x1="236.016292" y1="1580.45657" x2="651.865534" y2="1580.45657" stroke="black" stroke-width="4.758"/>
<line x1="651.865534" y1="1580.45657" x2="651.865534" y2="1747.938186" stroke="black" stroke-width="4.758"/>
<line x1="651.865534" y1="1747.938186" x2="676.607136" y2="1747.938186" stroke="black" stroke-width="4.758"/>
<line x1="651.865534" y1="1742.228586" x2="236.016292" y2="1742.228586" stroke="black" stroke-width="4.758"/>
<line x1="444.416713" y1="1743.180186" x2="444.416713" y2="1581.40817" stroke="black" stroke-width="4.758"/>
<line x1="1398.302522" y1="595.657208" x2="1588.622541" y2="595.657208" stroke="black" stroke-width="4.758"/>
<line x1="1588.622541" y1="595.657208" x2="1588.622541" y2="131.276361" stroke="black" stroke-width="4.758"/>
<line x1="1588.622541" y1="131.276361" x2="1398.302522" y2="131.276361" stroke="black" stroke-width="4.758"/>
<line x1="1398.302522" y1="131.276361" x2="1398.302522" y2="155.066364" stroke="black" stroke-width="4.758"/>
<line x1="1398.302522" y1="155.066364" x2="1565.784138" y2="155.066364" stroke="black" stroke-width="4.758"/>
<line x1="1565.784138" y1="155.066364" x2="1565.784138" y2="570.915606" stroke="black" stroke-width="4.758"/>
<line x1="1565.784138" y1="570.915606" x2="1398.302522" y2="570.915606" stroke="black" stroke-width="4.758"/>
<line x1="1398.302522" y1="570.915606" x2="1398.302522" y2="595.657208" stroke="black" stroke-width="4.758"/>
<line x1="1404.012122" y1="570.915606" x2="1404.012122" y2="155.066364" stroke="black" stroke-width="4.758"/>
<line x1="1403.060522" y1="363.466785" x2="1564.832538" y2="363.466785" stroke="black" stroke-width="4.758"/>
<line x1="373.832503" y1="1522.052933" x2="373.832503" y2="1161.21801" stroke="black" stroke-width="4.758005"/>
<line x1="373.832503" y1="1161.21801" x2="213.136786" y2="1161.21801" stroke="black" stroke-width="4.758005"/>
<line x1="213.136786" y1="1161.21801" x2="213.136786" y2="1522.052933" stroke="black" stroke-width="4.758005"/>
<line x1="213.136786" y1="1522.052933" x2="373.832503" y2="1522.052933" stroke="black" stroke-width="4.758005"/>
<line x1="237.971579" y1="1230.609341" x2="237.971579" y2="1492.835532" stroke="black" stroke-width="4.758005"/>
<line x1="237.971579" y1="1492.835532" x2="346.806404" y2="1492.835532" stroke="black" stroke-width="4.758005"/>
<line x1="346.806404" y1="1492.835532" x2="346.806404" y2="1225.496297" stroke="black" stroke-width="4.758005"/>
<path d="m 237.73601,1231.356907 a 58.434804782169536,58.434804782169536 0 0 1 110.09494500000002,-3.9600400000001628" fill="none" stroke="black" stroke-width="4.758005"/>
<line x1="619.394498" y1="130.465104" x2="839.753347" y2="130.465104" stroke="black" stroke-width="4.757996"/>
<line x1="839.753347" y1="130.465104" x2="839.753347" y2="351.27551" stroke="black" stroke-width="4.757996"/>
<line x1="839.753347" y1="351.27551" x2="619.394498" y2="351.27551" stroke="black" stroke-width="4.757996"/>
<line x1="619.394498" y1="351.27551" x2="619.394498" y2="130.465104" stroke="black" stroke-width="4.757996"/>
<line x1="618.942946" y1="130.013548" x2="839.753347" y2="351.27551" stroke="black" stroke-width="4.757996"/>
<line x1="619.394498" y1="350.823953" x2="839.301791" y2="130.465104" stroke="black" stroke-width="4.757996"/>
<line x1="606.252786" y1="579.958194" x2="637.062104" y2="582.653663" stroke="black" stroke-width="4.758"/>
<line x1="637.062104" y1="582.653663" x2="655.349804" y2="373.624296" stroke="black" stroke-width="4.758"/>
<line x1="655.349804" y1="373.624296" x2="624.540487" y2="370.928832" stroke="black" stroke-width="4.758"/>
<line x1="624.540487" y1="370.928832" x2="606.252786" y2="579.958194" stroke="black" stroke-width="4.758"/>
<line x1="809.594276" y1="597.74827" x2="840.403594" y2="600.443739" stroke="black" stroke-width="4.758"/>
<line x1="840.403594" y1="600.443739" x2="858.69129" y2="391.414372" stroke="black" stroke-width="4.758"/>
<line x1="858.69129" y1="391.414372" x2="827.881973" y2="388.718907" stroke="black" stroke-width="4.758"/>
<line x1="827.881973" y1="388.718907" x2="809.594276" y2="597.74827" stroke="black" stroke-width="4.758"/>
<line x1="636.58811" y1="582.612189" x2="809.594276" y2="597.74827" stroke="black" stroke-width="4.758"/>
<line x1="654.318887" y1="374.48934" x2="683.143074" y2="350.742164" stroke="black" stroke-width="4.758"/>
<line x1="804.010397" y1="361.316684" x2="828.273028" y2="389.708356" stroke="black" stroke-width="4.758"/>
<line x1="681.247116" y1="350.576291" x2="805.90635" y2="361.482562" stroke="black" stroke-width="4.758"/>
<line x1="640.960162" y1="538.09865" x2="813.966324" y2="553.234726" stroke="black" stroke-width="4.758"/>
<line x1="429.340922" y1="2298.092222" x2="210.279051" y2="2298.092222" stroke="black" stroke-width="4.758"/>
<line x1="210.279051" y1="2298.092222" x2="210.279051" y2="2644.646694" stroke="black" stroke-width="4.758"/>
<line x1="210.279051" y1="2644.646694" x2="429.340922" y2="2644.646694" stroke="black" stroke-width="4.758"/>
<line x1="429.340922" y1="2644.646694" x2="429.340922" y2="2298.092222" stroke="black" stroke-width="4.758"/>
<line x1="430.0453" y1="2582.66134" x2="209.574674" y2="2582.66134" stroke="black" stroke-width="4.758"/>
<line x1="209.574674" y1="2582.66134" x2="428.636544" y2="2530.537295" stroke="black" stroke-width="4.758"/>
<line x1="428.636544" y1="2530.537295" x2="395.53073" y2="2481.935144" stroke="black" stroke-width="4.758"/>
<line x1="395.53073" y1="2481.935144" x2="209.574674" y2="2583.365718" stroke="black" stroke-width="4.758"/>
<line x1="499.648746" y1="2506.215674" x2="568.20507" y2="2574.771994" stroke="black" stroke-width="4.758005"/>
<line x1="568.20507" y1="2574.771994" x2="499.508261" y2="2643.468802" stroke="black" stroke-width="4.758005"/>
<line x1="499.508261" y1="2643.468802" x2="430.951937" y2="2574.912478" stroke="black" stroke-width="4.758005"/>
<line x1="430.951937" y1="2574.912478" x2="499.648746" y2="2506.215674" stroke="black" stroke-width="4.758005"/>
<line x1="499.648746" y1="2505.934705" x2="499.508261" y2="2643.468802" stroke="black" stroke-width="4.758005"/>
<line x1="431.092422" y1="2574.771994" x2="568.064585" y2="2574.631509" stroke="black" stroke-width="4.758005"/>
<line x1="1217.492208" y1="2297.808777" x2="998.430337" y2="2297.808777" stroke="black" stroke-width="4.758"/>
<line x1="998.430337" y1="2297.808777" x2="998.430337" y2="2644.363249" stroke="black" stroke-width="4.758"/>
<line x1="998.430337" y1="2644.363249" x2="1217.492208" y2="2644.363249" stroke="black" stroke-width="4.758"/>
<line x1="1217.492208" y1="2644.363249" x2="1217.492208" y2="2297.808777" stroke="black" stroke-width="4.758"/>
<line x1="1218.196586" y1="2582.377895" x2="997.725959" y2="2582.377895" stroke="black" stroke-width="4.758"/>
<line x1="997.725959" y1="2582.377895" x2="1216.78783" y2="2530.25385" stroke="black" stroke-width="4.758"/>
<line x1="1216.78783" y1="2530.25385" x2="1183.682015" y2="2481.651699" stroke="black" stroke-width="4.758"/>
<line x1="1183.682015" y1="2481.651699" x2="997.725959" y2="2583.082273" stroke="black" stroke-width="4.758"/>
<line x1="996.281179" y1="2575.337976" x2="927.724859" y2="2643.8943" stroke="black" stroke-width="4.758005"/>
<line x1="927.724859" y1="2643.8943" x2="859.028051" y2="2575.197491" stroke="black" stroke-width="4.758005"/>
<line x1="859.028051" y1="2575.197491" x2="927.584375" y2="2506.641167" stroke="black" stroke-width="4.758005"/>
<line x1="927.584375" y1="2506.641167" x2="996.281179" y2="2575.337976" stroke="black" stroke-width="4.758005"/>
<line x1="996.562148" y1="2575.337976" x2="859.028051" y2="2575.197491" stroke="black" stroke-width="4.758005"/>
<line x1="927.724859" y1="2506.781652" x2="927.865344" y2="2643.753815" stroke="black" stroke-width="4.758005"/>
<line x1="1661.943566" y1="2607.239065" x2="1882.302415" y2="2607.239065" stroke="black" stroke-width="4.757996"/>
<line x1="1882.302415" y1="2607.239065" x2="1882.302415" y2="2828.04947" stroke="black" stroke-width="4.757996"/>
<line x1="1882.302415" y1="2828.04947" x2="1661.943566" y2="2828.04947" stroke="black" stroke-width="4.757996"/>
<line x1="1661.943566" y1="2828.04947" x2="1661.943566" y2="2607.239065" stroke="black" stroke-width="4.757996"/>
<line x1="1661.492014" y1="2606.787508" x2="1882.302415" y2="2828.04947" stroke="black" stroke-width="4.757996"/>
<line x1="1661.943566" y1="2827.597914" x2="1881.850859" y2="2607.239065" stroke="black" stroke-width="4.757996"/>
<line x1="1853.733627" y1="2326.138978" x2="1824.157984" y2="2335.181157" stroke="black" stroke-width="4.758"/>
<line x1="1824.157984" y1="2335.181157" x2="1885.505704" y2="2535.840501" stroke="black" stroke-width="4.758"/>
<line x1="1885.505704" y1="2535.840501" x2="1915.081347" y2="2526.798322" stroke="black" stroke-width="4.758"/>
<line x1="1915.081347" y1="2526.798322" x2="1853.733627" y2="2326.138978" stroke="black" stroke-width="4.758"/>
<line x1="1658.534401" y1="2385.817371" x2="1628.958759" y2="2394.859554" stroke="black" stroke-width="4.758"/>
<line x1="1628.958759" y1="2394.859554" x2="1690.306478" y2="2595.518894" stroke="black" stroke-width="4.758"/>
<line x1="1690.306478" y1="2595.518894" x2="1719.882121" y2="2586.476715" stroke="black" stroke-width="4.758"/>
<line x1="1719.882121" y1="2586.476715" x2="1658.534401" y2="2385.817371" stroke="black" stroke-width="4.758"/>
<line x1="1824.612999" y1="2335.042052" x2="1658.534401" y2="2385.817371" stroke="black" stroke-width="4.758"/>
<line x1="1886.137504" y1="2534.652265" x2="1868.30803" y2="2567.467992" stroke="black" stroke-width="4.758"/>
<line x1="1752.280514" y1="2602.941158" x2="1719.148887" y2="2585.705808" stroke="black" stroke-width="4.758"/>
<line x1="1870.128066" y1="2566.911552" x2="1750.460477" y2="2603.497602" stroke="black" stroke-width="4.758"/>
<line x1="1837.23437" y1="2377.952088" x2="1671.155778" y2="2428.727407" stroke="black" stroke-width="4.758"/>
<line x1="3434.14941" y1="2338.590075" x2="3603.656217" y2="2338.590075" stroke="black" stroke-width="4.758005"/>
<line x1="3603.656217" y1="2338.590075" x2="3603.656217" y2="2508.444229" stroke="black" stroke-width="4.758005"/>
<line x1="3603.656217" y1="2508.444229" x2="3434.14941" y2="2508.444229" stroke="black" stroke-width="4.758005"/>
<line x1="3434.14941" y1="2508.444229" x2="3434.14941" y2="2338.590075" stroke="black" stroke-width="4.758005"/>
<line x1="3433.802058" y1="2338.242723" x2="3603.656217" y2="2508.444229" stroke="black" stroke-width="4.758005"/>
<line x1="3434.14941" y1="2508.096882" x2="3603.308865" y2="2338.590075" stroke="black" stroke-width="4.758005"/>
<line x1="3266.406297" y1="2337.896583" x2="3435.913104" y2="2337.896583" stroke="black" stroke-width="4.758005"/>
<line x1="3435.913104" y1="2337.896583" x2="3435.913104" y2="2507.750737" stroke="black" stroke-width="4.758005"/>
<line x1="3435.913104" y1="2507.750737" x2="3266.406297" y2="2507.750737" stroke="black" stroke-width="4.758005"/>
<line x1="3266.406297" y1="2507.750737" x2="3266.406297" y2="2337.896583" stroke="black" stroke-width="4.758005"/>
<line x1="3266.058945" y1="2337.549231" x2="3435.913104" y2="2507.750737" stroke="black" stroke-width="4.758005"/>
<line x1="3266.406297" y1="2507.40339" x2="3435.565752" y2="2337.896583" stroke="black" stroke-width="4.758005"/>
<line x1="2976.846071" y1="2474.847604" x2="3146.352878" y2="2474.847604" stroke="black" stroke-width="4.758005"/>
<line x1="3146.352878" y1="2474.847604" x2="3146.352878" y2="2644.701759" stroke="black" stroke-width="4.758005"/>
<line x1="3146.352878" y1="2644.701759" x2="2976.846071" y2="2644.701759" stroke="black" stroke-width="4.758005"/>
<line x1="2976.846071" y1="2644.701759" x2="2976.846071" y2="2474.847604" stroke="black" stroke-width="4.758005"/>
<line x1="2976.498719" y1="2474.500253" x2="3146.352878" y2="2644.701759" stroke="black" stroke-width="4.758005"/>
<line x1="2976.846071" y1="2644.354411" x2="3146.005526" y2="2474.847604" stroke="black" stroke-width="4.758005"/>
</g>
</svg>
