<?xml version="1.0"?>
<svg xmlns:xlink="http://www.w3.org/1999/xlink" width="5498.133887999999" height="2960.5336319999997">
<image x="0" y="0" width="5498.133887999999" height="2960.5336319999997" xlink:href="ground16-07.png"/>
<g style="stroke-linecap:round">
<line x1="1294.244566" y1="1161.032193" x2="1316.799022" y2="1161.032193" stroke="black" stroke-width="4.758"/>
<line x1="1316.799022" y1="1161.032193" x2="1316.799022" y2="1117.023503" stroke="black" stroke-width="4.758"/>
<line x1="1316.799022" y1="1117.023503" x2="1294.244566" y2="1117.023503" stroke="black" stroke-width="4.758"/>
<line x1="1294.244566" y1="1117.023503" x2="1294.244566" y2="1161.032193" stroke="black" stroke-width="4.758"/>
<line x1="1537.39259" y1="1117.023503" x2="1537.39259" y2="897.530148" stroke="black" stroke-width="4.758"/>
<line x1="1537.942699" y1="1162.13241" x2="1560.497154" y2="1162.13241" stroke="black" stroke-width="4.758"/>
<line x1="1560.497154" y1="1162.13241" x2="1560.497154" y2="1118.12372" stroke="black" stroke-width="4.758"/>
<line x1="1560.497154" y1="1118.12372" x2="1537.942699" y2="1118.12372" stroke="black" stroke-width="4.758"/>
<line x1="1537.942699" y1="1118.12372" x2="1537.942699" y2="1162.13241" stroke="black" stroke-width="4.758"/>
<path d="m 1316.799022,1118.673829 a 220.59357050000006,220.59357050000006 0 0 1 220.593568,-220.5935730000001" fill="none" stroke="black" stroke-width="4.758"/>
<line x1="1546.852786" y1="1890.830668" x2="1524.29833" y2="1890.830668" stroke="black" stroke-width="4.758"/>
<line x1="1524.29833" y1="1890.830668" x2="1524.29833" y2="1934.839358" stroke="black" stroke-width="4.758"/>
<line x1="1524.29833" y1="1934.839358" x2="1546.852786" y2="1934.839358" stroke="black" stroke-width="4.758"/>
<line x1="1546.852786" y1="1934.839358" x2="1546.852786" y2="1890.830668" stroke="black" stroke-width="4.758"/>
<line x1="1303.704762" y1="1934.839358" x2="1303.704762" y2="2154.332713" stroke="black" stroke-width="4.758"/>
<line x1="1303.154654" y1="1889.730451" x2="1280.600198" y2="1889.730451" stroke="black" stroke-width="4.758"/>
<line x1="1280.600198" y1="1889.730451" x2="1280.600198" y2="1933.739141" stroke="black" stroke-width="4.758"/>
<line x1="1280.600198" y1="1933.739141" x2="1303.154654" y2="1933.739141" stroke="black" stroke-width="4.758"/>
<line x1="1303.154654" y1="1933.739141" x2="1303.154654" y2="1889.730451" stroke="black" stroke-width="4.758"/>
<path d="m 1524.29833,1933.189032 a 220.59357049999994,220.59357049999994 0 0 1 -220.593568,220.59357299999988" fill="none" stroke="black" stroke-width="4.758"/>
<line x1="4403.66499" y1="112.016592" x2="4618.148673" y2="112.016592" stroke="black" stroke-width="4.758"/>
<line x1="4618.148673" y1="112.016592" x2="4618.148673" y2="73.653658" stroke="black" stroke-width="4.758"/>
<line x1="4618.148673" y1="73.653658" x2="4403.66499" y2="73.653658" stroke="black" stroke-width="4.758"/>
<line x1="4403.66499" y1="73.653658" x2="4403.66499" y2="112.016592" stroke="black" stroke-width="4.758"/>
<line x1="4413.691665" y1="112.016592" x2="4413.691665" y2="125.094868" stroke="black" stroke-width="4.758"/>
<line x1="4413.691665" y1="125.094868" x2="4607.686055" y2="125.094868" stroke="black" stroke-width="4.758"/>
<line x1="4607.686055" y1="112.016592" x2="4607.686055" y2="125.094868" stroke="black" stroke-width="4.758"/>
<line x1="2442.739291" y1="114.132448" x2="2657.237786" y2="114.132448" stroke="black" stroke-width="4.758"/>
<line x1="2657.237786" y1="114.132448" x2="2657.237786" y2="81.065746" stroke="black" stroke-width="4.758"/>
<line x1="2657.237786" y1="81.065746" x2="2442.739291" y2="81.065746" stroke="black" stroke-width="4.758"/>
<line x1="2442.739291" y1="81.065746" x2="2442.739291" y2="114.132448" stroke="black" stroke-width="4.758"/>
<line x1="2462.753349" y1="81.500834" x2="2462.753349" y2="113.69736" stroke="black" stroke-width="4.758"/>
<line x1="2636.78864" y1="81.500834" x2="2636.78864" y2="115.002625" stroke="black" stroke-width="4.758"/>
<line x1="2462.31826" y1="96.728921" x2="2636.353552" y2="96.728921" stroke="black" stroke-width="4.758"/>
<line x1="1253.916155" y1="1507.813934" x2="1253.916155" y2="1485.259478" stroke="black" stroke-width="4.758"/>
<line x1="1253.916155" y1="1485.259478" x2="1209.907466" y2="1485.259478" stroke="black" stroke-width="4.758"/>
<line x1="1209.907466" y1="1485.259478" x2="1209.907466" y2="1507.813934" stroke="black" stroke-width="4.758"/>
<line x1="1209.907466" y1="1507.813934" x2="1253.916155" y2="1507.813934" stroke="black" stroke-width="4.758"/>
<line x1="1209.907466" y1="1264.66591" x2="990.414111" y2="1264.66591" stroke="black" stroke-width="4.758"/>
<line x1="1255.016372" y1="1264.115802" x2="1255.016372" y2="1241.561346" stroke="black" stroke-width="4.758"/>
<line x1="1255.016372" y1="1241.561346" x2="1211.007683" y2="1241.561346" stroke="black" stroke-width="4.758"/>
<line x1="1211.007683" y1="1241.561346" x2="1211.007683" y2="1264.115802" stroke="black" stroke-width="4.758"/>
<line x1="1211.007683" y1="1264.115802" x2="1255.016372" y2="1264.115802" stroke="black" stroke-width="4.758"/>
<path d="m 1211.557792,1485.259478 a 220.59357050000006,220.59357050000006 0 0 1 -220.5935730000001,-220.593568" fill="none" stroke="black" stroke-width="4.758"/>
<line x1="1253.394872" y1="1837.912218" x2="1253.394872" y2="1815.357762" stroke="black" stroke-width="4.758"/>
<line x1="1253.394872" y1="1815.357762" x2="1209.386183" y2="1815.357762" stroke="black" stroke-width="4.758"/>
<line x1="1209.386183" y1="1815.357762" x2="1209.386183" y2="1837.912218" stroke="black" stroke-width="4.758"/>
<line x1="1209.386183" y1="1837.912218" x2="1253.394872" y2="1837.912218" stroke="black" stroke-width="4.758"/>
<line x1="1209.386183" y1="1594.764194" x2="989.892827" y2="1594.764194" stroke="black" stroke-width="4.758"/>
<line x1="1254.495089" y1="1594.214086" x2="1254.495089" y2="1571.65963" stroke="black" stroke-width="4.758"/>
<line x1="1254.495089" y1="1571.65963" x2="1210.4864" y2="1571.65963" stroke="black" stroke-width="4.758"/>
<line x1="1210.4864" y1="1571.65963" x2="1210.4864" y2="1594.214086" stroke="black" stroke-width="4.758"/>
<line x1="1210.4864" y1="1594.214086" x2="1254.495089" y2="1594.214086" stroke="black" stroke-width="4.758"/>
<path d="m 1211.036509,1815.357762 a 220.5935705,220.5935705 0 0 1 -220.593573,-220.593568" fill="none" stroke="black" stroke-width="4.758"/>
<line x1="2469.579154" y1="1558.52728" x2="2492.277729" y2="1558.52728" stroke="black" stroke-width="4.758"/>
<line x1="2492.277729" y1="1558.52728" x2="2492.277729" y2="1514.237384" stroke="black" stroke-width="4.758"/>
<line x1="2492.277729" y1="1514.237384" x2="2469.579154" y2="1514.237384" stroke="black" stroke-width="4.758"/>
<line x1="2469.579154" y1="1514.237384" x2="2469.579154" y2="1558.52728" stroke="black" stroke-width="4.758"/>
<line x1="2714.280841" y1="1514.237384" x2="2714.280841" y2="1293.341516" stroke="black" stroke-width="4.758"/>
<line x1="2714.834465" y1="1559.634529" x2="2737.53304" y2="1559.634529" stroke="black" stroke-width="4.758"/>
<line x1="2737.53304" y1="1559.634529" x2="2737.53304" y2="1515.344628" stroke="black" stroke-width="4.758"/>
<line x1="2737.53304" y1="1515.344628" x2="2714.834465" y2="1515.344628" stroke="black" stroke-width="4.758"/>
<line x1="2714.834465" y1="1515.344628" x2="2714.834465" y2="1559.634529" stroke="black" stroke-width="4.758"/>
<path d="m 2492.277729,1515.898252 a 222.00311199999987,222.00311199999987 0 0 1 222.00311199999987,-222.00311199999987" fill="none" stroke="black" stroke-width="4.758"/>
<line x1="191.38945" y1="532.258913" x2="191.38945" y2="311.81735" stroke="black" stroke-width="4.758"/>
<line x1="191.38945" y1="311.81735" x2="151.960878" y2="311.81735" stroke="black" stroke-width="4.758"/>
<line x1="151.960878" y1="311.81735" x2="151.960878" y2="532.258913" stroke="black" stroke-width="4.758"/>
<line x1="151.960878" y1="532.258913" x2="191.38945" y2="532.258913" stroke="black" stroke-width="4.758"/>
<line x1="191.38945" y1="521.953719" x2="204.831009" y2="521.953719" stroke="black" stroke-width="4.758"/>
<line x1="204.831009" y1="521.953719" x2="204.831009" y2="322.570594" stroke="black" stroke-width="4.758"/>
<line x1="191.38945" y1="322.570594" x2="204.831009" y2="322.570594" stroke="black" stroke-width="4.758"/>
<line x1="193.040199" y1="2237.218729" x2="193.040199" y2="2016.777166" stroke="black" stroke-width="4.758"/>
<line x1="193.040199" y1="2016.777166" x2="153.611627" y2="2016.777166" stroke="black" stroke-width="4.758"/>
<line x1="153.611627" y1="2016.777166" x2="153.611627" y2="2237.218729" stroke="black" stroke-width="4.758"/>
<line x1="153.611627" y1="2237.218729" x2="193.040199" y2="2237.218729" stroke="black" stroke-width="4.758"/>
<line x1="193.040199" y1="2226.913535" x2="206.481757" y2="2226.913535" stroke="black" stroke-width="4.758"/>
<line x1="206.481757" y1="2226.913535" x2="206.481757" y2="2027.53041" stroke="black" stroke-width="4.758"/>
<line x1="193.040199" y1="2027.53041" x2="206.481757" y2="2027.53041" stroke="black" stroke-width="4.758"/>
<line x1="2630.64014" y1="2277.391122" x2="2605.995975" y2="2277.391122" stroke="black" stroke-width="4.758"/>
<line x1="2605.995975" y1="2277.391122" x2="2605.995975" y2="2325.477299" stroke="black" stroke-width="4.758"/>
<line x1="2605.995975" y1="2325.477299" x2="2630.64014" y2="2325.477299" stroke="black" stroke-width="4.758"/>
<line x1="2630.64014" y1="2325.477299" x2="2630.64014" y2="2277.391122" stroke="black" stroke-width="4.758"/>
<line x1="2364.964024" y1="2325.477299" x2="2364.964024" y2="2565.307097" stroke="black" stroke-width="4.758"/>
<line x1="2364.362948" y1="2276.188969" x2="2339.718783" y2="2276.188969" stroke="black" stroke-width="4.758"/>
<line x1="2339.718783" y1="2276.188969" x2="2339.718783" y2="2324.275141" stroke="black" stroke-width="4.758"/>
<line x1="2339.718783" y1="2324.275141" x2="2364.362948" y2="2324.275141" stroke="black" stroke-width="4.758"/>
<line x1="2364.362948" y1="2324.275141" x2="2364.362948" y2="2276.188969" stroke="black" stroke-width="4.758"/>
<path d="m 2605.995975,2323.674065 a 241.03195099999994,241.03195099999994 0 0 1 -241.03195099999994,241.03195099999994" fill="none" stroke="black" stroke-width="4.758"/>
<line x1="568.88256" y1="1213.185645" x2="374.921777" y2="1213.185645" stroke="black" stroke-width="4.757996"/>
<line x1="374.921777" y1="1213.185645" x2="374.921777" y2="1161.3513" stroke="black" stroke-width="4.757996"/>
<line x1="568.88256" y1="1161.3513" x2="374.921777" y2="1161.3513" stroke="black" stroke-width="4.757996"/>
<line x1="568.88256" y1="1213.185645" x2="568.88256" y2="1161.3513" stroke="black" stroke-width="4.757996"/>
<line x1="524.99057" y1="1242.446969" x2="524.99057" y2="1213.185645" stroke="black" stroke-width="4.757996"/>
<line x1="420.485839" y1="1213.185645" x2="420.485839" y2="1244.119045" stroke="black" stroke-width="4.757996"/>
<circle cx="473.574242" cy="1290.101128" r="70.2271798019802" fill="none" stroke="black" stroke-width="4.757996"/>
<circle cx="473.574242" cy="1290.101128" r="60.19472554455446" fill="none" stroke="black" stroke-width="4.757996"/>
<line x1="907.212269" y1="1292.854054" x2="636.323442" y2="1292.854054" stroke="black" stroke-width="4.758"/>
<line x1="636.323442" y1="1292.854054" x2="636.323442" y2="1160.740241" stroke="black" stroke-width="4.758"/>
<line x1="907.212269" y1="1160.740241" x2="636.323442" y2="1160.740241" stroke="black" stroke-width="4.758"/>
<line x1="907.212269" y1="1292.854054" x2="907.212269" y2="1160.740241" stroke="black" stroke-width="4.758"/>
<line x1="900.551068" y1="1286.192853" x2="762.331154" y2="1286.192853" stroke="black" stroke-width="4.758"/>
<line x1="762.331154" y1="1286.192853" x2="762.331154" y2="1167.956541" stroke="black" stroke-width="4.758"/>
<line x1="900.551068" y1="1167.956541" x2="762.331154" y2="1167.956541" stroke="black" stroke-width="4.758"/>
<line x1="900.551068" y1="1286.192853" x2="900.551068" y2="1167.956541" stroke="black" stroke-width="4.758"/>
<line x1="747.898553" y1="1278.421453" x2="650.756043" y2="1278.421453" stroke="black" stroke-width="4.758"/>
<line x1="747.898553" y1="1257.882751" x2="650.756043" y2="1257.882751" stroke="black" stroke-width="4.758"/>
<line x1="747.343453" y1="1236.788948" x2="650.200943" y2="1236.788948" stroke="black" stroke-width="4.758"/>
<line x1="747.343453" y1="1216.250246" x2="650.200943" y2="1216.250246" stroke="black" stroke-width="4.758"/>
<line x1="747.898553" y1="1195.711544" x2="650.756043" y2="1195.711544" stroke="black" stroke-width="4.758"/>
<line x1="747.898553" y1="1175.172842" x2="650.756043" y2="1175.172842" stroke="black" stroke-width="4.758"/>
<line x1="847.816563" y1="1167.956541" x2="847.816563" y2="1181.834043" stroke="black" stroke-width="4.758"/>
<line x1="847.816563" y1="1181.834043" x2="813.40036" y2="1181.834043" stroke="black" stroke-width="4.758"/>
<line x1="813.40036" y1="1181.834043" x2="813.40036" y2="1168.511641" stroke="black" stroke-width="4.758"/>
<circle cx="777.873956" cy="1271.205152" r="8.32650084" fill="none" stroke="black" stroke-width="4.758"/>
<line x1="1762.197068" y1="1315.274263" x2="1829.639143" y2="1453.551009" stroke="black" stroke-width="4.758"/>
<line x1="1829.639143" y1="1453.551009" x2="1691.079041" y2="1521.131286" stroke="black" stroke-width="4.758"/>
<line x1="1691.079041" y1="1521.131286" x2="1623.636966" y2="1382.854541" stroke="black" stroke-width="4.758"/>
<line x1="1623.636966" y1="1382.854541" x2="1762.197068" y2="1315.274263" stroke="black" stroke-width="4.758"/>
<line x1="1762.342218" y1="1314.852705" x2="1691.079041" y2="1521.131286" stroke="black" stroke-width="4.758"/>
<line x1="1623.920318" y1="1382.716338" x2="1829.500941" y2="1453.267657" stroke="black" stroke-width="4.758"/>
<line x1="1761.120993" y1="823.11335" x2="1761.120993" y2="1216.853781" stroke="black" stroke-width="4.758"/>
<line x1="1762.11853" y1="1220.814182" x2="1625.877936" y2="1220.814182" stroke="black" stroke-width="4.758"/>
<line x1="1624.72498" y1="823.578326" x2="1624.72498" y2="1221.119906" stroke="black" stroke-width="4.758"/>
<line x1="1760.425365" y1="824.314142" x2="1624.990507" y2="824.314142" stroke="black" stroke-width="4.758"/>
<line x1="1750.018992" y1="834.623143" x2="1750.018992" y2="958.331156" stroke="black" stroke-width="4.758"/>
<line x1="1750.018992" y1="958.331156" x2="1635.826981" y2="958.331156" stroke="black" stroke-width="4.758"/>
<line x1="1635.826981" y1="834.623143" x2="1635.826981" y2="958.331156" stroke="black" stroke-width="4.758"/>
<line x1="1750.018992" y1="834.623143" x2="1635.826981" y2="834.623143" stroke="black" stroke-width="4.758"/>
<line x1="1742.881992" y1="977.363157" x2="1742.881992" y2="1064.593166" stroke="black" stroke-width="4.758"/>
<line x1="1723.05699" y1="977.363157" x2="1723.05699" y2="1064.593166" stroke="black" stroke-width="4.758"/>
<line x1="1702.438987" y1="978.156158" x2="1702.438987" y2="1064.593166" stroke="black" stroke-width="4.758"/>
<line x1="1682.613985" y1="978.156158" x2="1682.613985" y2="1064.593166" stroke="black" stroke-width="4.758"/>
<line x1="1662.788983" y1="977.363157" x2="1662.788983" y2="1064.593166" stroke="black" stroke-width="4.758"/>
<line x1="1642.963981" y1="977.363157" x2="1642.963981" y2="1064.593166" stroke="black" stroke-width="4.758"/>
<line x1="1636.619981" y1="882.203148" x2="1650.100982" y2="882.203148" stroke="black" stroke-width="4.758"/>
<line x1="1650.100982" y1="882.203148" x2="1650.100982" y2="912.337151" stroke="black" stroke-width="4.758"/>
<line x1="1650.100982" y1="912.337151" x2="1637.412981" y2="912.337151" stroke="black" stroke-width="4.758"/>
<line x1="1750.018992" y1="1085.211168" x2="1750.018992" y2="1208.919181" stroke="black" stroke-width="4.758"/>
<line x1="1750.018992" y1="1208.919181" x2="1635.826981" y2="1208.919181" stroke="black" stroke-width="4.758"/>
<line x1="1635.826981" y1="1085.211168" x2="1635.826981" y2="1208.919181" stroke="black" stroke-width="4.758"/>
<line x1="1750.018992" y1="1085.211168" x2="1635.826981" y2="1085.211168" stroke="black" stroke-width="4.758"/>
<line x1="1635.826981" y1="1132.791173" x2="1649.307982" y2="1132.791173" stroke="black" stroke-width="4.758"/>
<line x1="1649.307982" y1="1132.791173" x2="1649.307982" y2="1162.925176" stroke="black" stroke-width="4.758"/>
<line x1="1649.307982" y1="1162.925176" x2="1636.619981" y2="1162.925176" stroke="black" stroke-width="4.758"/>
<circle cx="1735.744991" cy="944.057154" r="7.1370007200000005" fill="none" stroke="black" stroke-width="4.758"/>
<circle cx="1734.951991" cy="1194.645179" r="7.1370007200000005" fill="none" stroke="black" stroke-width="4.758"/>
<line x1="2412.621047" y1="414.943596" x2="2019.293007" y2="414.943596" stroke="black" stroke-width="4.758"/>
<line x1="2019.293007" y1="414.943596" x2="2019.293007" y2="599.712615" stroke="black" stroke-width="4.758"/>
<line x1="2019.293007" y1="599.712615" x2="2412.621047" y2="599.712615" stroke="black" stroke-width="4.758"/>
<line x1="2412.621047" y1="599.712615" x2="2412.621047" y2="414.943596" stroke="black" stroke-width="4.758"/>
<line x1="2253.228031" y1="599.712615" x2="2253.228031" y2="680.598623" stroke="black" stroke-width="4.758"/>
<line x1="2253.228031" y1="680.598623" x2="2331.735039" y2="680.598623" stroke="black" stroke-width="4.758"/>
<line x1="2331.735039" y1="680.598623" x2="2331.735039" y2="599.712615" stroke="black" stroke-width="4.758"/>
<line x1="2330.942039" y1="663.152621" x2="2253.228031" y2="663.152621" stroke="black" stroke-width="4.758"/>
<line x1="2331.735039" y1="333.264588" x2="2253.228031" y2="333.264588" stroke="black" stroke-width="4.758"/>
<line x1="2253.228031" y1="333.264588" x2="2253.228031" y2="414.943596" stroke="black" stroke-width="4.758"/>
<line x1="2331.735039" y1="414.943596" x2="2331.735039" y2="333.264588" stroke="black" stroke-width="4.758"/>
<line x1="2330.942039" y1="350.71059" x2="2253.228031" y2="350.71059" stroke="black" stroke-width="4.758"/>
<line x1="2101.765015" y1="599.712615" x2="2101.765015" y2="680.598623" stroke="black" stroke-width="4.758"/>
<line x1="2101.765015" y1="680.598623" x2="2180.272023" y2="680.598623" stroke="black" stroke-width="4.758"/>
<line x1="2180.272023" y1="680.598623" x2="2180.272023" y2="599.712615" stroke="black" stroke-width="4.758"/>
<line x1="2180.272023" y1="663.152621" x2="2101.765015" y2="663.152621" stroke="black" stroke-width="4.758"/>
<line x1="2180.272023" y1="333.264588" x2="2101.765015" y2="333.264588" stroke="black" stroke-width="4.758"/>
<line x1="2101.765015" y1="333.264588" x2="2101.765015" y2="414.943596" stroke="black" stroke-width="4.758"/>
<line x1="2180.272023" y1="414.943596" x2="2180.272023" y2="333.264588" stroke="black" stroke-width="4.758"/>
<line x1="2180.272023" y1="350.71059" x2="2101.765015" y2="350.71059" stroke="black" stroke-width="4.758"/>
<line x1="1878.886453" y1="2846.549827" x2="1664.387958" y2="2846.549827" stroke="black" stroke-width="4.758"/>
<line x1="1664.387958" y1="2846.549827" x2="1664.387958" y2="2879.616529" stroke="black" stroke-width="4.758"/>
<line x1="1664.387958" y1="2879.616529" x2="1878.886453" y2="2879.616529" stroke="black" stroke-width="4.758"/>
<line x1="1878.886453" y1="2879.616529" x2="1878.886453" y2="2846.549827" stroke="black" stroke-width="4.758"/>
<line x1="1858.872395" y1="2879.181441" x2="1858.872395" y2="2846.984915" stroke="black" stroke-width="4.758"/>
<line x1="1684.837104" y1="2879.181441" x2="1684.837104" y2="2845.67965" stroke="black" stroke-width="4.758"/>
<line x1="1859.307483" y1="2863.953355" x2="1685.272192" y2="2863.953355" stroke="black" stroke-width="4.758"/>
<line x1="3594.395341" y1="1100.36618" x2="3594.395341" y2="910.04616" stroke="black" stroke-width="4.758"/>
<line x1="3594.395341" y1="910.04616" x2="3130.014495" y2="910.04616" stroke="black" stroke-width="4.758"/>
<line x1="3130.014495" y1="910.04616" x2="3130.014495" y2="1100.36618" stroke="black" stroke-width="4.758"/>
<line x1="3130.014495" y1="1100.36618" x2="3153.804497" y2="1100.36618" stroke="black" stroke-width="4.758"/>
<line x1="3153.804497" y1="1100.36618" x2="3153.804497" y2="932.884563" stroke="black" stroke-width="4.758"/>
<line x1="3153.804497" y1="932.884563" x2="3569.653739" y2="932.884563" stroke="black" stroke-width="4.758"/>
<line x1="3569.653739" y1="932.884563" x2="3569.653739" y2="1100.36618" stroke="black" stroke-width="4.758"/>
<line x1="3569.653739" y1="1100.36618" x2="3594.395341" y2="1100.36618" stroke="black" stroke-width="4.758"/>
<line x1="3569.653739" y1="1094.656579" x2="3153.804497" y2="1094.656579" stroke="black" stroke-width="4.758"/>
<line x1="3362.204918" y1="1095.608179" x2="3362.204918" y2="933.836163" stroke="black" stroke-width="4.758"/>
<line x1="3242.118048" y1="1301.377435" x2="3432.995123" y2="1288.03001" stroke="black" stroke-width="4.757996"/>
<line x1="3432.995123" y1="1288.03001" x2="3446.369902" y2="1479.298232" stroke="black" stroke-width="4.757996"/>
<line x1="3446.369902" y1="1479.298232" x2="3255.492823" y2="1492.645657" stroke="black" stroke-width="4.757996"/>
<line x1="3255.492823" y1="1492.645657" x2="3242.118048" y2="1301.377435" stroke="black" stroke-width="4.757996"/>
<line x1="3241.699555" y1="1301.01365" x2="3446.369902" y2="1479.298232" stroke="black" stroke-width="4.757996"/>
<line x1="3255.465473" y1="1492.254515" x2="3432.60398" y2="1288.057364" stroke="black" stroke-width="4.757996"/>
<line x1="542.842817" y1="1124.194065" x2="542.842817" y2="914.564494" stroke="black" stroke-width="4.758"/>
<line x1="542.842817" y1="914.564494" x2="211.210183" y2="914.564494" stroke="black" stroke-width="4.758"/>
<line x1="211.210183" y1="914.564494" x2="211.210183" y2="1124.194065" stroke="black" stroke-width="4.758"/>
<line x1="211.210183" y1="1124.194065" x2="542.842817" y2="1124.194065" stroke="black" stroke-width="4.758"/>
<line x1="270.526589" y1="1124.868116" x2="270.526589" y2="913.89044" stroke="black" stroke-width="4.758"/>
<line x1="270.526589" y1="913.89044" x2="320.406294" y2="1123.520015" stroke="black" stroke-width="4.758"/>
<line x1="320.406294" y1="1123.520015" x2="366.915749" y2="1091.839662" stroke="black" stroke-width="4.758"/>
<line x1="366.915749" y1="1091.839662" x2="269.852539" y2="913.89044" stroke="black" stroke-width="4.758"/>
<line x1="676.607136" y1="1747.938186" x2="676.607136" y2="1557.618167" stroke="black" stroke-width="4.758"/>
<line x1="676.607136" y1="1557.618167" x2="212.22629" y2="1557.618167" stroke="black" stroke-width="4.758"/>
<line x1="212.22629" y1="1557.618167" x2="212.22629" y2="1747.938186" stroke="black" stroke-width="4.758"/>
<line x1="212.22629" y1="1747.938186" x2="236.016292" y2="1747.938186" stroke="black" stroke-width="4.758"/>
<line x1="236.016292" y1="1747.938186" x2="236.016292" y2="1580.45657" stroke="black" stroke-width="4.758"/>
<line x1="236.016292" y1="1580.45657" x2="651.865534" y2="1580.45657" stroke="black" stroke-width="4.758"/>
<line x1="651.865534" y1="1580.45657" x2="651.865534" y2="1747.938186" stroke="black" stroke-width="4.758"/>
<line x1="651.865534" y1="1747.938186" x2="676.607136" y2="1747.938186" stroke="black" stroke-width="4.758"/>
<line x1="651.865534" y1="1742.228586" x2="236.016292" y2="1742.228586" stroke="black" stroke-width="4.758"/>
<line x1="444.416713" y1="1743.180186" x2="444.416713" y2="1581.40817" stroke="black" stroke-width="4.758"/>
<line x1="1904.015986" y1="1927.394307" x2="1904.015986" y2="2137.023878" stroke="black" stroke-width="4.758"/>
<line x1="1904.015986" y1="2137.023878" x2="2235.64862" y2="2137.023878" stroke="black" stroke-width="4.758"/>
<line x1="2235.64862" y1="2137.023878" x2="2235.64862" y2="1927.394307" stroke="black" stroke-width="4.758"/>
<line x1="2235.64862" y1="1927.394307" x2="1904.015986" y2="1927.394307" stroke="black" stroke-width="4.758"/>
<line x1="2176.332214" y1="1926.720253" x2="2176.332214" y2="2137.697924" stroke="black" stroke-width="4.758"/>
<line x1="2176.332214" y1="2137.697924" x2="2126.452509" y2="1928.068357" stroke="black" stroke-width="4.758"/>
<line x1="2126.452509" y1="1928.068357" x2="2079.943054" y2="1959.748706" stroke="black" stroke-width="4.758"/>
<line x1="2079.943054" y1="1959.748706" x2="2177.006264" y2="2137.697924" stroke="black" stroke-width="4.758"/>
<line x1="983.956195" y1="1974.352173" x2="1216.146619" y2="1974.352173" stroke="black" stroke-width="4.758"/>
<line x1="1216.146619" y1="1974.352173" x2="1216.146619" y2="2207.018396" stroke="black" stroke-width="4.758"/>
<line x1="1216.146619" y1="2207.018396" x2="983.956195" y2="2207.018396" stroke="black" stroke-width="4.758"/>
<line x1="983.956195" y1="2207.018396" x2="983.956195" y2="1974.352173" stroke="black" stroke-width="4.758"/>
<line x1="983.480395" y1="1973.876373" x2="1216.146619" y2="2207.018396" stroke="black" stroke-width="4.758"/>
<line x1="983.956195" y1="2206.542596" x2="1215.670819" y2="1974.352173" stroke="black" stroke-width="4.758"/>
<line x1="2815.325991" y1="1489.552217" x2="2835.615933" y2="1512.893126" stroke="black" stroke-width="4.758"/>
<line x1="2835.615933" y1="1512.893126" x2="2993.975" y2="1375.233687" stroke="black" stroke-width="4.758"/>
<line x1="2993.975" y1="1375.233687" x2="2973.685058" y2="1351.892782" stroke="black" stroke-width="4.758"/>
<line x1="2973.685058" y1="1351.892782" x2="2815.325991" y2="1489.552217" stroke="black" stroke-width="4.758"/>
<line x1="2949.239593" y1="1643.602197" x2="2969.529535" y2="1666.943101" stroke="black" stroke-width="4.758"/>
<line x1="2969.529535" y1="1666.943101" x2="3127.888602" y2="1529.283662" stroke="black" stroke-width="4.758"/>
<line x1="3127.888602" y1="1529.283662" x2="3107.59866" y2="1505.942762" stroke="black" stroke-width="4.758"/>
<line x1="3107.59866" y1="1505.942762" x2="2949.239593" y2="1643.602197" stroke="black" stroke-width="4.758"/>
<line x1="2835.303782" y1="1512.534033" x2="2949.239593" y2="1643.602197" stroke="black" stroke-width="4.758"/>
<line x1="2992.632513" y1="1375.139813" x2="3029.863074" y2="1378.080491" stroke="black" stroke-width="4.758"/>
<line x1="3109.462069" y1="1469.648659" x2="3107.192635" y2="1506.926157" stroke="black" stroke-width="4.758"/>
<line x1="3028.61446" y1="1376.644125" x2="3110.710679" y2="1471.085025" stroke="black" stroke-width="4.758"/>
<line x1="2869.370475" y1="1483.550748" x2="2983.306286" y2="1614.618912" stroke="black" stroke-width="4.758"/>
<line x1="2961.406007" y1="1004.582718" x2="2939.537312" y2="1026.451409" stroke="black" stroke-width="4.758"/>
<line x1="2939.537312" y1="1026.451409" x2="3087.907988" y2="1174.822085" stroke="black" stroke-width="4.758"/>
<line x1="3087.907988" y1="1174.822085" x2="3109.776683" y2="1152.953394" stroke="black" stroke-width="4.758"/>
<line x1="3109.776683" y1="1152.953394" x2="2961.406007" y2="1004.582718" stroke="black" stroke-width="4.758"/>
<line x1="2817.072631" y1="1148.916094" x2="2795.203935" y2="1170.784789" stroke="black" stroke-width="4.758"/>
<line x1="2795.203935" y1="1170.784789" x2="2943.574612" y2="1319.155466" stroke="black" stroke-width="4.758"/>
<line x1="2943.574612" y1="1319.155466" x2="2965.443307" y2="1297.28677" stroke="black" stroke-width="4.758"/>
<line x1="2965.443307" y1="1297.28677" x2="2817.072631" y2="1148.916094" stroke="black" stroke-width="4.758"/>
<line x1="2939.873755" y1="1026.11497" x2="2817.072631" y2="1148.916094" stroke="black" stroke-width="4.758"/>
<line x1="3087.907988" y1="1173.476324" x2="3087.571544" y2="1210.821319" stroke="black" stroke-width="4.758"/>
<line x1="3001.77898" y1="1296.613888" x2="2964.433976" y2="1296.950327" stroke="black" stroke-width="4.758"/>
<line x1="3088.91731" y1="1209.475554" x2="3000.433211" y2="1297.959653" stroke="black" stroke-width="4.758"/>
<line x1="2971.162811" y1="1058.076908" x2="2848.361682" y2="1180.878033" stroke="black" stroke-width="4.758"/>
<line x1="1398.302522" y1="595.657208" x2="1588.622541" y2="595.657208" stroke="black" stroke-width="4.758"/>
<line x1="1588.622541" y1="595.657208" x2="1588.622541" y2="131.276361" stroke="black" stroke-width="4.758"/>
<line x1="1588.622541" y1="131.276361" x2="1398.302522" y2="131.276361" stroke="black" stroke-width="4.758"/>
<line x1="1398.302522" y1="131.276361" x2="1398.302522" y2="155.066364" stroke="black" stroke-width="4.758"/>
<line x1="1398.302522" y1="155.066364" x2="1565.784138" y2="155.066364" stroke="black" stroke-width="4.758"/>
<line x1="1565.784138" y1="155.066364" x2="1565.784138" y2="570.915606" stroke="black" stroke-width="4.758"/>
<line x1="1565.784138" y1="570.915606" x2="1398.302522" y2="570.915606" stroke="black" stroke-width="4.758"/>
<line x1="1398.302522" y1="570.915606" x2="1398.302522" y2="595.657208" stroke="black" stroke-width="4.758"/>
<line x1="1404.012122" y1="570.915606" x2="1404.012122" y2="155.066364" stroke="black" stroke-width="4.758"/>
<line x1="1403.060522" y1="363.466785" x2="1564.832538" y2="363.466785" stroke="black" stroke-width="4.758"/>
<line x1="777.483095" y1="904.061226" x2="997.841944" y2="904.061226" stroke="black" stroke-width="4.757996"/>
<line x1="997.841944" y1="904.061226" x2="997.841944" y2="1124.871631" stroke="black" stroke-width="4.757996"/>
<line x1="997.841944" y1="1124.871631" x2="777.483095" y2="1124.871631" stroke="black" stroke-width="4.757996"/>
<line x1="777.483095" y1="1124.871631" x2="777.483095" y2="904.061226" stroke="black" stroke-width="4.757996"/>
<line x1="777.031543" y1="903.60967" x2="997.841944" y2="1124.871631" stroke="black" stroke-width="4.757996"/>
<line x1="777.483095" y1="1124.420075" x2="997.390388" y2="904.061226" stroke="black" stroke-width="4.757996"/>
<line x1="3594.120232" y1="443.076525" x2="3390.712064" y2="443.076525" stroke="black" stroke-width="4.758"/>
<line x1="3390.712064" y1="443.076525" x2="3390.712064" y2="239.251538" stroke="black" stroke-width="4.758"/>
<line x1="3390.712064" y1="239.251538" x2="3594.120232" y2="239.251538" stroke="black" stroke-width="4.758"/>
<line x1="3594.120232" y1="239.251538" x2="3594.120232" y2="443.076525" stroke="black" stroke-width="4.758"/>
<line x1="3594.537055" y1="443.493348" x2="3390.712064" y2="239.251538" stroke="black" stroke-width="4.758"/>
<line x1="3594.120232" y1="239.668361" x2="3391.128887" y2="443.076525" stroke="black" stroke-width="4.758"/>
<line x1="373.832503" y1="1522.052933" x2="373.832503" y2="1161.21801" stroke="black" stroke-width="4.758005"/>
<line x1="373.832503" y1="1161.21801" x2="213.136786" y2="1161.21801" stroke="black" stroke-width="4.758005"/>
<line x1="213.136786" y1="1161.21801" x2="213.136786" y2="1522.052933" stroke="black" stroke-width="4.758005"/>
<line x1="213.136786" y1="1522.052933" x2="373.832503" y2="1522.052933" stroke="black" stroke-width="4.758005"/>
<line x1="237.971579" y1="1230.609341" x2="237.971579" y2="1492.835532" stroke="black" stroke-width="4.758005"/>
<line x1="237.971579" y1="1492.835532" x2="346.806404" y2="1492.835532" stroke="black" stroke-width="4.758005"/>
<line x1="346.806404" y1="1492.835532" x2="346.806404" y2="1225.496297" stroke="black" stroke-width="4.758005"/>
<path d="m 237.73601,1231.356907 a 58.434804782169536,58.434804782169536 0 0 1 110.09494500000002,-3.9600400000001628" fill="none" stroke="black" stroke-width="4.758005"/>
<line x1="619.394498" y1="130.465104" x2="839.753347" y2="130.465104" stroke="black" stroke-width="4.757996"/>
<line x1="839.753347" y1="130.465104" x2="839.753347" y2="351.27551" stroke="black" stroke-width="4.757996"/>
<line x1="839.753347" y1="351.27551" x2="619.394498" y2="351.27551" stroke="black" stroke-width="4.757996"/>
<line x1="619.394498" y1="351.27551" x2="619.394498" y2="130.465104" stroke="black" stroke-width="4.757996"/>
<line x1="618.942946" y1="130.013548" x2="839.753347" y2="351.27551" stroke="black" stroke-width="4.757996"/>
<line x1="619.394498" y1="350.823953" x2="839.301791" y2="130.465104" stroke="black" stroke-width="4.757996"/>
<line x1="650.590099" y1="627.934915" x2="680.165742" y2="618.892736" stroke="black" stroke-width="4.758"/>
<line x1="680.165742" y1="618.892736" x2="618.818022" y2="418.233388" stroke="black" stroke-width="4.758"/>
<line x1="618.818022" y1="418.233388" x2="589.242379" y2="427.275571" stroke="black" stroke-width="4.758"/>
<line x1="589.242379" y1="427.275571" x2="650.590099" y2="627.934915" stroke="black" stroke-width="4.758"/>
<line x1="845.789324" y1="568.256522" x2="875.364967" y2="559.214339" stroke="black" stroke-width="4.758"/>
<line x1="875.364967" y1="559.214339" x2="814.017247" y2="358.554999" stroke="black" stroke-width="4.758"/>
<line x1="814.017247" y1="358.554999" x2="784.441605" y2="367.597178" stroke="black" stroke-width="4.758"/>
<line x1="784.441605" y1="367.597178" x2="845.789324" y2="568.256522" stroke="black" stroke-width="4.758"/>
<line x1="679.710727" y1="619.031841" x2="845.789324" y2="568.256522" stroke="black" stroke-width="4.758"/>
<line x1="618.186221" y1="419.421628" x2="636.0157" y2="386.605901" stroke="black" stroke-width="4.758"/>
<line x1="752.043212" y1="351.132735" x2="785.174839" y2="368.368085" stroke="black" stroke-width="4.758"/>
<line x1="634.195659" y1="387.162341" x2="753.863248" y2="350.576286" stroke="black" stroke-width="4.758"/>
<line x1="667.089356" y1="576.121805" x2="833.167948" y2="525.346486" stroke="black" stroke-width="4.758"/>
<line x1="429.340922" y1="2298.092222" x2="210.279051" y2="2298.092222" stroke="black" stroke-width="4.758"/>
<line x1="210.279051" y1="2298.092222" x2="210.279051" y2="2644.646694" stroke="black" stroke-width="4.758"/>
<line x1="210.279051" y1="2644.646694" x2="429.340922" y2="2644.646694" stroke="black" stroke-width="4.758"/>
<line x1="429.340922" y1="2644.646694" x2="429.340922" y2="2298.092222" stroke="black" stroke-width="4.758"/>
<line x1="430.0453" y1="2582.66134" x2="209.574674" y2="2582.66134" stroke="black" stroke-width="4.758"/>
<line x1="209.574674" y1="2582.66134" x2="428.636544" y2="2530.537295" stroke="black" stroke-width="4.758"/>
<line x1="428.636544" y1="2530.537295" x2="395.53073" y2="2481.935144" stroke="black" stroke-width="4.758"/>
<line x1="395.53073" y1="2481.935144" x2="209.574674" y2="2583.365718" stroke="black" stroke-width="4.758"/>
<line x1="568.205061" y1="2574.912474" x2="499.648741" y2="2643.468798" stroke="black" stroke-width="4.758005"/>
<line x1="499.648741" y1="2643.468798" x2="430.951933" y2="2574.771989" stroke="black" stroke-width="4.758005"/>
<line x1="430.951933" y1="2574.771989" x2="499.508257" y2="2506.215665" stroke="black" stroke-width="4.758005"/>
<line x1="499.508257" y1="2506.215665" x2="568.205061" y2="2574.912474" stroke="black" stroke-width="4.758005"/>
<line x1="568.48603" y1="2574.912474" x2="430.951933" y2="2574.771989" stroke="black" stroke-width="4.758005"/>
<line x1="499.648741" y1="2506.35615" x2="499.789226" y2="2643.328313" stroke="black" stroke-width="4.758005"/>
<line x1="1217.492208" y1="2297.808777" x2="998.430337" y2="2297.808777" stroke="black" stroke-width="4.758"/>
<line x1="998.430337" y1="2297.808777" x2="998.430337" y2="2644.363249" stroke="black" stroke-width="4.758"/>
<line x1="998.430337" y1="2644.363249" x2="1217.492208" y2="2644.363249" stroke="black" stroke-width="4.758"/>
<line x1="1217.492208" y1="2644.363249" x2="1217.492208" y2="2297.808777" stroke="black" stroke-width="4.758"/>
<line x1="1218.196586" y1="2582.377895" x2="997.725959" y2="2582.377895" stroke="black" stroke-width="4.758"/>
<line x1="997.725959" y1="2582.377895" x2="1216.78783" y2="2530.25385" stroke="black" stroke-width="4.758"/>
<line x1="1216.78783" y1="2530.25385" x2="1183.682015" y2="2481.651699" stroke="black" stroke-width="4.758"/>
<line x1="1183.682015" y1="2481.651699" x2="997.725959" y2="2583.082273" stroke="black" stroke-width="4.758"/>
<line x1="928.005828" y1="2506.641176" x2="996.562152" y2="2575.197496" stroke="black" stroke-width="4.758005"/>
<line x1="996.562152" y1="2575.197496" x2="927.865344" y2="2643.894304" stroke="black" stroke-width="4.758005"/>
<line x1="927.865344" y1="2643.894304" x2="859.30902" y2="2575.33798" stroke="black" stroke-width="4.758005"/>
<line x1="859.30902" y1="2575.33798" x2="928.005828" y2="2506.641176" stroke="black" stroke-width="4.758005"/>
<line x1="928.005828" y1="2506.360207" x2="927.865344" y2="2643.894304" stroke="black" stroke-width="4.758005"/>
<line x1="859.449504" y1="2575.197496" x2="996.421668" y2="2575.057011" stroke="black" stroke-width="4.758005"/>
<line x1="1661.943566" y1="2607.239065" x2="1882.302415" y2="2607.239065" stroke="black" stroke-width="4.757996"/>
<line x1="1882.302415" y1="2607.239065" x2="1882.302415" y2="2828.04947" stroke="black" stroke-width="4.757996"/>
<line x1="1882.302415" y1="2828.04947" x2="1661.943566" y2="2828.04947" stroke="black" stroke-width="4.757996"/>
<line x1="1661.943566" y1="2828.04947" x2="1661.943566" y2="2607.239065" stroke="black" stroke-width="4.757996"/>
<line x1="1661.492014" y1="2606.787508" x2="1882.302415" y2="2828.04947" stroke="black" stroke-width="4.757996"/>
<line x1="1661.943566" y1="2827.597914" x2="1881.850859" y2="2607.239065" stroke="black" stroke-width="4.757996"/>
<line x1="1894.872374" y1="2371.638173" x2="1863.987752" y2="2370.019576" stroke="black" stroke-width="4.758"/>
<line x1="1863.987752" y1="2370.019576" x2="1853.006212" y2="2579.559833" stroke="black" stroke-width="4.758"/>
<line x1="1853.006212" y1="2579.559833" x2="1883.890834" y2="2581.17843" stroke="black" stroke-width="4.758"/>
<line x1="1883.890834" y1="2581.17843" x2="1894.872374" y2="2371.638173" stroke="black" stroke-width="4.758"/>
<line x1="1691.033888" y1="2360.955448" x2="1660.149271" y2="2359.336851" stroke="black" stroke-width="4.758"/>
<line x1="1660.149271" y1="2359.336851" x2="1649.167731" y2="2568.877113" stroke="black" stroke-width="4.758"/>
<line x1="1649.167731" y1="2568.877113" x2="1680.052348" y2="2570.49571" stroke="black" stroke-width="4.758"/>
<line x1="1680.052348" y1="2570.49571" x2="1691.033888" y2="2360.955448" stroke="black" stroke-width="4.758"/>
<line x1="1864.462905" y1="2370.04448" x2="1691.033888" y2="2360.955448" stroke="black" stroke-width="4.758"/>
<line x1="1854.006313" y1="2578.659342" x2="1826.028446" y2="2603.398001" stroke="black" stroke-width="4.758"/>
<line x1="1704.865713" y1="2597.048133" x2="1679.627001" y2="2569.520509" stroke="black" stroke-width="4.758"/>
<line x1="1827.929039" y1="2603.497602" x2="1702.965117" y2="2596.948527" stroke="black" stroke-width="4.758"/>
<line x1="1861.647019" y1="2414.68349" x2="1688.218002" y2="2405.594458" stroke="black" stroke-width="4.758"/>
<line x1="3266.406297" y1="2337.896583" x2="3435.913104" y2="2337.896583" stroke="black" stroke-width="4.758005"/>
<line x1="3435.913104" y1="2337.896583" x2="3435.913104" y2="2507.750737" stroke="black" stroke-width="4.758005"/>
<line x1="3435.913104" y1="2507.750737" x2="3266.406297" y2="2507.750737" stroke="black" stroke-width="4.758005"/>
<line x1="3266.406297" y1="2507.750737" x2="3266.406297" y2="2337.896583" stroke="black" stroke-width="4.758005"/>
<line x1="3266.058945" y1="2337.549231" x2="3435.913104" y2="2507.750737" stroke="black" stroke-width="4.758005"/>
<line x1="3266.406297" y1="2507.40339" x2="3435.565752" y2="2337.896583" stroke="black" stroke-width="4.758005"/>
<line x1="2976.846071" y1="2474.847604" x2="3146.352878" y2="2474.847604" stroke="black" stroke-width="4.758005"/>
<line x1="3146.352878" y1="2474.847604" x2="3146.352878" y2="2644.701759" stroke="black" stroke-width="4.758005"/>
<line x1="3146.352878" y1="2644.701759" x2="2976.846071" y2="2644.701759" stroke="black" stroke-width="4.758005"/>
<line x1="2976.846071" y1="2644.701759" x2="2976.846071" y2="2474.847604" stroke="black" stroke-width="4.758005"/>
<line x1="2976.498719" y1="2474.500253" x2="3146.352878" y2="2644.701759" stroke="black" stroke-width="4.758005"/>
<line x1="2976.846071" y1="2644.354411" x2="3146.005526" y2="2474.847604" stroke="black" stroke-width="4.758005"/>
<line x1="2808.66057" y1="2475.357719" x2="2978.167377" y2="2475.357719" stroke="black" stroke-width="4.758005"/>
<line x1="2978.167377" y1="2475.357719" x2="2978.167377" y2="2645.211874" stroke="black" stroke-width="4.758005"/>
<line x1="2978.167377" y1="2645.211874" x2="2808.66057" y2="2645.211874" stroke="black" stroke-width="4.758005"/>
<line x1="2808.66057" y1="2645.211874" x2="2808.66057" y2="2475.357719" stroke="black" stroke-width="4.758005"/>
<line x1="2808.313218" y1="2475.010368" x2="2978.167377" y2="2645.211874" stroke="black" stroke-width="4.758005"/>
<line x1="2808.66057" y1="2644.864526" x2="2977.820025" y2="2475.357719" stroke="black" stroke-width="4.758005"/>
</g>
</svg>
