<?xml version="1.0"?>
<svg xmlns:xlink="http://www.w3.org/1999/xlink" width="5498.133887999999" height="2960.5336319999997">
<image x="0" y="0" width="5498.133887999999" height="2960.5336319999997" xlink:href="ground16-07.png"/>
<g style="stroke-linecap:round">
<line x1="1294.244566" y1="1161.032193" x2="1316.799022" y2="1161.032193" stroke="black" stroke-width="4.758"/>
<line x1="1316.799022" y1="1161.032193" x2="1316.799022" y2="1117.023503" stroke="black" stroke-width="4.758"/>
<line x1="1316.799022" y1="1117.023503" x2="1294.244566" y2="1117.023503" stroke="black" stroke-width="4.758"/>
<line x1="1294.244566" y1="1117.023503" x2="1294.244566" y2="1161.032193" stroke="black" stroke-width="4.758"/>
<line x1="1537.39259" y1="1117.023503" x2="1537.39259" y2="897.530148" stroke="black" stroke-width="4.758"/>
<line x1="1537.942699" y1="1162.13241" x2="1560.497154" y2="1162.13241" stroke="black" stroke-width="4.758"/>
<line x1="1560.497154" y1="1162.13241" x2="1560.497154" y2="1118.12372" stroke="black" stroke-width="4.758"/>
<line x1="1560.497154" y1="1118.12372" x2="1537.942699" y2="1118.12372" stroke="black" stroke-width="4.758"/>
<line x1="1537.942699" y1="1118.12372" x2="1537.942699" y2="1162.13241" stroke="black" stroke-width="4.758"/>
<path d="m 1316.799022,1118.673829 a 220.59357050000006,220.59357050000006 0 0 1 220.593568,-220.5935730000001" fill="none" stroke="black" stroke-width="4.758"/>
<line x1="1546.852786" y1="1890.830668" x2="1524.29833" y2="1890.830668" stroke="black" stroke-width="4.758"/>
<line x1="1524.29833" y1="1890.830668" x2="1524.29833" y2="1934.839358" stroke="black" stroke-width="4.758"/>
<line x1="1524.29833" y1="1934.839358" x2="1546.852786" y2="1934.839358" stroke="black" stroke-width="4.758"/>
<line x1="1546.852786" y1="1934.839358" x2="1546.852786" y2="1890.830668" stroke="black" stroke-width="4.758"/>
<line x1="1303.704762" y1="1934.839358" x2="1303.704762" y2="2154.332713" stroke="black" stroke-width="4.758"/>
<line x1="1303.154654" y1="1889.730451" x2="1280.600198" y2="1889.730451" stroke="black" stroke-width="4.758"/>
<line x1="1280.600198" y1="1889.730451" x2="1280.600198" y2="1933.739141" stroke="black" stroke-width="4.758"/>
<line x1="1280.600198" y1="1933.739141" x2="1303.154654" y2="1933.739141" stroke="black" stroke-width="4.758"/>
<line x1="1303.154654" y1="1933.739141" x2="1303.154654" y2="1889.730451" stroke="black" stroke-width="4.758"/>
<path d="m 1524.29833,1933.189032 a 220.59357049999994,220.59357049999994 0 0 1 -220.593568,220.59357299999988" fill="none" stroke="black" stroke-width="4.758"/>
<line x1="4403.66499" y1="112.016592" x2="4618.148673" y2="112.016592" stroke="black" stroke-width="4.758"/>
<line x1="4618.148673" y1="112.016592" x2="4618.148673" y2="73.653658" stroke="black" stroke-width="4.758"/>
<line x1="4618.148673" y1="73.653658" x2="4403.66499" y2="73.653658" stroke="black" stroke-width="4.758"/>
<line x1="4403.66499" y1="73.653658" x2="4403.66499" y2="112.016592" stroke="black" stroke-width="4.758"/>
<line x1="4413.691665" y1="112.016592" x2="4413.691665" y2="125.094868" stroke="black" stroke-width="4.758"/>
<line x1="4413.691665" y1="125.094868" x2="4607.686055" y2="125.094868" stroke="black" stroke-width="4.758"/>
<line x1="4607.686055" y1="112.016592" x2="4607.686055" y2="125.094868" stroke="black" stroke-width="4.758"/>
<line x1="2442.739291" y1="114.132448" x2="2657.237786" y2="114.132448" stroke="black" stroke-width="4.758"/>
<line x1="2657.237786" y1="114.132448" x2="2657.237786" y2="81.065746" stroke="black" stroke-width="4.758"/>
<line x1="2657.237786" y1="81.065746" x2="2442.739291" y2="81.065746" stroke="black" stroke-width="4.758"/>
<line x1="2442.739291" y1="81.065746" x2="2442.739291" y2="114.132448" stroke="black" stroke-width="4.758"/>
<line x1="2462.753349" y1="81.500834" x2="2462.753349" y2="113.69736" stroke="black" stroke-width="4.758"/>
<line x1="2636.78864" y1="81.500834" x2="2636.78864" y2="115.002625" stroke="black" stroke-width="4.758"/>
<line x1="2462.31826" y1="96.728921" x2="2636.353552" y2="96.728921" stroke="black" stroke-width="4.758"/>
<line x1="1253.916155" y1="1507.813934" x2="1253.916155" y2="1485.259478" stroke="black" stroke-width="4.758"/>
<line x1="1253.916155" y1="1485.259478" x2="1209.907466" y2="1485.259478" stroke="black" stroke-width="4.758"/>
<line x1="1209.907466" y1="1485.259478" x2="1209.907466" y2="1507.813934" stroke="black" stroke-width="4.758"/>
<line x1="1209.907466" y1="1507.813934" x2="1253.916155" y2="1507.813934" stroke="black" stroke-width="4.758"/>
<line x1="1209.907466" y1="1264.66591" x2="990.414111" y2="1264.66591" stroke="black" stroke-width="4.758"/>
<line x1="1255.016372" y1="1264.115802" x2="1255.016372" y2="1241.561346" stroke="black" stroke-width="4.758"/>
<line x1="1255.016372" y1="1241.561346" x2="1211.007683" y2="1241.561346" stroke="black" stroke-width="4.758"/>
<line x1="1211.007683" y1="1241.561346" x2="1211.007683" y2="1264.115802" stroke="black" stroke-width="4.758"/>
<line x1="1211.007683" y1="1264.115802" x2="1255.016372" y2="1264.115802" stroke="black" stroke-width="4.758"/>
<path d="m 1211.557792,1485.259478 a 220.59357050000006,220.59357050000006 0 0 1 -220.5935730000001,-220.593568" fill="none" stroke="black" stroke-width="4.758"/>
<line x1="1253.394872" y1="1837.912218" x2="1253.394872" y2="1815.357762" stroke="black" stroke-width="4.758"/>
<line x1="1253.394872" y1="1815.357762" x2="1209.386183" y2="1815.357762" stroke="black" stroke-width="4.758"/>
<line x1="1209.386183" y1="1815.357762" x2="1209.386183" y2="1837.912218" stroke="black" stroke-width="4.758"/>
<line x1="1209.386183" y1="1837.912218" x2="1253.394872" y2="1837.912218" stroke="black" stroke-width="4.758"/>
<line x1="1209.386183" y1="1594.764194" x2="989.892827" y2="1594.764194" stroke="black" stroke-width="4.758"/>
<line x1="1254.495089" y1="1594.214086" x2="1254.495089" y2="1571.65963" stroke="black" stroke-width="4.758"/>
<line x1="1254.495089" y1="1571.65963" x2="1210.4864" y2="1571.65963" stroke="black" stroke-width="4.758"/>
<line x1="1210.4864" y1="1571.65963" x2="1210.4864" y2="1594.214086" stroke="black" stroke-width="4.758"/>
<line x1="1210.4864" y1="1594.214086" x2="1254.495089" y2="1594.214086" stroke="black" stroke-width="4.758"/>
<path d="m 1211.036509,1815.357762 a 220.5935705,220.5935705 0 0 1 -220.593573,-220.593568" fill="none" stroke="black" stroke-width="4.758"/>
<line x1="2469.579154" y1="1558.52728" x2="2492.277729" y2="1558.52728" stroke="black" stroke-width="4.758"/>
<line x1="2492.277729" y1="1558.52728" x2="2492.277729" y2="1514.237384" stroke="black" stroke-width="4.758"/>
<line x1="2492.277729" y1="1514.237384" x2="2469.579154" y2="1514.237384" stroke="black" stroke-width="4.758"/>
<line x1="2469.579154" y1="1514.237384" x2="2469.579154" y2="1558.52728" stroke="black" stroke-width="4.758"/>
<line x1="2714.280841" y1="1514.237384" x2="2714.280841" y2="1293.341516" stroke="black" stroke-width="4.758"/>
<line x1="2714.834465" y1="1559.634529" x2="2737.53304" y2="1559.634529" stroke="black" stroke-width="4.758"/>
<line x1="2737.53304" y1="1559.634529" x2="2737.53304" y2="1515.344628" stroke="black" stroke-width="4.758"/>
<line x1="2737.53304" y1="1515.344628" x2="2714.834465" y2="1515.344628" stroke="black" stroke-width="4.758"/>
<line x1="2714.834465" y1="1515.344628" x2="2714.834465" y2="1559.634529" stroke="black" stroke-width="4.758"/>
<path d="m 2492.277729,1515.898252 a 222.00311199999987,222.00311199999987 0 0 1 222.00311199999987,-222.00311199999987" fill="none" stroke="black" stroke-width="4.758"/>
<line x1="191.38945" y1="532.258913" x2="191.38945" y2="311.81735" stroke="black" stroke-width="4.758"/>
<line x1="191.38945" y1="311.81735" x2="151.960878" y2="311.81735" stroke="black" stroke-width="4.758"/>
<line x1="151.960878" y1="311.81735" x2="151.960878" y2="532.258913" stroke="black" stroke-width="4.758"/>
<line x1="151.960878" y1="532.258913" x2="191.38945" y2="532.258913" stroke="black" stroke-width="4.758"/>
<line x1="191.38945" y1="521.953719" x2="204.831009" y2="521.953719" stroke="black" stroke-width="4.758"/>
<line x1="204.831009" y1="521.953719" x2="204.831009" y2="322.570594" stroke="black" stroke-width="4.758"/>
<line x1="191.38945" y1="322.570594" x2="204.831009" y2="322.570594" stroke="black" stroke-width="4.758"/>
<line x1="196.592134" y1="2237.226342" x2="196.592134" y2="2016.769557" stroke="black" stroke-width="4.758005"/>
<line x1="196.592134" y1="2016.769557" x2="162.606909" y2="2016.769557" stroke="black" stroke-width="4.758005"/>
<line x1="162.606909" y1="2016.769557" x2="162.606909" y2="2237.226342" stroke="black" stroke-width="4.758005"/>
<line x1="162.606909" y1="2237.226342" x2="196.592134" y2="2237.226342" stroke="black" stroke-width="4.758005"/>
<line x1="163.054082" y1="2216.656338" x2="196.144957" y2="2216.656338" stroke="black" stroke-width="4.758005"/>
<line x1="163.054082" y1="2037.786734" x2="197.48648" y2="2037.786734" stroke="black" stroke-width="4.758005"/>
<line x1="178.705172" y1="2217.103511" x2="178.705172" y2="2038.233911" stroke="black" stroke-width="4.758005"/>
<line x1="2630.64014" y1="2277.391122" x2="2605.995975" y2="2277.391122" stroke="black" stroke-width="4.758"/>
<line x1="2605.995975" y1="2277.391122" x2="2605.995975" y2="2325.477299" stroke="black" stroke-width="4.758"/>
<line x1="2605.995975" y1="2325.477299" x2="2630.64014" y2="2325.477299" stroke="black" stroke-width="4.758"/>
<line x1="2630.64014" y1="2325.477299" x2="2630.64014" y2="2277.391122" stroke="black" stroke-width="4.758"/>
<line x1="2364.964024" y1="2325.477299" x2="2364.964024" y2="2565.307097" stroke="black" stroke-width="4.758"/>
<line x1="2364.362948" y1="2276.188969" x2="2339.718783" y2="2276.188969" stroke="black" stroke-width="4.758"/>
<line x1="2339.718783" y1="2276.188969" x2="2339.718783" y2="2324.275141" stroke="black" stroke-width="4.758"/>
<line x1="2339.718783" y1="2324.275141" x2="2364.362948" y2="2324.275141" stroke="black" stroke-width="4.758"/>
<line x1="2364.362948" y1="2324.275141" x2="2364.362948" y2="2276.188969" stroke="black" stroke-width="4.758"/>
<path d="m 2605.995975,2323.674065 a 241.03195099999994,241.03195099999994 0 0 1 -241.03195099999994,241.03195099999994" fill="none" stroke="black" stroke-width="4.758"/>
<line x1="568.88256" y1="1213.185645" x2="374.921777" y2="1213.185645" stroke="black" stroke-width="4.757996"/>
<line x1="374.921777" y1="1213.185645" x2="374.921777" y2="1161.3513" stroke="black" stroke-width="4.757996"/>
<line x1="568.88256" y1="1161.3513" x2="374.921777" y2="1161.3513" stroke="black" stroke-width="4.757996"/>
<line x1="568.88256" y1="1213.185645" x2="568.88256" y2="1161.3513" stroke="black" stroke-width="4.757996"/>
<line x1="524.99057" y1="1242.446969" x2="524.99057" y2="1213.185645" stroke="black" stroke-width="4.757996"/>
<line x1="420.485839" y1="1213.185645" x2="420.485839" y2="1244.119045" stroke="black" stroke-width="4.757996"/>
<circle cx="473.574242" cy="1290.101128" r="70.2271798019802" fill="none" stroke="black" stroke-width="4.757996"/>
<circle cx="473.574242" cy="1290.101128" r="60.19472554455446" fill="none" stroke="black" stroke-width="4.757996"/>
<line x1="907.212269" y1="1292.854054" x2="636.323442" y2="1292.854054" stroke="black" stroke-width="4.758"/>
<line x1="636.323442" y1="1292.854054" x2="636.323442" y2="1160.740241" stroke="black" stroke-width="4.758"/>
<line x1="907.212269" y1="1160.740241" x2="636.323442" y2="1160.740241" stroke="black" stroke-width="4.758"/>
<line x1="907.212269" y1="1292.854054" x2="907.212269" y2="1160.740241" stroke="black" stroke-width="4.758"/>
<line x1="900.551068" y1="1286.192853" x2="762.331154" y2="1286.192853" stroke="black" stroke-width="4.758"/>
<line x1="762.331154" y1="1286.192853" x2="762.331154" y2="1167.956541" stroke="black" stroke-width="4.758"/>
<line x1="900.551068" y1="1167.956541" x2="762.331154" y2="1167.956541" stroke="black" stroke-width="4.758"/>
<line x1="900.551068" y1="1286.192853" x2="900.551068" y2="1167.956541" stroke="black" stroke-width="4.758"/>
<line x1="747.898553" y1="1278.421453" x2="650.756043" y2="1278.421453" stroke="black" stroke-width="4.758"/>
<line x1="747.898553" y1="1257.882751" x2="650.756043" y2="1257.882751" stroke="black" stroke-width="4.758"/>
<line x1="747.343453" y1="1236.788948" x2="650.200943" y2="1236.788948" stroke="black" stroke-width="4.758"/>
<line x1="747.343453" y1="1216.250246" x2="650.200943" y2="1216.250246" stroke="black" stroke-width="4.758"/>
<line x1="747.898553" y1="1195.711544" x2="650.756043" y2="1195.711544" stroke="black" stroke-width="4.758"/>
<line x1="747.898553" y1="1175.172842" x2="650.756043" y2="1175.172842" stroke="black" stroke-width="4.758"/>
<line x1="847.816563" y1="1167.956541" x2="847.816563" y2="1181.834043" stroke="black" stroke-width="4.758"/>
<line x1="847.816563" y1="1181.834043" x2="813.40036" y2="1181.834043" stroke="black" stroke-width="4.758"/>
<line x1="813.40036" y1="1181.834043" x2="813.40036" y2="1168.511641" stroke="black" stroke-width="4.758"/>
<circle cx="777.873956" cy="1271.205152" r="8.32650084" fill="none" stroke="black" stroke-width="4.758"/>
<line x1="1717.854085" y1="1314.823253" x2="1829.908054" y2="1408.8477" stroke="black" stroke-width="4.758005"/>
<line x1="1829.908054" y1="1408.8477" x2="1735.690939" y2="1521.131286" stroke="black" stroke-width="4.758005"/>
<line x1="1735.690939" y1="1521.131286" x2="1623.636966" y2="1427.10684" stroke="black" stroke-width="4.758005"/>
<line x1="1623.636966" y1="1427.10684" x2="1717.854085" y2="1314.823253" stroke="black" stroke-width="4.758005"/>
<line x1="1717.817136" y1="1314.400963" x2="1735.690939" y2="1521.131286" stroke="black" stroke-width="4.758005"/>
<line x1="1623.829638" y1="1426.877222" x2="1829.678436" y2="1408.655023" stroke="black" stroke-width="4.758005"/>
<line x1="1761.614323" y1="890.206321" x2="1761.614323" y2="1283.946751" stroke="black" stroke-width="4.758"/>
<line x1="1762.61186" y1="1287.907152" x2="1626.371265" y2="1287.907152" stroke="black" stroke-width="4.758"/>
<line x1="1625.218309" y1="890.671296" x2="1625.218309" y2="1288.212876" stroke="black" stroke-width="4.758"/>
<line x1="1760.918695" y1="891.407112" x2="1625.483837" y2="891.407112" stroke="black" stroke-width="4.758"/>
<line x1="1750.512322" y1="901.716113" x2="1750.512322" y2="1025.424126" stroke="black" stroke-width="4.758"/>
<line x1="1750.512322" y1="1025.424126" x2="1636.32031" y2="1025.424126" stroke="black" stroke-width="4.758"/>
<line x1="1636.32031" y1="901.716113" x2="1636.32031" y2="1025.424126" stroke="black" stroke-width="4.758"/>
<line x1="1750.512322" y1="901.716113" x2="1636.32031" y2="901.716113" stroke="black" stroke-width="4.758"/>
<line x1="1743.375321" y1="1044.456128" x2="1743.375321" y2="1131.686136" stroke="black" stroke-width="4.758"/>
<line x1="1723.550319" y1="1044.456128" x2="1723.550319" y2="1131.686136" stroke="black" stroke-width="4.758"/>
<line x1="1702.932317" y1="1045.249128" x2="1702.932317" y2="1131.686136" stroke="black" stroke-width="4.758"/>
<line x1="1683.107315" y1="1045.249128" x2="1683.107315" y2="1131.686136" stroke="black" stroke-width="4.758"/>
<line x1="1663.282313" y1="1044.456128" x2="1663.282313" y2="1131.686136" stroke="black" stroke-width="4.758"/>
<line x1="1643.457311" y1="1044.456128" x2="1643.457311" y2="1131.686136" stroke="black" stroke-width="4.758"/>
<line x1="1637.113311" y1="949.296118" x2="1650.594312" y2="949.296118" stroke="black" stroke-width="4.758"/>
<line x1="1650.594312" y1="949.296118" x2="1650.594312" y2="979.430121" stroke="black" stroke-width="4.758"/>
<line x1="1650.594312" y1="979.430121" x2="1637.906311" y2="979.430121" stroke="black" stroke-width="4.758"/>
<line x1="1750.512322" y1="1152.304138" x2="1750.512322" y2="1276.012151" stroke="black" stroke-width="4.758"/>
<line x1="1750.512322" y1="1276.012151" x2="1636.32031" y2="1276.012151" stroke="black" stroke-width="4.758"/>
<line x1="1636.32031" y1="1152.304138" x2="1636.32031" y2="1276.012151" stroke="black" stroke-width="4.758"/>
<line x1="1750.512322" y1="1152.304138" x2="1636.32031" y2="1152.304138" stroke="black" stroke-width="4.758"/>
<line x1="1636.32031" y1="1199.884143" x2="1649.801312" y2="1199.884143" stroke="black" stroke-width="4.758"/>
<line x1="1649.801312" y1="1199.884143" x2="1649.801312" y2="1230.018146" stroke="black" stroke-width="4.758"/>
<line x1="1649.801312" y1="1230.018146" x2="1637.113311" y2="1230.018146" stroke="black" stroke-width="4.758"/>
<circle cx="1736.238321" cy="1011.150124" r="7.1370007200000005" fill="none" stroke="black" stroke-width="4.758"/>
<circle cx="1735.44532" cy="1261.738149" r="7.1370007200000005" fill="none" stroke="black" stroke-width="4.758"/>
<line x1="2035.474777" y1="612.331541" x2="2428.802817" y2="612.331541" stroke="black" stroke-width="4.758"/>
<line x1="2428.802817" y1="612.331541" x2="2428.802817" y2="427.562523" stroke="black" stroke-width="4.758"/>
<line x1="2428.802817" y1="427.562523" x2="2035.474777" y2="427.562523" stroke="black" stroke-width="4.758"/>
<line x1="2035.474777" y1="427.562523" x2="2035.474777" y2="612.331541" stroke="black" stroke-width="4.758"/>
<line x1="2194.867793" y1="427.562523" x2="2194.867793" y2="346.676515" stroke="black" stroke-width="4.758"/>
<line x1="2194.867793" y1="346.676515" x2="2116.360785" y2="346.676515" stroke="black" stroke-width="4.758"/>
<line x1="2116.360785" y1="346.676515" x2="2116.360785" y2="427.562523" stroke="black" stroke-width="4.758"/>
<line x1="2117.153786" y1="364.122516" x2="2194.867793" y2="364.122516" stroke="black" stroke-width="4.758"/>
<line x1="2116.360785" y1="694.01055" x2="2194.867793" y2="694.01055" stroke="black" stroke-width="4.758"/>
<line x1="2194.867793" y1="694.01055" x2="2194.867793" y2="612.331541" stroke="black" stroke-width="4.758"/>
<line x1="2116.360785" y1="612.331541" x2="2116.360785" y2="694.01055" stroke="black" stroke-width="4.758"/>
<line x1="2117.153786" y1="676.564548" x2="2194.867793" y2="676.564548" stroke="black" stroke-width="4.758"/>
<line x1="2346.330809" y1="427.562523" x2="2346.330809" y2="346.676515" stroke="black" stroke-width="4.758"/>
<line x1="2346.330809" y1="346.676515" x2="2267.823801" y2="346.676515" stroke="black" stroke-width="4.758"/>
<line x1="2267.823801" y1="346.676515" x2="2267.823801" y2="427.562523" stroke="black" stroke-width="4.758"/>
<line x1="2267.823801" y1="364.122516" x2="2346.330809" y2="364.122516" stroke="black" stroke-width="4.758"/>
<line x1="2267.823801" y1="694.01055" x2="2346.330809" y2="694.01055" stroke="black" stroke-width="4.758"/>
<line x1="2346.330809" y1="694.01055" x2="2346.330809" y2="612.331541" stroke="black" stroke-width="4.758"/>
<line x1="2267.823801" y1="612.331541" x2="2267.823801" y2="694.01055" stroke="black" stroke-width="4.758"/>
<line x1="2267.823801" y1="676.564548" x2="2346.330809" y2="676.564548" stroke="black" stroke-width="4.758"/>
<line x1="1878.886453" y1="2846.549827" x2="1664.387958" y2="2846.549827" stroke="black" stroke-width="4.758"/>
<line x1="1664.387958" y1="2846.549827" x2="1664.387958" y2="2879.616529" stroke="black" stroke-width="4.758"/>
<line x1="1664.387958" y1="2879.616529" x2="1878.886453" y2="2879.616529" stroke="black" stroke-width="4.758"/>
<line x1="1878.886453" y1="2879.616529" x2="1878.886453" y2="2846.549827" stroke="black" stroke-width="4.758"/>
<line x1="1858.872395" y1="2879.181441" x2="1858.872395" y2="2846.984915" stroke="black" stroke-width="4.758"/>
<line x1="1684.837104" y1="2879.181441" x2="1684.837104" y2="2845.67965" stroke="black" stroke-width="4.758"/>
<line x1="1859.307483" y1="2863.953355" x2="1685.272192" y2="2863.953355" stroke="black" stroke-width="4.758"/>
<line x1="3594.394764" y1="1100.273319" x2="3594.394764" y2="909.9533" stroke="black" stroke-width="4.758"/>
<line x1="3594.394764" y1="909.9533" x2="3130.013917" y2="909.9533" stroke="black" stroke-width="4.758"/>
<line x1="3130.013917" y1="909.9533" x2="3130.013917" y2="1100.273319" stroke="black" stroke-width="4.758"/>
<line x1="3130.013917" y1="1100.273319" x2="3153.80392" y2="1100.273319" stroke="black" stroke-width="4.758"/>
<line x1="3153.80392" y1="1100.273319" x2="3153.80392" y2="932.791702" stroke="black" stroke-width="4.758"/>
<line x1="3153.80392" y1="932.791702" x2="3569.653162" y2="932.791702" stroke="black" stroke-width="4.758"/>
<line x1="3569.653162" y1="932.791702" x2="3569.653162" y2="1100.273319" stroke="black" stroke-width="4.758"/>
<line x1="3569.653162" y1="1100.273319" x2="3594.394764" y2="1100.273319" stroke="black" stroke-width="4.758"/>
<line x1="3569.653162" y1="1094.563719" x2="3153.80392" y2="1094.563719" stroke="black" stroke-width="4.758"/>
<line x1="3362.204341" y1="1095.515319" x2="3362.204341" y2="933.743303" stroke="black" stroke-width="4.758"/>
<line x1="3242.121004" y1="1380.585838" x2="3353.951651" y2="1286.748782" stroke="black" stroke-width="4.757996"/>
<line x1="3353.951651" y1="1286.748782" x2="3447.980996" y2="1398.808592" stroke="black" stroke-width="4.757996"/>
<line x1="3447.980996" y1="1398.808592" x2="3336.15035" y2="1492.645649" stroke="black" stroke-width="4.757996"/>
<line x1="3336.15035" y1="1492.645649" x2="3242.121004" y2="1380.585838" stroke="black" stroke-width="4.757996"/>
<line x1="3241.699551" y1="1380.548968" x2="3447.980996" y2="1398.808592" stroke="black" stroke-width="4.757996"/>
<line x1="3335.958056" y1="1492.416489" x2="3353.722491" y2="1286.941071" stroke="black" stroke-width="4.757996"/>
<line x1="421.513809" y1="793.235486" x2="211.884233" y2="793.235486" stroke="black" stroke-width="4.758"/>
<line x1="211.884233" y1="793.235486" x2="211.884233" y2="1124.86812" stroke="black" stroke-width="4.758"/>
<line x1="211.884233" y1="1124.86812" x2="421.513809" y2="1124.86812" stroke="black" stroke-width="4.758"/>
<line x1="421.513809" y1="1124.86812" x2="421.513809" y2="793.235486" stroke="black" stroke-width="4.758"/>
<line x1="422.187859" y1="1065.551714" x2="211.210183" y2="1065.551714" stroke="black" stroke-width="4.758"/>
<line x1="211.210183" y1="1065.551714" x2="420.839759" y2="1015.672009" stroke="black" stroke-width="4.758"/>
<line x1="420.839759" y1="1015.672009" x2="389.159406" y2="969.16255" stroke="black" stroke-width="4.758"/>
<line x1="389.159406" y1="969.16255" x2="211.210183" y2="1066.225764" stroke="black" stroke-width="4.758"/>
<line x1="676.607136" y1="1747.938186" x2="676.607136" y2="1557.618167" stroke="black" stroke-width="4.758"/>
<line x1="676.607136" y1="1557.618167" x2="212.22629" y2="1557.618167" stroke="black" stroke-width="4.758"/>
<line x1="212.22629" y1="1557.618167" x2="212.22629" y2="1747.938186" stroke="black" stroke-width="4.758"/>
<line x1="212.22629" y1="1747.938186" x2="236.016292" y2="1747.938186" stroke="black" stroke-width="4.758"/>
<line x1="236.016292" y1="1747.938186" x2="236.016292" y2="1580.45657" stroke="black" stroke-width="4.758"/>
<line x1="236.016292" y1="1580.45657" x2="651.865534" y2="1580.45657" stroke="black" stroke-width="4.758"/>
<line x1="651.865534" y1="1580.45657" x2="651.865534" y2="1747.938186" stroke="black" stroke-width="4.758"/>
<line x1="651.865534" y1="1747.938186" x2="676.607136" y2="1747.938186" stroke="black" stroke-width="4.758"/>
<line x1="651.865534" y1="1742.228586" x2="236.016292" y2="1742.228586" stroke="black" stroke-width="4.758"/>
<line x1="444.416713" y1="1743.180186" x2="444.416713" y2="1581.40817" stroke="black" stroke-width="4.758"/>
<line x1="1904.015986" y1="1927.394307" x2="1904.015986" y2="2137.023878" stroke="black" stroke-width="4.758"/>
<line x1="1904.015986" y1="2137.023878" x2="2235.64862" y2="2137.023878" stroke="black" stroke-width="4.758"/>
<line x1="2235.64862" y1="2137.023878" x2="2235.64862" y2="1927.394307" stroke="black" stroke-width="4.758"/>
<line x1="2235.64862" y1="1927.394307" x2="1904.015986" y2="1927.394307" stroke="black" stroke-width="4.758"/>
<line x1="2176.332214" y1="1926.720253" x2="2176.332214" y2="2137.697924" stroke="black" stroke-width="4.758"/>
<line x1="2176.332214" y1="2137.697924" x2="2126.452509" y2="1928.068357" stroke="black" stroke-width="4.758"/>
<line x1="2126.452509" y1="1928.068357" x2="2079.943054" y2="1959.748706" stroke="black" stroke-width="4.758"/>
<line x1="2079.943054" y1="1959.748706" x2="2177.006264" y2="2137.697924" stroke="black" stroke-width="4.758"/>
<line x1="2815.325991" y1="1500.741025" x2="2837.194682" y2="1522.609721" stroke="black" stroke-width="4.758"/>
<line x1="2837.194682" y1="1522.609721" x2="2985.565358" y2="1374.239044" stroke="black" stroke-width="4.758"/>
<line x1="2985.565358" y1="1374.239044" x2="2963.696667" y2="1352.370349" stroke="black" stroke-width="4.758"/>
<line x1="2963.696667" y1="1352.370349" x2="2815.325991" y2="1500.741025" stroke="black" stroke-width="4.758"/>
<line x1="2959.659367" y1="1645.074401" x2="2981.528062" y2="1666.943097" stroke="black" stroke-width="4.758"/>
<line x1="2981.528062" y1="1666.943097" x2="3129.898739" y2="1518.572421" stroke="black" stroke-width="4.758"/>
<line x1="3129.898739" y1="1518.572421" x2="3108.030043" y2="1496.70373" stroke="black" stroke-width="4.758"/>
<line x1="3108.030043" y1="1496.70373" x2="2959.659367" y2="1645.074401" stroke="black" stroke-width="4.758"/>
<line x1="2836.858243" y1="1522.273277" x2="2959.659367" y2="1645.074401" stroke="black" stroke-width="4.758"/>
<line x1="2984.219593" y1="1374.239044" x2="3021.564592" y2="1374.575488" stroke="black" stroke-width="4.758"/>
<line x1="3107.357165" y1="1460.368052" x2="3107.6936" y2="1497.713056" stroke="black" stroke-width="4.758"/>
<line x1="3020.218827" y1="1373.229723" x2="3108.702926" y2="1461.713821" stroke="black" stroke-width="4.758"/>
<line x1="2868.820181" y1="1490.984221" x2="2991.621306" y2="1613.78535" stroke="black" stroke-width="4.758"/>
<line x1="2955.504399" y1="1004.582722" x2="2934.412231" y2="1027.201301" stroke="black" stroke-width="4.758"/>
<line x1="2934.412231" y1="1027.201301" x2="3087.870585" y2="1170.303527" stroke="black" stroke-width="4.758"/>
<line x1="3087.870585" y1="1170.303527" x2="3108.962752" y2="1147.684948" stroke="black" stroke-width="4.758"/>
<line x1="3108.962752" y1="1147.684948" x2="2955.504399" y2="1004.582722" stroke="black" stroke-width="4.758"/>
<line x1="2816.296103" y1="1153.865335" x2="2795.20394" y2="1176.483914" stroke="black" stroke-width="4.758"/>
<line x1="2795.20394" y1="1176.483914" x2="2948.662293" y2="1319.586144" stroke="black" stroke-width="4.758"/>
<line x1="2948.662293" y1="1319.586144" x2="2969.754456" y2="1296.967566" stroke="black" stroke-width="4.758"/>
<line x1="2969.754456" y1="1296.967566" x2="2816.296103" y2="1153.865335" stroke="black" stroke-width="4.758"/>
<line x1="2934.736723" y1="1026.853319" x2="2816.296103" y2="1153.865335" stroke="black" stroke-width="4.758"/>
<line x1="3087.823617" y1="1168.958581" x2="3088.790703" y2="1206.292571" stroke="black" stroke-width="4.758"/>
<line x1="3006.044515" y1="1295.026998" x2="2968.734006" y2="1296.666552" stroke="black" stroke-width="4.758"/>
<line x1="3090.088685" y1="1204.900662" x2="3004.746536" y2="1296.418911" stroke="black" stroke-width="4.758"/>
<line x1="2967.122172" y1="1057.703815" x2="2848.681552" y2="1184.715827" stroke="black" stroke-width="4.758"/>
<line x1="777.483095" y1="904.061226" x2="997.841944" y2="904.061226" stroke="black" stroke-width="4.757996"/>
<line x1="997.841944" y1="904.061226" x2="997.841944" y2="1124.871631" stroke="black" stroke-width="4.757996"/>
<line x1="997.841944" y1="1124.871631" x2="777.483095" y2="1124.871631" stroke="black" stroke-width="4.757996"/>
<line x1="777.483095" y1="1124.871631" x2="777.483095" y2="904.061226" stroke="black" stroke-width="4.757996"/>
<line x1="777.031543" y1="903.60967" x2="997.841944" y2="1124.871631" stroke="black" stroke-width="4.757996"/>
<line x1="777.483095" y1="1124.420075" x2="997.390388" y2="904.061226" stroke="black" stroke-width="4.757996"/>
<line x1="983.956195" y1="1974.352173" x2="1216.146619" y2="1974.352173" stroke="black" stroke-width="4.758"/>
<line x1="1216.146619" y1="1974.352173" x2="1216.146619" y2="2207.018396" stroke="black" stroke-width="4.758"/>
<line x1="1216.146619" y1="2207.018396" x2="983.956195" y2="2207.018396" stroke="black" stroke-width="4.758"/>
<line x1="983.956195" y1="2207.018396" x2="983.956195" y2="1974.352173" stroke="black" stroke-width="4.758"/>
<line x1="983.480395" y1="1973.876373" x2="1216.146619" y2="2207.018396" stroke="black" stroke-width="4.758"/>
<line x1="983.956195" y1="2206.542596" x2="1215.670819" y2="1974.352173" stroke="black" stroke-width="4.758"/>
<line x1="213.13679" y1="1161.21801" x2="213.13679" y2="1522.052933" stroke="black" stroke-width="4.758005"/>
<line x1="213.13679" y1="1522.052933" x2="373.832507" y2="1522.052933" stroke="black" stroke-width="4.758005"/>
<line x1="373.832507" y1="1522.052933" x2="373.832507" y2="1161.21801" stroke="black" stroke-width="4.758005"/>
<line x1="373.832507" y1="1161.21801" x2="213.13679" y2="1161.21801" stroke="black" stroke-width="4.758005"/>
<line x1="348.997714" y1="1452.661602" x2="348.997714" y2="1190.435411" stroke="black" stroke-width="4.758005"/>
<line x1="348.997714" y1="1190.435411" x2="240.162889" y2="1190.435411" stroke="black" stroke-width="4.758005"/>
<line x1="240.162889" y1="1190.435411" x2="240.162889" y2="1457.774646" stroke="black" stroke-width="4.758005"/>
<path d="m 349.233283,1451.914037 a 58.43480492002392,58.43480492002392 0 0 1 -110.09494499999997,3.9600390000000516" fill="none" stroke="black" stroke-width="4.758005"/>
<line x1="619.394498" y1="130.465104" x2="839.753347" y2="130.465104" stroke="black" stroke-width="4.757996"/>
<line x1="839.753347" y1="130.465104" x2="839.753347" y2="351.27551" stroke="black" stroke-width="4.757996"/>
<line x1="839.753347" y1="351.27551" x2="619.394498" y2="351.27551" stroke="black" stroke-width="4.757996"/>
<line x1="619.394498" y1="351.27551" x2="619.394498" y2="130.465104" stroke="black" stroke-width="4.757996"/>
<line x1="618.942946" y1="130.013548" x2="839.753347" y2="351.27551" stroke="black" stroke-width="4.757996"/>
<line x1="619.394498" y1="350.823953" x2="839.301791" y2="130.465104" stroke="black" stroke-width="4.757996"/>
<line x1="588.101556" y1="557.209093" x2="617.514885" y2="566.766061" stroke="black" stroke-width="4.758"/>
<line x1="617.514885" y1="566.766061" x2="682.355246" y2="367.207948" stroke="black" stroke-width="4.758"/>
<line x1="682.355246" y1="367.207948" x2="652.941917" y2="357.650979" stroke="black" stroke-width="4.758"/>
<line x1="652.941917" y1="357.650979" x2="588.101556" y2="557.209093" stroke="black" stroke-width="4.758"/>
<line x1="782.229522" y1="620.285094" x2="811.642847" y2="629.842063" stroke="black" stroke-width="4.758"/>
<line x1="811.642847" y1="629.842063" x2="876.483212" y2="430.283945" stroke="black" stroke-width="4.758"/>
<line x1="876.483212" y1="430.283945" x2="847.069883" y2="420.726977" stroke="black" stroke-width="4.758"/>
<line x1="847.069883" y1="420.726977" x2="782.229522" y2="620.285094" stroke="black" stroke-width="4.758"/>
<line x1="617.062373" y1="566.619034" x2="782.229522" y2="620.285094" stroke="black" stroke-width="4.758"/>
<line x1="681.156164" y1="367.81891" x2="714.583545" y2="351.164406" stroke="black" stroke-width="4.758"/>
<line x1="829.97429" y1="388.657133" x2="847.228338" y2="421.779032" stroke="black" stroke-width="4.758"/>
<line x1="712.773491" y1="350.576286" x2="831.784339" y2="389.245252" stroke="black" stroke-width="4.758"/>
<line x1="631.335735" y1="524.229867" x2="796.502885" y2="577.895927" stroke="black" stroke-width="4.758"/>
<line x1="429.340922" y1="2298.092222" x2="210.279051" y2="2298.092222" stroke="black" stroke-width="4.758"/>
<line x1="210.279051" y1="2298.092222" x2="210.279051" y2="2644.646694" stroke="black" stroke-width="4.758"/>
<line x1="210.279051" y1="2644.646694" x2="429.340922" y2="2644.646694" stroke="black" stroke-width="4.758"/>
<line x1="429.340922" y1="2644.646694" x2="429.340922" y2="2298.092222" stroke="black" stroke-width="4.758"/>
<line x1="430.0453" y1="2582.66134" x2="209.574674" y2="2582.66134" stroke="black" stroke-width="4.758"/>
<line x1="209.574674" y1="2582.66134" x2="428.636544" y2="2530.537295" stroke="black" stroke-width="4.758"/>
<line x1="428.636544" y1="2530.537295" x2="395.53073" y2="2481.935144" stroke="black" stroke-width="4.758"/>
<line x1="395.53073" y1="2481.935144" x2="209.574674" y2="2583.365718" stroke="black" stroke-width="4.758"/>
<line x1="431.229813" y1="2643.190922" x2="431.229813" y2="2507.585481" stroke="black" stroke-width="4.758"/>
<line x1="431.229813" y1="2507.585481" x2="567.113139" y2="2507.585481" stroke="black" stroke-width="4.758"/>
<line x1="567.113139" y1="2507.585481" x2="567.113139" y2="2643.190922" stroke="black" stroke-width="4.758"/>
<line x1="567.113139" y1="2643.190922" x2="431.229813" y2="2643.190922" stroke="black" stroke-width="4.758"/>
<line x1="430.951933" y1="2643.468802" x2="567.113139" y2="2507.585481" stroke="black" stroke-width="4.758"/>
<line x1="566.835259" y1="2643.190922" x2="431.229813" y2="2507.863357" stroke="black" stroke-width="4.758"/>
<line x1="1217.492208" y1="2297.808777" x2="998.430337" y2="2297.808777" stroke="black" stroke-width="4.758"/>
<line x1="998.430337" y1="2297.808777" x2="998.430337" y2="2644.363249" stroke="black" stroke-width="4.758"/>
<line x1="998.430337" y1="2644.363249" x2="1217.492208" y2="2644.363249" stroke="black" stroke-width="4.758"/>
<line x1="1217.492208" y1="2644.363249" x2="1217.492208" y2="2297.808777" stroke="black" stroke-width="4.758"/>
<line x1="1218.196586" y1="2582.377895" x2="997.725959" y2="2582.377895" stroke="black" stroke-width="4.758"/>
<line x1="997.725959" y1="2582.377895" x2="1216.78783" y2="2530.25385" stroke="black" stroke-width="4.758"/>
<line x1="1216.78783" y1="2530.25385" x2="1183.682015" y2="2481.651699" stroke="black" stroke-width="4.758"/>
<line x1="1183.682015" y1="2481.651699" x2="997.725959" y2="2583.082273" stroke="black" stroke-width="4.758"/>
<line x1="996.281179" y1="2575.337976" x2="927.724859" y2="2643.8943" stroke="black" stroke-width="4.758005"/>
<line x1="927.724859" y1="2643.8943" x2="859.028051" y2="2575.197491" stroke="black" stroke-width="4.758005"/>
<line x1="859.028051" y1="2575.197491" x2="927.584375" y2="2506.641167" stroke="black" stroke-width="4.758005"/>
<line x1="927.584375" y1="2506.641167" x2="996.281179" y2="2575.337976" stroke="black" stroke-width="4.758005"/>
<line x1="996.562148" y1="2575.337976" x2="859.028051" y2="2575.197491" stroke="black" stroke-width="4.758005"/>
<line x1="927.724859" y1="2506.781652" x2="927.865344" y2="2643.753815" stroke="black" stroke-width="4.758005"/>
<line x1="1661.943566" y1="2607.239065" x2="1882.302415" y2="2607.239065" stroke="black" stroke-width="4.757996"/>
<line x1="1882.302415" y1="2607.239065" x2="1882.302415" y2="2828.04947" stroke="black" stroke-width="4.757996"/>
<line x1="1882.302415" y1="2828.04947" x2="1661.943566" y2="2828.04947" stroke="black" stroke-width="4.757996"/>
<line x1="1661.943566" y1="2828.04947" x2="1661.943566" y2="2607.239065" stroke="black" stroke-width="4.757996"/>
<line x1="1661.492014" y1="2606.787508" x2="1882.302415" y2="2828.04947" stroke="black" stroke-width="4.757996"/>
<line x1="1661.943566" y1="2827.597914" x2="1881.850859" y2="2607.239065" stroke="black" stroke-width="4.757996"/>
<line x1="1917.296491" y1="2399.072094" x2="1888.054437" y2="2389.003244" stroke="black" stroke-width="4.758"/>
<line x1="1888.054437" y1="2389.003244" x2="1819.741181" y2="2587.399348" stroke="black" stroke-width="4.758"/>
<line x1="1819.741181" y1="2587.399348" x2="1848.983235" y2="2597.468198" stroke="black" stroke-width="4.758"/>
<line x1="1848.983235" y1="2597.468198" x2="1917.296491" y2="2399.072094" stroke="black" stroke-width="4.758"/>
<line x1="1724.298925" y1="2332.617701" x2="1695.056866" y2="2322.548855" stroke="black" stroke-width="4.758"/>
<line x1="1695.056866" y1="2322.548855" x2="1626.74361" y2="2520.944959" stroke="black" stroke-width="4.758"/>
<line x1="1626.74361" y1="2520.944959" x2="1655.985668" y2="2531.013804" stroke="black" stroke-width="4.758"/>
<line x1="1655.985668" y1="2531.013804" x2="1724.298925" y2="2332.617701" stroke="black" stroke-width="4.758"/>
<line x1="1888.504315" y1="2389.158148" x2="1724.298925" y2="2332.617701" stroke="black" stroke-width="4.758"/>
<line x1="1820.950744" y1="2586.809405" x2="1787.237799" y2="2602.877983" stroke="black" stroke-width="4.758"/>
<line x1="1672.518962" y1="2563.37712" x2="1655.845598" y2="2529.959145" stroke="black" stroke-width="4.758"/>
<line x1="1789.03731" y1="2603.497602" x2="1670.719451" y2="2562.757496" stroke="black" stroke-width="4.758"/>
<line x1="1873.493334" y1="2431.291758" x2="1709.287944" y2="2374.751306" stroke="black" stroke-width="4.758"/>
<line x1="3434.14941" y1="2338.590075" x2="3603.656217" y2="2338.590075" stroke="black" stroke-width="4.758005"/>
<line x1="3603.656217" y1="2338.590075" x2="3603.656217" y2="2508.444229" stroke="black" stroke-width="4.758005"/>
<line x1="3603.656217" y1="2508.444229" x2="3434.14941" y2="2508.444229" stroke="black" stroke-width="4.758005"/>
<line x1="3434.14941" y1="2508.444229" x2="3434.14941" y2="2338.590075" stroke="black" stroke-width="4.758005"/>
<line x1="3433.802058" y1="2338.242723" x2="3603.656217" y2="2508.444229" stroke="black" stroke-width="4.758005"/>
<line x1="3434.14941" y1="2508.096882" x2="3603.308865" y2="2338.590075" stroke="black" stroke-width="4.758005"/>
<line x1="3266.406297" y1="2337.896583" x2="3435.913104" y2="2337.896583" stroke="black" stroke-width="4.758005"/>
<line x1="3435.913104" y1="2337.896583" x2="3435.913104" y2="2507.750737" stroke="black" stroke-width="4.758005"/>
<line x1="3435.913104" y1="2507.750737" x2="3266.406297" y2="2507.750737" stroke="black" stroke-width="4.758005"/>
<line x1="3266.406297" y1="2507.750737" x2="3266.406297" y2="2337.896583" stroke="black" stroke-width="4.758005"/>
<line x1="3266.058945" y1="2337.549231" x2="3435.913104" y2="2507.750737" stroke="black" stroke-width="4.758005"/>
<line x1="3266.406297" y1="2507.40339" x2="3435.565752" y2="2337.896583" stroke="black" stroke-width="4.758005"/>
<line x1="2976.846071" y1="2474.847604" x2="3146.352878" y2="2474.847604" stroke="black" stroke-width="4.758005"/>
<line x1="3146.352878" y1="2474.847604" x2="3146.352878" y2="2644.701759" stroke="black" stroke-width="4.758005"/>
<line x1="3146.352878" y1="2644.701759" x2="2976.846071" y2="2644.701759" stroke="black" stroke-width="4.758005"/>
<line x1="2976.846071" y1="2644.701759" x2="2976.846071" y2="2474.847604" stroke="black" stroke-width="4.758005"/>
<line x1="2976.498719" y1="2474.500253" x2="3146.352878" y2="2644.701759" stroke="black" stroke-width="4.758005"/>
<line x1="2976.846071" y1="2644.354411" x2="3146.005526" y2="2474.847604" stroke="black" stroke-width="4.758005"/>
<line x1="2808.66057" y1="2475.357719" x2="2978.167377" y2="2475.357719" stroke="black" stroke-width="4.758005"/>
<line x1="2978.167377" y1="2475.357719" x2="2978.167377" y2="2645.211874" stroke="black" stroke-width="4.758005"/>
<line x1="2978.167377" y1="2645.211874" x2="2808.66057" y2="2645.211874" stroke="black" stroke-width="4.758005"/>
<line x1="2808.66057" y1="2645.211874" x2="2808.66057" y2="2475.357719" stroke="black" stroke-width="4.758005"/>
<line x1="2808.313218" y1="2475.010368" x2="2978.167377" y2="2645.211874" stroke="black" stroke-width="4.758005"/>
<line x1="2808.66057" y1="2644.864526" x2="2977.820025" y2="2475.357719" stroke="black" stroke-width="4.758005"/>
</g>
</svg>
