<?xml version="1.0"?>
<svg xmlns:xlink="http://www.w3.org/1999/xlink" width="5498.133887999999" height="2960.5336319999997">
<image x="0" y="0" width="5498.133887999999" height="2960.5336319999997" xlink:href="ground16-07.png"/>
<g style="stroke-linecap:round">
<line x1="1294.244566" y1="1161.032193" x2="1316.799022" y2="1161.032193" stroke="black" stroke-width="4.758"/>
<line x1="1316.799022" y1="1161.032193" x2="1316.799022" y2="1117.023503" stroke="black" stroke-width="4.758"/>
<line x1="1316.799022" y1="1117.023503" x2="1294.244566" y2="1117.023503" stroke="black" stroke-width="4.758"/>
<line x1="1294.244566" y1="1117.023503" x2="1294.244566" y2="1161.032193" stroke="black" stroke-width="4.758"/>
<line x1="1537.39259" y1="1117.023503" x2="1537.39259" y2="897.530148" stroke="black" stroke-width="4.758"/>
<line x1="1537.942699" y1="1162.13241" x2="1560.497154" y2="1162.13241" stroke="black" stroke-width="4.758"/>
<line x1="1560.497154" y1="1162.13241" x2="1560.497154" y2="1118.12372" stroke="black" stroke-width="4.758"/>
<line x1="1560.497154" y1="1118.12372" x2="1537.942699" y2="1118.12372" stroke="black" stroke-width="4.758"/>
<line x1="1537.942699" y1="1118.12372" x2="1537.942699" y2="1162.13241" stroke="black" stroke-width="4.758"/>
<path d="m 1316.799022,1118.673829 a 220.59357050000006,220.59357050000006 0 0 1 220.593568,-220.5935730000001" fill="none" stroke="black" stroke-width="4.758"/>
<line x1="1546.852786" y1="1890.830668" x2="1524.29833" y2="1890.830668" stroke="black" stroke-width="4.758"/>
<line x1="1524.29833" y1="1890.830668" x2="1524.29833" y2="1934.839358" stroke="black" stroke-width="4.758"/>
<line x1="1524.29833" y1="1934.839358" x2="1546.852786" y2="1934.839358" stroke="black" stroke-width="4.758"/>
<line x1="1546.852786" y1="1934.839358" x2="1546.852786" y2="1890.830668" stroke="black" stroke-width="4.758"/>
<line x1="1303.704762" y1="1934.839358" x2="1303.704762" y2="2154.332713" stroke="black" stroke-width="4.758"/>
<line x1="1303.154654" y1="1889.730451" x2="1280.600198" y2="1889.730451" stroke="black" stroke-width="4.758"/>
<line x1="1280.600198" y1="1889.730451" x2="1280.600198" y2="1933.739141" stroke="black" stroke-width="4.758"/>
<line x1="1280.600198" y1="1933.739141" x2="1303.154654" y2="1933.739141" stroke="black" stroke-width="4.758"/>
<line x1="1303.154654" y1="1933.739141" x2="1303.154654" y2="1889.730451" stroke="black" stroke-width="4.758"/>
<path d="m 1524.29833,1933.189032 a 220.59357049999994,220.59357049999994 0 0 1 -220.593568,220.59357299999988" fill="none" stroke="black" stroke-width="4.758"/>
<line x1="4403.66499" y1="112.016592" x2="4618.148673" y2="112.016592" stroke="black" stroke-width="4.758"/>
<line x1="4618.148673" y1="112.016592" x2="4618.148673" y2="73.653658" stroke="black" stroke-width="4.758"/>
<line x1="4618.148673" y1="73.653658" x2="4403.66499" y2="73.653658" stroke="black" stroke-width="4.758"/>
<line x1="4403.66499" y1="73.653658" x2="4403.66499" y2="112.016592" stroke="black" stroke-width="4.758"/>
<line x1="4413.691665" y1="112.016592" x2="4413.691665" y2="125.094868" stroke="black" stroke-width="4.758"/>
<line x1="4413.691665" y1="125.094868" x2="4607.686055" y2="125.094868" stroke="black" stroke-width="4.758"/>
<line x1="4607.686055" y1="112.016592" x2="4607.686055" y2="125.094868" stroke="black" stroke-width="4.758"/>
<line x1="2442.739291" y1="114.132448" x2="2657.237786" y2="114.132448" stroke="black" stroke-width="4.758"/>
<line x1="2657.237786" y1="114.132448" x2="2657.237786" y2="81.065746" stroke="black" stroke-width="4.758"/>
<line x1="2657.237786" y1="81.065746" x2="2442.739291" y2="81.065746" stroke="black" stroke-width="4.758"/>
<line x1="2442.739291" y1="81.065746" x2="2442.739291" y2="114.132448" stroke="black" stroke-width="4.758"/>
<line x1="2462.753349" y1="81.500834" x2="2462.753349" y2="113.69736" stroke="black" stroke-width="4.758"/>
<line x1="2636.78864" y1="81.500834" x2="2636.78864" y2="115.002625" stroke="black" stroke-width="4.758"/>
<line x1="2462.31826" y1="96.728921" x2="2636.353552" y2="96.728921" stroke="black" stroke-width="4.758"/>
<line x1="1253.916155" y1="1507.813934" x2="1253.916155" y2="1485.259478" stroke="black" stroke-width="4.758"/>
<line x1="1253.916155" y1="1485.259478" x2="1209.907466" y2="1485.259478" stroke="black" stroke-width="4.758"/>
<line x1="1209.907466" y1="1485.259478" x2="1209.907466" y2="1507.813934" stroke="black" stroke-width="4.758"/>
<line x1="1209.907466" y1="1507.813934" x2="1253.916155" y2="1507.813934" stroke="black" stroke-width="4.758"/>
<line x1="1209.907466" y1="1264.66591" x2="990.414111" y2="1264.66591" stroke="black" stroke-width="4.758"/>
<line x1="1255.016372" y1="1264.115802" x2="1255.016372" y2="1241.561346" stroke="black" stroke-width="4.758"/>
<line x1="1255.016372" y1="1241.561346" x2="1211.007683" y2="1241.561346" stroke="black" stroke-width="4.758"/>
<line x1="1211.007683" y1="1241.561346" x2="1211.007683" y2="1264.115802" stroke="black" stroke-width="4.758"/>
<line x1="1211.007683" y1="1264.115802" x2="1255.016372" y2="1264.115802" stroke="black" stroke-width="4.758"/>
<path d="m 1211.557792,1485.259478 a 220.59357050000006,220.59357050000006 0 0 1 -220.5935730000001,-220.593568" fill="none" stroke="black" stroke-width="4.758"/>
<line x1="1253.394872" y1="1837.912218" x2="1253.394872" y2="1815.357762" stroke="black" stroke-width="4.758"/>
<line x1="1253.394872" y1="1815.357762" x2="1209.386183" y2="1815.357762" stroke="black" stroke-width="4.758"/>
<line x1="1209.386183" y1="1815.357762" x2="1209.386183" y2="1837.912218" stroke="black" stroke-width="4.758"/>
<line x1="1209.386183" y1="1837.912218" x2="1253.394872" y2="1837.912218" stroke="black" stroke-width="4.758"/>
<line x1="1209.386183" y1="1594.764194" x2="989.892827" y2="1594.764194" stroke="black" stroke-width="4.758"/>
<line x1="1254.495089" y1="1594.214086" x2="1254.495089" y2="1571.65963" stroke="black" stroke-width="4.758"/>
<line x1="1254.495089" y1="1571.65963" x2="1210.4864" y2="1571.65963" stroke="black" stroke-width="4.758"/>
<line x1="1210.4864" y1="1571.65963" x2="1210.4864" y2="1594.214086" stroke="black" stroke-width="4.758"/>
<line x1="1210.4864" y1="1594.214086" x2="1254.495089" y2="1594.214086" stroke="black" stroke-width="4.758"/>
<path d="m 1211.036509,1815.357762 a 220.5935705,220.5935705 0 0 1 -220.593573,-220.593568" fill="none" stroke="black" stroke-width="4.758"/>
<line x1="2469.579154" y1="1558.52728" x2="2492.277729" y2="1558.52728" stroke="black" stroke-width="4.758"/>
<line x1="2492.277729" y1="1558.52728" x2="2492.277729" y2="1514.237384" stroke="black" stroke-width="4.758"/>
<line x1="2492.277729" y1="1514.237384" x2="2469.579154" y2="1514.237384" stroke="black" stroke-width="4.758"/>
<line x1="2469.579154" y1="1514.237384" x2="2469.579154" y2="1558.52728" stroke="black" stroke-width="4.758"/>
<line x1="2714.280841" y1="1514.237384" x2="2714.280841" y2="1293.341516" stroke="black" stroke-width="4.758"/>
<line x1="2714.834465" y1="1559.634529" x2="2737.53304" y2="1559.634529" stroke="black" stroke-width="4.758"/>
<line x1="2737.53304" y1="1559.634529" x2="2737.53304" y2="1515.344628" stroke="black" stroke-width="4.758"/>
<line x1="2737.53304" y1="1515.344628" x2="2714.834465" y2="1515.344628" stroke="black" stroke-width="4.758"/>
<line x1="2714.834465" y1="1515.344628" x2="2714.834465" y2="1559.634529" stroke="black" stroke-width="4.758"/>
<path d="m 2492.277729,1515.898252 a 222.00311199999987,222.00311199999987 0 0 1 222.00311199999987,-222.00311199999987" fill="none" stroke="black" stroke-width="4.758"/>
<line x1="191.38945" y1="532.258913" x2="191.38945" y2="311.81735" stroke="black" stroke-width="4.758"/>
<line x1="191.38945" y1="311.81735" x2="151.960878" y2="311.81735" stroke="black" stroke-width="4.758"/>
<line x1="151.960878" y1="311.81735" x2="151.960878" y2="532.258913" stroke="black" stroke-width="4.758"/>
<line x1="151.960878" y1="532.258913" x2="191.38945" y2="532.258913" stroke="black" stroke-width="4.758"/>
<line x1="191.38945" y1="521.953719" x2="204.831009" y2="521.953719" stroke="black" stroke-width="4.758"/>
<line x1="204.831009" y1="521.953719" x2="204.831009" y2="322.570594" stroke="black" stroke-width="4.758"/>
<line x1="191.38945" y1="322.570594" x2="204.831009" y2="322.570594" stroke="black" stroke-width="4.758"/>
<line x1="193.040199" y1="2237.218729" x2="193.040199" y2="2016.777166" stroke="black" stroke-width="4.758"/>
<line x1="193.040199" y1="2016.777166" x2="153.611627" y2="2016.777166" stroke="black" stroke-width="4.758"/>
<line x1="153.611627" y1="2016.777166" x2="153.611627" y2="2237.218729" stroke="black" stroke-width="4.758"/>
<line x1="153.611627" y1="2237.218729" x2="193.040199" y2="2237.218729" stroke="black" stroke-width="4.758"/>
<line x1="193.040199" y1="2226.913535" x2="206.481757" y2="2226.913535" stroke="black" stroke-width="4.758"/>
<line x1="206.481757" y1="2226.913535" x2="206.481757" y2="2027.53041" stroke="black" stroke-width="4.758"/>
<line x1="193.040199" y1="2027.53041" x2="206.481757" y2="2027.53041" stroke="black" stroke-width="4.758"/>
<line x1="2630.64014" y1="2277.391122" x2="2605.995975" y2="2277.391122" stroke="black" stroke-width="4.758"/>
<line x1="2605.995975" y1="2277.391122" x2="2605.995975" y2="2325.477299" stroke="black" stroke-width="4.758"/>
<line x1="2605.995975" y1="2325.477299" x2="2630.64014" y2="2325.477299" stroke="black" stroke-width="4.758"/>
<line x1="2630.64014" y1="2325.477299" x2="2630.64014" y2="2277.391122" stroke="black" stroke-width="4.758"/>
<line x1="2364.964024" y1="2325.477299" x2="2364.964024" y2="2565.307097" stroke="black" stroke-width="4.758"/>
<line x1="2364.362948" y1="2276.188969" x2="2339.718783" y2="2276.188969" stroke="black" stroke-width="4.758"/>
<line x1="2339.718783" y1="2276.188969" x2="2339.718783" y2="2324.275141" stroke="black" stroke-width="4.758"/>
<line x1="2339.718783" y1="2324.275141" x2="2364.362948" y2="2324.275141" stroke="black" stroke-width="4.758"/>
<line x1="2364.362948" y1="2324.275141" x2="2364.362948" y2="2276.188969" stroke="black" stroke-width="4.758"/>
<path d="m 2605.995975,2323.674065 a 241.03195099999994,241.03195099999994 0 0 1 -241.03195099999994,241.03195099999994" fill="none" stroke="black" stroke-width="4.758"/>
<line x1="568.88256" y1="1213.185645" x2="374.921777" y2="1213.185645" stroke="black" stroke-width="4.757996"/>
<line x1="374.921777" y1="1213.185645" x2="374.921777" y2="1161.3513" stroke="black" stroke-width="4.757996"/>
<line x1="568.88256" y1="1161.3513" x2="374.921777" y2="1161.3513" stroke="black" stroke-width="4.757996"/>
<line x1="568.88256" y1="1213.185645" x2="568.88256" y2="1161.3513" stroke="black" stroke-width="4.757996"/>
<line x1="524.99057" y1="1242.446969" x2="524.99057" y2="1213.185645" stroke="black" stroke-width="4.757996"/>
<line x1="420.485839" y1="1213.185645" x2="420.485839" y2="1244.119045" stroke="black" stroke-width="4.757996"/>
<circle cx="473.574242" cy="1290.101128" r="70.2271798019802" fill="none" stroke="black" stroke-width="4.757996"/>
<circle cx="473.574242" cy="1290.101128" r="60.19472554455446" fill="none" stroke="black" stroke-width="4.757996"/>
<line x1="863.33509" y1="1185.323243" x2="844.699588" y2="1160.740241" stroke="black" stroke-width="4.758"/>
<line x1="844.699588" y1="1160.740241" x2="697.201573" y2="1160.740241" stroke="black" stroke-width="4.758"/>
<line x1="697.201573" y1="1160.740241" x2="678.169571" y2="1188.891744" stroke="black" stroke-width="4.758"/>
<line x1="841.527588" y1="1188.098743" x2="698.391073" y2="1188.098743" stroke="black" stroke-width="4.758"/>
<circle cx="772.140081" cy="1209.906246" r="13.084501320000001" fill="none" stroke="black" stroke-width="4.758"/>
<path d="m 839.972378,1187.430553 a 74.93850864961598,74.93850864961598 0 1 1 -139.78529200000003,0.4025530000001254" fill="none" stroke="black" stroke-width="4.758"/>
<path d="m 863.288735,1184.665049 a 95.55651022076711,95.55651022076711 0 1 1 -184.699931,3.078845000000001" fill="none" stroke="black" stroke-width="4.758"/>
<line x1="1770.343117" y1="1315.452014" x2="1829.495037" y2="1461.858156" stroke="black" stroke-width="4.758"/>
<line x1="1829.495037" y1="1461.858156" x2="1682.788886" y2="1521.131286" stroke="black" stroke-width="4.758"/>
<line x1="1682.788886" y1="1521.131286" x2="1623.636966" y2="1374.725149" stroke="black" stroke-width="4.758"/>
<line x1="1623.636966" y1="1374.725149" x2="1770.343117" y2="1315.452014" stroke="black" stroke-width="4.758"/>
<line x1="1770.521917" y1="1315.030786" x2="1682.788886" y2="1521.131286" stroke="black" stroke-width="4.758"/>
<line x1="1623.936975" y1="1374.603934" x2="1829.373823" y2="1461.558142" stroke="black" stroke-width="4.758"/>
<line x1="1760.602032" y1="752.534378" x2="1760.602032" y2="1146.274809" stroke="black" stroke-width="4.758"/>
<line x1="1761.599569" y1="1150.23521" x2="1625.358974" y2="1150.23521" stroke="black" stroke-width="4.758"/>
<line x1="1624.206018" y1="752.999354" x2="1624.206018" y2="1150.540934" stroke="black" stroke-width="4.758"/>
<line x1="1759.906404" y1="753.73517" x2="1624.471546" y2="753.73517" stroke="black" stroke-width="4.758"/>
<line x1="1749.500031" y1="764.044171" x2="1749.500031" y2="887.752184" stroke="black" stroke-width="4.758"/>
<line x1="1749.500031" y1="887.752184" x2="1635.308019" y2="887.752184" stroke="black" stroke-width="4.758"/>
<line x1="1635.308019" y1="764.044171" x2="1635.308019" y2="887.752184" stroke="black" stroke-width="4.758"/>
<line x1="1749.500031" y1="764.044171" x2="1635.308019" y2="764.044171" stroke="black" stroke-width="4.758"/>
<line x1="1742.36303" y1="906.784185" x2="1742.36303" y2="994.014194" stroke="black" stroke-width="4.758"/>
<line x1="1722.538028" y1="906.784185" x2="1722.538028" y2="994.014194" stroke="black" stroke-width="4.758"/>
<line x1="1701.920026" y1="907.577186" x2="1701.920026" y2="994.014194" stroke="black" stroke-width="4.758"/>
<line x1="1682.095024" y1="907.577186" x2="1682.095024" y2="994.014194" stroke="black" stroke-width="4.758"/>
<line x1="1662.270022" y1="906.784185" x2="1662.270022" y2="994.014194" stroke="black" stroke-width="4.758"/>
<line x1="1642.44502" y1="906.784185" x2="1642.44502" y2="994.014194" stroke="black" stroke-width="4.758"/>
<line x1="1636.10102" y1="811.624176" x2="1649.582021" y2="811.624176" stroke="black" stroke-width="4.758"/>
<line x1="1649.582021" y1="811.624176" x2="1649.582021" y2="841.758179" stroke="black" stroke-width="4.758"/>
<line x1="1649.582021" y1="841.758179" x2="1636.89402" y2="841.758179" stroke="black" stroke-width="4.758"/>
<line x1="1749.500031" y1="1014.632196" x2="1749.500031" y2="1138.340209" stroke="black" stroke-width="4.758"/>
<line x1="1749.500031" y1="1138.340209" x2="1635.308019" y2="1138.340209" stroke="black" stroke-width="4.758"/>
<line x1="1635.308019" y1="1014.632196" x2="1635.308019" y2="1138.340209" stroke="black" stroke-width="4.758"/>
<line x1="1749.500031" y1="1014.632196" x2="1635.308019" y2="1014.632196" stroke="black" stroke-width="4.758"/>
<line x1="1635.308019" y1="1062.212201" x2="1648.789021" y2="1062.212201" stroke="black" stroke-width="4.758"/>
<line x1="1648.789021" y1="1062.212201" x2="1648.789021" y2="1092.346204" stroke="black" stroke-width="4.758"/>
<line x1="1648.789021" y1="1092.346204" x2="1636.10102" y2="1092.346204" stroke="black" stroke-width="4.758"/>
<circle cx="1735.22603" cy="873.478182" r="7.1370007200000005" fill="none" stroke="black" stroke-width="4.758"/>
<circle cx="1734.433029" cy="1124.066207" r="7.1370007200000005" fill="none" stroke="black" stroke-width="4.758"/>
<line x1="2186.185055" y1="737.244663" x2="2579.513095" y2="737.244663" stroke="black" stroke-width="4.758"/>
<line x1="2579.513095" y1="737.244663" x2="2579.513095" y2="552.475644" stroke="black" stroke-width="4.758"/>
<line x1="2579.513095" y1="552.475644" x2="2186.185055" y2="552.475644" stroke="black" stroke-width="4.758"/>
<line x1="2186.185055" y1="552.475644" x2="2186.185055" y2="737.244663" stroke="black" stroke-width="4.758"/>
<line x1="2345.578071" y1="552.475644" x2="2345.578071" y2="471.589636" stroke="black" stroke-width="4.758"/>
<line x1="2345.578071" y1="471.589636" x2="2267.071063" y2="471.589636" stroke="black" stroke-width="4.758"/>
<line x1="2267.071063" y1="471.589636" x2="2267.071063" y2="552.475644" stroke="black" stroke-width="4.758"/>
<line x1="2267.864063" y1="489.035638" x2="2345.578071" y2="489.035638" stroke="black" stroke-width="4.758"/>
<line x1="2267.071063" y1="818.923671" x2="2345.578071" y2="818.923671" stroke="black" stroke-width="4.758"/>
<line x1="2345.578071" y1="818.923671" x2="2345.578071" y2="737.244663" stroke="black" stroke-width="4.758"/>
<line x1="2267.071063" y1="737.244663" x2="2267.071063" y2="818.923671" stroke="black" stroke-width="4.758"/>
<line x1="2267.864063" y1="801.477669" x2="2345.578071" y2="801.477669" stroke="black" stroke-width="4.758"/>
<line x1="2497.041086" y1="552.475644" x2="2497.041086" y2="471.589636" stroke="black" stroke-width="4.758"/>
<line x1="2497.041086" y1="471.589636" x2="2418.534078" y2="471.589636" stroke="black" stroke-width="4.758"/>
<line x1="2418.534078" y1="471.589636" x2="2418.534078" y2="552.475644" stroke="black" stroke-width="4.758"/>
<line x1="2418.534078" y1="489.035638" x2="2497.041086" y2="489.035638" stroke="black" stroke-width="4.758"/>
<line x1="2418.534078" y1="818.923671" x2="2497.041086" y2="818.923671" stroke="black" stroke-width="4.758"/>
<line x1="2497.041086" y1="818.923671" x2="2497.041086" y2="737.244663" stroke="black" stroke-width="4.758"/>
<line x1="2418.534078" y1="737.244663" x2="2418.534078" y2="818.923671" stroke="black" stroke-width="4.758"/>
<line x1="2418.534078" y1="801.477669" x2="2497.041086" y2="801.477669" stroke="black" stroke-width="4.758"/>
<line x1="1878.886453" y1="2846.549827" x2="1664.387958" y2="2846.549827" stroke="black" stroke-width="4.758"/>
<line x1="1664.387958" y1="2846.549827" x2="1664.387958" y2="2879.616529" stroke="black" stroke-width="4.758"/>
<line x1="1664.387958" y1="2879.616529" x2="1878.886453" y2="2879.616529" stroke="black" stroke-width="4.758"/>
<line x1="1878.886453" y1="2879.616529" x2="1878.886453" y2="2846.549827" stroke="black" stroke-width="4.758"/>
<line x1="1858.872395" y1="2879.181441" x2="1858.872395" y2="2846.984915" stroke="black" stroke-width="4.758"/>
<line x1="1684.837104" y1="2879.181441" x2="1684.837104" y2="2845.67965" stroke="black" stroke-width="4.758"/>
<line x1="1859.307483" y1="2863.953355" x2="1685.272192" y2="2863.953355" stroke="black" stroke-width="4.758"/>
<line x1="3594.405487" y1="1101.989041" x2="3594.405487" y2="911.669022" stroke="black" stroke-width="4.758"/>
<line x1="3594.405487" y1="911.669022" x2="3130.024641" y2="911.669022" stroke="black" stroke-width="4.758"/>
<line x1="3130.024641" y1="911.669022" x2="3130.024641" y2="1101.989041" stroke="black" stroke-width="4.758"/>
<line x1="3130.024641" y1="1101.989041" x2="3153.814643" y2="1101.989041" stroke="black" stroke-width="4.758"/>
<line x1="3153.814643" y1="1101.989041" x2="3153.814643" y2="934.507424" stroke="black" stroke-width="4.758"/>
<line x1="3153.814643" y1="934.507424" x2="3569.663885" y2="934.507424" stroke="black" stroke-width="4.758"/>
<line x1="3569.663885" y1="934.507424" x2="3569.663885" y2="1101.989041" stroke="black" stroke-width="4.758"/>
<line x1="3569.663885" y1="1101.989041" x2="3594.405487" y2="1101.989041" stroke="black" stroke-width="4.758"/>
<line x1="3569.663885" y1="1096.279441" x2="3153.814643" y2="1096.279441" stroke="black" stroke-width="4.758"/>
<line x1="3362.215064" y1="1097.231041" x2="3362.215064" y2="935.459024" stroke="black" stroke-width="4.758"/>
<line x1="3427.110287" y1="1288.126646" x2="3446.557887" y2="1473.158205" stroke="black" stroke-width="4.758"/>
<line x1="3446.557887" y1="1473.158205" x2="3261.147164" y2="1492.645657" stroke="black" stroke-width="4.758"/>
<line x1="3261.147164" y1="1492.645657" x2="3241.69956" y2="1307.614094" stroke="black" stroke-width="4.758"/>
<line x1="3241.69956" y1="1307.614094" x2="3427.110287" y2="1288.126646" stroke="black" stroke-width="4.758"/>
<line x1="3427.449599" y1="1287.707629" x2="3261.147164" y2="1492.645657" stroke="black" stroke-width="4.758"/>
<line x1="3242.078724" y1="1307.574246" x2="3446.518039" y2="1472.779041" stroke="black" stroke-width="4.758"/>
<line x1="421.513809" y1="793.235486" x2="211.884233" y2="793.235486" stroke="black" stroke-width="4.758"/>
<line x1="211.884233" y1="793.235486" x2="211.884233" y2="1124.86812" stroke="black" stroke-width="4.758"/>
<line x1="211.884233" y1="1124.86812" x2="421.513809" y2="1124.86812" stroke="black" stroke-width="4.758"/>
<line x1="421.513809" y1="1124.86812" x2="421.513809" y2="793.235486" stroke="black" stroke-width="4.758"/>
<line x1="422.187859" y1="1065.551714" x2="211.210183" y2="1065.551714" stroke="black" stroke-width="4.758"/>
<line x1="211.210183" y1="1065.551714" x2="420.839759" y2="1015.672009" stroke="black" stroke-width="4.758"/>
<line x1="420.839759" y1="1015.672009" x2="389.159406" y2="969.16255" stroke="black" stroke-width="4.758"/>
<line x1="389.159406" y1="969.16255" x2="211.210183" y2="1066.225764" stroke="black" stroke-width="4.758"/>
<line x1="2025.345003" y1="2258.352886" x2="2234.974574" y2="2258.352886" stroke="black" stroke-width="4.758"/>
<line x1="2234.974574" y1="2258.352886" x2="2234.974574" y2="1926.720257" stroke="black" stroke-width="4.758"/>
<line x1="2234.974574" y1="1926.720257" x2="2025.345003" y2="1926.720257" stroke="black" stroke-width="4.758"/>
<line x1="2025.345003" y1="1926.720257" x2="2025.345003" y2="2258.352886" stroke="black" stroke-width="4.758"/>
<line x1="2024.670949" y1="1986.036659" x2="2235.64862" y2="1986.036659" stroke="black" stroke-width="4.758"/>
<line x1="2235.64862" y1="1986.036659" x2="2026.019049" y2="2035.916364" stroke="black" stroke-width="4.758"/>
<line x1="2026.019049" y1="2035.916364" x2="2057.699402" y2="2082.425818" stroke="black" stroke-width="4.758"/>
<line x1="2057.699402" y1="2082.425818" x2="2235.64862" y2="1985.362609" stroke="black" stroke-width="4.758"/>
<line x1="983.956195" y1="1974.352173" x2="1216.146619" y2="1974.352173" stroke="black" stroke-width="4.758"/>
<line x1="1216.146619" y1="1974.352173" x2="1216.146619" y2="2207.018396" stroke="black" stroke-width="4.758"/>
<line x1="1216.146619" y1="2207.018396" x2="983.956195" y2="2207.018396" stroke="black" stroke-width="4.758"/>
<line x1="983.956195" y1="2207.018396" x2="983.956195" y2="1974.352173" stroke="black" stroke-width="4.758"/>
<line x1="983.480395" y1="1973.876373" x2="1216.146619" y2="2207.018396" stroke="black" stroke-width="4.758"/>
<line x1="983.956195" y1="2206.542596" x2="1215.670819" y2="1974.352173" stroke="black" stroke-width="4.758"/>
<line x1="3594.690518" y1="534.321745" x2="3391.28235" y2="534.321745" stroke="black" stroke-width="4.758"/>
<line x1="3391.28235" y1="534.321745" x2="3391.28235" y2="330.496758" stroke="black" stroke-width="4.758"/>
<line x1="3391.28235" y1="330.496758" x2="3594.690518" y2="330.496758" stroke="black" stroke-width="4.758"/>
<line x1="3594.690518" y1="330.496758" x2="3594.690518" y2="534.321745" stroke="black" stroke-width="4.758"/>
<line x1="3595.107341" y1="534.738567" x2="3391.28235" y2="330.496758" stroke="black" stroke-width="4.758"/>
<line x1="3594.690518" y1="330.913581" x2="3391.699173" y2="534.321745" stroke="black" stroke-width="4.758"/>
<line x1="2926.953431" y1="1004.582727" x2="2795.203935" y2="1167.279808" stroke="black" stroke-width="4.758"/>
<line x1="2795.203935" y1="1167.279808" x2="2975.649786" y2="1313.401977" stroke="black" stroke-width="4.758"/>
<line x1="2975.649786" y1="1313.401977" x2="3107.399282" y2="1150.704895" stroke="black" stroke-width="4.758"/>
<line x1="3107.399282" y1="1150.704895" x2="2926.953431" y2="1004.582727" stroke="black" stroke-width="4.758"/>
<line x1="2952.097525" y1="1024.944013" x2="2820.348034" y2="1187.64109" stroke="black" stroke-width="4.758"/>
<line x1="777.483095" y1="904.061226" x2="997.841944" y2="904.061226" stroke="black" stroke-width="4.757996"/>
<line x1="997.841944" y1="904.061226" x2="997.841944" y2="1124.871631" stroke="black" stroke-width="4.757996"/>
<line x1="997.841944" y1="1124.871631" x2="777.483095" y2="1124.871631" stroke="black" stroke-width="4.757996"/>
<line x1="777.483095" y1="1124.871631" x2="777.483095" y2="904.061226" stroke="black" stroke-width="4.757996"/>
<line x1="777.031543" y1="903.60967" x2="997.841944" y2="1124.871631" stroke="black" stroke-width="4.757996"/>
<line x1="777.483095" y1="1124.420075" x2="997.390388" y2="904.061226" stroke="black" stroke-width="4.757996"/>
<line x1="2815.325991" y1="1500.741025" x2="2837.194682" y2="1522.609721" stroke="black" stroke-width="4.758"/>
<line x1="2837.194682" y1="1522.609721" x2="2985.565358" y2="1374.239044" stroke="black" stroke-width="4.758"/>
<line x1="2985.565358" y1="1374.239044" x2="2963.696667" y2="1352.370349" stroke="black" stroke-width="4.758"/>
<line x1="2963.696667" y1="1352.370349" x2="2815.325991" y2="1500.741025" stroke="black" stroke-width="4.758"/>
<line x1="2959.659367" y1="1645.074401" x2="2981.528062" y2="1666.943097" stroke="black" stroke-width="4.758"/>
<line x1="2981.528062" y1="1666.943097" x2="3129.898739" y2="1518.572421" stroke="black" stroke-width="4.758"/>
<line x1="3129.898739" y1="1518.572421" x2="3108.030043" y2="1496.70373" stroke="black" stroke-width="4.758"/>
<line x1="3108.030043" y1="1496.70373" x2="2959.659367" y2="1645.074401" stroke="black" stroke-width="4.758"/>
<line x1="2836.858243" y1="1522.273277" x2="2959.659367" y2="1645.074401" stroke="black" stroke-width="4.758"/>
<line x1="2984.219593" y1="1374.239044" x2="3021.564592" y2="1374.575488" stroke="black" stroke-width="4.758"/>
<line x1="3107.357165" y1="1460.368052" x2="3107.6936" y2="1497.713056" stroke="black" stroke-width="4.758"/>
<line x1="3020.218827" y1="1373.229723" x2="3108.702926" y2="1461.713821" stroke="black" stroke-width="4.758"/>
<line x1="2868.820181" y1="1490.984221" x2="2991.621306" y2="1613.78535" stroke="black" stroke-width="4.758"/>
<line x1="1398.302522" y1="595.657208" x2="1588.622541" y2="595.657208" stroke="black" stroke-width="4.758"/>
<line x1="1588.622541" y1="595.657208" x2="1588.622541" y2="131.276361" stroke="black" stroke-width="4.758"/>
<line x1="1588.622541" y1="131.276361" x2="1398.302522" y2="131.276361" stroke="black" stroke-width="4.758"/>
<line x1="1398.302522" y1="131.276361" x2="1398.302522" y2="155.066364" stroke="black" stroke-width="4.758"/>
<line x1="1398.302522" y1="155.066364" x2="1565.784138" y2="155.066364" stroke="black" stroke-width="4.758"/>
<line x1="1565.784138" y1="155.066364" x2="1565.784138" y2="570.915606" stroke="black" stroke-width="4.758"/>
<line x1="1565.784138" y1="570.915606" x2="1398.302522" y2="570.915606" stroke="black" stroke-width="4.758"/>
<line x1="1398.302522" y1="570.915606" x2="1398.302522" y2="595.657208" stroke="black" stroke-width="4.758"/>
<line x1="1404.012122" y1="570.915606" x2="1404.012122" y2="155.066364" stroke="black" stroke-width="4.758"/>
<line x1="1403.060522" y1="363.466785" x2="1564.832538" y2="363.466785" stroke="black" stroke-width="4.758"/>
<line x1="676.607136" y1="1747.938186" x2="676.607136" y2="1557.618167" stroke="black" stroke-width="4.758"/>
<line x1="676.607136" y1="1557.618167" x2="212.22629" y2="1557.618167" stroke="black" stroke-width="4.758"/>
<line x1="212.22629" y1="1557.618167" x2="212.22629" y2="1747.938186" stroke="black" stroke-width="4.758"/>
<line x1="212.22629" y1="1747.938186" x2="236.016292" y2="1747.938186" stroke="black" stroke-width="4.758"/>
<line x1="236.016292" y1="1747.938186" x2="236.016292" y2="1580.45657" stroke="black" stroke-width="4.758"/>
<line x1="236.016292" y1="1580.45657" x2="651.865534" y2="1580.45657" stroke="black" stroke-width="4.758"/>
<line x1="651.865534" y1="1580.45657" x2="651.865534" y2="1747.938186" stroke="black" stroke-width="4.758"/>
<line x1="651.865534" y1="1747.938186" x2="676.607136" y2="1747.938186" stroke="black" stroke-width="4.758"/>
<line x1="651.865534" y1="1742.228586" x2="236.016292" y2="1742.228586" stroke="black" stroke-width="4.758"/>
<line x1="444.416713" y1="1743.180186" x2="444.416713" y2="1581.40817" stroke="black" stroke-width="4.758"/>
<line x1="373.832503" y1="1522.052933" x2="373.832503" y2="1161.21801" stroke="black" stroke-width="4.758005"/>
<line x1="373.832503" y1="1161.21801" x2="213.136786" y2="1161.21801" stroke="black" stroke-width="4.758005"/>
<line x1="213.136786" y1="1161.21801" x2="213.136786" y2="1522.052933" stroke="black" stroke-width="4.758005"/>
<line x1="213.136786" y1="1522.052933" x2="373.832503" y2="1522.052933" stroke="black" stroke-width="4.758005"/>
<line x1="237.971579" y1="1230.609341" x2="237.971579" y2="1492.835532" stroke="black" stroke-width="4.758005"/>
<line x1="237.971579" y1="1492.835532" x2="346.806404" y2="1492.835532" stroke="black" stroke-width="4.758005"/>
<line x1="346.806404" y1="1492.835532" x2="346.806404" y2="1225.496297" stroke="black" stroke-width="4.758005"/>
<path d="m 237.73601,1231.356907 a 58.434804782169536,58.434804782169536 0 0 1 110.09494500000002,-3.9600400000001628" fill="none" stroke="black" stroke-width="4.758005"/>
<line x1="619.394498" y1="130.465104" x2="839.753347" y2="130.465104" stroke="black" stroke-width="4.757996"/>
<line x1="839.753347" y1="130.465104" x2="839.753347" y2="351.27551" stroke="black" stroke-width="4.757996"/>
<line x1="839.753347" y1="351.27551" x2="619.394498" y2="351.27551" stroke="black" stroke-width="4.757996"/>
<line x1="619.394498" y1="351.27551" x2="619.394498" y2="130.465104" stroke="black" stroke-width="4.757996"/>
<line x1="618.942946" y1="130.013548" x2="839.753347" y2="351.27551" stroke="black" stroke-width="4.757996"/>
<line x1="619.394498" y1="350.823953" x2="839.301791" y2="130.465104" stroke="black" stroke-width="4.757996"/>
<line x1="598.439414" y1="572.549142" x2="628.896564" y2="577.919554" stroke="black" stroke-width="4.758"/>
<line x1="628.896564" y1="577.919554" x2="665.332786" y2="371.279492" stroke="black" stroke-width="4.758"/>
<line x1="665.332786" y1="371.279492" x2="634.875631" y2="365.909071" stroke="black" stroke-width="4.758"/>
<line x1="634.875631" y1="365.909071" x2="598.439414" y2="572.549142" stroke="black" stroke-width="4.758"/>
<line x1="799.456621" y1="607.993897" x2="829.913771" y2="613.364314" stroke="black" stroke-width="4.758"/>
<line x1="829.913771" y1="613.364314" x2="866.349993" y2="406.724247" stroke="black" stroke-width="4.758"/>
<line x1="866.349993" y1="406.724247" x2="835.892838" y2="401.35383" stroke="black" stroke-width="4.758"/>
<line x1="835.892838" y1="401.35383" x2="799.456621" y2="607.993897" stroke="black" stroke-width="4.758"/>
<line x1="628.427994" y1="577.836937" x2="799.456621" y2="607.993897" stroke="black" stroke-width="4.758"/>
<line x1="664.230396" y1="372.051389" x2="695.014602" y2="350.906774" stroke="black" stroke-width="4.758"/>
<line x1="814.500361" y1="371.975336" x2="836.196169" y2="402.373593" stroke="black" stroke-width="4.758"/>
<line x1="693.14032" y1="350.576286" x2="816.374643" y2="372.305823" stroke="black" stroke-width="4.758"/>
<line x1="636.663017" y1="533.873827" x2="807.69164" y2="564.030788" stroke="black" stroke-width="4.758"/>
<line x1="429.340922" y1="2298.092222" x2="210.279051" y2="2298.092222" stroke="black" stroke-width="4.758"/>
<line x1="210.279051" y1="2298.092222" x2="210.279051" y2="2644.646694" stroke="black" stroke-width="4.758"/>
<line x1="210.279051" y1="2644.646694" x2="429.340922" y2="2644.646694" stroke="black" stroke-width="4.758"/>
<line x1="429.340922" y1="2644.646694" x2="429.340922" y2="2298.092222" stroke="black" stroke-width="4.758"/>
<line x1="430.0453" y1="2582.66134" x2="209.574674" y2="2582.66134" stroke="black" stroke-width="4.758"/>
<line x1="209.574674" y1="2582.66134" x2="428.636544" y2="2530.537295" stroke="black" stroke-width="4.758"/>
<line x1="428.636544" y1="2530.537295" x2="395.53073" y2="2481.935144" stroke="black" stroke-width="4.758"/>
<line x1="395.53073" y1="2481.935144" x2="209.574674" y2="2583.365718" stroke="black" stroke-width="4.758"/>
<line x1="431.232906" y1="2574.771989" x2="499.789226" y2="2506.215665" stroke="black" stroke-width="4.758005"/>
<line x1="499.789226" y1="2506.215665" x2="568.486034" y2="2574.912474" stroke="black" stroke-width="4.758005"/>
<line x1="568.486034" y1="2574.912474" x2="499.92971" y2="2643.468798" stroke="black" stroke-width="4.758005"/>
<line x1="499.92971" y1="2643.468798" x2="431.232906" y2="2574.771989" stroke="black" stroke-width="4.758005"/>
<line x1="430.951937" y1="2574.771989" x2="568.486034" y2="2574.912474" stroke="black" stroke-width="4.758005"/>
<line x1="499.789226" y1="2643.328313" x2="499.648741" y2="2506.35615" stroke="black" stroke-width="4.758005"/>
<line x1="1217.492208" y1="2297.808777" x2="998.430337" y2="2297.808777" stroke="black" stroke-width="4.758"/>
<line x1="998.430337" y1="2297.808777" x2="998.430337" y2="2644.363249" stroke="black" stroke-width="4.758"/>
<line x1="998.430337" y1="2644.363249" x2="1217.492208" y2="2644.363249" stroke="black" stroke-width="4.758"/>
<line x1="1217.492208" y1="2644.363249" x2="1217.492208" y2="2297.808777" stroke="black" stroke-width="4.758"/>
<line x1="1218.196586" y1="2582.377895" x2="997.725959" y2="2582.377895" stroke="black" stroke-width="4.758"/>
<line x1="997.725959" y1="2582.377895" x2="1216.78783" y2="2530.25385" stroke="black" stroke-width="4.758"/>
<line x1="1216.78783" y1="2530.25385" x2="1183.682015" y2="2481.651699" stroke="black" stroke-width="4.758"/>
<line x1="1183.682015" y1="2481.651699" x2="997.725959" y2="2583.082273" stroke="black" stroke-width="4.758"/>
<line x1="928.005828" y1="2506.641176" x2="996.562152" y2="2575.197496" stroke="black" stroke-width="4.758005"/>
<line x1="996.562152" y1="2575.197496" x2="927.865344" y2="2643.894304" stroke="black" stroke-width="4.758005"/>
<line x1="927.865344" y1="2643.894304" x2="859.30902" y2="2575.33798" stroke="black" stroke-width="4.758005"/>
<line x1="859.30902" y1="2575.33798" x2="928.005828" y2="2506.641176" stroke="black" stroke-width="4.758005"/>
<line x1="928.005828" y1="2506.360207" x2="927.865344" y2="2643.894304" stroke="black" stroke-width="4.758005"/>
<line x1="859.449504" y1="2575.197496" x2="996.421668" y2="2575.057011" stroke="black" stroke-width="4.758005"/>
<line x1="1661.943566" y1="2607.239065" x2="1882.302415" y2="2607.239065" stroke="black" stroke-width="4.757996"/>
<line x1="1882.302415" y1="2607.239065" x2="1882.302415" y2="2828.04947" stroke="black" stroke-width="4.757996"/>
<line x1="1882.302415" y1="2828.04947" x2="1661.943566" y2="2828.04947" stroke="black" stroke-width="4.757996"/>
<line x1="1661.943566" y1="2828.04947" x2="1661.943566" y2="2607.239065" stroke="black" stroke-width="4.757996"/>
<line x1="1661.492014" y1="2606.787508" x2="1882.302415" y2="2828.04947" stroke="black" stroke-width="4.757996"/>
<line x1="1661.943566" y1="2827.597914" x2="1881.850859" y2="2607.239065" stroke="black" stroke-width="4.757996"/>
<line x1="1896.574808" y1="2372.84181" x2="1865.723145" y2="2370.684449" stroke="black" stroke-width="4.758"/>
<line x1="1865.723145" y1="2370.684449" x2="1851.086293" y2="2580.001142" stroke="black" stroke-width="4.758"/>
<line x1="1851.086293" y1="2580.001142" x2="1881.937965" y2="2582.158499" stroke="black" stroke-width="4.758"/>
<line x1="1881.937965" y1="2582.158499" x2="1896.574808" y2="2372.84181" stroke="black" stroke-width="4.758"/>
<line x1="1692.953812" y1="2358.603238" x2="1662.102144" y2="2356.445882" stroke="black" stroke-width="4.758"/>
<line x1="1662.102144" y1="2356.445882" x2="1647.465297" y2="2565.76257" stroke="black" stroke-width="4.758"/>
<line x1="1647.465297" y1="2565.76257" x2="1678.31696" y2="2567.919931" stroke="black" stroke-width="4.758"/>
<line x1="1678.31696" y1="2567.919931" x2="1692.953812" y2="2358.603238" stroke="black" stroke-width="4.758"/>
<line x1="1866.197782" y1="2370.717636" x2="1692.953812" y2="2358.603238" stroke="black" stroke-width="4.758"/>
<line x1="1852.101959" y1="2579.118238" x2="1823.696603" y2="2603.364845" stroke="black" stroke-width="4.758"/>
<line x1="1702.663142" y1="2594.901362" x2="1677.908702" y2="2566.937461" stroke="black" stroke-width="4.758"/>
<line x1="1825.595164" y1="2603.497607" x2="1700.764577" y2="2594.768601" stroke="black" stroke-width="4.758"/>
<line x1="1862.603271" y1="2415.300704" x2="1689.359297" y2="2403.186306" stroke="black" stroke-width="4.758"/>
<line x1="2808.66057" y1="2475.357719" x2="2978.167377" y2="2475.357719" stroke="black" stroke-width="4.758005"/>
<line x1="2978.167377" y1="2475.357719" x2="2978.167377" y2="2645.211874" stroke="black" stroke-width="4.758005"/>
<line x1="2978.167377" y1="2645.211874" x2="2808.66057" y2="2645.211874" stroke="black" stroke-width="4.758005"/>
<line x1="2808.66057" y1="2645.211874" x2="2808.66057" y2="2475.357719" stroke="black" stroke-width="4.758005"/>
<line x1="2808.313218" y1="2475.010368" x2="2978.167377" y2="2645.211874" stroke="black" stroke-width="4.758005"/>
<line x1="2808.66057" y1="2644.864526" x2="2977.820025" y2="2475.357719" stroke="black" stroke-width="4.758005"/>
<line x1="2976.846071" y1="2474.847604" x2="3146.352878" y2="2474.847604" stroke="black" stroke-width="4.758005"/>
<line x1="3146.352878" y1="2474.847604" x2="3146.352878" y2="2644.701759" stroke="black" stroke-width="4.758005"/>
<line x1="3146.352878" y1="2644.701759" x2="2976.846071" y2="2644.701759" stroke="black" stroke-width="4.758005"/>
<line x1="2976.846071" y1="2644.701759" x2="2976.846071" y2="2474.847604" stroke="black" stroke-width="4.758005"/>
<line x1="2976.498719" y1="2474.500253" x2="3146.352878" y2="2644.701759" stroke="black" stroke-width="4.758005"/>
<line x1="2976.846071" y1="2644.354411" x2="3146.005526" y2="2474.847604" stroke="black" stroke-width="4.758005"/>
<line x1="3266.406297" y1="2337.896583" x2="3435.913104" y2="2337.896583" stroke="black" stroke-width="4.758005"/>
<line x1="3435.913104" y1="2337.896583" x2="3435.913104" y2="2507.750737" stroke="black" stroke-width="4.758005"/>
<line x1="3435.913104" y1="2507.750737" x2="3266.406297" y2="2507.750737" stroke="black" stroke-width="4.758005"/>
<line x1="3266.406297" y1="2507.750737" x2="3266.406297" y2="2337.896583" stroke="black" stroke-width="4.758005"/>
<line x1="3266.058945" y1="2337.549231" x2="3435.913104" y2="2507.750737" stroke="black" stroke-width="4.758005"/>
<line x1="3266.406297" y1="2507.40339" x2="3435.565752" y2="2337.896583" stroke="black" stroke-width="4.758005"/>
<line x1="3434.14941" y1="2338.590075" x2="3603.656217" y2="2338.590075" stroke="black" stroke-width="4.758005"/>
<line x1="3603.656217" y1="2338.590075" x2="3603.656217" y2="2508.444229" stroke="black" stroke-width="4.758005"/>
<line x1="3603.656217" y1="2508.444229" x2="3434.14941" y2="2508.444229" stroke="black" stroke-width="4.758005"/>
<line x1="3434.14941" y1="2508.444229" x2="3434.14941" y2="2338.590075" stroke="black" stroke-width="4.758005"/>
<line x1="3433.802058" y1="2338.242723" x2="3603.656217" y2="2508.444229" stroke="black" stroke-width="4.758005"/>
<line x1="3434.14941" y1="2508.096882" x2="3603.308865" y2="2338.590075" stroke="black" stroke-width="4.758005"/>
</g>
</svg>
