<?xml version="1.0"?>
<svg xmlns:xlink="http://www.w3.org/1999/xlink" width="3036.0" height="2967.36">
<image x="0" y="0" width="3036.0" height="2967.36" xlink:href="ground16-08.png"/>
<g style="stroke-linecap:round">
<line x1="711.022134" y1="974.631887" x2="924.757627" y2="974.631887" stroke="black" stroke-width="4.752"/>
<line x1="924.757627" y1="974.631887" x2="924.757627" y2="936.402775" stroke="black" stroke-width="4.752"/>
<line x1="924.757627" y1="936.402775" x2="711.022134" y2="936.402775" stroke="black" stroke-width="4.752"/>
<line x1="711.022134" y1="936.402775" x2="711.022134" y2="974.631887" stroke="black" stroke-width="4.752"/>
<line x1="721.013835" y1="974.631887" x2="721.013835" y2="987.66454" stroke="black" stroke-width="4.752"/>
<line x1="721.013835" y1="987.66454" x2="914.331507" y2="987.66454" stroke="black" stroke-width="4.752"/>
<line x1="914.331507" y1="974.631887" x2="914.331507" y2="987.66454" stroke="black" stroke-width="4.752"/>
<line x1="940.349396" y1="973.778594" x2="1151.564423" y2="973.778594" stroke="black" stroke-width="4.752"/>
<line x1="1151.564423" y1="973.778594" x2="1151.564423" y2="936.000297" stroke="black" stroke-width="4.752"/>
<line x1="1151.564423" y1="936.000297" x2="940.349396" y2="936.000297" stroke="black" stroke-width="4.752"/>
<line x1="940.349396" y1="936.000297" x2="940.349396" y2="973.778594" stroke="black" stroke-width="4.752"/>
<line x1="950.22327" y1="973.778594" x2="950.22327" y2="986.657559" stroke="black" stroke-width="4.752"/>
<line x1="950.22327" y1="986.657559" x2="1141.261253" y2="986.657559" stroke="black" stroke-width="4.752"/>
<line x1="1141.261253" y1="973.778594" x2="1141.261253" y2="986.657559" stroke="black" stroke-width="4.752"/>
<line x1="1007.221765" y1="1065.732196" x2="1007.221765" y2="1364.77194" stroke="black" stroke-width="4.752"/>
<line x1="1007.221765" y1="1364.77194" x2="1480.300716" y2="1364.77194" stroke="black" stroke-width="4.752"/>
<line x1="1480.300716" y1="1364.77194" x2="1480.300716" y2="1065.732196" stroke="black" stroke-width="4.752"/>
<line x1="1480.300716" y1="1065.732196" x2="1007.221765" y2="1065.732196" stroke="black" stroke-width="4.752"/>
<line x1="1395.684967" y1="1064.770656" x2="1395.684967" y2="1365.733483" stroke="black" stroke-width="4.752"/>
<line x1="1395.684967" y1="1365.733483" x2="1324.530816" y2="1066.69374" stroke="black" stroke-width="4.752"/>
<line x1="1324.530816" y1="1066.69374" x2="1258.184379" y2="1111.886242" stroke="black" stroke-width="4.752"/>
<line x1="1258.184379" y1="1111.886242" x2="1396.64651" y2="1365.733483" stroke="black" stroke-width="4.752"/>
<line x1="1502.231665" y1="501.015604" x2="1502.231665" y2="289.277039" stroke="black" stroke-width="4.752"/>
<line x1="1502.231665" y1="289.277039" x2="1469.590426" y2="289.277039" stroke="black" stroke-width="4.752"/>
<line x1="1469.590426" y1="289.277039" x2="1469.590426" y2="501.015604" stroke="black" stroke-width="4.752"/>
<line x1="1469.590426" y1="501.015604" x2="1502.231665" y2="501.015604" stroke="black" stroke-width="4.752"/>
<line x1="1470.019914" y1="481.259067" x2="1501.802174" y2="481.259067" stroke="black" stroke-width="4.752"/>
<line x1="1470.019914" y1="309.463068" x2="1503.090645" y2="309.463068" stroke="black" stroke-width="4.752"/>
<line x1="1485.052066" y1="481.688555" x2="1485.052066" y2="309.892559" stroke="black" stroke-width="4.752"/>
<line x1="1502.091067" y1="721.307997" x2="1502.091067" y2="510.577708" stroke="black" stroke-width="4.752"/>
<line x1="1502.091067" y1="510.577708" x2="1469.605262" y2="510.577708" stroke="black" stroke-width="4.752"/>
<line x1="1469.605262" y1="510.577708" x2="1469.605262" y2="721.307997" stroke="black" stroke-width="4.752"/>
<line x1="1469.605262" y1="721.307997" x2="1502.091067" y2="721.307997" stroke="black" stroke-width="4.752"/>
<line x1="1470.032707" y1="701.645535" x2="1501.663622" y2="701.645535" stroke="black" stroke-width="4.752"/>
<line x1="1470.032707" y1="530.667614" x2="1502.945957" y2="530.667614" stroke="black" stroke-width="4.752"/>
<line x1="1484.993276" y1="702.07298" x2="1484.993276" y2="531.095059" stroke="black" stroke-width="4.752"/>
<line x1="1009.246133" y1="1538.018051" x2="1009.246133" y2="1837.057794" stroke="black" stroke-width="4.752"/>
<line x1="1009.246133" y1="1837.057794" x2="1482.325083" y2="1837.057794" stroke="black" stroke-width="4.752"/>
<line x1="1482.325083" y1="1837.057794" x2="1482.325083" y2="1538.018051" stroke="black" stroke-width="4.752"/>
<line x1="1482.325083" y1="1538.018051" x2="1009.246133" y2="1538.018051" stroke="black" stroke-width="4.752"/>
<line x1="1397.709335" y1="1537.05651" x2="1397.709335" y2="1838.019337" stroke="black" stroke-width="4.752"/>
<line x1="1397.709335" y1="1838.019337" x2="1326.555183" y2="1538.979594" stroke="black" stroke-width="4.752"/>
<line x1="1326.555183" y1="1538.979594" x2="1260.208747" y2="1584.172096" stroke="black" stroke-width="4.752"/>
<line x1="1260.208747" y1="1584.172096" x2="1398.670878" y2="1838.019337" stroke="black" stroke-width="4.752"/>
<line x1="1678.039187" y1="2136.786107" x2="1678.039187" y2="2118.395265" stroke="black" stroke-width="4.752"/>
<line x1="1678.039187" y1="2118.395265" x2="1642.154614" y2="2118.395265" stroke="black" stroke-width="4.752"/>
<line x1="1642.154614" y1="2118.395265" x2="1642.154614" y2="2136.786107" stroke="black" stroke-width="4.752"/>
<line x1="1642.154614" y1="2136.786107" x2="1678.039187" y2="2136.786107" stroke="black" stroke-width="4.752"/>
<line x1="1642.154614" y1="1938.523842" x2="1463.180305" y2="1938.523842" stroke="black" stroke-width="4.752"/>
<line x1="1678.936301" y1="1938.075285" x2="1678.936301" y2="1919.684443" stroke="black" stroke-width="4.752"/>
<line x1="1678.936301" y1="1919.684443" x2="1643.051729" y2="1919.684443" stroke="black" stroke-width="4.752"/>
<line x1="1643.051729" y1="1919.684443" x2="1643.051729" y2="1938.075285" stroke="black" stroke-width="4.752"/>
<line x1="1643.051729" y1="1938.075285" x2="1678.936301" y2="1938.075285" stroke="black" stroke-width="4.752"/>
<path d="m 1643.500286,2118.395265 a 179.8714235,179.8714235 0 0 1 -179.87142399999993,-179.87142300000005" fill="none" stroke="black" stroke-width="4.752"/>
<line x1="487.33825" y1="2244.27782" x2="325.319491" y2="2244.27782" stroke="black" stroke-width="4.752"/>
<line x1="325.319491" y1="2244.27782" x2="325.319491" y2="2200.979706" stroke="black" stroke-width="4.752"/>
<line x1="487.33825" y1="2200.979706" x2="325.319491" y2="2200.979706" stroke="black" stroke-width="4.752"/>
<line x1="487.33825" y1="2244.27782" x2="487.33825" y2="2200.979706" stroke="black" stroke-width="4.752"/>
<line x1="450.674521" y1="2268.720305" x2="450.674521" y2="2244.27782" stroke="black" stroke-width="4.752"/>
<line x1="363.379933" y1="2244.27782" x2="363.379933" y2="2270.117018" stroke="black" stroke-width="4.752"/>
<circle cx="407.725584" cy="2308.52664" r="58.66196392785571" fill="none" stroke="black" stroke-width="4.752"/>
<circle cx="407.725584" cy="2308.52664" r="50.281683366733475" fill="none" stroke="black" stroke-width="4.752"/>
<line x1="1656.101425" y1="1405.921532" x2="1656.101425" y2="1852.599207" stroke="black" stroke-width="4.752"/>
<line x1="1657.23308" y1="1857.09207" x2="1502.675341" y2="1857.09207" stroke="black" stroke-width="4.752"/>
<line x1="1501.367369" y1="1406.449023" x2="1501.367369" y2="1857.4389" stroke="black" stroke-width="4.752"/>
<line x1="1655.312274" y1="1407.28377" x2="1501.668598" y2="1407.28377" stroke="black" stroke-width="4.752"/>
<line x1="1643.506793" y1="1418.978785" x2="1643.506793" y2="1559.318975" stroke="black" stroke-width="4.752"/>
<line x1="1643.506793" y1="1559.318975" x2="1513.962004" y2="1559.318975" stroke="black" stroke-width="4.752"/>
<line x1="1513.962004" y1="1418.978785" x2="1513.962004" y2="1559.318975" stroke="black" stroke-width="4.752"/>
<line x1="1643.506793" y1="1418.978785" x2="1513.962004" y2="1418.978785" stroke="black" stroke-width="4.752"/>
<line x1="1635.410243" y1="1580.909774" x2="1635.410243" y2="1679.8676" stroke="black" stroke-width="4.752"/>
<line x1="1612.91983" y1="1580.909774" x2="1612.91983" y2="1679.8676" stroke="black" stroke-width="4.752"/>
<line x1="1589.529797" y1="1581.809391" x2="1589.529797" y2="1679.8676" stroke="black" stroke-width="4.752"/>
<line x1="1567.039383" y1="1581.809391" x2="1567.039383" y2="1679.8676" stroke="black" stroke-width="4.752"/>
<line x1="1544.548967" y1="1580.909774" x2="1544.548967" y2="1679.8676" stroke="black" stroke-width="4.752"/>
<line x1="1522.058551" y1="1580.909774" x2="1522.058551" y2="1679.8676" stroke="black" stroke-width="4.752"/>
<line x1="1514.861618" y1="1472.955781" x2="1530.155101" y2="1472.955781" stroke="black" stroke-width="4.752"/>
<line x1="1530.155101" y1="1472.955781" x2="1530.155101" y2="1507.141213" stroke="black" stroke-width="4.752"/>
<line x1="1530.155101" y1="1507.141213" x2="1515.761235" y2="1507.141213" stroke="black" stroke-width="4.752"/>
<line x1="1643.506793" y1="1703.257631" x2="1643.506793" y2="1843.597821" stroke="black" stroke-width="4.752"/>
<line x1="1643.506793" y1="1843.597821" x2="1513.962004" y2="1843.597821" stroke="black" stroke-width="4.752"/>
<line x1="1513.962004" y1="1703.257631" x2="1513.962004" y2="1843.597821" stroke="black" stroke-width="4.752"/>
<line x1="1643.506793" y1="1703.257631" x2="1513.962004" y2="1703.257631" stroke="black" stroke-width="4.752"/>
<line x1="1513.962004" y1="1757.234627" x2="1529.255484" y2="1757.234627" stroke="black" stroke-width="4.752"/>
<line x1="1529.255484" y1="1757.234627" x2="1529.255484" y2="1791.420059" stroke="black" stroke-width="4.752"/>
<line x1="1529.255484" y1="1791.420059" x2="1514.861618" y2="1791.420059" stroke="black" stroke-width="4.752"/>
<circle cx="1627.313696" cy="1543.125875" r="8.096549451844107" fill="none" stroke="black" stroke-width="4.752"/>
<circle cx="1626.414079" cy="1827.404724" r="8.096549451844107" fill="none" stroke="black" stroke-width="4.752"/>
<line x1="2018.184912" y1="1801.445279" x2="2075.428941" y2="1696.014899" stroke="black" stroke-width="4.752"/>
<line x1="2075.428941" y1="1696.014899" x2="2181.075365" y2="1753.376228" stroke="black" stroke-width="4.752"/>
<line x1="2181.075365" y1="1753.376228" x2="2123.83134" y2="1858.806608" stroke="black" stroke-width="4.752"/>
<line x1="2123.83134" y1="1858.806608" x2="2018.184912" y2="1801.445279" stroke="black" stroke-width="4.752"/>
<line x1="2017.851565" y1="1801.544023" x2="2181.075365" y2="1753.376228" stroke="black" stroke-width="4.752"/>
<line x1="2123.615292" y1="1858.689305" x2="2075.311638" y2="1696.230946" stroke="black" stroke-width="4.752"/>
<line x1="2152.881012" y1="974.619434" x2="2172.738443" y2="1087.236509" stroke="black" stroke-width="4.752"/>
<line x1="2172.738443" y1="1087.236509" x2="2160.58552" y2="1089.3794" stroke="black" stroke-width="4.752"/>
<line x1="2140.728092" y1="976.762322" x2="2160.58552" y2="1089.3794" stroke="black" stroke-width="4.752"/>
<line x1="2152.881012" y1="974.619434" x2="2140.728092" y2="976.762322" stroke="black" stroke-width="4.752"/>
<line x1="2142.728122" y1="988.105048" x2="2115.705971" y2="991.199011" stroke="black" stroke-width="4.752"/>
<line x1="2158.58549" y1="1078.036674" x2="2131.324586" y2="1084.514276" stroke="black" stroke-width="4.752"/>
<line x1="1759.936533" y1="1043.906149" x2="1779.793961" y2="1156.523225" stroke="black" stroke-width="4.752"/>
<line x1="1779.793961" y1="1156.523225" x2="1791.136686" y2="1154.523195" stroke="black" stroke-width="4.752"/>
<line x1="1771.279258" y1="1041.90612" x2="1791.136686" y2="1154.523195" stroke="black" stroke-width="4.752"/>
<line x1="1759.936533" y1="1043.906149" x2="1771.279258" y2="1041.90612" stroke="black" stroke-width="4.752"/>
<line x1="1774.756817" y1="1052.152934" x2="1801.207531" y2="1045.818188" stroke="black" stroke-width="4.752"/>
<line x1="1790.614191" y1="1142.084555" x2="1818.589392" y2="1139.657928" stroke="black" stroke-width="4.752"/>
<line x1="2057.146524" y1="1251.30466" x2="2055.003636" y2="1239.15174" stroke="black" stroke-width="4.752"/>
<line x1="2055.003636" y1="1239.15174" x2="1942.386558" y2="1259.009168" stroke="black" stroke-width="4.752"/>
<line x1="1944.529446" y1="1271.162088" x2="1942.386558" y2="1259.009168" stroke="black" stroke-width="4.752"/>
<line x1="2057.146524" y1="1251.30466" x2="1944.529446" y2="1271.162088" stroke="black" stroke-width="4.752"/>
<line x1="1954.539481" y1="1256.86628" x2="1947.251682" y2="1229.748234" stroke="black" stroke-width="4.752"/>
<line x1="2043.660907" y1="1241.151767" x2="2040.424085" y2="1213.319424" stroke="black" stroke-width="4.752"/>
<line x1="1988.812864" y1="859.027517" x2="1990.955752" y2="871.180435" stroke="black" stroke-width="4.752"/>
<line x1="1990.955752" y1="871.180435" x2="1878.338674" y2="891.037868" stroke="black" stroke-width="4.752"/>
<line x1="1876.195786" y1="878.884945" x2="1878.338674" y2="891.037868" stroke="black" stroke-width="4.752"/>
<line x1="1988.812864" y1="859.027517" x2="1876.195786" y2="878.884945" stroke="black" stroke-width="4.752"/>
<line x1="1890.491597" y1="888.894978" x2="1892.918227" y2="916.870178" stroke="black" stroke-width="4.752"/>
<line x1="1979.613026" y1="873.180465" x2="1986.090628" y2="900.441369" stroke="black" stroke-width="4.752"/>
<circle cx="1966.671155" cy="1065.094803" r="166.1840598193902" fill="none" stroke="black" stroke-width="4.752"/>
<line x1="2482.846257" y1="356.690968" x2="2482.846257" y2="166.610968" stroke="black" stroke-width="4.752"/>
<line x1="2482.846257" y1="166.610968" x2="2019.051057" y2="166.610968" stroke="black" stroke-width="4.752"/>
<line x1="2019.051057" y1="166.610968" x2="2019.051057" y2="356.690968" stroke="black" stroke-width="4.752"/>
<line x1="2019.051057" y1="356.690968" x2="2042.811057" y2="356.690968" stroke="black" stroke-width="4.752"/>
<line x1="2042.811057" y1="356.690968" x2="2042.811057" y2="189.420568" stroke="black" stroke-width="4.752"/>
<line x1="2042.811057" y1="189.420568" x2="2458.135857" y2="189.420568" stroke="black" stroke-width="4.752"/>
<line x1="2458.135857" y1="189.420568" x2="2458.135857" y2="356.690968" stroke="black" stroke-width="4.752"/>
<line x1="2458.135857" y1="356.690968" x2="2482.846257" y2="356.690968" stroke="black" stroke-width="4.752"/>
<line x1="2458.135857" y1="350.988568" x2="2042.811057" y2="350.988568" stroke="black" stroke-width="4.752"/>
<line x1="2250.948657" y1="351.938968" x2="2250.948657" y2="190.370968" stroke="black" stroke-width="4.752"/>
<line x1="2181.960797" y1="1416.096174" x2="2181.960797" y2="1434.145656" stroke="black" stroke-width="4.752"/>
<line x1="2181.960797" y1="1434.145656" x2="2217.1793" y2="1434.145656" stroke="black" stroke-width="4.752"/>
<line x1="2217.1793" y1="1434.145656" x2="2217.1793" y2="1416.096174" stroke="black" stroke-width="4.752"/>
<line x1="2217.1793" y1="1416.096174" x2="2181.960797" y2="1416.096174" stroke="black" stroke-width="4.752"/>
<line x1="2217.1793" y1="1610.678396" x2="2392.831579" y2="1610.678396" stroke="black" stroke-width="4.752"/>
<line x1="2181.080334" y1="1611.118629" x2="2181.080334" y2="1629.168111" stroke="black" stroke-width="4.752"/>
<line x1="2181.080334" y1="1629.168111" x2="2216.298836" y2="1629.168111" stroke="black" stroke-width="4.752"/>
<line x1="2216.298836" y1="1629.168111" x2="2216.298836" y2="1611.118629" stroke="black" stroke-width="4.752"/>
<line x1="2216.298836" y1="1611.118629" x2="2181.080334" y2="1611.118629" stroke="black" stroke-width="4.752"/>
<path d="m 2215.858606,1434.145656 a 176.5327400000001,176.5327400000001 0 0 1 176.5327400000001,176.5327400000001" fill="none" stroke="black" stroke-width="4.752"/>
<line x1="2906.806806" y1="2398.658436" x2="2932.602774" y2="2379.103428" stroke="black" stroke-width="4.752"/>
<line x1="2932.602774" y1="2379.103428" x2="2932.602774" y2="2224.32762" stroke="black" stroke-width="4.752"/>
<line x1="2932.602774" y1="2224.32762" x2="2903.06223" y2="2204.356548" stroke="black" stroke-width="4.752"/>
<line x1="2903.894358" y1="2375.774916" x2="2903.894358" y2="2225.575812" stroke="black" stroke-width="4.752"/>
<circle cx="2881.010838" cy="2302.963716" r="13.730112" fill="none" stroke="black" stroke-width="4.752"/>
<path d="m 2904.595518,2374.142966 a 78.63609639097884,78.63609639097884 0 1 1 -0.422418000000107,-146.68252600000005" fill="none" stroke="black" stroke-width="4.752"/>
<path d="m 2907.497477,2398.609789 a 100.27142326108154,100.27142326108154 0 1 1 -3.230757999999696,-193.8133240000002" fill="none" stroke="black" stroke-width="4.752"/>
<line x1="2253.189465" y1="776.548959" x2="2283.345295" y2="769.863574" stroke="black" stroke-width="4.752"/>
<line x1="2283.345295" y1="769.863574" x2="2237.987519" y2="565.267861" stroke="black" stroke-width="4.752"/>
<line x1="2237.987519" y1="565.267861" x2="2207.831686" y2="571.953246" stroke="black" stroke-width="4.752"/>
<line x1="2207.831686" y1="571.953246" x2="2253.189465" y2="776.548959" stroke="black" stroke-width="4.752"/>
<line x1="2452.217951" y1="732.425406" x2="2482.373781" y2="725.740021" stroke="black" stroke-width="4.752"/>
<line x1="2482.373781" y1="725.740021" x2="2437.016002" y2="521.144303" stroke="black" stroke-width="4.752"/>
<line x1="2437.016002" y1="521.144303" x2="2406.860172" y2="527.829691" stroke="black" stroke-width="4.752"/>
<line x1="2406.860172" y1="527.829691" x2="2452.217951" y2="732.425406" stroke="black" stroke-width="4.752"/>
<line x1="2282.88136" y1="769.966425" x2="2452.217951" y2="732.425406" stroke="black" stroke-width="4.752"/>
<line x1="2237.265349" y1="566.401435" x2="2257.588893" y2="535.125244" stroke="black" stroke-width="4.752"/>
<line x1="2375.892539" y1="508.897958" x2="2407.52981" y2="528.654715" stroke="black" stroke-width="4.752"/>
<line x1="2255.73315" y1="535.536651" x2="2377.748282" y2="508.486548" stroke="black" stroke-width="4.752"/>
<line x1="2273.677196" y1="726.253601" x2="2443.013786" y2="688.712582" stroke="black" stroke-width="4.752"/>
<line x1="325.296217" y1="2696.361323" x2="325.296217" y2="2200.369765" stroke="black" stroke-width="4.752"/>
<line x1="325.296217" y1="2200.369765" x2="104.409286" y2="2200.369765" stroke="black" stroke-width="4.752"/>
<line x1="104.409286" y1="2200.369765" x2="104.409286" y2="2696.361323" stroke="black" stroke-width="4.752"/>
<line x1="104.409286" y1="2696.361323" x2="325.296217" y2="2696.361323" stroke="black" stroke-width="4.752"/>
<line x1="138.546358" y1="2295.752757" x2="138.546358" y2="2656.200064" stroke="black" stroke-width="4.752"/>
<line x1="138.546358" y1="2656.200064" x2="288.14705" y2="2656.200064" stroke="black" stroke-width="4.752"/>
<line x1="288.14705" y1="2656.200064" x2="288.14705" y2="2288.724536" stroke="black" stroke-width="4.752"/>
<path d="m 138.222554,2296.780332 a 80.32251858855818,80.32251858855818 0 0 1 151.332812,-5.443336999999701" fill="none" stroke="black" stroke-width="4.752"/>
<line x1="327.130608" y1="2558.107601" x2="606.097539" y2="2558.107601" stroke="black" stroke-width="4.752"/>
<line x1="606.097539" y1="2558.107601" x2="606.097539" y2="2694.161144" stroke="black" stroke-width="4.752"/>
<line x1="327.130608" y1="2694.161144" x2="606.097539" y2="2694.161144" stroke="black" stroke-width="4.752"/>
<line x1="327.130608" y1="2558.107601" x2="327.130608" y2="2694.161144" stroke="black" stroke-width="4.752"/>
<line x1="333.99045" y1="2564.967443" x2="476.332182" y2="2564.967443" stroke="black" stroke-width="4.752"/>
<line x1="476.332182" y1="2564.967443" x2="476.332182" y2="2686.72965" stroke="black" stroke-width="4.752"/>
<line x1="333.99045" y1="2686.72965" x2="476.332182" y2="2686.72965" stroke="black" stroke-width="4.752"/>
<line x1="333.99045" y1="2564.967443" x2="333.99045" y2="2686.72965" stroke="black" stroke-width="4.752"/>
<line x1="491.195177" y1="2572.970593" x2="591.234545" y2="2572.970593" stroke="black" stroke-width="4.752"/>
<line x1="491.195177" y1="2594.121774" x2="591.234545" y2="2594.121774" stroke="black" stroke-width="4.752"/>
<line x1="491.766829" y1="2615.84461" x2="591.8062" y2="2615.84461" stroke="black" stroke-width="4.752"/>
<line x1="491.766829" y1="2636.995791" x2="591.8062" y2="2636.995791" stroke="black" stroke-width="4.752"/>
<line x1="491.195177" y1="2658.146972" x2="591.234545" y2="2658.146972" stroke="black" stroke-width="4.752"/>
<line x1="491.195177" y1="2679.298153" x2="591.234545" y2="2679.298153" stroke="black" stroke-width="4.752"/>
<line x1="388.297539" y1="2686.72965" x2="388.297539" y2="2672.438311" stroke="black" stroke-width="4.752"/>
<line x1="388.297539" y1="2672.438311" x2="423.740056" y2="2672.438311" stroke="black" stroke-width="4.752"/>
<line x1="423.740056" y1="2672.438311" x2="423.740056" y2="2686.157995" stroke="black" stroke-width="4.752"/>
<circle cx="460.325884" cy="2580.40209" r="8.574803149606298" fill="none" stroke="black" stroke-width="4.752"/>
<line x1="2559.683615" y1="2456.021146" x2="2559.683615" y2="2474.198639" stroke="black" stroke-width="4.752"/>
<line x1="2559.683615" y1="2474.198639" x2="2595.151894" y2="2474.198639" stroke="black" stroke-width="4.752"/>
<line x1="2595.151894" y1="2474.198639" x2="2595.151894" y2="2456.021146" stroke="black" stroke-width="4.752"/>
<line x1="2595.151894" y1="2456.021146" x2="2559.683615" y2="2456.021146" stroke="black" stroke-width="4.752"/>
<line x1="2595.151894" y1="2651.983385" x2="2772.049933" y2="2651.983385" stroke="black" stroke-width="4.752"/>
<line x1="2558.796908" y1="2652.426739" x2="2558.796908" y2="2670.604232" stroke="black" stroke-width="4.752"/>
<line x1="2558.796908" y1="2670.604232" x2="2594.265186" y2="2670.604232" stroke="black" stroke-width="4.752"/>
<line x1="2594.265186" y1="2670.604232" x2="2594.265186" y2="2652.426739" stroke="black" stroke-width="4.752"/>
<line x1="2594.265186" y1="2652.426739" x2="2558.796908" y2="2652.426739" stroke="black" stroke-width="4.752"/>
<path d="m 2593.821833,2474.198639 a 177.7847459999998,177.7847459999998 0 0 1 177.7847459999998,177.7847459999998" fill="none" stroke="black" stroke-width="4.752"/>
<line x1="2767.318221" y1="2704.018086" x2="2934.246638" y2="2704.018086" stroke="black" stroke-width="4.752"/>
<line x1="2934.246638" y1="2704.018086" x2="2934.246638" y2="2748.628267" stroke="black" stroke-width="4.752"/>
<line x1="2767.318221" y1="2748.628267" x2="2934.246638" y2="2748.628267" stroke="black" stroke-width="4.752"/>
<line x1="2767.318221" y1="2704.018086" x2="2767.318221" y2="2748.628267" stroke="black" stroke-width="4.752"/>
<line x1="2805.092973" y1="2678.83492" x2="2805.092973" y2="2704.018086" stroke="black" stroke-width="4.752"/>
<line x1="2895.032852" y1="2704.018086" x2="2895.032852" y2="2677.395882" stroke="black" stroke-width="4.752"/>
<circle cx="2849.343394" cy="2637.822335" r="60.4395991983968" fill="none" stroke="black" stroke-width="4.752"/>
<circle cx="2849.343394" cy="2637.822335" r="51.805370741482974" fill="none" stroke="black" stroke-width="4.752"/>
<line x1="2233.611431" y1="1881.798175" x2="2252.258298" y2="1881.798175" stroke="black" stroke-width="4.752"/>
<line x1="2252.258298" y1="1881.798175" x2="2252.258298" y2="1845.414049" stroke="black" stroke-width="4.752"/>
<line x1="2252.258298" y1="1845.414049" x2="2233.611431" y2="1845.414049" stroke="black" stroke-width="4.752"/>
<line x1="2233.611431" y1="1845.414049" x2="2233.611431" y2="1881.798175" stroke="black" stroke-width="4.752"/>
<line x1="2434.633729" y1="1845.414049" x2="2434.633729" y2="1663.948218" stroke="black" stroke-width="4.752"/>
<line x1="2435.08853" y1="1882.707776" x2="2453.735397" y2="1882.707776" stroke="black" stroke-width="4.752"/>
<line x1="2453.735397" y1="1882.707776" x2="2453.735397" y2="1846.32365" stroke="black" stroke-width="4.752"/>
<line x1="2453.735397" y1="1846.32365" x2="2435.08853" y2="1846.32365" stroke="black" stroke-width="4.752"/>
<line x1="2435.08853" y1="1846.32365" x2="2435.08853" y2="1882.707776" stroke="black" stroke-width="4.752"/>
<path d="m 2252.258298,1846.778454 a 182.3754315,182.3754315 0 0 1 182.37543099999994,-182.37543200000005" fill="none" stroke="black" stroke-width="4.752"/>
<line x1="2337.890246" y1="2779.317848" x2="2356.067739" y2="2779.317848" stroke="black" stroke-width="4.752"/>
<line x1="2356.067739" y1="2779.317848" x2="2356.067739" y2="2743.849569" stroke="black" stroke-width="4.752"/>
<line x1="2356.067739" y1="2743.849569" x2="2337.890246" y2="2743.849569" stroke="black" stroke-width="4.752"/>
<line x1="2337.890246" y1="2743.849569" x2="2337.890246" y2="2779.317848" stroke="black" stroke-width="4.752"/>
<line x1="2533.852485" y1="2743.849569" x2="2533.852485" y2="2566.95153" stroke="black" stroke-width="4.752"/>
<line x1="2534.295839" y1="2780.204555" x2="2552.473332" y2="2780.204555" stroke="black" stroke-width="4.752"/>
<line x1="2552.473332" y1="2780.204555" x2="2552.473332" y2="2744.736276" stroke="black" stroke-width="4.752"/>
<line x1="2552.473332" y1="2744.736276" x2="2534.295839" y2="2744.736276" stroke="black" stroke-width="4.752"/>
<line x1="2534.295839" y1="2744.736276" x2="2534.295839" y2="2780.204555" stroke="black" stroke-width="4.752"/>
<path d="m 2356.067739,2745.17963 a 177.78474600000004,177.78474600000004 0 0 1 177.7847459999998,-177.78474600000027" fill="none" stroke="black" stroke-width="4.752"/>
</g>
</svg>
