<?xml version="1.0"?>
<svg xmlns:xlink="http://www.w3.org/1999/xlink" width="3036.0" height="2967.36">
<image x="0" y="0" width="3036.0" height="2967.36" xlink:href="ground16-08.png"/>
<g style="stroke-linecap:round">
<line x1="711.022134" y1="974.631887" x2="924.757627" y2="974.631887" stroke="black" stroke-width="4.752"/>
<line x1="924.757627" y1="974.631887" x2="924.757627" y2="936.402775" stroke="black" stroke-width="4.752"/>
<line x1="924.757627" y1="936.402775" x2="711.022134" y2="936.402775" stroke="black" stroke-width="4.752"/>
<line x1="711.022134" y1="936.402775" x2="711.022134" y2="974.631887" stroke="black" stroke-width="4.752"/>
<line x1="721.013835" y1="974.631887" x2="721.013835" y2="987.66454" stroke="black" stroke-width="4.752"/>
<line x1="721.013835" y1="987.66454" x2="914.331507" y2="987.66454" stroke="black" stroke-width="4.752"/>
<line x1="914.331507" y1="974.631887" x2="914.331507" y2="987.66454" stroke="black" stroke-width="4.752"/>
<line x1="940.349396" y1="973.778594" x2="1151.564423" y2="973.778594" stroke="black" stroke-width="4.752"/>
<line x1="1151.564423" y1="973.778594" x2="1151.564423" y2="936.000297" stroke="black" stroke-width="4.752"/>
<line x1="1151.564423" y1="936.000297" x2="940.349396" y2="936.000297" stroke="black" stroke-width="4.752"/>
<line x1="940.349396" y1="936.000297" x2="940.349396" y2="973.778594" stroke="black" stroke-width="4.752"/>
<line x1="950.22327" y1="973.778594" x2="950.22327" y2="986.657559" stroke="black" stroke-width="4.752"/>
<line x1="950.22327" y1="986.657559" x2="1141.261253" y2="986.657559" stroke="black" stroke-width="4.752"/>
<line x1="1141.261253" y1="973.778594" x2="1141.261253" y2="986.657559" stroke="black" stroke-width="4.752"/>
<line x1="1007.221765" y1="1065.732196" x2="1007.221765" y2="1364.77194" stroke="black" stroke-width="4.752"/>
<line x1="1007.221765" y1="1364.77194" x2="1480.300716" y2="1364.77194" stroke="black" stroke-width="4.752"/>
<line x1="1480.300716" y1="1364.77194" x2="1480.300716" y2="1065.732196" stroke="black" stroke-width="4.752"/>
<line x1="1480.300716" y1="1065.732196" x2="1007.221765" y2="1065.732196" stroke="black" stroke-width="4.752"/>
<line x1="1395.684967" y1="1064.770656" x2="1395.684967" y2="1365.733483" stroke="black" stroke-width="4.752"/>
<line x1="1395.684967" y1="1365.733483" x2="1324.530816" y2="1066.69374" stroke="black" stroke-width="4.752"/>
<line x1="1324.530816" y1="1066.69374" x2="1258.184379" y2="1111.886242" stroke="black" stroke-width="4.752"/>
<line x1="1258.184379" y1="1111.886242" x2="1396.64651" y2="1365.733483" stroke="black" stroke-width="4.752"/>
<line x1="1502.231665" y1="501.015604" x2="1502.231665" y2="289.277039" stroke="black" stroke-width="4.752"/>
<line x1="1502.231665" y1="289.277039" x2="1469.590426" y2="289.277039" stroke="black" stroke-width="4.752"/>
<line x1="1469.590426" y1="289.277039" x2="1469.590426" y2="501.015604" stroke="black" stroke-width="4.752"/>
<line x1="1469.590426" y1="501.015604" x2="1502.231665" y2="501.015604" stroke="black" stroke-width="4.752"/>
<line x1="1470.019914" y1="481.259067" x2="1501.802174" y2="481.259067" stroke="black" stroke-width="4.752"/>
<line x1="1470.019914" y1="309.463068" x2="1503.090645" y2="309.463068" stroke="black" stroke-width="4.752"/>
<line x1="1485.052066" y1="481.688555" x2="1485.052066" y2="309.892559" stroke="black" stroke-width="4.752"/>
<line x1="1502.091067" y1="721.307997" x2="1502.091067" y2="510.577708" stroke="black" stroke-width="4.752"/>
<line x1="1502.091067" y1="510.577708" x2="1469.605262" y2="510.577708" stroke="black" stroke-width="4.752"/>
<line x1="1469.605262" y1="510.577708" x2="1469.605262" y2="721.307997" stroke="black" stroke-width="4.752"/>
<line x1="1469.605262" y1="721.307997" x2="1502.091067" y2="721.307997" stroke="black" stroke-width="4.752"/>
<line x1="1470.032707" y1="701.645535" x2="1501.663622" y2="701.645535" stroke="black" stroke-width="4.752"/>
<line x1="1470.032707" y1="530.667614" x2="1502.945957" y2="530.667614" stroke="black" stroke-width="4.752"/>
<line x1="1484.993276" y1="702.07298" x2="1484.993276" y2="531.095059" stroke="black" stroke-width="4.752"/>
<line x1="1009.246133" y1="1538.018051" x2="1009.246133" y2="1837.057794" stroke="black" stroke-width="4.752"/>
<line x1="1009.246133" y1="1837.057794" x2="1482.325083" y2="1837.057794" stroke="black" stroke-width="4.752"/>
<line x1="1482.325083" y1="1837.057794" x2="1482.325083" y2="1538.018051" stroke="black" stroke-width="4.752"/>
<line x1="1482.325083" y1="1538.018051" x2="1009.246133" y2="1538.018051" stroke="black" stroke-width="4.752"/>
<line x1="1397.709335" y1="1537.05651" x2="1397.709335" y2="1838.019337" stroke="black" stroke-width="4.752"/>
<line x1="1397.709335" y1="1838.019337" x2="1326.555183" y2="1538.979594" stroke="black" stroke-width="4.752"/>
<line x1="1326.555183" y1="1538.979594" x2="1260.208747" y2="1584.172096" stroke="black" stroke-width="4.752"/>
<line x1="1260.208747" y1="1584.172096" x2="1398.670878" y2="1838.019337" stroke="black" stroke-width="4.752"/>
<line x1="1678.039187" y1="2136.786107" x2="1678.039187" y2="2118.395265" stroke="black" stroke-width="4.752"/>
<line x1="1678.039187" y1="2118.395265" x2="1642.154614" y2="2118.395265" stroke="black" stroke-width="4.752"/>
<line x1="1642.154614" y1="2118.395265" x2="1642.154614" y2="2136.786107" stroke="black" stroke-width="4.752"/>
<line x1="1642.154614" y1="2136.786107" x2="1678.039187" y2="2136.786107" stroke="black" stroke-width="4.752"/>
<line x1="1642.154614" y1="1938.523842" x2="1463.180305" y2="1938.523842" stroke="black" stroke-width="4.752"/>
<line x1="1678.936301" y1="1938.075285" x2="1678.936301" y2="1919.684443" stroke="black" stroke-width="4.752"/>
<line x1="1678.936301" y1="1919.684443" x2="1643.051729" y2="1919.684443" stroke="black" stroke-width="4.752"/>
<line x1="1643.051729" y1="1919.684443" x2="1643.051729" y2="1938.075285" stroke="black" stroke-width="4.752"/>
<line x1="1643.051729" y1="1938.075285" x2="1678.936301" y2="1938.075285" stroke="black" stroke-width="4.752"/>
<path d="m 1643.500286,2118.395265 a 179.8714235,179.8714235 0 0 1 -179.87142399999993,-179.87142300000005" fill="none" stroke="black" stroke-width="4.752"/>
<line x1="487.33825" y1="2244.27782" x2="325.319491" y2="2244.27782" stroke="black" stroke-width="4.752"/>
<line x1="325.319491" y1="2244.27782" x2="325.319491" y2="2200.979706" stroke="black" stroke-width="4.752"/>
<line x1="487.33825" y1="2200.979706" x2="325.319491" y2="2200.979706" stroke="black" stroke-width="4.752"/>
<line x1="487.33825" y1="2244.27782" x2="487.33825" y2="2200.979706" stroke="black" stroke-width="4.752"/>
<line x1="450.674521" y1="2268.720305" x2="450.674521" y2="2244.27782" stroke="black" stroke-width="4.752"/>
<line x1="363.379933" y1="2244.27782" x2="363.379933" y2="2270.117018" stroke="black" stroke-width="4.752"/>
<circle cx="407.725584" cy="2308.52664" r="58.66196392785571" fill="none" stroke="black" stroke-width="4.752"/>
<circle cx="407.725584" cy="2308.52664" r="50.281683366733475" fill="none" stroke="black" stroke-width="4.752"/>
<line x1="1948.261693" y1="1559.07128" x2="1506.157512" y2="1559.07128" stroke="black" stroke-width="4.752"/>
<line x1="1501.710648" y1="1560.191347" x2="1501.710648" y2="1407.216112" stroke="black" stroke-width="4.752"/>
<line x1="1947.739604" y1="1405.921532" x2="1501.367369" y2="1405.921532" stroke="black" stroke-width="4.752"/>
<line x1="1946.913405" y1="1558.290207" x2="1946.913405" y2="1406.219676" stroke="black" stroke-width="4.752"/>
<line x1="1935.338133" y1="1546.605604" x2="1796.434873" y2="1546.605604" stroke="black" stroke-width="4.752"/>
<line x1="1796.434873" y1="1546.605604" x2="1796.434873" y2="1418.387208" stroke="black" stroke-width="4.752"/>
<line x1="1935.338133" y1="1418.387208" x2="1796.434873" y2="1418.387208" stroke="black" stroke-width="4.752"/>
<line x1="1935.338133" y1="1546.605604" x2="1935.338133" y2="1418.387208" stroke="black" stroke-width="4.752"/>
<line x1="1775.06514" y1="1538.591955" x2="1677.120535" y2="1538.591955" stroke="black" stroke-width="4.752"/>
<line x1="1775.06514" y1="1516.331816" x2="1677.120535" y2="1516.331816" stroke="black" stroke-width="4.752"/>
<line x1="1774.174736" y1="1493.181273" x2="1677.120535" y2="1493.181273" stroke="black" stroke-width="4.752"/>
<line x1="1774.174736" y1="1470.921136" x2="1677.120535" y2="1470.921136" stroke="black" stroke-width="4.752"/>
<line x1="1775.06514" y1="1448.660997" x2="1677.120535" y2="1448.660997" stroke="black" stroke-width="4.752"/>
<line x1="1775.06514" y1="1426.40086" x2="1677.120535" y2="1426.40086" stroke="black" stroke-width="4.752"/>
<line x1="1881.913802" y1="1419.277614" x2="1881.913802" y2="1434.414509" stroke="black" stroke-width="4.752"/>
<line x1="1881.913802" y1="1434.414509" x2="1848.078392" y2="1434.414509" stroke="black" stroke-width="4.752"/>
<line x1="1848.078392" y1="1434.414509" x2="1848.078392" y2="1420.16802" stroke="black" stroke-width="4.752"/>
<line x1="1653.96999" y1="1546.605604" x2="1515.06673" y2="1546.605604" stroke="black" stroke-width="4.752"/>
<line x1="1515.06673" y1="1546.605604" x2="1515.06673" y2="1418.387208" stroke="black" stroke-width="4.752"/>
<line x1="1653.96999" y1="1418.387208" x2="1515.06673" y2="1418.387208" stroke="black" stroke-width="4.752"/>
<line x1="1653.96999" y1="1546.605604" x2="1653.96999" y2="1418.387208" stroke="black" stroke-width="4.752"/>
<line x1="1600.545659" y1="1418.387208" x2="1600.545659" y2="1433.524103" stroke="black" stroke-width="4.752"/>
<line x1="1600.545659" y1="1433.524103" x2="1566.710249" y2="1433.524103" stroke="black" stroke-width="4.752"/>
<line x1="1566.710249" y1="1433.524103" x2="1566.710249" y2="1419.277614" stroke="black" stroke-width="4.752"/>
<circle cx="1812.462173" cy="1530.578304" r="8.013649628105089" fill="none" stroke="black" stroke-width="4.752"/>
<circle cx="1531.09403" cy="1529.687898" r="8.013649628105089" fill="none" stroke="black" stroke-width="4.752"/>
<line x1="2018.031518" y1="1790.868932" x2="2085.830261" y2="1695.818604" stroke="black" stroke-width="4.752"/>
<line x1="2085.830261" y1="1695.818604" x2="2181.075365" y2="1763.756277" stroke="black" stroke-width="4.752"/>
<line x1="2181.075365" y1="1763.756277" x2="2113.276622" y2="1858.806608" stroke="black" stroke-width="4.752"/>
<line x1="2113.276622" y1="1858.806608" x2="2018.031518" y2="1790.868932" stroke="black" stroke-width="4.752"/>
<line x1="2017.697811" y1="1790.924776" x2="2181.075365" y2="1763.756277" stroke="black" stroke-width="4.752"/>
<line x1="2113.081848" y1="1858.667672" x2="2085.691328" y2="1696.013378" stroke="black" stroke-width="4.752"/>
<line x1="2093.274427" y1="1101.791399" x2="2001.748822" y2="1193.317008" stroke="black" stroke-width="4.752"/>
<line x1="2001.748822" y1="1193.317008" x2="1991.871959" y2="1183.440139" stroke="black" stroke-width="4.752"/>
<line x1="2083.397564" y1="1091.914534" x2="1991.871959" y2="1183.440139" stroke="black" stroke-width="4.752"/>
<line x1="2093.274427" y1="1101.791399" x2="2083.397564" y2="1091.914534" stroke="black" stroke-width="4.752"/>
<line x1="2074.179157" y1="1101.132941" x2="2053.766972" y2="1078.086924" stroke="black" stroke-width="4.752"/>
<line x1="2001.090361" y1="1174.221737" x2="1977.38589" y2="1153.151094" stroke="black" stroke-width="4.752"/>
<line x1="1773.92249" y1="782.439459" x2="1682.396881" y2="873.965067" stroke="black" stroke-width="4.752"/>
<line x1="1682.396881" y1="873.965067" x2="1691.615289" y2="883.183472" stroke="black" stroke-width="4.752"/>
<line x1="1783.140897" y1="791.657867" x2="1691.615289" y2="883.183472" stroke="black" stroke-width="4.752"/>
<line x1="1773.92249" y1="782.439459" x2="1783.140897" y2="791.657867" stroke="black" stroke-width="4.752"/>
<line x1="1775.897862" y1="801.534732" x2="1798.943879" y2="821.946917" stroke="black" stroke-width="4.752"/>
<line x1="1702.809066" y1="874.623523" x2="1723.221255" y2="898.986454" stroke="black" stroke-width="4.752"/>
<line x1="1774.580948" y1="1192.658547" x2="1784.457811" y2="1182.781686" stroke="black" stroke-width="4.752"/>
<line x1="1784.457811" y1="1182.781686" x2="1692.932205" y2="1091.256078" stroke="black" stroke-width="4.752"/>
<line x1="1683.055337" y1="1101.132941" x2="1692.932205" y2="1091.256078" stroke="black" stroke-width="4.752"/>
<line x1="1774.580948" y1="1192.658547" x2="1683.055337" y2="1101.132941" stroke="black" stroke-width="4.752"/>
<line x1="1702.809066" y1="1101.132941" x2="1723.221255" y2="1076.77001" stroke="black" stroke-width="4.752"/>
<line x1="1775.239404" y1="1173.563279" x2="1798.943879" y2="1152.492634" stroke="black" stroke-width="4.752"/>
<line x1="2093.932885" y1="874.623523" x2="2084.056025" y2="884.500391" stroke="black" stroke-width="4.752"/>
<line x1="2084.056025" y1="884.500391" x2="1992.530414" y2="792.97478" stroke="black" stroke-width="4.752"/>
<line x1="2002.40728" y1="783.097917" x2="1992.530414" y2="792.97478" stroke="black" stroke-width="4.752"/>
<line x1="2093.932885" y1="874.623523" x2="2002.40728" y2="783.097917" stroke="black" stroke-width="4.752"/>
<line x1="2002.40728" y1="802.851646" x2="1978.044346" y2="823.26383" stroke="black" stroke-width="4.752"/>
<line x1="2074.837618" y1="875.281984" x2="2053.766972" y2="898.986454" stroke="black" stroke-width="4.752"/>
<circle cx="1888.494113" cy="987.878232" r="188.10233500138065" fill="none" stroke="black" stroke-width="4.752"/>
<line x1="2292.766257" y1="630.406168" x2="2482.846257" y2="630.406168" stroke="black" stroke-width="4.752"/>
<line x1="2482.846257" y1="630.406168" x2="2482.846257" y2="166.610968" stroke="black" stroke-width="4.752"/>
<line x1="2482.846257" y1="166.610968" x2="2292.766257" y2="166.610968" stroke="black" stroke-width="4.752"/>
<line x1="2292.766257" y1="166.610968" x2="2292.766257" y2="190.370968" stroke="black" stroke-width="4.752"/>
<line x1="2292.766257" y1="190.370968" x2="2460.036657" y2="190.370968" stroke="black" stroke-width="4.752"/>
<line x1="2460.036657" y1="190.370968" x2="2460.036657" y2="605.695768" stroke="black" stroke-width="4.752"/>
<line x1="2460.036657" y1="605.695768" x2="2292.766257" y2="605.695768" stroke="black" stroke-width="4.752"/>
<line x1="2292.766257" y1="605.695768" x2="2292.766257" y2="630.406168" stroke="black" stroke-width="4.752"/>
<line x1="2298.468657" y1="605.695768" x2="2298.468657" y2="190.370968" stroke="black" stroke-width="4.752"/>
<line x1="2297.518257" y1="398.508568" x2="2459.086257" y2="398.508568" stroke="black" stroke-width="4.752"/>
<line x1="2181.960797" y1="1416.096174" x2="2181.960797" y2="1434.145656" stroke="black" stroke-width="4.752"/>
<line x1="2181.960797" y1="1434.145656" x2="2217.1793" y2="1434.145656" stroke="black" stroke-width="4.752"/>
<line x1="2217.1793" y1="1434.145656" x2="2217.1793" y2="1416.096174" stroke="black" stroke-width="4.752"/>
<line x1="2217.1793" y1="1416.096174" x2="2181.960797" y2="1416.096174" stroke="black" stroke-width="4.752"/>
<line x1="2217.1793" y1="1610.678396" x2="2392.831579" y2="1610.678396" stroke="black" stroke-width="4.752"/>
<line x1="2181.080334" y1="1611.118629" x2="2181.080334" y2="1629.168111" stroke="black" stroke-width="4.752"/>
<line x1="2181.080334" y1="1629.168111" x2="2216.298836" y2="1629.168111" stroke="black" stroke-width="4.752"/>
<line x1="2216.298836" y1="1629.168111" x2="2216.298836" y2="1611.118629" stroke="black" stroke-width="4.752"/>
<line x1="2216.298836" y1="1611.118629" x2="2181.080334" y2="1611.118629" stroke="black" stroke-width="4.752"/>
<path d="m 2215.858606,1434.145656 a 176.5327400000001,176.5327400000001 0 0 1 176.5327400000001,176.5327400000001" fill="none" stroke="black" stroke-width="4.752"/>
<line x1="972.298195" y1="2181.402395" x2="1154.034829" y2="2181.402395" stroke="black" stroke-width="4.752"/>
<line x1="1154.034829" y1="2181.402395" x2="1154.034829" y2="1979.839945" stroke="black" stroke-width="4.752"/>
<line x1="1154.034829" y1="1979.839945" x2="972.298195" y2="1979.839945" stroke="black" stroke-width="4.752"/>
<line x1="972.298195" y1="1979.839945" x2="972.298195" y2="2181.402395" stroke="black" stroke-width="4.752"/>
<line x1="972.298195" y1="2153.315823" x2="1154.034829" y2="2153.315823" stroke="black" stroke-width="4.752"/>
<line x1="1923.6467" y1="167.356192" x2="1796.361993" y2="333.236856" stroke="black" stroke-width="4.752"/>
<line x1="1796.361993" y1="333.236856" x2="1980.33873" y2="474.407168" stroke="black" stroke-width="4.752"/>
<line x1="1980.33873" y1="474.407168" x2="2107.623437" y2="308.526507" stroke="black" stroke-width="4.752"/>
<line x1="2107.623437" y1="308.526507" x2="1923.6467" y2="167.356192" stroke="black" stroke-width="4.752"/>
<line x1="1949.282805" y1="187.027466" x2="1821.998094" y2="352.908127" stroke="black" stroke-width="4.752"/>
<line x1="2906.806806" y1="2398.658436" x2="2932.602774" y2="2379.103428" stroke="black" stroke-width="4.752"/>
<line x1="2932.602774" y1="2379.103428" x2="2932.602774" y2="2224.32762" stroke="black" stroke-width="4.752"/>
<line x1="2932.602774" y1="2224.32762" x2="2903.06223" y2="2204.356548" stroke="black" stroke-width="4.752"/>
<line x1="2903.894358" y1="2375.774916" x2="2903.894358" y2="2225.575812" stroke="black" stroke-width="4.752"/>
<circle cx="2881.010838" cy="2302.963716" r="13.730112" fill="none" stroke="black" stroke-width="4.752"/>
<path d="m 2904.595518,2374.142966 a 78.63609639097884,78.63609639097884 0 1 1 -0.422418000000107,-146.68252600000005" fill="none" stroke="black" stroke-width="4.752"/>
<path d="m 2907.497477,2398.609789 a 100.27142326108154,100.27142326108154 0 1 1 -3.230757999999696,-193.8133240000002" fill="none" stroke="black" stroke-width="4.752"/>
<line x1="104.409286" y1="2200.369765" x2="104.409286" y2="2696.361323" stroke="black" stroke-width="4.752"/>
<line x1="104.409286" y1="2696.361323" x2="325.296217" y2="2696.361323" stroke="black" stroke-width="4.752"/>
<line x1="325.296217" y1="2696.361323" x2="325.296217" y2="2200.369765" stroke="black" stroke-width="4.752"/>
<line x1="325.296217" y1="2200.369765" x2="104.409286" y2="2200.369765" stroke="black" stroke-width="4.752"/>
<line x1="291.159145" y1="2600.978332" x2="291.159145" y2="2240.531024" stroke="black" stroke-width="4.752"/>
<line x1="291.159145" y1="2240.531024" x2="141.558453" y2="2240.531024" stroke="black" stroke-width="4.752"/>
<line x1="141.558453" y1="2240.531024" x2="141.558453" y2="2608.006553" stroke="black" stroke-width="4.752"/>
<path d="m 291.482949,2599.950756 a 80.32251857655915,80.32251857655915 0 0 1 -151.33281200000002,5.443336999999701" fill="none" stroke="black" stroke-width="4.752"/>
<line x1="327.130608" y1="2558.107601" x2="606.097539" y2="2558.107601" stroke="black" stroke-width="4.752"/>
<line x1="606.097539" y1="2558.107601" x2="606.097539" y2="2694.161144" stroke="black" stroke-width="4.752"/>
<line x1="327.130608" y1="2694.161144" x2="606.097539" y2="2694.161144" stroke="black" stroke-width="4.752"/>
<line x1="327.130608" y1="2558.107601" x2="327.130608" y2="2694.161144" stroke="black" stroke-width="4.752"/>
<line x1="333.99045" y1="2564.967443" x2="476.332182" y2="2564.967443" stroke="black" stroke-width="4.752"/>
<line x1="476.332182" y1="2564.967443" x2="476.332182" y2="2686.72965" stroke="black" stroke-width="4.752"/>
<line x1="333.99045" y1="2686.72965" x2="476.332182" y2="2686.72965" stroke="black" stroke-width="4.752"/>
<line x1="333.99045" y1="2564.967443" x2="333.99045" y2="2686.72965" stroke="black" stroke-width="4.752"/>
<line x1="491.195177" y1="2572.970593" x2="591.234545" y2="2572.970593" stroke="black" stroke-width="4.752"/>
<line x1="491.195177" y1="2594.121774" x2="591.234545" y2="2594.121774" stroke="black" stroke-width="4.752"/>
<line x1="491.766829" y1="2615.84461" x2="591.8062" y2="2615.84461" stroke="black" stroke-width="4.752"/>
<line x1="491.766829" y1="2636.995791" x2="591.8062" y2="2636.995791" stroke="black" stroke-width="4.752"/>
<line x1="491.195177" y1="2658.146972" x2="591.234545" y2="2658.146972" stroke="black" stroke-width="4.752"/>
<line x1="491.195177" y1="2679.298153" x2="591.234545" y2="2679.298153" stroke="black" stroke-width="4.752"/>
<line x1="388.297539" y1="2686.72965" x2="388.297539" y2="2672.438311" stroke="black" stroke-width="4.752"/>
<line x1="388.297539" y1="2672.438311" x2="423.740056" y2="2672.438311" stroke="black" stroke-width="4.752"/>
<line x1="423.740056" y1="2672.438311" x2="423.740056" y2="2686.157995" stroke="black" stroke-width="4.752"/>
<circle cx="460.325884" cy="2580.40209" r="8.574803149606298" fill="none" stroke="black" stroke-width="4.752"/>
<line x1="2559.683615" y1="2456.021146" x2="2559.683615" y2="2474.198639" stroke="black" stroke-width="4.752"/>
<line x1="2559.683615" y1="2474.198639" x2="2595.151894" y2="2474.198639" stroke="black" stroke-width="4.752"/>
<line x1="2595.151894" y1="2474.198639" x2="2595.151894" y2="2456.021146" stroke="black" stroke-width="4.752"/>
<line x1="2595.151894" y1="2456.021146" x2="2559.683615" y2="2456.021146" stroke="black" stroke-width="4.752"/>
<line x1="2595.151894" y1="2651.983385" x2="2772.049933" y2="2651.983385" stroke="black" stroke-width="4.752"/>
<line x1="2558.796908" y1="2652.426739" x2="2558.796908" y2="2670.604232" stroke="black" stroke-width="4.752"/>
<line x1="2558.796908" y1="2670.604232" x2="2594.265186" y2="2670.604232" stroke="black" stroke-width="4.752"/>
<line x1="2594.265186" y1="2670.604232" x2="2594.265186" y2="2652.426739" stroke="black" stroke-width="4.752"/>
<line x1="2594.265186" y1="2652.426739" x2="2558.796908" y2="2652.426739" stroke="black" stroke-width="4.752"/>
<path d="m 2593.821833,2474.198639 a 177.7847459999998,177.7847459999998 0 0 1 177.7847459999998,177.7847459999998" fill="none" stroke="black" stroke-width="4.752"/>
<line x1="2767.318221" y1="2704.018086" x2="2934.246638" y2="2704.018086" stroke="black" stroke-width="4.752"/>
<line x1="2934.246638" y1="2704.018086" x2="2934.246638" y2="2748.628267" stroke="black" stroke-width="4.752"/>
<line x1="2767.318221" y1="2748.628267" x2="2934.246638" y2="2748.628267" stroke="black" stroke-width="4.752"/>
<line x1="2767.318221" y1="2704.018086" x2="2767.318221" y2="2748.628267" stroke="black" stroke-width="4.752"/>
<line x1="2805.092973" y1="2678.83492" x2="2805.092973" y2="2704.018086" stroke="black" stroke-width="4.752"/>
<line x1="2895.032852" y1="2704.018086" x2="2895.032852" y2="2677.395882" stroke="black" stroke-width="4.752"/>
<circle cx="2849.343394" cy="2637.822335" r="60.4395991983968" fill="none" stroke="black" stroke-width="4.752"/>
<circle cx="2849.343394" cy="2637.822335" r="51.805370741482974" fill="none" stroke="black" stroke-width="4.752"/>
<line x1="2233.611431" y1="1881.798175" x2="2252.258298" y2="1881.798175" stroke="black" stroke-width="4.752"/>
<line x1="2252.258298" y1="1881.798175" x2="2252.258298" y2="1845.414049" stroke="black" stroke-width="4.752"/>
<line x1="2252.258298" y1="1845.414049" x2="2233.611431" y2="1845.414049" stroke="black" stroke-width="4.752"/>
<line x1="2233.611431" y1="1845.414049" x2="2233.611431" y2="1881.798175" stroke="black" stroke-width="4.752"/>
<line x1="2434.633729" y1="1845.414049" x2="2434.633729" y2="1663.948218" stroke="black" stroke-width="4.752"/>
<line x1="2435.08853" y1="1882.707776" x2="2453.735397" y2="1882.707776" stroke="black" stroke-width="4.752"/>
<line x1="2453.735397" y1="1882.707776" x2="2453.735397" y2="1846.32365" stroke="black" stroke-width="4.752"/>
<line x1="2453.735397" y1="1846.32365" x2="2435.08853" y2="1846.32365" stroke="black" stroke-width="4.752"/>
<line x1="2435.08853" y1="1846.32365" x2="2435.08853" y2="1882.707776" stroke="black" stroke-width="4.752"/>
<path d="m 2252.258298,1846.778454 a 182.3754315,182.3754315 0 0 1 182.37543099999994,-182.37543200000005" fill="none" stroke="black" stroke-width="4.752"/>
<line x1="2337.890246" y1="2779.317848" x2="2356.067739" y2="2779.317848" stroke="black" stroke-width="4.752"/>
<line x1="2356.067739" y1="2779.317848" x2="2356.067739" y2="2743.849569" stroke="black" stroke-width="4.752"/>
<line x1="2356.067739" y1="2743.849569" x2="2337.890246" y2="2743.849569" stroke="black" stroke-width="4.752"/>
<line x1="2337.890246" y1="2743.849569" x2="2337.890246" y2="2779.317848" stroke="black" stroke-width="4.752"/>
<line x1="2533.852485" y1="2743.849569" x2="2533.852485" y2="2566.95153" stroke="black" stroke-width="4.752"/>
<line x1="2534.295839" y1="2780.204555" x2="2552.473332" y2="2780.204555" stroke="black" stroke-width="4.752"/>
<line x1="2552.473332" y1="2780.204555" x2="2552.473332" y2="2744.736276" stroke="black" stroke-width="4.752"/>
<line x1="2552.473332" y1="2744.736276" x2="2534.295839" y2="2744.736276" stroke="black" stroke-width="4.752"/>
<line x1="2534.295839" y1="2744.736276" x2="2534.295839" y2="2780.204555" stroke="black" stroke-width="4.752"/>
<path d="m 2356.067739,2745.17963 a 177.78474600000004,177.78474600000004 0 0 1 177.7847459999998,-177.78474600000027" fill="none" stroke="black" stroke-width="4.752"/>
</g>
</svg>
