<?xml version="1.0"?>
<svg xmlns:xlink="http://www.w3.org/1999/xlink" width="3036.0" height="2967.36">
<image x="0" y="0" width="3036.0" height="2967.36" xlink:href="ground16-08.png"/>
<g style="stroke-linecap:round">
<line x1="711.022134" y1="974.631887" x2="924.757627" y2="974.631887" stroke="black" stroke-width="4.752"/>
<line x1="924.757627" y1="974.631887" x2="924.757627" y2="936.402775" stroke="black" stroke-width="4.752"/>
<line x1="924.757627" y1="936.402775" x2="711.022134" y2="936.402775" stroke="black" stroke-width="4.752"/>
<line x1="711.022134" y1="936.402775" x2="711.022134" y2="974.631887" stroke="black" stroke-width="4.752"/>
<line x1="721.013835" y1="974.631887" x2="721.013835" y2="987.66454" stroke="black" stroke-width="4.752"/>
<line x1="721.013835" y1="987.66454" x2="914.331507" y2="987.66454" stroke="black" stroke-width="4.752"/>
<line x1="914.331507" y1="974.631887" x2="914.331507" y2="987.66454" stroke="black" stroke-width="4.752"/>
<line x1="940.349396" y1="973.778594" x2="1151.564423" y2="973.778594" stroke="black" stroke-width="4.752"/>
<line x1="1151.564423" y1="973.778594" x2="1151.564423" y2="936.000297" stroke="black" stroke-width="4.752"/>
<line x1="1151.564423" y1="936.000297" x2="940.349396" y2="936.000297" stroke="black" stroke-width="4.752"/>
<line x1="940.349396" y1="936.000297" x2="940.349396" y2="973.778594" stroke="black" stroke-width="4.752"/>
<line x1="950.22327" y1="973.778594" x2="950.22327" y2="986.657559" stroke="black" stroke-width="4.752"/>
<line x1="950.22327" y1="986.657559" x2="1141.261253" y2="986.657559" stroke="black" stroke-width="4.752"/>
<line x1="1141.261253" y1="973.778594" x2="1141.261253" y2="986.657559" stroke="black" stroke-width="4.752"/>
<line x1="1007.221765" y1="1065.732196" x2="1007.221765" y2="1364.77194" stroke="black" stroke-width="4.752"/>
<line x1="1007.221765" y1="1364.77194" x2="1480.300716" y2="1364.77194" stroke="black" stroke-width="4.752"/>
<line x1="1480.300716" y1="1364.77194" x2="1480.300716" y2="1065.732196" stroke="black" stroke-width="4.752"/>
<line x1="1480.300716" y1="1065.732196" x2="1007.221765" y2="1065.732196" stroke="black" stroke-width="4.752"/>
<line x1="1395.684967" y1="1064.770656" x2="1395.684967" y2="1365.733483" stroke="black" stroke-width="4.752"/>
<line x1="1395.684967" y1="1365.733483" x2="1324.530816" y2="1066.69374" stroke="black" stroke-width="4.752"/>
<line x1="1324.530816" y1="1066.69374" x2="1258.184379" y2="1111.886242" stroke="black" stroke-width="4.752"/>
<line x1="1258.184379" y1="1111.886242" x2="1396.64651" y2="1365.733483" stroke="black" stroke-width="4.752"/>
<line x1="1502.231665" y1="501.015604" x2="1502.231665" y2="289.277039" stroke="black" stroke-width="4.752"/>
<line x1="1502.231665" y1="289.277039" x2="1469.590426" y2="289.277039" stroke="black" stroke-width="4.752"/>
<line x1="1469.590426" y1="289.277039" x2="1469.590426" y2="501.015604" stroke="black" stroke-width="4.752"/>
<line x1="1469.590426" y1="501.015604" x2="1502.231665" y2="501.015604" stroke="black" stroke-width="4.752"/>
<line x1="1470.019914" y1="481.259067" x2="1501.802174" y2="481.259067" stroke="black" stroke-width="4.752"/>
<line x1="1470.019914" y1="309.463068" x2="1503.090645" y2="309.463068" stroke="black" stroke-width="4.752"/>
<line x1="1485.052066" y1="481.688555" x2="1485.052066" y2="309.892559" stroke="black" stroke-width="4.752"/>
<line x1="1502.091067" y1="721.307997" x2="1502.091067" y2="510.577708" stroke="black" stroke-width="4.752"/>
<line x1="1502.091067" y1="510.577708" x2="1469.605262" y2="510.577708" stroke="black" stroke-width="4.752"/>
<line x1="1469.605262" y1="510.577708" x2="1469.605262" y2="721.307997" stroke="black" stroke-width="4.752"/>
<line x1="1469.605262" y1="721.307997" x2="1502.091067" y2="721.307997" stroke="black" stroke-width="4.752"/>
<line x1="1470.032707" y1="701.645535" x2="1501.663622" y2="701.645535" stroke="black" stroke-width="4.752"/>
<line x1="1470.032707" y1="530.667614" x2="1502.945957" y2="530.667614" stroke="black" stroke-width="4.752"/>
<line x1="1484.993276" y1="702.07298" x2="1484.993276" y2="531.095059" stroke="black" stroke-width="4.752"/>
<line x1="1009.246133" y1="1538.018051" x2="1009.246133" y2="1837.057794" stroke="black" stroke-width="4.752"/>
<line x1="1009.246133" y1="1837.057794" x2="1482.325083" y2="1837.057794" stroke="black" stroke-width="4.752"/>
<line x1="1482.325083" y1="1837.057794" x2="1482.325083" y2="1538.018051" stroke="black" stroke-width="4.752"/>
<line x1="1482.325083" y1="1538.018051" x2="1009.246133" y2="1538.018051" stroke="black" stroke-width="4.752"/>
<line x1="1397.709335" y1="1537.05651" x2="1397.709335" y2="1838.019337" stroke="black" stroke-width="4.752"/>
<line x1="1397.709335" y1="1838.019337" x2="1326.555183" y2="1538.979594" stroke="black" stroke-width="4.752"/>
<line x1="1326.555183" y1="1538.979594" x2="1260.208747" y2="1584.172096" stroke="black" stroke-width="4.752"/>
<line x1="1260.208747" y1="1584.172096" x2="1398.670878" y2="1838.019337" stroke="black" stroke-width="4.752"/>
<line x1="1678.039187" y1="2136.786107" x2="1678.039187" y2="2118.395265" stroke="black" stroke-width="4.752"/>
<line x1="1678.039187" y1="2118.395265" x2="1642.154614" y2="2118.395265" stroke="black" stroke-width="4.752"/>
<line x1="1642.154614" y1="2118.395265" x2="1642.154614" y2="2136.786107" stroke="black" stroke-width="4.752"/>
<line x1="1642.154614" y1="2136.786107" x2="1678.039187" y2="2136.786107" stroke="black" stroke-width="4.752"/>
<line x1="1642.154614" y1="1938.523842" x2="1463.180305" y2="1938.523842" stroke="black" stroke-width="4.752"/>
<line x1="1678.936301" y1="1938.075285" x2="1678.936301" y2="1919.684443" stroke="black" stroke-width="4.752"/>
<line x1="1678.936301" y1="1919.684443" x2="1643.051729" y2="1919.684443" stroke="black" stroke-width="4.752"/>
<line x1="1643.051729" y1="1919.684443" x2="1643.051729" y2="1938.075285" stroke="black" stroke-width="4.752"/>
<line x1="1643.051729" y1="1938.075285" x2="1678.936301" y2="1938.075285" stroke="black" stroke-width="4.752"/>
<path d="m 1643.500286,2118.395265 a 179.8714235,179.8714235 0 0 1 -179.87142399999993,-179.87142300000005" fill="none" stroke="black" stroke-width="4.752"/>
<line x1="487.33825" y1="2244.27782" x2="325.319491" y2="2244.27782" stroke="black" stroke-width="4.752"/>
<line x1="325.319491" y1="2244.27782" x2="325.319491" y2="2200.979706" stroke="black" stroke-width="4.752"/>
<line x1="487.33825" y1="2200.979706" x2="325.319491" y2="2200.979706" stroke="black" stroke-width="4.752"/>
<line x1="487.33825" y1="2244.27782" x2="487.33825" y2="2200.979706" stroke="black" stroke-width="4.752"/>
<line x1="450.674521" y1="2268.720305" x2="450.674521" y2="2244.27782" stroke="black" stroke-width="4.752"/>
<line x1="363.379933" y1="2244.27782" x2="363.379933" y2="2270.117018" stroke="black" stroke-width="4.752"/>
<circle cx="407.725584" cy="2308.52664" r="58.66196392785571" fill="none" stroke="black" stroke-width="4.752"/>
<circle cx="407.725584" cy="2308.52664" r="50.281683366733475" fill="none" stroke="black" stroke-width="4.752"/>
<line x1="1948.261693" y1="1559.07128" x2="1506.157512" y2="1559.07128" stroke="black" stroke-width="4.752"/>
<line x1="1501.710648" y1="1560.191347" x2="1501.710648" y2="1407.216112" stroke="black" stroke-width="4.752"/>
<line x1="1947.739604" y1="1405.921532" x2="1501.367369" y2="1405.921532" stroke="black" stroke-width="4.752"/>
<line x1="1946.913405" y1="1558.290207" x2="1946.913405" y2="1406.219676" stroke="black" stroke-width="4.752"/>
<line x1="1935.338133" y1="1546.605604" x2="1796.434873" y2="1546.605604" stroke="black" stroke-width="4.752"/>
<line x1="1796.434873" y1="1546.605604" x2="1796.434873" y2="1418.387208" stroke="black" stroke-width="4.752"/>
<line x1="1935.338133" y1="1418.387208" x2="1796.434873" y2="1418.387208" stroke="black" stroke-width="4.752"/>
<line x1="1935.338133" y1="1546.605604" x2="1935.338133" y2="1418.387208" stroke="black" stroke-width="4.752"/>
<line x1="1775.06514" y1="1538.591955" x2="1677.120535" y2="1538.591955" stroke="black" stroke-width="4.752"/>
<line x1="1775.06514" y1="1516.331816" x2="1677.120535" y2="1516.331816" stroke="black" stroke-width="4.752"/>
<line x1="1774.174736" y1="1493.181273" x2="1677.120535" y2="1493.181273" stroke="black" stroke-width="4.752"/>
<line x1="1774.174736" y1="1470.921136" x2="1677.120535" y2="1470.921136" stroke="black" stroke-width="4.752"/>
<line x1="1775.06514" y1="1448.660997" x2="1677.120535" y2="1448.660997" stroke="black" stroke-width="4.752"/>
<line x1="1775.06514" y1="1426.40086" x2="1677.120535" y2="1426.40086" stroke="black" stroke-width="4.752"/>
<line x1="1881.913802" y1="1419.277614" x2="1881.913802" y2="1434.414509" stroke="black" stroke-width="4.752"/>
<line x1="1881.913802" y1="1434.414509" x2="1848.078392" y2="1434.414509" stroke="black" stroke-width="4.752"/>
<line x1="1848.078392" y1="1434.414509" x2="1848.078392" y2="1420.16802" stroke="black" stroke-width="4.752"/>
<line x1="1653.96999" y1="1546.605604" x2="1515.06673" y2="1546.605604" stroke="black" stroke-width="4.752"/>
<line x1="1515.06673" y1="1546.605604" x2="1515.06673" y2="1418.387208" stroke="black" stroke-width="4.752"/>
<line x1="1653.96999" y1="1418.387208" x2="1515.06673" y2="1418.387208" stroke="black" stroke-width="4.752"/>
<line x1="1653.96999" y1="1546.605604" x2="1653.96999" y2="1418.387208" stroke="black" stroke-width="4.752"/>
<line x1="1600.545659" y1="1418.387208" x2="1600.545659" y2="1433.524103" stroke="black" stroke-width="4.752"/>
<line x1="1600.545659" y1="1433.524103" x2="1566.710249" y2="1433.524103" stroke="black" stroke-width="4.752"/>
<line x1="1566.710249" y1="1433.524103" x2="1566.710249" y2="1419.277614" stroke="black" stroke-width="4.752"/>
<circle cx="1812.462173" cy="1530.578304" r="8.013649628105089" fill="none" stroke="black" stroke-width="4.752"/>
<circle cx="1531.09403" cy="1529.687898" r="8.013649628105089" fill="none" stroke="black" stroke-width="4.752"/>
<line x1="2018.033477" y1="1763.530011" x2="2113.115234" y2="1695.708852" stroke="black" stroke-width="4.751997"/>
<line x1="2113.115234" y1="1695.708852" x2="2181.075368" y2="1790.985449" stroke="black" stroke-width="4.751997"/>
<line x1="2181.075368" y1="1790.985449" x2="2085.993613" y2="1858.806608" stroke="black" stroke-width="4.751997"/>
<line x1="2085.993613" y1="1858.806608" x2="2018.033477" y2="1763.530011" stroke="black" stroke-width="4.751997"/>
<line x1="2017.699659" y1="1763.474148" x2="2181.075368" y2="1790.985449" stroke="black" stroke-width="4.751997"/>
<line x1="2085.854633" y1="1858.611768" x2="2112.920394" y2="1695.847832" stroke="black" stroke-width="4.751997"/>
<line x1="2482.846257" y1="356.690968" x2="2482.846257" y2="166.610968" stroke="black" stroke-width="4.752"/>
<line x1="2482.846257" y1="166.610968" x2="2019.051057" y2="166.610968" stroke="black" stroke-width="4.752"/>
<line x1="2019.051057" y1="166.610968" x2="2019.051057" y2="356.690968" stroke="black" stroke-width="4.752"/>
<line x1="2019.051057" y1="356.690968" x2="2042.811057" y2="356.690968" stroke="black" stroke-width="4.752"/>
<line x1="2042.811057" y1="356.690968" x2="2042.811057" y2="189.420568" stroke="black" stroke-width="4.752"/>
<line x1="2042.811057" y1="189.420568" x2="2458.135857" y2="189.420568" stroke="black" stroke-width="4.752"/>
<line x1="2458.135857" y1="189.420568" x2="2458.135857" y2="356.690968" stroke="black" stroke-width="4.752"/>
<line x1="2458.135857" y1="356.690968" x2="2482.846257" y2="356.690968" stroke="black" stroke-width="4.752"/>
<line x1="2458.135857" y1="350.988568" x2="2042.811057" y2="350.988568" stroke="black" stroke-width="4.752"/>
<line x1="2250.948657" y1="351.938968" x2="2250.948657" y2="190.370968" stroke="black" stroke-width="4.752"/>
<line x1="2181.960797" y1="1416.096174" x2="2181.960797" y2="1434.145656" stroke="black" stroke-width="4.752"/>
<line x1="2181.960797" y1="1434.145656" x2="2217.1793" y2="1434.145656" stroke="black" stroke-width="4.752"/>
<line x1="2217.1793" y1="1434.145656" x2="2217.1793" y2="1416.096174" stroke="black" stroke-width="4.752"/>
<line x1="2217.1793" y1="1416.096174" x2="2181.960797" y2="1416.096174" stroke="black" stroke-width="4.752"/>
<line x1="2217.1793" y1="1610.678396" x2="2392.831579" y2="1610.678396" stroke="black" stroke-width="4.752"/>
<line x1="2181.080334" y1="1611.118629" x2="2181.080334" y2="1629.168111" stroke="black" stroke-width="4.752"/>
<line x1="2181.080334" y1="1629.168111" x2="2216.298836" y2="1629.168111" stroke="black" stroke-width="4.752"/>
<line x1="2216.298836" y1="1629.168111" x2="2216.298836" y2="1611.118629" stroke="black" stroke-width="4.752"/>
<line x1="2216.298836" y1="1611.118629" x2="2181.080334" y2="1611.118629" stroke="black" stroke-width="4.752"/>
<path d="m 2215.858606,1434.145656 a 176.5327400000001,176.5327400000001 0 0 1 176.5327400000001,176.5327400000001" fill="none" stroke="black" stroke-width="4.752"/>
<line x1="2285.278758" y1="776.548959" x2="2482.373781" y2="706.753951" stroke="black" stroke-width="4.752"/>
<line x1="2482.373781" y1="706.753951" x2="2404.964771" y2="488.157651" stroke="black" stroke-width="4.752"/>
<line x1="2404.964771" y1="488.157651" x2="2207.869749" y2="557.952661" stroke="black" stroke-width="4.752"/>
<line x1="2207.869749" y1="557.952661" x2="2285.278758" y2="776.548959" stroke="black" stroke-width="4.752"/>
<line x1="2274.492253" y1="746.088821" x2="2471.58728" y2="676.293813" stroke="black" stroke-width="4.752"/>
<line x1="2772.657856" y1="2381.776962" x2="2772.657856" y2="2222.159132" stroke="black" stroke-width="4.752"/>
<line x1="2772.657856" y1="2222.159132" x2="2932.602771" y2="2222.159132" stroke="black" stroke-width="4.752"/>
<line x1="2932.602771" y1="2222.159132" x2="2932.602771" y2="2381.776962" stroke="black" stroke-width="4.752"/>
<line x1="2932.602771" y1="2381.776962" x2="2772.657856" y2="2381.776962" stroke="black" stroke-width="4.752"/>
<line x1="2772.330771" y1="2382.104047" x2="2932.602771" y2="2222.159132" stroke="black" stroke-width="4.752"/>
<line x1="2932.275686" y1="2381.776962" x2="2772.657856" y2="2222.486218" stroke="black" stroke-width="4.752"/>
<line x1="1780.939897" y1="1136.721915" x2="1785.028054" y2="1019.652422" stroke="black" stroke-width="4.752"/>
<line x1="1785.028054" y1="1019.652422" x2="1797.661454" y2="1020.09359" stroke="black" stroke-width="4.752"/>
<line x1="1793.573298" y1="1137.16308" x2="1797.661454" y2="1020.09359" stroke="black" stroke-width="4.752"/>
<line x1="1780.939897" y1="1136.721915" x2="1793.573298" y2="1137.16308" stroke="black" stroke-width="4.752"/>
<line x1="1793.985054" y1="1125.371911" x2="1821.719708" y2="1128.02693" stroke="black" stroke-width="4.752"/>
<line x1="1797.249696" y1="1031.884762" x2="1825.94422" y2="1031.200291" stroke="black" stroke-width="4.752"/>
<line x1="2189.419777" y1="1150.986345" x2="2193.507933" y2="1033.916854" stroke="black" stroke-width="4.752"/>
<line x1="2193.507933" y1="1033.916854" x2="2181.716761" y2="1033.505099" stroke="black" stroke-width="4.752"/>
<line x1="2177.628605" y1="1150.574589" x2="2181.716761" y2="1033.505099" stroke="black" stroke-width="4.752"/>
<line x1="2189.419777" y1="1150.986345" x2="2177.628605" y2="1150.574589" stroke="black" stroke-width="4.752"/>
<line x1="2176.326499" y1="1139.566821" x2="2148.474198" y2="1140.280704" stroke="black" stroke-width="4.752"/>
<line x1="2179.591139" y1="1046.079672" x2="2151.043673" y2="1042.553012" stroke="black" stroke-width="4.752"/>
<line x1="1935.791972" y1="879.877593" x2="1935.350807" y2="892.510991" stroke="black" stroke-width="4.752"/>
<line x1="1935.350807" y1="892.510991" x2="2052.420298" y2="896.599147" stroke="black" stroke-width="4.752"/>
<line x1="2052.861466" y1="883.965749" x2="2052.420298" y2="896.599147" stroke="black" stroke-width="4.752"/>
<line x1="1935.791972" y1="879.877593" x2="2052.861466" y2="883.965749" stroke="black" stroke-width="4.752"/>
<line x1="2039.7869" y1="896.157982" x2="2041.313599" y2="924.881913" stroke="black" stroke-width="4.752"/>
<line x1="1947.141977" y1="892.922749" x2="1944.457545" y2="921.499627" stroke="black" stroke-width="4.752"/>
<line x1="1920.714726" y1="1287.485834" x2="1921.155894" y2="1274.852433" stroke="black" stroke-width="4.752"/>
<line x1="1921.155894" y1="1274.852433" x2="2038.225385" y2="1278.94059" stroke="black" stroke-width="4.752"/>
<line x1="2037.78422" y1="1291.57399" x2="2038.225385" y2="1278.94059" stroke="black" stroke-width="4.752"/>
<line x1="1920.714726" y1="1287.485834" x2="2037.78422" y2="1291.57399" stroke="black" stroke-width="4.752"/>
<line x1="2025.591987" y1="1278.499424" x2="2029.118647" y2="1249.951956" stroke="black" stroke-width="4.752"/>
<line x1="1932.947066" y1="1275.264194" x2="1932.262596" y2="1246.569667" stroke="black" stroke-width="4.752"/>
<circle cx="1986.788097" cy="1085.725793" r="170.23346571168003" fill="none" stroke="black" stroke-width="4.752"/>
<line x1="325.296217" y1="2696.361323" x2="325.296217" y2="2200.369765" stroke="black" stroke-width="4.752"/>
<line x1="325.296217" y1="2200.369765" x2="104.409286" y2="2200.369765" stroke="black" stroke-width="4.752"/>
<line x1="104.409286" y1="2200.369765" x2="104.409286" y2="2696.361323" stroke="black" stroke-width="4.752"/>
<line x1="104.409286" y1="2696.361323" x2="325.296217" y2="2696.361323" stroke="black" stroke-width="4.752"/>
<line x1="138.546358" y1="2295.752757" x2="138.546358" y2="2656.200064" stroke="black" stroke-width="4.752"/>
<line x1="138.546358" y1="2656.200064" x2="288.14705" y2="2656.200064" stroke="black" stroke-width="4.752"/>
<line x1="288.14705" y1="2656.200064" x2="288.14705" y2="2288.724536" stroke="black" stroke-width="4.752"/>
<path d="m 138.222554,2296.780332 a 80.32251858855818,80.32251858855818 0 0 1 151.332812,-5.443336999999701" fill="none" stroke="black" stroke-width="4.752"/>
<line x1="327.130608" y1="2558.107601" x2="606.097539" y2="2558.107601" stroke="black" stroke-width="4.752"/>
<line x1="606.097539" y1="2558.107601" x2="606.097539" y2="2694.161144" stroke="black" stroke-width="4.752"/>
<line x1="327.130608" y1="2694.161144" x2="606.097539" y2="2694.161144" stroke="black" stroke-width="4.752"/>
<line x1="327.130608" y1="2558.107601" x2="327.130608" y2="2694.161144" stroke="black" stroke-width="4.752"/>
<line x1="333.99045" y1="2564.967443" x2="476.332182" y2="2564.967443" stroke="black" stroke-width="4.752"/>
<line x1="476.332182" y1="2564.967443" x2="476.332182" y2="2686.72965" stroke="black" stroke-width="4.752"/>
<line x1="333.99045" y1="2686.72965" x2="476.332182" y2="2686.72965" stroke="black" stroke-width="4.752"/>
<line x1="333.99045" y1="2564.967443" x2="333.99045" y2="2686.72965" stroke="black" stroke-width="4.752"/>
<line x1="491.195177" y1="2572.970593" x2="591.234545" y2="2572.970593" stroke="black" stroke-width="4.752"/>
<line x1="491.195177" y1="2594.121774" x2="591.234545" y2="2594.121774" stroke="black" stroke-width="4.752"/>
<line x1="491.766829" y1="2615.84461" x2="591.8062" y2="2615.84461" stroke="black" stroke-width="4.752"/>
<line x1="491.766829" y1="2636.995791" x2="591.8062" y2="2636.995791" stroke="black" stroke-width="4.752"/>
<line x1="491.195177" y1="2658.146972" x2="591.234545" y2="2658.146972" stroke="black" stroke-width="4.752"/>
<line x1="491.195177" y1="2679.298153" x2="591.234545" y2="2679.298153" stroke="black" stroke-width="4.752"/>
<line x1="388.297539" y1="2686.72965" x2="388.297539" y2="2672.438311" stroke="black" stroke-width="4.752"/>
<line x1="388.297539" y1="2672.438311" x2="423.740056" y2="2672.438311" stroke="black" stroke-width="4.752"/>
<line x1="423.740056" y1="2672.438311" x2="423.740056" y2="2686.157995" stroke="black" stroke-width="4.752"/>
<circle cx="460.325884" cy="2580.40209" r="8.574803149606298" fill="none" stroke="black" stroke-width="4.752"/>
<line x1="2559.683615" y1="2456.021146" x2="2559.683615" y2="2474.198639" stroke="black" stroke-width="4.752"/>
<line x1="2559.683615" y1="2474.198639" x2="2595.151894" y2="2474.198639" stroke="black" stroke-width="4.752"/>
<line x1="2595.151894" y1="2474.198639" x2="2595.151894" y2="2456.021146" stroke="black" stroke-width="4.752"/>
<line x1="2595.151894" y1="2456.021146" x2="2559.683615" y2="2456.021146" stroke="black" stroke-width="4.752"/>
<line x1="2595.151894" y1="2651.983385" x2="2772.049933" y2="2651.983385" stroke="black" stroke-width="4.752"/>
<line x1="2558.796908" y1="2652.426739" x2="2558.796908" y2="2670.604232" stroke="black" stroke-width="4.752"/>
<line x1="2558.796908" y1="2670.604232" x2="2594.265186" y2="2670.604232" stroke="black" stroke-width="4.752"/>
<line x1="2594.265186" y1="2670.604232" x2="2594.265186" y2="2652.426739" stroke="black" stroke-width="4.752"/>
<line x1="2594.265186" y1="2652.426739" x2="2558.796908" y2="2652.426739" stroke="black" stroke-width="4.752"/>
<path d="m 2593.821833,2474.198639 a 177.7847459999998,177.7847459999998 0 0 1 177.7847459999998,177.7847459999998" fill="none" stroke="black" stroke-width="4.752"/>
<line x1="2767.318221" y1="2704.018086" x2="2934.246638" y2="2704.018086" stroke="black" stroke-width="4.752"/>
<line x1="2934.246638" y1="2704.018086" x2="2934.246638" y2="2748.628267" stroke="black" stroke-width="4.752"/>
<line x1="2767.318221" y1="2748.628267" x2="2934.246638" y2="2748.628267" stroke="black" stroke-width="4.752"/>
<line x1="2767.318221" y1="2704.018086" x2="2767.318221" y2="2748.628267" stroke="black" stroke-width="4.752"/>
<line x1="2805.092973" y1="2678.83492" x2="2805.092973" y2="2704.018086" stroke="black" stroke-width="4.752"/>
<line x1="2895.032852" y1="2704.018086" x2="2895.032852" y2="2677.395882" stroke="black" stroke-width="4.752"/>
<circle cx="2849.343394" cy="2637.822335" r="60.4395991983968" fill="none" stroke="black" stroke-width="4.752"/>
<circle cx="2849.343394" cy="2637.822335" r="51.805370741482974" fill="none" stroke="black" stroke-width="4.752"/>
<line x1="2233.611431" y1="1881.798175" x2="2252.258298" y2="1881.798175" stroke="black" stroke-width="4.752"/>
<line x1="2252.258298" y1="1881.798175" x2="2252.258298" y2="1845.414049" stroke="black" stroke-width="4.752"/>
<line x1="2252.258298" y1="1845.414049" x2="2233.611431" y2="1845.414049" stroke="black" stroke-width="4.752"/>
<line x1="2233.611431" y1="1845.414049" x2="2233.611431" y2="1881.798175" stroke="black" stroke-width="4.752"/>
<line x1="2434.633729" y1="1845.414049" x2="2434.633729" y2="1663.948218" stroke="black" stroke-width="4.752"/>
<line x1="2435.08853" y1="1882.707776" x2="2453.735397" y2="1882.707776" stroke="black" stroke-width="4.752"/>
<line x1="2453.735397" y1="1882.707776" x2="2453.735397" y2="1846.32365" stroke="black" stroke-width="4.752"/>
<line x1="2453.735397" y1="1846.32365" x2="2435.08853" y2="1846.32365" stroke="black" stroke-width="4.752"/>
<line x1="2435.08853" y1="1846.32365" x2="2435.08853" y2="1882.707776" stroke="black" stroke-width="4.752"/>
<path d="m 2252.258298,1846.778454 a 182.3754315,182.3754315 0 0 1 182.37543099999994,-182.37543200000005" fill="none" stroke="black" stroke-width="4.752"/>
<line x1="2337.890246" y1="2779.317848" x2="2356.067739" y2="2779.317848" stroke="black" stroke-width="4.752"/>
<line x1="2356.067739" y1="2779.317848" x2="2356.067739" y2="2743.849569" stroke="black" stroke-width="4.752"/>
<line x1="2356.067739" y1="2743.849569" x2="2337.890246" y2="2743.849569" stroke="black" stroke-width="4.752"/>
<line x1="2337.890246" y1="2743.849569" x2="2337.890246" y2="2779.317848" stroke="black" stroke-width="4.752"/>
<line x1="2533.852485" y1="2743.849569" x2="2533.852485" y2="2566.95153" stroke="black" stroke-width="4.752"/>
<line x1="2534.295839" y1="2780.204555" x2="2552.473332" y2="2780.204555" stroke="black" stroke-width="4.752"/>
<line x1="2552.473332" y1="2780.204555" x2="2552.473332" y2="2744.736276" stroke="black" stroke-width="4.752"/>
<line x1="2552.473332" y1="2744.736276" x2="2534.295839" y2="2744.736276" stroke="black" stroke-width="4.752"/>
<line x1="2534.295839" y1="2744.736276" x2="2534.295839" y2="2780.204555" stroke="black" stroke-width="4.752"/>
<path d="m 2356.067739,2745.17963 a 177.78474600000004,177.78474600000004 0 0 1 177.7847459999998,-177.78474600000027" fill="none" stroke="black" stroke-width="4.752"/>
<line x1="1421.065755" y1="1530.769677" x2="1319.403389" y2="1469.684763" stroke="black" stroke-width="4.752"/>
<line x1="1319.403389" y1="1469.684763" x2="1380.613476" y2="1367.81407" stroke="black" stroke-width="4.752"/>
<line x1="1380.613476" y1="1367.81407" x2="1482.275842" y2="1428.898984" stroke="black" stroke-width="4.752"/>
<line x1="1482.275842" y1="1428.898984" x2="1421.065755" y2="1530.769677" stroke="black" stroke-width="4.752"/>
<line x1="1421.148907" y1="1531.103175" x2="1380.613476" y2="1367.81407" stroke="black" stroke-width="4.752"/>
<line x1="1482.150669" y1="1429.107309" x2="1319.611714" y2="1469.809936" stroke="black" stroke-width="4.752"/>
</g>
</svg>
