<?xml version="1.0"?>
<svg xmlns:xlink="http://www.w3.org/1999/xlink" width="3036.0" height="2967.36">
<image x="0" y="0" width="3036.0" height="2967.36" xlink:href="ground16-08.png"/>
<g style="stroke-linecap:round">
<line x1="711.022134" y1="974.631887" x2="924.757627" y2="974.631887" stroke="black" stroke-width="4.752"/>
<line x1="924.757627" y1="974.631887" x2="924.757627" y2="936.402775" stroke="black" stroke-width="4.752"/>
<line x1="924.757627" y1="936.402775" x2="711.022134" y2="936.402775" stroke="black" stroke-width="4.752"/>
<line x1="711.022134" y1="936.402775" x2="711.022134" y2="974.631887" stroke="black" stroke-width="4.752"/>
<line x1="721.013835" y1="974.631887" x2="721.013835" y2="987.66454" stroke="black" stroke-width="4.752"/>
<line x1="721.013835" y1="987.66454" x2="914.331507" y2="987.66454" stroke="black" stroke-width="4.752"/>
<line x1="914.331507" y1="974.631887" x2="914.331507" y2="987.66454" stroke="black" stroke-width="4.752"/>
<line x1="940.349396" y1="973.778594" x2="1151.564423" y2="973.778594" stroke="black" stroke-width="4.752"/>
<line x1="1151.564423" y1="973.778594" x2="1151.564423" y2="936.000297" stroke="black" stroke-width="4.752"/>
<line x1="1151.564423" y1="936.000297" x2="940.349396" y2="936.000297" stroke="black" stroke-width="4.752"/>
<line x1="940.349396" y1="936.000297" x2="940.349396" y2="973.778594" stroke="black" stroke-width="4.752"/>
<line x1="950.22327" y1="973.778594" x2="950.22327" y2="986.657559" stroke="black" stroke-width="4.752"/>
<line x1="950.22327" y1="986.657559" x2="1141.261253" y2="986.657559" stroke="black" stroke-width="4.752"/>
<line x1="1141.261253" y1="973.778594" x2="1141.261253" y2="986.657559" stroke="black" stroke-width="4.752"/>
<line x1="1007.221765" y1="1065.732196" x2="1007.221765" y2="1364.77194" stroke="black" stroke-width="4.752"/>
<line x1="1007.221765" y1="1364.77194" x2="1480.300716" y2="1364.77194" stroke="black" stroke-width="4.752"/>
<line x1="1480.300716" y1="1364.77194" x2="1480.300716" y2="1065.732196" stroke="black" stroke-width="4.752"/>
<line x1="1480.300716" y1="1065.732196" x2="1007.221765" y2="1065.732196" stroke="black" stroke-width="4.752"/>
<line x1="1395.684967" y1="1064.770656" x2="1395.684967" y2="1365.733483" stroke="black" stroke-width="4.752"/>
<line x1="1395.684967" y1="1365.733483" x2="1324.530816" y2="1066.69374" stroke="black" stroke-width="4.752"/>
<line x1="1324.530816" y1="1066.69374" x2="1258.184379" y2="1111.886242" stroke="black" stroke-width="4.752"/>
<line x1="1258.184379" y1="1111.886242" x2="1396.64651" y2="1365.733483" stroke="black" stroke-width="4.752"/>
<line x1="1502.231665" y1="501.015604" x2="1502.231665" y2="289.277039" stroke="black" stroke-width="4.752"/>
<line x1="1502.231665" y1="289.277039" x2="1469.590426" y2="289.277039" stroke="black" stroke-width="4.752"/>
<line x1="1469.590426" y1="289.277039" x2="1469.590426" y2="501.015604" stroke="black" stroke-width="4.752"/>
<line x1="1469.590426" y1="501.015604" x2="1502.231665" y2="501.015604" stroke="black" stroke-width="4.752"/>
<line x1="1470.019914" y1="481.259067" x2="1501.802174" y2="481.259067" stroke="black" stroke-width="4.752"/>
<line x1="1470.019914" y1="309.463068" x2="1503.090645" y2="309.463068" stroke="black" stroke-width="4.752"/>
<line x1="1485.052066" y1="481.688555" x2="1485.052066" y2="309.892559" stroke="black" stroke-width="4.752"/>
<line x1="1502.091067" y1="721.307997" x2="1502.091067" y2="510.577708" stroke="black" stroke-width="4.752"/>
<line x1="1502.091067" y1="510.577708" x2="1469.605262" y2="510.577708" stroke="black" stroke-width="4.752"/>
<line x1="1469.605262" y1="510.577708" x2="1469.605262" y2="721.307997" stroke="black" stroke-width="4.752"/>
<line x1="1469.605262" y1="721.307997" x2="1502.091067" y2="721.307997" stroke="black" stroke-width="4.752"/>
<line x1="1470.032707" y1="701.645535" x2="1501.663622" y2="701.645535" stroke="black" stroke-width="4.752"/>
<line x1="1470.032707" y1="530.667614" x2="1502.945957" y2="530.667614" stroke="black" stroke-width="4.752"/>
<line x1="1484.993276" y1="702.07298" x2="1484.993276" y2="531.095059" stroke="black" stroke-width="4.752"/>
<line x1="1009.246133" y1="1538.018051" x2="1009.246133" y2="1837.057794" stroke="black" stroke-width="4.752"/>
<line x1="1009.246133" y1="1837.057794" x2="1482.325083" y2="1837.057794" stroke="black" stroke-width="4.752"/>
<line x1="1482.325083" y1="1837.057794" x2="1482.325083" y2="1538.018051" stroke="black" stroke-width="4.752"/>
<line x1="1482.325083" y1="1538.018051" x2="1009.246133" y2="1538.018051" stroke="black" stroke-width="4.752"/>
<line x1="1397.709335" y1="1537.05651" x2="1397.709335" y2="1838.019337" stroke="black" stroke-width="4.752"/>
<line x1="1397.709335" y1="1838.019337" x2="1326.555183" y2="1538.979594" stroke="black" stroke-width="4.752"/>
<line x1="1326.555183" y1="1538.979594" x2="1260.208747" y2="1584.172096" stroke="black" stroke-width="4.752"/>
<line x1="1260.208747" y1="1584.172096" x2="1398.670878" y2="1838.019337" stroke="black" stroke-width="4.752"/>
<line x1="1678.039187" y1="2136.786107" x2="1678.039187" y2="2118.395265" stroke="black" stroke-width="4.752"/>
<line x1="1678.039187" y1="2118.395265" x2="1642.154614" y2="2118.395265" stroke="black" stroke-width="4.752"/>
<line x1="1642.154614" y1="2118.395265" x2="1642.154614" y2="2136.786107" stroke="black" stroke-width="4.752"/>
<line x1="1642.154614" y1="2136.786107" x2="1678.039187" y2="2136.786107" stroke="black" stroke-width="4.752"/>
<line x1="1642.154614" y1="1938.523842" x2="1463.180305" y2="1938.523842" stroke="black" stroke-width="4.752"/>
<line x1="1678.936301" y1="1938.075285" x2="1678.936301" y2="1919.684443" stroke="black" stroke-width="4.752"/>
<line x1="1678.936301" y1="1919.684443" x2="1643.051729" y2="1919.684443" stroke="black" stroke-width="4.752"/>
<line x1="1643.051729" y1="1919.684443" x2="1643.051729" y2="1938.075285" stroke="black" stroke-width="4.752"/>
<line x1="1643.051729" y1="1938.075285" x2="1678.936301" y2="1938.075285" stroke="black" stroke-width="4.752"/>
<path d="m 1643.500286,2118.395265 a 179.8714235,179.8714235 0 0 1 -179.87142399999993,-179.87142300000005" fill="none" stroke="black" stroke-width="4.752"/>
<line x1="487.33825" y1="2244.27782" x2="325.319491" y2="2244.27782" stroke="black" stroke-width="4.752"/>
<line x1="325.319491" y1="2244.27782" x2="325.319491" y2="2200.979706" stroke="black" stroke-width="4.752"/>
<line x1="487.33825" y1="2200.979706" x2="325.319491" y2="2200.979706" stroke="black" stroke-width="4.752"/>
<line x1="487.33825" y1="2244.27782" x2="487.33825" y2="2200.979706" stroke="black" stroke-width="4.752"/>
<line x1="450.674521" y1="2268.720305" x2="450.674521" y2="2244.27782" stroke="black" stroke-width="4.752"/>
<line x1="363.379933" y1="2244.27782" x2="363.379933" y2="2270.117018" stroke="black" stroke-width="4.752"/>
<circle cx="407.725584" cy="2308.52664" r="58.66196392785571" fill="none" stroke="black" stroke-width="4.752"/>
<circle cx="407.725584" cy="2308.52664" r="50.281683366733475" fill="none" stroke="black" stroke-width="4.752"/>
<line x1="1656.101425" y1="1405.921532" x2="1656.101425" y2="1852.599207" stroke="black" stroke-width="4.752"/>
<line x1="1657.23308" y1="1857.09207" x2="1502.675341" y2="1857.09207" stroke="black" stroke-width="4.752"/>
<line x1="1501.367369" y1="1406.449023" x2="1501.367369" y2="1857.4389" stroke="black" stroke-width="4.752"/>
<line x1="1655.312274" y1="1407.28377" x2="1501.668598" y2="1407.28377" stroke="black" stroke-width="4.752"/>
<line x1="1643.506793" y1="1418.978785" x2="1643.506793" y2="1559.318975" stroke="black" stroke-width="4.752"/>
<line x1="1643.506793" y1="1559.318975" x2="1513.962004" y2="1559.318975" stroke="black" stroke-width="4.752"/>
<line x1="1513.962004" y1="1418.978785" x2="1513.962004" y2="1559.318975" stroke="black" stroke-width="4.752"/>
<line x1="1643.506793" y1="1418.978785" x2="1513.962004" y2="1418.978785" stroke="black" stroke-width="4.752"/>
<line x1="1635.410243" y1="1580.909774" x2="1635.410243" y2="1679.8676" stroke="black" stroke-width="4.752"/>
<line x1="1612.91983" y1="1580.909774" x2="1612.91983" y2="1679.8676" stroke="black" stroke-width="4.752"/>
<line x1="1589.529797" y1="1581.809391" x2="1589.529797" y2="1679.8676" stroke="black" stroke-width="4.752"/>
<line x1="1567.039383" y1="1581.809391" x2="1567.039383" y2="1679.8676" stroke="black" stroke-width="4.752"/>
<line x1="1544.548967" y1="1580.909774" x2="1544.548967" y2="1679.8676" stroke="black" stroke-width="4.752"/>
<line x1="1522.058551" y1="1580.909774" x2="1522.058551" y2="1679.8676" stroke="black" stroke-width="4.752"/>
<line x1="1514.861618" y1="1472.955781" x2="1530.155101" y2="1472.955781" stroke="black" stroke-width="4.752"/>
<line x1="1530.155101" y1="1472.955781" x2="1530.155101" y2="1507.141213" stroke="black" stroke-width="4.752"/>
<line x1="1530.155101" y1="1507.141213" x2="1515.761235" y2="1507.141213" stroke="black" stroke-width="4.752"/>
<line x1="1643.506793" y1="1703.257631" x2="1643.506793" y2="1843.597821" stroke="black" stroke-width="4.752"/>
<line x1="1643.506793" y1="1843.597821" x2="1513.962004" y2="1843.597821" stroke="black" stroke-width="4.752"/>
<line x1="1513.962004" y1="1703.257631" x2="1513.962004" y2="1843.597821" stroke="black" stroke-width="4.752"/>
<line x1="1643.506793" y1="1703.257631" x2="1513.962004" y2="1703.257631" stroke="black" stroke-width="4.752"/>
<line x1="1513.962004" y1="1757.234627" x2="1529.255484" y2="1757.234627" stroke="black" stroke-width="4.752"/>
<line x1="1529.255484" y1="1757.234627" x2="1529.255484" y2="1791.420059" stroke="black" stroke-width="4.752"/>
<line x1="1529.255484" y1="1791.420059" x2="1514.861618" y2="1791.420059" stroke="black" stroke-width="4.752"/>
<circle cx="1627.313696" cy="1543.125875" r="8.096549451844107" fill="none" stroke="black" stroke-width="4.752"/>
<circle cx="1626.414079" cy="1827.404724" r="8.096549451844107" fill="none" stroke="black" stroke-width="4.752"/>
<line x1="2018.088917" y1="1759.122248" x2="2117.569423" y2="1695.746173" stroke="black" stroke-width="4.751997"/>
<line x1="2117.569423" y1="1695.746173" x2="2181.075365" y2="1795.430535" stroke="black" stroke-width="4.751997"/>
<line x1="2181.075365" y1="1795.430535" x2="2081.594859" y2="1858.80661" stroke="black" stroke-width="4.751997"/>
<line x1="2081.594859" y1="1858.80661" x2="2018.088917" y2="1759.122248" stroke="black" stroke-width="4.751997"/>
<line x1="2017.755192" y1="1759.048262" x2="2181.075365" y2="1795.430535" stroke="black" stroke-width="4.751997"/>
<line x1="2081.464989" y1="1858.602755" x2="2117.36557" y2="1695.876043" stroke="black" stroke-width="4.751997"/>
<line x1="1595.911068" y1="1012.777846" x2="1511.441113" y2="918.964456" stroke="black" stroke-width="4.752"/>
<line x1="1511.441113" y1="918.964456" x2="1521.564858" y2="909.84899" stroke="black" stroke-width="4.752"/>
<line x1="1606.034815" y1="1003.662385" x2="1521.564858" y2="909.84899" stroke="black" stroke-width="4.752"/>
<line x1="1595.911068" y1="1012.777846" x2="1606.034815" y2="1003.662385" stroke="black" stroke-width="4.752"/>
<line x1="1597.527048" y1="994.213554" x2="1621.014688" y2="975.509367" stroke="black" stroke-width="4.752"/>
<line x1="1530.072622" y1="919.297825" x2="1551.80439" y2="897.286276" stroke="black" stroke-width="4.752"/>
<line x1="1923.245565" y1="718.044542" x2="1838.775608" y2="624.231152" stroke="black" stroke-width="4.752"/>
<line x1="1838.775608" y1="624.231152" x2="1829.326776" y2="632.738919" stroke="black" stroke-width="4.752"/>
<line x1="1913.796733" y1="726.552309" x2="1829.326776" y2="632.738919" stroke="black" stroke-width="4.752"/>
<line x1="1923.245565" y1="718.044542" x2="1913.796733" y2="726.552309" stroke="black" stroke-width="4.752"/>
<line x1="1904.546831" y1="718.993791" x2="1883.489985" y2="740.397641" stroke="black" stroke-width="4.752"/>
<line x1="1837.092407" y1="644.07806" x2="1812.322153" y2="662.715026" stroke="black" stroke-width="4.752"/>
<line x1="1523.67769" y1="697.74715" x2="1532.79315" y2="707.870896" stroke="black" stroke-width="4.752"/>
<line x1="1532.79315" y1="707.870896" x2="1626.60654" y2="623.400938" stroke="black" stroke-width="4.752"/>
<line x1="1617.49108" y1="613.277188" x2="1626.60654" y2="623.400938" stroke="black" stroke-width="4.752"/>
<line x1="1523.67769" y1="697.74715" x2="1617.49108" y2="613.277188" stroke="black" stroke-width="4.752"/>
<line x1="1616.482795" y1="632.516401" x2="1639.16926" y2="653.64047" stroke="black" stroke-width="4.752"/>
<line x1="1542.24198" y1="699.363129" x2="1561.553865" y2="723.525686" stroke="black" stroke-width="4.752"/>
<line x1="1817.128376" y1="1025.014426" x2="1808.012915" y2="1014.890675" stroke="black" stroke-width="4.752"/>
<line x1="1808.012915" y1="1014.890675" x2="1901.826303" y2="930.420718" stroke="black" stroke-width="4.752"/>
<line x1="1910.941766" y1="940.544468" x2="1901.826303" y2="930.420718" stroke="black" stroke-width="4.752"/>
<line x1="1817.128376" y1="1025.014426" x2="1910.941766" y2="940.544468" stroke="black" stroke-width="4.752"/>
<line x1="1891.702557" y1="939.536184" x2="1873.065588" y2="914.765929" stroke="black" stroke-width="4.752"/>
<line x1="1817.461742" y1="1006.382913" x2="1795.450195" y2="984.651144" stroke="black" stroke-width="4.752"/>
<circle cx="1717.309725" cy="819.145808" r="183.45432182279737" fill="none" stroke="black" stroke-width="4.752"/>
<line x1="2292.766257" y1="630.406168" x2="2482.846257" y2="630.406168" stroke="black" stroke-width="4.752"/>
<line x1="2482.846257" y1="630.406168" x2="2482.846257" y2="166.610968" stroke="black" stroke-width="4.752"/>
<line x1="2482.846257" y1="166.610968" x2="2292.766257" y2="166.610968" stroke="black" stroke-width="4.752"/>
<line x1="2292.766257" y1="166.610968" x2="2292.766257" y2="190.370968" stroke="black" stroke-width="4.752"/>
<line x1="2292.766257" y1="190.370968" x2="2460.036657" y2="190.370968" stroke="black" stroke-width="4.752"/>
<line x1="2460.036657" y1="190.370968" x2="2460.036657" y2="605.695768" stroke="black" stroke-width="4.752"/>
<line x1="2460.036657" y1="605.695768" x2="2292.766257" y2="605.695768" stroke="black" stroke-width="4.752"/>
<line x1="2292.766257" y1="605.695768" x2="2292.766257" y2="630.406168" stroke="black" stroke-width="4.752"/>
<line x1="2298.468657" y1="605.695768" x2="2298.468657" y2="190.370968" stroke="black" stroke-width="4.752"/>
<line x1="2297.518257" y1="398.508568" x2="2459.086257" y2="398.508568" stroke="black" stroke-width="4.752"/>
<line x1="2181.960797" y1="1416.096174" x2="2181.960797" y2="1434.145656" stroke="black" stroke-width="4.752"/>
<line x1="2181.960797" y1="1434.145656" x2="2217.1793" y2="1434.145656" stroke="black" stroke-width="4.752"/>
<line x1="2217.1793" y1="1434.145656" x2="2217.1793" y2="1416.096174" stroke="black" stroke-width="4.752"/>
<line x1="2217.1793" y1="1416.096174" x2="2181.960797" y2="1416.096174" stroke="black" stroke-width="4.752"/>
<line x1="2217.1793" y1="1610.678396" x2="2392.831579" y2="1610.678396" stroke="black" stroke-width="4.752"/>
<line x1="2181.080334" y1="1611.118629" x2="2181.080334" y2="1629.168111" stroke="black" stroke-width="4.752"/>
<line x1="2181.080334" y1="1629.168111" x2="2216.298836" y2="1629.168111" stroke="black" stroke-width="4.752"/>
<line x1="2216.298836" y1="1629.168111" x2="2216.298836" y2="1611.118629" stroke="black" stroke-width="4.752"/>
<line x1="2216.298836" y1="1611.118629" x2="2181.080334" y2="1611.118629" stroke="black" stroke-width="4.752"/>
<path d="m 2215.858606,1434.145656 a 176.5327400000001,176.5327400000001 0 0 1 176.5327400000001,176.5327400000001" fill="none" stroke="black" stroke-width="4.752"/>
<line x1="2772.657856" y1="2381.776962" x2="2772.657856" y2="2222.159132" stroke="black" stroke-width="4.752"/>
<line x1="2772.657856" y1="2222.159132" x2="2932.602771" y2="2222.159132" stroke="black" stroke-width="4.752"/>
<line x1="2932.602771" y1="2222.159132" x2="2932.602771" y2="2381.776962" stroke="black" stroke-width="4.752"/>
<line x1="2932.602771" y1="2381.776962" x2="2772.657856" y2="2381.776962" stroke="black" stroke-width="4.752"/>
<line x1="2772.330771" y1="2382.104047" x2="2932.602771" y2="2222.159132" stroke="black" stroke-width="4.752"/>
<line x1="2932.275686" y1="2381.776962" x2="2772.657856" y2="2222.486218" stroke="black" stroke-width="4.752"/>
<line x1="1957.699434" y1="167.356192" x2="1796.361993" y2="300.352512" stroke="black" stroke-width="4.752"/>
<line x1="1796.361993" y1="300.352512" x2="1943.867006" y2="479.290403" stroke="black" stroke-width="4.752"/>
<line x1="1943.867006" y1="479.290403" x2="2105.204447" y2="346.294083" stroke="black" stroke-width="4.752"/>
<line x1="2105.204447" y1="346.294083" x2="1957.699434" y2="167.356192" stroke="black" stroke-width="4.752"/>
<line x1="1978.253408" y1="192.29016" x2="1816.915969" y2="325.286483" stroke="black" stroke-width="4.752"/>
<line x1="937.76378" y1="2181.402395" x2="1119.500414" y2="2181.402395" stroke="black" stroke-width="4.752"/>
<line x1="1119.500414" y1="2181.402395" x2="1119.500414" y2="1979.839945" stroke="black" stroke-width="4.752"/>
<line x1="1119.500414" y1="1979.839945" x2="937.76378" y2="1979.839945" stroke="black" stroke-width="4.752"/>
<line x1="937.76378" y1="1979.839945" x2="937.76378" y2="2181.402395" stroke="black" stroke-width="4.752"/>
<line x1="937.76378" y1="2153.315823" x2="1119.500414" y2="2153.315823" stroke="black" stroke-width="4.752"/>
<line x1="104.409286" y1="2200.369765" x2="104.409286" y2="2696.361323" stroke="black" stroke-width="4.752"/>
<line x1="104.409286" y1="2696.361323" x2="325.296217" y2="2696.361323" stroke="black" stroke-width="4.752"/>
<line x1="325.296217" y1="2696.361323" x2="325.296217" y2="2200.369765" stroke="black" stroke-width="4.752"/>
<line x1="325.296217" y1="2200.369765" x2="104.409286" y2="2200.369765" stroke="black" stroke-width="4.752"/>
<line x1="291.159145" y1="2600.978332" x2="291.159145" y2="2240.531024" stroke="black" stroke-width="4.752"/>
<line x1="291.159145" y1="2240.531024" x2="141.558453" y2="2240.531024" stroke="black" stroke-width="4.752"/>
<line x1="141.558453" y1="2240.531024" x2="141.558453" y2="2608.006553" stroke="black" stroke-width="4.752"/>
<path d="m 291.482949,2599.950756 a 80.32251857655915,80.32251857655915 0 0 1 -151.33281200000002,5.443336999999701" fill="none" stroke="black" stroke-width="4.752"/>
<line x1="327.130608" y1="2558.107601" x2="606.097539" y2="2558.107601" stroke="black" stroke-width="4.752"/>
<line x1="606.097539" y1="2558.107601" x2="606.097539" y2="2694.161144" stroke="black" stroke-width="4.752"/>
<line x1="327.130608" y1="2694.161144" x2="606.097539" y2="2694.161144" stroke="black" stroke-width="4.752"/>
<line x1="327.130608" y1="2558.107601" x2="327.130608" y2="2694.161144" stroke="black" stroke-width="4.752"/>
<line x1="333.99045" y1="2564.967443" x2="476.332182" y2="2564.967443" stroke="black" stroke-width="4.752"/>
<line x1="476.332182" y1="2564.967443" x2="476.332182" y2="2686.72965" stroke="black" stroke-width="4.752"/>
<line x1="333.99045" y1="2686.72965" x2="476.332182" y2="2686.72965" stroke="black" stroke-width="4.752"/>
<line x1="333.99045" y1="2564.967443" x2="333.99045" y2="2686.72965" stroke="black" stroke-width="4.752"/>
<line x1="491.195177" y1="2572.970593" x2="591.234545" y2="2572.970593" stroke="black" stroke-width="4.752"/>
<line x1="491.195177" y1="2594.121774" x2="591.234545" y2="2594.121774" stroke="black" stroke-width="4.752"/>
<line x1="491.766829" y1="2615.84461" x2="591.8062" y2="2615.84461" stroke="black" stroke-width="4.752"/>
<line x1="491.766829" y1="2636.995791" x2="591.8062" y2="2636.995791" stroke="black" stroke-width="4.752"/>
<line x1="491.195177" y1="2658.146972" x2="591.234545" y2="2658.146972" stroke="black" stroke-width="4.752"/>
<line x1="491.195177" y1="2679.298153" x2="591.234545" y2="2679.298153" stroke="black" stroke-width="4.752"/>
<line x1="388.297539" y1="2686.72965" x2="388.297539" y2="2672.438311" stroke="black" stroke-width="4.752"/>
<line x1="388.297539" y1="2672.438311" x2="423.740056" y2="2672.438311" stroke="black" stroke-width="4.752"/>
<line x1="423.740056" y1="2672.438311" x2="423.740056" y2="2686.157995" stroke="black" stroke-width="4.752"/>
<circle cx="460.325884" cy="2580.40209" r="8.574803149606298" fill="none" stroke="black" stroke-width="4.752"/>
<line x1="2559.683615" y1="2456.021146" x2="2559.683615" y2="2474.198639" stroke="black" stroke-width="4.752"/>
<line x1="2559.683615" y1="2474.198639" x2="2595.151894" y2="2474.198639" stroke="black" stroke-width="4.752"/>
<line x1="2595.151894" y1="2474.198639" x2="2595.151894" y2="2456.021146" stroke="black" stroke-width="4.752"/>
<line x1="2595.151894" y1="2456.021146" x2="2559.683615" y2="2456.021146" stroke="black" stroke-width="4.752"/>
<line x1="2595.151894" y1="2651.983385" x2="2772.049933" y2="2651.983385" stroke="black" stroke-width="4.752"/>
<line x1="2558.796908" y1="2652.426739" x2="2558.796908" y2="2670.604232" stroke="black" stroke-width="4.752"/>
<line x1="2558.796908" y1="2670.604232" x2="2594.265186" y2="2670.604232" stroke="black" stroke-width="4.752"/>
<line x1="2594.265186" y1="2670.604232" x2="2594.265186" y2="2652.426739" stroke="black" stroke-width="4.752"/>
<line x1="2594.265186" y1="2652.426739" x2="2558.796908" y2="2652.426739" stroke="black" stroke-width="4.752"/>
<path d="m 2593.821833,2474.198639 a 177.7847459999998,177.7847459999998 0 0 1 177.7847459999998,177.7847459999998" fill="none" stroke="black" stroke-width="4.752"/>
<line x1="2767.318221" y1="2704.018086" x2="2934.246638" y2="2704.018086" stroke="black" stroke-width="4.752"/>
<line x1="2934.246638" y1="2704.018086" x2="2934.246638" y2="2748.628267" stroke="black" stroke-width="4.752"/>
<line x1="2767.318221" y1="2748.628267" x2="2934.246638" y2="2748.628267" stroke="black" stroke-width="4.752"/>
<line x1="2767.318221" y1="2704.018086" x2="2767.318221" y2="2748.628267" stroke="black" stroke-width="4.752"/>
<line x1="2805.092973" y1="2678.83492" x2="2805.092973" y2="2704.018086" stroke="black" stroke-width="4.752"/>
<line x1="2895.032852" y1="2704.018086" x2="2895.032852" y2="2677.395882" stroke="black" stroke-width="4.752"/>
<circle cx="2849.343394" cy="2637.822335" r="60.4395991983968" fill="none" stroke="black" stroke-width="4.752"/>
<circle cx="2849.343394" cy="2637.822335" r="51.805370741482974" fill="none" stroke="black" stroke-width="4.752"/>
<line x1="2233.611431" y1="1881.798175" x2="2252.258298" y2="1881.798175" stroke="black" stroke-width="4.752"/>
<line x1="2252.258298" y1="1881.798175" x2="2252.258298" y2="1845.414049" stroke="black" stroke-width="4.752"/>
<line x1="2252.258298" y1="1845.414049" x2="2233.611431" y2="1845.414049" stroke="black" stroke-width="4.752"/>
<line x1="2233.611431" y1="1845.414049" x2="2233.611431" y2="1881.798175" stroke="black" stroke-width="4.752"/>
<line x1="2434.633729" y1="1845.414049" x2="2434.633729" y2="1663.948218" stroke="black" stroke-width="4.752"/>
<line x1="2435.08853" y1="1882.707776" x2="2453.735397" y2="1882.707776" stroke="black" stroke-width="4.752"/>
<line x1="2453.735397" y1="1882.707776" x2="2453.735397" y2="1846.32365" stroke="black" stroke-width="4.752"/>
<line x1="2453.735397" y1="1846.32365" x2="2435.08853" y2="1846.32365" stroke="black" stroke-width="4.752"/>
<line x1="2435.08853" y1="1846.32365" x2="2435.08853" y2="1882.707776" stroke="black" stroke-width="4.752"/>
<path d="m 2252.258298,1846.778454 a 182.3754315,182.3754315 0 0 1 182.37543099999994,-182.37543200000005" fill="none" stroke="black" stroke-width="4.752"/>
<line x1="2337.890246" y1="2779.317848" x2="2356.067739" y2="2779.317848" stroke="black" stroke-width="4.752"/>
<line x1="2356.067739" y1="2779.317848" x2="2356.067739" y2="2743.849569" stroke="black" stroke-width="4.752"/>
<line x1="2356.067739" y1="2743.849569" x2="2337.890246" y2="2743.849569" stroke="black" stroke-width="4.752"/>
<line x1="2337.890246" y1="2743.849569" x2="2337.890246" y2="2779.317848" stroke="black" stroke-width="4.752"/>
<line x1="2533.852485" y1="2743.849569" x2="2533.852485" y2="2566.95153" stroke="black" stroke-width="4.752"/>
<line x1="2534.295839" y1="2780.204555" x2="2552.473332" y2="2780.204555" stroke="black" stroke-width="4.752"/>
<line x1="2552.473332" y1="2780.204555" x2="2552.473332" y2="2744.736276" stroke="black" stroke-width="4.752"/>
<line x1="2552.473332" y1="2744.736276" x2="2534.295839" y2="2744.736276" stroke="black" stroke-width="4.752"/>
<line x1="2534.295839" y1="2744.736276" x2="2534.295839" y2="2780.204555" stroke="black" stroke-width="4.752"/>
<path d="m 2356.067739,2745.17963 a 177.78474600000004,177.78474600000004 0 0 1 177.7847459999998,-177.78474600000027" fill="none" stroke="black" stroke-width="4.752"/>
<line x1="1481.943941" y1="1504.232619" x2="1346.334969" y2="1530.592335" stroke="black" stroke-width="4.752"/>
<line x1="1346.334969" y1="1530.592335" x2="1319.921238" y2="1394.705474" stroke="black" stroke-width="4.752"/>
<line x1="1319.921238" y1="1394.705474" x2="1455.530211" y2="1368.34576" stroke="black" stroke-width="4.752"/>
<line x1="1455.530211" y1="1368.34576" x2="1481.943941" y2="1504.232619" stroke="black" stroke-width="4.752"/>
<line x1="1482.275845" y1="1504.456491" x2="1319.921238" y2="1394.705474" stroke="black" stroke-width="4.752"/>
<line x1="1455.584228" y1="1368.623647" x2="1346.612858" y2="1530.538318" stroke="black" stroke-width="4.752"/>
</g>
</svg>
