<?xml version="1.0"?>
<svg xmlns:xlink="http://www.w3.org/1999/xlink" width="3036.0" height="2967.36">
<image x="0" y="0" width="3036.0" height="2967.36" xlink:href="ground16-08.png"/>
<g style="stroke-linecap:round">
<line x1="711.022134" y1="974.631887" x2="924.757627" y2="974.631887" stroke="black" stroke-width="4.752"/>
<line x1="924.757627" y1="974.631887" x2="924.757627" y2="936.402775" stroke="black" stroke-width="4.752"/>
<line x1="924.757627" y1="936.402775" x2="711.022134" y2="936.402775" stroke="black" stroke-width="4.752"/>
<line x1="711.022134" y1="936.402775" x2="711.022134" y2="974.631887" stroke="black" stroke-width="4.752"/>
<line x1="721.013835" y1="974.631887" x2="721.013835" y2="987.66454" stroke="black" stroke-width="4.752"/>
<line x1="721.013835" y1="987.66454" x2="914.331507" y2="987.66454" stroke="black" stroke-width="4.752"/>
<line x1="914.331507" y1="974.631887" x2="914.331507" y2="987.66454" stroke="black" stroke-width="4.752"/>
<line x1="940.349396" y1="973.778594" x2="1151.564423" y2="973.778594" stroke="black" stroke-width="4.752"/>
<line x1="1151.564423" y1="973.778594" x2="1151.564423" y2="936.000297" stroke="black" stroke-width="4.752"/>
<line x1="1151.564423" y1="936.000297" x2="940.349396" y2="936.000297" stroke="black" stroke-width="4.752"/>
<line x1="940.349396" y1="936.000297" x2="940.349396" y2="973.778594" stroke="black" stroke-width="4.752"/>
<line x1="950.22327" y1="973.778594" x2="950.22327" y2="986.657559" stroke="black" stroke-width="4.752"/>
<line x1="950.22327" y1="986.657559" x2="1141.261253" y2="986.657559" stroke="black" stroke-width="4.752"/>
<line x1="1141.261253" y1="973.778594" x2="1141.261253" y2="986.657559" stroke="black" stroke-width="4.752"/>
<line x1="1007.221765" y1="1065.732196" x2="1007.221765" y2="1364.77194" stroke="black" stroke-width="4.752"/>
<line x1="1007.221765" y1="1364.77194" x2="1480.300716" y2="1364.77194" stroke="black" stroke-width="4.752"/>
<line x1="1480.300716" y1="1364.77194" x2="1480.300716" y2="1065.732196" stroke="black" stroke-width="4.752"/>
<line x1="1480.300716" y1="1065.732196" x2="1007.221765" y2="1065.732196" stroke="black" stroke-width="4.752"/>
<line x1="1395.684967" y1="1064.770656" x2="1395.684967" y2="1365.733483" stroke="black" stroke-width="4.752"/>
<line x1="1395.684967" y1="1365.733483" x2="1324.530816" y2="1066.69374" stroke="black" stroke-width="4.752"/>
<line x1="1324.530816" y1="1066.69374" x2="1258.184379" y2="1111.886242" stroke="black" stroke-width="4.752"/>
<line x1="1258.184379" y1="1111.886242" x2="1396.64651" y2="1365.733483" stroke="black" stroke-width="4.752"/>
<line x1="1502.231665" y1="501.015604" x2="1502.231665" y2="289.277039" stroke="black" stroke-width="4.752"/>
<line x1="1502.231665" y1="289.277039" x2="1469.590426" y2="289.277039" stroke="black" stroke-width="4.752"/>
<line x1="1469.590426" y1="289.277039" x2="1469.590426" y2="501.015604" stroke="black" stroke-width="4.752"/>
<line x1="1469.590426" y1="501.015604" x2="1502.231665" y2="501.015604" stroke="black" stroke-width="4.752"/>
<line x1="1470.019914" y1="481.259067" x2="1501.802174" y2="481.259067" stroke="black" stroke-width="4.752"/>
<line x1="1470.019914" y1="309.463068" x2="1503.090645" y2="309.463068" stroke="black" stroke-width="4.752"/>
<line x1="1485.052066" y1="481.688555" x2="1485.052066" y2="309.892559" stroke="black" stroke-width="4.752"/>
<line x1="1502.091067" y1="721.307997" x2="1502.091067" y2="510.577708" stroke="black" stroke-width="4.752"/>
<line x1="1502.091067" y1="510.577708" x2="1469.605262" y2="510.577708" stroke="black" stroke-width="4.752"/>
<line x1="1469.605262" y1="510.577708" x2="1469.605262" y2="721.307997" stroke="black" stroke-width="4.752"/>
<line x1="1469.605262" y1="721.307997" x2="1502.091067" y2="721.307997" stroke="black" stroke-width="4.752"/>
<line x1="1470.032707" y1="701.645535" x2="1501.663622" y2="701.645535" stroke="black" stroke-width="4.752"/>
<line x1="1470.032707" y1="530.667614" x2="1502.945957" y2="530.667614" stroke="black" stroke-width="4.752"/>
<line x1="1484.993276" y1="702.07298" x2="1484.993276" y2="531.095059" stroke="black" stroke-width="4.752"/>
<line x1="1009.246133" y1="1538.018051" x2="1009.246133" y2="1837.057794" stroke="black" stroke-width="4.752"/>
<line x1="1009.246133" y1="1837.057794" x2="1482.325083" y2="1837.057794" stroke="black" stroke-width="4.752"/>
<line x1="1482.325083" y1="1837.057794" x2="1482.325083" y2="1538.018051" stroke="black" stroke-width="4.752"/>
<line x1="1482.325083" y1="1538.018051" x2="1009.246133" y2="1538.018051" stroke="black" stroke-width="4.752"/>
<line x1="1397.709335" y1="1537.05651" x2="1397.709335" y2="1838.019337" stroke="black" stroke-width="4.752"/>
<line x1="1397.709335" y1="1838.019337" x2="1326.555183" y2="1538.979594" stroke="black" stroke-width="4.752"/>
<line x1="1326.555183" y1="1538.979594" x2="1260.208747" y2="1584.172096" stroke="black" stroke-width="4.752"/>
<line x1="1260.208747" y1="1584.172096" x2="1398.670878" y2="1838.019337" stroke="black" stroke-width="4.752"/>
<line x1="1678.039187" y1="2136.786107" x2="1678.039187" y2="2118.395265" stroke="black" stroke-width="4.752"/>
<line x1="1678.039187" y1="2118.395265" x2="1642.154614" y2="2118.395265" stroke="black" stroke-width="4.752"/>
<line x1="1642.154614" y1="2118.395265" x2="1642.154614" y2="2136.786107" stroke="black" stroke-width="4.752"/>
<line x1="1642.154614" y1="2136.786107" x2="1678.039187" y2="2136.786107" stroke="black" stroke-width="4.752"/>
<line x1="1642.154614" y1="1938.523842" x2="1463.180305" y2="1938.523842" stroke="black" stroke-width="4.752"/>
<line x1="1678.936301" y1="1938.075285" x2="1678.936301" y2="1919.684443" stroke="black" stroke-width="4.752"/>
<line x1="1678.936301" y1="1919.684443" x2="1643.051729" y2="1919.684443" stroke="black" stroke-width="4.752"/>
<line x1="1643.051729" y1="1919.684443" x2="1643.051729" y2="1938.075285" stroke="black" stroke-width="4.752"/>
<line x1="1643.051729" y1="1938.075285" x2="1678.936301" y2="1938.075285" stroke="black" stroke-width="4.752"/>
<path d="m 1643.500286,2118.395265 a 179.8714235,179.8714235 0 0 1 -179.87142399999993,-179.87142300000005" fill="none" stroke="black" stroke-width="4.752"/>
<line x1="487.33825" y1="2244.27782" x2="325.319491" y2="2244.27782" stroke="black" stroke-width="4.752"/>
<line x1="325.319491" y1="2244.27782" x2="325.319491" y2="2200.979706" stroke="black" stroke-width="4.752"/>
<line x1="487.33825" y1="2200.979706" x2="325.319491" y2="2200.979706" stroke="black" stroke-width="4.752"/>
<line x1="487.33825" y1="2244.27782" x2="487.33825" y2="2200.979706" stroke="black" stroke-width="4.752"/>
<line x1="450.674521" y1="2268.720305" x2="450.674521" y2="2244.27782" stroke="black" stroke-width="4.752"/>
<line x1="363.379933" y1="2244.27782" x2="363.379933" y2="2270.117018" stroke="black" stroke-width="4.752"/>
<circle cx="407.725584" cy="2308.52664" r="58.66196392785571" fill="none" stroke="black" stroke-width="4.752"/>
<circle cx="407.725584" cy="2308.52664" r="50.281683366733475" fill="none" stroke="black" stroke-width="4.752"/>
<line x1="1656.101425" y1="1405.921532" x2="1656.101425" y2="1852.599207" stroke="black" stroke-width="4.752"/>
<line x1="1657.23308" y1="1857.09207" x2="1502.675341" y2="1857.09207" stroke="black" stroke-width="4.752"/>
<line x1="1501.367369" y1="1406.449023" x2="1501.367369" y2="1857.4389" stroke="black" stroke-width="4.752"/>
<line x1="1655.312274" y1="1407.28377" x2="1501.668598" y2="1407.28377" stroke="black" stroke-width="4.752"/>
<line x1="1643.506793" y1="1418.978785" x2="1643.506793" y2="1559.318975" stroke="black" stroke-width="4.752"/>
<line x1="1643.506793" y1="1559.318975" x2="1513.962004" y2="1559.318975" stroke="black" stroke-width="4.752"/>
<line x1="1513.962004" y1="1418.978785" x2="1513.962004" y2="1559.318975" stroke="black" stroke-width="4.752"/>
<line x1="1643.506793" y1="1418.978785" x2="1513.962004" y2="1418.978785" stroke="black" stroke-width="4.752"/>
<line x1="1635.410243" y1="1580.909774" x2="1635.410243" y2="1679.8676" stroke="black" stroke-width="4.752"/>
<line x1="1612.91983" y1="1580.909774" x2="1612.91983" y2="1679.8676" stroke="black" stroke-width="4.752"/>
<line x1="1589.529797" y1="1581.809391" x2="1589.529797" y2="1679.8676" stroke="black" stroke-width="4.752"/>
<line x1="1567.039383" y1="1581.809391" x2="1567.039383" y2="1679.8676" stroke="black" stroke-width="4.752"/>
<line x1="1544.548967" y1="1580.909774" x2="1544.548967" y2="1679.8676" stroke="black" stroke-width="4.752"/>
<line x1="1522.058551" y1="1580.909774" x2="1522.058551" y2="1679.8676" stroke="black" stroke-width="4.752"/>
<line x1="1514.861618" y1="1472.955781" x2="1530.155101" y2="1472.955781" stroke="black" stroke-width="4.752"/>
<line x1="1530.155101" y1="1472.955781" x2="1530.155101" y2="1507.141213" stroke="black" stroke-width="4.752"/>
<line x1="1530.155101" y1="1507.141213" x2="1515.761235" y2="1507.141213" stroke="black" stroke-width="4.752"/>
<line x1="1643.506793" y1="1703.257631" x2="1643.506793" y2="1843.597821" stroke="black" stroke-width="4.752"/>
<line x1="1643.506793" y1="1843.597821" x2="1513.962004" y2="1843.597821" stroke="black" stroke-width="4.752"/>
<line x1="1513.962004" y1="1703.257631" x2="1513.962004" y2="1843.597821" stroke="black" stroke-width="4.752"/>
<line x1="1643.506793" y1="1703.257631" x2="1513.962004" y2="1703.257631" stroke="black" stroke-width="4.752"/>
<line x1="1513.962004" y1="1757.234627" x2="1529.255484" y2="1757.234627" stroke="black" stroke-width="4.752"/>
<line x1="1529.255484" y1="1757.234627" x2="1529.255484" y2="1791.420059" stroke="black" stroke-width="4.752"/>
<line x1="1529.255484" y1="1791.420059" x2="1514.861618" y2="1791.420059" stroke="black" stroke-width="4.752"/>
<circle cx="1627.313696" cy="1543.125875" r="8.096549451844107" fill="none" stroke="black" stroke-width="4.752"/>
<circle cx="1626.414079" cy="1827.404724" r="8.096549451844107" fill="none" stroke="black" stroke-width="4.752"/>
<line x1="2018.050185" y1="1762.069304" x2="2114.589658" y2="1695.719562" stroke="black" stroke-width="4.752"/>
<line x1="2114.589658" y1="1695.719562" x2="2181.075362" y2="1792.456863" stroke="black" stroke-width="4.752"/>
<line x1="2181.075362" y1="1792.456863" x2="2084.53589" y2="1858.806605" stroke="black" stroke-width="4.752"/>
<line x1="2084.53589" y1="1858.806605" x2="2018.050185" y2="1762.069304" stroke="black" stroke-width="4.752"/>
<line x1="2017.716397" y1="1762.007441" x2="2181.075362" y2="1792.456863" stroke="black" stroke-width="4.752"/>
<line x1="2084.399927" y1="1858.608777" x2="2114.391832" y2="1695.855525" stroke="black" stroke-width="4.752"/>
<line x1="1937.302583" y1="924.234664" x2="2051.571094" y2="910.204258" stroke="black" stroke-width="4.752"/>
<line x1="2051.571094" y1="910.204258" x2="2053.085169" y2="922.535391" stroke="black" stroke-width="4.752"/>
<line x1="1938.816655" y1="936.565803" x2="2053.085169" y2="922.535391" stroke="black" stroke-width="4.752"/>
<line x1="1937.302583" y1="924.234664" x2="1938.816655" y2="936.565803" stroke="black" stroke-width="4.752"/>
<line x1="1950.325714" y1="935.152667" x2="1952.012523" y2="962.483037" stroke="black" stroke-width="4.752"/>
<line x1="2041.57611" y1="923.948525" x2="2046.652162" y2="951.697222" stroke="black" stroke-width="4.752"/>
<line x1="1986.257608" y1="1322.941348" x2="2100.526122" y2="1308.910941" stroke="black" stroke-width="4.752"/>
<line x1="2100.526122" y1="1308.910941" x2="2099.112988" y2="1297.401882" stroke="black" stroke-width="4.752"/>
<line x1="1984.844471" y1="1311.432289" x2="2099.112988" y2="1297.401882" stroke="black" stroke-width="4.752"/>
<line x1="1986.257608" y1="1322.941348" x2="1984.844471" y2="1311.432289" stroke="black" stroke-width="4.752"/>
<line x1="1995.32958" y1="1308.475943" x2="1990.354465" y2="1281.549324" stroke="black" stroke-width="4.752"/>
<line x1="2086.579973" y1="1297.271804" x2="2085.614304" y2="1269.018416" stroke="black" stroke-width="4.752"/>
<line x1="2210.430412" y1="1035.061973" x2="2198.099278" y2="1036.576044" stroke="black" stroke-width="4.752"/>
<line x1="2198.099278" y1="1036.576044" x2="2212.12969" y2="1150.844558" stroke="black" stroke-width="4.752"/>
<line x1="2224.460824" y1="1149.330484" x2="2212.12969" y2="1150.844558" stroke="black" stroke-width="4.752"/>
<line x1="2210.430412" y1="1035.061973" x2="2224.460824" y2="1149.330484" stroke="black" stroke-width="4.752"/>
<line x1="2210.615616" y1="1138.513424" x2="2182.967857" y2="1144.411549" stroke="black" stroke-width="4.752"/>
<line x1="2199.512412" y1="1048.085106" x2="2171.359964" y2="1049.87285" stroke="black" stroke-width="4.752"/>
<line x1="1812.444868" y1="1083.093985" x2="1824.776002" y2="1081.57991" stroke="black" stroke-width="4.752"/>
<line x1="1824.776002" y1="1081.57991" x2="1838.806411" y2="1195.848424" stroke="black" stroke-width="4.752"/>
<line x1="1826.475275" y1="1197.362496" x2="1838.806411" y2="1195.848424" stroke="black" stroke-width="4.752"/>
<line x1="1812.444868" y1="1083.093985" x2="1826.475275" y2="1197.362496" stroke="black" stroke-width="4.752"/>
<line x1="1837.29234" y1="1183.517288" x2="1865.545722" y2="1182.551618" stroke="black" stroke-width="4.752"/>
<line x1="1826.189136" y1="1093.088969" x2="1853.93783" y2="1088.01292" stroke="black" stroke-width="4.752"/>
<circle cx="2018.452843" cy="1116.212236" r="167.3063547568242" fill="none" stroke="black" stroke-width="4.752"/>
<line x1="2482.846257" y1="356.690968" x2="2482.846257" y2="166.610968" stroke="black" stroke-width="4.752"/>
<line x1="2482.846257" y1="166.610968" x2="2019.051057" y2="166.610968" stroke="black" stroke-width="4.752"/>
<line x1="2019.051057" y1="166.610968" x2="2019.051057" y2="356.690968" stroke="black" stroke-width="4.752"/>
<line x1="2019.051057" y1="356.690968" x2="2042.811057" y2="356.690968" stroke="black" stroke-width="4.752"/>
<line x1="2042.811057" y1="356.690968" x2="2042.811057" y2="189.420568" stroke="black" stroke-width="4.752"/>
<line x1="2042.811057" y1="189.420568" x2="2458.135857" y2="189.420568" stroke="black" stroke-width="4.752"/>
<line x1="2458.135857" y1="189.420568" x2="2458.135857" y2="356.690968" stroke="black" stroke-width="4.752"/>
<line x1="2458.135857" y1="356.690968" x2="2482.846257" y2="356.690968" stroke="black" stroke-width="4.752"/>
<line x1="2458.135857" y1="350.988568" x2="2042.811057" y2="350.988568" stroke="black" stroke-width="4.752"/>
<line x1="2250.948657" y1="351.938968" x2="2250.948657" y2="190.370968" stroke="black" stroke-width="4.752"/>
<line x1="2181.960797" y1="1416.096174" x2="2181.960797" y2="1434.145656" stroke="black" stroke-width="4.752"/>
<line x1="2181.960797" y1="1434.145656" x2="2217.1793" y2="1434.145656" stroke="black" stroke-width="4.752"/>
<line x1="2217.1793" y1="1434.145656" x2="2217.1793" y2="1416.096174" stroke="black" stroke-width="4.752"/>
<line x1="2217.1793" y1="1416.096174" x2="2181.960797" y2="1416.096174" stroke="black" stroke-width="4.752"/>
<line x1="2217.1793" y1="1610.678396" x2="2392.831579" y2="1610.678396" stroke="black" stroke-width="4.752"/>
<line x1="2181.080334" y1="1611.118629" x2="2181.080334" y2="1629.168111" stroke="black" stroke-width="4.752"/>
<line x1="2181.080334" y1="1629.168111" x2="2216.298836" y2="1629.168111" stroke="black" stroke-width="4.752"/>
<line x1="2216.298836" y1="1629.168111" x2="2216.298836" y2="1611.118629" stroke="black" stroke-width="4.752"/>
<line x1="2216.298836" y1="1611.118629" x2="2181.080334" y2="1611.118629" stroke="black" stroke-width="4.752"/>
<path d="m 2215.858606,1434.145656 a 176.5327400000001,176.5327400000001 0 0 1 176.5327400000001,176.5327400000001" fill="none" stroke="black" stroke-width="4.752"/>
<line x1="2772.657856" y1="2381.776962" x2="2772.657856" y2="2222.159132" stroke="black" stroke-width="4.752"/>
<line x1="2772.657856" y1="2222.159132" x2="2932.602771" y2="2222.159132" stroke="black" stroke-width="4.752"/>
<line x1="2932.602771" y1="2222.159132" x2="2932.602771" y2="2381.776962" stroke="black" stroke-width="4.752"/>
<line x1="2932.602771" y1="2381.776962" x2="2772.657856" y2="2381.776962" stroke="black" stroke-width="4.752"/>
<line x1="2772.330771" y1="2382.104047" x2="2932.602771" y2="2222.159132" stroke="black" stroke-width="4.752"/>
<line x1="2932.275686" y1="2381.776962" x2="2772.657856" y2="2222.486218" stroke="black" stroke-width="4.752"/>
<line x1="882.398563" y1="2181.402395" x2="1064.135197" y2="2181.402395" stroke="black" stroke-width="4.752"/>
<line x1="1064.135197" y1="2181.402395" x2="1064.135197" y2="1979.839945" stroke="black" stroke-width="4.752"/>
<line x1="1064.135197" y1="1979.839945" x2="882.398563" y2="1979.839945" stroke="black" stroke-width="4.752"/>
<line x1="882.398563" y1="1979.839945" x2="882.398563" y2="2181.402395" stroke="black" stroke-width="4.752"/>
<line x1="882.398563" y1="2153.315823" x2="1064.135197" y2="2153.315823" stroke="black" stroke-width="4.752"/>
<line x1="2295.253744" y1="776.548962" x2="2482.373781" y2="683.254353" stroke="black" stroke-width="4.752"/>
<line x1="2482.373781" y1="683.254353" x2="2378.901579" y2="475.721223" stroke="black" stroke-width="4.752"/>
<line x1="2378.901579" y1="475.721223" x2="2191.781542" y2="569.015829" stroke="black" stroke-width="4.752"/>
<line x1="2191.781542" y1="569.015829" x2="2295.253744" y2="776.548962" stroke="black" stroke-width="4.752"/>
<line x1="2280.835487" y1="747.63041" x2="2467.955522" y2="654.335803" stroke="black" stroke-width="4.752"/>
<line x1="325.296217" y1="2696.361323" x2="325.296217" y2="2200.369765" stroke="black" stroke-width="4.752"/>
<line x1="325.296217" y1="2200.369765" x2="104.409286" y2="2200.369765" stroke="black" stroke-width="4.752"/>
<line x1="104.409286" y1="2200.369765" x2="104.409286" y2="2696.361323" stroke="black" stroke-width="4.752"/>
<line x1="104.409286" y1="2696.361323" x2="325.296217" y2="2696.361323" stroke="black" stroke-width="4.752"/>
<line x1="138.546358" y1="2295.752757" x2="138.546358" y2="2656.200064" stroke="black" stroke-width="4.752"/>
<line x1="138.546358" y1="2656.200064" x2="288.14705" y2="2656.200064" stroke="black" stroke-width="4.752"/>
<line x1="288.14705" y1="2656.200064" x2="288.14705" y2="2288.724536" stroke="black" stroke-width="4.752"/>
<path d="m 138.222554,2296.780332 a 80.32251858855818,80.32251858855818 0 0 1 151.332812,-5.443336999999701" fill="none" stroke="black" stroke-width="4.752"/>
<line x1="327.130608" y1="2558.107601" x2="606.097539" y2="2558.107601" stroke="black" stroke-width="4.752"/>
<line x1="606.097539" y1="2558.107601" x2="606.097539" y2="2694.161144" stroke="black" stroke-width="4.752"/>
<line x1="327.130608" y1="2694.161144" x2="606.097539" y2="2694.161144" stroke="black" stroke-width="4.752"/>
<line x1="327.130608" y1="2558.107601" x2="327.130608" y2="2694.161144" stroke="black" stroke-width="4.752"/>
<line x1="333.99045" y1="2564.967443" x2="476.332182" y2="2564.967443" stroke="black" stroke-width="4.752"/>
<line x1="476.332182" y1="2564.967443" x2="476.332182" y2="2686.72965" stroke="black" stroke-width="4.752"/>
<line x1="333.99045" y1="2686.72965" x2="476.332182" y2="2686.72965" stroke="black" stroke-width="4.752"/>
<line x1="333.99045" y1="2564.967443" x2="333.99045" y2="2686.72965" stroke="black" stroke-width="4.752"/>
<line x1="491.195177" y1="2572.970593" x2="591.234545" y2="2572.970593" stroke="black" stroke-width="4.752"/>
<line x1="491.195177" y1="2594.121774" x2="591.234545" y2="2594.121774" stroke="black" stroke-width="4.752"/>
<line x1="491.766829" y1="2615.84461" x2="591.8062" y2="2615.84461" stroke="black" stroke-width="4.752"/>
<line x1="491.766829" y1="2636.995791" x2="591.8062" y2="2636.995791" stroke="black" stroke-width="4.752"/>
<line x1="491.195177" y1="2658.146972" x2="591.234545" y2="2658.146972" stroke="black" stroke-width="4.752"/>
<line x1="491.195177" y1="2679.298153" x2="591.234545" y2="2679.298153" stroke="black" stroke-width="4.752"/>
<line x1="388.297539" y1="2686.72965" x2="388.297539" y2="2672.438311" stroke="black" stroke-width="4.752"/>
<line x1="388.297539" y1="2672.438311" x2="423.740056" y2="2672.438311" stroke="black" stroke-width="4.752"/>
<line x1="423.740056" y1="2672.438311" x2="423.740056" y2="2686.157995" stroke="black" stroke-width="4.752"/>
<circle cx="460.325884" cy="2580.40209" r="8.574803149606298" fill="none" stroke="black" stroke-width="4.752"/>
<line x1="2559.683615" y1="2456.021146" x2="2559.683615" y2="2474.198639" stroke="black" stroke-width="4.752"/>
<line x1="2559.683615" y1="2474.198639" x2="2595.151894" y2="2474.198639" stroke="black" stroke-width="4.752"/>
<line x1="2595.151894" y1="2474.198639" x2="2595.151894" y2="2456.021146" stroke="black" stroke-width="4.752"/>
<line x1="2595.151894" y1="2456.021146" x2="2559.683615" y2="2456.021146" stroke="black" stroke-width="4.752"/>
<line x1="2595.151894" y1="2651.983385" x2="2772.049933" y2="2651.983385" stroke="black" stroke-width="4.752"/>
<line x1="2558.796908" y1="2652.426739" x2="2558.796908" y2="2670.604232" stroke="black" stroke-width="4.752"/>
<line x1="2558.796908" y1="2670.604232" x2="2594.265186" y2="2670.604232" stroke="black" stroke-width="4.752"/>
<line x1="2594.265186" y1="2670.604232" x2="2594.265186" y2="2652.426739" stroke="black" stroke-width="4.752"/>
<line x1="2594.265186" y1="2652.426739" x2="2558.796908" y2="2652.426739" stroke="black" stroke-width="4.752"/>
<path d="m 2593.821833,2474.198639 a 177.7847459999998,177.7847459999998 0 0 1 177.7847459999998,177.7847459999998" fill="none" stroke="black" stroke-width="4.752"/>
<line x1="2767.318221" y1="2704.018086" x2="2934.246638" y2="2704.018086" stroke="black" stroke-width="4.752"/>
<line x1="2934.246638" y1="2704.018086" x2="2934.246638" y2="2748.628267" stroke="black" stroke-width="4.752"/>
<line x1="2767.318221" y1="2748.628267" x2="2934.246638" y2="2748.628267" stroke="black" stroke-width="4.752"/>
<line x1="2767.318221" y1="2704.018086" x2="2767.318221" y2="2748.628267" stroke="black" stroke-width="4.752"/>
<line x1="2805.092973" y1="2678.83492" x2="2805.092973" y2="2704.018086" stroke="black" stroke-width="4.752"/>
<line x1="2895.032852" y1="2704.018086" x2="2895.032852" y2="2677.395882" stroke="black" stroke-width="4.752"/>
<circle cx="2849.343394" cy="2637.822335" r="60.4395991983968" fill="none" stroke="black" stroke-width="4.752"/>
<circle cx="2849.343394" cy="2637.822335" r="51.805370741482974" fill="none" stroke="black" stroke-width="4.752"/>
<line x1="2233.611431" y1="1881.798175" x2="2252.258298" y2="1881.798175" stroke="black" stroke-width="4.752"/>
<line x1="2252.258298" y1="1881.798175" x2="2252.258298" y2="1845.414049" stroke="black" stroke-width="4.752"/>
<line x1="2252.258298" y1="1845.414049" x2="2233.611431" y2="1845.414049" stroke="black" stroke-width="4.752"/>
<line x1="2233.611431" y1="1845.414049" x2="2233.611431" y2="1881.798175" stroke="black" stroke-width="4.752"/>
<line x1="2434.633729" y1="1845.414049" x2="2434.633729" y2="1663.948218" stroke="black" stroke-width="4.752"/>
<line x1="2435.08853" y1="1882.707776" x2="2453.735397" y2="1882.707776" stroke="black" stroke-width="4.752"/>
<line x1="2453.735397" y1="1882.707776" x2="2453.735397" y2="1846.32365" stroke="black" stroke-width="4.752"/>
<line x1="2453.735397" y1="1846.32365" x2="2435.08853" y2="1846.32365" stroke="black" stroke-width="4.752"/>
<line x1="2435.08853" y1="1846.32365" x2="2435.08853" y2="1882.707776" stroke="black" stroke-width="4.752"/>
<path d="m 2252.258298,1846.778454 a 182.3754315,182.3754315 0 0 1 182.37543099999994,-182.37543200000005" fill="none" stroke="black" stroke-width="4.752"/>
<line x1="2337.890246" y1="2779.317848" x2="2356.067739" y2="2779.317848" stroke="black" stroke-width="4.752"/>
<line x1="2356.067739" y1="2779.317848" x2="2356.067739" y2="2743.849569" stroke="black" stroke-width="4.752"/>
<line x1="2356.067739" y1="2743.849569" x2="2337.890246" y2="2743.849569" stroke="black" stroke-width="4.752"/>
<line x1="2337.890246" y1="2743.849569" x2="2337.890246" y2="2779.317848" stroke="black" stroke-width="4.752"/>
<line x1="2533.852485" y1="2743.849569" x2="2533.852485" y2="2566.95153" stroke="black" stroke-width="4.752"/>
<line x1="2534.295839" y1="2780.204555" x2="2552.473332" y2="2780.204555" stroke="black" stroke-width="4.752"/>
<line x1="2552.473332" y1="2780.204555" x2="2552.473332" y2="2744.736276" stroke="black" stroke-width="4.752"/>
<line x1="2552.473332" y1="2744.736276" x2="2534.295839" y2="2744.736276" stroke="black" stroke-width="4.752"/>
<line x1="2534.295839" y1="2744.736276" x2="2534.295839" y2="2780.204555" stroke="black" stroke-width="4.752"/>
<path d="m 2356.067739,2745.17963 a 177.78474600000004,177.78474600000004 0 0 1 177.7847459999998,-177.78474600000027" fill="none" stroke="black" stroke-width="4.752"/>
<line x1="1350.739463" y1="1368.545603" x2="1482.275842" y2="1398.913169" stroke="black" stroke-width="4.752"/>
<line x1="1482.275842" y1="1398.913169" x2="1451.846046" y2="1530.71909" stroke="black" stroke-width="4.752"/>
<line x1="1451.846046" y1="1530.71909" x2="1320.309667" y2="1500.351521" stroke="black" stroke-width="4.752"/>
<line x1="1320.309667" y1="1500.351521" x2="1350.739463" y2="1368.545603" stroke="black" stroke-width="4.752"/>
<line x1="1350.532149" y1="1368.213832" x2="1451.846046" y2="1530.71909" stroke="black" stroke-width="4.752"/>
<line x1="1320.371897" y1="1500.081982" x2="1482.006298" y2="1398.850939" stroke="black" stroke-width="4.752"/>
</g>
</svg>
