<?xml version="1.0"?>
<svg xmlns:xlink="http://www.w3.org/1999/xlink" width="6775.2" height="2858.4">
<image x="0" y="0" width="6775.2" height="2858.4" xlink:href="groundfilled-01.png"/>
<g style="stroke-linecap:round">
<line x1="1285.950406" y1="795.178109" x2="1311.346069" y2="795.178109" stroke="black" stroke-width="6.48"/>
<line x1="1311.346069" y1="795.178109" x2="1311.346069" y2="745.625592" stroke="black" stroke-width="6.48"/>
<line x1="1311.346069" y1="745.625592" x2="1285.950406" y2="745.625592" stroke="black" stroke-width="6.48"/>
<line x1="1285.950406" y1="745.625592" x2="1285.950406" y2="795.178109" stroke="black" stroke-width="6.48"/>
<line x1="1559.728062" y1="745.625592" x2="1559.728062" y2="498.48241" stroke="black" stroke-width="6.48"/>
<line x1="1560.347471" y1="796.416923" x2="1585.743134" y2="796.416923" stroke="black" stroke-width="6.48"/>
<line x1="1585.743134" y1="796.416923" x2="1585.743134" y2="746.864406" stroke="black" stroke-width="6.48"/>
<line x1="1585.743134" y1="746.864406" x2="1560.347471" y2="746.864406" stroke="black" stroke-width="6.48"/>
<line x1="1560.347471" y1="746.864406" x2="1560.347471" y2="796.416923" stroke="black" stroke-width="6.48"/>
<path d="m 1311.346069,747.483811 a 248.38199299999997,248.38199299999997 0 0 1 248.38199299999997,-248.38199299999997" fill="none" stroke="black" stroke-width="6.48"/>
<line x1="330.523178" y1="771.328966" x2="330.523178" y2="366.748985" stroke="black" stroke-width="6.48"/>
<line x1="330.523178" y1="366.748985" x2="258.15928" y2="366.748985" stroke="black" stroke-width="6.48"/>
<line x1="258.15928" y1="366.748985" x2="258.15928" y2="771.328966" stroke="black" stroke-width="6.48"/>
<line x1="258.15928" y1="771.328966" x2="330.523178" y2="771.328966" stroke="black" stroke-width="6.48"/>
<line x1="330.523178" y1="752.415674" x2="355.19269" y2="752.415674" stroke="black" stroke-width="6.48"/>
<line x1="355.19269" y1="752.415674" x2="355.19269" y2="386.484595" stroke="black" stroke-width="6.48"/>
<line x1="330.523178" y1="386.484595" x2="355.19269" y2="386.484595" stroke="black" stroke-width="6.48"/>
<line x1="3901.945176" y1="1169.331426" x2="3901.945176" y2="1428.837066" stroke="black" stroke-width="6.48"/>
<line x1="3901.945176" y1="1428.837066" x2="3941.9501" y2="1428.837066" stroke="black" stroke-width="6.48"/>
<line x1="3941.9501" y1="1428.837066" x2="3941.9501" y2="1169.331426" stroke="black" stroke-width="6.48"/>
<line x1="3941.9501" y1="1169.331426" x2="3901.945176" y2="1169.331426" stroke="black" stroke-width="6.48"/>
<line x1="3941.423719" y1="1193.544936" x2="3902.471557" y2="1193.544936" stroke="black" stroke-width="6.48"/>
<line x1="3941.423719" y1="1404.097178" x2="3900.892414" y2="1404.097178" stroke="black" stroke-width="6.48"/>
<line x1="3923.000399" y1="1193.018555" x2="3923.000399" y2="1403.570797" stroke="black" stroke-width="6.48"/>
<line x1="323.923298" y1="1882.957399" x2="323.923298" y2="1457.423957" stroke="black" stroke-width="6.48"/>
<line x1="323.923298" y1="1457.423957" x2="258.323825" y2="1457.423957" stroke="black" stroke-width="6.48"/>
<line x1="258.323825" y1="1457.423957" x2="258.323825" y2="1882.957399" stroke="black" stroke-width="6.48"/>
<line x1="258.323825" y1="1882.957399" x2="323.923298" y2="1882.957399" stroke="black" stroke-width="6.48"/>
<line x1="259.186975" y1="1843.252456" x2="323.060148" y2="1843.252456" stroke="black" stroke-width="6.48"/>
<line x1="259.186975" y1="1497.992054" x2="325.649603" y2="1497.992054" stroke="black" stroke-width="6.48"/>
<line x1="289.397261" y1="1844.115606" x2="289.397261" y2="1498.855205" stroke="black" stroke-width="6.48"/>
<line x1="2747.905531" y1="904.670665" x2="2721.68303" y2="904.670665" stroke="black" stroke-width="6.48"/>
<line x1="2721.68303" y1="904.670665" x2="2721.68303" y2="955.836522" stroke="black" stroke-width="6.48"/>
<line x1="2721.68303" y1="955.836522" x2="2747.905531" y2="955.836522" stroke="black" stroke-width="6.48"/>
<line x1="2747.905531" y1="955.836522" x2="2747.905531" y2="904.670665" stroke="black" stroke-width="6.48"/>
<line x1="2465.214181" y1="955.836522" x2="2465.214181" y2="1211.026223" stroke="black" stroke-width="6.48"/>
<line x1="2464.574609" y1="903.39152" x2="2438.352108" y2="903.39152" stroke="black" stroke-width="6.48"/>
<line x1="2438.352108" y1="903.39152" x2="2438.352108" y2="954.557374" stroke="black" stroke-width="6.48"/>
<line x1="2438.352108" y1="954.557374" x2="2464.574609" y2="954.557374" stroke="black" stroke-width="6.48"/>
<line x1="2464.574609" y1="954.557374" x2="2464.574609" y2="903.39152" stroke="black" stroke-width="6.48"/>
<path d="m 2721.68303,953.917801 a 256.4688490000001,256.4688490000001 0 0 1 -256.4688490000003,256.46884899999986" fill="none" stroke="black" stroke-width="6.48"/>
<line x1="2420.532389" y1="1427.858834" x2="2395.136725" y2="1427.858834" stroke="black" stroke-width="6.48"/>
<line x1="2395.136725" y1="1427.858834" x2="2395.136725" y2="1477.411351" stroke="black" stroke-width="6.48"/>
<line x1="2395.136725" y1="1477.411351" x2="2420.532389" y2="1477.411351" stroke="black" stroke-width="6.48"/>
<line x1="2420.532389" y1="1477.411351" x2="2420.532389" y2="1427.858834" stroke="black" stroke-width="6.48"/>
<line x1="2146.754732" y1="1477.411351" x2="2146.754732" y2="1724.554534" stroke="black" stroke-width="6.48"/>
<line x1="2146.135324" y1="1426.62002" x2="2120.73966" y2="1426.62002" stroke="black" stroke-width="6.48"/>
<line x1="2120.73966" y1="1426.62002" x2="2120.73966" y2="1476.172537" stroke="black" stroke-width="6.48"/>
<line x1="2120.73966" y1="1476.172537" x2="2146.135324" y2="1476.172537" stroke="black" stroke-width="6.48"/>
<line x1="2146.135324" y1="1476.172537" x2="2146.135324" y2="1426.62002" stroke="black" stroke-width="6.48"/>
<path d="m 2395.136725,1475.553132 a 248.38199299999997,248.38199299999997 0 0 1 -248.38199299999997,248.38199299999997" fill="none" stroke="black" stroke-width="6.48"/>
<line x1="480.726745" y1="692.136151" x2="873.558745" y2="692.136151" stroke="black" stroke-width="6.48"/>
<line x1="873.558745" y1="692.136151" x2="873.558745" y2="507.600151" stroke="black" stroke-width="6.48"/>
<line x1="873.558745" y1="507.600151" x2="480.726745" y2="507.600151" stroke="black" stroke-width="6.48"/>
<line x1="480.726745" y1="507.600151" x2="480.726745" y2="692.136151" stroke="black" stroke-width="6.48"/>
<line x1="639.918745" y1="507.600151" x2="639.918745" y2="426.816151" stroke="black" stroke-width="6.48"/>
<line x1="639.918745" y1="426.816151" x2="561.510745" y2="426.816151" stroke="black" stroke-width="6.48"/>
<line x1="561.510745" y1="426.816151" x2="561.510745" y2="507.600151" stroke="black" stroke-width="6.48"/>
<line x1="562.302745" y1="444.240151" x2="639.918745" y2="444.240151" stroke="black" stroke-width="6.48"/>
<line x1="561.510745" y1="773.712151" x2="639.918745" y2="773.712151" stroke="black" stroke-width="6.48"/>
<line x1="639.918745" y1="773.712151" x2="639.918745" y2="692.136151" stroke="black" stroke-width="6.48"/>
<line x1="561.510745" y1="692.136151" x2="561.510745" y2="773.712151" stroke="black" stroke-width="6.48"/>
<line x1="562.302745" y1="756.288151" x2="639.918745" y2="756.288151" stroke="black" stroke-width="6.48"/>
<line x1="791.190745" y1="507.600151" x2="791.190745" y2="426.816151" stroke="black" stroke-width="6.48"/>
<line x1="791.190745" y1="426.816151" x2="712.782745" y2="426.816151" stroke="black" stroke-width="6.48"/>
<line x1="712.782745" y1="426.816151" x2="712.782745" y2="507.600151" stroke="black" stroke-width="6.48"/>
<line x1="712.782745" y1="444.240151" x2="791.190745" y2="444.240151" stroke="black" stroke-width="6.48"/>
<line x1="712.782745" y1="773.712151" x2="791.190745" y2="773.712151" stroke="black" stroke-width="6.48"/>
<line x1="791.190745" y1="773.712151" x2="791.190745" y2="692.136151" stroke="black" stroke-width="6.48"/>
<line x1="712.782745" y1="692.136151" x2="712.782745" y2="773.712151" stroke="black" stroke-width="6.48"/>
<line x1="712.782745" y1="756.288151" x2="791.190745" y2="756.288151" stroke="black" stroke-width="6.48"/>
<line x1="1842.844367" y1="1981.74465" x2="2032.924367" y2="1981.74465" stroke="black" stroke-width="6.48"/>
<line x1="2032.924367" y1="1981.74465" x2="2032.924367" y2="1517.94945" stroke="black" stroke-width="6.48"/>
<line x1="2032.924367" y1="1517.94945" x2="1842.844367" y2="1517.94945" stroke="black" stroke-width="6.48"/>
<line x1="1842.844367" y1="1517.94945" x2="1842.844367" y2="1541.70945" stroke="black" stroke-width="6.48"/>
<line x1="1842.844367" y1="1541.70945" x2="2010.114767" y2="1541.70945" stroke="black" stroke-width="6.48"/>
<line x1="2010.114767" y1="1541.70945" x2="2010.114767" y2="1957.03425" stroke="black" stroke-width="6.48"/>
<line x1="2010.114767" y1="1957.03425" x2="1842.844367" y2="1957.03425" stroke="black" stroke-width="6.48"/>
<line x1="1842.844367" y1="1957.03425" x2="1842.844367" y2="1981.74465" stroke="black" stroke-width="6.48"/>
<line x1="1848.546767" y1="1957.03425" x2="1848.546767" y2="1541.70945" stroke="black" stroke-width="6.48"/>
<line x1="1847.596367" y1="1749.84705" x2="2009.164367" y2="1749.84705" stroke="black" stroke-width="6.48"/>
<line x1="1485.415969" y1="209.267824" x2="1707.693134" y2="209.267824" stroke="black" stroke-width="6.48"/>
<line x1="1707.693134" y1="209.267824" x2="1707.693134" y2="432.000475" stroke="black" stroke-width="6.48"/>
<line x1="1707.693134" y1="432.000475" x2="1485.415969" y2="432.000475" stroke="black" stroke-width="6.48"/>
<line x1="1485.415969" y1="432.000475" x2="1485.415969" y2="209.267824" stroke="black" stroke-width="6.48"/>
<line x1="1484.960483" y1="208.812337" x2="1707.693134" y2="432.000475" stroke="black" stroke-width="6.48"/>
<line x1="1485.415969" y1="431.544989" x2="1707.237648" y2="209.267824" stroke="black" stroke-width="6.48"/>
<line x1="2761.020558" y1="2194.614338" x2="2761.020558" y2="1803.366338" stroke="black" stroke-width="6.48"/>
<line x1="2761.020558" y1="1803.366338" x2="2586.780558" y2="1803.366338" stroke="black" stroke-width="6.48"/>
<line x1="2586.780558" y1="1803.366338" x2="2586.780558" y2="2194.614338" stroke="black" stroke-width="6.48"/>
<line x1="2586.780558" y1="2194.614338" x2="2761.020558" y2="2194.614338" stroke="black" stroke-width="6.48"/>
<line x1="2613.708558" y1="1878.606338" x2="2613.708558" y2="2162.934338" stroke="black" stroke-width="6.48"/>
<line x1="2613.708558" y1="2162.934338" x2="2731.716558" y2="2162.934338" stroke="black" stroke-width="6.48"/>
<line x1="2731.716558" y1="2162.934338" x2="2731.716558" y2="1873.062338" stroke="black" stroke-width="6.48"/>
<path d="m 2613.453134,1879.416911 a 63.3599990854681,63.3599990854681 0 0 1 119.3743300000001,-4.293814000000111" fill="none" stroke="black" stroke-width="6.48"/>
<line x1="2081.060723" y1="1881.843811" x2="2056.508723" y2="1900.455811" stroke="black" stroke-width="6.48"/>
<line x1="2056.508723" y1="1900.455811" x2="2056.508723" y2="2047.767811" stroke="black" stroke-width="6.48"/>
<line x1="2056.508723" y1="2047.767811" x2="2084.624723" y2="2066.775811" stroke="black" stroke-width="6.48"/>
<line x1="2083.832723" y1="1903.623811" x2="2083.832723" y2="2046.579811" stroke="black" stroke-width="6.48"/>
<circle cx="2105.612723" cy="1972.923811" r="13.068000000000003" fill="none" stroke="black" stroke-width="6.48"/>
<path d="m 2083.165376,1905.177064 a 74.84400042853747,74.84400042853747 0 1 1 0.40204799999992247,139.6090039999999" fill="none" stroke="black" stroke-width="6.48"/>
<path d="m 2080.403359,1881.890114 a 95.43599931860231,95.43599931860231 0 1 1 3.0749580000001515,184.46699599999988" fill="none" stroke="black" stroke-width="6.48"/>
<line x1="848.300753" y1="209.825111" x2="1118.847953" y2="209.825111" stroke="black" stroke-width="6.48"/>
<line x1="1118.847953" y1="209.825111" x2="1118.847953" y2="341.772311" stroke="black" stroke-width="6.48"/>
<line x1="848.300753" y1="341.772311" x2="1118.847953" y2="341.772311" stroke="black" stroke-width="6.48"/>
<line x1="848.300753" y1="209.825111" x2="848.300753" y2="341.772311" stroke="black" stroke-width="6.48"/>
<line x1="854.953553" y1="216.477911" x2="992.999153" y2="216.477911" stroke="black" stroke-width="6.48"/>
<line x1="992.999153" y1="216.477911" x2="992.999153" y2="334.565111" stroke="black" stroke-width="6.48"/>
<line x1="854.953553" y1="334.565111" x2="992.999153" y2="334.565111" stroke="black" stroke-width="6.48"/>
<line x1="854.953553" y1="216.477911" x2="854.953553" y2="334.565111" stroke="black" stroke-width="6.48"/>
<line x1="1007.413553" y1="224.239511" x2="1104.433553" y2="224.239511" stroke="black" stroke-width="6.48"/>
<line x1="1007.413553" y1="244.752311" x2="1104.433553" y2="244.752311" stroke="black" stroke-width="6.48"/>
<line x1="1007.967953" y1="265.819511" x2="1104.987953" y2="265.819511" stroke="black" stroke-width="6.48"/>
<line x1="1007.967953" y1="286.332311" x2="1104.987953" y2="286.332311" stroke="black" stroke-width="6.48"/>
<line x1="1007.413553" y1="306.845111" x2="1104.433553" y2="306.845111" stroke="black" stroke-width="6.48"/>
<line x1="1007.413553" y1="327.357911" x2="1104.433553" y2="327.357911" stroke="black" stroke-width="6.48"/>
<line x1="907.621553" y1="334.565111" x2="907.621553" y2="320.705111" stroke="black" stroke-width="6.48"/>
<line x1="907.621553" y1="320.705111" x2="941.994353" y2="320.705111" stroke="black" stroke-width="6.48"/>
<line x1="941.994353" y1="320.705111" x2="941.994353" y2="334.010711" stroke="black" stroke-width="6.48"/>
<circle cx="977.475953" cy="231.446711" r="8.316000000000003" fill="none" stroke="black" stroke-width="6.48"/>
<line x1="966.544294" y1="998.775896" x2="1094.725793" y2="1030.735138" stroke="black" stroke-width="6.48"/>
<line x1="1094.725793" y1="1030.735138" x2="1091.276957" y2="1044.56767" stroke="black" stroke-width="6.48"/>
<line x1="963.095454" y1="1012.608436" x2="1091.276957" y2="1044.56767" stroke="black" stroke-width="6.48"/>
<line x1="966.544294" y1="998.775896" x2="963.095454" y2="1012.608436" stroke="black" stroke-width="6.48"/>
<line x1="976.005824" y1="1015.82735" x2="966.574037" y2="1045.799082" stroke="black" stroke-width="6.48"/>
<line x1="1078.36659" y1="1041.348755" x2="1072.393556" y2="1073.162351" stroke="black" stroke-width="6.48"/>
<line x1="855.031846" y1="1446.027894" x2="983.213348" y2="1477.987128" stroke="black" stroke-width="6.48"/>
<line x1="983.213348" y1="1477.987128" x2="986.432263" y2="1465.076765" stroke="black" stroke-width="6.48"/>
<line x1="858.250764" y1="1433.117524" x2="986.432263" y2="1465.076765" stroke="black" stroke-width="6.48"/>
<line x1="855.031846" y1="1446.027894" x2="858.250764" y2="1433.117524" stroke="black" stroke-width="6.48"/>
<line x1="870.698808" y1="1434.262183" x2="876.441917" y2="1403.370756" stroke="black" stroke-width="6.48"/>
<line x1="973.05957" y1="1459.783584" x2="983.643448" y2="1429.119608" stroke="black" stroke-width="6.48"/>
<line x1="1213.562268" y1="1229.817064" x2="1199.729729" y2="1226.368224" stroke="black" stroke-width="6.48"/>
<line x1="1199.729729" y1="1226.368224" x2="1167.770495" y2="1354.549727" stroke="black" stroke-width="6.48"/>
<line x1="1181.603027" y1="1357.998566" x2="1167.770495" y2="1354.549727" stroke="black" stroke-width="6.48"/>
<line x1="1213.562268" y1="1229.817064" x2="1181.603027" y2="1357.998566" stroke="black" stroke-width="6.48"/>
<line x1="1171.219334" y1="1340.717188" x2="1139.175817" y2="1335.666326" stroke="black" stroke-width="6.48"/>
<line x1="1196.510818" y1="1239.278594" x2="1165.616914" y2="1229.616886" stroke="black" stroke-width="6.48"/>
<line x1="767.462368" y1="1117.612372" x2="781.2949" y2="1121.061211" stroke="black" stroke-width="6.48"/>
<line x1="781.2949" y1="1121.061211" x2="749.335666" y2="1249.24271" stroke="black" stroke-width="6.48"/>
<line x1="735.503126" y1="1245.793871" x2="749.335666" y2="1249.24271" stroke="black" stroke-width="6.48"/>
<line x1="767.462368" y1="1117.612372" x2="735.503126" y2="1245.793871" stroke="black" stroke-width="6.48"/>
<line x1="752.784505" y1="1235.410175" x2="783.448484" y2="1245.994049" stroke="black" stroke-width="6.48"/>
<line x1="778.075985" y1="1133.971574" x2="809.889577" y2="1139.944608" stroke="black" stroke-width="6.48"/>
<circle cx="974.532694" cy="1237.805467" r="191.98080000000002" fill="none" stroke="black" stroke-width="6.48"/>
<line x1="2044.889399" y1="955.822399" x2="2267.166564" y2="955.822399" stroke="black" stroke-width="6.48"/>
<line x1="2267.166564" y1="955.822399" x2="2267.166564" y2="1178.555051" stroke="black" stroke-width="6.48"/>
<line x1="2267.166564" y1="1178.555051" x2="2044.889399" y2="1178.555051" stroke="black" stroke-width="6.48"/>
<line x1="2044.889399" y1="1178.555051" x2="2044.889399" y2="955.822399" stroke="black" stroke-width="6.48"/>
<line x1="2044.433912" y1="955.366913" x2="2267.166564" y2="1178.555051" stroke="black" stroke-width="6.48"/>
<line x1="2044.889399" y1="1178.099564" x2="2266.711078" y2="955.822399" stroke="black" stroke-width="6.48"/>
<line x1="333.766206" y1="1375.361078" x2="333.766206" y2="949.854546" stroke="black" stroke-width="6.48"/>
<line x1="333.766206" y1="949.854546" x2="257.659348" y2="949.854546" stroke="black" stroke-width="6.48"/>
<line x1="257.659348" y1="949.854546" x2="257.659348" y2="1375.361078" stroke="black" stroke-width="6.48"/>
<line x1="257.659348" y1="1375.361078" x2="333.766206" y2="1375.361078" stroke="black" stroke-width="6.48"/>
<line x1="333.766206" y1="1355.469512" x2="359.711726" y2="1355.469512" stroke="black" stroke-width="6.48"/>
<line x1="359.711726" y1="1355.469512" x2="359.711726" y2="970.610962" stroke="black" stroke-width="6.48"/>
<line x1="333.766206" y1="970.610962" x2="359.711726" y2="970.610962" stroke="black" stroke-width="6.48"/>
<line x1="3874.406537" y1="1514.726719" x2="3874.406537" y2="1940.260162" stroke="black" stroke-width="6.48"/>
<line x1="3874.406537" y1="1940.260162" x2="3940.00601" y2="1940.260162" stroke="black" stroke-width="6.48"/>
<line x1="3940.00601" y1="1940.260162" x2="3940.00601" y2="1514.726719" stroke="black" stroke-width="6.48"/>
<line x1="3940.00601" y1="1514.726719" x2="3874.406537" y2="1514.726719" stroke="black" stroke-width="6.48"/>
<line x1="3939.14286" y1="1554.431663" x2="3875.269687" y2="1554.431663" stroke="black" stroke-width="6.48"/>
<line x1="3939.14286" y1="1899.692064" x2="3872.680232" y2="1899.692064" stroke="black" stroke-width="6.48"/>
<line x1="3908.932574" y1="1553.568512" x2="3908.932574" y2="1898.828914" stroke="black" stroke-width="6.48"/>
<line x1="4952.322331" y1="1269.58014" x2="5029.972056" y2="1376.455813" stroke="black" stroke-width="6.48"/>
<line x1="5029.972056" y1="1376.455813" x2="5018.438711" y2="1384.835281" stroke="black" stroke-width="6.48"/>
<line x1="4940.788986" y1="1277.959604" x2="5018.438711" y2="1384.835281" stroke="black" stroke-width="6.48"/>
<line x1="4952.322331" y1="1269.58014" x2="4940.788986" y2="1277.959604" stroke="black" stroke-width="6.48"/>
<line x1="4948.60982" y1="1288.724062" x2="4922.119195" y2="1305.621108" stroke="black" stroke-width="6.48"/>
<line x1="5010.617873" y1="1374.070824" x2="4985.592883" y2="1394.60206" stroke="black" stroke-width="6.48"/>
<line x1="4579.410805" y1="1540.516223" x2="4657.060526" y2="1647.3919" stroke="black" stroke-width="6.48"/>
<line x1="4657.060526" y1="1647.3919" x2="4667.824984" y2="1639.571065" stroke="black" stroke-width="6.48"/>
<line x1="4590.175259" y1="1532.695388" x2="4667.824984" y2="1639.571065" stroke="black" stroke-width="6.48"/>
<line x1="4579.410805" y1="1540.516223" x2="4590.175259" y2="1532.695388" stroke="black" stroke-width="6.48"/>
<line x1="4598.975243" y1="1541.573694" x2="4623.231344" y2="1521.601088" stroke="black" stroke-width="6.48"/>
<line x1="4660.983295" y1="1626.920456" x2="4688.801438" y2="1610.233668" stroke="black" stroke-width="6.48"/>
<line x1="4993.038677" y1="1605.348032" x2="4984.659209" y2="1593.814687" stroke="black" stroke-width="6.48"/>
<line x1="4984.659209" y1="1593.814687" x2="4877.783539" y2="1671.464412" stroke="black" stroke-width="6.48"/>
<line x1="4886.163" y1="1682.997757" x2="4877.783539" y2="1671.464412" stroke="black" stroke-width="6.48"/>
<line x1="4993.038677" y1="1605.348032" x2="4886.163" y2="1682.997757" stroke="black" stroke-width="6.48"/>
<line x1="4889.316884" y1="1663.084944" x2="4868.016757" y2="1638.618588" stroke="black" stroke-width="6.48"/>
<line x1="4973.894755" y1="1601.635522" x2="4956.439079" y2="1574.376008" stroke="black" stroke-width="6.48"/>
<line x1="4723.430116" y1="1232.646764" x2="4731.80958" y2="1244.18011" stroke="black" stroke-width="6.48"/>
<line x1="4731.80958" y1="1244.18011" x2="4624.933907" y2="1321.829831" stroke="black" stroke-width="6.48"/>
<line x1="4616.554439" y1="1310.296486" x2="4624.933907" y2="1321.829831" stroke="black" stroke-width="6.48"/>
<line x1="4723.430116" y1="1232.646764" x2="4616.554439" y2="1310.296486" stroke="black" stroke-width="6.48"/>
<line x1="4636.467252" y1="1313.450366" x2="4653.15404" y2="1341.26851" stroke="black" stroke-width="6.48"/>
<line x1="4721.045123" y1="1252.000944" x2="4741.576358" y2="1277.025934" stroke="black" stroke-width="6.48"/>
<circle cx="4804.796556" cy="1457.822261" r="191.98080000000002" fill="none" stroke="black" stroke-width="6.48"/>
<line x1="3193.713385" y1="1074.611722" x2="3403.078589" y2="1074.611722" stroke="black" stroke-width="6.48"/>
<line x1="3403.078589" y1="1074.611722" x2="3403.078589" y2="743.397318" stroke="black" stroke-width="6.48"/>
<line x1="3403.078589" y1="743.397318" x2="3193.713385" y2="743.397318" stroke="black" stroke-width="6.48"/>
<line x1="3193.713385" y1="743.397318" x2="3193.713385" y2="1074.611722" stroke="black" stroke-width="6.48"/>
<line x1="3193.040185" y1="802.638918" x2="3403.751785" y2="802.638918" stroke="black" stroke-width="6.48"/>
<line x1="3403.751785" y1="802.638918" x2="3194.386585" y2="852.455722" stroke="black" stroke-width="6.48"/>
<line x1="3194.386585" y1="852.455722" x2="3226.026989" y2="898.906522" stroke="black" stroke-width="6.48"/>
<line x1="3226.026989" y1="898.906522" x2="3403.751785" y2="801.965722" stroke="black" stroke-width="6.48"/>
<line x1="3223.857762" y1="1203.887678" x2="3446.134927" y2="1203.887678" stroke="black" stroke-width="6.48"/>
<line x1="3446.134927" y1="1203.887678" x2="3446.134927" y2="1426.62033" stroke="black" stroke-width="6.48"/>
<line x1="3446.134927" y1="1426.62033" x2="3223.857762" y2="1426.62033" stroke="black" stroke-width="6.48"/>
<line x1="3223.857762" y1="1426.62033" x2="3223.857762" y2="1203.887678" stroke="black" stroke-width="6.48"/>
<line x1="3223.402276" y1="1203.432192" x2="3446.134927" y2="1426.62033" stroke="black" stroke-width="6.48"/>
<line x1="3223.857762" y1="1426.164844" x2="3445.679441" y2="1203.887678" stroke="black" stroke-width="6.48"/>
<line x1="2804.16708" y1="1127.69402" x2="2804.16708" y2="1153.148746" stroke="black" stroke-width="6.48"/>
<line x1="2804.16708" y1="1153.148746" x2="2853.834836" y2="1153.148746" stroke="black" stroke-width="6.48"/>
<line x1="2853.834836" y1="1153.148746" x2="2853.834836" y2="1127.69402" stroke="black" stroke-width="6.48"/>
<line x1="2853.834836" y1="1127.69402" x2="2804.16708" y2="1127.69402" stroke="black" stroke-width="6.48"/>
<line x1="2853.834836" y1="1402.108373" x2="3101.55277" y2="1402.108373" stroke="black" stroke-width="6.48"/>
<line x1="2802.925386" y1="1402.729218" x2="2802.925386" y2="1428.183943" stroke="black" stroke-width="6.48"/>
<line x1="2802.925386" y1="1428.183943" x2="2852.593142" y2="1428.183943" stroke="black" stroke-width="6.48"/>
<line x1="2852.593142" y1="1428.183943" x2="2852.593142" y2="1402.729218" stroke="black" stroke-width="6.48"/>
<line x1="2852.593142" y1="1402.729218" x2="2802.925386" y2="1402.729218" stroke="black" stroke-width="6.48"/>
<path d="m 2851.972294,1153.148746 a 248.95962699999984,248.95962699999984 0 0 1 248.95962699999973,248.95962699999995" fill="none" stroke="black" stroke-width="6.48"/>
<line x1="3386.181744" y1="1826.910875" x2="3522.487734" y2="1639.301774" stroke="black" stroke-width="6.48"/>
<line x1="3522.487734" y1="1639.301774" x2="3710.481278" y2="1775.887081" stroke="black" stroke-width="6.48"/>
<line x1="3710.481278" y1="1775.887081" x2="3574.175285" y2="1963.496178" stroke="black" stroke-width="6.48"/>
<line x1="3574.175285" y1="1963.496178" x2="3386.181744" y2="1826.910875" stroke="black" stroke-width="6.48"/>
<line x1="3385.517983" y1="1827.016002" x2="3710.481278" y2="1775.887081" stroke="black" stroke-width="6.48"/>
<line x1="3573.790841" y1="1963.216865" x2="3522.208414" y2="1639.686222" stroke="black" stroke-width="6.48"/>
<line x1="3111.239045" y1="1589.315879" x2="3092.650182" y2="1613.98413" stroke="black" stroke-width="6.48"/>
<line x1="3092.650182" y1="1613.98413" x2="3260.014798" y2="1740.102415" stroke="black" stroke-width="6.48"/>
<line x1="3260.014798" y1="1740.102415" x2="3278.60366" y2="1715.43416" stroke="black" stroke-width="6.48"/>
<line x1="3278.60366" y1="1715.43416" x2="3111.239045" y2="1589.315879" stroke="black" stroke-width="6.48"/>
<line x1="2988.552553" y1="1752.12635" x2="2969.96369" y2="1776.794605" stroke="black" stroke-width="6.48"/>
<line x1="2969.96369" y1="1776.794605" x2="3137.328302" y2="1902.912887" stroke="black" stroke-width="6.48"/>
<line x1="3137.328302" y1="1902.912887" x2="3155.917165" y2="1878.244636" stroke="black" stroke-width="6.48"/>
<line x1="3155.917165" y1="1878.244636" x2="2988.552553" y2="1752.12635" stroke="black" stroke-width="6.48"/>
<line x1="3092.936166" y1="1613.604622" x2="2988.552553" y2="1752.12635" stroke="black" stroke-width="6.48"/>
<line x1="3259.827742" y1="1738.771427" x2="3264.685855" y2="1775.753114" stroke="black" stroke-width="6.48"/>
<line x1="3191.760317" y1="1872.528566" x2="3154.872161" y2="1878.052183" stroke="black" stroke-width="6.48"/>
<line x1="3265.829784" y1="1774.235066" x2="3190.616388" y2="1874.046614" stroke="black" stroke-width="6.48"/>
<line x1="3128.324274" y1="1640.866489" x2="3023.940661" y2="1779.388218" stroke="black" stroke-width="6.48"/>
<line x1="1281.748486" y1="2024.001662" x2="1308.498278" y2="2039.44567" stroke="black" stroke-width="6.48"/>
<line x1="1308.498278" y1="2039.44567" x2="1413.279922" y2="1857.958639" stroke="black" stroke-width="6.48"/>
<line x1="1413.279922" y1="1857.958639" x2="1386.530132" y2="1842.514632" stroke="black" stroke-width="6.48"/>
<line x1="1386.530132" y1="1842.514632" x2="1281.748486" y2="2024.001662" stroke="black" stroke-width="6.48"/>
<line x1="1458.29709" y1="2125.932106" x2="1485.046883" y2="2141.376113" stroke="black" stroke-width="6.48"/>
<line x1="1485.046883" y1="2141.376113" x2="1589.828526" y2="1959.889082" stroke="black" stroke-width="6.48"/>
<line x1="1589.828526" y1="1959.889082" x2="1563.078737" y2="1944.445075" stroke="black" stroke-width="6.48"/>
<line x1="1563.078737" y1="1944.445075" x2="1458.29709" y2="2125.932106" stroke="black" stroke-width="6.48"/>
<line x1="1308.086737" y1="2039.208066" x2="1458.29709" y2="2125.932106" stroke="black" stroke-width="6.48"/>
<line x1="1411.98165" y1="1858.306507" x2="1448.095626" y2="1848.977676" stroke="black" stroke-width="6.48"/>
<line x1="1553.037106" y1="1909.565705" x2="1563.015074" y2="1945.505747" stroke="black" stroke-width="6.48"/>
<line x1="1446.449486" y1="1848.02728" x2="1554.683245" y2="1910.516105" stroke="black" stroke-width="6.48"/>
<line x1="1330.832686" y1="2000.761358" x2="1481.043038" y2="2087.485394" stroke="black" stroke-width="6.48"/>
<line x1="6102.85352" y1="1962.695804" x2="6101.775547" y2="1993.564991" stroke="black" stroke-width="6.48"/>
<line x1="6101.775547" y1="1993.564991" x2="6311.211084" y2="2000.878639" stroke="black" stroke-width="6.48"/>
<line x1="6311.211084" y1="2000.878639" x2="6312.289061" y2="1970.009456" stroke="black" stroke-width="6.48"/>
<line x1="6312.289061" y1="1970.009456" x2="6102.85352" y2="1962.695804" stroke="black" stroke-width="6.48"/>
<line x1="6095.738884" y1="2166.432419" x2="6094.660907" y2="2197.301605" stroke="black" stroke-width="6.48"/>
<line x1="6094.660907" y1="2197.301605" x2="6304.096444" y2="2204.615254" stroke="black" stroke-width="6.48"/>
<line x1="6304.096444" y1="2204.615254" x2="6305.17442" y2="2173.746067" stroke="black" stroke-width="6.48"/>
<line x1="6305.17442" y1="2173.746067" x2="6095.738884" y2="2166.432419" stroke="black" stroke-width="6.48"/>
<line x1="6101.792129" y1="1993.090079" x2="6095.738884" y2="2166.432419" stroke="black" stroke-width="6.48"/>
<line x1="6310.29443" y1="1999.895648" x2="6335.485794" y2="2027.402777" stroke="black" stroke-width="6.48"/>
<line x1="6331.256813" y1="2148.504959" x2="6304.208018" y2="2174.187809" stroke="black" stroke-width="6.48"/>
<line x1="6335.552131" y1="2025.503132" x2="6331.190476" y2="2150.404596" stroke="black" stroke-width="6.48"/>
<line x1="6146.417135" y1="1995.12391" x2="6140.363886" y2="2168.46625" stroke="black" stroke-width="6.48"/>
<line x1="2935.761635" y1="2011.435722" x2="2864.55649" y2="2187.67486" stroke="black" stroke-width="6.48"/>
<line x1="2864.55649" y1="2187.67486" x2="3294.579985" y2="2361.41541" stroke="black" stroke-width="6.48"/>
<line x1="3294.579985" y1="2361.41541" x2="3365.78513" y2="2185.176272" stroke="black" stroke-width="6.48"/>
<line x1="3365.78513" y1="2185.176272" x2="3343.75524" y2="2176.275629" stroke="black" stroke-width="6.48"/>
<line x1="3343.75524" y1="2176.275629" x2="3281.094713" y2="2331.366073" stroke="black" stroke-width="6.48"/>
<line x1="3281.094713" y1="2331.366073" x2="2896.012195" y2="2175.782832" stroke="black" stroke-width="6.48"/>
<line x1="2896.012195" y1="2175.782832" x2="2958.672722" y2="2020.692391" stroke="black" stroke-width="6.48"/>
<line x1="2958.672722" y1="2020.692391" x2="2935.761635" y2="2011.435722" stroke="black" stroke-width="6.48"/>
<line x1="2956.536569" y1="2025.979564" x2="3341.619086" y2="2181.562805" stroke="black" stroke-width="6.48"/>
<line x1="3148.993253" y1="2102.711976" x2="3088.468883" y2="2252.515244" stroke="black" stroke-width="6.48"/>
<line x1="3771.436309" y1="1165.903459" x2="3780.467086" y2="1136.365117" stroke="black" stroke-width="6.48"/>
<line x1="3780.467086" y1="1136.365117" x2="3580.060799" y2="1075.094766" stroke="black" stroke-width="6.48"/>
<line x1="3580.060799" y1="1075.094766" x2="3571.030026" y2="1104.633108" stroke="black" stroke-width="6.48"/>
<line x1="3571.030026" y1="1104.633108" x2="3771.436309" y2="1165.903459" stroke="black" stroke-width="6.48"/>
<line x1="3831.039439" y1="970.950406" x2="3840.070216" y2="941.412067" stroke="black" stroke-width="6.48"/>
<line x1="3840.070216" y1="941.412067" x2="3639.663932" y2="880.141712" stroke="black" stroke-width="6.48"/>
<line x1="3639.663932" y1="880.141712" x2="3630.633152" y2="909.680054" stroke="black" stroke-width="6.48"/>
<line x1="3630.633152" y1="909.680054" x2="3831.039439" y2="970.950406" stroke="black" stroke-width="6.48"/>
<line x1="3780.328151" y1="1136.819552" x2="3831.039439" y2="970.950406" stroke="black" stroke-width="6.48"/>
<line x1="3580.691803" y1="1076.28151" x2="3563.478187" y2="1043.191667" stroke="black" stroke-width="6.48"/>
<line x1="3598.906619" y1="927.310482" x2="3631.680961" y2="909.503489" stroke="black" stroke-width="6.48"/>
<line x1="3562.922444" y1="1045.009408" x2="3599.462358" y2="925.492734" stroke="black" stroke-width="6.48"/>
<line x1="3737.750098" y1="1123.305224" x2="3788.46139" y2="957.436074" stroke="black" stroke-width="6.48"/>
<line x1="5876.555717" y1="1626.580602" x2="5869.083236" y2="1656.551099" stroke="black" stroke-width="6.48"/>
<line x1="5869.083236" y1="1656.551099" x2="6072.421511" y2="1707.249024" stroke="black" stroke-width="6.48"/>
<line x1="6072.421511" y1="1707.249024" x2="6079.893995" y2="1677.278531" stroke="black" stroke-width="6.48"/>
<line x1="6079.893995" y1="1677.278531" x2="5876.555717" y2="1626.580602" stroke="black" stroke-width="6.48"/>
<line x1="5827.237326" y1="1824.385867" x2="5819.764842" y2="1854.35636" stroke="black" stroke-width="6.48"/>
<line x1="5819.764842" y1="1854.35636" x2="6023.10312" y2="1905.054286" stroke="black" stroke-width="6.48"/>
<line x1="6023.10312" y1="1905.054286" x2="6030.575604" y2="1875.083792" stroke="black" stroke-width="6.48"/>
<line x1="6030.575604" y1="1875.083792" x2="5827.237326" y2="1824.385867" stroke="black" stroke-width="6.48"/>
<line x1="5869.198195" y1="1656.090011" x2="5827.237326" y2="1824.385867" stroke="black" stroke-width="6.48"/>
<line x1="6071.729267" y1="1706.09693" x2="6090.651083" y2="1738.240538" stroke="black" stroke-width="6.48"/>
<line x1="6061.335955" y1="1855.817093" x2="6029.538473" y2="1875.314956" stroke="black" stroke-width="6.48"/>
<line x1="6091.110929" y1="1736.396197" x2="6060.876113" y2="1857.66143" stroke="black" stroke-width="6.48"/>
<line x1="5912.425181" y1="1667.35746" x2="5870.464312" y2="1835.653313" stroke="black" stroke-width="6.48"/>
<line x1="2274.911586" y1="2040.11172" x2="2505.538822" y2="2064.351676" stroke="black" stroke-width="6.48"/>
<line x1="2505.538822" y1="2064.351676" x2="2481.249193" y2="2295.451508" stroke="black" stroke-width="6.48"/>
<line x1="2481.249193" y1="2295.451508" x2="2250.621958" y2="2271.211549" stroke="black" stroke-width="6.48"/>
<line x1="2250.621958" y1="2271.211549" x2="2274.911586" y2="2040.11172" stroke="black" stroke-width="6.48"/>
<line x1="2274.488662" y1="2039.58945" x2="2481.249193" y2="2295.451508" stroke="black" stroke-width="6.48"/>
<line x1="2250.67163" y1="2270.738952" x2="2505.066224" y2="2064.302003" stroke="black" stroke-width="6.48"/>
</g>
</svg>
