<?xml version="1.0"?>
<svg xmlns:xlink="http://www.w3.org/1999/xlink" width="6775.2" height="2858.4">
<image x="0" y="0" width="6775.2" height="2858.4" xlink:href="groundfilled-01.png"/>
<g style="stroke-linecap:round">
<line x1="1285.950406" y1="795.178109" x2="1311.346069" y2="795.178109" stroke="black" stroke-width="6.48"/>
<line x1="1311.346069" y1="795.178109" x2="1311.346069" y2="745.625592" stroke="black" stroke-width="6.48"/>
<line x1="1311.346069" y1="745.625592" x2="1285.950406" y2="745.625592" stroke="black" stroke-width="6.48"/>
<line x1="1285.950406" y1="745.625592" x2="1285.950406" y2="795.178109" stroke="black" stroke-width="6.48"/>
<line x1="1559.728062" y1="745.625592" x2="1559.728062" y2="498.48241" stroke="black" stroke-width="6.48"/>
<line x1="1560.347471" y1="796.416923" x2="1585.743134" y2="796.416923" stroke="black" stroke-width="6.48"/>
<line x1="1585.743134" y1="796.416923" x2="1585.743134" y2="746.864406" stroke="black" stroke-width="6.48"/>
<line x1="1585.743134" y1="746.864406" x2="1560.347471" y2="746.864406" stroke="black" stroke-width="6.48"/>
<line x1="1560.347471" y1="746.864406" x2="1560.347471" y2="796.416923" stroke="black" stroke-width="6.48"/>
<path d="m 1311.346069,747.483811 a 248.38199299999997,248.38199299999997 0 0 1 248.38199299999997,-248.38199299999997" fill="none" stroke="black" stroke-width="6.48"/>
<line x1="330.523178" y1="771.328966" x2="330.523178" y2="366.748985" stroke="black" stroke-width="6.48"/>
<line x1="330.523178" y1="366.748985" x2="258.15928" y2="366.748985" stroke="black" stroke-width="6.48"/>
<line x1="258.15928" y1="366.748985" x2="258.15928" y2="771.328966" stroke="black" stroke-width="6.48"/>
<line x1="258.15928" y1="771.328966" x2="330.523178" y2="771.328966" stroke="black" stroke-width="6.48"/>
<line x1="330.523178" y1="752.415674" x2="355.19269" y2="752.415674" stroke="black" stroke-width="6.48"/>
<line x1="355.19269" y1="752.415674" x2="355.19269" y2="386.484595" stroke="black" stroke-width="6.48"/>
<line x1="330.523178" y1="386.484595" x2="355.19269" y2="386.484595" stroke="black" stroke-width="6.48"/>
<line x1="3901.945176" y1="1169.331426" x2="3901.945176" y2="1428.837066" stroke="black" stroke-width="6.48"/>
<line x1="3901.945176" y1="1428.837066" x2="3941.9501" y2="1428.837066" stroke="black" stroke-width="6.48"/>
<line x1="3941.9501" y1="1428.837066" x2="3941.9501" y2="1169.331426" stroke="black" stroke-width="6.48"/>
<line x1="3941.9501" y1="1169.331426" x2="3901.945176" y2="1169.331426" stroke="black" stroke-width="6.48"/>
<line x1="3941.423719" y1="1193.544936" x2="3902.471557" y2="1193.544936" stroke="black" stroke-width="6.48"/>
<line x1="3941.423719" y1="1404.097178" x2="3900.892414" y2="1404.097178" stroke="black" stroke-width="6.48"/>
<line x1="3923.000399" y1="1193.018555" x2="3923.000399" y2="1403.570797" stroke="black" stroke-width="6.48"/>
<line x1="334.430687" y1="1882.943946" x2="334.430687" y2="1457.437414" stroke="black" stroke-width="6.48"/>
<line x1="334.430687" y1="1457.437414" x2="258.323828" y2="1457.437414" stroke="black" stroke-width="6.48"/>
<line x1="258.323828" y1="1457.437414" x2="258.323828" y2="1882.943946" stroke="black" stroke-width="6.48"/>
<line x1="258.323828" y1="1882.943946" x2="334.430687" y2="1882.943946" stroke="black" stroke-width="6.48"/>
<line x1="334.430687" y1="1863.05238" x2="360.376207" y2="1863.05238" stroke="black" stroke-width="6.48"/>
<line x1="360.376207" y1="1863.05238" x2="360.376207" y2="1478.193829" stroke="black" stroke-width="6.48"/>
<line x1="334.430687" y1="1478.193829" x2="360.376207" y2="1478.193829" stroke="black" stroke-width="6.48"/>
<line x1="2747.905531" y1="904.670665" x2="2721.68303" y2="904.670665" stroke="black" stroke-width="6.48"/>
<line x1="2721.68303" y1="904.670665" x2="2721.68303" y2="955.836522" stroke="black" stroke-width="6.48"/>
<line x1="2721.68303" y1="955.836522" x2="2747.905531" y2="955.836522" stroke="black" stroke-width="6.48"/>
<line x1="2747.905531" y1="955.836522" x2="2747.905531" y2="904.670665" stroke="black" stroke-width="6.48"/>
<line x1="2465.214181" y1="955.836522" x2="2465.214181" y2="1211.026223" stroke="black" stroke-width="6.48"/>
<line x1="2464.574609" y1="903.39152" x2="2438.352108" y2="903.39152" stroke="black" stroke-width="6.48"/>
<line x1="2438.352108" y1="903.39152" x2="2438.352108" y2="954.557374" stroke="black" stroke-width="6.48"/>
<line x1="2438.352108" y1="954.557374" x2="2464.574609" y2="954.557374" stroke="black" stroke-width="6.48"/>
<line x1="2464.574609" y1="954.557374" x2="2464.574609" y2="903.39152" stroke="black" stroke-width="6.48"/>
<path d="m 2721.68303,953.917801 a 256.4688490000001,256.4688490000001 0 0 1 -256.4688490000003,256.46884899999986" fill="none" stroke="black" stroke-width="6.48"/>
<line x1="2420.532389" y1="1427.858834" x2="2395.136725" y2="1427.858834" stroke="black" stroke-width="6.48"/>
<line x1="2395.136725" y1="1427.858834" x2="2395.136725" y2="1477.411351" stroke="black" stroke-width="6.48"/>
<line x1="2395.136725" y1="1477.411351" x2="2420.532389" y2="1477.411351" stroke="black" stroke-width="6.48"/>
<line x1="2420.532389" y1="1477.411351" x2="2420.532389" y2="1427.858834" stroke="black" stroke-width="6.48"/>
<line x1="2146.754732" y1="1477.411351" x2="2146.754732" y2="1724.554534" stroke="black" stroke-width="6.48"/>
<line x1="2146.135324" y1="1426.62002" x2="2120.73966" y2="1426.62002" stroke="black" stroke-width="6.48"/>
<line x1="2120.73966" y1="1426.62002" x2="2120.73966" y2="1476.172537" stroke="black" stroke-width="6.48"/>
<line x1="2120.73966" y1="1476.172537" x2="2146.135324" y2="1476.172537" stroke="black" stroke-width="6.48"/>
<line x1="2146.135324" y1="1476.172537" x2="2146.135324" y2="1426.62002" stroke="black" stroke-width="6.48"/>
<path d="m 2395.136725,1475.553132 a 248.38199299999997,248.38199299999997 0 0 1 -248.38199299999997,248.38199299999997" fill="none" stroke="black" stroke-width="6.48"/>
<line x1="885.832006" y1="541.339351" x2="1117.729606" y2="541.339351" stroke="black" stroke-width="6.48"/>
<line x1="1117.729606" y1="541.339351" x2="1117.729606" y2="773.712151" stroke="black" stroke-width="6.48"/>
<line x1="1117.729606" y1="773.712151" x2="885.832006" y2="773.712151" stroke="black" stroke-width="6.48"/>
<line x1="885.832006" y1="773.712151" x2="885.832006" y2="541.339351" stroke="black" stroke-width="6.48"/>
<line x1="885.356806" y1="540.864151" x2="1117.729606" y2="773.712151" stroke="black" stroke-width="6.48"/>
<line x1="885.832006" y1="773.236951" x2="1117.254406" y2="541.339351" stroke="black" stroke-width="6.48"/>
<line x1="1842.844367" y1="2119.447224" x2="2032.924367" y2="2119.447224" stroke="black" stroke-width="6.48"/>
<line x1="2032.924367" y1="2119.447224" x2="2032.924367" y2="1655.652024" stroke="black" stroke-width="6.48"/>
<line x1="2032.924367" y1="1655.652024" x2="1842.844367" y2="1655.652024" stroke="black" stroke-width="6.48"/>
<line x1="1842.844367" y1="1655.652024" x2="1842.844367" y2="1679.412024" stroke="black" stroke-width="6.48"/>
<line x1="1842.844367" y1="1679.412024" x2="2010.114767" y2="1679.412024" stroke="black" stroke-width="6.48"/>
<line x1="2010.114767" y1="1679.412024" x2="2010.114767" y2="2094.736824" stroke="black" stroke-width="6.48"/>
<line x1="2010.114767" y1="2094.736824" x2="1842.844367" y2="2094.736824" stroke="black" stroke-width="6.48"/>
<line x1="1842.844367" y1="2094.736824" x2="1842.844367" y2="2119.447224" stroke="black" stroke-width="6.48"/>
<line x1="1848.546767" y1="2094.736824" x2="1848.546767" y2="1679.412024" stroke="black" stroke-width="6.48"/>
<line x1="1847.596367" y1="1887.549624" x2="2009.164367" y2="1887.549624" stroke="black" stroke-width="6.48"/>
<line x1="1485.415969" y1="209.267824" x2="1707.693134" y2="209.267824" stroke="black" stroke-width="6.48"/>
<line x1="1707.693134" y1="209.267824" x2="1707.693134" y2="432.000475" stroke="black" stroke-width="6.48"/>
<line x1="1707.693134" y1="432.000475" x2="1485.415969" y2="432.000475" stroke="black" stroke-width="6.48"/>
<line x1="1485.415969" y1="432.000475" x2="1485.415969" y2="209.267824" stroke="black" stroke-width="6.48"/>
<line x1="1484.960483" y1="208.812337" x2="1707.693134" y2="432.000475" stroke="black" stroke-width="6.48"/>
<line x1="1485.415969" y1="431.544989" x2="1707.237648" y2="209.267824" stroke="black" stroke-width="6.48"/>
<line x1="2586.780558" y1="1803.366338" x2="2586.780558" y2="2194.614338" stroke="black" stroke-width="6.48"/>
<line x1="2586.780558" y1="2194.614338" x2="2761.020558" y2="2194.614338" stroke="black" stroke-width="6.48"/>
<line x1="2761.020558" y1="2194.614338" x2="2761.020558" y2="1803.366338" stroke="black" stroke-width="6.48"/>
<line x1="2761.020558" y1="1803.366338" x2="2586.780558" y2="1803.366338" stroke="black" stroke-width="6.48"/>
<line x1="2734.092558" y1="2119.374338" x2="2734.092558" y2="1835.046338" stroke="black" stroke-width="6.48"/>
<line x1="2734.092558" y1="1835.046338" x2="2616.084558" y2="1835.046338" stroke="black" stroke-width="6.48"/>
<line x1="2616.084558" y1="1835.046338" x2="2616.084558" y2="2124.918338" stroke="black" stroke-width="6.48"/>
<path d="m 2734.347982,2118.563766 a 63.35999941905905,63.35999941905905 0 0 1 -119.37432999999965,4.2938139999996565" fill="none" stroke="black" stroke-width="6.48"/>
<line x1="2081.156458" y1="1893.906353" x2="2056.604458" y2="1912.518353" stroke="black" stroke-width="6.48"/>
<line x1="2056.604458" y1="1912.518353" x2="2056.604458" y2="2059.830353" stroke="black" stroke-width="6.48"/>
<line x1="2056.604458" y1="2059.830353" x2="2084.720458" y2="2078.838353" stroke="black" stroke-width="6.48"/>
<line x1="2083.928458" y1="1915.686353" x2="2083.928458" y2="2058.642353" stroke="black" stroke-width="6.48"/>
<circle cx="2105.708458" cy="1984.986353" r="13.068000000000003" fill="none" stroke="black" stroke-width="6.48"/>
<path d="m 2083.261111,1917.239605 a 74.84400089539017,74.84400089539017 0 1 1 0.4020480000003772,139.60900500000002" fill="none" stroke="black" stroke-width="6.48"/>
<path d="m 2080.499094,1893.952656 a 95.43599883324424,95.43599883324424 0 1 1 3.0749580000001515,184.46699500000022" fill="none" stroke="black" stroke-width="6.48"/>
<line x1="835.233422" y1="209.793161" x2="1105.780622" y2="209.793161" stroke="black" stroke-width="6.48"/>
<line x1="1105.780622" y1="209.793161" x2="1105.780622" y2="341.740361" stroke="black" stroke-width="6.48"/>
<line x1="835.233422" y1="341.740361" x2="1105.780622" y2="341.740361" stroke="black" stroke-width="6.48"/>
<line x1="835.233422" y1="209.793161" x2="835.233422" y2="341.740361" stroke="black" stroke-width="6.48"/>
<line x1="841.886222" y1="216.445961" x2="979.931822" y2="216.445961" stroke="black" stroke-width="6.48"/>
<line x1="979.931822" y1="216.445961" x2="979.931822" y2="334.533161" stroke="black" stroke-width="6.48"/>
<line x1="841.886222" y1="334.533161" x2="979.931822" y2="334.533161" stroke="black" stroke-width="6.48"/>
<line x1="841.886222" y1="216.445961" x2="841.886222" y2="334.533161" stroke="black" stroke-width="6.48"/>
<line x1="994.346222" y1="224.207561" x2="1091.366222" y2="224.207561" stroke="black" stroke-width="6.48"/>
<line x1="994.346222" y1="244.720361" x2="1091.366222" y2="244.720361" stroke="black" stroke-width="6.48"/>
<line x1="994.900622" y1="265.787561" x2="1091.920622" y2="265.787561" stroke="black" stroke-width="6.48"/>
<line x1="994.900622" y1="286.300361" x2="1091.920622" y2="286.300361" stroke="black" stroke-width="6.48"/>
<line x1="994.346222" y1="306.813161" x2="1091.366222" y2="306.813161" stroke="black" stroke-width="6.48"/>
<line x1="994.346222" y1="327.325961" x2="1091.366222" y2="327.325961" stroke="black" stroke-width="6.48"/>
<line x1="894.554222" y1="334.533161" x2="894.554222" y2="320.673161" stroke="black" stroke-width="6.48"/>
<line x1="894.554222" y1="320.673161" x2="928.927022" y2="320.673161" stroke="black" stroke-width="6.48"/>
<line x1="928.927022" y1="320.673161" x2="928.927022" y2="333.978761" stroke="black" stroke-width="6.48"/>
<circle cx="964.408622" cy="231.414761" r="8.316000000000003" fill="none" stroke="black" stroke-width="6.48"/>
<line x1="1010.225772" y1="1035.907517" x2="813.809772" y2="1376.110008" stroke="black" stroke-width="6.48"/>
<line x1="813.809772" y1="1376.110008" x2="973.622632" y2="1468.378008" stroke="black" stroke-width="6.48"/>
<line x1="973.622632" y1="1468.378008" x2="1170.038632" y2="1128.175517" stroke="black" stroke-width="6.48"/>
<line x1="1170.038632" y1="1128.175517" x2="1010.225772" y2="1035.907517" stroke="black" stroke-width="6.48"/>
<line x1="1090.442632" y1="1266.039832" x2="1160.403631" y2="1306.431835" stroke="black" stroke-width="6.48"/>
<line x1="1160.403631" y1="1306.431835" x2="1199.607631" y2="1238.528513" stroke="black" stroke-width="6.48"/>
<line x1="1199.607631" y1="1238.528513" x2="1129.646632" y2="1198.136513" stroke="black" stroke-width="6.48"/>
<line x1="1184.122004" y1="1230.502406" x2="1145.314004" y2="1297.719835" stroke="black" stroke-width="6.48"/>
<line x1="899.186882" y1="1065.080513" x2="859.982882" y2="1132.983835" stroke="black" stroke-width="6.48"/>
<line x1="859.982882" y1="1132.983835" x2="930.629772" y2="1173.771835" stroke="black" stroke-width="6.48"/>
<line x1="969.833772" y1="1105.868513" x2="899.186882" y2="1065.080513" stroke="black" stroke-width="6.48"/>
<line x1="913.880509" y1="1074.478406" x2="875.072509" y2="1141.695835" stroke="black" stroke-width="6.48"/>
<line x1="1014.806632" y1="1397.045225" x2="1084.767631" y2="1437.437225" stroke="black" stroke-width="6.48"/>
<line x1="1084.767631" y1="1437.437225" x2="1123.971631" y2="1369.533906" stroke="black" stroke-width="6.48"/>
<line x1="1123.971631" y1="1369.533906" x2="1054.010632" y2="1329.141906" stroke="black" stroke-width="6.48"/>
<line x1="1108.882004" y1="1360.821906" x2="1069.678004" y2="1428.725225" stroke="black" stroke-width="6.48"/>
<line x1="823.550882" y1="1196.085906" x2="784.346882" y2="1263.989225" stroke="black" stroke-width="6.48"/>
<line x1="784.346882" y1="1263.989225" x2="854.993772" y2="1304.777225" stroke="black" stroke-width="6.48"/>
<line x1="894.197772" y1="1236.873906" x2="823.550882" y2="1196.085906" stroke="black" stroke-width="6.48"/>
<line x1="838.640509" y1="1204.797906" x2="799.436509" y2="1272.701228" stroke="black" stroke-width="6.48"/>
<line x1="2044.889399" y1="955.822399" x2="2267.166564" y2="955.822399" stroke="black" stroke-width="6.48"/>
<line x1="2267.166564" y1="955.822399" x2="2267.166564" y2="1178.555051" stroke="black" stroke-width="6.48"/>
<line x1="2267.166564" y1="1178.555051" x2="2044.889399" y2="1178.555051" stroke="black" stroke-width="6.48"/>
<line x1="2044.889399" y1="1178.555051" x2="2044.889399" y2="955.822399" stroke="black" stroke-width="6.48"/>
<line x1="2044.433912" y1="955.366913" x2="2267.166564" y2="1178.555051" stroke="black" stroke-width="6.48"/>
<line x1="2044.889399" y1="1178.099564" x2="2266.711078" y2="955.822399" stroke="black" stroke-width="6.48"/>
<line x1="333.766206" y1="1375.361078" x2="333.766206" y2="949.854546" stroke="black" stroke-width="6.48"/>
<line x1="333.766206" y1="949.854546" x2="257.659348" y2="949.854546" stroke="black" stroke-width="6.48"/>
<line x1="257.659348" y1="949.854546" x2="257.659348" y2="1375.361078" stroke="black" stroke-width="6.48"/>
<line x1="257.659348" y1="1375.361078" x2="333.766206" y2="1375.361078" stroke="black" stroke-width="6.48"/>
<line x1="333.766206" y1="1355.469512" x2="359.711726" y2="1355.469512" stroke="black" stroke-width="6.48"/>
<line x1="359.711726" y1="1355.469512" x2="359.711726" y2="970.610962" stroke="black" stroke-width="6.48"/>
<line x1="333.766206" y1="970.610962" x2="359.711726" y2="970.610962" stroke="black" stroke-width="6.48"/>
<line x1="3874.406537" y1="1514.726719" x2="3874.406537" y2="1940.260162" stroke="black" stroke-width="6.48"/>
<line x1="3874.406537" y1="1940.260162" x2="3940.00601" y2="1940.260162" stroke="black" stroke-width="6.48"/>
<line x1="3940.00601" y1="1940.260162" x2="3940.00601" y2="1514.726719" stroke="black" stroke-width="6.48"/>
<line x1="3940.00601" y1="1514.726719" x2="3874.406537" y2="1514.726719" stroke="black" stroke-width="6.48"/>
<line x1="3939.14286" y1="1554.431663" x2="3875.269687" y2="1554.431663" stroke="black" stroke-width="6.48"/>
<line x1="3939.14286" y1="1899.692064" x2="3872.680232" y2="1899.692064" stroke="black" stroke-width="6.48"/>
<line x1="3908.932574" y1="1553.568512" x2="3908.932574" y2="1898.828914" stroke="black" stroke-width="6.48"/>
<line x1="4901.360411" y1="2006.207114" x2="4806.331592" y2="1914.438852" stroke="black" stroke-width="6.48"/>
<line x1="4806.331592" y1="1914.438852" x2="4816.234642" y2="1904.183942" stroke="black" stroke-width="6.48"/>
<line x1="4911.26346" y1="1995.952201" x2="4816.234642" y2="1904.183942" stroke="black" stroke-width="6.48"/>
<line x1="4901.360411" y1="2006.207114" x2="4911.26346" y2="1995.952201" stroke="black" stroke-width="6.48"/>
<line x1="4901.692212" y1="1986.709356" x2="4924.846246" y2="1965.468967" stroke="black" stroke-width="6.48"/>
<line x1="4825.805893" y1="1913.426788" x2="4846.885484" y2="1888.861925" stroke="black" stroke-width="6.48"/>
<line x1="5221.55902" y1="1674.631746" x2="5126.530201" y2="1582.863487" stroke="black" stroke-width="6.48"/>
<line x1="5126.530201" y1="1582.863487" x2="5117.287356" y2="1592.434735" stroke="black" stroke-width="6.48"/>
<line x1="5212.316171" y1="1684.202994" x2="5117.287356" y2="1592.434735" stroke="black" stroke-width="6.48"/>
<line x1="5221.55902" y1="1674.631746" x2="5212.316171" y2="1684.202994" stroke="black" stroke-width="6.48"/>
<line x1="5202.10818" y1="1676.987672" x2="5181.688793" y2="1700.868877" stroke="black" stroke-width="6.48"/>
<line x1="5126.221858" y1="1603.705104" x2="5101.723966" y2="1624.96895" stroke="black" stroke-width="6.48"/>
<line x1="4802.957154" y1="1682.610606" x2="4813.212064" y2="1692.513659" stroke="black" stroke-width="6.48"/>
<line x1="4813.212064" y1="1692.513659" x2="4904.980322" y2="1597.48484" stroke="black" stroke-width="6.48"/>
<line x1="4894.725416" y1="1587.581791" x2="4904.980322" y2="1597.48484" stroke="black" stroke-width="6.48"/>
<line x1="4802.957154" y1="1682.610606" x2="4894.725416" y2="1587.581791" stroke="black" stroke-width="6.48"/>
<line x1="4895.077273" y1="1607.739746" x2="4920.302344" y2="1628.13568" stroke="black" stroke-width="6.48"/>
<line x1="4822.454909" y1="1682.942407" x2="4844.378963" y2="1706.756641" stroke="black" stroke-width="6.48"/>
<line x1="5133.188657" y1="2002.832669" x2="5122.933747" y2="1992.92962" stroke="black" stroke-width="6.48"/>
<line x1="5122.933747" y1="1992.92962" x2="5214.70201" y2="1897.900805" stroke="black" stroke-width="6.48"/>
<line x1="5224.956916" y1="1907.803858" x2="5214.70201" y2="1897.900805" stroke="black" stroke-width="6.48"/>
<line x1="5133.188657" y1="2002.832669" x2="5224.956916" y2="1907.803858" stroke="black" stroke-width="6.48"/>
<line x1="5204.79896" y1="1908.155714" x2="5183.53511" y2="1883.657822" stroke="black" stroke-width="6.48"/>
<line x1="5132.176596" y1="1983.358372" x2="5107.61173" y2="1962.27878" stroke="black" stroke-width="6.48"/>
<circle cx="5013.957035" cy="1795.207234" r="191.98080000000002" fill="none" stroke="black" stroke-width="6.48"/>
<line x1="3222.348527" y1="1074.706225" x2="3431.71373" y2="1074.706225" stroke="black" stroke-width="6.48"/>
<line x1="3431.71373" y1="1074.706225" x2="3431.71373" y2="743.491822" stroke="black" stroke-width="6.48"/>
<line x1="3431.71373" y1="743.491822" x2="3222.348527" y2="743.491822" stroke="black" stroke-width="6.48"/>
<line x1="3222.348527" y1="743.491822" x2="3222.348527" y2="1074.706225" stroke="black" stroke-width="6.48"/>
<line x1="3221.675327" y1="802.733422" x2="3432.386927" y2="802.733422" stroke="black" stroke-width="6.48"/>
<line x1="3432.386927" y1="802.733422" x2="3223.021727" y2="852.550225" stroke="black" stroke-width="6.48"/>
<line x1="3223.021727" y1="852.550225" x2="3254.66213" y2="899.001025" stroke="black" stroke-width="6.48"/>
<line x1="3254.66213" y1="899.001025" x2="3432.386927" y2="802.060225" stroke="black" stroke-width="6.48"/>
<line x1="3378.963276" y1="1203.259723" x2="3601.240441" y2="1203.259723" stroke="black" stroke-width="6.48"/>
<line x1="3601.240441" y1="1203.259723" x2="3601.240441" y2="1425.992375" stroke="black" stroke-width="6.48"/>
<line x1="3601.240441" y1="1425.992375" x2="3378.963276" y2="1425.992375" stroke="black" stroke-width="6.48"/>
<line x1="3378.963276" y1="1425.992375" x2="3378.963276" y2="1203.259723" stroke="black" stroke-width="6.48"/>
<line x1="3378.50779" y1="1202.804237" x2="3601.240441" y2="1425.992375" stroke="black" stroke-width="6.48"/>
<line x1="3378.963276" y1="1425.536888" x2="3600.784955" y2="1203.259723" stroke="black" stroke-width="6.48"/>
<line x1="2804.16708" y1="1127.69402" x2="2804.16708" y2="1153.148746" stroke="black" stroke-width="6.48"/>
<line x1="2804.16708" y1="1153.148746" x2="2853.834836" y2="1153.148746" stroke="black" stroke-width="6.48"/>
<line x1="2853.834836" y1="1153.148746" x2="2853.834836" y2="1127.69402" stroke="black" stroke-width="6.48"/>
<line x1="2853.834836" y1="1127.69402" x2="2804.16708" y2="1127.69402" stroke="black" stroke-width="6.48"/>
<line x1="2853.834836" y1="1402.108373" x2="3101.55277" y2="1402.108373" stroke="black" stroke-width="6.48"/>
<line x1="2802.925386" y1="1402.729218" x2="2802.925386" y2="1428.183943" stroke="black" stroke-width="6.48"/>
<line x1="2802.925386" y1="1428.183943" x2="2852.593142" y2="1428.183943" stroke="black" stroke-width="6.48"/>
<line x1="2852.593142" y1="1428.183943" x2="2852.593142" y2="1402.729218" stroke="black" stroke-width="6.48"/>
<line x1="2852.593142" y1="1402.729218" x2="2802.925386" y2="1402.729218" stroke="black" stroke-width="6.48"/>
<path d="m 2851.972294,1153.148746 a 248.95962699999984,248.95962699999984 0 0 1 248.95962699999973,248.95962699999995" fill="none" stroke="black" stroke-width="6.48"/>
<line x1="3483.70866" y1="1952.119717" x2="3396.838291" y2="1737.108004" stroke="black" stroke-width="6.48"/>
<line x1="3396.838291" y1="1737.108004" x2="3612.290602" y2="1650.059618" stroke="black" stroke-width="6.48"/>
<line x1="3612.290602" y1="1650.059618" x2="3699.16097" y2="1865.071332" stroke="black" stroke-width="6.48"/>
<line x1="3699.16097" y1="1865.071332" x2="3483.70866" y2="1952.119717" stroke="black" stroke-width="6.48"/>
<line x1="3483.446076" y1="1952.738327" x2="3612.290602" y2="1650.059618" stroke="black" stroke-width="6.48"/>
<line x1="3698.720374" y1="1865.249345" x2="3397.016304" y2="1737.5486" stroke="black" stroke-width="6.48"/>
<line x1="3009.806302" y1="1589.315879" x2="3009.26723" y2="1620.199174" stroke="black" stroke-width="6.48"/>
<line x1="3009.26723" y1="1620.199174" x2="3218.798513" y2="1623.856554" stroke="black" stroke-width="6.48"/>
<line x1="3218.798513" y1="1623.856554" x2="3219.337584" y2="1592.973259" stroke="black" stroke-width="6.48"/>
<line x1="3219.337584" y1="1592.973259" x2="3009.806302" y2="1589.315879" stroke="black" stroke-width="6.48"/>
<line x1="3006.24844" y1="1793.145629" x2="3005.709368" y2="1824.028924" stroke="black" stroke-width="6.48"/>
<line x1="3005.709368" y1="1824.028924" x2="3215.240651" y2="1827.686304" stroke="black" stroke-width="6.48"/>
<line x1="3215.240651" y1="1827.686304" x2="3215.779722" y2="1796.803009" stroke="black" stroke-width="6.48"/>
<line x1="3215.779722" y1="1796.803009" x2="3006.24844" y2="1793.145629" stroke="black" stroke-width="6.48"/>
<line x1="3009.275525" y1="1619.724046" x2="3006.24844" y2="1793.145629" stroke="black" stroke-width="6.48"/>
<line x1="3217.864846" y1="1622.889713" x2="3243.532435" y2="1649.952994" stroke="black" stroke-width="6.48"/>
<line x1="3241.417622" y1="1771.11054" x2="3214.821172" y2="1797.261548" stroke="black" stroke-width="6.48"/>
<line x1="3243.565609" y1="1648.052482" x2="3241.384448" y2="1773.011052" stroke="black" stroke-width="6.48"/>
<line x1="3053.929226" y1="1620.97875" x2="3050.902145" y2="1794.400333" stroke="black" stroke-width="6.48"/>
<line x1="2277.198932" y1="2040.465049" x2="2507.826168" y2="2064.705005" stroke="black" stroke-width="6.48"/>
<line x1="2507.826168" y1="2064.705005" x2="2483.53654" y2="2295.804838" stroke="black" stroke-width="6.48"/>
<line x1="2483.53654" y1="2295.804838" x2="2252.909304" y2="2271.564878" stroke="black" stroke-width="6.48"/>
<line x1="2252.909304" y1="2271.564878" x2="2277.198932" y2="2040.465049" stroke="black" stroke-width="6.48"/>
<line x1="2276.776008" y1="2039.942779" x2="2483.53654" y2="2295.804838" stroke="black" stroke-width="6.48"/>
<line x1="2252.958977" y1="2271.092281" x2="2507.353571" y2="2064.655332" stroke="black" stroke-width="6.48"/>
<line x1="6091.610058" y1="2030.638363" x2="6102.174373" y2="2059.66359" stroke="black" stroke-width="6.48"/>
<line x1="6102.174373" y1="2059.66359" x2="6299.099366" y2="1987.988753" stroke="black" stroke-width="6.48"/>
<line x1="6299.099366" y1="1987.988753" x2="6288.535048" y2="1958.96353" stroke="black" stroke-width="6.48"/>
<line x1="6288.535048" y1="1958.96353" x2="6091.610058" y2="2030.638363" stroke="black" stroke-width="6.48"/>
<line x1="6161.334556" y1="2222.204854" x2="6171.898874" y2="2251.230077" stroke="black" stroke-width="6.48"/>
<line x1="6171.898874" y1="2251.230077" x2="6368.823864" y2="2179.555243" stroke="black" stroke-width="6.48"/>
<line x1="6368.823864" y1="2179.555243" x2="6358.259549" y2="2150.53002" stroke="black" stroke-width="6.48"/>
<line x1="6358.259549" y1="2150.53002" x2="6161.334556" y2="2222.204854" stroke="black" stroke-width="6.48"/>
<line x1="6102.011848" y1="2059.217046" x2="6161.334556" y2="2222.204854" stroke="black" stroke-width="6.48"/>
<line x1="6297.881227" y1="1987.420727" x2="6331.542599" y2="2003.488034" stroke="black" stroke-width="6.48"/>
<line x1="6372.987232" y1="2117.356232" x2="6357.528994" y2="2151.301615" stroke="black" stroke-width="6.48"/>
<line x1="6330.892486" y1="2001.701869" x2="6373.637345" y2="2119.142398" stroke="black" stroke-width="6.48"/>
<line x1="6144.149318" y1="2044.38596" x2="6203.472026" y2="2207.373768" stroke="black" stroke-width="6.48"/>
<line x1="896.30231" y1="1950.615421" x2="1061.065872" y2="2079.342886" stroke="black" stroke-width="6.48"/>
<line x1="1061.065872" y1="2079.342886" x2="1203.836339" y2="1896.605114" stroke="black" stroke-width="6.48"/>
<line x1="1203.836339" y1="1896.605114" x2="1039.072777" y2="1767.87765" stroke="black" stroke-width="6.48"/>
<line x1="1039.072777" y1="1767.87765" x2="896.30231" y2="1950.615421" stroke="black" stroke-width="6.48"/>
<line x1="916.196555" y1="1925.151959" x2="1080.960116" y2="2053.879427" stroke="black" stroke-width="6.48"/>
<line x1="5908.008679" y1="1445.111672" x2="5729.391911" y2="1510.122859" stroke="black" stroke-width="6.48"/>
<line x1="5729.391911" y1="1510.122859" x2="5888.019211" y2="1945.947787" stroke="black" stroke-width="6.48"/>
<line x1="5888.019211" y1="1945.947787" x2="6066.635983" y2="1880.936597" stroke="black" stroke-width="6.48"/>
<line x1="6066.635983" y1="1880.936597" x2="6058.509584" y2="1858.609505" stroke="black" stroke-width="6.48"/>
<line x1="6058.509584" y1="1858.609505" x2="5901.326824" y2="1915.819348" stroke="black" stroke-width="6.48"/>
<line x1="5901.326824" y1="1915.819348" x2="5759.277376" y2="1525.541699" stroke="black" stroke-width="6.48"/>
<line x1="5759.277376" y1="1525.541699" x2="5916.460136" y2="1468.331856" stroke="black" stroke-width="6.48"/>
<line x1="5916.460136" y1="1468.331856" x2="5908.008679" y2="1445.111672" stroke="black" stroke-width="6.48"/>
<line x1="5911.101634" y1="1470.282192" x2="6053.151078" y2="1860.559841" stroke="black" stroke-width="6.48"/>
<line x1="5982.856913" y1="1664.649418" x2="5831.032655" y2="1719.908928" stroke="black" stroke-width="6.48"/>
</g>
</svg>
