<?xml version="1.0"?>
<svg xmlns:xlink="http://www.w3.org/1999/xlink" width="6775.2" height="2858.4">
<image x="0" y="0" width="6775.2" height="2858.4" xlink:href="groundfilled-01.png"/>
<g style="stroke-linecap:round">
<line x1="1285.950406" y1="795.178109" x2="1311.346069" y2="795.178109" stroke="black" stroke-width="6.48"/>
<line x1="1311.346069" y1="795.178109" x2="1311.346069" y2="745.625592" stroke="black" stroke-width="6.48"/>
<line x1="1311.346069" y1="745.625592" x2="1285.950406" y2="745.625592" stroke="black" stroke-width="6.48"/>
<line x1="1285.950406" y1="745.625592" x2="1285.950406" y2="795.178109" stroke="black" stroke-width="6.48"/>
<line x1="1559.728062" y1="745.625592" x2="1559.728062" y2="498.48241" stroke="black" stroke-width="6.48"/>
<line x1="1560.347471" y1="796.416923" x2="1585.743134" y2="796.416923" stroke="black" stroke-width="6.48"/>
<line x1="1585.743134" y1="796.416923" x2="1585.743134" y2="746.864406" stroke="black" stroke-width="6.48"/>
<line x1="1585.743134" y1="746.864406" x2="1560.347471" y2="746.864406" stroke="black" stroke-width="6.48"/>
<line x1="1560.347471" y1="746.864406" x2="1560.347471" y2="796.416923" stroke="black" stroke-width="6.48"/>
<path d="m 1311.346069,747.483811 a 248.38199299999997,248.38199299999997 0 0 1 248.38199299999997,-248.38199299999997" fill="none" stroke="black" stroke-width="6.48"/>
<line x1="320.532556" y1="771.34176" x2="320.532556" y2="366.736194" stroke="black" stroke-width="6.48"/>
<line x1="320.532556" y1="366.736194" x2="258.159283" y2="366.736194" stroke="black" stroke-width="6.48"/>
<line x1="258.159283" y1="366.736194" x2="258.159283" y2="771.34176" stroke="black" stroke-width="6.48"/>
<line x1="258.159283" y1="771.34176" x2="320.532556" y2="771.34176" stroke="black" stroke-width="6.48"/>
<line x1="258.979986" y1="733.589518" x2="319.711856" y2="733.589518" stroke="black" stroke-width="6.48"/>
<line x1="258.979986" y1="405.309139" x2="322.173958" y2="405.309139" stroke="black" stroke-width="6.48"/>
<line x1="287.704519" y1="734.410217" x2="287.704519" y2="406.129838" stroke="black" stroke-width="6.48"/>
<line x1="3901.945176" y1="1169.331426" x2="3901.945176" y2="1428.837066" stroke="black" stroke-width="6.48"/>
<line x1="3901.945176" y1="1428.837066" x2="3941.9501" y2="1428.837066" stroke="black" stroke-width="6.48"/>
<line x1="3941.9501" y1="1428.837066" x2="3941.9501" y2="1169.331426" stroke="black" stroke-width="6.48"/>
<line x1="3941.9501" y1="1169.331426" x2="3901.945176" y2="1169.331426" stroke="black" stroke-width="6.48"/>
<line x1="3941.423719" y1="1193.544936" x2="3902.471557" y2="1193.544936" stroke="black" stroke-width="6.48"/>
<line x1="3941.423719" y1="1404.097178" x2="3900.892414" y2="1404.097178" stroke="black" stroke-width="6.48"/>
<line x1="3923.000399" y1="1193.018555" x2="3923.000399" y2="1403.570797" stroke="black" stroke-width="6.48"/>
<line x1="323.923298" y1="1882.957399" x2="323.923298" y2="1457.423957" stroke="black" stroke-width="6.48"/>
<line x1="323.923298" y1="1457.423957" x2="258.323825" y2="1457.423957" stroke="black" stroke-width="6.48"/>
<line x1="258.323825" y1="1457.423957" x2="258.323825" y2="1882.957399" stroke="black" stroke-width="6.48"/>
<line x1="258.323825" y1="1882.957399" x2="323.923298" y2="1882.957399" stroke="black" stroke-width="6.48"/>
<line x1="259.186975" y1="1843.252456" x2="323.060148" y2="1843.252456" stroke="black" stroke-width="6.48"/>
<line x1="259.186975" y1="1497.992054" x2="325.649603" y2="1497.992054" stroke="black" stroke-width="6.48"/>
<line x1="289.397261" y1="1844.115606" x2="289.397261" y2="1498.855205" stroke="black" stroke-width="6.48"/>
<line x1="2747.905531" y1="904.670665" x2="2721.68303" y2="904.670665" stroke="black" stroke-width="6.48"/>
<line x1="2721.68303" y1="904.670665" x2="2721.68303" y2="955.836522" stroke="black" stroke-width="6.48"/>
<line x1="2721.68303" y1="955.836522" x2="2747.905531" y2="955.836522" stroke="black" stroke-width="6.48"/>
<line x1="2747.905531" y1="955.836522" x2="2747.905531" y2="904.670665" stroke="black" stroke-width="6.48"/>
<line x1="2465.214181" y1="955.836522" x2="2465.214181" y2="1211.026223" stroke="black" stroke-width="6.48"/>
<line x1="2464.574609" y1="903.39152" x2="2438.352108" y2="903.39152" stroke="black" stroke-width="6.48"/>
<line x1="2438.352108" y1="903.39152" x2="2438.352108" y2="954.557374" stroke="black" stroke-width="6.48"/>
<line x1="2438.352108" y1="954.557374" x2="2464.574609" y2="954.557374" stroke="black" stroke-width="6.48"/>
<line x1="2464.574609" y1="954.557374" x2="2464.574609" y2="903.39152" stroke="black" stroke-width="6.48"/>
<path d="m 2721.68303,953.917801 a 256.4688490000001,256.4688490000001 0 0 1 -256.4688490000003,256.46884899999986" fill="none" stroke="black" stroke-width="6.48"/>
<line x1="2420.532389" y1="1427.858834" x2="2395.136725" y2="1427.858834" stroke="black" stroke-width="6.48"/>
<line x1="2395.136725" y1="1427.858834" x2="2395.136725" y2="1477.411351" stroke="black" stroke-width="6.48"/>
<line x1="2395.136725" y1="1477.411351" x2="2420.532389" y2="1477.411351" stroke="black" stroke-width="6.48"/>
<line x1="2420.532389" y1="1477.411351" x2="2420.532389" y2="1427.858834" stroke="black" stroke-width="6.48"/>
<line x1="2146.754732" y1="1477.411351" x2="2146.754732" y2="1724.554534" stroke="black" stroke-width="6.48"/>
<line x1="2146.135324" y1="1426.62002" x2="2120.73966" y2="1426.62002" stroke="black" stroke-width="6.48"/>
<line x1="2120.73966" y1="1426.62002" x2="2120.73966" y2="1476.172537" stroke="black" stroke-width="6.48"/>
<line x1="2120.73966" y1="1476.172537" x2="2146.135324" y2="1476.172537" stroke="black" stroke-width="6.48"/>
<line x1="2146.135324" y1="1476.172537" x2="2146.135324" y2="1426.62002" stroke="black" stroke-width="6.48"/>
<path d="m 2395.136725,1475.553132 a 248.38199299999997,248.38199299999997 0 0 1 -248.38199299999997,248.38199299999997" fill="none" stroke="black" stroke-width="6.48"/>
<line x1="515.614021" y1="541.339351" x2="747.511621" y2="541.339351" stroke="black" stroke-width="6.48"/>
<line x1="747.511621" y1="541.339351" x2="747.511621" y2="773.712151" stroke="black" stroke-width="6.48"/>
<line x1="747.511621" y1="773.712151" x2="515.614021" y2="773.712151" stroke="black" stroke-width="6.48"/>
<line x1="515.614021" y1="773.712151" x2="515.614021" y2="541.339351" stroke="black" stroke-width="6.48"/>
<line x1="515.138821" y1="540.864151" x2="747.511621" y2="773.712151" stroke="black" stroke-width="6.48"/>
<line x1="515.614021" y1="773.236951" x2="747.036421" y2="541.339351" stroke="black" stroke-width="6.48"/>
<line x1="2032.924367" y1="2105.373773" x2="2032.924367" y2="2074.485773" stroke="black" stroke-width="6.48"/>
<line x1="2032.924367" y1="2074.485773" x2="1823.361167" y2="2074.485773" stroke="black" stroke-width="6.48"/>
<line x1="1823.361167" y1="2074.485773" x2="1823.361167" y2="2105.373773" stroke="black" stroke-width="6.48"/>
<line x1="1823.361167" y1="2105.373773" x2="2032.924367" y2="2105.373773" stroke="black" stroke-width="6.48"/>
<line x1="2032.924367" y1="1901.512973" x2="2032.924367" y2="1870.624973" stroke="black" stroke-width="6.48"/>
<line x1="2032.924367" y1="1870.624973" x2="1823.361167" y2="1870.624973" stroke="black" stroke-width="6.48"/>
<line x1="1823.361167" y1="1870.624973" x2="1823.361167" y2="1901.512973" stroke="black" stroke-width="6.48"/>
<line x1="1823.361167" y1="1901.512973" x2="2032.924367" y2="1901.512973" stroke="black" stroke-width="6.48"/>
<line x1="2032.924367" y1="2074.960973" x2="2032.924367" y2="1901.512973" stroke="black" stroke-width="6.48"/>
<line x1="1824.311567" y1="2075.436173" x2="1798.175567" y2="2048.824973" stroke="black" stroke-width="6.48"/>
<line x1="1798.175567" y1="1927.648973" x2="1824.311567" y2="1901.037773" stroke="black" stroke-width="6.48"/>
<line x1="1798.175567" y1="2050.725773" x2="1798.175567" y2="1925.748173" stroke="black" stroke-width="6.48"/>
<line x1="1988.255567" y1="2074.485773" x2="1988.255567" y2="1901.037773" stroke="black" stroke-width="6.48"/>
<line x1="1485.415969" y1="209.267824" x2="1707.693134" y2="209.267824" stroke="black" stroke-width="6.48"/>
<line x1="1707.693134" y1="209.267824" x2="1707.693134" y2="432.000475" stroke="black" stroke-width="6.48"/>
<line x1="1707.693134" y1="432.000475" x2="1485.415969" y2="432.000475" stroke="black" stroke-width="6.48"/>
<line x1="1485.415969" y1="432.000475" x2="1485.415969" y2="209.267824" stroke="black" stroke-width="6.48"/>
<line x1="1484.960483" y1="208.812337" x2="1707.693134" y2="432.000475" stroke="black" stroke-width="6.48"/>
<line x1="1485.415969" y1="431.544989" x2="1707.237648" y2="209.267824" stroke="black" stroke-width="6.48"/>
<line x1="2761.020558" y1="2194.614338" x2="2761.020558" y2="1803.366338" stroke="black" stroke-width="6.48"/>
<line x1="2761.020558" y1="1803.366338" x2="2586.780558" y2="1803.366338" stroke="black" stroke-width="6.48"/>
<line x1="2586.780558" y1="1803.366338" x2="2586.780558" y2="2194.614338" stroke="black" stroke-width="6.48"/>
<line x1="2586.780558" y1="2194.614338" x2="2761.020558" y2="2194.614338" stroke="black" stroke-width="6.48"/>
<line x1="2613.708558" y1="1878.606338" x2="2613.708558" y2="2162.934338" stroke="black" stroke-width="6.48"/>
<line x1="2613.708558" y1="2162.934338" x2="2731.716558" y2="2162.934338" stroke="black" stroke-width="6.48"/>
<line x1="2731.716558" y1="2162.934338" x2="2731.716558" y2="1873.062338" stroke="black" stroke-width="6.48"/>
<path d="m 2613.453134,1879.416911 a 63.3599990854681,63.3599990854681 0 0 1 119.3743300000001,-4.293814000000111" fill="none" stroke="black" stroke-width="6.48"/>
<line x1="2105.398303" y1="1854.8267" x2="2105.398303" y2="2038.5707" stroke="black" stroke-width="6.48"/>
<line x1="2105.398303" y1="2038.5707" x2="2056.294303" y2="2038.5707" stroke="black" stroke-width="6.48"/>
<line x1="2056.294303" y1="1854.8267" x2="2056.294303" y2="2038.5707" stroke="black" stroke-width="6.48"/>
<line x1="2105.398303" y1="1854.8267" x2="2056.294303" y2="1854.8267" stroke="black" stroke-width="6.48"/>
<line x1="2133.118303" y1="1896.4067" x2="2105.398303" y2="1896.4067" stroke="black" stroke-width="6.48"/>
<line x1="2105.398303" y1="1995.4067" x2="2134.702303" y2="1995.4067" stroke="black" stroke-width="6.48"/>
<circle cx="2178.262303" cy="1945.1147" r="66.52800000000002" fill="none" stroke="black" stroke-width="6.48"/>
<circle cx="2178.262303" cy="1945.1147" r="57.02400000000001" fill="none" stroke="black" stroke-width="6.48"/>
<line x1="710.796953" y1="209.488914" x2="981.344153" y2="209.488914" stroke="black" stroke-width="6.48"/>
<line x1="981.344153" y1="209.488914" x2="981.344153" y2="341.436114" stroke="black" stroke-width="6.48"/>
<line x1="710.796953" y1="341.436114" x2="981.344153" y2="341.436114" stroke="black" stroke-width="6.48"/>
<line x1="710.796953" y1="209.488914" x2="710.796953" y2="341.436114" stroke="black" stroke-width="6.48"/>
<line x1="717.449753" y1="216.141714" x2="855.495353" y2="216.141714" stroke="black" stroke-width="6.48"/>
<line x1="855.495353" y1="216.141714" x2="855.495353" y2="334.228914" stroke="black" stroke-width="6.48"/>
<line x1="717.449753" y1="334.228914" x2="855.495353" y2="334.228914" stroke="black" stroke-width="6.48"/>
<line x1="717.449753" y1="216.141714" x2="717.449753" y2="334.228914" stroke="black" stroke-width="6.48"/>
<line x1="869.909753" y1="223.903314" x2="966.929753" y2="223.903314" stroke="black" stroke-width="6.48"/>
<line x1="869.909753" y1="244.416114" x2="966.929753" y2="244.416114" stroke="black" stroke-width="6.48"/>
<line x1="870.464153" y1="265.483314" x2="967.484153" y2="265.483314" stroke="black" stroke-width="6.48"/>
<line x1="870.464153" y1="285.996114" x2="967.484153" y2="285.996114" stroke="black" stroke-width="6.48"/>
<line x1="869.909753" y1="306.508914" x2="966.929753" y2="306.508914" stroke="black" stroke-width="6.48"/>
<line x1="869.909753" y1="327.021714" x2="966.929753" y2="327.021714" stroke="black" stroke-width="6.48"/>
<line x1="770.117753" y1="334.228914" x2="770.117753" y2="320.368914" stroke="black" stroke-width="6.48"/>
<line x1="770.117753" y1="320.368914" x2="804.490553" y2="320.368914" stroke="black" stroke-width="6.48"/>
<line x1="804.490553" y1="320.368914" x2="804.490553" y2="333.674514" stroke="black" stroke-width="6.48"/>
<circle cx="839.972153" cy="231.110514" r="8.316000000000003" fill="none" stroke="black" stroke-width="6.48"/>
<line x1="637.34193" y1="1185.12459" x2="660.281825" y2="1055.025968" stroke="black" stroke-width="6.48"/>
<line x1="660.281825" y1="1055.025968" x2="674.321245" y2="1057.501501" stroke="black" stroke-width="6.48"/>
<line x1="651.381347" y1="1187.600116" x2="674.321245" y2="1057.501501" stroke="black" stroke-width="6.48"/>
<line x1="637.34193" y1="1185.12459" x2="651.381347" y2="1187.600116" stroke="black" stroke-width="6.48"/>
<line x1="653.691838" y1="1174.496659" x2="684.248494" y2="1181.814743" stroke="black" stroke-width="6.48"/>
<line x1="672.010751" y1="1070.604958" x2="704.163503" y2="1074.344231" stroke="black" stroke-width="6.48"/>
<line x1="1091.283152" y1="1265.166677" x2="1114.223051" y2="1135.068055" stroke="black" stroke-width="6.48"/>
<line x1="1114.223051" y1="1135.068055" x2="1101.119591" y2="1132.757561" stroke="black" stroke-width="6.48"/>
<line x1="1078.179696" y1="1262.856182" x2="1101.119591" y2="1132.757561" stroke="black" stroke-width="6.48"/>
<line x1="1091.283152" y1="1265.166677" x2="1078.179696" y2="1262.856182" stroke="black" stroke-width="6.48"/>
<line x1="1078.453231" y1="1250.358617" x2="1047.236436" y2="1246.784375" stroke="black" stroke-width="6.48"/>
<line x1="1096.772141" y1="1146.466912" x2="1065.444563" y2="1138.047829" stroke="black" stroke-width="6.48"/>
<line x1="850.589186" y1="922.591721" x2="848.113657" y2="936.631141" stroke="black" stroke-width="6.48"/>
<line x1="848.113657" y1="936.631141" x2="978.212279" y2="959.57104" stroke="black" stroke-width="6.48"/>
<line x1="980.687804" y1="945.531619" x2="978.212279" y2="959.57104" stroke="black" stroke-width="6.48"/>
<line x1="850.589186" y1="922.591721" x2="980.687804" y2="945.531619" stroke="black" stroke-width="6.48"/>
<line x1="964.172858" y1="957.09551" x2="961.369542" y2="989.413301" stroke="black" stroke-width="6.48"/>
<line x1="861.217117" y1="938.941636" x2="853.733995" y2="970.434248" stroke="black" stroke-width="6.48"/>
<line x1="769.776174" y1="1375.431948" x2="772.251707" y2="1361.392535" stroke="black" stroke-width="6.48"/>
<line x1="772.251707" y1="1361.392535" x2="902.350321" y2="1384.33243" stroke="black" stroke-width="6.48"/>
<line x1="899.874796" y1="1398.37185" x2="902.350321" y2="1384.33243" stroke="black" stroke-width="6.48"/>
<line x1="769.776174" y1="1375.431948" x2="899.874796" y2="1398.37185" stroke="black" stroke-width="6.48"/>
<line x1="888.310901" y1="1381.8569" x2="896.729983" y2="1350.529322" stroke="black" stroke-width="6.48"/>
<line x1="785.355163" y1="1363.703022" x2="789.094436" y2="1331.55027" stroke="black" stroke-width="6.48"/>
<circle cx="875.231993" cy="1160.481787" r="191.98080000000002" fill="none" stroke="black" stroke-width="6.48"/>
<line x1="2044.889399" y1="955.822399" x2="2267.166564" y2="955.822399" stroke="black" stroke-width="6.48"/>
<line x1="2267.166564" y1="955.822399" x2="2267.166564" y2="1178.555051" stroke="black" stroke-width="6.48"/>
<line x1="2267.166564" y1="1178.555051" x2="2044.889399" y2="1178.555051" stroke="black" stroke-width="6.48"/>
<line x1="2044.889399" y1="1178.555051" x2="2044.889399" y2="955.822399" stroke="black" stroke-width="6.48"/>
<line x1="2044.433912" y1="955.366913" x2="2267.166564" y2="1178.555051" stroke="black" stroke-width="6.48"/>
<line x1="2044.889399" y1="1178.099564" x2="2266.711078" y2="955.822399" stroke="black" stroke-width="6.48"/>
<line x1="333.766206" y1="1375.361078" x2="333.766206" y2="949.854546" stroke="black" stroke-width="6.48"/>
<line x1="333.766206" y1="949.854546" x2="257.659348" y2="949.854546" stroke="black" stroke-width="6.48"/>
<line x1="257.659348" y1="949.854546" x2="257.659348" y2="1375.361078" stroke="black" stroke-width="6.48"/>
<line x1="257.659348" y1="1375.361078" x2="333.766206" y2="1375.361078" stroke="black" stroke-width="6.48"/>
<line x1="333.766206" y1="1355.469512" x2="359.711726" y2="1355.469512" stroke="black" stroke-width="6.48"/>
<line x1="359.711726" y1="1355.469512" x2="359.711726" y2="970.610962" stroke="black" stroke-width="6.48"/>
<line x1="333.766206" y1="970.610962" x2="359.711726" y2="970.610962" stroke="black" stroke-width="6.48"/>
<line x1="3874.406537" y1="1514.726719" x2="3874.406537" y2="1940.260162" stroke="black" stroke-width="6.48"/>
<line x1="3874.406537" y1="1940.260162" x2="3940.00601" y2="1940.260162" stroke="black" stroke-width="6.48"/>
<line x1="3940.00601" y1="1940.260162" x2="3940.00601" y2="1514.726719" stroke="black" stroke-width="6.48"/>
<line x1="3940.00601" y1="1514.726719" x2="3874.406537" y2="1514.726719" stroke="black" stroke-width="6.48"/>
<line x1="3939.14286" y1="1554.431663" x2="3875.269687" y2="1554.431663" stroke="black" stroke-width="6.48"/>
<line x1="3939.14286" y1="1899.692064" x2="3872.680232" y2="1899.692064" stroke="black" stroke-width="6.48"/>
<line x1="3908.932574" y1="1553.568512" x2="3908.932574" y2="1898.828914" stroke="black" stroke-width="6.48"/>
<line x1="4732.780756" y1="1526.72872" x2="4833.979513" y2="1441.812874" stroke="black" stroke-width="6.48"/>
<line x1="4833.979513" y1="1441.812874" x2="4843.143097" y2="1452.733603" stroke="black" stroke-width="6.48"/>
<line x1="4741.944336" y1="1537.649449" x2="4843.143097" y2="1452.733603" stroke="black" stroke-width="6.48"/>
<line x1="4732.780756" y1="1526.72872" x2="4741.944336" y2="1537.649449" stroke="black" stroke-width="6.48"/>
<line x1="4752.137016" y1="1529.096771" x2="4770.840794" y2="1554.34419" stroke="black" stroke-width="6.48"/>
<line x1="4832.950414" y1="1461.286282" x2="4855.177296" y2="1484.818124" stroke="black" stroke-width="6.48"/>
<line x1="5029.069846" y1="1879.832308" x2="5130.268607" y2="1794.916465" stroke="black" stroke-width="6.48"/>
<line x1="5130.268607" y1="1794.916465" x2="5121.715936" y2="1784.723785" stroke="black" stroke-width="6.48"/>
<line x1="5020.517171" y1="1869.639628" x2="5121.715936" y2="1784.723785" stroke="black" stroke-width="6.48"/>
<line x1="5029.069846" y1="1879.832308" x2="5020.517171" y2="1869.639628" stroke="black" stroke-width="6.48"/>
<line x1="5028.759997" y1="1860.241763" x2="5007.144024" y2="1837.437966" stroke="black" stroke-width="6.48"/>
<line x1="5109.573395" y1="1792.431266" x2="5090.986757" y2="1765.844896" stroke="black" stroke-width="6.48"/>
<line x1="5064.890508" y1="1462.689572" x2="5053.969778" y2="1471.853149" stroke="black" stroke-width="6.48"/>
<line x1="5053.969778" y1="1471.853149" x2="5138.885621" y2="1573.051914" stroke="black" stroke-width="6.48"/>
<line x1="5149.80635" y1="1563.888334" x2="5138.885621" y2="1573.051914" stroke="black" stroke-width="6.48"/>
<line x1="5064.890508" y1="1462.689572" x2="5149.80635" y2="1563.888334" stroke="black" stroke-width="6.48"/>
<line x1="5129.72204" y1="1562.131184" x2="5106.8011" y2="1585.086113" stroke="black" stroke-width="6.48"/>
<line x1="5062.522453" y1="1482.045833" x2="5036.546988" y2="1501.360517" stroke="black" stroke-width="6.48"/>
<line x1="4711.90406" y1="1757.639711" x2="4722.82479" y2="1748.47613" stroke="black" stroke-width="6.48"/>
<line x1="4722.82479" y1="1748.47613" x2="4807.740632" y2="1849.674888" stroke="black" stroke-width="6.48"/>
<line x1="4796.819903" y1="1858.838472" x2="4807.740632" y2="1849.674888" stroke="black" stroke-width="6.48"/>
<line x1="4711.90406" y1="1757.639711" x2="4796.819903" y2="1858.838472" stroke="black" stroke-width="6.48"/>
<line x1="4798.577052" y1="1838.754158" x2="4825.163423" y2="1820.167524" stroke="black" stroke-width="6.48"/>
<line x1="4731.377465" y1="1758.66881" x2="4754.909308" y2="1736.441932" stroke="black" stroke-width="6.48"/>
<circle cx="4930.855204" cy="1660.76402" r="191.98080000000002" fill="none" stroke="black" stroke-width="6.48"/>
<line x1="3483.4288" y1="1075.567878" x2="3692.794003" y2="1075.567878" stroke="black" stroke-width="6.48"/>
<line x1="3692.794003" y1="1075.567878" x2="3692.794003" y2="744.353474" stroke="black" stroke-width="6.48"/>
<line x1="3692.794003" y1="744.353474" x2="3483.4288" y2="744.353474" stroke="black" stroke-width="6.48"/>
<line x1="3483.4288" y1="744.353474" x2="3483.4288" y2="1075.567878" stroke="black" stroke-width="6.48"/>
<line x1="3482.7556" y1="803.595074" x2="3693.4672" y2="803.595074" stroke="black" stroke-width="6.48"/>
<line x1="3693.4672" y1="803.595074" x2="3484.102" y2="853.411878" stroke="black" stroke-width="6.48"/>
<line x1="3484.102" y1="853.411878" x2="3515.742403" y2="899.862678" stroke="black" stroke-width="6.48"/>
<line x1="3515.742403" y1="899.862678" x2="3693.4672" y2="802.921878" stroke="black" stroke-width="6.48"/>
<line x1="3458.884439" y1="1202.936155" x2="3681.161604" y2="1202.936155" stroke="black" stroke-width="6.48"/>
<line x1="3681.161604" y1="1202.936155" x2="3681.161604" y2="1425.668807" stroke="black" stroke-width="6.48"/>
<line x1="3681.161604" y1="1425.668807" x2="3458.884439" y2="1425.668807" stroke="black" stroke-width="6.48"/>
<line x1="3458.884439" y1="1425.668807" x2="3458.884439" y2="1202.936155" stroke="black" stroke-width="6.48"/>
<line x1="3458.428952" y1="1202.480669" x2="3681.161604" y2="1425.668807" stroke="black" stroke-width="6.48"/>
<line x1="3458.884439" y1="1425.21332" x2="3680.706118" y2="1202.936155" stroke="black" stroke-width="6.48"/>
<line x1="2804.16708" y1="1127.69402" x2="2804.16708" y2="1153.148746" stroke="black" stroke-width="6.48"/>
<line x1="2804.16708" y1="1153.148746" x2="2853.834836" y2="1153.148746" stroke="black" stroke-width="6.48"/>
<line x1="2853.834836" y1="1153.148746" x2="2853.834836" y2="1127.69402" stroke="black" stroke-width="6.48"/>
<line x1="2853.834836" y1="1127.69402" x2="2804.16708" y2="1127.69402" stroke="black" stroke-width="6.48"/>
<line x1="2853.834836" y1="1402.108373" x2="3101.55277" y2="1402.108373" stroke="black" stroke-width="6.48"/>
<line x1="2802.925386" y1="1402.729218" x2="2802.925386" y2="1428.183943" stroke="black" stroke-width="6.48"/>
<line x1="2802.925386" y1="1428.183943" x2="2852.593142" y2="1428.183943" stroke="black" stroke-width="6.48"/>
<line x1="2852.593142" y1="1428.183943" x2="2852.593142" y2="1402.729218" stroke="black" stroke-width="6.48"/>
<line x1="2852.593142" y1="1402.729218" x2="2802.925386" y2="1402.729218" stroke="black" stroke-width="6.48"/>
<path d="m 2851.972294,1153.148746 a 248.95962699999984,248.95962699999984 0 0 1 248.95962699999973,248.95962699999995" fill="none" stroke="black" stroke-width="6.48"/>
<line x1="2980.402088" y1="2032.977334" x2="2909.196943" y2="2209.216471" stroke="black" stroke-width="6.48"/>
<line x1="2909.196943" y1="2209.216471" x2="3339.220439" y2="2382.957022" stroke="black" stroke-width="6.48"/>
<line x1="3339.220439" y1="2382.957022" x2="3410.425584" y2="2206.717884" stroke="black" stroke-width="6.48"/>
<line x1="3410.425584" y1="2206.717884" x2="3388.395694" y2="2197.81724" stroke="black" stroke-width="6.48"/>
<line x1="3388.395694" y1="2197.81724" x2="3325.735166" y2="2352.907685" stroke="black" stroke-width="6.48"/>
<line x1="3325.735166" y1="2352.907685" x2="2940.652649" y2="2197.324444" stroke="black" stroke-width="6.48"/>
<line x1="2940.652649" y1="2197.324444" x2="3003.313176" y2="2042.234003" stroke="black" stroke-width="6.48"/>
<line x1="3003.313176" y1="2042.234003" x2="2980.402088" y2="2032.977334" stroke="black" stroke-width="6.48"/>
<line x1="3001.177022" y1="2047.521175" x2="3386.25954" y2="2203.104416" stroke="black" stroke-width="6.48"/>
<line x1="3193.633706" y1="2124.253588" x2="3133.109336" y2="2274.056856" stroke="black" stroke-width="6.48"/>
<line x1="3696.531426" y1="1732.180835" x2="3617.217774" y2="1950.093295" stroke="black" stroke-width="6.48"/>
<line x1="3617.217774" y1="1950.093295" x2="3398.858766" y2="1870.617118" stroke="black" stroke-width="6.48"/>
<line x1="3398.858766" y1="1870.617118" x2="3478.172418" y2="1652.704657" stroke="black" stroke-width="6.48"/>
<line x1="3478.172418" y1="1652.704657" x2="3696.531426" y2="1732.180835" stroke="black" stroke-width="6.48"/>
<line x1="3697.140496" y1="1731.89682" x2="3398.858766" y2="1870.617118" stroke="black" stroke-width="6.48"/>
<line x1="3478.618962" y1="1652.867186" x2="3617.380303" y2="1949.646755" stroke="black" stroke-width="6.48"/>
<line x1="3066.685171" y1="1589.315879" x2="3055.615902" y2="1618.152311" stroke="black" stroke-width="6.48"/>
<line x1="3055.615902" y1="1618.152311" x2="3251.260004" y2="1693.253045" stroke="black" stroke-width="6.48"/>
<line x1="3251.260004" y1="1693.253045" x2="3262.329274" y2="1664.416613" stroke="black" stroke-width="6.48"/>
<line x1="3262.329274" y1="1664.416613" x2="3066.685171" y2="1589.315879" stroke="black" stroke-width="6.48"/>
<line x1="2993.627995" y1="1779.63633" x2="2982.558726" y2="1808.472762" stroke="black" stroke-width="6.48"/>
<line x1="2982.558726" y1="1808.472762" x2="3178.202828" y2="1883.573496" stroke="black" stroke-width="6.48"/>
<line x1="3178.202828" y1="1883.573496" x2="3189.272098" y2="1854.737068" stroke="black" stroke-width="6.48"/>
<line x1="3189.272098" y1="1854.737068" x2="2993.627995" y2="1779.63633" stroke="black" stroke-width="6.48"/>
<line x1="3055.7862" y1="1617.708672" x2="2993.627995" y2="1779.63633" stroke="black" stroke-width="6.48"/>
<line x1="3250.713323" y1="1692.025175" x2="3265.57678" y2="1726.235176" stroke="black" stroke-width="6.48"/>
<line x1="3222.151186" y1="1839.362717" x2="3188.214526" y2="1854.84011" stroke="black" stroke-width="6.48"/>
<line x1="3266.257964" y1="1724.460631" x2="3221.469997" y2="1841.137268" stroke="black" stroke-width="6.48"/>
<line x1="3097.31782" y1="1634.160175" x2="3035.159615" y2="1796.087833" stroke="black" stroke-width="6.48"/>
<line x1="6344.856238" y1="1862.597768" x2="6158.929943" y2="1823.077912" stroke="black" stroke-width="6.48"/>
<line x1="6158.929943" y1="1823.077912" x2="6062.501498" y2="2276.738075" stroke="black" stroke-width="6.48"/>
<line x1="6062.501498" y1="2276.738075" x2="6248.427797" y2="2316.257928" stroke="black" stroke-width="6.48"/>
<line x1="6248.427797" y1="2316.257928" x2="6253.367778" y2="2293.017145" stroke="black" stroke-width="6.48"/>
<line x1="6253.367778" y1="2293.017145" x2="6089.752638" y2="2258.239673" stroke="black" stroke-width="6.48"/>
<line x1="6089.752638" y1="2258.239673" x2="6176.10352" y2="1851.990718" stroke="black" stroke-width="6.48"/>
<line x1="6176.10352" y1="1851.990718" x2="6339.718656" y2="1886.768186" stroke="black" stroke-width="6.48"/>
<line x1="6339.718656" y1="1886.768186" x2="6344.856238" y2="1862.597768" stroke="black" stroke-width="6.48"/>
<line x1="6334.14087" y1="1885.582591" x2="6247.789988" y2="2291.83155" stroke="black" stroke-width="6.48"/>
<line x1="6291.993863" y1="2088.439855" x2="6133.956505" y2="2054.847978" stroke="black" stroke-width="6.48"/>
<line x1="1236.276846" y1="1932.222211" x2="1253.549185" y2="1957.829522" stroke="black" stroke-width="6.48"/>
<line x1="1253.549185" y1="1957.829522" x2="1427.284984" y2="1840.643312" stroke="black" stroke-width="6.48"/>
<line x1="1427.284984" y1="1840.643312" x2="1410.012641" y2="1815.035994" stroke="black" stroke-width="6.48"/>
<line x1="1410.012641" y1="1815.035994" x2="1236.276846" y2="1932.222211" stroke="black" stroke-width="6.48"/>
<line x1="1350.274316" y1="2101.230497" x2="1367.546659" y2="2126.837815" stroke="black" stroke-width="6.48"/>
<line x1="1367.546659" y1="2126.837815" x2="1541.282454" y2="2009.651602" stroke="black" stroke-width="6.48"/>
<line x1="1541.282454" y1="2009.651602" x2="1524.010111" y2="1984.044283" stroke="black" stroke-width="6.48"/>
<line x1="1524.010111" y1="1984.044283" x2="1350.274316" y2="2101.230497" stroke="black" stroke-width="6.48"/>
<line x1="1253.283458" y1="1957.435567" x2="1350.274316" y2="2101.230497" stroke="black" stroke-width="6.48"/>
<line x1="1425.965609" y1="1840.386848" x2="1462.514126" y2="1847.833481" stroke="black" stroke-width="6.48"/>
<line x1="1530.27486" y1="1948.292953" x2="1523.48792" y2="1984.969703" stroke="black" stroke-width="6.48"/>
<line x1="1461.451212" y1="1846.257642" x2="1531.337774" y2="1949.868785" stroke="black" stroke-width="6.48"/>
<line x1="1290.581305" y1="1932.851056" x2="1387.572163" y2="2076.645992" stroke="black" stroke-width="6.48"/>
</g>
</svg>
