<?xml version="1.0"?>
<svg xmlns:xlink="http://www.w3.org/1999/xlink" width="6775.2" height="2858.4">
<image x="0" y="0" width="6775.2" height="2858.4" xlink:href="groundfilled-01.png"/>
<g style="stroke-linecap:round">
<line x1="1285.950406" y1="795.178109" x2="1311.346069" y2="795.178109" stroke="black" stroke-width="6.48"/>
<line x1="1311.346069" y1="795.178109" x2="1311.346069" y2="745.625592" stroke="black" stroke-width="6.48"/>
<line x1="1311.346069" y1="745.625592" x2="1285.950406" y2="745.625592" stroke="black" stroke-width="6.48"/>
<line x1="1285.950406" y1="745.625592" x2="1285.950406" y2="795.178109" stroke="black" stroke-width="6.48"/>
<line x1="1559.728062" y1="745.625592" x2="1559.728062" y2="498.48241" stroke="black" stroke-width="6.48"/>
<line x1="1560.347471" y1="796.416923" x2="1585.743134" y2="796.416923" stroke="black" stroke-width="6.48"/>
<line x1="1585.743134" y1="796.416923" x2="1585.743134" y2="746.864406" stroke="black" stroke-width="6.48"/>
<line x1="1585.743134" y1="746.864406" x2="1560.347471" y2="746.864406" stroke="black" stroke-width="6.48"/>
<line x1="1560.347471" y1="746.864406" x2="1560.347471" y2="796.416923" stroke="black" stroke-width="6.48"/>
<path d="m 1311.346069,747.483811 a 248.38199299999997,248.38199299999997 0 0 1 248.38199299999997,-248.38199299999997" fill="none" stroke="black" stroke-width="6.48"/>
<line x1="330.523178" y1="771.328966" x2="330.523178" y2="366.748985" stroke="black" stroke-width="6.48"/>
<line x1="330.523178" y1="366.748985" x2="258.15928" y2="366.748985" stroke="black" stroke-width="6.48"/>
<line x1="258.15928" y1="366.748985" x2="258.15928" y2="771.328966" stroke="black" stroke-width="6.48"/>
<line x1="258.15928" y1="771.328966" x2="330.523178" y2="771.328966" stroke="black" stroke-width="6.48"/>
<line x1="330.523178" y1="752.415674" x2="355.19269" y2="752.415674" stroke="black" stroke-width="6.48"/>
<line x1="355.19269" y1="752.415674" x2="355.19269" y2="386.484595" stroke="black" stroke-width="6.48"/>
<line x1="330.523178" y1="386.484595" x2="355.19269" y2="386.484595" stroke="black" stroke-width="6.48"/>
<line x1="3901.945176" y1="1169.331426" x2="3901.945176" y2="1428.837066" stroke="black" stroke-width="6.48"/>
<line x1="3901.945176" y1="1428.837066" x2="3941.9501" y2="1428.837066" stroke="black" stroke-width="6.48"/>
<line x1="3941.9501" y1="1428.837066" x2="3941.9501" y2="1169.331426" stroke="black" stroke-width="6.48"/>
<line x1="3941.9501" y1="1169.331426" x2="3901.945176" y2="1169.331426" stroke="black" stroke-width="6.48"/>
<line x1="3941.423719" y1="1193.544936" x2="3902.471557" y2="1193.544936" stroke="black" stroke-width="6.48"/>
<line x1="3941.423719" y1="1404.097178" x2="3900.892414" y2="1404.097178" stroke="black" stroke-width="6.48"/>
<line x1="3923.000399" y1="1193.018555" x2="3923.000399" y2="1403.570797" stroke="black" stroke-width="6.48"/>
<line x1="334.430687" y1="1882.943946" x2="334.430687" y2="1457.437414" stroke="black" stroke-width="6.48"/>
<line x1="334.430687" y1="1457.437414" x2="258.323828" y2="1457.437414" stroke="black" stroke-width="6.48"/>
<line x1="258.323828" y1="1457.437414" x2="258.323828" y2="1882.943946" stroke="black" stroke-width="6.48"/>
<line x1="258.323828" y1="1882.943946" x2="334.430687" y2="1882.943946" stroke="black" stroke-width="6.48"/>
<line x1="334.430687" y1="1863.05238" x2="360.376207" y2="1863.05238" stroke="black" stroke-width="6.48"/>
<line x1="360.376207" y1="1863.05238" x2="360.376207" y2="1478.193829" stroke="black" stroke-width="6.48"/>
<line x1="334.430687" y1="1478.193829" x2="360.376207" y2="1478.193829" stroke="black" stroke-width="6.48"/>
<line x1="2747.905531" y1="904.670665" x2="2721.68303" y2="904.670665" stroke="black" stroke-width="6.48"/>
<line x1="2721.68303" y1="904.670665" x2="2721.68303" y2="955.836522" stroke="black" stroke-width="6.48"/>
<line x1="2721.68303" y1="955.836522" x2="2747.905531" y2="955.836522" stroke="black" stroke-width="6.48"/>
<line x1="2747.905531" y1="955.836522" x2="2747.905531" y2="904.670665" stroke="black" stroke-width="6.48"/>
<line x1="2465.214181" y1="955.836522" x2="2465.214181" y2="1211.026223" stroke="black" stroke-width="6.48"/>
<line x1="2464.574609" y1="903.39152" x2="2438.352108" y2="903.39152" stroke="black" stroke-width="6.48"/>
<line x1="2438.352108" y1="903.39152" x2="2438.352108" y2="954.557374" stroke="black" stroke-width="6.48"/>
<line x1="2438.352108" y1="954.557374" x2="2464.574609" y2="954.557374" stroke="black" stroke-width="6.48"/>
<line x1="2464.574609" y1="954.557374" x2="2464.574609" y2="903.39152" stroke="black" stroke-width="6.48"/>
<path d="m 2721.68303,953.917801 a 256.4688490000001,256.4688490000001 0 0 1 -256.4688490000003,256.46884899999986" fill="none" stroke="black" stroke-width="6.48"/>
<line x1="2420.532389" y1="1427.858834" x2="2395.136725" y2="1427.858834" stroke="black" stroke-width="6.48"/>
<line x1="2395.136725" y1="1427.858834" x2="2395.136725" y2="1477.411351" stroke="black" stroke-width="6.48"/>
<line x1="2395.136725" y1="1477.411351" x2="2420.532389" y2="1477.411351" stroke="black" stroke-width="6.48"/>
<line x1="2420.532389" y1="1477.411351" x2="2420.532389" y2="1427.858834" stroke="black" stroke-width="6.48"/>
<line x1="2146.754732" y1="1477.411351" x2="2146.754732" y2="1724.554534" stroke="black" stroke-width="6.48"/>
<line x1="2146.135324" y1="1426.62002" x2="2120.73966" y2="1426.62002" stroke="black" stroke-width="6.48"/>
<line x1="2120.73966" y1="1426.62002" x2="2120.73966" y2="1476.172537" stroke="black" stroke-width="6.48"/>
<line x1="2120.73966" y1="1476.172537" x2="2146.135324" y2="1476.172537" stroke="black" stroke-width="6.48"/>
<line x1="2146.135324" y1="1476.172537" x2="2146.135324" y2="1426.62002" stroke="black" stroke-width="6.48"/>
<path d="m 2395.136725,1475.553132 a 248.38199299999997,248.38199299999997 0 0 1 -248.38199299999997,248.38199299999997" fill="none" stroke="black" stroke-width="6.48"/>
<line x1="784.113887" y1="692.136151" x2="1176.945887" y2="692.136151" stroke="black" stroke-width="6.48"/>
<line x1="1176.945887" y1="692.136151" x2="1176.945887" y2="507.600151" stroke="black" stroke-width="6.48"/>
<line x1="1176.945887" y1="507.600151" x2="784.113887" y2="507.600151" stroke="black" stroke-width="6.48"/>
<line x1="784.113887" y1="507.600151" x2="784.113887" y2="692.136151" stroke="black" stroke-width="6.48"/>
<line x1="943.305887" y1="507.600151" x2="943.305887" y2="426.816151" stroke="black" stroke-width="6.48"/>
<line x1="943.305887" y1="426.816151" x2="864.897887" y2="426.816151" stroke="black" stroke-width="6.48"/>
<line x1="864.897887" y1="426.816151" x2="864.897887" y2="507.600151" stroke="black" stroke-width="6.48"/>
<line x1="865.689887" y1="444.240151" x2="943.305887" y2="444.240151" stroke="black" stroke-width="6.48"/>
<line x1="864.897887" y1="773.712151" x2="943.305887" y2="773.712151" stroke="black" stroke-width="6.48"/>
<line x1="943.305887" y1="773.712151" x2="943.305887" y2="692.136151" stroke="black" stroke-width="6.48"/>
<line x1="864.897887" y1="692.136151" x2="864.897887" y2="773.712151" stroke="black" stroke-width="6.48"/>
<line x1="865.689887" y1="756.288151" x2="943.305887" y2="756.288151" stroke="black" stroke-width="6.48"/>
<line x1="1094.577887" y1="507.600151" x2="1094.577887" y2="426.816151" stroke="black" stroke-width="6.48"/>
<line x1="1094.577887" y1="426.816151" x2="1016.169887" y2="426.816151" stroke="black" stroke-width="6.48"/>
<line x1="1016.169887" y1="426.816151" x2="1016.169887" y2="507.600151" stroke="black" stroke-width="6.48"/>
<line x1="1016.169887" y1="444.240151" x2="1094.577887" y2="444.240151" stroke="black" stroke-width="6.48"/>
<line x1="1016.169887" y1="773.712151" x2="1094.577887" y2="773.712151" stroke="black" stroke-width="6.48"/>
<line x1="1094.577887" y1="773.712151" x2="1094.577887" y2="692.136151" stroke="black" stroke-width="6.48"/>
<line x1="1016.169887" y1="692.136151" x2="1016.169887" y2="773.712151" stroke="black" stroke-width="6.48"/>
<line x1="1016.169887" y1="756.288151" x2="1094.577887" y2="756.288151" stroke="black" stroke-width="6.48"/>
<line x1="1842.844367" y1="1955.180164" x2="2032.924367" y2="1955.180164" stroke="black" stroke-width="6.48"/>
<line x1="2032.924367" y1="1955.180164" x2="2032.924367" y2="1491.384964" stroke="black" stroke-width="6.48"/>
<line x1="2032.924367" y1="1491.384964" x2="1842.844367" y2="1491.384964" stroke="black" stroke-width="6.48"/>
<line x1="1842.844367" y1="1491.384964" x2="1842.844367" y2="1515.144964" stroke="black" stroke-width="6.48"/>
<line x1="1842.844367" y1="1515.144964" x2="2010.114767" y2="1515.144964" stroke="black" stroke-width="6.48"/>
<line x1="2010.114767" y1="1515.144964" x2="2010.114767" y2="1930.469764" stroke="black" stroke-width="6.48"/>
<line x1="2010.114767" y1="1930.469764" x2="1842.844367" y2="1930.469764" stroke="black" stroke-width="6.48"/>
<line x1="1842.844367" y1="1930.469764" x2="1842.844367" y2="1955.180164" stroke="black" stroke-width="6.48"/>
<line x1="1848.546767" y1="1930.469764" x2="1848.546767" y2="1515.144964" stroke="black" stroke-width="6.48"/>
<line x1="1847.596367" y1="1723.282564" x2="2009.164367" y2="1723.282564" stroke="black" stroke-width="6.48"/>
<line x1="1485.415969" y1="209.267824" x2="1707.693134" y2="209.267824" stroke="black" stroke-width="6.48"/>
<line x1="1707.693134" y1="209.267824" x2="1707.693134" y2="432.000475" stroke="black" stroke-width="6.48"/>
<line x1="1707.693134" y1="432.000475" x2="1485.415969" y2="432.000475" stroke="black" stroke-width="6.48"/>
<line x1="1485.415969" y1="432.000475" x2="1485.415969" y2="209.267824" stroke="black" stroke-width="6.48"/>
<line x1="1484.960483" y1="208.812337" x2="1707.693134" y2="432.000475" stroke="black" stroke-width="6.48"/>
<line x1="1485.415969" y1="431.544989" x2="1707.237648" y2="209.267824" stroke="black" stroke-width="6.48"/>
<line x1="2761.020558" y1="2194.614338" x2="2761.020558" y2="1803.366338" stroke="black" stroke-width="6.48"/>
<line x1="2761.020558" y1="1803.366338" x2="2586.780558" y2="1803.366338" stroke="black" stroke-width="6.48"/>
<line x1="2586.780558" y1="1803.366338" x2="2586.780558" y2="2194.614338" stroke="black" stroke-width="6.48"/>
<line x1="2586.780558" y1="2194.614338" x2="2761.020558" y2="2194.614338" stroke="black" stroke-width="6.48"/>
<line x1="2613.708558" y1="1878.606338" x2="2613.708558" y2="2162.934338" stroke="black" stroke-width="6.48"/>
<line x1="2613.708558" y1="2162.934338" x2="2731.716558" y2="2162.934338" stroke="black" stroke-width="6.48"/>
<line x1="2731.716558" y1="2162.934338" x2="2731.716558" y2="1873.062338" stroke="black" stroke-width="6.48"/>
<path d="m 2613.453134,1879.416911 a 63.3599990854681,63.3599990854681 0 0 1 119.3743300000001,-4.293814000000111" fill="none" stroke="black" stroke-width="6.48"/>
<line x1="2081.177906" y1="1896.608725" x2="2056.625906" y2="1915.220725" stroke="black" stroke-width="6.48"/>
<line x1="2056.625906" y1="1915.220725" x2="2056.625906" y2="2062.532725" stroke="black" stroke-width="6.48"/>
<line x1="2056.625906" y1="2062.532725" x2="2084.741906" y2="2081.540725" stroke="black" stroke-width="6.48"/>
<line x1="2083.949906" y1="1918.388725" x2="2083.949906" y2="2061.344725" stroke="black" stroke-width="6.48"/>
<circle cx="2105.729906" cy="1987.688725" r="13.068000000000003" fill="none" stroke="black" stroke-width="6.48"/>
<path d="m 2083.28256,1919.941978 a 74.8440000678095,74.8440000678095 0 1 1 0.40204799999992247,139.60900400000014" fill="none" stroke="black" stroke-width="6.48"/>
<path d="m 2080.520543,1896.655028 a 95.43599906226416,95.43599906226416 0 1 1 3.0749579999996968,184.46699599999988" fill="none" stroke="black" stroke-width="6.48"/>
<line x1="812.268526" y1="210.8916" x2="1205.512398" y2="210.8916" stroke="black" stroke-width="6.48"/>
<line x1="1209.467804" y1="209.895318" x2="1209.467804" y2="345.964093" stroke="black" stroke-width="6.48"/>
<line x1="812.732915" y1="347.1156" x2="1209.773146" y2="347.1156" stroke="black" stroke-width="6.48"/>
<line x1="813.467804" y1="211.58635" x2="813.467804" y2="346.850406" stroke="black" stroke-width="6.48"/>
<line x1="823.763804" y1="221.9796" x2="947.315804" y2="221.9796" stroke="black" stroke-width="6.48"/>
<line x1="947.315804" y1="221.9796" x2="947.315804" y2="336.0276" stroke="black" stroke-width="6.48"/>
<line x1="823.763804" y1="336.0276" x2="947.315804" y2="336.0276" stroke="black" stroke-width="6.48"/>
<line x1="823.763804" y1="221.9796" x2="823.763804" y2="336.0276" stroke="black" stroke-width="6.48"/>
<line x1="966.323804" y1="229.1076" x2="1053.443804" y2="229.1076" stroke="black" stroke-width="6.48"/>
<line x1="966.323804" y1="248.9076" x2="1053.443804" y2="248.9076" stroke="black" stroke-width="6.48"/>
<line x1="967.115804" y1="269.4996" x2="1053.443804" y2="269.4996" stroke="black" stroke-width="6.48"/>
<line x1="967.115804" y1="289.2996" x2="1053.443804" y2="289.2996" stroke="black" stroke-width="6.48"/>
<line x1="966.323804" y1="309.0996" x2="1053.443804" y2="309.0996" stroke="black" stroke-width="6.48"/>
<line x1="966.323804" y1="328.8996" x2="1053.443804" y2="328.8996" stroke="black" stroke-width="6.48"/>
<line x1="871.283804" y1="335.2356" x2="871.283804" y2="321.7716" stroke="black" stroke-width="6.48"/>
<line x1="871.283804" y1="321.7716" x2="901.379804" y2="321.7716" stroke="black" stroke-width="6.48"/>
<line x1="901.379804" y1="321.7716" x2="901.379804" y2="334.4436" stroke="black" stroke-width="6.48"/>
<line x1="1074.035804" y1="221.9796" x2="1197.587804" y2="221.9796" stroke="black" stroke-width="6.48"/>
<line x1="1197.587804" y1="221.9796" x2="1197.587804" y2="336.0276" stroke="black" stroke-width="6.48"/>
<line x1="1074.035804" y1="336.0276" x2="1197.587804" y2="336.0276" stroke="black" stroke-width="6.48"/>
<line x1="1074.035804" y1="221.9796" x2="1074.035804" y2="336.0276" stroke="black" stroke-width="6.48"/>
<line x1="1121.555804" y1="336.0276" x2="1121.555804" y2="322.5636" stroke="black" stroke-width="6.48"/>
<line x1="1121.555804" y1="322.5636" x2="1151.651804" y2="322.5636" stroke="black" stroke-width="6.48"/>
<line x1="1151.651804" y1="322.5636" x2="1151.651804" y2="335.2356" stroke="black" stroke-width="6.48"/>
<circle cx="933.059804" cy="236.2356" r="7.128000000000001" fill="none" stroke="black" stroke-width="6.48"/>
<circle cx="1183.331804" cy="237.0276" r="7.128000000000001" fill="none" stroke="black" stroke-width="6.48"/>
<line x1="948.580848" y1="1411.984912" x2="1069.972614" y2="1038.379475" stroke="black" stroke-width="6.48"/>
<line x1="1069.972614" y1="1038.379475" x2="894.468445" y2="981.354715" stroke="black" stroke-width="6.48"/>
<line x1="894.468445" y1="981.354715" x2="773.076683" y2="1354.960152" stroke="black" stroke-width="6.48"/>
<line x1="773.076683" y1="1354.960152" x2="948.580848" y2="1411.984912" stroke="black" stroke-width="6.48"/>
<line x1="822.269718" y1="1203.559564" x2="745.439569" y2="1178.595932" stroke="black" stroke-width="6.48"/>
<line x1="745.439569" y1="1178.595932" x2="721.210162" y2="1253.166372" stroke="black" stroke-width="6.48"/>
<line x1="721.210162" y1="1253.166372" x2="798.040314" y2="1278.130003" stroke="black" stroke-width="6.48"/>
<line x1="738.026111" y1="1257.797448" x2="762.010776" y2="1183.980244" stroke="black" stroke-width="6.48"/>
<line x1="1051.127863" y1="1360.363133" x2="1075.357267" y2="1285.792693" stroke="black" stroke-width="6.48"/>
<line x1="1075.357267" y1="1285.792693" x2="997.773883" y2="1260.584323" stroke="black" stroke-width="6.48"/>
<line x1="973.544479" y1="1335.154763" x2="1051.127863" y2="1360.363133" stroke="black" stroke-width="6.48"/>
<line x1="1034.801399" y1="1354.225583" x2="1058.78606" y2="1280.408378" stroke="black" stroke-width="6.48"/>
<line x1="869.015336" y1="1059.691342" x2="792.185188" y2="1034.72771" stroke="black" stroke-width="6.48"/>
<line x1="792.185188" y1="1034.72771" x2="767.95578" y2="1109.29815" stroke="black" stroke-width="6.48"/>
<line x1="767.95578" y1="1109.29815" x2="844.785932" y2="1134.261781" stroke="black" stroke-width="6.48"/>
<line x1="784.52699" y1="1114.682461" x2="808.756398" y2="1040.112022" stroke="black" stroke-width="6.48"/>
<line x1="1097.873482" y1="1216.494911" x2="1122.102889" y2="1141.924471" stroke="black" stroke-width="6.48"/>
<line x1="1122.102889" y1="1141.924471" x2="1044.519498" y2="1116.716101" stroke="black" stroke-width="6.48"/>
<line x1="1020.290098" y1="1191.286541" x2="1097.873482" y2="1216.494911" stroke="black" stroke-width="6.48"/>
<line x1="1081.302275" y1="1211.110596" x2="1105.531679" y2="1136.540156" stroke="black" stroke-width="6.48"/>
<line x1="2044.889399" y1="955.822399" x2="2267.166564" y2="955.822399" stroke="black" stroke-width="6.48"/>
<line x1="2267.166564" y1="955.822399" x2="2267.166564" y2="1178.555051" stroke="black" stroke-width="6.48"/>
<line x1="2267.166564" y1="1178.555051" x2="2044.889399" y2="1178.555051" stroke="black" stroke-width="6.48"/>
<line x1="2044.889399" y1="1178.555051" x2="2044.889399" y2="955.822399" stroke="black" stroke-width="6.48"/>
<line x1="2044.433912" y1="955.366913" x2="2267.166564" y2="1178.555051" stroke="black" stroke-width="6.48"/>
<line x1="2044.889399" y1="1178.099564" x2="2266.711078" y2="955.822399" stroke="black" stroke-width="6.48"/>
<line x1="323.258818" y1="1375.374532" x2="323.258818" y2="949.841089" stroke="black" stroke-width="6.48"/>
<line x1="323.258818" y1="949.841089" x2="257.659344" y2="949.841089" stroke="black" stroke-width="6.48"/>
<line x1="257.659344" y1="949.841089" x2="257.659344" y2="1375.374532" stroke="black" stroke-width="6.48"/>
<line x1="257.659344" y1="1375.374532" x2="323.258818" y2="1375.374532" stroke="black" stroke-width="6.48"/>
<line x1="258.522494" y1="1335.669588" x2="322.395667" y2="1335.669588" stroke="black" stroke-width="6.48"/>
<line x1="258.522494" y1="990.409187" x2="324.985122" y2="990.409187" stroke="black" stroke-width="6.48"/>
<line x1="288.73278" y1="1336.532738" x2="288.73278" y2="991.272337" stroke="black" stroke-width="6.48"/>
<line x1="3874.406537" y1="1514.726719" x2="3874.406537" y2="1940.260162" stroke="black" stroke-width="6.48"/>
<line x1="3874.406537" y1="1940.260162" x2="3940.00601" y2="1940.260162" stroke="black" stroke-width="6.48"/>
<line x1="3940.00601" y1="1940.260162" x2="3940.00601" y2="1514.726719" stroke="black" stroke-width="6.48"/>
<line x1="3940.00601" y1="1514.726719" x2="3874.406537" y2="1514.726719" stroke="black" stroke-width="6.48"/>
<line x1="3939.14286" y1="1554.431663" x2="3875.269687" y2="1554.431663" stroke="black" stroke-width="6.48"/>
<line x1="3939.14286" y1="1899.692064" x2="3872.680232" y2="1899.692064" stroke="black" stroke-width="6.48"/>
<line x1="3908.932574" y1="1553.568512" x2="3908.932574" y2="1898.828914" stroke="black" stroke-width="6.48"/>
<line x1="4867.149956" y1="2009.298744" x2="4817.66233" y2="1886.812567" stroke="black" stroke-width="6.48"/>
<line x1="4817.66233" y1="1886.812567" x2="4830.880262" y2="1881.472172" stroke="black" stroke-width="6.48"/>
<line x1="4880.367893" y1="2003.958353" x2="4830.880262" y2="1881.472172" stroke="black" stroke-width="6.48"/>
<line x1="4867.149956" y1="2009.298744" x2="4880.367893" y2="2003.958353" stroke="black" stroke-width="6.48"/>
<line x1="4875.383527" y1="1991.621617" x2="4905.175032" y2="1981.635145" stroke="black" stroke-width="6.48"/>
<line x1="4835.864628" y1="1893.808912" x2="4865.113224" y2="1879.941632" stroke="black" stroke-width="6.48"/>
<line x1="5294.529796" y1="1836.626083" x2="5245.042165" y2="1714.139903" stroke="black" stroke-width="6.48"/>
<line x1="5245.042165" y1="1714.139903" x2="5232.705426" y2="1719.124268" stroke="black" stroke-width="6.48"/>
<line x1="5282.193056" y1="1841.610449" x2="5232.705426" y2="1719.124268" stroke="black" stroke-width="6.48"/>
<line x1="5294.529796" y1="1836.626083" x2="5282.193056" y2="1841.610449" stroke="black" stroke-width="6.48"/>
<line x1="5275.802326" y1="1830.866958" x2="5247.434923" y2="1844.378212" stroke="black" stroke-width="6.48"/>
<line x1="5236.28343" y1="1733.054252" x2="5205.254702" y2="1742.515556" stroke="black" stroke-width="6.48"/>
<line x1="4908.872668" y1="1673.654414" x2="4914.213059" y2="1686.872347" stroke="black" stroke-width="6.48"/>
<line x1="4914.213059" y1="1686.872347" x2="5036.699239" y2="1637.38472" stroke="black" stroke-width="6.48"/>
<line x1="5031.358848" y1="1624.166788" x2="5036.699239" y2="1637.38472" stroke="black" stroke-width="6.48"/>
<line x1="4908.872668" y1="1673.654414" x2="5031.358848" y2="1624.166788" stroke="black" stroke-width="6.48"/>
<line x1="5023.481306" y1="1642.725112" x2="5038.229779" y2="1671.617686" stroke="black" stroke-width="6.48"/>
<line x1="4926.549794" y1="1681.887985" x2="4936.892296" y2="1712.560687" stroke="black" stroke-width="6.48"/>
<line x1="5080.308106" y1="2100.509086" x2="5074.967718" y2="2087.291149" stroke="black" stroke-width="6.48"/>
<line x1="5074.967718" y1="2087.291149" x2="5197.453895" y2="2037.803522" stroke="black" stroke-width="6.48"/>
<line x1="5202.794286" y1="2051.021455" x2="5197.453895" y2="2037.803522" stroke="black" stroke-width="6.48"/>
<line x1="5080.308106" y1="2100.509086" x2="5202.794286" y2="2051.021455" stroke="black" stroke-width="6.48"/>
<line x1="5184.235962" y1="2043.14391" x2="5174.774662" y2="2012.115182" stroke="black" stroke-width="6.48"/>
<line x1="5087.30445" y1="2082.30678" x2="5073.437174" y2="2053.058184" stroke="black" stroke-width="6.48"/>
<circle cx="5055.833477" cy="1862.337931" r="191.98080000000002" fill="none" stroke="black" stroke-width="6.48"/>
<line x1="3315.610922" y1="1075.014022" x2="3524.976126" y2="1075.014022" stroke="black" stroke-width="6.48"/>
<line x1="3524.976126" y1="1075.014022" x2="3524.976126" y2="743.799618" stroke="black" stroke-width="6.48"/>
<line x1="3524.976126" y1="743.799618" x2="3315.610922" y2="743.799618" stroke="black" stroke-width="6.48"/>
<line x1="3315.610922" y1="743.799618" x2="3315.610922" y2="1075.014022" stroke="black" stroke-width="6.48"/>
<line x1="3314.937722" y1="803.041218" x2="3525.649322" y2="803.041218" stroke="black" stroke-width="6.48"/>
<line x1="3525.649322" y1="803.041218" x2="3316.284122" y2="852.858022" stroke="black" stroke-width="6.48"/>
<line x1="3316.284122" y1="852.858022" x2="3347.924526" y2="899.308822" stroke="black" stroke-width="6.48"/>
<line x1="3347.924526" y1="899.308822" x2="3525.649322" y2="802.368022" stroke="black" stroke-width="6.48"/>
<line x1="3225.710189" y1="1203.88018" x2="3447.987354" y2="1203.88018" stroke="black" stroke-width="6.48"/>
<line x1="3447.987354" y1="1203.88018" x2="3447.987354" y2="1426.612831" stroke="black" stroke-width="6.48"/>
<line x1="3447.987354" y1="1426.612831" x2="3225.710189" y2="1426.612831" stroke="black" stroke-width="6.48"/>
<line x1="3225.710189" y1="1426.612831" x2="3225.710189" y2="1203.88018" stroke="black" stroke-width="6.48"/>
<line x1="3225.254702" y1="1203.424693" x2="3447.987354" y2="1426.612831" stroke="black" stroke-width="6.48"/>
<line x1="3225.710189" y1="1426.157345" x2="3447.531868" y2="1203.88018" stroke="black" stroke-width="6.48"/>
<line x1="2804.16708" y1="1127.69402" x2="2804.16708" y2="1153.148746" stroke="black" stroke-width="6.48"/>
<line x1="2804.16708" y1="1153.148746" x2="2853.834836" y2="1153.148746" stroke="black" stroke-width="6.48"/>
<line x1="2853.834836" y1="1153.148746" x2="2853.834836" y2="1127.69402" stroke="black" stroke-width="6.48"/>
<line x1="2853.834836" y1="1127.69402" x2="2804.16708" y2="1127.69402" stroke="black" stroke-width="6.48"/>
<line x1="2853.834836" y1="1402.108373" x2="3101.55277" y2="1402.108373" stroke="black" stroke-width="6.48"/>
<line x1="2802.925386" y1="1402.729218" x2="2802.925386" y2="1428.183943" stroke="black" stroke-width="6.48"/>
<line x1="2802.925386" y1="1428.183943" x2="2852.593142" y2="1428.183943" stroke="black" stroke-width="6.48"/>
<line x1="2852.593142" y1="1428.183943" x2="2852.593142" y2="1402.729218" stroke="black" stroke-width="6.48"/>
<line x1="2852.593142" y1="1402.729218" x2="2802.925386" y2="1402.729218" stroke="black" stroke-width="6.48"/>
<path d="m 2851.972294,1153.148746 a 248.95962699999984,248.95962699999984 0 0 1 248.95962699999973,248.95962699999995" fill="none" stroke="black" stroke-width="6.48"/>
<line x1="2971.179709" y1="2028.526999" x2="2899.974564" y2="2204.766137" stroke="black" stroke-width="6.48"/>
<line x1="2899.974564" y1="2204.766137" x2="3329.99806" y2="2378.506687" stroke="black" stroke-width="6.48"/>
<line x1="3329.99806" y1="2378.506687" x2="3401.203205" y2="2202.26755" stroke="black" stroke-width="6.48"/>
<line x1="3401.203205" y1="2202.26755" x2="3379.173314" y2="2193.366906" stroke="black" stroke-width="6.48"/>
<line x1="3379.173314" y1="2193.366906" x2="3316.512787" y2="2348.45735" stroke="black" stroke-width="6.48"/>
<line x1="3316.512787" y1="2348.45735" x2="2931.43027" y2="2192.874109" stroke="black" stroke-width="6.48"/>
<line x1="2931.43027" y1="2192.874109" x2="2994.090797" y2="2037.783668" stroke="black" stroke-width="6.48"/>
<line x1="2994.090797" y1="2037.783668" x2="2971.179709" y2="2028.526999" stroke="black" stroke-width="6.48"/>
<line x1="2991.954643" y1="2043.070841" x2="3377.037161" y2="2198.654082" stroke="black" stroke-width="6.48"/>
<line x1="3184.411327" y1="2119.803253" x2="3123.886957" y2="2269.606522" stroke="black" stroke-width="6.48"/>
<line x1="3627.43146" y1="1944.750442" x2="3404.517178" y2="1880.8308" stroke="black" stroke-width="6.48"/>
<line x1="3404.517178" y1="1880.8308" x2="3468.567802" y2="1657.459728" stroke="black" stroke-width="6.48"/>
<line x1="3468.567802" y1="1657.459728" x2="3691.482084" y2="1721.379373" stroke="black" stroke-width="6.48"/>
<line x1="3691.482084" y1="1721.379373" x2="3627.43146" y2="1944.750442" stroke="black" stroke-width="6.48"/>
<line x1="3627.757267" y1="1945.338217" x2="3468.567802" y2="1657.459728" stroke="black" stroke-width="6.48"/>
<line x1="3691.351102" y1="1721.836163" x2="3404.973971" y2="1880.961786" stroke="black" stroke-width="6.48"/>
<line x1="3089.601562" y1="1589.315879" x2="3074.626764" y2="1616.331136" stroke="black" stroke-width="6.48"/>
<line x1="3074.626764" y1="1616.331136" x2="3257.914867" y2="1717.929389" stroke="black" stroke-width="6.48"/>
<line x1="3257.914867" y1="1717.929389" x2="3272.889668" y2="1690.914139" stroke="black" stroke-width="6.48"/>
<line x1="3272.889668" y1="1690.914139" x2="3089.601562" y2="1589.315879" stroke="black" stroke-width="6.48"/>
<line x1="2990.767882" y1="1767.616553" x2="2975.793084" y2="1794.63181" stroke="black" stroke-width="6.48"/>
<line x1="2975.793084" y1="1794.63181" x2="3159.081187" y2="1896.230063" stroke="black" stroke-width="6.48"/>
<line x1="3159.081187" y1="1896.230063" x2="3174.055988" y2="1869.21481" stroke="black" stroke-width="6.48"/>
<line x1="3174.055988" y1="1869.21481" x2="2990.767882" y2="1767.616553" stroke="black" stroke-width="6.48"/>
<line x1="3074.857146" y1="1615.915516" x2="2990.767882" y2="1767.616553" stroke="black" stroke-width="6.48"/>
<line x1="3257.544391" y1="1716.637388" x2="3267.502088" y2="1752.583054" stroke="black" stroke-width="6.48"/>
<line x1="3208.754794" y1="1858.56597" x2="3172.99437" y2="1869.169666" stroke="black" stroke-width="6.48"/>
<line x1="3268.423613" y1="1750.920577" x2="3207.833273" y2="1860.22845" stroke="black" stroke-width="6.48"/>
<line x1="3113.694976" y1="1637.987" x2="3029.605718" y2="1789.688038" stroke="black" stroke-width="6.48"/>
<line x1="1320.822846" y1="1725.918858" x2="1209.096587" y2="1879.696782" stroke="black" stroke-width="6.48"/>
<line x1="1209.096587" y1="1879.696782" x2="1584.314719" y2="2152.308852" stroke="black" stroke-width="6.48"/>
<line x1="1584.314719" y1="2152.308852" x2="1696.040978" y2="1998.530932" stroke="black" stroke-width="6.48"/>
<line x1="1696.040978" y1="1998.530932" x2="1676.818735" y2="1984.565149" stroke="black" stroke-width="6.48"/>
<line x1="1676.818735" y1="1984.565149" x2="1578.499628" y2="2119.889718" stroke="black" stroke-width="6.48"/>
<line x1="1578.499628" y1="2119.889718" x2="1242.494867" y2="1875.767843" stroke="black" stroke-width="6.48"/>
<line x1="1242.494867" y1="1875.767843" x2="1340.813974" y2="1740.443274" stroke="black" stroke-width="6.48"/>
<line x1="1340.813974" y1="1740.443274" x2="1320.822846" y2="1725.918858" stroke="black" stroke-width="6.48"/>
<line x1="1337.462186" y1="1745.056613" x2="1673.466948" y2="1989.178488" stroke="black" stroke-width="6.48"/>
<line x1="1505.638753" y1="1866.069342" x2="1410.671434" y2="1996.780579" stroke="black" stroke-width="6.48"/>
<line x1="2289.823157" y1="2042.415133" x2="2520.450392" y2="2066.655089" stroke="black" stroke-width="6.48"/>
<line x1="2520.450392" y1="2066.655089" x2="2496.160764" y2="2297.754922" stroke="black" stroke-width="6.48"/>
<line x1="2496.160764" y1="2297.754922" x2="2265.533528" y2="2273.514962" stroke="black" stroke-width="6.48"/>
<line x1="2265.533528" y1="2273.514962" x2="2289.823157" y2="2042.415133" stroke="black" stroke-width="6.48"/>
<line x1="2289.400232" y1="2041.892863" x2="2496.160764" y2="2297.754922" stroke="black" stroke-width="6.48"/>
<line x1="2265.583201" y1="2273.042365" x2="2519.977795" y2="2066.605416" stroke="black" stroke-width="6.48"/>
<line x1="6254.789609" y1="1813.665917" x2="6066.559451" y2="1840.119941" stroke="black" stroke-width="6.48"/>
<line x1="6066.559451" y1="1840.119941" x2="6131.107267" y2="2299.401518" stroke="black" stroke-width="6.48"/>
<line x1="6131.107267" y1="2299.401518" x2="6319.337422" y2="2272.947494" stroke="black" stroke-width="6.48"/>
<line x1="6319.337422" y1="2272.947494" x2="6316.03067" y2="2249.418726" stroke="black" stroke-width="6.48"/>
<line x1="6316.03067" y1="2249.418726" x2="6150.388133" y2="2272.698263" stroke="black" stroke-width="6.48"/>
<line x1="6150.388133" y1="2272.698263" x2="6092.586094" y2="1861.415377" stroke="black" stroke-width="6.48"/>
<line x1="6092.586094" y1="1861.415377" x2="6258.228631" y2="1838.13584" stroke="black" stroke-width="6.48"/>
<line x1="6258.228631" y1="1838.13584" x2="6254.789609" y2="1813.665917" stroke="black" stroke-width="6.48"/>
<line x1="6252.581725" y1="1838.92946" x2="6310.383768" y2="2250.212346" stroke="black" stroke-width="6.48"/>
<line x1="6282.357761" y1="2043.968058" x2="6122.362129" y2="2066.453975" stroke="black" stroke-width="6.48"/>
</g>
</svg>
