<?xml version="1.0"?>
<svg xmlns:xlink="http://www.w3.org/1999/xlink" width="6775.2" height="2858.4">
<image x="0" y="0" width="6775.2" height="2858.4" xlink:href="groundfilled-01.png"/>
<g style="stroke-linecap:round">
<line x1="1285.950406" y1="795.178109" x2="1311.346069" y2="795.178109" stroke="black" stroke-width="6.48"/>
<line x1="1311.346069" y1="795.178109" x2="1311.346069" y2="745.625592" stroke="black" stroke-width="6.48"/>
<line x1="1311.346069" y1="745.625592" x2="1285.950406" y2="745.625592" stroke="black" stroke-width="6.48"/>
<line x1="1285.950406" y1="745.625592" x2="1285.950406" y2="795.178109" stroke="black" stroke-width="6.48"/>
<line x1="1559.728062" y1="745.625592" x2="1559.728062" y2="498.48241" stroke="black" stroke-width="6.48"/>
<line x1="1560.347471" y1="796.416923" x2="1585.743134" y2="796.416923" stroke="black" stroke-width="6.48"/>
<line x1="1585.743134" y1="796.416923" x2="1585.743134" y2="746.864406" stroke="black" stroke-width="6.48"/>
<line x1="1585.743134" y1="746.864406" x2="1560.347471" y2="746.864406" stroke="black" stroke-width="6.48"/>
<line x1="1560.347471" y1="746.864406" x2="1560.347471" y2="796.416923" stroke="black" stroke-width="6.48"/>
<path d="m 1311.346069,747.483811 a 248.38199299999997,248.38199299999997 0 0 1 248.38199299999997,-248.38199299999997" fill="none" stroke="black" stroke-width="6.48"/>
<line x1="320.532556" y1="771.34176" x2="320.532556" y2="366.736194" stroke="black" stroke-width="6.48"/>
<line x1="320.532556" y1="366.736194" x2="258.159283" y2="366.736194" stroke="black" stroke-width="6.48"/>
<line x1="258.159283" y1="366.736194" x2="258.159283" y2="771.34176" stroke="black" stroke-width="6.48"/>
<line x1="258.159283" y1="771.34176" x2="320.532556" y2="771.34176" stroke="black" stroke-width="6.48"/>
<line x1="258.979986" y1="733.589518" x2="319.711856" y2="733.589518" stroke="black" stroke-width="6.48"/>
<line x1="258.979986" y1="405.309139" x2="322.173958" y2="405.309139" stroke="black" stroke-width="6.48"/>
<line x1="287.704519" y1="734.410217" x2="287.704519" y2="406.129838" stroke="black" stroke-width="6.48"/>
<line x1="3901.945176" y1="1169.331426" x2="3901.945176" y2="1428.837066" stroke="black" stroke-width="6.48"/>
<line x1="3901.945176" y1="1428.837066" x2="3941.9501" y2="1428.837066" stroke="black" stroke-width="6.48"/>
<line x1="3941.9501" y1="1428.837066" x2="3941.9501" y2="1169.331426" stroke="black" stroke-width="6.48"/>
<line x1="3941.9501" y1="1169.331426" x2="3901.945176" y2="1169.331426" stroke="black" stroke-width="6.48"/>
<line x1="3941.423719" y1="1193.544936" x2="3902.471557" y2="1193.544936" stroke="black" stroke-width="6.48"/>
<line x1="3941.423719" y1="1404.097178" x2="3900.892414" y2="1404.097178" stroke="black" stroke-width="6.48"/>
<line x1="3923.000399" y1="1193.018555" x2="3923.000399" y2="1403.570797" stroke="black" stroke-width="6.48"/>
<line x1="323.923298" y1="1882.957399" x2="323.923298" y2="1457.423957" stroke="black" stroke-width="6.48"/>
<line x1="323.923298" y1="1457.423957" x2="258.323825" y2="1457.423957" stroke="black" stroke-width="6.48"/>
<line x1="258.323825" y1="1457.423957" x2="258.323825" y2="1882.957399" stroke="black" stroke-width="6.48"/>
<line x1="258.323825" y1="1882.957399" x2="323.923298" y2="1882.957399" stroke="black" stroke-width="6.48"/>
<line x1="259.186975" y1="1843.252456" x2="323.060148" y2="1843.252456" stroke="black" stroke-width="6.48"/>
<line x1="259.186975" y1="1497.992054" x2="325.649603" y2="1497.992054" stroke="black" stroke-width="6.48"/>
<line x1="289.397261" y1="1844.115606" x2="289.397261" y2="1498.855205" stroke="black" stroke-width="6.48"/>
<line x1="2747.905531" y1="904.670665" x2="2721.68303" y2="904.670665" stroke="black" stroke-width="6.48"/>
<line x1="2721.68303" y1="904.670665" x2="2721.68303" y2="955.836522" stroke="black" stroke-width="6.48"/>
<line x1="2721.68303" y1="955.836522" x2="2747.905531" y2="955.836522" stroke="black" stroke-width="6.48"/>
<line x1="2747.905531" y1="955.836522" x2="2747.905531" y2="904.670665" stroke="black" stroke-width="6.48"/>
<line x1="2465.214181" y1="955.836522" x2="2465.214181" y2="1211.026223" stroke="black" stroke-width="6.48"/>
<line x1="2464.574609" y1="903.39152" x2="2438.352108" y2="903.39152" stroke="black" stroke-width="6.48"/>
<line x1="2438.352108" y1="903.39152" x2="2438.352108" y2="954.557374" stroke="black" stroke-width="6.48"/>
<line x1="2438.352108" y1="954.557374" x2="2464.574609" y2="954.557374" stroke="black" stroke-width="6.48"/>
<line x1="2464.574609" y1="954.557374" x2="2464.574609" y2="903.39152" stroke="black" stroke-width="6.48"/>
<path d="m 2721.68303,953.917801 a 256.4688490000001,256.4688490000001 0 0 1 -256.4688490000003,256.46884899999986" fill="none" stroke="black" stroke-width="6.48"/>
<line x1="2420.532389" y1="1427.858834" x2="2395.136725" y2="1427.858834" stroke="black" stroke-width="6.48"/>
<line x1="2395.136725" y1="1427.858834" x2="2395.136725" y2="1477.411351" stroke="black" stroke-width="6.48"/>
<line x1="2395.136725" y1="1477.411351" x2="2420.532389" y2="1477.411351" stroke="black" stroke-width="6.48"/>
<line x1="2420.532389" y1="1477.411351" x2="2420.532389" y2="1427.858834" stroke="black" stroke-width="6.48"/>
<line x1="2146.754732" y1="1477.411351" x2="2146.754732" y2="1724.554534" stroke="black" stroke-width="6.48"/>
<line x1="2146.135324" y1="1426.62002" x2="2120.73966" y2="1426.62002" stroke="black" stroke-width="6.48"/>
<line x1="2120.73966" y1="1426.62002" x2="2120.73966" y2="1476.172537" stroke="black" stroke-width="6.48"/>
<line x1="2120.73966" y1="1476.172537" x2="2146.135324" y2="1476.172537" stroke="black" stroke-width="6.48"/>
<line x1="2146.135324" y1="1476.172537" x2="2146.135324" y2="1426.62002" stroke="black" stroke-width="6.48"/>
<path d="m 2395.136725,1475.553132 a 248.38199299999997,248.38199299999997 0 0 1 -248.38199299999997,248.38199299999997" fill="none" stroke="black" stroke-width="6.48"/>
<line x1="747.506995" y1="692.136151" x2="1140.338995" y2="692.136151" stroke="black" stroke-width="6.48"/>
<line x1="1140.338995" y1="692.136151" x2="1140.338995" y2="507.600151" stroke="black" stroke-width="6.48"/>
<line x1="1140.338995" y1="507.600151" x2="747.506995" y2="507.600151" stroke="black" stroke-width="6.48"/>
<line x1="747.506995" y1="507.600151" x2="747.506995" y2="692.136151" stroke="black" stroke-width="6.48"/>
<line x1="906.698995" y1="507.600151" x2="906.698995" y2="426.816151" stroke="black" stroke-width="6.48"/>
<line x1="906.698995" y1="426.816151" x2="828.290995" y2="426.816151" stroke="black" stroke-width="6.48"/>
<line x1="828.290995" y1="426.816151" x2="828.290995" y2="507.600151" stroke="black" stroke-width="6.48"/>
<line x1="829.082995" y1="444.240151" x2="906.698995" y2="444.240151" stroke="black" stroke-width="6.48"/>
<line x1="828.290995" y1="773.712151" x2="906.698995" y2="773.712151" stroke="black" stroke-width="6.48"/>
<line x1="906.698995" y1="773.712151" x2="906.698995" y2="692.136151" stroke="black" stroke-width="6.48"/>
<line x1="828.290995" y1="692.136151" x2="828.290995" y2="773.712151" stroke="black" stroke-width="6.48"/>
<line x1="829.082995" y1="756.288151" x2="906.698995" y2="756.288151" stroke="black" stroke-width="6.48"/>
<line x1="1057.970995" y1="507.600151" x2="1057.970995" y2="426.816151" stroke="black" stroke-width="6.48"/>
<line x1="1057.970995" y1="426.816151" x2="979.562995" y2="426.816151" stroke="black" stroke-width="6.48"/>
<line x1="979.562995" y1="426.816151" x2="979.562995" y2="507.600151" stroke="black" stroke-width="6.48"/>
<line x1="979.562995" y1="444.240151" x2="1057.970995" y2="444.240151" stroke="black" stroke-width="6.48"/>
<line x1="979.562995" y1="773.712151" x2="1057.970995" y2="773.712151" stroke="black" stroke-width="6.48"/>
<line x1="1057.970995" y1="773.712151" x2="1057.970995" y2="692.136151" stroke="black" stroke-width="6.48"/>
<line x1="979.562995" y1="692.136151" x2="979.562995" y2="773.712151" stroke="black" stroke-width="6.48"/>
<line x1="979.562995" y1="756.288151" x2="1057.970995" y2="756.288151" stroke="black" stroke-width="6.48"/>
<line x1="1842.844367" y1="1987.832815" x2="2032.924367" y2="1987.832815" stroke="black" stroke-width="6.48"/>
<line x1="2032.924367" y1="1987.832815" x2="2032.924367" y2="1524.037615" stroke="black" stroke-width="6.48"/>
<line x1="2032.924367" y1="1524.037615" x2="1842.844367" y2="1524.037615" stroke="black" stroke-width="6.48"/>
<line x1="1842.844367" y1="1524.037615" x2="1842.844367" y2="1547.797615" stroke="black" stroke-width="6.48"/>
<line x1="1842.844367" y1="1547.797615" x2="2010.114767" y2="1547.797615" stroke="black" stroke-width="6.48"/>
<line x1="2010.114767" y1="1547.797615" x2="2010.114767" y2="1963.122415" stroke="black" stroke-width="6.48"/>
<line x1="2010.114767" y1="1963.122415" x2="1842.844367" y2="1963.122415" stroke="black" stroke-width="6.48"/>
<line x1="1842.844367" y1="1963.122415" x2="1842.844367" y2="1987.832815" stroke="black" stroke-width="6.48"/>
<line x1="1848.546767" y1="1963.122415" x2="1848.546767" y2="1547.797615" stroke="black" stroke-width="6.48"/>
<line x1="1847.596367" y1="1755.935215" x2="2009.164367" y2="1755.935215" stroke="black" stroke-width="6.48"/>
<line x1="1485.415969" y1="209.267824" x2="1707.693134" y2="209.267824" stroke="black" stroke-width="6.48"/>
<line x1="1707.693134" y1="209.267824" x2="1707.693134" y2="432.000475" stroke="black" stroke-width="6.48"/>
<line x1="1707.693134" y1="432.000475" x2="1485.415969" y2="432.000475" stroke="black" stroke-width="6.48"/>
<line x1="1485.415969" y1="432.000475" x2="1485.415969" y2="209.267824" stroke="black" stroke-width="6.48"/>
<line x1="1484.960483" y1="208.812337" x2="1707.693134" y2="432.000475" stroke="black" stroke-width="6.48"/>
<line x1="1485.415969" y1="431.544989" x2="1707.237648" y2="209.267824" stroke="black" stroke-width="6.48"/>
<line x1="2586.780558" y1="1803.366338" x2="2586.780558" y2="2194.614338" stroke="black" stroke-width="6.48"/>
<line x1="2586.780558" y1="2194.614338" x2="2761.020558" y2="2194.614338" stroke="black" stroke-width="6.48"/>
<line x1="2761.020558" y1="2194.614338" x2="2761.020558" y2="1803.366338" stroke="black" stroke-width="6.48"/>
<line x1="2761.020558" y1="1803.366338" x2="2586.780558" y2="1803.366338" stroke="black" stroke-width="6.48"/>
<line x1="2734.092558" y1="2119.374338" x2="2734.092558" y2="1835.046338" stroke="black" stroke-width="6.48"/>
<line x1="2734.092558" y1="1835.046338" x2="2616.084558" y2="1835.046338" stroke="black" stroke-width="6.48"/>
<line x1="2616.084558" y1="1835.046338" x2="2616.084558" y2="2124.918338" stroke="black" stroke-width="6.48"/>
<path d="m 2734.347982,2118.563766 a 63.35999941905905,63.35999941905905 0 0 1 -119.37432999999965,4.2938139999996565" fill="none" stroke="black" stroke-width="6.48"/>
<line x1="2105.689997" y1="1891.580256" x2="2105.689997" y2="2075.324256" stroke="black" stroke-width="6.48"/>
<line x1="2105.689997" y1="2075.324256" x2="2056.585997" y2="2075.324256" stroke="black" stroke-width="6.48"/>
<line x1="2056.585997" y1="1891.580256" x2="2056.585997" y2="2075.324256" stroke="black" stroke-width="6.48"/>
<line x1="2105.689997" y1="1891.580256" x2="2056.585997" y2="1891.580256" stroke="black" stroke-width="6.48"/>
<line x1="2133.409997" y1="1933.160256" x2="2105.689997" y2="1933.160256" stroke="black" stroke-width="6.48"/>
<line x1="2105.689997" y1="2032.160256" x2="2134.993997" y2="2032.160256" stroke="black" stroke-width="6.48"/>
<circle cx="2178.553997" cy="1981.868256" r="66.52800000000002" fill="none" stroke="black" stroke-width="6.48"/>
<circle cx="2178.553997" cy="1981.868256" r="57.02400000000001" fill="none" stroke="black" stroke-width="6.48"/>
<line x1="519.343117" y1="209.02081" x2="789.890317" y2="209.02081" stroke="black" stroke-width="6.48"/>
<line x1="789.890317" y1="209.02081" x2="789.890317" y2="340.96801" stroke="black" stroke-width="6.48"/>
<line x1="519.343117" y1="340.96801" x2="789.890317" y2="340.96801" stroke="black" stroke-width="6.48"/>
<line x1="519.343117" y1="209.02081" x2="519.343117" y2="340.96801" stroke="black" stroke-width="6.48"/>
<line x1="525.995917" y1="215.67361" x2="664.041517" y2="215.67361" stroke="black" stroke-width="6.48"/>
<line x1="664.041517" y1="215.67361" x2="664.041517" y2="333.76081" stroke="black" stroke-width="6.48"/>
<line x1="525.995917" y1="333.76081" x2="664.041517" y2="333.76081" stroke="black" stroke-width="6.48"/>
<line x1="525.995917" y1="215.67361" x2="525.995917" y2="333.76081" stroke="black" stroke-width="6.48"/>
<line x1="678.455917" y1="223.43521" x2="775.475917" y2="223.43521" stroke="black" stroke-width="6.48"/>
<line x1="678.455917" y1="243.94801" x2="775.475917" y2="243.94801" stroke="black" stroke-width="6.48"/>
<line x1="679.010317" y1="265.01521" x2="776.030317" y2="265.01521" stroke="black" stroke-width="6.48"/>
<line x1="679.010317" y1="285.52801" x2="776.030317" y2="285.52801" stroke="black" stroke-width="6.48"/>
<line x1="678.455917" y1="306.04081" x2="775.475917" y2="306.04081" stroke="black" stroke-width="6.48"/>
<line x1="678.455917" y1="326.55361" x2="775.475917" y2="326.55361" stroke="black" stroke-width="6.48"/>
<line x1="578.663917" y1="333.76081" x2="578.663917" y2="319.90081" stroke="black" stroke-width="6.48"/>
<line x1="578.663917" y1="319.90081" x2="613.036717" y2="319.90081" stroke="black" stroke-width="6.48"/>
<line x1="613.036717" y1="319.90081" x2="613.036717" y2="333.20641" stroke="black" stroke-width="6.48"/>
<circle cx="648.518317" cy="230.64241" r="8.316000000000003" fill="none" stroke="black" stroke-width="6.48"/>
<line x1="1307.625739" y1="1197.080406" x2="1377.631044" y2="1309.112309" stroke="black" stroke-width="6.48"/>
<line x1="1377.631044" y1="1309.112309" x2="1365.541272" y2="1316.666837" stroke="black" stroke-width="6.48"/>
<line x1="1295.535967" y1="1204.634934" x2="1365.541272" y2="1316.666837" stroke="black" stroke-width="6.48"/>
<line x1="1307.625739" y1="1197.080406" x2="1295.535967" y2="1204.634934" stroke="black" stroke-width="6.48"/>
<line x1="1302.586862" y1="1215.918724" x2="1274.982091" y2="1230.926717" stroke="black" stroke-width="6.48"/>
<line x1="1358.490377" y1="1305.383047" x2="1332.094162" y2="1324.118617" stroke="black" stroke-width="6.48"/>
<line x1="916.723062" y1="1441.343509" x2="986.72836" y2="1553.375416" stroke="black" stroke-width="6.48"/>
<line x1="986.72836" y1="1553.375416" x2="998.012149" y2="1546.32452" stroke="black" stroke-width="6.48"/>
<line x1="928.006848" y1="1434.292614" x2="998.012149" y2="1546.32452" stroke="black" stroke-width="6.48"/>
<line x1="916.723062" y1="1441.343509" x2="928.006848" y2="1434.292614" stroke="black" stroke-width="6.48"/>
<line x1="936.166079" y1="1443.763148" x2="961.756308" y2="1425.531218" stroke="black" stroke-width="6.48"/>
<line x1="992.069593" y1="1533.227476" x2="1020.983983" y2="1518.521832" stroke="black" stroke-width="6.48"/>
<line x1="1324.82092" y1="1534.870616" x2="1317.266392" y2="1522.780841" stroke="black" stroke-width="6.48"/>
<line x1="1317.266392" y1="1522.780841" x2="1205.234489" y2="1592.786142" stroke="black" stroke-width="6.48"/>
<line x1="1212.78902" y1="1604.875918" x2="1205.234489" y2="1592.786142" stroke="black" stroke-width="6.48"/>
<line x1="1324.82092" y1="1534.870616" x2="1212.78902" y2="1604.875918" stroke="black" stroke-width="6.48"/>
<line x1="1217.324261" y1="1585.231614" x2="1197.782712" y2="1559.339032" stroke="black" stroke-width="6.48"/>
<line x1="1305.982602" y1="1529.831732" x2="1290.470972" y2="1501.420975" stroke="black" stroke-width="6.48"/>
<line x1="1081.867435" y1="1144.270282" x2="1089.421963" y2="1156.360054" stroke="black" stroke-width="6.48"/>
<line x1="1089.421963" y1="1156.360054" x2="977.390064" y2="1226.365358" stroke="black" stroke-width="6.48"/>
<line x1="969.835532" y1="1214.275586" x2="977.390064" y2="1226.365358" stroke="black" stroke-width="6.48"/>
<line x1="1081.867435" y1="1144.270282" x2="969.835532" y2="1214.275586" stroke="black" stroke-width="6.48"/>
<line x1="989.479836" y1="1218.81083" x2="1004.185483" y2="1247.725224" stroke="black" stroke-width="6.48"/>
<line x1="1078.138177" y1="1163.410949" x2="1096.873744" y2="1189.807164" stroke="black" stroke-width="6.48"/>
<circle cx="1147.328226" cy="1374.5731" r="191.98080000000002" fill="none" stroke="black" stroke-width="6.48"/>
<line x1="2044.889399" y1="955.822399" x2="2267.166564" y2="955.822399" stroke="black" stroke-width="6.48"/>
<line x1="2267.166564" y1="955.822399" x2="2267.166564" y2="1178.555051" stroke="black" stroke-width="6.48"/>
<line x1="2267.166564" y1="1178.555051" x2="2044.889399" y2="1178.555051" stroke="black" stroke-width="6.48"/>
<line x1="2044.889399" y1="1178.555051" x2="2044.889399" y2="955.822399" stroke="black" stroke-width="6.48"/>
<line x1="2044.433912" y1="955.366913" x2="2267.166564" y2="1178.555051" stroke="black" stroke-width="6.48"/>
<line x1="2044.889399" y1="1178.099564" x2="2266.711078" y2="955.822399" stroke="black" stroke-width="6.48"/>
<line x1="333.766206" y1="1375.361078" x2="333.766206" y2="949.854546" stroke="black" stroke-width="6.48"/>
<line x1="333.766206" y1="949.854546" x2="257.659348" y2="949.854546" stroke="black" stroke-width="6.48"/>
<line x1="257.659348" y1="949.854546" x2="257.659348" y2="1375.361078" stroke="black" stroke-width="6.48"/>
<line x1="257.659348" y1="1375.361078" x2="333.766206" y2="1375.361078" stroke="black" stroke-width="6.48"/>
<line x1="333.766206" y1="1355.469512" x2="359.711726" y2="1355.469512" stroke="black" stroke-width="6.48"/>
<line x1="359.711726" y1="1355.469512" x2="359.711726" y2="970.610962" stroke="black" stroke-width="6.48"/>
<line x1="333.766206" y1="970.610962" x2="359.711726" y2="970.610962" stroke="black" stroke-width="6.48"/>
<line x1="3874.406537" y1="1514.726719" x2="3874.406537" y2="1940.260162" stroke="black" stroke-width="6.48"/>
<line x1="3874.406537" y1="1940.260162" x2="3940.00601" y2="1940.260162" stroke="black" stroke-width="6.48"/>
<line x1="3940.00601" y1="1940.260162" x2="3940.00601" y2="1514.726719" stroke="black" stroke-width="6.48"/>
<line x1="3940.00601" y1="1514.726719" x2="3874.406537" y2="1514.726719" stroke="black" stroke-width="6.48"/>
<line x1="3939.14286" y1="1554.431663" x2="3875.269687" y2="1554.431663" stroke="black" stroke-width="6.48"/>
<line x1="3939.14286" y1="1899.692064" x2="3872.680232" y2="1899.692064" stroke="black" stroke-width="6.48"/>
<line x1="3908.932574" y1="1553.568512" x2="3908.932574" y2="1898.828914" stroke="black" stroke-width="6.48"/>
<line x1="4929.015103" y1="1925.591951" x2="5010.347434" y2="1821.491316" stroke="black" stroke-width="6.48"/>
<line x1="5010.347434" y1="1821.491316" x2="5021.581316" y2="1830.268184" stroke="black" stroke-width="6.48"/>
<line x1="4940.248986" y1="1934.368819" x2="5021.581316" y2="1830.268184" stroke="black" stroke-width="6.48"/>
<line x1="4929.015103" y1="1925.591951" x2="4940.248986" y2="1934.368819" stroke="black" stroke-width="6.48"/>
<line x1="4948.440732" y1="1923.883862" x2="4971.98502" y2="1944.690829" stroke="black" stroke-width="6.48"/>
<line x1="5013.389567" y1="1840.753145" x2="5040.023285" y2="1859.14953" stroke="black" stroke-width="6.48"/>
<line x1="5292.243932" y1="2209.377416" x2="5373.576263" y2="2105.276782" stroke="black" stroke-width="6.48"/>
<line x1="5373.576263" y1="2105.276782" x2="5363.091306" y2="2097.085032" stroke="black" stroke-width="6.48"/>
<line x1="5281.758979" y1="2201.185667" x2="5363.091306" y2="2097.085032" stroke="black" stroke-width="6.48"/>
<line x1="5292.243932" y1="2209.377416" x2="5281.758979" y2="2201.185667" stroke="black" stroke-width="6.48"/>
<line x1="5287.867747" y1="2190.279388" x2="5261.982959" y2="2172.468125" stroke="black" stroke-width="6.48"/>
<line x1="5352.816586" y1="2107.14867" x2="5329.108498" y2="2085.007651" stroke="black" stroke-width="6.48"/>
<line x1="5240.552972" y1="1793.902712" x2="5231.776104" y2="1805.136592" stroke="black" stroke-width="6.48"/>
<line x1="5231.776104" y1="1805.136592" x2="5335.876739" y2="1886.468922" stroke="black" stroke-width="6.48"/>
<line x1="5344.653607" y1="1875.235043" x2="5335.876739" y2="1886.468922" stroke="black" stroke-width="6.48"/>
<line x1="5240.552972" y1="1793.902712" x2="5344.653607" y2="1875.235043" stroke="black" stroke-width="6.48"/>
<line x1="5324.642856" y1="1877.692054" x2="5306.995393" y2="1904.91089" stroke="black" stroke-width="6.48"/>
<line x1="5242.261057" y1="1813.328338" x2="5220.868968" y2="1837.621552" stroke="black" stroke-width="6.48"/>
<line x1="4956.60371" y1="2155.79749" x2="4965.380579" y2="2144.563607" stroke="black" stroke-width="6.48"/>
<line x1="4965.380579" y1="2144.563607" x2="5069.481214" y2="2225.895937" stroke="black" stroke-width="6.48"/>
<line x1="5060.704345" y1="2237.12982" x2="5069.481214" y2="2225.895937" stroke="black" stroke-width="6.48"/>
<line x1="4956.60371" y1="2155.79749" x2="5060.704345" y2="2237.12982" stroke="black" stroke-width="6.48"/>
<line x1="5058.247331" y1="2217.119069" x2="5080.388346" y2="2193.410977" stroke="black" stroke-width="6.48"/>
<line x1="4975.865536" y1="2152.755356" x2="4994.261924" y2="2126.121642" stroke="black" stroke-width="6.48"/>
<circle cx="5150.628659" cy="2015.516264" r="191.98080000000002" fill="none" stroke="black" stroke-width="6.48"/>
<line x1="3060.523012" y1="1074.172147" x2="3269.888215" y2="1074.172147" stroke="black" stroke-width="6.48"/>
<line x1="3269.888215" y1="1074.172147" x2="3269.888215" y2="742.957744" stroke="black" stroke-width="6.48"/>
<line x1="3269.888215" y1="742.957744" x2="3060.523012" y2="742.957744" stroke="black" stroke-width="6.48"/>
<line x1="3060.523012" y1="742.957744" x2="3060.523012" y2="1074.172147" stroke="black" stroke-width="6.48"/>
<line x1="3059.849812" y1="802.199344" x2="3270.561412" y2="802.199344" stroke="black" stroke-width="6.48"/>
<line x1="3270.561412" y1="802.199344" x2="3061.196212" y2="852.016147" stroke="black" stroke-width="6.48"/>
<line x1="3061.196212" y1="852.016147" x2="3092.836615" y2="898.466947" stroke="black" stroke-width="6.48"/>
<line x1="3092.836615" y1="898.466947" x2="3270.561412" y2="801.526147" stroke="black" stroke-width="6.48"/>
<line x1="3375.776286" y1="1203.272626" x2="3598.053451" y2="1203.272626" stroke="black" stroke-width="6.48"/>
<line x1="3598.053451" y1="1203.272626" x2="3598.053451" y2="1426.005277" stroke="black" stroke-width="6.48"/>
<line x1="3598.053451" y1="1426.005277" x2="3375.776286" y2="1426.005277" stroke="black" stroke-width="6.48"/>
<line x1="3375.776286" y1="1426.005277" x2="3375.776286" y2="1203.272626" stroke="black" stroke-width="6.48"/>
<line x1="3375.3208" y1="1202.817139" x2="3598.053451" y2="1426.005277" stroke="black" stroke-width="6.48"/>
<line x1="3375.776286" y1="1425.549791" x2="3597.597965" y2="1203.272626" stroke="black" stroke-width="6.48"/>
<line x1="2804.16708" y1="1127.69402" x2="2804.16708" y2="1153.148746" stroke="black" stroke-width="6.48"/>
<line x1="2804.16708" y1="1153.148746" x2="2853.834836" y2="1153.148746" stroke="black" stroke-width="6.48"/>
<line x1="2853.834836" y1="1153.148746" x2="2853.834836" y2="1127.69402" stroke="black" stroke-width="6.48"/>
<line x1="2853.834836" y1="1127.69402" x2="2804.16708" y2="1127.69402" stroke="black" stroke-width="6.48"/>
<line x1="2853.834836" y1="1402.108373" x2="3101.55277" y2="1402.108373" stroke="black" stroke-width="6.48"/>
<line x1="2802.925386" y1="1402.729218" x2="2802.925386" y2="1428.183943" stroke="black" stroke-width="6.48"/>
<line x1="2802.925386" y1="1428.183943" x2="2852.593142" y2="1428.183943" stroke="black" stroke-width="6.48"/>
<line x1="2852.593142" y1="1428.183943" x2="2852.593142" y2="1402.729218" stroke="black" stroke-width="6.48"/>
<line x1="2852.593142" y1="1402.729218" x2="2802.925386" y2="1402.729218" stroke="black" stroke-width="6.48"/>
<path d="m 2851.972294,1153.148746 a 248.95962699999984,248.95962699999984 0 0 1 248.95962699999973,248.95962699999995" fill="none" stroke="black" stroke-width="6.48"/>
<line x1="3585.087781" y1="1641.826807" x2="3707.974789" y2="1838.487125" stroke="black" stroke-width="6.48"/>
<line x1="3707.974789" y1="1838.487125" x2="3510.911473" y2="1961.625949" stroke="black" stroke-width="6.48"/>
<line x1="3510.911473" y1="1961.625949" x2="3388.024469" y2="1764.965628" stroke="black" stroke-width="6.48"/>
<line x1="3388.024469" y1="1764.965628" x2="3585.087781" y2="1641.826807" stroke="black" stroke-width="6.48"/>
<line x1="3585.238956" y1="1641.171996" x2="3510.911473" y2="1961.625949" stroke="black" stroke-width="6.48"/>
<line x1="3388.427464" y1="1764.713812" x2="3707.722966" y2="1838.084134" stroke="black" stroke-width="6.48"/>
<line x1="3100.358268" y1="1589.315879" x2="3083.535454" y2="1615.220741" stroke="black" stroke-width="6.48"/>
<line x1="3083.535454" y1="1615.220741" x2="3259.289945" y2="1729.357034" stroke="black" stroke-width="6.48"/>
<line x1="3259.289945" y1="1729.357034" x2="3276.112752" y2="1703.45218" stroke="black" stroke-width="6.48"/>
<line x1="3276.112752" y1="1703.45218" x2="3100.358268" y2="1589.315879" stroke="black" stroke-width="6.48"/>
<line x1="2989.327716" y1="1760.287936" x2="2972.504909" y2="1786.19279" stroke="black" stroke-width="6.48"/>
<line x1="2972.504909" y1="1786.19279" x2="3148.259393" y2="1900.329088" stroke="black" stroke-width="6.48"/>
<line x1="3148.259393" y1="1900.329088" x2="3165.082207" y2="1874.424233" stroke="black" stroke-width="6.48"/>
<line x1="3165.082207" y1="1874.424233" x2="2989.327716" y2="1760.287936" stroke="black" stroke-width="6.48"/>
<line x1="3083.794268" y1="1614.822199" x2="2989.327716" y2="1760.287936" stroke="black" stroke-width="6.48"/>
<line x1="3259.010495" y1="1728.04234" x2="3266.436492" y2="1764.595055" stroke="black" stroke-width="6.48"/>
<line x1="3200.439312" y1="1866.221798" x2="3164.02632" y2="1874.305145" stroke="black" stroke-width="6.48"/>
<line x1="3267.47174" y1="1763.00091" x2="3199.40406" y2="1867.815943" stroke="black" stroke-width="6.48"/>
<line x1="3120.997864" y1="1639.549109" x2="3026.531315" y2="1785.014842" stroke="black" stroke-width="6.48"/>
<line x1="5759.354473" y1="1651.836848" x2="5837.680213" y2="1845.699869" stroke="black" stroke-width="6.48"/>
<line x1="5837.680213" y1="1845.699869" x2="6052.691927" y2="1758.829493" stroke="black" stroke-width="6.48"/>
<line x1="6052.691927" y1="1758.829493" x2="5974.366183" y2="1564.96648" stroke="black" stroke-width="6.48"/>
<line x1="5974.366183" y1="1564.96648" x2="5759.354473" y2="1651.836848" stroke="black" stroke-width="6.48"/>
<line x1="5789.315124" y1="1639.73196" x2="5867.640868" y2="1833.59498" stroke="black" stroke-width="6.48"/>
<line x1="6118.542086" y1="2056.816123" x2="6128.087008" y2="2086.192357" stroke="black" stroke-width="6.48"/>
<line x1="6128.087008" y1="2086.192357" x2="6327.393451" y2="2021.433768" stroke="black" stroke-width="6.48"/>
<line x1="6327.393451" y1="2021.433768" x2="6317.848537" y2="1992.057534" stroke="black" stroke-width="6.48"/>
<line x1="6317.848537" y1="1992.057534" x2="6118.542086" y2="2056.816123" stroke="black" stroke-width="6.48"/>
<line x1="6181.53854" y1="2250.699268" x2="6191.083454" y2="2280.075502" stroke="black" stroke-width="6.48"/>
<line x1="6191.083454" y1="2280.075502" x2="6390.389902" y2="2215.316909" stroke="black" stroke-width="6.48"/>
<line x1="6390.389902" y1="2215.316909" x2="6380.844988" y2="2185.940675" stroke="black" stroke-width="6.48"/>
<line x1="6380.844988" y1="2185.940675" x2="6181.53854" y2="2250.699268" stroke="black" stroke-width="6.48"/>
<line x1="6127.94016" y1="2085.740413" x2="6181.53854" y2="2250.699268" stroke="black" stroke-width="6.48"/>
<line x1="6326.195879" y1="2020.823572" x2="6359.276005" y2="2038.055861" stroke="black" stroke-width="6.48"/>
<line x1="6396.721448" y1="2153.301084" x2="6380.087947" y2="2186.686307" stroke="black" stroke-width="6.48"/>
<line x1="6358.688626" y1="2036.248092" x2="6397.308828" y2="2155.108853" stroke="black" stroke-width="6.48"/>
<line x1="6170.56956" y1="2072.388938" x2="6224.167937" y2="2237.347789" stroke="black" stroke-width="6.48"/>
<line x1="1442.815254" y1="1632.133235" x2="1262.038417" y2="1690.871141" stroke="black" stroke-width="6.48"/>
<line x1="1262.038417" y1="1690.871141" x2="1405.35891" y2="2131.96662" stroke="black" stroke-width="6.48"/>
<line x1="1405.35891" y1="2131.96662" x2="1586.135747" y2="2073.228718" stroke="black" stroke-width="6.48"/>
<line x1="1586.135747" y1="2073.228718" x2="1578.793507" y2="2050.631611" stroke="black" stroke-width="6.48"/>
<line x1="1578.793507" y1="2050.631611" x2="1419.709892" y2="2102.320969" stroke="black" stroke-width="6.48"/>
<line x1="1419.709892" y1="2102.320969" x2="1291.367567" y2="1707.32358" stroke="black" stroke-width="6.48"/>
<line x1="1291.367567" y1="1707.32358" x2="1450.451182" y2="1655.634222" stroke="black" stroke-width="6.48"/>
<line x1="1450.451182" y1="1655.634222" x2="1442.815254" y2="1632.133235" stroke="black" stroke-width="6.48"/>
<line x1="1445.027879" y1="1657.396364" x2="1573.370201" y2="2052.393746" stroke="black" stroke-width="6.48"/>
<line x1="1509.956078" y1="1854.149425" x2="1356.295766" y2="1904.076641" stroke="black" stroke-width="6.48"/>
<line x1="3840.070216" y1="1109.27808" x2="3832.075814" y2="1079.442565" stroke="black" stroke-width="6.48"/>
<line x1="3832.075814" y1="1079.442565" x2="3629.653304" y2="1133.681512" stroke="black" stroke-width="6.48"/>
<line x1="3629.653304" y1="1133.681512" x2="3637.647706" y2="1163.517026" stroke="black" stroke-width="6.48"/>
<line x1="3637.647706" y1="1163.517026" x2="3840.070216" y2="1109.27808" stroke="black" stroke-width="6.48"/>
<line x1="3787.307158" y1="912.363671" x2="3779.312753" y2="882.528149" stroke="black" stroke-width="6.48"/>
<line x1="3779.312753" y1="882.528149" x2="3576.890246" y2="936.767099" stroke="black" stroke-width="6.48"/>
<line x1="3576.890246" y1="936.767099" x2="3584.884651" y2="966.602617" stroke="black" stroke-width="6.48"/>
<line x1="3584.884651" y1="966.602617" x2="3787.307158" y2="912.363671" stroke="black" stroke-width="6.48"/>
<line x1="3832.198805" y1="1079.901572" x2="3787.307158" y2="912.363671" stroke="black" stroke-width="6.48"/>
<line x1="3630.817303" y1="1134.353542" x2="3598.68438" y2="1115.413596" stroke="black" stroke-width="6.48"/>
<line x1="3567.32172" y1="998.366566" x2="3585.679675" y2="965.897626" stroke="black" stroke-width="6.48"/>
<line x1="3599.176342" y1="1117.249625" x2="3566.829758" y2="996.530533" stroke="black" stroke-width="6.48"/>
<line x1="3788.929062" y1="1091.003699" x2="3744.037418" y2="923.465797" stroke="black" stroke-width="6.48"/>
<line x1="2300.311706" y1="2044.035317" x2="2530.938942" y2="2068.275272" stroke="black" stroke-width="6.48"/>
<line x1="2530.938942" y1="2068.275272" x2="2506.649314" y2="2299.375105" stroke="black" stroke-width="6.48"/>
<line x1="2506.649314" y1="2299.375105" x2="2276.022078" y2="2275.135146" stroke="black" stroke-width="6.48"/>
<line x1="2276.022078" y1="2275.135146" x2="2300.311706" y2="2044.035317" stroke="black" stroke-width="6.48"/>
<line x1="2299.888782" y1="2043.513047" x2="2506.649314" y2="2299.375105" stroke="black" stroke-width="6.48"/>
<line x1="2276.071751" y1="2274.662549" x2="2530.466345" y2="2068.2256" stroke="black" stroke-width="6.48"/>
</g>
</svg>
