<?xml version="1.0"?>
<svg xmlns:xlink="http://www.w3.org/1999/xlink" width="6775.2" height="2858.4">
<image x="0" y="0" width="6775.2" height="2858.4" xlink:href="groundfilled-01.png"/>
<g style="stroke-linecap:round">
<line x1="1285.950406" y1="795.178109" x2="1311.346069" y2="795.178109" stroke="black" stroke-width="6.48"/>
<line x1="1311.346069" y1="795.178109" x2="1311.346069" y2="745.625592" stroke="black" stroke-width="6.48"/>
<line x1="1311.346069" y1="745.625592" x2="1285.950406" y2="745.625592" stroke="black" stroke-width="6.48"/>
<line x1="1285.950406" y1="745.625592" x2="1285.950406" y2="795.178109" stroke="black" stroke-width="6.48"/>
<line x1="1559.728062" y1="745.625592" x2="1559.728062" y2="498.48241" stroke="black" stroke-width="6.48"/>
<line x1="1560.347471" y1="796.416923" x2="1585.743134" y2="796.416923" stroke="black" stroke-width="6.48"/>
<line x1="1585.743134" y1="796.416923" x2="1585.743134" y2="746.864406" stroke="black" stroke-width="6.48"/>
<line x1="1585.743134" y1="746.864406" x2="1560.347471" y2="746.864406" stroke="black" stroke-width="6.48"/>
<line x1="1560.347471" y1="746.864406" x2="1560.347471" y2="796.416923" stroke="black" stroke-width="6.48"/>
<path d="m 1311.346069,747.483811 a 248.38199299999997,248.38199299999997 0 0 1 248.38199299999997,-248.38199299999997" fill="none" stroke="black" stroke-width="6.48"/>
<line x1="330.523178" y1="771.328966" x2="330.523178" y2="366.748985" stroke="black" stroke-width="6.48"/>
<line x1="330.523178" y1="366.748985" x2="258.15928" y2="366.748985" stroke="black" stroke-width="6.48"/>
<line x1="258.15928" y1="366.748985" x2="258.15928" y2="771.328966" stroke="black" stroke-width="6.48"/>
<line x1="258.15928" y1="771.328966" x2="330.523178" y2="771.328966" stroke="black" stroke-width="6.48"/>
<line x1="330.523178" y1="752.415674" x2="355.19269" y2="752.415674" stroke="black" stroke-width="6.48"/>
<line x1="355.19269" y1="752.415674" x2="355.19269" y2="386.484595" stroke="black" stroke-width="6.48"/>
<line x1="330.523178" y1="386.484595" x2="355.19269" y2="386.484595" stroke="black" stroke-width="6.48"/>
<line x1="3901.945176" y1="1169.331426" x2="3901.945176" y2="1428.837066" stroke="black" stroke-width="6.48"/>
<line x1="3901.945176" y1="1428.837066" x2="3941.9501" y2="1428.837066" stroke="black" stroke-width="6.48"/>
<line x1="3941.9501" y1="1428.837066" x2="3941.9501" y2="1169.331426" stroke="black" stroke-width="6.48"/>
<line x1="3941.9501" y1="1169.331426" x2="3901.945176" y2="1169.331426" stroke="black" stroke-width="6.48"/>
<line x1="3941.423719" y1="1193.544936" x2="3902.471557" y2="1193.544936" stroke="black" stroke-width="6.48"/>
<line x1="3941.423719" y1="1404.097178" x2="3900.892414" y2="1404.097178" stroke="black" stroke-width="6.48"/>
<line x1="3923.000399" y1="1193.018555" x2="3923.000399" y2="1403.570797" stroke="black" stroke-width="6.48"/>
<line x1="323.923298" y1="1882.957399" x2="323.923298" y2="1457.423957" stroke="black" stroke-width="6.48"/>
<line x1="323.923298" y1="1457.423957" x2="258.323825" y2="1457.423957" stroke="black" stroke-width="6.48"/>
<line x1="258.323825" y1="1457.423957" x2="258.323825" y2="1882.957399" stroke="black" stroke-width="6.48"/>
<line x1="258.323825" y1="1882.957399" x2="323.923298" y2="1882.957399" stroke="black" stroke-width="6.48"/>
<line x1="259.186975" y1="1843.252456" x2="323.060148" y2="1843.252456" stroke="black" stroke-width="6.48"/>
<line x1="259.186975" y1="1497.992054" x2="325.649603" y2="1497.992054" stroke="black" stroke-width="6.48"/>
<line x1="289.397261" y1="1844.115606" x2="289.397261" y2="1498.855205" stroke="black" stroke-width="6.48"/>
<line x1="2747.905531" y1="904.670665" x2="2721.68303" y2="904.670665" stroke="black" stroke-width="6.48"/>
<line x1="2721.68303" y1="904.670665" x2="2721.68303" y2="955.836522" stroke="black" stroke-width="6.48"/>
<line x1="2721.68303" y1="955.836522" x2="2747.905531" y2="955.836522" stroke="black" stroke-width="6.48"/>
<line x1="2747.905531" y1="955.836522" x2="2747.905531" y2="904.670665" stroke="black" stroke-width="6.48"/>
<line x1="2465.214181" y1="955.836522" x2="2465.214181" y2="1211.026223" stroke="black" stroke-width="6.48"/>
<line x1="2464.574609" y1="903.39152" x2="2438.352108" y2="903.39152" stroke="black" stroke-width="6.48"/>
<line x1="2438.352108" y1="903.39152" x2="2438.352108" y2="954.557374" stroke="black" stroke-width="6.48"/>
<line x1="2438.352108" y1="954.557374" x2="2464.574609" y2="954.557374" stroke="black" stroke-width="6.48"/>
<line x1="2464.574609" y1="954.557374" x2="2464.574609" y2="903.39152" stroke="black" stroke-width="6.48"/>
<path d="m 2721.68303,953.917801 a 256.4688490000001,256.4688490000001 0 0 1 -256.4688490000003,256.46884899999986" fill="none" stroke="black" stroke-width="6.48"/>
<line x1="2420.532389" y1="1427.858834" x2="2395.136725" y2="1427.858834" stroke="black" stroke-width="6.48"/>
<line x1="2395.136725" y1="1427.858834" x2="2395.136725" y2="1477.411351" stroke="black" stroke-width="6.48"/>
<line x1="2395.136725" y1="1477.411351" x2="2420.532389" y2="1477.411351" stroke="black" stroke-width="6.48"/>
<line x1="2420.532389" y1="1477.411351" x2="2420.532389" y2="1427.858834" stroke="black" stroke-width="6.48"/>
<line x1="2146.754732" y1="1477.411351" x2="2146.754732" y2="1724.554534" stroke="black" stroke-width="6.48"/>
<line x1="2146.135324" y1="1426.62002" x2="2120.73966" y2="1426.62002" stroke="black" stroke-width="6.48"/>
<line x1="2120.73966" y1="1426.62002" x2="2120.73966" y2="1476.172537" stroke="black" stroke-width="6.48"/>
<line x1="2120.73966" y1="1476.172537" x2="2146.135324" y2="1476.172537" stroke="black" stroke-width="6.48"/>
<line x1="2146.135324" y1="1476.172537" x2="2146.135324" y2="1426.62002" stroke="black" stroke-width="6.48"/>
<path d="m 2395.136725,1475.553132 a 248.38199299999997,248.38199299999997 0 0 1 -248.38199299999997,248.38199299999997" fill="none" stroke="black" stroke-width="6.48"/>
<line x1="484.899199" y1="541.339351" x2="716.796799" y2="541.339351" stroke="black" stroke-width="6.48"/>
<line x1="716.796799" y1="541.339351" x2="716.796799" y2="773.712151" stroke="black" stroke-width="6.48"/>
<line x1="716.796799" y1="773.712151" x2="484.899199" y2="773.712151" stroke="black" stroke-width="6.48"/>
<line x1="484.899199" y1="773.712151" x2="484.899199" y2="541.339351" stroke="black" stroke-width="6.48"/>
<line x1="484.423999" y1="540.864151" x2="716.796799" y2="773.712151" stroke="black" stroke-width="6.48"/>
<line x1="484.899199" y1="773.236951" x2="716.321599" y2="541.339351" stroke="black" stroke-width="6.48"/>
<line x1="2032.924367" y1="1947.981622" x2="2032.924367" y2="1917.093622" stroke="black" stroke-width="6.48"/>
<line x1="2032.924367" y1="1917.093622" x2="1823.361167" y2="1917.093622" stroke="black" stroke-width="6.48"/>
<line x1="1823.361167" y1="1917.093622" x2="1823.361167" y2="1947.981622" stroke="black" stroke-width="6.48"/>
<line x1="1823.361167" y1="1947.981622" x2="2032.924367" y2="1947.981622" stroke="black" stroke-width="6.48"/>
<line x1="2032.924367" y1="1744.120822" x2="2032.924367" y2="1713.232822" stroke="black" stroke-width="6.48"/>
<line x1="2032.924367" y1="1713.232822" x2="1823.361167" y2="1713.232822" stroke="black" stroke-width="6.48"/>
<line x1="1823.361167" y1="1713.232822" x2="1823.361167" y2="1744.120822" stroke="black" stroke-width="6.48"/>
<line x1="1823.361167" y1="1744.120822" x2="2032.924367" y2="1744.120822" stroke="black" stroke-width="6.48"/>
<line x1="2032.924367" y1="1917.568822" x2="2032.924367" y2="1744.120822" stroke="black" stroke-width="6.48"/>
<line x1="1824.311567" y1="1918.044022" x2="1798.175567" y2="1891.432822" stroke="black" stroke-width="6.48"/>
<line x1="1798.175567" y1="1770.256822" x2="1824.311567" y2="1743.645622" stroke="black" stroke-width="6.48"/>
<line x1="1798.175567" y1="1893.333622" x2="1798.175567" y2="1768.356022" stroke="black" stroke-width="6.48"/>
<line x1="1988.255567" y1="1917.093622" x2="1988.255567" y2="1743.645622" stroke="black" stroke-width="6.48"/>
<line x1="1485.415969" y1="209.267824" x2="1707.693134" y2="209.267824" stroke="black" stroke-width="6.48"/>
<line x1="1707.693134" y1="209.267824" x2="1707.693134" y2="432.000475" stroke="black" stroke-width="6.48"/>
<line x1="1707.693134" y1="432.000475" x2="1485.415969" y2="432.000475" stroke="black" stroke-width="6.48"/>
<line x1="1485.415969" y1="432.000475" x2="1485.415969" y2="209.267824" stroke="black" stroke-width="6.48"/>
<line x1="1484.960483" y1="208.812337" x2="1707.693134" y2="432.000475" stroke="black" stroke-width="6.48"/>
<line x1="1485.415969" y1="431.544989" x2="1707.237648" y2="209.267824" stroke="black" stroke-width="6.48"/>
<line x1="2586.780558" y1="1803.366338" x2="2586.780558" y2="2194.614338" stroke="black" stroke-width="6.48"/>
<line x1="2586.780558" y1="2194.614338" x2="2761.020558" y2="2194.614338" stroke="black" stroke-width="6.48"/>
<line x1="2761.020558" y1="2194.614338" x2="2761.020558" y2="1803.366338" stroke="black" stroke-width="6.48"/>
<line x1="2761.020558" y1="1803.366338" x2="2586.780558" y2="1803.366338" stroke="black" stroke-width="6.48"/>
<line x1="2734.092558" y1="2119.374338" x2="2734.092558" y2="1835.046338" stroke="black" stroke-width="6.48"/>
<line x1="2734.092558" y1="1835.046338" x2="2616.084558" y2="1835.046338" stroke="black" stroke-width="6.48"/>
<line x1="2616.084558" y1="1835.046338" x2="2616.084558" y2="2124.918338" stroke="black" stroke-width="6.48"/>
<path d="m 2734.347982,2118.563766 a 63.35999941905905,63.35999941905905 0 0 1 -119.37432999999965,4.2938139999996565" fill="none" stroke="black" stroke-width="6.48"/>
<line x1="2105.685331" y1="1890.992513" x2="2105.685331" y2="2074.736513" stroke="black" stroke-width="6.48"/>
<line x1="2105.685331" y1="2074.736513" x2="2056.581331" y2="2074.736513" stroke="black" stroke-width="6.48"/>
<line x1="2056.581331" y1="1890.992513" x2="2056.581331" y2="2074.736513" stroke="black" stroke-width="6.48"/>
<line x1="2105.685331" y1="1890.992513" x2="2056.581331" y2="1890.992513" stroke="black" stroke-width="6.48"/>
<line x1="2133.405331" y1="1932.572513" x2="2105.685331" y2="1932.572513" stroke="black" stroke-width="6.48"/>
<line x1="2105.685331" y1="2031.572513" x2="2134.989331" y2="2031.572513" stroke="black" stroke-width="6.48"/>
<circle cx="2178.549331" cy="1981.280513" r="66.52800000000002" fill="none" stroke="black" stroke-width="6.48"/>
<circle cx="2178.549331" cy="1981.280513" r="57.02400000000001" fill="none" stroke="black" stroke-width="6.48"/>
<line x1="446.179007" y1="208.841926" x2="716.726207" y2="208.841926" stroke="black" stroke-width="6.48"/>
<line x1="716.726207" y1="208.841926" x2="716.726207" y2="340.789126" stroke="black" stroke-width="6.48"/>
<line x1="446.179007" y1="340.789126" x2="716.726207" y2="340.789126" stroke="black" stroke-width="6.48"/>
<line x1="446.179007" y1="208.841926" x2="446.179007" y2="340.789126" stroke="black" stroke-width="6.48"/>
<line x1="452.831807" y1="215.494726" x2="590.877407" y2="215.494726" stroke="black" stroke-width="6.48"/>
<line x1="590.877407" y1="215.494726" x2="590.877407" y2="333.581926" stroke="black" stroke-width="6.48"/>
<line x1="452.831807" y1="333.581926" x2="590.877407" y2="333.581926" stroke="black" stroke-width="6.48"/>
<line x1="452.831807" y1="215.494726" x2="452.831807" y2="333.581926" stroke="black" stroke-width="6.48"/>
<line x1="605.291807" y1="223.256326" x2="702.311807" y2="223.256326" stroke="black" stroke-width="6.48"/>
<line x1="605.291807" y1="243.769126" x2="702.311807" y2="243.769126" stroke="black" stroke-width="6.48"/>
<line x1="605.846207" y1="264.836326" x2="702.866207" y2="264.836326" stroke="black" stroke-width="6.48"/>
<line x1="605.846207" y1="285.349126" x2="702.866207" y2="285.349126" stroke="black" stroke-width="6.48"/>
<line x1="605.291807" y1="305.861926" x2="702.311807" y2="305.861926" stroke="black" stroke-width="6.48"/>
<line x1="605.291807" y1="326.374726" x2="702.311807" y2="326.374726" stroke="black" stroke-width="6.48"/>
<line x1="505.499807" y1="333.581926" x2="505.499807" y2="319.721926" stroke="black" stroke-width="6.48"/>
<line x1="505.499807" y1="319.721926" x2="539.872607" y2="319.721926" stroke="black" stroke-width="6.48"/>
<line x1="539.872607" y1="319.721926" x2="539.872607" y2="333.027526" stroke="black" stroke-width="6.48"/>
<circle cx="575.354207" cy="230.463526" r="8.316000000000003" fill="none" stroke="black" stroke-width="6.48"/>
<line x1="2044.889399" y1="955.822399" x2="2267.166564" y2="955.822399" stroke="black" stroke-width="6.48"/>
<line x1="2267.166564" y1="955.822399" x2="2267.166564" y2="1178.555051" stroke="black" stroke-width="6.48"/>
<line x1="2267.166564" y1="1178.555051" x2="2044.889399" y2="1178.555051" stroke="black" stroke-width="6.48"/>
<line x1="2044.889399" y1="1178.555051" x2="2044.889399" y2="955.822399" stroke="black" stroke-width="6.48"/>
<line x1="2044.433912" y1="955.366913" x2="2267.166564" y2="1178.555051" stroke="black" stroke-width="6.48"/>
<line x1="2044.889399" y1="1178.099564" x2="2266.711078" y2="955.822399" stroke="black" stroke-width="6.48"/>
<line x1="323.258818" y1="1375.374532" x2="323.258818" y2="949.841089" stroke="black" stroke-width="6.48"/>
<line x1="323.258818" y1="949.841089" x2="257.659344" y2="949.841089" stroke="black" stroke-width="6.48"/>
<line x1="257.659344" y1="949.841089" x2="257.659344" y2="1375.374532" stroke="black" stroke-width="6.48"/>
<line x1="257.659344" y1="1375.374532" x2="323.258818" y2="1375.374532" stroke="black" stroke-width="6.48"/>
<line x1="258.522494" y1="1335.669588" x2="322.395667" y2="1335.669588" stroke="black" stroke-width="6.48"/>
<line x1="258.522494" y1="990.409187" x2="324.985122" y2="990.409187" stroke="black" stroke-width="6.48"/>
<line x1="288.73278" y1="1336.532738" x2="288.73278" y2="991.272337" stroke="black" stroke-width="6.48"/>
<line x1="3874.406537" y1="1514.726719" x2="3874.406537" y2="1940.260162" stroke="black" stroke-width="6.48"/>
<line x1="3874.406537" y1="1940.260162" x2="3940.00601" y2="1940.260162" stroke="black" stroke-width="6.48"/>
<line x1="3940.00601" y1="1940.260162" x2="3940.00601" y2="1514.726719" stroke="black" stroke-width="6.48"/>
<line x1="3940.00601" y1="1514.726719" x2="3874.406537" y2="1514.726719" stroke="black" stroke-width="6.48"/>
<line x1="3939.14286" y1="1554.431663" x2="3875.269687" y2="1554.431663" stroke="black" stroke-width="6.48"/>
<line x1="3939.14286" y1="1899.692064" x2="3872.680232" y2="1899.692064" stroke="black" stroke-width="6.48"/>
<line x1="3908.932574" y1="1553.568512" x2="3908.932574" y2="1898.828914" stroke="black" stroke-width="6.48"/>
<line x1="5011.587522" y1="1712.038295" x2="5142.969432" y2="1698.229501" stroke="black" stroke-width="6.48"/>
<line x1="5142.969432" y1="1698.229501" x2="5144.459591" y2="1712.407406" stroke="black" stroke-width="6.48"/>
<line x1="5013.077681" y1="1726.2162" x2="5144.459591" y2="1712.407406" stroke="black" stroke-width="6.48"/>
<line x1="5011.587522" y1="1712.038295" x2="5013.077681" y2="1726.2162" stroke="black" stroke-width="6.48"/>
<line x1="5026.310392" y1="1724.825383" x2="5027.69835" y2="1756.215464" stroke="black" stroke-width="6.48"/>
<line x1="5131.22688" y1="1713.798216" x2="5136.494962" y2="1745.736113" stroke="black" stroke-width="6.48"/>
<line x1="5059.769292" y1="2170.457197" x2="5191.151202" y2="2156.6484" stroke="black" stroke-width="6.48"/>
<line x1="5191.151202" y1="2156.6484" x2="5189.760385" y2="2143.415689" stroke="black" stroke-width="6.48"/>
<line x1="5058.378475" y1="2157.224483" x2="5189.760385" y2="2143.415689" stroke="black" stroke-width="6.48"/>
<line x1="5059.769292" y1="2170.457197" x2="5058.378475" y2="2157.224483" stroke="black" stroke-width="6.48"/>
<line x1="5070.467308" y1="2154.042626" x2="5065.298572" y2="2123.049924" stroke="black" stroke-width="6.48"/>
<line x1="5175.383796" y1="2143.015463" x2="5174.841683" y2="2110.580849" stroke="black" stroke-width="6.48"/>
<line x1="5322.729222" y1="1844.660851" x2="5308.551317" y2="1846.151006" stroke="black" stroke-width="6.48"/>
<line x1="5308.551317" y1="1846.151006" x2="5322.36011" y2="1977.532924" stroke="black" stroke-width="6.48"/>
<line x1="5336.538016" y1="1976.042761" x2="5322.36011" y2="1977.532924" stroke="black" stroke-width="6.48"/>
<line x1="5322.729222" y1="1844.660851" x2="5336.538016" y2="1976.042761" stroke="black" stroke-width="6.48"/>
<line x1="5320.869955" y1="1963.355018" x2="5289.031404" y2="1969.568291" stroke="black" stroke-width="6.48"/>
<line x1="5309.94213" y1="1859.383721" x2="5277.606858" y2="1860.871025" stroke="black" stroke-width="6.48"/>
<line x1="4865.156168" y1="1891.798081" x2="4879.334074" y2="1890.307922" stroke="black" stroke-width="6.48"/>
<line x1="4879.334074" y1="1890.307922" x2="4893.142871" y2="2021.689836" stroke="black" stroke-width="6.48"/>
<line x1="4878.964966" y1="2023.179991" x2="4893.142871" y2="2021.689836" stroke="black" stroke-width="6.48"/>
<line x1="4865.156168" y1="1891.798081" x2="4878.964966" y2="2023.179991" stroke="black" stroke-width="6.48"/>
<line x1="4891.652708" y1="2007.511931" x2="4924.087322" y2="2006.969825" stroke="black" stroke-width="6.48"/>
<line x1="4880.724887" y1="1903.540637" x2="4912.662784" y2="1898.272555" stroke="black" stroke-width="6.48"/>
<circle cx="5100.847092" cy="1933.920425" r="191.98080000000002" fill="none" stroke="black" stroke-width="6.48"/>
<line x1="3431.362932" y1="1075.396043" x2="3640.728136" y2="1075.396043" stroke="black" stroke-width="6.48"/>
<line x1="3640.728136" y1="1075.396043" x2="3640.728136" y2="744.181639" stroke="black" stroke-width="6.48"/>
<line x1="3640.728136" y1="744.181639" x2="3431.362932" y2="744.181639" stroke="black" stroke-width="6.48"/>
<line x1="3431.362932" y1="744.181639" x2="3431.362932" y2="1075.396043" stroke="black" stroke-width="6.48"/>
<line x1="3430.689732" y1="803.423239" x2="3641.401332" y2="803.423239" stroke="black" stroke-width="6.48"/>
<line x1="3641.401332" y1="803.423239" x2="3432.036132" y2="853.240043" stroke="black" stroke-width="6.48"/>
<line x1="3432.036132" y1="853.240043" x2="3463.676536" y2="899.690843" stroke="black" stroke-width="6.48"/>
<line x1="3463.676536" y1="899.690843" x2="3641.401332" y2="802.750043" stroke="black" stroke-width="6.48"/>
<line x1="3277.180368" y1="1203.671797" x2="3499.457533" y2="1203.671797" stroke="black" stroke-width="6.48"/>
<line x1="3499.457533" y1="1203.671797" x2="3499.457533" y2="1426.404449" stroke="black" stroke-width="6.48"/>
<line x1="3499.457533" y1="1426.404449" x2="3277.180368" y2="1426.404449" stroke="black" stroke-width="6.48"/>
<line x1="3277.180368" y1="1426.404449" x2="3277.180368" y2="1203.671797" stroke="black" stroke-width="6.48"/>
<line x1="3276.724882" y1="1203.216311" x2="3499.457533" y2="1426.404449" stroke="black" stroke-width="6.48"/>
<line x1="3277.180368" y1="1425.948962" x2="3499.002047" y2="1203.671797" stroke="black" stroke-width="6.48"/>
<line x1="2804.16708" y1="1127.69402" x2="2804.16708" y2="1153.148746" stroke="black" stroke-width="6.48"/>
<line x1="2804.16708" y1="1153.148746" x2="2853.834836" y2="1153.148746" stroke="black" stroke-width="6.48"/>
<line x1="2853.834836" y1="1153.148746" x2="2853.834836" y2="1127.69402" stroke="black" stroke-width="6.48"/>
<line x1="2853.834836" y1="1127.69402" x2="2804.16708" y2="1127.69402" stroke="black" stroke-width="6.48"/>
<line x1="2853.834836" y1="1402.108373" x2="3101.55277" y2="1402.108373" stroke="black" stroke-width="6.48"/>
<line x1="2802.925386" y1="1402.729218" x2="2802.925386" y2="1428.183943" stroke="black" stroke-width="6.48"/>
<line x1="2802.925386" y1="1428.183943" x2="2852.593142" y2="1428.183943" stroke="black" stroke-width="6.48"/>
<line x1="2852.593142" y1="1428.183943" x2="2852.593142" y2="1402.729218" stroke="black" stroke-width="6.48"/>
<line x1="2852.593142" y1="1402.729218" x2="2802.925386" y2="1402.729218" stroke="black" stroke-width="6.48"/>
<path d="m 2851.972294,1153.148746 a 248.95962699999984,248.95962699999984 0 0 1 248.95962699999973,248.95962699999995" fill="none" stroke="black" stroke-width="6.48"/>
<line x1="3601.280959" y1="1956.337517" x2="3392.852774" y2="1854.680303" stroke="black" stroke-width="6.48"/>
<line x1="3392.852774" y1="1854.680303" x2="3494.718306" y2="1645.82501" stroke="black" stroke-width="6.48"/>
<line x1="3494.718306" y1="1645.82501" x2="3703.146491" y2="1747.482232" stroke="black" stroke-width="6.48"/>
<line x1="3703.146491" y1="1747.482232" x2="3601.280959" y2="1956.337517" stroke="black" stroke-width="6.48"/>
<line x1="3601.499753" y1="1956.972938" x2="3494.718306" y2="1645.82501" stroke="black" stroke-width="6.48"/>
<line x1="3702.938177" y1="1747.909336" x2="3393.279886" y2="1854.888613" stroke="black" stroke-width="6.48"/>
<line x1="3066.685171" y1="1589.315879" x2="3055.615902" y2="1618.152311" stroke="black" stroke-width="6.48"/>
<line x1="3055.615902" y1="1618.152311" x2="3251.260004" y2="1693.253045" stroke="black" stroke-width="6.48"/>
<line x1="3251.260004" y1="1693.253045" x2="3262.329274" y2="1664.416613" stroke="black" stroke-width="6.48"/>
<line x1="3262.329274" y1="1664.416613" x2="3066.685171" y2="1589.315879" stroke="black" stroke-width="6.48"/>
<line x1="2993.627995" y1="1779.63633" x2="2982.558726" y2="1808.472762" stroke="black" stroke-width="6.48"/>
<line x1="2982.558726" y1="1808.472762" x2="3178.202828" y2="1883.573496" stroke="black" stroke-width="6.48"/>
<line x1="3178.202828" y1="1883.573496" x2="3189.272098" y2="1854.737068" stroke="black" stroke-width="6.48"/>
<line x1="3189.272098" y1="1854.737068" x2="2993.627995" y2="1779.63633" stroke="black" stroke-width="6.48"/>
<line x1="3055.7862" y1="1617.708672" x2="2993.627995" y2="1779.63633" stroke="black" stroke-width="6.48"/>
<line x1="3250.713323" y1="1692.025175" x2="3265.57678" y2="1726.235176" stroke="black" stroke-width="6.48"/>
<line x1="3222.151186" y1="1839.362717" x2="3188.214526" y2="1854.84011" stroke="black" stroke-width="6.48"/>
<line x1="3266.257964" y1="1724.460631" x2="3221.469997" y2="1841.137268" stroke="black" stroke-width="6.48"/>
<line x1="3097.31782" y1="1634.160175" x2="3035.159615" y2="1796.087833" stroke="black" stroke-width="6.48"/>
<line x1="1362.289032" y1="1652.946588" x2="1208.511054" y2="1764.672772" stroke="black" stroke-width="6.48"/>
<line x1="1208.511054" y1="1764.672772" x2="1481.122937" y2="2139.891034" stroke="black" stroke-width="6.48"/>
<line x1="1481.122937" y1="2139.891034" x2="1634.900915" y2="2028.164854" stroke="black" stroke-width="6.48"/>
<line x1="1634.900915" y1="2028.164854" x2="1620.935143" y2="2008.942607" stroke="black" stroke-width="6.48"/>
<line x1="1620.935143" y1="2008.942607" x2="1485.610524" y2="2107.261645" stroke="black" stroke-width="6.48"/>
<line x1="1485.610524" y1="2107.261645" x2="1241.488814" y2="1771.256765" stroke="black" stroke-width="6.48"/>
<line x1="1241.488814" y1="1771.256765" x2="1376.813434" y2="1672.937726" stroke="black" stroke-width="6.48"/>
<line x1="1376.813434" y1="1672.937726" x2="1362.289032" y2="1652.946588" stroke="black" stroke-width="6.48"/>
<line x1="1372.200095" y1="1676.289514" x2="1616.321804" y2="2012.294394" stroke="black" stroke-width="6.48"/>
<line x1="1494.750524" y1="1843.348874" x2="1364.039244" y2="1938.316133" stroke="black" stroke-width="6.48"/>
<line x1="6325.830389" y1="1835.62277" x2="6141.396578" y2="1789.638257" stroke="black" stroke-width="6.48"/>
<line x1="6141.396578" y1="1789.638257" x2="6029.194363" y2="2239.656754" stroke="black" stroke-width="6.48"/>
<line x1="6029.194363" y1="2239.656754" x2="6213.628177" y2="2285.641267" stroke="black" stroke-width="6.48"/>
<line x1="6213.628177" y1="2285.641267" x2="6219.37624" y2="2262.587044" stroke="black" stroke-width="6.48"/>
<line x1="6219.37624" y1="2262.587044" x2="6057.074488" y2="2222.120671" stroke="black" stroke-width="6.48"/>
<line x1="6057.074488" y1="2222.120671" x2="6157.55065" y2="1819.13279" stroke="black" stroke-width="6.48"/>
<line x1="6157.55065" y1="1819.13279" x2="6319.852405" y2="1859.599163" stroke="black" stroke-width="6.48"/>
<line x1="6319.852405" y1="1859.599163" x2="6325.830389" y2="1835.62277" stroke="black" stroke-width="6.48"/>
<line x1="6314.319389" y1="1858.219632" x2="6213.843223" y2="2261.207509" stroke="black" stroke-width="6.48"/>
<line x1="6265.118437" y1="2059.482406" x2="6108.349694" y2="2020.395571" stroke="black" stroke-width="6.48"/>
<line x1="985.881748" y1="211.31608" x2="1379.12562" y2="211.31608" stroke="black" stroke-width="6.48"/>
<line x1="1383.081026" y1="210.319798" x2="1383.081026" y2="346.388573" stroke="black" stroke-width="6.48"/>
<line x1="986.346137" y1="347.54008" x2="1383.386368" y2="347.54008" stroke="black" stroke-width="6.48"/>
<line x1="987.081026" y1="212.010829" x2="987.081026" y2="347.274886" stroke="black" stroke-width="6.48"/>
<line x1="997.377026" y1="222.40408" x2="1120.929026" y2="222.40408" stroke="black" stroke-width="6.48"/>
<line x1="1120.929026" y1="222.40408" x2="1120.929026" y2="336.45208" stroke="black" stroke-width="6.48"/>
<line x1="997.377026" y1="336.45208" x2="1120.929026" y2="336.45208" stroke="black" stroke-width="6.48"/>
<line x1="997.377026" y1="222.40408" x2="997.377026" y2="336.45208" stroke="black" stroke-width="6.48"/>
<line x1="1139.937026" y1="229.53208" x2="1227.057026" y2="229.53208" stroke="black" stroke-width="6.48"/>
<line x1="1139.937026" y1="249.33208" x2="1227.057026" y2="249.33208" stroke="black" stroke-width="6.48"/>
<line x1="1140.729026" y1="269.92408" x2="1227.057026" y2="269.92408" stroke="black" stroke-width="6.48"/>
<line x1="1140.729026" y1="289.72408" x2="1227.057026" y2="289.72408" stroke="black" stroke-width="6.48"/>
<line x1="1139.937026" y1="309.52408" x2="1227.057026" y2="309.52408" stroke="black" stroke-width="6.48"/>
<line x1="1139.937026" y1="329.32408" x2="1227.057026" y2="329.32408" stroke="black" stroke-width="6.48"/>
<line x1="1044.897026" y1="335.66008" x2="1044.897026" y2="322.19608" stroke="black" stroke-width="6.48"/>
<line x1="1044.897026" y1="322.19608" x2="1074.993026" y2="322.19608" stroke="black" stroke-width="6.48"/>
<line x1="1074.993026" y1="322.19608" x2="1074.993026" y2="334.86808" stroke="black" stroke-width="6.48"/>
<line x1="1247.649026" y1="222.40408" x2="1371.201026" y2="222.40408" stroke="black" stroke-width="6.48"/>
<line x1="1371.201026" y1="222.40408" x2="1371.201026" y2="336.45208" stroke="black" stroke-width="6.48"/>
<line x1="1247.649026" y1="336.45208" x2="1371.201026" y2="336.45208" stroke="black" stroke-width="6.48"/>
<line x1="1247.649026" y1="222.40408" x2="1247.649026" y2="336.45208" stroke="black" stroke-width="6.48"/>
<line x1="1295.169026" y1="336.45208" x2="1295.169026" y2="322.98808" stroke="black" stroke-width="6.48"/>
<line x1="1295.169026" y1="322.98808" x2="1325.265026" y2="322.98808" stroke="black" stroke-width="6.48"/>
<line x1="1325.265026" y1="322.98808" x2="1325.265026" y2="335.66008" stroke="black" stroke-width="6.48"/>
<circle cx="1106.673026" cy="236.66008" r="7.128000000000001" fill="none" stroke="black" stroke-width="6.48"/>
<circle cx="1356.945026" cy="237.45208" r="7.128000000000001" fill="none" stroke="black" stroke-width="6.48"/>
<line x1="5981.746633" y1="1456.593185" x2="5791.782424" y2="1463.226883" stroke="black" stroke-width="6.48"/>
<line x1="5791.782424" y1="1463.226883" x2="5807.968643" y2="1926.739555" stroke="black" stroke-width="6.48"/>
<line x1="5807.968643" y1="1926.739555" x2="5997.932852" y2="1920.105857" stroke="black" stroke-width="6.48"/>
<line x1="5997.932852" y1="1920.105857" x2="5997.103643" y2="1896.360329" stroke="black" stroke-width="6.48"/>
<line x1="5997.103643" y1="1896.360329" x2="5829.935137" y2="1902.197984" stroke="black" stroke-width="6.48"/>
<line x1="5829.935137" y1="1902.197984" x2="5815.440511" y2="1487.126189" stroke="black" stroke-width="6.48"/>
<line x1="5815.440511" y1="1487.126189" x2="5982.609013" y2="1481.288533" stroke="black" stroke-width="6.48"/>
<line x1="5982.609013" y1="1481.288533" x2="5981.746633" y2="1456.593185" stroke="black" stroke-width="6.48"/>
<line x1="5976.910087" y1="1481.487545" x2="5991.404713" y2="1896.55934" stroke="black" stroke-width="6.48"/>
<line x1="5985.090637" y1="1688.515362" x2="5823.621058" y2="1694.154006" stroke="black" stroke-width="6.48"/>
</g>
</svg>
