<?xml version="1.0"?>
<svg xmlns:xlink="http://www.w3.org/1999/xlink" width="6775.2" height="2858.4">
<image x="0" y="0" width="6775.2" height="2858.4" xlink:href="groundfilled-01.png"/>
<g style="stroke-linecap:round">
<line x1="1285.950406" y1="795.178109" x2="1311.346069" y2="795.178109" stroke="black" stroke-width="6.48"/>
<line x1="1311.346069" y1="795.178109" x2="1311.346069" y2="745.625592" stroke="black" stroke-width="6.48"/>
<line x1="1311.346069" y1="745.625592" x2="1285.950406" y2="745.625592" stroke="black" stroke-width="6.48"/>
<line x1="1285.950406" y1="745.625592" x2="1285.950406" y2="795.178109" stroke="black" stroke-width="6.48"/>
<line x1="1559.728062" y1="745.625592" x2="1559.728062" y2="498.48241" stroke="black" stroke-width="6.48"/>
<line x1="1560.347471" y1="796.416923" x2="1585.743134" y2="796.416923" stroke="black" stroke-width="6.48"/>
<line x1="1585.743134" y1="796.416923" x2="1585.743134" y2="746.864406" stroke="black" stroke-width="6.48"/>
<line x1="1585.743134" y1="746.864406" x2="1560.347471" y2="746.864406" stroke="black" stroke-width="6.48"/>
<line x1="1560.347471" y1="746.864406" x2="1560.347471" y2="796.416923" stroke="black" stroke-width="6.48"/>
<path d="m 1311.346069,747.483811 a 248.38199299999997,248.38199299999997 0 0 1 248.38199299999997,-248.38199299999997" fill="none" stroke="black" stroke-width="6.48"/>
<line x1="320.532556" y1="771.34176" x2="320.532556" y2="366.736194" stroke="black" stroke-width="6.48"/>
<line x1="320.532556" y1="366.736194" x2="258.159283" y2="366.736194" stroke="black" stroke-width="6.48"/>
<line x1="258.159283" y1="366.736194" x2="258.159283" y2="771.34176" stroke="black" stroke-width="6.48"/>
<line x1="258.159283" y1="771.34176" x2="320.532556" y2="771.34176" stroke="black" stroke-width="6.48"/>
<line x1="258.979986" y1="733.589518" x2="319.711856" y2="733.589518" stroke="black" stroke-width="6.48"/>
<line x1="258.979986" y1="405.309139" x2="322.173958" y2="405.309139" stroke="black" stroke-width="6.48"/>
<line x1="287.704519" y1="734.410217" x2="287.704519" y2="406.129838" stroke="black" stroke-width="6.48"/>
<line x1="3901.945176" y1="1169.331426" x2="3901.945176" y2="1428.837066" stroke="black" stroke-width="6.48"/>
<line x1="3901.945176" y1="1428.837066" x2="3941.9501" y2="1428.837066" stroke="black" stroke-width="6.48"/>
<line x1="3941.9501" y1="1428.837066" x2="3941.9501" y2="1169.331426" stroke="black" stroke-width="6.48"/>
<line x1="3941.9501" y1="1169.331426" x2="3901.945176" y2="1169.331426" stroke="black" stroke-width="6.48"/>
<line x1="3941.423719" y1="1193.544936" x2="3902.471557" y2="1193.544936" stroke="black" stroke-width="6.48"/>
<line x1="3941.423719" y1="1404.097178" x2="3900.892414" y2="1404.097178" stroke="black" stroke-width="6.48"/>
<line x1="3923.000399" y1="1193.018555" x2="3923.000399" y2="1403.570797" stroke="black" stroke-width="6.48"/>
<line x1="323.923298" y1="1882.957399" x2="323.923298" y2="1457.423957" stroke="black" stroke-width="6.48"/>
<line x1="323.923298" y1="1457.423957" x2="258.323825" y2="1457.423957" stroke="black" stroke-width="6.48"/>
<line x1="258.323825" y1="1457.423957" x2="258.323825" y2="1882.957399" stroke="black" stroke-width="6.48"/>
<line x1="258.323825" y1="1882.957399" x2="323.923298" y2="1882.957399" stroke="black" stroke-width="6.48"/>
<line x1="259.186975" y1="1843.252456" x2="323.060148" y2="1843.252456" stroke="black" stroke-width="6.48"/>
<line x1="259.186975" y1="1497.992054" x2="325.649603" y2="1497.992054" stroke="black" stroke-width="6.48"/>
<line x1="289.397261" y1="1844.115606" x2="289.397261" y2="1498.855205" stroke="black" stroke-width="6.48"/>
<line x1="2747.905531" y1="904.670665" x2="2721.68303" y2="904.670665" stroke="black" stroke-width="6.48"/>
<line x1="2721.68303" y1="904.670665" x2="2721.68303" y2="955.836522" stroke="black" stroke-width="6.48"/>
<line x1="2721.68303" y1="955.836522" x2="2747.905531" y2="955.836522" stroke="black" stroke-width="6.48"/>
<line x1="2747.905531" y1="955.836522" x2="2747.905531" y2="904.670665" stroke="black" stroke-width="6.48"/>
<line x1="2465.214181" y1="955.836522" x2="2465.214181" y2="1211.026223" stroke="black" stroke-width="6.48"/>
<line x1="2464.574609" y1="903.39152" x2="2438.352108" y2="903.39152" stroke="black" stroke-width="6.48"/>
<line x1="2438.352108" y1="903.39152" x2="2438.352108" y2="954.557374" stroke="black" stroke-width="6.48"/>
<line x1="2438.352108" y1="954.557374" x2="2464.574609" y2="954.557374" stroke="black" stroke-width="6.48"/>
<line x1="2464.574609" y1="954.557374" x2="2464.574609" y2="903.39152" stroke="black" stroke-width="6.48"/>
<path d="m 2721.68303,953.917801 a 256.4688490000001,256.4688490000001 0 0 1 -256.4688490000003,256.46884899999986" fill="none" stroke="black" stroke-width="6.48"/>
<line x1="2420.532389" y1="1427.858834" x2="2395.136725" y2="1427.858834" stroke="black" stroke-width="6.48"/>
<line x1="2395.136725" y1="1427.858834" x2="2395.136725" y2="1477.411351" stroke="black" stroke-width="6.48"/>
<line x1="2395.136725" y1="1477.411351" x2="2420.532389" y2="1477.411351" stroke="black" stroke-width="6.48"/>
<line x1="2420.532389" y1="1477.411351" x2="2420.532389" y2="1427.858834" stroke="black" stroke-width="6.48"/>
<line x1="2146.754732" y1="1477.411351" x2="2146.754732" y2="1724.554534" stroke="black" stroke-width="6.48"/>
<line x1="2146.135324" y1="1426.62002" x2="2120.73966" y2="1426.62002" stroke="black" stroke-width="6.48"/>
<line x1="2120.73966" y1="1426.62002" x2="2120.73966" y2="1476.172537" stroke="black" stroke-width="6.48"/>
<line x1="2120.73966" y1="1476.172537" x2="2146.135324" y2="1476.172537" stroke="black" stroke-width="6.48"/>
<line x1="2146.135324" y1="1476.172537" x2="2146.135324" y2="1426.62002" stroke="black" stroke-width="6.48"/>
<path d="m 2395.136725,1475.553132 a 248.38199299999997,248.38199299999997 0 0 1 -248.38199299999997,248.38199299999997" fill="none" stroke="black" stroke-width="6.48"/>
<line x1="788.937642" y1="541.339351" x2="1020.835242" y2="541.339351" stroke="black" stroke-width="6.48"/>
<line x1="1020.835242" y1="541.339351" x2="1020.835242" y2="773.712151" stroke="black" stroke-width="6.48"/>
<line x1="1020.835242" y1="773.712151" x2="788.937642" y2="773.712151" stroke="black" stroke-width="6.48"/>
<line x1="788.937642" y1="773.712151" x2="788.937642" y2="541.339351" stroke="black" stroke-width="6.48"/>
<line x1="788.462442" y1="540.864151" x2="1020.835242" y2="773.712151" stroke="black" stroke-width="6.48"/>
<line x1="788.937642" y1="773.236951" x2="1020.360042" y2="541.339351" stroke="black" stroke-width="6.48"/>
<line x1="1842.844367" y1="1963.236989" x2="2032.924367" y2="1963.236989" stroke="black" stroke-width="6.48"/>
<line x1="2032.924367" y1="1963.236989" x2="2032.924367" y2="1499.441789" stroke="black" stroke-width="6.48"/>
<line x1="2032.924367" y1="1499.441789" x2="1842.844367" y2="1499.441789" stroke="black" stroke-width="6.48"/>
<line x1="1842.844367" y1="1499.441789" x2="1842.844367" y2="1523.201789" stroke="black" stroke-width="6.48"/>
<line x1="1842.844367" y1="1523.201789" x2="2010.114767" y2="1523.201789" stroke="black" stroke-width="6.48"/>
<line x1="2010.114767" y1="1523.201789" x2="2010.114767" y2="1938.526589" stroke="black" stroke-width="6.48"/>
<line x1="2010.114767" y1="1938.526589" x2="1842.844367" y2="1938.526589" stroke="black" stroke-width="6.48"/>
<line x1="1842.844367" y1="1938.526589" x2="1842.844367" y2="1963.236989" stroke="black" stroke-width="6.48"/>
<line x1="1848.546767" y1="1938.526589" x2="1848.546767" y2="1523.201789" stroke="black" stroke-width="6.48"/>
<line x1="1847.596367" y1="1731.339389" x2="2009.164367" y2="1731.339389" stroke="black" stroke-width="6.48"/>
<line x1="1485.415969" y1="209.267824" x2="1707.693134" y2="209.267824" stroke="black" stroke-width="6.48"/>
<line x1="1707.693134" y1="209.267824" x2="1707.693134" y2="432.000475" stroke="black" stroke-width="6.48"/>
<line x1="1707.693134" y1="432.000475" x2="1485.415969" y2="432.000475" stroke="black" stroke-width="6.48"/>
<line x1="1485.415969" y1="432.000475" x2="1485.415969" y2="209.267824" stroke="black" stroke-width="6.48"/>
<line x1="1484.960483" y1="208.812337" x2="1707.693134" y2="432.000475" stroke="black" stroke-width="6.48"/>
<line x1="1485.415969" y1="431.544989" x2="1707.237648" y2="209.267824" stroke="black" stroke-width="6.48"/>
<line x1="2586.780558" y1="1803.366338" x2="2586.780558" y2="2194.614338" stroke="black" stroke-width="6.48"/>
<line x1="2586.780558" y1="2194.614338" x2="2761.020558" y2="2194.614338" stroke="black" stroke-width="6.48"/>
<line x1="2761.020558" y1="2194.614338" x2="2761.020558" y2="1803.366338" stroke="black" stroke-width="6.48"/>
<line x1="2761.020558" y1="1803.366338" x2="2586.780558" y2="1803.366338" stroke="black" stroke-width="6.48"/>
<line x1="2734.092558" y1="2119.374338" x2="2734.092558" y2="1835.046338" stroke="black" stroke-width="6.48"/>
<line x1="2734.092558" y1="1835.046338" x2="2616.084558" y2="1835.046338" stroke="black" stroke-width="6.48"/>
<line x1="2616.084558" y1="1835.046338" x2="2616.084558" y2="2124.918338" stroke="black" stroke-width="6.48"/>
<path d="m 2734.347982,2118.563766 a 63.35999941905905,63.35999941905905 0 0 1 -119.37432999999965,4.2938139999996565" fill="none" stroke="black" stroke-width="6.48"/>
<line x1="2105.54824" y1="1873.718737" x2="2105.54824" y2="2057.462737" stroke="black" stroke-width="6.48"/>
<line x1="2105.54824" y1="2057.462737" x2="2056.44424" y2="2057.462737" stroke="black" stroke-width="6.48"/>
<line x1="2056.44424" y1="1873.718737" x2="2056.44424" y2="2057.462737" stroke="black" stroke-width="6.48"/>
<line x1="2105.54824" y1="1873.718737" x2="2056.44424" y2="1873.718737" stroke="black" stroke-width="6.48"/>
<line x1="2133.26824" y1="1915.298737" x2="2105.54824" y2="1915.298737" stroke="black" stroke-width="6.48"/>
<line x1="2105.54824" y1="2014.298737" x2="2134.85224" y2="2014.298737" stroke="black" stroke-width="6.48"/>
<circle cx="2178.41224" cy="1964.006737" r="66.52800000000002" fill="none" stroke="black" stroke-width="6.48"/>
<circle cx="2178.41224" cy="1964.006737" r="57.02400000000001" fill="none" stroke="black" stroke-width="6.48"/>
<line x1="467.678434" y1="208.894493" x2="738.225634" y2="208.894493" stroke="black" stroke-width="6.48"/>
<line x1="738.225634" y1="208.894493" x2="738.225634" y2="340.841693" stroke="black" stroke-width="6.48"/>
<line x1="467.678434" y1="340.841693" x2="738.225634" y2="340.841693" stroke="black" stroke-width="6.48"/>
<line x1="467.678434" y1="208.894493" x2="467.678434" y2="340.841693" stroke="black" stroke-width="6.48"/>
<line x1="474.331234" y1="215.547293" x2="612.376834" y2="215.547293" stroke="black" stroke-width="6.48"/>
<line x1="612.376834" y1="215.547293" x2="612.376834" y2="333.634493" stroke="black" stroke-width="6.48"/>
<line x1="474.331234" y1="333.634493" x2="612.376834" y2="333.634493" stroke="black" stroke-width="6.48"/>
<line x1="474.331234" y1="215.547293" x2="474.331234" y2="333.634493" stroke="black" stroke-width="6.48"/>
<line x1="626.791234" y1="223.308893" x2="723.811234" y2="223.308893" stroke="black" stroke-width="6.48"/>
<line x1="626.791234" y1="243.821693" x2="723.811234" y2="243.821693" stroke="black" stroke-width="6.48"/>
<line x1="627.345634" y1="264.888893" x2="724.365634" y2="264.888893" stroke="black" stroke-width="6.48"/>
<line x1="627.345634" y1="285.401693" x2="724.365634" y2="285.401693" stroke="black" stroke-width="6.48"/>
<line x1="626.791234" y1="305.914493" x2="723.811234" y2="305.914493" stroke="black" stroke-width="6.48"/>
<line x1="626.791234" y1="326.427293" x2="723.811234" y2="326.427293" stroke="black" stroke-width="6.48"/>
<line x1="526.999234" y1="333.634493" x2="526.999234" y2="319.774493" stroke="black" stroke-width="6.48"/>
<line x1="526.999234" y1="319.774493" x2="561.372034" y2="319.774493" stroke="black" stroke-width="6.48"/>
<line x1="561.372034" y1="319.774493" x2="561.372034" y2="333.080093" stroke="black" stroke-width="6.48"/>
<circle cx="596.853634" cy="230.516093" r="8.316000000000003" fill="none" stroke="black" stroke-width="6.48"/>
<line x1="2044.889399" y1="955.822399" x2="2267.166564" y2="955.822399" stroke="black" stroke-width="6.48"/>
<line x1="2267.166564" y1="955.822399" x2="2267.166564" y2="1178.555051" stroke="black" stroke-width="6.48"/>
<line x1="2267.166564" y1="1178.555051" x2="2044.889399" y2="1178.555051" stroke="black" stroke-width="6.48"/>
<line x1="2044.889399" y1="1178.555051" x2="2044.889399" y2="955.822399" stroke="black" stroke-width="6.48"/>
<line x1="2044.433912" y1="955.366913" x2="2267.166564" y2="1178.555051" stroke="black" stroke-width="6.48"/>
<line x1="2044.889399" y1="1178.099564" x2="2266.711078" y2="955.822399" stroke="black" stroke-width="6.48"/>
<line x1="323.258818" y1="1375.374532" x2="323.258818" y2="949.841089" stroke="black" stroke-width="6.48"/>
<line x1="323.258818" y1="949.841089" x2="257.659344" y2="949.841089" stroke="black" stroke-width="6.48"/>
<line x1="257.659344" y1="949.841089" x2="257.659344" y2="1375.374532" stroke="black" stroke-width="6.48"/>
<line x1="257.659344" y1="1375.374532" x2="323.258818" y2="1375.374532" stroke="black" stroke-width="6.48"/>
<line x1="258.522494" y1="1335.669588" x2="322.395667" y2="1335.669588" stroke="black" stroke-width="6.48"/>
<line x1="258.522494" y1="990.409187" x2="324.985122" y2="990.409187" stroke="black" stroke-width="6.48"/>
<line x1="288.73278" y1="1336.532738" x2="288.73278" y2="991.272337" stroke="black" stroke-width="6.48"/>
<line x1="3874.406537" y1="1514.726719" x2="3874.406537" y2="1940.260162" stroke="black" stroke-width="6.48"/>
<line x1="3874.406537" y1="1940.260162" x2="3940.00601" y2="1940.260162" stroke="black" stroke-width="6.48"/>
<line x1="3940.00601" y1="1940.260162" x2="3940.00601" y2="1514.726719" stroke="black" stroke-width="6.48"/>
<line x1="3940.00601" y1="1514.726719" x2="3874.406537" y2="1514.726719" stroke="black" stroke-width="6.48"/>
<line x1="3939.14286" y1="1554.431663" x2="3875.269687" y2="1554.431663" stroke="black" stroke-width="6.48"/>
<line x1="3939.14286" y1="1899.692064" x2="3872.680232" y2="1899.692064" stroke="black" stroke-width="6.48"/>
<line x1="3908.932574" y1="1553.568512" x2="3908.932574" y2="1898.828914" stroke="black" stroke-width="6.48"/>
<line x1="4740.566072" y1="1448.194612" x2="4874.922533" y2="1817.335944" stroke="black" stroke-width="6.48"/>
<line x1="4874.922533" y1="1817.335944" x2="5048.329648" y2="1754.220913" stroke="black" stroke-width="6.48"/>
<line x1="5048.329648" y1="1754.220913" x2="4913.973191" y2="1385.079581" stroke="black" stroke-width="6.48"/>
<line x1="4913.973191" y1="1385.079581" x2="4740.566072" y2="1448.194612" stroke="black" stroke-width="6.48"/>
<line x1="4968.420059" y1="1534.67113" x2="5044.33219" y2="1507.041374" stroke="black" stroke-width="6.48"/>
<line x1="5044.33219" y1="1507.041374" x2="5017.515073" y2="1433.361956" stroke="black" stroke-width="6.48"/>
<line x1="5017.515073" y1="1433.361956" x2="4941.602942" y2="1460.991712" stroke="black" stroke-width="6.48"/>
<line x1="5001.412748" y1="1440.065549" x2="5027.958986" y2="1513.000732" stroke="black" stroke-width="6.48"/>
<line x1="4691.539462" y1="1552.007372" x2="4718.356578" y2="1625.686794" stroke="black" stroke-width="6.48"/>
<line x1="4718.356578" y1="1625.686794" x2="4795.012944" y2="1597.786157" stroke="black" stroke-width="6.48"/>
<line x1="4768.195828" y1="1524.106739" x2="4691.539462" y2="1552.007372" stroke="black" stroke-width="6.48"/>
<line x1="4708.183547" y1="1546.79225" x2="4734.729785" y2="1619.727437" stroke="black" stroke-width="6.48"/>
<line x1="5020.158132" y1="1676.820312" x2="5096.070259" y2="1649.190557" stroke="black" stroke-width="6.48"/>
<line x1="5096.070259" y1="1649.190557" x2="5069.253143" y2="1575.511139" stroke="black" stroke-width="6.48"/>
<line x1="5069.253143" y1="1575.511139" x2="4993.341016" y2="1603.140894" stroke="black" stroke-width="6.48"/>
<line x1="5052.879943" y1="1581.470496" x2="5079.69706" y2="1655.149918" stroke="black" stroke-width="6.48"/>
<line x1="4743.277535" y1="1694.156558" x2="4770.094651" y2="1767.835973" stroke="black" stroke-width="6.48"/>
<line x1="4770.094651" y1="1767.835973" x2="4846.751017" y2="1739.935343" stroke="black" stroke-width="6.48"/>
<line x1="4819.933901" y1="1666.255925" x2="4743.277535" y2="1694.156558" stroke="black" stroke-width="6.48"/>
<line x1="4759.650738" y1="1688.197198" x2="4786.467854" y2="1761.876619" stroke="black" stroke-width="6.48"/>
<line x1="3351.152905" y1="1075.131324" x2="3560.518109" y2="1075.131324" stroke="black" stroke-width="6.48"/>
<line x1="3560.518109" y1="1075.131324" x2="3560.518109" y2="743.91692" stroke="black" stroke-width="6.48"/>
<line x1="3560.518109" y1="743.91692" x2="3351.152905" y2="743.91692" stroke="black" stroke-width="6.48"/>
<line x1="3351.152905" y1="743.91692" x2="3351.152905" y2="1075.131324" stroke="black" stroke-width="6.48"/>
<line x1="3350.479705" y1="803.15852" x2="3561.191305" y2="803.15852" stroke="black" stroke-width="6.48"/>
<line x1="3561.191305" y1="803.15852" x2="3351.826105" y2="852.975324" stroke="black" stroke-width="6.48"/>
<line x1="3351.826105" y1="852.975324" x2="3383.466509" y2="899.426124" stroke="black" stroke-width="6.48"/>
<line x1="3383.466509" y1="899.426124" x2="3561.191305" y2="802.485324" stroke="black" stroke-width="6.48"/>
<line x1="3392.583109" y1="1203.204582" x2="3614.860274" y2="1203.204582" stroke="black" stroke-width="6.48"/>
<line x1="3614.860274" y1="1203.204582" x2="3614.860274" y2="1425.937234" stroke="black" stroke-width="6.48"/>
<line x1="3614.860274" y1="1425.937234" x2="3392.583109" y2="1425.937234" stroke="black" stroke-width="6.48"/>
<line x1="3392.583109" y1="1425.937234" x2="3392.583109" y2="1203.204582" stroke="black" stroke-width="6.48"/>
<line x1="3392.127623" y1="1202.749096" x2="3614.860274" y2="1425.937234" stroke="black" stroke-width="6.48"/>
<line x1="3392.583109" y1="1425.481747" x2="3614.404788" y2="1203.204582" stroke="black" stroke-width="6.48"/>
<line x1="2804.16708" y1="1127.69402" x2="2804.16708" y2="1153.148746" stroke="black" stroke-width="6.48"/>
<line x1="2804.16708" y1="1153.148746" x2="2853.834836" y2="1153.148746" stroke="black" stroke-width="6.48"/>
<line x1="2853.834836" y1="1153.148746" x2="2853.834836" y2="1127.69402" stroke="black" stroke-width="6.48"/>
<line x1="2853.834836" y1="1127.69402" x2="2804.16708" y2="1127.69402" stroke="black" stroke-width="6.48"/>
<line x1="2853.834836" y1="1402.108373" x2="3101.55277" y2="1402.108373" stroke="black" stroke-width="6.48"/>
<line x1="2802.925386" y1="1402.729218" x2="2802.925386" y2="1428.183943" stroke="black" stroke-width="6.48"/>
<line x1="2802.925386" y1="1428.183943" x2="2852.593142" y2="1428.183943" stroke="black" stroke-width="6.48"/>
<line x1="2852.593142" y1="1428.183943" x2="2852.593142" y2="1402.729218" stroke="black" stroke-width="6.48"/>
<line x1="2852.593142" y1="1402.729218" x2="2802.925386" y2="1402.729218" stroke="black" stroke-width="6.48"/>
<path d="m 2851.972294,1153.148746 a 248.95962699999984,248.95962699999984 0 0 1 248.95962699999973,248.95962699999995" fill="none" stroke="black" stroke-width="6.48"/>
<line x1="3468.273916" y1="1944.587534" x2="3404.354274" y2="1721.673259" stroke="black" stroke-width="6.48"/>
<line x1="3404.354274" y1="1721.673259" x2="3627.725346" y2="1657.622635" stroke="black" stroke-width="6.48"/>
<line x1="3627.725346" y1="1657.622635" x2="3691.644984" y2="1880.53691" stroke="black" stroke-width="6.48"/>
<line x1="3691.644984" y1="1880.53691" x2="3468.273916" y2="1944.587534" stroke="black" stroke-width="6.48"/>
<line x1="3467.948105" y1="1945.17531" x2="3627.725346" y2="1657.622635" stroke="black" stroke-width="6.48"/>
<line x1="3691.188194" y1="1880.667896" x2="3404.485256" y2="1722.130049" stroke="black" stroke-width="6.48"/>
<line x1="3020.26257" y1="1589.315879" x2="3017.570504" y2="1620.086342" stroke="black" stroke-width="6.48"/>
<line x1="3017.570504" y1="1620.086342" x2="3226.336254" y2="1638.350978" stroke="black" stroke-width="6.48"/>
<line x1="3226.336254" y1="1638.350978" x2="3229.028316" y2="1607.580515" stroke="black" stroke-width="6.48"/>
<line x1="3229.028316" y1="1607.580515" x2="3020.26257" y2="1589.315879" stroke="black" stroke-width="6.48"/>
<line x1="3002.494928" y1="1792.400929" x2="2999.802863" y2="1823.171389" stroke="black" stroke-width="6.48"/>
<line x1="2999.802863" y1="1823.171389" x2="3208.568612" y2="1841.436029" stroke="black" stroke-width="6.48"/>
<line x1="3208.568612" y1="1841.436029" x2="3211.260682" y2="1810.665565" stroke="black" stroke-width="6.48"/>
<line x1="3211.260682" y1="1810.665565" x2="3002.494928" y2="1792.400929" stroke="black" stroke-width="6.48"/>
<line x1="3017.611919" y1="1619.61295" x2="3002.494928" y2="1792.400929" stroke="black" stroke-width="6.48"/>
<line x1="3225.472301" y1="1637.321364" x2="3249.189529" y2="1666.109203" stroke="black" stroke-width="6.48"/>
<line x1="3238.628342" y1="1786.82409" x2="3210.272478" y2="1811.056122" stroke="black" stroke-width="6.48"/>
<line x1="3249.35519" y1="1664.215632" x2="3238.462678" y2="1788.717658" stroke="black" stroke-width="6.48"/>
<line x1="3062.069323" y1="1623.979487" x2="3046.952336" y2="1796.767463" stroke="black" stroke-width="6.48"/>
<line x1="2960.053754" y1="2023.158078" x2="2888.848609" y2="2199.397216" stroke="black" stroke-width="6.48"/>
<line x1="2888.848609" y1="2199.397216" x2="3318.872105" y2="2373.137766" stroke="black" stroke-width="6.48"/>
<line x1="3318.872105" y1="2373.137766" x2="3390.07725" y2="2196.898628" stroke="black" stroke-width="6.48"/>
<line x1="3390.07725" y1="2196.898628" x2="3368.04736" y2="2187.997985" stroke="black" stroke-width="6.48"/>
<line x1="3368.04736" y1="2187.997985" x2="3305.386832" y2="2343.088429" stroke="black" stroke-width="6.48"/>
<line x1="3305.386832" y1="2343.088429" x2="2920.304315" y2="2187.505188" stroke="black" stroke-width="6.48"/>
<line x1="2920.304315" y1="2187.505188" x2="2982.964842" y2="2032.414747" stroke="black" stroke-width="6.48"/>
<line x1="2982.964842" y1="2032.414747" x2="2960.053754" y2="2023.158078" stroke="black" stroke-width="6.48"/>
<line x1="2980.828688" y1="2037.70192" x2="3365.911206" y2="2193.285161" stroke="black" stroke-width="6.48"/>
<line x1="3173.285372" y1="2114.434332" x2="3112.761002" y2="2264.2376" stroke="black" stroke-width="6.48"/>
<line x1="3819.610505" y1="1149.082661" x2="3822.30257" y2="1118.312197" stroke="black" stroke-width="6.48"/>
<line x1="3822.30257" y1="1118.312197" x2="3613.536821" y2="1100.047561" stroke="black" stroke-width="6.48"/>
<line x1="3613.536821" y1="1100.047561" x2="3610.844759" y2="1130.818025" stroke="black" stroke-width="6.48"/>
<line x1="3610.844759" y1="1130.818025" x2="3819.610505" y2="1149.082661" stroke="black" stroke-width="6.48"/>
<line x1="3837.378146" y1="945.99761" x2="3840.070212" y2="915.22715" stroke="black" stroke-width="6.48"/>
<line x1="3840.070212" y1="915.22715" x2="3631.304462" y2="896.962511" stroke="black" stroke-width="6.48"/>
<line x1="3631.304462" y1="896.962511" x2="3628.612393" y2="927.732974" stroke="black" stroke-width="6.48"/>
<line x1="3628.612393" y1="927.732974" x2="3837.378146" y2="945.99761" stroke="black" stroke-width="6.48"/>
<line x1="3822.261152" y1="1118.78559" x2="3837.378146" y2="945.99761" stroke="black" stroke-width="6.48"/>
<line x1="3614.400774" y1="1101.077176" x2="3590.683546" y2="1072.28934" stroke="black" stroke-width="6.48"/>
<line x1="3601.244732" y1="951.57445" x2="3629.600597" y2="927.342418" stroke="black" stroke-width="6.48"/>
<line x1="3590.517884" y1="1074.182908" x2="3601.410397" y2="949.680882" stroke="black" stroke-width="6.48"/>
<line x1="3777.803752" y1="1114.419053" x2="3792.920738" y2="941.63108" stroke="black" stroke-width="6.48"/>
<line x1="1242.44194" y1="1614.291404" x2="1074.611236" y2="1703.528518" stroke="black" stroke-width="6.48"/>
<line x1="1074.611236" y1="1703.528518" x2="1292.349794" y2="2113.035422" stroke="black" stroke-width="6.48"/>
<line x1="1292.349794" y1="2113.035422" x2="1460.180498" y2="2023.798313" stroke="black" stroke-width="6.48"/>
<line x1="1460.180498" y1="2023.798313" x2="1449.025855" y2="2002.819478" stroke="black" stroke-width="6.48"/>
<line x1="1449.025855" y1="2002.819478" x2="1301.334836" y2="2081.348136" stroke="black" stroke-width="6.48"/>
<line x1="1301.334836" y1="2081.348136" x2="1106.351744" y2="1714.638056" stroke="black" stroke-width="6.48"/>
<line x1="1106.351744" y1="1714.638056" x2="1254.042763" y2="1636.109395" stroke="black" stroke-width="6.48"/>
<line x1="1254.042763" y1="1636.109395" x2="1242.44194" y2="1614.291404" stroke="black" stroke-width="6.48"/>
<line x1="1249.007839" y1="1638.78651" x2="1443.990935" y2="2005.49659" stroke="black" stroke-width="6.48"/>
<line x1="1347.11545" y1="1821.275784" x2="1204.459351" y2="1897.127334" stroke="black" stroke-width="6.48"/>
<line x1="2281.117957" y1="2041.070429" x2="2511.745193" y2="2065.310384" stroke="black" stroke-width="6.48"/>
<line x1="2511.745193" y1="2065.310384" x2="2487.455564" y2="2296.410217" stroke="black" stroke-width="6.48"/>
<line x1="2487.455564" y1="2296.410217" x2="2256.828329" y2="2272.170258" stroke="black" stroke-width="6.48"/>
<line x1="2256.828329" y1="2272.170258" x2="2281.117957" y2="2041.070429" stroke="black" stroke-width="6.48"/>
<line x1="2280.695033" y1="2040.548159" x2="2487.455564" y2="2296.410217" stroke="black" stroke-width="6.48"/>
<line x1="2256.878002" y1="2271.697661" x2="2511.272596" y2="2065.260712" stroke="black" stroke-width="6.48"/>
<line x1="864.798347" y1="209.865445" x2="1135.345547" y2="209.865445" stroke="black" stroke-width="6.48"/>
<line x1="1135.345547" y1="209.865445" x2="1135.345547" y2="341.812645" stroke="black" stroke-width="6.48"/>
<line x1="864.798347" y1="341.812645" x2="1135.345547" y2="341.812645" stroke="black" stroke-width="6.48"/>
<line x1="864.798347" y1="209.865445" x2="864.798347" y2="341.812645" stroke="black" stroke-width="6.48"/>
<line x1="871.451147" y1="216.518245" x2="1009.496747" y2="216.518245" stroke="black" stroke-width="6.48"/>
<line x1="1009.496747" y1="216.518245" x2="1009.496747" y2="334.605445" stroke="black" stroke-width="6.48"/>
<line x1="871.451147" y1="334.605445" x2="1009.496747" y2="334.605445" stroke="black" stroke-width="6.48"/>
<line x1="871.451147" y1="216.518245" x2="871.451147" y2="334.605445" stroke="black" stroke-width="6.48"/>
<line x1="1023.911147" y1="224.279845" x2="1120.931147" y2="224.279845" stroke="black" stroke-width="6.48"/>
<line x1="1023.911147" y1="244.792645" x2="1120.931147" y2="244.792645" stroke="black" stroke-width="6.48"/>
<line x1="1024.465547" y1="265.859845" x2="1121.485547" y2="265.859845" stroke="black" stroke-width="6.48"/>
<line x1="1024.465547" y1="286.372645" x2="1121.485547" y2="286.372645" stroke="black" stroke-width="6.48"/>
<line x1="1023.911147" y1="306.885445" x2="1120.931147" y2="306.885445" stroke="black" stroke-width="6.48"/>
<line x1="1023.911147" y1="327.398245" x2="1120.931147" y2="327.398245" stroke="black" stroke-width="6.48"/>
<line x1="924.119147" y1="334.605445" x2="924.119147" y2="320.745445" stroke="black" stroke-width="6.48"/>
<line x1="924.119147" y1="320.745445" x2="958.491947" y2="320.745445" stroke="black" stroke-width="6.48"/>
<line x1="958.491947" y1="320.745445" x2="958.491947" y2="334.051045" stroke="black" stroke-width="6.48"/>
<circle cx="993.973547" cy="231.487045" r="8.316000000000003" fill="none" stroke="black" stroke-width="6.48"/>
<line x1="5797.741932" y1="1635.974089" x2="5803.105579" y2="1666.392829" stroke="black" stroke-width="6.48"/>
<line x1="5803.105579" y1="1666.392829" x2="6009.48504" y2="1630.002564" stroke="black" stroke-width="6.48"/>
<line x1="6009.48504" y1="1630.002564" x2="6004.121396" y2="1599.58382" stroke="black" stroke-width="6.48"/>
<line x1="6004.121396" y1="1599.58382" x2="5797.741932" y2="1635.974089" stroke="black" stroke-width="6.48"/>
<line x1="5833.141988" y1="1836.737784" x2="5838.505632" y2="1867.156528" stroke="black" stroke-width="6.48"/>
<line x1="5838.505632" y1="1867.156528" x2="6044.885096" y2="1830.766259" stroke="black" stroke-width="6.48"/>
<line x1="6044.885096" y1="1830.766259" x2="6039.521453" y2="1800.347515" stroke="black" stroke-width="6.48"/>
<line x1="6039.521453" y1="1800.347515" x2="5833.141988" y2="1836.737784" stroke="black" stroke-width="6.48"/>
<line x1="5803.02306" y1="1665.924847" x2="5833.141988" y2="1836.737784" stroke="black" stroke-width="6.48"/>
<line x1="6008.384045" y1="1629.231638" x2="6038.743968" y2="1650.900085" stroke="black" stroke-width="6.48"/>
<line x1="6059.785961" y1="1770.23515" x2="6038.668008" y2="1800.980536" stroke="black" stroke-width="6.48"/>
<line x1="6038.413895" y1="1649.028161" x2="6060.11603" y2="1772.107074" stroke="black" stroke-width="6.48"/>
<line x1="5847.095758" y1="1658.636176" x2="5877.214686" y2="1829.449112" stroke="black" stroke-width="6.48"/>
</g>
</svg>
