<?xml version="1.0"?>
<svg xmlns:xlink="http://www.w3.org/1999/xlink" width="6775.2" height="2858.4">
<image x="0" y="0" width="6775.2" height="2858.4" xlink:href="groundfilled-01.png"/>
<g style="stroke-linecap:round">
<line x1="1285.950406" y1="795.178109" x2="1311.346069" y2="795.178109" stroke="black" stroke-width="6.48"/>
<line x1="1311.346069" y1="795.178109" x2="1311.346069" y2="745.625592" stroke="black" stroke-width="6.48"/>
<line x1="1311.346069" y1="745.625592" x2="1285.950406" y2="745.625592" stroke="black" stroke-width="6.48"/>
<line x1="1285.950406" y1="745.625592" x2="1285.950406" y2="795.178109" stroke="black" stroke-width="6.48"/>
<line x1="1559.728062" y1="745.625592" x2="1559.728062" y2="498.48241" stroke="black" stroke-width="6.48"/>
<line x1="1560.347471" y1="796.416923" x2="1585.743134" y2="796.416923" stroke="black" stroke-width="6.48"/>
<line x1="1585.743134" y1="796.416923" x2="1585.743134" y2="746.864406" stroke="black" stroke-width="6.48"/>
<line x1="1585.743134" y1="746.864406" x2="1560.347471" y2="746.864406" stroke="black" stroke-width="6.48"/>
<line x1="1560.347471" y1="746.864406" x2="1560.347471" y2="796.416923" stroke="black" stroke-width="6.48"/>
<path d="m 1311.346069,747.483811 a 248.38199299999997,248.38199299999997 0 0 1 248.38199299999997,-248.38199299999997" fill="none" stroke="black" stroke-width="6.48"/>
<line x1="330.523178" y1="771.328966" x2="330.523178" y2="366.748985" stroke="black" stroke-width="6.48"/>
<line x1="330.523178" y1="366.748985" x2="258.15928" y2="366.748985" stroke="black" stroke-width="6.48"/>
<line x1="258.15928" y1="366.748985" x2="258.15928" y2="771.328966" stroke="black" stroke-width="6.48"/>
<line x1="258.15928" y1="771.328966" x2="330.523178" y2="771.328966" stroke="black" stroke-width="6.48"/>
<line x1="330.523178" y1="752.415674" x2="355.19269" y2="752.415674" stroke="black" stroke-width="6.48"/>
<line x1="355.19269" y1="752.415674" x2="355.19269" y2="386.484595" stroke="black" stroke-width="6.48"/>
<line x1="330.523178" y1="386.484595" x2="355.19269" y2="386.484595" stroke="black" stroke-width="6.48"/>
<line x1="3901.945176" y1="1169.331426" x2="3901.945176" y2="1428.837066" stroke="black" stroke-width="6.48"/>
<line x1="3901.945176" y1="1428.837066" x2="3941.9501" y2="1428.837066" stroke="black" stroke-width="6.48"/>
<line x1="3941.9501" y1="1428.837066" x2="3941.9501" y2="1169.331426" stroke="black" stroke-width="6.48"/>
<line x1="3941.9501" y1="1169.331426" x2="3901.945176" y2="1169.331426" stroke="black" stroke-width="6.48"/>
<line x1="3941.423719" y1="1193.544936" x2="3902.471557" y2="1193.544936" stroke="black" stroke-width="6.48"/>
<line x1="3941.423719" y1="1404.097178" x2="3900.892414" y2="1404.097178" stroke="black" stroke-width="6.48"/>
<line x1="3923.000399" y1="1193.018555" x2="3923.000399" y2="1403.570797" stroke="black" stroke-width="6.48"/>
<line x1="334.430687" y1="1882.943946" x2="334.430687" y2="1457.437414" stroke="black" stroke-width="6.48"/>
<line x1="334.430687" y1="1457.437414" x2="258.323828" y2="1457.437414" stroke="black" stroke-width="6.48"/>
<line x1="258.323828" y1="1457.437414" x2="258.323828" y2="1882.943946" stroke="black" stroke-width="6.48"/>
<line x1="258.323828" y1="1882.943946" x2="334.430687" y2="1882.943946" stroke="black" stroke-width="6.48"/>
<line x1="334.430687" y1="1863.05238" x2="360.376207" y2="1863.05238" stroke="black" stroke-width="6.48"/>
<line x1="360.376207" y1="1863.05238" x2="360.376207" y2="1478.193829" stroke="black" stroke-width="6.48"/>
<line x1="334.430687" y1="1478.193829" x2="360.376207" y2="1478.193829" stroke="black" stroke-width="6.48"/>
<line x1="2747.905531" y1="904.670665" x2="2721.68303" y2="904.670665" stroke="black" stroke-width="6.48"/>
<line x1="2721.68303" y1="904.670665" x2="2721.68303" y2="955.836522" stroke="black" stroke-width="6.48"/>
<line x1="2721.68303" y1="955.836522" x2="2747.905531" y2="955.836522" stroke="black" stroke-width="6.48"/>
<line x1="2747.905531" y1="955.836522" x2="2747.905531" y2="904.670665" stroke="black" stroke-width="6.48"/>
<line x1="2465.214181" y1="955.836522" x2="2465.214181" y2="1211.026223" stroke="black" stroke-width="6.48"/>
<line x1="2464.574609" y1="903.39152" x2="2438.352108" y2="903.39152" stroke="black" stroke-width="6.48"/>
<line x1="2438.352108" y1="903.39152" x2="2438.352108" y2="954.557374" stroke="black" stroke-width="6.48"/>
<line x1="2438.352108" y1="954.557374" x2="2464.574609" y2="954.557374" stroke="black" stroke-width="6.48"/>
<line x1="2464.574609" y1="954.557374" x2="2464.574609" y2="903.39152" stroke="black" stroke-width="6.48"/>
<path d="m 2721.68303,953.917801 a 256.4688490000001,256.4688490000001 0 0 1 -256.4688490000003,256.46884899999986" fill="none" stroke="black" stroke-width="6.48"/>
<line x1="2420.532389" y1="1427.858834" x2="2395.136725" y2="1427.858834" stroke="black" stroke-width="6.48"/>
<line x1="2395.136725" y1="1427.858834" x2="2395.136725" y2="1477.411351" stroke="black" stroke-width="6.48"/>
<line x1="2395.136725" y1="1477.411351" x2="2420.532389" y2="1477.411351" stroke="black" stroke-width="6.48"/>
<line x1="2420.532389" y1="1477.411351" x2="2420.532389" y2="1427.858834" stroke="black" stroke-width="6.48"/>
<line x1="2146.754732" y1="1477.411351" x2="2146.754732" y2="1724.554534" stroke="black" stroke-width="6.48"/>
<line x1="2146.135324" y1="1426.62002" x2="2120.73966" y2="1426.62002" stroke="black" stroke-width="6.48"/>
<line x1="2120.73966" y1="1426.62002" x2="2120.73966" y2="1476.172537" stroke="black" stroke-width="6.48"/>
<line x1="2120.73966" y1="1476.172537" x2="2146.135324" y2="1476.172537" stroke="black" stroke-width="6.48"/>
<line x1="2146.135324" y1="1476.172537" x2="2146.135324" y2="1426.62002" stroke="black" stroke-width="6.48"/>
<path d="m 2395.136725,1475.553132 a 248.38199299999997,248.38199299999997 0 0 1 -248.38199299999997,248.38199299999997" fill="none" stroke="black" stroke-width="6.48"/>
<line x1="504.413564" y1="692.136151" x2="897.245564" y2="692.136151" stroke="black" stroke-width="6.48"/>
<line x1="897.245564" y1="692.136151" x2="897.245564" y2="507.600151" stroke="black" stroke-width="6.48"/>
<line x1="897.245564" y1="507.600151" x2="504.413564" y2="507.600151" stroke="black" stroke-width="6.48"/>
<line x1="504.413564" y1="507.600151" x2="504.413564" y2="692.136151" stroke="black" stroke-width="6.48"/>
<line x1="663.605564" y1="507.600151" x2="663.605564" y2="426.816151" stroke="black" stroke-width="6.48"/>
<line x1="663.605564" y1="426.816151" x2="585.197564" y2="426.816151" stroke="black" stroke-width="6.48"/>
<line x1="585.197564" y1="426.816151" x2="585.197564" y2="507.600151" stroke="black" stroke-width="6.48"/>
<line x1="585.989564" y1="444.240151" x2="663.605564" y2="444.240151" stroke="black" stroke-width="6.48"/>
<line x1="585.197564" y1="773.712151" x2="663.605564" y2="773.712151" stroke="black" stroke-width="6.48"/>
<line x1="663.605564" y1="773.712151" x2="663.605564" y2="692.136151" stroke="black" stroke-width="6.48"/>
<line x1="585.197564" y1="692.136151" x2="585.197564" y2="773.712151" stroke="black" stroke-width="6.48"/>
<line x1="585.989564" y1="756.288151" x2="663.605564" y2="756.288151" stroke="black" stroke-width="6.48"/>
<line x1="814.877564" y1="507.600151" x2="814.877564" y2="426.816151" stroke="black" stroke-width="6.48"/>
<line x1="814.877564" y1="426.816151" x2="736.469564" y2="426.816151" stroke="black" stroke-width="6.48"/>
<line x1="736.469564" y1="426.816151" x2="736.469564" y2="507.600151" stroke="black" stroke-width="6.48"/>
<line x1="736.469564" y1="444.240151" x2="814.877564" y2="444.240151" stroke="black" stroke-width="6.48"/>
<line x1="736.469564" y1="773.712151" x2="814.877564" y2="773.712151" stroke="black" stroke-width="6.48"/>
<line x1="814.877564" y1="773.712151" x2="814.877564" y2="692.136151" stroke="black" stroke-width="6.48"/>
<line x1="736.469564" y1="692.136151" x2="736.469564" y2="773.712151" stroke="black" stroke-width="6.48"/>
<line x1="736.469564" y1="756.288151" x2="814.877564" y2="756.288151" stroke="black" stroke-width="6.48"/>
<line x1="1842.844367" y1="2011.139885" x2="2032.924367" y2="2011.139885" stroke="black" stroke-width="6.48"/>
<line x1="2032.924367" y1="2011.139885" x2="2032.924367" y2="1547.344685" stroke="black" stroke-width="6.48"/>
<line x1="2032.924367" y1="1547.344685" x2="1842.844367" y2="1547.344685" stroke="black" stroke-width="6.48"/>
<line x1="1842.844367" y1="1547.344685" x2="1842.844367" y2="1571.104685" stroke="black" stroke-width="6.48"/>
<line x1="1842.844367" y1="1571.104685" x2="2010.114767" y2="1571.104685" stroke="black" stroke-width="6.48"/>
<line x1="2010.114767" y1="1571.104685" x2="2010.114767" y2="1986.429485" stroke="black" stroke-width="6.48"/>
<line x1="2010.114767" y1="1986.429485" x2="1842.844367" y2="1986.429485" stroke="black" stroke-width="6.48"/>
<line x1="1842.844367" y1="1986.429485" x2="1842.844367" y2="2011.139885" stroke="black" stroke-width="6.48"/>
<line x1="1848.546767" y1="1986.429485" x2="1848.546767" y2="1571.104685" stroke="black" stroke-width="6.48"/>
<line x1="1847.596367" y1="1779.242285" x2="2009.164367" y2="1779.242285" stroke="black" stroke-width="6.48"/>
<line x1="1485.415969" y1="209.267824" x2="1707.693134" y2="209.267824" stroke="black" stroke-width="6.48"/>
<line x1="1707.693134" y1="209.267824" x2="1707.693134" y2="432.000475" stroke="black" stroke-width="6.48"/>
<line x1="1707.693134" y1="432.000475" x2="1485.415969" y2="432.000475" stroke="black" stroke-width="6.48"/>
<line x1="1485.415969" y1="432.000475" x2="1485.415969" y2="209.267824" stroke="black" stroke-width="6.48"/>
<line x1="1484.960483" y1="208.812337" x2="1707.693134" y2="432.000475" stroke="black" stroke-width="6.48"/>
<line x1="1485.415969" y1="431.544989" x2="1707.237648" y2="209.267824" stroke="black" stroke-width="6.48"/>
<line x1="2586.780558" y1="1803.366338" x2="2586.780558" y2="2194.614338" stroke="black" stroke-width="6.48"/>
<line x1="2586.780558" y1="2194.614338" x2="2761.020558" y2="2194.614338" stroke="black" stroke-width="6.48"/>
<line x1="2761.020558" y1="2194.614338" x2="2761.020558" y2="1803.366338" stroke="black" stroke-width="6.48"/>
<line x1="2761.020558" y1="1803.366338" x2="2586.780558" y2="1803.366338" stroke="black" stroke-width="6.48"/>
<line x1="2734.092558" y1="2119.374338" x2="2734.092558" y2="1835.046338" stroke="black" stroke-width="6.48"/>
<line x1="2734.092558" y1="1835.046338" x2="2616.084558" y2="1835.046338" stroke="black" stroke-width="6.48"/>
<line x1="2616.084558" y1="1835.046338" x2="2616.084558" y2="2124.918338" stroke="black" stroke-width="6.48"/>
<path d="m 2734.347982,2118.563766 a 63.35999941905905,63.35999941905905 0 0 1 -119.37432999999965,4.2938139999996565" fill="none" stroke="black" stroke-width="6.48"/>
<line x1="2080.988219" y1="1872.708332" x2="2056.436219" y2="1891.320332" stroke="black" stroke-width="6.48"/>
<line x1="2056.436219" y1="1891.320332" x2="2056.436219" y2="2038.632332" stroke="black" stroke-width="6.48"/>
<line x1="2056.436219" y1="2038.632332" x2="2084.552219" y2="2057.640332" stroke="black" stroke-width="6.48"/>
<line x1="2083.760219" y1="1894.488332" x2="2083.760219" y2="2037.444332" stroke="black" stroke-width="6.48"/>
<circle cx="2105.540219" cy="1963.788332" r="13.068000000000003" fill="none" stroke="black" stroke-width="6.48"/>
<path d="m 2083.092872,1896.041585 a 74.84400042853741,74.84400042853741 0 1 1 0.40204799999992247,139.60900400000014" fill="none" stroke="black" stroke-width="6.48"/>
<path d="m 2080.330855,1872.754636 a 95.43599883751708,95.43599883751708 0 1 1 3.0749579999996968,184.466995" fill="none" stroke="black" stroke-width="6.48"/>
<line x1="515.586658" y1="209.011626" x2="786.133858" y2="209.011626" stroke="black" stroke-width="6.48"/>
<line x1="786.133858" y1="209.011626" x2="786.133858" y2="340.958826" stroke="black" stroke-width="6.48"/>
<line x1="515.586658" y1="340.958826" x2="786.133858" y2="340.958826" stroke="black" stroke-width="6.48"/>
<line x1="515.586658" y1="209.011626" x2="515.586658" y2="340.958826" stroke="black" stroke-width="6.48"/>
<line x1="522.239458" y1="215.664426" x2="660.285058" y2="215.664426" stroke="black" stroke-width="6.48"/>
<line x1="660.285058" y1="215.664426" x2="660.285058" y2="333.751626" stroke="black" stroke-width="6.48"/>
<line x1="522.239458" y1="333.751626" x2="660.285058" y2="333.751626" stroke="black" stroke-width="6.48"/>
<line x1="522.239458" y1="215.664426" x2="522.239458" y2="333.751626" stroke="black" stroke-width="6.48"/>
<line x1="674.699458" y1="223.426026" x2="771.719458" y2="223.426026" stroke="black" stroke-width="6.48"/>
<line x1="674.699458" y1="243.938826" x2="771.719458" y2="243.938826" stroke="black" stroke-width="6.48"/>
<line x1="675.253858" y1="265.006026" x2="772.273858" y2="265.006026" stroke="black" stroke-width="6.48"/>
<line x1="675.253858" y1="285.518826" x2="772.273858" y2="285.518826" stroke="black" stroke-width="6.48"/>
<line x1="674.699458" y1="306.031626" x2="771.719458" y2="306.031626" stroke="black" stroke-width="6.48"/>
<line x1="674.699458" y1="326.544426" x2="771.719458" y2="326.544426" stroke="black" stroke-width="6.48"/>
<line x1="574.907458" y1="333.751626" x2="574.907458" y2="319.891626" stroke="black" stroke-width="6.48"/>
<line x1="574.907458" y1="319.891626" x2="609.280258" y2="319.891626" stroke="black" stroke-width="6.48"/>
<line x1="609.280258" y1="319.891626" x2="609.280258" y2="333.197226" stroke="black" stroke-width="6.48"/>
<circle cx="644.761858" cy="230.633226" r="8.316000000000003" fill="none" stroke="black" stroke-width="6.48"/>
<line x1="906.424898" y1="1081.054382" x2="1033.412951" y2="1044.641146" stroke="black" stroke-width="6.48"/>
<line x1="1033.412951" y1="1044.641146" x2="1037.342437" y2="1058.344891" stroke="black" stroke-width="6.48"/>
<line x1="910.354385" y1="1094.758128" x2="1037.342437" y2="1058.344891" stroke="black" stroke-width="6.48"/>
<line x1="906.424898" y1="1081.054382" x2="910.354385" y2="1094.758128" stroke="black" stroke-width="6.48"/>
<line x1="923.144548" y1="1091.09061" x2="929.962253" y2="1121.762783" stroke="black" stroke-width="6.48"/>
<line x1="1024.552274" y1="1062.012413" x2="1035.286272" y2="1092.550306" stroke="black" stroke-width="6.48"/>
<line x1="1033.478284" y1="1524.142195" x2="1160.466336" y2="1487.728958" stroke="black" stroke-width="6.48"/>
<line x1="1160.466336" y1="1487.728958" x2="1156.798814" y2="1474.938792" stroke="black" stroke-width="6.48"/>
<line x1="1029.810762" y1="1511.352029" x2="1156.798814" y2="1474.938792" stroke="black" stroke-width="6.48"/>
<line x1="1033.478284" y1="1524.142195" x2="1029.810762" y2="1511.352029" stroke="black" stroke-width="6.48"/>
<line x1="1041.163412" y1="1506.11931" x2="1030.691376" y2="1476.495" stroke="black" stroke-width="6.48"/>
<line x1="1142.571136" y1="1477.041113" x2="1136.405052" y2="1445.193392" stroke="black" stroke-width="6.48"/>
<line x1="1235.869322" y1="1157.63292" x2="1222.165573" y2="1161.562403" stroke="black" stroke-width="6.48"/>
<line x1="1222.165573" y1="1161.562403" x2="1258.578814" y2="1288.550455" stroke="black" stroke-width="6.48"/>
<line x1="1272.282559" y1="1284.620972" x2="1258.578814" y2="1288.550455" stroke="black" stroke-width="6.48"/>
<line x1="1235.869322" y1="1157.63292" x2="1272.282559" y2="1284.620972" stroke="black" stroke-width="6.48"/>
<line x1="1254.649324" y1="1274.84671" x2="1224.373399" y2="1286.494294" stroke="black" stroke-width="6.48"/>
<line x1="1225.833095" y1="1174.352566" x2="1194.247339" y2="1181.432236" stroke="black" stroke-width="6.48"/>
<line x1="793.433128" y1="1283.510754" x2="807.136873" y2="1279.581268" stroke="black" stroke-width="6.48"/>
<line x1="807.136873" y1="1279.581268" x2="843.55011" y2="1406.56932" stroke="black" stroke-width="6.48"/>
<line x1="829.846364" y1="1410.498806" x2="843.55011" y2="1406.56932" stroke="black" stroke-width="6.48"/>
<line x1="793.433128" y1="1283.510754" x2="829.846364" y2="1410.498806" stroke="black" stroke-width="6.48"/>
<line x1="839.620627" y1="1392.865574" x2="871.468348" y2="1386.699487" stroke="black" stroke-width="6.48"/>
<line x1="810.804395" y1="1292.37143" x2="841.342288" y2="1281.637429" stroke="black" stroke-width="6.48"/>
<circle cx="1032.857842" cy="1284.065863" r="191.98080000000002" fill="none" stroke="black" stroke-width="6.48"/>
<line x1="2044.889399" y1="955.822399" x2="2267.166564" y2="955.822399" stroke="black" stroke-width="6.48"/>
<line x1="2267.166564" y1="955.822399" x2="2267.166564" y2="1178.555051" stroke="black" stroke-width="6.48"/>
<line x1="2267.166564" y1="1178.555051" x2="2044.889399" y2="1178.555051" stroke="black" stroke-width="6.48"/>
<line x1="2044.889399" y1="1178.555051" x2="2044.889399" y2="955.822399" stroke="black" stroke-width="6.48"/>
<line x1="2044.433912" y1="955.366913" x2="2267.166564" y2="1178.555051" stroke="black" stroke-width="6.48"/>
<line x1="2044.889399" y1="1178.099564" x2="2266.711078" y2="955.822399" stroke="black" stroke-width="6.48"/>
<line x1="323.258818" y1="1375.374532" x2="323.258818" y2="949.841089" stroke="black" stroke-width="6.48"/>
<line x1="323.258818" y1="949.841089" x2="257.659344" y2="949.841089" stroke="black" stroke-width="6.48"/>
<line x1="257.659344" y1="949.841089" x2="257.659344" y2="1375.374532" stroke="black" stroke-width="6.48"/>
<line x1="257.659344" y1="1375.374532" x2="323.258818" y2="1375.374532" stroke="black" stroke-width="6.48"/>
<line x1="258.522494" y1="1335.669588" x2="322.395667" y2="1335.669588" stroke="black" stroke-width="6.48"/>
<line x1="258.522494" y1="990.409187" x2="324.985122" y2="990.409187" stroke="black" stroke-width="6.48"/>
<line x1="288.73278" y1="1336.532738" x2="288.73278" y2="991.272337" stroke="black" stroke-width="6.48"/>
<line x1="3874.406537" y1="1514.726719" x2="3874.406537" y2="1940.260162" stroke="black" stroke-width="6.48"/>
<line x1="3874.406537" y1="1940.260162" x2="3940.00601" y2="1940.260162" stroke="black" stroke-width="6.48"/>
<line x1="3940.00601" y1="1940.260162" x2="3940.00601" y2="1514.726719" stroke="black" stroke-width="6.48"/>
<line x1="3940.00601" y1="1514.726719" x2="3874.406537" y2="1514.726719" stroke="black" stroke-width="6.48"/>
<line x1="3939.14286" y1="1554.431663" x2="3875.269687" y2="1554.431663" stroke="black" stroke-width="6.48"/>
<line x1="3939.14286" y1="1899.692064" x2="3872.680232" y2="1899.692064" stroke="black" stroke-width="6.48"/>
<line x1="3908.932574" y1="1553.568512" x2="3908.932574" y2="1898.828914" stroke="black" stroke-width="6.48"/>
<line x1="4658.455134" y1="1632.427178" x2="5045.319133" y2="1564.212614" stroke="black" stroke-width="6.48"/>
<line x1="5045.319133" y1="1564.212614" x2="5013.274792" y2="1382.480132" stroke="black" stroke-width="6.48"/>
<line x1="5013.274792" y1="1382.480132" x2="4626.410792" y2="1450.694693" stroke="black" stroke-width="6.48"/>
<line x1="4626.410792" y1="1450.694693" x2="4658.455134" y2="1632.427178" stroke="black" stroke-width="6.48"/>
<line x1="4783.184312" y1="1423.051297" x2="4769.156315" y2="1343.494584" stroke="black" stroke-width="6.48"/>
<line x1="4769.156315" y1="1343.494584" x2="4691.939512" y2="1357.109989" stroke="black" stroke-width="6.48"/>
<line x1="4691.939512" y1="1357.109989" x2="4705.967502" y2="1436.666699" stroke="black" stroke-width="6.48"/>
<line x1="4695.745122" y1="1374.131754" x2="4772.181964" y2="1360.653872" stroke="black" stroke-width="6.48"/>
<line x1="4752.177368" y1="1698.735859" x2="4829.394172" y2="1685.120458" stroke="black" stroke-width="6.48"/>
<line x1="4829.394172" y1="1685.120458" x2="4815.22865" y2="1604.783779" stroke="black" stroke-width="6.48"/>
<line x1="4738.011844" y1="1618.399184" x2="4752.177368" y2="1698.735859" stroke="black" stroke-width="6.48"/>
<line x1="4749.931688" y1="1681.439044" x2="4826.368526" y2="1667.961162" stroke="black" stroke-width="6.48"/>
<line x1="4932.158148" y1="1396.783188" x2="4918.130154" y2="1317.226478" stroke="black" stroke-width="6.48"/>
<line x1="4918.130154" y1="1317.226478" x2="4840.913351" y2="1330.841884" stroke="black" stroke-width="6.48"/>
<line x1="4840.913351" y1="1330.841884" x2="4854.941345" y2="1410.398593" stroke="black" stroke-width="6.48"/>
<line x1="4843.938996" y1="1348.001176" x2="4921.155799" y2="1334.385767" stroke="black" stroke-width="6.48"/>
<line x1="4901.151208" y1="1672.467754" x2="4978.368014" y2="1658.852348" stroke="black" stroke-width="6.48"/>
<line x1="4978.368014" y1="1658.852348" x2="4964.20249" y2="1578.51567" stroke="black" stroke-width="6.48"/>
<line x1="4886.985683" y1="1592.131075" x2="4901.151208" y2="1672.467754" stroke="black" stroke-width="6.48"/>
<line x1="4898.125559" y1="1655.308465" x2="4975.342369" y2="1641.693056" stroke="black" stroke-width="6.48"/>
<line x1="3308.280368" y1="1074.98983" x2="3517.645572" y2="1074.98983" stroke="black" stroke-width="6.48"/>
<line x1="3517.645572" y1="1074.98983" x2="3517.645572" y2="743.775426" stroke="black" stroke-width="6.48"/>
<line x1="3517.645572" y1="743.775426" x2="3308.280368" y2="743.775426" stroke="black" stroke-width="6.48"/>
<line x1="3308.280368" y1="743.775426" x2="3308.280368" y2="1074.98983" stroke="black" stroke-width="6.48"/>
<line x1="3307.607168" y1="803.017026" x2="3518.318768" y2="803.017026" stroke="black" stroke-width="6.48"/>
<line x1="3518.318768" y1="803.017026" x2="3308.953568" y2="852.83383" stroke="black" stroke-width="6.48"/>
<line x1="3308.953568" y1="852.83383" x2="3340.593972" y2="899.28463" stroke="black" stroke-width="6.48"/>
<line x1="3340.593972" y1="899.28463" x2="3518.318768" y2="802.34383" stroke="black" stroke-width="6.48"/>
<line x1="3500.022506" y1="1202.769605" x2="3722.299672" y2="1202.769605" stroke="black" stroke-width="6.48"/>
<line x1="3722.299672" y1="1202.769605" x2="3722.299672" y2="1425.502256" stroke="black" stroke-width="6.48"/>
<line x1="3722.299672" y1="1425.502256" x2="3500.022506" y2="1425.502256" stroke="black" stroke-width="6.48"/>
<line x1="3500.022506" y1="1425.502256" x2="3500.022506" y2="1202.769605" stroke="black" stroke-width="6.48"/>
<line x1="3499.56702" y1="1202.314118" x2="3722.299672" y2="1425.502256" stroke="black" stroke-width="6.48"/>
<line x1="3500.022506" y1="1425.04677" x2="3721.844185" y2="1202.769605" stroke="black" stroke-width="6.48"/>
<line x1="2804.16708" y1="1127.69402" x2="2804.16708" y2="1153.148746" stroke="black" stroke-width="6.48"/>
<line x1="2804.16708" y1="1153.148746" x2="2853.834836" y2="1153.148746" stroke="black" stroke-width="6.48"/>
<line x1="2853.834836" y1="1153.148746" x2="2853.834836" y2="1127.69402" stroke="black" stroke-width="6.48"/>
<line x1="2853.834836" y1="1127.69402" x2="2804.16708" y2="1127.69402" stroke="black" stroke-width="6.48"/>
<line x1="2853.834836" y1="1402.108373" x2="3101.55277" y2="1402.108373" stroke="black" stroke-width="6.48"/>
<line x1="2802.925386" y1="1402.729218" x2="2802.925386" y2="1428.183943" stroke="black" stroke-width="6.48"/>
<line x1="2802.925386" y1="1428.183943" x2="2852.593142" y2="1428.183943" stroke="black" stroke-width="6.48"/>
<line x1="2852.593142" y1="1428.183943" x2="2852.593142" y2="1402.729218" stroke="black" stroke-width="6.48"/>
<line x1="2852.593142" y1="1402.729218" x2="2802.925386" y2="1402.729218" stroke="black" stroke-width="6.48"/>
<path d="m 2851.972294,1153.148746 a 248.95962699999984,248.95962699999984 0 0 1 248.95962699999973,248.95962699999995" fill="none" stroke="black" stroke-width="6.48"/>
<line x1="3568.170553" y1="1638.832097" x2="3710.940973" y2="1821.5699" stroke="black" stroke-width="6.48"/>
<line x1="3710.940973" y1="1821.5699" x2="3527.828708" y2="1964.632882" stroke="black" stroke-width="6.48"/>
<line x1="3527.828708" y1="1964.632882" x2="3385.058288" y2="1781.895078" stroke="black" stroke-width="6.48"/>
<line x1="3385.058288" y1="1781.895078" x2="3568.170553" y2="1638.832097" stroke="black" stroke-width="6.48"/>
<line x1="3568.25245" y1="1638.165071" x2="3527.828708" y2="1964.632882" stroke="black" stroke-width="6.48"/>
<line x1="3385.43275" y1="1781.602517" x2="3710.648408" y2="1821.195436" stroke="black" stroke-width="6.48"/>
<line x1="3100.358268" y1="1589.315879" x2="3083.535454" y2="1615.220741" stroke="black" stroke-width="6.48"/>
<line x1="3083.535454" y1="1615.220741" x2="3259.289945" y2="1729.357034" stroke="black" stroke-width="6.48"/>
<line x1="3259.289945" y1="1729.357034" x2="3276.112752" y2="1703.45218" stroke="black" stroke-width="6.48"/>
<line x1="3276.112752" y1="1703.45218" x2="3100.358268" y2="1589.315879" stroke="black" stroke-width="6.48"/>
<line x1="2989.327716" y1="1760.287936" x2="2972.504909" y2="1786.19279" stroke="black" stroke-width="6.48"/>
<line x1="2972.504909" y1="1786.19279" x2="3148.259393" y2="1900.329088" stroke="black" stroke-width="6.48"/>
<line x1="3148.259393" y1="1900.329088" x2="3165.082207" y2="1874.424233" stroke="black" stroke-width="6.48"/>
<line x1="3165.082207" y1="1874.424233" x2="2989.327716" y2="1760.287936" stroke="black" stroke-width="6.48"/>
<line x1="3083.794268" y1="1614.822199" x2="2989.327716" y2="1760.287936" stroke="black" stroke-width="6.48"/>
<line x1="3259.010495" y1="1728.04234" x2="3266.436492" y2="1764.595055" stroke="black" stroke-width="6.48"/>
<line x1="3200.439312" y1="1866.221798" x2="3164.02632" y2="1874.305145" stroke="black" stroke-width="6.48"/>
<line x1="3267.47174" y1="1763.00091" x2="3199.40406" y2="1867.815943" stroke="black" stroke-width="6.48"/>
<line x1="3120.997864" y1="1639.549109" x2="3026.531315" y2="1785.014842" stroke="black" stroke-width="6.48"/>
<line x1="859.44929" y1="209.852366" x2="1129.99649" y2="209.852366" stroke="black" stroke-width="6.48"/>
<line x1="1129.99649" y1="209.852366" x2="1129.99649" y2="341.799566" stroke="black" stroke-width="6.48"/>
<line x1="859.44929" y1="341.799566" x2="1129.99649" y2="341.799566" stroke="black" stroke-width="6.48"/>
<line x1="859.44929" y1="209.852366" x2="859.44929" y2="341.799566" stroke="black" stroke-width="6.48"/>
<line x1="866.10209" y1="216.505166" x2="1004.14769" y2="216.505166" stroke="black" stroke-width="6.48"/>
<line x1="1004.14769" y1="216.505166" x2="1004.14769" y2="334.592366" stroke="black" stroke-width="6.48"/>
<line x1="866.10209" y1="334.592366" x2="1004.14769" y2="334.592366" stroke="black" stroke-width="6.48"/>
<line x1="866.10209" y1="216.505166" x2="866.10209" y2="334.592366" stroke="black" stroke-width="6.48"/>
<line x1="1018.56209" y1="224.266766" x2="1115.58209" y2="224.266766" stroke="black" stroke-width="6.48"/>
<line x1="1018.56209" y1="244.779566" x2="1115.58209" y2="244.779566" stroke="black" stroke-width="6.48"/>
<line x1="1019.11649" y1="265.846766" x2="1116.13649" y2="265.846766" stroke="black" stroke-width="6.48"/>
<line x1="1019.11649" y1="286.359566" x2="1116.13649" y2="286.359566" stroke="black" stroke-width="6.48"/>
<line x1="1018.56209" y1="306.872366" x2="1115.58209" y2="306.872366" stroke="black" stroke-width="6.48"/>
<line x1="1018.56209" y1="327.385166" x2="1115.58209" y2="327.385166" stroke="black" stroke-width="6.48"/>
<line x1="918.77009" y1="334.592366" x2="918.77009" y2="320.732366" stroke="black" stroke-width="6.48"/>
<line x1="918.77009" y1="320.732366" x2="953.14289" y2="320.732366" stroke="black" stroke-width="6.48"/>
<line x1="953.14289" y1="320.732366" x2="953.14289" y2="334.037966" stroke="black" stroke-width="6.48"/>
<circle cx="988.62449" cy="231.473966" r="8.316000000000003" fill="none" stroke="black" stroke-width="6.48"/>
<line x1="5605.007418" y1="1382.754211" x2="5612.304481" y2="1591.714843" stroke="black" stroke-width="6.48"/>
<line x1="5612.304481" y1="1591.714843" x2="5844.060817" y2="1583.621734" stroke="black" stroke-width="6.48"/>
<line x1="5844.060817" y1="1583.621734" x2="5836.76375" y2="1374.661102" stroke="black" stroke-width="6.48"/>
<line x1="5836.76375" y1="1374.661102" x2="5605.007418" y2="1382.754211" stroke="black" stroke-width="6.48"/>
<line x1="5637.301333" y1="1381.626482" x2="5644.598396" y2="1590.587114" stroke="black" stroke-width="6.48"/>
<line x1="6352.40272" y1="2238.51352" x2="6348.103942" y2="2269.10092" stroke="black" stroke-width="6.48"/>
<line x1="6348.103942" y1="2269.10092" x2="6555.627688" y2="2298.266478" stroke="black" stroke-width="6.48"/>
<line x1="6555.627688" y1="2298.266478" x2="6559.926466" y2="2267.679082" stroke="black" stroke-width="6.48"/>
<line x1="6559.926466" y1="2267.679082" x2="6352.40272" y2="2238.51352" stroke="black" stroke-width="6.48"/>
<line x1="6324.030781" y1="2440.39036" x2="6319.732" y2="2470.97776" stroke="black" stroke-width="6.48"/>
<line x1="6319.732" y1="2470.97776" x2="6527.255746" y2="2500.143322" stroke="black" stroke-width="6.48"/>
<line x1="6527.255746" y1="2500.143322" x2="6531.554524" y2="2469.555922" stroke="black" stroke-width="6.48"/>
<line x1="6531.554524" y1="2469.555922" x2="6324.030781" y2="2440.39036" stroke="black" stroke-width="6.48"/>
<line x1="6348.170074" y1="2268.630346" x2="6324.030781" y2="2440.39036" stroke="black" stroke-width="6.48"/>
<line x1="6554.818804" y1="2297.193062" x2="6576.996888" y2="2327.182708" stroke="black" stroke-width="6.48"/>
<line x1="6560.132447" y1="2447.17943" x2="6530.54724" y2="2469.894224" stroke="black" stroke-width="6.48"/>
<line x1="6577.261427" y1="2325.300408" x2="6559.867908" y2="2449.061734" stroke="black" stroke-width="6.48"/>
<line x1="6392.338024" y1="2275.317616" x2="6368.198731" y2="2447.07763" stroke="black" stroke-width="6.48"/>
<line x1="1130.670252" y1="1921.814122" x2="1148.825754" y2="1946.803039" stroke="black" stroke-width="6.48"/>
<line x1="1148.825754" y1="1946.803039" x2="1318.365976" y2="1823.624924" stroke="black" stroke-width="6.48"/>
<line x1="1318.365976" y1="1823.624924" x2="1300.21047" y2="1798.636" stroke="black" stroke-width="6.48"/>
<line x1="1300.21047" y1="1798.636" x2="1130.670252" y2="1921.814122" stroke="black" stroke-width="6.48"/>
<line x1="1250.49658" y1="2086.740997" x2="1268.652085" y2="2111.729922" stroke="black" stroke-width="6.48"/>
<line x1="1268.652085" y1="2111.729922" x2="1438.192303" y2="1988.551804" stroke="black" stroke-width="6.48"/>
<line x1="1438.192303" y1="1988.551804" x2="1420.036801" y2="1963.562886" stroke="black" stroke-width="6.48"/>
<line x1="1420.036801" y1="1963.562886" x2="1250.49658" y2="2086.740997" stroke="black" stroke-width="6.48"/>
<line x1="1148.546441" y1="1946.418599" x2="1250.49658" y2="2086.740997" stroke="black" stroke-width="6.48"/>
<line x1="1317.038454" y1="1823.414663" x2="1353.824593" y2="1829.581232" stroke="black" stroke-width="6.48"/>
<line x1="1425.050035" y1="1927.61469" x2="1419.54723" y2="1964.505964" stroke="black" stroke-width="6.48"/>
<line x1="1352.707326" y1="1828.043453" x2="1426.167295" y2="1929.152473" stroke="black" stroke-width="6.48"/>
<line x1="1184.96358" y1="1920.547386" x2="1286.913722" y2="2060.869795" stroke="black" stroke-width="6.48"/>
<line x1="2320.068316" y1="2282.020693" x2="2350.787108" y2="2285.249375" stroke="black" stroke-width="6.48"/>
<line x1="2350.787108" y1="2285.249375" x2="2372.692478" y2="2076.83419" stroke="black" stroke-width="6.48"/>
<line x1="2372.692478" y1="2076.83419" x2="2341.973686" y2="2073.605508" stroke="black" stroke-width="6.48"/>
<line x1="2341.973686" y1="2073.605508" x2="2320.068316" y2="2282.020693" stroke="black" stroke-width="6.48"/>
<line x1="2522.812342" y1="2303.33" x2="2553.531131" y2="2306.558682" stroke="black" stroke-width="6.48"/>
<line x1="2553.531131" y1="2306.558682" x2="2575.436501" y2="2098.143497" stroke="black" stroke-width="6.48"/>
<line x1="2575.436501" y1="2098.143497" x2="2544.717712" y2="2094.914815" stroke="black" stroke-width="6.48"/>
<line x1="2544.717712" y1="2094.914815" x2="2522.812342" y2="2303.33" stroke="black" stroke-width="6.48"/>
<line x1="2350.314511" y1="2285.199702" x2="2522.812342" y2="2303.33" stroke="black" stroke-width="6.48"/>
<line x1="2371.647942" y1="2077.680038" x2="2400.845324" y2="2054.468851" stroke="black" stroke-width="6.48"/>
<line x1="2521.357506" y1="2067.135221" x2="2545.090963" y2="2095.909679" stroke="black" stroke-width="6.48"/>
<line x1="2398.954936" y1="2054.270164" x2="2523.247891" y2="2067.333908" stroke="black" stroke-width="6.48"/>
<line x1="2355.45628" y1="2240.825278" x2="2527.95411" y2="2258.955572" stroke="black" stroke-width="6.48"/>
<line x1="6197.760104" y1="1761.059945" x2="6011.833806" y2="1800.579798" stroke="black" stroke-width="6.48"/>
<line x1="6011.833806" y1="1800.579798" x2="6108.26225" y2="2254.239961" stroke="black" stroke-width="6.48"/>
<line x1="6108.26225" y1="2254.239961" x2="6294.188545" y2="2214.720108" stroke="black" stroke-width="6.48"/>
<line x1="6294.188545" y1="2214.720108" x2="6289.248564" y2="2191.479318" stroke="black" stroke-width="6.48"/>
<line x1="6289.248564" y1="2191.479318" x2="6125.633424" y2="2226.25679" stroke="black" stroke-width="6.48"/>
<line x1="6125.633424" y1="2226.25679" x2="6039.282542" y2="1820.007835" stroke="black" stroke-width="6.48"/>
<line x1="6039.282542" y1="1820.007835" x2="6202.897686" y2="1785.230363" stroke="black" stroke-width="6.48"/>
<line x1="6202.897686" y1="1785.230363" x2="6197.760104" y2="1761.059945" stroke="black" stroke-width="6.48"/>
<line x1="6197.319893" y1="1786.415958" x2="6283.670774" y2="2192.664913" stroke="black" stroke-width="6.48"/>
<line x1="6241.326167" y1="1988.878021" x2="6083.288816" y2="2022.469895" stroke="black" stroke-width="6.48"/>
<line x1="3840.070216" y1="1126.752433" x2="3836.305915" y2="1096.094668" stroke="black" stroke-width="6.48"/>
<line x1="3836.305915" y1="1096.094668" x2="3628.30477" y2="1121.633996" stroke="black" stroke-width="6.48"/>
<line x1="3628.30477" y1="1121.633996" x2="3632.06907" y2="1152.291762" stroke="black" stroke-width="6.48"/>
<line x1="3632.06907" y1="1152.291762" x2="3840.070216" y2="1126.752433" stroke="black" stroke-width="6.48"/>
<line x1="3815.225838" y1="924.411182" x2="3811.461538" y2="893.753417" stroke="black" stroke-width="6.48"/>
<line x1="3811.461538" y1="893.753417" x2="3603.460388" y2="919.292742" stroke="black" stroke-width="6.48"/>
<line x1="3603.460388" y1="919.292742" x2="3607.224689" y2="949.950508" stroke="black" stroke-width="6.48"/>
<line x1="3607.224689" y1="949.950508" x2="3815.225838" y2="924.411182" stroke="black" stroke-width="6.48"/>
<line x1="3836.363832" y1="1096.566325" x2="3815.225838" y2="924.411182" stroke="black" stroke-width="6.48"/>
<line x1="3629.363911" y1="1122.461489" x2="3600.179633" y2="1099.233821" stroke="black" stroke-width="6.48"/>
<line x1="3585.411994" y1="978.96105" x2="3608.110091" y2="949.363027" stroke="black" stroke-width="6.48"/>
<line x1="3600.411286" y1="1101.120451" x2="3585.180344" y2="977.074416" stroke="black" stroke-width="6.48"/>
<line x1="3791.970072" y1="1101.538426" x2="3770.832078" y2="929.383279" stroke="black" stroke-width="6.48"/>
<line x1="2970.397663" y1="2028.149618" x2="2899.192518" y2="2204.388756" stroke="black" stroke-width="6.48"/>
<line x1="2899.192518" y1="2204.388756" x2="3329.216014" y2="2378.129306" stroke="black" stroke-width="6.48"/>
<line x1="3329.216014" y1="2378.129306" x2="3400.421159" y2="2201.890169" stroke="black" stroke-width="6.48"/>
<line x1="3400.421159" y1="2201.890169" x2="3378.391268" y2="2192.989525" stroke="black" stroke-width="6.48"/>
<line x1="3378.391268" y1="2192.989525" x2="3315.730741" y2="2348.07997" stroke="black" stroke-width="6.48"/>
<line x1="3315.730741" y1="2348.07997" x2="2930.648224" y2="2192.496728" stroke="black" stroke-width="6.48"/>
<line x1="2930.648224" y1="2192.496728" x2="2993.308751" y2="2037.406288" stroke="black" stroke-width="6.48"/>
<line x1="2993.308751" y1="2037.406288" x2="2970.397663" y2="2028.149618" stroke="black" stroke-width="6.48"/>
<line x1="2991.172597" y1="2042.69346" x2="3376.255115" y2="2198.276701" stroke="black" stroke-width="6.48"/>
<line x1="3183.629281" y1="2119.425872" x2="3123.104911" y2="2269.229141" stroke="black" stroke-width="6.48"/>
</g>
</svg>
