<?xml version="1.0"?>
<svg xmlns:xlink="http://www.w3.org/1999/xlink" width="6775.2" height="2858.4">
<image x="0" y="0" width="6775.2" height="2858.4" xlink:href="groundfilled-01.png"/>
<g style="stroke-linecap:round">
<line x1="1285.950406" y1="795.178109" x2="1311.346069" y2="795.178109" stroke="black" stroke-width="6.48"/>
<line x1="1311.346069" y1="795.178109" x2="1311.346069" y2="745.625592" stroke="black" stroke-width="6.48"/>
<line x1="1311.346069" y1="745.625592" x2="1285.950406" y2="745.625592" stroke="black" stroke-width="6.48"/>
<line x1="1285.950406" y1="745.625592" x2="1285.950406" y2="795.178109" stroke="black" stroke-width="6.48"/>
<line x1="1559.728062" y1="745.625592" x2="1559.728062" y2="498.48241" stroke="black" stroke-width="6.48"/>
<line x1="1560.347471" y1="796.416923" x2="1585.743134" y2="796.416923" stroke="black" stroke-width="6.48"/>
<line x1="1585.743134" y1="796.416923" x2="1585.743134" y2="746.864406" stroke="black" stroke-width="6.48"/>
<line x1="1585.743134" y1="746.864406" x2="1560.347471" y2="746.864406" stroke="black" stroke-width="6.48"/>
<line x1="1560.347471" y1="746.864406" x2="1560.347471" y2="796.416923" stroke="black" stroke-width="6.48"/>
<path d="m 1311.346069,747.483811 a 248.38199299999997,248.38199299999997 0 0 1 248.38199299999997,-248.38199299999997" fill="none" stroke="black" stroke-width="6.48"/>
<line x1="330.523178" y1="771.328966" x2="330.523178" y2="366.748985" stroke="black" stroke-width="6.48"/>
<line x1="330.523178" y1="366.748985" x2="258.15928" y2="366.748985" stroke="black" stroke-width="6.48"/>
<line x1="258.15928" y1="366.748985" x2="258.15928" y2="771.328966" stroke="black" stroke-width="6.48"/>
<line x1="258.15928" y1="771.328966" x2="330.523178" y2="771.328966" stroke="black" stroke-width="6.48"/>
<line x1="330.523178" y1="752.415674" x2="355.19269" y2="752.415674" stroke="black" stroke-width="6.48"/>
<line x1="355.19269" y1="752.415674" x2="355.19269" y2="386.484595" stroke="black" stroke-width="6.48"/>
<line x1="330.523178" y1="386.484595" x2="355.19269" y2="386.484595" stroke="black" stroke-width="6.48"/>
<line x1="3901.945176" y1="1169.331426" x2="3901.945176" y2="1428.837066" stroke="black" stroke-width="6.48"/>
<line x1="3901.945176" y1="1428.837066" x2="3941.9501" y2="1428.837066" stroke="black" stroke-width="6.48"/>
<line x1="3941.9501" y1="1428.837066" x2="3941.9501" y2="1169.331426" stroke="black" stroke-width="6.48"/>
<line x1="3941.9501" y1="1169.331426" x2="3901.945176" y2="1169.331426" stroke="black" stroke-width="6.48"/>
<line x1="3941.423719" y1="1193.544936" x2="3902.471557" y2="1193.544936" stroke="black" stroke-width="6.48"/>
<line x1="3941.423719" y1="1404.097178" x2="3900.892414" y2="1404.097178" stroke="black" stroke-width="6.48"/>
<line x1="3923.000399" y1="1193.018555" x2="3923.000399" y2="1403.570797" stroke="black" stroke-width="6.48"/>
<line x1="334.430687" y1="1882.943946" x2="334.430687" y2="1457.437414" stroke="black" stroke-width="6.48"/>
<line x1="334.430687" y1="1457.437414" x2="258.323828" y2="1457.437414" stroke="black" stroke-width="6.48"/>
<line x1="258.323828" y1="1457.437414" x2="258.323828" y2="1882.943946" stroke="black" stroke-width="6.48"/>
<line x1="258.323828" y1="1882.943946" x2="334.430687" y2="1882.943946" stroke="black" stroke-width="6.48"/>
<line x1="334.430687" y1="1863.05238" x2="360.376207" y2="1863.05238" stroke="black" stroke-width="6.48"/>
<line x1="360.376207" y1="1863.05238" x2="360.376207" y2="1478.193829" stroke="black" stroke-width="6.48"/>
<line x1="334.430687" y1="1478.193829" x2="360.376207" y2="1478.193829" stroke="black" stroke-width="6.48"/>
<line x1="2747.905531" y1="904.670665" x2="2721.68303" y2="904.670665" stroke="black" stroke-width="6.48"/>
<line x1="2721.68303" y1="904.670665" x2="2721.68303" y2="955.836522" stroke="black" stroke-width="6.48"/>
<line x1="2721.68303" y1="955.836522" x2="2747.905531" y2="955.836522" stroke="black" stroke-width="6.48"/>
<line x1="2747.905531" y1="955.836522" x2="2747.905531" y2="904.670665" stroke="black" stroke-width="6.48"/>
<line x1="2465.214181" y1="955.836522" x2="2465.214181" y2="1211.026223" stroke="black" stroke-width="6.48"/>
<line x1="2464.574609" y1="903.39152" x2="2438.352108" y2="903.39152" stroke="black" stroke-width="6.48"/>
<line x1="2438.352108" y1="903.39152" x2="2438.352108" y2="954.557374" stroke="black" stroke-width="6.48"/>
<line x1="2438.352108" y1="954.557374" x2="2464.574609" y2="954.557374" stroke="black" stroke-width="6.48"/>
<line x1="2464.574609" y1="954.557374" x2="2464.574609" y2="903.39152" stroke="black" stroke-width="6.48"/>
<path d="m 2721.68303,953.917801 a 256.4688490000001,256.4688490000001 0 0 1 -256.4688490000003,256.46884899999986" fill="none" stroke="black" stroke-width="6.48"/>
<line x1="2420.532389" y1="1427.858834" x2="2395.136725" y2="1427.858834" stroke="black" stroke-width="6.48"/>
<line x1="2395.136725" y1="1427.858834" x2="2395.136725" y2="1477.411351" stroke="black" stroke-width="6.48"/>
<line x1="2395.136725" y1="1477.411351" x2="2420.532389" y2="1477.411351" stroke="black" stroke-width="6.48"/>
<line x1="2420.532389" y1="1477.411351" x2="2420.532389" y2="1427.858834" stroke="black" stroke-width="6.48"/>
<line x1="2146.754732" y1="1477.411351" x2="2146.754732" y2="1724.554534" stroke="black" stroke-width="6.48"/>
<line x1="2146.135324" y1="1426.62002" x2="2120.73966" y2="1426.62002" stroke="black" stroke-width="6.48"/>
<line x1="2120.73966" y1="1426.62002" x2="2120.73966" y2="1476.172537" stroke="black" stroke-width="6.48"/>
<line x1="2120.73966" y1="1476.172537" x2="2146.135324" y2="1476.172537" stroke="black" stroke-width="6.48"/>
<line x1="2146.135324" y1="1476.172537" x2="2146.135324" y2="1426.62002" stroke="black" stroke-width="6.48"/>
<path d="m 2395.136725,1475.553132 a 248.38199299999997,248.38199299999997 0 0 1 -248.38199299999997,248.38199299999997" fill="none" stroke="black" stroke-width="6.48"/>
<line x1="528.82853" y1="541.339351" x2="760.72613" y2="541.339351" stroke="black" stroke-width="6.48"/>
<line x1="760.72613" y1="541.339351" x2="760.72613" y2="773.712151" stroke="black" stroke-width="6.48"/>
<line x1="760.72613" y1="773.712151" x2="528.82853" y2="773.712151" stroke="black" stroke-width="6.48"/>
<line x1="528.82853" y1="773.712151" x2="528.82853" y2="541.339351" stroke="black" stroke-width="6.48"/>
<line x1="528.35333" y1="540.864151" x2="760.72613" y2="773.712151" stroke="black" stroke-width="6.48"/>
<line x1="528.82853" y1="773.236951" x2="760.25093" y2="541.339351" stroke="black" stroke-width="6.48"/>
<line x1="2032.924367" y1="1818.291708" x2="2032.924367" y2="1609.203708" stroke="black" stroke-width="6.48"/>
<line x1="2032.924367" y1="1609.203708" x2="1801.026767" y2="1609.203708" stroke="black" stroke-width="6.48"/>
<line x1="1801.026767" y1="1609.203708" x2="1801.026767" y2="1818.291708" stroke="black" stroke-width="6.48"/>
<line x1="1801.026767" y1="1818.291708" x2="2032.924367" y2="1818.291708" stroke="black" stroke-width="6.48"/>
<line x1="2000.610767" y1="1818.291708" x2="2000.610767" y2="1609.203708" stroke="black" stroke-width="6.48"/>
<line x1="1485.415969" y1="209.267824" x2="1707.693134" y2="209.267824" stroke="black" stroke-width="6.48"/>
<line x1="1707.693134" y1="209.267824" x2="1707.693134" y2="432.000475" stroke="black" stroke-width="6.48"/>
<line x1="1707.693134" y1="432.000475" x2="1485.415969" y2="432.000475" stroke="black" stroke-width="6.48"/>
<line x1="1485.415969" y1="432.000475" x2="1485.415969" y2="209.267824" stroke="black" stroke-width="6.48"/>
<line x1="1484.960483" y1="208.812337" x2="1707.693134" y2="432.000475" stroke="black" stroke-width="6.48"/>
<line x1="1485.415969" y1="431.544989" x2="1707.237648" y2="209.267824" stroke="black" stroke-width="6.48"/>
<line x1="2586.780558" y1="1803.366338" x2="2586.780558" y2="2194.614338" stroke="black" stroke-width="6.48"/>
<line x1="2586.780558" y1="2194.614338" x2="2761.020558" y2="2194.614338" stroke="black" stroke-width="6.48"/>
<line x1="2761.020558" y1="2194.614338" x2="2761.020558" y2="1803.366338" stroke="black" stroke-width="6.48"/>
<line x1="2761.020558" y1="1803.366338" x2="2586.780558" y2="1803.366338" stroke="black" stroke-width="6.48"/>
<line x1="2734.092558" y1="2119.374338" x2="2734.092558" y2="1835.046338" stroke="black" stroke-width="6.48"/>
<line x1="2734.092558" y1="1835.046338" x2="2616.084558" y2="1835.046338" stroke="black" stroke-width="6.48"/>
<line x1="2616.084558" y1="1835.046338" x2="2616.084558" y2="2124.918338" stroke="black" stroke-width="6.48"/>
<path d="m 2734.347982,2118.563766 a 63.35999941905905,63.35999941905905 0 0 1 -119.37432999999965,4.2938139999996565" fill="none" stroke="black" stroke-width="6.48"/>
<line x1="2081.329153" y1="1915.666056" x2="2056.777153" y2="1934.278056" stroke="black" stroke-width="6.48"/>
<line x1="2056.777153" y1="1934.278056" x2="2056.777153" y2="2081.590056" stroke="black" stroke-width="6.48"/>
<line x1="2056.777153" y1="2081.590056" x2="2084.893153" y2="2100.598056" stroke="black" stroke-width="6.48"/>
<line x1="2084.101153" y1="1937.446056" x2="2084.101153" y2="2080.402056" stroke="black" stroke-width="6.48"/>
<circle cx="2105.881153" cy="2006.746056" r="13.068000000000003" fill="none" stroke="black" stroke-width="6.48"/>
<path d="m 2083.433807,1938.999308 a 74.84400053362363,74.84400053362363 0 1 1 0.40204799999992247,139.60900500000025" fill="none" stroke="black" stroke-width="6.48"/>
<path d="m 2080.67179,1915.712359 a 95.43599857690594,95.43599857690594 0 1 1 3.0749580000001515,184.46699499999977" fill="none" stroke="black" stroke-width="6.48"/>
<line x1="945.667415" y1="210.063172" x2="1216.214615" y2="210.063172" stroke="black" stroke-width="6.48"/>
<line x1="1216.214615" y1="210.063172" x2="1216.214615" y2="342.010372" stroke="black" stroke-width="6.48"/>
<line x1="945.667415" y1="342.010372" x2="1216.214615" y2="342.010372" stroke="black" stroke-width="6.48"/>
<line x1="945.667415" y1="210.063172" x2="945.667415" y2="342.010372" stroke="black" stroke-width="6.48"/>
<line x1="952.320215" y1="216.715972" x2="1090.365815" y2="216.715972" stroke="black" stroke-width="6.48"/>
<line x1="1090.365815" y1="216.715972" x2="1090.365815" y2="334.803172" stroke="black" stroke-width="6.48"/>
<line x1="952.320215" y1="334.803172" x2="1090.365815" y2="334.803172" stroke="black" stroke-width="6.48"/>
<line x1="952.320215" y1="216.715972" x2="952.320215" y2="334.803172" stroke="black" stroke-width="6.48"/>
<line x1="1104.780215" y1="224.477572" x2="1201.800215" y2="224.477572" stroke="black" stroke-width="6.48"/>
<line x1="1104.780215" y1="244.990372" x2="1201.800215" y2="244.990372" stroke="black" stroke-width="6.48"/>
<line x1="1105.334615" y1="266.057572" x2="1202.354615" y2="266.057572" stroke="black" stroke-width="6.48"/>
<line x1="1105.334615" y1="286.570372" x2="1202.354615" y2="286.570372" stroke="black" stroke-width="6.48"/>
<line x1="1104.780215" y1="307.083172" x2="1201.800215" y2="307.083172" stroke="black" stroke-width="6.48"/>
<line x1="1104.780215" y1="327.595972" x2="1201.800215" y2="327.595972" stroke="black" stroke-width="6.48"/>
<line x1="1004.988215" y1="334.803172" x2="1004.988215" y2="320.943172" stroke="black" stroke-width="6.48"/>
<line x1="1004.988215" y1="320.943172" x2="1039.361015" y2="320.943172" stroke="black" stroke-width="6.48"/>
<line x1="1039.361015" y1="320.943172" x2="1039.361015" y2="334.248772" stroke="black" stroke-width="6.48"/>
<circle cx="1074.842615" cy="231.684772" r="8.316000000000003" fill="none" stroke="black" stroke-width="6.48"/>
<line x1="1049.595476" y1="1156.75393" x2="1022.192903" y2="1548.62901" stroke="black" stroke-width="6.48"/>
<line x1="1022.192903" y1="1548.62901" x2="1206.279382" y2="1561.501591" stroke="black" stroke-width="6.48"/>
<line x1="1206.279382" y1="1561.501591" x2="1233.681955" y2="1169.626511" stroke="black" stroke-width="6.48"/>
<line x1="1233.681955" y1="1169.626511" x2="1049.595476" y2="1156.75393" stroke="black" stroke-width="6.48"/>
<line x1="1222.577284" y1="1328.430726" x2="1303.164497" y2="1334.065936" stroke="black" stroke-width="6.48"/>
<line x1="1303.164497" y1="1334.065936" x2="1308.633962" y2="1255.848934" stroke="black" stroke-width="6.48"/>
<line x1="1308.633962" y1="1255.848934" x2="1228.046749" y2="1250.213728" stroke="black" stroke-width="6.48"/>
<line x1="1291.197161" y1="1255.423565" x2="1285.782941" y2="1332.850496" stroke="black" stroke-width="6.48"/>
<line x1="962.582987" y1="1231.650691" x2="957.113518" y2="1309.867693" stroke="black" stroke-width="6.48"/>
<line x1="957.113518" y1="1309.867693" x2="1038.490805" y2="1315.558145" stroke="black" stroke-width="6.48"/>
<line x1="1043.96027" y1="1237.341143" x2="962.582987" y2="1231.650691" stroke="black" stroke-width="6.48"/>
<line x1="979.909294" y1="1233.656197" x2="974.495074" y2="1311.083129" stroke="black" stroke-width="6.48"/>
<line x1="1212.025082" y1="1479.334234" x2="1292.612296" y2="1484.969443" stroke="black" stroke-width="6.48"/>
<line x1="1292.612296" y1="1484.969443" x2="1298.081761" y2="1406.752438" stroke="black" stroke-width="6.48"/>
<line x1="1298.081761" y1="1406.752438" x2="1217.494544" y2="1401.117232" stroke="black" stroke-width="6.48"/>
<line x1="1280.700205" y1="1405.537006" x2="1275.23074" y2="1483.754004" stroke="black" stroke-width="6.48"/>
<line x1="952.030782" y1="1382.554199" x2="946.561316" y2="1460.771201" stroke="black" stroke-width="6.48"/>
<line x1="946.561316" y1="1460.771201" x2="1027.938604" y2="1466.461656" stroke="black" stroke-width="6.48"/>
<line x1="1033.408069" y1="1388.244654" x2="952.030782" y2="1382.554199" stroke="black" stroke-width="6.48"/>
<line x1="969.412338" y1="1383.769638" x2="963.942872" y2="1461.986636" stroke="black" stroke-width="6.48"/>
<line x1="2044.889399" y1="955.822399" x2="2267.166564" y2="955.822399" stroke="black" stroke-width="6.48"/>
<line x1="2267.166564" y1="955.822399" x2="2267.166564" y2="1178.555051" stroke="black" stroke-width="6.48"/>
<line x1="2267.166564" y1="1178.555051" x2="2044.889399" y2="1178.555051" stroke="black" stroke-width="6.48"/>
<line x1="2044.889399" y1="1178.555051" x2="2044.889399" y2="955.822399" stroke="black" stroke-width="6.48"/>
<line x1="2044.433912" y1="955.366913" x2="2267.166564" y2="1178.555051" stroke="black" stroke-width="6.48"/>
<line x1="2044.889399" y1="1178.099564" x2="2266.711078" y2="955.822399" stroke="black" stroke-width="6.48"/>
<line x1="333.766206" y1="1375.361078" x2="333.766206" y2="949.854546" stroke="black" stroke-width="6.48"/>
<line x1="333.766206" y1="949.854546" x2="257.659348" y2="949.854546" stroke="black" stroke-width="6.48"/>
<line x1="257.659348" y1="949.854546" x2="257.659348" y2="1375.361078" stroke="black" stroke-width="6.48"/>
<line x1="257.659348" y1="1375.361078" x2="333.766206" y2="1375.361078" stroke="black" stroke-width="6.48"/>
<line x1="333.766206" y1="1355.469512" x2="359.711726" y2="1355.469512" stroke="black" stroke-width="6.48"/>
<line x1="359.711726" y1="1355.469512" x2="359.711726" y2="970.610962" stroke="black" stroke-width="6.48"/>
<line x1="333.766206" y1="970.610962" x2="359.711726" y2="970.610962" stroke="black" stroke-width="6.48"/>
<line x1="3874.406537" y1="1514.726719" x2="3874.406537" y2="1940.260162" stroke="black" stroke-width="6.48"/>
<line x1="3874.406537" y1="1940.260162" x2="3940.00601" y2="1940.260162" stroke="black" stroke-width="6.48"/>
<line x1="3940.00601" y1="1940.260162" x2="3940.00601" y2="1514.726719" stroke="black" stroke-width="6.48"/>
<line x1="3940.00601" y1="1514.726719" x2="3874.406537" y2="1514.726719" stroke="black" stroke-width="6.48"/>
<line x1="3939.14286" y1="1554.431663" x2="3875.269687" y2="1554.431663" stroke="black" stroke-width="6.48"/>
<line x1="3939.14286" y1="1899.692064" x2="3872.680232" y2="1899.692064" stroke="black" stroke-width="6.48"/>
<line x1="3908.932574" y1="1553.568512" x2="3908.932574" y2="1898.828914" stroke="black" stroke-width="6.48"/>
<line x1="5329.613347" y1="1997.894516" x2="5259.60805" y2="2109.926416" stroke="black" stroke-width="6.48"/>
<line x1="5259.60805" y1="2109.926416" x2="5247.51827" y2="2102.371888" stroke="black" stroke-width="6.48"/>
<line x1="5317.523575" y1="1990.339985" x2="5247.51827" y2="2102.371888" stroke="black" stroke-width="6.48"/>
<line x1="5329.613347" y1="1997.894516" x2="5317.523575" y2="1990.339985" stroke="black" stroke-width="6.48"/>
<line x1="5310.47268" y1="2001.623774" x2="5284.882451" y2="1983.391837" stroke="black" stroke-width="6.48"/>
<line x1="5254.569166" y1="2091.088098" x2="5226.158408" y2="2075.576468" stroke="black" stroke-width="6.48"/>
<line x1="4938.71067" y1="1753.631406" x2="4868.705365" y2="1865.663312" stroke="black" stroke-width="6.48"/>
<line x1="4868.705365" y1="1865.663312" x2="4879.989155" y2="1872.714208" stroke="black" stroke-width="6.48"/>
<line x1="4949.994456" y1="1760.682301" x2="4879.989155" y2="1872.714208" stroke="black" stroke-width="6.48"/>
<line x1="4938.71067" y1="1753.631406" x2="4949.994456" y2="1760.682301" stroke="black" stroke-width="6.48"/>
<line x1="4945.059166" y1="1772.167378" x2="4972.663944" y2="1787.175371" stroke="black" stroke-width="6.48"/>
<line x1="4889.155651" y1="1861.631701" x2="4915.048234" y2="1881.173257" stroke="black" stroke-width="6.48"/>
<line x1="5033.547389" y1="2161.426921" x2="5041.10192" y2="2149.337146" stroke="black" stroke-width="6.48"/>
<line x1="5041.10192" y1="2149.337146" x2="4929.070018" y2="2079.331844" stroke="black" stroke-width="6.48"/>
<line x1="4921.51549" y1="2091.421616" x2="4929.070018" y2="2079.331844" stroke="black" stroke-width="6.48"/>
<line x1="5033.547389" y1="2161.426921" x2="4921.51549" y2="2091.421616" stroke="black" stroke-width="6.48"/>
<line x1="4941.15979" y1="2086.886372" x2="4955.865437" y2="2057.971979" stroke="black" stroke-width="6.48"/>
<line x1="5029.818131" y1="2142.286254" x2="5048.553701" y2="2115.890035" stroke="black" stroke-width="6.48"/>
<line x1="5278.112849" y1="1771.833859" x2="5270.558317" y2="1783.923631" stroke="black" stroke-width="6.48"/>
<line x1="5270.558317" y1="1783.923631" x2="5158.526414" y2="1713.91833" stroke="black" stroke-width="6.48"/>
<line x1="5166.080942" y1="1701.828554" x2="5158.526414" y2="1713.91833" stroke="black" stroke-width="6.48"/>
<line x1="5278.112849" y1="1771.833859" x2="5166.080942" y2="1701.828554" stroke="black" stroke-width="6.48"/>
<line x1="5170.61619" y1="1721.472862" x2="5151.074634" y2="1747.36544" stroke="black" stroke-width="6.48"/>
<line x1="5259.274531" y1="1776.87274" x2="5243.762902" y2="1805.283497" stroke="black" stroke-width="6.48"/>
<circle cx="5099.814169" cy="1931.627736" r="191.98080000000002" fill="none" stroke="black" stroke-width="6.48"/>
<line x1="3490.610713" y1="1075.59158" x2="3699.975917" y2="1075.59158" stroke="black" stroke-width="6.48"/>
<line x1="3699.975917" y1="1075.59158" x2="3699.975917" y2="744.377177" stroke="black" stroke-width="6.48"/>
<line x1="3699.975917" y1="744.377177" x2="3490.610713" y2="744.377177" stroke="black" stroke-width="6.48"/>
<line x1="3490.610713" y1="744.377177" x2="3490.610713" y2="1075.59158" stroke="black" stroke-width="6.48"/>
<line x1="3489.937513" y1="803.618777" x2="3700.649113" y2="803.618777" stroke="black" stroke-width="6.48"/>
<line x1="3700.649113" y1="803.618777" x2="3491.283913" y2="853.43558" stroke="black" stroke-width="6.48"/>
<line x1="3491.283913" y1="853.43558" x2="3522.924317" y2="899.88638" stroke="black" stroke-width="6.48"/>
<line x1="3522.924317" y1="899.88638" x2="3700.649113" y2="802.94558" stroke="black" stroke-width="6.48"/>
<line x1="3285.777262" y1="1203.636992" x2="3508.054427" y2="1203.636992" stroke="black" stroke-width="6.48"/>
<line x1="3508.054427" y1="1203.636992" x2="3508.054427" y2="1426.369644" stroke="black" stroke-width="6.48"/>
<line x1="3508.054427" y1="1426.369644" x2="3285.777262" y2="1426.369644" stroke="black" stroke-width="6.48"/>
<line x1="3285.777262" y1="1426.369644" x2="3285.777262" y2="1203.636992" stroke="black" stroke-width="6.48"/>
<line x1="3285.321775" y1="1203.181506" x2="3508.054427" y2="1426.369644" stroke="black" stroke-width="6.48"/>
<line x1="3285.777262" y1="1425.914158" x2="3507.59894" y2="1203.636992" stroke="black" stroke-width="6.48"/>
<line x1="2804.16708" y1="1127.69402" x2="2804.16708" y2="1153.148746" stroke="black" stroke-width="6.48"/>
<line x1="2804.16708" y1="1153.148746" x2="2853.834836" y2="1153.148746" stroke="black" stroke-width="6.48"/>
<line x1="2853.834836" y1="1153.148746" x2="2853.834836" y2="1127.69402" stroke="black" stroke-width="6.48"/>
<line x1="2853.834836" y1="1127.69402" x2="2804.16708" y2="1127.69402" stroke="black" stroke-width="6.48"/>
<line x1="2853.834836" y1="1402.108373" x2="3101.55277" y2="1402.108373" stroke="black" stroke-width="6.48"/>
<line x1="2802.925386" y1="1402.729218" x2="2802.925386" y2="1428.183943" stroke="black" stroke-width="6.48"/>
<line x1="2802.925386" y1="1428.183943" x2="2852.593142" y2="1428.183943" stroke="black" stroke-width="6.48"/>
<line x1="2852.593142" y1="1428.183943" x2="2852.593142" y2="1402.729218" stroke="black" stroke-width="6.48"/>
<line x1="2852.593142" y1="1402.729218" x2="2802.925386" y2="1402.729218" stroke="black" stroke-width="6.48"/>
<path d="m 2851.972294,1153.148746 a 248.95962699999984,248.95962699999984 0 0 1 248.95962699999973,248.95962699999995" fill="none" stroke="black" stroke-width="6.48"/>
<line x1="3710.607462" y1="1781.561563" x2="3567.837042" y2="1964.299367" stroke="black" stroke-width="6.48"/>
<line x1="3567.837042" y1="1964.299367" x2="3384.724777" y2="1821.236382" stroke="black" stroke-width="6.48"/>
<line x1="3384.724777" y1="1821.236382" x2="3527.495197" y2="1638.498578" stroke="black" stroke-width="6.48"/>
<line x1="3527.495197" y1="1638.498578" x2="3710.607462" y2="1781.561563" stroke="black" stroke-width="6.48"/>
<line x1="3711.274488" y1="1781.479663" x2="3384.724777" y2="1821.236382" stroke="black" stroke-width="6.48"/>
<line x1="3527.869658" y1="1638.791143" x2="3568.129603" y2="1963.924902" stroke="black" stroke-width="6.48"/>
<line x1="3100.358268" y1="1589.315879" x2="3083.535454" y2="1615.220741" stroke="black" stroke-width="6.48"/>
<line x1="3083.535454" y1="1615.220741" x2="3259.289945" y2="1729.357034" stroke="black" stroke-width="6.48"/>
<line x1="3259.289945" y1="1729.357034" x2="3276.112752" y2="1703.45218" stroke="black" stroke-width="6.48"/>
<line x1="3276.112752" y1="1703.45218" x2="3100.358268" y2="1589.315879" stroke="black" stroke-width="6.48"/>
<line x1="2989.327716" y1="1760.287936" x2="2972.504909" y2="1786.19279" stroke="black" stroke-width="6.48"/>
<line x1="2972.504909" y1="1786.19279" x2="3148.259393" y2="1900.329088" stroke="black" stroke-width="6.48"/>
<line x1="3148.259393" y1="1900.329088" x2="3165.082207" y2="1874.424233" stroke="black" stroke-width="6.48"/>
<line x1="3165.082207" y1="1874.424233" x2="2989.327716" y2="1760.287936" stroke="black" stroke-width="6.48"/>
<line x1="3083.794268" y1="1614.822199" x2="2989.327716" y2="1760.287936" stroke="black" stroke-width="6.48"/>
<line x1="3259.010495" y1="1728.04234" x2="3266.436492" y2="1764.595055" stroke="black" stroke-width="6.48"/>
<line x1="3200.439312" y1="1866.221798" x2="3164.02632" y2="1874.305145" stroke="black" stroke-width="6.48"/>
<line x1="3267.47174" y1="1763.00091" x2="3199.40406" y2="1867.815943" stroke="black" stroke-width="6.48"/>
<line x1="3120.997864" y1="1639.549109" x2="3026.531315" y2="1785.014842" stroke="black" stroke-width="6.48"/>
<line x1="953.555094" y1="1878.112433" x2="1018.166785" y2="2076.966954" stroke="black" stroke-width="6.48"/>
<line x1="1018.166785" y1="2076.966954" x2="1238.714525" y2="2005.306715" stroke="black" stroke-width="6.48"/>
<line x1="1238.714525" y1="2005.306715" x2="1174.102834" y2="1806.452186" stroke="black" stroke-width="6.48"/>
<line x1="1174.102834" y1="1806.452186" x2="953.555094" y2="1878.112433" stroke="black" stroke-width="6.48"/>
<line x1="984.287153" y1="1868.12699" x2="1048.898848" y2="2066.981512" stroke="black" stroke-width="6.48"/>
<line x1="497.762996" y1="208.968048" x2="768.310196" y2="208.968048" stroke="black" stroke-width="6.48"/>
<line x1="768.310196" y1="208.968048" x2="768.310196" y2="340.915248" stroke="black" stroke-width="6.48"/>
<line x1="497.762996" y1="340.915248" x2="768.310196" y2="340.915248" stroke="black" stroke-width="6.48"/>
<line x1="497.762996" y1="208.968048" x2="497.762996" y2="340.915248" stroke="black" stroke-width="6.48"/>
<line x1="504.415796" y1="215.620848" x2="642.461396" y2="215.620848" stroke="black" stroke-width="6.48"/>
<line x1="642.461396" y1="215.620848" x2="642.461396" y2="333.708048" stroke="black" stroke-width="6.48"/>
<line x1="504.415796" y1="333.708048" x2="642.461396" y2="333.708048" stroke="black" stroke-width="6.48"/>
<line x1="504.415796" y1="215.620848" x2="504.415796" y2="333.708048" stroke="black" stroke-width="6.48"/>
<line x1="656.875796" y1="223.382448" x2="753.895796" y2="223.382448" stroke="black" stroke-width="6.48"/>
<line x1="656.875796" y1="243.895248" x2="753.895796" y2="243.895248" stroke="black" stroke-width="6.48"/>
<line x1="657.430196" y1="264.962448" x2="754.450196" y2="264.962448" stroke="black" stroke-width="6.48"/>
<line x1="657.430196" y1="285.475248" x2="754.450196" y2="285.475248" stroke="black" stroke-width="6.48"/>
<line x1="656.875796" y1="305.988048" x2="753.895796" y2="305.988048" stroke="black" stroke-width="6.48"/>
<line x1="656.875796" y1="326.500848" x2="753.895796" y2="326.500848" stroke="black" stroke-width="6.48"/>
<line x1="557.083796" y1="333.708048" x2="557.083796" y2="319.848048" stroke="black" stroke-width="6.48"/>
<line x1="557.083796" y1="319.848048" x2="591.456596" y2="319.848048" stroke="black" stroke-width="6.48"/>
<line x1="591.456596" y1="319.848048" x2="591.456596" y2="333.153648" stroke="black" stroke-width="6.48"/>
<circle cx="626.938196" cy="230.589648" r="8.316000000000003" fill="none" stroke="black" stroke-width="6.48"/>
</g>
</svg>
