<?xml version="1.0"?>
<svg xmlns:xlink="http://www.w3.org/1999/xlink" width="6775.2" height="2858.4">
<image x="0" y="0" width="6775.2" height="2858.4" xlink:href="groundfilled-01.png"/>
<g style="stroke-linecap:round">
<line x1="1285.950406" y1="795.178109" x2="1311.346069" y2="795.178109" stroke="black" stroke-width="6.48"/>
<line x1="1311.346069" y1="795.178109" x2="1311.346069" y2="745.625592" stroke="black" stroke-width="6.48"/>
<line x1="1311.346069" y1="745.625592" x2="1285.950406" y2="745.625592" stroke="black" stroke-width="6.48"/>
<line x1="1285.950406" y1="745.625592" x2="1285.950406" y2="795.178109" stroke="black" stroke-width="6.48"/>
<line x1="1559.728062" y1="745.625592" x2="1559.728062" y2="498.48241" stroke="black" stroke-width="6.48"/>
<line x1="1560.347471" y1="796.416923" x2="1585.743134" y2="796.416923" stroke="black" stroke-width="6.48"/>
<line x1="1585.743134" y1="796.416923" x2="1585.743134" y2="746.864406" stroke="black" stroke-width="6.48"/>
<line x1="1585.743134" y1="746.864406" x2="1560.347471" y2="746.864406" stroke="black" stroke-width="6.48"/>
<line x1="1560.347471" y1="746.864406" x2="1560.347471" y2="796.416923" stroke="black" stroke-width="6.48"/>
<path d="m 1311.346069,747.483811 a 248.38199299999997,248.38199299999997 0 0 1 248.38199299999997,-248.38199299999997" fill="none" stroke="black" stroke-width="6.48"/>
<line x1="320.532556" y1="771.34176" x2="320.532556" y2="366.736194" stroke="black" stroke-width="6.48"/>
<line x1="320.532556" y1="366.736194" x2="258.159283" y2="366.736194" stroke="black" stroke-width="6.48"/>
<line x1="258.159283" y1="366.736194" x2="258.159283" y2="771.34176" stroke="black" stroke-width="6.48"/>
<line x1="258.159283" y1="771.34176" x2="320.532556" y2="771.34176" stroke="black" stroke-width="6.48"/>
<line x1="258.979986" y1="733.589518" x2="319.711856" y2="733.589518" stroke="black" stroke-width="6.48"/>
<line x1="258.979986" y1="405.309139" x2="322.173958" y2="405.309139" stroke="black" stroke-width="6.48"/>
<line x1="287.704519" y1="734.410217" x2="287.704519" y2="406.129838" stroke="black" stroke-width="6.48"/>
<line x1="3901.945176" y1="1169.331426" x2="3901.945176" y2="1428.837066" stroke="black" stroke-width="6.48"/>
<line x1="3901.945176" y1="1428.837066" x2="3941.9501" y2="1428.837066" stroke="black" stroke-width="6.48"/>
<line x1="3941.9501" y1="1428.837066" x2="3941.9501" y2="1169.331426" stroke="black" stroke-width="6.48"/>
<line x1="3941.9501" y1="1169.331426" x2="3901.945176" y2="1169.331426" stroke="black" stroke-width="6.48"/>
<line x1="3941.423719" y1="1193.544936" x2="3902.471557" y2="1193.544936" stroke="black" stroke-width="6.48"/>
<line x1="3941.423719" y1="1404.097178" x2="3900.892414" y2="1404.097178" stroke="black" stroke-width="6.48"/>
<line x1="3923.000399" y1="1193.018555" x2="3923.000399" y2="1403.570797" stroke="black" stroke-width="6.48"/>
<line x1="334.430687" y1="1882.943946" x2="334.430687" y2="1457.437414" stroke="black" stroke-width="6.48"/>
<line x1="334.430687" y1="1457.437414" x2="258.323828" y2="1457.437414" stroke="black" stroke-width="6.48"/>
<line x1="258.323828" y1="1457.437414" x2="258.323828" y2="1882.943946" stroke="black" stroke-width="6.48"/>
<line x1="258.323828" y1="1882.943946" x2="334.430687" y2="1882.943946" stroke="black" stroke-width="6.48"/>
<line x1="334.430687" y1="1863.05238" x2="360.376207" y2="1863.05238" stroke="black" stroke-width="6.48"/>
<line x1="360.376207" y1="1863.05238" x2="360.376207" y2="1478.193829" stroke="black" stroke-width="6.48"/>
<line x1="334.430687" y1="1478.193829" x2="360.376207" y2="1478.193829" stroke="black" stroke-width="6.48"/>
<line x1="2747.905531" y1="904.670665" x2="2721.68303" y2="904.670665" stroke="black" stroke-width="6.48"/>
<line x1="2721.68303" y1="904.670665" x2="2721.68303" y2="955.836522" stroke="black" stroke-width="6.48"/>
<line x1="2721.68303" y1="955.836522" x2="2747.905531" y2="955.836522" stroke="black" stroke-width="6.48"/>
<line x1="2747.905531" y1="955.836522" x2="2747.905531" y2="904.670665" stroke="black" stroke-width="6.48"/>
<line x1="2465.214181" y1="955.836522" x2="2465.214181" y2="1211.026223" stroke="black" stroke-width="6.48"/>
<line x1="2464.574609" y1="903.39152" x2="2438.352108" y2="903.39152" stroke="black" stroke-width="6.48"/>
<line x1="2438.352108" y1="903.39152" x2="2438.352108" y2="954.557374" stroke="black" stroke-width="6.48"/>
<line x1="2438.352108" y1="954.557374" x2="2464.574609" y2="954.557374" stroke="black" stroke-width="6.48"/>
<line x1="2464.574609" y1="954.557374" x2="2464.574609" y2="903.39152" stroke="black" stroke-width="6.48"/>
<path d="m 2721.68303,953.917801 a 256.4688490000001,256.4688490000001 0 0 1 -256.4688490000003,256.46884899999986" fill="none" stroke="black" stroke-width="6.48"/>
<line x1="2420.532389" y1="1427.858834" x2="2395.136725" y2="1427.858834" stroke="black" stroke-width="6.48"/>
<line x1="2395.136725" y1="1427.858834" x2="2395.136725" y2="1477.411351" stroke="black" stroke-width="6.48"/>
<line x1="2395.136725" y1="1477.411351" x2="2420.532389" y2="1477.411351" stroke="black" stroke-width="6.48"/>
<line x1="2420.532389" y1="1477.411351" x2="2420.532389" y2="1427.858834" stroke="black" stroke-width="6.48"/>
<line x1="2146.754732" y1="1477.411351" x2="2146.754732" y2="1724.554534" stroke="black" stroke-width="6.48"/>
<line x1="2146.135324" y1="1426.62002" x2="2120.73966" y2="1426.62002" stroke="black" stroke-width="6.48"/>
<line x1="2120.73966" y1="1426.62002" x2="2120.73966" y2="1476.172537" stroke="black" stroke-width="6.48"/>
<line x1="2120.73966" y1="1476.172537" x2="2146.135324" y2="1476.172537" stroke="black" stroke-width="6.48"/>
<line x1="2146.135324" y1="1476.172537" x2="2146.135324" y2="1426.62002" stroke="black" stroke-width="6.48"/>
<path d="m 2395.136725,1475.553132 a 248.38199299999997,248.38199299999997 0 0 1 -248.38199299999997,248.38199299999997" fill="none" stroke="black" stroke-width="6.48"/>
<line x1="752.426399" y1="541.339351" x2="984.323999" y2="541.339351" stroke="black" stroke-width="6.48"/>
<line x1="984.323999" y1="541.339351" x2="984.323999" y2="773.712151" stroke="black" stroke-width="6.48"/>
<line x1="984.323999" y1="773.712151" x2="752.426399" y2="773.712151" stroke="black" stroke-width="6.48"/>
<line x1="752.426399" y1="773.712151" x2="752.426399" y2="541.339351" stroke="black" stroke-width="6.48"/>
<line x1="751.951199" y1="540.864151" x2="984.323999" y2="773.712151" stroke="black" stroke-width="6.48"/>
<line x1="752.426399" y1="773.236951" x2="983.848799" y2="541.339351" stroke="black" stroke-width="6.48"/>
<line x1="1842.844367" y1="2054.214166" x2="2032.924367" y2="2054.214166" stroke="black" stroke-width="6.48"/>
<line x1="2032.924367" y1="2054.214166" x2="2032.924367" y2="1590.418966" stroke="black" stroke-width="6.48"/>
<line x1="2032.924367" y1="1590.418966" x2="1842.844367" y2="1590.418966" stroke="black" stroke-width="6.48"/>
<line x1="1842.844367" y1="1590.418966" x2="1842.844367" y2="1614.178966" stroke="black" stroke-width="6.48"/>
<line x1="1842.844367" y1="1614.178966" x2="2010.114767" y2="1614.178966" stroke="black" stroke-width="6.48"/>
<line x1="2010.114767" y1="1614.178966" x2="2010.114767" y2="2029.503766" stroke="black" stroke-width="6.48"/>
<line x1="2010.114767" y1="2029.503766" x2="1842.844367" y2="2029.503766" stroke="black" stroke-width="6.48"/>
<line x1="1842.844367" y1="2029.503766" x2="1842.844367" y2="2054.214166" stroke="black" stroke-width="6.48"/>
<line x1="1848.546767" y1="2029.503766" x2="1848.546767" y2="1614.178966" stroke="black" stroke-width="6.48"/>
<line x1="1847.596367" y1="1822.316566" x2="2009.164367" y2="1822.316566" stroke="black" stroke-width="6.48"/>
<line x1="1485.415969" y1="209.267824" x2="1707.693134" y2="209.267824" stroke="black" stroke-width="6.48"/>
<line x1="1707.693134" y1="209.267824" x2="1707.693134" y2="432.000475" stroke="black" stroke-width="6.48"/>
<line x1="1707.693134" y1="432.000475" x2="1485.415969" y2="432.000475" stroke="black" stroke-width="6.48"/>
<line x1="1485.415969" y1="432.000475" x2="1485.415969" y2="209.267824" stroke="black" stroke-width="6.48"/>
<line x1="1484.960483" y1="208.812337" x2="1707.693134" y2="432.000475" stroke="black" stroke-width="6.48"/>
<line x1="1485.415969" y1="431.544989" x2="1707.237648" y2="209.267824" stroke="black" stroke-width="6.48"/>
<line x1="2761.020558" y1="2194.614338" x2="2761.020558" y2="1803.366338" stroke="black" stroke-width="6.48"/>
<line x1="2761.020558" y1="1803.366338" x2="2586.780558" y2="1803.366338" stroke="black" stroke-width="6.48"/>
<line x1="2586.780558" y1="1803.366338" x2="2586.780558" y2="2194.614338" stroke="black" stroke-width="6.48"/>
<line x1="2586.780558" y1="2194.614338" x2="2761.020558" y2="2194.614338" stroke="black" stroke-width="6.48"/>
<line x1="2613.708558" y1="1878.606338" x2="2613.708558" y2="2162.934338" stroke="black" stroke-width="6.48"/>
<line x1="2613.708558" y1="2162.934338" x2="2731.716558" y2="2162.934338" stroke="black" stroke-width="6.48"/>
<line x1="2731.716558" y1="2162.934338" x2="2731.716558" y2="1873.062338" stroke="black" stroke-width="6.48"/>
<path d="m 2613.453134,1879.416911 a 63.3599990854681,63.3599990854681 0 0 1 119.3743300000001,-4.293814000000111" fill="none" stroke="black" stroke-width="6.48"/>
<line x1="2081.005942" y1="1874.941445" x2="2056.453942" y2="1893.553445" stroke="black" stroke-width="6.48"/>
<line x1="2056.453942" y1="1893.553445" x2="2056.453942" y2="2040.865445" stroke="black" stroke-width="6.48"/>
<line x1="2056.453942" y1="2040.865445" x2="2084.569942" y2="2059.873445" stroke="black" stroke-width="6.48"/>
<line x1="2083.777942" y1="1896.721445" x2="2083.777942" y2="2039.677445" stroke="black" stroke-width="6.48"/>
<circle cx="2105.557942" cy="1966.021445" r="13.068000000000003" fill="none" stroke="black" stroke-width="6.48"/>
<path d="m 2083.110595,1898.274697 a 74.84400089539008,74.84400089539008 0 1 1 0.40204799999992247,139.60900500000002" fill="none" stroke="black" stroke-width="6.48"/>
<path d="m 2080.348578,1874.987748 a 95.43599883324397,95.43599883324397 0 1 1 3.0749579999996968,184.46699499999977" fill="none" stroke="black" stroke-width="6.48"/>
<line x1="977.867485" y1="211.296485" x2="1371.111358" y2="211.296485" stroke="black" stroke-width="6.48"/>
<line x1="1375.066764" y1="210.300203" x2="1375.066764" y2="346.368978" stroke="black" stroke-width="6.48"/>
<line x1="978.331874" y1="347.520485" x2="1375.372105" y2="347.520485" stroke="black" stroke-width="6.48"/>
<line x1="979.066764" y1="211.991234" x2="979.066764" y2="347.255291" stroke="black" stroke-width="6.48"/>
<line x1="989.362764" y1="222.384485" x2="1112.914764" y2="222.384485" stroke="black" stroke-width="6.48"/>
<line x1="1112.914764" y1="222.384485" x2="1112.914764" y2="336.432485" stroke="black" stroke-width="6.48"/>
<line x1="989.362764" y1="336.432485" x2="1112.914764" y2="336.432485" stroke="black" stroke-width="6.48"/>
<line x1="989.362764" y1="222.384485" x2="989.362764" y2="336.432485" stroke="black" stroke-width="6.48"/>
<line x1="1131.922764" y1="229.512485" x2="1219.042764" y2="229.512485" stroke="black" stroke-width="6.48"/>
<line x1="1131.922764" y1="249.312485" x2="1219.042764" y2="249.312485" stroke="black" stroke-width="6.48"/>
<line x1="1132.714764" y1="269.904485" x2="1219.042764" y2="269.904485" stroke="black" stroke-width="6.48"/>
<line x1="1132.714764" y1="289.704485" x2="1219.042764" y2="289.704485" stroke="black" stroke-width="6.48"/>
<line x1="1131.922764" y1="309.504485" x2="1219.042764" y2="309.504485" stroke="black" stroke-width="6.48"/>
<line x1="1131.922764" y1="329.304485" x2="1219.042764" y2="329.304485" stroke="black" stroke-width="6.48"/>
<line x1="1036.882764" y1="335.640485" x2="1036.882764" y2="322.176485" stroke="black" stroke-width="6.48"/>
<line x1="1036.882764" y1="322.176485" x2="1066.978764" y2="322.176485" stroke="black" stroke-width="6.48"/>
<line x1="1066.978764" y1="322.176485" x2="1066.978764" y2="334.848485" stroke="black" stroke-width="6.48"/>
<line x1="1239.634764" y1="222.384485" x2="1363.186764" y2="222.384485" stroke="black" stroke-width="6.48"/>
<line x1="1363.186764" y1="222.384485" x2="1363.186764" y2="336.432485" stroke="black" stroke-width="6.48"/>
<line x1="1239.634764" y1="336.432485" x2="1363.186764" y2="336.432485" stroke="black" stroke-width="6.48"/>
<line x1="1239.634764" y1="222.384485" x2="1239.634764" y2="336.432485" stroke="black" stroke-width="6.48"/>
<line x1="1287.154764" y1="336.432485" x2="1287.154764" y2="322.968485" stroke="black" stroke-width="6.48"/>
<line x1="1287.154764" y1="322.968485" x2="1317.250764" y2="322.968485" stroke="black" stroke-width="6.48"/>
<line x1="1317.250764" y1="322.968485" x2="1317.250764" y2="335.640485" stroke="black" stroke-width="6.48"/>
<circle cx="1098.658764" cy="236.640485" r="7.128000000000001" fill="none" stroke="black" stroke-width="6.48"/>
<circle cx="1348.930764" cy="237.432485" r="7.128000000000001" fill="none" stroke="black" stroke-width="6.48"/>
<line x1="2044.889399" y1="955.822399" x2="2267.166564" y2="955.822399" stroke="black" stroke-width="6.48"/>
<line x1="2267.166564" y1="955.822399" x2="2267.166564" y2="1178.555051" stroke="black" stroke-width="6.48"/>
<line x1="2267.166564" y1="1178.555051" x2="2044.889399" y2="1178.555051" stroke="black" stroke-width="6.48"/>
<line x1="2044.889399" y1="1178.555051" x2="2044.889399" y2="955.822399" stroke="black" stroke-width="6.48"/>
<line x1="2044.433912" y1="955.366913" x2="2267.166564" y2="1178.555051" stroke="black" stroke-width="6.48"/>
<line x1="2044.889399" y1="1178.099564" x2="2266.711078" y2="955.822399" stroke="black" stroke-width="6.48"/>
<line x1="333.766206" y1="1375.361078" x2="333.766206" y2="949.854546" stroke="black" stroke-width="6.48"/>
<line x1="333.766206" y1="949.854546" x2="257.659348" y2="949.854546" stroke="black" stroke-width="6.48"/>
<line x1="257.659348" y1="949.854546" x2="257.659348" y2="1375.361078" stroke="black" stroke-width="6.48"/>
<line x1="257.659348" y1="1375.361078" x2="333.766206" y2="1375.361078" stroke="black" stroke-width="6.48"/>
<line x1="333.766206" y1="1355.469512" x2="359.711726" y2="1355.469512" stroke="black" stroke-width="6.48"/>
<line x1="359.711726" y1="1355.469512" x2="359.711726" y2="970.610962" stroke="black" stroke-width="6.48"/>
<line x1="333.766206" y1="970.610962" x2="359.711726" y2="970.610962" stroke="black" stroke-width="6.48"/>
<line x1="3874.406537" y1="1514.726719" x2="3874.406537" y2="1940.260162" stroke="black" stroke-width="6.48"/>
<line x1="3874.406537" y1="1940.260162" x2="3940.00601" y2="1940.260162" stroke="black" stroke-width="6.48"/>
<line x1="3940.00601" y1="1940.260162" x2="3940.00601" y2="1514.726719" stroke="black" stroke-width="6.48"/>
<line x1="3940.00601" y1="1514.726719" x2="3874.406537" y2="1514.726719" stroke="black" stroke-width="6.48"/>
<line x1="3939.14286" y1="1554.431663" x2="3875.269687" y2="1554.431663" stroke="black" stroke-width="6.48"/>
<line x1="3939.14286" y1="1899.692064" x2="3872.680232" y2="1899.692064" stroke="black" stroke-width="6.48"/>
<line x1="3908.932574" y1="1553.568512" x2="3908.932574" y2="1898.828914" stroke="black" stroke-width="6.48"/>
<line x1="4747.786441" y1="1109.358821" x2="4539.617197" y2="1442.49925" stroke="black" stroke-width="6.48"/>
<line x1="4539.617197" y1="1442.49925" x2="4696.112599" y2="1540.288433" stroke="black" stroke-width="6.48"/>
<line x1="4696.112599" y1="1540.288433" x2="4904.281843" y2="1207.148004" stroke="black" stroke-width="6.48"/>
<line x1="4904.281843" y1="1207.148004" x2="4747.786441" y2="1109.358821" stroke="black" stroke-width="6.48"/>
<line x1="4819.922939" y1="1342.150474" x2="4888.431655" y2="1384.95947" stroke="black" stroke-width="6.48"/>
<line x1="4888.431655" y1="1384.95947" x2="4929.981563" y2="1318.465717" stroke="black" stroke-width="6.48"/>
<line x1="4929.981563" y1="1318.465717" x2="4861.472846" y2="1275.65672" stroke="black" stroke-width="6.48"/>
<line x1="4914.785477" y1="1309.90406" x2="4873.655264" y2="1375.726158" stroke="black" stroke-width="6.48"/>
<line x1="4635.797072" y1="1134.638842" x2="4594.247161" y2="1201.132602" stroke="black" stroke-width="6.48"/>
<line x1="4594.247161" y1="1201.132602" x2="4663.42753" y2="1244.36129" stroke="black" stroke-width="6.48"/>
<line x1="4704.977444" y1="1177.867537" x2="4635.797072" y2="1134.638842" stroke="black" stroke-width="6.48"/>
<line x1="4650.153764" y1="1144.543813" x2="4609.023552" y2="1210.365911" stroke="black" stroke-width="6.48"/>
<line x1="4739.76099" y1="1470.436405" x2="4808.269706" y2="1513.245402" stroke="black" stroke-width="6.48"/>
<line x1="4808.269706" y1="1513.245402" x2="4849.819614" y2="1446.751649" stroke="black" stroke-width="6.48"/>
<line x1="4849.819614" y1="1446.751649" x2="4781.310898" y2="1403.942648" stroke="black" stroke-width="6.48"/>
<line x1="4835.043227" y1="1437.518333" x2="4793.493316" y2="1504.012093" stroke="black" stroke-width="6.48"/>
<line x1="4555.635124" y1="1262.924777" x2="4514.085216" y2="1329.41853" stroke="black" stroke-width="6.48"/>
<line x1="4514.085216" y1="1329.41853" x2="4583.265588" y2="1372.647226" stroke="black" stroke-width="6.48"/>
<line x1="4624.815496" y1="1306.153469" x2="4555.635124" y2="1262.924777" stroke="black" stroke-width="6.48"/>
<line x1="4570.411514" y1="1272.158086" x2="4528.861603" y2="1338.651846" stroke="black" stroke-width="6.48"/>
<line x1="3113.21804" y1="1074.34606" x2="3322.583244" y2="1074.34606" stroke="black" stroke-width="6.48"/>
<line x1="3322.583244" y1="1074.34606" x2="3322.583244" y2="743.131656" stroke="black" stroke-width="6.48"/>
<line x1="3322.583244" y1="743.131656" x2="3113.21804" y2="743.131656" stroke="black" stroke-width="6.48"/>
<line x1="3113.21804" y1="743.131656" x2="3113.21804" y2="1074.34606" stroke="black" stroke-width="6.48"/>
<line x1="3112.54484" y1="802.373256" x2="3323.25644" y2="802.373256" stroke="black" stroke-width="6.48"/>
<line x1="3323.25644" y1="802.373256" x2="3113.89124" y2="852.19006" stroke="black" stroke-width="6.48"/>
<line x1="3113.89124" y1="852.19006" x2="3145.531644" y2="898.64086" stroke="black" stroke-width="6.48"/>
<line x1="3145.531644" y1="898.64086" x2="3323.25644" y2="801.70006" stroke="black" stroke-width="6.48"/>
<line x1="3375.671141" y1="1203.27305" x2="3597.948306" y2="1203.27305" stroke="black" stroke-width="6.48"/>
<line x1="3597.948306" y1="1203.27305" x2="3597.948306" y2="1426.005702" stroke="black" stroke-width="6.48"/>
<line x1="3597.948306" y1="1426.005702" x2="3375.671141" y2="1426.005702" stroke="black" stroke-width="6.48"/>
<line x1="3375.671141" y1="1426.005702" x2="3375.671141" y2="1203.27305" stroke="black" stroke-width="6.48"/>
<line x1="3375.215654" y1="1202.817564" x2="3597.948306" y2="1426.005702" stroke="black" stroke-width="6.48"/>
<line x1="3375.671141" y1="1425.550216" x2="3597.49282" y2="1203.27305" stroke="black" stroke-width="6.48"/>
<line x1="2804.16708" y1="1127.69402" x2="2804.16708" y2="1153.148746" stroke="black" stroke-width="6.48"/>
<line x1="2804.16708" y1="1153.148746" x2="2853.834836" y2="1153.148746" stroke="black" stroke-width="6.48"/>
<line x1="2853.834836" y1="1153.148746" x2="2853.834836" y2="1127.69402" stroke="black" stroke-width="6.48"/>
<line x1="2853.834836" y1="1127.69402" x2="2804.16708" y2="1127.69402" stroke="black" stroke-width="6.48"/>
<line x1="2853.834836" y1="1402.108373" x2="3101.55277" y2="1402.108373" stroke="black" stroke-width="6.48"/>
<line x1="2802.925386" y1="1402.729218" x2="2802.925386" y2="1428.183943" stroke="black" stroke-width="6.48"/>
<line x1="2802.925386" y1="1428.183943" x2="2852.593142" y2="1428.183943" stroke="black" stroke-width="6.48"/>
<line x1="2852.593142" y1="1428.183943" x2="2852.593142" y2="1402.729218" stroke="black" stroke-width="6.48"/>
<line x1="2852.593142" y1="1402.729218" x2="2802.925386" y2="1402.729218" stroke="black" stroke-width="6.48"/>
<path d="m 2851.972294,1153.148746 a 248.95962699999984,248.95962699999984 0 0 1 248.95962699999973,248.95962699999995" fill="none" stroke="black" stroke-width="6.48"/>
<line x1="2984.466542" y1="2034.938671" x2="2913.261397" y2="2211.177809" stroke="black" stroke-width="6.48"/>
<line x1="2913.261397" y1="2211.177809" x2="3343.284893" y2="2384.918359" stroke="black" stroke-width="6.48"/>
<line x1="3343.284893" y1="2384.918359" x2="3414.490038" y2="2208.679222" stroke="black" stroke-width="6.48"/>
<line x1="3414.490038" y1="2208.679222" x2="3392.460148" y2="2199.778578" stroke="black" stroke-width="6.48"/>
<line x1="3392.460148" y1="2199.778578" x2="3329.79962" y2="2354.869022" stroke="black" stroke-width="6.48"/>
<line x1="3329.79962" y1="2354.869022" x2="2944.717103" y2="2199.285781" stroke="black" stroke-width="6.48"/>
<line x1="2944.717103" y1="2199.285781" x2="3007.37763" y2="2044.19534" stroke="black" stroke-width="6.48"/>
<line x1="3007.37763" y1="2044.19534" x2="2984.466542" y2="2034.938671" stroke="black" stroke-width="6.48"/>
<line x1="3005.241476" y1="2049.482513" x2="3390.323994" y2="2205.065754" stroke="black" stroke-width="6.48"/>
<line x1="3197.69816" y1="2126.214925" x2="3137.17379" y2="2276.018194" stroke="black" stroke-width="6.48"/>
<line x1="3473.62934" y1="1655.368387" x2="3694.177062" y2="1727.028684" stroke="black" stroke-width="6.48"/>
<line x1="3694.177062" y1="1727.028684" x2="3622.369921" y2="1948.02835" stroke="black" stroke-width="6.48"/>
<line x1="3622.369921" y1="1948.02835" x2="3401.822196" y2="1876.368049" stroke="black" stroke-width="6.48"/>
<line x1="3401.822196" y1="1876.368049" x2="3473.62934" y2="1655.368387" stroke="black" stroke-width="6.48"/>
<line x1="3473.324244" y1="1654.769599" x2="3622.369921" y2="1948.02835" stroke="black" stroke-width="6.48"/>
<line x1="3401.96904" y1="1875.916105" x2="3693.725122" y2="1726.88184" stroke="black" stroke-width="6.48"/>
<line x1="3122.190896" y1="1589.315882" x2="3101.926547" y2="1612.627351" stroke="black" stroke-width="6.48"/>
<line x1="3101.926547" y1="1612.627351" x2="3260.085901" y2="1750.113184" stroke="black" stroke-width="6.48"/>
<line x1="3260.085901" y1="1750.113184" x2="3280.350251" y2="1726.801711" stroke="black" stroke-width="6.48"/>
<line x1="3280.350251" y1="1726.801711" x2="3122.190896" y2="1589.315882" stroke="black" stroke-width="6.48"/>
<line x1="2988.446177" y1="1743.171581" x2="2968.181827" y2="1766.48305" stroke="black" stroke-width="6.48"/>
<line x1="2968.181827" y1="1766.48305" x2="3126.341182" y2="1903.968882" stroke="black" stroke-width="6.48"/>
<line x1="3126.341182" y1="1903.968882" x2="3146.605531" y2="1880.65741" stroke="black" stroke-width="6.48"/>
<line x1="3146.605531" y1="1880.65741" x2="2988.446177" y2="1743.171581" stroke="black" stroke-width="6.48"/>
<line x1="3102.238307" y1="1612.268716" x2="2988.446177" y2="1743.171581" stroke="black" stroke-width="6.48"/>
<line x1="3259.992143" y1="1748.772385" x2="3262.258714" y2="1786.002872" stroke="black" stroke-width="6.48"/>
<line x1="3182.760104" y1="1877.455559" x2="3145.576496" y2="1880.392529" stroke="black" stroke-width="6.48"/>
<line x1="3263.50575" y1="1784.568323" x2="3181.513064" y2="1878.890116" stroke="black" stroke-width="6.48"/>
<line x1="3135.638516" y1="1641.932723" x2="3021.84639" y2="1772.835588" stroke="black" stroke-width="6.48"/>
<line x1="1255.224978" y1="1650.664206" x2="1109.61522" y2="1772.845236" stroke="black" stroke-width="6.48"/>
<line x1="1109.61522" y1="1772.845236" x2="1407.73694" y2="2128.133045" stroke="black" stroke-width="6.48"/>
<line x1="1407.73694" y1="2128.133045" x2="1553.346695" y2="2005.952011" stroke="black" stroke-width="6.48"/>
<line x1="1553.346695" y1="2005.952011" x2="1538.074073" y2="1987.750793" stroke="black" stroke-width="6.48"/>
<line x1="1538.074073" y1="1987.750793" x2="1409.937484" y2="2095.270103" stroke="black" stroke-width="6.48"/>
<line x1="1409.937484" y1="2095.270103" x2="1142.971927" y2="1777.11278" stroke="black" stroke-width="6.48"/>
<line x1="1142.971927" y1="1777.11278" x2="1271.108513" y2="1669.593474" stroke="black" stroke-width="6.48"/>
<line x1="1271.108513" y1="1669.593474" x2="1255.224978" y2="1650.664206" stroke="black" stroke-width="6.48"/>
<line x1="1266.740219" y1="1673.258904" x2="1533.705779" y2="1991.416223" stroke="black" stroke-width="6.48"/>
<line x1="1400.645596" y1="1831.362635" x2="1276.877297" y2="1935.216511" stroke="black" stroke-width="6.48"/>
<line x1="2294.712749" y1="2043.170438" x2="2525.339984" y2="2067.410394" stroke="black" stroke-width="6.48"/>
<line x1="2525.339984" y1="2067.410394" x2="2501.050356" y2="2298.510227" stroke="black" stroke-width="6.48"/>
<line x1="2501.050356" y1="2298.510227" x2="2270.42312" y2="2274.270268" stroke="black" stroke-width="6.48"/>
<line x1="2270.42312" y1="2274.270268" x2="2294.712749" y2="2043.170438" stroke="black" stroke-width="6.48"/>
<line x1="2294.289824" y1="2042.648168" x2="2501.050356" y2="2298.510227" stroke="black" stroke-width="6.48"/>
<line x1="2270.472793" y1="2273.79767" x2="2524.867387" y2="2067.360721" stroke="black" stroke-width="6.48"/>
<line x1="6237.029362" y1="2048.385834" x2="6227.484444" y2="2077.762068" stroke="black" stroke-width="6.48"/>
<line x1="6227.484444" y1="2077.762068" x2="6426.790888" y2="2142.520657" stroke="black" stroke-width="6.48"/>
<line x1="6426.790888" y1="2142.520657" x2="6436.335809" y2="2113.144423" stroke="black" stroke-width="6.48"/>
<line x1="6436.335809" y1="2113.144423" x2="6237.029362" y2="2048.385834" stroke="black" stroke-width="6.48"/>
<line x1="6174.032908" y1="2242.268978" x2="6164.487994" y2="2271.645209" stroke="black" stroke-width="6.48"/>
<line x1="6164.487994" y1="2271.645209" x2="6363.794441" y2="2336.403802" stroke="black" stroke-width="6.48"/>
<line x1="6363.794441" y1="2336.403802" x2="6373.339355" y2="2307.027568" stroke="black" stroke-width="6.48"/>
<line x1="6373.339355" y1="2307.027568" x2="6174.032908" y2="2242.268978" stroke="black" stroke-width="6.48"/>
<line x1="6227.631288" y1="2077.310124" x2="6174.032908" y2="2242.268978" stroke="black" stroke-width="6.48"/>
<line x1="6426.180695" y1="2141.323085" x2="6442.814196" y2="2174.708308" stroke="black" stroke-width="6.48"/>
<line x1="6405.368753" y1="2289.953531" x2="6372.288626" y2="2307.18582" stroke="black" stroke-width="6.48"/>
<line x1="6443.401576" y1="2172.900535" x2="6404.781377" y2="2291.7613" stroke="black" stroke-width="6.48"/>
<line x1="6269.966996" y1="2091.565487" x2="6216.36862" y2="2256.524338" stroke="black" stroke-width="6.48"/>
<line x1="3755.94377" y1="1170.151394" x2="3767.01304" y2="1141.314962" stroke="black" stroke-width="6.48"/>
<line x1="3767.01304" y1="1141.314962" x2="3571.368937" y2="1066.214228" stroke="black" stroke-width="6.48"/>
<line x1="3571.368937" y1="1066.214228" x2="3560.299668" y2="1095.050664" stroke="black" stroke-width="6.48"/>
<line x1="3560.299668" y1="1095.050664" x2="3755.94377" y2="1170.151394" stroke="black" stroke-width="6.48"/>
<line x1="3829.000946" y1="979.830943" x2="3840.070216" y2="950.994511" stroke="black" stroke-width="6.48"/>
<line x1="3840.070216" y1="950.994511" x2="3644.426113" y2="875.893777" stroke="black" stroke-width="6.48"/>
<line x1="3644.426113" y1="875.893777" x2="3633.356844" y2="904.730206" stroke="black" stroke-width="6.48"/>
<line x1="3633.356844" y1="904.730206" x2="3829.000946" y2="979.830943" stroke="black" stroke-width="6.48"/>
<line x1="3766.842742" y1="1141.758601" x2="3829.000946" y2="979.830943" stroke="black" stroke-width="6.48"/>
<line x1="3571.915619" y1="1067.442098" x2="3557.052162" y2="1033.232098" stroke="black" stroke-width="6.48"/>
<line x1="3600.477756" y1="920.104553" x2="3634.414416" y2="904.627163" stroke="black" stroke-width="6.48"/>
<line x1="3556.370977" y1="1035.006642" x2="3601.158944" y2="918.330005" stroke="black" stroke-width="6.48"/>
<line x1="3725.311122" y1="1125.307098" x2="3787.469327" y2="963.37944" stroke="black" stroke-width="6.48"/>
<line x1="5849.808102" y1="1564.819344" x2="5839.243783" y2="1593.844567" stroke="black" stroke-width="6.48"/>
<line x1="5839.243783" y1="1593.844567" x2="6036.168776" y2="1665.519404" stroke="black" stroke-width="6.48"/>
<line x1="6036.168776" y1="1665.519404" x2="6046.733092" y2="1636.494178" stroke="black" stroke-width="6.48"/>
<line x1="6046.733092" y1="1636.494178" x2="5849.808102" y2="1564.819344" stroke="black" stroke-width="6.48"/>
<line x1="5780.083601" y1="1756.385834" x2="5769.519286" y2="1785.411058" stroke="black" stroke-width="6.48"/>
<line x1="5769.519286" y1="1785.411058" x2="5966.444275" y2="1857.085891" stroke="black" stroke-width="6.48"/>
<line x1="5966.444275" y1="1857.085891" x2="5977.008594" y2="1828.060668" stroke="black" stroke-width="6.48"/>
<line x1="5977.008594" y1="1828.060668" x2="5780.083601" y2="1756.385834" stroke="black" stroke-width="6.48"/>
<line x1="5839.406309" y1="1593.398027" x2="5780.083601" y2="1756.385834" stroke="black" stroke-width="6.48"/>
<line x1="6035.60075" y1="1664.301265" x2="6051.058988" y2="1698.246648" stroke="black" stroke-width="6.48"/>
<line x1="6009.614352" y1="1812.114842" x2="5975.952984" y2="1828.182154" stroke="black" stroke-width="6.48"/>
<line x1="6051.709098" y1="1696.460483" x2="6008.964242" y2="1813.901011" stroke="black" stroke-width="6.48"/>
<line x1="5881.218721" y1="1609.122197" x2="5821.896013" y2="1772.110001" stroke="black" stroke-width="6.48"/>
<line x1="904.583567" y1="1487.056943" x2="819.667721" y2="1385.858185" stroke="black" stroke-width="6.48"/>
<line x1="819.667721" y1="1385.858185" x2="830.58845" y2="1376.694601" stroke="black" stroke-width="6.48"/>
<line x1="915.504296" y1="1477.893362" x2="830.58845" y2="1376.694601" stroke="black" stroke-width="6.48"/>
<line x1="904.583567" y1="1487.056943" x2="915.504296" y2="1477.893362" stroke="black" stroke-width="6.48"/>
<line x1="906.951618" y1="1467.700682" x2="932.199037" y2="1448.996904" stroke="black" stroke-width="6.48"/>
<line x1="839.141129" y1="1386.887285" x2="862.672972" y2="1364.660402" stroke="black" stroke-width="6.48"/>
<line x1="1257.687155" y1="1190.767853" x2="1172.771312" y2="1089.569092" stroke="black" stroke-width="6.48"/>
<line x1="1172.771312" y1="1089.569092" x2="1162.578632" y2="1098.121763" stroke="black" stroke-width="6.48"/>
<line x1="1247.494475" y1="1199.320528" x2="1162.578632" y2="1098.121763" stroke="black" stroke-width="6.48"/>
<line x1="1257.687155" y1="1190.767853" x2="1247.494475" y2="1199.320528" stroke="black" stroke-width="6.48"/>
<line x1="1238.09661" y1="1191.077701" x2="1215.292813" y2="1212.693674" stroke="black" stroke-width="6.48"/>
<line x1="1170.286114" y1="1110.264304" x2="1143.699743" y2="1128.850942" stroke="black" stroke-width="6.48"/>
<line x1="840.54442" y1="1154.94719" x2="849.707996" y2="1165.86792" stroke="black" stroke-width="6.48"/>
<line x1="849.707996" y1="1165.86792" x2="950.906761" y2="1080.952078" stroke="black" stroke-width="6.48"/>
<line x1="941.743181" y1="1070.031348" x2="950.906761" y2="1080.952078" stroke="black" stroke-width="6.48"/>
<line x1="840.54442" y1="1154.94719" x2="941.743181" y2="1070.031348" stroke="black" stroke-width="6.48"/>
<line x1="939.986032" y1="1090.115658" x2="962.940956" y2="1113.036599" stroke="black" stroke-width="6.48"/>
<line x1="859.90068" y1="1157.315245" x2="879.215364" y2="1183.29071" stroke="black" stroke-width="6.48"/>
<line x1="1135.494558" y1="1507.933638" x2="1126.330978" y2="1497.012908" stroke="black" stroke-width="6.48"/>
<line x1="1126.330978" y1="1497.012908" x2="1227.529735" y2="1412.097066" stroke="black" stroke-width="6.48"/>
<line x1="1236.693319" y1="1423.017796" x2="1227.529735" y2="1412.097066" stroke="black" stroke-width="6.48"/>
<line x1="1135.494558" y1="1507.933638" x2="1236.693319" y2="1423.017796" stroke="black" stroke-width="6.48"/>
<line x1="1216.609006" y1="1421.260646" x2="1198.022371" y2="1394.674276" stroke="black" stroke-width="6.48"/>
<line x1="1136.523658" y1="1488.460234" x2="1114.296779" y2="1464.928391" stroke="black" stroke-width="6.48"/>
<circle cx="1038.618868" cy="1288.982495" r="191.98080000000002" fill="none" stroke="black" stroke-width="6.48"/>
</g>
</svg>
