<?xml version="1.0"?>
<svg xmlns:xlink="http://www.w3.org/1999/xlink" width="6775.2" height="2858.4">
<image x="0" y="0" width="6775.2" height="2858.4" xlink:href="groundfilled-01.png"/>
<g style="stroke-linecap:round">
<line x1="1285.950406" y1="795.178109" x2="1311.346069" y2="795.178109" stroke="black" stroke-width="6.48"/>
<line x1="1311.346069" y1="795.178109" x2="1311.346069" y2="745.625592" stroke="black" stroke-width="6.48"/>
<line x1="1311.346069" y1="745.625592" x2="1285.950406" y2="745.625592" stroke="black" stroke-width="6.48"/>
<line x1="1285.950406" y1="745.625592" x2="1285.950406" y2="795.178109" stroke="black" stroke-width="6.48"/>
<line x1="1559.728062" y1="745.625592" x2="1559.728062" y2="498.48241" stroke="black" stroke-width="6.48"/>
<line x1="1560.347471" y1="796.416923" x2="1585.743134" y2="796.416923" stroke="black" stroke-width="6.48"/>
<line x1="1585.743134" y1="796.416923" x2="1585.743134" y2="746.864406" stroke="black" stroke-width="6.48"/>
<line x1="1585.743134" y1="746.864406" x2="1560.347471" y2="746.864406" stroke="black" stroke-width="6.48"/>
<line x1="1560.347471" y1="746.864406" x2="1560.347471" y2="796.416923" stroke="black" stroke-width="6.48"/>
<path d="m 1311.346069,747.483811 a 248.38199299999997,248.38199299999997 0 0 1 248.38199299999997,-248.38199299999997" fill="none" stroke="black" stroke-width="6.48"/>
<line x1="330.523178" y1="771.328966" x2="330.523178" y2="366.748985" stroke="black" stroke-width="6.48"/>
<line x1="330.523178" y1="366.748985" x2="258.15928" y2="366.748985" stroke="black" stroke-width="6.48"/>
<line x1="258.15928" y1="366.748985" x2="258.15928" y2="771.328966" stroke="black" stroke-width="6.48"/>
<line x1="258.15928" y1="771.328966" x2="330.523178" y2="771.328966" stroke="black" stroke-width="6.48"/>
<line x1="330.523178" y1="752.415674" x2="355.19269" y2="752.415674" stroke="black" stroke-width="6.48"/>
<line x1="355.19269" y1="752.415674" x2="355.19269" y2="386.484595" stroke="black" stroke-width="6.48"/>
<line x1="330.523178" y1="386.484595" x2="355.19269" y2="386.484595" stroke="black" stroke-width="6.48"/>
<line x1="3901.945176" y1="1169.331426" x2="3901.945176" y2="1428.837066" stroke="black" stroke-width="6.48"/>
<line x1="3901.945176" y1="1428.837066" x2="3941.9501" y2="1428.837066" stroke="black" stroke-width="6.48"/>
<line x1="3941.9501" y1="1428.837066" x2="3941.9501" y2="1169.331426" stroke="black" stroke-width="6.48"/>
<line x1="3941.9501" y1="1169.331426" x2="3901.945176" y2="1169.331426" stroke="black" stroke-width="6.48"/>
<line x1="3941.423719" y1="1193.544936" x2="3902.471557" y2="1193.544936" stroke="black" stroke-width="6.48"/>
<line x1="3941.423719" y1="1404.097178" x2="3900.892414" y2="1404.097178" stroke="black" stroke-width="6.48"/>
<line x1="3923.000399" y1="1193.018555" x2="3923.000399" y2="1403.570797" stroke="black" stroke-width="6.48"/>
<line x1="334.430687" y1="1882.943946" x2="334.430687" y2="1457.437414" stroke="black" stroke-width="6.48"/>
<line x1="334.430687" y1="1457.437414" x2="258.323828" y2="1457.437414" stroke="black" stroke-width="6.48"/>
<line x1="258.323828" y1="1457.437414" x2="258.323828" y2="1882.943946" stroke="black" stroke-width="6.48"/>
<line x1="258.323828" y1="1882.943946" x2="334.430687" y2="1882.943946" stroke="black" stroke-width="6.48"/>
<line x1="334.430687" y1="1863.05238" x2="360.376207" y2="1863.05238" stroke="black" stroke-width="6.48"/>
<line x1="360.376207" y1="1863.05238" x2="360.376207" y2="1478.193829" stroke="black" stroke-width="6.48"/>
<line x1="334.430687" y1="1478.193829" x2="360.376207" y2="1478.193829" stroke="black" stroke-width="6.48"/>
<line x1="2747.905531" y1="904.670665" x2="2721.68303" y2="904.670665" stroke="black" stroke-width="6.48"/>
<line x1="2721.68303" y1="904.670665" x2="2721.68303" y2="955.836522" stroke="black" stroke-width="6.48"/>
<line x1="2721.68303" y1="955.836522" x2="2747.905531" y2="955.836522" stroke="black" stroke-width="6.48"/>
<line x1="2747.905531" y1="955.836522" x2="2747.905531" y2="904.670665" stroke="black" stroke-width="6.48"/>
<line x1="2465.214181" y1="955.836522" x2="2465.214181" y2="1211.026223" stroke="black" stroke-width="6.48"/>
<line x1="2464.574609" y1="903.39152" x2="2438.352108" y2="903.39152" stroke="black" stroke-width="6.48"/>
<line x1="2438.352108" y1="903.39152" x2="2438.352108" y2="954.557374" stroke="black" stroke-width="6.48"/>
<line x1="2438.352108" y1="954.557374" x2="2464.574609" y2="954.557374" stroke="black" stroke-width="6.48"/>
<line x1="2464.574609" y1="954.557374" x2="2464.574609" y2="903.39152" stroke="black" stroke-width="6.48"/>
<path d="m 2721.68303,953.917801 a 256.4688490000001,256.4688490000001 0 0 1 -256.4688490000003,256.46884899999986" fill="none" stroke="black" stroke-width="6.48"/>
<line x1="2420.532389" y1="1427.858834" x2="2395.136725" y2="1427.858834" stroke="black" stroke-width="6.48"/>
<line x1="2395.136725" y1="1427.858834" x2="2395.136725" y2="1477.411351" stroke="black" stroke-width="6.48"/>
<line x1="2395.136725" y1="1477.411351" x2="2420.532389" y2="1477.411351" stroke="black" stroke-width="6.48"/>
<line x1="2420.532389" y1="1477.411351" x2="2420.532389" y2="1427.858834" stroke="black" stroke-width="6.48"/>
<line x1="2146.754732" y1="1477.411351" x2="2146.754732" y2="1724.554534" stroke="black" stroke-width="6.48"/>
<line x1="2146.135324" y1="1426.62002" x2="2120.73966" y2="1426.62002" stroke="black" stroke-width="6.48"/>
<line x1="2120.73966" y1="1426.62002" x2="2120.73966" y2="1476.172537" stroke="black" stroke-width="6.48"/>
<line x1="2120.73966" y1="1476.172537" x2="2146.135324" y2="1476.172537" stroke="black" stroke-width="6.48"/>
<line x1="2146.135324" y1="1476.172537" x2="2146.135324" y2="1426.62002" stroke="black" stroke-width="6.48"/>
<path d="m 2395.136725,1475.553132 a 248.38199299999997,248.38199299999997 0 0 1 -248.38199299999997,248.38199299999997" fill="none" stroke="black" stroke-width="6.48"/>
<line x1="495.434369" y1="541.339351" x2="727.331969" y2="541.339351" stroke="black" stroke-width="6.48"/>
<line x1="727.331969" y1="541.339351" x2="727.331969" y2="773.712151" stroke="black" stroke-width="6.48"/>
<line x1="727.331969" y1="773.712151" x2="495.434369" y2="773.712151" stroke="black" stroke-width="6.48"/>
<line x1="495.434369" y1="773.712151" x2="495.434369" y2="541.339351" stroke="black" stroke-width="6.48"/>
<line x1="494.959169" y1="540.864151" x2="727.331969" y2="773.712151" stroke="black" stroke-width="6.48"/>
<line x1="495.434369" y1="773.236951" x2="726.856769" y2="541.339351" stroke="black" stroke-width="6.48"/>
<line x1="1842.844367" y1="2083.05063" x2="2032.924367" y2="2083.05063" stroke="black" stroke-width="6.48"/>
<line x1="2032.924367" y1="2083.05063" x2="2032.924367" y2="1619.25543" stroke="black" stroke-width="6.48"/>
<line x1="2032.924367" y1="1619.25543" x2="1842.844367" y2="1619.25543" stroke="black" stroke-width="6.48"/>
<line x1="1842.844367" y1="1619.25543" x2="1842.844367" y2="1643.01543" stroke="black" stroke-width="6.48"/>
<line x1="1842.844367" y1="1643.01543" x2="2010.114767" y2="1643.01543" stroke="black" stroke-width="6.48"/>
<line x1="2010.114767" y1="1643.01543" x2="2010.114767" y2="2058.34023" stroke="black" stroke-width="6.48"/>
<line x1="2010.114767" y1="2058.34023" x2="1842.844367" y2="2058.34023" stroke="black" stroke-width="6.48"/>
<line x1="1842.844367" y1="2058.34023" x2="1842.844367" y2="2083.05063" stroke="black" stroke-width="6.48"/>
<line x1="1848.546767" y1="2058.34023" x2="1848.546767" y2="1643.01543" stroke="black" stroke-width="6.48"/>
<line x1="1847.596367" y1="1851.15303" x2="2009.164367" y2="1851.15303" stroke="black" stroke-width="6.48"/>
<line x1="1485.415969" y1="209.267824" x2="1707.693134" y2="209.267824" stroke="black" stroke-width="6.48"/>
<line x1="1707.693134" y1="209.267824" x2="1707.693134" y2="432.000475" stroke="black" stroke-width="6.48"/>
<line x1="1707.693134" y1="432.000475" x2="1485.415969" y2="432.000475" stroke="black" stroke-width="6.48"/>
<line x1="1485.415969" y1="432.000475" x2="1485.415969" y2="209.267824" stroke="black" stroke-width="6.48"/>
<line x1="1484.960483" y1="208.812337" x2="1707.693134" y2="432.000475" stroke="black" stroke-width="6.48"/>
<line x1="1485.415969" y1="431.544989" x2="1707.237648" y2="209.267824" stroke="black" stroke-width="6.48"/>
<line x1="2761.020558" y1="2194.614338" x2="2761.020558" y2="1803.366338" stroke="black" stroke-width="6.48"/>
<line x1="2761.020558" y1="1803.366338" x2="2586.780558" y2="1803.366338" stroke="black" stroke-width="6.48"/>
<line x1="2586.780558" y1="1803.366338" x2="2586.780558" y2="2194.614338" stroke="black" stroke-width="6.48"/>
<line x1="2586.780558" y1="2194.614338" x2="2761.020558" y2="2194.614338" stroke="black" stroke-width="6.48"/>
<line x1="2613.708558" y1="1878.606338" x2="2613.708558" y2="2162.934338" stroke="black" stroke-width="6.48"/>
<line x1="2613.708558" y1="2162.934338" x2="2731.716558" y2="2162.934338" stroke="black" stroke-width="6.48"/>
<line x1="2731.716558" y1="2162.934338" x2="2731.716558" y2="1873.062338" stroke="black" stroke-width="6.48"/>
<path d="m 2613.453134,1879.416911 a 63.3599990854681,63.3599990854681 0 0 1 119.3743300000001,-4.293814000000111" fill="none" stroke="black" stroke-width="6.48"/>
<line x1="2105.78738" y1="1903.850356" x2="2105.78738" y2="2087.594356" stroke="black" stroke-width="6.48"/>
<line x1="2105.78738" y1="2087.594356" x2="2056.68338" y2="2087.594356" stroke="black" stroke-width="6.48"/>
<line x1="2056.68338" y1="1903.850356" x2="2056.68338" y2="2087.594356" stroke="black" stroke-width="6.48"/>
<line x1="2105.78738" y1="1903.850356" x2="2056.68338" y2="1903.850356" stroke="black" stroke-width="6.48"/>
<line x1="2133.50738" y1="1945.430356" x2="2105.78738" y2="1945.430356" stroke="black" stroke-width="6.48"/>
<line x1="2105.78738" y1="2044.430356" x2="2135.09138" y2="2044.430356" stroke="black" stroke-width="6.48"/>
<circle cx="2178.65138" cy="1994.138356" r="66.52800000000002" fill="none" stroke="black" stroke-width="6.48"/>
<circle cx="2178.65138" cy="1994.138356" r="57.02400000000001" fill="none" stroke="black" stroke-width="6.48"/>
<line x1="481.230644" y1="208.927627" x2="751.777844" y2="208.927627" stroke="black" stroke-width="6.48"/>
<line x1="751.777844" y1="208.927627" x2="751.777844" y2="340.874827" stroke="black" stroke-width="6.48"/>
<line x1="481.230644" y1="340.874827" x2="751.777844" y2="340.874827" stroke="black" stroke-width="6.48"/>
<line x1="481.230644" y1="208.927627" x2="481.230644" y2="340.874827" stroke="black" stroke-width="6.48"/>
<line x1="487.883444" y1="215.580427" x2="625.929044" y2="215.580427" stroke="black" stroke-width="6.48"/>
<line x1="625.929044" y1="215.580427" x2="625.929044" y2="333.667627" stroke="black" stroke-width="6.48"/>
<line x1="487.883444" y1="333.667627" x2="625.929044" y2="333.667627" stroke="black" stroke-width="6.48"/>
<line x1="487.883444" y1="215.580427" x2="487.883444" y2="333.667627" stroke="black" stroke-width="6.48"/>
<line x1="640.343444" y1="223.342027" x2="737.363444" y2="223.342027" stroke="black" stroke-width="6.48"/>
<line x1="640.343444" y1="243.854827" x2="737.363444" y2="243.854827" stroke="black" stroke-width="6.48"/>
<line x1="640.897844" y1="264.922027" x2="737.917844" y2="264.922027" stroke="black" stroke-width="6.48"/>
<line x1="640.897844" y1="285.434827" x2="737.917844" y2="285.434827" stroke="black" stroke-width="6.48"/>
<line x1="640.343444" y1="305.947627" x2="737.363444" y2="305.947627" stroke="black" stroke-width="6.48"/>
<line x1="640.343444" y1="326.460427" x2="737.363444" y2="326.460427" stroke="black" stroke-width="6.48"/>
<line x1="540.551444" y1="333.667627" x2="540.551444" y2="319.807627" stroke="black" stroke-width="6.48"/>
<line x1="540.551444" y1="319.807627" x2="574.924244" y2="319.807627" stroke="black" stroke-width="6.48"/>
<line x1="574.924244" y1="319.807627" x2="574.924244" y2="333.113227" stroke="black" stroke-width="6.48"/>
<circle cx="610.405844" cy="230.549227" r="8.316000000000003" fill="none" stroke="black" stroke-width="6.48"/>
<line x1="1126.143763" y1="1053.279173" x2="1203.793488" y2="1160.154846" stroke="black" stroke-width="6.48"/>
<line x1="1203.793488" y1="1160.154846" x2="1192.260143" y2="1168.534314" stroke="black" stroke-width="6.48"/>
<line x1="1114.610418" y1="1061.658637" x2="1192.260143" y2="1168.534314" stroke="black" stroke-width="6.48"/>
<line x1="1126.143763" y1="1053.279173" x2="1114.610418" y2="1061.658637" stroke="black" stroke-width="6.48"/>
<line x1="1122.431252" y1="1072.423094" x2="1095.940627" y2="1089.320141" stroke="black" stroke-width="6.48"/>
<line x1="1184.439305" y1="1157.769857" x2="1159.414315" y2="1178.301092" stroke="black" stroke-width="6.48"/>
<line x1="753.232237" y1="1324.215256" x2="830.881958" y2="1431.090932" stroke="black" stroke-width="6.48"/>
<line x1="830.881958" y1="1431.090932" x2="841.646416" y2="1423.270098" stroke="black" stroke-width="6.48"/>
<line x1="763.996691" y1="1316.394421" x2="841.646416" y2="1423.270098" stroke="black" stroke-width="6.48"/>
<line x1="753.232237" y1="1324.215256" x2="763.996691" y2="1316.394421" stroke="black" stroke-width="6.48"/>
<line x1="772.796675" y1="1325.272727" x2="797.052776" y2="1305.300121" stroke="black" stroke-width="6.48"/>
<line x1="834.804727" y1="1410.619489" x2="862.62287" y2="1393.932701" stroke="black" stroke-width="6.48"/>
<line x1="1166.860109" y1="1389.047065" x2="1158.480641" y2="1377.51372" stroke="black" stroke-width="6.48"/>
<line x1="1158.480641" y1="1377.51372" x2="1051.604971" y2="1455.163445" stroke="black" stroke-width="6.48"/>
<line x1="1059.984432" y1="1466.69679" x2="1051.604971" y2="1455.163445" stroke="black" stroke-width="6.48"/>
<line x1="1166.860109" y1="1389.047065" x2="1059.984432" y2="1466.69679" stroke="black" stroke-width="6.48"/>
<line x1="1063.138316" y1="1446.783977" x2="1041.838189" y2="1422.317621" stroke="black" stroke-width="6.48"/>
<line x1="1147.716187" y1="1385.334554" x2="1130.260511" y2="1358.075041" stroke="black" stroke-width="6.48"/>
<line x1="897.251548" y1="1016.345797" x2="905.631012" y2="1027.879142" stroke="black" stroke-width="6.48"/>
<line x1="905.631012" y1="1027.879142" x2="798.755339" y2="1105.528864" stroke="black" stroke-width="6.48"/>
<line x1="790.375871" y1="1093.995518" x2="798.755339" y2="1105.528864" stroke="black" stroke-width="6.48"/>
<line x1="897.251548" y1="1016.345797" x2="790.375871" y2="1093.995518" stroke="black" stroke-width="6.48"/>
<line x1="810.288684" y1="1097.149399" x2="826.975472" y2="1124.967542" stroke="black" stroke-width="6.48"/>
<line x1="894.866555" y1="1035.699977" x2="915.39779" y2="1060.724966" stroke="black" stroke-width="6.48"/>
<circle cx="978.617988" cy="1241.521294" r="191.98080000000002" fill="none" stroke="black" stroke-width="6.48"/>
<line x1="2044.889399" y1="955.822399" x2="2267.166564" y2="955.822399" stroke="black" stroke-width="6.48"/>
<line x1="2267.166564" y1="955.822399" x2="2267.166564" y2="1178.555051" stroke="black" stroke-width="6.48"/>
<line x1="2267.166564" y1="1178.555051" x2="2044.889399" y2="1178.555051" stroke="black" stroke-width="6.48"/>
<line x1="2044.889399" y1="1178.555051" x2="2044.889399" y2="955.822399" stroke="black" stroke-width="6.48"/>
<line x1="2044.433912" y1="955.366913" x2="2267.166564" y2="1178.555051" stroke="black" stroke-width="6.48"/>
<line x1="2044.889399" y1="1178.099564" x2="2266.711078" y2="955.822399" stroke="black" stroke-width="6.48"/>
<line x1="323.258818" y1="1375.374532" x2="323.258818" y2="949.841089" stroke="black" stroke-width="6.48"/>
<line x1="323.258818" y1="949.841089" x2="257.659344" y2="949.841089" stroke="black" stroke-width="6.48"/>
<line x1="257.659344" y1="949.841089" x2="257.659344" y2="1375.374532" stroke="black" stroke-width="6.48"/>
<line x1="257.659344" y1="1375.374532" x2="323.258818" y2="1375.374532" stroke="black" stroke-width="6.48"/>
<line x1="258.522494" y1="1335.669588" x2="322.395667" y2="1335.669588" stroke="black" stroke-width="6.48"/>
<line x1="258.522494" y1="990.409187" x2="324.985122" y2="990.409187" stroke="black" stroke-width="6.48"/>
<line x1="288.73278" y1="1336.532738" x2="288.73278" y2="991.272337" stroke="black" stroke-width="6.48"/>
<line x1="3874.406537" y1="1514.726719" x2="3874.406537" y2="1940.260162" stroke="black" stroke-width="6.48"/>
<line x1="3874.406537" y1="1940.260162" x2="3940.00601" y2="1940.260162" stroke="black" stroke-width="6.48"/>
<line x1="3940.00601" y1="1940.260162" x2="3940.00601" y2="1514.726719" stroke="black" stroke-width="6.48"/>
<line x1="3940.00601" y1="1514.726719" x2="3874.406537" y2="1514.726719" stroke="black" stroke-width="6.48"/>
<line x1="3939.14286" y1="1554.431663" x2="3875.269687" y2="1554.431663" stroke="black" stroke-width="6.48"/>
<line x1="3939.14286" y1="1899.692064" x2="3872.680232" y2="1899.692064" stroke="black" stroke-width="6.48"/>
<line x1="3908.932574" y1="1553.568512" x2="3908.932574" y2="1898.828914" stroke="black" stroke-width="6.48"/>
<line x1="5137.986463" y1="1726.207848" x2="4918.317595" y2="2051.880336" stroke="black" stroke-width="6.48"/>
<line x1="4918.317595" y1="2051.880336" x2="5071.304873" y2="2155.071557" stroke="black" stroke-width="6.48"/>
<line x1="5071.304873" y1="2155.071557" x2="5290.973741" y2="1829.399069" stroke="black" stroke-width="6.48"/>
<line x1="5290.973741" y1="1829.399069" x2="5137.986463" y2="1726.207848" stroke="black" stroke-width="6.48"/>
<line x1="5201.954701" y1="1961.37522" x2="5268.927676" y2="2006.549057" stroke="black" stroke-width="6.48"/>
<line x1="5268.927676" y1="2006.549057" x2="5312.772871" y2="1941.54588" stroke="black" stroke-width="6.48"/>
<line x1="5312.772871" y1="1941.54588" x2="5245.7999" y2="1896.372043" stroke="black" stroke-width="6.48"/>
<line x1="5297.884837" y1="1932.459102" x2="5254.482521" y2="1996.805682" stroke="black" stroke-width="6.48"/>
<line x1="5025.183055" y1="1747.564099" x2="4981.337856" y2="1812.56728" stroke="black" stroke-width="6.48"/>
<line x1="4981.337856" y1="1812.56728" x2="5048.967424" y2="1858.183996" stroke="black" stroke-width="6.48"/>
<line x1="5092.812623" y1="1793.180815" x2="5025.183055" y2="1747.564099" stroke="black" stroke-width="6.48"/>
<line x1="5039.18532" y1="1757.964074" x2="4995.783004" y2="1822.310651" stroke="black" stroke-width="6.48"/>
<line x1="5117.364472" y1="2086.785389" x2="5184.337446" y2="2131.959229" stroke="black" stroke-width="6.48"/>
<line x1="5184.337446" y1="2131.959229" x2="5228.182642" y2="2066.956052" stroke="black" stroke-width="6.48"/>
<line x1="5228.182642" y1="2066.956052" x2="5161.209671" y2="2021.782212" stroke="black" stroke-width="6.48"/>
<line x1="5213.73749" y1="2057.212674" x2="5169.892291" y2="2122.215851" stroke="black" stroke-width="6.48"/>
<line x1="4940.592826" y1="1872.974272" x2="4896.747626" y2="1937.977448" stroke="black" stroke-width="6.48"/>
<line x1="4896.747626" y1="1937.977448" x2="4964.377194" y2="1983.594168" stroke="black" stroke-width="6.48"/>
<line x1="5008.222393" y1="1918.590991" x2="4940.592826" y2="1872.974272" stroke="black" stroke-width="6.48"/>
<line x1="4955.037973" y1="1882.71765" x2="4911.192778" y2="1947.720827" stroke="black" stroke-width="6.48"/>
<line x1="3051.639043" y1="1074.142829" x2="3261.004247" y2="1074.142829" stroke="black" stroke-width="6.48"/>
<line x1="3261.004247" y1="1074.142829" x2="3261.004247" y2="742.928425" stroke="black" stroke-width="6.48"/>
<line x1="3261.004247" y1="742.928425" x2="3051.639043" y2="742.928425" stroke="black" stroke-width="6.48"/>
<line x1="3051.639043" y1="742.928425" x2="3051.639043" y2="1074.142829" stroke="black" stroke-width="6.48"/>
<line x1="3050.965843" y1="802.170025" x2="3261.677443" y2="802.170025" stroke="black" stroke-width="6.48"/>
<line x1="3261.677443" y1="802.170025" x2="3052.312243" y2="851.986829" stroke="black" stroke-width="6.48"/>
<line x1="3052.312243" y1="851.986829" x2="3083.952647" y2="898.437629" stroke="black" stroke-width="6.48"/>
<line x1="3083.952647" y1="898.437629" x2="3261.677443" y2="801.496829" stroke="black" stroke-width="6.48"/>
<line x1="3278.671477" y1="1203.66576" x2="3500.948642" y2="1203.66576" stroke="black" stroke-width="6.48"/>
<line x1="3500.948642" y1="1203.66576" x2="3500.948642" y2="1426.398412" stroke="black" stroke-width="6.48"/>
<line x1="3500.948642" y1="1426.398412" x2="3278.671477" y2="1426.398412" stroke="black" stroke-width="6.48"/>
<line x1="3278.671477" y1="1426.398412" x2="3278.671477" y2="1203.66576" stroke="black" stroke-width="6.48"/>
<line x1="3278.215991" y1="1203.210274" x2="3500.948642" y2="1426.398412" stroke="black" stroke-width="6.48"/>
<line x1="3278.671477" y1="1425.942925" x2="3500.493156" y2="1203.66576" stroke="black" stroke-width="6.48"/>
<line x1="2804.16708" y1="1127.69402" x2="2804.16708" y2="1153.148746" stroke="black" stroke-width="6.48"/>
<line x1="2804.16708" y1="1153.148746" x2="2853.834836" y2="1153.148746" stroke="black" stroke-width="6.48"/>
<line x1="2853.834836" y1="1153.148746" x2="2853.834836" y2="1127.69402" stroke="black" stroke-width="6.48"/>
<line x1="2853.834836" y1="1127.69402" x2="2804.16708" y2="1127.69402" stroke="black" stroke-width="6.48"/>
<line x1="2853.834836" y1="1402.108373" x2="3101.55277" y2="1402.108373" stroke="black" stroke-width="6.48"/>
<line x1="2802.925386" y1="1402.729218" x2="2802.925386" y2="1428.183943" stroke="black" stroke-width="6.48"/>
<line x1="2802.925386" y1="1428.183943" x2="2852.593142" y2="1428.183943" stroke="black" stroke-width="6.48"/>
<line x1="2852.593142" y1="1428.183943" x2="2852.593142" y2="1402.729218" stroke="black" stroke-width="6.48"/>
<line x1="2852.593142" y1="1402.729218" x2="2802.925386" y2="1402.729218" stroke="black" stroke-width="6.48"/>
<path d="m 2851.972294,1153.148746 a 248.95962699999984,248.95962699999984 0 0 1 248.95962699999973,248.95962699999995" fill="none" stroke="black" stroke-width="6.48"/>
<line x1="3527.828708" y1="1963.965856" x2="3385.058288" y2="1781.228052" stroke="black" stroke-width="6.48"/>
<line x1="3385.058288" y1="1781.228052" x2="3568.170553" y2="1638.165071" stroke="black" stroke-width="6.48"/>
<line x1="3568.170553" y1="1638.165071" x2="3710.940973" y2="1820.902874" stroke="black" stroke-width="6.48"/>
<line x1="3710.940973" y1="1820.902874" x2="3527.828708" y2="1963.965856" stroke="black" stroke-width="6.48"/>
<line x1="3527.746812" y1="1964.632882" x2="3568.170553" y2="1638.165071" stroke="black" stroke-width="6.48"/>
<line x1="3710.566512" y1="1821.195436" x2="3385.350853" y2="1781.602517" stroke="black" stroke-width="6.48"/>
<line x1="3009.806302" y1="1589.315879" x2="3009.26723" y2="1620.199174" stroke="black" stroke-width="6.48"/>
<line x1="3009.26723" y1="1620.199174" x2="3218.798513" y2="1623.856554" stroke="black" stroke-width="6.48"/>
<line x1="3218.798513" y1="1623.856554" x2="3219.337584" y2="1592.973259" stroke="black" stroke-width="6.48"/>
<line x1="3219.337584" y1="1592.973259" x2="3009.806302" y2="1589.315879" stroke="black" stroke-width="6.48"/>
<line x1="3006.24844" y1="1793.145629" x2="3005.709368" y2="1824.028924" stroke="black" stroke-width="6.48"/>
<line x1="3005.709368" y1="1824.028924" x2="3215.240651" y2="1827.686304" stroke="black" stroke-width="6.48"/>
<line x1="3215.240651" y1="1827.686304" x2="3215.779722" y2="1796.803009" stroke="black" stroke-width="6.48"/>
<line x1="3215.779722" y1="1796.803009" x2="3006.24844" y2="1793.145629" stroke="black" stroke-width="6.48"/>
<line x1="3009.275525" y1="1619.724046" x2="3006.24844" y2="1793.145629" stroke="black" stroke-width="6.48"/>
<line x1="3217.864846" y1="1622.889713" x2="3243.532435" y2="1649.952994" stroke="black" stroke-width="6.48"/>
<line x1="3241.417622" y1="1771.11054" x2="3214.821172" y2="1797.261548" stroke="black" stroke-width="6.48"/>
<line x1="3243.565609" y1="1648.052482" x2="3241.384448" y2="1773.011052" stroke="black" stroke-width="6.48"/>
<line x1="3053.929226" y1="1620.97875" x2="3050.902145" y2="1794.400333" stroke="black" stroke-width="6.48"/>
<line x1="2281.501195" y1="2276.063172" x2="2312.219988" y2="2279.291854" stroke="black" stroke-width="6.48"/>
<line x1="2312.219988" y1="2279.291854" x2="2334.125358" y2="2070.876668" stroke="black" stroke-width="6.48"/>
<line x1="2334.125358" y1="2070.876668" x2="2303.406565" y2="2067.647987" stroke="black" stroke-width="6.48"/>
<line x1="2303.406565" y1="2067.647987" x2="2281.501195" y2="2276.063172" stroke="black" stroke-width="6.48"/>
<line x1="2484.245221" y1="2297.372479" x2="2514.96401" y2="2300.601161" stroke="black" stroke-width="6.48"/>
<line x1="2514.96401" y1="2300.601161" x2="2536.86938" y2="2092.185976" stroke="black" stroke-width="6.48"/>
<line x1="2536.86938" y1="2092.185976" x2="2506.150591" y2="2088.957294" stroke="black" stroke-width="6.48"/>
<line x1="2506.150591" y1="2088.957294" x2="2484.245221" y2="2297.372479" stroke="black" stroke-width="6.48"/>
<line x1="2311.747391" y1="2279.242181" x2="2484.245221" y2="2297.372479" stroke="black" stroke-width="6.48"/>
<line x1="2333.080822" y1="2071.722517" x2="2362.278204" y2="2048.51133" stroke="black" stroke-width="6.48"/>
<line x1="2482.790386" y1="2061.1777" x2="2506.523843" y2="2089.952158" stroke="black" stroke-width="6.48"/>
<line x1="2360.387815" y1="2048.312642" x2="2484.680771" y2="2061.376387" stroke="black" stroke-width="6.48"/>
<line x1="2316.889159" y1="2234.867756" x2="2489.38699" y2="2252.998051" stroke="black" stroke-width="6.48"/>
<line x1="3840.070216" y1="1118.247217" x2="3834.176508" y2="1087.926718" stroke="black" stroke-width="6.48"/>
<line x1="3834.176508" y1="1087.926718" x2="3628.463576" y2="1127.91326" stroke="black" stroke-width="6.48"/>
<line x1="3628.463576" y1="1127.91326" x2="3634.357284" y2="1158.23376" stroke="black" stroke-width="6.48"/>
<line x1="3634.357284" y1="1158.23376" x2="3840.070216" y2="1118.247217" stroke="black" stroke-width="6.48"/>
<line x1="3801.171744" y1="918.131915" x2="3795.278036" y2="887.811415" stroke="black" stroke-width="6.48"/>
<line x1="3795.278036" y1="887.811415" x2="3589.565105" y2="927.797958" stroke="black" stroke-width="6.48"/>
<line x1="3589.565105" y1="927.797958" x2="3595.458812" y2="958.118461" stroke="black" stroke-width="6.48"/>
<line x1="3595.458812" y1="958.118461" x2="3801.171744" y2="918.131915" stroke="black" stroke-width="6.48"/>
<line x1="3834.267181" y1="1088.393184" x2="3801.171744" y2="918.131915" stroke="black" stroke-width="6.48"/>
<line x1="3629.577859" y1="1128.664858" x2="3598.844393" y2="1107.52956" stroke="black" stroke-width="6.48"/>
<line x1="3575.722925" y1="988.579908" x2="3596.301076" y2="957.470645" stroke="black" stroke-width="6.48"/>
<line x1="3599.207086" y1="1109.395436" x2="3575.360236" y2="986.714028" stroke="black" stroke-width="6.48"/>
<line x1="3790.328404" y1="1096.44993" x2="3757.232963" y2="926.188654" stroke="black" stroke-width="6.48"/>
<line x1="1258.269455" y1="1625.812592" x2="1097.072446" y2="1726.53961" stroke="black" stroke-width="6.48"/>
<line x1="1097.072446" y1="1726.53961" x2="1342.846361" y2="2119.860306" stroke="black" stroke-width="6.48"/>
<line x1="1342.846361" y1="2119.860306" x2="1504.043366" y2="2019.133292" stroke="black" stroke-width="6.48"/>
<line x1="1504.043366" y1="2019.133292" x2="1491.452489" y2="1998.983664" stroke="black" stroke-width="6.48"/>
<line x1="1491.452489" y1="1998.983664" x2="1349.599126" y2="2087.623436" stroke="black" stroke-width="6.48"/>
<line x1="1349.599126" y1="2087.623436" x2="1129.510602" y2="1735.407976" stroke="black" stroke-width="6.48"/>
<line x1="1129.510602" y1="1735.407976" x2="1271.363969" y2="1646.768203" stroke="black" stroke-width="6.48"/>
<line x1="1271.363969" y1="1646.768203" x2="1258.269455" y2="1625.812592" stroke="black" stroke-width="6.48"/>
<line x1="1266.528053" y1="1649.790018" x2="1486.616584" y2="2002.005479" stroke="black" stroke-width="6.48"/>
<line x1="1377.126482" y1="1824.991117" x2="1240.109032" y2="1910.609078" stroke="black" stroke-width="6.48"/>
<line x1="934.953336" y1="210.036974" x2="1205.500536" y2="210.036974" stroke="black" stroke-width="6.48"/>
<line x1="1205.500536" y1="210.036974" x2="1205.500536" y2="341.984174" stroke="black" stroke-width="6.48"/>
<line x1="934.953336" y1="341.984174" x2="1205.500536" y2="341.984174" stroke="black" stroke-width="6.48"/>
<line x1="934.953336" y1="210.036974" x2="934.953336" y2="341.984174" stroke="black" stroke-width="6.48"/>
<line x1="941.606136" y1="216.689774" x2="1079.651736" y2="216.689774" stroke="black" stroke-width="6.48"/>
<line x1="1079.651736" y1="216.689774" x2="1079.651736" y2="334.776974" stroke="black" stroke-width="6.48"/>
<line x1="941.606136" y1="334.776974" x2="1079.651736" y2="334.776974" stroke="black" stroke-width="6.48"/>
<line x1="941.606136" y1="216.689774" x2="941.606136" y2="334.776974" stroke="black" stroke-width="6.48"/>
<line x1="1094.066136" y1="224.451374" x2="1191.086136" y2="224.451374" stroke="black" stroke-width="6.48"/>
<line x1="1094.066136" y1="244.964174" x2="1191.086136" y2="244.964174" stroke="black" stroke-width="6.48"/>
<line x1="1094.620536" y1="266.031374" x2="1191.640536" y2="266.031374" stroke="black" stroke-width="6.48"/>
<line x1="1094.620536" y1="286.544174" x2="1191.640536" y2="286.544174" stroke="black" stroke-width="6.48"/>
<line x1="1094.066136" y1="307.056974" x2="1191.086136" y2="307.056974" stroke="black" stroke-width="6.48"/>
<line x1="1094.066136" y1="327.569774" x2="1191.086136" y2="327.569774" stroke="black" stroke-width="6.48"/>
<line x1="994.274136" y1="334.776974" x2="994.274136" y2="320.916974" stroke="black" stroke-width="6.48"/>
<line x1="994.274136" y1="320.916974" x2="1028.646936" y2="320.916974" stroke="black" stroke-width="6.48"/>
<line x1="1028.646936" y1="320.916974" x2="1028.646936" y2="334.222574" stroke="black" stroke-width="6.48"/>
<circle cx="1064.128536" cy="231.658574" r="8.316000000000003" fill="none" stroke="black" stroke-width="6.48"/>
<line x1="5639.646798" y1="1435.204706" x2="5643.94558" y2="1465.792106" stroke="black" stroke-width="6.48"/>
<line x1="5643.94558" y1="1465.792106" x2="5851.469326" y2="1436.626548" stroke="black" stroke-width="6.48"/>
<line x1="5851.469326" y1="1436.626548" x2="5847.170548" y2="1406.039148" stroke="black" stroke-width="6.48"/>
<line x1="5847.170548" y1="1406.039148" x2="5639.646798" y2="1435.204706" stroke="black" stroke-width="6.48"/>
<line x1="5668.01874" y1="1637.08155" x2="5672.317518" y2="1667.668946" stroke="black" stroke-width="6.48"/>
<line x1="5672.317518" y1="1667.668946" x2="5879.841264" y2="1638.503388" stroke="black" stroke-width="6.48"/>
<line x1="5879.841264" y1="1638.503388" x2="5875.542486" y2="1607.915988" stroke="black" stroke-width="6.48"/>
<line x1="5875.542486" y1="1607.915988" x2="5668.01874" y2="1637.08155" stroke="black" stroke-width="6.48"/>
<line x1="5643.879444" y1="1465.321532" x2="5668.01874" y2="1637.08155" stroke="black" stroke-width="6.48"/>
<line x1="5850.395903" y1="1435.817668" x2="5879.98111" y2="1458.532462" stroke="black" stroke-width="6.48"/>
<line x1="5896.845551" y1="1578.529184" x2="5874.667466" y2="1608.518837" stroke="black" stroke-width="6.48"/>
<line x1="5879.716571" y1="1456.650158" x2="5897.11009" y2="1580.411488" stroke="black" stroke-width="6.48"/>
<line x1="5688.179662" y1="1459.575414" x2="5712.318961" y2="1631.335428" stroke="black" stroke-width="6.48"/>
</g>
</svg>
