<?xml version="1.0"?>
<svg xmlns:xlink="http://www.w3.org/1999/xlink" width="6775.2" height="2858.4">
<image x="0" y="0" width="6775.2" height="2858.4" xlink:href="groundfilled-01.png"/>
<g style="stroke-linecap:round">
<line x1="1285.950406" y1="795.178109" x2="1311.346069" y2="795.178109" stroke="black" stroke-width="6.48"/>
<line x1="1311.346069" y1="795.178109" x2="1311.346069" y2="745.625592" stroke="black" stroke-width="6.48"/>
<line x1="1311.346069" y1="745.625592" x2="1285.950406" y2="745.625592" stroke="black" stroke-width="6.48"/>
<line x1="1285.950406" y1="745.625592" x2="1285.950406" y2="795.178109" stroke="black" stroke-width="6.48"/>
<line x1="1559.728062" y1="745.625592" x2="1559.728062" y2="498.48241" stroke="black" stroke-width="6.48"/>
<line x1="1560.347471" y1="796.416923" x2="1585.743134" y2="796.416923" stroke="black" stroke-width="6.48"/>
<line x1="1585.743134" y1="796.416923" x2="1585.743134" y2="746.864406" stroke="black" stroke-width="6.48"/>
<line x1="1585.743134" y1="746.864406" x2="1560.347471" y2="746.864406" stroke="black" stroke-width="6.48"/>
<line x1="1560.347471" y1="746.864406" x2="1560.347471" y2="796.416923" stroke="black" stroke-width="6.48"/>
<path d="m 1311.346069,747.483811 a 248.38199299999997,248.38199299999997 0 0 1 248.38199299999997,-248.38199299999997" fill="none" stroke="black" stroke-width="6.48"/>
<line x1="320.532556" y1="771.34176" x2="320.532556" y2="366.736194" stroke="black" stroke-width="6.48"/>
<line x1="320.532556" y1="366.736194" x2="258.159283" y2="366.736194" stroke="black" stroke-width="6.48"/>
<line x1="258.159283" y1="366.736194" x2="258.159283" y2="771.34176" stroke="black" stroke-width="6.48"/>
<line x1="258.159283" y1="771.34176" x2="320.532556" y2="771.34176" stroke="black" stroke-width="6.48"/>
<line x1="258.979986" y1="733.589518" x2="319.711856" y2="733.589518" stroke="black" stroke-width="6.48"/>
<line x1="258.979986" y1="405.309139" x2="322.173958" y2="405.309139" stroke="black" stroke-width="6.48"/>
<line x1="287.704519" y1="734.410217" x2="287.704519" y2="406.129838" stroke="black" stroke-width="6.48"/>
<line x1="3901.945176" y1="1169.331426" x2="3901.945176" y2="1428.837066" stroke="black" stroke-width="6.48"/>
<line x1="3901.945176" y1="1428.837066" x2="3941.9501" y2="1428.837066" stroke="black" stroke-width="6.48"/>
<line x1="3941.9501" y1="1428.837066" x2="3941.9501" y2="1169.331426" stroke="black" stroke-width="6.48"/>
<line x1="3941.9501" y1="1169.331426" x2="3901.945176" y2="1169.331426" stroke="black" stroke-width="6.48"/>
<line x1="3941.423719" y1="1193.544936" x2="3902.471557" y2="1193.544936" stroke="black" stroke-width="6.48"/>
<line x1="3941.423719" y1="1404.097178" x2="3900.892414" y2="1404.097178" stroke="black" stroke-width="6.48"/>
<line x1="3923.000399" y1="1193.018555" x2="3923.000399" y2="1403.570797" stroke="black" stroke-width="6.48"/>
<line x1="323.923298" y1="1882.957399" x2="323.923298" y2="1457.423957" stroke="black" stroke-width="6.48"/>
<line x1="323.923298" y1="1457.423957" x2="258.323825" y2="1457.423957" stroke="black" stroke-width="6.48"/>
<line x1="258.323825" y1="1457.423957" x2="258.323825" y2="1882.957399" stroke="black" stroke-width="6.48"/>
<line x1="258.323825" y1="1882.957399" x2="323.923298" y2="1882.957399" stroke="black" stroke-width="6.48"/>
<line x1="259.186975" y1="1843.252456" x2="323.060148" y2="1843.252456" stroke="black" stroke-width="6.48"/>
<line x1="259.186975" y1="1497.992054" x2="325.649603" y2="1497.992054" stroke="black" stroke-width="6.48"/>
<line x1="289.397261" y1="1844.115606" x2="289.397261" y2="1498.855205" stroke="black" stroke-width="6.48"/>
<line x1="2747.905531" y1="904.670665" x2="2721.68303" y2="904.670665" stroke="black" stroke-width="6.48"/>
<line x1="2721.68303" y1="904.670665" x2="2721.68303" y2="955.836522" stroke="black" stroke-width="6.48"/>
<line x1="2721.68303" y1="955.836522" x2="2747.905531" y2="955.836522" stroke="black" stroke-width="6.48"/>
<line x1="2747.905531" y1="955.836522" x2="2747.905531" y2="904.670665" stroke="black" stroke-width="6.48"/>
<line x1="2465.214181" y1="955.836522" x2="2465.214181" y2="1211.026223" stroke="black" stroke-width="6.48"/>
<line x1="2464.574609" y1="903.39152" x2="2438.352108" y2="903.39152" stroke="black" stroke-width="6.48"/>
<line x1="2438.352108" y1="903.39152" x2="2438.352108" y2="954.557374" stroke="black" stroke-width="6.48"/>
<line x1="2438.352108" y1="954.557374" x2="2464.574609" y2="954.557374" stroke="black" stroke-width="6.48"/>
<line x1="2464.574609" y1="954.557374" x2="2464.574609" y2="903.39152" stroke="black" stroke-width="6.48"/>
<path d="m 2721.68303,953.917801 a 256.4688490000001,256.4688490000001 0 0 1 -256.4688490000003,256.46884899999986" fill="none" stroke="black" stroke-width="6.48"/>
<line x1="2420.532389" y1="1427.858834" x2="2395.136725" y2="1427.858834" stroke="black" stroke-width="6.48"/>
<line x1="2395.136725" y1="1427.858834" x2="2395.136725" y2="1477.411351" stroke="black" stroke-width="6.48"/>
<line x1="2395.136725" y1="1477.411351" x2="2420.532389" y2="1477.411351" stroke="black" stroke-width="6.48"/>
<line x1="2420.532389" y1="1477.411351" x2="2420.532389" y2="1427.858834" stroke="black" stroke-width="6.48"/>
<line x1="2146.754732" y1="1477.411351" x2="2146.754732" y2="1724.554534" stroke="black" stroke-width="6.48"/>
<line x1="2146.135324" y1="1426.62002" x2="2120.73966" y2="1426.62002" stroke="black" stroke-width="6.48"/>
<line x1="2120.73966" y1="1426.62002" x2="2120.73966" y2="1476.172537" stroke="black" stroke-width="6.48"/>
<line x1="2120.73966" y1="1476.172537" x2="2146.135324" y2="1476.172537" stroke="black" stroke-width="6.48"/>
<line x1="2146.135324" y1="1476.172537" x2="2146.135324" y2="1426.62002" stroke="black" stroke-width="6.48"/>
<path d="m 2395.136725,1475.553132 a 248.38199299999997,248.38199299999997 0 0 1 -248.38199299999997,248.38199299999997" fill="none" stroke="black" stroke-width="6.48"/>
<line x1="787.51849" y1="692.136151" x2="1180.35049" y2="692.136151" stroke="black" stroke-width="6.48"/>
<line x1="1180.35049" y1="692.136151" x2="1180.35049" y2="507.600151" stroke="black" stroke-width="6.48"/>
<line x1="1180.35049" y1="507.600151" x2="787.51849" y2="507.600151" stroke="black" stroke-width="6.48"/>
<line x1="787.51849" y1="507.600151" x2="787.51849" y2="692.136151" stroke="black" stroke-width="6.48"/>
<line x1="946.71049" y1="507.600151" x2="946.71049" y2="426.816151" stroke="black" stroke-width="6.48"/>
<line x1="946.71049" y1="426.816151" x2="868.30249" y2="426.816151" stroke="black" stroke-width="6.48"/>
<line x1="868.30249" y1="426.816151" x2="868.30249" y2="507.600151" stroke="black" stroke-width="6.48"/>
<line x1="869.09449" y1="444.240151" x2="946.71049" y2="444.240151" stroke="black" stroke-width="6.48"/>
<line x1="868.30249" y1="773.712151" x2="946.71049" y2="773.712151" stroke="black" stroke-width="6.48"/>
<line x1="946.71049" y1="773.712151" x2="946.71049" y2="692.136151" stroke="black" stroke-width="6.48"/>
<line x1="868.30249" y1="692.136151" x2="868.30249" y2="773.712151" stroke="black" stroke-width="6.48"/>
<line x1="869.09449" y1="756.288151" x2="946.71049" y2="756.288151" stroke="black" stroke-width="6.48"/>
<line x1="1097.98249" y1="507.600151" x2="1097.98249" y2="426.816151" stroke="black" stroke-width="6.48"/>
<line x1="1097.98249" y1="426.816151" x2="1019.57449" y2="426.816151" stroke="black" stroke-width="6.48"/>
<line x1="1019.57449" y1="426.816151" x2="1019.57449" y2="507.600151" stroke="black" stroke-width="6.48"/>
<line x1="1019.57449" y1="444.240151" x2="1097.98249" y2="444.240151" stroke="black" stroke-width="6.48"/>
<line x1="1019.57449" y1="773.712151" x2="1097.98249" y2="773.712151" stroke="black" stroke-width="6.48"/>
<line x1="1097.98249" y1="773.712151" x2="1097.98249" y2="692.136151" stroke="black" stroke-width="6.48"/>
<line x1="1019.57449" y1="692.136151" x2="1019.57449" y2="773.712151" stroke="black" stroke-width="6.48"/>
<line x1="1019.57449" y1="756.288151" x2="1097.98249" y2="756.288151" stroke="black" stroke-width="6.48"/>
<line x1="2032.924367" y1="2021.622386" x2="2032.924367" y2="1812.534386" stroke="black" stroke-width="6.48"/>
<line x1="2032.924367" y1="1812.534386" x2="1801.026767" y2="1812.534386" stroke="black" stroke-width="6.48"/>
<line x1="1801.026767" y1="1812.534386" x2="1801.026767" y2="2021.622386" stroke="black" stroke-width="6.48"/>
<line x1="1801.026767" y1="2021.622386" x2="2032.924367" y2="2021.622386" stroke="black" stroke-width="6.48"/>
<line x1="2000.610767" y1="2021.622386" x2="2000.610767" y2="1812.534386" stroke="black" stroke-width="6.48"/>
<line x1="1485.415969" y1="209.267824" x2="1707.693134" y2="209.267824" stroke="black" stroke-width="6.48"/>
<line x1="1707.693134" y1="209.267824" x2="1707.693134" y2="432.000475" stroke="black" stroke-width="6.48"/>
<line x1="1707.693134" y1="432.000475" x2="1485.415969" y2="432.000475" stroke="black" stroke-width="6.48"/>
<line x1="1485.415969" y1="432.000475" x2="1485.415969" y2="209.267824" stroke="black" stroke-width="6.48"/>
<line x1="1484.960483" y1="208.812337" x2="1707.693134" y2="432.000475" stroke="black" stroke-width="6.48"/>
<line x1="1485.415969" y1="431.544989" x2="1707.237648" y2="209.267824" stroke="black" stroke-width="6.48"/>
<line x1="2761.020558" y1="2194.614338" x2="2761.020558" y2="1803.366338" stroke="black" stroke-width="6.48"/>
<line x1="2761.020558" y1="1803.366338" x2="2586.780558" y2="1803.366338" stroke="black" stroke-width="6.48"/>
<line x1="2586.780558" y1="1803.366338" x2="2586.780558" y2="2194.614338" stroke="black" stroke-width="6.48"/>
<line x1="2586.780558" y1="2194.614338" x2="2761.020558" y2="2194.614338" stroke="black" stroke-width="6.48"/>
<line x1="2613.708558" y1="1878.606338" x2="2613.708558" y2="2162.934338" stroke="black" stroke-width="6.48"/>
<line x1="2613.708558" y1="2162.934338" x2="2731.716558" y2="2162.934338" stroke="black" stroke-width="6.48"/>
<line x1="2731.716558" y1="2162.934338" x2="2731.716558" y2="1873.062338" stroke="black" stroke-width="6.48"/>
<path d="m 2613.453134,1879.416911 a 63.3599990854681,63.3599990854681 0 0 1 119.3743300000001,-4.293814000000111" fill="none" stroke="black" stroke-width="6.48"/>
<line x1="2105.481791" y1="1865.346073" x2="2105.481791" y2="2049.090073" stroke="black" stroke-width="6.48"/>
<line x1="2105.481791" y1="2049.090073" x2="2056.377791" y2="2049.090073" stroke="black" stroke-width="6.48"/>
<line x1="2056.377791" y1="1865.346073" x2="2056.377791" y2="2049.090073" stroke="black" stroke-width="6.48"/>
<line x1="2105.481791" y1="1865.346073" x2="2056.377791" y2="1865.346073" stroke="black" stroke-width="6.48"/>
<line x1="2133.201791" y1="1906.926073" x2="2105.481791" y2="1906.926073" stroke="black" stroke-width="6.48"/>
<line x1="2105.481791" y1="2005.926073" x2="2134.785791" y2="2005.926073" stroke="black" stroke-width="6.48"/>
<circle cx="2178.345791" cy="1955.634073" r="66.52800000000002" fill="none" stroke="black" stroke-width="6.48"/>
<circle cx="2178.345791" cy="1955.634073" r="57.02400000000001" fill="none" stroke="black" stroke-width="6.48"/>
<line x1="513.897102" y1="210.162085" x2="907.140974" y2="210.162085" stroke="black" stroke-width="6.48"/>
<line x1="911.096381" y1="209.165803" x2="911.096381" y2="345.234578" stroke="black" stroke-width="6.48"/>
<line x1="514.361491" y1="346.386085" x2="911.401722" y2="346.386085" stroke="black" stroke-width="6.48"/>
<line x1="515.096381" y1="210.856835" x2="515.096381" y2="346.120891" stroke="black" stroke-width="6.48"/>
<line x1="525.392381" y1="221.250085" x2="648.944381" y2="221.250085" stroke="black" stroke-width="6.48"/>
<line x1="648.944381" y1="221.250085" x2="648.944381" y2="335.298085" stroke="black" stroke-width="6.48"/>
<line x1="525.392381" y1="335.298085" x2="648.944381" y2="335.298085" stroke="black" stroke-width="6.48"/>
<line x1="525.392381" y1="221.250085" x2="525.392381" y2="335.298085" stroke="black" stroke-width="6.48"/>
<line x1="667.952381" y1="228.378085" x2="755.072381" y2="228.378085" stroke="black" stroke-width="6.48"/>
<line x1="667.952381" y1="248.178085" x2="755.072381" y2="248.178085" stroke="black" stroke-width="6.48"/>
<line x1="668.744381" y1="268.770085" x2="755.072381" y2="268.770085" stroke="black" stroke-width="6.48"/>
<line x1="668.744381" y1="288.570085" x2="755.072381" y2="288.570085" stroke="black" stroke-width="6.48"/>
<line x1="667.952381" y1="308.370085" x2="755.072381" y2="308.370085" stroke="black" stroke-width="6.48"/>
<line x1="667.952381" y1="328.170085" x2="755.072381" y2="328.170085" stroke="black" stroke-width="6.48"/>
<line x1="572.912381" y1="334.506085" x2="572.912381" y2="321.042085" stroke="black" stroke-width="6.48"/>
<line x1="572.912381" y1="321.042085" x2="603.008381" y2="321.042085" stroke="black" stroke-width="6.48"/>
<line x1="603.008381" y1="321.042085" x2="603.008381" y2="333.714085" stroke="black" stroke-width="6.48"/>
<line x1="775.664381" y1="221.250085" x2="899.216381" y2="221.250085" stroke="black" stroke-width="6.48"/>
<line x1="899.216381" y1="221.250085" x2="899.216381" y2="335.298085" stroke="black" stroke-width="6.48"/>
<line x1="775.664381" y1="335.298085" x2="899.216381" y2="335.298085" stroke="black" stroke-width="6.48"/>
<line x1="775.664381" y1="221.250085" x2="775.664381" y2="335.298085" stroke="black" stroke-width="6.48"/>
<line x1="823.184381" y1="335.298085" x2="823.184381" y2="321.834085" stroke="black" stroke-width="6.48"/>
<line x1="823.184381" y1="321.834085" x2="853.280381" y2="321.834085" stroke="black" stroke-width="6.48"/>
<line x1="853.280381" y1="321.834085" x2="853.280381" y2="334.506085" stroke="black" stroke-width="6.48"/>
<circle cx="634.688381" cy="235.506085" r="7.128000000000001" fill="none" stroke="black" stroke-width="6.48"/>
<circle cx="884.960381" cy="236.298085" r="7.128000000000001" fill="none" stroke="black" stroke-width="6.48"/>
<line x1="818.843778" y1="1370.348824" x2="1210.718858" y2="1342.946246" stroke="black" stroke-width="6.48"/>
<line x1="1210.718858" y1="1342.946246" x2="1197.846277" y2="1158.859768" stroke="black" stroke-width="6.48"/>
<line x1="1197.846277" y1="1158.859768" x2="805.971197" y2="1186.262341" stroke="black" stroke-width="6.48"/>
<line x1="805.971197" y1="1186.262341" x2="818.843778" y2="1370.348824" stroke="black" stroke-width="6.48"/>
<line x1="964.775412" y1="1175.15767" x2="959.140206" y2="1094.570456" stroke="black" stroke-width="6.48"/>
<line x1="959.140206" y1="1094.570456" x2="880.923204" y2="1100.039922" stroke="black" stroke-width="6.48"/>
<line x1="880.923204" y1="1100.039922" x2="886.55841" y2="1180.627135" stroke="black" stroke-width="6.48"/>
<line x1="882.92871" y1="1117.366229" x2="960.355645" y2="1111.952012" stroke="black" stroke-width="6.48"/>
<line x1="905.121446" y1="1446.090901" x2="983.338448" y2="1440.621432" stroke="black" stroke-width="6.48"/>
<line x1="983.338448" y1="1440.621432" x2="977.647993" y2="1359.244152" stroke="black" stroke-width="6.48"/>
<line x1="899.430991" y1="1364.713614" x2="905.121446" y2="1446.090901" stroke="black" stroke-width="6.48"/>
<line x1="904.696078" y1="1428.654096" x2="982.123013" y2="1423.23988" stroke="black" stroke-width="6.48"/>
<line x1="1115.678923" y1="1164.605468" x2="1110.043717" y2="1084.018255" stroke="black" stroke-width="6.48"/>
<line x1="1110.043717" y1="1084.018255" x2="1031.826715" y2="1089.487717" stroke="black" stroke-width="6.48"/>
<line x1="1031.826715" y1="1089.487717" x2="1037.461921" y2="1170.074934" stroke="black" stroke-width="6.48"/>
<line x1="1033.042151" y1="1106.869277" x2="1111.259149" y2="1101.399811" stroke="black" stroke-width="6.48"/>
<line x1="1056.024958" y1="1435.5387" x2="1134.241956" y2="1430.069234" stroke="black" stroke-width="6.48"/>
<line x1="1134.241956" y1="1430.069234" x2="1128.551504" y2="1348.691951" stroke="black" stroke-width="6.48"/>
<line x1="1050.334502" y1="1354.161416" x2="1056.024958" y2="1435.5387" stroke="black" stroke-width="6.48"/>
<line x1="1054.809518" y1="1418.15714" x2="1133.026524" y2="1412.687678" stroke="black" stroke-width="6.48"/>
<line x1="2044.889399" y1="955.822399" x2="2267.166564" y2="955.822399" stroke="black" stroke-width="6.48"/>
<line x1="2267.166564" y1="955.822399" x2="2267.166564" y2="1178.555051" stroke="black" stroke-width="6.48"/>
<line x1="2267.166564" y1="1178.555051" x2="2044.889399" y2="1178.555051" stroke="black" stroke-width="6.48"/>
<line x1="2044.889399" y1="1178.555051" x2="2044.889399" y2="955.822399" stroke="black" stroke-width="6.48"/>
<line x1="2044.433912" y1="955.366913" x2="2267.166564" y2="1178.555051" stroke="black" stroke-width="6.48"/>
<line x1="2044.889399" y1="1178.099564" x2="2266.711078" y2="955.822399" stroke="black" stroke-width="6.48"/>
<line x1="323.258818" y1="1375.374532" x2="323.258818" y2="949.841089" stroke="black" stroke-width="6.48"/>
<line x1="323.258818" y1="949.841089" x2="257.659344" y2="949.841089" stroke="black" stroke-width="6.48"/>
<line x1="257.659344" y1="949.841089" x2="257.659344" y2="1375.374532" stroke="black" stroke-width="6.48"/>
<line x1="257.659344" y1="1375.374532" x2="323.258818" y2="1375.374532" stroke="black" stroke-width="6.48"/>
<line x1="258.522494" y1="1335.669588" x2="322.395667" y2="1335.669588" stroke="black" stroke-width="6.48"/>
<line x1="258.522494" y1="990.409187" x2="324.985122" y2="990.409187" stroke="black" stroke-width="6.48"/>
<line x1="288.73278" y1="1336.532738" x2="288.73278" y2="991.272337" stroke="black" stroke-width="6.48"/>
<line x1="3874.406537" y1="1514.726719" x2="3874.406537" y2="1940.260162" stroke="black" stroke-width="6.48"/>
<line x1="3874.406537" y1="1940.260162" x2="3940.00601" y2="1940.260162" stroke="black" stroke-width="6.48"/>
<line x1="3940.00601" y1="1940.260162" x2="3940.00601" y2="1514.726719" stroke="black" stroke-width="6.48"/>
<line x1="3940.00601" y1="1514.726719" x2="3874.406537" y2="1514.726719" stroke="black" stroke-width="6.48"/>
<line x1="3939.14286" y1="1554.431663" x2="3875.269687" y2="1554.431663" stroke="black" stroke-width="6.48"/>
<line x1="3939.14286" y1="1899.692064" x2="3872.680232" y2="1899.692064" stroke="black" stroke-width="6.48"/>
<line x1="3908.932574" y1="1553.568512" x2="3908.932574" y2="1898.828914" stroke="black" stroke-width="6.48"/>
<line x1="4966.13979" y1="1505.293668" x2="4724.288262" y2="1195.737826" stroke="black" stroke-width="6.48"/>
<line x1="4724.288262" y1="1195.737826" x2="4578.871907" y2="1309.349534" stroke="black" stroke-width="6.48"/>
<line x1="4578.871907" y1="1309.349534" x2="4820.723438" y2="1618.905373" stroke="black" stroke-width="6.48"/>
<line x1="4820.723438" y1="1618.905373" x2="4966.13979" y2="1505.293668" stroke="black" stroke-width="6.48"/>
<line x1="4722.715055" y1="1493.460367" x2="4659.056395" y2="1543.195966" stroke="black" stroke-width="6.48"/>
<line x1="4659.056395" y1="1543.195966" x2="4707.329177" y2="1604.982312" stroke="black" stroke-width="6.48"/>
<line x1="4707.329177" y1="1604.982312" x2="4770.98784" y2="1555.24671" stroke="black" stroke-width="6.48"/>
<line x1="4720.571874" y1="1593.630922" x2="4672.786694" y2="1532.468675" stroke="black" stroke-width="6.48"/>
<line x1="4980.686958" y1="1391.411804" x2="4932.414173" y2="1329.625458" stroke="black" stroke-width="6.48"/>
<line x1="4932.414173" y1="1329.625458" x2="4868.13141" y2="1379.848662" stroke="black" stroke-width="6.48"/>
<line x1="4916.404195" y1="1441.635008" x2="4980.686958" y2="1391.411804" stroke="black" stroke-width="6.48"/>
<line x1="4966.469057" y1="1401.514988" x2="4918.683874" y2="1340.352745" stroke="black" stroke-width="6.48"/>
<line x1="4629.582713" y1="1374.256404" x2="4565.924053" y2="1423.991999" stroke="black" stroke-width="6.48"/>
<line x1="4565.924053" y1="1423.991999" x2="4614.196838" y2="1485.778349" stroke="black" stroke-width="6.48"/>
<line x1="4614.196838" y1="1485.778349" x2="4677.855498" y2="1436.04275" stroke="black" stroke-width="6.48"/>
<line x1="4627.927134" y1="1475.051062" x2="4579.654352" y2="1413.264712" stroke="black" stroke-width="6.48"/>
<line x1="4887.554616" y1="1272.207845" x2="4839.281831" y2="1210.421498" stroke="black" stroke-width="6.48"/>
<line x1="4839.281831" y1="1210.421498" x2="4774.999064" y2="1260.644699" stroke="black" stroke-width="6.48"/>
<line x1="4823.27185" y1="1322.431045" x2="4887.554616" y2="1272.207845" stroke="black" stroke-width="6.48"/>
<line x1="4873.824317" y1="1282.935128" x2="4825.551528" y2="1221.148782" stroke="black" stroke-width="6.48"/>
<line x1="3266.994956" y1="1074.853573" x2="3476.36016" y2="1074.853573" stroke="black" stroke-width="6.48"/>
<line x1="3476.36016" y1="1074.853573" x2="3476.36016" y2="743.63917" stroke="black" stroke-width="6.48"/>
<line x1="3476.36016" y1="743.63917" x2="3266.994956" y2="743.63917" stroke="black" stroke-width="6.48"/>
<line x1="3266.994956" y1="743.63917" x2="3266.994956" y2="1074.853573" stroke="black" stroke-width="6.48"/>
<line x1="3266.321756" y1="802.88077" x2="3477.033356" y2="802.88077" stroke="black" stroke-width="6.48"/>
<line x1="3477.033356" y1="802.88077" x2="3267.668156" y2="852.697573" stroke="black" stroke-width="6.48"/>
<line x1="3267.668156" y1="852.697573" x2="3299.30856" y2="899.148373" stroke="black" stroke-width="6.48"/>
<line x1="3299.30856" y1="899.148373" x2="3477.033356" y2="802.207573" stroke="black" stroke-width="6.48"/>
<line x1="3328.305613" y1="1203.464812" x2="3550.582778" y2="1203.464812" stroke="black" stroke-width="6.48"/>
<line x1="3550.582778" y1="1203.464812" x2="3550.582778" y2="1426.197463" stroke="black" stroke-width="6.48"/>
<line x1="3550.582778" y1="1426.197463" x2="3328.305613" y2="1426.197463" stroke="black" stroke-width="6.48"/>
<line x1="3328.305613" y1="1426.197463" x2="3328.305613" y2="1203.464812" stroke="black" stroke-width="6.48"/>
<line x1="3327.850127" y1="1203.009325" x2="3550.582778" y2="1426.197463" stroke="black" stroke-width="6.48"/>
<line x1="3328.305613" y1="1425.741977" x2="3550.127292" y2="1203.464812" stroke="black" stroke-width="6.48"/>
<line x1="2804.16708" y1="1127.69402" x2="2804.16708" y2="1153.148746" stroke="black" stroke-width="6.48"/>
<line x1="2804.16708" y1="1153.148746" x2="2853.834836" y2="1153.148746" stroke="black" stroke-width="6.48"/>
<line x1="2853.834836" y1="1153.148746" x2="2853.834836" y2="1127.69402" stroke="black" stroke-width="6.48"/>
<line x1="2853.834836" y1="1127.69402" x2="2804.16708" y2="1127.69402" stroke="black" stroke-width="6.48"/>
<line x1="2853.834836" y1="1402.108373" x2="3101.55277" y2="1402.108373" stroke="black" stroke-width="6.48"/>
<line x1="2802.925386" y1="1402.729218" x2="2802.925386" y2="1428.183943" stroke="black" stroke-width="6.48"/>
<line x1="2802.925386" y1="1428.183943" x2="2852.593142" y2="1428.183943" stroke="black" stroke-width="6.48"/>
<line x1="2852.593142" y1="1428.183943" x2="2852.593142" y2="1402.729218" stroke="black" stroke-width="6.48"/>
<line x1="2852.593142" y1="1402.729218" x2="2802.925386" y2="1402.729218" stroke="black" stroke-width="6.48"/>
<path d="m 2851.972294,1153.148746 a 248.95962699999984,248.95962699999984 0 0 1 248.95962699999973,248.95962699999995" fill="none" stroke="black" stroke-width="6.48"/>
<line x1="3428.312364" y1="1689.329905" x2="3660.0687" y2="1681.236799" stroke="black" stroke-width="6.48"/>
<line x1="3660.0687" y1="1681.236799" x2="3668.178391" y2="1913.46804" stroke="black" stroke-width="6.48"/>
<line x1="3668.178391" y1="1913.46804" x2="3436.422059" y2="1921.56115" stroke="black" stroke-width="6.48"/>
<line x1="3436.422059" y1="1921.56115" x2="3428.312364" y2="1689.329905" stroke="black" stroke-width="6.48"/>
<line x1="3427.82087" y1="1688.871578" x2="3668.178391" y2="1913.46804" stroke="black" stroke-width="6.48"/>
<line x1="3436.405477" y1="1921.086241" x2="3659.593788" y2="1681.253381" stroke="black" stroke-width="6.48"/>
<line x1="3100.358268" y1="1589.315879" x2="3083.535454" y2="1615.220741" stroke="black" stroke-width="6.48"/>
<line x1="3083.535454" y1="1615.220741" x2="3259.289945" y2="1729.357034" stroke="black" stroke-width="6.48"/>
<line x1="3259.289945" y1="1729.357034" x2="3276.112752" y2="1703.45218" stroke="black" stroke-width="6.48"/>
<line x1="3276.112752" y1="1703.45218" x2="3100.358268" y2="1589.315879" stroke="black" stroke-width="6.48"/>
<line x1="2989.327716" y1="1760.287936" x2="2972.504909" y2="1786.19279" stroke="black" stroke-width="6.48"/>
<line x1="2972.504909" y1="1786.19279" x2="3148.259393" y2="1900.329088" stroke="black" stroke-width="6.48"/>
<line x1="3148.259393" y1="1900.329088" x2="3165.082207" y2="1874.424233" stroke="black" stroke-width="6.48"/>
<line x1="3165.082207" y1="1874.424233" x2="2989.327716" y2="1760.287936" stroke="black" stroke-width="6.48"/>
<line x1="3083.794268" y1="1614.822199" x2="2989.327716" y2="1760.287936" stroke="black" stroke-width="6.48"/>
<line x1="3259.010495" y1="1728.04234" x2="3266.436492" y2="1764.595055" stroke="black" stroke-width="6.48"/>
<line x1="3200.439312" y1="1866.221798" x2="3164.02632" y2="1874.305145" stroke="black" stroke-width="6.48"/>
<line x1="3267.47174" y1="1763.00091" x2="3199.40406" y2="1867.815943" stroke="black" stroke-width="6.48"/>
<line x1="3120.997864" y1="1639.549109" x2="3026.531315" y2="1785.014842" stroke="black" stroke-width="6.48"/>
<line x1="3819.610505" y1="1149.082661" x2="3822.30257" y2="1118.312197" stroke="black" stroke-width="6.48"/>
<line x1="3822.30257" y1="1118.312197" x2="3613.536821" y2="1100.047561" stroke="black" stroke-width="6.48"/>
<line x1="3613.536821" y1="1100.047561" x2="3610.844759" y2="1130.818025" stroke="black" stroke-width="6.48"/>
<line x1="3610.844759" y1="1130.818025" x2="3819.610505" y2="1149.082661" stroke="black" stroke-width="6.48"/>
<line x1="3837.378146" y1="945.99761" x2="3840.070212" y2="915.22715" stroke="black" stroke-width="6.48"/>
<line x1="3840.070212" y1="915.22715" x2="3631.304462" y2="896.962511" stroke="black" stroke-width="6.48"/>
<line x1="3631.304462" y1="896.962511" x2="3628.612393" y2="927.732974" stroke="black" stroke-width="6.48"/>
<line x1="3628.612393" y1="927.732974" x2="3837.378146" y2="945.99761" stroke="black" stroke-width="6.48"/>
<line x1="3822.261152" y1="1118.78559" x2="3837.378146" y2="945.99761" stroke="black" stroke-width="6.48"/>
<line x1="3614.400774" y1="1101.077176" x2="3590.683546" y2="1072.28934" stroke="black" stroke-width="6.48"/>
<line x1="3601.244732" y1="951.57445" x2="3629.600597" y2="927.342418" stroke="black" stroke-width="6.48"/>
<line x1="3590.517884" y1="1074.182908" x2="3601.410397" y2="949.680882" stroke="black" stroke-width="6.48"/>
<line x1="3777.803752" y1="1114.419053" x2="3792.920738" y2="941.63108" stroke="black" stroke-width="6.48"/>
<line x1="2336.967482" y1="2049.697591" x2="2567.594718" y2="2073.937547" stroke="black" stroke-width="6.48"/>
<line x1="2567.594718" y1="2073.937547" x2="2543.30509" y2="2305.03738" stroke="black" stroke-width="6.48"/>
<line x1="2543.30509" y1="2305.03738" x2="2312.677854" y2="2280.79742" stroke="black" stroke-width="6.48"/>
<line x1="2312.677854" y1="2280.79742" x2="2336.967482" y2="2049.697591" stroke="black" stroke-width="6.48"/>
<line x1="2336.544558" y1="2049.175321" x2="2543.30509" y2="2305.03738" stroke="black" stroke-width="6.48"/>
<line x1="2312.727527" y1="2280.324823" x2="2567.122121" y2="2073.887874" stroke="black" stroke-width="6.48"/>
<line x1="6229.182265" y1="2155.186811" x2="6243.76751" y2="2363.765483" stroke="black" stroke-width="6.48"/>
<line x1="6243.76751" y1="2363.765483" x2="6475.10022" y2="2347.589124" stroke="black" stroke-width="6.48"/>
<line x1="6475.10022" y1="2347.589124" x2="6460.514978" y2="2139.010452" stroke="black" stroke-width="6.48"/>
<line x1="6460.514978" y1="2139.010452" x2="6229.182265" y2="2155.186811" stroke="black" stroke-width="6.48"/>
<line x1="6261.417155" y1="2152.932725" x2="6276.002396" y2="2361.5114" stroke="black" stroke-width="6.48"/>
<line x1="1411.926397" y1="2074.288658" x2="1440.56525" y2="2085.859512" stroke="black" stroke-width="6.48"/>
<line x1="1440.56525" y1="2085.859512" x2="1519.069054" y2="1891.555916" stroke="black" stroke-width="6.48"/>
<line x1="1519.069054" y1="1891.555916" x2="1490.430204" y2="1879.985063" stroke="black" stroke-width="6.48"/>
<line x1="1490.430204" y1="1879.985063" x2="1411.926397" y2="2074.288658" stroke="black" stroke-width="6.48"/>
<line x1="1600.94282" y1="2150.656304" x2="1629.581674" y2="2162.227158" stroke="black" stroke-width="6.48"/>
<line x1="1629.581674" y1="2162.227158" x2="1708.085477" y2="1967.923562" stroke="black" stroke-width="6.48"/>
<line x1="1708.085477" y1="1967.923562" x2="1679.446627" y2="1956.352709" stroke="black" stroke-width="6.48"/>
<line x1="1679.446627" y1="1956.352709" x2="1600.94282" y2="2150.656304" stroke="black" stroke-width="6.48"/>
<line x1="1440.124654" y1="2085.681499" x2="1600.94282" y2="2150.656304" stroke="black" stroke-width="6.48"/>
<line x1="1517.831834" y1="1892.081088" x2="1552.296031" y2="1877.816952" stroke="black" stroke-width="6.48"/>
<line x1="1664.648453" y1="1923.210306" x2="1679.531198" y2="1957.411915" stroke="black" stroke-width="6.48"/>
<line x1="1550.533637" y1="1877.104897" x2="1666.41084" y2="1923.922357" stroke="black" stroke-width="6.48"/>
<line x1="1457.29849" y1="2044.443326" x2="1618.116656" y2="2109.418128" stroke="black" stroke-width="6.48"/>
</g>
</svg>
