<?xml version="1.0"?>
<svg xmlns:xlink="http://www.w3.org/1999/xlink" width="6775.2" height="2858.4">
<image x="0" y="0" width="6775.2" height="2858.4" xlink:href="groundfilled-01.png"/>
<g style="stroke-linecap:round">
<line x1="1285.950406" y1="795.178109" x2="1311.346069" y2="795.178109" stroke="black" stroke-width="6.48"/>
<line x1="1311.346069" y1="795.178109" x2="1311.346069" y2="745.625592" stroke="black" stroke-width="6.48"/>
<line x1="1311.346069" y1="745.625592" x2="1285.950406" y2="745.625592" stroke="black" stroke-width="6.48"/>
<line x1="1285.950406" y1="745.625592" x2="1285.950406" y2="795.178109" stroke="black" stroke-width="6.48"/>
<line x1="1559.728062" y1="745.625592" x2="1559.728062" y2="498.48241" stroke="black" stroke-width="6.48"/>
<line x1="1560.347471" y1="796.416923" x2="1585.743134" y2="796.416923" stroke="black" stroke-width="6.48"/>
<line x1="1585.743134" y1="796.416923" x2="1585.743134" y2="746.864406" stroke="black" stroke-width="6.48"/>
<line x1="1585.743134" y1="746.864406" x2="1560.347471" y2="746.864406" stroke="black" stroke-width="6.48"/>
<line x1="1560.347471" y1="746.864406" x2="1560.347471" y2="796.416923" stroke="black" stroke-width="6.48"/>
<path d="m 1311.346069,747.483811 a 248.38199299999997,248.38199299999997 0 0 1 248.38199299999997,-248.38199299999997" fill="none" stroke="black" stroke-width="6.48"/>
<line x1="320.532556" y1="771.34176" x2="320.532556" y2="366.736194" stroke="black" stroke-width="6.48"/>
<line x1="320.532556" y1="366.736194" x2="258.159283" y2="366.736194" stroke="black" stroke-width="6.48"/>
<line x1="258.159283" y1="366.736194" x2="258.159283" y2="771.34176" stroke="black" stroke-width="6.48"/>
<line x1="258.159283" y1="771.34176" x2="320.532556" y2="771.34176" stroke="black" stroke-width="6.48"/>
<line x1="258.979986" y1="733.589518" x2="319.711856" y2="733.589518" stroke="black" stroke-width="6.48"/>
<line x1="258.979986" y1="405.309139" x2="322.173958" y2="405.309139" stroke="black" stroke-width="6.48"/>
<line x1="287.704519" y1="734.410217" x2="287.704519" y2="406.129838" stroke="black" stroke-width="6.48"/>
<line x1="3901.945176" y1="1169.331426" x2="3901.945176" y2="1428.837066" stroke="black" stroke-width="6.48"/>
<line x1="3901.945176" y1="1428.837066" x2="3941.9501" y2="1428.837066" stroke="black" stroke-width="6.48"/>
<line x1="3941.9501" y1="1428.837066" x2="3941.9501" y2="1169.331426" stroke="black" stroke-width="6.48"/>
<line x1="3941.9501" y1="1169.331426" x2="3901.945176" y2="1169.331426" stroke="black" stroke-width="6.48"/>
<line x1="3941.423719" y1="1193.544936" x2="3902.471557" y2="1193.544936" stroke="black" stroke-width="6.48"/>
<line x1="3941.423719" y1="1404.097178" x2="3900.892414" y2="1404.097178" stroke="black" stroke-width="6.48"/>
<line x1="3923.000399" y1="1193.018555" x2="3923.000399" y2="1403.570797" stroke="black" stroke-width="6.48"/>
<line x1="334.430687" y1="1882.943946" x2="334.430687" y2="1457.437414" stroke="black" stroke-width="6.48"/>
<line x1="334.430687" y1="1457.437414" x2="258.323828" y2="1457.437414" stroke="black" stroke-width="6.48"/>
<line x1="258.323828" y1="1457.437414" x2="258.323828" y2="1882.943946" stroke="black" stroke-width="6.48"/>
<line x1="258.323828" y1="1882.943946" x2="334.430687" y2="1882.943946" stroke="black" stroke-width="6.48"/>
<line x1="334.430687" y1="1863.05238" x2="360.376207" y2="1863.05238" stroke="black" stroke-width="6.48"/>
<line x1="360.376207" y1="1863.05238" x2="360.376207" y2="1478.193829" stroke="black" stroke-width="6.48"/>
<line x1="334.430687" y1="1478.193829" x2="360.376207" y2="1478.193829" stroke="black" stroke-width="6.48"/>
<line x1="2747.905531" y1="904.670665" x2="2721.68303" y2="904.670665" stroke="black" stroke-width="6.48"/>
<line x1="2721.68303" y1="904.670665" x2="2721.68303" y2="955.836522" stroke="black" stroke-width="6.48"/>
<line x1="2721.68303" y1="955.836522" x2="2747.905531" y2="955.836522" stroke="black" stroke-width="6.48"/>
<line x1="2747.905531" y1="955.836522" x2="2747.905531" y2="904.670665" stroke="black" stroke-width="6.48"/>
<line x1="2465.214181" y1="955.836522" x2="2465.214181" y2="1211.026223" stroke="black" stroke-width="6.48"/>
<line x1="2464.574609" y1="903.39152" x2="2438.352108" y2="903.39152" stroke="black" stroke-width="6.48"/>
<line x1="2438.352108" y1="903.39152" x2="2438.352108" y2="954.557374" stroke="black" stroke-width="6.48"/>
<line x1="2438.352108" y1="954.557374" x2="2464.574609" y2="954.557374" stroke="black" stroke-width="6.48"/>
<line x1="2464.574609" y1="954.557374" x2="2464.574609" y2="903.39152" stroke="black" stroke-width="6.48"/>
<path d="m 2721.68303,953.917801 a 256.4688490000001,256.4688490000001 0 0 1 -256.4688490000003,256.46884899999986" fill="none" stroke="black" stroke-width="6.48"/>
<line x1="2420.532389" y1="1427.858834" x2="2395.136725" y2="1427.858834" stroke="black" stroke-width="6.48"/>
<line x1="2395.136725" y1="1427.858834" x2="2395.136725" y2="1477.411351" stroke="black" stroke-width="6.48"/>
<line x1="2395.136725" y1="1477.411351" x2="2420.532389" y2="1477.411351" stroke="black" stroke-width="6.48"/>
<line x1="2420.532389" y1="1477.411351" x2="2420.532389" y2="1427.858834" stroke="black" stroke-width="6.48"/>
<line x1="2146.754732" y1="1477.411351" x2="2146.754732" y2="1724.554534" stroke="black" stroke-width="6.48"/>
<line x1="2146.135324" y1="1426.62002" x2="2120.73966" y2="1426.62002" stroke="black" stroke-width="6.48"/>
<line x1="2120.73966" y1="1426.62002" x2="2120.73966" y2="1476.172537" stroke="black" stroke-width="6.48"/>
<line x1="2120.73966" y1="1476.172537" x2="2146.135324" y2="1476.172537" stroke="black" stroke-width="6.48"/>
<line x1="2146.135324" y1="1476.172537" x2="2146.135324" y2="1426.62002" stroke="black" stroke-width="6.48"/>
<path d="m 2395.136725,1475.553132 a 248.38199299999997,248.38199299999997 0 0 1 -248.38199299999997,248.38199299999997" fill="none" stroke="black" stroke-width="6.48"/>
<line x1="699.528892" y1="541.339351" x2="931.426492" y2="541.339351" stroke="black" stroke-width="6.48"/>
<line x1="931.426492" y1="541.339351" x2="931.426492" y2="773.712151" stroke="black" stroke-width="6.48"/>
<line x1="931.426492" y1="773.712151" x2="699.528892" y2="773.712151" stroke="black" stroke-width="6.48"/>
<line x1="699.528892" y1="773.712151" x2="699.528892" y2="541.339351" stroke="black" stroke-width="6.48"/>
<line x1="699.053692" y1="540.864151" x2="931.426492" y2="773.712151" stroke="black" stroke-width="6.48"/>
<line x1="699.528892" y1="773.236951" x2="930.951292" y2="541.339351" stroke="black" stroke-width="6.48"/>
<line x1="1842.844367" y1="1941.928628" x2="2032.924367" y2="1941.928628" stroke="black" stroke-width="6.48"/>
<line x1="2032.924367" y1="1941.928628" x2="2032.924367" y2="1478.133428" stroke="black" stroke-width="6.48"/>
<line x1="2032.924367" y1="1478.133428" x2="1842.844367" y2="1478.133428" stroke="black" stroke-width="6.48"/>
<line x1="1842.844367" y1="1478.133428" x2="1842.844367" y2="1501.893428" stroke="black" stroke-width="6.48"/>
<line x1="1842.844367" y1="1501.893428" x2="2010.114767" y2="1501.893428" stroke="black" stroke-width="6.48"/>
<line x1="2010.114767" y1="1501.893428" x2="2010.114767" y2="1917.218228" stroke="black" stroke-width="6.48"/>
<line x1="2010.114767" y1="1917.218228" x2="1842.844367" y2="1917.218228" stroke="black" stroke-width="6.48"/>
<line x1="1842.844367" y1="1917.218228" x2="1842.844367" y2="1941.928628" stroke="black" stroke-width="6.48"/>
<line x1="1848.546767" y1="1917.218228" x2="1848.546767" y2="1501.893428" stroke="black" stroke-width="6.48"/>
<line x1="1847.596367" y1="1710.031028" x2="2009.164367" y2="1710.031028" stroke="black" stroke-width="6.48"/>
<line x1="1485.415969" y1="209.267824" x2="1707.693134" y2="209.267824" stroke="black" stroke-width="6.48"/>
<line x1="1707.693134" y1="209.267824" x2="1707.693134" y2="432.000475" stroke="black" stroke-width="6.48"/>
<line x1="1707.693134" y1="432.000475" x2="1485.415969" y2="432.000475" stroke="black" stroke-width="6.48"/>
<line x1="1485.415969" y1="432.000475" x2="1485.415969" y2="209.267824" stroke="black" stroke-width="6.48"/>
<line x1="1484.960483" y1="208.812337" x2="1707.693134" y2="432.000475" stroke="black" stroke-width="6.48"/>
<line x1="1485.415969" y1="431.544989" x2="1707.237648" y2="209.267824" stroke="black" stroke-width="6.48"/>
<line x1="2586.780558" y1="1803.366338" x2="2586.780558" y2="2194.614338" stroke="black" stroke-width="6.48"/>
<line x1="2586.780558" y1="2194.614338" x2="2761.020558" y2="2194.614338" stroke="black" stroke-width="6.48"/>
<line x1="2761.020558" y1="2194.614338" x2="2761.020558" y2="1803.366338" stroke="black" stroke-width="6.48"/>
<line x1="2761.020558" y1="1803.366338" x2="2586.780558" y2="1803.366338" stroke="black" stroke-width="6.48"/>
<line x1="2734.092558" y1="2119.374338" x2="2734.092558" y2="1835.046338" stroke="black" stroke-width="6.48"/>
<line x1="2734.092558" y1="1835.046338" x2="2616.084558" y2="1835.046338" stroke="black" stroke-width="6.48"/>
<line x1="2616.084558" y1="1835.046338" x2="2616.084558" y2="2124.918338" stroke="black" stroke-width="6.48"/>
<path d="m 2734.347982,2118.563766 a 63.35999941905905,63.35999941905905 0 0 1 -119.37432999999965,4.2938139999996565" fill="none" stroke="black" stroke-width="6.48"/>
<line x1="2081.320715" y1="1914.602846" x2="2056.768715" y2="1933.214846" stroke="black" stroke-width="6.48"/>
<line x1="2056.768715" y1="1933.214846" x2="2056.768715" y2="2080.526846" stroke="black" stroke-width="6.48"/>
<line x1="2056.768715" y1="2080.526846" x2="2084.884715" y2="2099.534846" stroke="black" stroke-width="6.48"/>
<line x1="2084.092715" y1="1936.382846" x2="2084.092715" y2="2079.338846" stroke="black" stroke-width="6.48"/>
<circle cx="2105.872715" cy="2005.682846" r="13.068000000000003" fill="none" stroke="black" stroke-width="6.48"/>
<path d="m 2083.425368,1937.936099 a 74.8440004285373,74.8440004285373 0 1 1 0.40204799999992247,139.6090039999999" fill="none" stroke="black" stroke-width="6.48"/>
<path d="m 2080.663351,1914.64915 a 95.43599883751708,95.43599883751708 0 1 1 3.0749579999996968,184.466995" fill="none" stroke="black" stroke-width="6.48"/>
<line x1="870.374077" y1="211.033667" x2="1263.61795" y2="211.033667" stroke="black" stroke-width="6.48"/>
<line x1="1267.573356" y1="210.037385" x2="1267.573356" y2="346.10616" stroke="black" stroke-width="6.48"/>
<line x1="870.838466" y1="347.257667" x2="1267.878697" y2="347.257667" stroke="black" stroke-width="6.48"/>
<line x1="871.573356" y1="211.728416" x2="871.573356" y2="346.992473" stroke="black" stroke-width="6.48"/>
<line x1="881.869356" y1="222.121667" x2="1005.421356" y2="222.121667" stroke="black" stroke-width="6.48"/>
<line x1="1005.421356" y1="222.121667" x2="1005.421356" y2="336.169667" stroke="black" stroke-width="6.48"/>
<line x1="881.869356" y1="336.169667" x2="1005.421356" y2="336.169667" stroke="black" stroke-width="6.48"/>
<line x1="881.869356" y1="222.121667" x2="881.869356" y2="336.169667" stroke="black" stroke-width="6.48"/>
<line x1="1024.429356" y1="229.249667" x2="1111.549356" y2="229.249667" stroke="black" stroke-width="6.48"/>
<line x1="1024.429356" y1="249.049667" x2="1111.549356" y2="249.049667" stroke="black" stroke-width="6.48"/>
<line x1="1025.221356" y1="269.641667" x2="1111.549356" y2="269.641667" stroke="black" stroke-width="6.48"/>
<line x1="1025.221356" y1="289.441667" x2="1111.549356" y2="289.441667" stroke="black" stroke-width="6.48"/>
<line x1="1024.429356" y1="309.241667" x2="1111.549356" y2="309.241667" stroke="black" stroke-width="6.48"/>
<line x1="1024.429356" y1="329.041667" x2="1111.549356" y2="329.041667" stroke="black" stroke-width="6.48"/>
<line x1="929.389356" y1="335.377667" x2="929.389356" y2="321.913667" stroke="black" stroke-width="6.48"/>
<line x1="929.389356" y1="321.913667" x2="959.485356" y2="321.913667" stroke="black" stroke-width="6.48"/>
<line x1="959.485356" y1="321.913667" x2="959.485356" y2="334.585667" stroke="black" stroke-width="6.48"/>
<line x1="1132.141356" y1="222.121667" x2="1255.693356" y2="222.121667" stroke="black" stroke-width="6.48"/>
<line x1="1255.693356" y1="222.121667" x2="1255.693356" y2="336.169667" stroke="black" stroke-width="6.48"/>
<line x1="1132.141356" y1="336.169667" x2="1255.693356" y2="336.169667" stroke="black" stroke-width="6.48"/>
<line x1="1132.141356" y1="222.121667" x2="1132.141356" y2="336.169667" stroke="black" stroke-width="6.48"/>
<line x1="1179.661356" y1="336.169667" x2="1179.661356" y2="322.705667" stroke="black" stroke-width="6.48"/>
<line x1="1179.661356" y1="322.705667" x2="1209.757356" y2="322.705667" stroke="black" stroke-width="6.48"/>
<line x1="1209.757356" y1="322.705667" x2="1209.757356" y2="335.377667" stroke="black" stroke-width="6.48"/>
<circle cx="991.165356" cy="236.377667" r="7.128000000000001" fill="none" stroke="black" stroke-width="6.48"/>
<circle cx="1241.437356" cy="237.169667" r="7.128000000000001" fill="none" stroke="black" stroke-width="6.48"/>
<line x1="2044.889399" y1="955.822399" x2="2267.166564" y2="955.822399" stroke="black" stroke-width="6.48"/>
<line x1="2267.166564" y1="955.822399" x2="2267.166564" y2="1178.555051" stroke="black" stroke-width="6.48"/>
<line x1="2267.166564" y1="1178.555051" x2="2044.889399" y2="1178.555051" stroke="black" stroke-width="6.48"/>
<line x1="2044.889399" y1="1178.555051" x2="2044.889399" y2="955.822399" stroke="black" stroke-width="6.48"/>
<line x1="2044.433912" y1="955.366913" x2="2267.166564" y2="1178.555051" stroke="black" stroke-width="6.48"/>
<line x1="2044.889399" y1="1178.099564" x2="2266.711078" y2="955.822399" stroke="black" stroke-width="6.48"/>
<line x1="333.766206" y1="1375.361078" x2="333.766206" y2="949.854546" stroke="black" stroke-width="6.48"/>
<line x1="333.766206" y1="949.854546" x2="257.659348" y2="949.854546" stroke="black" stroke-width="6.48"/>
<line x1="257.659348" y1="949.854546" x2="257.659348" y2="1375.361078" stroke="black" stroke-width="6.48"/>
<line x1="257.659348" y1="1375.361078" x2="333.766206" y2="1375.361078" stroke="black" stroke-width="6.48"/>
<line x1="333.766206" y1="1355.469512" x2="359.711726" y2="1355.469512" stroke="black" stroke-width="6.48"/>
<line x1="359.711726" y1="1355.469512" x2="359.711726" y2="970.610962" stroke="black" stroke-width="6.48"/>
<line x1="333.766206" y1="970.610962" x2="359.711726" y2="970.610962" stroke="black" stroke-width="6.48"/>
<line x1="3874.406537" y1="1514.726719" x2="3874.406537" y2="1940.260162" stroke="black" stroke-width="6.48"/>
<line x1="3874.406537" y1="1940.260162" x2="3940.00601" y2="1940.260162" stroke="black" stroke-width="6.48"/>
<line x1="3940.00601" y1="1940.260162" x2="3940.00601" y2="1514.726719" stroke="black" stroke-width="6.48"/>
<line x1="3940.00601" y1="1514.726719" x2="3874.406537" y2="1514.726719" stroke="black" stroke-width="6.48"/>
<line x1="3939.14286" y1="1554.431663" x2="3875.269687" y2="1554.431663" stroke="black" stroke-width="6.48"/>
<line x1="3939.14286" y1="1899.692064" x2="3872.680232" y2="1899.692064" stroke="black" stroke-width="6.48"/>
<line x1="3908.932574" y1="1553.568512" x2="3908.932574" y2="1898.828914" stroke="black" stroke-width="6.48"/>
<line x1="4784.696773" y1="1653.638468" x2="4876.465036" y2="1558.60965" stroke="black" stroke-width="6.48"/>
<line x1="4876.465036" y1="1558.60965" x2="4886.719945" y2="1568.512699" stroke="black" stroke-width="6.48"/>
<line x1="4794.951686" y1="1663.541518" x2="4886.719945" y2="1568.512699" stroke="black" stroke-width="6.48"/>
<line x1="4784.696773" y1="1653.638468" x2="4794.951686" y2="1663.541518" stroke="black" stroke-width="6.48"/>
<line x1="4804.194532" y1="1653.97027" x2="4825.43492" y2="1677.124303" stroke="black" stroke-width="6.48"/>
<line x1="4877.4771" y1="1578.083951" x2="4902.041963" y2="1599.163542" stroke="black" stroke-width="6.48"/>
<line x1="5116.272142" y1="1973.837074" x2="5208.0404" y2="1878.808259" stroke="black" stroke-width="6.48"/>
<line x1="5208.0404" y1="1878.808259" x2="5198.469152" y2="1869.565414" stroke="black" stroke-width="6.48"/>
<line x1="5106.70089" y1="1964.594228" x2="5198.469152" y2="1869.565414" stroke="black" stroke-width="6.48"/>
<line x1="5116.272142" y1="1973.837074" x2="5106.70089" y2="1964.594228" stroke="black" stroke-width="6.48"/>
<line x1="5113.916215" y1="1954.386238" x2="5090.03501" y2="1933.96685" stroke="black" stroke-width="6.48"/>
<line x1="5187.198784" y1="1878.499915" x2="5165.934937" y2="1854.002023" stroke="black" stroke-width="6.48"/>
<line x1="5108.293282" y1="1555.235212" x2="5098.390229" y2="1565.490121" stroke="black" stroke-width="6.48"/>
<line x1="5098.390229" y1="1565.490121" x2="5193.419047" y2="1657.25838" stroke="black" stroke-width="6.48"/>
<line x1="5203.322096" y1="1647.003474" x2="5193.419047" y2="1657.25838" stroke="black" stroke-width="6.48"/>
<line x1="5108.293282" y1="1555.235212" x2="5203.322096" y2="1647.003474" stroke="black" stroke-width="6.48"/>
<line x1="5183.164141" y1="1647.355331" x2="5162.768208" y2="1672.580401" stroke="black" stroke-width="6.48"/>
<line x1="5107.96148" y1="1574.732966" x2="5084.147246" y2="1596.65702" stroke="black" stroke-width="6.48"/>
<line x1="4788.071219" y1="1885.466714" x2="4797.974268" y2="1875.211805" stroke="black" stroke-width="6.48"/>
<line x1="4797.974268" y1="1875.211805" x2="4893.003083" y2="1966.980067" stroke="black" stroke-width="6.48"/>
<line x1="4883.10003" y1="1977.234973" x2="4893.003083" y2="1966.980067" stroke="black" stroke-width="6.48"/>
<line x1="4788.071219" y1="1885.466714" x2="4883.10003" y2="1977.234973" stroke="black" stroke-width="6.48"/>
<line x1="4882.748173" y1="1957.077018" x2="4907.246065" y2="1935.813168" stroke="black" stroke-width="6.48"/>
<line x1="4807.545516" y1="1884.454654" x2="4828.625107" y2="1859.889787" stroke="black" stroke-width="6.48"/>
<circle cx="4995.696654" cy="1766.235092" r="191.98080000000002" fill="none" stroke="black" stroke-width="6.48"/>
<line x1="3317.048543" y1="1075.018766" x2="3526.413746" y2="1075.018766" stroke="black" stroke-width="6.48"/>
<line x1="3526.413746" y1="1075.018766" x2="3526.413746" y2="743.804363" stroke="black" stroke-width="6.48"/>
<line x1="3526.413746" y1="743.804363" x2="3317.048543" y2="743.804363" stroke="black" stroke-width="6.48"/>
<line x1="3317.048543" y1="743.804363" x2="3317.048543" y2="1075.018766" stroke="black" stroke-width="6.48"/>
<line x1="3316.375343" y1="803.045963" x2="3527.086943" y2="803.045963" stroke="black" stroke-width="6.48"/>
<line x1="3527.086943" y1="803.045963" x2="3317.721743" y2="852.862766" stroke="black" stroke-width="6.48"/>
<line x1="3317.721743" y1="852.862766" x2="3349.362146" y2="899.313566" stroke="black" stroke-width="6.48"/>
<line x1="3349.362146" y1="899.313566" x2="3527.086943" y2="802.372766" stroke="black" stroke-width="6.48"/>
<line x1="3504.448066" y1="1202.751688" x2="3726.725231" y2="1202.751688" stroke="black" stroke-width="6.48"/>
<line x1="3726.725231" y1="1202.751688" x2="3726.725231" y2="1425.484339" stroke="black" stroke-width="6.48"/>
<line x1="3726.725231" y1="1425.484339" x2="3504.448066" y2="1425.484339" stroke="black" stroke-width="6.48"/>
<line x1="3504.448066" y1="1425.484339" x2="3504.448066" y2="1202.751688" stroke="black" stroke-width="6.48"/>
<line x1="3503.992579" y1="1202.296201" x2="3726.725231" y2="1425.484339" stroke="black" stroke-width="6.48"/>
<line x1="3504.448066" y1="1425.028853" x2="3726.269744" y2="1202.751688" stroke="black" stroke-width="6.48"/>
<line x1="2804.16708" y1="1127.69402" x2="2804.16708" y2="1153.148746" stroke="black" stroke-width="6.48"/>
<line x1="2804.16708" y1="1153.148746" x2="2853.834836" y2="1153.148746" stroke="black" stroke-width="6.48"/>
<line x1="2853.834836" y1="1153.148746" x2="2853.834836" y2="1127.69402" stroke="black" stroke-width="6.48"/>
<line x1="2853.834836" y1="1127.69402" x2="2804.16708" y2="1127.69402" stroke="black" stroke-width="6.48"/>
<line x1="2853.834836" y1="1402.108373" x2="3101.55277" y2="1402.108373" stroke="black" stroke-width="6.48"/>
<line x1="2802.925386" y1="1402.729218" x2="2802.925386" y2="1428.183943" stroke="black" stroke-width="6.48"/>
<line x1="2802.925386" y1="1428.183943" x2="2852.593142" y2="1428.183943" stroke="black" stroke-width="6.48"/>
<line x1="2852.593142" y1="1428.183943" x2="2852.593142" y2="1402.729218" stroke="black" stroke-width="6.48"/>
<line x1="2852.593142" y1="1402.729218" x2="2802.925386" y2="1402.729218" stroke="black" stroke-width="6.48"/>
<path d="m 2851.972294,1153.148746 a 248.95962699999984,248.95962699999984 0 0 1 248.95962699999973,248.95962699999995" fill="none" stroke="black" stroke-width="6.48"/>
<line x1="3567.837042" y1="1964.006806" x2="3385.099238" y2="1821.236386" stroke="black" stroke-width="6.48"/>
<line x1="3385.099238" y1="1821.236386" x2="3528.162223" y2="1638.124121" stroke="black" stroke-width="6.48"/>
<line x1="3528.162223" y1="1638.124121" x2="3710.900027" y2="1780.894541" stroke="black" stroke-width="6.48"/>
<line x1="3710.900027" y1="1780.894541" x2="3567.837042" y2="1964.006806" stroke="black" stroke-width="6.48"/>
<line x1="3567.918942" y1="1964.673832" x2="3528.162223" y2="1638.124121" stroke="black" stroke-width="6.48"/>
<line x1="3710.607462" y1="1781.269002" x2="3385.473703" y2="1821.528947" stroke="black" stroke-width="6.48"/>
<line x1="3042.664542" y1="1589.315882" x2="3035.716254" y2="1619.412228" stroke="black" stroke-width="6.48"/>
<line x1="3035.716254" y1="1619.412228" x2="3239.908362" y2="1666.553692" stroke="black" stroke-width="6.48"/>
<line x1="3239.908362" y1="1666.553692" x2="3246.85665" y2="1636.457346" stroke="black" stroke-width="6.48"/>
<line x1="3246.85665" y1="1636.457346" x2="3042.664542" y2="1589.315882" stroke="black" stroke-width="6.48"/>
<line x1="2996.805841" y1="1787.951743" x2="2989.857553" y2="1818.048089" stroke="black" stroke-width="6.48"/>
<line x1="2989.857553" y1="1818.048089" x2="3194.049658" y2="1865.189552" stroke="black" stroke-width="6.48"/>
<line x1="3194.049658" y1="1865.189552" x2="3200.997949" y2="1835.09321" stroke="black" stroke-width="6.48"/>
<line x1="3200.997949" y1="1835.09321" x2="2996.805841" y2="1787.951743" stroke="black" stroke-width="6.48"/>
<line x1="3035.823149" y1="1618.949207" x2="2996.805841" y2="1787.951743" stroke="black" stroke-width="6.48"/>
<line x1="3239.196113" y1="1665.413852" x2="3258.67603" y2="1697.222333" stroke="black" stroke-width="6.48"/>
<line x1="3231.417362" y1="1815.292598" x2="3199.965012" y2="1835.342435" stroke="black" stroke-width="6.48"/>
<line x1="3259.10362" y1="1695.370252" x2="3230.989776" y2="1817.144683" stroke="black" stroke-width="6.48"/>
<line x1="3079.240193" y1="1629.460523" x2="3040.222885" y2="1798.463063" stroke="black" stroke-width="6.48"/>
<line x1="6303.938926" y1="2287.663996" x2="6354.521892" y2="2490.541186" stroke="black" stroke-width="6.48"/>
<line x1="6354.521892" y1="2490.541186" x2="6579.531144" y2="2434.440082" stroke="black" stroke-width="6.48"/>
<line x1="6579.531144" y1="2434.440082" x2="6528.948178" y2="2231.562888" stroke="black" stroke-width="6.48"/>
<line x1="6528.948178" y1="2231.562888" x2="6303.938926" y2="2287.663996" stroke="black" stroke-width="6.48"/>
<line x1="6335.292672" y1="2279.846624" x2="6385.875638" y2="2482.723822" stroke="black" stroke-width="6.48"/>
<line x1="1276.119158" y1="1980.521053" x2="1299.07341" y2="2001.189164" stroke="black" stroke-width="6.48"/>
<line x1="1299.07341" y1="2001.189164" x2="1439.298601" y2="1845.453391" stroke="black" stroke-width="6.48"/>
<line x1="1439.298601" y1="1845.453391" x2="1416.34435" y2="1824.78528" stroke="black" stroke-width="6.48"/>
<line x1="1416.34435" y1="1824.78528" x2="1276.119158" y2="1980.521053" stroke="black" stroke-width="6.48"/>
<line x1="1427.617224" y1="2116.93059" x2="1450.571479" y2="2137.598705" stroke="black" stroke-width="6.48"/>
<line x1="1450.571479" y1="2137.598705" x2="1590.796663" y2="1981.862932" stroke="black" stroke-width="6.48"/>
<line x1="1590.796663" y1="1981.862932" x2="1567.842415" y2="1961.194817" stroke="black" stroke-width="6.48"/>
<line x1="1567.842415" y1="1961.194817" x2="1427.617224" y2="2116.93059" stroke="black" stroke-width="6.48"/>
<line x1="1298.720268" y1="2000.871194" x2="1427.617224" y2="2116.93059" stroke="black" stroke-width="6.48"/>
<line x1="1437.956374" y1="1845.523735" x2="1475.220748" y2="1843.907278" stroke="black" stroke-width="6.48"/>
<line x1="1565.272044" y1="1924.989872" x2="1567.55961" y2="1962.219074" stroke="black" stroke-width="6.48"/>
<line x1="1473.80818" y1="1842.635394" x2="1566.684612" y2="1926.261756" stroke="black" stroke-width="6.48"/>
<line x1="1328.96268" y1="1967.993784" x2="1457.859632" y2="2084.053187" stroke="black" stroke-width="6.48"/>
<line x1="766.344262" y1="1179.768604" x2="840.21678" y2="1070.248097" stroke="black" stroke-width="6.48"/>
<line x1="840.21678" y1="1070.248097" x2="852.035537" y2="1078.219951" stroke="black" stroke-width="6.48"/>
<line x1="778.163026" y1="1187.740458" x2="852.035537" y2="1078.219951" stroke="black" stroke-width="6.48"/>
<line x1="766.344262" y1="1179.768604" x2="778.163026" y2="1187.740458" stroke="black" stroke-width="6.48"/>
<line x1="785.603423" y1="1176.709615" x2="810.541778" y2="1195.823531" stroke="black" stroke-width="6.48"/>
<line x1="844.59514" y1="1089.250794" x2="872.447242" y2="1105.744493" stroke="black" stroke-width="6.48"/>
<line x1="1148.484161" y1="1437.525216" x2="1222.356672" y2="1328.004709" stroke="black" stroke-width="6.48"/>
<line x1="1222.356672" y1="1328.004709" x2="1211.325829" y2="1320.564312" stroke="black" stroke-width="6.48"/>
<line x1="1137.453318" y1="1430.084819" x2="1211.325829" y2="1320.564312" stroke="black" stroke-width="6.48"/>
<line x1="1148.484161" y1="1437.525216" x2="1137.453318" y2="1430.084819" stroke="black" stroke-width="6.48"/>
<line x1="1142.786419" y1="1418.778983" x2="1115.722235" y2="1402.816738" stroke="black" stroke-width="6.48"/>
<line x1="1201.77814" y1="1331.320162" x2="1176.583327" y2="1310.886871" stroke="black" stroke-width="6.48"/>
<line x1="1067.937066" y1="1026.668369" x2="1059.965212" y2="1038.487129" stroke="black" stroke-width="6.48"/>
<line x1="1059.965212" y1="1038.487129" x2="1169.485718" y2="1112.359644" stroke="black" stroke-width="6.48"/>
<line x1="1177.457569" y1="1100.540884" x2="1169.485718" y2="1112.359644" stroke="black" stroke-width="6.48"/>
<line x1="1067.937066" y1="1026.668369" x2="1177.457569" y2="1100.540884" stroke="black" stroke-width="6.48"/>
<line x1="1157.666954" y1="1104.38779" x2="1141.961173" y2="1132.771349" stroke="black" stroke-width="6.48"/>
<line x1="1070.996051" y1="1045.927526" x2="1051.350682" y2="1071.6538" stroke="black" stroke-width="6.48"/>
<line x1="809.92399" y1="1407.48889" x2="817.895844" y2="1395.670129" stroke="black" stroke-width="6.48"/>
<line x1="817.895844" y1="1395.670129" x2="927.416351" y2="1469.542644" stroke="black" stroke-width="6.48"/>
<line x1="919.444496" y1="1481.361404" x2="927.416351" y2="1469.542644" stroke="black" stroke-width="6.48"/>
<line x1="809.92399" y1="1407.48889" x2="919.444496" y2="1481.361404" stroke="black" stroke-width="6.48"/>
<line x1="915.597594" y1="1461.57079" x2="936.030881" y2="1436.37597" stroke="black" stroke-width="6.48"/>
<line x1="828.926687" y1="1403.110526" x2="845.420389" y2="1375.258424" stroke="black" stroke-width="6.48"/>
<circle cx="993.690781" cy="1254.014885" r="191.98080000000002" fill="none" stroke="black" stroke-width="6.48"/>
<line x1="3819.610505" y1="1149.082661" x2="3822.30257" y2="1118.312197" stroke="black" stroke-width="6.48"/>
<line x1="3822.30257" y1="1118.312197" x2="3613.536821" y2="1100.047561" stroke="black" stroke-width="6.48"/>
<line x1="3613.536821" y1="1100.047561" x2="3610.844759" y2="1130.818025" stroke="black" stroke-width="6.48"/>
<line x1="3610.844759" y1="1130.818025" x2="3819.610505" y2="1149.082661" stroke="black" stroke-width="6.48"/>
<line x1="3837.378146" y1="945.99761" x2="3840.070212" y2="915.22715" stroke="black" stroke-width="6.48"/>
<line x1="3840.070212" y1="915.22715" x2="3631.304462" y2="896.962511" stroke="black" stroke-width="6.48"/>
<line x1="3631.304462" y1="896.962511" x2="3628.612393" y2="927.732974" stroke="black" stroke-width="6.48"/>
<line x1="3628.612393" y1="927.732974" x2="3837.378146" y2="945.99761" stroke="black" stroke-width="6.48"/>
<line x1="3822.261152" y1="1118.78559" x2="3837.378146" y2="945.99761" stroke="black" stroke-width="6.48"/>
<line x1="3614.400774" y1="1101.077176" x2="3590.683546" y2="1072.28934" stroke="black" stroke-width="6.48"/>
<line x1="3601.244732" y1="951.57445" x2="3629.600597" y2="927.342418" stroke="black" stroke-width="6.48"/>
<line x1="3590.517884" y1="1074.182908" x2="3601.410397" y2="949.680882" stroke="black" stroke-width="6.48"/>
<line x1="3777.803752" y1="1114.419053" x2="3792.920738" y2="941.63108" stroke="black" stroke-width="6.48"/>
<line x1="6059.05619" y1="1629.995965" x2="5880.439422" y2="1695.007152" stroke="black" stroke-width="6.48"/>
<line x1="5880.439422" y1="1695.007152" x2="6039.066722" y2="2130.83208" stroke="black" stroke-width="6.48"/>
<line x1="6039.066722" y1="2130.83208" x2="6217.683494" y2="2065.82089" stroke="black" stroke-width="6.48"/>
<line x1="6217.683494" y1="2065.82089" x2="6209.557096" y2="2043.493798" stroke="black" stroke-width="6.48"/>
<line x1="6209.557096" y1="2043.493798" x2="6052.374335" y2="2100.70364" stroke="black" stroke-width="6.48"/>
<line x1="6052.374335" y1="2100.70364" x2="5910.324887" y2="1710.425992" stroke="black" stroke-width="6.48"/>
<line x1="5910.324887" y1="1710.425992" x2="6067.507648" y2="1653.216149" stroke="black" stroke-width="6.48"/>
<line x1="6067.507648" y1="1653.216149" x2="6059.05619" y2="1629.995965" stroke="black" stroke-width="6.48"/>
<line x1="6062.149145" y1="1655.166485" x2="6204.198589" y2="2045.444134" stroke="black" stroke-width="6.48"/>
<line x1="6133.904424" y1="1849.53371" x2="5982.080166" y2="1904.793221" stroke="black" stroke-width="6.48"/>
<line x1="528.424855" y1="209.043014" x2="798.972055" y2="209.043014" stroke="black" stroke-width="6.48"/>
<line x1="798.972055" y1="209.043014" x2="798.972055" y2="340.990214" stroke="black" stroke-width="6.48"/>
<line x1="528.424855" y1="340.990214" x2="798.972055" y2="340.990214" stroke="black" stroke-width="6.48"/>
<line x1="528.424855" y1="209.043014" x2="528.424855" y2="340.990214" stroke="black" stroke-width="6.48"/>
<line x1="535.077655" y1="215.695814" x2="673.123255" y2="215.695814" stroke="black" stroke-width="6.48"/>
<line x1="673.123255" y1="215.695814" x2="673.123255" y2="333.783014" stroke="black" stroke-width="6.48"/>
<line x1="535.077655" y1="333.783014" x2="673.123255" y2="333.783014" stroke="black" stroke-width="6.48"/>
<line x1="535.077655" y1="215.695814" x2="535.077655" y2="333.783014" stroke="black" stroke-width="6.48"/>
<line x1="687.537655" y1="223.457414" x2="784.557655" y2="223.457414" stroke="black" stroke-width="6.48"/>
<line x1="687.537655" y1="243.970214" x2="784.557655" y2="243.970214" stroke="black" stroke-width="6.48"/>
<line x1="688.092055" y1="265.037414" x2="785.112055" y2="265.037414" stroke="black" stroke-width="6.48"/>
<line x1="688.092055" y1="285.550214" x2="785.112055" y2="285.550214" stroke="black" stroke-width="6.48"/>
<line x1="687.537655" y1="306.063014" x2="784.557655" y2="306.063014" stroke="black" stroke-width="6.48"/>
<line x1="687.537655" y1="326.575814" x2="784.557655" y2="326.575814" stroke="black" stroke-width="6.48"/>
<line x1="587.745655" y1="333.783014" x2="587.745655" y2="319.923014" stroke="black" stroke-width="6.48"/>
<line x1="587.745655" y1="319.923014" x2="622.118455" y2="319.923014" stroke="black" stroke-width="6.48"/>
<line x1="622.118455" y1="319.923014" x2="622.118455" y2="333.228614" stroke="black" stroke-width="6.48"/>
<circle cx="657.600055" cy="230.664614" r="8.316000000000003" fill="none" stroke="black" stroke-width="6.48"/>
<line x1="2915.199968" y1="2001.513521" x2="2843.994823" y2="2177.752658" stroke="black" stroke-width="6.48"/>
<line x1="2843.994823" y1="2177.752658" x2="3274.018319" y2="2351.493209" stroke="black" stroke-width="6.48"/>
<line x1="3274.018319" y1="2351.493209" x2="3345.223464" y2="2175.254071" stroke="black" stroke-width="6.48"/>
<line x1="3345.223464" y1="2175.254071" x2="3323.193574" y2="2166.353428" stroke="black" stroke-width="6.48"/>
<line x1="3323.193574" y1="2166.353428" x2="3260.533046" y2="2321.443872" stroke="black" stroke-width="6.48"/>
<line x1="3260.533046" y1="2321.443872" x2="2875.450529" y2="2165.860631" stroke="black" stroke-width="6.48"/>
<line x1="2875.450529" y1="2165.860631" x2="2938.111056" y2="2010.77019" stroke="black" stroke-width="6.48"/>
<line x1="2938.111056" y1="2010.77019" x2="2915.199968" y2="2001.513521" stroke="black" stroke-width="6.48"/>
<line x1="2935.974902" y1="2016.057362" x2="3321.05742" y2="2171.640604" stroke="black" stroke-width="6.48"/>
<line x1="3128.431586" y1="2092.789775" x2="3067.907216" y2="2242.593043" stroke="black" stroke-width="6.48"/>
</g>
</svg>
