<?xml version="1.0"?>
<svg xmlns:xlink="http://www.w3.org/1999/xlink" width="6775.2" height="2858.4">
<image x="0" y="0" width="6775.2" height="2858.4" xlink:href="groundfilled-01.png"/>
<g style="stroke-linecap:round">
<line x1="1285.950406" y1="795.178109" x2="1311.346069" y2="795.178109" stroke="black" stroke-width="6.48"/>
<line x1="1311.346069" y1="795.178109" x2="1311.346069" y2="745.625592" stroke="black" stroke-width="6.48"/>
<line x1="1311.346069" y1="745.625592" x2="1285.950406" y2="745.625592" stroke="black" stroke-width="6.48"/>
<line x1="1285.950406" y1="745.625592" x2="1285.950406" y2="795.178109" stroke="black" stroke-width="6.48"/>
<line x1="1559.728062" y1="745.625592" x2="1559.728062" y2="498.48241" stroke="black" stroke-width="6.48"/>
<line x1="1560.347471" y1="796.416923" x2="1585.743134" y2="796.416923" stroke="black" stroke-width="6.48"/>
<line x1="1585.743134" y1="796.416923" x2="1585.743134" y2="746.864406" stroke="black" stroke-width="6.48"/>
<line x1="1585.743134" y1="746.864406" x2="1560.347471" y2="746.864406" stroke="black" stroke-width="6.48"/>
<line x1="1560.347471" y1="746.864406" x2="1560.347471" y2="796.416923" stroke="black" stroke-width="6.48"/>
<path d="m 1311.346069,747.483811 a 248.38199299999997,248.38199299999997 0 0 1 248.38199299999997,-248.38199299999997" fill="none" stroke="black" stroke-width="6.48"/>
<line x1="320.532556" y1="771.34176" x2="320.532556" y2="366.736194" stroke="black" stroke-width="6.48"/>
<line x1="320.532556" y1="366.736194" x2="258.159283" y2="366.736194" stroke="black" stroke-width="6.48"/>
<line x1="258.159283" y1="366.736194" x2="258.159283" y2="771.34176" stroke="black" stroke-width="6.48"/>
<line x1="258.159283" y1="771.34176" x2="320.532556" y2="771.34176" stroke="black" stroke-width="6.48"/>
<line x1="258.979986" y1="733.589518" x2="319.711856" y2="733.589518" stroke="black" stroke-width="6.48"/>
<line x1="258.979986" y1="405.309139" x2="322.173958" y2="405.309139" stroke="black" stroke-width="6.48"/>
<line x1="287.704519" y1="734.410217" x2="287.704519" y2="406.129838" stroke="black" stroke-width="6.48"/>
<line x1="3901.945176" y1="1169.331426" x2="3901.945176" y2="1428.837066" stroke="black" stroke-width="6.48"/>
<line x1="3901.945176" y1="1428.837066" x2="3941.9501" y2="1428.837066" stroke="black" stroke-width="6.48"/>
<line x1="3941.9501" y1="1428.837066" x2="3941.9501" y2="1169.331426" stroke="black" stroke-width="6.48"/>
<line x1="3941.9501" y1="1169.331426" x2="3901.945176" y2="1169.331426" stroke="black" stroke-width="6.48"/>
<line x1="3941.423719" y1="1193.544936" x2="3902.471557" y2="1193.544936" stroke="black" stroke-width="6.48"/>
<line x1="3941.423719" y1="1404.097178" x2="3900.892414" y2="1404.097178" stroke="black" stroke-width="6.48"/>
<line x1="3923.000399" y1="1193.018555" x2="3923.000399" y2="1403.570797" stroke="black" stroke-width="6.48"/>
<line x1="323.923298" y1="1882.957399" x2="323.923298" y2="1457.423957" stroke="black" stroke-width="6.48"/>
<line x1="323.923298" y1="1457.423957" x2="258.323825" y2="1457.423957" stroke="black" stroke-width="6.48"/>
<line x1="258.323825" y1="1457.423957" x2="258.323825" y2="1882.957399" stroke="black" stroke-width="6.48"/>
<line x1="258.323825" y1="1882.957399" x2="323.923298" y2="1882.957399" stroke="black" stroke-width="6.48"/>
<line x1="259.186975" y1="1843.252456" x2="323.060148" y2="1843.252456" stroke="black" stroke-width="6.48"/>
<line x1="259.186975" y1="1497.992054" x2="325.649603" y2="1497.992054" stroke="black" stroke-width="6.48"/>
<line x1="289.397261" y1="1844.115606" x2="289.397261" y2="1498.855205" stroke="black" stroke-width="6.48"/>
<line x1="2747.905531" y1="904.670665" x2="2721.68303" y2="904.670665" stroke="black" stroke-width="6.48"/>
<line x1="2721.68303" y1="904.670665" x2="2721.68303" y2="955.836522" stroke="black" stroke-width="6.48"/>
<line x1="2721.68303" y1="955.836522" x2="2747.905531" y2="955.836522" stroke="black" stroke-width="6.48"/>
<line x1="2747.905531" y1="955.836522" x2="2747.905531" y2="904.670665" stroke="black" stroke-width="6.48"/>
<line x1="2465.214181" y1="955.836522" x2="2465.214181" y2="1211.026223" stroke="black" stroke-width="6.48"/>
<line x1="2464.574609" y1="903.39152" x2="2438.352108" y2="903.39152" stroke="black" stroke-width="6.48"/>
<line x1="2438.352108" y1="903.39152" x2="2438.352108" y2="954.557374" stroke="black" stroke-width="6.48"/>
<line x1="2438.352108" y1="954.557374" x2="2464.574609" y2="954.557374" stroke="black" stroke-width="6.48"/>
<line x1="2464.574609" y1="954.557374" x2="2464.574609" y2="903.39152" stroke="black" stroke-width="6.48"/>
<path d="m 2721.68303,953.917801 a 256.4688490000001,256.4688490000001 0 0 1 -256.4688490000003,256.46884899999986" fill="none" stroke="black" stroke-width="6.48"/>
<line x1="2420.532389" y1="1427.858834" x2="2395.136725" y2="1427.858834" stroke="black" stroke-width="6.48"/>
<line x1="2395.136725" y1="1427.858834" x2="2395.136725" y2="1477.411351" stroke="black" stroke-width="6.48"/>
<line x1="2395.136725" y1="1477.411351" x2="2420.532389" y2="1477.411351" stroke="black" stroke-width="6.48"/>
<line x1="2420.532389" y1="1477.411351" x2="2420.532389" y2="1427.858834" stroke="black" stroke-width="6.48"/>
<line x1="2146.754732" y1="1477.411351" x2="2146.754732" y2="1724.554534" stroke="black" stroke-width="6.48"/>
<line x1="2146.135324" y1="1426.62002" x2="2120.73966" y2="1426.62002" stroke="black" stroke-width="6.48"/>
<line x1="2120.73966" y1="1426.62002" x2="2120.73966" y2="1476.172537" stroke="black" stroke-width="6.48"/>
<line x1="2120.73966" y1="1476.172537" x2="2146.135324" y2="1476.172537" stroke="black" stroke-width="6.48"/>
<line x1="2146.135324" y1="1476.172537" x2="2146.135324" y2="1426.62002" stroke="black" stroke-width="6.48"/>
<path d="m 2395.136725,1475.553132 a 248.38199299999997,248.38199299999997 0 0 1 -248.38199299999997,248.38199299999997" fill="none" stroke="black" stroke-width="6.48"/>
<line x1="644.628877" y1="541.339351" x2="876.526477" y2="541.339351" stroke="black" stroke-width="6.48"/>
<line x1="876.526477" y1="541.339351" x2="876.526477" y2="773.712151" stroke="black" stroke-width="6.48"/>
<line x1="876.526477" y1="773.712151" x2="644.628877" y2="773.712151" stroke="black" stroke-width="6.48"/>
<line x1="644.628877" y1="773.712151" x2="644.628877" y2="541.339351" stroke="black" stroke-width="6.48"/>
<line x1="644.153677" y1="540.864151" x2="876.526477" y2="773.712151" stroke="black" stroke-width="6.48"/>
<line x1="644.628877" y1="773.236951" x2="876.051277" y2="541.339351" stroke="black" stroke-width="6.48"/>
<line x1="2032.924367" y1="1808.132605" x2="2032.924367" y2="1599.044605" stroke="black" stroke-width="6.48"/>
<line x1="2032.924367" y1="1599.044605" x2="1801.026767" y2="1599.044605" stroke="black" stroke-width="6.48"/>
<line x1="1801.026767" y1="1599.044605" x2="1801.026767" y2="1808.132605" stroke="black" stroke-width="6.48"/>
<line x1="1801.026767" y1="1808.132605" x2="2032.924367" y2="1808.132605" stroke="black" stroke-width="6.48"/>
<line x1="2000.610767" y1="1808.132605" x2="2000.610767" y2="1599.044605" stroke="black" stroke-width="6.48"/>
<line x1="1485.415969" y1="209.267824" x2="1707.693134" y2="209.267824" stroke="black" stroke-width="6.48"/>
<line x1="1707.693134" y1="209.267824" x2="1707.693134" y2="432.000475" stroke="black" stroke-width="6.48"/>
<line x1="1707.693134" y1="432.000475" x2="1485.415969" y2="432.000475" stroke="black" stroke-width="6.48"/>
<line x1="1485.415969" y1="432.000475" x2="1485.415969" y2="209.267824" stroke="black" stroke-width="6.48"/>
<line x1="1484.960483" y1="208.812337" x2="1707.693134" y2="432.000475" stroke="black" stroke-width="6.48"/>
<line x1="1485.415969" y1="431.544989" x2="1707.237648" y2="209.267824" stroke="black" stroke-width="6.48"/>
<line x1="2586.780558" y1="1803.366338" x2="2586.780558" y2="2194.614338" stroke="black" stroke-width="6.48"/>
<line x1="2586.780558" y1="2194.614338" x2="2761.020558" y2="2194.614338" stroke="black" stroke-width="6.48"/>
<line x1="2761.020558" y1="2194.614338" x2="2761.020558" y2="1803.366338" stroke="black" stroke-width="6.48"/>
<line x1="2761.020558" y1="1803.366338" x2="2586.780558" y2="1803.366338" stroke="black" stroke-width="6.48"/>
<line x1="2734.092558" y1="2119.374338" x2="2734.092558" y2="1835.046338" stroke="black" stroke-width="6.48"/>
<line x1="2734.092558" y1="1835.046338" x2="2616.084558" y2="1835.046338" stroke="black" stroke-width="6.48"/>
<line x1="2616.084558" y1="1835.046338" x2="2616.084558" y2="2124.918338" stroke="black" stroke-width="6.48"/>
<path d="m 2734.347982,2118.563766 a 63.35999941905905,63.35999941905905 0 0 1 -119.37432999999965,4.2938139999996565" fill="none" stroke="black" stroke-width="6.48"/>
<line x1="2081.315102" y1="1913.895277" x2="2056.763102" y2="1932.507277" stroke="black" stroke-width="6.48"/>
<line x1="2056.763102" y1="1932.507277" x2="2056.763102" y2="2079.819277" stroke="black" stroke-width="6.48"/>
<line x1="2056.763102" y1="2079.819277" x2="2084.879102" y2="2098.827277" stroke="black" stroke-width="6.48"/>
<line x1="2084.087102" y1="1935.675277" x2="2084.087102" y2="2078.631277" stroke="black" stroke-width="6.48"/>
<circle cx="2105.867102" cy="2004.975277" r="13.068000000000003" fill="none" stroke="black" stroke-width="6.48"/>
<path d="m 2083.419756,1937.22853 a 74.84400006780939,74.84400006780939 0 1 1 0.4020480000003772,139.6090039999997" fill="none" stroke="black" stroke-width="6.48"/>
<path d="m 2080.657739,1913.94158 a 95.43599906226416,95.43599906226416 0 1 1 3.0749579999996968,184.46699599999988" fill="none" stroke="black" stroke-width="6.48"/>
<line x1="739.638824" y1="209.559431" x2="1010.186024" y2="209.559431" stroke="black" stroke-width="6.48"/>
<line x1="1010.186024" y1="209.559431" x2="1010.186024" y2="341.506631" stroke="black" stroke-width="6.48"/>
<line x1="739.638824" y1="341.506631" x2="1010.186024" y2="341.506631" stroke="black" stroke-width="6.48"/>
<line x1="739.638824" y1="209.559431" x2="739.638824" y2="341.506631" stroke="black" stroke-width="6.48"/>
<line x1="746.291624" y1="216.212231" x2="884.337224" y2="216.212231" stroke="black" stroke-width="6.48"/>
<line x1="884.337224" y1="216.212231" x2="884.337224" y2="334.299431" stroke="black" stroke-width="6.48"/>
<line x1="746.291624" y1="334.299431" x2="884.337224" y2="334.299431" stroke="black" stroke-width="6.48"/>
<line x1="746.291624" y1="216.212231" x2="746.291624" y2="334.299431" stroke="black" stroke-width="6.48"/>
<line x1="898.751624" y1="223.973831" x2="995.771624" y2="223.973831" stroke="black" stroke-width="6.48"/>
<line x1="898.751624" y1="244.486631" x2="995.771624" y2="244.486631" stroke="black" stroke-width="6.48"/>
<line x1="899.306024" y1="265.553831" x2="996.326024" y2="265.553831" stroke="black" stroke-width="6.48"/>
<line x1="899.306024" y1="286.066631" x2="996.326024" y2="286.066631" stroke="black" stroke-width="6.48"/>
<line x1="898.751624" y1="306.579431" x2="995.771624" y2="306.579431" stroke="black" stroke-width="6.48"/>
<line x1="898.751624" y1="327.092231" x2="995.771624" y2="327.092231" stroke="black" stroke-width="6.48"/>
<line x1="798.959624" y1="334.299431" x2="798.959624" y2="320.439431" stroke="black" stroke-width="6.48"/>
<line x1="798.959624" y1="320.439431" x2="833.332424" y2="320.439431" stroke="black" stroke-width="6.48"/>
<line x1="833.332424" y1="320.439431" x2="833.332424" y2="333.745031" stroke="black" stroke-width="6.48"/>
<circle cx="868.814024" cy="231.181031" r="8.316000000000003" fill="none" stroke="black" stroke-width="6.48"/>
<line x1="2044.889399" y1="955.822399" x2="2267.166564" y2="955.822399" stroke="black" stroke-width="6.48"/>
<line x1="2267.166564" y1="955.822399" x2="2267.166564" y2="1178.555051" stroke="black" stroke-width="6.48"/>
<line x1="2267.166564" y1="1178.555051" x2="2044.889399" y2="1178.555051" stroke="black" stroke-width="6.48"/>
<line x1="2044.889399" y1="1178.555051" x2="2044.889399" y2="955.822399" stroke="black" stroke-width="6.48"/>
<line x1="2044.433912" y1="955.366913" x2="2267.166564" y2="1178.555051" stroke="black" stroke-width="6.48"/>
<line x1="2044.889399" y1="1178.099564" x2="2266.711078" y2="955.822399" stroke="black" stroke-width="6.48"/>
<line x1="333.766206" y1="1375.361078" x2="333.766206" y2="949.854546" stroke="black" stroke-width="6.48"/>
<line x1="333.766206" y1="949.854546" x2="257.659348" y2="949.854546" stroke="black" stroke-width="6.48"/>
<line x1="257.659348" y1="949.854546" x2="257.659348" y2="1375.361078" stroke="black" stroke-width="6.48"/>
<line x1="257.659348" y1="1375.361078" x2="333.766206" y2="1375.361078" stroke="black" stroke-width="6.48"/>
<line x1="333.766206" y1="1355.469512" x2="359.711726" y2="1355.469512" stroke="black" stroke-width="6.48"/>
<line x1="359.711726" y1="1355.469512" x2="359.711726" y2="970.610962" stroke="black" stroke-width="6.48"/>
<line x1="333.766206" y1="970.610962" x2="359.711726" y2="970.610962" stroke="black" stroke-width="6.48"/>
<line x1="3874.406537" y1="1514.726719" x2="3874.406537" y2="1940.260162" stroke="black" stroke-width="6.48"/>
<line x1="3874.406537" y1="1940.260162" x2="3940.00601" y2="1940.260162" stroke="black" stroke-width="6.48"/>
<line x1="3940.00601" y1="1940.260162" x2="3940.00601" y2="1514.726719" stroke="black" stroke-width="6.48"/>
<line x1="3940.00601" y1="1514.726719" x2="3874.406537" y2="1514.726719" stroke="black" stroke-width="6.48"/>
<line x1="3939.14286" y1="1554.431663" x2="3875.269687" y2="1554.431663" stroke="black" stroke-width="6.48"/>
<line x1="3939.14286" y1="1899.692064" x2="3872.680232" y2="1899.692064" stroke="black" stroke-width="6.48"/>
<line x1="3908.932574" y1="1553.568512" x2="3908.932574" y2="1898.828914" stroke="black" stroke-width="6.48"/>
<line x1="5142.414222" y1="2327.413478" x2="5424.993918" y2="2054.529443" stroke="black" stroke-width="6.48"/>
<line x1="5424.993918" y1="2054.529443" x2="5296.804441" y2="1921.785354" stroke="black" stroke-width="6.48"/>
<line x1="5296.804441" y1="1921.785354" x2="5014.224745" y2="2194.669393" stroke="black" stroke-width="6.48"/>
<line x1="5014.224745" y1="2194.669393" x2="5142.414222" y2="2327.413478" stroke="black" stroke-width="6.48"/>
<line x1="5128.737887" y1="2084.085335" x2="5072.620608" y2="2025.974189" stroke="black" stroke-width="6.48"/>
<line x1="5072.620608" y1="2025.974189" x2="5016.218612" y2="2080.440965" stroke="black" stroke-width="6.48"/>
<line x1="5016.218612" y1="2080.440965" x2="5072.335891" y2="2138.552111" stroke="black" stroke-width="6.48"/>
<line x1="5028.892052" y1="2092.424569" x2="5084.72433" y2="2038.507963" stroke="black" stroke-width="6.48"/>
<line x1="5257.19282" y1="2329.977064" x2="5313.594816" y2="2275.510291" stroke="black" stroke-width="6.48"/>
<line x1="5313.594816" y1="2275.510291" x2="5256.927364" y2="2216.829427" stroke="black" stroke-width="6.48"/>
<line x1="5200.525368" y1="2271.2962" x2="5257.19282" y2="2329.977064" stroke="black" stroke-width="6.48"/>
<line x1="5245.658809" y1="2316.893119" x2="5301.491087" y2="2262.976513" stroke="black" stroke-width="6.48"/>
<line x1="5237.553859" y1="1979.002973" x2="5181.436577" y2="1920.89183" stroke="black" stroke-width="6.48"/>
<line x1="5181.436577" y1="1920.89183" x2="5125.034581" y2="1975.358603" stroke="black" stroke-width="6.48"/>
<line x1="5125.034581" y1="1975.358603" x2="5181.151864" y2="2033.469749" stroke="black" stroke-width="6.48"/>
<line x1="5137.13831" y1="1987.892377" x2="5193.540302" y2="1933.425608" stroke="black" stroke-width="6.48"/>
<line x1="5366.008789" y1="2224.894702" x2="5422.410785" y2="2170.427929" stroke="black" stroke-width="6.48"/>
<line x1="5422.410785" y1="2170.427929" x2="5365.743336" y2="2111.747065" stroke="black" stroke-width="6.48"/>
<line x1="5309.34134" y1="2166.213838" x2="5366.008789" y2="2224.894702" stroke="black" stroke-width="6.48"/>
<line x1="5353.905064" y1="2212.360927" x2="5410.307056" y2="2157.894151" stroke="black" stroke-width="6.48"/>
<line x1="3234.296851" y1="1074.74566" x2="3443.662055" y2="1074.74566" stroke="black" stroke-width="6.48"/>
<line x1="3443.662055" y1="1074.74566" x2="3443.662055" y2="743.531256" stroke="black" stroke-width="6.48"/>
<line x1="3443.662055" y1="743.531256" x2="3234.296851" y2="743.531256" stroke="black" stroke-width="6.48"/>
<line x1="3234.296851" y1="743.531256" x2="3234.296851" y2="1074.74566" stroke="black" stroke-width="6.48"/>
<line x1="3233.623651" y1="802.772856" x2="3444.335251" y2="802.772856" stroke="black" stroke-width="6.48"/>
<line x1="3444.335251" y1="802.772856" x2="3234.970051" y2="852.58966" stroke="black" stroke-width="6.48"/>
<line x1="3234.970051" y1="852.58966" x2="3266.610455" y2="899.04046" stroke="black" stroke-width="6.48"/>
<line x1="3266.610455" y1="899.04046" x2="3444.335251" y2="802.09966" stroke="black" stroke-width="6.48"/>
<line x1="3431.305008" y1="1203.047813" x2="3653.582173" y2="1203.047813" stroke="black" stroke-width="6.48"/>
<line x1="3653.582173" y1="1203.047813" x2="3653.582173" y2="1425.780464" stroke="black" stroke-width="6.48"/>
<line x1="3653.582173" y1="1425.780464" x2="3431.305008" y2="1425.780464" stroke="black" stroke-width="6.48"/>
<line x1="3431.305008" y1="1425.780464" x2="3431.305008" y2="1203.047813" stroke="black" stroke-width="6.48"/>
<line x1="3430.849522" y1="1202.592326" x2="3653.582173" y2="1425.780464" stroke="black" stroke-width="6.48"/>
<line x1="3431.305008" y1="1425.324978" x2="3653.126687" y2="1203.047813" stroke="black" stroke-width="6.48"/>
<line x1="2804.16708" y1="1127.69402" x2="2804.16708" y2="1153.148746" stroke="black" stroke-width="6.48"/>
<line x1="2804.16708" y1="1153.148746" x2="2853.834836" y2="1153.148746" stroke="black" stroke-width="6.48"/>
<line x1="2853.834836" y1="1153.148746" x2="2853.834836" y2="1127.69402" stroke="black" stroke-width="6.48"/>
<line x1="2853.834836" y1="1127.69402" x2="2804.16708" y2="1127.69402" stroke="black" stroke-width="6.48"/>
<line x1="2853.834836" y1="1402.108373" x2="3101.55277" y2="1402.108373" stroke="black" stroke-width="6.48"/>
<line x1="2802.925386" y1="1402.729218" x2="2802.925386" y2="1428.183943" stroke="black" stroke-width="6.48"/>
<line x1="2802.925386" y1="1428.183943" x2="2852.593142" y2="1428.183943" stroke="black" stroke-width="6.48"/>
<line x1="2852.593142" y1="1428.183943" x2="2852.593142" y2="1402.729218" stroke="black" stroke-width="6.48"/>
<line x1="2852.593142" y1="1402.729218" x2="2802.925386" y2="1402.729218" stroke="black" stroke-width="6.48"/>
<path d="m 2851.972294,1153.148746 a 248.95962699999984,248.95962699999984 0 0 1 248.95962699999973,248.95962699999995" fill="none" stroke="black" stroke-width="6.48"/>
<line x1="2962.571" y1="2024.372797" x2="2891.365855" y2="2200.611935" stroke="black" stroke-width="6.48"/>
<line x1="2891.365855" y1="2200.611935" x2="3321.389351" y2="2374.352485" stroke="black" stroke-width="6.48"/>
<line x1="3321.389351" y1="2374.352485" x2="3392.594496" y2="2198.113348" stroke="black" stroke-width="6.48"/>
<line x1="3392.594496" y1="2198.113348" x2="3370.564606" y2="2189.212704" stroke="black" stroke-width="6.48"/>
<line x1="3370.564606" y1="2189.212704" x2="3307.904078" y2="2344.303148" stroke="black" stroke-width="6.48"/>
<line x1="3307.904078" y1="2344.303148" x2="2922.821561" y2="2188.719907" stroke="black" stroke-width="6.48"/>
<line x1="2922.821561" y1="2188.719907" x2="2985.482088" y2="2033.629466" stroke="black" stroke-width="6.48"/>
<line x1="2985.482088" y1="2033.629466" x2="2962.571" y2="2024.372797" stroke="black" stroke-width="6.48"/>
<line x1="2983.345934" y1="2038.916639" x2="3368.428452" y2="2194.49988" stroke="black" stroke-width="6.48"/>
<line x1="3175.802618" y1="2115.649051" x2="3115.278248" y2="2265.45232" stroke="black" stroke-width="6.48"/>
<line x1="3708.830426" y1="1770.243674" x2="3579.154934" y2="1962.495497" stroke="black" stroke-width="6.48"/>
<line x1="3579.154934" y1="1962.495497" x2="3386.50915" y2="1832.554274" stroke="black" stroke-width="6.48"/>
<line x1="3386.50915" y1="1832.554274" x2="3516.184642" y2="1640.302452" stroke="black" stroke-width="6.48"/>
<line x1="3516.184642" y1="1640.302452" x2="3708.830426" y2="1770.243674" stroke="black" stroke-width="6.48"/>
<line x1="3709.490112" y1="1770.115439" x2="3386.50915" y2="1832.554274" stroke="black" stroke-width="6.48"/>
<line x1="3516.578604" y1="1640.568179" x2="3579.420661" y2="1962.101534" stroke="black" stroke-width="6.48"/>
<line x1="3111.239045" y1="1589.315879" x2="3092.650182" y2="1613.98413" stroke="black" stroke-width="6.48"/>
<line x1="3092.650182" y1="1613.98413" x2="3260.014798" y2="1740.102415" stroke="black" stroke-width="6.48"/>
<line x1="3260.014798" y1="1740.102415" x2="3278.60366" y2="1715.43416" stroke="black" stroke-width="6.48"/>
<line x1="3278.60366" y1="1715.43416" x2="3111.239045" y2="1589.315879" stroke="black" stroke-width="6.48"/>
<line x1="2988.552553" y1="1752.12635" x2="2969.96369" y2="1776.794605" stroke="black" stroke-width="6.48"/>
<line x1="2969.96369" y1="1776.794605" x2="3137.328302" y2="1902.912887" stroke="black" stroke-width="6.48"/>
<line x1="3137.328302" y1="1902.912887" x2="3155.917165" y2="1878.244636" stroke="black" stroke-width="6.48"/>
<line x1="3155.917165" y1="1878.244636" x2="2988.552553" y2="1752.12635" stroke="black" stroke-width="6.48"/>
<line x1="3092.936166" y1="1613.604622" x2="2988.552553" y2="1752.12635" stroke="black" stroke-width="6.48"/>
<line x1="3259.827742" y1="1738.771427" x2="3264.685855" y2="1775.753114" stroke="black" stroke-width="6.48"/>
<line x1="3191.760317" y1="1872.528566" x2="3154.872161" y2="1878.052183" stroke="black" stroke-width="6.48"/>
<line x1="3265.829784" y1="1774.235066" x2="3190.616388" y2="1874.046614" stroke="black" stroke-width="6.48"/>
<line x1="3128.324274" y1="1640.866489" x2="3023.940661" y2="1779.388218" stroke="black" stroke-width="6.48"/>
<line x1="1430.118652" y1="1976.570795" x2="1540.918368" y2="2153.887502" stroke="black" stroke-width="6.48"/>
<line x1="1540.918368" y1="2153.887502" x2="1737.578714" y2="2031.000545" stroke="black" stroke-width="6.48"/>
<line x1="1737.578714" y1="2031.000545" x2="1626.778998" y2="1853.683834" stroke="black" stroke-width="6.48"/>
<line x1="1626.778998" y1="1853.683834" x2="1430.118652" y2="1976.570795" stroke="black" stroke-width="6.48"/>
<line x1="1457.52214" y1="1959.447197" x2="1568.321856" y2="2136.763908" stroke="black" stroke-width="6.48"/>
<line x1="6341.541563" y1="1946.206055" x2="6157.107749" y2="1992.190568" stroke="black" stroke-width="6.48"/>
<line x1="6157.107749" y1="1992.190568" x2="6269.309964" y2="2442.209072" stroke="black" stroke-width="6.48"/>
<line x1="6269.309964" y1="2442.209072" x2="6453.743778" y2="2396.224559" stroke="black" stroke-width="6.48"/>
<line x1="6453.743778" y1="2396.224559" x2="6447.995712" y2="2373.170328" stroke="black" stroke-width="6.48"/>
<line x1="6447.995712" y1="2373.170328" x2="6285.69396" y2="2413.6367" stroke="black" stroke-width="6.48"/>
<line x1="6285.69396" y1="2413.6367" x2="6185.217794" y2="2010.648823" stroke="black" stroke-width="6.48"/>
<line x1="6185.217794" y1="2010.648823" x2="6347.51955" y2="1970.182447" stroke="black" stroke-width="6.48"/>
<line x1="6347.51955" y1="1970.182447" x2="6341.541563" y2="1946.206055" stroke="black" stroke-width="6.48"/>
<line x1="6341.986534" y1="1971.561985" x2="6442.462696" y2="2374.549866" stroke="black" stroke-width="6.48"/>
<line x1="6393.031823" y1="2172.364916" x2="6236.263084" y2="2211.451754" stroke="black" stroke-width="6.48"/>
<line x1="5786.505212" y1="1636.497918" x2="5793.977693" y2="1666.468408" stroke="black" stroke-width="6.48"/>
<line x1="5793.977693" y1="1666.468408" x2="5997.315971" y2="1615.770486" stroke="black" stroke-width="6.48"/>
<line x1="5997.315971" y1="1615.770486" x2="5989.843487" y2="1585.799989" stroke="black" stroke-width="6.48"/>
<line x1="5989.843487" y1="1585.799989" x2="5786.505212" y2="1636.497918" stroke="black" stroke-width="6.48"/>
<line x1="5835.823603" y1="1834.30318" x2="5843.296087" y2="1864.273673" stroke="black" stroke-width="6.48"/>
<line x1="5843.296087" y1="1864.273673" x2="6046.634362" y2="1813.575748" stroke="black" stroke-width="6.48"/>
<line x1="6046.634362" y1="1813.575748" x2="6039.161881" y2="1783.605251" stroke="black" stroke-width="6.48"/>
<line x1="6039.161881" y1="1783.605251" x2="5835.823603" y2="1834.30318" stroke="black" stroke-width="6.48"/>
<line x1="5793.862734" y1="1666.007327" x2="5835.823603" y2="1834.30318" stroke="black" stroke-width="6.48"/>
<line x1="5996.163881" y1="1615.078238" x2="6027.961363" y2="1634.576101" stroke="black" stroke-width="6.48"/>
<line x1="6057.276491" y1="1752.152656" x2="6038.354671" y2="1784.29626" stroke="black" stroke-width="6.48"/>
<line x1="6027.501517" y1="1632.731764" x2="6057.736333" y2="1753.996993" stroke="black" stroke-width="6.48"/>
<line x1="5837.319641" y1="1655.662046" x2="5879.28051" y2="1823.957903" stroke="black" stroke-width="6.48"/>
<line x1="1109.126092" y1="1070.549478" x2="1225.76841" y2="1132.569299" stroke="black" stroke-width="6.48"/>
<line x1="1225.76841" y1="1132.569299" x2="1219.075625" y2="1145.156602" stroke="black" stroke-width="6.48"/>
<line x1="1102.433303" y1="1083.136777" x2="1219.075625" y2="1145.156602" stroke="black" stroke-width="6.48"/>
<line x1="1109.126092" y1="1070.549478" x2="1102.433303" y2="1083.136777" stroke="black" stroke-width="6.48"/>
<line x1="1114.181449" y1="1089.383382" x2="1097.77901" y2="1116.183071" stroke="black" stroke-width="6.48"/>
<line x1="1207.327478" y1="1138.91" x2="1193.83547" y2="1168.333589" stroke="black" stroke-width="6.48"/>
<line x1="892.725991" y1="1477.538874" x2="1009.36831" y2="1539.558695" stroke="black" stroke-width="6.48"/>
<line x1="1009.36831" y1="1539.558695" x2="1015.614911" y2="1527.810548" stroke="black" stroke-width="6.48"/>
<line x1="898.972589" y1="1465.790728" x2="1015.614911" y2="1527.810548" stroke="black" stroke-width="6.48"/>
<line x1="892.725991" y1="1477.538874" x2="898.972589" y2="1465.790728" stroke="black" stroke-width="6.48"/>
<line x1="910.773954" y1="1469.912832" x2="923.819778" y2="1441.3284" stroke="black" stroke-width="6.48"/>
<line x1="1003.919983" y1="1519.439458" x2="1021.607759" y2="1492.246796" stroke="black" stroke-width="6.48"/>
<line x1="1292.912658" y1="1354.486792" x2="1280.325355" y2="1347.794006" stroke="black" stroke-width="6.48"/>
<line x1="1280.325355" y1="1347.794006" x2="1218.305531" y2="1464.436328" stroke="black" stroke-width="6.48"/>
<line x1="1230.892834" y1="1471.129114" x2="1218.305531" y2="1464.436328" stroke="black" stroke-width="6.48"/>
<line x1="1292.912658" y1="1354.486792" x2="1230.892834" y2="1471.129114" stroke="black" stroke-width="6.48"/>
<line x1="1224.99832" y1="1451.849026" x2="1195.128547" y2="1439.19617" stroke="black" stroke-width="6.48"/>
<line x1="1274.078754" y1="1359.542153" x2="1246.439909" y2="1342.69353" stroke="black" stroke-width="6.48"/>
<line x1="887.208599" y1="1137.693722" x2="899.795902" y2="1144.386511" stroke="black" stroke-width="6.48"/>
<line x1="899.795902" y1="1144.386511" x2="837.776077" y2="1261.028833" stroke="black" stroke-width="6.48"/>
<line x1="825.188778" y1="1254.336044" x2="837.776077" y2="1261.028833" stroke="black" stroke-width="6.48"/>
<line x1="887.208599" y1="1137.693722" x2="825.188778" y2="1254.336044" stroke="black" stroke-width="6.48"/>
<line x1="844.468862" y1="1248.44153" x2="871.661524" y2="1266.12931" stroke="black" stroke-width="6.48"/>
<line x1="893.549297" y1="1156.134658" x2="922.972885" y2="1169.626666" stroke="black" stroke-width="6.48"/>
<circle cx="1059.050714" cy="1304.411418" r="191.98080000000002" fill="none" stroke="black" stroke-width="6.48"/>
</g>
</svg>
