<?xml version="1.0"?>
<svg xmlns:xlink="http://www.w3.org/1999/xlink" width="6775.2" height="2858.4">
<image x="0" y="0" width="6775.2" height="2858.4" xlink:href="groundfilled-01.png"/>
<g style="stroke-linecap:round">
<line x1="1285.950406" y1="795.178109" x2="1311.346069" y2="795.178109" stroke="black" stroke-width="6.48"/>
<line x1="1311.346069" y1="795.178109" x2="1311.346069" y2="745.625592" stroke="black" stroke-width="6.48"/>
<line x1="1311.346069" y1="745.625592" x2="1285.950406" y2="745.625592" stroke="black" stroke-width="6.48"/>
<line x1="1285.950406" y1="745.625592" x2="1285.950406" y2="795.178109" stroke="black" stroke-width="6.48"/>
<line x1="1559.728062" y1="745.625592" x2="1559.728062" y2="498.48241" stroke="black" stroke-width="6.48"/>
<line x1="1560.347471" y1="796.416923" x2="1585.743134" y2="796.416923" stroke="black" stroke-width="6.48"/>
<line x1="1585.743134" y1="796.416923" x2="1585.743134" y2="746.864406" stroke="black" stroke-width="6.48"/>
<line x1="1585.743134" y1="746.864406" x2="1560.347471" y2="746.864406" stroke="black" stroke-width="6.48"/>
<line x1="1560.347471" y1="746.864406" x2="1560.347471" y2="796.416923" stroke="black" stroke-width="6.48"/>
<path d="m 1311.346069,747.483811 a 248.38199299999997,248.38199299999997 0 0 1 248.38199299999997,-248.38199299999997" fill="none" stroke="black" stroke-width="6.48"/>
<line x1="330.523178" y1="771.328966" x2="330.523178" y2="366.748985" stroke="black" stroke-width="6.48"/>
<line x1="330.523178" y1="366.748985" x2="258.15928" y2="366.748985" stroke="black" stroke-width="6.48"/>
<line x1="258.15928" y1="366.748985" x2="258.15928" y2="771.328966" stroke="black" stroke-width="6.48"/>
<line x1="258.15928" y1="771.328966" x2="330.523178" y2="771.328966" stroke="black" stroke-width="6.48"/>
<line x1="330.523178" y1="752.415674" x2="355.19269" y2="752.415674" stroke="black" stroke-width="6.48"/>
<line x1="355.19269" y1="752.415674" x2="355.19269" y2="386.484595" stroke="black" stroke-width="6.48"/>
<line x1="330.523178" y1="386.484595" x2="355.19269" y2="386.484595" stroke="black" stroke-width="6.48"/>
<line x1="3901.945176" y1="1169.331426" x2="3901.945176" y2="1428.837066" stroke="black" stroke-width="6.48"/>
<line x1="3901.945176" y1="1428.837066" x2="3941.9501" y2="1428.837066" stroke="black" stroke-width="6.48"/>
<line x1="3941.9501" y1="1428.837066" x2="3941.9501" y2="1169.331426" stroke="black" stroke-width="6.48"/>
<line x1="3941.9501" y1="1169.331426" x2="3901.945176" y2="1169.331426" stroke="black" stroke-width="6.48"/>
<line x1="3941.423719" y1="1193.544936" x2="3902.471557" y2="1193.544936" stroke="black" stroke-width="6.48"/>
<line x1="3941.423719" y1="1404.097178" x2="3900.892414" y2="1404.097178" stroke="black" stroke-width="6.48"/>
<line x1="3923.000399" y1="1193.018555" x2="3923.000399" y2="1403.570797" stroke="black" stroke-width="6.48"/>
<line x1="323.923298" y1="1882.957399" x2="323.923298" y2="1457.423957" stroke="black" stroke-width="6.48"/>
<line x1="323.923298" y1="1457.423957" x2="258.323825" y2="1457.423957" stroke="black" stroke-width="6.48"/>
<line x1="258.323825" y1="1457.423957" x2="258.323825" y2="1882.957399" stroke="black" stroke-width="6.48"/>
<line x1="258.323825" y1="1882.957399" x2="323.923298" y2="1882.957399" stroke="black" stroke-width="6.48"/>
<line x1="259.186975" y1="1843.252456" x2="323.060148" y2="1843.252456" stroke="black" stroke-width="6.48"/>
<line x1="259.186975" y1="1497.992054" x2="325.649603" y2="1497.992054" stroke="black" stroke-width="6.48"/>
<line x1="289.397261" y1="1844.115606" x2="289.397261" y2="1498.855205" stroke="black" stroke-width="6.48"/>
<line x1="2747.905531" y1="904.670665" x2="2721.68303" y2="904.670665" stroke="black" stroke-width="6.48"/>
<line x1="2721.68303" y1="904.670665" x2="2721.68303" y2="955.836522" stroke="black" stroke-width="6.48"/>
<line x1="2721.68303" y1="955.836522" x2="2747.905531" y2="955.836522" stroke="black" stroke-width="6.48"/>
<line x1="2747.905531" y1="955.836522" x2="2747.905531" y2="904.670665" stroke="black" stroke-width="6.48"/>
<line x1="2465.214181" y1="955.836522" x2="2465.214181" y2="1211.026223" stroke="black" stroke-width="6.48"/>
<line x1="2464.574609" y1="903.39152" x2="2438.352108" y2="903.39152" stroke="black" stroke-width="6.48"/>
<line x1="2438.352108" y1="903.39152" x2="2438.352108" y2="954.557374" stroke="black" stroke-width="6.48"/>
<line x1="2438.352108" y1="954.557374" x2="2464.574609" y2="954.557374" stroke="black" stroke-width="6.48"/>
<line x1="2464.574609" y1="954.557374" x2="2464.574609" y2="903.39152" stroke="black" stroke-width="6.48"/>
<path d="m 2721.68303,953.917801 a 256.4688490000001,256.4688490000001 0 0 1 -256.4688490000003,256.46884899999986" fill="none" stroke="black" stroke-width="6.48"/>
<line x1="2420.532389" y1="1427.858834" x2="2395.136725" y2="1427.858834" stroke="black" stroke-width="6.48"/>
<line x1="2395.136725" y1="1427.858834" x2="2395.136725" y2="1477.411351" stroke="black" stroke-width="6.48"/>
<line x1="2395.136725" y1="1477.411351" x2="2420.532389" y2="1477.411351" stroke="black" stroke-width="6.48"/>
<line x1="2420.532389" y1="1477.411351" x2="2420.532389" y2="1427.858834" stroke="black" stroke-width="6.48"/>
<line x1="2146.754732" y1="1477.411351" x2="2146.754732" y2="1724.554534" stroke="black" stroke-width="6.48"/>
<line x1="2146.135324" y1="1426.62002" x2="2120.73966" y2="1426.62002" stroke="black" stroke-width="6.48"/>
<line x1="2120.73966" y1="1426.62002" x2="2120.73966" y2="1476.172537" stroke="black" stroke-width="6.48"/>
<line x1="2120.73966" y1="1476.172537" x2="2146.135324" y2="1476.172537" stroke="black" stroke-width="6.48"/>
<line x1="2146.135324" y1="1476.172537" x2="2146.135324" y2="1426.62002" stroke="black" stroke-width="6.48"/>
<path d="m 2395.136725,1475.553132 a 248.38199299999997,248.38199299999997 0 0 1 -248.38199299999997,248.38199299999997" fill="none" stroke="black" stroke-width="6.48"/>
<line x1="664.94029" y1="541.339351" x2="896.83789" y2="541.339351" stroke="black" stroke-width="6.48"/>
<line x1="896.83789" y1="541.339351" x2="896.83789" y2="773.712151" stroke="black" stroke-width="6.48"/>
<line x1="896.83789" y1="773.712151" x2="664.94029" y2="773.712151" stroke="black" stroke-width="6.48"/>
<line x1="664.94029" y1="773.712151" x2="664.94029" y2="541.339351" stroke="black" stroke-width="6.48"/>
<line x1="664.46509" y1="540.864151" x2="896.83789" y2="773.712151" stroke="black" stroke-width="6.48"/>
<line x1="664.94029" y1="773.236951" x2="896.36269" y2="541.339351" stroke="black" stroke-width="6.48"/>
<line x1="2032.924367" y1="1947.009233" x2="2032.924367" y2="1737.921233" stroke="black" stroke-width="6.48"/>
<line x1="2032.924367" y1="1737.921233" x2="1801.026767" y2="1737.921233" stroke="black" stroke-width="6.48"/>
<line x1="1801.026767" y1="1737.921233" x2="1801.026767" y2="1947.009233" stroke="black" stroke-width="6.48"/>
<line x1="1801.026767" y1="1947.009233" x2="2032.924367" y2="1947.009233" stroke="black" stroke-width="6.48"/>
<line x1="2000.610767" y1="1947.009233" x2="2000.610767" y2="1737.921233" stroke="black" stroke-width="6.48"/>
<line x1="1485.415969" y1="209.267824" x2="1707.693134" y2="209.267824" stroke="black" stroke-width="6.48"/>
<line x1="1707.693134" y1="209.267824" x2="1707.693134" y2="432.000475" stroke="black" stroke-width="6.48"/>
<line x1="1707.693134" y1="432.000475" x2="1485.415969" y2="432.000475" stroke="black" stroke-width="6.48"/>
<line x1="1485.415969" y1="432.000475" x2="1485.415969" y2="209.267824" stroke="black" stroke-width="6.48"/>
<line x1="1484.960483" y1="208.812337" x2="1707.693134" y2="432.000475" stroke="black" stroke-width="6.48"/>
<line x1="1485.415969" y1="431.544989" x2="1707.237648" y2="209.267824" stroke="black" stroke-width="6.48"/>
<line x1="2761.020558" y1="2194.614338" x2="2761.020558" y2="1803.366338" stroke="black" stroke-width="6.48"/>
<line x1="2761.020558" y1="1803.366338" x2="2586.780558" y2="1803.366338" stroke="black" stroke-width="6.48"/>
<line x1="2586.780558" y1="1803.366338" x2="2586.780558" y2="2194.614338" stroke="black" stroke-width="6.48"/>
<line x1="2586.780558" y1="2194.614338" x2="2761.020558" y2="2194.614338" stroke="black" stroke-width="6.48"/>
<line x1="2613.708558" y1="1878.606338" x2="2613.708558" y2="2162.934338" stroke="black" stroke-width="6.48"/>
<line x1="2613.708558" y1="2162.934338" x2="2731.716558" y2="2162.934338" stroke="black" stroke-width="6.48"/>
<line x1="2731.716558" y1="2162.934338" x2="2731.716558" y2="1873.062338" stroke="black" stroke-width="6.48"/>
<path d="m 2613.453134,1879.416911 a 63.3599990854681,63.3599990854681 0 0 1 119.3743300000001,-4.293814000000111" fill="none" stroke="black" stroke-width="6.48"/>
<line x1="2105.726288" y1="1896.153138" x2="2105.726288" y2="2079.897138" stroke="black" stroke-width="6.48"/>
<line x1="2105.726288" y1="2079.897138" x2="2056.622288" y2="2079.897138" stroke="black" stroke-width="6.48"/>
<line x1="2056.622288" y1="1896.153138" x2="2056.622288" y2="2079.897138" stroke="black" stroke-width="6.48"/>
<line x1="2105.726288" y1="1896.153138" x2="2056.622288" y2="1896.153138" stroke="black" stroke-width="6.48"/>
<line x1="2133.446288" y1="1937.733138" x2="2105.726288" y2="1937.733138" stroke="black" stroke-width="6.48"/>
<line x1="2105.726288" y1="2036.733138" x2="2135.030288" y2="2036.733138" stroke="black" stroke-width="6.48"/>
<circle cx="2178.590288" cy="1986.441138" r="66.52800000000002" fill="none" stroke="black" stroke-width="6.48"/>
<circle cx="2178.590288" cy="1986.441138" r="57.02400000000001" fill="none" stroke="black" stroke-width="6.48"/>
<line x1="565.738052" y1="209.134246" x2="836.285252" y2="209.134246" stroke="black" stroke-width="6.48"/>
<line x1="836.285252" y1="209.134246" x2="836.285252" y2="341.081446" stroke="black" stroke-width="6.48"/>
<line x1="565.738052" y1="341.081446" x2="836.285252" y2="341.081446" stroke="black" stroke-width="6.48"/>
<line x1="565.738052" y1="209.134246" x2="565.738052" y2="341.081446" stroke="black" stroke-width="6.48"/>
<line x1="572.390852" y1="215.787046" x2="710.436452" y2="215.787046" stroke="black" stroke-width="6.48"/>
<line x1="710.436452" y1="215.787046" x2="710.436452" y2="333.874246" stroke="black" stroke-width="6.48"/>
<line x1="572.390852" y1="333.874246" x2="710.436452" y2="333.874246" stroke="black" stroke-width="6.48"/>
<line x1="572.390852" y1="215.787046" x2="572.390852" y2="333.874246" stroke="black" stroke-width="6.48"/>
<line x1="724.850852" y1="223.548646" x2="821.870852" y2="223.548646" stroke="black" stroke-width="6.48"/>
<line x1="724.850852" y1="244.061446" x2="821.870852" y2="244.061446" stroke="black" stroke-width="6.48"/>
<line x1="725.405252" y1="265.128646" x2="822.425252" y2="265.128646" stroke="black" stroke-width="6.48"/>
<line x1="725.405252" y1="285.641446" x2="822.425252" y2="285.641446" stroke="black" stroke-width="6.48"/>
<line x1="724.850852" y1="306.154246" x2="821.870852" y2="306.154246" stroke="black" stroke-width="6.48"/>
<line x1="724.850852" y1="326.667046" x2="821.870852" y2="326.667046" stroke="black" stroke-width="6.48"/>
<line x1="625.058852" y1="333.874246" x2="625.058852" y2="320.014246" stroke="black" stroke-width="6.48"/>
<line x1="625.058852" y1="320.014246" x2="659.431652" y2="320.014246" stroke="black" stroke-width="6.48"/>
<line x1="659.431652" y1="320.014246" x2="659.431652" y2="333.319846" stroke="black" stroke-width="6.48"/>
<circle cx="694.913252" cy="230.755846" r="8.316000000000003" fill="none" stroke="black" stroke-width="6.48"/>
<line x1="686.84724" y1="1314.627671" x2="620.79444" y2="1200.22087" stroke="black" stroke-width="6.48"/>
<line x1="620.79444" y1="1200.22087" x2="633.140503" y2="1193.09287" stroke="black" stroke-width="6.48"/>
<line x1="699.193303" y1="1307.499671" x2="633.140503" y2="1193.09287" stroke="black" stroke-width="6.48"/>
<line x1="686.84724" y1="1314.627671" x2="699.193303" y2="1307.499671" stroke="black" stroke-width="6.48"/>
<line x1="692.540503" y1="1295.976686" x2="720.65223" y2="1281.941226" stroke="black" stroke-width="6.48"/>
<line x1="639.793303" y1="1204.615854" x2="666.827298" y2="1186.812914" stroke="black" stroke-width="6.48"/>
<line x1="1086.036455" y1="1084.155671" x2="1019.983655" y2="969.74887" stroke="black" stroke-width="6.48"/>
<line x1="1019.983655" y1="969.74887" x2="1008.46067" y2="976.40167" stroke="black" stroke-width="6.48"/>
<line x1="1074.51347" y1="1090.808471" x2="1008.46067" y2="976.40167" stroke="black" stroke-width="6.48"/>
<line x1="1086.036455" y1="1084.155671" x2="1074.51347" y2="1090.808471" stroke="black" stroke-width="6.48"/>
<line x1="1066.689731" y1="1081.058954" x2="1040.4788" y2="1098.386698" stroke="black" stroke-width="6.48"/>
<line x1="1013.942527" y1="989.698126" x2="984.532529" y2="1003.385714" stroke="black" stroke-width="6.48"/>
<line x1="681.451247" y1="976.443134" x2="688.579247" y2="988.78919" stroke="black" stroke-width="6.48"/>
<line x1="688.579247" y1="988.78919" x2="802.986055" y2="922.73639" stroke="black" stroke-width="6.48"/>
<line x1="795.858055" y1="910.390334" x2="802.986055" y2="922.73639" stroke="black" stroke-width="6.48"/>
<line x1="681.451247" y1="976.443134" x2="795.858055" y2="910.390334" stroke="black" stroke-width="6.48"/>
<line x1="790.639996" y1="929.86439" x2="809.266003" y2="956.423192" stroke="black" stroke-width="6.48"/>
<line x1="700.102231" y1="982.13639" x2="714.612892" y2="1011.071192" stroke="black" stroke-width="6.48"/>
<line x1="910.624975" y1="1375.284478" x2="903.496975" y2="1362.938418" stroke="black" stroke-width="6.48"/>
<line x1="903.496975" y1="1362.938418" x2="1017.90378" y2="1296.885618" stroke="black" stroke-width="6.48"/>
<line x1="1025.03178" y1="1309.231678" x2="1017.90378" y2="1296.885618" stroke="black" stroke-width="6.48"/>
<line x1="910.624975" y1="1375.284478" x2="1025.03178" y2="1309.231678" stroke="black" stroke-width="6.48"/>
<line x1="1005.557724" y1="1304.013618" x2="991.870135" y2="1274.60362" stroke="black" stroke-width="6.48"/>
<line x1="915.019963" y1="1356.285618" x2="897.217024" y2="1329.25162" stroke="black" stroke-width="6.48"/>
<circle cx="853.241515" cy="1142.837402" r="191.98080000000002" fill="none" stroke="black" stroke-width="6.48"/>
<line x1="2044.889399" y1="955.822399" x2="2267.166564" y2="955.822399" stroke="black" stroke-width="6.48"/>
<line x1="2267.166564" y1="955.822399" x2="2267.166564" y2="1178.555051" stroke="black" stroke-width="6.48"/>
<line x1="2267.166564" y1="1178.555051" x2="2044.889399" y2="1178.555051" stroke="black" stroke-width="6.48"/>
<line x1="2044.889399" y1="1178.555051" x2="2044.889399" y2="955.822399" stroke="black" stroke-width="6.48"/>
<line x1="2044.433912" y1="955.366913" x2="2267.166564" y2="1178.555051" stroke="black" stroke-width="6.48"/>
<line x1="2044.889399" y1="1178.099564" x2="2266.711078" y2="955.822399" stroke="black" stroke-width="6.48"/>
<line x1="333.766206" y1="1375.361078" x2="333.766206" y2="949.854546" stroke="black" stroke-width="6.48"/>
<line x1="333.766206" y1="949.854546" x2="257.659348" y2="949.854546" stroke="black" stroke-width="6.48"/>
<line x1="257.659348" y1="949.854546" x2="257.659348" y2="1375.361078" stroke="black" stroke-width="6.48"/>
<line x1="257.659348" y1="1375.361078" x2="333.766206" y2="1375.361078" stroke="black" stroke-width="6.48"/>
<line x1="333.766206" y1="1355.469512" x2="359.711726" y2="1355.469512" stroke="black" stroke-width="6.48"/>
<line x1="359.711726" y1="1355.469512" x2="359.711726" y2="970.610962" stroke="black" stroke-width="6.48"/>
<line x1="333.766206" y1="970.610962" x2="359.711726" y2="970.610962" stroke="black" stroke-width="6.48"/>
<line x1="3874.406537" y1="1514.726719" x2="3874.406537" y2="1940.260162" stroke="black" stroke-width="6.48"/>
<line x1="3874.406537" y1="1940.260162" x2="3940.00601" y2="1940.260162" stroke="black" stroke-width="6.48"/>
<line x1="3940.00601" y1="1940.260162" x2="3940.00601" y2="1514.726719" stroke="black" stroke-width="6.48"/>
<line x1="3940.00601" y1="1514.726719" x2="3874.406537" y2="1514.726719" stroke="black" stroke-width="6.48"/>
<line x1="3939.14286" y1="1554.431663" x2="3875.269687" y2="1554.431663" stroke="black" stroke-width="6.48"/>
<line x1="3939.14286" y1="1899.692064" x2="3872.680232" y2="1899.692064" stroke="black" stroke-width="6.48"/>
<line x1="3908.932574" y1="1553.568512" x2="3908.932574" y2="1898.828914" stroke="black" stroke-width="6.48"/>
<line x1="3294.942271" y1="1074.945809" x2="3504.307475" y2="1074.945809" stroke="black" stroke-width="6.48"/>
<line x1="3504.307475" y1="1074.945809" x2="3504.307475" y2="743.731405" stroke="black" stroke-width="6.48"/>
<line x1="3504.307475" y1="743.731405" x2="3294.942271" y2="743.731405" stroke="black" stroke-width="6.48"/>
<line x1="3294.942271" y1="743.731405" x2="3294.942271" y2="1074.945809" stroke="black" stroke-width="6.48"/>
<line x1="3294.269071" y1="802.973005" x2="3504.980671" y2="802.973005" stroke="black" stroke-width="6.48"/>
<line x1="3504.980671" y1="802.973005" x2="3295.615471" y2="852.789809" stroke="black" stroke-width="6.48"/>
<line x1="3295.615471" y1="852.789809" x2="3327.255875" y2="899.240609" stroke="black" stroke-width="6.48"/>
<line x1="3327.255875" y1="899.240609" x2="3504.980671" y2="802.299809" stroke="black" stroke-width="6.48"/>
<line x1="3529.192219" y1="1202.651507" x2="3751.469384" y2="1202.651507" stroke="black" stroke-width="6.48"/>
<line x1="3751.469384" y1="1202.651507" x2="3751.469384" y2="1425.384158" stroke="black" stroke-width="6.48"/>
<line x1="3751.469384" y1="1425.384158" x2="3529.192219" y2="1425.384158" stroke="black" stroke-width="6.48"/>
<line x1="3529.192219" y1="1425.384158" x2="3529.192219" y2="1202.651507" stroke="black" stroke-width="6.48"/>
<line x1="3528.736733" y1="1202.19602" x2="3751.469384" y2="1425.384158" stroke="black" stroke-width="6.48"/>
<line x1="3529.192219" y1="1424.928672" x2="3751.013898" y2="1202.651507" stroke="black" stroke-width="6.48"/>
<line x1="2804.16708" y1="1127.69402" x2="2804.16708" y2="1153.148746" stroke="black" stroke-width="6.48"/>
<line x1="2804.16708" y1="1153.148746" x2="2853.834836" y2="1153.148746" stroke="black" stroke-width="6.48"/>
<line x1="2853.834836" y1="1153.148746" x2="2853.834836" y2="1127.69402" stroke="black" stroke-width="6.48"/>
<line x1="2853.834836" y1="1127.69402" x2="2804.16708" y2="1127.69402" stroke="black" stroke-width="6.48"/>
<line x1="2853.834836" y1="1402.108373" x2="3101.55277" y2="1402.108373" stroke="black" stroke-width="6.48"/>
<line x1="2802.925386" y1="1402.729218" x2="2802.925386" y2="1428.183943" stroke="black" stroke-width="6.48"/>
<line x1="2802.925386" y1="1428.183943" x2="2852.593142" y2="1428.183943" stroke="black" stroke-width="6.48"/>
<line x1="2852.593142" y1="1428.183943" x2="2852.593142" y2="1402.729218" stroke="black" stroke-width="6.48"/>
<line x1="2852.593142" y1="1402.729218" x2="2802.925386" y2="1402.729218" stroke="black" stroke-width="6.48"/>
<path d="m 2851.972294,1153.148746 a 248.95962699999984,248.95962699999984 0 0 1 248.95962699999973,248.95962699999995" fill="none" stroke="black" stroke-width="6.48"/>
<line x1="3384.406973" y1="1809.821851" x2="3539.576754" y2="1637.48835" stroke="black" stroke-width="6.48"/>
<line x1="3539.576754" y1="1637.48835" x2="3712.263401" y2="1792.976101" stroke="black" stroke-width="6.48"/>
<line x1="3712.263401" y1="1792.976101" x2="3557.09362" y2="1965.309602" stroke="black" stroke-width="6.48"/>
<line x1="3557.09362" y1="1965.309602" x2="3384.406973" y2="1809.821851" stroke="black" stroke-width="6.48"/>
<line x1="3383.735861" y1="1809.857023" x2="3712.263401" y2="1792.976101" stroke="black" stroke-width="6.48"/>
<line x1="3556.740474" y1="1964.991636" x2="3539.258784" y2="1637.841492" stroke="black" stroke-width="6.48"/>
<line x1="3066.685171" y1="1589.315879" x2="3055.615902" y2="1618.152311" stroke="black" stroke-width="6.48"/>
<line x1="3055.615902" y1="1618.152311" x2="3251.260004" y2="1693.253045" stroke="black" stroke-width="6.48"/>
<line x1="3251.260004" y1="1693.253045" x2="3262.329274" y2="1664.416613" stroke="black" stroke-width="6.48"/>
<line x1="3262.329274" y1="1664.416613" x2="3066.685171" y2="1589.315879" stroke="black" stroke-width="6.48"/>
<line x1="2993.627995" y1="1779.63633" x2="2982.558726" y2="1808.472762" stroke="black" stroke-width="6.48"/>
<line x1="2982.558726" y1="1808.472762" x2="3178.202828" y2="1883.573496" stroke="black" stroke-width="6.48"/>
<line x1="3178.202828" y1="1883.573496" x2="3189.272098" y2="1854.737068" stroke="black" stroke-width="6.48"/>
<line x1="3189.272098" y1="1854.737068" x2="2993.627995" y2="1779.63633" stroke="black" stroke-width="6.48"/>
<line x1="3055.7862" y1="1617.708672" x2="2993.627995" y2="1779.63633" stroke="black" stroke-width="6.48"/>
<line x1="3250.713323" y1="1692.025175" x2="3265.57678" y2="1726.235176" stroke="black" stroke-width="6.48"/>
<line x1="3222.151186" y1="1839.362717" x2="3188.214526" y2="1854.84011" stroke="black" stroke-width="6.48"/>
<line x1="3266.257964" y1="1724.460631" x2="3221.469997" y2="1841.137268" stroke="black" stroke-width="6.48"/>
<line x1="3097.31782" y1="1634.160175" x2="3035.159615" y2="1796.087833" stroke="black" stroke-width="6.48"/>
<line x1="4791.26173" y1="1689.823314" x2="4665.621838" y2="1649.000441" stroke="black" stroke-width="6.48"/>
<line x1="4665.621838" y1="1649.000441" x2="4670.027183" y2="1635.442178" stroke="black" stroke-width="6.48"/>
<line x1="4795.667075" y1="1676.265055" x2="4670.027183" y2="1635.442178" stroke="black" stroke-width="6.48"/>
<line x1="4791.26173" y1="1689.823314" x2="4795.667075" y2="1676.265055" stroke="black" stroke-width="6.48"/>
<line x1="4783.012697" y1="1672.153398" x2="4794.512227" y2="1642.9126" stroke="black" stroke-width="6.48"/>
<line x1="4682.681561" y1="1639.553836" x2="4690.859245" y2="1608.234397" stroke="black" stroke-width="6.48"/>
<line x1="4933.701259" y1="1251.439524" x2="4808.061364" y2="1210.616647" stroke="black" stroke-width="6.48"/>
<line x1="4808.061364" y1="1210.616647" x2="4803.94971" y2="1223.271025" stroke="black" stroke-width="6.48"/>
<line x1="4929.589602" y1="1264.093902" x2="4803.94971" y2="1223.271025" stroke="black" stroke-width="6.48"/>
<line x1="4933.701259" y1="1251.439524" x2="4929.589602" y2="1264.093902" stroke="black" stroke-width="6.48"/>
<line x1="4917.251729" y1="1262.083702" x2="4909.367736" y2="1292.499252" stroke="black" stroke-width="6.48"/>
<line x1="4816.920593" y1="1229.484139" x2="4804.223486" y2="1259.33513" stroke="black" stroke-width="6.48"/>
<line x1="4560.962098" y1="1442.113852" x2="4574.520356" y2="1446.519197" stroke="black" stroke-width="6.48"/>
<line x1="4574.520356" y1="1446.519197" x2="4615.343233" y2="1320.879305" stroke="black" stroke-width="6.48"/>
<line x1="4601.784974" y1="1316.47396" x2="4615.343233" y2="1320.879305" stroke="black" stroke-width="6.48"/>
<line x1="4560.962098" y1="1442.113852" x2="4601.784974" y2="1316.47396" stroke="black" stroke-width="6.48"/>
<line x1="4610.937888" y1="1334.437567" x2="4642.551018" y2="1341.711367" stroke="black" stroke-width="6.48"/>
<line x1="4578.632014" y1="1433.864819" x2="4608.776696" y2="1445.658041" stroke="black" stroke-width="6.48"/>
<line x1="4998.148319" y1="1585.163578" x2="4984.590056" y2="1580.758232" stroke="black" stroke-width="6.48"/>
<line x1="4984.590056" y1="1580.758232" x2="5025.41293" y2="1455.118337" stroke="black" stroke-width="6.48"/>
<line x1="5038.971196" y1="1459.523682" x2="5025.41293" y2="1455.118337" stroke="black" stroke-width="6.48"/>
<line x1="4998.148319" y1="1585.163578" x2="5038.971196" y2="1459.523682" stroke="black" stroke-width="6.48"/>
<line x1="5021.007584" y1="1468.676599" x2="4991.156593" y2="1455.979493" stroke="black" stroke-width="6.48"/>
<line x1="4988.70171" y1="1568.103854" x2="4957.382272" y2="1559.926166" stroke="black" stroke-width="6.48"/>
<circle cx="4799.966645" cy="1450.818767" r="191.98080000000002" fill="none" stroke="black" stroke-width="6.48"/>
<line x1="6350.965459" y1="2236.754293" x2="6346.666681" y2="2267.341693" stroke="black" stroke-width="6.48"/>
<line x1="6346.666681" y1="2267.341693" x2="6554.190427" y2="2296.507252" stroke="black" stroke-width="6.48"/>
<line x1="6554.190427" y1="2296.507252" x2="6558.489205" y2="2265.919855" stroke="black" stroke-width="6.48"/>
<line x1="6558.489205" y1="2265.919855" x2="6350.965459" y2="2236.754293" stroke="black" stroke-width="6.48"/>
<line x1="6322.593521" y1="2438.631133" x2="6318.294739" y2="2469.218533" stroke="black" stroke-width="6.48"/>
<line x1="6318.294739" y1="2469.218533" x2="6525.818485" y2="2498.384095" stroke="black" stroke-width="6.48"/>
<line x1="6525.818485" y1="2498.384095" x2="6530.117263" y2="2467.796695" stroke="black" stroke-width="6.48"/>
<line x1="6530.117263" y1="2467.796695" x2="6322.593521" y2="2438.631133" stroke="black" stroke-width="6.48"/>
<line x1="6346.732813" y1="2266.871119" x2="6322.593521" y2="2438.631133" stroke="black" stroke-width="6.48"/>
<line x1="6553.381543" y1="2295.433836" x2="6575.559628" y2="2325.423481" stroke="black" stroke-width="6.48"/>
<line x1="6558.695186" y1="2445.420204" x2="6529.10998" y2="2468.134998" stroke="black" stroke-width="6.48"/>
<line x1="6575.824166" y1="2323.541182" x2="6558.430648" y2="2447.302507" stroke="black" stroke-width="6.48"/>
<line x1="6390.900763" y1="2273.558389" x2="6366.761471" y2="2445.318403" stroke="black" stroke-width="6.48"/>
<line x1="5965.32136" y1="1840.584924" x2="5987.177006" y2="2048.527516" stroke="black" stroke-width="6.48"/>
<line x1="5987.177006" y1="2048.527516" x2="6217.804246" y2="2024.287618" stroke="black" stroke-width="6.48"/>
<line x1="6217.804246" y1="2024.287618" x2="6195.948599" y2="1816.345022" stroke="black" stroke-width="6.48"/>
<line x1="6195.948599" y1="1816.345022" x2="5965.32136" y2="1840.584924" stroke="black" stroke-width="6.48"/>
<line x1="5997.457944" y1="1837.207231" x2="6019.313587" y2="2045.149826" stroke="black" stroke-width="6.48"/>
<line x1="1412.416958" y1="1930.604166" x2="1423.987805" y2="1959.243023" stroke="black" stroke-width="6.48"/>
<line x1="1423.987805" y1="1959.243023" x2="1618.29144" y2="1880.739317" stroke="black" stroke-width="6.48"/>
<line x1="1618.29144" y1="1880.739317" x2="1606.720597" y2="1852.10046" stroke="black" stroke-width="6.48"/>
<line x1="1606.720597" y1="1852.10046" x2="1412.416958" y2="1930.604166" stroke="black" stroke-width="6.48"/>
<line x1="1488.784514" y1="2119.620629" x2="1500.355361" y2="2148.259486" stroke="black" stroke-width="6.48"/>
<line x1="1500.355361" y1="2148.259486" x2="1694.658992" y2="2069.75578" stroke="black" stroke-width="6.48"/>
<line x1="1694.658992" y1="2069.75578" x2="1683.088153" y2="2041.116923" stroke="black" stroke-width="6.48"/>
<line x1="1683.088153" y1="2041.116923" x2="1488.784514" y2="2119.620629" stroke="black" stroke-width="6.48"/>
<line x1="1423.809792" y1="1958.80243" x2="1488.784514" y2="2119.620629" stroke="black" stroke-width="6.48"/>
<line x1="1617.054221" y1="1880.214149" x2="1651.255823" y2="1895.096912" stroke="black" stroke-width="6.48"/>
<line x1="1696.649119" y1="2007.449359" x2="1682.384969" y2="2041.913545" stroke="black" stroke-width="6.48"/>
<line x1="1650.543772" y1="1893.334522" x2="1697.361178" y2="2009.211746" stroke="black" stroke-width="6.48"/>
<line x1="1465.403998" y1="1942.509809" x2="1530.378724" y2="2103.328012" stroke="black" stroke-width="6.48"/>
<line x1="3840.070216" y1="1134.752281" x2="3838.453664" y2="1103.906614" stroke="black" stroke-width="6.48"/>
<line x1="3838.453664" y1="1103.906614" x2="3629.177665" y2="1114.874305" stroke="black" stroke-width="6.48"/>
<line x1="3629.177665" y1="1114.874305" x2="3630.794216" y2="1145.719973" stroke="black" stroke-width="6.48"/>
<line x1="3630.794216" y1="1145.719973" x2="3840.070216" y2="1134.752281" stroke="black" stroke-width="6.48"/>
<line x1="3829.400968" y1="931.17087" x2="3827.784416" y2="900.325199" stroke="black" stroke-width="6.48"/>
<line x1="3827.784416" y1="900.325199" x2="3618.508414" y2="911.292887" stroke="black" stroke-width="6.48"/>
<line x1="3618.508414" y1="911.292887" x2="3620.124965" y2="942.138562" stroke="black" stroke-width="6.48"/>
<line x1="3620.124965" y1="942.138562" x2="3829.400968" y2="931.17087" stroke="black" stroke-width="6.48"/>
<line x1="3838.478533" y1="1104.381162" x2="3829.400968" y2="931.17087" stroke="black" stroke-width="6.48"/>
<line x1="3630.176503" y1="1115.773661" x2="3602.683598" y2="1090.566785" stroke="black" stroke-width="6.48"/>
<line x1="3596.341738" y1="969.556853" x2="3621.049193" y2="941.614268" stroke="black" stroke-width="6.48"/>
<line x1="3602.783077" y1="1092.464978" x2="3596.242259" y2="967.658656" stroke="black" stroke-width="6.48"/>
<line x1="3793.846082" y1="1106.244396" x2="3784.768517" y2="933.034104" stroke="black" stroke-width="6.48"/>
</g>
</svg>
