<?xml version="1.0"?>
<svg xmlns:xlink="http://www.w3.org/1999/xlink" width="6775.2" height="2858.4">
<image x="0" y="0" width="6775.2" height="2858.4" xlink:href="groundfilled-01.png"/>
<g style="stroke-linecap:round">
<line x1="1285.950406" y1="795.178109" x2="1311.346069" y2="795.178109" stroke="black" stroke-width="6.48"/>
<line x1="1311.346069" y1="795.178109" x2="1311.346069" y2="745.625592" stroke="black" stroke-width="6.48"/>
<line x1="1311.346069" y1="745.625592" x2="1285.950406" y2="745.625592" stroke="black" stroke-width="6.48"/>
<line x1="1285.950406" y1="745.625592" x2="1285.950406" y2="795.178109" stroke="black" stroke-width="6.48"/>
<line x1="1559.728062" y1="745.625592" x2="1559.728062" y2="498.48241" stroke="black" stroke-width="6.48"/>
<line x1="1560.347471" y1="796.416923" x2="1585.743134" y2="796.416923" stroke="black" stroke-width="6.48"/>
<line x1="1585.743134" y1="796.416923" x2="1585.743134" y2="746.864406" stroke="black" stroke-width="6.48"/>
<line x1="1585.743134" y1="746.864406" x2="1560.347471" y2="746.864406" stroke="black" stroke-width="6.48"/>
<line x1="1560.347471" y1="746.864406" x2="1560.347471" y2="796.416923" stroke="black" stroke-width="6.48"/>
<path d="m 1311.346069,747.483811 a 248.38199299999997,248.38199299999997 0 0 1 248.38199299999997,-248.38199299999997" fill="none" stroke="black" stroke-width="6.48"/>
<line x1="330.523178" y1="771.328966" x2="330.523178" y2="366.748985" stroke="black" stroke-width="6.48"/>
<line x1="330.523178" y1="366.748985" x2="258.15928" y2="366.748985" stroke="black" stroke-width="6.48"/>
<line x1="258.15928" y1="366.748985" x2="258.15928" y2="771.328966" stroke="black" stroke-width="6.48"/>
<line x1="258.15928" y1="771.328966" x2="330.523178" y2="771.328966" stroke="black" stroke-width="6.48"/>
<line x1="330.523178" y1="752.415674" x2="355.19269" y2="752.415674" stroke="black" stroke-width="6.48"/>
<line x1="355.19269" y1="752.415674" x2="355.19269" y2="386.484595" stroke="black" stroke-width="6.48"/>
<line x1="330.523178" y1="386.484595" x2="355.19269" y2="386.484595" stroke="black" stroke-width="6.48"/>
<line x1="3901.945176" y1="1169.331426" x2="3901.945176" y2="1428.837066" stroke="black" stroke-width="6.48"/>
<line x1="3901.945176" y1="1428.837066" x2="3941.9501" y2="1428.837066" stroke="black" stroke-width="6.48"/>
<line x1="3941.9501" y1="1428.837066" x2="3941.9501" y2="1169.331426" stroke="black" stroke-width="6.48"/>
<line x1="3941.9501" y1="1169.331426" x2="3901.945176" y2="1169.331426" stroke="black" stroke-width="6.48"/>
<line x1="3941.423719" y1="1193.544936" x2="3902.471557" y2="1193.544936" stroke="black" stroke-width="6.48"/>
<line x1="3941.423719" y1="1404.097178" x2="3900.892414" y2="1404.097178" stroke="black" stroke-width="6.48"/>
<line x1="3923.000399" y1="1193.018555" x2="3923.000399" y2="1403.570797" stroke="black" stroke-width="6.48"/>
<line x1="323.923298" y1="1882.957399" x2="323.923298" y2="1457.423957" stroke="black" stroke-width="6.48"/>
<line x1="323.923298" y1="1457.423957" x2="258.323825" y2="1457.423957" stroke="black" stroke-width="6.48"/>
<line x1="258.323825" y1="1457.423957" x2="258.323825" y2="1882.957399" stroke="black" stroke-width="6.48"/>
<line x1="258.323825" y1="1882.957399" x2="323.923298" y2="1882.957399" stroke="black" stroke-width="6.48"/>
<line x1="259.186975" y1="1843.252456" x2="323.060148" y2="1843.252456" stroke="black" stroke-width="6.48"/>
<line x1="259.186975" y1="1497.992054" x2="325.649603" y2="1497.992054" stroke="black" stroke-width="6.48"/>
<line x1="289.397261" y1="1844.115606" x2="289.397261" y2="1498.855205" stroke="black" stroke-width="6.48"/>
<line x1="2747.905531" y1="904.670665" x2="2721.68303" y2="904.670665" stroke="black" stroke-width="6.48"/>
<line x1="2721.68303" y1="904.670665" x2="2721.68303" y2="955.836522" stroke="black" stroke-width="6.48"/>
<line x1="2721.68303" y1="955.836522" x2="2747.905531" y2="955.836522" stroke="black" stroke-width="6.48"/>
<line x1="2747.905531" y1="955.836522" x2="2747.905531" y2="904.670665" stroke="black" stroke-width="6.48"/>
<line x1="2465.214181" y1="955.836522" x2="2465.214181" y2="1211.026223" stroke="black" stroke-width="6.48"/>
<line x1="2464.574609" y1="903.39152" x2="2438.352108" y2="903.39152" stroke="black" stroke-width="6.48"/>
<line x1="2438.352108" y1="903.39152" x2="2438.352108" y2="954.557374" stroke="black" stroke-width="6.48"/>
<line x1="2438.352108" y1="954.557374" x2="2464.574609" y2="954.557374" stroke="black" stroke-width="6.48"/>
<line x1="2464.574609" y1="954.557374" x2="2464.574609" y2="903.39152" stroke="black" stroke-width="6.48"/>
<path d="m 2721.68303,953.917801 a 256.4688490000001,256.4688490000001 0 0 1 -256.4688490000003,256.46884899999986" fill="none" stroke="black" stroke-width="6.48"/>
<line x1="2420.532389" y1="1427.858834" x2="2395.136725" y2="1427.858834" stroke="black" stroke-width="6.48"/>
<line x1="2395.136725" y1="1427.858834" x2="2395.136725" y2="1477.411351" stroke="black" stroke-width="6.48"/>
<line x1="2395.136725" y1="1477.411351" x2="2420.532389" y2="1477.411351" stroke="black" stroke-width="6.48"/>
<line x1="2420.532389" y1="1477.411351" x2="2420.532389" y2="1427.858834" stroke="black" stroke-width="6.48"/>
<line x1="2146.754732" y1="1477.411351" x2="2146.754732" y2="1724.554534" stroke="black" stroke-width="6.48"/>
<line x1="2146.135324" y1="1426.62002" x2="2120.73966" y2="1426.62002" stroke="black" stroke-width="6.48"/>
<line x1="2120.73966" y1="1426.62002" x2="2120.73966" y2="1476.172537" stroke="black" stroke-width="6.48"/>
<line x1="2120.73966" y1="1476.172537" x2="2146.135324" y2="1476.172537" stroke="black" stroke-width="6.48"/>
<line x1="2146.135324" y1="1476.172537" x2="2146.135324" y2="1426.62002" stroke="black" stroke-width="6.48"/>
<path d="m 2395.136725,1475.553132 a 248.38199299999997,248.38199299999997 0 0 1 -248.38199299999997,248.38199299999997" fill="none" stroke="black" stroke-width="6.48"/>
<line x1="822.606181" y1="541.339351" x2="1054.503781" y2="541.339351" stroke="black" stroke-width="6.48"/>
<line x1="1054.503781" y1="541.339351" x2="1054.503781" y2="773.712151" stroke="black" stroke-width="6.48"/>
<line x1="1054.503781" y1="773.712151" x2="822.606181" y2="773.712151" stroke="black" stroke-width="6.48"/>
<line x1="822.606181" y1="773.712151" x2="822.606181" y2="541.339351" stroke="black" stroke-width="6.48"/>
<line x1="822.130981" y1="540.864151" x2="1054.503781" y2="773.712151" stroke="black" stroke-width="6.48"/>
<line x1="822.606181" y1="773.236951" x2="1054.028581" y2="541.339351" stroke="black" stroke-width="6.48"/>
<line x1="2032.924367" y1="1918.824624" x2="2032.924367" y2="1709.736624" stroke="black" stroke-width="6.48"/>
<line x1="2032.924367" y1="1709.736624" x2="1801.026767" y2="1709.736624" stroke="black" stroke-width="6.48"/>
<line x1="1801.026767" y1="1709.736624" x2="1801.026767" y2="1918.824624" stroke="black" stroke-width="6.48"/>
<line x1="1801.026767" y1="1918.824624" x2="2032.924367" y2="1918.824624" stroke="black" stroke-width="6.48"/>
<line x1="2000.610767" y1="1918.824624" x2="2000.610767" y2="1709.736624" stroke="black" stroke-width="6.48"/>
<line x1="1485.415969" y1="209.267824" x2="1707.693134" y2="209.267824" stroke="black" stroke-width="6.48"/>
<line x1="1707.693134" y1="209.267824" x2="1707.693134" y2="432.000475" stroke="black" stroke-width="6.48"/>
<line x1="1707.693134" y1="432.000475" x2="1485.415969" y2="432.000475" stroke="black" stroke-width="6.48"/>
<line x1="1485.415969" y1="432.000475" x2="1485.415969" y2="209.267824" stroke="black" stroke-width="6.48"/>
<line x1="1484.960483" y1="208.812337" x2="1707.693134" y2="432.000475" stroke="black" stroke-width="6.48"/>
<line x1="1485.415969" y1="431.544989" x2="1707.237648" y2="209.267824" stroke="black" stroke-width="6.48"/>
<line x1="2761.020558" y1="2194.614338" x2="2761.020558" y2="1803.366338" stroke="black" stroke-width="6.48"/>
<line x1="2761.020558" y1="1803.366338" x2="2586.780558" y2="1803.366338" stroke="black" stroke-width="6.48"/>
<line x1="2586.780558" y1="1803.366338" x2="2586.780558" y2="2194.614338" stroke="black" stroke-width="6.48"/>
<line x1="2586.780558" y1="2194.614338" x2="2761.020558" y2="2194.614338" stroke="black" stroke-width="6.48"/>
<line x1="2613.708558" y1="1878.606338" x2="2613.708558" y2="2162.934338" stroke="black" stroke-width="6.48"/>
<line x1="2613.708558" y1="2162.934338" x2="2731.716558" y2="2162.934338" stroke="black" stroke-width="6.48"/>
<line x1="2731.716558" y1="2162.934338" x2="2731.716558" y2="1873.062338" stroke="black" stroke-width="6.48"/>
<path d="m 2613.453134,1879.416911 a 63.3599990854681,63.3599990854681 0 0 1 119.3743300000001,-4.293814000000111" fill="none" stroke="black" stroke-width="6.48"/>
<line x1="2105.503042" y1="1868.024052" x2="2105.503042" y2="2051.768052" stroke="black" stroke-width="6.48"/>
<line x1="2105.503042" y1="2051.768052" x2="2056.399042" y2="2051.768052" stroke="black" stroke-width="6.48"/>
<line x1="2056.399042" y1="1868.024052" x2="2056.399042" y2="2051.768052" stroke="black" stroke-width="6.48"/>
<line x1="2105.503042" y1="1868.024052" x2="2056.399042" y2="1868.024052" stroke="black" stroke-width="6.48"/>
<line x1="2133.223042" y1="1909.604052" x2="2105.503042" y2="1909.604052" stroke="black" stroke-width="6.48"/>
<line x1="2105.503042" y1="2008.604052" x2="2134.807042" y2="2008.604052" stroke="black" stroke-width="6.48"/>
<circle cx="2178.367042" cy="1958.312052" r="66.52800000000002" fill="none" stroke="black" stroke-width="6.48"/>
<circle cx="2178.367042" cy="1958.312052" r="57.02400000000001" fill="none" stroke="black" stroke-width="6.48"/>
<line x1="490.201542" y1="210.104147" x2="883.445414" y2="210.104147" stroke="black" stroke-width="6.48"/>
<line x1="887.400821" y1="209.107865" x2="887.400821" y2="345.17664" stroke="black" stroke-width="6.48"/>
<line x1="490.665931" y1="346.328147" x2="887.706162" y2="346.328147" stroke="black" stroke-width="6.48"/>
<line x1="491.400821" y1="210.798896" x2="491.400821" y2="346.062953" stroke="black" stroke-width="6.48"/>
<line x1="501.696821" y1="221.192147" x2="625.248821" y2="221.192147" stroke="black" stroke-width="6.48"/>
<line x1="625.248821" y1="221.192147" x2="625.248821" y2="335.240147" stroke="black" stroke-width="6.48"/>
<line x1="501.696821" y1="335.240147" x2="625.248821" y2="335.240147" stroke="black" stroke-width="6.48"/>
<line x1="501.696821" y1="221.192147" x2="501.696821" y2="335.240147" stroke="black" stroke-width="6.48"/>
<line x1="644.256821" y1="228.320147" x2="731.376821" y2="228.320147" stroke="black" stroke-width="6.48"/>
<line x1="644.256821" y1="248.120147" x2="731.376821" y2="248.120147" stroke="black" stroke-width="6.48"/>
<line x1="645.048821" y1="268.712147" x2="731.376821" y2="268.712147" stroke="black" stroke-width="6.48"/>
<line x1="645.048821" y1="288.512147" x2="731.376821" y2="288.512147" stroke="black" stroke-width="6.48"/>
<line x1="644.256821" y1="308.312147" x2="731.376821" y2="308.312147" stroke="black" stroke-width="6.48"/>
<line x1="644.256821" y1="328.112147" x2="731.376821" y2="328.112147" stroke="black" stroke-width="6.48"/>
<line x1="549.216821" y1="334.448147" x2="549.216821" y2="320.984147" stroke="black" stroke-width="6.48"/>
<line x1="549.216821" y1="320.984147" x2="579.312821" y2="320.984147" stroke="black" stroke-width="6.48"/>
<line x1="579.312821" y1="320.984147" x2="579.312821" y2="333.656147" stroke="black" stroke-width="6.48"/>
<line x1="751.968821" y1="221.192147" x2="875.520821" y2="221.192147" stroke="black" stroke-width="6.48"/>
<line x1="875.520821" y1="221.192147" x2="875.520821" y2="335.240147" stroke="black" stroke-width="6.48"/>
<line x1="751.968821" y1="335.240147" x2="875.520821" y2="335.240147" stroke="black" stroke-width="6.48"/>
<line x1="751.968821" y1="221.192147" x2="751.968821" y2="335.240147" stroke="black" stroke-width="6.48"/>
<line x1="799.488821" y1="335.240147" x2="799.488821" y2="321.776147" stroke="black" stroke-width="6.48"/>
<line x1="799.488821" y1="321.776147" x2="829.584821" y2="321.776147" stroke="black" stroke-width="6.48"/>
<line x1="829.584821" y1="321.776147" x2="829.584821" y2="334.448147" stroke="black" stroke-width="6.48"/>
<circle cx="610.992821" cy="235.448147" r="7.128000000000001" fill="none" stroke="black" stroke-width="6.48"/>
<circle cx="861.264821" cy="236.240147" r="7.128000000000001" fill="none" stroke="black" stroke-width="6.48"/>
<line x1="2044.889399" y1="955.822399" x2="2267.166564" y2="955.822399" stroke="black" stroke-width="6.48"/>
<line x1="2267.166564" y1="955.822399" x2="2267.166564" y2="1178.555051" stroke="black" stroke-width="6.48"/>
<line x1="2267.166564" y1="1178.555051" x2="2044.889399" y2="1178.555051" stroke="black" stroke-width="6.48"/>
<line x1="2044.889399" y1="1178.555051" x2="2044.889399" y2="955.822399" stroke="black" stroke-width="6.48"/>
<line x1="2044.433912" y1="955.366913" x2="2267.166564" y2="1178.555051" stroke="black" stroke-width="6.48"/>
<line x1="2044.889399" y1="1178.099564" x2="2266.711078" y2="955.822399" stroke="black" stroke-width="6.48"/>
<line x1="333.766206" y1="1375.361078" x2="333.766206" y2="949.854546" stroke="black" stroke-width="6.48"/>
<line x1="333.766206" y1="949.854546" x2="257.659348" y2="949.854546" stroke="black" stroke-width="6.48"/>
<line x1="257.659348" y1="949.854546" x2="257.659348" y2="1375.361078" stroke="black" stroke-width="6.48"/>
<line x1="257.659348" y1="1375.361078" x2="333.766206" y2="1375.361078" stroke="black" stroke-width="6.48"/>
<line x1="333.766206" y1="1355.469512" x2="359.711726" y2="1355.469512" stroke="black" stroke-width="6.48"/>
<line x1="359.711726" y1="1355.469512" x2="359.711726" y2="970.610962" stroke="black" stroke-width="6.48"/>
<line x1="333.766206" y1="970.610962" x2="359.711726" y2="970.610962" stroke="black" stroke-width="6.48"/>
<line x1="3874.406537" y1="1514.726719" x2="3874.406537" y2="1940.260162" stroke="black" stroke-width="6.48"/>
<line x1="3874.406537" y1="1940.260162" x2="3940.00601" y2="1940.260162" stroke="black" stroke-width="6.48"/>
<line x1="3940.00601" y1="1940.260162" x2="3940.00601" y2="1514.726719" stroke="black" stroke-width="6.48"/>
<line x1="3940.00601" y1="1514.726719" x2="3874.406537" y2="1514.726719" stroke="black" stroke-width="6.48"/>
<line x1="3939.14286" y1="1554.431663" x2="3875.269687" y2="1554.431663" stroke="black" stroke-width="6.48"/>
<line x1="3939.14286" y1="1899.692064" x2="3872.680232" y2="1899.692064" stroke="black" stroke-width="6.48"/>
<line x1="3908.932574" y1="1553.568512" x2="3908.932574" y2="1898.828914" stroke="black" stroke-width="6.48"/>
<line x1="5135.38452" y1="1686.421332" x2="5254.120246" y2="1744.332613" stroke="black" stroke-width="6.48"/>
<line x1="5254.120246" y1="1744.332613" x2="5247.870826" y2="1757.145823" stroke="black" stroke-width="6.48"/>
<line x1="5129.135104" y1="1699.234535" x2="5247.870826" y2="1757.145823" stroke="black" stroke-width="6.48"/>
<line x1="5135.38452" y1="1686.421332" x2="5129.135104" y2="1699.234535" stroke="black" stroke-width="6.48"/>
<line x1="5141.094095" y1="1705.067327" x2="5125.636944" y2="1732.423129" stroke="black" stroke-width="6.48"/>
<line x1="5235.911834" y1="1751.313031" x2="5223.454913" y2="1781.189557" stroke="black" stroke-width="6.48"/>
<line x1="4933.319969" y1="2100.715052" x2="5052.055698" y2="2158.626334" stroke="black" stroke-width="6.48"/>
<line x1="5052.055698" y1="2158.626334" x2="5057.88849" y2="2146.667342" stroke="black" stroke-width="6.48"/>
<line x1="4939.152761" y1="2088.756058" x2="5057.88849" y2="2146.667342" stroke="black" stroke-width="6.48"/>
<line x1="4933.319969" y1="2100.715052" x2="4939.152761" y2="2088.756058" stroke="black" stroke-width="6.48"/>
<line x1="4951.090796" y1="2092.463795" x2="4963.13109" y2="2063.441484" stroke="black" stroke-width="6.48"/>
<line x1="5045.908532" y1="2138.709496" x2="5062.63653" y2="2110.91611" stroke="black" stroke-width="6.48"/>
<line x1="5328.968396" y1="1963.771618" x2="5316.15519" y2="1957.522198" stroke="black" stroke-width="6.48"/>
<line x1="5316.15519" y1="1957.522198" x2="5258.243905" y2="2076.257923" stroke="black" stroke-width="6.48"/>
<line x1="5271.057115" y1="2082.507343" x2="5258.243905" y2="2076.257923" stroke="black" stroke-width="6.48"/>
<line x1="5328.968396" y1="1963.771618" x2="5271.057115" y2="2082.507343" stroke="black" stroke-width="6.48"/>
<line x1="5264.493322" y1="2063.444717" x2="5234.200171" y2="2051.84201" stroke="black" stroke-width="6.48"/>
<line x1="5310.322398" y1="1969.481192" x2="5282.11238" y2="1953.607414" stroke="black" stroke-width="6.48"/>
<line x1="4915.945516" y1="1761.269479" x2="4928.758726" y2="1767.518899" stroke="black" stroke-width="6.48"/>
<line x1="4928.758726" y1="1767.518899" x2="4870.847441" y2="1886.254628" stroke="black" stroke-width="6.48"/>
<line x1="4858.034234" y1="1880.005205" x2="4870.847441" y2="1886.254628" stroke="black" stroke-width="6.48"/>
<line x1="4915.945516" y1="1761.269479" x2="4858.034234" y2="1880.005205" stroke="black" stroke-width="6.48"/>
<line x1="4877.096857" y1="1873.441418" x2="4904.890247" y2="1890.169409" stroke="black" stroke-width="6.48"/>
<line x1="4922.92593" y1="1779.477894" x2="4952.80246" y2="1791.934819" stroke="black" stroke-width="6.48"/>
<circle cx="5093.501314" cy="1921.888411" r="191.98080000000002" fill="none" stroke="black" stroke-width="6.48"/>
<line x1="3206.439173" y1="1074.653719" x2="3415.804376" y2="1074.653719" stroke="black" stroke-width="6.48"/>
<line x1="3415.804376" y1="1074.653719" x2="3415.804376" y2="743.439316" stroke="black" stroke-width="6.48"/>
<line x1="3415.804376" y1="743.439316" x2="3206.439173" y2="743.439316" stroke="black" stroke-width="6.48"/>
<line x1="3206.439173" y1="743.439316" x2="3206.439173" y2="1074.653719" stroke="black" stroke-width="6.48"/>
<line x1="3205.765973" y1="802.680916" x2="3416.477573" y2="802.680916" stroke="black" stroke-width="6.48"/>
<line x1="3416.477573" y1="802.680916" x2="3207.112373" y2="852.497719" stroke="black" stroke-width="6.48"/>
<line x1="3207.112373" y1="852.497719" x2="3238.752776" y2="898.948519" stroke="black" stroke-width="6.48"/>
<line x1="3238.752776" y1="898.948519" x2="3416.477573" y2="802.007719" stroke="black" stroke-width="6.48"/>
<line x1="3285.020542" y1="1203.640056" x2="3507.297707" y2="1203.640056" stroke="black" stroke-width="6.48"/>
<line x1="3507.297707" y1="1203.640056" x2="3507.297707" y2="1426.372708" stroke="black" stroke-width="6.48"/>
<line x1="3507.297707" y1="1426.372708" x2="3285.020542" y2="1426.372708" stroke="black" stroke-width="6.48"/>
<line x1="3285.020542" y1="1426.372708" x2="3285.020542" y2="1203.640056" stroke="black" stroke-width="6.48"/>
<line x1="3284.565055" y1="1203.18457" x2="3507.297707" y2="1426.372708" stroke="black" stroke-width="6.48"/>
<line x1="3285.020542" y1="1425.917221" x2="3506.84222" y2="1203.640056" stroke="black" stroke-width="6.48"/>
<line x1="2804.16708" y1="1127.69402" x2="2804.16708" y2="1153.148746" stroke="black" stroke-width="6.48"/>
<line x1="2804.16708" y1="1153.148746" x2="2853.834836" y2="1153.148746" stroke="black" stroke-width="6.48"/>
<line x1="2853.834836" y1="1153.148746" x2="2853.834836" y2="1127.69402" stroke="black" stroke-width="6.48"/>
<line x1="2853.834836" y1="1127.69402" x2="2804.16708" y2="1127.69402" stroke="black" stroke-width="6.48"/>
<line x1="2853.834836" y1="1402.108373" x2="3101.55277" y2="1402.108373" stroke="black" stroke-width="6.48"/>
<line x1="2802.925386" y1="1402.729218" x2="2802.925386" y2="1428.183943" stroke="black" stroke-width="6.48"/>
<line x1="2802.925386" y1="1428.183943" x2="2852.593142" y2="1428.183943" stroke="black" stroke-width="6.48"/>
<line x1="2852.593142" y1="1428.183943" x2="2852.593142" y2="1402.729218" stroke="black" stroke-width="6.48"/>
<line x1="2852.593142" y1="1402.729218" x2="2802.925386" y2="1402.729218" stroke="black" stroke-width="6.48"/>
<path d="m 2851.972294,1153.148746 a 248.95962699999984,248.95962699999984 0 0 1 248.95962699999973,248.95962699999995" fill="none" stroke="black" stroke-width="6.48"/>
<line x1="2930.787385" y1="2009.035357" x2="2859.58224" y2="2185.274495" stroke="black" stroke-width="6.48"/>
<line x1="2859.58224" y1="2185.274495" x2="3289.605736" y2="2359.015045" stroke="black" stroke-width="6.48"/>
<line x1="3289.605736" y1="2359.015045" x2="3360.810881" y2="2182.775908" stroke="black" stroke-width="6.48"/>
<line x1="3360.810881" y1="2182.775908" x2="3338.78099" y2="2173.875264" stroke="black" stroke-width="6.48"/>
<line x1="3338.78099" y1="2173.875264" x2="3276.120463" y2="2328.965708" stroke="black" stroke-width="6.48"/>
<line x1="3276.120463" y1="2328.965708" x2="2891.037946" y2="2173.382467" stroke="black" stroke-width="6.48"/>
<line x1="2891.037946" y1="2173.382467" x2="2953.698473" y2="2018.292026" stroke="black" stroke-width="6.48"/>
<line x1="2953.698473" y1="2018.292026" x2="2930.787385" y2="2009.035357" stroke="black" stroke-width="6.48"/>
<line x1="2951.562319" y1="2023.579199" x2="3336.644837" y2="2179.16244" stroke="black" stroke-width="6.48"/>
<line x1="3144.019003" y1="2100.311611" x2="3083.494633" y2="2250.11488" stroke="black" stroke-width="6.48"/>
<line x1="3698.851669" y1="1737.417316" x2="3611.981297" y2="1952.429022" stroke="black" stroke-width="6.48"/>
<line x1="3611.981297" y1="1952.429022" x2="3396.52899" y2="1865.38064" stroke="black" stroke-width="6.48"/>
<line x1="3396.52899" y1="1865.38064" x2="3483.399359" y2="1650.36893" stroke="black" stroke-width="6.48"/>
<line x1="3483.399359" y1="1650.36893" x2="3698.851669" y2="1737.417316" stroke="black" stroke-width="6.48"/>
<line x1="3699.470275" y1="1737.154728" x2="3396.52899" y2="1865.38064" stroke="black" stroke-width="6.48"/>
<line x1="3483.839956" y1="1650.546943" x2="3612.15931" y2="1951.988425" stroke="black" stroke-width="6.48"/>
<line x1="3020.26257" y1="1589.315879" x2="3017.570504" y2="1620.086342" stroke="black" stroke-width="6.48"/>
<line x1="3017.570504" y1="1620.086342" x2="3226.336254" y2="1638.350978" stroke="black" stroke-width="6.48"/>
<line x1="3226.336254" y1="1638.350978" x2="3229.028316" y2="1607.580515" stroke="black" stroke-width="6.48"/>
<line x1="3229.028316" y1="1607.580515" x2="3020.26257" y2="1589.315879" stroke="black" stroke-width="6.48"/>
<line x1="3002.494928" y1="1792.400929" x2="2999.802863" y2="1823.171389" stroke="black" stroke-width="6.48"/>
<line x1="2999.802863" y1="1823.171389" x2="3208.568612" y2="1841.436029" stroke="black" stroke-width="6.48"/>
<line x1="3208.568612" y1="1841.436029" x2="3211.260682" y2="1810.665565" stroke="black" stroke-width="6.48"/>
<line x1="3211.260682" y1="1810.665565" x2="3002.494928" y2="1792.400929" stroke="black" stroke-width="6.48"/>
<line x1="3017.611919" y1="1619.61295" x2="3002.494928" y2="1792.400929" stroke="black" stroke-width="6.48"/>
<line x1="3225.472301" y1="1637.321364" x2="3249.189529" y2="1666.109203" stroke="black" stroke-width="6.48"/>
<line x1="3238.628342" y1="1786.82409" x2="3210.272478" y2="1811.056122" stroke="black" stroke-width="6.48"/>
<line x1="3249.35519" y1="1664.215632" x2="3238.462678" y2="1788.717658" stroke="black" stroke-width="6.48"/>
<line x1="3062.069323" y1="1623.979487" x2="3046.952336" y2="1796.767463" stroke="black" stroke-width="6.48"/>
<line x1="5786.526168" y1="1545.87262" x2="5782.22739" y2="1576.46002" stroke="black" stroke-width="6.48"/>
<line x1="5782.22739" y1="1576.46002" x2="5989.751136" y2="1605.625578" stroke="black" stroke-width="6.48"/>
<line x1="5989.751136" y1="1605.625578" x2="5994.049914" y2="1575.038182" stroke="black" stroke-width="6.48"/>
<line x1="5994.049914" y1="1575.038182" x2="5786.526168" y2="1545.87262" stroke="black" stroke-width="6.48"/>
<line x1="5758.15423" y1="1747.74946" x2="5753.855448" y2="1778.33686" stroke="black" stroke-width="6.48"/>
<line x1="5753.855448" y1="1778.33686" x2="5961.379194" y2="1807.502422" stroke="black" stroke-width="6.48"/>
<line x1="5961.379194" y1="1807.502422" x2="5965.677972" y2="1776.915022" stroke="black" stroke-width="6.48"/>
<line x1="5965.677972" y1="1776.915022" x2="5758.15423" y2="1747.74946" stroke="black" stroke-width="6.48"/>
<line x1="5782.293522" y1="1575.989446" x2="5758.15423" y2="1747.74946" stroke="black" stroke-width="6.48"/>
<line x1="5988.942252" y1="1604.552162" x2="6011.120336" y2="1634.541808" stroke="black" stroke-width="6.48"/>
<line x1="5994.255895" y1="1754.53853" x2="5964.670688" y2="1777.253324" stroke="black" stroke-width="6.48"/>
<line x1="6011.384875" y1="1632.659508" x2="5993.991356" y2="1756.420834" stroke="black" stroke-width="6.48"/>
<line x1="5826.461472" y1="1582.676716" x2="5802.32218" y2="1754.43673" stroke="black" stroke-width="6.48"/>
<line x1="1217.453242" y1="1610.536273" x2="1049.622538" y2="1699.773386" stroke="black" stroke-width="6.48"/>
<line x1="1049.622538" y1="1699.773386" x2="1267.361096" y2="2109.280291" stroke="black" stroke-width="6.48"/>
<line x1="1267.361096" y1="2109.280291" x2="1435.1918" y2="2020.043182" stroke="black" stroke-width="6.48"/>
<line x1="1435.1918" y1="2020.043182" x2="1424.037157" y2="1999.064347" stroke="black" stroke-width="6.48"/>
<line x1="1424.037157" y1="1999.064347" x2="1276.346138" y2="2077.593005" stroke="black" stroke-width="6.48"/>
<line x1="1276.346138" y1="2077.593005" x2="1081.363046" y2="1710.882925" stroke="black" stroke-width="6.48"/>
<line x1="1081.363046" y1="1710.882925" x2="1229.054065" y2="1632.354264" stroke="black" stroke-width="6.48"/>
<line x1="1229.054065" y1="1632.354264" x2="1217.453242" y2="1610.536273" stroke="black" stroke-width="6.48"/>
<line x1="1224.019141" y1="1635.031379" x2="1419.002237" y2="2001.741458" stroke="black" stroke-width="6.48"/>
<line x1="1322.126752" y1="1817.520653" x2="1179.470653" y2="1893.372203" stroke="black" stroke-width="6.48"/>
<line x1="572.293894" y1="1022.298397" x2="864.224964" y2="1285.154309" stroke="black" stroke-width="6.48"/>
<line x1="864.224964" y1="1285.154309" x2="987.70365" y2="1148.017342" stroke="black" stroke-width="6.48"/>
<line x1="987.70365" y1="1148.017342" x2="695.77258" y2="885.161423" stroke="black" stroke-width="6.48"/>
<line x1="695.77258" y1="885.161423" x2="572.293894" y2="1022.298397" stroke="black" stroke-width="6.48"/>
<line x1="814.07529" y1="991.681664" x2="868.130341" y2="931.647449" stroke="black" stroke-width="6.48"/>
<line x1="868.130341" y1="931.647449" x2="809.861839" y2="879.182258" stroke="black" stroke-width="6.48"/>
<line x1="809.861839" y1="879.182258" x2="755.806792" y2="939.21647" stroke="black" stroke-width="6.48"/>
<line x1="798.791476" y1="892.660766" x2="856.471406" y2="944.596008" stroke="black" stroke-width="6.48"/>
<line x1="577.743109" y1="1136.976228" x2="636.011608" y2="1189.441418" stroke="black" stroke-width="6.48"/>
<line x1="636.011608" y1="1189.441418" x2="690.596604" y2="1128.818639" stroke="black" stroke-width="6.48"/>
<line x1="632.328109" y1="1076.353445" x2="577.743109" y2="1136.976228" stroke="black" stroke-width="6.48"/>
<line x1="589.990612" y1="1124.557621" x2="647.670539" y2="1176.492863" stroke="black" stroke-width="6.48"/>
<line x1="926.492296" y1="1092.902389" x2="980.547343" y2="1032.868174" stroke="black" stroke-width="6.48"/>
<line x1="980.547343" y1="1032.868174" x2="922.278841" y2="980.402983" stroke="black" stroke-width="6.48"/>
<line x1="922.278841" y1="980.402983" x2="868.223797" y2="1040.437195" stroke="black" stroke-width="6.48"/>
<line x1="910.619914" y1="993.351539" x2="968.888408" y2="1045.816733" stroke="black" stroke-width="6.48"/>
<line x1="690.160111" y1="1238.196949" x2="748.428613" y2="1290.662143" stroke="black" stroke-width="6.48"/>
<line x1="748.428613" y1="1290.662143" x2="803.01361" y2="1230.039364" stroke="black" stroke-width="6.48"/>
<line x1="744.745111" y1="1177.57417" x2="690.160111" y2="1238.196949" stroke="black" stroke-width="6.48"/>
<line x1="701.819042" y1="1225.248397" x2="760.087544" y2="1277.713588" stroke="black" stroke-width="6.48"/>
<line x1="2321.012354" y1="2047.232977" x2="2551.63959" y2="2071.472933" stroke="black" stroke-width="6.48"/>
<line x1="2551.63959" y1="2071.472933" x2="2527.349962" y2="2302.572766" stroke="black" stroke-width="6.48"/>
<line x1="2527.349962" y1="2302.572766" x2="2296.722726" y2="2278.332806" stroke="black" stroke-width="6.48"/>
<line x1="2296.722726" y1="2278.332806" x2="2321.012354" y2="2047.232977" stroke="black" stroke-width="6.48"/>
<line x1="2320.58943" y1="2046.710707" x2="2527.349962" y2="2302.572766" stroke="black" stroke-width="6.48"/>
<line x1="2296.772399" y1="2277.860209" x2="2551.166993" y2="2071.42326" stroke="black" stroke-width="6.48"/>
<line x1="6474.466472" y1="2035.059908" x2="6285.427751" y2="2015.191138" stroke="black" stroke-width="6.48"/>
<line x1="6285.427751" y1="2015.191138" x2="6236.947951" y2="2476.44562" stroke="black" stroke-width="6.48"/>
<line x1="6236.947951" y1="2476.44562" x2="6425.986673" y2="2496.314387" stroke="black" stroke-width="6.48"/>
<line x1="6425.986673" y1="2496.314387" x2="6428.47027" y2="2472.684548" stroke="black" stroke-width="6.48"/>
<line x1="6428.47027" y1="2472.684548" x2="6262.116192" y2="2455.200032" stroke="black" stroke-width="6.48"/>
<line x1="6262.116192" y1="2455.200032" x2="6305.52946" y2="2042.150422" stroke="black" stroke-width="6.48"/>
<line x1="6305.52946" y1="2042.150422" x2="6471.883534" y2="2059.634941" stroke="black" stroke-width="6.48"/>
<line x1="6471.883534" y1="2059.634941" x2="6474.466472" y2="2035.059908" stroke="black" stroke-width="6.48"/>
<line x1="6466.212371" y1="2059.038878" x2="6422.799107" y2="2472.088486" stroke="black" stroke-width="6.48"/>
<line x1="6445.500606" y1="2265.19043" x2="6284.817691" y2="2248.301977" stroke="black" stroke-width="6.48"/>
<line x1="3787.263227" y1="1160.959424" x2="3794.211515" y2="1130.863079" stroke="black" stroke-width="6.48"/>
<line x1="3794.211515" y1="1130.863079" x2="3590.019407" y2="1083.721615" stroke="black" stroke-width="6.48"/>
<line x1="3590.019407" y1="1083.721615" x2="3583.071119" y2="1113.817961" stroke="black" stroke-width="6.48"/>
<line x1="3583.071119" y1="1113.817961" x2="3787.263227" y2="1160.959424" stroke="black" stroke-width="6.48"/>
<line x1="3833.121928" y1="962.32356" x2="3840.070216" y2="932.227218" stroke="black" stroke-width="6.48"/>
<line x1="3840.070216" y1="932.227218" x2="3635.878111" y2="885.085754" stroke="black" stroke-width="6.48"/>
<line x1="3635.878111" y1="885.085754" x2="3628.92982" y2="915.182096" stroke="black" stroke-width="6.48"/>
<line x1="3628.92982" y1="915.182096" x2="3833.121928" y2="962.32356" stroke="black" stroke-width="6.48"/>
<line x1="3794.10462" y1="1131.3261" x2="3833.121928" y2="962.32356" stroke="black" stroke-width="6.48"/>
<line x1="3590.731656" y1="1084.861454" x2="3571.251739" y2="1053.052974" stroke="black" stroke-width="6.48"/>
<line x1="3598.510406" y1="934.982708" x2="3629.962757" y2="914.932872" stroke="black" stroke-width="6.48"/>
<line x1="3570.824149" y1="1054.905055" x2="3598.937993" y2="933.130624" stroke="black" stroke-width="6.48"/>
<line x1="3750.687576" y1="1120.814784" x2="3789.704884" y2="951.812244" stroke="black" stroke-width="6.48"/>
</g>
</svg>
