<?xml version="1.0"?>
<svg xmlns:xlink="http://www.w3.org/1999/xlink" width="6775.2" height="2858.4">
<image x="0" y="0" width="6775.2" height="2858.4" xlink:href="groundfilled-01.png"/>
<g style="stroke-linecap:round">
<line x1="1285.950406" y1="795.178109" x2="1311.346069" y2="795.178109" stroke="black" stroke-width="6.48"/>
<line x1="1311.346069" y1="795.178109" x2="1311.346069" y2="745.625592" stroke="black" stroke-width="6.48"/>
<line x1="1311.346069" y1="745.625592" x2="1285.950406" y2="745.625592" stroke="black" stroke-width="6.48"/>
<line x1="1285.950406" y1="745.625592" x2="1285.950406" y2="795.178109" stroke="black" stroke-width="6.48"/>
<line x1="1559.728062" y1="745.625592" x2="1559.728062" y2="498.48241" stroke="black" stroke-width="6.48"/>
<line x1="1560.347471" y1="796.416923" x2="1585.743134" y2="796.416923" stroke="black" stroke-width="6.48"/>
<line x1="1585.743134" y1="796.416923" x2="1585.743134" y2="746.864406" stroke="black" stroke-width="6.48"/>
<line x1="1585.743134" y1="746.864406" x2="1560.347471" y2="746.864406" stroke="black" stroke-width="6.48"/>
<line x1="1560.347471" y1="746.864406" x2="1560.347471" y2="796.416923" stroke="black" stroke-width="6.48"/>
<path d="m 1311.346069,747.483811 a 248.38199299999997,248.38199299999997 0 0 1 248.38199299999997,-248.38199299999997" fill="none" stroke="black" stroke-width="6.48"/>
<line x1="320.532556" y1="771.34176" x2="320.532556" y2="366.736194" stroke="black" stroke-width="6.48"/>
<line x1="320.532556" y1="366.736194" x2="258.159283" y2="366.736194" stroke="black" stroke-width="6.48"/>
<line x1="258.159283" y1="366.736194" x2="258.159283" y2="771.34176" stroke="black" stroke-width="6.48"/>
<line x1="258.159283" y1="771.34176" x2="320.532556" y2="771.34176" stroke="black" stroke-width="6.48"/>
<line x1="258.979986" y1="733.589518" x2="319.711856" y2="733.589518" stroke="black" stroke-width="6.48"/>
<line x1="258.979986" y1="405.309139" x2="322.173958" y2="405.309139" stroke="black" stroke-width="6.48"/>
<line x1="287.704519" y1="734.410217" x2="287.704519" y2="406.129838" stroke="black" stroke-width="6.48"/>
<line x1="3901.945176" y1="1169.331426" x2="3901.945176" y2="1428.837066" stroke="black" stroke-width="6.48"/>
<line x1="3901.945176" y1="1428.837066" x2="3941.9501" y2="1428.837066" stroke="black" stroke-width="6.48"/>
<line x1="3941.9501" y1="1428.837066" x2="3941.9501" y2="1169.331426" stroke="black" stroke-width="6.48"/>
<line x1="3941.9501" y1="1169.331426" x2="3901.945176" y2="1169.331426" stroke="black" stroke-width="6.48"/>
<line x1="3941.423719" y1="1193.544936" x2="3902.471557" y2="1193.544936" stroke="black" stroke-width="6.48"/>
<line x1="3941.423719" y1="1404.097178" x2="3900.892414" y2="1404.097178" stroke="black" stroke-width="6.48"/>
<line x1="3923.000399" y1="1193.018555" x2="3923.000399" y2="1403.570797" stroke="black" stroke-width="6.48"/>
<line x1="334.430687" y1="1882.943946" x2="334.430687" y2="1457.437414" stroke="black" stroke-width="6.48"/>
<line x1="334.430687" y1="1457.437414" x2="258.323828" y2="1457.437414" stroke="black" stroke-width="6.48"/>
<line x1="258.323828" y1="1457.437414" x2="258.323828" y2="1882.943946" stroke="black" stroke-width="6.48"/>
<line x1="258.323828" y1="1882.943946" x2="334.430687" y2="1882.943946" stroke="black" stroke-width="6.48"/>
<line x1="334.430687" y1="1863.05238" x2="360.376207" y2="1863.05238" stroke="black" stroke-width="6.48"/>
<line x1="360.376207" y1="1863.05238" x2="360.376207" y2="1478.193829" stroke="black" stroke-width="6.48"/>
<line x1="334.430687" y1="1478.193829" x2="360.376207" y2="1478.193829" stroke="black" stroke-width="6.48"/>
<line x1="2747.905531" y1="904.670665" x2="2721.68303" y2="904.670665" stroke="black" stroke-width="6.48"/>
<line x1="2721.68303" y1="904.670665" x2="2721.68303" y2="955.836522" stroke="black" stroke-width="6.48"/>
<line x1="2721.68303" y1="955.836522" x2="2747.905531" y2="955.836522" stroke="black" stroke-width="6.48"/>
<line x1="2747.905531" y1="955.836522" x2="2747.905531" y2="904.670665" stroke="black" stroke-width="6.48"/>
<line x1="2465.214181" y1="955.836522" x2="2465.214181" y2="1211.026223" stroke="black" stroke-width="6.48"/>
<line x1="2464.574609" y1="903.39152" x2="2438.352108" y2="903.39152" stroke="black" stroke-width="6.48"/>
<line x1="2438.352108" y1="903.39152" x2="2438.352108" y2="954.557374" stroke="black" stroke-width="6.48"/>
<line x1="2438.352108" y1="954.557374" x2="2464.574609" y2="954.557374" stroke="black" stroke-width="6.48"/>
<line x1="2464.574609" y1="954.557374" x2="2464.574609" y2="903.39152" stroke="black" stroke-width="6.48"/>
<path d="m 2721.68303,953.917801 a 256.4688490000001,256.4688490000001 0 0 1 -256.4688490000003,256.46884899999986" fill="none" stroke="black" stroke-width="6.48"/>
<line x1="2420.532389" y1="1427.858834" x2="2395.136725" y2="1427.858834" stroke="black" stroke-width="6.48"/>
<line x1="2395.136725" y1="1427.858834" x2="2395.136725" y2="1477.411351" stroke="black" stroke-width="6.48"/>
<line x1="2395.136725" y1="1477.411351" x2="2420.532389" y2="1477.411351" stroke="black" stroke-width="6.48"/>
<line x1="2420.532389" y1="1477.411351" x2="2420.532389" y2="1427.858834" stroke="black" stroke-width="6.48"/>
<line x1="2146.754732" y1="1477.411351" x2="2146.754732" y2="1724.554534" stroke="black" stroke-width="6.48"/>
<line x1="2146.135324" y1="1426.62002" x2="2120.73966" y2="1426.62002" stroke="black" stroke-width="6.48"/>
<line x1="2120.73966" y1="1426.62002" x2="2120.73966" y2="1476.172537" stroke="black" stroke-width="6.48"/>
<line x1="2120.73966" y1="1476.172537" x2="2146.135324" y2="1476.172537" stroke="black" stroke-width="6.48"/>
<line x1="2146.135324" y1="1476.172537" x2="2146.135324" y2="1426.62002" stroke="black" stroke-width="6.48"/>
<path d="m 2395.136725,1475.553132 a 248.38199299999997,248.38199299999997 0 0 1 -248.38199299999997,248.38199299999997" fill="none" stroke="black" stroke-width="6.48"/>
<line x1="548.458574" y1="692.136151" x2="941.290574" y2="692.136151" stroke="black" stroke-width="6.48"/>
<line x1="941.290574" y1="692.136151" x2="941.290574" y2="507.600151" stroke="black" stroke-width="6.48"/>
<line x1="941.290574" y1="507.600151" x2="548.458574" y2="507.600151" stroke="black" stroke-width="6.48"/>
<line x1="548.458574" y1="507.600151" x2="548.458574" y2="692.136151" stroke="black" stroke-width="6.48"/>
<line x1="707.650574" y1="507.600151" x2="707.650574" y2="426.816151" stroke="black" stroke-width="6.48"/>
<line x1="707.650574" y1="426.816151" x2="629.242574" y2="426.816151" stroke="black" stroke-width="6.48"/>
<line x1="629.242574" y1="426.816151" x2="629.242574" y2="507.600151" stroke="black" stroke-width="6.48"/>
<line x1="630.034574" y1="444.240151" x2="707.650574" y2="444.240151" stroke="black" stroke-width="6.48"/>
<line x1="629.242574" y1="773.712151" x2="707.650574" y2="773.712151" stroke="black" stroke-width="6.48"/>
<line x1="707.650574" y1="773.712151" x2="707.650574" y2="692.136151" stroke="black" stroke-width="6.48"/>
<line x1="629.242574" y1="692.136151" x2="629.242574" y2="773.712151" stroke="black" stroke-width="6.48"/>
<line x1="630.034574" y1="756.288151" x2="707.650574" y2="756.288151" stroke="black" stroke-width="6.48"/>
<line x1="858.922574" y1="507.600151" x2="858.922574" y2="426.816151" stroke="black" stroke-width="6.48"/>
<line x1="858.922574" y1="426.816151" x2="780.514574" y2="426.816151" stroke="black" stroke-width="6.48"/>
<line x1="780.514574" y1="426.816151" x2="780.514574" y2="507.600151" stroke="black" stroke-width="6.48"/>
<line x1="780.514574" y1="444.240151" x2="858.922574" y2="444.240151" stroke="black" stroke-width="6.48"/>
<line x1="780.514574" y1="773.712151" x2="858.922574" y2="773.712151" stroke="black" stroke-width="6.48"/>
<line x1="858.922574" y1="773.712151" x2="858.922574" y2="692.136151" stroke="black" stroke-width="6.48"/>
<line x1="780.514574" y1="692.136151" x2="780.514574" y2="773.712151" stroke="black" stroke-width="6.48"/>
<line x1="780.514574" y1="756.288151" x2="858.922574" y2="756.288151" stroke="black" stroke-width="6.48"/>
<line x1="1842.844367" y1="1925.295048" x2="2032.924367" y2="1925.295048" stroke="black" stroke-width="6.48"/>
<line x1="2032.924367" y1="1925.295048" x2="2032.924367" y2="1461.499848" stroke="black" stroke-width="6.48"/>
<line x1="2032.924367" y1="1461.499848" x2="1842.844367" y2="1461.499848" stroke="black" stroke-width="6.48"/>
<line x1="1842.844367" y1="1461.499848" x2="1842.844367" y2="1485.259848" stroke="black" stroke-width="6.48"/>
<line x1="1842.844367" y1="1485.259848" x2="2010.114767" y2="1485.259848" stroke="black" stroke-width="6.48"/>
<line x1="2010.114767" y1="1485.259848" x2="2010.114767" y2="1900.584648" stroke="black" stroke-width="6.48"/>
<line x1="2010.114767" y1="1900.584648" x2="1842.844367" y2="1900.584648" stroke="black" stroke-width="6.48"/>
<line x1="1842.844367" y1="1900.584648" x2="1842.844367" y2="1925.295048" stroke="black" stroke-width="6.48"/>
<line x1="1848.546767" y1="1900.584648" x2="1848.546767" y2="1485.259848" stroke="black" stroke-width="6.48"/>
<line x1="1847.596367" y1="1693.397448" x2="2009.164367" y2="1693.397448" stroke="black" stroke-width="6.48"/>
<line x1="1485.415969" y1="209.267824" x2="1707.693134" y2="209.267824" stroke="black" stroke-width="6.48"/>
<line x1="1707.693134" y1="209.267824" x2="1707.693134" y2="432.000475" stroke="black" stroke-width="6.48"/>
<line x1="1707.693134" y1="432.000475" x2="1485.415969" y2="432.000475" stroke="black" stroke-width="6.48"/>
<line x1="1485.415969" y1="432.000475" x2="1485.415969" y2="209.267824" stroke="black" stroke-width="6.48"/>
<line x1="1484.960483" y1="208.812337" x2="1707.693134" y2="432.000475" stroke="black" stroke-width="6.48"/>
<line x1="1485.415969" y1="431.544989" x2="1707.237648" y2="209.267824" stroke="black" stroke-width="6.48"/>
<line x1="2586.780558" y1="1803.366338" x2="2586.780558" y2="2194.614338" stroke="black" stroke-width="6.48"/>
<line x1="2586.780558" y1="2194.614338" x2="2761.020558" y2="2194.614338" stroke="black" stroke-width="6.48"/>
<line x1="2761.020558" y1="2194.614338" x2="2761.020558" y2="1803.366338" stroke="black" stroke-width="6.48"/>
<line x1="2761.020558" y1="1803.366338" x2="2586.780558" y2="1803.366338" stroke="black" stroke-width="6.48"/>
<line x1="2734.092558" y1="2119.374338" x2="2734.092558" y2="1835.046338" stroke="black" stroke-width="6.48"/>
<line x1="2734.092558" y1="1835.046338" x2="2616.084558" y2="1835.046338" stroke="black" stroke-width="6.48"/>
<line x1="2616.084558" y1="1835.046338" x2="2616.084558" y2="2124.918338" stroke="black" stroke-width="6.48"/>
<path d="m 2734.347982,2118.563766 a 63.35999941905905,63.35999941905905 0 0 1 -119.37432999999965,4.2938139999996565" fill="none" stroke="black" stroke-width="6.48"/>
<line x1="2105.551177" y1="1874.088832" x2="2105.551177" y2="2057.832832" stroke="black" stroke-width="6.48"/>
<line x1="2105.551177" y1="2057.832832" x2="2056.447177" y2="2057.832832" stroke="black" stroke-width="6.48"/>
<line x1="2056.447177" y1="1874.088832" x2="2056.447177" y2="2057.832832" stroke="black" stroke-width="6.48"/>
<line x1="2105.551177" y1="1874.088832" x2="2056.447177" y2="1874.088832" stroke="black" stroke-width="6.48"/>
<line x1="2133.271177" y1="1915.668832" x2="2105.551177" y2="1915.668832" stroke="black" stroke-width="6.48"/>
<line x1="2105.551177" y1="2014.668832" x2="2134.855177" y2="2014.668832" stroke="black" stroke-width="6.48"/>
<circle cx="2178.415177" cy="1964.376832" r="66.52800000000002" fill="none" stroke="black" stroke-width="6.48"/>
<circle cx="2178.415177" cy="1964.376832" r="57.02400000000001" fill="none" stroke="black" stroke-width="6.48"/>
<line x1="784.895677" y1="209.670084" x2="1055.442877" y2="209.670084" stroke="black" stroke-width="6.48"/>
<line x1="1055.442877" y1="209.670084" x2="1055.442877" y2="341.617284" stroke="black" stroke-width="6.48"/>
<line x1="784.895677" y1="341.617284" x2="1055.442877" y2="341.617284" stroke="black" stroke-width="6.48"/>
<line x1="784.895677" y1="209.670084" x2="784.895677" y2="341.617284" stroke="black" stroke-width="6.48"/>
<line x1="791.548477" y1="216.322884" x2="929.594077" y2="216.322884" stroke="black" stroke-width="6.48"/>
<line x1="929.594077" y1="216.322884" x2="929.594077" y2="334.410084" stroke="black" stroke-width="6.48"/>
<line x1="791.548477" y1="334.410084" x2="929.594077" y2="334.410084" stroke="black" stroke-width="6.48"/>
<line x1="791.548477" y1="216.322884" x2="791.548477" y2="334.410084" stroke="black" stroke-width="6.48"/>
<line x1="944.008477" y1="224.084484" x2="1041.028477" y2="224.084484" stroke="black" stroke-width="6.48"/>
<line x1="944.008477" y1="244.597284" x2="1041.028477" y2="244.597284" stroke="black" stroke-width="6.48"/>
<line x1="944.562877" y1="265.664484" x2="1041.582877" y2="265.664484" stroke="black" stroke-width="6.48"/>
<line x1="944.562877" y1="286.177284" x2="1041.582877" y2="286.177284" stroke="black" stroke-width="6.48"/>
<line x1="944.008477" y1="306.690084" x2="1041.028477" y2="306.690084" stroke="black" stroke-width="6.48"/>
<line x1="944.008477" y1="327.202884" x2="1041.028477" y2="327.202884" stroke="black" stroke-width="6.48"/>
<line x1="844.216477" y1="334.410084" x2="844.216477" y2="320.550084" stroke="black" stroke-width="6.48"/>
<line x1="844.216477" y1="320.550084" x2="878.589277" y2="320.550084" stroke="black" stroke-width="6.48"/>
<line x1="878.589277" y1="320.550084" x2="878.589277" y2="333.855684" stroke="black" stroke-width="6.48"/>
<circle cx="914.070877" cy="231.291684" r="8.316000000000003" fill="none" stroke="black" stroke-width="6.48"/>
<line x1="1102.277084" y1="1166.651352" x2="1020.602718" y2="1550.899033" stroke="black" stroke-width="6.48"/>
<line x1="1020.602718" y1="1550.899033" x2="1201.106164" y2="1589.266224" stroke="black" stroke-width="6.48"/>
<line x1="1201.106164" y1="1589.266224" x2="1282.78053" y2="1205.018546" stroke="black" stroke-width="6.48"/>
<line x1="1282.78053" y1="1205.018546" x2="1102.277084" y2="1166.651352" stroke="black" stroke-width="6.48"/>
<line x1="1249.682652" y1="1360.73182" x2="1328.701327" y2="1377.527756" stroke="black" stroke-width="6.48"/>
<line x1="1328.701327" y1="1377.527756" x2="1345.003268" y2="1300.833162" stroke="black" stroke-width="6.48"/>
<line x1="1345.003268" y1="1300.833162" x2="1265.984593" y2="1284.037222" stroke="black" stroke-width="6.48"/>
<line x1="1327.795358" y1="1297.985202" x2="1311.658085" y2="1373.905105" stroke="black" stroke-width="6.48"/>
<line x1="1005.687778" y1="1228.709426" x2="989.385836" y2="1305.404024" stroke="black" stroke-width="6.48"/>
<line x1="989.385836" y1="1305.404024" x2="1069.179206" y2="1322.364629" stroke="black" stroke-width="6.48"/>
<line x1="1085.481144" y1="1245.670031" x2="1005.687778" y2="1228.709426" stroke="black" stroke-width="6.48"/>
<line x1="1022.566356" y1="1233.106772" x2="1006.429082" y2="1309.026679" stroke="black" stroke-width="6.48"/>
<line x1="1218.231439" y1="1508.698163" x2="1297.250114" y2="1525.494103" stroke="black" stroke-width="6.48"/>
<line x1="1297.250114" y1="1525.494103" x2="1313.552052" y2="1448.799505" stroke="black" stroke-width="6.48"/>
<line x1="1313.552052" y1="1448.799505" x2="1234.533377" y2="1432.003568" stroke="black" stroke-width="6.48"/>
<line x1="1296.50881" y1="1445.17685" x2="1280.206868" y2="1521.871448" stroke="black" stroke-width="6.48"/>
<line x1="974.236561" y1="1376.67577" x2="957.934624" y2="1453.370371" stroke="black" stroke-width="6.48"/>
<line x1="957.934624" y1="1453.370371" x2="1037.72799" y2="1470.330972" stroke="black" stroke-width="6.48"/>
<line x1="1054.029931" y1="1393.636374" x2="974.236561" y2="1376.67577" stroke="black" stroke-width="6.48"/>
<line x1="991.279807" y1="1380.298421" x2="974.977866" y2="1456.993022" stroke="black" stroke-width="6.48"/>
<line x1="2044.889399" y1="955.822399" x2="2267.166564" y2="955.822399" stroke="black" stroke-width="6.48"/>
<line x1="2267.166564" y1="955.822399" x2="2267.166564" y2="1178.555051" stroke="black" stroke-width="6.48"/>
<line x1="2267.166564" y1="1178.555051" x2="2044.889399" y2="1178.555051" stroke="black" stroke-width="6.48"/>
<line x1="2044.889399" y1="1178.555051" x2="2044.889399" y2="955.822399" stroke="black" stroke-width="6.48"/>
<line x1="2044.433912" y1="955.366913" x2="2267.166564" y2="1178.555051" stroke="black" stroke-width="6.48"/>
<line x1="2044.889399" y1="1178.099564" x2="2266.711078" y2="955.822399" stroke="black" stroke-width="6.48"/>
<line x1="333.766206" y1="1375.361078" x2="333.766206" y2="949.854546" stroke="black" stroke-width="6.48"/>
<line x1="333.766206" y1="949.854546" x2="257.659348" y2="949.854546" stroke="black" stroke-width="6.48"/>
<line x1="257.659348" y1="949.854546" x2="257.659348" y2="1375.361078" stroke="black" stroke-width="6.48"/>
<line x1="257.659348" y1="1375.361078" x2="333.766206" y2="1375.361078" stroke="black" stroke-width="6.48"/>
<line x1="333.766206" y1="1355.469512" x2="359.711726" y2="1355.469512" stroke="black" stroke-width="6.48"/>
<line x1="359.711726" y1="1355.469512" x2="359.711726" y2="970.610962" stroke="black" stroke-width="6.48"/>
<line x1="333.766206" y1="970.610962" x2="359.711726" y2="970.610962" stroke="black" stroke-width="6.48"/>
<line x1="3874.406537" y1="1514.726719" x2="3874.406537" y2="1940.260162" stroke="black" stroke-width="6.48"/>
<line x1="3874.406537" y1="1940.260162" x2="3940.00601" y2="1940.260162" stroke="black" stroke-width="6.48"/>
<line x1="3940.00601" y1="1940.260162" x2="3940.00601" y2="1514.726719" stroke="black" stroke-width="6.48"/>
<line x1="3940.00601" y1="1514.726719" x2="3874.406537" y2="1514.726719" stroke="black" stroke-width="6.48"/>
<line x1="3939.14286" y1="1554.431663" x2="3875.269687" y2="1554.431663" stroke="black" stroke-width="6.48"/>
<line x1="3939.14286" y1="1899.692064" x2="3872.680232" y2="1899.692064" stroke="black" stroke-width="6.48"/>
<line x1="3908.932574" y1="1553.568512" x2="3908.932574" y2="1898.828914" stroke="black" stroke-width="6.48"/>
<line x1="4858.052609" y1="1950.781471" x2="4769.656708" y2="1852.607876" stroke="black" stroke-width="6.48"/>
<line x1="4769.656708" y1="1852.607876" x2="4780.250978" y2="1843.068748" stroke="black" stroke-width="6.48"/>
<line x1="4868.64688" y1="1941.242346" x2="4780.250978" y2="1843.068748" stroke="black" stroke-width="6.48"/>
<line x1="4858.052609" y1="1950.781471" x2="4868.64688" y2="1941.242346" stroke="black" stroke-width="6.48"/>
<line x1="4859.743694" y1="1931.354356" x2="4884.322979" y2="1911.780846" stroke="black" stroke-width="6.48"/>
<line x1="4789.154164" y1="1852.956738" x2="4811.895965" y2="1829.922152" stroke="black" stroke-width="6.48"/>
<line x1="5200.600756" y1="1642.349729" x2="5112.204858" y2="1544.176138" stroke="black" stroke-width="6.48"/>
<line x1="5112.204858" y1="1544.176138" x2="5102.316868" y2="1553.079323" stroke="black" stroke-width="6.48"/>
<line x1="5190.712769" y1="1651.252914" x2="5102.316868" y2="1553.079323" stroke="black" stroke-width="6.48"/>
<line x1="5200.600756" y1="1642.349729" x2="5190.712769" y2="1651.252914" stroke="black" stroke-width="6.48"/>
<line x1="5181.032956" y1="1643.343095" x2="5158.997442" y2="1665.741744" stroke="black" stroke-width="6.48"/>
<line x1="5110.443425" y1="1564.945477" x2="5084.521916" y2="1584.448643" stroke="black" stroke-width="6.48"/>
<line x1="4782.462008" y1="1621.108966" x2="4792.001134" y2="1631.703236" stroke="black" stroke-width="6.48"/>
<line x1="4792.001134" y1="1631.703236" x2="4890.174725" y2="1543.307339" stroke="black" stroke-width="6.48"/>
<line x1="4880.6356" y1="1532.713064" x2="4890.174725" y2="1543.307339" stroke="black" stroke-width="6.48"/>
<line x1="4782.462008" y1="1621.108966" x2="4880.6356" y2="1532.713064" stroke="black" stroke-width="6.48"/>
<line x1="4879.580454" y1="1552.846464" x2="4903.321327" y2="1574.952325" stroke="black" stroke-width="6.48"/>
<line x1="4801.88912" y1="1622.800055" x2="4822.098574" y2="1648.085623" stroke="black" stroke-width="6.48"/>
<line x1="5089.55152" y1="1963.586772" x2="5080.012394" y2="1952.992498" stroke="black" stroke-width="6.48"/>
<line x1="5080.012394" y1="1952.992498" x2="5178.185986" y2="1864.596596" stroke="black" stroke-width="6.48"/>
<line x1="5187.725111" y1="1875.190871" x2="5178.185986" y2="1864.596596" stroke="black" stroke-width="6.48"/>
<line x1="5089.55152" y1="1963.586772" x2="5187.725111" y2="1875.190871" stroke="black" stroke-width="6.48"/>
<line x1="5167.591715" y1="1874.135725" x2="5148.088549" y2="1848.214213" stroke="black" stroke-width="6.48"/>
<line x1="5089.900378" y1="1944.089316" x2="5066.865792" y2="1921.347511" stroke="black" stroke-width="6.48"/>
<circle cx="4985.093556" cy="1748.149916" r="191.98080000000002" fill="none" stroke="black" stroke-width="6.48"/>
<line x1="3475.270433" y1="1075.54095" x2="3684.635636" y2="1075.54095" stroke="black" stroke-width="6.48"/>
<line x1="3684.635636" y1="1075.54095" x2="3684.635636" y2="744.326546" stroke="black" stroke-width="6.48"/>
<line x1="3684.635636" y1="744.326546" x2="3475.270433" y2="744.326546" stroke="black" stroke-width="6.48"/>
<line x1="3475.270433" y1="744.326546" x2="3475.270433" y2="1075.54095" stroke="black" stroke-width="6.48"/>
<line x1="3474.597233" y1="803.568146" x2="3685.308833" y2="803.568146" stroke="black" stroke-width="6.48"/>
<line x1="3685.308833" y1="803.568146" x2="3475.943633" y2="853.38495" stroke="black" stroke-width="6.48"/>
<line x1="3475.943633" y1="853.38495" x2="3507.584036" y2="899.83575" stroke="black" stroke-width="6.48"/>
<line x1="3507.584036" y1="899.83575" x2="3685.308833" y2="802.89495" stroke="black" stroke-width="6.48"/>
<line x1="3425.744866" y1="1203.070324" x2="3648.022031" y2="1203.070324" stroke="black" stroke-width="6.48"/>
<line x1="3648.022031" y1="1203.070324" x2="3648.022031" y2="1425.802975" stroke="black" stroke-width="6.48"/>
<line x1="3648.022031" y1="1425.802975" x2="3425.744866" y2="1425.802975" stroke="black" stroke-width="6.48"/>
<line x1="3425.744866" y1="1425.802975" x2="3425.744866" y2="1203.070324" stroke="black" stroke-width="6.48"/>
<line x1="3425.289379" y1="1202.614837" x2="3648.022031" y2="1425.802975" stroke="black" stroke-width="6.48"/>
<line x1="3425.744866" y1="1425.347489" x2="3647.566544" y2="1203.070324" stroke="black" stroke-width="6.48"/>
<line x1="2804.16708" y1="1127.69402" x2="2804.16708" y2="1153.148746" stroke="black" stroke-width="6.48"/>
<line x1="2804.16708" y1="1153.148746" x2="2853.834836" y2="1153.148746" stroke="black" stroke-width="6.48"/>
<line x1="2853.834836" y1="1153.148746" x2="2853.834836" y2="1127.69402" stroke="black" stroke-width="6.48"/>
<line x1="2853.834836" y1="1127.69402" x2="2804.16708" y2="1127.69402" stroke="black" stroke-width="6.48"/>
<line x1="2853.834836" y1="1402.108373" x2="3101.55277" y2="1402.108373" stroke="black" stroke-width="6.48"/>
<line x1="2802.925386" y1="1402.729218" x2="2802.925386" y2="1428.183943" stroke="black" stroke-width="6.48"/>
<line x1="2802.925386" y1="1428.183943" x2="2852.593142" y2="1428.183943" stroke="black" stroke-width="6.48"/>
<line x1="2852.593142" y1="1428.183943" x2="2852.593142" y2="1402.729218" stroke="black" stroke-width="6.48"/>
<line x1="2852.593142" y1="1402.729218" x2="2802.925386" y2="1402.729218" stroke="black" stroke-width="6.48"/>
<path d="m 2851.972294,1153.148746 a 248.95962699999984,248.95962699999984 0 0 1 248.95962699999973,248.95962699999995" fill="none" stroke="black" stroke-width="6.48"/>
<line x1="2918.741821" y1="2003.222668" x2="2847.536676" y2="2179.461805" stroke="black" stroke-width="6.48"/>
<line x1="2847.536676" y1="2179.461805" x2="3277.560172" y2="2353.202356" stroke="black" stroke-width="6.48"/>
<line x1="3277.560172" y1="2353.202356" x2="3348.765317" y2="2176.963218" stroke="black" stroke-width="6.48"/>
<line x1="3348.765317" y1="2176.963218" x2="3326.735426" y2="2168.062574" stroke="black" stroke-width="6.48"/>
<line x1="3326.735426" y1="2168.062574" x2="3264.074899" y2="2323.153019" stroke="black" stroke-width="6.48"/>
<line x1="3264.074899" y1="2323.153019" x2="2878.992382" y2="2167.569778" stroke="black" stroke-width="6.48"/>
<line x1="2878.992382" y1="2167.569778" x2="2941.652909" y2="2012.479337" stroke="black" stroke-width="6.48"/>
<line x1="2941.652909" y1="2012.479337" x2="2918.741821" y2="2003.222668" stroke="black" stroke-width="6.48"/>
<line x1="2939.516755" y1="2017.766509" x2="3324.599273" y2="2173.34975" stroke="black" stroke-width="6.48"/>
<line x1="3131.973439" y1="2094.498922" x2="3071.449069" y2="2244.30219" stroke="black" stroke-width="6.48"/>
<line x1="3533.526133" y1="1964.569345" x2="3384.465232" y2="1786.92548" stroke="black" stroke-width="6.48"/>
<line x1="3384.465232" y1="1786.92548" x2="3562.473125" y2="1637.559122" stroke="black" stroke-width="6.48"/>
<line x1="3562.473125" y1="1637.559122" x2="3711.534026" y2="1815.202991" stroke="black" stroke-width="6.48"/>
<line x1="3711.534026" y1="1815.202991" x2="3533.526133" y2="1964.569345" stroke="black" stroke-width="6.48"/>
<line x1="3533.467565" y1="1965.238823" x2="3562.473125" y2="1637.559122" stroke="black" stroke-width="6.48"/>
<line x1="3711.170005" y1="1815.508444" x2="3384.770681" y2="1787.289505" stroke="black" stroke-width="6.48"/>
<line x1="3089.601562" y1="1589.315879" x2="3074.626764" y2="1616.331136" stroke="black" stroke-width="6.48"/>
<line x1="3074.626764" y1="1616.331136" x2="3257.914867" y2="1717.929389" stroke="black" stroke-width="6.48"/>
<line x1="3257.914867" y1="1717.929389" x2="3272.889668" y2="1690.914139" stroke="black" stroke-width="6.48"/>
<line x1="3272.889668" y1="1690.914139" x2="3089.601562" y2="1589.315879" stroke="black" stroke-width="6.48"/>
<line x1="2990.767882" y1="1767.616553" x2="2975.793084" y2="1794.63181" stroke="black" stroke-width="6.48"/>
<line x1="2975.793084" y1="1794.63181" x2="3159.081187" y2="1896.230063" stroke="black" stroke-width="6.48"/>
<line x1="3159.081187" y1="1896.230063" x2="3174.055988" y2="1869.21481" stroke="black" stroke-width="6.48"/>
<line x1="3174.055988" y1="1869.21481" x2="2990.767882" y2="1767.616553" stroke="black" stroke-width="6.48"/>
<line x1="3074.857146" y1="1615.915516" x2="2990.767882" y2="1767.616553" stroke="black" stroke-width="6.48"/>
<line x1="3257.544391" y1="1716.637388" x2="3267.502088" y2="1752.583054" stroke="black" stroke-width="6.48"/>
<line x1="3208.754794" y1="1858.56597" x2="3172.99437" y2="1869.169666" stroke="black" stroke-width="6.48"/>
<line x1="3268.423613" y1="1750.920577" x2="3207.833273" y2="1860.22845" stroke="black" stroke-width="6.48"/>
<line x1="3113.694976" y1="1637.987" x2="3029.605718" y2="1789.688038" stroke="black" stroke-width="6.48"/>
<line x1="5795.631616" y1="1586.65185" x2="5794.553642" y2="1617.521036" stroke="black" stroke-width="6.48"/>
<line x1="5794.553642" y1="1617.521036" x2="6003.989179" y2="1624.834685" stroke="black" stroke-width="6.48"/>
<line x1="6003.989179" y1="1624.834685" x2="6005.067156" y2="1593.965502" stroke="black" stroke-width="6.48"/>
<line x1="6005.067156" y1="1593.965502" x2="5795.631616" y2="1586.65185" stroke="black" stroke-width="6.48"/>
<line x1="5788.516979" y1="1790.388464" x2="5787.439002" y2="1821.257651" stroke="black" stroke-width="6.48"/>
<line x1="5787.439002" y1="1821.257651" x2="5996.874539" y2="1828.571299" stroke="black" stroke-width="6.48"/>
<line x1="5996.874539" y1="1828.571299" x2="5997.952516" y2="1797.702113" stroke="black" stroke-width="6.48"/>
<line x1="5997.952516" y1="1797.702113" x2="5788.516979" y2="1790.388464" stroke="black" stroke-width="6.48"/>
<line x1="5794.570224" y1="1617.046124" x2="5788.516979" y2="1790.388464" stroke="black" stroke-width="6.48"/>
<line x1="6003.072526" y1="1623.851694" x2="6028.263889" y2="1651.358822" stroke="black" stroke-width="6.48"/>
<line x1="6024.034908" y1="1772.461004" x2="5996.986114" y2="1798.143854" stroke="black" stroke-width="6.48"/>
<line x1="6028.330226" y1="1649.459178" x2="6023.968571" y2="1774.360642" stroke="black" stroke-width="6.48"/>
<line x1="5839.19523" y1="1619.079955" x2="5833.141981" y2="1792.422295" stroke="black" stroke-width="6.48"/>
<line x1="1427.947747" y1="1955.99929" x2="1506.273437" y2="2149.862328" stroke="black" stroke-width="6.48"/>
<line x1="1506.273437" y1="2149.862328" x2="1721.285172" y2="2062.99201" stroke="black" stroke-width="6.48"/>
<line x1="1721.285172" y1="2062.99201" x2="1642.959479" y2="1869.128971" stroke="black" stroke-width="6.48"/>
<line x1="1642.959479" y1="1869.128971" x2="1427.947747" y2="1955.99929" stroke="black" stroke-width="6.48"/>
<line x1="1457.908394" y1="1943.894408" x2="1536.234091" y2="2137.757447" stroke="black" stroke-width="6.48"/>
<line x1="1102.343026" y1="210.44624" x2="1372.890226" y2="210.44624" stroke="black" stroke-width="6.48"/>
<line x1="1372.890226" y1="210.44624" x2="1372.890226" y2="342.39344" stroke="black" stroke-width="6.48"/>
<line x1="1102.343026" y1="342.39344" x2="1372.890226" y2="342.39344" stroke="black" stroke-width="6.48"/>
<line x1="1102.343026" y1="210.44624" x2="1102.343026" y2="342.39344" stroke="black" stroke-width="6.48"/>
<line x1="1108.995826" y1="217.09904" x2="1247.041426" y2="217.09904" stroke="black" stroke-width="6.48"/>
<line x1="1247.041426" y1="217.09904" x2="1247.041426" y2="335.18624" stroke="black" stroke-width="6.48"/>
<line x1="1108.995826" y1="335.18624" x2="1247.041426" y2="335.18624" stroke="black" stroke-width="6.48"/>
<line x1="1108.995826" y1="217.09904" x2="1108.995826" y2="335.18624" stroke="black" stroke-width="6.48"/>
<line x1="1261.455826" y1="224.86064" x2="1358.475826" y2="224.86064" stroke="black" stroke-width="6.48"/>
<line x1="1261.455826" y1="245.37344" x2="1358.475826" y2="245.37344" stroke="black" stroke-width="6.48"/>
<line x1="1262.010226" y1="266.44064" x2="1359.030226" y2="266.44064" stroke="black" stroke-width="6.48"/>
<line x1="1262.010226" y1="286.95344" x2="1359.030226" y2="286.95344" stroke="black" stroke-width="6.48"/>
<line x1="1261.455826" y1="307.46624" x2="1358.475826" y2="307.46624" stroke="black" stroke-width="6.48"/>
<line x1="1261.455826" y1="327.97904" x2="1358.475826" y2="327.97904" stroke="black" stroke-width="6.48"/>
<line x1="1161.663826" y1="335.18624" x2="1161.663826" y2="321.32624" stroke="black" stroke-width="6.48"/>
<line x1="1161.663826" y1="321.32624" x2="1196.036626" y2="321.32624" stroke="black" stroke-width="6.48"/>
<line x1="1196.036626" y1="321.32624" x2="1196.036626" y2="334.63184" stroke="black" stroke-width="6.48"/>
<circle cx="1231.518226" cy="232.06784" r="8.316000000000003" fill="none" stroke="black" stroke-width="6.48"/>
</g>
</svg>
