<?xml version="1.0"?>
<svg xmlns:xlink="http://www.w3.org/1999/xlink" width="6775.2" height="2858.4">
<image x="0" y="0" width="6775.2" height="2858.4" xlink:href="groundfilled-01.png"/>
<g style="stroke-linecap:round">
<line x1="1285.950406" y1="795.178109" x2="1311.346069" y2="795.178109" stroke="black" stroke-width="6.48"/>
<line x1="1311.346069" y1="795.178109" x2="1311.346069" y2="745.625592" stroke="black" stroke-width="6.48"/>
<line x1="1311.346069" y1="745.625592" x2="1285.950406" y2="745.625592" stroke="black" stroke-width="6.48"/>
<line x1="1285.950406" y1="745.625592" x2="1285.950406" y2="795.178109" stroke="black" stroke-width="6.48"/>
<line x1="1559.728062" y1="745.625592" x2="1559.728062" y2="498.48241" stroke="black" stroke-width="6.48"/>
<line x1="1560.347471" y1="796.416923" x2="1585.743134" y2="796.416923" stroke="black" stroke-width="6.48"/>
<line x1="1585.743134" y1="796.416923" x2="1585.743134" y2="746.864406" stroke="black" stroke-width="6.48"/>
<line x1="1585.743134" y1="746.864406" x2="1560.347471" y2="746.864406" stroke="black" stroke-width="6.48"/>
<line x1="1560.347471" y1="746.864406" x2="1560.347471" y2="796.416923" stroke="black" stroke-width="6.48"/>
<path d="m 1311.346069,747.483811 a 248.38199299999997,248.38199299999997 0 0 1 248.38199299999997,-248.38199299999997" fill="none" stroke="black" stroke-width="6.48"/>
<line x1="330.523178" y1="771.328966" x2="330.523178" y2="366.748985" stroke="black" stroke-width="6.48"/>
<line x1="330.523178" y1="366.748985" x2="258.15928" y2="366.748985" stroke="black" stroke-width="6.48"/>
<line x1="258.15928" y1="366.748985" x2="258.15928" y2="771.328966" stroke="black" stroke-width="6.48"/>
<line x1="258.15928" y1="771.328966" x2="330.523178" y2="771.328966" stroke="black" stroke-width="6.48"/>
<line x1="330.523178" y1="752.415674" x2="355.19269" y2="752.415674" stroke="black" stroke-width="6.48"/>
<line x1="355.19269" y1="752.415674" x2="355.19269" y2="386.484595" stroke="black" stroke-width="6.48"/>
<line x1="330.523178" y1="386.484595" x2="355.19269" y2="386.484595" stroke="black" stroke-width="6.48"/>
<line x1="3901.945176" y1="1169.331426" x2="3901.945176" y2="1428.837066" stroke="black" stroke-width="6.48"/>
<line x1="3901.945176" y1="1428.837066" x2="3941.9501" y2="1428.837066" stroke="black" stroke-width="6.48"/>
<line x1="3941.9501" y1="1428.837066" x2="3941.9501" y2="1169.331426" stroke="black" stroke-width="6.48"/>
<line x1="3941.9501" y1="1169.331426" x2="3901.945176" y2="1169.331426" stroke="black" stroke-width="6.48"/>
<line x1="3941.423719" y1="1193.544936" x2="3902.471557" y2="1193.544936" stroke="black" stroke-width="6.48"/>
<line x1="3941.423719" y1="1404.097178" x2="3900.892414" y2="1404.097178" stroke="black" stroke-width="6.48"/>
<line x1="3923.000399" y1="1193.018555" x2="3923.000399" y2="1403.570797" stroke="black" stroke-width="6.48"/>
<line x1="323.923298" y1="1882.957399" x2="323.923298" y2="1457.423957" stroke="black" stroke-width="6.48"/>
<line x1="323.923298" y1="1457.423957" x2="258.323825" y2="1457.423957" stroke="black" stroke-width="6.48"/>
<line x1="258.323825" y1="1457.423957" x2="258.323825" y2="1882.957399" stroke="black" stroke-width="6.48"/>
<line x1="258.323825" y1="1882.957399" x2="323.923298" y2="1882.957399" stroke="black" stroke-width="6.48"/>
<line x1="259.186975" y1="1843.252456" x2="323.060148" y2="1843.252456" stroke="black" stroke-width="6.48"/>
<line x1="259.186975" y1="1497.992054" x2="325.649603" y2="1497.992054" stroke="black" stroke-width="6.48"/>
<line x1="289.397261" y1="1844.115606" x2="289.397261" y2="1498.855205" stroke="black" stroke-width="6.48"/>
<line x1="2747.905531" y1="904.670665" x2="2721.68303" y2="904.670665" stroke="black" stroke-width="6.48"/>
<line x1="2721.68303" y1="904.670665" x2="2721.68303" y2="955.836522" stroke="black" stroke-width="6.48"/>
<line x1="2721.68303" y1="955.836522" x2="2747.905531" y2="955.836522" stroke="black" stroke-width="6.48"/>
<line x1="2747.905531" y1="955.836522" x2="2747.905531" y2="904.670665" stroke="black" stroke-width="6.48"/>
<line x1="2465.214181" y1="955.836522" x2="2465.214181" y2="1211.026223" stroke="black" stroke-width="6.48"/>
<line x1="2464.574609" y1="903.39152" x2="2438.352108" y2="903.39152" stroke="black" stroke-width="6.48"/>
<line x1="2438.352108" y1="903.39152" x2="2438.352108" y2="954.557374" stroke="black" stroke-width="6.48"/>
<line x1="2438.352108" y1="954.557374" x2="2464.574609" y2="954.557374" stroke="black" stroke-width="6.48"/>
<line x1="2464.574609" y1="954.557374" x2="2464.574609" y2="903.39152" stroke="black" stroke-width="6.48"/>
<path d="m 2721.68303,953.917801 a 256.4688490000001,256.4688490000001 0 0 1 -256.4688490000003,256.46884899999986" fill="none" stroke="black" stroke-width="6.48"/>
<line x1="2420.532389" y1="1427.858834" x2="2395.136725" y2="1427.858834" stroke="black" stroke-width="6.48"/>
<line x1="2395.136725" y1="1427.858834" x2="2395.136725" y2="1477.411351" stroke="black" stroke-width="6.48"/>
<line x1="2395.136725" y1="1477.411351" x2="2420.532389" y2="1477.411351" stroke="black" stroke-width="6.48"/>
<line x1="2420.532389" y1="1477.411351" x2="2420.532389" y2="1427.858834" stroke="black" stroke-width="6.48"/>
<line x1="2146.754732" y1="1477.411351" x2="2146.754732" y2="1724.554534" stroke="black" stroke-width="6.48"/>
<line x1="2146.135324" y1="1426.62002" x2="2120.73966" y2="1426.62002" stroke="black" stroke-width="6.48"/>
<line x1="2120.73966" y1="1426.62002" x2="2120.73966" y2="1476.172537" stroke="black" stroke-width="6.48"/>
<line x1="2120.73966" y1="1476.172537" x2="2146.135324" y2="1476.172537" stroke="black" stroke-width="6.48"/>
<line x1="2146.135324" y1="1476.172537" x2="2146.135324" y2="1426.62002" stroke="black" stroke-width="6.48"/>
<path d="m 2395.136725,1475.553132 a 248.38199299999997,248.38199299999997 0 0 1 -248.38199299999997,248.38199299999997" fill="none" stroke="black" stroke-width="6.48"/>
<line x1="687.526106" y1="692.136151" x2="1080.358106" y2="692.136151" stroke="black" stroke-width="6.48"/>
<line x1="1080.358106" y1="692.136151" x2="1080.358106" y2="507.600151" stroke="black" stroke-width="6.48"/>
<line x1="1080.358106" y1="507.600151" x2="687.526106" y2="507.600151" stroke="black" stroke-width="6.48"/>
<line x1="687.526106" y1="507.600151" x2="687.526106" y2="692.136151" stroke="black" stroke-width="6.48"/>
<line x1="846.718106" y1="507.600151" x2="846.718106" y2="426.816151" stroke="black" stroke-width="6.48"/>
<line x1="846.718106" y1="426.816151" x2="768.310106" y2="426.816151" stroke="black" stroke-width="6.48"/>
<line x1="768.310106" y1="426.816151" x2="768.310106" y2="507.600151" stroke="black" stroke-width="6.48"/>
<line x1="769.102106" y1="444.240151" x2="846.718106" y2="444.240151" stroke="black" stroke-width="6.48"/>
<line x1="768.310106" y1="773.712151" x2="846.718106" y2="773.712151" stroke="black" stroke-width="6.48"/>
<line x1="846.718106" y1="773.712151" x2="846.718106" y2="692.136151" stroke="black" stroke-width="6.48"/>
<line x1="768.310106" y1="692.136151" x2="768.310106" y2="773.712151" stroke="black" stroke-width="6.48"/>
<line x1="769.102106" y1="756.288151" x2="846.718106" y2="756.288151" stroke="black" stroke-width="6.48"/>
<line x1="997.990106" y1="507.600151" x2="997.990106" y2="426.816151" stroke="black" stroke-width="6.48"/>
<line x1="997.990106" y1="426.816151" x2="919.582106" y2="426.816151" stroke="black" stroke-width="6.48"/>
<line x1="919.582106" y1="426.816151" x2="919.582106" y2="507.600151" stroke="black" stroke-width="6.48"/>
<line x1="919.582106" y1="444.240151" x2="997.990106" y2="444.240151" stroke="black" stroke-width="6.48"/>
<line x1="919.582106" y1="773.712151" x2="997.990106" y2="773.712151" stroke="black" stroke-width="6.48"/>
<line x1="997.990106" y1="773.712151" x2="997.990106" y2="692.136151" stroke="black" stroke-width="6.48"/>
<line x1="919.582106" y1="692.136151" x2="919.582106" y2="773.712151" stroke="black" stroke-width="6.48"/>
<line x1="919.582106" y1="756.288151" x2="997.990106" y2="756.288151" stroke="black" stroke-width="6.48"/>
<line x1="2032.924367" y1="1939.19332" x2="2032.924367" y2="1908.30532" stroke="black" stroke-width="6.48"/>
<line x1="2032.924367" y1="1908.30532" x2="1823.361167" y2="1908.30532" stroke="black" stroke-width="6.48"/>
<line x1="1823.361167" y1="1908.30532" x2="1823.361167" y2="1939.19332" stroke="black" stroke-width="6.48"/>
<line x1="1823.361167" y1="1939.19332" x2="2032.924367" y2="1939.19332" stroke="black" stroke-width="6.48"/>
<line x1="2032.924367" y1="1735.33252" x2="2032.924367" y2="1704.44452" stroke="black" stroke-width="6.48"/>
<line x1="2032.924367" y1="1704.44452" x2="1823.361167" y2="1704.44452" stroke="black" stroke-width="6.48"/>
<line x1="1823.361167" y1="1704.44452" x2="1823.361167" y2="1735.33252" stroke="black" stroke-width="6.48"/>
<line x1="1823.361167" y1="1735.33252" x2="2032.924367" y2="1735.33252" stroke="black" stroke-width="6.48"/>
<line x1="2032.924367" y1="1908.78052" x2="2032.924367" y2="1735.33252" stroke="black" stroke-width="6.48"/>
<line x1="1824.311567" y1="1909.25572" x2="1798.175567" y2="1882.64452" stroke="black" stroke-width="6.48"/>
<line x1="1798.175567" y1="1761.46852" x2="1824.311567" y2="1734.85732" stroke="black" stroke-width="6.48"/>
<line x1="1798.175567" y1="1884.54532" x2="1798.175567" y2="1759.56772" stroke="black" stroke-width="6.48"/>
<line x1="1988.255567" y1="1908.30532" x2="1988.255567" y2="1734.85732" stroke="black" stroke-width="6.48"/>
<line x1="1485.415969" y1="209.267824" x2="1707.693134" y2="209.267824" stroke="black" stroke-width="6.48"/>
<line x1="1707.693134" y1="209.267824" x2="1707.693134" y2="432.000475" stroke="black" stroke-width="6.48"/>
<line x1="1707.693134" y1="432.000475" x2="1485.415969" y2="432.000475" stroke="black" stroke-width="6.48"/>
<line x1="1485.415969" y1="432.000475" x2="1485.415969" y2="209.267824" stroke="black" stroke-width="6.48"/>
<line x1="1484.960483" y1="208.812337" x2="1707.693134" y2="432.000475" stroke="black" stroke-width="6.48"/>
<line x1="1485.415969" y1="431.544989" x2="1707.237648" y2="209.267824" stroke="black" stroke-width="6.48"/>
<line x1="2761.020558" y1="2194.614338" x2="2761.020558" y2="1803.366338" stroke="black" stroke-width="6.48"/>
<line x1="2761.020558" y1="1803.366338" x2="2586.780558" y2="1803.366338" stroke="black" stroke-width="6.48"/>
<line x1="2586.780558" y1="1803.366338" x2="2586.780558" y2="2194.614338" stroke="black" stroke-width="6.48"/>
<line x1="2586.780558" y1="2194.614338" x2="2761.020558" y2="2194.614338" stroke="black" stroke-width="6.48"/>
<line x1="2613.708558" y1="1878.606338" x2="2613.708558" y2="2162.934338" stroke="black" stroke-width="6.48"/>
<line x1="2613.708558" y1="2162.934338" x2="2731.716558" y2="2162.934338" stroke="black" stroke-width="6.48"/>
<line x1="2731.716558" y1="2162.934338" x2="2731.716558" y2="1873.062338" stroke="black" stroke-width="6.48"/>
<path d="m 2613.453134,1879.416911 a 63.3599990854681,63.3599990854681 0 0 1 119.3743300000001,-4.293814000000111" fill="none" stroke="black" stroke-width="6.48"/>
<line x1="2081.175199" y1="1896.267776" x2="2056.623199" y2="1914.879776" stroke="black" stroke-width="6.48"/>
<line x1="2056.623199" y1="1914.879776" x2="2056.623199" y2="2062.191776" stroke="black" stroke-width="6.48"/>
<line x1="2056.623199" y1="2062.191776" x2="2084.739199" y2="2081.199776" stroke="black" stroke-width="6.48"/>
<line x1="2083.947199" y1="1918.047776" x2="2083.947199" y2="2061.003776" stroke="black" stroke-width="6.48"/>
<circle cx="2105.727199" cy="1987.347776" r="13.068000000000003" fill="none" stroke="black" stroke-width="6.48"/>
<path d="m 2083.279853,1919.601029 a 74.8440000678094,74.8440000678094 0 1 1 0.40204799999992247,139.6090039999999" fill="none" stroke="black" stroke-width="6.48"/>
<path d="m 2080.517836,1896.31408 a 95.43599858117884,95.43599858117884 0 1 1 3.0749580000001515,184.46699499999977" fill="none" stroke="black" stroke-width="6.48"/>
<line x1="505.12739" y1="210.14064" x2="898.371263" y2="210.14064" stroke="black" stroke-width="6.48"/>
<line x1="902.326669" y1="209.144358" x2="902.326669" y2="345.213133" stroke="black" stroke-width="6.48"/>
<line x1="505.59178" y1="346.36464" x2="902.63201" y2="346.36464" stroke="black" stroke-width="6.48"/>
<line x1="506.326669" y1="210.83539" x2="506.326669" y2="346.099446" stroke="black" stroke-width="6.48"/>
<line x1="516.622669" y1="221.22864" x2="640.174669" y2="221.22864" stroke="black" stroke-width="6.48"/>
<line x1="640.174669" y1="221.22864" x2="640.174669" y2="335.27664" stroke="black" stroke-width="6.48"/>
<line x1="516.622669" y1="335.27664" x2="640.174669" y2="335.27664" stroke="black" stroke-width="6.48"/>
<line x1="516.622669" y1="221.22864" x2="516.622669" y2="335.27664" stroke="black" stroke-width="6.48"/>
<line x1="659.182669" y1="228.35664" x2="746.302669" y2="228.35664" stroke="black" stroke-width="6.48"/>
<line x1="659.182669" y1="248.15664" x2="746.302669" y2="248.15664" stroke="black" stroke-width="6.48"/>
<line x1="659.974669" y1="268.74864" x2="746.302669" y2="268.74864" stroke="black" stroke-width="6.48"/>
<line x1="659.974669" y1="288.54864" x2="746.302669" y2="288.54864" stroke="black" stroke-width="6.48"/>
<line x1="659.182669" y1="308.34864" x2="746.302669" y2="308.34864" stroke="black" stroke-width="6.48"/>
<line x1="659.182669" y1="328.14864" x2="746.302669" y2="328.14864" stroke="black" stroke-width="6.48"/>
<line x1="564.142669" y1="334.48464" x2="564.142669" y2="321.02064" stroke="black" stroke-width="6.48"/>
<line x1="564.142669" y1="321.02064" x2="594.238669" y2="321.02064" stroke="black" stroke-width="6.48"/>
<line x1="594.238669" y1="321.02064" x2="594.238669" y2="333.69264" stroke="black" stroke-width="6.48"/>
<line x1="766.894669" y1="221.22864" x2="890.446669" y2="221.22864" stroke="black" stroke-width="6.48"/>
<line x1="890.446669" y1="221.22864" x2="890.446669" y2="335.27664" stroke="black" stroke-width="6.48"/>
<line x1="766.894669" y1="335.27664" x2="890.446669" y2="335.27664" stroke="black" stroke-width="6.48"/>
<line x1="766.894669" y1="221.22864" x2="766.894669" y2="335.27664" stroke="black" stroke-width="6.48"/>
<line x1="814.414669" y1="335.27664" x2="814.414669" y2="321.81264" stroke="black" stroke-width="6.48"/>
<line x1="814.414669" y1="321.81264" x2="844.510669" y2="321.81264" stroke="black" stroke-width="6.48"/>
<line x1="844.510669" y1="321.81264" x2="844.510669" y2="334.48464" stroke="black" stroke-width="6.48"/>
<circle cx="625.918669" cy="235.48464" r="7.128000000000001" fill="none" stroke="black" stroke-width="6.48"/>
<circle cx="876.190669" cy="236.27664" r="7.128000000000001" fill="none" stroke="black" stroke-width="6.48"/>
<line x1="816.317363" y1="1364.52497" x2="1208.91006" y2="1350.815332" stroke="black" stroke-width="6.48"/>
<line x1="1208.91006" y1="1350.815332" x2="1202.469844" y2="1166.391745" stroke="black" stroke-width="6.48"/>
<line x1="1202.469844" y1="1166.391745" x2="809.877146" y2="1180.101384" stroke="black" stroke-width="6.48"/>
<line x1="809.877146" y1="1180.101384" x2="816.317363" y2="1364.52497" stroke="black" stroke-width="6.48"/>
<line x1="968.972173" y1="1174.545666" x2="966.152851" y2="1093.810878" stroke="black" stroke-width="6.48"/>
<line x1="966.152851" y1="1093.810878" x2="887.792612" y2="1096.547278" stroke="black" stroke-width="6.48"/>
<line x1="887.792612" y1="1096.547278" x2="890.611934" y2="1177.282066" stroke="black" stroke-width="6.48"/>
<line x1="889.19222" y1="1113.933024" x2="966.760942" y2="1111.224262" stroke="black" stroke-width="6.48"/>
<line x1="899.89911" y1="1443.231954" x2="978.259349" y2="1440.495554" stroke="black" stroke-width="6.48"/>
<line x1="978.259349" y1="1440.495554" x2="975.412386" y2="1358.969249" stroke="black" stroke-width="6.48"/>
<line x1="897.052151" y1="1361.705648" x2="899.89911" y2="1443.231954" stroke="black" stroke-width="6.48"/>
<line x1="900.082541" y1="1425.790933" x2="977.651258" y2="1423.082171" stroke="black" stroke-width="6.48"/>
<line x1="1120.15202" y1="1169.266349" x2="1117.332698" y2="1088.531561" stroke="black" stroke-width="6.48"/>
<line x1="1117.332698" y1="1088.531561" x2="1038.972463" y2="1091.26796" stroke="black" stroke-width="6.48"/>
<line x1="1038.972463" y1="1091.26796" x2="1041.791785" y2="1172.002748" stroke="black" stroke-width="6.48"/>
<line x1="1039.580554" y1="1108.681348" x2="1117.940789" y2="1105.944948" stroke="black" stroke-width="6.48"/>
<line x1="1051.078961" y1="1437.952637" x2="1129.439196" y2="1435.216237" stroke="black" stroke-width="6.48"/>
<line x1="1129.439196" y1="1435.216237" x2="1126.592237" y2="1353.689932" stroke="black" stroke-width="6.48"/>
<line x1="1048.231998" y1="1356.426331" x2="1051.078961" y2="1437.952637" stroke="black" stroke-width="6.48"/>
<line x1="1050.47087" y1="1420.539253" x2="1128.831109" y2="1417.802854" stroke="black" stroke-width="6.48"/>
<line x1="2044.889399" y1="955.822399" x2="2267.166564" y2="955.822399" stroke="black" stroke-width="6.48"/>
<line x1="2267.166564" y1="955.822399" x2="2267.166564" y2="1178.555051" stroke="black" stroke-width="6.48"/>
<line x1="2267.166564" y1="1178.555051" x2="2044.889399" y2="1178.555051" stroke="black" stroke-width="6.48"/>
<line x1="2044.889399" y1="1178.555051" x2="2044.889399" y2="955.822399" stroke="black" stroke-width="6.48"/>
<line x1="2044.433912" y1="955.366913" x2="2267.166564" y2="1178.555051" stroke="black" stroke-width="6.48"/>
<line x1="2044.889399" y1="1178.099564" x2="2266.711078" y2="955.822399" stroke="black" stroke-width="6.48"/>
<line x1="333.766206" y1="1375.361078" x2="333.766206" y2="949.854546" stroke="black" stroke-width="6.48"/>
<line x1="333.766206" y1="949.854546" x2="257.659348" y2="949.854546" stroke="black" stroke-width="6.48"/>
<line x1="257.659348" y1="949.854546" x2="257.659348" y2="1375.361078" stroke="black" stroke-width="6.48"/>
<line x1="257.659348" y1="1375.361078" x2="333.766206" y2="1375.361078" stroke="black" stroke-width="6.48"/>
<line x1="333.766206" y1="1355.469512" x2="359.711726" y2="1355.469512" stroke="black" stroke-width="6.48"/>
<line x1="359.711726" y1="1355.469512" x2="359.711726" y2="970.610962" stroke="black" stroke-width="6.48"/>
<line x1="333.766206" y1="970.610962" x2="359.711726" y2="970.610962" stroke="black" stroke-width="6.48"/>
<line x1="3874.406537" y1="1514.726719" x2="3874.406537" y2="1940.260162" stroke="black" stroke-width="6.48"/>
<line x1="3874.406537" y1="1940.260162" x2="3940.00601" y2="1940.260162" stroke="black" stroke-width="6.48"/>
<line x1="3940.00601" y1="1940.260162" x2="3940.00601" y2="1514.726719" stroke="black" stroke-width="6.48"/>
<line x1="3940.00601" y1="1514.726719" x2="3874.406537" y2="1514.726719" stroke="black" stroke-width="6.48"/>
<line x1="3939.14286" y1="1554.431663" x2="3875.269687" y2="1554.431663" stroke="black" stroke-width="6.48"/>
<line x1="3939.14286" y1="1899.692064" x2="3872.680232" y2="1899.692064" stroke="black" stroke-width="6.48"/>
<line x1="3908.932574" y1="1553.568512" x2="3908.932574" y2="1898.828914" stroke="black" stroke-width="6.48"/>
<line x1="5009.646708" y1="1414.228748" x2="4636.041271" y2="1292.836982" stroke="black" stroke-width="6.48"/>
<line x1="4636.041271" y1="1292.836982" x2="4579.016512" y2="1468.341151" stroke="black" stroke-width="6.48"/>
<line x1="4579.016512" y1="1468.341151" x2="4952.621948" y2="1589.732914" stroke="black" stroke-width="6.48"/>
<line x1="4952.621948" y1="1589.732914" x2="5009.646708" y2="1414.228748" stroke="black" stroke-width="6.48"/>
<line x1="4801.22136" y1="1540.539878" x2="4776.257729" y2="1617.370027" stroke="black" stroke-width="6.48"/>
<line x1="4776.257729" y1="1617.370027" x2="4850.828168" y2="1641.599435" stroke="black" stroke-width="6.48"/>
<line x1="4850.828168" y1="1641.599435" x2="4875.7918" y2="1564.769282" stroke="black" stroke-width="6.48"/>
<line x1="4855.459244" y1="1624.783486" x2="4781.64204" y2="1600.79882" stroke="black" stroke-width="6.48"/>
<line x1="4958.024929" y1="1311.681733" x2="4883.45449" y2="1287.452329" stroke="black" stroke-width="6.48"/>
<line x1="4883.45449" y1="1287.452329" x2="4858.24612" y2="1365.035713" stroke="black" stroke-width="6.48"/>
<line x1="4932.816559" y1="1389.265117" x2="4958.024929" y2="1311.681733" stroke="black" stroke-width="6.48"/>
<line x1="4951.887379" y1="1328.008198" x2="4878.070175" y2="1304.023536" stroke="black" stroke-width="6.48"/>
<line x1="4657.353138" y1="1493.79426" x2="4632.389507" y2="1570.624409" stroke="black" stroke-width="6.48"/>
<line x1="4632.389507" y1="1570.624409" x2="4706.959946" y2="1594.853816" stroke="black" stroke-width="6.48"/>
<line x1="4706.959946" y1="1594.853816" x2="4731.923578" y2="1518.023668" stroke="black" stroke-width="6.48"/>
<line x1="4712.344258" y1="1578.282606" x2="4637.773822" y2="1554.053198" stroke="black" stroke-width="6.48"/>
<line x1="4814.156707" y1="1264.936115" x2="4739.586268" y2="1240.706707" stroke="black" stroke-width="6.48"/>
<line x1="4739.586268" y1="1240.706707" x2="4714.377898" y2="1318.290095" stroke="black" stroke-width="6.48"/>
<line x1="4788.948337" y1="1342.519499" x2="4814.156707" y2="1264.936115" stroke="black" stroke-width="6.48"/>
<line x1="4808.772392" y1="1281.507318" x2="4734.201953" y2="1257.277918" stroke="black" stroke-width="6.48"/>
<line x1="3400.725852" y1="1075.29493" x2="3610.091056" y2="1075.29493" stroke="black" stroke-width="6.48"/>
<line x1="3610.091056" y1="1075.29493" x2="3610.091056" y2="744.080526" stroke="black" stroke-width="6.48"/>
<line x1="3610.091056" y1="744.080526" x2="3400.725852" y2="744.080526" stroke="black" stroke-width="6.48"/>
<line x1="3400.725852" y1="744.080526" x2="3400.725852" y2="1075.29493" stroke="black" stroke-width="6.48"/>
<line x1="3400.052652" y1="803.322126" x2="3610.764252" y2="803.322126" stroke="black" stroke-width="6.48"/>
<line x1="3610.764252" y1="803.322126" x2="3401.399052" y2="853.13893" stroke="black" stroke-width="6.48"/>
<line x1="3401.399052" y1="853.13893" x2="3433.039456" y2="899.58973" stroke="black" stroke-width="6.48"/>
<line x1="3433.039456" y1="899.58973" x2="3610.764252" y2="802.64893" stroke="black" stroke-width="6.48"/>
<line x1="3474.579686" y1="1202.872612" x2="3696.856852" y2="1202.872612" stroke="black" stroke-width="6.48"/>
<line x1="3696.856852" y1="1202.872612" x2="3696.856852" y2="1425.605263" stroke="black" stroke-width="6.48"/>
<line x1="3696.856852" y1="1425.605263" x2="3474.579686" y2="1425.605263" stroke="black" stroke-width="6.48"/>
<line x1="3474.579686" y1="1425.605263" x2="3474.579686" y2="1202.872612" stroke="black" stroke-width="6.48"/>
<line x1="3474.1242" y1="1202.417125" x2="3696.856852" y2="1425.605263" stroke="black" stroke-width="6.48"/>
<line x1="3474.579686" y1="1425.149777" x2="3696.401365" y2="1202.872612" stroke="black" stroke-width="6.48"/>
<line x1="2804.16708" y1="1127.69402" x2="2804.16708" y2="1153.148746" stroke="black" stroke-width="6.48"/>
<line x1="2804.16708" y1="1153.148746" x2="2853.834836" y2="1153.148746" stroke="black" stroke-width="6.48"/>
<line x1="2853.834836" y1="1153.148746" x2="2853.834836" y2="1127.69402" stroke="black" stroke-width="6.48"/>
<line x1="2853.834836" y1="1127.69402" x2="2804.16708" y2="1127.69402" stroke="black" stroke-width="6.48"/>
<line x1="2853.834836" y1="1402.108373" x2="3101.55277" y2="1402.108373" stroke="black" stroke-width="6.48"/>
<line x1="2802.925386" y1="1402.729218" x2="2802.925386" y2="1428.183943" stroke="black" stroke-width="6.48"/>
<line x1="2802.925386" y1="1428.183943" x2="2852.593142" y2="1428.183943" stroke="black" stroke-width="6.48"/>
<line x1="2852.593142" y1="1428.183943" x2="2852.593142" y2="1402.729218" stroke="black" stroke-width="6.48"/>
<line x1="2852.593142" y1="1402.729218" x2="2802.925386" y2="1402.729218" stroke="black" stroke-width="6.48"/>
<path d="m 2851.972294,1153.148746 a 248.95962699999984,248.95962699999984 0 0 1 248.95962699999973,248.95962699999995" fill="none" stroke="black" stroke-width="6.48"/>
<line x1="2936.804764" y1="2011.939092" x2="2865.599618" y2="2188.17823" stroke="black" stroke-width="6.48"/>
<line x1="2865.599618" y1="2188.17823" x2="3295.623114" y2="2361.91878" stroke="black" stroke-width="6.48"/>
<line x1="3295.623114" y1="2361.91878" x2="3366.828259" y2="2185.679642" stroke="black" stroke-width="6.48"/>
<line x1="3366.828259" y1="2185.679642" x2="3344.798369" y2="2176.778999" stroke="black" stroke-width="6.48"/>
<line x1="3344.798369" y1="2176.778999" x2="3282.137842" y2="2331.869443" stroke="black" stroke-width="6.48"/>
<line x1="3282.137842" y1="2331.869443" x2="2897.055324" y2="2176.286202" stroke="black" stroke-width="6.48"/>
<line x1="2897.055324" y1="2176.286202" x2="2959.715851" y2="2021.195761" stroke="black" stroke-width="6.48"/>
<line x1="2959.715851" y1="2021.195761" x2="2936.804764" y2="2011.939092" stroke="black" stroke-width="6.48"/>
<line x1="2957.579698" y1="2026.482934" x2="3342.662215" y2="2182.066175" stroke="black" stroke-width="6.48"/>
<line x1="3150.036382" y1="2103.215346" x2="3089.512012" y2="2253.018614" stroke="black" stroke-width="6.48"/>
<line x1="3642.286601" y1="1667.311391" x2="3682.555196" y2="1895.685944" stroke="black" stroke-width="6.48"/>
<line x1="3682.555196" y1="1895.685944" x2="3453.712661" y2="1936.037059" stroke="black" stroke-width="6.48"/>
<line x1="3453.712661" y1="1936.037059" x2="3413.444065" y2="1707.662506" stroke="black" stroke-width="6.48"/>
<line x1="3413.444065" y1="1707.662506" x2="3642.286601" y2="1667.311391" stroke="black" stroke-width="6.48"/>
<line x1="3642.672064" y1="1666.760893" x2="3453.712661" y2="1936.037059" stroke="black" stroke-width="6.48"/>
<line x1="3413.912047" y1="1707.579986" x2="3682.472677" y2="1895.217966" stroke="black" stroke-width="6.48"/>
<line x1="3066.685171" y1="1589.315879" x2="3055.615902" y2="1618.152311" stroke="black" stroke-width="6.48"/>
<line x1="3055.615902" y1="1618.152311" x2="3251.260004" y2="1693.253045" stroke="black" stroke-width="6.48"/>
<line x1="3251.260004" y1="1693.253045" x2="3262.329274" y2="1664.416613" stroke="black" stroke-width="6.48"/>
<line x1="3262.329274" y1="1664.416613" x2="3066.685171" y2="1589.315879" stroke="black" stroke-width="6.48"/>
<line x1="2993.627995" y1="1779.63633" x2="2982.558726" y2="1808.472762" stroke="black" stroke-width="6.48"/>
<line x1="2982.558726" y1="1808.472762" x2="3178.202828" y2="1883.573496" stroke="black" stroke-width="6.48"/>
<line x1="3178.202828" y1="1883.573496" x2="3189.272098" y2="1854.737068" stroke="black" stroke-width="6.48"/>
<line x1="3189.272098" y1="1854.737068" x2="2993.627995" y2="1779.63633" stroke="black" stroke-width="6.48"/>
<line x1="3055.7862" y1="1617.708672" x2="2993.627995" y2="1779.63633" stroke="black" stroke-width="6.48"/>
<line x1="3250.713323" y1="1692.025175" x2="3265.57678" y2="1726.235176" stroke="black" stroke-width="6.48"/>
<line x1="3222.151186" y1="1839.362717" x2="3188.214526" y2="1854.84011" stroke="black" stroke-width="6.48"/>
<line x1="3266.257964" y1="1724.460631" x2="3221.469997" y2="1841.137268" stroke="black" stroke-width="6.48"/>
<line x1="3097.31782" y1="1634.160175" x2="3035.159615" y2="1796.087833" stroke="black" stroke-width="6.48"/>
<line x1="1265.19507" y1="1901.050808" x2="1274.73998" y2="1930.427046" stroke="black" stroke-width="6.48"/>
<line x1="1274.73998" y1="1930.427046" x2="1474.046446" y2="1865.668504" stroke="black" stroke-width="6.48"/>
<line x1="1474.046446" y1="1865.668504" x2="1464.501535" y2="1836.292266" stroke="black" stroke-width="6.48"/>
<line x1="1464.501535" y1="1836.292266" x2="1265.19507" y2="1901.050808" stroke="black" stroke-width="6.48"/>
<line x1="1328.191477" y1="2094.933967" x2="1337.736388" y2="2124.310201" stroke="black" stroke-width="6.48"/>
<line x1="1337.736388" y1="2124.310201" x2="1537.042846" y2="2059.551662" stroke="black" stroke-width="6.48"/>
<line x1="1537.042846" y1="2059.551662" x2="1527.497939" y2="2030.175421" stroke="black" stroke-width="6.48"/>
<line x1="1527.497939" y1="2030.175421" x2="1328.191477" y2="2094.933967" stroke="black" stroke-width="6.48"/>
<line x1="1274.59314" y1="1929.975102" x2="1328.191477" y2="2094.933967" stroke="black" stroke-width="6.48"/>
<line x1="1472.84887" y1="1865.058304" x2="1505.928992" y2="1882.290604" stroke="black" stroke-width="6.48"/>
<line x1="1543.374407" y1="1997.535838" x2="1526.740898" y2="2030.921057" stroke="black" stroke-width="6.48"/>
<line x1="1505.341616" y1="1880.482835" x2="1543.961786" y2="1999.343606" stroke="black" stroke-width="6.48"/>
<line x1="1317.22254" y1="1916.623634" x2="1370.820877" y2="2081.582496" stroke="black" stroke-width="6.48"/>
<line x1="2314.072069" y1="2046.160901" x2="2544.699305" y2="2070.400856" stroke="black" stroke-width="6.48"/>
<line x1="2544.699305" y1="2070.400856" x2="2520.409676" y2="2301.500689" stroke="black" stroke-width="6.48"/>
<line x1="2520.409676" y1="2301.500689" x2="2289.782441" y2="2277.26073" stroke="black" stroke-width="6.48"/>
<line x1="2289.782441" y1="2277.26073" x2="2314.072069" y2="2046.160901" stroke="black" stroke-width="6.48"/>
<line x1="2313.649145" y1="2045.638631" x2="2520.409676" y2="2301.500689" stroke="black" stroke-width="6.48"/>
<line x1="2289.832114" y1="2276.788133" x2="2544.226708" y2="2070.351184" stroke="black" stroke-width="6.48"/>
<line x1="945.403283" y1="211.217112" x2="1338.647155" y2="211.217112" stroke="black" stroke-width="6.48"/>
<line x1="1342.602562" y1="210.22083" x2="1342.602562" y2="346.289605" stroke="black" stroke-width="6.48"/>
<line x1="945.867672" y1="347.441112" x2="1342.907903" y2="347.441112" stroke="black" stroke-width="6.48"/>
<line x1="946.602562" y1="211.911862" x2="946.602562" y2="347.175918" stroke="black" stroke-width="6.48"/>
<line x1="956.898562" y1="222.305112" x2="1080.450562" y2="222.305112" stroke="black" stroke-width="6.48"/>
<line x1="1080.450562" y1="222.305112" x2="1080.450562" y2="336.353112" stroke="black" stroke-width="6.48"/>
<line x1="956.898562" y1="336.353112" x2="1080.450562" y2="336.353112" stroke="black" stroke-width="6.48"/>
<line x1="956.898562" y1="222.305112" x2="956.898562" y2="336.353112" stroke="black" stroke-width="6.48"/>
<line x1="1099.458562" y1="229.433112" x2="1186.578562" y2="229.433112" stroke="black" stroke-width="6.48"/>
<line x1="1099.458562" y1="249.233112" x2="1186.578562" y2="249.233112" stroke="black" stroke-width="6.48"/>
<line x1="1100.250562" y1="269.825112" x2="1186.578562" y2="269.825112" stroke="black" stroke-width="6.48"/>
<line x1="1100.250562" y1="289.625112" x2="1186.578562" y2="289.625112" stroke="black" stroke-width="6.48"/>
<line x1="1099.458562" y1="309.425112" x2="1186.578562" y2="309.425112" stroke="black" stroke-width="6.48"/>
<line x1="1099.458562" y1="329.225112" x2="1186.578562" y2="329.225112" stroke="black" stroke-width="6.48"/>
<line x1="1004.418562" y1="335.561112" x2="1004.418562" y2="322.097112" stroke="black" stroke-width="6.48"/>
<line x1="1004.418562" y1="322.097112" x2="1034.514562" y2="322.097112" stroke="black" stroke-width="6.48"/>
<line x1="1034.514562" y1="322.097112" x2="1034.514562" y2="334.769112" stroke="black" stroke-width="6.48"/>
<line x1="1207.170562" y1="222.305112" x2="1330.722562" y2="222.305112" stroke="black" stroke-width="6.48"/>
<line x1="1330.722562" y1="222.305112" x2="1330.722562" y2="336.353112" stroke="black" stroke-width="6.48"/>
<line x1="1207.170562" y1="336.353112" x2="1330.722562" y2="336.353112" stroke="black" stroke-width="6.48"/>
<line x1="1207.170562" y1="222.305112" x2="1207.170562" y2="336.353112" stroke="black" stroke-width="6.48"/>
<line x1="1254.690562" y1="336.353112" x2="1254.690562" y2="322.889112" stroke="black" stroke-width="6.48"/>
<line x1="1254.690562" y1="322.889112" x2="1284.786562" y2="322.889112" stroke="black" stroke-width="6.48"/>
<line x1="1284.786562" y1="322.889112" x2="1284.786562" y2="335.561112" stroke="black" stroke-width="6.48"/>
<circle cx="1066.194562" cy="236.561112" r="7.128000000000001" fill="none" stroke="black" stroke-width="6.48"/>
<circle cx="1316.466562" cy="237.353112" r="7.128000000000001" fill="none" stroke="black" stroke-width="6.48"/>
<line x1="5673.661006" y1="1519.062815" x2="5684.225321" y2="1548.088042" stroke="black" stroke-width="6.48"/>
<line x1="5684.225321" y1="1548.088042" x2="5881.150314" y2="1476.413204" stroke="black" stroke-width="6.48"/>
<line x1="5881.150314" y1="1476.413204" x2="5870.585995" y2="1447.387981" stroke="black" stroke-width="6.48"/>
<line x1="5870.585995" y1="1447.387981" x2="5673.661006" y2="1519.062815" stroke="black" stroke-width="6.48"/>
<line x1="5743.385503" y1="1710.629305" x2="5753.949822" y2="1739.654528" stroke="black" stroke-width="6.48"/>
<line x1="5753.949822" y1="1739.654528" x2="5950.874812" y2="1667.979695" stroke="black" stroke-width="6.48"/>
<line x1="5950.874812" y1="1667.979695" x2="5940.310496" y2="1638.954472" stroke="black" stroke-width="6.48"/>
<line x1="5940.310496" y1="1638.954472" x2="5743.385503" y2="1710.629305" stroke="black" stroke-width="6.48"/>
<line x1="5684.062795" y1="1547.641498" x2="5743.385503" y2="1710.629305" stroke="black" stroke-width="6.48"/>
<line x1="5879.932175" y1="1475.845178" x2="5913.593546" y2="1491.912486" stroke="black" stroke-width="6.48"/>
<line x1="5955.038179" y1="1605.780684" x2="5939.579941" y2="1639.726067" stroke="black" stroke-width="6.48"/>
<line x1="5912.943433" y1="1490.126321" x2="5955.688292" y2="1607.566849" stroke="black" stroke-width="6.48"/>
<line x1="5726.200266" y1="1532.810412" x2="5785.522974" y2="1695.79822" stroke="black" stroke-width="6.48"/>
</g>
</svg>
