<?xml version="1.0"?>
<svg xmlns:xlink="http://www.w3.org/1999/xlink" width="6775.2" height="2858.4">
<image x="0" y="0" width="6775.2" height="2858.4" xlink:href="groundfilled-01.png"/>
<g style="stroke-linecap:round">
<line x1="1285.950406" y1="795.178109" x2="1311.346069" y2="795.178109" stroke="black" stroke-width="6.48"/>
<line x1="1311.346069" y1="795.178109" x2="1311.346069" y2="745.625592" stroke="black" stroke-width="6.48"/>
<line x1="1311.346069" y1="745.625592" x2="1285.950406" y2="745.625592" stroke="black" stroke-width="6.48"/>
<line x1="1285.950406" y1="745.625592" x2="1285.950406" y2="795.178109" stroke="black" stroke-width="6.48"/>
<line x1="1559.728062" y1="745.625592" x2="1559.728062" y2="498.48241" stroke="black" stroke-width="6.48"/>
<line x1="1560.347471" y1="796.416923" x2="1585.743134" y2="796.416923" stroke="black" stroke-width="6.48"/>
<line x1="1585.743134" y1="796.416923" x2="1585.743134" y2="746.864406" stroke="black" stroke-width="6.48"/>
<line x1="1585.743134" y1="746.864406" x2="1560.347471" y2="746.864406" stroke="black" stroke-width="6.48"/>
<line x1="1560.347471" y1="746.864406" x2="1560.347471" y2="796.416923" stroke="black" stroke-width="6.48"/>
<path d="m 1311.346069,747.483811 a 248.38199299999997,248.38199299999997 0 0 1 248.38199299999997,-248.38199299999997" fill="none" stroke="black" stroke-width="6.48"/>
<line x1="320.532556" y1="771.34176" x2="320.532556" y2="366.736194" stroke="black" stroke-width="6.48"/>
<line x1="320.532556" y1="366.736194" x2="258.159283" y2="366.736194" stroke="black" stroke-width="6.48"/>
<line x1="258.159283" y1="366.736194" x2="258.159283" y2="771.34176" stroke="black" stroke-width="6.48"/>
<line x1="258.159283" y1="771.34176" x2="320.532556" y2="771.34176" stroke="black" stroke-width="6.48"/>
<line x1="258.979986" y1="733.589518" x2="319.711856" y2="733.589518" stroke="black" stroke-width="6.48"/>
<line x1="258.979986" y1="405.309139" x2="322.173958" y2="405.309139" stroke="black" stroke-width="6.48"/>
<line x1="287.704519" y1="734.410217" x2="287.704519" y2="406.129838" stroke="black" stroke-width="6.48"/>
<line x1="3901.945176" y1="1169.331426" x2="3901.945176" y2="1428.837066" stroke="black" stroke-width="6.48"/>
<line x1="3901.945176" y1="1428.837066" x2="3941.9501" y2="1428.837066" stroke="black" stroke-width="6.48"/>
<line x1="3941.9501" y1="1428.837066" x2="3941.9501" y2="1169.331426" stroke="black" stroke-width="6.48"/>
<line x1="3941.9501" y1="1169.331426" x2="3901.945176" y2="1169.331426" stroke="black" stroke-width="6.48"/>
<line x1="3941.423719" y1="1193.544936" x2="3902.471557" y2="1193.544936" stroke="black" stroke-width="6.48"/>
<line x1="3941.423719" y1="1404.097178" x2="3900.892414" y2="1404.097178" stroke="black" stroke-width="6.48"/>
<line x1="3923.000399" y1="1193.018555" x2="3923.000399" y2="1403.570797" stroke="black" stroke-width="6.48"/>
<line x1="334.430687" y1="1882.943946" x2="334.430687" y2="1457.437414" stroke="black" stroke-width="6.48"/>
<line x1="334.430687" y1="1457.437414" x2="258.323828" y2="1457.437414" stroke="black" stroke-width="6.48"/>
<line x1="258.323828" y1="1457.437414" x2="258.323828" y2="1882.943946" stroke="black" stroke-width="6.48"/>
<line x1="258.323828" y1="1882.943946" x2="334.430687" y2="1882.943946" stroke="black" stroke-width="6.48"/>
<line x1="334.430687" y1="1863.05238" x2="360.376207" y2="1863.05238" stroke="black" stroke-width="6.48"/>
<line x1="360.376207" y1="1863.05238" x2="360.376207" y2="1478.193829" stroke="black" stroke-width="6.48"/>
<line x1="334.430687" y1="1478.193829" x2="360.376207" y2="1478.193829" stroke="black" stroke-width="6.48"/>
<line x1="2747.905531" y1="904.670665" x2="2721.68303" y2="904.670665" stroke="black" stroke-width="6.48"/>
<line x1="2721.68303" y1="904.670665" x2="2721.68303" y2="955.836522" stroke="black" stroke-width="6.48"/>
<line x1="2721.68303" y1="955.836522" x2="2747.905531" y2="955.836522" stroke="black" stroke-width="6.48"/>
<line x1="2747.905531" y1="955.836522" x2="2747.905531" y2="904.670665" stroke="black" stroke-width="6.48"/>
<line x1="2465.214181" y1="955.836522" x2="2465.214181" y2="1211.026223" stroke="black" stroke-width="6.48"/>
<line x1="2464.574609" y1="903.39152" x2="2438.352108" y2="903.39152" stroke="black" stroke-width="6.48"/>
<line x1="2438.352108" y1="903.39152" x2="2438.352108" y2="954.557374" stroke="black" stroke-width="6.48"/>
<line x1="2438.352108" y1="954.557374" x2="2464.574609" y2="954.557374" stroke="black" stroke-width="6.48"/>
<line x1="2464.574609" y1="954.557374" x2="2464.574609" y2="903.39152" stroke="black" stroke-width="6.48"/>
<path d="m 2721.68303,953.917801 a 256.4688490000001,256.4688490000001 0 0 1 -256.4688490000003,256.46884899999986" fill="none" stroke="black" stroke-width="6.48"/>
<line x1="2420.532389" y1="1427.858834" x2="2395.136725" y2="1427.858834" stroke="black" stroke-width="6.48"/>
<line x1="2395.136725" y1="1427.858834" x2="2395.136725" y2="1477.411351" stroke="black" stroke-width="6.48"/>
<line x1="2395.136725" y1="1477.411351" x2="2420.532389" y2="1477.411351" stroke="black" stroke-width="6.48"/>
<line x1="2420.532389" y1="1477.411351" x2="2420.532389" y2="1427.858834" stroke="black" stroke-width="6.48"/>
<line x1="2146.754732" y1="1477.411351" x2="2146.754732" y2="1724.554534" stroke="black" stroke-width="6.48"/>
<line x1="2146.135324" y1="1426.62002" x2="2120.73966" y2="1426.62002" stroke="black" stroke-width="6.48"/>
<line x1="2120.73966" y1="1426.62002" x2="2120.73966" y2="1476.172537" stroke="black" stroke-width="6.48"/>
<line x1="2120.73966" y1="1476.172537" x2="2146.135324" y2="1476.172537" stroke="black" stroke-width="6.48"/>
<line x1="2146.135324" y1="1476.172537" x2="2146.135324" y2="1426.62002" stroke="black" stroke-width="6.48"/>
<path d="m 2395.136725,1475.553132 a 248.38199299999997,248.38199299999997 0 0 1 -248.38199299999997,248.38199299999997" fill="none" stroke="black" stroke-width="6.48"/>
<line x1="766.112537" y1="692.136151" x2="1158.944537" y2="692.136151" stroke="black" stroke-width="6.48"/>
<line x1="1158.944537" y1="692.136151" x2="1158.944537" y2="507.600151" stroke="black" stroke-width="6.48"/>
<line x1="1158.944537" y1="507.600151" x2="766.112537" y2="507.600151" stroke="black" stroke-width="6.48"/>
<line x1="766.112537" y1="507.600151" x2="766.112537" y2="692.136151" stroke="black" stroke-width="6.48"/>
<line x1="925.304537" y1="507.600151" x2="925.304537" y2="426.816151" stroke="black" stroke-width="6.48"/>
<line x1="925.304537" y1="426.816151" x2="846.896537" y2="426.816151" stroke="black" stroke-width="6.48"/>
<line x1="846.896537" y1="426.816151" x2="846.896537" y2="507.600151" stroke="black" stroke-width="6.48"/>
<line x1="847.688537" y1="444.240151" x2="925.304537" y2="444.240151" stroke="black" stroke-width="6.48"/>
<line x1="846.896537" y1="773.712151" x2="925.304537" y2="773.712151" stroke="black" stroke-width="6.48"/>
<line x1="925.304537" y1="773.712151" x2="925.304537" y2="692.136151" stroke="black" stroke-width="6.48"/>
<line x1="846.896537" y1="692.136151" x2="846.896537" y2="773.712151" stroke="black" stroke-width="6.48"/>
<line x1="847.688537" y1="756.288151" x2="925.304537" y2="756.288151" stroke="black" stroke-width="6.48"/>
<line x1="1076.576537" y1="507.600151" x2="1076.576537" y2="426.816151" stroke="black" stroke-width="6.48"/>
<line x1="1076.576537" y1="426.816151" x2="998.168537" y2="426.816151" stroke="black" stroke-width="6.48"/>
<line x1="998.168537" y1="426.816151" x2="998.168537" y2="507.600151" stroke="black" stroke-width="6.48"/>
<line x1="998.168537" y1="444.240151" x2="1076.576537" y2="444.240151" stroke="black" stroke-width="6.48"/>
<line x1="998.168537" y1="773.712151" x2="1076.576537" y2="773.712151" stroke="black" stroke-width="6.48"/>
<line x1="1076.576537" y1="773.712151" x2="1076.576537" y2="692.136151" stroke="black" stroke-width="6.48"/>
<line x1="998.168537" y1="692.136151" x2="998.168537" y2="773.712151" stroke="black" stroke-width="6.48"/>
<line x1="998.168537" y1="756.288151" x2="1076.576537" y2="756.288151" stroke="black" stroke-width="6.48"/>
<line x1="2032.924367" y1="1888.600792" x2="2032.924367" y2="1857.712792" stroke="black" stroke-width="6.48"/>
<line x1="2032.924367" y1="1857.712792" x2="1823.361167" y2="1857.712792" stroke="black" stroke-width="6.48"/>
<line x1="1823.361167" y1="1857.712792" x2="1823.361167" y2="1888.600792" stroke="black" stroke-width="6.48"/>
<line x1="1823.361167" y1="1888.600792" x2="2032.924367" y2="1888.600792" stroke="black" stroke-width="6.48"/>
<line x1="2032.924367" y1="1684.739992" x2="2032.924367" y2="1653.851992" stroke="black" stroke-width="6.48"/>
<line x1="2032.924367" y1="1653.851992" x2="1823.361167" y2="1653.851992" stroke="black" stroke-width="6.48"/>
<line x1="1823.361167" y1="1653.851992" x2="1823.361167" y2="1684.739992" stroke="black" stroke-width="6.48"/>
<line x1="1823.361167" y1="1684.739992" x2="2032.924367" y2="1684.739992" stroke="black" stroke-width="6.48"/>
<line x1="2032.924367" y1="1858.187992" x2="2032.924367" y2="1684.739992" stroke="black" stroke-width="6.48"/>
<line x1="1824.311567" y1="1858.663192" x2="1798.175567" y2="1832.051992" stroke="black" stroke-width="6.48"/>
<line x1="1798.175567" y1="1710.875992" x2="1824.311567" y2="1684.264792" stroke="black" stroke-width="6.48"/>
<line x1="1798.175567" y1="1833.952792" x2="1798.175567" y2="1708.975192" stroke="black" stroke-width="6.48"/>
<line x1="1988.255567" y1="1857.712792" x2="1988.255567" y2="1684.264792" stroke="black" stroke-width="6.48"/>
<line x1="1485.415969" y1="209.267824" x2="1707.693134" y2="209.267824" stroke="black" stroke-width="6.48"/>
<line x1="1707.693134" y1="209.267824" x2="1707.693134" y2="432.000475" stroke="black" stroke-width="6.48"/>
<line x1="1707.693134" y1="432.000475" x2="1485.415969" y2="432.000475" stroke="black" stroke-width="6.48"/>
<line x1="1485.415969" y1="432.000475" x2="1485.415969" y2="209.267824" stroke="black" stroke-width="6.48"/>
<line x1="1484.960483" y1="208.812337" x2="1707.693134" y2="432.000475" stroke="black" stroke-width="6.48"/>
<line x1="1485.415969" y1="431.544989" x2="1707.237648" y2="209.267824" stroke="black" stroke-width="6.48"/>
<line x1="2586.780558" y1="1803.366338" x2="2586.780558" y2="2194.614338" stroke="black" stroke-width="6.48"/>
<line x1="2586.780558" y1="2194.614338" x2="2761.020558" y2="2194.614338" stroke="black" stroke-width="6.48"/>
<line x1="2761.020558" y1="2194.614338" x2="2761.020558" y2="1803.366338" stroke="black" stroke-width="6.48"/>
<line x1="2761.020558" y1="1803.366338" x2="2586.780558" y2="1803.366338" stroke="black" stroke-width="6.48"/>
<line x1="2734.092558" y1="2119.374338" x2="2734.092558" y2="1835.046338" stroke="black" stroke-width="6.48"/>
<line x1="2734.092558" y1="1835.046338" x2="2616.084558" y2="1835.046338" stroke="black" stroke-width="6.48"/>
<line x1="2616.084558" y1="1835.046338" x2="2616.084558" y2="2124.918338" stroke="black" stroke-width="6.48"/>
<path d="m 2734.347982,2118.563766 a 63.35999941905905,63.35999941905905 0 0 1 -119.37432999999965,4.2938139999996565" fill="none" stroke="black" stroke-width="6.48"/>
<line x1="2080.787922" y1="1847.470806" x2="2056.235922" y2="1866.082806" stroke="black" stroke-width="6.48"/>
<line x1="2056.235922" y1="1866.082806" x2="2056.235922" y2="2013.394806" stroke="black" stroke-width="6.48"/>
<line x1="2056.235922" y1="2013.394806" x2="2084.351922" y2="2032.402806" stroke="black" stroke-width="6.48"/>
<line x1="2083.559922" y1="1869.250806" x2="2083.559922" y2="2012.206806" stroke="black" stroke-width="6.48"/>
<circle cx="2105.339922" cy="1938.550806" r="13.068000000000003" fill="none" stroke="black" stroke-width="6.48"/>
<path d="m 2082.892576,1870.804058 a 74.84400053362336,74.84400053362336 0 1 1 0.40204799999992247,139.60900500000002" fill="none" stroke="black" stroke-width="6.48"/>
<path d="m 2080.130558,1847.517109 a 95.43599883324414,95.43599883324414 0 1 1 3.0749580000001515,184.466995" fill="none" stroke="black" stroke-width="6.48"/>
<line x1="453.042853" y1="208.858709" x2="723.590053" y2="208.858709" stroke="black" stroke-width="6.48"/>
<line x1="723.590053" y1="208.858709" x2="723.590053" y2="340.805909" stroke="black" stroke-width="6.48"/>
<line x1="453.042853" y1="340.805909" x2="723.590053" y2="340.805909" stroke="black" stroke-width="6.48"/>
<line x1="453.042853" y1="208.858709" x2="453.042853" y2="340.805909" stroke="black" stroke-width="6.48"/>
<line x1="459.695653" y1="215.511509" x2="597.741253" y2="215.511509" stroke="black" stroke-width="6.48"/>
<line x1="597.741253" y1="215.511509" x2="597.741253" y2="333.598709" stroke="black" stroke-width="6.48"/>
<line x1="459.695653" y1="333.598709" x2="597.741253" y2="333.598709" stroke="black" stroke-width="6.48"/>
<line x1="459.695653" y1="215.511509" x2="459.695653" y2="333.598709" stroke="black" stroke-width="6.48"/>
<line x1="612.155653" y1="223.273109" x2="709.175653" y2="223.273109" stroke="black" stroke-width="6.48"/>
<line x1="612.155653" y1="243.785909" x2="709.175653" y2="243.785909" stroke="black" stroke-width="6.48"/>
<line x1="612.710053" y1="264.853109" x2="709.730053" y2="264.853109" stroke="black" stroke-width="6.48"/>
<line x1="612.710053" y1="285.365909" x2="709.730053" y2="285.365909" stroke="black" stroke-width="6.48"/>
<line x1="612.155653" y1="305.878709" x2="709.175653" y2="305.878709" stroke="black" stroke-width="6.48"/>
<line x1="612.155653" y1="326.391509" x2="709.175653" y2="326.391509" stroke="black" stroke-width="6.48"/>
<line x1="512.363653" y1="333.598709" x2="512.363653" y2="319.738709" stroke="black" stroke-width="6.48"/>
<line x1="512.363653" y1="319.738709" x2="546.736453" y2="319.738709" stroke="black" stroke-width="6.48"/>
<line x1="546.736453" y1="319.738709" x2="546.736453" y2="333.044309" stroke="black" stroke-width="6.48"/>
<circle cx="582.218053" cy="230.480309" r="8.316000000000003" fill="none" stroke="black" stroke-width="6.48"/>
<line x1="2044.889399" y1="955.822399" x2="2267.166564" y2="955.822399" stroke="black" stroke-width="6.48"/>
<line x1="2267.166564" y1="955.822399" x2="2267.166564" y2="1178.555051" stroke="black" stroke-width="6.48"/>
<line x1="2267.166564" y1="1178.555051" x2="2044.889399" y2="1178.555051" stroke="black" stroke-width="6.48"/>
<line x1="2044.889399" y1="1178.555051" x2="2044.889399" y2="955.822399" stroke="black" stroke-width="6.48"/>
<line x1="2044.433912" y1="955.366913" x2="2267.166564" y2="1178.555051" stroke="black" stroke-width="6.48"/>
<line x1="2044.889399" y1="1178.099564" x2="2266.711078" y2="955.822399" stroke="black" stroke-width="6.48"/>
<line x1="323.258818" y1="1375.374532" x2="323.258818" y2="949.841089" stroke="black" stroke-width="6.48"/>
<line x1="323.258818" y1="949.841089" x2="257.659344" y2="949.841089" stroke="black" stroke-width="6.48"/>
<line x1="257.659344" y1="949.841089" x2="257.659344" y2="1375.374532" stroke="black" stroke-width="6.48"/>
<line x1="257.659344" y1="1375.374532" x2="323.258818" y2="1375.374532" stroke="black" stroke-width="6.48"/>
<line x1="258.522494" y1="1335.669588" x2="322.395667" y2="1335.669588" stroke="black" stroke-width="6.48"/>
<line x1="258.522494" y1="990.409187" x2="324.985122" y2="990.409187" stroke="black" stroke-width="6.48"/>
<line x1="288.73278" y1="1336.532738" x2="288.73278" y2="991.272337" stroke="black" stroke-width="6.48"/>
<line x1="3874.406537" y1="1514.726719" x2="3874.406537" y2="1940.260162" stroke="black" stroke-width="6.48"/>
<line x1="3874.406537" y1="1940.260162" x2="3940.00601" y2="1940.260162" stroke="black" stroke-width="6.48"/>
<line x1="3940.00601" y1="1940.260162" x2="3940.00601" y2="1514.726719" stroke="black" stroke-width="6.48"/>
<line x1="3940.00601" y1="1514.726719" x2="3874.406537" y2="1514.726719" stroke="black" stroke-width="6.48"/>
<line x1="3939.14286" y1="1554.431663" x2="3875.269687" y2="1554.431663" stroke="black" stroke-width="6.48"/>
<line x1="3939.14286" y1="1899.692064" x2="3872.680232" y2="1899.692064" stroke="black" stroke-width="6.48"/>
<line x1="3908.932574" y1="1553.568512" x2="3908.932574" y2="1898.828914" stroke="black" stroke-width="6.48"/>
<line x1="5217.664576" y1="2240.839228" x2="5285.879136" y2="1853.975228" stroke="black" stroke-width="6.48"/>
<line x1="5285.879136" y1="1853.975228" x2="5104.146654" y2="1821.930887" stroke="black" stroke-width="6.48"/>
<line x1="5104.146654" y1="1821.930887" x2="5035.932094" y2="2208.794886" stroke="black" stroke-width="6.48"/>
<line x1="5035.932094" y1="2208.794886" x2="5217.664576" y2="2240.839228" stroke="black" stroke-width="6.48"/>
<line x1="5063.575489" y1="2052.02137" x2="4984.018783" y2="2037.993376" stroke="black" stroke-width="6.48"/>
<line x1="4984.018783" y1="2037.993376" x2="4970.403374" y2="2115.210182" stroke="black" stroke-width="6.48"/>
<line x1="4970.403374" y1="2115.210182" x2="5049.960084" y2="2129.238176" stroke="black" stroke-width="6.48"/>
<line x1="4987.700197" y1="2117.455859" x2="5001.178072" y2="2041.019021" stroke="black" stroke-width="6.48"/>
<line x1="5312.029244" y1="2175.448039" x2="5325.644653" y2="2098.231236" stroke="black" stroke-width="6.48"/>
<line x1="5325.644653" y1="2098.231236" x2="5245.307978" y2="2084.065708" stroke="black" stroke-width="6.48"/>
<line x1="5231.69257" y1="2161.282518" x2="5312.029244" y2="2175.448039" stroke="black" stroke-width="6.48"/>
<line x1="5295.007487" y1="2171.642429" x2="5308.485361" y2="2095.205591" stroke="black" stroke-width="6.48"/>
<line x1="5089.843602" y1="1903.04753" x2="5010.286889" y2="1889.019536" stroke="black" stroke-width="6.48"/>
<line x1="5010.286889" y1="1889.019536" x2="4996.671484" y2="1966.236347" stroke="black" stroke-width="6.48"/>
<line x1="4996.671484" y1="1966.236347" x2="5076.228193" y2="1980.264341" stroke="black" stroke-width="6.48"/>
<line x1="5013.830776" y1="1969.261992" x2="5027.446181" y2="1892.045182" stroke="black" stroke-width="6.48"/>
<line x1="5338.297354" y1="2026.474204" x2="5351.912762" y2="1949.257397" stroke="black" stroke-width="6.48"/>
<line x1="5351.912762" y1="1949.257397" x2="5271.576084" y2="1935.091872" stroke="black" stroke-width="6.48"/>
<line x1="5257.960675" y1="2012.308679" x2="5338.297354" y2="2026.474204" stroke="black" stroke-width="6.48"/>
<line x1="5321.138065" y1="2023.448555" x2="5334.75347" y2="1946.231752" stroke="black" stroke-width="6.48"/>
<line x1="3301.691411" y1="1074.968082" x2="3511.056614" y2="1074.968082" stroke="black" stroke-width="6.48"/>
<line x1="3511.056614" y1="1074.968082" x2="3511.056614" y2="743.753678" stroke="black" stroke-width="6.48"/>
<line x1="3511.056614" y1="743.753678" x2="3301.691411" y2="743.753678" stroke="black" stroke-width="6.48"/>
<line x1="3301.691411" y1="743.753678" x2="3301.691411" y2="1074.968082" stroke="black" stroke-width="6.48"/>
<line x1="3301.018211" y1="802.995278" x2="3511.729811" y2="802.995278" stroke="black" stroke-width="6.48"/>
<line x1="3511.729811" y1="802.995278" x2="3302.364611" y2="852.812082" stroke="black" stroke-width="6.48"/>
<line x1="3302.364611" y1="852.812082" x2="3334.005014" y2="899.262882" stroke="black" stroke-width="6.48"/>
<line x1="3334.005014" y1="899.262882" x2="3511.729811" y2="802.322082" stroke="black" stroke-width="6.48"/>
<line x1="3496.567882" y1="1202.783591" x2="3718.845047" y2="1202.783591" stroke="black" stroke-width="6.48"/>
<line x1="3718.845047" y1="1202.783591" x2="3718.845047" y2="1425.516242" stroke="black" stroke-width="6.48"/>
<line x1="3718.845047" y1="1425.516242" x2="3496.567882" y2="1425.516242" stroke="black" stroke-width="6.48"/>
<line x1="3496.567882" y1="1425.516242" x2="3496.567882" y2="1202.783591" stroke="black" stroke-width="6.48"/>
<line x1="3496.112395" y1="1202.328104" x2="3718.845047" y2="1425.516242" stroke="black" stroke-width="6.48"/>
<line x1="3496.567882" y1="1425.060756" x2="3718.38956" y2="1202.783591" stroke="black" stroke-width="6.48"/>
<line x1="2804.16708" y1="1127.69402" x2="2804.16708" y2="1153.148746" stroke="black" stroke-width="6.48"/>
<line x1="2804.16708" y1="1153.148746" x2="2853.834836" y2="1153.148746" stroke="black" stroke-width="6.48"/>
<line x1="2853.834836" y1="1153.148746" x2="2853.834836" y2="1127.69402" stroke="black" stroke-width="6.48"/>
<line x1="2853.834836" y1="1127.69402" x2="2804.16708" y2="1127.69402" stroke="black" stroke-width="6.48"/>
<line x1="2853.834836" y1="1402.108373" x2="3101.55277" y2="1402.108373" stroke="black" stroke-width="6.48"/>
<line x1="2802.925386" y1="1402.729218" x2="2802.925386" y2="1428.183943" stroke="black" stroke-width="6.48"/>
<line x1="2802.925386" y1="1428.183943" x2="2852.593142" y2="1428.183943" stroke="black" stroke-width="6.48"/>
<line x1="2852.593142" y1="1428.183943" x2="2852.593142" y2="1402.729218" stroke="black" stroke-width="6.48"/>
<line x1="2852.593142" y1="1402.729218" x2="2802.925386" y2="1402.729218" stroke="black" stroke-width="6.48"/>
<path d="m 2851.972294,1153.148746 a 248.95962699999984,248.95962699999984 0 0 1 248.95962699999973,248.95962699999995" fill="none" stroke="black" stroke-width="6.48"/>
<line x1="2910.347824" y1="1999.172077" x2="2839.142678" y2="2175.411215" stroke="black" stroke-width="6.48"/>
<line x1="2839.142678" y1="2175.411215" x2="3269.166174" y2="2349.151765" stroke="black" stroke-width="6.48"/>
<line x1="3269.166174" y1="2349.151765" x2="3340.371319" y2="2172.912628" stroke="black" stroke-width="6.48"/>
<line x1="3340.371319" y1="2172.912628" x2="3318.341429" y2="2164.011984" stroke="black" stroke-width="6.48"/>
<line x1="3318.341429" y1="2164.011984" x2="3255.680902" y2="2319.102428" stroke="black" stroke-width="6.48"/>
<line x1="3255.680902" y1="2319.102428" x2="2870.598384" y2="2163.519187" stroke="black" stroke-width="6.48"/>
<line x1="2870.598384" y1="2163.519187" x2="2933.258911" y2="2008.428746" stroke="black" stroke-width="6.48"/>
<line x1="2933.258911" y1="2008.428746" x2="2910.347824" y2="1999.172077" stroke="black" stroke-width="6.48"/>
<line x1="2931.122758" y1="2013.715919" x2="3316.205275" y2="2169.29916" stroke="black" stroke-width="6.48"/>
<line x1="3123.579442" y1="2090.448331" x2="3063.055072" y2="2240.2516" stroke="black" stroke-width="6.48"/>
<line x1="3702.938173" y1="1748.117646" x2="3601.280959" y2="1956.545831" stroke="black" stroke-width="6.48"/>
<line x1="3601.280959" y1="1956.545831" x2="3392.425667" y2="1854.680299" stroke="black" stroke-width="6.48"/>
<line x1="3392.425667" y1="1854.680299" x2="3494.082888" y2="1646.252114" stroke="black" stroke-width="6.48"/>
<line x1="3494.082888" y1="1646.252114" x2="3702.938173" y2="1748.117646" stroke="black" stroke-width="6.48"/>
<line x1="3703.573595" y1="1747.898852" x2="3392.425667" y2="1854.680299" stroke="black" stroke-width="6.48"/>
<line x1="3494.509992" y1="1646.460428" x2="3601.48927" y2="1956.11872" stroke="black" stroke-width="6.48"/>
<line x1="3089.601562" y1="1589.315879" x2="3074.626764" y2="1616.331136" stroke="black" stroke-width="6.48"/>
<line x1="3074.626764" y1="1616.331136" x2="3257.914867" y2="1717.929389" stroke="black" stroke-width="6.48"/>
<line x1="3257.914867" y1="1717.929389" x2="3272.889668" y2="1690.914139" stroke="black" stroke-width="6.48"/>
<line x1="3272.889668" y1="1690.914139" x2="3089.601562" y2="1589.315879" stroke="black" stroke-width="6.48"/>
<line x1="2990.767882" y1="1767.616553" x2="2975.793084" y2="1794.63181" stroke="black" stroke-width="6.48"/>
<line x1="2975.793084" y1="1794.63181" x2="3159.081187" y2="1896.230063" stroke="black" stroke-width="6.48"/>
<line x1="3159.081187" y1="1896.230063" x2="3174.055988" y2="1869.21481" stroke="black" stroke-width="6.48"/>
<line x1="3174.055988" y1="1869.21481" x2="2990.767882" y2="1767.616553" stroke="black" stroke-width="6.48"/>
<line x1="3074.857146" y1="1615.915516" x2="2990.767882" y2="1767.616553" stroke="black" stroke-width="6.48"/>
<line x1="3257.544391" y1="1716.637388" x2="3267.502088" y2="1752.583054" stroke="black" stroke-width="6.48"/>
<line x1="3208.754794" y1="1858.56597" x2="3172.99437" y2="1869.169666" stroke="black" stroke-width="6.48"/>
<line x1="3268.423613" y1="1750.920577" x2="3207.833273" y2="1860.22845" stroke="black" stroke-width="6.48"/>
<line x1="3113.694976" y1="1637.987" x2="3029.605718" y2="1789.688038" stroke="black" stroke-width="6.48"/>
<line x1="3819.610505" y1="1149.082661" x2="3822.30257" y2="1118.312197" stroke="black" stroke-width="6.48"/>
<line x1="3822.30257" y1="1118.312197" x2="3613.536821" y2="1100.047561" stroke="black" stroke-width="6.48"/>
<line x1="3613.536821" y1="1100.047561" x2="3610.844759" y2="1130.818025" stroke="black" stroke-width="6.48"/>
<line x1="3610.844759" y1="1130.818025" x2="3819.610505" y2="1149.082661" stroke="black" stroke-width="6.48"/>
<line x1="3837.378146" y1="945.99761" x2="3840.070212" y2="915.22715" stroke="black" stroke-width="6.48"/>
<line x1="3840.070212" y1="915.22715" x2="3631.304462" y2="896.962511" stroke="black" stroke-width="6.48"/>
<line x1="3631.304462" y1="896.962511" x2="3628.612393" y2="927.732974" stroke="black" stroke-width="6.48"/>
<line x1="3628.612393" y1="927.732974" x2="3837.378146" y2="945.99761" stroke="black" stroke-width="6.48"/>
<line x1="3822.261152" y1="1118.78559" x2="3837.378146" y2="945.99761" stroke="black" stroke-width="6.48"/>
<line x1="3614.400774" y1="1101.077176" x2="3590.683546" y2="1072.28934" stroke="black" stroke-width="6.48"/>
<line x1="3601.244732" y1="951.57445" x2="3629.600597" y2="927.342418" stroke="black" stroke-width="6.48"/>
<line x1="3590.517884" y1="1074.182908" x2="3601.410397" y2="949.680882" stroke="black" stroke-width="6.48"/>
<line x1="3777.803752" y1="1114.419053" x2="3792.920738" y2="941.63108" stroke="black" stroke-width="6.48"/>
<line x1="1105.092598" y1="1608.25378" x2="947.509106" y2="1714.545133" stroke="black" stroke-width="6.48"/>
<line x1="947.509106" y1="1714.545133" x2="1206.859997" y2="2099.048839" stroke="black" stroke-width="6.48"/>
<line x1="1206.859997" y1="2099.048839" x2="1364.443484" y2="1992.757493" stroke="black" stroke-width="6.48"/>
<line x1="1364.443484" y1="1992.757493" x2="1351.157069" y2="1973.059556" stroke="black" stroke-width="6.48"/>
<line x1="1351.157069" y1="1973.059556" x2="1212.4836" y2="2066.595941" stroke="black" stroke-width="6.48"/>
<line x1="1212.4836" y1="2066.595941" x2="980.236998" y2="1722.276022" stroke="black" stroke-width="6.48"/>
<line x1="980.236998" y1="1722.276022" x2="1118.91047" y2="1628.739637" stroke="black" stroke-width="6.48"/>
<line x1="1118.91047" y1="1628.739637" x2="1105.092598" y2="1608.25378" stroke="black" stroke-width="6.48"/>
<line x1="1114.182968" y1="1631.928377" x2="1346.429563" y2="1976.248296" stroke="black" stroke-width="6.48"/>
<line x1="1230.828455" y1="1803.16292" x2="1096.882488" y2="1893.510569" stroke="black" stroke-width="6.48"/>
<line x1="1102.936496" y1="1070.471995" x2="721.773284" y2="1165.506656" stroke="black" stroke-width="6.48"/>
<line x1="721.773284" y1="1165.506656" x2="766.416582" y2="1344.561145" stroke="black" stroke-width="6.48"/>
<line x1="766.416582" y1="1344.561145" x2="1147.579794" y2="1249.526484" stroke="black" stroke-width="6.48"/>
<line x1="1147.579794" y1="1249.526484" x2="1102.936496" y2="1070.471995" stroke="black" stroke-width="6.48"/>
<line x1="993.116477" y1="1288.038517" x2="1012.659898" y2="1366.422883" stroke="black" stroke-width="6.48"/>
<line x1="1012.659898" y1="1366.422883" x2="1088.738842" y2="1347.454274" stroke="black" stroke-width="6.48"/>
<line x1="1088.738842" y1="1347.454274" x2="1069.195424" y2="1269.069905" stroke="black" stroke-width="6.48"/>
<line x1="1083.755124" y1="1330.739442" x2="1008.444647" y2="1349.516452" stroke="black" stroke-width="6.48"/>
<line x1="1004.817103" y1="1010.862565" x2="928.738159" y2="1029.831181" stroke="black" stroke-width="6.48"/>
<line x1="928.738159" y1="1029.831181" x2="948.473179" y2="1108.984025" stroke="black" stroke-width="6.48"/>
<line x1="1024.552127" y1="1090.015412" x2="1004.817103" y2="1010.862565" stroke="black" stroke-width="6.48"/>
<line x1="1008.263876" y1="1027.960603" x2="932.953406" y2="1046.737613" stroke="black" stroke-width="6.48"/>
<line x1="846.3379" y1="1324.634526" x2="865.88132" y2="1403.018896" stroke="black" stroke-width="6.48"/>
<line x1="865.88132" y1="1403.018896" x2="941.960268" y2="1384.050283" stroke="black" stroke-width="6.48"/>
<line x1="941.960268" y1="1384.050283" x2="922.416851" y2="1305.665914" stroke="black" stroke-width="6.48"/>
<line x1="937.745021" y1="1367.143852" x2="861.666073" y2="1386.112464" stroke="black" stroke-width="6.48"/>
<line x1="858.03853" y1="1047.458578" x2="781.959582" y2="1066.427186" stroke="black" stroke-width="6.48"/>
<line x1="781.959582" y1="1066.427186" x2="801.694602" y2="1145.580034" stroke="black" stroke-width="6.48"/>
<line x1="877.77355" y1="1126.611421" x2="858.03853" y2="1047.458578" stroke="black" stroke-width="6.48"/>
<line x1="862.253777" y1="1064.365009" x2="786.174829" y2="1083.333618" stroke="black" stroke-width="6.48"/>
<line x1="6182.166564" y1="2072.180347" x2="6174.869501" y2="2281.140979" stroke="black" stroke-width="6.48"/>
<line x1="6174.869501" y1="2281.140979" x2="6406.625833" y2="2289.234089" stroke="black" stroke-width="6.48"/>
<line x1="6406.625833" y1="2289.234089" x2="6413.9229" y2="2080.273457" stroke="black" stroke-width="6.48"/>
<line x1="6413.9229" y1="2080.273457" x2="6182.166564" y2="2072.180347" stroke="black" stroke-width="6.48"/>
<line x1="6214.460479" y1="2073.308076" x2="6207.163416" y2="2282.268708" stroke="black" stroke-width="6.48"/>
<line x1="6019.202707" y1="1542.503164" x2="5833.276409" y2="1582.023017" stroke="black" stroke-width="6.48"/>
<line x1="5833.276409" y1="1582.023017" x2="5929.704853" y2="2035.68318" stroke="black" stroke-width="6.48"/>
<line x1="5929.704853" y1="2035.68318" x2="6115.631148" y2="1996.163327" stroke="black" stroke-width="6.48"/>
<line x1="6115.631148" y1="1996.163327" x2="6110.691167" y2="1972.922537" stroke="black" stroke-width="6.48"/>
<line x1="6110.691167" y1="1972.922537" x2="5947.076027" y2="2007.700009" stroke="black" stroke-width="6.48"/>
<line x1="5947.076027" y1="2007.700009" x2="5860.725145" y2="1601.451054" stroke="black" stroke-width="6.48"/>
<line x1="5860.725145" y1="1601.451054" x2="6024.340289" y2="1566.673582" stroke="black" stroke-width="6.48"/>
<line x1="6024.340289" y1="1566.673582" x2="6019.202707" y2="1542.503164" stroke="black" stroke-width="6.48"/>
<line x1="6018.762496" y1="1567.859177" x2="6105.113377" y2="1974.108132" stroke="black" stroke-width="6.48"/>
<line x1="6062.76877" y1="1770.32124" x2="5904.731419" y2="1803.913114" stroke="black" stroke-width="6.48"/>
<line x1="1002.917347" y1="210.203147" x2="1273.464547" y2="210.203147" stroke="black" stroke-width="6.48"/>
<line x1="1273.464547" y1="210.203147" x2="1273.464547" y2="342.150347" stroke="black" stroke-width="6.48"/>
<line x1="1002.917347" y1="342.150347" x2="1273.464547" y2="342.150347" stroke="black" stroke-width="6.48"/>
<line x1="1002.917347" y1="210.203147" x2="1002.917347" y2="342.150347" stroke="black" stroke-width="6.48"/>
<line x1="1009.570147" y1="216.855947" x2="1147.615747" y2="216.855947" stroke="black" stroke-width="6.48"/>
<line x1="1147.615747" y1="216.855947" x2="1147.615747" y2="334.943147" stroke="black" stroke-width="6.48"/>
<line x1="1009.570147" y1="334.943147" x2="1147.615747" y2="334.943147" stroke="black" stroke-width="6.48"/>
<line x1="1009.570147" y1="216.855947" x2="1009.570147" y2="334.943147" stroke="black" stroke-width="6.48"/>
<line x1="1162.030147" y1="224.617547" x2="1259.050147" y2="224.617547" stroke="black" stroke-width="6.48"/>
<line x1="1162.030147" y1="245.130347" x2="1259.050147" y2="245.130347" stroke="black" stroke-width="6.48"/>
<line x1="1162.584547" y1="266.197547" x2="1259.604547" y2="266.197547" stroke="black" stroke-width="6.48"/>
<line x1="1162.584547" y1="286.710347" x2="1259.604547" y2="286.710347" stroke="black" stroke-width="6.48"/>
<line x1="1162.030147" y1="307.223147" x2="1259.050147" y2="307.223147" stroke="black" stroke-width="6.48"/>
<line x1="1162.030147" y1="327.735947" x2="1259.050147" y2="327.735947" stroke="black" stroke-width="6.48"/>
<line x1="1062.238147" y1="334.943147" x2="1062.238147" y2="321.083147" stroke="black" stroke-width="6.48"/>
<line x1="1062.238147" y1="321.083147" x2="1096.610947" y2="321.083147" stroke="black" stroke-width="6.48"/>
<line x1="1096.610947" y1="321.083147" x2="1096.610947" y2="334.388747" stroke="black" stroke-width="6.48"/>
<circle cx="1132.092547" cy="231.824747" r="8.316000000000003" fill="none" stroke="black" stroke-width="6.48"/>
</g>
</svg>
