<?xml version="1.0"?>
<svg xmlns:xlink="http://www.w3.org/1999/xlink" width="4348.812" height="2226.744">
<image x="0" y="0" width="4348.812" height="2226.744" xlink:href="ground16-10.png"/>
<g style="stroke-linecap:round">
<line x1="403.073634" y1="1261.405573" x2="403.073634" y2="1284.479941" stroke="black" stroke-width="7.137"/>
<line x1="403.073634" y1="1284.479941" x2="448.096792" y2="1284.479941" stroke="black" stroke-width="7.137"/>
<line x1="448.096792" y1="1284.479941" x2="448.096792" y2="1261.405573" stroke="black" stroke-width="7.137"/>
<line x1="448.096792" y1="1261.405573" x2="403.073634" y2="1261.405573" stroke="black" stroke-width="7.137"/>
<line x1="448.096792" y1="1510.158514" x2="672.649784" y2="1510.158514" stroke="black" stroke-width="7.137"/>
<line x1="401.948056" y1="1510.721303" x2="401.948056" y2="1533.795671" stroke="black" stroke-width="7.137"/>
<line x1="401.948056" y1="1533.795671" x2="446.971211" y2="1533.795671" stroke="black" stroke-width="7.137"/>
<line x1="446.971211" y1="1533.795671" x2="446.971211" y2="1510.721303" stroke="black" stroke-width="7.137"/>
<line x1="446.971211" y1="1510.721303" x2="401.948056" y2="1510.721303" stroke="black" stroke-width="7.137"/>
<path d="m 446.408422,1284.479941 a 225.67857299999997,225.67857299999997 0 0 1 225.67857300000003,225.67857299999991" fill="none" stroke="black" stroke-width="7.137"/>
<line x1="1917.663575" y1="1638.130602" x2="1917.663575" y2="1615.056234" stroke="black" stroke-width="7.137"/>
<line x1="1917.663575" y1="1615.056234" x2="1872.640416" y2="1615.056234" stroke="black" stroke-width="7.137"/>
<line x1="1872.640416" y1="1615.056234" x2="1872.640416" y2="1638.130602" stroke="black" stroke-width="7.137"/>
<line x1="1872.640416" y1="1638.130602" x2="1917.663575" y2="1638.130602" stroke="black" stroke-width="7.137"/>
<line x1="1872.640416" y1="1389.377661" x2="1648.087424" y2="1389.377661" stroke="black" stroke-width="7.137"/>
<line x1="1918.789152" y1="1388.814872" x2="1918.789152" y2="1365.740504" stroke="black" stroke-width="7.137"/>
<line x1="1918.789152" y1="1365.740504" x2="1873.765997" y2="1365.740504" stroke="black" stroke-width="7.137"/>
<line x1="1873.765997" y1="1365.740504" x2="1873.765997" y2="1388.814872" stroke="black" stroke-width="7.137"/>
<line x1="1873.765997" y1="1388.814872" x2="1918.789152" y2="1388.814872" stroke="black" stroke-width="7.137"/>
<path d="m 1874.328786,1615.056234 a 225.67857300000003,225.67857300000003 0 0 1 -225.67857300000014,-225.67857299999991" fill="none" stroke="black" stroke-width="7.137"/>
<line x1="2911.380239" y1="1379.940939" x2="2924.515856" y2="1394.02716" stroke="black" stroke-width="7.137"/>
<line x1="2924.515856" y1="1394.02716" x2="2952.001163" y2="1368.396689" stroke="black" stroke-width="7.137"/>
<line x1="2952.001163" y1="1368.396689" x2="2938.865546" y2="1354.310468" stroke="black" stroke-width="7.137"/>
<line x1="2938.865546" y1="1354.310468" x2="2911.380239" y2="1379.940939" stroke="black" stroke-width="7.137"/>
<line x1="3080.473897" y1="1506.166784" x2="3217.55686" y2="1378.334813" stroke="black" stroke-width="7.137"/>
<line x1="3052.621837" y1="1532.781583" x2="3065.757454" y2="1546.867804" stroke="black" stroke-width="7.137"/>
<line x1="3065.757454" y1="1546.867804" x2="3093.242764" y2="1521.237333" stroke="black" stroke-width="7.137"/>
<line x1="3093.242764" y1="1521.237333" x2="3080.107144" y2="1507.151115" stroke="black" stroke-width="7.137"/>
<line x1="3080.107144" y1="1507.151115" x2="3052.621837" y2="1532.781583" stroke="black" stroke-width="7.137"/>
<path d="m 2950.97046,1369.357834 a 188.376865628772,188.376865628772 0 0 1 266.242835,9.297357000000147" fill="none" stroke="black" stroke-width="7.137"/>
<line x1="4172.82374" y1="469.467578" x2="4172.82374" y2="446.39321" stroke="black" stroke-width="7.137"/>
<line x1="4172.82374" y1="446.39321" x2="4127.800581" y2="446.39321" stroke="black" stroke-width="7.137"/>
<line x1="4127.800581" y1="446.39321" x2="4127.800581" y2="469.467578" stroke="black" stroke-width="7.137"/>
<line x1="4127.800581" y1="469.467578" x2="4172.82374" y2="469.467578" stroke="black" stroke-width="7.137"/>
<line x1="4127.800581" y1="220.714637" x2="3903.24759" y2="220.714637" stroke="black" stroke-width="7.137"/>
<line x1="4173.949318" y1="220.151848" x2="4173.949318" y2="197.07748" stroke="black" stroke-width="7.137"/>
<line x1="4173.949318" y1="197.07748" x2="4128.926162" y2="197.07748" stroke="black" stroke-width="7.137"/>
<line x1="4128.926162" y1="197.07748" x2="4128.926162" y2="220.151848" stroke="black" stroke-width="7.137"/>
<line x1="4128.926162" y1="220.151848" x2="4173.949318" y2="220.151848" stroke="black" stroke-width="7.137"/>
<path d="m 4129.488951,446.39321 a 225.67857250000014,225.67857250000014 0 0 1 -225.67857200000026,-225.678573" fill="none" stroke="black" stroke-width="7.137"/>
<line x1="4172.660905" y1="1828.520329" x2="4172.660905" y2="1805.445961" stroke="black" stroke-width="7.137"/>
<line x1="4172.660905" y1="1805.445961" x2="4127.637747" y2="1805.445961" stroke="black" stroke-width="7.137"/>
<line x1="4127.637747" y1="1805.445961" x2="4127.637747" y2="1828.520329" stroke="black" stroke-width="7.137"/>
<line x1="4127.637747" y1="1828.520329" x2="4172.660905" y2="1828.520329" stroke="black" stroke-width="7.137"/>
<line x1="4127.637747" y1="1579.767388" x2="3903.084755" y2="1579.767388" stroke="black" stroke-width="7.137"/>
<line x1="4173.786483" y1="1579.204599" x2="4173.786483" y2="1556.130231" stroke="black" stroke-width="7.137"/>
<line x1="4173.786483" y1="1556.130231" x2="4128.763328" y2="1556.130231" stroke="black" stroke-width="7.137"/>
<line x1="4128.763328" y1="1556.130231" x2="4128.763328" y2="1579.204599" stroke="black" stroke-width="7.137"/>
<line x1="4128.763328" y1="1579.204599" x2="4173.786483" y2="1579.204599" stroke="black" stroke-width="7.137"/>
<path d="m 4129.326117,1805.445961 a 225.6785729999998,225.6785729999998 0 0 1 -225.6785729999997,-225.67857299999991" fill="none" stroke="black" stroke-width="7.137"/>
<line x1="1793.281943" y1="152.743054" x2="1991.892926" y2="152.743054" stroke="black" stroke-width="7.137"/>
<line x1="1991.892926" y1="152.743054" x2="1991.892926" y2="117.219138" stroke="black" stroke-width="7.137"/>
<line x1="1991.892926" y1="117.219138" x2="1793.281943" y2="117.219138" stroke="black" stroke-width="7.137"/>
<line x1="1793.281943" y1="117.219138" x2="1793.281943" y2="152.743054" stroke="black" stroke-width="7.137"/>
<line x1="1802.566603" y1="152.743054" x2="1802.566603" y2="164.853481" stroke="black" stroke-width="7.137"/>
<line x1="1802.566603" y1="164.853481" x2="1982.204585" y2="164.853481" stroke="black" stroke-width="7.137"/>
<line x1="1982.204585" y1="152.743054" x2="1982.204585" y2="164.853481" stroke="black" stroke-width="7.137"/>
<line x1="2384.583767" y1="153.346657" x2="2583.19475" y2="153.346657" stroke="black" stroke-width="7.137"/>
<line x1="2583.19475" y1="153.346657" x2="2583.19475" y2="117.822741" stroke="black" stroke-width="7.137"/>
<line x1="2583.19475" y1="117.822741" x2="2384.583767" y2="117.822741" stroke="black" stroke-width="7.137"/>
<line x1="2384.583767" y1="117.822741" x2="2384.583767" y2="153.346657" stroke="black" stroke-width="7.137"/>
<line x1="2393.868426" y1="153.346657" x2="2393.868426" y2="165.457084" stroke="black" stroke-width="7.137"/>
<line x1="2393.868426" y1="165.457084" x2="2573.506409" y2="165.457084" stroke="black" stroke-width="7.137"/>
<line x1="2573.506409" y1="153.346657" x2="2573.506409" y2="165.457084" stroke="black" stroke-width="7.137"/>
<line x1="2794.835164" y1="152.713472" x2="2991.001705" y2="152.713472" stroke="black" stroke-width="7.137"/>
<line x1="2991.001705" y1="152.713472" x2="2991.001705" y2="117.626772" stroke="black" stroke-width="7.137"/>
<line x1="2991.001705" y1="117.626772" x2="2794.835164" y2="117.626772" stroke="black" stroke-width="7.137"/>
<line x1="2794.835164" y1="117.626772" x2="2794.835164" y2="152.713472" stroke="black" stroke-width="7.137"/>
<line x1="2804.005552" y1="152.713472" x2="2804.005552" y2="164.674846" stroke="black" stroke-width="7.137"/>
<line x1="2804.005552" y1="164.674846" x2="2981.432606" y2="164.674846" stroke="black" stroke-width="7.137"/>
<line x1="2981.432606" y1="152.713472" x2="2981.432606" y2="164.674846" stroke="black" stroke-width="7.137"/>
<line x1="3213.800403" y1="152.452572" x2="3409.966945" y2="152.452572" stroke="black" stroke-width="7.137"/>
<line x1="3409.966945" y1="152.452572" x2="3409.966945" y2="117.365871" stroke="black" stroke-width="7.137"/>
<line x1="3409.966945" y1="117.365871" x2="3213.800403" y2="117.365871" stroke="black" stroke-width="7.137"/>
<line x1="3213.800403" y1="117.365871" x2="3213.800403" y2="152.452572" stroke="black" stroke-width="7.137"/>
<line x1="3222.970792" y1="152.452572" x2="3222.970792" y2="164.413946" stroke="black" stroke-width="7.137"/>
<line x1="3222.970792" y1="164.413946" x2="3400.397846" y2="164.413946" stroke="black" stroke-width="7.137"/>
<line x1="3400.397846" y1="152.452572" x2="3400.397846" y2="164.413946" stroke="black" stroke-width="7.137"/>
<line x1="4139.032249" y1="1222.250278" x2="4139.032249" y2="1420.861261" stroke="black" stroke-width="7.137"/>
<line x1="4139.032249" y1="1420.861261" x2="4174.556166" y2="1420.861261" stroke="black" stroke-width="7.137"/>
<line x1="4174.556166" y1="1420.861261" x2="4174.556166" y2="1222.250278" stroke="black" stroke-width="7.137"/>
<line x1="4174.556166" y1="1222.250278" x2="4139.032249" y2="1222.250278" stroke="black" stroke-width="7.137"/>
<line x1="4139.032249" y1="1231.534938" x2="4126.921823" y2="1231.534938" stroke="black" stroke-width="7.137"/>
<line x1="4126.921823" y1="1231.534938" x2="4126.921823" y2="1411.17292" stroke="black" stroke-width="7.137"/>
<line x1="4139.032249" y1="1411.17292" x2="4126.921823" y2="1411.17292" stroke="black" stroke-width="7.137"/>
<line x1="1841.151775" y1="1873.253069" x2="1642.540792" y2="1873.253069" stroke="black" stroke-width="7.137"/>
<line x1="1642.540792" y1="1873.253069" x2="1642.540792" y2="1908.776985" stroke="black" stroke-width="7.137"/>
<line x1="1642.540792" y1="1908.776985" x2="1841.151775" y2="1908.776985" stroke="black" stroke-width="7.137"/>
<line x1="1841.151775" y1="1908.776985" x2="1841.151775" y2="1873.253069" stroke="black" stroke-width="7.137"/>
<line x1="1831.867116" y1="1873.253069" x2="1831.867116" y2="1861.142642" stroke="black" stroke-width="7.137"/>
<line x1="1831.867116" y1="1861.142642" x2="1652.229133" y2="1861.142642" stroke="black" stroke-width="7.137"/>
<line x1="1652.229133" y1="1873.253069" x2="1652.229133" y2="1861.142642" stroke="black" stroke-width="7.137"/>
<line x1="2488.810945" y1="1873.721868" x2="2290.199962" y2="1873.721868" stroke="black" stroke-width="7.137"/>
<line x1="2290.199962" y1="1873.721868" x2="2290.199962" y2="1909.245784" stroke="black" stroke-width="7.137"/>
<line x1="2290.199962" y1="1909.245784" x2="2488.810945" y2="1909.245784" stroke="black" stroke-width="7.137"/>
<line x1="2488.810945" y1="1909.245784" x2="2488.810945" y2="1873.721868" stroke="black" stroke-width="7.137"/>
<line x1="2479.526285" y1="1873.721868" x2="2479.526285" y2="1861.611442" stroke="black" stroke-width="7.137"/>
<line x1="2479.526285" y1="1861.611442" x2="2299.888303" y2="1861.611442" stroke="black" stroke-width="7.137"/>
<line x1="2299.888303" y1="1873.721868" x2="2299.888303" y2="1861.611442" stroke="black" stroke-width="7.137"/>
<line x1="2694.576466" y1="1848.64488" x2="2694.576466" y2="1664.66888" stroke="black" stroke-width="7.137"/>
<line x1="2694.576466" y1="1664.66888" x2="2743.742466" y2="1664.66888" stroke="black" stroke-width="7.137"/>
<line x1="2743.742466" y1="1848.64488" x2="2743.742466" y2="1664.66888" stroke="black" stroke-width="7.137"/>
<line x1="2694.576466" y1="1848.64488" x2="2743.742466" y2="1848.64488" stroke="black" stroke-width="7.137"/>
<line x1="2666.821466" y1="1807.01238" x2="2694.576466" y2="1807.01238" stroke="black" stroke-width="7.137"/>
<line x1="2694.576466" y1="1707.88738" x2="2665.235466" y2="1707.88738" stroke="black" stroke-width="7.137"/>
<circle cx="2621.620466" cy="1758.24288" r="66.61200000000001" fill="none" stroke="black" stroke-width="7.137"/>
<circle cx="2621.620466" cy="1758.24288" r="57.096000000000004" fill="none" stroke="black" stroke-width="7.137"/>
<line x1="3481.035906" y1="1456.357385" x2="3275.025018" y2="1493.610219" stroke="black" stroke-width="7.137"/>
<line x1="3275.025018" y1="1493.610219" x2="3316.341803" y2="1722.095022" stroke="black" stroke-width="7.137"/>
<line x1="3316.341803" y1="1722.095022" x2="3522.352691" y2="1684.842188" stroke="black" stroke-width="7.137"/>
<line x1="3522.352691" y1="1684.842188" x2="3481.035906" y2="1456.357385" stroke="black" stroke-width="7.137"/>
<line x1="3486.793163" y1="1488.195431" x2="3280.782275" y2="1525.448268" stroke="black" stroke-width="7.137"/>
<line x1="3088.993397" y1="538.773199" x2="3087.536536" y2="569.665865" stroke="black" stroke-width="7.137"/>
<line x1="3087.536536" y1="569.665865" x2="3297.131403" y2="579.550109" stroke="black" stroke-width="7.137"/>
<line x1="3297.131403" y1="579.550109" x2="3298.588265" y2="548.657443" stroke="black" stroke-width="7.137"/>
<line x1="3298.588265" y1="548.657443" x2="3088.993397" y2="538.773199" stroke="black" stroke-width="7.137"/>
<line x1="3079.378114" y1="742.664801" x2="3077.921252" y2="773.55747" stroke="black" stroke-width="7.137"/>
<line x1="3077.921252" y1="773.55747" x2="3287.51612" y2="783.441711" stroke="black" stroke-width="7.137"/>
<line x1="3287.51612" y1="783.441711" x2="3288.972978" y2="752.549041" stroke="black" stroke-width="7.137"/>
<line x1="3288.972978" y1="752.549041" x2="3079.378114" y2="742.664801" stroke="black" stroke-width="7.137"/>
<line x1="3087.558952" y1="569.190592" x2="3079.378114" y2="742.664801" stroke="black" stroke-width="7.137"/>
<line x1="3296.225683" y1="578.554735" x2="3321.110493" y2="606.402688" stroke="black" stroke-width="7.137"/>
<line x1="3315.395116" y1="727.596998" x2="3288.000021" y2="752.979491" stroke="black" stroke-width="7.137"/>
<line x1="3321.200146" y1="604.5016" x2="3315.305463" y2="729.498083" stroke="black" stroke-width="7.137"/>
<line x1="3132.212088" y1="571.772711" x2="3124.031249" y2="745.24692" stroke="black" stroke-width="7.137"/>
<line x1="2718.081877" y1="1554.357663" x2="2742.664877" y2="1535.722166" stroke="black" stroke-width="7.137"/>
<line x1="2742.664877" y1="1535.722166" x2="2742.664877" y2="1388.224166" stroke="black" stroke-width="7.137"/>
<line x1="2742.664877" y1="1388.224166" x2="2714.513377" y2="1369.192163" stroke="black" stroke-width="7.137"/>
<line x1="2715.306377" y1="1532.550163" x2="2715.306377" y2="1389.413666" stroke="black" stroke-width="7.137"/>
<circle cx="2693.498877" cy="1463.162663" r="13.0845" fill="none" stroke="black" stroke-width="7.137"/>
<path d="m 2715.974565,1530.994954 a 74.9385009642222,74.9385009642222 0 1 1 -0.40255200000001423,-139.78527899999995" fill="none" stroke="black" stroke-width="7.137"/>
<path d="m 2718.74007,1554.311304 a 95.55649809564125,95.55649809564125 0 1 1 -3.0788410000000113,-184.69990700000017" fill="none" stroke="black" stroke-width="7.137"/>
<line x1="3448.740287" y1="521.73947" x2="3976.265716" y2="521.73947" stroke="black" stroke-width="7.137"/>
<line x1="3981.571781" y1="520.402986" x2="3981.571781" y2="702.935364" stroke="black" stroke-width="7.137"/>
<line x1="3449.363252" y1="704.480078" x2="3981.981384" y2="704.480078" stroke="black" stroke-width="7.137"/>
<line x1="3450.349084" y1="522.671458" x2="3450.349084" y2="704.124328" stroke="black" stroke-width="7.137"/>
<line x1="3464.160876" y1="536.613705" x2="3629.902355" y2="536.613705" stroke="black" stroke-width="7.137"/>
<line x1="3629.902355" y1="536.613705" x2="3629.902355" y2="689.60584" stroke="black" stroke-width="7.137"/>
<line x1="3464.160876" y1="689.60584" x2="3629.902355" y2="689.60584" stroke="black" stroke-width="7.137"/>
<line x1="3464.160876" y1="536.613705" x2="3464.160876" y2="689.60584" stroke="black" stroke-width="7.137"/>
<line x1="3655.401045" y1="546.175714" x2="3772.270038" y2="546.175714" stroke="black" stroke-width="7.137"/>
<line x1="3655.401045" y1="572.736847" x2="3772.270038" y2="572.736847" stroke="black" stroke-width="7.137"/>
<line x1="3656.46349" y1="600.360427" x2="3772.270038" y2="600.360427" stroke="black" stroke-width="7.137"/>
<line x1="3656.46349" y1="626.921563" x2="3772.270038" y2="626.921563" stroke="black" stroke-width="7.137"/>
<line x1="3655.401045" y1="653.482698" x2="3772.270038" y2="653.482698" stroke="black" stroke-width="7.137"/>
<line x1="3655.401045" y1="680.043833" x2="3772.270038" y2="680.043833" stroke="black" stroke-width="7.137"/>
<line x1="3527.907599" y1="688.543395" x2="3527.907599" y2="670.481824" stroke="black" stroke-width="7.137"/>
<line x1="3527.907599" y1="670.481824" x2="3568.280523" y2="670.481824" stroke="black" stroke-width="7.137"/>
<line x1="3568.280523" y1="670.481824" x2="3568.280523" y2="687.480949" stroke="black" stroke-width="7.137"/>
<line x1="3799.893619" y1="536.613705" x2="3965.635101" y2="536.613705" stroke="black" stroke-width="7.137"/>
<line x1="3965.635101" y1="536.613705" x2="3965.635101" y2="689.60584" stroke="black" stroke-width="7.137"/>
<line x1="3799.893619" y1="689.60584" x2="3965.635101" y2="689.60584" stroke="black" stroke-width="7.137"/>
<line x1="3799.893619" y1="536.613705" x2="3799.893619" y2="689.60584" stroke="black" stroke-width="7.137"/>
<line x1="3863.640342" y1="689.60584" x2="3863.640342" y2="671.544269" stroke="black" stroke-width="7.137"/>
<line x1="3863.640342" y1="671.544269" x2="3904.013266" y2="671.544269" stroke="black" stroke-width="7.137"/>
<line x1="3904.013266" y1="671.544269" x2="3904.013266" y2="688.543395" stroke="black" stroke-width="7.137"/>
<circle cx="3610.778338" cy="555.737721" r="9.562008527221566" fill="none" stroke="black" stroke-width="7.137"/>
<circle cx="3946.511084" cy="556.800167" r="9.562008527221566" fill="none" stroke="black" stroke-width="7.137"/>
<line x1="2419.129575" y1="801.197504" x2="2419.129575" y2="407.869504" stroke="black" stroke-width="7.137"/>
<line x1="2419.129575" y1="407.869504" x2="2234.360575" y2="407.869504" stroke="black" stroke-width="7.137"/>
<line x1="2234.360575" y1="407.869504" x2="2234.360575" y2="801.197504" stroke="black" stroke-width="7.137"/>
<line x1="2234.360575" y1="801.197504" x2="2419.129575" y2="801.197504" stroke="black" stroke-width="7.137"/>
<line x1="2234.360575" y1="641.804504" x2="2153.474575" y2="641.804504" stroke="black" stroke-width="7.137"/>
<line x1="2153.474575" y1="641.804504" x2="2153.474575" y2="720.311504" stroke="black" stroke-width="7.137"/>
<line x1="2153.474575" y1="720.311504" x2="2234.360575" y2="720.311504" stroke="black" stroke-width="7.137"/>
<line x1="2170.920575" y1="719.518504" x2="2170.920575" y2="641.804504" stroke="black" stroke-width="7.137"/>
<line x1="2500.808575" y1="720.311504" x2="2500.808575" y2="641.804504" stroke="black" stroke-width="7.137"/>
<line x1="2500.808575" y1="641.804504" x2="2419.129575" y2="641.804504" stroke="black" stroke-width="7.137"/>
<line x1="2419.129575" y1="720.311504" x2="2500.808575" y2="720.311504" stroke="black" stroke-width="7.137"/>
<line x1="2483.362575" y1="719.518504" x2="2483.362575" y2="641.804504" stroke="black" stroke-width="7.137"/>
<line x1="2234.360575" y1="490.341504" x2="2153.474575" y2="490.341504" stroke="black" stroke-width="7.137"/>
<line x1="2153.474575" y1="490.341504" x2="2153.474575" y2="568.848504" stroke="black" stroke-width="7.137"/>
<line x1="2153.474575" y1="568.848504" x2="2234.360575" y2="568.848504" stroke="black" stroke-width="7.137"/>
<line x1="2170.920575" y1="568.848504" x2="2170.920575" y2="490.341504" stroke="black" stroke-width="7.137"/>
<line x1="2500.808575" y1="568.848504" x2="2500.808575" y2="490.341504" stroke="black" stroke-width="7.137"/>
<line x1="2500.808575" y1="490.341504" x2="2419.129575" y2="490.341504" stroke="black" stroke-width="7.137"/>
<line x1="2419.129575" y1="568.848504" x2="2500.808575" y2="568.848504" stroke="black" stroke-width="7.137"/>
<line x1="2483.362575" y1="568.848504" x2="2483.362575" y2="490.341504" stroke="black" stroke-width="7.137"/>
<line x1="386.924078" y1="187.64057" x2="196.604078" y2="187.64057" stroke="black" stroke-width="7.137"/>
<line x1="196.604078" y1="187.64057" x2="196.604078" y2="652.02137" stroke="black" stroke-width="7.137"/>
<line x1="196.604078" y1="652.02137" x2="386.924078" y2="652.02137" stroke="black" stroke-width="7.137"/>
<line x1="386.924078" y1="652.02137" x2="386.924078" y2="628.23137" stroke="black" stroke-width="7.137"/>
<line x1="386.924078" y1="628.23137" x2="219.442478" y2="628.23137" stroke="black" stroke-width="7.137"/>
<line x1="219.442478" y1="628.23137" x2="219.442478" y2="212.38217" stroke="black" stroke-width="7.137"/>
<line x1="219.442478" y1="212.38217" x2="386.924078" y2="212.38217" stroke="black" stroke-width="7.137"/>
<line x1="386.924078" y1="212.38217" x2="386.924078" y2="187.64057" stroke="black" stroke-width="7.137"/>
<line x1="381.214478" y1="212.38217" x2="381.214478" y2="628.23137" stroke="black" stroke-width="7.137"/>
<line x1="382.166078" y1="419.83097" x2="220.394078" y2="419.83097" stroke="black" stroke-width="7.137"/>
<line x1="886.335361" y1="390.612004" x2="825.825978" y2="190.195255" stroke="black" stroke-width="7.137"/>
<line x1="825.825978" y1="190.195255" x2="603.545579" y2="257.305665" stroke="black" stroke-width="7.137"/>
<line x1="603.545579" y1="257.305665" x2="664.054965" y2="457.722414" stroke="black" stroke-width="7.137"/>
<line x1="664.054965" y1="457.722414" x2="886.335361" y2="390.612004" stroke="black" stroke-width="7.137"/>
<line x1="855.361866" y1="399.963453" x2="794.85248" y2="199.546704" stroke="black" stroke-width="7.137"/>
<line x1="2528.106502" y1="1236.385132" x2="2624.047579" y2="1135.284335" stroke="black" stroke-width="7.137"/>
<line x1="2624.047579" y1="1135.284335" x2="2725.355549" y2="1231.422008" stroke="black" stroke-width="7.137"/>
<line x1="2725.355549" y1="1231.422008" x2="2629.414476" y2="1332.522806" stroke="black" stroke-width="7.137"/>
<line x1="2629.414476" y1="1332.522806" x2="2528.106502" y2="1236.385132" stroke="black" stroke-width="7.137"/>
<line x1="2527.702729" y1="1236.395704" x2="2725.355549" y2="1231.422008" stroke="black" stroke-width="7.137"/>
<line x1="2629.2073" y1="1332.326205" x2="2623.850978" y2="1135.491507" stroke="black" stroke-width="7.137"/>
<line x1="328.732136" y1="1022.941195" x2="394.218415" y2="1154.28635" stroke="black" stroke-width="7.137"/>
<line x1="394.218415" y1="1154.28635" x2="262.60411" y2="1219.906824" stroke="black" stroke-width="7.137"/>
<line x1="262.60411" y1="1219.906824" x2="197.117831" y2="1088.561666" stroke="black" stroke-width="7.137"/>
<line x1="197.117831" y1="1088.561666" x2="328.732136" y2="1022.941195" stroke="black" stroke-width="7.137"/>
<line x1="328.867095" y1="1022.53785" x2="262.60411" y2="1219.906824" stroke="black" stroke-width="7.137"/>
<line x1="197.386981" y1="1088.427474" x2="394.084224" y2="1154.017199" stroke="black" stroke-width="7.137"/>
<line x1="2795.013938" y1="1653.251808" x2="2989.742006" y2="1653.251808" stroke="black" stroke-width="7.137"/>
<line x1="2989.742006" y1="1653.251808" x2="2989.742006" y2="1848.378908" stroke="black" stroke-width="7.137"/>
<line x1="2989.742006" y1="1848.378908" x2="2795.013938" y2="1848.378908" stroke="black" stroke-width="7.137"/>
<line x1="2795.013938" y1="1848.378908" x2="2795.013938" y2="1653.251808" stroke="black" stroke-width="7.137"/>
<line x1="2794.614907" y1="1652.852774" x2="2989.742006" y2="1848.378908" stroke="black" stroke-width="7.137"/>
<line x1="2795.013938" y1="1847.979873" x2="2989.342972" y2="1653.251808" stroke="black" stroke-width="7.137"/>
<line x1="187.012721" y1="746.028976" x2="187.012721" y2="359.167086" stroke="black" stroke-width="7.137"/>
<line x1="187.012721" y1="359.167086" x2="127.374781" y2="359.167086" stroke="black" stroke-width="7.137"/>
<line x1="127.374781" y1="359.167086" x2="127.374781" y2="746.028976" stroke="black" stroke-width="7.137"/>
<line x1="127.374781" y1="746.028976" x2="187.012721" y2="746.028976" stroke="black" stroke-width="7.137"/>
<line x1="128.15949" y1="709.93233" x2="186.228009" y2="709.93233" stroke="black" stroke-width="7.137"/>
<line x1="128.15949" y1="396.04844" x2="188.582137" y2="396.04844" stroke="black" stroke-width="7.137"/>
<line x1="155.624331" y1="710.717039" x2="155.624331" y2="396.833152" stroke="black" stroke-width="7.137"/>
<line x1="2240.449955" y1="1365.887577" x2="2240.449955" y2="1388.961945" stroke="black" stroke-width="7.137"/>
<line x1="2240.449955" y1="1388.961945" x2="2285.473114" y2="1388.961945" stroke="black" stroke-width="7.137"/>
<line x1="2285.473114" y1="1388.961945" x2="2285.473114" y2="1365.887577" stroke="black" stroke-width="7.137"/>
<line x1="2285.473114" y1="1365.887577" x2="2240.449955" y2="1365.887577" stroke="black" stroke-width="7.137"/>
<line x1="2285.473114" y1="1614.640518" x2="2510.026105" y2="1614.640518" stroke="black" stroke-width="7.137"/>
<line x1="2239.324377" y1="1615.203307" x2="2239.324377" y2="1638.277675" stroke="black" stroke-width="7.137"/>
<line x1="2239.324377" y1="1638.277675" x2="2284.347533" y2="1638.277675" stroke="black" stroke-width="7.137"/>
<line x1="2284.347533" y1="1638.277675" x2="2284.347533" y2="1615.203307" stroke="black" stroke-width="7.137"/>
<line x1="2284.347533" y1="1615.203307" x2="2239.324377" y2="1615.203307" stroke="black" stroke-width="7.137"/>
<path d="m 2283.784744,1388.961945 a 225.67857249999986,225.67857249999986 0 0 1 225.6785719999998,225.67857299999991" fill="none" stroke="black" stroke-width="7.137"/>
<line x1="3007.639638" y1="1067.175132" x2="3158.994254" y2="1211.812746" stroke="black" stroke-width="7.137"/>
<line x1="3158.994254" y1="1211.812746" x2="3319.410516" y2="1043.946715" stroke="black" stroke-width="7.137"/>
<line x1="3319.410516" y1="1043.946715" x2="3168.0559" y2="899.309101" stroke="black" stroke-width="7.137"/>
<line x1="3168.0559" y1="899.309101" x2="3007.639638" y2="1067.175132" stroke="black" stroke-width="7.137"/>
<line x1="3029.992719" y1="1043.783963" x2="3181.347338" y2="1188.42158" stroke="black" stroke-width="7.137"/>
<line x1="1523.051869" y1="1849.265666" x2="1703.435659" y2="1743.011494" stroke="black" stroke-width="7.137"/>
<line x1="1703.435659" y1="1743.011494" x2="1585.590124" y2="1542.949476" stroke="black" stroke-width="7.137"/>
<line x1="1585.590124" y1="1542.949476" x2="1405.206334" y2="1649.203645" stroke="black" stroke-width="7.137"/>
<line x1="1405.206334" y1="1649.203645" x2="1523.051869" y2="1849.265666" stroke="black" stroke-width="7.137"/>
<line x1="1506.630768" y1="1821.388172" x2="1687.014557" y2="1715.134001" stroke="black" stroke-width="7.137"/>
</g>
</svg>
