<?xml version="1.0"?>
<svg xmlns:xlink="http://www.w3.org/1999/xlink" width="4348.812" height="2226.744">
<image x="0" y="0" width="4348.812" height="2226.744" xlink:href="ground16-10.png"/>
<g style="stroke-linecap:round">
<line x1="403.073634" y1="1261.405573" x2="403.073634" y2="1284.479941" stroke="black" stroke-width="7.137"/>
<line x1="403.073634" y1="1284.479941" x2="448.096792" y2="1284.479941" stroke="black" stroke-width="7.137"/>
<line x1="448.096792" y1="1284.479941" x2="448.096792" y2="1261.405573" stroke="black" stroke-width="7.137"/>
<line x1="448.096792" y1="1261.405573" x2="403.073634" y2="1261.405573" stroke="black" stroke-width="7.137"/>
<line x1="448.096792" y1="1510.158514" x2="672.649784" y2="1510.158514" stroke="black" stroke-width="7.137"/>
<line x1="401.948056" y1="1510.721303" x2="401.948056" y2="1533.795671" stroke="black" stroke-width="7.137"/>
<line x1="401.948056" y1="1533.795671" x2="446.971211" y2="1533.795671" stroke="black" stroke-width="7.137"/>
<line x1="446.971211" y1="1533.795671" x2="446.971211" y2="1510.721303" stroke="black" stroke-width="7.137"/>
<line x1="446.971211" y1="1510.721303" x2="401.948056" y2="1510.721303" stroke="black" stroke-width="7.137"/>
<path d="m 446.408422,1284.479941 a 225.67857299999997,225.67857299999997 0 0 1 225.67857300000003,225.67857299999991" fill="none" stroke="black" stroke-width="7.137"/>
<line x1="1917.663575" y1="1638.130602" x2="1917.663575" y2="1615.056234" stroke="black" stroke-width="7.137"/>
<line x1="1917.663575" y1="1615.056234" x2="1872.640416" y2="1615.056234" stroke="black" stroke-width="7.137"/>
<line x1="1872.640416" y1="1615.056234" x2="1872.640416" y2="1638.130602" stroke="black" stroke-width="7.137"/>
<line x1="1872.640416" y1="1638.130602" x2="1917.663575" y2="1638.130602" stroke="black" stroke-width="7.137"/>
<line x1="1872.640416" y1="1389.377661" x2="1648.087424" y2="1389.377661" stroke="black" stroke-width="7.137"/>
<line x1="1918.789152" y1="1388.814872" x2="1918.789152" y2="1365.740504" stroke="black" stroke-width="7.137"/>
<line x1="1918.789152" y1="1365.740504" x2="1873.765997" y2="1365.740504" stroke="black" stroke-width="7.137"/>
<line x1="1873.765997" y1="1365.740504" x2="1873.765997" y2="1388.814872" stroke="black" stroke-width="7.137"/>
<line x1="1873.765997" y1="1388.814872" x2="1918.789152" y2="1388.814872" stroke="black" stroke-width="7.137"/>
<path d="m 1874.328786,1615.056234 a 225.67857300000003,225.67857300000003 0 0 1 -225.67857300000014,-225.67857299999991" fill="none" stroke="black" stroke-width="7.137"/>
<line x1="2911.380239" y1="1379.940939" x2="2924.515856" y2="1394.02716" stroke="black" stroke-width="7.137"/>
<line x1="2924.515856" y1="1394.02716" x2="2952.001163" y2="1368.396689" stroke="black" stroke-width="7.137"/>
<line x1="2952.001163" y1="1368.396689" x2="2938.865546" y2="1354.310468" stroke="black" stroke-width="7.137"/>
<line x1="2938.865546" y1="1354.310468" x2="2911.380239" y2="1379.940939" stroke="black" stroke-width="7.137"/>
<line x1="3080.473897" y1="1506.166784" x2="3217.55686" y2="1378.334813" stroke="black" stroke-width="7.137"/>
<line x1="3052.621837" y1="1532.781583" x2="3065.757454" y2="1546.867804" stroke="black" stroke-width="7.137"/>
<line x1="3065.757454" y1="1546.867804" x2="3093.242764" y2="1521.237333" stroke="black" stroke-width="7.137"/>
<line x1="3093.242764" y1="1521.237333" x2="3080.107144" y2="1507.151115" stroke="black" stroke-width="7.137"/>
<line x1="3080.107144" y1="1507.151115" x2="3052.621837" y2="1532.781583" stroke="black" stroke-width="7.137"/>
<path d="m 2950.97046,1369.357834 a 188.376865628772,188.376865628772 0 0 1 266.242835,9.297357000000147" fill="none" stroke="black" stroke-width="7.137"/>
<line x1="4172.82374" y1="469.467578" x2="4172.82374" y2="446.39321" stroke="black" stroke-width="7.137"/>
<line x1="4172.82374" y1="446.39321" x2="4127.800581" y2="446.39321" stroke="black" stroke-width="7.137"/>
<line x1="4127.800581" y1="446.39321" x2="4127.800581" y2="469.467578" stroke="black" stroke-width="7.137"/>
<line x1="4127.800581" y1="469.467578" x2="4172.82374" y2="469.467578" stroke="black" stroke-width="7.137"/>
<line x1="4127.800581" y1="220.714637" x2="3903.24759" y2="220.714637" stroke="black" stroke-width="7.137"/>
<line x1="4173.949318" y1="220.151848" x2="4173.949318" y2="197.07748" stroke="black" stroke-width="7.137"/>
<line x1="4173.949318" y1="197.07748" x2="4128.926162" y2="197.07748" stroke="black" stroke-width="7.137"/>
<line x1="4128.926162" y1="197.07748" x2="4128.926162" y2="220.151848" stroke="black" stroke-width="7.137"/>
<line x1="4128.926162" y1="220.151848" x2="4173.949318" y2="220.151848" stroke="black" stroke-width="7.137"/>
<path d="m 4129.488951,446.39321 a 225.67857250000014,225.67857250000014 0 0 1 -225.67857200000026,-225.678573" fill="none" stroke="black" stroke-width="7.137"/>
<line x1="4172.660905" y1="1828.520329" x2="4172.660905" y2="1805.445961" stroke="black" stroke-width="7.137"/>
<line x1="4172.660905" y1="1805.445961" x2="4127.637747" y2="1805.445961" stroke="black" stroke-width="7.137"/>
<line x1="4127.637747" y1="1805.445961" x2="4127.637747" y2="1828.520329" stroke="black" stroke-width="7.137"/>
<line x1="4127.637747" y1="1828.520329" x2="4172.660905" y2="1828.520329" stroke="black" stroke-width="7.137"/>
<line x1="4127.637747" y1="1579.767388" x2="3903.084755" y2="1579.767388" stroke="black" stroke-width="7.137"/>
<line x1="4173.786483" y1="1579.204599" x2="4173.786483" y2="1556.130231" stroke="black" stroke-width="7.137"/>
<line x1="4173.786483" y1="1556.130231" x2="4128.763328" y2="1556.130231" stroke="black" stroke-width="7.137"/>
<line x1="4128.763328" y1="1556.130231" x2="4128.763328" y2="1579.204599" stroke="black" stroke-width="7.137"/>
<line x1="4128.763328" y1="1579.204599" x2="4173.786483" y2="1579.204599" stroke="black" stroke-width="7.137"/>
<path d="m 4129.326117,1805.445961 a 225.6785729999998,225.6785729999998 0 0 1 -225.6785729999997,-225.67857299999991" fill="none" stroke="black" stroke-width="7.137"/>
<line x1="1793.281943" y1="152.743054" x2="1991.892926" y2="152.743054" stroke="black" stroke-width="7.137"/>
<line x1="1991.892926" y1="152.743054" x2="1991.892926" y2="117.219138" stroke="black" stroke-width="7.137"/>
<line x1="1991.892926" y1="117.219138" x2="1793.281943" y2="117.219138" stroke="black" stroke-width="7.137"/>
<line x1="1793.281943" y1="117.219138" x2="1793.281943" y2="152.743054" stroke="black" stroke-width="7.137"/>
<line x1="1802.566603" y1="152.743054" x2="1802.566603" y2="164.853481" stroke="black" stroke-width="7.137"/>
<line x1="1802.566603" y1="164.853481" x2="1982.204585" y2="164.853481" stroke="black" stroke-width="7.137"/>
<line x1="1982.204585" y1="152.743054" x2="1982.204585" y2="164.853481" stroke="black" stroke-width="7.137"/>
<line x1="2384.583767" y1="153.346657" x2="2583.19475" y2="153.346657" stroke="black" stroke-width="7.137"/>
<line x1="2583.19475" y1="153.346657" x2="2583.19475" y2="117.822741" stroke="black" stroke-width="7.137"/>
<line x1="2583.19475" y1="117.822741" x2="2384.583767" y2="117.822741" stroke="black" stroke-width="7.137"/>
<line x1="2384.583767" y1="117.822741" x2="2384.583767" y2="153.346657" stroke="black" stroke-width="7.137"/>
<line x1="2393.868426" y1="153.346657" x2="2393.868426" y2="165.457084" stroke="black" stroke-width="7.137"/>
<line x1="2393.868426" y1="165.457084" x2="2573.506409" y2="165.457084" stroke="black" stroke-width="7.137"/>
<line x1="2573.506409" y1="153.346657" x2="2573.506409" y2="165.457084" stroke="black" stroke-width="7.137"/>
<line x1="2794.835164" y1="152.713472" x2="2991.001705" y2="152.713472" stroke="black" stroke-width="7.137"/>
<line x1="2991.001705" y1="152.713472" x2="2991.001705" y2="117.626772" stroke="black" stroke-width="7.137"/>
<line x1="2991.001705" y1="117.626772" x2="2794.835164" y2="117.626772" stroke="black" stroke-width="7.137"/>
<line x1="2794.835164" y1="117.626772" x2="2794.835164" y2="152.713472" stroke="black" stroke-width="7.137"/>
<line x1="2804.005552" y1="152.713472" x2="2804.005552" y2="164.674846" stroke="black" stroke-width="7.137"/>
<line x1="2804.005552" y1="164.674846" x2="2981.432606" y2="164.674846" stroke="black" stroke-width="7.137"/>
<line x1="2981.432606" y1="152.713472" x2="2981.432606" y2="164.674846" stroke="black" stroke-width="7.137"/>
<line x1="3213.800403" y1="152.452572" x2="3409.966945" y2="152.452572" stroke="black" stroke-width="7.137"/>
<line x1="3409.966945" y1="152.452572" x2="3409.966945" y2="117.365871" stroke="black" stroke-width="7.137"/>
<line x1="3409.966945" y1="117.365871" x2="3213.800403" y2="117.365871" stroke="black" stroke-width="7.137"/>
<line x1="3213.800403" y1="117.365871" x2="3213.800403" y2="152.452572" stroke="black" stroke-width="7.137"/>
<line x1="3222.970792" y1="152.452572" x2="3222.970792" y2="164.413946" stroke="black" stroke-width="7.137"/>
<line x1="3222.970792" y1="164.413946" x2="3400.397846" y2="164.413946" stroke="black" stroke-width="7.137"/>
<line x1="3400.397846" y1="152.452572" x2="3400.397846" y2="164.413946" stroke="black" stroke-width="7.137"/>
<line x1="4139.032249" y1="1222.250278" x2="4139.032249" y2="1420.861261" stroke="black" stroke-width="7.137"/>
<line x1="4139.032249" y1="1420.861261" x2="4174.556166" y2="1420.861261" stroke="black" stroke-width="7.137"/>
<line x1="4174.556166" y1="1420.861261" x2="4174.556166" y2="1222.250278" stroke="black" stroke-width="7.137"/>
<line x1="4174.556166" y1="1222.250278" x2="4139.032249" y2="1222.250278" stroke="black" stroke-width="7.137"/>
<line x1="4139.032249" y1="1231.534938" x2="4126.921823" y2="1231.534938" stroke="black" stroke-width="7.137"/>
<line x1="4126.921823" y1="1231.534938" x2="4126.921823" y2="1411.17292" stroke="black" stroke-width="7.137"/>
<line x1="4139.032249" y1="1411.17292" x2="4126.921823" y2="1411.17292" stroke="black" stroke-width="7.137"/>
<line x1="1841.151775" y1="1873.253069" x2="1642.540792" y2="1873.253069" stroke="black" stroke-width="7.137"/>
<line x1="1642.540792" y1="1873.253069" x2="1642.540792" y2="1908.776985" stroke="black" stroke-width="7.137"/>
<line x1="1642.540792" y1="1908.776985" x2="1841.151775" y2="1908.776985" stroke="black" stroke-width="7.137"/>
<line x1="1841.151775" y1="1908.776985" x2="1841.151775" y2="1873.253069" stroke="black" stroke-width="7.137"/>
<line x1="1831.867116" y1="1873.253069" x2="1831.867116" y2="1861.142642" stroke="black" stroke-width="7.137"/>
<line x1="1831.867116" y1="1861.142642" x2="1652.229133" y2="1861.142642" stroke="black" stroke-width="7.137"/>
<line x1="1652.229133" y1="1873.253069" x2="1652.229133" y2="1861.142642" stroke="black" stroke-width="7.137"/>
<line x1="2488.810945" y1="1873.721868" x2="2290.199962" y2="1873.721868" stroke="black" stroke-width="7.137"/>
<line x1="2290.199962" y1="1873.721868" x2="2290.199962" y2="1909.245784" stroke="black" stroke-width="7.137"/>
<line x1="2290.199962" y1="1909.245784" x2="2488.810945" y2="1909.245784" stroke="black" stroke-width="7.137"/>
<line x1="2488.810945" y1="1909.245784" x2="2488.810945" y2="1873.721868" stroke="black" stroke-width="7.137"/>
<line x1="2479.526285" y1="1873.721868" x2="2479.526285" y2="1861.611442" stroke="black" stroke-width="7.137"/>
<line x1="2479.526285" y1="1861.611442" x2="2299.888303" y2="1861.611442" stroke="black" stroke-width="7.137"/>
<line x1="2299.888303" y1="1873.721868" x2="2299.888303" y2="1861.611442" stroke="black" stroke-width="7.137"/>
<line x1="2694.576466" y1="1848.64488" x2="2694.576466" y2="1664.66888" stroke="black" stroke-width="7.137"/>
<line x1="2694.576466" y1="1664.66888" x2="2743.742466" y2="1664.66888" stroke="black" stroke-width="7.137"/>
<line x1="2743.742466" y1="1848.64488" x2="2743.742466" y2="1664.66888" stroke="black" stroke-width="7.137"/>
<line x1="2694.576466" y1="1848.64488" x2="2743.742466" y2="1848.64488" stroke="black" stroke-width="7.137"/>
<line x1="2666.821466" y1="1807.01238" x2="2694.576466" y2="1807.01238" stroke="black" stroke-width="7.137"/>
<line x1="2694.576466" y1="1707.88738" x2="2665.235466" y2="1707.88738" stroke="black" stroke-width="7.137"/>
<circle cx="2621.620466" cy="1758.24288" r="66.61200000000001" fill="none" stroke="black" stroke-width="7.137"/>
<circle cx="2621.620466" cy="1758.24288" r="57.096000000000004" fill="none" stroke="black" stroke-width="7.137"/>
<line x1="3567.081091" y1="1514.920225" x2="3537.626347" y2="1505.491684" stroke="black" stroke-width="7.137"/>
<line x1="3537.626347" y1="1505.491684" x2="3473.657343" y2="1705.330799" stroke="black" stroke-width="7.137"/>
<line x1="3473.657343" y1="1705.330799" x2="3503.112091" y2="1714.759337" stroke="black" stroke-width="7.137"/>
<line x1="3503.112091" y1="1714.759337" x2="3567.081091" y2="1514.920225" stroke="black" stroke-width="7.137"/>
<line x1="3372.679774" y1="1452.691869" x2="3343.225029" y2="1443.263331" stroke="black" stroke-width="7.137"/>
<line x1="3343.225029" y1="1443.263331" x2="3279.256029" y2="1643.102449" stroke="black" stroke-width="7.137"/>
<line x1="3279.256029" y1="1643.102449" x2="3308.71077" y2="1652.530984" stroke="black" stroke-width="7.137"/>
<line x1="3308.71077" y1="1652.530984" x2="3372.679774" y2="1452.691869" stroke="black" stroke-width="7.137"/>
<line x1="3538.079499" y1="1505.636739" x2="3372.679774" y2="1452.691869" stroke="black" stroke-width="7.137"/>
<line x1="3474.853751" y1="1704.714609" x2="3441.499362" y2="1721.514806" stroke="black" stroke-width="7.137"/>
<line x1="3325.94613" y1="1684.525927" x2="3308.547729" y2="1651.479628" stroke="black" stroke-width="7.137"/>
<line x1="3443.311964" y1="1722.095022" x2="3324.133532" y2="1683.945707" stroke="black" stroke-width="7.137"/>
<line x1="3523.991232" y1="1548.087777" x2="3358.591511" y2="1495.142907" stroke="black" stroke-width="7.137"/>
<line x1="3047.075982" y1="592.18854" x2="3095.237356" y2="795.925482" stroke="black" stroke-width="7.137"/>
<line x1="3095.237356" y1="795.925482" x2="3321.200146" y2="742.510144" stroke="black" stroke-width="7.137"/>
<line x1="3321.200146" y1="742.510144" x2="3273.038775" y2="538.773199" stroke="black" stroke-width="7.137"/>
<line x1="3273.038775" y1="538.773199" x2="3047.075982" y2="592.18854" stroke="black" stroke-width="7.137"/>
<line x1="3078.562602" y1="584.745417" x2="3126.723976" y2="788.482365" stroke="black" stroke-width="7.137"/>
<line x1="2718.081877" y1="1554.357663" x2="2742.664877" y2="1535.722166" stroke="black" stroke-width="7.137"/>
<line x1="2742.664877" y1="1535.722166" x2="2742.664877" y2="1388.224166" stroke="black" stroke-width="7.137"/>
<line x1="2742.664877" y1="1388.224166" x2="2714.513377" y2="1369.192163" stroke="black" stroke-width="7.137"/>
<line x1="2715.306377" y1="1532.550163" x2="2715.306377" y2="1389.413666" stroke="black" stroke-width="7.137"/>
<circle cx="2693.498877" cy="1463.162663" r="13.0845" fill="none" stroke="black" stroke-width="7.137"/>
<path d="m 2715.974565,1530.994954 a 74.9385009642222,74.9385009642222 0 1 1 -0.40255200000001423,-139.78527899999995" fill="none" stroke="black" stroke-width="7.137"/>
<path d="m 2718.74007,1554.311304 a 95.55649809564125,95.55649809564125 0 1 1 -3.0788410000000113,-184.69990700000017" fill="none" stroke="black" stroke-width="7.137"/>
<line x1="3526.318503" y1="520.402986" x2="3902.836419" y2="520.402986" stroke="black" stroke-width="7.137"/>
<line x1="3902.836419" y1="520.402986" x2="3902.836419" y2="704.032626" stroke="black" stroke-width="7.137"/>
<line x1="3526.318503" y1="704.032626" x2="3902.836419" y2="704.032626" stroke="black" stroke-width="7.137"/>
<line x1="3526.318503" y1="520.402986" x2="3526.318503" y2="704.032626" stroke="black" stroke-width="7.137"/>
<line x1="3535.57714" y1="529.661623" x2="3727.693862" y2="529.661623" stroke="black" stroke-width="7.137"/>
<line x1="3727.693862" y1="529.661623" x2="3727.693862" y2="694.002435" stroke="black" stroke-width="7.137"/>
<line x1="3535.57714" y1="694.002435" x2="3727.693862" y2="694.002435" stroke="black" stroke-width="7.137"/>
<line x1="3535.57714" y1="529.661623" x2="3535.57714" y2="694.002435" stroke="black" stroke-width="7.137"/>
<line x1="3747.754243" y1="540.463367" x2="3882.776038" y2="540.463367" stroke="black" stroke-width="7.137"/>
<line x1="3747.754243" y1="569.010831" x2="3882.776038" y2="569.010831" stroke="black" stroke-width="7.137"/>
<line x1="3748.525797" y1="598.329849" x2="3883.547589" y2="598.329849" stroke="black" stroke-width="7.137"/>
<line x1="3748.525797" y1="626.877313" x2="3883.547589" y2="626.877313" stroke="black" stroke-width="7.137"/>
<line x1="3747.754243" y1="655.42478" x2="3882.776038" y2="655.42478" stroke="black" stroke-width="7.137"/>
<line x1="3747.754243" y1="683.972244" x2="3882.776038" y2="683.972244" stroke="black" stroke-width="7.137"/>
<line x1="3608.874685" y1="694.002435" x2="3608.874685" y2="674.713608" stroke="black" stroke-width="7.137"/>
<line x1="3608.874685" y1="674.713608" x2="3656.710976" y2="674.713608" stroke="black" stroke-width="7.137"/>
<line x1="3656.710976" y1="674.713608" x2="3656.710976" y2="693.230881" stroke="black" stroke-width="7.137"/>
<circle cx="3706.090375" cy="550.493555" r="11.57329659825696" fill="none" stroke="black" stroke-width="7.137"/>
<line x1="1867.1995" y1="835.296504" x2="1734.9271" y2="835.296504" stroke="black" stroke-width="7.137"/>
<line x1="1734.9271" y1="835.296504" x2="1734.9271" y2="821.022504" stroke="black" stroke-width="7.137"/>
<line x1="1867.1995" y1="821.022504" x2="1734.9271" y2="821.022504" stroke="black" stroke-width="7.137"/>
<line x1="1867.1995" y1="835.296504" x2="1867.1995" y2="821.022504" stroke="black" stroke-width="7.137"/>
<line x1="1853.8771" y1="821.022504" x2="1855.7803" y2="789.619704" stroke="black" stroke-width="7.137"/>
<line x1="1748.2495" y1="821.022504" x2="1746.3463" y2="788.668104" stroke="black" stroke-width="7.137"/>
<line x1="1867.1995" y1="373.770504" x2="1734.9271" y2="373.770504" stroke="black" stroke-width="7.137"/>
<line x1="1734.9271" y1="373.770504" x2="1734.9271" y2="387.092904" stroke="black" stroke-width="7.137"/>
<line x1="1867.1995" y1="387.092904" x2="1734.9271" y2="387.092904" stroke="black" stroke-width="7.137"/>
<line x1="1867.1995" y1="373.770504" x2="1867.1995" y2="387.092904" stroke="black" stroke-width="7.137"/>
<line x1="1854.8287" y1="388.996104" x2="1856.7319" y2="420.398904" stroke="black" stroke-width="7.137"/>
<line x1="1749.2011" y1="388.996104" x2="1746.3463" y2="421.350504" stroke="black" stroke-width="7.137"/>
<line x1="1571.2519" y1="670.669704" x2="1585.5259" y2="670.669704" stroke="black" stroke-width="7.137"/>
<line x1="1585.5259" y1="670.669704" x2="1585.5259" y2="538.397304" stroke="black" stroke-width="7.137"/>
<line x1="1571.2519" y1="538.397304" x2="1585.5259" y2="538.397304" stroke="black" stroke-width="7.137"/>
<line x1="1571.2519" y1="670.669704" x2="1571.2519" y2="538.397304" stroke="black" stroke-width="7.137"/>
<line x1="1585.5259" y1="552.671304" x2="1617.8803" y2="549.816504" stroke="black" stroke-width="7.137"/>
<line x1="1585.5259" y1="657.347304" x2="1617.8803" y2="659.250504" stroke="black" stroke-width="7.137"/>
<line x1="2031.8263" y1="671.621304" x2="2017.5523" y2="671.621304" stroke="black" stroke-width="7.137"/>
<line x1="2017.5523" y1="671.621304" x2="2017.5523" y2="539.348904" stroke="black" stroke-width="7.137"/>
<line x1="2031.8263" y1="539.348904" x2="2017.5523" y2="539.348904" stroke="black" stroke-width="7.137"/>
<line x1="2031.8263" y1="671.621304" x2="2031.8263" y2="539.348904" stroke="black" stroke-width="7.137"/>
<line x1="2017.5523" y1="553.622904" x2="1985.1979" y2="550.768104" stroke="black" stroke-width="7.137"/>
<line x1="2017.5523" y1="658.298904" x2="1985.1979" y2="660.202104" stroke="black" stroke-width="7.137"/>
<circle cx="1801.5391" cy="605.009304" r="192.2232" fill="none" stroke="black" stroke-width="7.137"/>
<line x1="386.924078" y1="187.64057" x2="196.604078" y2="187.64057" stroke="black" stroke-width="7.137"/>
<line x1="196.604078" y1="187.64057" x2="196.604078" y2="652.02137" stroke="black" stroke-width="7.137"/>
<line x1="196.604078" y1="652.02137" x2="386.924078" y2="652.02137" stroke="black" stroke-width="7.137"/>
<line x1="386.924078" y1="652.02137" x2="386.924078" y2="628.23137" stroke="black" stroke-width="7.137"/>
<line x1="386.924078" y1="628.23137" x2="219.442478" y2="628.23137" stroke="black" stroke-width="7.137"/>
<line x1="219.442478" y1="628.23137" x2="219.442478" y2="212.38217" stroke="black" stroke-width="7.137"/>
<line x1="219.442478" y1="212.38217" x2="386.924078" y2="212.38217" stroke="black" stroke-width="7.137"/>
<line x1="386.924078" y1="212.38217" x2="386.924078" y2="187.64057" stroke="black" stroke-width="7.137"/>
<line x1="381.214478" y1="212.38217" x2="381.214478" y2="628.23137" stroke="black" stroke-width="7.137"/>
<line x1="382.166078" y1="419.83097" x2="220.394078" y2="419.83097" stroke="black" stroke-width="7.137"/>
<line x1="886.335364" y1="407.348703" x2="874.500112" y2="378.775882" stroke="black" stroke-width="7.137"/>
<line x1="874.500112" y1="378.775882" x2="680.644502" y2="459.073505" stroke="black" stroke-width="7.137"/>
<line x1="680.644502" y1="459.073505" x2="692.479755" y2="487.646326" stroke="black" stroke-width="7.137"/>
<line x1="692.479755" y1="487.646326" x2="886.335364" y2="407.348703" stroke="black" stroke-width="7.137"/>
<line x1="808.222707" y1="218.768079" x2="796.387461" y2="190.195255" stroke="black" stroke-width="7.137"/>
<line x1="796.387461" y1="190.195255" x2="602.531849" y2="270.49288" stroke="black" stroke-width="7.137"/>
<line x1="602.531849" y1="270.49288" x2="614.367101" y2="299.065701" stroke="black" stroke-width="7.137"/>
<line x1="614.367101" y1="299.065701" x2="808.222707" y2="218.768079" stroke="black" stroke-width="7.137"/>
<line x1="874.682194" y1="379.215464" x2="808.222707" y2="218.768079" stroke="black" stroke-width="7.137"/>
<line x1="681.887828" y1="459.588508" x2="647.514301" y2="444.986364" stroke="black" stroke-width="7.137"/>
<line x1="601.083701" y1="332.892988" x2="615.064183" y2="298.261955" stroke="black" stroke-width="7.137"/>
<line x1="648.242621" y1="446.744693" x2="600.355378" y2="331.134656" stroke="black" stroke-width="7.137"/>
<line x1="833.179416" y1="395.891477" x2="766.719929" y2="235.444089" stroke="black" stroke-width="7.137"/>
<line x1="2795.013938" y1="1653.251808" x2="2989.742006" y2="1653.251808" stroke="black" stroke-width="7.137"/>
<line x1="2989.742006" y1="1653.251808" x2="2989.742006" y2="1848.378908" stroke="black" stroke-width="7.137"/>
<line x1="2989.742006" y1="1848.378908" x2="2795.013938" y2="1848.378908" stroke="black" stroke-width="7.137"/>
<line x1="2795.013938" y1="1848.378908" x2="2795.013938" y2="1653.251808" stroke="black" stroke-width="7.137"/>
<line x1="2794.614907" y1="1652.852774" x2="2989.742006" y2="1848.378908" stroke="black" stroke-width="7.137"/>
<line x1="2795.013938" y1="1847.979873" x2="2989.342972" y2="1653.251808" stroke="black" stroke-width="7.137"/>
<line x1="2528.253975" y1="1210.156911" x2="2650.369634" y2="1135.32434" stroke="black" stroke-width="7.137"/>
<line x1="2650.369634" y1="1135.32434" x2="2725.355549" y2="1257.690235" stroke="black" stroke-width="7.137"/>
<line x1="2725.355549" y1="1257.690235" x2="2603.239893" y2="1332.522806" stroke="black" stroke-width="7.137"/>
<line x1="2603.239893" y1="1332.522806" x2="2528.253975" y2="1210.156911" stroke="black" stroke-width="7.137"/>
<line x1="2527.850392" y1="1210.060019" x2="2725.355549" y2="1257.690235" stroke="black" stroke-width="7.137"/>
<line x1="2603.086546" y1="1332.27257" x2="2650.119395" y2="1135.477687" stroke="black" stroke-width="7.137"/>
<line x1="282.815828" y1="1022.700263" x2="394.271251" y2="1108.223013" stroke="black" stroke-width="7.137"/>
<line x1="394.271251" y1="1108.223013" x2="308.573245" y2="1219.906827" stroke="black" stroke-width="7.137"/>
<line x1="308.573245" y1="1219.906827" x2="197.117828" y2="1134.384077" stroke="black" stroke-width="7.137"/>
<line x1="197.117828" y1="1134.384077" x2="282.815828" y2="1022.700263" stroke="black" stroke-width="7.137"/>
<line x1="282.762687" y1="1022.296616" x2="308.573245" y2="1219.906827" stroke="black" stroke-width="7.137"/>
<line x1="197.293077" y1="1134.15568" x2="394.042861" y2="1108.047763" stroke="black" stroke-width="7.137"/>
<line x1="187.012721" y1="746.028976" x2="187.012721" y2="359.167086" stroke="black" stroke-width="7.137"/>
<line x1="187.012721" y1="359.167086" x2="127.374781" y2="359.167086" stroke="black" stroke-width="7.137"/>
<line x1="127.374781" y1="359.167086" x2="127.374781" y2="746.028976" stroke="black" stroke-width="7.137"/>
<line x1="127.374781" y1="746.028976" x2="187.012721" y2="746.028976" stroke="black" stroke-width="7.137"/>
<line x1="128.15949" y1="709.93233" x2="186.228009" y2="709.93233" stroke="black" stroke-width="7.137"/>
<line x1="128.15949" y1="396.04844" x2="188.582137" y2="396.04844" stroke="black" stroke-width="7.137"/>
<line x1="155.624331" y1="710.717039" x2="155.624331" y2="396.833152" stroke="black" stroke-width="7.137"/>
<line x1="2240.449955" y1="1365.887577" x2="2240.449955" y2="1388.961945" stroke="black" stroke-width="7.137"/>
<line x1="2240.449955" y1="1388.961945" x2="2285.473114" y2="1388.961945" stroke="black" stroke-width="7.137"/>
<line x1="2285.473114" y1="1388.961945" x2="2285.473114" y2="1365.887577" stroke="black" stroke-width="7.137"/>
<line x1="2285.473114" y1="1365.887577" x2="2240.449955" y2="1365.887577" stroke="black" stroke-width="7.137"/>
<line x1="2285.473114" y1="1614.640518" x2="2510.026105" y2="1614.640518" stroke="black" stroke-width="7.137"/>
<line x1="2239.324377" y1="1615.203307" x2="2239.324377" y2="1638.277675" stroke="black" stroke-width="7.137"/>
<line x1="2239.324377" y1="1638.277675" x2="2284.347533" y2="1638.277675" stroke="black" stroke-width="7.137"/>
<line x1="2284.347533" y1="1638.277675" x2="2284.347533" y2="1615.203307" stroke="black" stroke-width="7.137"/>
<line x1="2284.347533" y1="1615.203307" x2="2239.324377" y2="1615.203307" stroke="black" stroke-width="7.137"/>
<path d="m 2283.784744,1388.961945 a 225.67857249999986,225.67857249999986 0 0 1 225.6785719999998,225.67857299999991" fill="none" stroke="black" stroke-width="7.137"/>
<line x1="3006.778758" y1="1056.969498" x2="3147.675277" y2="1211.812743" stroke="black" stroke-width="7.137"/>
<line x1="3147.675277" y1="1211.812743" x2="3319.410516" y2="1055.545701" stroke="black" stroke-width="7.137"/>
<line x1="3319.410516" y1="1055.545701" x2="3178.514" y2="900.702453" stroke="black" stroke-width="7.137"/>
<line x1="3178.514" y1="900.702453" x2="3006.778758" y2="1056.969498" stroke="black" stroke-width="7.137"/>
<line x1="3030.709081" y1="1035.194583" x2="3171.605594" y2="1190.037828" stroke="black" stroke-width="7.137"/>
<line x1="1565.035659" y1="1849.265666" x2="1716.894236" y2="1705.157258" stroke="black" stroke-width="7.137"/>
<line x1="1716.894236" y1="1705.157258" x2="1557.064911" y2="1536.732293" stroke="black" stroke-width="7.137"/>
<line x1="1557.064911" y1="1536.732293" x2="1405.206334" y2="1680.8407" stroke="black" stroke-width="7.137"/>
<line x1="1405.206334" y1="1680.8407" x2="1565.035659" y2="1849.265666" stroke="black" stroke-width="7.137"/>
<line x1="1542.764362" y1="1825.796615" x2="1694.622932" y2="1681.688208" stroke="black" stroke-width="7.137"/>
</g>
</svg>
