<?xml version="1.0"?>
<svg xmlns:xlink="http://www.w3.org/1999/xlink" width="4348.812" height="2226.744">
<image x="0" y="0" width="4348.812" height="2226.744" xlink:href="ground16-10.png"/>
<g style="stroke-linecap:round">
<line x1="403.073634" y1="1261.405573" x2="403.073634" y2="1284.479941" stroke="black" stroke-width="7.137"/>
<line x1="403.073634" y1="1284.479941" x2="448.096792" y2="1284.479941" stroke="black" stroke-width="7.137"/>
<line x1="448.096792" y1="1284.479941" x2="448.096792" y2="1261.405573" stroke="black" stroke-width="7.137"/>
<line x1="448.096792" y1="1261.405573" x2="403.073634" y2="1261.405573" stroke="black" stroke-width="7.137"/>
<line x1="448.096792" y1="1510.158514" x2="672.649784" y2="1510.158514" stroke="black" stroke-width="7.137"/>
<line x1="401.948056" y1="1510.721303" x2="401.948056" y2="1533.795671" stroke="black" stroke-width="7.137"/>
<line x1="401.948056" y1="1533.795671" x2="446.971211" y2="1533.795671" stroke="black" stroke-width="7.137"/>
<line x1="446.971211" y1="1533.795671" x2="446.971211" y2="1510.721303" stroke="black" stroke-width="7.137"/>
<line x1="446.971211" y1="1510.721303" x2="401.948056" y2="1510.721303" stroke="black" stroke-width="7.137"/>
<path d="m 446.408422,1284.479941 a 225.67857299999997,225.67857299999997 0 0 1 225.67857300000003,225.67857299999991" fill="none" stroke="black" stroke-width="7.137"/>
<line x1="1917.663575" y1="1638.130602" x2="1917.663575" y2="1615.056234" stroke="black" stroke-width="7.137"/>
<line x1="1917.663575" y1="1615.056234" x2="1872.640416" y2="1615.056234" stroke="black" stroke-width="7.137"/>
<line x1="1872.640416" y1="1615.056234" x2="1872.640416" y2="1638.130602" stroke="black" stroke-width="7.137"/>
<line x1="1872.640416" y1="1638.130602" x2="1917.663575" y2="1638.130602" stroke="black" stroke-width="7.137"/>
<line x1="1872.640416" y1="1389.377661" x2="1648.087424" y2="1389.377661" stroke="black" stroke-width="7.137"/>
<line x1="1918.789152" y1="1388.814872" x2="1918.789152" y2="1365.740504" stroke="black" stroke-width="7.137"/>
<line x1="1918.789152" y1="1365.740504" x2="1873.765997" y2="1365.740504" stroke="black" stroke-width="7.137"/>
<line x1="1873.765997" y1="1365.740504" x2="1873.765997" y2="1388.814872" stroke="black" stroke-width="7.137"/>
<line x1="1873.765997" y1="1388.814872" x2="1918.789152" y2="1388.814872" stroke="black" stroke-width="7.137"/>
<path d="m 1874.328786,1615.056234 a 225.67857300000003,225.67857300000003 0 0 1 -225.67857300000014,-225.67857299999991" fill="none" stroke="black" stroke-width="7.137"/>
<line x1="2911.380239" y1="1379.940939" x2="2924.515856" y2="1394.02716" stroke="black" stroke-width="7.137"/>
<line x1="2924.515856" y1="1394.02716" x2="2952.001163" y2="1368.396689" stroke="black" stroke-width="7.137"/>
<line x1="2952.001163" y1="1368.396689" x2="2938.865546" y2="1354.310468" stroke="black" stroke-width="7.137"/>
<line x1="2938.865546" y1="1354.310468" x2="2911.380239" y2="1379.940939" stroke="black" stroke-width="7.137"/>
<line x1="3080.473897" y1="1506.166784" x2="3217.55686" y2="1378.334813" stroke="black" stroke-width="7.137"/>
<line x1="3052.621837" y1="1532.781583" x2="3065.757454" y2="1546.867804" stroke="black" stroke-width="7.137"/>
<line x1="3065.757454" y1="1546.867804" x2="3093.242764" y2="1521.237333" stroke="black" stroke-width="7.137"/>
<line x1="3093.242764" y1="1521.237333" x2="3080.107144" y2="1507.151115" stroke="black" stroke-width="7.137"/>
<line x1="3080.107144" y1="1507.151115" x2="3052.621837" y2="1532.781583" stroke="black" stroke-width="7.137"/>
<path d="m 2950.97046,1369.357834 a 188.376865628772,188.376865628772 0 0 1 266.242835,9.297357000000147" fill="none" stroke="black" stroke-width="7.137"/>
<line x1="4172.82374" y1="469.467578" x2="4172.82374" y2="446.39321" stroke="black" stroke-width="7.137"/>
<line x1="4172.82374" y1="446.39321" x2="4127.800581" y2="446.39321" stroke="black" stroke-width="7.137"/>
<line x1="4127.800581" y1="446.39321" x2="4127.800581" y2="469.467578" stroke="black" stroke-width="7.137"/>
<line x1="4127.800581" y1="469.467578" x2="4172.82374" y2="469.467578" stroke="black" stroke-width="7.137"/>
<line x1="4127.800581" y1="220.714637" x2="3903.24759" y2="220.714637" stroke="black" stroke-width="7.137"/>
<line x1="4173.949318" y1="220.151848" x2="4173.949318" y2="197.07748" stroke="black" stroke-width="7.137"/>
<line x1="4173.949318" y1="197.07748" x2="4128.926162" y2="197.07748" stroke="black" stroke-width="7.137"/>
<line x1="4128.926162" y1="197.07748" x2="4128.926162" y2="220.151848" stroke="black" stroke-width="7.137"/>
<line x1="4128.926162" y1="220.151848" x2="4173.949318" y2="220.151848" stroke="black" stroke-width="7.137"/>
<path d="m 4129.488951,446.39321 a 225.67857250000014,225.67857250000014 0 0 1 -225.67857200000026,-225.678573" fill="none" stroke="black" stroke-width="7.137"/>
<line x1="4172.660905" y1="1828.520329" x2="4172.660905" y2="1805.445961" stroke="black" stroke-width="7.137"/>
<line x1="4172.660905" y1="1805.445961" x2="4127.637747" y2="1805.445961" stroke="black" stroke-width="7.137"/>
<line x1="4127.637747" y1="1805.445961" x2="4127.637747" y2="1828.520329" stroke="black" stroke-width="7.137"/>
<line x1="4127.637747" y1="1828.520329" x2="4172.660905" y2="1828.520329" stroke="black" stroke-width="7.137"/>
<line x1="4127.637747" y1="1579.767388" x2="3903.084755" y2="1579.767388" stroke="black" stroke-width="7.137"/>
<line x1="4173.786483" y1="1579.204599" x2="4173.786483" y2="1556.130231" stroke="black" stroke-width="7.137"/>
<line x1="4173.786483" y1="1556.130231" x2="4128.763328" y2="1556.130231" stroke="black" stroke-width="7.137"/>
<line x1="4128.763328" y1="1556.130231" x2="4128.763328" y2="1579.204599" stroke="black" stroke-width="7.137"/>
<line x1="4128.763328" y1="1579.204599" x2="4173.786483" y2="1579.204599" stroke="black" stroke-width="7.137"/>
<path d="m 4129.326117,1805.445961 a 225.6785729999998,225.6785729999998 0 0 1 -225.6785729999997,-225.67857299999991" fill="none" stroke="black" stroke-width="7.137"/>
<line x1="1793.281943" y1="152.743054" x2="1991.892926" y2="152.743054" stroke="black" stroke-width="7.137"/>
<line x1="1991.892926" y1="152.743054" x2="1991.892926" y2="117.219138" stroke="black" stroke-width="7.137"/>
<line x1="1991.892926" y1="117.219138" x2="1793.281943" y2="117.219138" stroke="black" stroke-width="7.137"/>
<line x1="1793.281943" y1="117.219138" x2="1793.281943" y2="152.743054" stroke="black" stroke-width="7.137"/>
<line x1="1802.566603" y1="152.743054" x2="1802.566603" y2="164.853481" stroke="black" stroke-width="7.137"/>
<line x1="1802.566603" y1="164.853481" x2="1982.204585" y2="164.853481" stroke="black" stroke-width="7.137"/>
<line x1="1982.204585" y1="152.743054" x2="1982.204585" y2="164.853481" stroke="black" stroke-width="7.137"/>
<line x1="2384.583767" y1="153.346657" x2="2583.19475" y2="153.346657" stroke="black" stroke-width="7.137"/>
<line x1="2583.19475" y1="153.346657" x2="2583.19475" y2="117.822741" stroke="black" stroke-width="7.137"/>
<line x1="2583.19475" y1="117.822741" x2="2384.583767" y2="117.822741" stroke="black" stroke-width="7.137"/>
<line x1="2384.583767" y1="117.822741" x2="2384.583767" y2="153.346657" stroke="black" stroke-width="7.137"/>
<line x1="2393.868426" y1="153.346657" x2="2393.868426" y2="165.457084" stroke="black" stroke-width="7.137"/>
<line x1="2393.868426" y1="165.457084" x2="2573.506409" y2="165.457084" stroke="black" stroke-width="7.137"/>
<line x1="2573.506409" y1="153.346657" x2="2573.506409" y2="165.457084" stroke="black" stroke-width="7.137"/>
<line x1="2794.835164" y1="152.713472" x2="2991.001705" y2="152.713472" stroke="black" stroke-width="7.137"/>
<line x1="2991.001705" y1="152.713472" x2="2991.001705" y2="117.626772" stroke="black" stroke-width="7.137"/>
<line x1="2991.001705" y1="117.626772" x2="2794.835164" y2="117.626772" stroke="black" stroke-width="7.137"/>
<line x1="2794.835164" y1="117.626772" x2="2794.835164" y2="152.713472" stroke="black" stroke-width="7.137"/>
<line x1="2804.005552" y1="152.713472" x2="2804.005552" y2="164.674846" stroke="black" stroke-width="7.137"/>
<line x1="2804.005552" y1="164.674846" x2="2981.432606" y2="164.674846" stroke="black" stroke-width="7.137"/>
<line x1="2981.432606" y1="152.713472" x2="2981.432606" y2="164.674846" stroke="black" stroke-width="7.137"/>
<line x1="3213.800403" y1="152.452572" x2="3409.966945" y2="152.452572" stroke="black" stroke-width="7.137"/>
<line x1="3409.966945" y1="152.452572" x2="3409.966945" y2="117.365871" stroke="black" stroke-width="7.137"/>
<line x1="3409.966945" y1="117.365871" x2="3213.800403" y2="117.365871" stroke="black" stroke-width="7.137"/>
<line x1="3213.800403" y1="117.365871" x2="3213.800403" y2="152.452572" stroke="black" stroke-width="7.137"/>
<line x1="3222.970792" y1="152.452572" x2="3222.970792" y2="164.413946" stroke="black" stroke-width="7.137"/>
<line x1="3222.970792" y1="164.413946" x2="3400.397846" y2="164.413946" stroke="black" stroke-width="7.137"/>
<line x1="3400.397846" y1="152.452572" x2="3400.397846" y2="164.413946" stroke="black" stroke-width="7.137"/>
<line x1="4139.032249" y1="1222.250278" x2="4139.032249" y2="1420.861261" stroke="black" stroke-width="7.137"/>
<line x1="4139.032249" y1="1420.861261" x2="4174.556166" y2="1420.861261" stroke="black" stroke-width="7.137"/>
<line x1="4174.556166" y1="1420.861261" x2="4174.556166" y2="1222.250278" stroke="black" stroke-width="7.137"/>
<line x1="4174.556166" y1="1222.250278" x2="4139.032249" y2="1222.250278" stroke="black" stroke-width="7.137"/>
<line x1="4139.032249" y1="1231.534938" x2="4126.921823" y2="1231.534938" stroke="black" stroke-width="7.137"/>
<line x1="4126.921823" y1="1231.534938" x2="4126.921823" y2="1411.17292" stroke="black" stroke-width="7.137"/>
<line x1="4139.032249" y1="1411.17292" x2="4126.921823" y2="1411.17292" stroke="black" stroke-width="7.137"/>
<line x1="1841.151775" y1="1873.253069" x2="1642.540792" y2="1873.253069" stroke="black" stroke-width="7.137"/>
<line x1="1642.540792" y1="1873.253069" x2="1642.540792" y2="1908.776985" stroke="black" stroke-width="7.137"/>
<line x1="1642.540792" y1="1908.776985" x2="1841.151775" y2="1908.776985" stroke="black" stroke-width="7.137"/>
<line x1="1841.151775" y1="1908.776985" x2="1841.151775" y2="1873.253069" stroke="black" stroke-width="7.137"/>
<line x1="1831.867116" y1="1873.253069" x2="1831.867116" y2="1861.142642" stroke="black" stroke-width="7.137"/>
<line x1="1831.867116" y1="1861.142642" x2="1652.229133" y2="1861.142642" stroke="black" stroke-width="7.137"/>
<line x1="1652.229133" y1="1873.253069" x2="1652.229133" y2="1861.142642" stroke="black" stroke-width="7.137"/>
<line x1="2488.810945" y1="1873.721868" x2="2290.199962" y2="1873.721868" stroke="black" stroke-width="7.137"/>
<line x1="2290.199962" y1="1873.721868" x2="2290.199962" y2="1909.245784" stroke="black" stroke-width="7.137"/>
<line x1="2290.199962" y1="1909.245784" x2="2488.810945" y2="1909.245784" stroke="black" stroke-width="7.137"/>
<line x1="2488.810945" y1="1909.245784" x2="2488.810945" y2="1873.721868" stroke="black" stroke-width="7.137"/>
<line x1="2479.526285" y1="1873.721868" x2="2479.526285" y2="1861.611442" stroke="black" stroke-width="7.137"/>
<line x1="2479.526285" y1="1861.611442" x2="2299.888303" y2="1861.611442" stroke="black" stroke-width="7.137"/>
<line x1="2299.888303" y1="1873.721868" x2="2299.888303" y2="1861.611442" stroke="black" stroke-width="7.137"/>
<line x1="2559.766466" y1="1799.47888" x2="2743.742466" y2="1799.47888" stroke="black" stroke-width="7.137"/>
<line x1="2743.742466" y1="1799.47888" x2="2743.742466" y2="1848.64488" stroke="black" stroke-width="7.137"/>
<line x1="2559.766466" y1="1848.64488" x2="2743.742466" y2="1848.64488" stroke="black" stroke-width="7.137"/>
<line x1="2559.766466" y1="1799.47888" x2="2559.766466" y2="1848.64488" stroke="black" stroke-width="7.137"/>
<line x1="2601.398966" y1="1771.72388" x2="2601.398966" y2="1799.47888" stroke="black" stroke-width="7.137"/>
<line x1="2700.523966" y1="1799.47888" x2="2700.523966" y2="1770.13788" stroke="black" stroke-width="7.137"/>
<circle cx="2650.168466" cy="1726.52288" r="66.61200000000001" fill="none" stroke="black" stroke-width="7.137"/>
<circle cx="2650.168466" cy="1726.52288" r="57.096000000000004" fill="none" stroke="black" stroke-width="7.137"/>
<line x1="3541.139749" y1="1504.92139" x2="3510.975336" y2="1498.09588" stroke="black" stroke-width="7.137"/>
<line x1="3510.975336" y1="1498.09588" x2="3464.66688" y2="1702.749815" stroke="black" stroke-width="7.137"/>
<line x1="3464.66688" y1="1702.749815" x2="3494.831293" y2="1709.575325" stroke="black" stroke-width="7.137"/>
<line x1="3494.831293" y1="1709.575325" x2="3541.139749" y2="1504.92139" stroke="black" stroke-width="7.137"/>
<line x1="3342.054628" y1="1459.873026" x2="3311.890215" y2="1453.047517" stroke="black" stroke-width="7.137"/>
<line x1="3311.890215" y1="1453.047517" x2="3265.581759" y2="1657.701452" stroke="black" stroke-width="7.137"/>
<line x1="3265.581759" y1="1657.701452" x2="3295.746172" y2="1664.526961" stroke="black" stroke-width="7.137"/>
<line x1="3295.746172" y1="1664.526961" x2="3342.054628" y2="1459.873026" stroke="black" stroke-width="7.137"/>
<line x1="3511.439403" y1="1498.200889" x2="3342.054628" y2="1459.873026" stroke="black" stroke-width="7.137"/>
<line x1="3465.805028" y1="1702.031693" x2="3434.0418" y2="1721.674985" stroke="black" stroke-width="7.137"/>
<line x1="3315.704491" y1="1694.897989" x2="3295.492117" y2="1663.493819" stroke="black" stroke-width="7.137"/>
<line x1="3435.89807" y1="1722.095018" x2="3313.848218" y2="1694.477956" stroke="black" stroke-width="7.137"/>
<line x1="3501.104598" y1="1541.718258" x2="3331.719824" y2="1503.390402" stroke="black" stroke-width="7.137"/>
<line x1="3090.157797" y1="538.773199" x2="3069.365011" y2="747.090074" stroke="black" stroke-width="7.137"/>
<line x1="3069.365011" y1="747.090074" x2="3300.407359" y2="770.151167" stroke="black" stroke-width="7.137"/>
<line x1="3300.407359" y1="770.151167" x2="3321.200149" y2="561.834296" stroke="black" stroke-width="7.137"/>
<line x1="3321.200149" y1="561.834296" x2="3090.157797" y2="538.773199" stroke="black" stroke-width="7.137"/>
<line x1="3122.352224" y1="541.986632" x2="3101.559437" y2="750.303507" stroke="black" stroke-width="7.137"/>
<line x1="2718.081877" y1="1554.357663" x2="2742.664877" y2="1535.722166" stroke="black" stroke-width="7.137"/>
<line x1="2742.664877" y1="1535.722166" x2="2742.664877" y2="1388.224166" stroke="black" stroke-width="7.137"/>
<line x1="2742.664877" y1="1388.224166" x2="2714.513377" y2="1369.192163" stroke="black" stroke-width="7.137"/>
<line x1="2715.306377" y1="1532.550163" x2="2715.306377" y2="1389.413666" stroke="black" stroke-width="7.137"/>
<circle cx="2693.498877" cy="1463.162663" r="13.0845" fill="none" stroke="black" stroke-width="7.137"/>
<path d="m 2715.974565,1530.994954 a 74.9385009642222,74.9385009642222 0 1 1 -0.40255200000001423,-139.78527899999995" fill="none" stroke="black" stroke-width="7.137"/>
<path d="m 2718.74007,1554.311304 a 95.55649809564125,95.55649809564125 0 1 1 -3.0788410000000113,-184.69990700000017" fill="none" stroke="black" stroke-width="7.137"/>
<line x1="3526.318503" y1="520.402986" x2="3902.836419" y2="520.402986" stroke="black" stroke-width="7.137"/>
<line x1="3902.836419" y1="520.402986" x2="3902.836419" y2="704.032626" stroke="black" stroke-width="7.137"/>
<line x1="3526.318503" y1="704.032626" x2="3902.836419" y2="704.032626" stroke="black" stroke-width="7.137"/>
<line x1="3526.318503" y1="520.402986" x2="3526.318503" y2="704.032626" stroke="black" stroke-width="7.137"/>
<line x1="3535.57714" y1="529.661623" x2="3727.693862" y2="529.661623" stroke="black" stroke-width="7.137"/>
<line x1="3727.693862" y1="529.661623" x2="3727.693862" y2="694.002435" stroke="black" stroke-width="7.137"/>
<line x1="3535.57714" y1="694.002435" x2="3727.693862" y2="694.002435" stroke="black" stroke-width="7.137"/>
<line x1="3535.57714" y1="529.661623" x2="3535.57714" y2="694.002435" stroke="black" stroke-width="7.137"/>
<line x1="3747.754243" y1="540.463367" x2="3882.776038" y2="540.463367" stroke="black" stroke-width="7.137"/>
<line x1="3747.754243" y1="569.010831" x2="3882.776038" y2="569.010831" stroke="black" stroke-width="7.137"/>
<line x1="3748.525797" y1="598.329849" x2="3883.547589" y2="598.329849" stroke="black" stroke-width="7.137"/>
<line x1="3748.525797" y1="626.877313" x2="3883.547589" y2="626.877313" stroke="black" stroke-width="7.137"/>
<line x1="3747.754243" y1="655.42478" x2="3882.776038" y2="655.42478" stroke="black" stroke-width="7.137"/>
<line x1="3747.754243" y1="683.972244" x2="3882.776038" y2="683.972244" stroke="black" stroke-width="7.137"/>
<line x1="3608.874685" y1="694.002435" x2="3608.874685" y2="674.713608" stroke="black" stroke-width="7.137"/>
<line x1="3608.874685" y1="674.713608" x2="3656.710976" y2="674.713608" stroke="black" stroke-width="7.137"/>
<line x1="3656.710976" y1="674.713608" x2="3656.710976" y2="693.230881" stroke="black" stroke-width="7.137"/>
<circle cx="3706.090375" cy="550.493555" r="11.57329659825696" fill="none" stroke="black" stroke-width="7.137"/>
<line x1="2213.057391" y1="696.521504" x2="2606.385391" y2="696.521504" stroke="black" stroke-width="7.137"/>
<line x1="2606.385391" y1="696.521504" x2="2606.385391" y2="511.752504" stroke="black" stroke-width="7.137"/>
<line x1="2606.385391" y1="511.752504" x2="2213.057391" y2="511.752504" stroke="black" stroke-width="7.137"/>
<line x1="2213.057391" y1="511.752504" x2="2213.057391" y2="696.521504" stroke="black" stroke-width="7.137"/>
<line x1="2372.450391" y1="511.752504" x2="2372.450391" y2="430.866504" stroke="black" stroke-width="7.137"/>
<line x1="2372.450391" y1="430.866504" x2="2293.943391" y2="430.866504" stroke="black" stroke-width="7.137"/>
<line x1="2293.943391" y1="430.866504" x2="2293.943391" y2="511.752504" stroke="black" stroke-width="7.137"/>
<line x1="2294.736391" y1="448.312504" x2="2372.450391" y2="448.312504" stroke="black" stroke-width="7.137"/>
<line x1="2293.943391" y1="778.200504" x2="2372.450391" y2="778.200504" stroke="black" stroke-width="7.137"/>
<line x1="2372.450391" y1="778.200504" x2="2372.450391" y2="696.521504" stroke="black" stroke-width="7.137"/>
<line x1="2293.943391" y1="696.521504" x2="2293.943391" y2="778.200504" stroke="black" stroke-width="7.137"/>
<line x1="2294.736391" y1="760.754504" x2="2372.450391" y2="760.754504" stroke="black" stroke-width="7.137"/>
<line x1="2523.913391" y1="511.752504" x2="2523.913391" y2="430.866504" stroke="black" stroke-width="7.137"/>
<line x1="2523.913391" y1="430.866504" x2="2445.406391" y2="430.866504" stroke="black" stroke-width="7.137"/>
<line x1="2445.406391" y1="430.866504" x2="2445.406391" y2="511.752504" stroke="black" stroke-width="7.137"/>
<line x1="2445.406391" y1="448.312504" x2="2523.913391" y2="448.312504" stroke="black" stroke-width="7.137"/>
<line x1="2445.406391" y1="778.200504" x2="2523.913391" y2="778.200504" stroke="black" stroke-width="7.137"/>
<line x1="2523.913391" y1="778.200504" x2="2523.913391" y2="696.521504" stroke="black" stroke-width="7.137"/>
<line x1="2445.406391" y1="696.521504" x2="2445.406391" y2="778.200504" stroke="black" stroke-width="7.137"/>
<line x1="2445.406391" y1="760.754504" x2="2523.913391" y2="760.754504" stroke="black" stroke-width="7.137"/>
<line x1="660.984878" y1="377.96057" x2="660.984878" y2="187.64057" stroke="black" stroke-width="7.137"/>
<line x1="660.984878" y1="187.64057" x2="196.604078" y2="187.64057" stroke="black" stroke-width="7.137"/>
<line x1="196.604078" y1="187.64057" x2="196.604078" y2="377.96057" stroke="black" stroke-width="7.137"/>
<line x1="196.604078" y1="377.96057" x2="220.394078" y2="377.96057" stroke="black" stroke-width="7.137"/>
<line x1="220.394078" y1="377.96057" x2="220.394078" y2="210.47897" stroke="black" stroke-width="7.137"/>
<line x1="220.394078" y1="210.47897" x2="636.243278" y2="210.47897" stroke="black" stroke-width="7.137"/>
<line x1="636.243278" y1="210.47897" x2="636.243278" y2="377.96057" stroke="black" stroke-width="7.137"/>
<line x1="636.243278" y1="377.96057" x2="660.984878" y2="377.96057" stroke="black" stroke-width="7.137"/>
<line x1="636.243278" y1="372.25097" x2="220.394078" y2="372.25097" stroke="black" stroke-width="7.137"/>
<line x1="428.794478" y1="373.20257" x2="428.794478" y2="211.43057" stroke="black" stroke-width="7.137"/>
<line x1="198.665291" y1="789.402812" x2="374.441385" y2="903.117468" stroke="black" stroke-width="7.137"/>
<line x1="374.441385" y1="903.117468" x2="500.561279" y2="708.165799" stroke="black" stroke-width="7.137"/>
<line x1="500.561279" y1="708.165799" x2="324.785181" y2="594.451141" stroke="black" stroke-width="7.137"/>
<line x1="324.785181" y1="594.451141" x2="198.665291" y2="789.402812" stroke="black" stroke-width="7.137"/>
<line x1="216.239373" y1="762.237414" x2="392.015471" y2="875.952073" stroke="black" stroke-width="7.137"/>
<line x1="2901.063125" y1="1654.406819" x2="3095.791193" y2="1654.406819" stroke="black" stroke-width="7.137"/>
<line x1="3095.791193" y1="1654.406819" x2="3095.791193" y2="1849.533918" stroke="black" stroke-width="7.137"/>
<line x1="3095.791193" y1="1849.533918" x2="2901.063125" y2="1849.533918" stroke="black" stroke-width="7.137"/>
<line x1="2901.063125" y1="1849.533918" x2="2901.063125" y2="1654.406819" stroke="black" stroke-width="7.137"/>
<line x1="2900.664094" y1="1654.007785" x2="3095.791193" y2="1849.533918" stroke="black" stroke-width="7.137"/>
<line x1="2901.063125" y1="1849.134884" x2="3095.392159" y2="1654.406819" stroke="black" stroke-width="7.137"/>
<line x1="2528.385911" y1="1266.945928" x2="2593.828683" y2="1135.688029" stroke="black" stroke-width="7.137"/>
<line x1="2593.828683" y1="1135.688029" x2="2725.355552" y2="1201.264907" stroke="black" stroke-width="7.137"/>
<line x1="2725.355552" y1="1201.264907" x2="2659.91278" y2="1332.522806" stroke="black" stroke-width="7.137"/>
<line x1="2659.91278" y1="1332.522806" x2="2528.385911" y2="1266.945928" stroke="black" stroke-width="7.137"/>
<line x1="2527.982835" y1="1267.080795" x2="2725.355552" y2="1201.264907" stroke="black" stroke-width="7.137"/>
<line x1="2659.643807" y1="1332.3887" x2="2593.694581" y2="1135.957002" stroke="black" stroke-width="7.137"/>
<line x1="312.342152" y1="1022.72942" x2="394.362792" y2="1137.718115" stroke="black" stroke-width="7.136997"/>
<line x1="394.362792" y1="1137.718115" x2="279.138465" y2="1219.906827" stroke="black" stroke-width="7.136997"/>
<line x1="279.138465" y1="1219.906827" x2="197.117824" y2="1104.918135" stroke="black" stroke-width="7.136997"/>
<line x1="197.117824" y1="1104.918135" x2="312.342152" y2="1022.72942" stroke="black" stroke-width="7.136997"/>
<line x1="312.409709" y1="1022.32571" x2="279.138465" y2="1219.906827" stroke="black" stroke-width="7.136997"/>
<line x1="197.353456" y1="1104.750057" x2="394.194714" y2="1137.48248" stroke="black" stroke-width="7.136997"/>
<line x1="187.012721" y1="746.028976" x2="187.012721" y2="359.167086" stroke="black" stroke-width="7.137"/>
<line x1="187.012721" y1="359.167086" x2="127.374781" y2="359.167086" stroke="black" stroke-width="7.137"/>
<line x1="127.374781" y1="359.167086" x2="127.374781" y2="746.028976" stroke="black" stroke-width="7.137"/>
<line x1="127.374781" y1="746.028976" x2="187.012721" y2="746.028976" stroke="black" stroke-width="7.137"/>
<line x1="128.15949" y1="709.93233" x2="186.228009" y2="709.93233" stroke="black" stroke-width="7.137"/>
<line x1="128.15949" y1="396.04844" x2="188.582137" y2="396.04844" stroke="black" stroke-width="7.137"/>
<line x1="155.624331" y1="710.717039" x2="155.624331" y2="396.833152" stroke="black" stroke-width="7.137"/>
<line x1="2240.449955" y1="1365.887577" x2="2240.449955" y2="1388.961945" stroke="black" stroke-width="7.137"/>
<line x1="2240.449955" y1="1388.961945" x2="2285.473114" y2="1388.961945" stroke="black" stroke-width="7.137"/>
<line x1="2285.473114" y1="1388.961945" x2="2285.473114" y2="1365.887577" stroke="black" stroke-width="7.137"/>
<line x1="2285.473114" y1="1365.887577" x2="2240.449955" y2="1365.887577" stroke="black" stroke-width="7.137"/>
<line x1="2285.473114" y1="1614.640518" x2="2510.026105" y2="1614.640518" stroke="black" stroke-width="7.137"/>
<line x1="2239.324377" y1="1615.203307" x2="2239.324377" y2="1638.277675" stroke="black" stroke-width="7.137"/>
<line x1="2239.324377" y1="1638.277675" x2="2284.347533" y2="1638.277675" stroke="black" stroke-width="7.137"/>
<line x1="2284.347533" y1="1638.277675" x2="2284.347533" y2="1615.203307" stroke="black" stroke-width="7.137"/>
<line x1="2284.347533" y1="1615.203307" x2="2239.324377" y2="1615.203307" stroke="black" stroke-width="7.137"/>
<path d="m 2283.784744,1388.961945 a 225.67857249999986,225.67857249999986 0 0 1 225.6785719999998,225.67857299999991" fill="none" stroke="black" stroke-width="7.137"/>
<line x1="3017.799932" y1="1098.712351" x2="3193.971898" y2="1211.812743" stroke="black" stroke-width="7.137"/>
<line x1="3193.971898" y1="1211.812743" x2="3319.410513" y2="1016.422015" stroke="black" stroke-width="7.137"/>
<line x1="3319.410513" y1="1016.422015" x2="3143.23855" y2="903.321624" stroke="black" stroke-width="7.137"/>
<line x1="3143.23855" y1="903.321624" x2="3017.799932" y2="1098.712351" stroke="black" stroke-width="7.137"/>
<line x1="3035.279086" y1="1071.485772" x2="3211.451049" y2="1184.586166" stroke="black" stroke-width="7.137"/>
<line x1="1514.841059" y1="1849.265666" x2="1541.210662" y2="1833.106353" stroke="black" stroke-width="7.137"/>
<line x1="1541.210662" y1="1833.106353" x2="1431.575938" y2="1654.198745" stroke="black" stroke-width="7.137"/>
<line x1="1431.575938" y1="1654.198745" x2="1405.206334" y2="1670.358059" stroke="black" stroke-width="7.137"/>
<line x1="1405.206334" y1="1670.358059" x2="1514.841059" y2="1849.265666" stroke="black" stroke-width="7.137"/>
<line x1="1688.880435" y1="1742.614198" x2="1715.250036" y2="1726.454885" stroke="black" stroke-width="7.137"/>
<line x1="1715.250036" y1="1726.454885" x2="1605.615312" y2="1547.547278" stroke="black" stroke-width="7.137"/>
<line x1="1605.615312" y1="1547.547278" x2="1579.245711" y2="1563.706591" stroke="black" stroke-width="7.137"/>
<line x1="1579.245711" y1="1563.706591" x2="1688.880435" y2="1742.614198" stroke="black" stroke-width="7.137"/>
<line x1="1540.804976" y1="1833.354958" x2="1688.880435" y2="1742.614198" stroke="black" stroke-width="7.137"/>
<line x1="1431.261777" y1="1655.507325" x2="1440.306938" y2="1619.272716" stroke="black" stroke-width="7.137"/>
<line x1="1543.756915" y1="1555.878488" x2="1580.148605" y2="1564.269361" stroke="black" stroke-width="7.137"/>
<line x1="1438.684193" y1="1620.267135" x2="1545.37966" y2="1554.884066" stroke="black" stroke-width="7.137"/>
<line x1="1517.841809" y1="1794.971852" x2="1665.917268" y2="1704.231092" stroke="black" stroke-width="7.137"/>
</g>
</svg>
