<?xml version="1.0"?>
<svg xmlns:xlink="http://www.w3.org/1999/xlink" width="4348.812" height="2226.744">
<image x="0" y="0" width="4348.812" height="2226.744" xlink:href="ground16-10.png"/>
<g style="stroke-linecap:round">
<line x1="403.073634" y1="1261.405573" x2="403.073634" y2="1284.479941" stroke="black" stroke-width="7.137"/>
<line x1="403.073634" y1="1284.479941" x2="448.096792" y2="1284.479941" stroke="black" stroke-width="7.137"/>
<line x1="448.096792" y1="1284.479941" x2="448.096792" y2="1261.405573" stroke="black" stroke-width="7.137"/>
<line x1="448.096792" y1="1261.405573" x2="403.073634" y2="1261.405573" stroke="black" stroke-width="7.137"/>
<line x1="448.096792" y1="1510.158514" x2="672.649784" y2="1510.158514" stroke="black" stroke-width="7.137"/>
<line x1="401.948056" y1="1510.721303" x2="401.948056" y2="1533.795671" stroke="black" stroke-width="7.137"/>
<line x1="401.948056" y1="1533.795671" x2="446.971211" y2="1533.795671" stroke="black" stroke-width="7.137"/>
<line x1="446.971211" y1="1533.795671" x2="446.971211" y2="1510.721303" stroke="black" stroke-width="7.137"/>
<line x1="446.971211" y1="1510.721303" x2="401.948056" y2="1510.721303" stroke="black" stroke-width="7.137"/>
<path d="m 446.408422,1284.479941 a 225.67857299999997,225.67857299999997 0 0 1 225.67857300000003,225.67857299999991" fill="none" stroke="black" stroke-width="7.137"/>
<line x1="1917.663575" y1="1638.130602" x2="1917.663575" y2="1615.056234" stroke="black" stroke-width="7.137"/>
<line x1="1917.663575" y1="1615.056234" x2="1872.640416" y2="1615.056234" stroke="black" stroke-width="7.137"/>
<line x1="1872.640416" y1="1615.056234" x2="1872.640416" y2="1638.130602" stroke="black" stroke-width="7.137"/>
<line x1="1872.640416" y1="1638.130602" x2="1917.663575" y2="1638.130602" stroke="black" stroke-width="7.137"/>
<line x1="1872.640416" y1="1389.377661" x2="1648.087424" y2="1389.377661" stroke="black" stroke-width="7.137"/>
<line x1="1918.789152" y1="1388.814872" x2="1918.789152" y2="1365.740504" stroke="black" stroke-width="7.137"/>
<line x1="1918.789152" y1="1365.740504" x2="1873.765997" y2="1365.740504" stroke="black" stroke-width="7.137"/>
<line x1="1873.765997" y1="1365.740504" x2="1873.765997" y2="1388.814872" stroke="black" stroke-width="7.137"/>
<line x1="1873.765997" y1="1388.814872" x2="1918.789152" y2="1388.814872" stroke="black" stroke-width="7.137"/>
<path d="m 1874.328786,1615.056234 a 225.67857300000003,225.67857300000003 0 0 1 -225.67857300000014,-225.67857299999991" fill="none" stroke="black" stroke-width="7.137"/>
<line x1="2911.380239" y1="1379.940939" x2="2924.515856" y2="1394.02716" stroke="black" stroke-width="7.137"/>
<line x1="2924.515856" y1="1394.02716" x2="2952.001163" y2="1368.396689" stroke="black" stroke-width="7.137"/>
<line x1="2952.001163" y1="1368.396689" x2="2938.865546" y2="1354.310468" stroke="black" stroke-width="7.137"/>
<line x1="2938.865546" y1="1354.310468" x2="2911.380239" y2="1379.940939" stroke="black" stroke-width="7.137"/>
<line x1="3080.473897" y1="1506.166784" x2="3217.55686" y2="1378.334813" stroke="black" stroke-width="7.137"/>
<line x1="3052.621837" y1="1532.781583" x2="3065.757454" y2="1546.867804" stroke="black" stroke-width="7.137"/>
<line x1="3065.757454" y1="1546.867804" x2="3093.242764" y2="1521.237333" stroke="black" stroke-width="7.137"/>
<line x1="3093.242764" y1="1521.237333" x2="3080.107144" y2="1507.151115" stroke="black" stroke-width="7.137"/>
<line x1="3080.107144" y1="1507.151115" x2="3052.621837" y2="1532.781583" stroke="black" stroke-width="7.137"/>
<path d="m 2950.97046,1369.357834 a 188.376865628772,188.376865628772 0 0 1 266.242835,9.297357000000147" fill="none" stroke="black" stroke-width="7.137"/>
<line x1="4172.82374" y1="469.467578" x2="4172.82374" y2="446.39321" stroke="black" stroke-width="7.137"/>
<line x1="4172.82374" y1="446.39321" x2="4127.800581" y2="446.39321" stroke="black" stroke-width="7.137"/>
<line x1="4127.800581" y1="446.39321" x2="4127.800581" y2="469.467578" stroke="black" stroke-width="7.137"/>
<line x1="4127.800581" y1="469.467578" x2="4172.82374" y2="469.467578" stroke="black" stroke-width="7.137"/>
<line x1="4127.800581" y1="220.714637" x2="3903.24759" y2="220.714637" stroke="black" stroke-width="7.137"/>
<line x1="4173.949318" y1="220.151848" x2="4173.949318" y2="197.07748" stroke="black" stroke-width="7.137"/>
<line x1="4173.949318" y1="197.07748" x2="4128.926162" y2="197.07748" stroke="black" stroke-width="7.137"/>
<line x1="4128.926162" y1="197.07748" x2="4128.926162" y2="220.151848" stroke="black" stroke-width="7.137"/>
<line x1="4128.926162" y1="220.151848" x2="4173.949318" y2="220.151848" stroke="black" stroke-width="7.137"/>
<path d="m 4129.488951,446.39321 a 225.67857250000014,225.67857250000014 0 0 1 -225.67857200000026,-225.678573" fill="none" stroke="black" stroke-width="7.137"/>
<line x1="4172.660905" y1="1828.520329" x2="4172.660905" y2="1805.445961" stroke="black" stroke-width="7.137"/>
<line x1="4172.660905" y1="1805.445961" x2="4127.637747" y2="1805.445961" stroke="black" stroke-width="7.137"/>
<line x1="4127.637747" y1="1805.445961" x2="4127.637747" y2="1828.520329" stroke="black" stroke-width="7.137"/>
<line x1="4127.637747" y1="1828.520329" x2="4172.660905" y2="1828.520329" stroke="black" stroke-width="7.137"/>
<line x1="4127.637747" y1="1579.767388" x2="3903.084755" y2="1579.767388" stroke="black" stroke-width="7.137"/>
<line x1="4173.786483" y1="1579.204599" x2="4173.786483" y2="1556.130231" stroke="black" stroke-width="7.137"/>
<line x1="4173.786483" y1="1556.130231" x2="4128.763328" y2="1556.130231" stroke="black" stroke-width="7.137"/>
<line x1="4128.763328" y1="1556.130231" x2="4128.763328" y2="1579.204599" stroke="black" stroke-width="7.137"/>
<line x1="4128.763328" y1="1579.204599" x2="4173.786483" y2="1579.204599" stroke="black" stroke-width="7.137"/>
<path d="m 4129.326117,1805.445961 a 225.6785729999998,225.6785729999998 0 0 1 -225.6785729999997,-225.67857299999991" fill="none" stroke="black" stroke-width="7.137"/>
<line x1="1793.281943" y1="152.743054" x2="1991.892926" y2="152.743054" stroke="black" stroke-width="7.137"/>
<line x1="1991.892926" y1="152.743054" x2="1991.892926" y2="117.219138" stroke="black" stroke-width="7.137"/>
<line x1="1991.892926" y1="117.219138" x2="1793.281943" y2="117.219138" stroke="black" stroke-width="7.137"/>
<line x1="1793.281943" y1="117.219138" x2="1793.281943" y2="152.743054" stroke="black" stroke-width="7.137"/>
<line x1="1802.566603" y1="152.743054" x2="1802.566603" y2="164.853481" stroke="black" stroke-width="7.137"/>
<line x1="1802.566603" y1="164.853481" x2="1982.204585" y2="164.853481" stroke="black" stroke-width="7.137"/>
<line x1="1982.204585" y1="152.743054" x2="1982.204585" y2="164.853481" stroke="black" stroke-width="7.137"/>
<line x1="2384.583767" y1="153.346657" x2="2583.19475" y2="153.346657" stroke="black" stroke-width="7.137"/>
<line x1="2583.19475" y1="153.346657" x2="2583.19475" y2="117.822741" stroke="black" stroke-width="7.137"/>
<line x1="2583.19475" y1="117.822741" x2="2384.583767" y2="117.822741" stroke="black" stroke-width="7.137"/>
<line x1="2384.583767" y1="117.822741" x2="2384.583767" y2="153.346657" stroke="black" stroke-width="7.137"/>
<line x1="2393.868426" y1="153.346657" x2="2393.868426" y2="165.457084" stroke="black" stroke-width="7.137"/>
<line x1="2393.868426" y1="165.457084" x2="2573.506409" y2="165.457084" stroke="black" stroke-width="7.137"/>
<line x1="2573.506409" y1="153.346657" x2="2573.506409" y2="165.457084" stroke="black" stroke-width="7.137"/>
<line x1="2794.835164" y1="152.713472" x2="2991.001705" y2="152.713472" stroke="black" stroke-width="7.137"/>
<line x1="2991.001705" y1="152.713472" x2="2991.001705" y2="117.626772" stroke="black" stroke-width="7.137"/>
<line x1="2991.001705" y1="117.626772" x2="2794.835164" y2="117.626772" stroke="black" stroke-width="7.137"/>
<line x1="2794.835164" y1="117.626772" x2="2794.835164" y2="152.713472" stroke="black" stroke-width="7.137"/>
<line x1="2804.005552" y1="152.713472" x2="2804.005552" y2="164.674846" stroke="black" stroke-width="7.137"/>
<line x1="2804.005552" y1="164.674846" x2="2981.432606" y2="164.674846" stroke="black" stroke-width="7.137"/>
<line x1="2981.432606" y1="152.713472" x2="2981.432606" y2="164.674846" stroke="black" stroke-width="7.137"/>
<line x1="3213.800403" y1="152.452572" x2="3409.966945" y2="152.452572" stroke="black" stroke-width="7.137"/>
<line x1="3409.966945" y1="152.452572" x2="3409.966945" y2="117.365871" stroke="black" stroke-width="7.137"/>
<line x1="3409.966945" y1="117.365871" x2="3213.800403" y2="117.365871" stroke="black" stroke-width="7.137"/>
<line x1="3213.800403" y1="117.365871" x2="3213.800403" y2="152.452572" stroke="black" stroke-width="7.137"/>
<line x1="3222.970792" y1="152.452572" x2="3222.970792" y2="164.413946" stroke="black" stroke-width="7.137"/>
<line x1="3222.970792" y1="164.413946" x2="3400.397846" y2="164.413946" stroke="black" stroke-width="7.137"/>
<line x1="3400.397846" y1="152.452572" x2="3400.397846" y2="164.413946" stroke="black" stroke-width="7.137"/>
<line x1="4139.032249" y1="1222.250278" x2="4139.032249" y2="1420.861261" stroke="black" stroke-width="7.137"/>
<line x1="4139.032249" y1="1420.861261" x2="4174.556166" y2="1420.861261" stroke="black" stroke-width="7.137"/>
<line x1="4174.556166" y1="1420.861261" x2="4174.556166" y2="1222.250278" stroke="black" stroke-width="7.137"/>
<line x1="4174.556166" y1="1222.250278" x2="4139.032249" y2="1222.250278" stroke="black" stroke-width="7.137"/>
<line x1="4139.032249" y1="1231.534938" x2="4126.921823" y2="1231.534938" stroke="black" stroke-width="7.137"/>
<line x1="4126.921823" y1="1231.534938" x2="4126.921823" y2="1411.17292" stroke="black" stroke-width="7.137"/>
<line x1="4139.032249" y1="1411.17292" x2="4126.921823" y2="1411.17292" stroke="black" stroke-width="7.137"/>
<line x1="1841.151775" y1="1873.253069" x2="1642.540792" y2="1873.253069" stroke="black" stroke-width="7.137"/>
<line x1="1642.540792" y1="1873.253069" x2="1642.540792" y2="1908.776985" stroke="black" stroke-width="7.137"/>
<line x1="1642.540792" y1="1908.776985" x2="1841.151775" y2="1908.776985" stroke="black" stroke-width="7.137"/>
<line x1="1841.151775" y1="1908.776985" x2="1841.151775" y2="1873.253069" stroke="black" stroke-width="7.137"/>
<line x1="1831.867116" y1="1873.253069" x2="1831.867116" y2="1861.142642" stroke="black" stroke-width="7.137"/>
<line x1="1831.867116" y1="1861.142642" x2="1652.229133" y2="1861.142642" stroke="black" stroke-width="7.137"/>
<line x1="1652.229133" y1="1873.253069" x2="1652.229133" y2="1861.142642" stroke="black" stroke-width="7.137"/>
<line x1="2488.810945" y1="1873.721868" x2="2290.199962" y2="1873.721868" stroke="black" stroke-width="7.137"/>
<line x1="2290.199962" y1="1873.721868" x2="2290.199962" y2="1909.245784" stroke="black" stroke-width="7.137"/>
<line x1="2290.199962" y1="1909.245784" x2="2488.810945" y2="1909.245784" stroke="black" stroke-width="7.137"/>
<line x1="2488.810945" y1="1909.245784" x2="2488.810945" y2="1873.721868" stroke="black" stroke-width="7.137"/>
<line x1="2479.526285" y1="1873.721868" x2="2479.526285" y2="1861.611442" stroke="black" stroke-width="7.137"/>
<line x1="2479.526285" y1="1861.611442" x2="2299.888303" y2="1861.611442" stroke="black" stroke-width="7.137"/>
<line x1="2299.888303" y1="1873.721868" x2="2299.888303" y2="1861.611442" stroke="black" stroke-width="7.137"/>
<line x1="2559.766466" y1="1799.47888" x2="2743.742466" y2="1799.47888" stroke="black" stroke-width="7.137"/>
<line x1="2743.742466" y1="1799.47888" x2="2743.742466" y2="1848.64488" stroke="black" stroke-width="7.137"/>
<line x1="2559.766466" y1="1848.64488" x2="2743.742466" y2="1848.64488" stroke="black" stroke-width="7.137"/>
<line x1="2559.766466" y1="1799.47888" x2="2559.766466" y2="1848.64488" stroke="black" stroke-width="7.137"/>
<line x1="2601.398966" y1="1771.72388" x2="2601.398966" y2="1799.47888" stroke="black" stroke-width="7.137"/>
<line x1="2700.523966" y1="1799.47888" x2="2700.523966" y2="1770.13788" stroke="black" stroke-width="7.137"/>
<circle cx="2650.168466" cy="1726.52288" r="66.61200000000001" fill="none" stroke="black" stroke-width="7.137"/>
<circle cx="2650.168466" cy="1726.52288" r="57.096000000000004" fill="none" stroke="black" stroke-width="7.137"/>
<line x1="3523.14144" y1="1501.380807" x2="3492.757198" y2="1495.612176" stroke="black" stroke-width="7.137"/>
<line x1="3492.757198" y1="1495.612176" x2="3453.61927" y2="1701.757582" stroke="black" stroke-width="7.137"/>
<line x1="3453.61927" y1="1701.757582" x2="3484.003519" y2="1707.52621" stroke="black" stroke-width="7.137"/>
<line x1="3484.003519" y1="1707.52621" x2="3523.14144" y2="1501.380807" stroke="black" stroke-width="7.137"/>
<line x1="3322.605437" y1="1463.307852" x2="3292.221195" y2="1457.539227" stroke="black" stroke-width="7.137"/>
<line x1="3292.221195" y1="1457.539227" x2="3253.083267" y2="1663.68463" stroke="black" stroke-width="7.137"/>
<line x1="3253.083267" y1="1663.68463" x2="3283.467509" y2="1669.453258" stroke="black" stroke-width="7.137"/>
<line x1="3283.467509" y1="1669.453258" x2="3322.605437" y2="1463.307852" stroke="black" stroke-width="7.137"/>
<line x1="3493.224649" y1="1495.700925" x2="3322.605437" y2="1463.307852" stroke="black" stroke-width="7.137"/>
<line x1="3454.731668" y1="1701.000178" x2="3423.673325" y2="1721.740027" stroke="black" stroke-width="7.137"/>
<line x1="3304.473603" y1="1699.109254" x2="3283.177556" y2="1668.429609" stroke="black" stroke-width="7.137"/>
<line x1="3425.543124" y1="1722.095022" x2="3302.603804" y2="1698.754259" stroke="black" stroke-width="7.137"/>
<line x1="3484.414873" y1="1539.552467" x2="3313.795664" y2="1507.159398" stroke="black" stroke-width="7.137"/>
<line x1="3047.075982" y1="592.18854" x2="3095.237356" y2="795.925482" stroke="black" stroke-width="7.137"/>
<line x1="3095.237356" y1="795.925482" x2="3321.200146" y2="742.510144" stroke="black" stroke-width="7.137"/>
<line x1="3321.200146" y1="742.510144" x2="3273.038775" y2="538.773199" stroke="black" stroke-width="7.137"/>
<line x1="3273.038775" y1="538.773199" x2="3047.075982" y2="592.18854" stroke="black" stroke-width="7.137"/>
<line x1="3078.562602" y1="584.745417" x2="3126.723976" y2="788.482365" stroke="black" stroke-width="7.137"/>
<line x1="2718.081877" y1="1554.357663" x2="2742.664877" y2="1535.722166" stroke="black" stroke-width="7.137"/>
<line x1="2742.664877" y1="1535.722166" x2="2742.664877" y2="1388.224166" stroke="black" stroke-width="7.137"/>
<line x1="2742.664877" y1="1388.224166" x2="2714.513377" y2="1369.192163" stroke="black" stroke-width="7.137"/>
<line x1="2715.306377" y1="1532.550163" x2="2715.306377" y2="1389.413666" stroke="black" stroke-width="7.137"/>
<circle cx="2693.498877" cy="1463.162663" r="13.0845" fill="none" stroke="black" stroke-width="7.137"/>
<path d="m 2715.974565,1530.994954 a 74.9385009642222,74.9385009642222 0 1 1 -0.40255200000001423,-139.78527899999995" fill="none" stroke="black" stroke-width="7.137"/>
<path d="m 2718.74007,1554.311304 a 95.55649809564125,95.55649809564125 0 1 1 -3.0788410000000113,-184.69990700000017" fill="none" stroke="black" stroke-width="7.137"/>
<line x1="3526.318503" y1="520.402986" x2="3902.836419" y2="520.402986" stroke="black" stroke-width="7.137"/>
<line x1="3902.836419" y1="520.402986" x2="3902.836419" y2="704.032626" stroke="black" stroke-width="7.137"/>
<line x1="3526.318503" y1="704.032626" x2="3902.836419" y2="704.032626" stroke="black" stroke-width="7.137"/>
<line x1="3526.318503" y1="520.402986" x2="3526.318503" y2="704.032626" stroke="black" stroke-width="7.137"/>
<line x1="3535.57714" y1="529.661623" x2="3727.693862" y2="529.661623" stroke="black" stroke-width="7.137"/>
<line x1="3727.693862" y1="529.661623" x2="3727.693862" y2="694.002435" stroke="black" stroke-width="7.137"/>
<line x1="3535.57714" y1="694.002435" x2="3727.693862" y2="694.002435" stroke="black" stroke-width="7.137"/>
<line x1="3535.57714" y1="529.661623" x2="3535.57714" y2="694.002435" stroke="black" stroke-width="7.137"/>
<line x1="3747.754243" y1="540.463367" x2="3882.776038" y2="540.463367" stroke="black" stroke-width="7.137"/>
<line x1="3747.754243" y1="569.010831" x2="3882.776038" y2="569.010831" stroke="black" stroke-width="7.137"/>
<line x1="3748.525797" y1="598.329849" x2="3883.547589" y2="598.329849" stroke="black" stroke-width="7.137"/>
<line x1="3748.525797" y1="626.877313" x2="3883.547589" y2="626.877313" stroke="black" stroke-width="7.137"/>
<line x1="3747.754243" y1="655.42478" x2="3882.776038" y2="655.42478" stroke="black" stroke-width="7.137"/>
<line x1="3747.754243" y1="683.972244" x2="3882.776038" y2="683.972244" stroke="black" stroke-width="7.137"/>
<line x1="3608.874685" y1="694.002435" x2="3608.874685" y2="674.713608" stroke="black" stroke-width="7.137"/>
<line x1="3608.874685" y1="674.713608" x2="3656.710976" y2="674.713608" stroke="black" stroke-width="7.137"/>
<line x1="3656.710976" y1="674.713608" x2="3656.710976" y2="693.230881" stroke="black" stroke-width="7.137"/>
<circle cx="3706.090375" cy="550.493555" r="11.57329659825696" fill="none" stroke="black" stroke-width="7.137"/>
<line x1="1580.816765" y1="670.193904" x2="1580.816765" y2="537.921504" stroke="black" stroke-width="7.137"/>
<line x1="1580.816765" y1="537.921504" x2="1595.090765" y2="537.921504" stroke="black" stroke-width="7.137"/>
<line x1="1595.090765" y1="670.193904" x2="1595.090765" y2="537.921504" stroke="black" stroke-width="7.137"/>
<line x1="1580.816765" y1="670.193904" x2="1595.090765" y2="670.193904" stroke="black" stroke-width="7.137"/>
<line x1="1595.090765" y1="656.871504" x2="1626.493565" y2="658.774704" stroke="black" stroke-width="7.137"/>
<line x1="1595.090765" y1="551.243904" x2="1627.445165" y2="549.340704" stroke="black" stroke-width="7.137"/>
<line x1="2042.342765" y1="670.193904" x2="2042.342765" y2="537.921504" stroke="black" stroke-width="7.137"/>
<line x1="2042.342765" y1="537.921504" x2="2029.020365" y2="537.921504" stroke="black" stroke-width="7.137"/>
<line x1="2029.020365" y1="670.193904" x2="2029.020365" y2="537.921504" stroke="black" stroke-width="7.137"/>
<line x1="2042.342765" y1="670.193904" x2="2029.020365" y2="670.193904" stroke="black" stroke-width="7.137"/>
<line x1="2027.117165" y1="657.823104" x2="1995.714365" y2="659.726304" stroke="black" stroke-width="7.137"/>
<line x1="2027.117165" y1="552.195504" x2="1994.762765" y2="549.340704" stroke="black" stroke-width="7.137"/>
<line x1="1745.443565" y1="374.246304" x2="1745.443565" y2="388.520304" stroke="black" stroke-width="7.137"/>
<line x1="1745.443565" y1="388.520304" x2="1877.715965" y2="388.520304" stroke="black" stroke-width="7.137"/>
<line x1="1877.715965" y1="374.246304" x2="1877.715965" y2="388.520304" stroke="black" stroke-width="7.137"/>
<line x1="1745.443565" y1="374.246304" x2="1877.715965" y2="374.246304" stroke="black" stroke-width="7.137"/>
<line x1="1863.441965" y1="388.520304" x2="1866.296765" y2="420.874704" stroke="black" stroke-width="7.137"/>
<line x1="1758.765965" y1="388.520304" x2="1756.862765" y2="420.874704" stroke="black" stroke-width="7.137"/>
<line x1="1744.491965" y1="834.820704" x2="1744.491965" y2="820.546704" stroke="black" stroke-width="7.137"/>
<line x1="1744.491965" y1="820.546704" x2="1876.764365" y2="820.546704" stroke="black" stroke-width="7.137"/>
<line x1="1876.764365" y1="834.820704" x2="1876.764365" y2="820.546704" stroke="black" stroke-width="7.137"/>
<line x1="1744.491965" y1="834.820704" x2="1876.764365" y2="834.820704" stroke="black" stroke-width="7.137"/>
<line x1="1862.490365" y1="820.546704" x2="1865.345165" y2="788.192304" stroke="black" stroke-width="7.137"/>
<line x1="1757.814365" y1="820.546704" x2="1755.911165" y2="788.192304" stroke="black" stroke-width="7.137"/>
<circle cx="1811.103965" cy="604.533504" r="192.2232" fill="none" stroke="black" stroke-width="7.137"/>
<line x1="660.984878" y1="377.96057" x2="660.984878" y2="187.64057" stroke="black" stroke-width="7.137"/>
<line x1="660.984878" y1="187.64057" x2="196.604078" y2="187.64057" stroke="black" stroke-width="7.137"/>
<line x1="196.604078" y1="187.64057" x2="196.604078" y2="377.96057" stroke="black" stroke-width="7.137"/>
<line x1="196.604078" y1="377.96057" x2="220.394078" y2="377.96057" stroke="black" stroke-width="7.137"/>
<line x1="220.394078" y1="377.96057" x2="220.394078" y2="210.47897" stroke="black" stroke-width="7.137"/>
<line x1="220.394078" y1="210.47897" x2="636.243278" y2="210.47897" stroke="black" stroke-width="7.137"/>
<line x1="636.243278" y1="210.47897" x2="636.243278" y2="377.96057" stroke="black" stroke-width="7.137"/>
<line x1="636.243278" y1="377.96057" x2="660.984878" y2="377.96057" stroke="black" stroke-width="7.137"/>
<line x1="636.243278" y1="372.25097" x2="220.394078" y2="372.25097" stroke="black" stroke-width="7.137"/>
<line x1="428.794478" y1="373.20257" x2="428.794478" y2="211.43057" stroke="black" stroke-width="7.137"/>
<line x1="198.665291" y1="859.590744" x2="403.442445" y2="903.117471" stroke="black" stroke-width="7.137"/>
<line x1="403.442445" y1="903.117471" x2="451.717545" y2="676.000986" stroke="black" stroke-width="7.137"/>
<line x1="451.717545" y1="676.000986" x2="246.94039" y2="632.47426" stroke="black" stroke-width="7.137"/>
<line x1="246.94039" y1="632.47426" x2="198.665291" y2="859.590744" stroke="black" stroke-width="7.137"/>
<line x1="205.392148" y1="827.943361" x2="410.169306" y2="871.470087" stroke="black" stroke-width="7.137"/>
<line x1="319.483726" y1="1022.805253" x2="394.316297" y2="1144.920912" stroke="black" stroke-width="7.137"/>
<line x1="394.316297" y1="1144.920912" x2="271.950402" y2="1219.906827" stroke="black" stroke-width="7.137"/>
<line x1="271.950402" y1="1219.906827" x2="197.117831" y2="1097.791171" stroke="black" stroke-width="7.137"/>
<line x1="197.117831" y1="1097.791171" x2="319.483726" y2="1022.805253" stroke="black" stroke-width="7.137"/>
<line x1="319.580618" y1="1022.40167" x2="271.950402" y2="1219.906827" stroke="black" stroke-width="7.137"/>
<line x1="197.368067" y1="1097.637824" x2="394.16295" y2="1144.670673" stroke="black" stroke-width="7.137"/>
<line x1="2795.013938" y1="1653.251808" x2="2989.742006" y2="1653.251808" stroke="black" stroke-width="7.137"/>
<line x1="2989.742006" y1="1653.251808" x2="2989.742006" y2="1848.378908" stroke="black" stroke-width="7.137"/>
<line x1="2989.742006" y1="1848.378908" x2="2795.013938" y2="1848.378908" stroke="black" stroke-width="7.137"/>
<line x1="2795.013938" y1="1848.378908" x2="2795.013938" y2="1653.251808" stroke="black" stroke-width="7.137"/>
<line x1="2794.614907" y1="1652.852774" x2="2989.742006" y2="1848.378908" stroke="black" stroke-width="7.137"/>
<line x1="2795.013938" y1="1847.979873" x2="2989.342972" y2="1653.251808" stroke="black" stroke-width="7.137"/>
<line x1="2528.210189" y1="1253.940966" x2="2606.631332" y2="1135.45954" stroke="black" stroke-width="7.137"/>
<line x1="2606.631332" y1="1135.45954" x2="2725.355549" y2="1214.041383" stroke="black" stroke-width="7.137"/>
<line x1="2725.355549" y1="1214.041383" x2="2646.934406" y2="1332.522809" stroke="black" stroke-width="7.137"/>
<line x1="2646.934406" y1="1332.522809" x2="2528.210189" y2="1253.940966" stroke="black" stroke-width="7.137"/>
<line x1="2527.806701" y1="1254.023057" x2="2725.355549" y2="1214.041383" stroke="black" stroke-width="7.137"/>
<line x1="2646.691614" y1="1332.362112" x2="2606.470635" y2="1135.702328" stroke="black" stroke-width="7.137"/>
<line x1="187.012721" y1="746.028976" x2="187.012721" y2="359.167086" stroke="black" stroke-width="7.137"/>
<line x1="187.012721" y1="359.167086" x2="127.374781" y2="359.167086" stroke="black" stroke-width="7.137"/>
<line x1="127.374781" y1="359.167086" x2="127.374781" y2="746.028976" stroke="black" stroke-width="7.137"/>
<line x1="127.374781" y1="746.028976" x2="187.012721" y2="746.028976" stroke="black" stroke-width="7.137"/>
<line x1="128.15949" y1="709.93233" x2="186.228009" y2="709.93233" stroke="black" stroke-width="7.137"/>
<line x1="128.15949" y1="396.04844" x2="188.582137" y2="396.04844" stroke="black" stroke-width="7.137"/>
<line x1="155.624331" y1="710.717039" x2="155.624331" y2="396.833152" stroke="black" stroke-width="7.137"/>
<line x1="2240.449955" y1="1365.887577" x2="2240.449955" y2="1388.961945" stroke="black" stroke-width="7.137"/>
<line x1="2240.449955" y1="1388.961945" x2="2285.473114" y2="1388.961945" stroke="black" stroke-width="7.137"/>
<line x1="2285.473114" y1="1388.961945" x2="2285.473114" y2="1365.887577" stroke="black" stroke-width="7.137"/>
<line x1="2285.473114" y1="1365.887577" x2="2240.449955" y2="1365.887577" stroke="black" stroke-width="7.137"/>
<line x1="2285.473114" y1="1614.640518" x2="2510.026105" y2="1614.640518" stroke="black" stroke-width="7.137"/>
<line x1="2239.324377" y1="1615.203307" x2="2239.324377" y2="1638.277675" stroke="black" stroke-width="7.137"/>
<line x1="2239.324377" y1="1638.277675" x2="2284.347533" y2="1638.277675" stroke="black" stroke-width="7.137"/>
<line x1="2284.347533" y1="1638.277675" x2="2284.347533" y2="1615.203307" stroke="black" stroke-width="7.137"/>
<line x1="2284.347533" y1="1615.203307" x2="2239.324377" y2="1615.203307" stroke="black" stroke-width="7.137"/>
<path d="m 2283.784744,1388.961945 a 225.67857249999986,225.67857249999986 0 0 1 225.6785719999998,225.67857299999991" fill="none" stroke="black" stroke-width="7.137"/>
<line x1="3004.748747" y1="1046.483199" x2="3026.73164" y2="1068.237085" stroke="black" stroke-width="7.137"/>
<line x1="3026.73164" y1="1068.237085" x2="3174.323404" y2="919.091596" stroke="black" stroke-width="7.137"/>
<line x1="3174.323404" y1="919.091596" x2="3152.340509" y2="897.337709" stroke="black" stroke-width="7.137"/>
<line x1="3152.340509" y1="897.337709" x2="3004.748747" y2="1046.483199" stroke="black" stroke-width="7.137"/>
<line x1="3149.835859" y1="1190.058862" x2="3171.818752" y2="1211.812746" stroke="black" stroke-width="7.137"/>
<line x1="3171.818752" y1="1211.812746" x2="3319.410516" y2="1062.667256" stroke="black" stroke-width="7.137"/>
<line x1="3319.410516" y1="1062.667256" x2="3297.42762" y2="1040.913373" stroke="black" stroke-width="7.137"/>
<line x1="3297.42762" y1="1040.913373" x2="3149.835859" y2="1190.058862" stroke="black" stroke-width="7.137"/>
<line x1="3026.393448" y1="1067.902414" x2="3149.835859" y2="1190.058862" stroke="black" stroke-width="7.137"/>
<line x1="3172.977661" y1="919.098644" x2="3210.323904" y2="919.239545" stroke="black" stroke-width="7.137"/>
<line x1="3296.564494" y1="1004.581719" x2="3297.096467" y2="1041.924441" stroke="black" stroke-width="7.137"/>
<line x1="3208.97111" y1="917.90084" x2="3297.917288" y2="1005.920421" stroke="black" stroke-width="7.137"/>
<line x1="3058.191111" y1="1036.446439" x2="3181.633526" y2="1158.602887" stroke="black" stroke-width="7.137"/>
<line x1="1586.000082" y1="1849.265666" x2="1601.696718" y2="1822.618062" stroke="black" stroke-width="7.137"/>
<line x1="1601.696718" y1="1822.618062" x2="1420.902967" y2="1716.122399" stroke="black" stroke-width="7.137"/>
<line x1="1420.902967" y1="1716.122399" x2="1405.206331" y2="1742.770007" stroke="black" stroke-width="7.137"/>
<line x1="1405.206331" y1="1742.770007" x2="1586.000082" y2="1849.265666" stroke="black" stroke-width="7.137"/>
<line x1="1689.597897" y1="1673.391471" x2="1705.294536" y2="1646.743867" stroke="black" stroke-width="7.137"/>
<line x1="1705.294536" y1="1646.743867" x2="1524.500785" y2="1540.248208" stroke="black" stroke-width="7.137"/>
<line x1="1524.500785" y1="1540.248208" x2="1508.804143" y2="1566.895815" stroke="black" stroke-width="7.137"/>
<line x1="1508.804143" y1="1566.895815" x2="1689.597897" y2="1673.391471" stroke="black" stroke-width="7.137"/>
<line x1="1601.455231" y1="1823.028024" x2="1689.597897" y2="1673.391471" stroke="black" stroke-width="7.137"/>
<line x1="1421.239922" y1="1717.425305" x2="1412.215205" y2="1681.185592" stroke="black" stroke-width="7.137"/>
<line x1="1473.794329" y1="1576.644989" x2="1509.865558" y2="1566.968822" stroke="black" stroke-width="7.137"/>
<line x1="1411.249258" y1="1682.825443" x2="1474.760272" y2="1575.005134" stroke="black" stroke-width="7.137"/>
<line x1="1563.160182" y1="1799.918307" x2="1651.302846" y2="1650.281757" stroke="black" stroke-width="7.137"/>
</g>
</svg>
