<?xml version="1.0"?>
<svg xmlns:xlink="http://www.w3.org/1999/xlink" width="4348.812" height="2226.744">
<image x="0" y="0" width="4348.812" height="2226.744" xlink:href="ground16-10.png"/>
<g style="stroke-linecap:round">
<line x1="403.073634" y1="1261.405573" x2="403.073634" y2="1284.479941" stroke="black" stroke-width="7.137"/>
<line x1="403.073634" y1="1284.479941" x2="448.096792" y2="1284.479941" stroke="black" stroke-width="7.137"/>
<line x1="448.096792" y1="1284.479941" x2="448.096792" y2="1261.405573" stroke="black" stroke-width="7.137"/>
<line x1="448.096792" y1="1261.405573" x2="403.073634" y2="1261.405573" stroke="black" stroke-width="7.137"/>
<line x1="448.096792" y1="1510.158514" x2="672.649784" y2="1510.158514" stroke="black" stroke-width="7.137"/>
<line x1="401.948056" y1="1510.721303" x2="401.948056" y2="1533.795671" stroke="black" stroke-width="7.137"/>
<line x1="401.948056" y1="1533.795671" x2="446.971211" y2="1533.795671" stroke="black" stroke-width="7.137"/>
<line x1="446.971211" y1="1533.795671" x2="446.971211" y2="1510.721303" stroke="black" stroke-width="7.137"/>
<line x1="446.971211" y1="1510.721303" x2="401.948056" y2="1510.721303" stroke="black" stroke-width="7.137"/>
<path d="m 446.408422,1284.479941 a 225.67857299999997,225.67857299999997 0 0 1 225.67857300000003,225.67857299999991" fill="none" stroke="black" stroke-width="7.137"/>
<line x1="1917.663575" y1="1638.130602" x2="1917.663575" y2="1615.056234" stroke="black" stroke-width="7.137"/>
<line x1="1917.663575" y1="1615.056234" x2="1872.640416" y2="1615.056234" stroke="black" stroke-width="7.137"/>
<line x1="1872.640416" y1="1615.056234" x2="1872.640416" y2="1638.130602" stroke="black" stroke-width="7.137"/>
<line x1="1872.640416" y1="1638.130602" x2="1917.663575" y2="1638.130602" stroke="black" stroke-width="7.137"/>
<line x1="1872.640416" y1="1389.377661" x2="1648.087424" y2="1389.377661" stroke="black" stroke-width="7.137"/>
<line x1="1918.789152" y1="1388.814872" x2="1918.789152" y2="1365.740504" stroke="black" stroke-width="7.137"/>
<line x1="1918.789152" y1="1365.740504" x2="1873.765997" y2="1365.740504" stroke="black" stroke-width="7.137"/>
<line x1="1873.765997" y1="1365.740504" x2="1873.765997" y2="1388.814872" stroke="black" stroke-width="7.137"/>
<line x1="1873.765997" y1="1388.814872" x2="1918.789152" y2="1388.814872" stroke="black" stroke-width="7.137"/>
<path d="m 1874.328786,1615.056234 a 225.67857300000003,225.67857300000003 0 0 1 -225.67857300000014,-225.67857299999991" fill="none" stroke="black" stroke-width="7.137"/>
<line x1="2911.380239" y1="1379.940939" x2="2924.515856" y2="1394.02716" stroke="black" stroke-width="7.137"/>
<line x1="2924.515856" y1="1394.02716" x2="2952.001163" y2="1368.396689" stroke="black" stroke-width="7.137"/>
<line x1="2952.001163" y1="1368.396689" x2="2938.865546" y2="1354.310468" stroke="black" stroke-width="7.137"/>
<line x1="2938.865546" y1="1354.310468" x2="2911.380239" y2="1379.940939" stroke="black" stroke-width="7.137"/>
<line x1="3080.473897" y1="1506.166784" x2="3217.55686" y2="1378.334813" stroke="black" stroke-width="7.137"/>
<line x1="3052.621837" y1="1532.781583" x2="3065.757454" y2="1546.867804" stroke="black" stroke-width="7.137"/>
<line x1="3065.757454" y1="1546.867804" x2="3093.242764" y2="1521.237333" stroke="black" stroke-width="7.137"/>
<line x1="3093.242764" y1="1521.237333" x2="3080.107144" y2="1507.151115" stroke="black" stroke-width="7.137"/>
<line x1="3080.107144" y1="1507.151115" x2="3052.621837" y2="1532.781583" stroke="black" stroke-width="7.137"/>
<path d="m 2950.97046,1369.357834 a 188.376865628772,188.376865628772 0 0 1 266.242835,9.297357000000147" fill="none" stroke="black" stroke-width="7.137"/>
<line x1="4172.82374" y1="469.467578" x2="4172.82374" y2="446.39321" stroke="black" stroke-width="7.137"/>
<line x1="4172.82374" y1="446.39321" x2="4127.800581" y2="446.39321" stroke="black" stroke-width="7.137"/>
<line x1="4127.800581" y1="446.39321" x2="4127.800581" y2="469.467578" stroke="black" stroke-width="7.137"/>
<line x1="4127.800581" y1="469.467578" x2="4172.82374" y2="469.467578" stroke="black" stroke-width="7.137"/>
<line x1="4127.800581" y1="220.714637" x2="3903.24759" y2="220.714637" stroke="black" stroke-width="7.137"/>
<line x1="4173.949318" y1="220.151848" x2="4173.949318" y2="197.07748" stroke="black" stroke-width="7.137"/>
<line x1="4173.949318" y1="197.07748" x2="4128.926162" y2="197.07748" stroke="black" stroke-width="7.137"/>
<line x1="4128.926162" y1="197.07748" x2="4128.926162" y2="220.151848" stroke="black" stroke-width="7.137"/>
<line x1="4128.926162" y1="220.151848" x2="4173.949318" y2="220.151848" stroke="black" stroke-width="7.137"/>
<path d="m 4129.488951,446.39321 a 225.67857250000014,225.67857250000014 0 0 1 -225.67857200000026,-225.678573" fill="none" stroke="black" stroke-width="7.137"/>
<line x1="4172.660905" y1="1828.520329" x2="4172.660905" y2="1805.445961" stroke="black" stroke-width="7.137"/>
<line x1="4172.660905" y1="1805.445961" x2="4127.637747" y2="1805.445961" stroke="black" stroke-width="7.137"/>
<line x1="4127.637747" y1="1805.445961" x2="4127.637747" y2="1828.520329" stroke="black" stroke-width="7.137"/>
<line x1="4127.637747" y1="1828.520329" x2="4172.660905" y2="1828.520329" stroke="black" stroke-width="7.137"/>
<line x1="4127.637747" y1="1579.767388" x2="3903.084755" y2="1579.767388" stroke="black" stroke-width="7.137"/>
<line x1="4173.786483" y1="1579.204599" x2="4173.786483" y2="1556.130231" stroke="black" stroke-width="7.137"/>
<line x1="4173.786483" y1="1556.130231" x2="4128.763328" y2="1556.130231" stroke="black" stroke-width="7.137"/>
<line x1="4128.763328" y1="1556.130231" x2="4128.763328" y2="1579.204599" stroke="black" stroke-width="7.137"/>
<line x1="4128.763328" y1="1579.204599" x2="4173.786483" y2="1579.204599" stroke="black" stroke-width="7.137"/>
<path d="m 4129.326117,1805.445961 a 225.6785729999998,225.6785729999998 0 0 1 -225.6785729999997,-225.67857299999991" fill="none" stroke="black" stroke-width="7.137"/>
<line x1="1793.281943" y1="152.743054" x2="1991.892926" y2="152.743054" stroke="black" stroke-width="7.137"/>
<line x1="1991.892926" y1="152.743054" x2="1991.892926" y2="117.219138" stroke="black" stroke-width="7.137"/>
<line x1="1991.892926" y1="117.219138" x2="1793.281943" y2="117.219138" stroke="black" stroke-width="7.137"/>
<line x1="1793.281943" y1="117.219138" x2="1793.281943" y2="152.743054" stroke="black" stroke-width="7.137"/>
<line x1="1802.566603" y1="152.743054" x2="1802.566603" y2="164.853481" stroke="black" stroke-width="7.137"/>
<line x1="1802.566603" y1="164.853481" x2="1982.204585" y2="164.853481" stroke="black" stroke-width="7.137"/>
<line x1="1982.204585" y1="152.743054" x2="1982.204585" y2="164.853481" stroke="black" stroke-width="7.137"/>
<line x1="2384.583767" y1="153.346657" x2="2583.19475" y2="153.346657" stroke="black" stroke-width="7.137"/>
<line x1="2583.19475" y1="153.346657" x2="2583.19475" y2="117.822741" stroke="black" stroke-width="7.137"/>
<line x1="2583.19475" y1="117.822741" x2="2384.583767" y2="117.822741" stroke="black" stroke-width="7.137"/>
<line x1="2384.583767" y1="117.822741" x2="2384.583767" y2="153.346657" stroke="black" stroke-width="7.137"/>
<line x1="2393.868426" y1="153.346657" x2="2393.868426" y2="165.457084" stroke="black" stroke-width="7.137"/>
<line x1="2393.868426" y1="165.457084" x2="2573.506409" y2="165.457084" stroke="black" stroke-width="7.137"/>
<line x1="2573.506409" y1="153.346657" x2="2573.506409" y2="165.457084" stroke="black" stroke-width="7.137"/>
<line x1="2794.835164" y1="152.713472" x2="2991.001705" y2="152.713472" stroke="black" stroke-width="7.137"/>
<line x1="2991.001705" y1="152.713472" x2="2991.001705" y2="117.626772" stroke="black" stroke-width="7.137"/>
<line x1="2991.001705" y1="117.626772" x2="2794.835164" y2="117.626772" stroke="black" stroke-width="7.137"/>
<line x1="2794.835164" y1="117.626772" x2="2794.835164" y2="152.713472" stroke="black" stroke-width="7.137"/>
<line x1="2804.005552" y1="152.713472" x2="2804.005552" y2="164.674846" stroke="black" stroke-width="7.137"/>
<line x1="2804.005552" y1="164.674846" x2="2981.432606" y2="164.674846" stroke="black" stroke-width="7.137"/>
<line x1="2981.432606" y1="152.713472" x2="2981.432606" y2="164.674846" stroke="black" stroke-width="7.137"/>
<line x1="3213.800403" y1="152.452572" x2="3409.966945" y2="152.452572" stroke="black" stroke-width="7.137"/>
<line x1="3409.966945" y1="152.452572" x2="3409.966945" y2="117.365871" stroke="black" stroke-width="7.137"/>
<line x1="3409.966945" y1="117.365871" x2="3213.800403" y2="117.365871" stroke="black" stroke-width="7.137"/>
<line x1="3213.800403" y1="117.365871" x2="3213.800403" y2="152.452572" stroke="black" stroke-width="7.137"/>
<line x1="3222.970792" y1="152.452572" x2="3222.970792" y2="164.413946" stroke="black" stroke-width="7.137"/>
<line x1="3222.970792" y1="164.413946" x2="3400.397846" y2="164.413946" stroke="black" stroke-width="7.137"/>
<line x1="3400.397846" y1="152.452572" x2="3400.397846" y2="164.413946" stroke="black" stroke-width="7.137"/>
<line x1="4139.032249" y1="1222.250278" x2="4139.032249" y2="1420.861261" stroke="black" stroke-width="7.137"/>
<line x1="4139.032249" y1="1420.861261" x2="4174.556166" y2="1420.861261" stroke="black" stroke-width="7.137"/>
<line x1="4174.556166" y1="1420.861261" x2="4174.556166" y2="1222.250278" stroke="black" stroke-width="7.137"/>
<line x1="4174.556166" y1="1222.250278" x2="4139.032249" y2="1222.250278" stroke="black" stroke-width="7.137"/>
<line x1="4139.032249" y1="1231.534938" x2="4126.921823" y2="1231.534938" stroke="black" stroke-width="7.137"/>
<line x1="4126.921823" y1="1231.534938" x2="4126.921823" y2="1411.17292" stroke="black" stroke-width="7.137"/>
<line x1="4139.032249" y1="1411.17292" x2="4126.921823" y2="1411.17292" stroke="black" stroke-width="7.137"/>
<line x1="1841.151775" y1="1873.253069" x2="1642.540792" y2="1873.253069" stroke="black" stroke-width="7.137"/>
<line x1="1642.540792" y1="1873.253069" x2="1642.540792" y2="1908.776985" stroke="black" stroke-width="7.137"/>
<line x1="1642.540792" y1="1908.776985" x2="1841.151775" y2="1908.776985" stroke="black" stroke-width="7.137"/>
<line x1="1841.151775" y1="1908.776985" x2="1841.151775" y2="1873.253069" stroke="black" stroke-width="7.137"/>
<line x1="1831.867116" y1="1873.253069" x2="1831.867116" y2="1861.142642" stroke="black" stroke-width="7.137"/>
<line x1="1831.867116" y1="1861.142642" x2="1652.229133" y2="1861.142642" stroke="black" stroke-width="7.137"/>
<line x1="1652.229133" y1="1873.253069" x2="1652.229133" y2="1861.142642" stroke="black" stroke-width="7.137"/>
<line x1="2488.810945" y1="1873.721868" x2="2290.199962" y2="1873.721868" stroke="black" stroke-width="7.137"/>
<line x1="2290.199962" y1="1873.721868" x2="2290.199962" y2="1909.245784" stroke="black" stroke-width="7.137"/>
<line x1="2290.199962" y1="1909.245784" x2="2488.810945" y2="1909.245784" stroke="black" stroke-width="7.137"/>
<line x1="2488.810945" y1="1909.245784" x2="2488.810945" y2="1873.721868" stroke="black" stroke-width="7.137"/>
<line x1="2479.526285" y1="1873.721868" x2="2479.526285" y2="1861.611442" stroke="black" stroke-width="7.137"/>
<line x1="2479.526285" y1="1861.611442" x2="2299.888303" y2="1861.611442" stroke="black" stroke-width="7.137"/>
<line x1="2299.888303" y1="1873.721868" x2="2299.888303" y2="1861.611442" stroke="black" stroke-width="7.137"/>
<line x1="2694.576466" y1="1848.64488" x2="2694.576466" y2="1664.66888" stroke="black" stroke-width="7.137"/>
<line x1="2694.576466" y1="1664.66888" x2="2743.742466" y2="1664.66888" stroke="black" stroke-width="7.137"/>
<line x1="2743.742466" y1="1848.64488" x2="2743.742466" y2="1664.66888" stroke="black" stroke-width="7.137"/>
<line x1="2694.576466" y1="1848.64488" x2="2743.742466" y2="1848.64488" stroke="black" stroke-width="7.137"/>
<line x1="2666.821466" y1="1807.01238" x2="2694.576466" y2="1807.01238" stroke="black" stroke-width="7.137"/>
<line x1="2694.576466" y1="1707.88738" x2="2665.235466" y2="1707.88738" stroke="black" stroke-width="7.137"/>
<circle cx="2621.620466" cy="1758.24288" r="66.61200000000001" fill="none" stroke="black" stroke-width="7.137"/>
<circle cx="2621.620466" cy="1758.24288" r="57.096000000000004" fill="none" stroke="black" stroke-width="7.137"/>
<line x1="3459.803436" y1="1429.814615" x2="3264.685726" y2="1505.691742" stroke="black" stroke-width="7.137"/>
<line x1="3264.685726" y1="1505.691742" x2="3348.840358" y2="1722.095022" stroke="black" stroke-width="7.137"/>
<line x1="3348.840358" y1="1722.095022" x2="3543.958071" y2="1646.217892" stroke="black" stroke-width="7.137"/>
<line x1="3543.958071" y1="1646.217892" x2="3459.803436" y2="1429.814615" stroke="black" stroke-width="7.137"/>
<line x1="3471.529905" y1="1459.96917" x2="3276.412191" y2="1535.846296" stroke="black" stroke-width="7.137"/>
<line x1="3047.027355" y1="594.141103" x2="3055.188153" y2="623.971971" stroke="black" stroke-width="7.137"/>
<line x1="3055.188153" y1="623.971971" x2="3257.579117" y2="568.60407" stroke="black" stroke-width="7.137"/>
<line x1="3257.579117" y1="568.60407" x2="3249.418316" y2="538.773199" stroke="black" stroke-width="7.137"/>
<line x1="3249.418316" y1="538.773199" x2="3047.027355" y2="594.141103" stroke="black" stroke-width="7.137"/>
<line x1="3100.888645" y1="791.024827" x2="3109.049449" y2="820.855695" stroke="black" stroke-width="7.137"/>
<line x1="3109.049449" y1="820.855695" x2="3311.440409" y2="765.487791" stroke="black" stroke-width="7.137"/>
<line x1="3311.440409" y1="765.487791" x2="3303.279608" y2="735.656927" stroke="black" stroke-width="7.137"/>
<line x1="3303.279608" y1="735.656927" x2="3100.888645" y2="791.024827" stroke="black" stroke-width="7.137"/>
<line x1="3055.062605" y1="623.513033" x2="3100.888645" y2="791.024827" stroke="black" stroke-width="7.137"/>
<line x1="3256.410143" y1="567.9373" x2="3288.682486" y2="586.732446" stroke="black" stroke-width="7.137"/>
<line x1="3320.697945" y1="703.761233" x2="3302.487284" y2="736.366966" stroke="black" stroke-width="7.137"/>
<line x1="3288.180286" y1="584.896699" x2="3321.200146" y2="705.596974" stroke="black" stroke-width="7.137"/>
<line x1="3098.328178" y1="612.170196" x2="3144.154221" y2="779.68199" stroke="black" stroke-width="7.137"/>
<line x1="2718.081877" y1="1554.357663" x2="2742.664877" y2="1535.722166" stroke="black" stroke-width="7.137"/>
<line x1="2742.664877" y1="1535.722166" x2="2742.664877" y2="1388.224166" stroke="black" stroke-width="7.137"/>
<line x1="2742.664877" y1="1388.224166" x2="2714.513377" y2="1369.192163" stroke="black" stroke-width="7.137"/>
<line x1="2715.306377" y1="1532.550163" x2="2715.306377" y2="1389.413666" stroke="black" stroke-width="7.137"/>
<circle cx="2693.498877" cy="1463.162663" r="13.0845" fill="none" stroke="black" stroke-width="7.137"/>
<path d="m 2715.974565,1530.994954 a 74.9385009642222,74.9385009642222 0 1 1 -0.40255200000001423,-139.78527899999995" fill="none" stroke="black" stroke-width="7.137"/>
<path d="m 2718.74007,1554.311304 a 95.55649809564125,95.55649809564125 0 1 1 -3.0788410000000113,-184.69990700000017" fill="none" stroke="black" stroke-width="7.137"/>
<line x1="3448.740287" y1="521.73947" x2="3976.265716" y2="521.73947" stroke="black" stroke-width="7.137"/>
<line x1="3981.571781" y1="520.402986" x2="3981.571781" y2="702.935364" stroke="black" stroke-width="7.137"/>
<line x1="3449.363252" y1="704.480078" x2="3981.981384" y2="704.480078" stroke="black" stroke-width="7.137"/>
<line x1="3450.349084" y1="522.671458" x2="3450.349084" y2="704.124328" stroke="black" stroke-width="7.137"/>
<line x1="3464.160876" y1="536.613705" x2="3629.902355" y2="536.613705" stroke="black" stroke-width="7.137"/>
<line x1="3629.902355" y1="536.613705" x2="3629.902355" y2="689.60584" stroke="black" stroke-width="7.137"/>
<line x1="3464.160876" y1="689.60584" x2="3629.902355" y2="689.60584" stroke="black" stroke-width="7.137"/>
<line x1="3464.160876" y1="536.613705" x2="3464.160876" y2="689.60584" stroke="black" stroke-width="7.137"/>
<line x1="3655.401045" y1="546.175714" x2="3772.270038" y2="546.175714" stroke="black" stroke-width="7.137"/>
<line x1="3655.401045" y1="572.736847" x2="3772.270038" y2="572.736847" stroke="black" stroke-width="7.137"/>
<line x1="3656.46349" y1="600.360427" x2="3772.270038" y2="600.360427" stroke="black" stroke-width="7.137"/>
<line x1="3656.46349" y1="626.921563" x2="3772.270038" y2="626.921563" stroke="black" stroke-width="7.137"/>
<line x1="3655.401045" y1="653.482698" x2="3772.270038" y2="653.482698" stroke="black" stroke-width="7.137"/>
<line x1="3655.401045" y1="680.043833" x2="3772.270038" y2="680.043833" stroke="black" stroke-width="7.137"/>
<line x1="3527.907599" y1="688.543395" x2="3527.907599" y2="670.481824" stroke="black" stroke-width="7.137"/>
<line x1="3527.907599" y1="670.481824" x2="3568.280523" y2="670.481824" stroke="black" stroke-width="7.137"/>
<line x1="3568.280523" y1="670.481824" x2="3568.280523" y2="687.480949" stroke="black" stroke-width="7.137"/>
<line x1="3799.893619" y1="536.613705" x2="3965.635101" y2="536.613705" stroke="black" stroke-width="7.137"/>
<line x1="3965.635101" y1="536.613705" x2="3965.635101" y2="689.60584" stroke="black" stroke-width="7.137"/>
<line x1="3799.893619" y1="689.60584" x2="3965.635101" y2="689.60584" stroke="black" stroke-width="7.137"/>
<line x1="3799.893619" y1="536.613705" x2="3799.893619" y2="689.60584" stroke="black" stroke-width="7.137"/>
<line x1="3863.640342" y1="689.60584" x2="3863.640342" y2="671.544269" stroke="black" stroke-width="7.137"/>
<line x1="3863.640342" y1="671.544269" x2="3904.013266" y2="671.544269" stroke="black" stroke-width="7.137"/>
<line x1="3904.013266" y1="671.544269" x2="3904.013266" y2="688.543395" stroke="black" stroke-width="7.137"/>
<circle cx="3610.778338" cy="555.737721" r="9.562008527221566" fill="none" stroke="black" stroke-width="7.137"/>
<circle cx="3946.511084" cy="556.800167" r="9.562008527221566" fill="none" stroke="black" stroke-width="7.137"/>
<line x1="1798.156184" y1="407.869504" x2="1798.156184" y2="801.197504" stroke="black" stroke-width="7.137"/>
<line x1="1798.156184" y1="801.197504" x2="1982.925184" y2="801.197504" stroke="black" stroke-width="7.137"/>
<line x1="1982.925184" y1="801.197504" x2="1982.925184" y2="407.869504" stroke="black" stroke-width="7.137"/>
<line x1="1982.925184" y1="407.869504" x2="1798.156184" y2="407.869504" stroke="black" stroke-width="7.137"/>
<line x1="1982.925184" y1="567.262504" x2="2063.811184" y2="567.262504" stroke="black" stroke-width="7.137"/>
<line x1="2063.811184" y1="567.262504" x2="2063.811184" y2="488.755504" stroke="black" stroke-width="7.137"/>
<line x1="2063.811184" y1="488.755504" x2="1982.925184" y2="488.755504" stroke="black" stroke-width="7.137"/>
<line x1="2046.365184" y1="489.548504" x2="2046.365184" y2="567.262504" stroke="black" stroke-width="7.137"/>
<line x1="1716.477184" y1="488.755504" x2="1716.477184" y2="567.262504" stroke="black" stroke-width="7.137"/>
<line x1="1716.477184" y1="567.262504" x2="1798.156184" y2="567.262504" stroke="black" stroke-width="7.137"/>
<line x1="1798.156184" y1="488.755504" x2="1716.477184" y2="488.755504" stroke="black" stroke-width="7.137"/>
<line x1="1733.923184" y1="489.548504" x2="1733.923184" y2="567.262504" stroke="black" stroke-width="7.137"/>
<line x1="1982.925184" y1="718.725504" x2="2063.811184" y2="718.725504" stroke="black" stroke-width="7.137"/>
<line x1="2063.811184" y1="718.725504" x2="2063.811184" y2="640.218504" stroke="black" stroke-width="7.137"/>
<line x1="2063.811184" y1="640.218504" x2="1982.925184" y2="640.218504" stroke="black" stroke-width="7.137"/>
<line x1="2046.365184" y1="640.218504" x2="2046.365184" y2="718.725504" stroke="black" stroke-width="7.137"/>
<line x1="1716.477184" y1="640.218504" x2="1716.477184" y2="718.725504" stroke="black" stroke-width="7.137"/>
<line x1="1716.477184" y1="718.725504" x2="1798.156184" y2="718.725504" stroke="black" stroke-width="7.137"/>
<line x1="1798.156184" y1="640.218504" x2="1716.477184" y2="640.218504" stroke="black" stroke-width="7.137"/>
<line x1="1733.923184" y1="640.218504" x2="1733.923184" y2="718.725504" stroke="black" stroke-width="7.137"/>
<line x1="386.924078" y1="187.64057" x2="196.604078" y2="187.64057" stroke="black" stroke-width="7.137"/>
<line x1="196.604078" y1="187.64057" x2="196.604078" y2="652.02137" stroke="black" stroke-width="7.137"/>
<line x1="196.604078" y1="652.02137" x2="386.924078" y2="652.02137" stroke="black" stroke-width="7.137"/>
<line x1="386.924078" y1="652.02137" x2="386.924078" y2="628.23137" stroke="black" stroke-width="7.137"/>
<line x1="386.924078" y1="628.23137" x2="219.442478" y2="628.23137" stroke="black" stroke-width="7.137"/>
<line x1="219.442478" y1="628.23137" x2="219.442478" y2="212.38217" stroke="black" stroke-width="7.137"/>
<line x1="219.442478" y1="212.38217" x2="386.924078" y2="212.38217" stroke="black" stroke-width="7.137"/>
<line x1="386.924078" y1="212.38217" x2="386.924078" y2="187.64057" stroke="black" stroke-width="7.137"/>
<line x1="381.214478" y1="212.38217" x2="381.214478" y2="628.23137" stroke="black" stroke-width="7.137"/>
<line x1="382.166078" y1="419.83097" x2="220.394078" y2="419.83097" stroke="black" stroke-width="7.137"/>
<line x1="886.335361" y1="374.697896" x2="787.405915" y2="190.195255" stroke="black" stroke-width="7.137"/>
<line x1="787.405915" y1="190.195255" x2="582.775713" y2="299.917006" stroke="black" stroke-width="7.137"/>
<line x1="582.775713" y1="299.917006" x2="681.705159" y2="484.419647" stroke="black" stroke-width="7.137"/>
<line x1="681.705159" y1="484.419647" x2="886.335361" y2="374.697896" stroke="black" stroke-width="7.137"/>
<line x1="857.821317" y1="389.986989" x2="758.891871" y2="205.484352" stroke="black" stroke-width="7.137"/>
<line x1="2901.063125" y1="1654.406819" x2="3095.791193" y2="1654.406819" stroke="black" stroke-width="7.137"/>
<line x1="3095.791193" y1="1654.406819" x2="3095.791193" y2="1849.533918" stroke="black" stroke-width="7.137"/>
<line x1="3095.791193" y1="1849.533918" x2="2901.063125" y2="1849.533918" stroke="black" stroke-width="7.137"/>
<line x1="2901.063125" y1="1849.533918" x2="2901.063125" y2="1654.406819" stroke="black" stroke-width="7.137"/>
<line x1="2900.664094" y1="1654.007785" x2="3095.791193" y2="1849.533918" stroke="black" stroke-width="7.137"/>
<line x1="2901.063125" y1="1849.134884" x2="3095.392159" y2="1654.406819" stroke="black" stroke-width="7.137"/>
<line x1="256.813678" y1="1023.041992" x2="393.823977" y2="1082.615765" stroke="black" stroke-width="7.137"/>
<line x1="393.823977" y1="1082.615765" x2="334.128127" y2="1219.906827" stroke="black" stroke-width="7.137"/>
<line x1="334.128127" y1="1219.906827" x2="197.117828" y2="1160.333051" stroke="black" stroke-width="7.137"/>
<line x1="197.117828" y1="1160.333051" x2="256.813678" y2="1023.041992" stroke="black" stroke-width="7.137"/>
<line x1="256.654996" y1="1022.639157" x2="334.128127" y2="1219.906827" stroke="black" stroke-width="7.137"/>
<line x1="197.239902" y1="1160.052294" x2="393.54322" y2="1082.493687" stroke="black" stroke-width="7.137"/>
<line x1="187.012721" y1="746.028976" x2="187.012721" y2="359.167086" stroke="black" stroke-width="7.137"/>
<line x1="187.012721" y1="359.167086" x2="127.374781" y2="359.167086" stroke="black" stroke-width="7.137"/>
<line x1="127.374781" y1="359.167086" x2="127.374781" y2="746.028976" stroke="black" stroke-width="7.137"/>
<line x1="127.374781" y1="746.028976" x2="187.012721" y2="746.028976" stroke="black" stroke-width="7.137"/>
<line x1="128.15949" y1="709.93233" x2="186.228009" y2="709.93233" stroke="black" stroke-width="7.137"/>
<line x1="128.15949" y1="396.04844" x2="188.582137" y2="396.04844" stroke="black" stroke-width="7.137"/>
<line x1="155.624331" y1="710.717039" x2="155.624331" y2="396.833152" stroke="black" stroke-width="7.137"/>
<line x1="2240.449955" y1="1365.887577" x2="2240.449955" y2="1388.961945" stroke="black" stroke-width="7.137"/>
<line x1="2240.449955" y1="1388.961945" x2="2285.473114" y2="1388.961945" stroke="black" stroke-width="7.137"/>
<line x1="2285.473114" y1="1388.961945" x2="2285.473114" y2="1365.887577" stroke="black" stroke-width="7.137"/>
<line x1="2285.473114" y1="1365.887577" x2="2240.449955" y2="1365.887577" stroke="black" stroke-width="7.137"/>
<line x1="2285.473114" y1="1614.640518" x2="2510.026105" y2="1614.640518" stroke="black" stroke-width="7.137"/>
<line x1="2239.324377" y1="1615.203307" x2="2239.324377" y2="1638.277675" stroke="black" stroke-width="7.137"/>
<line x1="2239.324377" y1="1638.277675" x2="2284.347533" y2="1638.277675" stroke="black" stroke-width="7.137"/>
<line x1="2284.347533" y1="1638.277675" x2="2284.347533" y2="1615.203307" stroke="black" stroke-width="7.137"/>
<line x1="2284.347533" y1="1615.203307" x2="2239.324377" y2="1615.203307" stroke="black" stroke-width="7.137"/>
<path d="m 2283.784744,1388.961945 a 225.67857249999986,225.67857249999986 0 0 1 225.6785719999998,225.67857299999991" fill="none" stroke="black" stroke-width="7.137"/>
<line x1="3030.076761" y1="1121.025348" x2="3218.719037" y2="1211.812746" stroke="black" stroke-width="7.137"/>
<line x1="3218.719037" y1="1211.812746" x2="3319.410513" y2="1002.591312" stroke="black" stroke-width="7.137"/>
<line x1="3319.410513" y1="1002.591312" x2="3130.768238" y2="911.803917" stroke="black" stroke-width="7.137"/>
<line x1="3130.768238" y1="911.803917" x2="3030.076761" y2="1121.025348" stroke="black" stroke-width="7.137"/>
<line x1="3044.107542" y1="1091.871546" x2="3232.749814" y2="1182.658938" stroke="black" stroke-width="7.137"/>
<line x1="1529.962144" y1="1849.265666" x2="1706.527829" y2="1736.780912" stroke="black" stroke-width="7.137"/>
<line x1="1706.527829" y1="1736.780912" x2="1581.772019" y2="1540.953518" stroke="black" stroke-width="7.137"/>
<line x1="1581.772019" y1="1540.953518" x2="1405.206334" y2="1653.438268" stroke="black" stroke-width="7.137"/>
<line x1="1405.206334" y1="1653.438268" x2="1529.962144" y2="1849.265666" stroke="black" stroke-width="7.137"/>
<line x1="1512.578138" y1="1821.978241" x2="1689.143822" y2="1709.49349" stroke="black" stroke-width="7.137"/>
</g>
</svg>
