<?xml version="1.0"?>
<svg xmlns:xlink="http://www.w3.org/1999/xlink" width="4348.812" height="2226.744">
<image x="0" y="0" width="4348.812" height="2226.744" xlink:href="ground16-10.png"/>
<g style="stroke-linecap:round">
<line x1="403.073634" y1="1261.405573" x2="403.073634" y2="1284.479941" stroke="black" stroke-width="7.137"/>
<line x1="403.073634" y1="1284.479941" x2="448.096792" y2="1284.479941" stroke="black" stroke-width="7.137"/>
<line x1="448.096792" y1="1284.479941" x2="448.096792" y2="1261.405573" stroke="black" stroke-width="7.137"/>
<line x1="448.096792" y1="1261.405573" x2="403.073634" y2="1261.405573" stroke="black" stroke-width="7.137"/>
<line x1="448.096792" y1="1510.158514" x2="672.649784" y2="1510.158514" stroke="black" stroke-width="7.137"/>
<line x1="401.948056" y1="1510.721303" x2="401.948056" y2="1533.795671" stroke="black" stroke-width="7.137"/>
<line x1="401.948056" y1="1533.795671" x2="446.971211" y2="1533.795671" stroke="black" stroke-width="7.137"/>
<line x1="446.971211" y1="1533.795671" x2="446.971211" y2="1510.721303" stroke="black" stroke-width="7.137"/>
<line x1="446.971211" y1="1510.721303" x2="401.948056" y2="1510.721303" stroke="black" stroke-width="7.137"/>
<path d="m 446.408422,1284.479941 a 225.67857299999997,225.67857299999997 0 0 1 225.67857300000003,225.67857299999991" fill="none" stroke="black" stroke-width="7.137"/>
<line x1="1917.663575" y1="1638.130602" x2="1917.663575" y2="1615.056234" stroke="black" stroke-width="7.137"/>
<line x1="1917.663575" y1="1615.056234" x2="1872.640416" y2="1615.056234" stroke="black" stroke-width="7.137"/>
<line x1="1872.640416" y1="1615.056234" x2="1872.640416" y2="1638.130602" stroke="black" stroke-width="7.137"/>
<line x1="1872.640416" y1="1638.130602" x2="1917.663575" y2="1638.130602" stroke="black" stroke-width="7.137"/>
<line x1="1872.640416" y1="1389.377661" x2="1648.087424" y2="1389.377661" stroke="black" stroke-width="7.137"/>
<line x1="1918.789152" y1="1388.814872" x2="1918.789152" y2="1365.740504" stroke="black" stroke-width="7.137"/>
<line x1="1918.789152" y1="1365.740504" x2="1873.765997" y2="1365.740504" stroke="black" stroke-width="7.137"/>
<line x1="1873.765997" y1="1365.740504" x2="1873.765997" y2="1388.814872" stroke="black" stroke-width="7.137"/>
<line x1="1873.765997" y1="1388.814872" x2="1918.789152" y2="1388.814872" stroke="black" stroke-width="7.137"/>
<path d="m 1874.328786,1615.056234 a 225.67857300000003,225.67857300000003 0 0 1 -225.67857300000014,-225.67857299999991" fill="none" stroke="black" stroke-width="7.137"/>
<line x1="2911.380239" y1="1379.940939" x2="2924.515856" y2="1394.02716" stroke="black" stroke-width="7.137"/>
<line x1="2924.515856" y1="1394.02716" x2="2952.001163" y2="1368.396689" stroke="black" stroke-width="7.137"/>
<line x1="2952.001163" y1="1368.396689" x2="2938.865546" y2="1354.310468" stroke="black" stroke-width="7.137"/>
<line x1="2938.865546" y1="1354.310468" x2="2911.380239" y2="1379.940939" stroke="black" stroke-width="7.137"/>
<line x1="3080.473897" y1="1506.166784" x2="3217.55686" y2="1378.334813" stroke="black" stroke-width="7.137"/>
<line x1="3052.621837" y1="1532.781583" x2="3065.757454" y2="1546.867804" stroke="black" stroke-width="7.137"/>
<line x1="3065.757454" y1="1546.867804" x2="3093.242764" y2="1521.237333" stroke="black" stroke-width="7.137"/>
<line x1="3093.242764" y1="1521.237333" x2="3080.107144" y2="1507.151115" stroke="black" stroke-width="7.137"/>
<line x1="3080.107144" y1="1507.151115" x2="3052.621837" y2="1532.781583" stroke="black" stroke-width="7.137"/>
<path d="m 2950.97046,1369.357834 a 188.376865628772,188.376865628772 0 0 1 266.242835,9.297357000000147" fill="none" stroke="black" stroke-width="7.137"/>
<line x1="4172.82374" y1="469.467578" x2="4172.82374" y2="446.39321" stroke="black" stroke-width="7.137"/>
<line x1="4172.82374" y1="446.39321" x2="4127.800581" y2="446.39321" stroke="black" stroke-width="7.137"/>
<line x1="4127.800581" y1="446.39321" x2="4127.800581" y2="469.467578" stroke="black" stroke-width="7.137"/>
<line x1="4127.800581" y1="469.467578" x2="4172.82374" y2="469.467578" stroke="black" stroke-width="7.137"/>
<line x1="4127.800581" y1="220.714637" x2="3903.24759" y2="220.714637" stroke="black" stroke-width="7.137"/>
<line x1="4173.949318" y1="220.151848" x2="4173.949318" y2="197.07748" stroke="black" stroke-width="7.137"/>
<line x1="4173.949318" y1="197.07748" x2="4128.926162" y2="197.07748" stroke="black" stroke-width="7.137"/>
<line x1="4128.926162" y1="197.07748" x2="4128.926162" y2="220.151848" stroke="black" stroke-width="7.137"/>
<line x1="4128.926162" y1="220.151848" x2="4173.949318" y2="220.151848" stroke="black" stroke-width="7.137"/>
<path d="m 4129.488951,446.39321 a 225.67857250000014,225.67857250000014 0 0 1 -225.67857200000026,-225.678573" fill="none" stroke="black" stroke-width="7.137"/>
<line x1="4172.660905" y1="1828.520329" x2="4172.660905" y2="1805.445961" stroke="black" stroke-width="7.137"/>
<line x1="4172.660905" y1="1805.445961" x2="4127.637747" y2="1805.445961" stroke="black" stroke-width="7.137"/>
<line x1="4127.637747" y1="1805.445961" x2="4127.637747" y2="1828.520329" stroke="black" stroke-width="7.137"/>
<line x1="4127.637747" y1="1828.520329" x2="4172.660905" y2="1828.520329" stroke="black" stroke-width="7.137"/>
<line x1="4127.637747" y1="1579.767388" x2="3903.084755" y2="1579.767388" stroke="black" stroke-width="7.137"/>
<line x1="4173.786483" y1="1579.204599" x2="4173.786483" y2="1556.130231" stroke="black" stroke-width="7.137"/>
<line x1="4173.786483" y1="1556.130231" x2="4128.763328" y2="1556.130231" stroke="black" stroke-width="7.137"/>
<line x1="4128.763328" y1="1556.130231" x2="4128.763328" y2="1579.204599" stroke="black" stroke-width="7.137"/>
<line x1="4128.763328" y1="1579.204599" x2="4173.786483" y2="1579.204599" stroke="black" stroke-width="7.137"/>
<path d="m 4129.326117,1805.445961 a 225.6785729999998,225.6785729999998 0 0 1 -225.6785729999997,-225.67857299999991" fill="none" stroke="black" stroke-width="7.137"/>
<line x1="1793.281943" y1="152.743054" x2="1991.892926" y2="152.743054" stroke="black" stroke-width="7.137"/>
<line x1="1991.892926" y1="152.743054" x2="1991.892926" y2="117.219138" stroke="black" stroke-width="7.137"/>
<line x1="1991.892926" y1="117.219138" x2="1793.281943" y2="117.219138" stroke="black" stroke-width="7.137"/>
<line x1="1793.281943" y1="117.219138" x2="1793.281943" y2="152.743054" stroke="black" stroke-width="7.137"/>
<line x1="1802.566603" y1="152.743054" x2="1802.566603" y2="164.853481" stroke="black" stroke-width="7.137"/>
<line x1="1802.566603" y1="164.853481" x2="1982.204585" y2="164.853481" stroke="black" stroke-width="7.137"/>
<line x1="1982.204585" y1="152.743054" x2="1982.204585" y2="164.853481" stroke="black" stroke-width="7.137"/>
<line x1="2384.583767" y1="153.346657" x2="2583.19475" y2="153.346657" stroke="black" stroke-width="7.137"/>
<line x1="2583.19475" y1="153.346657" x2="2583.19475" y2="117.822741" stroke="black" stroke-width="7.137"/>
<line x1="2583.19475" y1="117.822741" x2="2384.583767" y2="117.822741" stroke="black" stroke-width="7.137"/>
<line x1="2384.583767" y1="117.822741" x2="2384.583767" y2="153.346657" stroke="black" stroke-width="7.137"/>
<line x1="2393.868426" y1="153.346657" x2="2393.868426" y2="165.457084" stroke="black" stroke-width="7.137"/>
<line x1="2393.868426" y1="165.457084" x2="2573.506409" y2="165.457084" stroke="black" stroke-width="7.137"/>
<line x1="2573.506409" y1="153.346657" x2="2573.506409" y2="165.457084" stroke="black" stroke-width="7.137"/>
<line x1="2794.835164" y1="152.713472" x2="2991.001705" y2="152.713472" stroke="black" stroke-width="7.137"/>
<line x1="2991.001705" y1="152.713472" x2="2991.001705" y2="117.626772" stroke="black" stroke-width="7.137"/>
<line x1="2991.001705" y1="117.626772" x2="2794.835164" y2="117.626772" stroke="black" stroke-width="7.137"/>
<line x1="2794.835164" y1="117.626772" x2="2794.835164" y2="152.713472" stroke="black" stroke-width="7.137"/>
<line x1="2804.005552" y1="152.713472" x2="2804.005552" y2="164.674846" stroke="black" stroke-width="7.137"/>
<line x1="2804.005552" y1="164.674846" x2="2981.432606" y2="164.674846" stroke="black" stroke-width="7.137"/>
<line x1="2981.432606" y1="152.713472" x2="2981.432606" y2="164.674846" stroke="black" stroke-width="7.137"/>
<line x1="3213.800403" y1="152.452572" x2="3409.966945" y2="152.452572" stroke="black" stroke-width="7.137"/>
<line x1="3409.966945" y1="152.452572" x2="3409.966945" y2="117.365871" stroke="black" stroke-width="7.137"/>
<line x1="3409.966945" y1="117.365871" x2="3213.800403" y2="117.365871" stroke="black" stroke-width="7.137"/>
<line x1="3213.800403" y1="117.365871" x2="3213.800403" y2="152.452572" stroke="black" stroke-width="7.137"/>
<line x1="3222.970792" y1="152.452572" x2="3222.970792" y2="164.413946" stroke="black" stroke-width="7.137"/>
<line x1="3222.970792" y1="164.413946" x2="3400.397846" y2="164.413946" stroke="black" stroke-width="7.137"/>
<line x1="3400.397846" y1="152.452572" x2="3400.397846" y2="164.413946" stroke="black" stroke-width="7.137"/>
<line x1="4139.032249" y1="1222.250278" x2="4139.032249" y2="1420.861261" stroke="black" stroke-width="7.137"/>
<line x1="4139.032249" y1="1420.861261" x2="4174.556166" y2="1420.861261" stroke="black" stroke-width="7.137"/>
<line x1="4174.556166" y1="1420.861261" x2="4174.556166" y2="1222.250278" stroke="black" stroke-width="7.137"/>
<line x1="4174.556166" y1="1222.250278" x2="4139.032249" y2="1222.250278" stroke="black" stroke-width="7.137"/>
<line x1="4139.032249" y1="1231.534938" x2="4126.921823" y2="1231.534938" stroke="black" stroke-width="7.137"/>
<line x1="4126.921823" y1="1231.534938" x2="4126.921823" y2="1411.17292" stroke="black" stroke-width="7.137"/>
<line x1="4139.032249" y1="1411.17292" x2="4126.921823" y2="1411.17292" stroke="black" stroke-width="7.137"/>
<line x1="1841.151775" y1="1873.253069" x2="1642.540792" y2="1873.253069" stroke="black" stroke-width="7.137"/>
<line x1="1642.540792" y1="1873.253069" x2="1642.540792" y2="1908.776985" stroke="black" stroke-width="7.137"/>
<line x1="1642.540792" y1="1908.776985" x2="1841.151775" y2="1908.776985" stroke="black" stroke-width="7.137"/>
<line x1="1841.151775" y1="1908.776985" x2="1841.151775" y2="1873.253069" stroke="black" stroke-width="7.137"/>
<line x1="1831.867116" y1="1873.253069" x2="1831.867116" y2="1861.142642" stroke="black" stroke-width="7.137"/>
<line x1="1831.867116" y1="1861.142642" x2="1652.229133" y2="1861.142642" stroke="black" stroke-width="7.137"/>
<line x1="1652.229133" y1="1873.253069" x2="1652.229133" y2="1861.142642" stroke="black" stroke-width="7.137"/>
<line x1="2488.810945" y1="1873.721868" x2="2290.199962" y2="1873.721868" stroke="black" stroke-width="7.137"/>
<line x1="2290.199962" y1="1873.721868" x2="2290.199962" y2="1909.245784" stroke="black" stroke-width="7.137"/>
<line x1="2290.199962" y1="1909.245784" x2="2488.810945" y2="1909.245784" stroke="black" stroke-width="7.137"/>
<line x1="2488.810945" y1="1909.245784" x2="2488.810945" y2="1873.721868" stroke="black" stroke-width="7.137"/>
<line x1="2479.526285" y1="1873.721868" x2="2479.526285" y2="1861.611442" stroke="black" stroke-width="7.137"/>
<line x1="2479.526285" y1="1861.611442" x2="2299.888303" y2="1861.611442" stroke="black" stroke-width="7.137"/>
<line x1="2299.888303" y1="1873.721868" x2="2299.888303" y2="1861.611442" stroke="black" stroke-width="7.137"/>
<line x1="2694.576466" y1="1848.64488" x2="2694.576466" y2="1664.66888" stroke="black" stroke-width="7.137"/>
<line x1="2694.576466" y1="1664.66888" x2="2743.742466" y2="1664.66888" stroke="black" stroke-width="7.137"/>
<line x1="2743.742466" y1="1848.64488" x2="2743.742466" y2="1664.66888" stroke="black" stroke-width="7.137"/>
<line x1="2694.576466" y1="1848.64488" x2="2743.742466" y2="1848.64488" stroke="black" stroke-width="7.137"/>
<line x1="2666.821466" y1="1807.01238" x2="2694.576466" y2="1807.01238" stroke="black" stroke-width="7.137"/>
<line x1="2694.576466" y1="1707.88738" x2="2665.235466" y2="1707.88738" stroke="black" stroke-width="7.137"/>
<circle cx="2621.620466" cy="1758.24288" r="66.61200000000001" fill="none" stroke="black" stroke-width="7.137"/>
<circle cx="2621.620466" cy="1758.24288" r="57.096000000000004" fill="none" stroke="black" stroke-width="7.137"/>
<line x1="3468.827354" y1="1490.702078" x2="3260.19437" y2="1473.366013" stroke="black" stroke-width="7.137"/>
<line x1="3260.19437" y1="1473.366013" x2="3240.967102" y2="1704.758957" stroke="black" stroke-width="7.137"/>
<line x1="3240.967102" y1="1704.758957" x2="3449.600083" y2="1722.095022" stroke="black" stroke-width="7.137"/>
<line x1="3449.600083" y1="1722.095022" x2="3468.827354" y2="1490.702078" stroke="black" stroke-width="7.137"/>
<line x1="3466.148143" y1="1522.945357" x2="3257.515163" y2="1505.609295" stroke="black" stroke-width="7.137"/>
<line x1="3111.792078" y1="538.773196" x2="3102.904876" y2="568.395774" stroke="black" stroke-width="7.137"/>
<line x1="3102.904876" y1="568.395774" x2="3303.882663" y2="628.691999" stroke="black" stroke-width="7.137"/>
<line x1="3303.882663" y1="628.691999" x2="3312.769861" y2="599.069423" stroke="black" stroke-width="7.137"/>
<line x1="3312.769861" y1="599.069423" x2="3111.792078" y2="538.773196" stroke="black" stroke-width="7.137"/>
<line x1="3053.136561" y1="734.282201" x2="3044.249362" y2="763.904779" stroke="black" stroke-width="7.137"/>
<line x1="3044.249362" y1="763.904779" x2="3245.227152" y2="824.201001" stroke="black" stroke-width="7.137"/>
<line x1="3245.227152" y1="824.201001" x2="3254.114351" y2="794.578425" stroke="black" stroke-width="7.137"/>
<line x1="3254.114351" y1="794.578425" x2="3053.136561" y2="734.282201" stroke="black" stroke-width="7.137"/>
<line x1="3103.041602" y1="567.94004" x2="3053.136561" y2="734.282201" stroke="black" stroke-width="7.137"/>
<line x1="3303.24465" y1="627.507082" x2="3320.653246" y2="660.548008" stroke="black" stroke-width="7.137"/>
<line x1="3285.788081" y1="776.759652" x2="3253.06616" y2="794.760704" stroke="black" stroke-width="7.137"/>
<line x1="3321.200149" y1="658.725078" x2="3285.241174" y2="778.582581" stroke="black" stroke-width="7.137"/>
<line x1="3145.743678" y1="581.248027" x2="3095.83864" y2="747.590187" stroke="black" stroke-width="7.137"/>
<line x1="2718.081877" y1="1554.357663" x2="2742.664877" y2="1535.722166" stroke="black" stroke-width="7.137"/>
<line x1="2742.664877" y1="1535.722166" x2="2742.664877" y2="1388.224166" stroke="black" stroke-width="7.137"/>
<line x1="2742.664877" y1="1388.224166" x2="2714.513377" y2="1369.192163" stroke="black" stroke-width="7.137"/>
<line x1="2715.306377" y1="1532.550163" x2="2715.306377" y2="1389.413666" stroke="black" stroke-width="7.137"/>
<circle cx="2693.498877" cy="1463.162663" r="13.0845" fill="none" stroke="black" stroke-width="7.137"/>
<path d="m 2715.974565,1530.994954 a 74.9385009642222,74.9385009642222 0 1 1 -0.40255200000001423,-139.78527899999995" fill="none" stroke="black" stroke-width="7.137"/>
<path d="m 2718.74007,1554.311304 a 95.55649809564125,95.55649809564125 0 1 1 -3.0788410000000113,-184.69990700000017" fill="none" stroke="black" stroke-width="7.137"/>
<line x1="3526.318503" y1="520.402986" x2="3902.836419" y2="520.402986" stroke="black" stroke-width="7.137"/>
<line x1="3902.836419" y1="520.402986" x2="3902.836419" y2="704.032626" stroke="black" stroke-width="7.137"/>
<line x1="3526.318503" y1="704.032626" x2="3902.836419" y2="704.032626" stroke="black" stroke-width="7.137"/>
<line x1="3526.318503" y1="520.402986" x2="3526.318503" y2="704.032626" stroke="black" stroke-width="7.137"/>
<line x1="3535.57714" y1="529.661623" x2="3727.693862" y2="529.661623" stroke="black" stroke-width="7.137"/>
<line x1="3727.693862" y1="529.661623" x2="3727.693862" y2="694.002435" stroke="black" stroke-width="7.137"/>
<line x1="3535.57714" y1="694.002435" x2="3727.693862" y2="694.002435" stroke="black" stroke-width="7.137"/>
<line x1="3535.57714" y1="529.661623" x2="3535.57714" y2="694.002435" stroke="black" stroke-width="7.137"/>
<line x1="3747.754243" y1="540.463367" x2="3882.776038" y2="540.463367" stroke="black" stroke-width="7.137"/>
<line x1="3747.754243" y1="569.010831" x2="3882.776038" y2="569.010831" stroke="black" stroke-width="7.137"/>
<line x1="3748.525797" y1="598.329849" x2="3883.547589" y2="598.329849" stroke="black" stroke-width="7.137"/>
<line x1="3748.525797" y1="626.877313" x2="3883.547589" y2="626.877313" stroke="black" stroke-width="7.137"/>
<line x1="3747.754243" y1="655.42478" x2="3882.776038" y2="655.42478" stroke="black" stroke-width="7.137"/>
<line x1="3747.754243" y1="683.972244" x2="3882.776038" y2="683.972244" stroke="black" stroke-width="7.137"/>
<line x1="3608.874685" y1="694.002435" x2="3608.874685" y2="674.713608" stroke="black" stroke-width="7.137"/>
<line x1="3608.874685" y1="674.713608" x2="3656.710976" y2="674.713608" stroke="black" stroke-width="7.137"/>
<line x1="3656.710976" y1="674.713608" x2="3656.710976" y2="693.230881" stroke="black" stroke-width="7.137"/>
<circle cx="3706.090375" cy="550.493555" r="11.57329659825696" fill="none" stroke="black" stroke-width="7.137"/>
<line x1="1734.495255" y1="373.770504" x2="1866.767655" y2="373.770504" stroke="black" stroke-width="7.137"/>
<line x1="1866.767655" y1="373.770504" x2="1866.767655" y2="388.044504" stroke="black" stroke-width="7.137"/>
<line x1="1734.495255" y1="388.044504" x2="1866.767655" y2="388.044504" stroke="black" stroke-width="7.137"/>
<line x1="1734.495255" y1="373.770504" x2="1734.495255" y2="388.044504" stroke="black" stroke-width="7.137"/>
<line x1="1747.817655" y1="388.044504" x2="1745.914455" y2="419.447304" stroke="black" stroke-width="7.137"/>
<line x1="1853.445255" y1="388.044504" x2="1855.348455" y2="420.398904" stroke="black" stroke-width="7.137"/>
<line x1="1734.495255" y1="835.296504" x2="1866.767655" y2="835.296504" stroke="black" stroke-width="7.137"/>
<line x1="1866.767655" y1="835.296504" x2="1866.767655" y2="821.974104" stroke="black" stroke-width="7.137"/>
<line x1="1734.495255" y1="821.974104" x2="1866.767655" y2="821.974104" stroke="black" stroke-width="7.137"/>
<line x1="1734.495255" y1="835.296504" x2="1734.495255" y2="821.974104" stroke="black" stroke-width="7.137"/>
<line x1="1746.866055" y1="820.070904" x2="1744.962855" y2="788.668104" stroke="black" stroke-width="7.137"/>
<line x1="1852.493655" y1="820.070904" x2="1855.348455" y2="787.716504" stroke="black" stroke-width="7.137"/>
<line x1="2030.442855" y1="538.397304" x2="2016.168855" y2="538.397304" stroke="black" stroke-width="7.137"/>
<line x1="2016.168855" y1="538.397304" x2="2016.168855" y2="670.669704" stroke="black" stroke-width="7.137"/>
<line x1="2030.442855" y1="670.669704" x2="2016.168855" y2="670.669704" stroke="black" stroke-width="7.137"/>
<line x1="2030.442855" y1="538.397304" x2="2030.442855" y2="670.669704" stroke="black" stroke-width="7.137"/>
<line x1="2016.168855" y1="656.395704" x2="1983.814455" y2="659.250504" stroke="black" stroke-width="7.137"/>
<line x1="2016.168855" y1="551.719704" x2="1983.814455" y2="549.816504" stroke="black" stroke-width="7.137"/>
<line x1="1569.868455" y1="537.445704" x2="1584.142455" y2="537.445704" stroke="black" stroke-width="7.137"/>
<line x1="1584.142455" y1="537.445704" x2="1584.142455" y2="669.718104" stroke="black" stroke-width="7.137"/>
<line x1="1569.868455" y1="669.718104" x2="1584.142455" y2="669.718104" stroke="black" stroke-width="7.137"/>
<line x1="1569.868455" y1="537.445704" x2="1569.868455" y2="669.718104" stroke="black" stroke-width="7.137"/>
<line x1="1584.142455" y1="655.444104" x2="1616.496855" y2="658.298904" stroke="black" stroke-width="7.137"/>
<line x1="1584.142455" y1="550.768104" x2="1616.496855" y2="548.864904" stroke="black" stroke-width="7.137"/>
<circle cx="1800.155655" cy="604.057704" r="192.2232" fill="none" stroke="black" stroke-width="7.137"/>
<line x1="660.984878" y1="377.96057" x2="660.984878" y2="187.64057" stroke="black" stroke-width="7.137"/>
<line x1="660.984878" y1="187.64057" x2="196.604078" y2="187.64057" stroke="black" stroke-width="7.137"/>
<line x1="196.604078" y1="187.64057" x2="196.604078" y2="377.96057" stroke="black" stroke-width="7.137"/>
<line x1="196.604078" y1="377.96057" x2="220.394078" y2="377.96057" stroke="black" stroke-width="7.137"/>
<line x1="220.394078" y1="377.96057" x2="220.394078" y2="210.47897" stroke="black" stroke-width="7.137"/>
<line x1="220.394078" y1="210.47897" x2="636.243278" y2="210.47897" stroke="black" stroke-width="7.137"/>
<line x1="636.243278" y1="210.47897" x2="636.243278" y2="377.96057" stroke="black" stroke-width="7.137"/>
<line x1="636.243278" y1="377.96057" x2="660.984878" y2="377.96057" stroke="black" stroke-width="7.137"/>
<line x1="636.243278" y1="372.25097" x2="220.394078" y2="372.25097" stroke="black" stroke-width="7.137"/>
<line x1="428.794478" y1="373.20257" x2="428.794478" y2="211.43057" stroke="black" stroke-width="7.137"/>
<line x1="198.665291" y1="788.806676" x2="225.688447" y2="803.847568" stroke="black" stroke-width="7.137"/>
<line x1="225.688447" y1="803.847568" x2="327.735129" y2="620.505863" stroke="black" stroke-width="7.137"/>
<line x1="327.735129" y1="620.505863" x2="300.711976" y2="605.464968" stroke="black" stroke-width="7.137"/>
<line x1="300.711976" y1="605.464968" x2="198.665291" y2="788.806676" stroke="black" stroke-width="7.137"/>
<line x1="377.018103" y1="888.076576" x2="404.041259" y2="903.117471" stroke="black" stroke-width="7.137"/>
<line x1="404.041259" y1="903.117471" x2="506.087944" y2="719.775769" stroke="black" stroke-width="7.137"/>
<line x1="506.087944" y1="719.775769" x2="479.064791" y2="704.734875" stroke="black" stroke-width="7.137"/>
<line x1="479.064791" y1="704.734875" x2="377.018103" y2="888.076576" stroke="black" stroke-width="7.137"/>
<line x1="225.272706" y1="803.61617" x2="377.018103" y2="888.076576" stroke="black" stroke-width="7.137"/>
<line x1="326.440848" y1="620.874548" x2="362.449246" y2="610.967113" stroke="black" stroke-width="7.137"/>
<line x1="468.463158" y1="669.973701" x2="479.017734" y2="705.797752" stroke="black" stroke-width="7.137"/>
<line x1="360.786281" y1="610.041521" x2="470.126123" y2="670.899294" stroke="black" stroke-width="7.137"/>
<line x1="247.439895" y1="764.767931" x2="399.185295" y2="849.228334" stroke="black" stroke-width="7.137"/>
<line x1="301.883684" y1="1022.666218" x2="394.383137" y2="1127.217828" stroke="black" stroke-width="7.137"/>
<line x1="394.383137" y1="1127.217828" x2="289.617281" y2="1219.906827" stroke="black" stroke-width="7.137"/>
<line x1="289.617281" y1="1219.906827" x2="197.117828" y2="1115.355217" stroke="black" stroke-width="7.137"/>
<line x1="197.117828" y1="1115.355217" x2="301.883684" y2="1022.666218" stroke="black" stroke-width="7.137"/>
<line x1="301.908381" y1="1022.262425" x2="289.617281" y2="1219.906827" stroke="black" stroke-width="7.137"/>
<line x1="197.332074" y1="1115.165668" x2="394.193591" y2="1127.003581" stroke="black" stroke-width="7.137"/>
<line x1="2528.423008" y1="1199.002931" x2="2661.669833" y2="1135.447455" stroke="black" stroke-width="7.137"/>
<line x1="2661.669833" y1="1135.447455" x2="2725.355546" y2="1268.967329" stroke="black" stroke-width="7.137"/>
<line x1="2725.355546" y1="1268.967329" x2="2592.10872" y2="1332.522803" stroke="black" stroke-width="7.137"/>
<line x1="2592.10872" y1="1332.522803" x2="2528.423008" y2="1199.002931" stroke="black" stroke-width="7.137"/>
<line x1="2528.019726" y1="1198.860122" x2="2725.355546" y2="1268.967329" stroke="black" stroke-width="7.137"/>
<line x1="2591.978484" y1="1332.249754" x2="2661.396787" y2="1135.577694" stroke="black" stroke-width="7.137"/>
<line x1="2795.013938" y1="1653.251808" x2="2989.742006" y2="1653.251808" stroke="black" stroke-width="7.137"/>
<line x1="2989.742006" y1="1653.251808" x2="2989.742006" y2="1848.378908" stroke="black" stroke-width="7.137"/>
<line x1="2989.742006" y1="1848.378908" x2="2795.013938" y2="1848.378908" stroke="black" stroke-width="7.137"/>
<line x1="2795.013938" y1="1848.378908" x2="2795.013938" y2="1653.251808" stroke="black" stroke-width="7.137"/>
<line x1="2794.614907" y1="1652.852774" x2="2989.742006" y2="1848.378908" stroke="black" stroke-width="7.137"/>
<line x1="2795.013938" y1="1847.979873" x2="2989.342972" y2="1653.251808" stroke="black" stroke-width="7.137"/>
<line x1="187.012721" y1="746.028976" x2="187.012721" y2="359.167086" stroke="black" stroke-width="7.137"/>
<line x1="187.012721" y1="359.167086" x2="127.374781" y2="359.167086" stroke="black" stroke-width="7.137"/>
<line x1="127.374781" y1="359.167086" x2="127.374781" y2="746.028976" stroke="black" stroke-width="7.137"/>
<line x1="127.374781" y1="746.028976" x2="187.012721" y2="746.028976" stroke="black" stroke-width="7.137"/>
<line x1="128.15949" y1="709.93233" x2="186.228009" y2="709.93233" stroke="black" stroke-width="7.137"/>
<line x1="128.15949" y1="396.04844" x2="188.582137" y2="396.04844" stroke="black" stroke-width="7.137"/>
<line x1="155.624331" y1="710.717039" x2="155.624331" y2="396.833152" stroke="black" stroke-width="7.137"/>
<line x1="2240.449955" y1="1365.887577" x2="2240.449955" y2="1388.961945" stroke="black" stroke-width="7.137"/>
<line x1="2240.449955" y1="1388.961945" x2="2285.473114" y2="1388.961945" stroke="black" stroke-width="7.137"/>
<line x1="2285.473114" y1="1388.961945" x2="2285.473114" y2="1365.887577" stroke="black" stroke-width="7.137"/>
<line x1="2285.473114" y1="1365.887577" x2="2240.449955" y2="1365.887577" stroke="black" stroke-width="7.137"/>
<line x1="2285.473114" y1="1614.640518" x2="2510.026105" y2="1614.640518" stroke="black" stroke-width="7.137"/>
<line x1="2239.324377" y1="1615.203307" x2="2239.324377" y2="1638.277675" stroke="black" stroke-width="7.137"/>
<line x1="2239.324377" y1="1638.277675" x2="2284.347533" y2="1638.277675" stroke="black" stroke-width="7.137"/>
<line x1="2284.347533" y1="1638.277675" x2="2284.347533" y2="1615.203307" stroke="black" stroke-width="7.137"/>
<line x1="2284.347533" y1="1615.203307" x2="2239.324377" y2="1615.203307" stroke="black" stroke-width="7.137"/>
<path d="m 2283.784744,1388.961945 a 225.67857249999986,225.67857249999986 0 0 1 225.6785719999998,225.67857299999991" fill="none" stroke="black" stroke-width="7.137"/>
<line x1="3036.671641" y1="1131.022543" x2="3229.806836" y2="1211.812746" stroke="black" stroke-width="7.137"/>
<line x1="3229.806836" y1="1211.812746" x2="3319.410513" y2="997.608255" stroke="black" stroke-width="7.137"/>
<line x1="3319.410513" y1="997.608255" x2="3126.275319" y2="916.818053" stroke="black" stroke-width="7.137"/>
<line x1="3126.275319" y1="916.818053" x2="3036.671641" y2="1131.022543" stroke="black" stroke-width="7.137"/>
<line x1="3049.157401" y1="1101.174375" x2="3242.292592" y2="1181.964578" stroke="black" stroke-width="7.137"/>
<line x1="1557.410041" y1="1849.265666" x2="1578.698782" y2="1826.832016" stroke="black" stroke-width="7.137"/>
<line x1="1578.698782" y1="1826.832016" x2="1426.495076" y2="1682.396084" stroke="black" stroke-width="7.137"/>
<line x1="1426.495076" y1="1682.396084" x2="1405.206334" y2="1704.829737" stroke="black" stroke-width="7.137"/>
<line x1="1405.206334" y1="1704.829737" x2="1557.410041" y2="1849.265666" stroke="black" stroke-width="7.137"/>
<line x1="1697.915738" y1="1701.203554" x2="1719.20448" y2="1678.769901" stroke="black" stroke-width="7.137"/>
<line x1="1719.20448" y1="1678.769901" x2="1567.000773" y2="1534.333976" stroke="black" stroke-width="7.137"/>
<line x1="1567.000773" y1="1534.333976" x2="1545.712032" y2="1556.767628" stroke="black" stroke-width="7.137"/>
<line x1="1545.712032" y1="1556.767628" x2="1697.915738" y2="1701.203554" stroke="black" stroke-width="7.137"/>
<line x1="1578.371264" y1="1827.177142" x2="1697.915738" y2="1701.203554" stroke="black" stroke-width="7.137"/>
<line x1="1426.530304" y1="1683.741389" x2="1425.889053" y2="1646.400383" stroke="black" stroke-width="7.137"/>
<line x1="1509.406423" y1="1558.391439" x2="1546.729815" y2="1557.077533" stroke="black" stroke-width="7.137"/>
<line x1="1424.578975" y1="1647.780917" x2="1510.716501" y2="1557.010905" stroke="black" stroke-width="7.137"/>
<line x1="1546.256271" y1="1796.045215" x2="1665.800741" y2="1670.071624" stroke="black" stroke-width="7.137"/>
</g>
</svg>
