<?xml version="1.0"?>
<svg xmlns:xlink="http://www.w3.org/1999/xlink" width="4348.812" height="2226.744">
<image x="0" y="0" width="4348.812" height="2226.744" xlink:href="ground16-10.png"/>
<g style="stroke-linecap:round">
<line x1="403.073634" y1="1261.405573" x2="403.073634" y2="1284.479941" stroke="black" stroke-width="7.137"/>
<line x1="403.073634" y1="1284.479941" x2="448.096792" y2="1284.479941" stroke="black" stroke-width="7.137"/>
<line x1="448.096792" y1="1284.479941" x2="448.096792" y2="1261.405573" stroke="black" stroke-width="7.137"/>
<line x1="448.096792" y1="1261.405573" x2="403.073634" y2="1261.405573" stroke="black" stroke-width="7.137"/>
<line x1="448.096792" y1="1510.158514" x2="672.649784" y2="1510.158514" stroke="black" stroke-width="7.137"/>
<line x1="401.948056" y1="1510.721303" x2="401.948056" y2="1533.795671" stroke="black" stroke-width="7.137"/>
<line x1="401.948056" y1="1533.795671" x2="446.971211" y2="1533.795671" stroke="black" stroke-width="7.137"/>
<line x1="446.971211" y1="1533.795671" x2="446.971211" y2="1510.721303" stroke="black" stroke-width="7.137"/>
<line x1="446.971211" y1="1510.721303" x2="401.948056" y2="1510.721303" stroke="black" stroke-width="7.137"/>
<path d="m 446.408422,1284.479941 a 225.67857299999997,225.67857299999997 0 0 1 225.67857300000003,225.67857299999991" fill="none" stroke="black" stroke-width="7.137"/>
<line x1="1917.663575" y1="1638.130602" x2="1917.663575" y2="1615.056234" stroke="black" stroke-width="7.137"/>
<line x1="1917.663575" y1="1615.056234" x2="1872.640416" y2="1615.056234" stroke="black" stroke-width="7.137"/>
<line x1="1872.640416" y1="1615.056234" x2="1872.640416" y2="1638.130602" stroke="black" stroke-width="7.137"/>
<line x1="1872.640416" y1="1638.130602" x2="1917.663575" y2="1638.130602" stroke="black" stroke-width="7.137"/>
<line x1="1872.640416" y1="1389.377661" x2="1648.087424" y2="1389.377661" stroke="black" stroke-width="7.137"/>
<line x1="1918.789152" y1="1388.814872" x2="1918.789152" y2="1365.740504" stroke="black" stroke-width="7.137"/>
<line x1="1918.789152" y1="1365.740504" x2="1873.765997" y2="1365.740504" stroke="black" stroke-width="7.137"/>
<line x1="1873.765997" y1="1365.740504" x2="1873.765997" y2="1388.814872" stroke="black" stroke-width="7.137"/>
<line x1="1873.765997" y1="1388.814872" x2="1918.789152" y2="1388.814872" stroke="black" stroke-width="7.137"/>
<path d="m 1874.328786,1615.056234 a 225.67857300000003,225.67857300000003 0 0 1 -225.67857300000014,-225.67857299999991" fill="none" stroke="black" stroke-width="7.137"/>
<line x1="2911.380239" y1="1379.940939" x2="2924.515856" y2="1394.02716" stroke="black" stroke-width="7.137"/>
<line x1="2924.515856" y1="1394.02716" x2="2952.001163" y2="1368.396689" stroke="black" stroke-width="7.137"/>
<line x1="2952.001163" y1="1368.396689" x2="2938.865546" y2="1354.310468" stroke="black" stroke-width="7.137"/>
<line x1="2938.865546" y1="1354.310468" x2="2911.380239" y2="1379.940939" stroke="black" stroke-width="7.137"/>
<line x1="3080.473897" y1="1506.166784" x2="3217.55686" y2="1378.334813" stroke="black" stroke-width="7.137"/>
<line x1="3052.621837" y1="1532.781583" x2="3065.757454" y2="1546.867804" stroke="black" stroke-width="7.137"/>
<line x1="3065.757454" y1="1546.867804" x2="3093.242764" y2="1521.237333" stroke="black" stroke-width="7.137"/>
<line x1="3093.242764" y1="1521.237333" x2="3080.107144" y2="1507.151115" stroke="black" stroke-width="7.137"/>
<line x1="3080.107144" y1="1507.151115" x2="3052.621837" y2="1532.781583" stroke="black" stroke-width="7.137"/>
<path d="m 2950.97046,1369.357834 a 188.376865628772,188.376865628772 0 0 1 266.242835,9.297357000000147" fill="none" stroke="black" stroke-width="7.137"/>
<line x1="4172.82374" y1="469.467578" x2="4172.82374" y2="446.39321" stroke="black" stroke-width="7.137"/>
<line x1="4172.82374" y1="446.39321" x2="4127.800581" y2="446.39321" stroke="black" stroke-width="7.137"/>
<line x1="4127.800581" y1="446.39321" x2="4127.800581" y2="469.467578" stroke="black" stroke-width="7.137"/>
<line x1="4127.800581" y1="469.467578" x2="4172.82374" y2="469.467578" stroke="black" stroke-width="7.137"/>
<line x1="4127.800581" y1="220.714637" x2="3903.24759" y2="220.714637" stroke="black" stroke-width="7.137"/>
<line x1="4173.949318" y1="220.151848" x2="4173.949318" y2="197.07748" stroke="black" stroke-width="7.137"/>
<line x1="4173.949318" y1="197.07748" x2="4128.926162" y2="197.07748" stroke="black" stroke-width="7.137"/>
<line x1="4128.926162" y1="197.07748" x2="4128.926162" y2="220.151848" stroke="black" stroke-width="7.137"/>
<line x1="4128.926162" y1="220.151848" x2="4173.949318" y2="220.151848" stroke="black" stroke-width="7.137"/>
<path d="m 4129.488951,446.39321 a 225.67857250000014,225.67857250000014 0 0 1 -225.67857200000026,-225.678573" fill="none" stroke="black" stroke-width="7.137"/>
<line x1="4172.660905" y1="1828.520329" x2="4172.660905" y2="1805.445961" stroke="black" stroke-width="7.137"/>
<line x1="4172.660905" y1="1805.445961" x2="4127.637747" y2="1805.445961" stroke="black" stroke-width="7.137"/>
<line x1="4127.637747" y1="1805.445961" x2="4127.637747" y2="1828.520329" stroke="black" stroke-width="7.137"/>
<line x1="4127.637747" y1="1828.520329" x2="4172.660905" y2="1828.520329" stroke="black" stroke-width="7.137"/>
<line x1="4127.637747" y1="1579.767388" x2="3903.084755" y2="1579.767388" stroke="black" stroke-width="7.137"/>
<line x1="4173.786483" y1="1579.204599" x2="4173.786483" y2="1556.130231" stroke="black" stroke-width="7.137"/>
<line x1="4173.786483" y1="1556.130231" x2="4128.763328" y2="1556.130231" stroke="black" stroke-width="7.137"/>
<line x1="4128.763328" y1="1556.130231" x2="4128.763328" y2="1579.204599" stroke="black" stroke-width="7.137"/>
<line x1="4128.763328" y1="1579.204599" x2="4173.786483" y2="1579.204599" stroke="black" stroke-width="7.137"/>
<path d="m 4129.326117,1805.445961 a 225.6785729999998,225.6785729999998 0 0 1 -225.6785729999997,-225.67857299999991" fill="none" stroke="black" stroke-width="7.137"/>
<line x1="1793.281943" y1="152.743054" x2="1991.892926" y2="152.743054" stroke="black" stroke-width="7.137"/>
<line x1="1991.892926" y1="152.743054" x2="1991.892926" y2="117.219138" stroke="black" stroke-width="7.137"/>
<line x1="1991.892926" y1="117.219138" x2="1793.281943" y2="117.219138" stroke="black" stroke-width="7.137"/>
<line x1="1793.281943" y1="117.219138" x2="1793.281943" y2="152.743054" stroke="black" stroke-width="7.137"/>
<line x1="1802.566603" y1="152.743054" x2="1802.566603" y2="164.853481" stroke="black" stroke-width="7.137"/>
<line x1="1802.566603" y1="164.853481" x2="1982.204585" y2="164.853481" stroke="black" stroke-width="7.137"/>
<line x1="1982.204585" y1="152.743054" x2="1982.204585" y2="164.853481" stroke="black" stroke-width="7.137"/>
<line x1="2384.583767" y1="153.346657" x2="2583.19475" y2="153.346657" stroke="black" stroke-width="7.137"/>
<line x1="2583.19475" y1="153.346657" x2="2583.19475" y2="117.822741" stroke="black" stroke-width="7.137"/>
<line x1="2583.19475" y1="117.822741" x2="2384.583767" y2="117.822741" stroke="black" stroke-width="7.137"/>
<line x1="2384.583767" y1="117.822741" x2="2384.583767" y2="153.346657" stroke="black" stroke-width="7.137"/>
<line x1="2393.868426" y1="153.346657" x2="2393.868426" y2="165.457084" stroke="black" stroke-width="7.137"/>
<line x1="2393.868426" y1="165.457084" x2="2573.506409" y2="165.457084" stroke="black" stroke-width="7.137"/>
<line x1="2573.506409" y1="153.346657" x2="2573.506409" y2="165.457084" stroke="black" stroke-width="7.137"/>
<line x1="2794.835164" y1="152.713472" x2="2991.001705" y2="152.713472" stroke="black" stroke-width="7.137"/>
<line x1="2991.001705" y1="152.713472" x2="2991.001705" y2="117.626772" stroke="black" stroke-width="7.137"/>
<line x1="2991.001705" y1="117.626772" x2="2794.835164" y2="117.626772" stroke="black" stroke-width="7.137"/>
<line x1="2794.835164" y1="117.626772" x2="2794.835164" y2="152.713472" stroke="black" stroke-width="7.137"/>
<line x1="2804.005552" y1="152.713472" x2="2804.005552" y2="164.674846" stroke="black" stroke-width="7.137"/>
<line x1="2804.005552" y1="164.674846" x2="2981.432606" y2="164.674846" stroke="black" stroke-width="7.137"/>
<line x1="2981.432606" y1="152.713472" x2="2981.432606" y2="164.674846" stroke="black" stroke-width="7.137"/>
<line x1="3213.800403" y1="152.452572" x2="3409.966945" y2="152.452572" stroke="black" stroke-width="7.137"/>
<line x1="3409.966945" y1="152.452572" x2="3409.966945" y2="117.365871" stroke="black" stroke-width="7.137"/>
<line x1="3409.966945" y1="117.365871" x2="3213.800403" y2="117.365871" stroke="black" stroke-width="7.137"/>
<line x1="3213.800403" y1="117.365871" x2="3213.800403" y2="152.452572" stroke="black" stroke-width="7.137"/>
<line x1="3222.970792" y1="152.452572" x2="3222.970792" y2="164.413946" stroke="black" stroke-width="7.137"/>
<line x1="3222.970792" y1="164.413946" x2="3400.397846" y2="164.413946" stroke="black" stroke-width="7.137"/>
<line x1="3400.397846" y1="152.452572" x2="3400.397846" y2="164.413946" stroke="black" stroke-width="7.137"/>
<line x1="4139.032249" y1="1222.250278" x2="4139.032249" y2="1420.861261" stroke="black" stroke-width="7.137"/>
<line x1="4139.032249" y1="1420.861261" x2="4174.556166" y2="1420.861261" stroke="black" stroke-width="7.137"/>
<line x1="4174.556166" y1="1420.861261" x2="4174.556166" y2="1222.250278" stroke="black" stroke-width="7.137"/>
<line x1="4174.556166" y1="1222.250278" x2="4139.032249" y2="1222.250278" stroke="black" stroke-width="7.137"/>
<line x1="4139.032249" y1="1231.534938" x2="4126.921823" y2="1231.534938" stroke="black" stroke-width="7.137"/>
<line x1="4126.921823" y1="1231.534938" x2="4126.921823" y2="1411.17292" stroke="black" stroke-width="7.137"/>
<line x1="4139.032249" y1="1411.17292" x2="4126.921823" y2="1411.17292" stroke="black" stroke-width="7.137"/>
<line x1="1841.151775" y1="1873.253069" x2="1642.540792" y2="1873.253069" stroke="black" stroke-width="7.137"/>
<line x1="1642.540792" y1="1873.253069" x2="1642.540792" y2="1908.776985" stroke="black" stroke-width="7.137"/>
<line x1="1642.540792" y1="1908.776985" x2="1841.151775" y2="1908.776985" stroke="black" stroke-width="7.137"/>
<line x1="1841.151775" y1="1908.776985" x2="1841.151775" y2="1873.253069" stroke="black" stroke-width="7.137"/>
<line x1="1831.867116" y1="1873.253069" x2="1831.867116" y2="1861.142642" stroke="black" stroke-width="7.137"/>
<line x1="1831.867116" y1="1861.142642" x2="1652.229133" y2="1861.142642" stroke="black" stroke-width="7.137"/>
<line x1="1652.229133" y1="1873.253069" x2="1652.229133" y2="1861.142642" stroke="black" stroke-width="7.137"/>
<line x1="2488.810945" y1="1873.721868" x2="2290.199962" y2="1873.721868" stroke="black" stroke-width="7.137"/>
<line x1="2290.199962" y1="1873.721868" x2="2290.199962" y2="1909.245784" stroke="black" stroke-width="7.137"/>
<line x1="2290.199962" y1="1909.245784" x2="2488.810945" y2="1909.245784" stroke="black" stroke-width="7.137"/>
<line x1="2488.810945" y1="1909.245784" x2="2488.810945" y2="1873.721868" stroke="black" stroke-width="7.137"/>
<line x1="2479.526285" y1="1873.721868" x2="2479.526285" y2="1861.611442" stroke="black" stroke-width="7.137"/>
<line x1="2479.526285" y1="1861.611442" x2="2299.888303" y2="1861.611442" stroke="black" stroke-width="7.137"/>
<line x1="2299.888303" y1="1873.721868" x2="2299.888303" y2="1861.611442" stroke="black" stroke-width="7.137"/>
<line x1="2694.576466" y1="1848.64488" x2="2694.576466" y2="1664.66888" stroke="black" stroke-width="7.137"/>
<line x1="2694.576466" y1="1664.66888" x2="2743.742466" y2="1664.66888" stroke="black" stroke-width="7.137"/>
<line x1="2743.742466" y1="1848.64488" x2="2743.742466" y2="1664.66888" stroke="black" stroke-width="7.137"/>
<line x1="2694.576466" y1="1848.64488" x2="2743.742466" y2="1848.64488" stroke="black" stroke-width="7.137"/>
<line x1="2666.821466" y1="1807.01238" x2="2694.576466" y2="1807.01238" stroke="black" stroke-width="7.137"/>
<line x1="2694.576466" y1="1707.88738" x2="2665.235466" y2="1707.88738" stroke="black" stroke-width="7.137"/>
<circle cx="2621.620466" cy="1758.24288" r="66.61200000000001" fill="none" stroke="black" stroke-width="7.137"/>
<circle cx="2621.620466" cy="1758.24288" r="57.096000000000004" fill="none" stroke="black" stroke-width="7.137"/>
<line x1="3032.864775" y1="615.515469" x2="3102.058624" y2="813.102084" stroke="black" stroke-width="7.137"/>
<line x1="3102.058624" y1="813.102084" x2="3321.200146" y2="736.359816" stroke="black" stroke-width="7.137"/>
<line x1="3321.200146" y1="736.359816" x2="3252.006297" y2="538.773199" stroke="black" stroke-width="7.137"/>
<line x1="3252.006297" y1="538.773199" x2="3032.864775" y2="615.515469" stroke="black" stroke-width="7.137"/>
<line x1="3063.400889" y1="604.821871" x2="3132.594739" y2="802.408488" stroke="black" stroke-width="7.137"/>
<line x1="2718.081877" y1="1554.357663" x2="2742.664877" y2="1535.722166" stroke="black" stroke-width="7.137"/>
<line x1="2742.664877" y1="1535.722166" x2="2742.664877" y2="1388.224166" stroke="black" stroke-width="7.137"/>
<line x1="2742.664877" y1="1388.224166" x2="2714.513377" y2="1369.192163" stroke="black" stroke-width="7.137"/>
<line x1="2715.306377" y1="1532.550163" x2="2715.306377" y2="1389.413666" stroke="black" stroke-width="7.137"/>
<circle cx="2693.498877" cy="1463.162663" r="13.0845" fill="none" stroke="black" stroke-width="7.137"/>
<path d="m 2715.974565,1530.994954 a 74.9385009642222,74.9385009642222 0 1 1 -0.40255200000001423,-139.78527899999995" fill="none" stroke="black" stroke-width="7.137"/>
<path d="m 2718.74007,1554.311304 a 95.55649809564125,95.55649809564125 0 1 1 -3.0788410000000113,-184.69990700000017" fill="none" stroke="black" stroke-width="7.137"/>
<line x1="3448.740287" y1="521.73947" x2="3976.265716" y2="521.73947" stroke="black" stroke-width="7.137"/>
<line x1="3981.571781" y1="520.402986" x2="3981.571781" y2="702.935364" stroke="black" stroke-width="7.137"/>
<line x1="3449.363252" y1="704.480078" x2="3981.981384" y2="704.480078" stroke="black" stroke-width="7.137"/>
<line x1="3450.349084" y1="522.671458" x2="3450.349084" y2="704.124328" stroke="black" stroke-width="7.137"/>
<line x1="3464.160876" y1="536.613705" x2="3629.902355" y2="536.613705" stroke="black" stroke-width="7.137"/>
<line x1="3629.902355" y1="536.613705" x2="3629.902355" y2="689.60584" stroke="black" stroke-width="7.137"/>
<line x1="3464.160876" y1="689.60584" x2="3629.902355" y2="689.60584" stroke="black" stroke-width="7.137"/>
<line x1="3464.160876" y1="536.613705" x2="3464.160876" y2="689.60584" stroke="black" stroke-width="7.137"/>
<line x1="3655.401045" y1="546.175714" x2="3772.270038" y2="546.175714" stroke="black" stroke-width="7.137"/>
<line x1="3655.401045" y1="572.736847" x2="3772.270038" y2="572.736847" stroke="black" stroke-width="7.137"/>
<line x1="3656.46349" y1="600.360427" x2="3772.270038" y2="600.360427" stroke="black" stroke-width="7.137"/>
<line x1="3656.46349" y1="626.921563" x2="3772.270038" y2="626.921563" stroke="black" stroke-width="7.137"/>
<line x1="3655.401045" y1="653.482698" x2="3772.270038" y2="653.482698" stroke="black" stroke-width="7.137"/>
<line x1="3655.401045" y1="680.043833" x2="3772.270038" y2="680.043833" stroke="black" stroke-width="7.137"/>
<line x1="3527.907599" y1="688.543395" x2="3527.907599" y2="670.481824" stroke="black" stroke-width="7.137"/>
<line x1="3527.907599" y1="670.481824" x2="3568.280523" y2="670.481824" stroke="black" stroke-width="7.137"/>
<line x1="3568.280523" y1="670.481824" x2="3568.280523" y2="687.480949" stroke="black" stroke-width="7.137"/>
<line x1="3799.893619" y1="536.613705" x2="3965.635101" y2="536.613705" stroke="black" stroke-width="7.137"/>
<line x1="3965.635101" y1="536.613705" x2="3965.635101" y2="689.60584" stroke="black" stroke-width="7.137"/>
<line x1="3799.893619" y1="689.60584" x2="3965.635101" y2="689.60584" stroke="black" stroke-width="7.137"/>
<line x1="3799.893619" y1="536.613705" x2="3799.893619" y2="689.60584" stroke="black" stroke-width="7.137"/>
<line x1="3863.640342" y1="689.60584" x2="3863.640342" y2="671.544269" stroke="black" stroke-width="7.137"/>
<line x1="3863.640342" y1="671.544269" x2="3904.013266" y2="671.544269" stroke="black" stroke-width="7.137"/>
<line x1="3904.013266" y1="671.544269" x2="3904.013266" y2="688.543395" stroke="black" stroke-width="7.137"/>
<circle cx="3610.778338" cy="555.737721" r="9.562008527221566" fill="none" stroke="black" stroke-width="7.137"/>
<circle cx="3946.511084" cy="556.800167" r="9.562008527221566" fill="none" stroke="black" stroke-width="7.137"/>
<line x1="1669.688484" y1="407.869504" x2="1669.688484" y2="801.197504" stroke="black" stroke-width="7.137"/>
<line x1="1669.688484" y1="801.197504" x2="1854.457484" y2="801.197504" stroke="black" stroke-width="7.137"/>
<line x1="1854.457484" y1="801.197504" x2="1854.457484" y2="407.869504" stroke="black" stroke-width="7.137"/>
<line x1="1854.457484" y1="407.869504" x2="1669.688484" y2="407.869504" stroke="black" stroke-width="7.137"/>
<line x1="1854.457484" y1="567.262504" x2="1935.343484" y2="567.262504" stroke="black" stroke-width="7.137"/>
<line x1="1935.343484" y1="567.262504" x2="1935.343484" y2="488.755504" stroke="black" stroke-width="7.137"/>
<line x1="1935.343484" y1="488.755504" x2="1854.457484" y2="488.755504" stroke="black" stroke-width="7.137"/>
<line x1="1917.897484" y1="489.548504" x2="1917.897484" y2="567.262504" stroke="black" stroke-width="7.137"/>
<line x1="1588.009484" y1="488.755504" x2="1588.009484" y2="567.262504" stroke="black" stroke-width="7.137"/>
<line x1="1588.009484" y1="567.262504" x2="1669.688484" y2="567.262504" stroke="black" stroke-width="7.137"/>
<line x1="1669.688484" y1="488.755504" x2="1588.009484" y2="488.755504" stroke="black" stroke-width="7.137"/>
<line x1="1605.455484" y1="489.548504" x2="1605.455484" y2="567.262504" stroke="black" stroke-width="7.137"/>
<line x1="1854.457484" y1="718.725504" x2="1935.343484" y2="718.725504" stroke="black" stroke-width="7.137"/>
<line x1="1935.343484" y1="718.725504" x2="1935.343484" y2="640.218504" stroke="black" stroke-width="7.137"/>
<line x1="1935.343484" y1="640.218504" x2="1854.457484" y2="640.218504" stroke="black" stroke-width="7.137"/>
<line x1="1917.897484" y1="640.218504" x2="1917.897484" y2="718.725504" stroke="black" stroke-width="7.137"/>
<line x1="1588.009484" y1="640.218504" x2="1588.009484" y2="718.725504" stroke="black" stroke-width="7.137"/>
<line x1="1588.009484" y1="718.725504" x2="1669.688484" y2="718.725504" stroke="black" stroke-width="7.137"/>
<line x1="1669.688484" y1="640.218504" x2="1588.009484" y2="640.218504" stroke="black" stroke-width="7.137"/>
<line x1="1605.455484" y1="640.218504" x2="1605.455484" y2="718.725504" stroke="black" stroke-width="7.137"/>
<line x1="386.924078" y1="187.64057" x2="196.604078" y2="187.64057" stroke="black" stroke-width="7.137"/>
<line x1="196.604078" y1="187.64057" x2="196.604078" y2="652.02137" stroke="black" stroke-width="7.137"/>
<line x1="196.604078" y1="652.02137" x2="386.924078" y2="652.02137" stroke="black" stroke-width="7.137"/>
<line x1="386.924078" y1="652.02137" x2="386.924078" y2="628.23137" stroke="black" stroke-width="7.137"/>
<line x1="386.924078" y1="628.23137" x2="219.442478" y2="628.23137" stroke="black" stroke-width="7.137"/>
<line x1="219.442478" y1="628.23137" x2="219.442478" y2="212.38217" stroke="black" stroke-width="7.137"/>
<line x1="219.442478" y1="212.38217" x2="386.924078" y2="212.38217" stroke="black" stroke-width="7.137"/>
<line x1="386.924078" y1="212.38217" x2="386.924078" y2="187.64057" stroke="black" stroke-width="7.137"/>
<line x1="381.214478" y1="212.38217" x2="381.214478" y2="628.23137" stroke="black" stroke-width="7.137"/>
<line x1="382.166078" y1="419.83097" x2="220.394078" y2="419.83097" stroke="black" stroke-width="7.137"/>
<line x1="886.335358" y1="422.216892" x2="881.390711" y2="391.687733" stroke="black" stroke-width="7.137"/>
<line x1="881.390711" y1="391.687733" x2="674.26208" y2="425.23525" stroke="black" stroke-width="7.137"/>
<line x1="674.26208" y1="425.23525" x2="679.20673" y2="455.764414" stroke="black" stroke-width="7.137"/>
<line x1="679.20673" y1="455.764414" x2="886.335358" y2="422.216892" stroke="black" stroke-width="7.137"/>
<line x1="853.700699" y1="220.724419" x2="848.756052" y2="190.195255" stroke="black" stroke-width="7.137"/>
<line x1="848.756052" y1="190.195255" x2="641.627421" y2="223.742771" stroke="black" stroke-width="7.137"/>
<line x1="641.627421" y1="223.742771" x2="646.572068" y2="254.271935" stroke="black" stroke-width="7.137"/>
<line x1="646.572068" y1="254.271935" x2="853.700699" y2="220.724419" stroke="black" stroke-width="7.137"/>
<line x1="881.466782" y1="392.157411" x2="853.700699" y2="220.724419" stroke="black" stroke-width="7.137"/>
<line x1="675.353581" y1="426.022464" x2="645.261213" y2="403.904346" stroke="black" stroke-width="7.137"/>
<line x1="625.862987" y1="284.136093" x2="647.435356" y2="253.650112" stroke="black" stroke-width="7.137"/>
<line x1="645.565497" y1="405.783064" x2="625.5587" y2="282.257372" stroke="black" stroke-width="7.137"/>
<line x1="837.240845" y1="398.838446" x2="809.474759" y2="227.405454" stroke="black" stroke-width="7.137"/>
<line x1="3462.866427" y1="1480.170061" x2="3431.963268" y2="1481.384249" stroke="black" stroke-width="7.137"/>
<line x1="3431.963268" y1="1481.384249" x2="3440.201072" y2="1691.05028" stroke="black" stroke-width="7.137"/>
<line x1="3440.201072" y1="1691.05028" x2="3471.104225" y2="1689.836089" stroke="black" stroke-width="7.137"/>
<line x1="3471.104225" y1="1689.836089" x2="3462.866427" y2="1480.170061" stroke="black" stroke-width="7.137"/>
<line x1="3258.905593" y1="1488.183704" x2="3228.002437" y2="1489.397891" stroke="black" stroke-width="7.137"/>
<line x1="3228.002437" y1="1489.397891" x2="3236.240239" y2="1699.063923" stroke="black" stroke-width="7.137"/>
<line x1="3236.240239" y1="1699.063923" x2="3267.143395" y2="1697.849735" stroke="black" stroke-width="7.137"/>
<line x1="3267.143395" y1="1697.849735" x2="3258.905593" y2="1488.183704" stroke="black" stroke-width="7.137"/>
<line x1="3432.438703" y1="1481.365569" x2="3258.905593" y2="1488.183704" stroke="black" stroke-width="7.137"/>
<line x1="3441.114577" y1="1690.06205" x2="3415.517707" y2="1717.256948" stroke="black" stroke-width="7.137"/>
<line x1="3294.282249" y1="1722.020299" x2="3266.630603" y2="1696.917548" stroke="black" stroke-width="7.137"/>
<line x1="3417.419442" y1="1717.182228" x2="3292.380518" y2="1722.095022" stroke="black" stroke-width="7.137"/>
<line x1="3433.719173" y1="1526.074966" x2="3260.186063" y2="1532.893101" stroke="black" stroke-width="7.137"/>
<line x1="2528.495526" y1="1195.124349" x2="2665.613" y2="1135.503973" stroke="black" stroke-width="7.137"/>
<line x1="2665.613" y1="1135.503973" x2="2725.355549" y2="1272.90243" stroke="black" stroke-width="7.137"/>
<line x1="2725.355549" y1="1272.90243" x2="2588.238071" y2="1332.522806" stroke="black" stroke-width="7.137"/>
<line x1="2588.238071" y1="1332.522806" x2="2528.495526" y2="1195.124349" stroke="black" stroke-width="7.137"/>
<line x1="2528.092371" y1="1194.965543" x2="2725.355549" y2="1272.90243" stroke="black" stroke-width="7.137"/>
<line x1="2588.115899" y1="1332.241827" x2="2665.332021" y2="1135.626146" stroke="black" stroke-width="7.137"/>
<line x1="2901.063125" y1="1654.406819" x2="3095.791193" y2="1654.406819" stroke="black" stroke-width="7.137"/>
<line x1="3095.791193" y1="1654.406819" x2="3095.791193" y2="1849.533918" stroke="black" stroke-width="7.137"/>
<line x1="3095.791193" y1="1849.533918" x2="2901.063125" y2="1849.533918" stroke="black" stroke-width="7.137"/>
<line x1="2901.063125" y1="1849.533918" x2="2901.063125" y2="1654.406819" stroke="black" stroke-width="7.137"/>
<line x1="2900.664094" y1="1654.007785" x2="3095.791193" y2="1849.533918" stroke="black" stroke-width="7.137"/>
<line x1="2901.063125" y1="1849.134884" x2="3095.392159" y2="1654.406819" stroke="black" stroke-width="7.137"/>
<line x1="187.012721" y1="746.028976" x2="187.012721" y2="359.167086" stroke="black" stroke-width="7.137"/>
<line x1="187.012721" y1="359.167086" x2="127.374781" y2="359.167086" stroke="black" stroke-width="7.137"/>
<line x1="127.374781" y1="359.167086" x2="127.374781" y2="746.028976" stroke="black" stroke-width="7.137"/>
<line x1="127.374781" y1="746.028976" x2="187.012721" y2="746.028976" stroke="black" stroke-width="7.137"/>
<line x1="128.15949" y1="709.93233" x2="186.228009" y2="709.93233" stroke="black" stroke-width="7.137"/>
<line x1="128.15949" y1="396.04844" x2="188.582137" y2="396.04844" stroke="black" stroke-width="7.137"/>
<line x1="155.624331" y1="710.717039" x2="155.624331" y2="396.833152" stroke="black" stroke-width="7.137"/>
<line x1="2240.449955" y1="1365.887577" x2="2240.449955" y2="1388.961945" stroke="black" stroke-width="7.137"/>
<line x1="2240.449955" y1="1388.961945" x2="2285.473114" y2="1388.961945" stroke="black" stroke-width="7.137"/>
<line x1="2285.473114" y1="1388.961945" x2="2285.473114" y2="1365.887577" stroke="black" stroke-width="7.137"/>
<line x1="2285.473114" y1="1365.887577" x2="2240.449955" y2="1365.887577" stroke="black" stroke-width="7.137"/>
<line x1="2285.473114" y1="1614.640518" x2="2510.026105" y2="1614.640518" stroke="black" stroke-width="7.137"/>
<line x1="2239.324377" y1="1615.203307" x2="2239.324377" y2="1638.277675" stroke="black" stroke-width="7.137"/>
<line x1="2239.324377" y1="1638.277675" x2="2284.347533" y2="1638.277675" stroke="black" stroke-width="7.137"/>
<line x1="2284.347533" y1="1638.277675" x2="2284.347533" y2="1615.203307" stroke="black" stroke-width="7.137"/>
<line x1="2284.347533" y1="1615.203307" x2="2239.324377" y2="1615.203307" stroke="black" stroke-width="7.137"/>
<path d="m 2283.784744,1388.961945 a 225.67857249999986,225.67857249999986 0 0 1 225.6785719999998,225.67857299999991" fill="none" stroke="black" stroke-width="7.137"/>
<line x1="3019.282033" y1="1101.804204" x2="3197.401043" y2="1211.812746" stroke="black" stroke-width="7.137"/>
<line x1="3197.401043" y1="1211.812746" x2="3319.410513" y2="1014.262571" stroke="black" stroke-width="7.137"/>
<line x1="3319.410513" y1="1014.262571" x2="3141.291506" y2="904.25403" stroke="black" stroke-width="7.137"/>
<line x1="3141.291506" y1="904.25403" x2="3019.282033" y2="1101.804204" stroke="black" stroke-width="7.137"/>
<line x1="3036.283354" y1="1074.276719" x2="3214.40236" y2="1184.285261" stroke="black" stroke-width="7.137"/>
<line x1="1508.809183" y1="1849.265666" x2="1696.165485" y2="1755.853257" stroke="black" stroke-width="7.137"/>
<line x1="1696.165485" y1="1755.853257" x2="1592.562636" y2="1548.05809" stroke="black" stroke-width="7.137"/>
<line x1="1592.562636" y1="1548.05809" x2="1405.206334" y2="1641.470493" stroke="black" stroke-width="7.137"/>
<line x1="1405.206334" y1="1641.470493" x2="1508.809183" y2="1849.265666" stroke="black" stroke-width="7.137"/>
<line x1="1494.372723" y1="1820.310597" x2="1681.729019" y2="1726.898194" stroke="black" stroke-width="7.137"/>
</g>
</svg>
