<?xml version="1.0"?>
<svg xmlns:xlink="http://www.w3.org/1999/xlink" width="4348.812" height="2226.744">
<image x="0" y="0" width="4348.812" height="2226.744" xlink:href="ground16-10.png"/>
<g style="stroke-linecap:round">
<line x1="403.073634" y1="1261.405573" x2="403.073634" y2="1284.479941" stroke="black" stroke-width="7.137"/>
<line x1="403.073634" y1="1284.479941" x2="448.096792" y2="1284.479941" stroke="black" stroke-width="7.137"/>
<line x1="448.096792" y1="1284.479941" x2="448.096792" y2="1261.405573" stroke="black" stroke-width="7.137"/>
<line x1="448.096792" y1="1261.405573" x2="403.073634" y2="1261.405573" stroke="black" stroke-width="7.137"/>
<line x1="448.096792" y1="1510.158514" x2="672.649784" y2="1510.158514" stroke="black" stroke-width="7.137"/>
<line x1="401.948056" y1="1510.721303" x2="401.948056" y2="1533.795671" stroke="black" stroke-width="7.137"/>
<line x1="401.948056" y1="1533.795671" x2="446.971211" y2="1533.795671" stroke="black" stroke-width="7.137"/>
<line x1="446.971211" y1="1533.795671" x2="446.971211" y2="1510.721303" stroke="black" stroke-width="7.137"/>
<line x1="446.971211" y1="1510.721303" x2="401.948056" y2="1510.721303" stroke="black" stroke-width="7.137"/>
<path d="m 446.408422,1284.479941 a 225.67857299999997,225.67857299999997 0 0 1 225.67857300000003,225.67857299999991" fill="none" stroke="black" stroke-width="7.137"/>
<line x1="1917.663575" y1="1638.130602" x2="1917.663575" y2="1615.056234" stroke="black" stroke-width="7.137"/>
<line x1="1917.663575" y1="1615.056234" x2="1872.640416" y2="1615.056234" stroke="black" stroke-width="7.137"/>
<line x1="1872.640416" y1="1615.056234" x2="1872.640416" y2="1638.130602" stroke="black" stroke-width="7.137"/>
<line x1="1872.640416" y1="1638.130602" x2="1917.663575" y2="1638.130602" stroke="black" stroke-width="7.137"/>
<line x1="1872.640416" y1="1389.377661" x2="1648.087424" y2="1389.377661" stroke="black" stroke-width="7.137"/>
<line x1="1918.789152" y1="1388.814872" x2="1918.789152" y2="1365.740504" stroke="black" stroke-width="7.137"/>
<line x1="1918.789152" y1="1365.740504" x2="1873.765997" y2="1365.740504" stroke="black" stroke-width="7.137"/>
<line x1="1873.765997" y1="1365.740504" x2="1873.765997" y2="1388.814872" stroke="black" stroke-width="7.137"/>
<line x1="1873.765997" y1="1388.814872" x2="1918.789152" y2="1388.814872" stroke="black" stroke-width="7.137"/>
<path d="m 1874.328786,1615.056234 a 225.67857300000003,225.67857300000003 0 0 1 -225.67857300000014,-225.67857299999991" fill="none" stroke="black" stroke-width="7.137"/>
<line x1="2911.380239" y1="1379.940939" x2="2924.515856" y2="1394.02716" stroke="black" stroke-width="7.137"/>
<line x1="2924.515856" y1="1394.02716" x2="2952.001163" y2="1368.396689" stroke="black" stroke-width="7.137"/>
<line x1="2952.001163" y1="1368.396689" x2="2938.865546" y2="1354.310468" stroke="black" stroke-width="7.137"/>
<line x1="2938.865546" y1="1354.310468" x2="2911.380239" y2="1379.940939" stroke="black" stroke-width="7.137"/>
<line x1="3080.473897" y1="1506.166784" x2="3217.55686" y2="1378.334813" stroke="black" stroke-width="7.137"/>
<line x1="3052.621837" y1="1532.781583" x2="3065.757454" y2="1546.867804" stroke="black" stroke-width="7.137"/>
<line x1="3065.757454" y1="1546.867804" x2="3093.242764" y2="1521.237333" stroke="black" stroke-width="7.137"/>
<line x1="3093.242764" y1="1521.237333" x2="3080.107144" y2="1507.151115" stroke="black" stroke-width="7.137"/>
<line x1="3080.107144" y1="1507.151115" x2="3052.621837" y2="1532.781583" stroke="black" stroke-width="7.137"/>
<path d="m 2950.97046,1369.357834 a 188.376865628772,188.376865628772 0 0 1 266.242835,9.297357000000147" fill="none" stroke="black" stroke-width="7.137"/>
<line x1="4172.82374" y1="469.467578" x2="4172.82374" y2="446.39321" stroke="black" stroke-width="7.137"/>
<line x1="4172.82374" y1="446.39321" x2="4127.800581" y2="446.39321" stroke="black" stroke-width="7.137"/>
<line x1="4127.800581" y1="446.39321" x2="4127.800581" y2="469.467578" stroke="black" stroke-width="7.137"/>
<line x1="4127.800581" y1="469.467578" x2="4172.82374" y2="469.467578" stroke="black" stroke-width="7.137"/>
<line x1="4127.800581" y1="220.714637" x2="3903.24759" y2="220.714637" stroke="black" stroke-width="7.137"/>
<line x1="4173.949318" y1="220.151848" x2="4173.949318" y2="197.07748" stroke="black" stroke-width="7.137"/>
<line x1="4173.949318" y1="197.07748" x2="4128.926162" y2="197.07748" stroke="black" stroke-width="7.137"/>
<line x1="4128.926162" y1="197.07748" x2="4128.926162" y2="220.151848" stroke="black" stroke-width="7.137"/>
<line x1="4128.926162" y1="220.151848" x2="4173.949318" y2="220.151848" stroke="black" stroke-width="7.137"/>
<path d="m 4129.488951,446.39321 a 225.67857250000014,225.67857250000014 0 0 1 -225.67857200000026,-225.678573" fill="none" stroke="black" stroke-width="7.137"/>
<line x1="4172.660905" y1="1828.520329" x2="4172.660905" y2="1805.445961" stroke="black" stroke-width="7.137"/>
<line x1="4172.660905" y1="1805.445961" x2="4127.637747" y2="1805.445961" stroke="black" stroke-width="7.137"/>
<line x1="4127.637747" y1="1805.445961" x2="4127.637747" y2="1828.520329" stroke="black" stroke-width="7.137"/>
<line x1="4127.637747" y1="1828.520329" x2="4172.660905" y2="1828.520329" stroke="black" stroke-width="7.137"/>
<line x1="4127.637747" y1="1579.767388" x2="3903.084755" y2="1579.767388" stroke="black" stroke-width="7.137"/>
<line x1="4173.786483" y1="1579.204599" x2="4173.786483" y2="1556.130231" stroke="black" stroke-width="7.137"/>
<line x1="4173.786483" y1="1556.130231" x2="4128.763328" y2="1556.130231" stroke="black" stroke-width="7.137"/>
<line x1="4128.763328" y1="1556.130231" x2="4128.763328" y2="1579.204599" stroke="black" stroke-width="7.137"/>
<line x1="4128.763328" y1="1579.204599" x2="4173.786483" y2="1579.204599" stroke="black" stroke-width="7.137"/>
<path d="m 4129.326117,1805.445961 a 225.6785729999998,225.6785729999998 0 0 1 -225.6785729999997,-225.67857299999991" fill="none" stroke="black" stroke-width="7.137"/>
<line x1="1793.281943" y1="152.743054" x2="1991.892926" y2="152.743054" stroke="black" stroke-width="7.137"/>
<line x1="1991.892926" y1="152.743054" x2="1991.892926" y2="117.219138" stroke="black" stroke-width="7.137"/>
<line x1="1991.892926" y1="117.219138" x2="1793.281943" y2="117.219138" stroke="black" stroke-width="7.137"/>
<line x1="1793.281943" y1="117.219138" x2="1793.281943" y2="152.743054" stroke="black" stroke-width="7.137"/>
<line x1="1802.566603" y1="152.743054" x2="1802.566603" y2="164.853481" stroke="black" stroke-width="7.137"/>
<line x1="1802.566603" y1="164.853481" x2="1982.204585" y2="164.853481" stroke="black" stroke-width="7.137"/>
<line x1="1982.204585" y1="152.743054" x2="1982.204585" y2="164.853481" stroke="black" stroke-width="7.137"/>
<line x1="2384.583767" y1="153.346657" x2="2583.19475" y2="153.346657" stroke="black" stroke-width="7.137"/>
<line x1="2583.19475" y1="153.346657" x2="2583.19475" y2="117.822741" stroke="black" stroke-width="7.137"/>
<line x1="2583.19475" y1="117.822741" x2="2384.583767" y2="117.822741" stroke="black" stroke-width="7.137"/>
<line x1="2384.583767" y1="117.822741" x2="2384.583767" y2="153.346657" stroke="black" stroke-width="7.137"/>
<line x1="2393.868426" y1="153.346657" x2="2393.868426" y2="165.457084" stroke="black" stroke-width="7.137"/>
<line x1="2393.868426" y1="165.457084" x2="2573.506409" y2="165.457084" stroke="black" stroke-width="7.137"/>
<line x1="2573.506409" y1="153.346657" x2="2573.506409" y2="165.457084" stroke="black" stroke-width="7.137"/>
<line x1="2794.835164" y1="152.713472" x2="2991.001705" y2="152.713472" stroke="black" stroke-width="7.137"/>
<line x1="2991.001705" y1="152.713472" x2="2991.001705" y2="117.626772" stroke="black" stroke-width="7.137"/>
<line x1="2991.001705" y1="117.626772" x2="2794.835164" y2="117.626772" stroke="black" stroke-width="7.137"/>
<line x1="2794.835164" y1="117.626772" x2="2794.835164" y2="152.713472" stroke="black" stroke-width="7.137"/>
<line x1="2804.005552" y1="152.713472" x2="2804.005552" y2="164.674846" stroke="black" stroke-width="7.137"/>
<line x1="2804.005552" y1="164.674846" x2="2981.432606" y2="164.674846" stroke="black" stroke-width="7.137"/>
<line x1="2981.432606" y1="152.713472" x2="2981.432606" y2="164.674846" stroke="black" stroke-width="7.137"/>
<line x1="3213.800403" y1="152.452572" x2="3409.966945" y2="152.452572" stroke="black" stroke-width="7.137"/>
<line x1="3409.966945" y1="152.452572" x2="3409.966945" y2="117.365871" stroke="black" stroke-width="7.137"/>
<line x1="3409.966945" y1="117.365871" x2="3213.800403" y2="117.365871" stroke="black" stroke-width="7.137"/>
<line x1="3213.800403" y1="117.365871" x2="3213.800403" y2="152.452572" stroke="black" stroke-width="7.137"/>
<line x1="3222.970792" y1="152.452572" x2="3222.970792" y2="164.413946" stroke="black" stroke-width="7.137"/>
<line x1="3222.970792" y1="164.413946" x2="3400.397846" y2="164.413946" stroke="black" stroke-width="7.137"/>
<line x1="3400.397846" y1="152.452572" x2="3400.397846" y2="164.413946" stroke="black" stroke-width="7.137"/>
<line x1="4139.032249" y1="1222.250278" x2="4139.032249" y2="1420.861261" stroke="black" stroke-width="7.137"/>
<line x1="4139.032249" y1="1420.861261" x2="4174.556166" y2="1420.861261" stroke="black" stroke-width="7.137"/>
<line x1="4174.556166" y1="1420.861261" x2="4174.556166" y2="1222.250278" stroke="black" stroke-width="7.137"/>
<line x1="4174.556166" y1="1222.250278" x2="4139.032249" y2="1222.250278" stroke="black" stroke-width="7.137"/>
<line x1="4139.032249" y1="1231.534938" x2="4126.921823" y2="1231.534938" stroke="black" stroke-width="7.137"/>
<line x1="4126.921823" y1="1231.534938" x2="4126.921823" y2="1411.17292" stroke="black" stroke-width="7.137"/>
<line x1="4139.032249" y1="1411.17292" x2="4126.921823" y2="1411.17292" stroke="black" stroke-width="7.137"/>
<line x1="1841.151775" y1="1873.253069" x2="1642.540792" y2="1873.253069" stroke="black" stroke-width="7.137"/>
<line x1="1642.540792" y1="1873.253069" x2="1642.540792" y2="1908.776985" stroke="black" stroke-width="7.137"/>
<line x1="1642.540792" y1="1908.776985" x2="1841.151775" y2="1908.776985" stroke="black" stroke-width="7.137"/>
<line x1="1841.151775" y1="1908.776985" x2="1841.151775" y2="1873.253069" stroke="black" stroke-width="7.137"/>
<line x1="1831.867116" y1="1873.253069" x2="1831.867116" y2="1861.142642" stroke="black" stroke-width="7.137"/>
<line x1="1831.867116" y1="1861.142642" x2="1652.229133" y2="1861.142642" stroke="black" stroke-width="7.137"/>
<line x1="1652.229133" y1="1873.253069" x2="1652.229133" y2="1861.142642" stroke="black" stroke-width="7.137"/>
<line x1="2488.810945" y1="1873.721868" x2="2290.199962" y2="1873.721868" stroke="black" stroke-width="7.137"/>
<line x1="2290.199962" y1="1873.721868" x2="2290.199962" y2="1909.245784" stroke="black" stroke-width="7.137"/>
<line x1="2290.199962" y1="1909.245784" x2="2488.810945" y2="1909.245784" stroke="black" stroke-width="7.137"/>
<line x1="2488.810945" y1="1909.245784" x2="2488.810945" y2="1873.721868" stroke="black" stroke-width="7.137"/>
<line x1="2479.526285" y1="1873.721868" x2="2479.526285" y2="1861.611442" stroke="black" stroke-width="7.137"/>
<line x1="2479.526285" y1="1861.611442" x2="2299.888303" y2="1861.611442" stroke="black" stroke-width="7.137"/>
<line x1="2299.888303" y1="1873.721868" x2="2299.888303" y2="1861.611442" stroke="black" stroke-width="7.137"/>
<line x1="2694.576466" y1="1848.64488" x2="2694.576466" y2="1664.66888" stroke="black" stroke-width="7.137"/>
<line x1="2694.576466" y1="1664.66888" x2="2743.742466" y2="1664.66888" stroke="black" stroke-width="7.137"/>
<line x1="2743.742466" y1="1848.64488" x2="2743.742466" y2="1664.66888" stroke="black" stroke-width="7.137"/>
<line x1="2694.576466" y1="1848.64488" x2="2743.742466" y2="1848.64488" stroke="black" stroke-width="7.137"/>
<line x1="2666.821466" y1="1807.01238" x2="2694.576466" y2="1807.01238" stroke="black" stroke-width="7.137"/>
<line x1="2694.576466" y1="1707.88738" x2="2665.235466" y2="1707.88738" stroke="black" stroke-width="7.137"/>
<circle cx="2621.620466" cy="1758.24288" r="66.61200000000001" fill="none" stroke="black" stroke-width="7.137"/>
<circle cx="2621.620466" cy="1758.24288" r="57.096000000000004" fill="none" stroke="black" stroke-width="7.137"/>
<line x1="3548.609064" y1="1512.791702" x2="3518.994257" y2="1503.878655" stroke="black" stroke-width="7.137"/>
<line x1="3518.994257" y1="1503.878655" x2="3458.522668" y2="1704.803745" stroke="black" stroke-width="7.137"/>
<line x1="3458.522668" y1="1704.803745" x2="3488.137478" y2="1713.716793" stroke="black" stroke-width="7.137"/>
<line x1="3488.137478" y1="1713.716793" x2="3548.609064" y2="1512.791702" stroke="black" stroke-width="7.137"/>
<line x1="3353.151324" y1="1453.965598" x2="3323.536514" y2="1445.052551" stroke="black" stroke-width="7.137"/>
<line x1="3323.536514" y1="1445.052551" x2="3263.064923" y2="1645.977648" stroke="black" stroke-width="7.137"/>
<line x1="3263.064923" y1="1645.977648" x2="3292.679733" y2="1654.890689" stroke="black" stroke-width="7.137"/>
<line x1="3292.679733" y1="1654.890689" x2="3353.151324" y2="1453.965598" stroke="black" stroke-width="7.137"/>
<line x1="3519.44987" y1="1504.015781" x2="3353.151324" y2="1453.965598" stroke="black" stroke-width="7.137"/>
<line x1="3459.70814" y1="1704.16677" x2="3426.652033" y2="1721.546523" stroke="black" stroke-width="7.137"/>
<line x1="3310.470859" y1="1686.579962" x2="3292.498371" y2="1653.842343" stroke="black" stroke-width="7.137"/>
<line x1="3428.474487" y1="1722.095022" x2="3308.648412" y2="1686.031462" stroke="black" stroke-width="7.137"/>
<line x1="3506.104622" y1="1546.706228" x2="3339.806073" y2="1496.656046" stroke="black" stroke-width="7.137"/>
<line x1="3080.795129" y1="548.091415" x2="3089.196802" y2="757.274757" stroke="black" stroke-width="7.137"/>
<line x1="3089.196802" y1="757.274757" x2="3321.200146" y2="747.956541" stroke="black" stroke-width="7.137"/>
<line x1="3321.200146" y1="747.956541" x2="3312.798479" y2="538.773196" stroke="black" stroke-width="7.137"/>
<line x1="3312.798479" y1="538.773196" x2="3080.795129" y2="548.091415" stroke="black" stroke-width="7.137"/>
<line x1="3113.123464" y1="546.792976" x2="3121.525138" y2="755.976321" stroke="black" stroke-width="7.137"/>
<line x1="2718.081877" y1="1554.357663" x2="2742.664877" y2="1535.722166" stroke="black" stroke-width="7.137"/>
<line x1="2742.664877" y1="1535.722166" x2="2742.664877" y2="1388.224166" stroke="black" stroke-width="7.137"/>
<line x1="2742.664877" y1="1388.224166" x2="2714.513377" y2="1369.192163" stroke="black" stroke-width="7.137"/>
<line x1="2715.306377" y1="1532.550163" x2="2715.306377" y2="1389.413666" stroke="black" stroke-width="7.137"/>
<circle cx="2693.498877" cy="1463.162663" r="13.0845" fill="none" stroke="black" stroke-width="7.137"/>
<path d="m 2715.974565,1530.994954 a 74.9385009642222,74.9385009642222 0 1 1 -0.40255200000001423,-139.78527899999995" fill="none" stroke="black" stroke-width="7.137"/>
<path d="m 2718.74007,1554.311304 a 95.55649809564125,95.55649809564125 0 1 1 -3.0788410000000113,-184.69990700000017" fill="none" stroke="black" stroke-width="7.137"/>
<line x1="3526.318503" y1="520.402986" x2="3902.836419" y2="520.402986" stroke="black" stroke-width="7.137"/>
<line x1="3902.836419" y1="520.402986" x2="3902.836419" y2="704.032626" stroke="black" stroke-width="7.137"/>
<line x1="3526.318503" y1="704.032626" x2="3902.836419" y2="704.032626" stroke="black" stroke-width="7.137"/>
<line x1="3526.318503" y1="520.402986" x2="3526.318503" y2="704.032626" stroke="black" stroke-width="7.137"/>
<line x1="3535.57714" y1="529.661623" x2="3727.693862" y2="529.661623" stroke="black" stroke-width="7.137"/>
<line x1="3727.693862" y1="529.661623" x2="3727.693862" y2="694.002435" stroke="black" stroke-width="7.137"/>
<line x1="3535.57714" y1="694.002435" x2="3727.693862" y2="694.002435" stroke="black" stroke-width="7.137"/>
<line x1="3535.57714" y1="529.661623" x2="3535.57714" y2="694.002435" stroke="black" stroke-width="7.137"/>
<line x1="3747.754243" y1="540.463367" x2="3882.776038" y2="540.463367" stroke="black" stroke-width="7.137"/>
<line x1="3747.754243" y1="569.010831" x2="3882.776038" y2="569.010831" stroke="black" stroke-width="7.137"/>
<line x1="3748.525797" y1="598.329849" x2="3883.547589" y2="598.329849" stroke="black" stroke-width="7.137"/>
<line x1="3748.525797" y1="626.877313" x2="3883.547589" y2="626.877313" stroke="black" stroke-width="7.137"/>
<line x1="3747.754243" y1="655.42478" x2="3882.776038" y2="655.42478" stroke="black" stroke-width="7.137"/>
<line x1="3747.754243" y1="683.972244" x2="3882.776038" y2="683.972244" stroke="black" stroke-width="7.137"/>
<line x1="3608.874685" y1="694.002435" x2="3608.874685" y2="674.713608" stroke="black" stroke-width="7.137"/>
<line x1="3608.874685" y1="674.713608" x2="3656.710976" y2="674.713608" stroke="black" stroke-width="7.137"/>
<line x1="3656.710976" y1="674.713608" x2="3656.710976" y2="693.230881" stroke="black" stroke-width="7.137"/>
<circle cx="3706.090375" cy="550.493555" r="11.57329659825696" fill="none" stroke="black" stroke-width="7.137"/>
<line x1="2626.745942" y1="512.545504" x2="2233.417942" y2="512.545504" stroke="black" stroke-width="7.137"/>
<line x1="2233.417942" y1="512.545504" x2="2233.417942" y2="697.314504" stroke="black" stroke-width="7.137"/>
<line x1="2233.417942" y1="697.314504" x2="2626.745942" y2="697.314504" stroke="black" stroke-width="7.137"/>
<line x1="2626.745942" y1="697.314504" x2="2626.745942" y2="512.545504" stroke="black" stroke-width="7.137"/>
<line x1="2467.352942" y1="697.314504" x2="2467.352942" y2="778.200504" stroke="black" stroke-width="7.137"/>
<line x1="2467.352942" y1="778.200504" x2="2545.859942" y2="778.200504" stroke="black" stroke-width="7.137"/>
<line x1="2545.859942" y1="778.200504" x2="2545.859942" y2="697.314504" stroke="black" stroke-width="7.137"/>
<line x1="2545.066942" y1="760.754504" x2="2467.352942" y2="760.754504" stroke="black" stroke-width="7.137"/>
<line x1="2545.859942" y1="430.866504" x2="2467.352942" y2="430.866504" stroke="black" stroke-width="7.137"/>
<line x1="2467.352942" y1="430.866504" x2="2467.352942" y2="512.545504" stroke="black" stroke-width="7.137"/>
<line x1="2545.859942" y1="512.545504" x2="2545.859942" y2="430.866504" stroke="black" stroke-width="7.137"/>
<line x1="2545.066942" y1="448.312504" x2="2467.352942" y2="448.312504" stroke="black" stroke-width="7.137"/>
<line x1="2315.889942" y1="697.314504" x2="2315.889942" y2="778.200504" stroke="black" stroke-width="7.137"/>
<line x1="2315.889942" y1="778.200504" x2="2394.396942" y2="778.200504" stroke="black" stroke-width="7.137"/>
<line x1="2394.396942" y1="778.200504" x2="2394.396942" y2="697.314504" stroke="black" stroke-width="7.137"/>
<line x1="2394.396942" y1="760.754504" x2="2315.889942" y2="760.754504" stroke="black" stroke-width="7.137"/>
<line x1="2394.396942" y1="430.866504" x2="2315.889942" y2="430.866504" stroke="black" stroke-width="7.137"/>
<line x1="2315.889942" y1="430.866504" x2="2315.889942" y2="512.545504" stroke="black" stroke-width="7.137"/>
<line x1="2394.396942" y1="512.545504" x2="2394.396942" y2="430.866504" stroke="black" stroke-width="7.137"/>
<line x1="2394.396942" y1="448.312504" x2="2315.889942" y2="448.312504" stroke="black" stroke-width="7.137"/>
<line x1="386.924078" y1="187.64057" x2="196.604078" y2="187.64057" stroke="black" stroke-width="7.137"/>
<line x1="196.604078" y1="187.64057" x2="196.604078" y2="652.02137" stroke="black" stroke-width="7.137"/>
<line x1="196.604078" y1="652.02137" x2="386.924078" y2="652.02137" stroke="black" stroke-width="7.137"/>
<line x1="386.924078" y1="652.02137" x2="386.924078" y2="628.23137" stroke="black" stroke-width="7.137"/>
<line x1="386.924078" y1="628.23137" x2="219.442478" y2="628.23137" stroke="black" stroke-width="7.137"/>
<line x1="219.442478" y1="628.23137" x2="219.442478" y2="212.38217" stroke="black" stroke-width="7.137"/>
<line x1="219.442478" y1="212.38217" x2="386.924078" y2="212.38217" stroke="black" stroke-width="7.137"/>
<line x1="386.924078" y1="212.38217" x2="386.924078" y2="187.64057" stroke="black" stroke-width="7.137"/>
<line x1="381.214478" y1="212.38217" x2="381.214478" y2="628.23137" stroke="black" stroke-width="7.137"/>
<line x1="382.166078" y1="419.83097" x2="220.394078" y2="419.83097" stroke="black" stroke-width="7.137"/>
<line x1="886.335364" y1="394.181576" x2="839.241413" y2="190.195255" stroke="black" stroke-width="7.137"/>
<line x1="839.241413" y1="190.195255" x2="613.00204" y2="242.426726" stroke="black" stroke-width="7.137"/>
<line x1="613.00204" y1="242.426726" x2="660.095988" y2="446.41305" stroke="black" stroke-width="7.137"/>
<line x1="660.095988" y1="446.41305" x2="886.335364" y2="394.181576" stroke="black" stroke-width="7.137"/>
<line x1="854.810204" y1="401.459733" x2="807.716253" y2="197.473409" stroke="black" stroke-width="7.137"/>
<line x1="2795.013938" y1="1653.251808" x2="2989.742006" y2="1653.251808" stroke="black" stroke-width="7.137"/>
<line x1="2989.742006" y1="1653.251808" x2="2989.742006" y2="1848.378908" stroke="black" stroke-width="7.137"/>
<line x1="2989.742006" y1="1848.378908" x2="2795.013938" y2="1848.378908" stroke="black" stroke-width="7.137"/>
<line x1="2795.013938" y1="1848.378908" x2="2795.013938" y2="1653.251808" stroke="black" stroke-width="7.137"/>
<line x1="2794.614907" y1="1652.852774" x2="2989.742006" y2="1848.378908" stroke="black" stroke-width="7.137"/>
<line x1="2795.013938" y1="1847.979873" x2="2989.342972" y2="1653.251808" stroke="black" stroke-width="7.137"/>
<line x1="273.890939" y1="1022.78106" x2="394.154151" y2="1099.397174" stroke="black" stroke-width="7.137"/>
<line x1="394.154151" y1="1099.397174" x2="317.381036" y2="1219.906824" stroke="black" stroke-width="7.137"/>
<line x1="317.381036" y1="1219.906824" x2="197.117828" y2="1143.29071" stroke="black" stroke-width="7.137"/>
<line x1="197.117828" y1="1143.29071" x2="273.890939" y2="1022.78106" stroke="black" stroke-width="7.137"/>
<line x1="273.801499" y1="1022.377619" x2="317.381036" y2="1219.906824" stroke="black" stroke-width="7.137"/>
<line x1="197.274826" y1="1143.044271" x2="393.907708" y2="1099.240175" stroke="black" stroke-width="7.137"/>
<line x1="2528.178142" y1="1217.298482" x2="2643.166837" y2="1135.277842" stroke="black" stroke-width="7.136997"/>
<line x1="2643.166837" y1="1135.277842" x2="2725.355549" y2="1250.502169" stroke="black" stroke-width="7.136997"/>
<line x1="2725.355549" y1="1250.502169" x2="2610.366857" y2="1332.522809" stroke="black" stroke-width="7.136997"/>
<line x1="2610.366857" y1="1332.522809" x2="2528.178142" y2="1217.298482" stroke="black" stroke-width="7.136997"/>
<line x1="2527.774432" y1="1217.230925" x2="2725.355549" y2="1250.502169" stroke="black" stroke-width="7.136997"/>
<line x1="2610.198779" y1="1332.287177" x2="2642.931202" y2="1135.445919" stroke="black" stroke-width="7.136997"/>
<line x1="187.012721" y1="746.028976" x2="187.012721" y2="359.167086" stroke="black" stroke-width="7.137"/>
<line x1="187.012721" y1="359.167086" x2="127.374781" y2="359.167086" stroke="black" stroke-width="7.137"/>
<line x1="127.374781" y1="359.167086" x2="127.374781" y2="746.028976" stroke="black" stroke-width="7.137"/>
<line x1="127.374781" y1="746.028976" x2="187.012721" y2="746.028976" stroke="black" stroke-width="7.137"/>
<line x1="128.15949" y1="709.93233" x2="186.228009" y2="709.93233" stroke="black" stroke-width="7.137"/>
<line x1="128.15949" y1="396.04844" x2="188.582137" y2="396.04844" stroke="black" stroke-width="7.137"/>
<line x1="155.624331" y1="710.717039" x2="155.624331" y2="396.833152" stroke="black" stroke-width="7.137"/>
<line x1="2240.449955" y1="1365.887577" x2="2240.449955" y2="1388.961945" stroke="black" stroke-width="7.137"/>
<line x1="2240.449955" y1="1388.961945" x2="2285.473114" y2="1388.961945" stroke="black" stroke-width="7.137"/>
<line x1="2285.473114" y1="1388.961945" x2="2285.473114" y2="1365.887577" stroke="black" stroke-width="7.137"/>
<line x1="2285.473114" y1="1365.887577" x2="2240.449955" y2="1365.887577" stroke="black" stroke-width="7.137"/>
<line x1="2285.473114" y1="1614.640518" x2="2510.026105" y2="1614.640518" stroke="black" stroke-width="7.137"/>
<line x1="2239.324377" y1="1615.203307" x2="2239.324377" y2="1638.277675" stroke="black" stroke-width="7.137"/>
<line x1="2239.324377" y1="1638.277675" x2="2284.347533" y2="1638.277675" stroke="black" stroke-width="7.137"/>
<line x1="2284.347533" y1="1638.277675" x2="2284.347533" y2="1615.203307" stroke="black" stroke-width="7.137"/>
<line x1="2284.347533" y1="1615.203307" x2="2239.324377" y2="1615.203307" stroke="black" stroke-width="7.137"/>
<path d="m 2283.784744,1388.961945 a 225.67857249999986,225.67857249999986 0 0 1 225.6785719999998,225.67857299999991" fill="none" stroke="black" stroke-width="7.137"/>
<line x1="3009.172888" y1="1088.303157" x2="3035.485919" y2="1104.554417" stroke="black" stroke-width="7.137"/>
<line x1="3035.485919" y1="1104.554417" x2="3145.744481" y2="926.030597" stroke="black" stroke-width="7.137"/>
<line x1="3145.744481" y1="926.030597" x2="3119.431443" y2="909.779334" stroke="black" stroke-width="7.137"/>
<line x1="3119.431443" y1="909.779334" x2="3009.172888" y2="1088.303157" stroke="black" stroke-width="7.137"/>
<line x1="3182.838917" y1="1195.561483" x2="3209.151952" y2="1211.812743" stroke="black" stroke-width="7.137"/>
<line x1="3209.151952" y1="1211.812743" x2="3319.410513" y2="1033.288919" stroke="black" stroke-width="7.137"/>
<line x1="3319.410513" y1="1033.288919" x2="3293.097476" y2="1017.037659" stroke="black" stroke-width="7.137"/>
<line x1="3293.097476" y1="1017.037659" x2="3182.838917" y2="1195.561483" stroke="black" stroke-width="7.137"/>
<line x1="3035.081105" y1="1104.304397" x2="3182.838917" y2="1195.561483" stroke="black" stroke-width="7.137"/>
<line x1="3144.434809" y1="926.340187" x2="3180.855571" y2="918.076398" stroke="black" stroke-width="7.137"/>
<line x1="3284.083632" y1="981.831349" x2="3293.002255" y2="1018.097313" stroke="black" stroke-width="7.137"/>
<line x1="3179.236306" y1="917.07632" x2="3285.702893" y2="982.831426" stroke="black" stroke-width="7.137"/>
<line x1="3058.987746" y1="1066.501719" x2="3206.745558" y2="1157.758808" stroke="black" stroke-width="7.137"/>
<line x1="1619.722293" y1="1849.265666" x2="1699.837834" y2="1655.849635" stroke="black" stroke-width="7.137"/>
<line x1="1699.837834" y1="1655.849635" x2="1485.321878" y2="1566.99422" stroke="black" stroke-width="7.137"/>
<line x1="1485.321878" y1="1566.99422" x2="1405.206334" y2="1760.410244" stroke="black" stroke-width="7.137"/>
<line x1="1405.206334" y1="1760.410244" x2="1619.722293" y2="1849.265666" stroke="black" stroke-width="7.137"/>
<line x1="1589.830723" y1="1836.884173" x2="1669.946266" y2="1643.468145" stroke="black" stroke-width="7.137"/>
</g>
</svg>
