<?xml version="1.0"?>
<svg xmlns:xlink="http://www.w3.org/1999/xlink" width="4348.812" height="2226.744">
<image x="0" y="0" width="4348.812" height="2226.744" xlink:href="ground16-10.png"/>
<g style="stroke-linecap:round">
<line x1="403.073634" y1="1261.405573" x2="403.073634" y2="1284.479941" stroke="black" stroke-width="7.137"/>
<line x1="403.073634" y1="1284.479941" x2="448.096792" y2="1284.479941" stroke="black" stroke-width="7.137"/>
<line x1="448.096792" y1="1284.479941" x2="448.096792" y2="1261.405573" stroke="black" stroke-width="7.137"/>
<line x1="448.096792" y1="1261.405573" x2="403.073634" y2="1261.405573" stroke="black" stroke-width="7.137"/>
<line x1="448.096792" y1="1510.158514" x2="672.649784" y2="1510.158514" stroke="black" stroke-width="7.137"/>
<line x1="401.948056" y1="1510.721303" x2="401.948056" y2="1533.795671" stroke="black" stroke-width="7.137"/>
<line x1="401.948056" y1="1533.795671" x2="446.971211" y2="1533.795671" stroke="black" stroke-width="7.137"/>
<line x1="446.971211" y1="1533.795671" x2="446.971211" y2="1510.721303" stroke="black" stroke-width="7.137"/>
<line x1="446.971211" y1="1510.721303" x2="401.948056" y2="1510.721303" stroke="black" stroke-width="7.137"/>
<path d="m 446.408422,1284.479941 a 225.67857299999997,225.67857299999997 0 0 1 225.67857300000003,225.67857299999991" fill="none" stroke="black" stroke-width="7.137"/>
<line x1="1917.663575" y1="1638.130602" x2="1917.663575" y2="1615.056234" stroke="black" stroke-width="7.137"/>
<line x1="1917.663575" y1="1615.056234" x2="1872.640416" y2="1615.056234" stroke="black" stroke-width="7.137"/>
<line x1="1872.640416" y1="1615.056234" x2="1872.640416" y2="1638.130602" stroke="black" stroke-width="7.137"/>
<line x1="1872.640416" y1="1638.130602" x2="1917.663575" y2="1638.130602" stroke="black" stroke-width="7.137"/>
<line x1="1872.640416" y1="1389.377661" x2="1648.087424" y2="1389.377661" stroke="black" stroke-width="7.137"/>
<line x1="1918.789152" y1="1388.814872" x2="1918.789152" y2="1365.740504" stroke="black" stroke-width="7.137"/>
<line x1="1918.789152" y1="1365.740504" x2="1873.765997" y2="1365.740504" stroke="black" stroke-width="7.137"/>
<line x1="1873.765997" y1="1365.740504" x2="1873.765997" y2="1388.814872" stroke="black" stroke-width="7.137"/>
<line x1="1873.765997" y1="1388.814872" x2="1918.789152" y2="1388.814872" stroke="black" stroke-width="7.137"/>
<path d="m 1874.328786,1615.056234 a 225.67857300000003,225.67857300000003 0 0 1 -225.67857300000014,-225.67857299999991" fill="none" stroke="black" stroke-width="7.137"/>
<line x1="2911.380239" y1="1379.940939" x2="2924.515856" y2="1394.02716" stroke="black" stroke-width="7.137"/>
<line x1="2924.515856" y1="1394.02716" x2="2952.001163" y2="1368.396689" stroke="black" stroke-width="7.137"/>
<line x1="2952.001163" y1="1368.396689" x2="2938.865546" y2="1354.310468" stroke="black" stroke-width="7.137"/>
<line x1="2938.865546" y1="1354.310468" x2="2911.380239" y2="1379.940939" stroke="black" stroke-width="7.137"/>
<line x1="3080.473897" y1="1506.166784" x2="3217.55686" y2="1378.334813" stroke="black" stroke-width="7.137"/>
<line x1="3052.621837" y1="1532.781583" x2="3065.757454" y2="1546.867804" stroke="black" stroke-width="7.137"/>
<line x1="3065.757454" y1="1546.867804" x2="3093.242764" y2="1521.237333" stroke="black" stroke-width="7.137"/>
<line x1="3093.242764" y1="1521.237333" x2="3080.107144" y2="1507.151115" stroke="black" stroke-width="7.137"/>
<line x1="3080.107144" y1="1507.151115" x2="3052.621837" y2="1532.781583" stroke="black" stroke-width="7.137"/>
<path d="m 2950.97046,1369.357834 a 188.376865628772,188.376865628772 0 0 1 266.242835,9.297357000000147" fill="none" stroke="black" stroke-width="7.137"/>
<line x1="4172.82374" y1="469.467578" x2="4172.82374" y2="446.39321" stroke="black" stroke-width="7.137"/>
<line x1="4172.82374" y1="446.39321" x2="4127.800581" y2="446.39321" stroke="black" stroke-width="7.137"/>
<line x1="4127.800581" y1="446.39321" x2="4127.800581" y2="469.467578" stroke="black" stroke-width="7.137"/>
<line x1="4127.800581" y1="469.467578" x2="4172.82374" y2="469.467578" stroke="black" stroke-width="7.137"/>
<line x1="4127.800581" y1="220.714637" x2="3903.24759" y2="220.714637" stroke="black" stroke-width="7.137"/>
<line x1="4173.949318" y1="220.151848" x2="4173.949318" y2="197.07748" stroke="black" stroke-width="7.137"/>
<line x1="4173.949318" y1="197.07748" x2="4128.926162" y2="197.07748" stroke="black" stroke-width="7.137"/>
<line x1="4128.926162" y1="197.07748" x2="4128.926162" y2="220.151848" stroke="black" stroke-width="7.137"/>
<line x1="4128.926162" y1="220.151848" x2="4173.949318" y2="220.151848" stroke="black" stroke-width="7.137"/>
<path d="m 4129.488951,446.39321 a 225.67857250000014,225.67857250000014 0 0 1 -225.67857200000026,-225.678573" fill="none" stroke="black" stroke-width="7.137"/>
<line x1="4172.660905" y1="1828.520329" x2="4172.660905" y2="1805.445961" stroke="black" stroke-width="7.137"/>
<line x1="4172.660905" y1="1805.445961" x2="4127.637747" y2="1805.445961" stroke="black" stroke-width="7.137"/>
<line x1="4127.637747" y1="1805.445961" x2="4127.637747" y2="1828.520329" stroke="black" stroke-width="7.137"/>
<line x1="4127.637747" y1="1828.520329" x2="4172.660905" y2="1828.520329" stroke="black" stroke-width="7.137"/>
<line x1="4127.637747" y1="1579.767388" x2="3903.084755" y2="1579.767388" stroke="black" stroke-width="7.137"/>
<line x1="4173.786483" y1="1579.204599" x2="4173.786483" y2="1556.130231" stroke="black" stroke-width="7.137"/>
<line x1="4173.786483" y1="1556.130231" x2="4128.763328" y2="1556.130231" stroke="black" stroke-width="7.137"/>
<line x1="4128.763328" y1="1556.130231" x2="4128.763328" y2="1579.204599" stroke="black" stroke-width="7.137"/>
<line x1="4128.763328" y1="1579.204599" x2="4173.786483" y2="1579.204599" stroke="black" stroke-width="7.137"/>
<path d="m 4129.326117,1805.445961 a 225.6785729999998,225.6785729999998 0 0 1 -225.6785729999997,-225.67857299999991" fill="none" stroke="black" stroke-width="7.137"/>
<line x1="1793.281943" y1="152.743054" x2="1991.892926" y2="152.743054" stroke="black" stroke-width="7.137"/>
<line x1="1991.892926" y1="152.743054" x2="1991.892926" y2="117.219138" stroke="black" stroke-width="7.137"/>
<line x1="1991.892926" y1="117.219138" x2="1793.281943" y2="117.219138" stroke="black" stroke-width="7.137"/>
<line x1="1793.281943" y1="117.219138" x2="1793.281943" y2="152.743054" stroke="black" stroke-width="7.137"/>
<line x1="1802.566603" y1="152.743054" x2="1802.566603" y2="164.853481" stroke="black" stroke-width="7.137"/>
<line x1="1802.566603" y1="164.853481" x2="1982.204585" y2="164.853481" stroke="black" stroke-width="7.137"/>
<line x1="1982.204585" y1="152.743054" x2="1982.204585" y2="164.853481" stroke="black" stroke-width="7.137"/>
<line x1="2384.583767" y1="153.346657" x2="2583.19475" y2="153.346657" stroke="black" stroke-width="7.137"/>
<line x1="2583.19475" y1="153.346657" x2="2583.19475" y2="117.822741" stroke="black" stroke-width="7.137"/>
<line x1="2583.19475" y1="117.822741" x2="2384.583767" y2="117.822741" stroke="black" stroke-width="7.137"/>
<line x1="2384.583767" y1="117.822741" x2="2384.583767" y2="153.346657" stroke="black" stroke-width="7.137"/>
<line x1="2393.868426" y1="153.346657" x2="2393.868426" y2="165.457084" stroke="black" stroke-width="7.137"/>
<line x1="2393.868426" y1="165.457084" x2="2573.506409" y2="165.457084" stroke="black" stroke-width="7.137"/>
<line x1="2573.506409" y1="153.346657" x2="2573.506409" y2="165.457084" stroke="black" stroke-width="7.137"/>
<line x1="2794.835164" y1="152.713472" x2="2991.001705" y2="152.713472" stroke="black" stroke-width="7.137"/>
<line x1="2991.001705" y1="152.713472" x2="2991.001705" y2="117.626772" stroke="black" stroke-width="7.137"/>
<line x1="2991.001705" y1="117.626772" x2="2794.835164" y2="117.626772" stroke="black" stroke-width="7.137"/>
<line x1="2794.835164" y1="117.626772" x2="2794.835164" y2="152.713472" stroke="black" stroke-width="7.137"/>
<line x1="2804.005552" y1="152.713472" x2="2804.005552" y2="164.674846" stroke="black" stroke-width="7.137"/>
<line x1="2804.005552" y1="164.674846" x2="2981.432606" y2="164.674846" stroke="black" stroke-width="7.137"/>
<line x1="2981.432606" y1="152.713472" x2="2981.432606" y2="164.674846" stroke="black" stroke-width="7.137"/>
<line x1="3213.800403" y1="152.452572" x2="3409.966945" y2="152.452572" stroke="black" stroke-width="7.137"/>
<line x1="3409.966945" y1="152.452572" x2="3409.966945" y2="117.365871" stroke="black" stroke-width="7.137"/>
<line x1="3409.966945" y1="117.365871" x2="3213.800403" y2="117.365871" stroke="black" stroke-width="7.137"/>
<line x1="3213.800403" y1="117.365871" x2="3213.800403" y2="152.452572" stroke="black" stroke-width="7.137"/>
<line x1="3222.970792" y1="152.452572" x2="3222.970792" y2="164.413946" stroke="black" stroke-width="7.137"/>
<line x1="3222.970792" y1="164.413946" x2="3400.397846" y2="164.413946" stroke="black" stroke-width="7.137"/>
<line x1="3400.397846" y1="152.452572" x2="3400.397846" y2="164.413946" stroke="black" stroke-width="7.137"/>
<line x1="4139.032249" y1="1222.250278" x2="4139.032249" y2="1420.861261" stroke="black" stroke-width="7.137"/>
<line x1="4139.032249" y1="1420.861261" x2="4174.556166" y2="1420.861261" stroke="black" stroke-width="7.137"/>
<line x1="4174.556166" y1="1420.861261" x2="4174.556166" y2="1222.250278" stroke="black" stroke-width="7.137"/>
<line x1="4174.556166" y1="1222.250278" x2="4139.032249" y2="1222.250278" stroke="black" stroke-width="7.137"/>
<line x1="4139.032249" y1="1231.534938" x2="4126.921823" y2="1231.534938" stroke="black" stroke-width="7.137"/>
<line x1="4126.921823" y1="1231.534938" x2="4126.921823" y2="1411.17292" stroke="black" stroke-width="7.137"/>
<line x1="4139.032249" y1="1411.17292" x2="4126.921823" y2="1411.17292" stroke="black" stroke-width="7.137"/>
<line x1="1841.151775" y1="1873.253069" x2="1642.540792" y2="1873.253069" stroke="black" stroke-width="7.137"/>
<line x1="1642.540792" y1="1873.253069" x2="1642.540792" y2="1908.776985" stroke="black" stroke-width="7.137"/>
<line x1="1642.540792" y1="1908.776985" x2="1841.151775" y2="1908.776985" stroke="black" stroke-width="7.137"/>
<line x1="1841.151775" y1="1908.776985" x2="1841.151775" y2="1873.253069" stroke="black" stroke-width="7.137"/>
<line x1="1831.867116" y1="1873.253069" x2="1831.867116" y2="1861.142642" stroke="black" stroke-width="7.137"/>
<line x1="1831.867116" y1="1861.142642" x2="1652.229133" y2="1861.142642" stroke="black" stroke-width="7.137"/>
<line x1="1652.229133" y1="1873.253069" x2="1652.229133" y2="1861.142642" stroke="black" stroke-width="7.137"/>
<line x1="2488.810945" y1="1873.721868" x2="2290.199962" y2="1873.721868" stroke="black" stroke-width="7.137"/>
<line x1="2290.199962" y1="1873.721868" x2="2290.199962" y2="1909.245784" stroke="black" stroke-width="7.137"/>
<line x1="2290.199962" y1="1909.245784" x2="2488.810945" y2="1909.245784" stroke="black" stroke-width="7.137"/>
<line x1="2488.810945" y1="1909.245784" x2="2488.810945" y2="1873.721868" stroke="black" stroke-width="7.137"/>
<line x1="2479.526285" y1="1873.721868" x2="2479.526285" y2="1861.611442" stroke="black" stroke-width="7.137"/>
<line x1="2479.526285" y1="1861.611442" x2="2299.888303" y2="1861.611442" stroke="black" stroke-width="7.137"/>
<line x1="2299.888303" y1="1873.721868" x2="2299.888303" y2="1861.611442" stroke="black" stroke-width="7.137"/>
<line x1="2694.576466" y1="1848.64488" x2="2694.576466" y2="1664.66888" stroke="black" stroke-width="7.137"/>
<line x1="2694.576466" y1="1664.66888" x2="2743.742466" y2="1664.66888" stroke="black" stroke-width="7.137"/>
<line x1="2743.742466" y1="1848.64488" x2="2743.742466" y2="1664.66888" stroke="black" stroke-width="7.137"/>
<line x1="2694.576466" y1="1848.64488" x2="2743.742466" y2="1848.64488" stroke="black" stroke-width="7.137"/>
<line x1="2666.821466" y1="1807.01238" x2="2694.576466" y2="1807.01238" stroke="black" stroke-width="7.137"/>
<line x1="2694.576466" y1="1707.88738" x2="2665.235466" y2="1707.88738" stroke="black" stroke-width="7.137"/>
<circle cx="2621.620466" cy="1758.24288" r="66.61200000000001" fill="none" stroke="black" stroke-width="7.137"/>
<circle cx="2621.620466" cy="1758.24288" r="57.096000000000004" fill="none" stroke="black" stroke-width="7.137"/>
<line x1="3577.905278" y1="1506.791189" x2="3547.864583" y2="1499.440278" stroke="black" stroke-width="7.137"/>
<line x1="3547.864583" y1="1499.440278" x2="3497.991477" y2="1703.254848" stroke="black" stroke-width="7.137"/>
<line x1="3497.991477" y1="1703.254848" x2="3528.032173" y2="1710.605758" stroke="black" stroke-width="7.137"/>
<line x1="3528.032173" y1="1710.605758" x2="3577.905278" y2="1506.791189" stroke="black" stroke-width="7.137"/>
<line x1="3379.636687" y1="1458.275173" x2="3349.595988" y2="1450.924263" stroke="black" stroke-width="7.137"/>
<line x1="3349.595988" y1="1450.924263" x2="3299.72288" y2="1654.738829" stroke="black" stroke-width="7.137"/>
<line x1="3299.72288" y1="1654.738829" x2="3329.763575" y2="1662.089743" stroke="black" stroke-width="7.137"/>
<line x1="3329.763575" y1="1662.089743" x2="3379.636687" y2="1458.275173" stroke="black" stroke-width="7.137"/>
<line x1="3548.326749" y1="1499.55337" x2="3379.636687" y2="1458.275173" stroke="black" stroke-width="7.137"/>
<line x1="3499.14199" y1="1702.556697" x2="3467.04077" y2="1721.64266" stroke="black" stroke-width="7.137"/>
<line x1="3349.188808" y1="1692.804466" x2="3329.527594" y2="1661.052324" stroke="black" stroke-width="7.137"/>
<line x1="3468.889427" y1="1722.095022" x2="3347.340148" y2="1692.352101" stroke="black" stroke-width="7.137"/>
<line x1="3537.234034" y1="1542.883746" x2="3368.543975" y2="1501.605549" stroke="black" stroke-width="7.137"/>
<line x1="3091.428742" y1="538.773202" x2="3088.894628" y2="569.596205" stroke="black" stroke-width="7.137"/>
<line x1="3088.894628" y1="569.596205" x2="3298.016858" y2="586.789181" stroke="black" stroke-width="7.137"/>
<line x1="3298.016858" y1="586.789181" x2="3300.550968" y2="555.966175" stroke="black" stroke-width="7.137"/>
<line x1="3300.550968" y1="555.966175" x2="3091.428742" y2="538.773202" stroke="black" stroke-width="7.137"/>
<line x1="3074.703598" y1="742.205029" x2="3072.169487" y2="773.028035" stroke="black" stroke-width="7.137"/>
<line x1="3072.169487" y1="773.028035" x2="3281.291714" y2="790.221014" stroke="black" stroke-width="7.137"/>
<line x1="3281.291714" y1="790.221014" x2="3283.825831" y2="759.398005" stroke="black" stroke-width="7.137"/>
<line x1="3283.825831" y1="759.398005" x2="3074.703598" y2="742.205029" stroke="black" stroke-width="7.137"/>
<line x1="3088.933615" y1="569.122007" x2="3074.703598" y2="742.205029" stroke="black" stroke-width="7.137"/>
<line x1="3297.146429" y1="585.76281" x2="3321.044198" y2="614.462261" stroke="black" stroke-width="7.137"/>
<line x1="3311.102683" y1="735.383278" x2="3282.838441" y2="759.794232" stroke="black" stroke-width="7.137"/>
<line x1="3321.200146" y1="612.565459" x2="3310.946735" y2="737.28008" stroke="black" stroke-width="7.137"/>
<line x1="3133.469434" y1="573.260924" x2="3119.239417" y2="746.343947" stroke="black" stroke-width="7.137"/>
<line x1="2718.081877" y1="1554.357663" x2="2742.664877" y2="1535.722166" stroke="black" stroke-width="7.137"/>
<line x1="2742.664877" y1="1535.722166" x2="2742.664877" y2="1388.224166" stroke="black" stroke-width="7.137"/>
<line x1="2742.664877" y1="1388.224166" x2="2714.513377" y2="1369.192163" stroke="black" stroke-width="7.137"/>
<line x1="2715.306377" y1="1532.550163" x2="2715.306377" y2="1389.413666" stroke="black" stroke-width="7.137"/>
<circle cx="2693.498877" cy="1463.162663" r="13.0845" fill="none" stroke="black" stroke-width="7.137"/>
<path d="m 2715.974565,1530.994954 a 74.9385009642222,74.9385009642222 0 1 1 -0.40255200000001423,-139.78527899999995" fill="none" stroke="black" stroke-width="7.137"/>
<path d="m 2718.74007,1554.311304 a 95.55649809564125,95.55649809564125 0 1 1 -3.0788410000000113,-184.69990700000017" fill="none" stroke="black" stroke-width="7.137"/>
<line x1="3448.740287" y1="521.73947" x2="3976.265716" y2="521.73947" stroke="black" stroke-width="7.137"/>
<line x1="3981.571781" y1="520.402986" x2="3981.571781" y2="702.935364" stroke="black" stroke-width="7.137"/>
<line x1="3449.363252" y1="704.480078" x2="3981.981384" y2="704.480078" stroke="black" stroke-width="7.137"/>
<line x1="3450.349084" y1="522.671458" x2="3450.349084" y2="704.124328" stroke="black" stroke-width="7.137"/>
<line x1="3464.160876" y1="536.613705" x2="3629.902355" y2="536.613705" stroke="black" stroke-width="7.137"/>
<line x1="3629.902355" y1="536.613705" x2="3629.902355" y2="689.60584" stroke="black" stroke-width="7.137"/>
<line x1="3464.160876" y1="689.60584" x2="3629.902355" y2="689.60584" stroke="black" stroke-width="7.137"/>
<line x1="3464.160876" y1="536.613705" x2="3464.160876" y2="689.60584" stroke="black" stroke-width="7.137"/>
<line x1="3655.401045" y1="546.175714" x2="3772.270038" y2="546.175714" stroke="black" stroke-width="7.137"/>
<line x1="3655.401045" y1="572.736847" x2="3772.270038" y2="572.736847" stroke="black" stroke-width="7.137"/>
<line x1="3656.46349" y1="600.360427" x2="3772.270038" y2="600.360427" stroke="black" stroke-width="7.137"/>
<line x1="3656.46349" y1="626.921563" x2="3772.270038" y2="626.921563" stroke="black" stroke-width="7.137"/>
<line x1="3655.401045" y1="653.482698" x2="3772.270038" y2="653.482698" stroke="black" stroke-width="7.137"/>
<line x1="3655.401045" y1="680.043833" x2="3772.270038" y2="680.043833" stroke="black" stroke-width="7.137"/>
<line x1="3527.907599" y1="688.543395" x2="3527.907599" y2="670.481824" stroke="black" stroke-width="7.137"/>
<line x1="3527.907599" y1="670.481824" x2="3568.280523" y2="670.481824" stroke="black" stroke-width="7.137"/>
<line x1="3568.280523" y1="670.481824" x2="3568.280523" y2="687.480949" stroke="black" stroke-width="7.137"/>
<line x1="3799.893619" y1="536.613705" x2="3965.635101" y2="536.613705" stroke="black" stroke-width="7.137"/>
<line x1="3965.635101" y1="536.613705" x2="3965.635101" y2="689.60584" stroke="black" stroke-width="7.137"/>
<line x1="3799.893619" y1="689.60584" x2="3965.635101" y2="689.60584" stroke="black" stroke-width="7.137"/>
<line x1="3799.893619" y1="536.613705" x2="3799.893619" y2="689.60584" stroke="black" stroke-width="7.137"/>
<line x1="3863.640342" y1="689.60584" x2="3863.640342" y2="671.544269" stroke="black" stroke-width="7.137"/>
<line x1="3863.640342" y1="671.544269" x2="3904.013266" y2="671.544269" stroke="black" stroke-width="7.137"/>
<line x1="3904.013266" y1="671.544269" x2="3904.013266" y2="688.543395" stroke="black" stroke-width="7.137"/>
<circle cx="3610.778338" cy="555.737721" r="9.562008527221566" fill="none" stroke="black" stroke-width="7.137"/>
<circle cx="3946.511084" cy="556.800167" r="9.562008527221566" fill="none" stroke="black" stroke-width="7.137"/>
<line x1="1679.497729" y1="670.193904" x2="1679.497729" y2="537.921504" stroke="black" stroke-width="7.137"/>
<line x1="1679.497729" y1="537.921504" x2="1693.771729" y2="537.921504" stroke="black" stroke-width="7.137"/>
<line x1="1693.771729" y1="670.193904" x2="1693.771729" y2="537.921504" stroke="black" stroke-width="7.137"/>
<line x1="1679.497729" y1="670.193904" x2="1693.771729" y2="670.193904" stroke="black" stroke-width="7.137"/>
<line x1="1693.771729" y1="656.871504" x2="1725.174529" y2="658.774704" stroke="black" stroke-width="7.137"/>
<line x1="1693.771729" y1="551.243904" x2="1726.126129" y2="549.340704" stroke="black" stroke-width="7.137"/>
<line x1="2141.023729" y1="670.193904" x2="2141.023729" y2="537.921504" stroke="black" stroke-width="7.137"/>
<line x1="2141.023729" y1="537.921504" x2="2127.701329" y2="537.921504" stroke="black" stroke-width="7.137"/>
<line x1="2127.701329" y1="670.193904" x2="2127.701329" y2="537.921504" stroke="black" stroke-width="7.137"/>
<line x1="2141.023729" y1="670.193904" x2="2127.701329" y2="670.193904" stroke="black" stroke-width="7.137"/>
<line x1="2125.798129" y1="657.823104" x2="2094.395329" y2="659.726304" stroke="black" stroke-width="7.137"/>
<line x1="2125.798129" y1="552.195504" x2="2093.443729" y2="549.340704" stroke="black" stroke-width="7.137"/>
<line x1="1844.124529" y1="374.246304" x2="1844.124529" y2="388.520304" stroke="black" stroke-width="7.137"/>
<line x1="1844.124529" y1="388.520304" x2="1976.396929" y2="388.520304" stroke="black" stroke-width="7.137"/>
<line x1="1976.396929" y1="374.246304" x2="1976.396929" y2="388.520304" stroke="black" stroke-width="7.137"/>
<line x1="1844.124529" y1="374.246304" x2="1976.396929" y2="374.246304" stroke="black" stroke-width="7.137"/>
<line x1="1962.122929" y1="388.520304" x2="1964.977729" y2="420.874704" stroke="black" stroke-width="7.137"/>
<line x1="1857.446929" y1="388.520304" x2="1855.543729" y2="420.874704" stroke="black" stroke-width="7.137"/>
<line x1="1843.172929" y1="834.820704" x2="1843.172929" y2="820.546704" stroke="black" stroke-width="7.137"/>
<line x1="1843.172929" y1="820.546704" x2="1975.445329" y2="820.546704" stroke="black" stroke-width="7.137"/>
<line x1="1975.445329" y1="834.820704" x2="1975.445329" y2="820.546704" stroke="black" stroke-width="7.137"/>
<line x1="1843.172929" y1="834.820704" x2="1975.445329" y2="834.820704" stroke="black" stroke-width="7.137"/>
<line x1="1961.171329" y1="820.546704" x2="1964.026129" y2="788.192304" stroke="black" stroke-width="7.137"/>
<line x1="1856.495329" y1="820.546704" x2="1854.592129" y2="788.192304" stroke="black" stroke-width="7.137"/>
<circle cx="1909.784929" cy="604.533504" r="192.2232" fill="none" stroke="black" stroke-width="7.137"/>
<line x1="660.984878" y1="377.96057" x2="660.984878" y2="187.64057" stroke="black" stroke-width="7.137"/>
<line x1="660.984878" y1="187.64057" x2="196.604078" y2="187.64057" stroke="black" stroke-width="7.137"/>
<line x1="196.604078" y1="187.64057" x2="196.604078" y2="377.96057" stroke="black" stroke-width="7.137"/>
<line x1="196.604078" y1="377.96057" x2="220.394078" y2="377.96057" stroke="black" stroke-width="7.137"/>
<line x1="220.394078" y1="377.96057" x2="220.394078" y2="210.47897" stroke="black" stroke-width="7.137"/>
<line x1="220.394078" y1="210.47897" x2="636.243278" y2="210.47897" stroke="black" stroke-width="7.137"/>
<line x1="636.243278" y1="210.47897" x2="636.243278" y2="377.96057" stroke="black" stroke-width="7.137"/>
<line x1="636.243278" y1="377.96057" x2="660.984878" y2="377.96057" stroke="black" stroke-width="7.137"/>
<line x1="636.243278" y1="372.25097" x2="220.394078" y2="372.25097" stroke="black" stroke-width="7.137"/>
<line x1="428.794478" y1="373.20257" x2="428.794478" y2="211.43057" stroke="black" stroke-width="7.137"/>
<line x1="198.665291" y1="892.864939" x2="229.562861" y2="894.213959" stroke="black" stroke-width="7.137"/>
<line x1="229.562861" y1="894.213959" x2="238.71542" y2="684.585868" stroke="black" stroke-width="7.137"/>
<line x1="238.71542" y1="684.585868" x2="207.817853" y2="683.236854" stroke="black" stroke-width="7.137"/>
<line x1="207.817853" y1="683.236854" x2="198.665291" y2="892.864939" stroke="black" stroke-width="7.137"/>
<line x1="402.589219" y1="901.768454" x2="433.486782" y2="903.117471" stroke="black" stroke-width="7.137"/>
<line x1="433.486782" y1="903.117471" x2="442.639344" y2="693.48938" stroke="black" stroke-width="7.137"/>
<line x1="442.639344" y1="693.48938" x2="411.74178" y2="692.140363" stroke="black" stroke-width="7.137"/>
<line x1="411.74178" y1="692.140363" x2="402.589219" y2="901.768454" stroke="black" stroke-width="7.137"/>
<line x1="229.087512" y1="894.193204" x2="402.589219" y2="901.768454" stroke="black" stroke-width="7.137"/>
<line x1="237.723215" y1="685.495055" x2="265.484131" y2="660.513192" stroke="black" stroke-width="7.137"/>
<line x1="386.697654" y1="665.805487" x2="412.175618" y2="693.11181" stroke="black" stroke-width="7.137"/>
<line x1="263.582742" y1="660.430174" x2="388.59904" y2="665.888504" stroke="black" stroke-width="7.137"/>
<line x1="231.513743" y1="849.531327" x2="405.01545" y2="857.106574" stroke="black" stroke-width="7.137"/>
<line x1="281.052313" y1="1022.713033" x2="394.251299" y2="1106.475875" stroke="black" stroke-width="7.137"/>
<line x1="394.251299" y1="1106.475875" x2="310.316811" y2="1219.906827" stroke="black" stroke-width="7.137"/>
<line x1="310.316811" y1="1219.906827" x2="197.117828" y2="1136.143985" stroke="black" stroke-width="7.137"/>
<line x1="197.117828" y1="1136.143985" x2="281.052313" y2="1022.713033" stroke="black" stroke-width="7.137"/>
<line x1="280.991994" y1="1022.309425" x2="310.316811" y2="1219.906827" stroke="black" stroke-width="7.137"/>
<line x1="197.289471" y1="1135.912019" x2="394.019334" y2="1106.304232" stroke="black" stroke-width="7.137"/>
<line x1="2528.106502" y1="1236.385132" x2="2624.047579" y2="1135.284335" stroke="black" stroke-width="7.137"/>
<line x1="2624.047579" y1="1135.284335" x2="2725.355549" y2="1231.422008" stroke="black" stroke-width="7.137"/>
<line x1="2725.355549" y1="1231.422008" x2="2629.414476" y2="1332.522806" stroke="black" stroke-width="7.137"/>
<line x1="2629.414476" y1="1332.522806" x2="2528.106502" y2="1236.385132" stroke="black" stroke-width="7.137"/>
<line x1="2527.702729" y1="1236.395704" x2="2725.355549" y2="1231.422008" stroke="black" stroke-width="7.137"/>
<line x1="2629.2073" y1="1332.326205" x2="2623.850978" y2="1135.491507" stroke="black" stroke-width="7.137"/>
<line x1="2901.063125" y1="1654.406819" x2="3095.791193" y2="1654.406819" stroke="black" stroke-width="7.137"/>
<line x1="3095.791193" y1="1654.406819" x2="3095.791193" y2="1849.533918" stroke="black" stroke-width="7.137"/>
<line x1="3095.791193" y1="1849.533918" x2="2901.063125" y2="1849.533918" stroke="black" stroke-width="7.137"/>
<line x1="2901.063125" y1="1849.533918" x2="2901.063125" y2="1654.406819" stroke="black" stroke-width="7.137"/>
<line x1="2900.664094" y1="1654.007785" x2="3095.791193" y2="1849.533918" stroke="black" stroke-width="7.137"/>
<line x1="2901.063125" y1="1849.134884" x2="3095.392159" y2="1654.406819" stroke="black" stroke-width="7.137"/>
<line x1="187.012721" y1="746.028976" x2="187.012721" y2="359.167086" stroke="black" stroke-width="7.137"/>
<line x1="187.012721" y1="359.167086" x2="127.374781" y2="359.167086" stroke="black" stroke-width="7.137"/>
<line x1="127.374781" y1="359.167086" x2="127.374781" y2="746.028976" stroke="black" stroke-width="7.137"/>
<line x1="127.374781" y1="746.028976" x2="187.012721" y2="746.028976" stroke="black" stroke-width="7.137"/>
<line x1="128.15949" y1="709.93233" x2="186.228009" y2="709.93233" stroke="black" stroke-width="7.137"/>
<line x1="128.15949" y1="396.04844" x2="188.582137" y2="396.04844" stroke="black" stroke-width="7.137"/>
<line x1="155.624331" y1="710.717039" x2="155.624331" y2="396.833152" stroke="black" stroke-width="7.137"/>
<line x1="2240.449955" y1="1365.887577" x2="2240.449955" y2="1388.961945" stroke="black" stroke-width="7.137"/>
<line x1="2240.449955" y1="1388.961945" x2="2285.473114" y2="1388.961945" stroke="black" stroke-width="7.137"/>
<line x1="2285.473114" y1="1388.961945" x2="2285.473114" y2="1365.887577" stroke="black" stroke-width="7.137"/>
<line x1="2285.473114" y1="1365.887577" x2="2240.449955" y2="1365.887577" stroke="black" stroke-width="7.137"/>
<line x1="2285.473114" y1="1614.640518" x2="2510.026105" y2="1614.640518" stroke="black" stroke-width="7.137"/>
<line x1="2239.324377" y1="1615.203307" x2="2239.324377" y2="1638.277675" stroke="black" stroke-width="7.137"/>
<line x1="2239.324377" y1="1638.277675" x2="2284.347533" y2="1638.277675" stroke="black" stroke-width="7.137"/>
<line x1="2284.347533" y1="1638.277675" x2="2284.347533" y2="1615.203307" stroke="black" stroke-width="7.137"/>
<line x1="2284.347533" y1="1615.203307" x2="2239.324377" y2="1615.203307" stroke="black" stroke-width="7.137"/>
<path d="m 2283.784744,1388.961945 a 225.67857249999986,225.67857249999986 0 0 1 225.6785719999998,225.67857299999991" fill="none" stroke="black" stroke-width="7.137"/>
<line x1="3024.27492" y1="1111.276996" x2="3207.907227" y2="1211.812746" stroke="black" stroke-width="7.137"/>
<line x1="3207.907227" y1="1211.812746" x2="3319.410513" y2="1008.147824" stroke="black" stroke-width="7.137"/>
<line x1="3319.410513" y1="1008.147824" x2="3135.778206" y2="907.612077" stroke="black" stroke-width="7.137"/>
<line x1="3135.778206" y1="907.612077" x2="3024.27492" y2="1111.276996" stroke="black" stroke-width="7.137"/>
<line x1="3039.812264" y1="1082.897454" x2="3223.444571" y2="1183.433207" stroke="black" stroke-width="7.137"/>
<line x1="1501.494123" y1="1849.265662" x2="1691.996335" y2="1762.448803" stroke="black" stroke-width="7.137"/>
<line x1="1691.996335" y1="1762.448803" x2="1595.708547" y2="1551.164531" stroke="black" stroke-width="7.137"/>
<line x1="1595.708547" y1="1551.164531" x2="1405.206334" y2="1637.981391" stroke="black" stroke-width="7.137"/>
<line x1="1405.206334" y1="1637.981391" x2="1501.494123" y2="1849.265662" stroke="black" stroke-width="7.137"/>
<line x1="1488.076972" y1="1819.824411" x2="1678.579188" y2="1733.007552" stroke="black" stroke-width="7.137"/>
</g>
</svg>
