<?xml version="1.0"?>
<svg xmlns:xlink="http://www.w3.org/1999/xlink" width="3059.1" height="3341.25">
<image x="0" y="0" width="3059.1" height="3341.25" xlink:href="groundfilled-02.png"/>
<g style="stroke-linecap:round">
<line x1="980.860647" y1="1527.245503" x2="996.301459" y2="1527.245503" stroke="black" stroke-width="4.455"/>
<line x1="996.301459" y1="1527.245503" x2="996.301459" y2="1497.11709" stroke="black" stroke-width="4.455"/>
<line x1="996.301459" y1="1497.11709" x2="980.860647" y2="1497.11709" stroke="black" stroke-width="4.455"/>
<line x1="980.860647" y1="1497.11709" x2="980.860647" y2="1527.245503" stroke="black" stroke-width="4.455"/>
<line x1="1147.320128" y1="1497.11709" x2="1147.320128" y2="1346.851628" stroke="black" stroke-width="4.455"/>
<line x1="1147.696734" y1="1527.99871" x2="1163.137546" y2="1527.99871" stroke="black" stroke-width="4.455"/>
<line x1="1163.137546" y1="1527.99871" x2="1163.137546" y2="1497.870297" stroke="black" stroke-width="4.455"/>
<line x1="1163.137546" y1="1497.870297" x2="1147.696734" y2="1497.870297" stroke="black" stroke-width="4.455"/>
<line x1="1147.696734" y1="1497.870297" x2="1147.696734" y2="1527.99871" stroke="black" stroke-width="4.455"/>
<path d="m 996.301459,1498.246903 a 151.01866900000005,151.01866900000005 0 0 1 151.01866900000005,-151.01866900000005" fill="none" stroke="black" stroke-width="4.455"/>
<line x1="1419.733463" y1="1470.293926" x2="1419.733463" y2="1286.549926" stroke="black" stroke-width="4.455"/>
<line x1="1419.733463" y1="1286.549926" x2="1468.837463" y2="1286.549926" stroke="black" stroke-width="4.455"/>
<line x1="1468.837463" y1="1470.293926" x2="1468.837463" y2="1286.549926" stroke="black" stroke-width="4.455"/>
<line x1="1419.733463" y1="1470.293926" x2="1468.837463" y2="1470.293926" stroke="black" stroke-width="4.455"/>
<line x1="1392.013463" y1="1428.713926" x2="1419.733463" y2="1428.713926" stroke="black" stroke-width="4.455"/>
<line x1="1419.733463" y1="1329.713926" x2="1390.429463" y2="1329.713926" stroke="black" stroke-width="4.455"/>
<circle cx="1346.869463" cy="1380.005926" r="66.528" fill="none" stroke="black" stroke-width="4.455"/>
<circle cx="1346.869463" cy="1380.005926" r="57.02400000000001" fill="none" stroke="black" stroke-width="4.455"/>
<line x1="323.817075" y1="1574.17916" x2="642.249422" y2="1574.17916" stroke="black" stroke-width="4.455"/>
<line x1="642.249422" y1="1574.17916" x2="642.249422" y2="1517.223777" stroke="black" stroke-width="4.455"/>
<line x1="642.249422" y1="1517.223777" x2="323.817075" y2="1517.223777" stroke="black" stroke-width="4.455"/>
<line x1="323.817075" y1="1517.223777" x2="323.817075" y2="1574.17916" stroke="black" stroke-width="4.455"/>
<line x1="338.703141" y1="1574.17916" x2="338.703141" y2="1593.595763" stroke="black" stroke-width="4.455"/>
<line x1="338.703141" y1="1593.595763" x2="626.716139" y2="1593.595763" stroke="black" stroke-width="4.455"/>
<line x1="626.716139" y1="1574.17916" x2="626.716139" y2="1593.595763" stroke="black" stroke-width="4.455"/>
<line x1="979.473117" y1="2198.984946" x2="979.473117" y2="2182.256292" stroke="black" stroke-width="4.455"/>
<line x1="979.473117" y1="2182.256292" x2="946.831837" y2="2182.256292" stroke="black" stroke-width="4.455"/>
<line x1="946.831837" y1="2182.256292" x2="946.831837" y2="2198.984946" stroke="black" stroke-width="4.455"/>
<line x1="946.831837" y1="2198.984946" x2="979.473117" y2="2198.984946" stroke="black" stroke-width="4.455"/>
<line x1="946.831837" y1="2018.641873" x2="784.03345" y2="2018.641873" stroke="black" stroke-width="4.455"/>
<line x1="980.289149" y1="2018.233854" x2="980.289149" y2="2001.505201" stroke="black" stroke-width="4.455"/>
<line x1="980.289149" y1="2001.505201" x2="947.647869" y2="2001.505201" stroke="black" stroke-width="4.455"/>
<line x1="947.647869" y1="2001.505201" x2="947.647869" y2="2018.233854" stroke="black" stroke-width="4.455"/>
<line x1="947.647869" y1="2018.233854" x2="980.289149" y2="2018.233854" stroke="black" stroke-width="4.455"/>
<path d="m 948.055883,2182.256292 a 163.614419,163.614419 0 0 1 -163.614419,-163.614419" fill="none" stroke="black" stroke-width="4.455"/>
<line x1="1378.153191" y1="2409.675112" x2="1378.153191" y2="2394.245769" stroke="black" stroke-width="4.455"/>
<line x1="1378.153191" y1="2394.245769" x2="1348.047157" y2="2394.245769" stroke="black" stroke-width="4.455"/>
<line x1="1348.047157" y1="2394.245769" x2="1348.047157" y2="2409.675112" stroke="black" stroke-width="4.455"/>
<line x1="1348.047157" y1="2409.675112" x2="1378.153191" y2="2409.675112" stroke="black" stroke-width="4.455"/>
<line x1="1348.047157" y1="2243.339267" x2="1197.893303" y2="2243.339267" stroke="black" stroke-width="4.455"/>
<line x1="1378.905843" y1="2242.962944" x2="1378.905843" y2="2227.533601" stroke="black" stroke-width="4.455"/>
<line x1="1378.905843" y1="2227.533601" x2="1348.799805" y2="2227.533601" stroke="black" stroke-width="4.455"/>
<line x1="1348.799805" y1="2227.533601" x2="1348.799805" y2="2242.962944" stroke="black" stroke-width="4.455"/>
<line x1="1348.799805" y1="2242.962944" x2="1378.905843" y2="2242.962944" stroke="black" stroke-width="4.455"/>
<path d="m 1349.176133,2394.245769 a 150.90650200000016,150.90650200000016 0 0 1 -150.90650200000005,-150.90650200000027" fill="none" stroke="black" stroke-width="4.455"/>
<line x1="368.724911" y1="1744.724144" x2="368.724911" y2="2015.271344" stroke="black" stroke-width="4.455"/>
<line x1="368.724911" y1="2015.271344" x2="236.777711" y2="2015.271344" stroke="black" stroke-width="4.455"/>
<line x1="236.777711" y1="1744.724144" x2="236.777711" y2="2015.271344" stroke="black" stroke-width="4.455"/>
<line x1="368.724911" y1="1744.724144" x2="236.777711" y2="1744.724144" stroke="black" stroke-width="4.455"/>
<line x1="362.072111" y1="1751.376944" x2="362.072111" y2="1889.422544" stroke="black" stroke-width="4.455"/>
<line x1="362.072111" y1="1889.422544" x2="243.984911" y2="1889.422544" stroke="black" stroke-width="4.455"/>
<line x1="243.984911" y1="1751.376944" x2="243.984911" y2="1889.422544" stroke="black" stroke-width="4.455"/>
<line x1="362.072111" y1="1751.376944" x2="243.984911" y2="1751.376944" stroke="black" stroke-width="4.455"/>
<line x1="354.310511" y1="1903.836944" x2="354.310511" y2="2000.856944" stroke="black" stroke-width="4.455"/>
<line x1="333.797711" y1="1903.836944" x2="333.797711" y2="2000.856944" stroke="black" stroke-width="4.455"/>
<line x1="312.730511" y1="1904.391344" x2="312.730511" y2="2001.411344" stroke="black" stroke-width="4.455"/>
<line x1="292.217711" y1="1904.391344" x2="292.217711" y2="2001.411344" stroke="black" stroke-width="4.455"/>
<line x1="271.704911" y1="1903.836944" x2="271.704911" y2="2000.856944" stroke="black" stroke-width="4.455"/>
<line x1="251.192111" y1="1903.836944" x2="251.192111" y2="2000.856944" stroke="black" stroke-width="4.455"/>
<line x1="243.984911" y1="1804.044944" x2="257.844911" y2="1804.044944" stroke="black" stroke-width="4.455"/>
<line x1="257.844911" y1="1804.044944" x2="257.844911" y2="1838.417744" stroke="black" stroke-width="4.455"/>
<line x1="257.844911" y1="1838.417744" x2="244.539311" y2="1838.417744" stroke="black" stroke-width="4.455"/>
<circle cx="347.103311" cy="1873.899344" r="8.316" fill="none" stroke="black" stroke-width="4.455"/>
<line x1="474.001536" y1="2196.427108" x2="623.572429" y2="2196.427108" stroke="black" stroke-width="4.455"/>
<line x1="623.572429" y1="2196.427108" x2="623.572429" y2="2030.539396" stroke="black" stroke-width="4.455"/>
<line x1="623.572429" y1="2030.539396" x2="474.001536" y2="2030.539396" stroke="black" stroke-width="4.455"/>
<line x1="474.001536" y1="2030.539396" x2="474.001536" y2="2196.427108" stroke="black" stroke-width="4.455"/>
<line x1="474.001536" y1="2173.311608" x2="623.572429" y2="2173.311608" stroke="black" stroke-width="4.455"/>
<line x1="1902.926248" y1="592.852565" x2="1918.36706" y2="592.852565" stroke="black" stroke-width="4.455"/>
<line x1="1918.36706" y1="592.852565" x2="1918.36706" y2="562.724153" stroke="black" stroke-width="4.455"/>
<line x1="1918.36706" y1="562.724153" x2="1902.926248" y2="562.724153" stroke="black" stroke-width="4.455"/>
<line x1="1902.926248" y1="562.724153" x2="1902.926248" y2="592.852565" stroke="black" stroke-width="4.455"/>
<line x1="2069.385729" y1="562.724153" x2="2069.385729" y2="412.458691" stroke="black" stroke-width="4.455"/>
<line x1="2069.762335" y1="593.605772" x2="2085.203147" y2="593.605772" stroke="black" stroke-width="4.455"/>
<line x1="2085.203147" y1="593.605772" x2="2085.203147" y2="563.47736" stroke="black" stroke-width="4.455"/>
<line x1="2085.203147" y1="563.47736" x2="2069.762335" y2="563.47736" stroke="black" stroke-width="4.455"/>
<line x1="2069.762335" y1="563.47736" x2="2069.762335" y2="593.605772" stroke="black" stroke-width="4.455"/>
<path d="m 1918.36706,563.853965 a 151.01866900000002,151.01866900000002 0 0 1 151.01866900000005,-151.018669" fill="none" stroke="black" stroke-width="4.455"/>
<line x1="1899.774603" y1="1104.844802" x2="1899.774603" y2="782.575918" stroke="black" stroke-width="4.455"/>
<line x1="1899.774603" y1="782.575918" x2="1842.133016" y2="782.575918" stroke="black" stroke-width="4.455"/>
<line x1="1842.133016" y1="782.575918" x2="1842.133016" y2="1104.844802" stroke="black" stroke-width="4.455"/>
<line x1="1842.133016" y1="1104.844802" x2="1899.774603" y2="1104.844802" stroke="black" stroke-width="4.455"/>
<line x1="1899.774603" y1="1089.779387" x2="1919.425142" y2="1089.779387" stroke="black" stroke-width="4.455"/>
<line x1="1919.425142" y1="1089.779387" x2="1919.425142" y2="798.29635" stroke="black" stroke-width="4.455"/>
<line x1="1899.774603" y1="798.29635" x2="1919.425142" y2="798.29635" stroke="black" stroke-width="4.455"/>
<line x1="2082.914663" y1="1560.903651" x2="2067.48532" y2="1560.903651" stroke="black" stroke-width="4.455"/>
<line x1="2067.48532" y1="1560.903651" x2="2067.48532" y2="1591.009685" stroke="black" stroke-width="4.455"/>
<line x1="2067.48532" y1="1591.009685" x2="2082.914663" y2="1591.009685" stroke="black" stroke-width="4.455"/>
<line x1="2082.914663" y1="1591.009685" x2="2082.914663" y2="1560.903651" stroke="black" stroke-width="4.455"/>
<line x1="1916.578818" y1="1591.009685" x2="1916.578818" y2="1741.16354" stroke="black" stroke-width="4.455"/>
<line x1="1916.202494" y1="1560.150999" x2="1900.773151" y2="1560.150999" stroke="black" stroke-width="4.455"/>
<line x1="1900.773151" y1="1560.150999" x2="1900.773151" y2="1590.257038" stroke="black" stroke-width="4.455"/>
<line x1="1900.773151" y1="1590.257038" x2="1916.202494" y2="1590.257038" stroke="black" stroke-width="4.455"/>
<line x1="1916.202494" y1="1590.257038" x2="1916.202494" y2="1560.150999" stroke="black" stroke-width="4.455"/>
<path d="m 2067.48532,1589.880709 a 150.90650199999993,150.90650199999993 0 0 1 -150.90650199999982,150.90650200000005" fill="none" stroke="black" stroke-width="4.455"/>
<line x1="2260.988507" y1="3156.924613" x2="1942.536019" y2="3156.924613" stroke="black" stroke-width="4.455"/>
<line x1="1942.536019" y1="3156.924613" x2="1942.536019" y2="3206.016678" stroke="black" stroke-width="4.455"/>
<line x1="1942.536019" y1="3206.016678" x2="2260.988507" y2="3206.016678" stroke="black" stroke-width="4.455"/>
<line x1="2260.988507" y1="3206.016678" x2="2260.988507" y2="3156.924613" stroke="black" stroke-width="4.455"/>
<line x1="2231.274885" y1="3205.370728" x2="2231.274885" y2="3157.570558" stroke="black" stroke-width="4.455"/>
<line x1="1972.895587" y1="3205.370728" x2="1972.895587" y2="3155.632717" stroke="black" stroke-width="4.455"/>
<line x1="2231.920835" y1="3182.762543" x2="1973.541537" y2="3182.762543" stroke="black" stroke-width="4.455"/>
<line x1="775.155897" y1="3158.28511" x2="472.050518" y2="3158.28511" stroke="black" stroke-width="4.455"/>
<line x1="472.050518" y1="3158.28511" x2="472.050518" y2="3205.011294" stroke="black" stroke-width="4.455"/>
<line x1="472.050518" y1="3205.011294" x2="775.155897" y2="3205.011294" stroke="black" stroke-width="4.455"/>
<line x1="775.155897" y1="3205.011294" x2="775.155897" y2="3158.28511" stroke="black" stroke-width="4.455"/>
<line x1="746.874261" y1="3204.396474" x2="746.874261" y2="3158.89993" stroke="black" stroke-width="4.455"/>
<line x1="500.946975" y1="3204.396474" x2="500.946975" y2="3157.055476" stroke="black" stroke-width="4.455"/>
<line x1="747.489075" y1="3182.877839" x2="501.561794" y2="3182.877839" stroke="black" stroke-width="4.455"/>
<line x1="1635.576055" y1="2910.002589" x2="1635.576055" y2="2929.936759" stroke="black" stroke-width="4.455005"/>
<line x1="1635.576055" y1="2929.936759" x2="1674.471996" y2="2929.936759" stroke="black" stroke-width="4.455005"/>
<line x1="1674.471996" y1="2929.936759" x2="1674.471996" y2="2910.002589" stroke="black" stroke-width="4.455005"/>
<line x1="1674.471996" y1="2910.002589" x2="1635.576055" y2="2910.002589" stroke="black" stroke-width="4.455005"/>
<line x1="1674.471996" y1="3124.902667" x2="1868.465501" y2="3124.902667" stroke="black" stroke-width="4.455005"/>
<line x1="1634.603657" y1="3125.388866" x2="1634.603657" y2="3145.323035" stroke="black" stroke-width="4.455005"/>
<line x1="1634.603657" y1="3145.323035" x2="1673.499599" y2="3145.323035" stroke="black" stroke-width="4.455005"/>
<line x1="1673.499599" y1="3145.323035" x2="1673.499599" y2="3125.388866" stroke="black" stroke-width="4.455005"/>
<line x1="1673.499599" y1="3125.388866" x2="1634.603657" y2="3125.388866" stroke="black" stroke-width="4.455005"/>
<path d="m 1673.0134,2929.936759 a 194.9659049999998,194.9659049999998 0 0 1 194.96590199999991,194.96590799999967" fill="none" stroke="black" stroke-width="4.455005"/>
<line x1="2422.277847" y1="2739.865981" x2="2290.494046" y2="2730.650759" stroke="black" stroke-width="4.455"/>
<line x1="2290.494046" y1="2730.650759" x2="2291.488497" y2="2716.429488" stroke="black" stroke-width="4.455"/>
<line x1="2423.272292" y1="2725.644705" x2="2291.488497" y2="2716.429488" stroke="black" stroke-width="4.455"/>
<line x1="2422.277847" y1="2739.865981" x2="2423.272292" y2="2725.644705" stroke="black" stroke-width="4.455"/>
<line x1="2409.999105" y1="2724.716556" x2="2414.083063" y2="2693.56235" stroke="black" stroke-width="4.455"/>
<line x1="2304.761684" y1="2717.357638" x2="2305.119599" y2="2684.990157" stroke="black" stroke-width="4.455"/>
<line x1="2454.431676" y1="2280.044814" x2="2322.647875" y2="2270.829597" stroke="black" stroke-width="4.455"/>
<line x1="2322.647875" y1="2270.829597" x2="2321.719726" y2="2284.102785" stroke="black" stroke-width="4.455"/>
<line x1="2453.503521" y1="2293.318007" x2="2321.719726" y2="2284.102785" stroke="black" stroke-width="4.455"/>
<line x1="2454.431676" y1="2280.044814" x2="2453.503521" y2="2293.318007" stroke="black" stroke-width="4.455"/>
<line x1="2441.045826" y1="2294.352319" x2="2440.754207" y2="2325.771711" stroke="black" stroke-width="4.455"/>
<line x1="2335.808406" y1="2286.993406" x2="2330.710069" y2="2319.029401" stroke="black" stroke-width="4.455"/>
<line x1="2138.892753" y1="2555.22907" x2="2153.114028" y2="2556.22352" stroke="black" stroke-width="4.455"/>
<line x1="2153.114028" y1="2556.22352" x2="2162.32925" y2="2424.43972" stroke="black" stroke-width="4.455"/>
<line x1="2148.107975" y1="2423.445275" x2="2162.32925" y2="2424.43972" stroke="black" stroke-width="4.455"/>
<line x1="2138.892753" y1="2555.22907" x2="2148.107975" y2="2423.445275" stroke="black" stroke-width="4.455"/>
<line x1="2161.3348" y1="2438.660991" x2="2193.768576" y2="2438.070822" stroke="black" stroke-width="4.455"/>
<line x1="2154.042183" y1="2542.950328" x2="2186.144473" y2="2547.100581" stroke="black" stroke-width="4.455"/>
<line x1="2597.699536" y1="2588.264687" x2="2583.478265" y2="2587.270237" stroke="black" stroke-width="4.455"/>
<line x1="2583.478265" y1="2587.270237" x2="2592.693482" y2="2455.486442" stroke="black" stroke-width="4.455"/>
<line x1="2606.914758" y1="2456.480892" x2="2592.693482" y2="2455.486442" stroke="black" stroke-width="4.455"/>
<line x1="2597.699536" y1="2588.264687" x2="2606.914758" y2="2456.480892" stroke="black" stroke-width="4.455"/>
<line x1="2591.699037" y1="2469.707712" x2="2559.663043" y2="2464.609376" stroke="black" stroke-width="4.455"/>
<line x1="2584.406415" y1="2573.99705" x2="2552.038934" y2="2573.639135" stroke="black" stroke-width="4.455"/>
<circle cx="2372.903755" cy="2505.854984" r="191.9808" fill="none" stroke="black" stroke-width="4.455"/>
<line x1="921.254177" y1="2708.816958" x2="1038.279112" y2="2559.031868" stroke="black" stroke-width="4.455"/>
<line x1="1038.279112" y1="2559.031868" x2="672.803505" y2="2273.491034" stroke="black" stroke-width="4.455"/>
<line x1="672.803505" y1="2273.491034" x2="555.778575" y2="2423.276118" stroke="black" stroke-width="4.455"/>
<line x1="555.778575" y1="2423.276118" x2="574.501707" y2="2437.904235" stroke="black" stroke-width="4.455"/>
<line x1="574.501707" y1="2437.904235" x2="677.483651" y2="2306.093358" stroke="black" stroke-width="4.455"/>
<line x1="677.483651" y1="2306.093358" x2="1004.764063" y2="2561.79284" stroke="black" stroke-width="4.455"/>
<line x1="1004.764063" y1="2561.79284" x2="901.78212" y2="2693.603712" stroke="black" stroke-width="4.455"/>
<line x1="901.78212" y1="2693.603712" x2="921.254177" y2="2708.816958" stroke="black" stroke-width="4.455"/>
<line x1="905.292863" y1="2689.110161" x2="578.01246" y2="2433.410684" stroke="black" stroke-width="4.455"/>
<line x1="741.442002" y1="2562.301912" x2="840.913192" y2="2434.984586" stroke="black" stroke-width="4.455"/>
<line x1="1184.960235" y1="3051.240152" x2="1188.609325" y2="2842.183991" stroke="black" stroke-width="4.455"/>
<line x1="1188.609325" y1="2842.183991" x2="956.747043" y2="2838.136821" stroke="black" stroke-width="4.455"/>
<line x1="956.747043" y1="2838.136821" x2="953.097953" y2="3047.192978" stroke="black" stroke-width="4.455"/>
<line x1="953.097953" y1="3047.192978" x2="1184.960235" y2="3051.240152" stroke="black" stroke-width="4.455"/>
<line x1="1152.651555" y1="3050.676199" x2="1156.300646" y2="2841.620047" stroke="black" stroke-width="4.455"/>
<line x1="2606.053819" y1="959.490655" x2="2837.951419" y2="959.490655" stroke="black" stroke-width="4.455"/>
<line x1="2837.951419" y1="959.490655" x2="2837.951419" y2="1191.863455" stroke="black" stroke-width="4.455"/>
<line x1="2837.951419" y1="1191.863455" x2="2606.053819" y2="1191.863455" stroke="black" stroke-width="4.455"/>
<line x1="2606.053819" y1="1191.863455" x2="2606.053819" y2="959.490655" stroke="black" stroke-width="4.455"/>
<line x1="2605.578619" y1="959.015455" x2="2837.951419" y2="1191.863455" stroke="black" stroke-width="4.455"/>
<line x1="2606.053819" y1="1191.388255" x2="2837.476219" y2="959.490655" stroke="black" stroke-width="4.455"/>
<line x1="2117.975721" y1="1476.663205" x2="2510.807721" y2="1476.663205" stroke="black" stroke-width="4.455"/>
<line x1="2510.807721" y1="1476.663205" x2="2510.807721" y2="1292.127205" stroke="black" stroke-width="4.455"/>
<line x1="2510.807721" y1="1292.127205" x2="2117.975721" y2="1292.127205" stroke="black" stroke-width="4.455"/>
<line x1="2117.975721" y1="1292.127205" x2="2117.975721" y2="1476.663205" stroke="black" stroke-width="4.455"/>
<line x1="2277.167721" y1="1292.127205" x2="2277.167721" y2="1211.343205" stroke="black" stroke-width="4.455"/>
<line x1="2277.167721" y1="1211.343205" x2="2198.759721" y2="1211.343205" stroke="black" stroke-width="4.455"/>
<line x1="2198.759721" y1="1211.343205" x2="2198.759721" y2="1292.127205" stroke="black" stroke-width="4.455"/>
<line x1="2199.551721" y1="1228.767205" x2="2277.167721" y2="1228.767205" stroke="black" stroke-width="4.455"/>
<line x1="2198.759721" y1="1558.239205" x2="2277.167721" y2="1558.239205" stroke="black" stroke-width="4.455"/>
<line x1="2277.167721" y1="1558.239205" x2="2277.167721" y2="1476.663205" stroke="black" stroke-width="4.455"/>
<line x1="2198.759721" y1="1476.663205" x2="2198.759721" y2="1558.239205" stroke="black" stroke-width="4.455"/>
<line x1="2199.551721" y1="1540.815205" x2="2277.167721" y2="1540.815205" stroke="black" stroke-width="4.455"/>
<line x1="2428.439721" y1="1292.127205" x2="2428.439721" y2="1211.343205" stroke="black" stroke-width="4.455"/>
<line x1="2428.439721" y1="1211.343205" x2="2350.031721" y2="1211.343205" stroke="black" stroke-width="4.455"/>
<line x1="2350.031721" y1="1211.343205" x2="2350.031721" y2="1292.127205" stroke="black" stroke-width="4.455"/>
<line x1="2350.031721" y1="1228.767205" x2="2428.439721" y2="1228.767205" stroke="black" stroke-width="4.455"/>
<line x1="2350.031721" y1="1558.239205" x2="2428.439721" y2="1558.239205" stroke="black" stroke-width="4.455"/>
<line x1="2428.439721" y1="1558.239205" x2="2428.439721" y2="1476.663205" stroke="black" stroke-width="4.455"/>
<line x1="2350.031721" y1="1476.663205" x2="2350.031721" y2="1558.239205" stroke="black" stroke-width="4.455"/>
<line x1="2350.031721" y1="1540.815205" x2="2428.439721" y2="1540.815205" stroke="black" stroke-width="4.455"/>
<line x1="2604.028126" y1="2916.847261" x2="2835.925726" y2="2916.847261" stroke="black" stroke-width="4.455"/>
<line x1="2835.925726" y1="2916.847261" x2="2835.925726" y2="3149.220061" stroke="black" stroke-width="4.455"/>
<line x1="2835.925726" y1="3149.220061" x2="2604.028126" y2="3149.220061" stroke="black" stroke-width="4.455"/>
<line x1="2604.028126" y1="3149.220061" x2="2604.028126" y2="2916.847261" stroke="black" stroke-width="4.455"/>
<line x1="2603.552926" y1="2916.372061" x2="2835.925726" y2="3149.220061" stroke="black" stroke-width="4.455"/>
<line x1="2604.028126" y1="3148.744861" x2="2835.450526" y2="2916.847261" stroke="black" stroke-width="4.455"/>
<line x1="776.410792" y1="1575.007587" x2="776.410792" y2="1966.255587" stroke="black" stroke-width="4.455"/>
<line x1="776.410792" y1="1966.255587" x2="950.650792" y2="1966.255587" stroke="black" stroke-width="4.455"/>
<line x1="950.650792" y1="1966.255587" x2="950.650792" y2="1575.007587" stroke="black" stroke-width="4.455"/>
<line x1="950.650792" y1="1575.007587" x2="776.410792" y2="1575.007587" stroke="black" stroke-width="4.455"/>
<line x1="923.722792" y1="1891.015587" x2="923.722792" y2="1606.687587" stroke="black" stroke-width="4.455"/>
<line x1="923.722792" y1="1606.687587" x2="805.714792" y2="1606.687587" stroke="black" stroke-width="4.455"/>
<line x1="805.714792" y1="1606.687587" x2="805.714792" y2="1896.559587" stroke="black" stroke-width="4.455"/>
<path d="m 923.978217,1890.205015 a 63.360001107387035,63.360001107387035 0 0 1 -119.37433399999998,4.293813" fill="none" stroke="black" stroke-width="4.455"/>
<line x1="2450.713483" y1="220.67794" x2="2631.226856" y2="220.67794" stroke="black" stroke-width="4.455"/>
<line x1="2631.226856" y1="220.67794" x2="2631.226856" y2="401.561216" stroke="black" stroke-width="4.455"/>
<line x1="2631.226856" y1="401.561216" x2="2450.713483" y2="401.561216" stroke="black" stroke-width="4.455"/>
<line x1="2450.713483" y1="401.561216" x2="2450.713483" y2="220.67794" stroke="black" stroke-width="4.455"/>
<line x1="2450.34358" y1="220.308036" x2="2631.226856" y2="401.561216" stroke="black" stroke-width="4.455"/>
<line x1="2450.713483" y1="401.191308" x2="2630.856947" y2="220.67794" stroke="black" stroke-width="4.455"/>
<line x1="2835.107109" y1="718.08361" x2="2480.4262" y2="718.08361" stroke="black" stroke-width="4.455"/>
<line x1="2476.858676" y1="718.982194" x2="2476.858676" y2="596.256829" stroke="black" stroke-width="4.455"/>
<line x1="2834.68826" y1="595.218245" x2="2476.583282" y2="595.218245" stroke="black" stroke-width="4.455"/>
<line x1="2834.02544" y1="717.45699" x2="2834.02544" y2="595.457433" stroke="black" stroke-width="4.455"/>
<line x1="2824.739102" y1="708.082942" x2="2713.303073" y2="708.082942" stroke="black" stroke-width="4.455"/>
<line x1="2713.303073" y1="708.082942" x2="2713.303073" y2="605.218913" stroke="black" stroke-width="4.455"/>
<line x1="2824.739102" y1="605.218913" x2="2713.303073" y2="605.218913" stroke="black" stroke-width="4.455"/>
<line x1="2824.739102" y1="708.082942" x2="2824.739102" y2="605.218913" stroke="black" stroke-width="4.455"/>
<line x1="2696.15907" y1="701.653941" x2="2617.582379" y2="701.653941" stroke="black" stroke-width="4.455"/>
<line x1="2696.15907" y1="683.795604" x2="2617.582379" y2="683.795604" stroke="black" stroke-width="4.455"/>
<line x1="2695.444736" y1="665.222931" x2="2617.582379" y2="665.222931" stroke="black" stroke-width="4.455"/>
<line x1="2695.444736" y1="647.364594" x2="2617.582379" y2="647.364594" stroke="black" stroke-width="4.455"/>
<line x1="2696.15907" y1="629.506256" x2="2617.582379" y2="629.506256" stroke="black" stroke-width="4.455"/>
<line x1="2696.15907" y1="611.647913" x2="2617.582379" y2="611.647913" stroke="black" stroke-width="4.455"/>
<line x1="2781.879091" y1="605.933247" x2="2781.879091" y2="618.076919" stroke="black" stroke-width="4.455"/>
<line x1="2781.879091" y1="618.076919" x2="2754.73442" y2="618.076919" stroke="black" stroke-width="4.455"/>
<line x1="2754.73442" y1="618.076919" x2="2754.73442" y2="606.647582" stroke="black" stroke-width="4.455"/>
<line x1="2599.009712" y1="708.082942" x2="2487.573678" y2="708.082942" stroke="black" stroke-width="4.455"/>
<line x1="2487.573678" y1="708.082942" x2="2487.573678" y2="605.218913" stroke="black" stroke-width="4.455"/>
<line x1="2599.009712" y1="605.218913" x2="2487.573678" y2="605.218913" stroke="black" stroke-width="4.455"/>
<line x1="2599.009712" y1="708.082942" x2="2599.009712" y2="605.218913" stroke="black" stroke-width="4.455"/>
<line x1="2556.149696" y1="605.218913" x2="2556.149696" y2="617.362584" stroke="black" stroke-width="4.455"/>
<line x1="2556.149696" y1="617.362584" x2="2529.005025" y2="617.362584" stroke="black" stroke-width="4.455"/>
<line x1="2529.005025" y1="617.362584" x2="2529.005025" y2="605.933247" stroke="black" stroke-width="4.455"/>
<circle cx="2726.161079" cy="695.224936" r="6.4290017181665915" fill="none" stroke="black" stroke-width="4.455"/>
<circle cx="2500.431684" cy="694.510606" r="6.4290017181665915" fill="none" stroke="black" stroke-width="4.455"/>
<line x1="234.655295" y1="2913.791201" x2="466.552895" y2="2913.791201" stroke="black" stroke-width="4.455"/>
<line x1="466.552895" y1="2913.791201" x2="466.552895" y2="3146.164001" stroke="black" stroke-width="4.455"/>
<line x1="466.552895" y1="3146.164001" x2="234.655295" y2="3146.164001" stroke="black" stroke-width="4.455"/>
<line x1="234.655295" y1="3146.164001" x2="234.655295" y2="2913.791201" stroke="black" stroke-width="4.455"/>
<line x1="234.180094" y1="2913.316001" x2="466.552895" y2="3146.164001" stroke="black" stroke-width="4.455"/>
<line x1="234.655295" y1="3145.688801" x2="466.077694" y2="2913.791201" stroke="black" stroke-width="4.455"/>
<line x1="2266.984912" y1="220.477935" x2="2447.498285" y2="220.477935" stroke="black" stroke-width="4.455"/>
<line x1="2447.498285" y1="220.477935" x2="2447.498285" y2="401.361211" stroke="black" stroke-width="4.455"/>
<line x1="2447.498285" y1="401.361211" x2="2266.984912" y2="401.361211" stroke="black" stroke-width="4.455"/>
<line x1="2266.984912" y1="401.361211" x2="2266.984912" y2="220.477935" stroke="black" stroke-width="4.455"/>
<line x1="2266.615009" y1="220.108032" x2="2447.498285" y2="401.361211" stroke="black" stroke-width="4.455"/>
<line x1="2266.984912" y1="400.991303" x2="2447.128377" y2="220.477935" stroke="black" stroke-width="4.455"/>
<line x1="2476.291856" y1="717.011252" x2="2226.819751" y2="717.011252" stroke="black" stroke-width="4.454995"/>
<line x1="2226.819751" y1="717.011252" x2="2226.819751" y2="595.34248" stroke="black" stroke-width="4.454995"/>
<line x1="2476.291856" y1="595.34248" x2="2226.819751" y2="595.34248" stroke="black" stroke-width="4.454995"/>
<line x1="2476.291856" y1="717.011252" x2="2476.291856" y2="595.34248" stroke="black" stroke-width="4.454995"/>
<line x1="2470.157296" y1="710.876692" x2="2342.865175" y2="710.876692" stroke="black" stroke-width="4.454995"/>
<line x1="2342.865175" y1="710.876692" x2="2342.865175" y2="601.988256" stroke="black" stroke-width="4.454995"/>
<line x1="2470.157296" y1="601.988256" x2="2342.865175" y2="601.988256" stroke="black" stroke-width="4.454995"/>
<line x1="2470.157296" y1="710.876692" x2="2470.157296" y2="601.988256" stroke="black" stroke-width="4.454995"/>
<line x1="2329.573628" y1="703.71971" x2="2240.111298" y2="703.71971" stroke="black" stroke-width="4.454995"/>
<line x1="2329.573628" y1="684.804815" x2="2240.111298" y2="684.804815" stroke="black" stroke-width="4.454995"/>
<line x1="2329.062417" y1="665.378708" x2="2239.600082" y2="665.378708" stroke="black" stroke-width="4.454995"/>
<line x1="2329.062417" y1="646.463812" x2="2239.600082" y2="646.463812" stroke="black" stroke-width="4.454995"/>
<line x1="2329.573628" y1="627.548922" x2="2240.111298" y2="627.548922" stroke="black" stroke-width="4.454995"/>
<line x1="2329.573628" y1="608.634027" x2="2240.111298" y2="608.634027" stroke="black" stroke-width="4.454995"/>
<line x1="2421.592029" y1="601.988256" x2="2421.592029" y2="614.768586" stroke="black" stroke-width="4.454995"/>
<line x1="2421.592029" y1="614.768586" x2="2389.896803" y2="614.768586" stroke="black" stroke-width="4.454995"/>
<line x1="2389.896803" y1="614.768586" x2="2389.896803" y2="602.499467" stroke="black" stroke-width="4.454995"/>
<circle cx="2357.17915" cy="697.073934" r="7.668199943036171" fill="none" stroke="black" stroke-width="4.454995"/>
</g>
</svg>
