<?xml version="1.0"?>
<svg xmlns:xlink="http://www.w3.org/1999/xlink" width="3059.1" height="3341.25">
<image x="0" y="0" width="3059.1" height="3341.25" xlink:href="groundfilled-02.png"/>
<g style="stroke-linecap:round">
<line x1="980.860647" y1="1527.245503" x2="996.301459" y2="1527.245503" stroke="black" stroke-width="4.455"/>
<line x1="996.301459" y1="1527.245503" x2="996.301459" y2="1497.11709" stroke="black" stroke-width="4.455"/>
<line x1="996.301459" y1="1497.11709" x2="980.860647" y2="1497.11709" stroke="black" stroke-width="4.455"/>
<line x1="980.860647" y1="1497.11709" x2="980.860647" y2="1527.245503" stroke="black" stroke-width="4.455"/>
<line x1="1147.320128" y1="1497.11709" x2="1147.320128" y2="1346.851628" stroke="black" stroke-width="4.455"/>
<line x1="1147.696734" y1="1527.99871" x2="1163.137546" y2="1527.99871" stroke="black" stroke-width="4.455"/>
<line x1="1163.137546" y1="1527.99871" x2="1163.137546" y2="1497.870297" stroke="black" stroke-width="4.455"/>
<line x1="1163.137546" y1="1497.870297" x2="1147.696734" y2="1497.870297" stroke="black" stroke-width="4.455"/>
<line x1="1147.696734" y1="1497.870297" x2="1147.696734" y2="1527.99871" stroke="black" stroke-width="4.455"/>
<path d="m 996.301459,1498.246903 a 151.01866900000005,151.01866900000005 0 0 1 151.01866900000005,-151.01866900000005" fill="none" stroke="black" stroke-width="4.455"/>
<line x1="1419.733463" y1="1470.293926" x2="1419.733463" y2="1286.549926" stroke="black" stroke-width="4.455"/>
<line x1="1419.733463" y1="1286.549926" x2="1468.837463" y2="1286.549926" stroke="black" stroke-width="4.455"/>
<line x1="1468.837463" y1="1470.293926" x2="1468.837463" y2="1286.549926" stroke="black" stroke-width="4.455"/>
<line x1="1419.733463" y1="1470.293926" x2="1468.837463" y2="1470.293926" stroke="black" stroke-width="4.455"/>
<line x1="1392.013463" y1="1428.713926" x2="1419.733463" y2="1428.713926" stroke="black" stroke-width="4.455"/>
<line x1="1419.733463" y1="1329.713926" x2="1390.429463" y2="1329.713926" stroke="black" stroke-width="4.455"/>
<circle cx="1346.869463" cy="1380.005926" r="66.528" fill="none" stroke="black" stroke-width="4.455"/>
<circle cx="1346.869463" cy="1380.005926" r="57.02400000000001" fill="none" stroke="black" stroke-width="4.455"/>
<line x1="323.817075" y1="1574.17916" x2="642.249422" y2="1574.17916" stroke="black" stroke-width="4.455"/>
<line x1="642.249422" y1="1574.17916" x2="642.249422" y2="1517.223777" stroke="black" stroke-width="4.455"/>
<line x1="642.249422" y1="1517.223777" x2="323.817075" y2="1517.223777" stroke="black" stroke-width="4.455"/>
<line x1="323.817075" y1="1517.223777" x2="323.817075" y2="1574.17916" stroke="black" stroke-width="4.455"/>
<line x1="338.703141" y1="1574.17916" x2="338.703141" y2="1593.595763" stroke="black" stroke-width="4.455"/>
<line x1="338.703141" y1="1593.595763" x2="626.716139" y2="1593.595763" stroke="black" stroke-width="4.455"/>
<line x1="626.716139" y1="1574.17916" x2="626.716139" y2="1593.595763" stroke="black" stroke-width="4.455"/>
<line x1="979.473117" y1="2198.984946" x2="979.473117" y2="2182.256292" stroke="black" stroke-width="4.455"/>
<line x1="979.473117" y1="2182.256292" x2="946.831837" y2="2182.256292" stroke="black" stroke-width="4.455"/>
<line x1="946.831837" y1="2182.256292" x2="946.831837" y2="2198.984946" stroke="black" stroke-width="4.455"/>
<line x1="946.831837" y1="2198.984946" x2="979.473117" y2="2198.984946" stroke="black" stroke-width="4.455"/>
<line x1="946.831837" y1="2018.641873" x2="784.03345" y2="2018.641873" stroke="black" stroke-width="4.455"/>
<line x1="980.289149" y1="2018.233854" x2="980.289149" y2="2001.505201" stroke="black" stroke-width="4.455"/>
<line x1="980.289149" y1="2001.505201" x2="947.647869" y2="2001.505201" stroke="black" stroke-width="4.455"/>
<line x1="947.647869" y1="2001.505201" x2="947.647869" y2="2018.233854" stroke="black" stroke-width="4.455"/>
<line x1="947.647869" y1="2018.233854" x2="980.289149" y2="2018.233854" stroke="black" stroke-width="4.455"/>
<path d="m 948.055883,2182.256292 a 163.614419,163.614419 0 0 1 -163.614419,-163.614419" fill="none" stroke="black" stroke-width="4.455"/>
<line x1="1378.153191" y1="2409.675112" x2="1378.153191" y2="2394.245769" stroke="black" stroke-width="4.455"/>
<line x1="1378.153191" y1="2394.245769" x2="1348.047157" y2="2394.245769" stroke="black" stroke-width="4.455"/>
<line x1="1348.047157" y1="2394.245769" x2="1348.047157" y2="2409.675112" stroke="black" stroke-width="4.455"/>
<line x1="1348.047157" y1="2409.675112" x2="1378.153191" y2="2409.675112" stroke="black" stroke-width="4.455"/>
<line x1="1348.047157" y1="2243.339267" x2="1197.893303" y2="2243.339267" stroke="black" stroke-width="4.455"/>
<line x1="1378.905843" y1="2242.962944" x2="1378.905843" y2="2227.533601" stroke="black" stroke-width="4.455"/>
<line x1="1378.905843" y1="2227.533601" x2="1348.799805" y2="2227.533601" stroke="black" stroke-width="4.455"/>
<line x1="1348.799805" y1="2227.533601" x2="1348.799805" y2="2242.962944" stroke="black" stroke-width="4.455"/>
<line x1="1348.799805" y1="2242.962944" x2="1378.905843" y2="2242.962944" stroke="black" stroke-width="4.455"/>
<path d="m 1349.176133,2394.245769 a 150.90650200000016,150.90650200000016 0 0 1 -150.90650200000005,-150.90650200000027" fill="none" stroke="black" stroke-width="4.455"/>
<line x1="373.001711" y1="1681.245433" x2="373.001711" y2="2074.489303" stroke="black" stroke-width="4.455"/>
<line x1="373.997988" y1="2078.444709" x2="237.929215" y2="2078.444709" stroke="black" stroke-width="4.455"/>
<line x1="236.777711" y1="1681.709822" x2="236.777711" y2="2078.75005" stroke="black" stroke-width="4.455"/>
<line x1="372.306959" y1="1682.444709" x2="237.042902" y2="1682.444709" stroke="black" stroke-width="4.455"/>
<line x1="361.913711" y1="1692.740709" x2="361.913711" y2="1816.292709" stroke="black" stroke-width="4.455"/>
<line x1="361.913711" y1="1816.292709" x2="247.865711" y2="1816.292709" stroke="black" stroke-width="4.455"/>
<line x1="247.865711" y1="1692.740709" x2="247.865711" y2="1816.292709" stroke="black" stroke-width="4.455"/>
<line x1="361.913711" y1="1692.740709" x2="247.865711" y2="1692.740709" stroke="black" stroke-width="4.455"/>
<line x1="354.785711" y1="1835.300709" x2="354.785711" y2="1922.420709" stroke="black" stroke-width="4.455"/>
<line x1="334.985711" y1="1835.300709" x2="334.985711" y2="1922.420709" stroke="black" stroke-width="4.455"/>
<line x1="314.393711" y1="1836.092709" x2="314.393711" y2="1922.420709" stroke="black" stroke-width="4.455"/>
<line x1="294.593711" y1="1836.092709" x2="294.593711" y2="1922.420709" stroke="black" stroke-width="4.455"/>
<line x1="274.793711" y1="1835.300709" x2="274.793711" y2="1922.420709" stroke="black" stroke-width="4.455"/>
<line x1="254.993711" y1="1835.300709" x2="254.993711" y2="1922.420709" stroke="black" stroke-width="4.455"/>
<line x1="248.657711" y1="1740.260709" x2="262.121711" y2="1740.260709" stroke="black" stroke-width="4.455"/>
<line x1="262.121711" y1="1740.260709" x2="262.121711" y2="1770.356709" stroke="black" stroke-width="4.455"/>
<line x1="262.121711" y1="1770.356709" x2="249.449711" y2="1770.356709" stroke="black" stroke-width="4.455"/>
<line x1="361.913711" y1="1943.012709" x2="361.913711" y2="2066.564709" stroke="black" stroke-width="4.455"/>
<line x1="361.913711" y1="2066.564709" x2="247.865711" y2="2066.564709" stroke="black" stroke-width="4.455"/>
<line x1="247.865711" y1="1943.012709" x2="247.865711" y2="2066.564709" stroke="black" stroke-width="4.455"/>
<line x1="361.913711" y1="1943.012709" x2="247.865711" y2="1943.012709" stroke="black" stroke-width="4.455"/>
<line x1="247.865711" y1="1990.532709" x2="261.329711" y2="1990.532709" stroke="black" stroke-width="4.455"/>
<line x1="261.329711" y1="1990.532709" x2="261.329711" y2="2020.628709" stroke="black" stroke-width="4.455"/>
<line x1="261.329711" y1="2020.628709" x2="248.657711" y2="2020.628709" stroke="black" stroke-width="4.455"/>
<circle cx="347.657711" cy="1802.036709" r="7.128000000000001" fill="none" stroke="black" stroke-width="4.455"/>
<circle cx="346.865711" cy="2052.308709" r="7.128000000000001" fill="none" stroke="black" stroke-width="4.455"/>
<line x1="456.320428" y1="2196.427108" x2="605.891321" y2="2196.427108" stroke="black" stroke-width="4.455"/>
<line x1="605.891321" y1="2196.427108" x2="605.891321" y2="2030.539396" stroke="black" stroke-width="4.455"/>
<line x1="605.891321" y1="2030.539396" x2="456.320428" y2="2030.539396" stroke="black" stroke-width="4.455"/>
<line x1="456.320428" y1="2030.539396" x2="456.320428" y2="2196.427108" stroke="black" stroke-width="4.455"/>
<line x1="456.320428" y1="2173.311608" x2="605.891321" y2="2173.311608" stroke="black" stroke-width="4.455"/>
<line x1="1902.926248" y1="592.852565" x2="1918.36706" y2="592.852565" stroke="black" stroke-width="4.455"/>
<line x1="1918.36706" y1="592.852565" x2="1918.36706" y2="562.724153" stroke="black" stroke-width="4.455"/>
<line x1="1918.36706" y1="562.724153" x2="1902.926248" y2="562.724153" stroke="black" stroke-width="4.455"/>
<line x1="1902.926248" y1="562.724153" x2="1902.926248" y2="592.852565" stroke="black" stroke-width="4.455"/>
<line x1="2069.385729" y1="562.724153" x2="2069.385729" y2="412.458691" stroke="black" stroke-width="4.455"/>
<line x1="2069.762335" y1="593.605772" x2="2085.203147" y2="593.605772" stroke="black" stroke-width="4.455"/>
<line x1="2085.203147" y1="593.605772" x2="2085.203147" y2="563.47736" stroke="black" stroke-width="4.455"/>
<line x1="2085.203147" y1="563.47736" x2="2069.762335" y2="563.47736" stroke="black" stroke-width="4.455"/>
<line x1="2069.762335" y1="563.47736" x2="2069.762335" y2="593.605772" stroke="black" stroke-width="4.455"/>
<path d="m 1918.36706,563.853965 a 151.01866900000002,151.01866900000002 0 0 1 151.01866900000005,-151.018669" fill="none" stroke="black" stroke-width="4.455"/>
<line x1="1891.816552" y1="1104.854989" x2="1891.816552" y2="782.565726" stroke="black" stroke-width="4.455"/>
<line x1="1891.816552" y1="782.565726" x2="1842.133016" y2="782.565726" stroke="black" stroke-width="4.455"/>
<line x1="1842.133016" y1="782.565726" x2="1842.133016" y2="1104.854989" stroke="black" stroke-width="4.455"/>
<line x1="1842.133016" y1="1104.854989" x2="1891.816552" y2="1104.854989" stroke="black" stroke-width="4.455"/>
<line x1="1842.786747" y1="1074.783377" x2="1891.16282" y2="1074.783377" stroke="black" stroke-width="4.455"/>
<line x1="1842.786747" y1="813.291074" x2="1893.124015" y2="813.291074" stroke="black" stroke-width="4.455"/>
<line x1="1865.667321" y1="1075.437109" x2="1865.667321" y2="813.944805" stroke="black" stroke-width="4.455"/>
<line x1="2082.914663" y1="1560.903651" x2="2067.48532" y2="1560.903651" stroke="black" stroke-width="4.455"/>
<line x1="2067.48532" y1="1560.903651" x2="2067.48532" y2="1591.009685" stroke="black" stroke-width="4.455"/>
<line x1="2067.48532" y1="1591.009685" x2="2082.914663" y2="1591.009685" stroke="black" stroke-width="4.455"/>
<line x1="2082.914663" y1="1591.009685" x2="2082.914663" y2="1560.903651" stroke="black" stroke-width="4.455"/>
<line x1="1916.578818" y1="1591.009685" x2="1916.578818" y2="1741.16354" stroke="black" stroke-width="4.455"/>
<line x1="1916.202494" y1="1560.150999" x2="1900.773151" y2="1560.150999" stroke="black" stroke-width="4.455"/>
<line x1="1900.773151" y1="1560.150999" x2="1900.773151" y2="1590.257038" stroke="black" stroke-width="4.455"/>
<line x1="1900.773151" y1="1590.257038" x2="1916.202494" y2="1590.257038" stroke="black" stroke-width="4.455"/>
<line x1="1916.202494" y1="1590.257038" x2="1916.202494" y2="1560.150999" stroke="black" stroke-width="4.455"/>
<path d="m 2067.48532,1589.880709 a 150.90650199999993,150.90650199999993 0 0 1 -150.90650199999982,150.90650200000005" fill="none" stroke="black" stroke-width="4.455"/>
<line x1="2260.988507" y1="3156.924613" x2="1942.536019" y2="3156.924613" stroke="black" stroke-width="4.455"/>
<line x1="1942.536019" y1="3156.924613" x2="1942.536019" y2="3206.016678" stroke="black" stroke-width="4.455"/>
<line x1="1942.536019" y1="3206.016678" x2="2260.988507" y2="3206.016678" stroke="black" stroke-width="4.455"/>
<line x1="2260.988507" y1="3206.016678" x2="2260.988507" y2="3156.924613" stroke="black" stroke-width="4.455"/>
<line x1="2231.274885" y1="3205.370728" x2="2231.274885" y2="3157.570558" stroke="black" stroke-width="4.455"/>
<line x1="1972.895587" y1="3205.370728" x2="1972.895587" y2="3155.632717" stroke="black" stroke-width="4.455"/>
<line x1="2231.920835" y1="3182.762543" x2="1973.541537" y2="3182.762543" stroke="black" stroke-width="4.455"/>
<line x1="775.146314" y1="3150.80076" x2="472.060106" y2="3150.80076" stroke="black" stroke-width="4.455"/>
<line x1="472.060106" y1="3150.80076" x2="472.060106" y2="3205.011298" stroke="black" stroke-width="4.455"/>
<line x1="472.060106" y1="3205.011298" x2="775.146314" y2="3205.011298" stroke="black" stroke-width="4.455"/>
<line x1="775.146314" y1="3205.011298" x2="775.146314" y2="3150.80076" stroke="black" stroke-width="4.455"/>
<line x1="760.977652" y1="3150.80076" x2="760.977652" y2="3132.31989" stroke="black" stroke-width="4.455"/>
<line x1="760.977652" y1="3132.31989" x2="486.844796" y2="3132.31989" stroke="black" stroke-width="4.455"/>
<line x1="486.844796" y1="3150.80076" x2="486.844796" y2="3132.31989" stroke="black" stroke-width="4.455"/>
<line x1="1635.576055" y1="2910.002589" x2="1635.576055" y2="2929.936759" stroke="black" stroke-width="4.455005"/>
<line x1="1635.576055" y1="2929.936759" x2="1674.471996" y2="2929.936759" stroke="black" stroke-width="4.455005"/>
<line x1="1674.471996" y1="2929.936759" x2="1674.471996" y2="2910.002589" stroke="black" stroke-width="4.455005"/>
<line x1="1674.471996" y1="2910.002589" x2="1635.576055" y2="2910.002589" stroke="black" stroke-width="4.455005"/>
<line x1="1674.471996" y1="3124.902667" x2="1868.465501" y2="3124.902667" stroke="black" stroke-width="4.455005"/>
<line x1="1634.603657" y1="3125.388866" x2="1634.603657" y2="3145.323035" stroke="black" stroke-width="4.455005"/>
<line x1="1634.603657" y1="3145.323035" x2="1673.499599" y2="3145.323035" stroke="black" stroke-width="4.455005"/>
<line x1="1673.499599" y1="3145.323035" x2="1673.499599" y2="3125.388866" stroke="black" stroke-width="4.455005"/>
<line x1="1673.499599" y1="3125.388866" x2="1634.603657" y2="3125.388866" stroke="black" stroke-width="4.455005"/>
<path d="m 1673.0134,2929.936759 a 194.9659049999998,194.9659049999998 0 0 1 194.96590199999991,194.96590799999967" fill="none" stroke="black" stroke-width="4.455005"/>
<line x1="2497.111338" y1="2403.644557" x2="2439.200056" y2="2522.380281" stroke="black" stroke-width="4.455"/>
<line x1="2439.200056" y1="2522.380281" x2="2426.386847" y2="2516.130862" stroke="black" stroke-width="4.455"/>
<line x1="2484.298134" y1="2397.395138" x2="2426.386847" y2="2516.130862" stroke="black" stroke-width="4.455"/>
<line x1="2497.111338" y1="2403.644557" x2="2484.298134" y2="2397.395138" stroke="black" stroke-width="4.455"/>
<line x1="2478.465342" y1="2409.35413" x2="2451.109538" y2="2393.896982" stroke="black" stroke-width="4.455"/>
<line x1="2432.21964" y1="2504.17187" x2="2402.343113" y2="2491.714947" stroke="black" stroke-width="4.455"/>
<line x1="2082.817618" y1="2201.580003" x2="2024.906336" y2="2320.315732" stroke="black" stroke-width="4.455"/>
<line x1="2024.906336" y1="2320.315732" x2="2036.865328" y2="2326.148525" stroke="black" stroke-width="4.455"/>
<line x1="2094.77661" y1="2207.412796" x2="2036.865328" y2="2326.148525" stroke="black" stroke-width="4.455"/>
<line x1="2082.817618" y1="2201.580003" x2="2094.77661" y2="2207.412796" stroke="black" stroke-width="4.455"/>
<line x1="2091.068872" y1="2219.350835" x2="2120.091188" y2="2231.391126" stroke="black" stroke-width="4.455"/>
<line x1="2044.823175" y1="2314.16857" x2="2072.616559" y2="2330.896565" stroke="black" stroke-width="4.455"/>
<line x1="2219.761051" y1="2597.228429" x2="2226.010471" y2="2584.415226" stroke="black" stroke-width="4.455"/>
<line x1="2226.010471" y1="2584.415226" x2="2107.274746" y2="2526.503938" stroke="black" stroke-width="4.455"/>
<line x1="2101.025327" y1="2539.317152" x2="2107.274746" y2="2526.503938" stroke="black" stroke-width="4.455"/>
<line x1="2219.761051" y1="2597.228429" x2="2101.025327" y2="2539.317152" stroke="black" stroke-width="4.455"/>
<line x1="2120.08795" y1="2532.753358" x2="2131.690661" y2="2502.460204" stroke="black" stroke-width="4.455"/>
<line x1="2214.051479" y1="2578.582433" x2="2229.925257" y2="2550.372417" stroke="black" stroke-width="4.455"/>
<line x1="2422.26319" y1="2184.205553" x2="2416.01377" y2="2197.018761" stroke="black" stroke-width="4.455"/>
<line x1="2416.01377" y1="2197.018761" x2="2297.278041" y2="2139.107474" stroke="black" stroke-width="4.455"/>
<line x1="2303.527466" y1="2126.29427" x2="2297.278041" y2="2139.107474" stroke="black" stroke-width="4.455"/>
<line x1="2422.26319" y1="2184.205553" x2="2303.527466" y2="2126.29427" stroke="black" stroke-width="4.455"/>
<line x1="2310.09125" y1="2145.356893" x2="2293.36326" y2="2173.150282" stroke="black" stroke-width="4.455"/>
<line x1="2404.054778" y1="2191.185968" x2="2391.597851" y2="2221.062495" stroke="black" stroke-width="4.455"/>
<circle cx="2261.644258" cy="2361.76135" r="191.9808" fill="none" stroke="black" stroke-width="4.455"/>
<line x1="935.143645" y1="2785.967148" x2="1088.921592" y2="2674.240925" stroke="black" stroke-width="4.455"/>
<line x1="1088.921592" y1="2674.240925" x2="816.309618" y2="2299.022723" stroke="black" stroke-width="4.455"/>
<line x1="816.309618" y1="2299.022723" x2="662.531666" y2="2410.748946" stroke="black" stroke-width="4.455"/>
<line x1="662.531666" y1="2410.748946" x2="676.497442" y2="2429.971187" stroke="black" stroke-width="4.455"/>
<line x1="676.497442" y1="2429.971187" x2="811.822037" y2="2331.652113" stroke="black" stroke-width="4.455"/>
<line x1="811.822037" y1="2331.652113" x2="1055.943831" y2="2667.65694" stroke="black" stroke-width="4.455"/>
<line x1="1055.943831" y1="2667.65694" x2="920.619236" y2="2765.976013" stroke="black" stroke-width="4.455"/>
<line x1="920.619236" y1="2765.976013" x2="935.143645" y2="2785.967148" stroke="black" stroke-width="4.455"/>
<line x1="925.232576" y1="2762.624225" x2="681.110783" y2="2426.619403" stroke="black" stroke-width="4.455"/>
<line x1="802.682105" y1="2595.564888" x2="933.393364" y2="2500.597603" stroke="black" stroke-width="4.455"/>
<line x1="1198.678882" y1="3034.322631" x2="1173.197466" y2="2826.793139" stroke="black" stroke-width="4.455"/>
<line x1="1173.197466" y1="2826.793139" x2="943.028391" y2="2855.054352" stroke="black" stroke-width="4.455"/>
<line x1="943.028391" y1="2855.054352" x2="968.509808" y2="3062.58384" stroke="black" stroke-width="4.455"/>
<line x1="968.509808" y1="3062.58384" x2="1198.678882" y2="3034.322631" stroke="black" stroke-width="4.455"/>
<line x1="1166.60614" y1="3038.260668" x2="1141.124723" y2="2830.731181" stroke="black" stroke-width="4.455"/>
<line x1="2606.574232" y1="1022.720634" x2="2838.471832" y2="1022.720634" stroke="black" stroke-width="4.455"/>
<line x1="2838.471832" y1="1022.720634" x2="2838.471832" y2="1255.093434" stroke="black" stroke-width="4.455"/>
<line x1="2838.471832" y1="1255.093434" x2="2606.574232" y2="1255.093434" stroke="black" stroke-width="4.455"/>
<line x1="2606.574232" y1="1255.093434" x2="2606.574232" y2="1022.720634" stroke="black" stroke-width="4.455"/>
<line x1="2606.099032" y1="1022.245434" x2="2838.471832" y2="1255.093434" stroke="black" stroke-width="4.455"/>
<line x1="2606.574232" y1="1254.618234" x2="2837.996632" y2="1022.720634" stroke="black" stroke-width="4.455"/>
<line x1="2510.807721" y1="1292.919205" x2="2117.975721" y2="1292.919205" stroke="black" stroke-width="4.455"/>
<line x1="2117.975721" y1="1292.919205" x2="2117.975721" y2="1477.455205" stroke="black" stroke-width="4.455"/>
<line x1="2117.975721" y1="1477.455205" x2="2510.807721" y2="1477.455205" stroke="black" stroke-width="4.455"/>
<line x1="2510.807721" y1="1477.455205" x2="2510.807721" y2="1292.919205" stroke="black" stroke-width="4.455"/>
<line x1="2351.615721" y1="1477.455205" x2="2351.615721" y2="1558.239205" stroke="black" stroke-width="4.455"/>
<line x1="2351.615721" y1="1558.239205" x2="2430.023721" y2="1558.239205" stroke="black" stroke-width="4.455"/>
<line x1="2430.023721" y1="1558.239205" x2="2430.023721" y2="1477.455205" stroke="black" stroke-width="4.455"/>
<line x1="2429.231721" y1="1540.815205" x2="2351.615721" y2="1540.815205" stroke="black" stroke-width="4.455"/>
<line x1="2430.023721" y1="1211.343205" x2="2351.615721" y2="1211.343205" stroke="black" stroke-width="4.455"/>
<line x1="2351.615721" y1="1211.343205" x2="2351.615721" y2="1292.919205" stroke="black" stroke-width="4.455"/>
<line x1="2430.023721" y1="1292.919205" x2="2430.023721" y2="1211.343205" stroke="black" stroke-width="4.455"/>
<line x1="2429.231721" y1="1228.767205" x2="2351.615721" y2="1228.767205" stroke="black" stroke-width="4.455"/>
<line x1="2200.343721" y1="1477.455205" x2="2200.343721" y2="1558.239205" stroke="black" stroke-width="4.455"/>
<line x1="2200.343721" y1="1558.239205" x2="2278.751721" y2="1558.239205" stroke="black" stroke-width="4.455"/>
<line x1="2278.751721" y1="1558.239205" x2="2278.751721" y2="1477.455205" stroke="black" stroke-width="4.455"/>
<line x1="2278.751721" y1="1540.815205" x2="2200.343721" y2="1540.815205" stroke="black" stroke-width="4.455"/>
<line x1="2278.751721" y1="1211.343205" x2="2200.343721" y2="1211.343205" stroke="black" stroke-width="4.455"/>
<line x1="2200.343721" y1="1211.343205" x2="2200.343721" y2="1292.919205" stroke="black" stroke-width="4.455"/>
<line x1="2278.751721" y1="1292.919205" x2="2278.751721" y2="1211.343205" stroke="black" stroke-width="4.455"/>
<line x1="2278.751721" y1="1228.767205" x2="2200.343721" y2="1228.767205" stroke="black" stroke-width="4.455"/>
<line x1="2604.028126" y1="2916.847261" x2="2835.925726" y2="2916.847261" stroke="black" stroke-width="4.455"/>
<line x1="2835.925726" y1="2916.847261" x2="2835.925726" y2="3149.220061" stroke="black" stroke-width="4.455"/>
<line x1="2835.925726" y1="3149.220061" x2="2604.028126" y2="3149.220061" stroke="black" stroke-width="4.455"/>
<line x1="2604.028126" y1="3149.220061" x2="2604.028126" y2="2916.847261" stroke="black" stroke-width="4.455"/>
<line x1="2603.552926" y1="2916.372061" x2="2835.925726" y2="3149.220061" stroke="black" stroke-width="4.455"/>
<line x1="2604.028126" y1="3148.744861" x2="2835.450526" y2="2916.847261" stroke="black" stroke-width="4.455"/>
<line x1="950.650792" y1="1966.255587" x2="950.650792" y2="1575.007587" stroke="black" stroke-width="4.455"/>
<line x1="950.650792" y1="1575.007587" x2="776.410792" y2="1575.007587" stroke="black" stroke-width="4.455"/>
<line x1="776.410792" y1="1575.007587" x2="776.410792" y2="1966.255587" stroke="black" stroke-width="4.455"/>
<line x1="776.410792" y1="1966.255587" x2="950.650792" y2="1966.255587" stroke="black" stroke-width="4.455"/>
<line x1="803.338792" y1="1650.247587" x2="803.338792" y2="1934.575587" stroke="black" stroke-width="4.455"/>
<line x1="803.338792" y1="1934.575587" x2="921.346792" y2="1934.575587" stroke="black" stroke-width="4.455"/>
<line x1="921.346792" y1="1934.575587" x2="921.346792" y2="1644.703587" stroke="black" stroke-width="4.455"/>
<path d="m 803.083367,1651.05816 a 63.3600003087793,63.3600003087793 0 0 1 119.37433300000009,-4.293813" fill="none" stroke="black" stroke-width="4.455"/>
<line x1="2450.713483" y1="220.67794" x2="2631.226856" y2="220.67794" stroke="black" stroke-width="4.455"/>
<line x1="2631.226856" y1="220.67794" x2="2631.226856" y2="401.561216" stroke="black" stroke-width="4.455"/>
<line x1="2631.226856" y1="401.561216" x2="2450.713483" y2="401.561216" stroke="black" stroke-width="4.455"/>
<line x1="2450.713483" y1="401.561216" x2="2450.713483" y2="220.67794" stroke="black" stroke-width="4.455"/>
<line x1="2450.34358" y1="220.308036" x2="2631.226856" y2="401.561216" stroke="black" stroke-width="4.455"/>
<line x1="2450.713483" y1="401.191308" x2="2630.856947" y2="220.67794" stroke="black" stroke-width="4.455"/>
<line x1="2835.107109" y1="718.08361" x2="2480.4262" y2="718.08361" stroke="black" stroke-width="4.455"/>
<line x1="2476.858676" y1="718.982194" x2="2476.858676" y2="596.256829" stroke="black" stroke-width="4.455"/>
<line x1="2834.68826" y1="595.218245" x2="2476.583282" y2="595.218245" stroke="black" stroke-width="4.455"/>
<line x1="2834.02544" y1="717.45699" x2="2834.02544" y2="595.457433" stroke="black" stroke-width="4.455"/>
<line x1="2824.739102" y1="708.082942" x2="2713.303073" y2="708.082942" stroke="black" stroke-width="4.455"/>
<line x1="2713.303073" y1="708.082942" x2="2713.303073" y2="605.218913" stroke="black" stroke-width="4.455"/>
<line x1="2824.739102" y1="605.218913" x2="2713.303073" y2="605.218913" stroke="black" stroke-width="4.455"/>
<line x1="2824.739102" y1="708.082942" x2="2824.739102" y2="605.218913" stroke="black" stroke-width="4.455"/>
<line x1="2696.15907" y1="701.653941" x2="2617.582379" y2="701.653941" stroke="black" stroke-width="4.455"/>
<line x1="2696.15907" y1="683.795604" x2="2617.582379" y2="683.795604" stroke="black" stroke-width="4.455"/>
<line x1="2695.444736" y1="665.222931" x2="2617.582379" y2="665.222931" stroke="black" stroke-width="4.455"/>
<line x1="2695.444736" y1="647.364594" x2="2617.582379" y2="647.364594" stroke="black" stroke-width="4.455"/>
<line x1="2696.15907" y1="629.506256" x2="2617.582379" y2="629.506256" stroke="black" stroke-width="4.455"/>
<line x1="2696.15907" y1="611.647913" x2="2617.582379" y2="611.647913" stroke="black" stroke-width="4.455"/>
<line x1="2781.879091" y1="605.933247" x2="2781.879091" y2="618.076919" stroke="black" stroke-width="4.455"/>
<line x1="2781.879091" y1="618.076919" x2="2754.73442" y2="618.076919" stroke="black" stroke-width="4.455"/>
<line x1="2754.73442" y1="618.076919" x2="2754.73442" y2="606.647582" stroke="black" stroke-width="4.455"/>
<line x1="2599.009712" y1="708.082942" x2="2487.573678" y2="708.082942" stroke="black" stroke-width="4.455"/>
<line x1="2487.573678" y1="708.082942" x2="2487.573678" y2="605.218913" stroke="black" stroke-width="4.455"/>
<line x1="2599.009712" y1="605.218913" x2="2487.573678" y2="605.218913" stroke="black" stroke-width="4.455"/>
<line x1="2599.009712" y1="708.082942" x2="2599.009712" y2="605.218913" stroke="black" stroke-width="4.455"/>
<line x1="2556.149696" y1="605.218913" x2="2556.149696" y2="617.362584" stroke="black" stroke-width="4.455"/>
<line x1="2556.149696" y1="617.362584" x2="2529.005025" y2="617.362584" stroke="black" stroke-width="4.455"/>
<line x1="2529.005025" y1="617.362584" x2="2529.005025" y2="605.933247" stroke="black" stroke-width="4.455"/>
<circle cx="2726.161079" cy="695.224936" r="6.4290017181665915" fill="none" stroke="black" stroke-width="4.455"/>
<circle cx="2500.431684" cy="694.510606" r="6.4290017181665915" fill="none" stroke="black" stroke-width="4.455"/>
<line x1="234.655295" y1="2913.791201" x2="466.552895" y2="2913.791201" stroke="black" stroke-width="4.455"/>
<line x1="466.552895" y1="2913.791201" x2="466.552895" y2="3146.164001" stroke="black" stroke-width="4.455"/>
<line x1="466.552895" y1="3146.164001" x2="234.655295" y2="3146.164001" stroke="black" stroke-width="4.455"/>
<line x1="234.655295" y1="3146.164001" x2="234.655295" y2="2913.791201" stroke="black" stroke-width="4.455"/>
<line x1="234.180094" y1="2913.316001" x2="466.552895" y2="3146.164001" stroke="black" stroke-width="4.455"/>
<line x1="234.655295" y1="3145.688801" x2="466.077694" y2="2913.791201" stroke="black" stroke-width="4.455"/>
<line x1="2633.926041" y1="220.479044" x2="2814.439414" y2="220.479044" stroke="black" stroke-width="4.455"/>
<line x1="2814.439414" y1="220.479044" x2="2814.439414" y2="401.36232" stroke="black" stroke-width="4.455"/>
<line x1="2814.439414" y1="401.36232" x2="2633.926041" y2="401.36232" stroke="black" stroke-width="4.455"/>
<line x1="2633.926041" y1="401.36232" x2="2633.926041" y2="220.479044" stroke="black" stroke-width="4.455"/>
<line x1="2633.556138" y1="220.10914" x2="2814.439414" y2="401.36232" stroke="black" stroke-width="4.455"/>
<line x1="2633.926041" y1="400.992412" x2="2814.069506" y2="220.479044" stroke="black" stroke-width="4.455"/>
<line x1="2266.984912" y1="220.477935" x2="2447.498285" y2="220.477935" stroke="black" stroke-width="4.455"/>
<line x1="2447.498285" y1="220.477935" x2="2447.498285" y2="401.361211" stroke="black" stroke-width="4.455"/>
<line x1="2447.498285" y1="401.361211" x2="2266.984912" y2="401.361211" stroke="black" stroke-width="4.455"/>
<line x1="2266.984912" y1="401.361211" x2="2266.984912" y2="220.477935" stroke="black" stroke-width="4.455"/>
<line x1="2266.615009" y1="220.108032" x2="2447.498285" y2="401.361211" stroke="black" stroke-width="4.455"/>
<line x1="2266.984912" y1="400.991303" x2="2447.128377" y2="220.477935" stroke="black" stroke-width="4.455"/>
</g>
</svg>
