<?xml version="1.0"?>
<svg xmlns:xlink="http://www.w3.org/1999/xlink" width="3059.1" height="3341.25">
<image x="0" y="0" width="3059.1" height="3341.25" xlink:href="groundfilled-02.png"/>
<g style="stroke-linecap:round">
<line x1="980.860647" y1="1527.245503" x2="996.301459" y2="1527.245503" stroke="black" stroke-width="4.455"/>
<line x1="996.301459" y1="1527.245503" x2="996.301459" y2="1497.11709" stroke="black" stroke-width="4.455"/>
<line x1="996.301459" y1="1497.11709" x2="980.860647" y2="1497.11709" stroke="black" stroke-width="4.455"/>
<line x1="980.860647" y1="1497.11709" x2="980.860647" y2="1527.245503" stroke="black" stroke-width="4.455"/>
<line x1="1147.320128" y1="1497.11709" x2="1147.320128" y2="1346.851628" stroke="black" stroke-width="4.455"/>
<line x1="1147.696734" y1="1527.99871" x2="1163.137546" y2="1527.99871" stroke="black" stroke-width="4.455"/>
<line x1="1163.137546" y1="1527.99871" x2="1163.137546" y2="1497.870297" stroke="black" stroke-width="4.455"/>
<line x1="1163.137546" y1="1497.870297" x2="1147.696734" y2="1497.870297" stroke="black" stroke-width="4.455"/>
<line x1="1147.696734" y1="1497.870297" x2="1147.696734" y2="1527.99871" stroke="black" stroke-width="4.455"/>
<path d="m 996.301459,1498.246903 a 151.01866900000005,151.01866900000005 0 0 1 151.01866900000005,-151.01866900000005" fill="none" stroke="black" stroke-width="4.455"/>
<line x1="1419.733463" y1="1470.293926" x2="1419.733463" y2="1286.549926" stroke="black" stroke-width="4.455"/>
<line x1="1419.733463" y1="1286.549926" x2="1468.837463" y2="1286.549926" stroke="black" stroke-width="4.455"/>
<line x1="1468.837463" y1="1470.293926" x2="1468.837463" y2="1286.549926" stroke="black" stroke-width="4.455"/>
<line x1="1419.733463" y1="1470.293926" x2="1468.837463" y2="1470.293926" stroke="black" stroke-width="4.455"/>
<line x1="1392.013463" y1="1428.713926" x2="1419.733463" y2="1428.713926" stroke="black" stroke-width="4.455"/>
<line x1="1419.733463" y1="1329.713926" x2="1390.429463" y2="1329.713926" stroke="black" stroke-width="4.455"/>
<circle cx="1346.869463" cy="1380.005926" r="66.528" fill="none" stroke="black" stroke-width="4.455"/>
<circle cx="1346.869463" cy="1380.005926" r="57.02400000000001" fill="none" stroke="black" stroke-width="4.455"/>
<line x1="323.807007" y1="1566.315843" x2="642.259495" y2="1566.315843" stroke="black" stroke-width="4.455"/>
<line x1="642.259495" y1="1566.315843" x2="642.259495" y2="1517.223777" stroke="black" stroke-width="4.455"/>
<line x1="642.259495" y1="1517.223777" x2="323.807007" y2="1517.223777" stroke="black" stroke-width="4.455"/>
<line x1="323.807007" y1="1517.223777" x2="323.807007" y2="1566.315843" stroke="black" stroke-width="4.455"/>
<line x1="353.52063" y1="1517.869728" x2="353.52063" y2="1565.669898" stroke="black" stroke-width="4.455"/>
<line x1="611.899928" y1="1517.869728" x2="611.899928" y2="1567.607738" stroke="black" stroke-width="4.455"/>
<line x1="352.874679" y1="1540.477912" x2="611.253977" y2="1540.477912" stroke="black" stroke-width="4.455"/>
<line x1="979.473117" y1="2198.984946" x2="979.473117" y2="2182.256292" stroke="black" stroke-width="4.455"/>
<line x1="979.473117" y1="2182.256292" x2="946.831837" y2="2182.256292" stroke="black" stroke-width="4.455"/>
<line x1="946.831837" y1="2182.256292" x2="946.831837" y2="2198.984946" stroke="black" stroke-width="4.455"/>
<line x1="946.831837" y1="2198.984946" x2="979.473117" y2="2198.984946" stroke="black" stroke-width="4.455"/>
<line x1="946.831837" y1="2018.641873" x2="784.03345" y2="2018.641873" stroke="black" stroke-width="4.455"/>
<line x1="980.289149" y1="2018.233854" x2="980.289149" y2="2001.505201" stroke="black" stroke-width="4.455"/>
<line x1="980.289149" y1="2001.505201" x2="947.647869" y2="2001.505201" stroke="black" stroke-width="4.455"/>
<line x1="947.647869" y1="2001.505201" x2="947.647869" y2="2018.233854" stroke="black" stroke-width="4.455"/>
<line x1="947.647869" y1="2018.233854" x2="980.289149" y2="2018.233854" stroke="black" stroke-width="4.455"/>
<path d="m 948.055883,2182.256292 a 163.614419,163.614419 0 0 1 -163.614419,-163.614419" fill="none" stroke="black" stroke-width="4.455"/>
<line x1="1378.153191" y1="2409.675112" x2="1378.153191" y2="2394.245769" stroke="black" stroke-width="4.455"/>
<line x1="1378.153191" y1="2394.245769" x2="1348.047157" y2="2394.245769" stroke="black" stroke-width="4.455"/>
<line x1="1348.047157" y1="2394.245769" x2="1348.047157" y2="2409.675112" stroke="black" stroke-width="4.455"/>
<line x1="1348.047157" y1="2409.675112" x2="1378.153191" y2="2409.675112" stroke="black" stroke-width="4.455"/>
<line x1="1348.047157" y1="2243.339267" x2="1197.893303" y2="2243.339267" stroke="black" stroke-width="4.455"/>
<line x1="1378.905843" y1="2242.962944" x2="1378.905843" y2="2227.533601" stroke="black" stroke-width="4.455"/>
<line x1="1378.905843" y1="2227.533601" x2="1348.799805" y2="2227.533601" stroke="black" stroke-width="4.455"/>
<line x1="1348.799805" y1="2227.533601" x2="1348.799805" y2="2242.962944" stroke="black" stroke-width="4.455"/>
<line x1="1348.799805" y1="2242.962944" x2="1378.905843" y2="2242.962944" stroke="black" stroke-width="4.455"/>
<path d="m 1349.176133,2394.245769 a 150.90650200000016,150.90650200000016 0 0 1 -150.90650200000005,-150.90650200000027" fill="none" stroke="black" stroke-width="4.455"/>
<line x1="373.001711" y1="1681.245433" x2="373.001711" y2="2074.489303" stroke="black" stroke-width="4.455"/>
<line x1="373.997988" y1="2078.444709" x2="237.929215" y2="2078.444709" stroke="black" stroke-width="4.455"/>
<line x1="236.777711" y1="1681.709822" x2="236.777711" y2="2078.75005" stroke="black" stroke-width="4.455"/>
<line x1="372.306959" y1="1682.444709" x2="237.042902" y2="1682.444709" stroke="black" stroke-width="4.455"/>
<line x1="361.913711" y1="1692.740709" x2="361.913711" y2="1816.292709" stroke="black" stroke-width="4.455"/>
<line x1="361.913711" y1="1816.292709" x2="247.865711" y2="1816.292709" stroke="black" stroke-width="4.455"/>
<line x1="247.865711" y1="1692.740709" x2="247.865711" y2="1816.292709" stroke="black" stroke-width="4.455"/>
<line x1="361.913711" y1="1692.740709" x2="247.865711" y2="1692.740709" stroke="black" stroke-width="4.455"/>
<line x1="354.785711" y1="1835.300709" x2="354.785711" y2="1922.420709" stroke="black" stroke-width="4.455"/>
<line x1="334.985711" y1="1835.300709" x2="334.985711" y2="1922.420709" stroke="black" stroke-width="4.455"/>
<line x1="314.393711" y1="1836.092709" x2="314.393711" y2="1922.420709" stroke="black" stroke-width="4.455"/>
<line x1="294.593711" y1="1836.092709" x2="294.593711" y2="1922.420709" stroke="black" stroke-width="4.455"/>
<line x1="274.793711" y1="1835.300709" x2="274.793711" y2="1922.420709" stroke="black" stroke-width="4.455"/>
<line x1="254.993711" y1="1835.300709" x2="254.993711" y2="1922.420709" stroke="black" stroke-width="4.455"/>
<line x1="248.657711" y1="1740.260709" x2="262.121711" y2="1740.260709" stroke="black" stroke-width="4.455"/>
<line x1="262.121711" y1="1740.260709" x2="262.121711" y2="1770.356709" stroke="black" stroke-width="4.455"/>
<line x1="262.121711" y1="1770.356709" x2="249.449711" y2="1770.356709" stroke="black" stroke-width="4.455"/>
<line x1="361.913711" y1="1943.012709" x2="361.913711" y2="2066.564709" stroke="black" stroke-width="4.455"/>
<line x1="361.913711" y1="2066.564709" x2="247.865711" y2="2066.564709" stroke="black" stroke-width="4.455"/>
<line x1="247.865711" y1="1943.012709" x2="247.865711" y2="2066.564709" stroke="black" stroke-width="4.455"/>
<line x1="361.913711" y1="1943.012709" x2="247.865711" y2="1943.012709" stroke="black" stroke-width="4.455"/>
<line x1="247.865711" y1="1990.532709" x2="261.329711" y2="1990.532709" stroke="black" stroke-width="4.455"/>
<line x1="261.329711" y1="1990.532709" x2="261.329711" y2="2020.628709" stroke="black" stroke-width="4.455"/>
<line x1="261.329711" y1="2020.628709" x2="248.657711" y2="2020.628709" stroke="black" stroke-width="4.455"/>
<circle cx="347.657711" cy="1802.036709" r="7.128000000000001" fill="none" stroke="black" stroke-width="4.455"/>
<circle cx="346.865711" cy="2052.308709" r="7.128000000000001" fill="none" stroke="black" stroke-width="4.455"/>
<line x1="397.966219" y1="2196.427108" x2="547.537112" y2="2196.427108" stroke="black" stroke-width="4.455"/>
<line x1="547.537112" y1="2196.427108" x2="547.537112" y2="2030.539396" stroke="black" stroke-width="4.455"/>
<line x1="547.537112" y1="2030.539396" x2="397.966219" y2="2030.539396" stroke="black" stroke-width="4.455"/>
<line x1="397.966219" y1="2030.539396" x2="397.966219" y2="2196.427108" stroke="black" stroke-width="4.455"/>
<line x1="397.966219" y1="2173.311608" x2="547.537112" y2="2173.311608" stroke="black" stroke-width="4.455"/>
<line x1="1902.926248" y1="592.852565" x2="1918.36706" y2="592.852565" stroke="black" stroke-width="4.455"/>
<line x1="1918.36706" y1="592.852565" x2="1918.36706" y2="562.724153" stroke="black" stroke-width="4.455"/>
<line x1="1918.36706" y1="562.724153" x2="1902.926248" y2="562.724153" stroke="black" stroke-width="4.455"/>
<line x1="1902.926248" y1="562.724153" x2="1902.926248" y2="592.852565" stroke="black" stroke-width="4.455"/>
<line x1="2069.385729" y1="562.724153" x2="2069.385729" y2="412.458691" stroke="black" stroke-width="4.455"/>
<line x1="2069.762335" y1="593.605772" x2="2085.203147" y2="593.605772" stroke="black" stroke-width="4.455"/>
<line x1="2085.203147" y1="593.605772" x2="2085.203147" y2="563.47736" stroke="black" stroke-width="4.455"/>
<line x1="2085.203147" y1="563.47736" x2="2069.762335" y2="563.47736" stroke="black" stroke-width="4.455"/>
<line x1="2069.762335" y1="563.47736" x2="2069.762335" y2="593.605772" stroke="black" stroke-width="4.455"/>
<path d="m 1918.36706,563.853965 a 151.01866900000002,151.01866900000002 0 0 1 151.01866900000005,-151.018669" fill="none" stroke="black" stroke-width="4.455"/>
<line x1="1899.774603" y1="1104.844802" x2="1899.774603" y2="782.575918" stroke="black" stroke-width="4.455"/>
<line x1="1899.774603" y1="782.575918" x2="1842.133016" y2="782.575918" stroke="black" stroke-width="4.455"/>
<line x1="1842.133016" y1="782.575918" x2="1842.133016" y2="1104.844802" stroke="black" stroke-width="4.455"/>
<line x1="1842.133016" y1="1104.844802" x2="1899.774603" y2="1104.844802" stroke="black" stroke-width="4.455"/>
<line x1="1899.774603" y1="1089.779387" x2="1919.425142" y2="1089.779387" stroke="black" stroke-width="4.455"/>
<line x1="1919.425142" y1="1089.779387" x2="1919.425142" y2="798.29635" stroke="black" stroke-width="4.455"/>
<line x1="1899.774603" y1="798.29635" x2="1919.425142" y2="798.29635" stroke="black" stroke-width="4.455"/>
<line x1="2082.914663" y1="1560.903651" x2="2067.48532" y2="1560.903651" stroke="black" stroke-width="4.455"/>
<line x1="2067.48532" y1="1560.903651" x2="2067.48532" y2="1591.009685" stroke="black" stroke-width="4.455"/>
<line x1="2067.48532" y1="1591.009685" x2="2082.914663" y2="1591.009685" stroke="black" stroke-width="4.455"/>
<line x1="2082.914663" y1="1591.009685" x2="2082.914663" y2="1560.903651" stroke="black" stroke-width="4.455"/>
<line x1="1916.578818" y1="1591.009685" x2="1916.578818" y2="1741.16354" stroke="black" stroke-width="4.455"/>
<line x1="1916.202494" y1="1560.150999" x2="1900.773151" y2="1560.150999" stroke="black" stroke-width="4.455"/>
<line x1="1900.773151" y1="1560.150999" x2="1900.773151" y2="1590.257038" stroke="black" stroke-width="4.455"/>
<line x1="1900.773151" y1="1590.257038" x2="1916.202494" y2="1590.257038" stroke="black" stroke-width="4.455"/>
<line x1="1916.202494" y1="1590.257038" x2="1916.202494" y2="1560.150999" stroke="black" stroke-width="4.455"/>
<path d="m 2067.48532,1589.880709 a 150.90650199999993,150.90650199999993 0 0 1 -150.90650199999982,150.90650200000005" fill="none" stroke="black" stroke-width="4.455"/>
<line x1="2260.978439" y1="3149.061295" x2="1942.546092" y2="3149.061295" stroke="black" stroke-width="4.455"/>
<line x1="1942.546092" y1="3149.061295" x2="1942.546092" y2="3206.016678" stroke="black" stroke-width="4.455"/>
<line x1="1942.546092" y1="3206.016678" x2="2260.978439" y2="3206.016678" stroke="black" stroke-width="4.455"/>
<line x1="2260.978439" y1="3206.016678" x2="2260.978439" y2="3149.061295" stroke="black" stroke-width="4.455"/>
<line x1="2246.092373" y1="3149.061295" x2="2246.092373" y2="3129.644692" stroke="black" stroke-width="4.455"/>
<line x1="2246.092373" y1="3129.644692" x2="1958.079375" y2="3129.644692" stroke="black" stroke-width="4.455"/>
<line x1="1958.079375" y1="3149.061295" x2="1958.079375" y2="3129.644692" stroke="black" stroke-width="4.455"/>
<line x1="775.155897" y1="3158.28511" x2="472.050518" y2="3158.28511" stroke="black" stroke-width="4.455"/>
<line x1="472.050518" y1="3158.28511" x2="472.050518" y2="3205.011294" stroke="black" stroke-width="4.455"/>
<line x1="472.050518" y1="3205.011294" x2="775.155897" y2="3205.011294" stroke="black" stroke-width="4.455"/>
<line x1="775.155897" y1="3205.011294" x2="775.155897" y2="3158.28511" stroke="black" stroke-width="4.455"/>
<line x1="746.874261" y1="3204.396474" x2="746.874261" y2="3158.89993" stroke="black" stroke-width="4.455"/>
<line x1="500.946975" y1="3204.396474" x2="500.946975" y2="3157.055476" stroke="black" stroke-width="4.455"/>
<line x1="747.489075" y1="3182.877839" x2="501.561794" y2="3182.877839" stroke="black" stroke-width="4.455"/>
<line x1="1635.576055" y1="2910.002589" x2="1635.576055" y2="2929.936759" stroke="black" stroke-width="4.455005"/>
<line x1="1635.576055" y1="2929.936759" x2="1674.471996" y2="2929.936759" stroke="black" stroke-width="4.455005"/>
<line x1="1674.471996" y1="2929.936759" x2="1674.471996" y2="2910.002589" stroke="black" stroke-width="4.455005"/>
<line x1="1674.471996" y1="2910.002589" x2="1635.576055" y2="2910.002589" stroke="black" stroke-width="4.455005"/>
<line x1="1674.471996" y1="3124.902667" x2="1868.465501" y2="3124.902667" stroke="black" stroke-width="4.455005"/>
<line x1="1634.603657" y1="3125.388866" x2="1634.603657" y2="3145.323035" stroke="black" stroke-width="4.455005"/>
<line x1="1634.603657" y1="3145.323035" x2="1673.499599" y2="3145.323035" stroke="black" stroke-width="4.455005"/>
<line x1="1673.499599" y1="3145.323035" x2="1673.499599" y2="3125.388866" stroke="black" stroke-width="4.455005"/>
<line x1="1673.499599" y1="3125.388866" x2="1634.603657" y2="3125.388866" stroke="black" stroke-width="4.455005"/>
<path d="m 1673.0134,2929.936759 a 194.9659049999998,194.9659049999998 0 0 1 194.96590199999991,194.96590799999967" fill="none" stroke="black" stroke-width="4.455005"/>
<line x1="931.355603" y1="2767.772636" x2="1076.965332" y2="2645.591563" stroke="black" stroke-width="4.455"/>
<line x1="1076.965332" y1="2645.591563" x2="778.843529" y2="2290.303828" stroke="black" stroke-width="4.455"/>
<line x1="778.843529" y1="2290.303828" x2="633.233794" y2="2412.484901" stroke="black" stroke-width="4.455"/>
<line x1="633.233794" y1="2412.484901" x2="648.50643" y2="2430.686115" stroke="black" stroke-width="4.455"/>
<line x1="648.50643" y1="2430.686115" x2="776.642991" y2="2323.166779" stroke="black" stroke-width="4.455"/>
<line x1="776.642991" y1="2323.166779" x2="1043.608629" y2="2641.324029" stroke="black" stroke-width="4.455"/>
<line x1="1043.608629" y1="2641.324029" x2="915.472062" y2="2748.84337" stroke="black" stroke-width="4.455"/>
<line x1="915.472062" y1="2748.84337" x2="931.355603" y2="2767.772636" stroke="black" stroke-width="4.455"/>
<line x1="919.840358" y1="2745.17794" x2="652.874721" y2="2427.020685" stroke="black" stroke-width="4.455"/>
<line x1="785.934943" y1="2587.074242" x2="909.703214" y2="2483.220331" stroke="black" stroke-width="4.455"/>
<line x1="1164.724194" y1="3069.435793" x2="1204.620066" y2="2864.18933" stroke="black" stroke-width="4.455"/>
<line x1="1204.620066" y1="2864.18933" x2="976.983079" y2="2819.941181" stroke="black" stroke-width="4.455"/>
<line x1="976.983079" y1="2819.941181" x2="937.087208" y2="3025.187644" stroke="black" stroke-width="4.455"/>
<line x1="937.087208" y1="3025.187644" x2="1164.724194" y2="3069.435793" stroke="black" stroke-width="4.455"/>
<line x1="1133.004287" y1="3063.270068" x2="1172.900159" y2="2858.023605" stroke="black" stroke-width="4.455"/>
<line x1="2606.463293" y1="1009.241595" x2="2838.360893" y2="1009.241595" stroke="black" stroke-width="4.455"/>
<line x1="2838.360893" y1="1009.241595" x2="2838.360893" y2="1241.614395" stroke="black" stroke-width="4.455"/>
<line x1="2838.360893" y1="1241.614395" x2="2606.463293" y2="1241.614395" stroke="black" stroke-width="4.455"/>
<line x1="2606.463293" y1="1241.614395" x2="2606.463293" y2="1009.241595" stroke="black" stroke-width="4.455"/>
<line x1="2605.988093" y1="1008.766395" x2="2838.360893" y2="1241.614395" stroke="black" stroke-width="4.455"/>
<line x1="2606.463293" y1="1241.139195" x2="2837.885693" y2="1009.241595" stroke="black" stroke-width="4.455"/>
<line x1="2222.519721" y1="1165.407205" x2="2222.519721" y2="1558.239205" stroke="black" stroke-width="4.455"/>
<line x1="2222.519721" y1="1558.239205" x2="2407.055721" y2="1558.239205" stroke="black" stroke-width="4.455"/>
<line x1="2407.055721" y1="1558.239205" x2="2407.055721" y2="1165.407205" stroke="black" stroke-width="4.455"/>
<line x1="2407.055721" y1="1165.407205" x2="2222.519721" y2="1165.407205" stroke="black" stroke-width="4.455"/>
<line x1="2407.055721" y1="1324.599205" x2="2487.839721" y2="1324.599205" stroke="black" stroke-width="4.455"/>
<line x1="2487.839721" y1="1324.599205" x2="2487.839721" y2="1246.191205" stroke="black" stroke-width="4.455"/>
<line x1="2487.839721" y1="1246.191205" x2="2407.055721" y2="1246.191205" stroke="black" stroke-width="4.455"/>
<line x1="2470.415721" y1="1246.983205" x2="2470.415721" y2="1324.599205" stroke="black" stroke-width="4.455"/>
<line x1="2140.943721" y1="1246.191205" x2="2140.943721" y2="1324.599205" stroke="black" stroke-width="4.455"/>
<line x1="2140.943721" y1="1324.599205" x2="2222.519721" y2="1324.599205" stroke="black" stroke-width="4.455"/>
<line x1="2222.519721" y1="1246.191205" x2="2140.943721" y2="1246.191205" stroke="black" stroke-width="4.455"/>
<line x1="2158.367721" y1="1246.983205" x2="2158.367721" y2="1324.599205" stroke="black" stroke-width="4.455"/>
<line x1="2407.055721" y1="1475.871205" x2="2487.839721" y2="1475.871205" stroke="black" stroke-width="4.455"/>
<line x1="2487.839721" y1="1475.871205" x2="2487.839721" y2="1397.463205" stroke="black" stroke-width="4.455"/>
<line x1="2487.839721" y1="1397.463205" x2="2407.055721" y2="1397.463205" stroke="black" stroke-width="4.455"/>
<line x1="2470.415721" y1="1397.463205" x2="2470.415721" y2="1475.871205" stroke="black" stroke-width="4.455"/>
<line x1="2140.943721" y1="1397.463205" x2="2140.943721" y2="1475.871205" stroke="black" stroke-width="4.455"/>
<line x1="2140.943721" y1="1475.871205" x2="2222.519721" y2="1475.871205" stroke="black" stroke-width="4.455"/>
<line x1="2222.519721" y1="1397.463205" x2="2140.943721" y2="1397.463205" stroke="black" stroke-width="4.455"/>
<line x1="2158.367721" y1="1397.463205" x2="2158.367721" y2="1475.871205" stroke="black" stroke-width="4.455"/>
<line x1="776.410792" y1="1575.007587" x2="776.410792" y2="1966.255587" stroke="black" stroke-width="4.455"/>
<line x1="776.410792" y1="1966.255587" x2="950.650792" y2="1966.255587" stroke="black" stroke-width="4.455"/>
<line x1="950.650792" y1="1966.255587" x2="950.650792" y2="1575.007587" stroke="black" stroke-width="4.455"/>
<line x1="950.650792" y1="1575.007587" x2="776.410792" y2="1575.007587" stroke="black" stroke-width="4.455"/>
<line x1="923.722792" y1="1891.015587" x2="923.722792" y2="1606.687587" stroke="black" stroke-width="4.455"/>
<line x1="923.722792" y1="1606.687587" x2="805.714792" y2="1606.687587" stroke="black" stroke-width="4.455"/>
<line x1="805.714792" y1="1606.687587" x2="805.714792" y2="1896.559587" stroke="black" stroke-width="4.455"/>
<path d="m 923.978217,1890.205015 a 63.360001107387035,63.360001107387035 0 0 1 -119.37433399999998,4.293813" fill="none" stroke="black" stroke-width="4.455"/>
<line x1="2450.713483" y1="220.67794" x2="2631.226856" y2="220.67794" stroke="black" stroke-width="4.455"/>
<line x1="2631.226856" y1="220.67794" x2="2631.226856" y2="401.561216" stroke="black" stroke-width="4.455"/>
<line x1="2631.226856" y1="401.561216" x2="2450.713483" y2="401.561216" stroke="black" stroke-width="4.455"/>
<line x1="2450.713483" y1="401.561216" x2="2450.713483" y2="220.67794" stroke="black" stroke-width="4.455"/>
<line x1="2450.34358" y1="220.308036" x2="2631.226856" y2="401.561216" stroke="black" stroke-width="4.455"/>
<line x1="2450.713483" y1="401.191308" x2="2630.856947" y2="220.67794" stroke="black" stroke-width="4.455"/>
<line x1="2835.107109" y1="718.08361" x2="2480.4262" y2="718.08361" stroke="black" stroke-width="4.455"/>
<line x1="2476.858676" y1="718.982194" x2="2476.858676" y2="596.256829" stroke="black" stroke-width="4.455"/>
<line x1="2834.68826" y1="595.218245" x2="2476.583282" y2="595.218245" stroke="black" stroke-width="4.455"/>
<line x1="2834.02544" y1="717.45699" x2="2834.02544" y2="595.457433" stroke="black" stroke-width="4.455"/>
<line x1="2824.739102" y1="708.082942" x2="2713.303073" y2="708.082942" stroke="black" stroke-width="4.455"/>
<line x1="2713.303073" y1="708.082942" x2="2713.303073" y2="605.218913" stroke="black" stroke-width="4.455"/>
<line x1="2824.739102" y1="605.218913" x2="2713.303073" y2="605.218913" stroke="black" stroke-width="4.455"/>
<line x1="2824.739102" y1="708.082942" x2="2824.739102" y2="605.218913" stroke="black" stroke-width="4.455"/>
<line x1="2696.15907" y1="701.653941" x2="2617.582379" y2="701.653941" stroke="black" stroke-width="4.455"/>
<line x1="2696.15907" y1="683.795604" x2="2617.582379" y2="683.795604" stroke="black" stroke-width="4.455"/>
<line x1="2695.444736" y1="665.222931" x2="2617.582379" y2="665.222931" stroke="black" stroke-width="4.455"/>
<line x1="2695.444736" y1="647.364594" x2="2617.582379" y2="647.364594" stroke="black" stroke-width="4.455"/>
<line x1="2696.15907" y1="629.506256" x2="2617.582379" y2="629.506256" stroke="black" stroke-width="4.455"/>
<line x1="2696.15907" y1="611.647913" x2="2617.582379" y2="611.647913" stroke="black" stroke-width="4.455"/>
<line x1="2781.879091" y1="605.933247" x2="2781.879091" y2="618.076919" stroke="black" stroke-width="4.455"/>
<line x1="2781.879091" y1="618.076919" x2="2754.73442" y2="618.076919" stroke="black" stroke-width="4.455"/>
<line x1="2754.73442" y1="618.076919" x2="2754.73442" y2="606.647582" stroke="black" stroke-width="4.455"/>
<line x1="2599.009712" y1="708.082942" x2="2487.573678" y2="708.082942" stroke="black" stroke-width="4.455"/>
<line x1="2487.573678" y1="708.082942" x2="2487.573678" y2="605.218913" stroke="black" stroke-width="4.455"/>
<line x1="2599.009712" y1="605.218913" x2="2487.573678" y2="605.218913" stroke="black" stroke-width="4.455"/>
<line x1="2599.009712" y1="708.082942" x2="2599.009712" y2="605.218913" stroke="black" stroke-width="4.455"/>
<line x1="2556.149696" y1="605.218913" x2="2556.149696" y2="617.362584" stroke="black" stroke-width="4.455"/>
<line x1="2556.149696" y1="617.362584" x2="2529.005025" y2="617.362584" stroke="black" stroke-width="4.455"/>
<line x1="2529.005025" y1="617.362584" x2="2529.005025" y2="605.933247" stroke="black" stroke-width="4.455"/>
<circle cx="2726.161079" cy="695.224936" r="6.4290017181665915" fill="none" stroke="black" stroke-width="4.455"/>
<circle cx="2500.431684" cy="694.510606" r="6.4290017181665915" fill="none" stroke="black" stroke-width="4.455"/>
<line x1="234.655295" y1="2913.791201" x2="466.552895" y2="2913.791201" stroke="black" stroke-width="4.455"/>
<line x1="466.552895" y1="2913.791201" x2="466.552895" y2="3146.164001" stroke="black" stroke-width="4.455"/>
<line x1="466.552895" y1="3146.164001" x2="234.655295" y2="3146.164001" stroke="black" stroke-width="4.455"/>
<line x1="234.655295" y1="3146.164001" x2="234.655295" y2="2913.791201" stroke="black" stroke-width="4.455"/>
<line x1="234.180094" y1="2913.316001" x2="466.552895" y2="3146.164001" stroke="black" stroke-width="4.455"/>
<line x1="234.655295" y1="3145.688801" x2="466.077694" y2="2913.791201" stroke="black" stroke-width="4.455"/>
<line x1="2266.984912" y1="220.477935" x2="2447.498285" y2="220.477935" stroke="black" stroke-width="4.455"/>
<line x1="2447.498285" y1="220.477935" x2="2447.498285" y2="401.361211" stroke="black" stroke-width="4.455"/>
<line x1="2447.498285" y1="401.361211" x2="2266.984912" y2="401.361211" stroke="black" stroke-width="4.455"/>
<line x1="2266.984912" y1="401.361211" x2="2266.984912" y2="220.477935" stroke="black" stroke-width="4.455"/>
<line x1="2266.615009" y1="220.108032" x2="2447.498285" y2="401.361211" stroke="black" stroke-width="4.455"/>
<line x1="2266.984912" y1="400.991303" x2="2447.128377" y2="220.477935" stroke="black" stroke-width="4.455"/>
</g>
</svg>
