<?xml version="1.0"?>
<svg xmlns:xlink="http://www.w3.org/1999/xlink" width="3059.1" height="3341.25">
<image x="0" y="0" width="3059.1" height="3341.25" xlink:href="groundfilled-02.png"/>
<g style="stroke-linecap:round">
<line x1="980.860647" y1="1527.245503" x2="996.301459" y2="1527.245503" stroke="black" stroke-width="4.455"/>
<line x1="996.301459" y1="1527.245503" x2="996.301459" y2="1497.11709" stroke="black" stroke-width="4.455"/>
<line x1="996.301459" y1="1497.11709" x2="980.860647" y2="1497.11709" stroke="black" stroke-width="4.455"/>
<line x1="980.860647" y1="1497.11709" x2="980.860647" y2="1527.245503" stroke="black" stroke-width="4.455"/>
<line x1="1147.320128" y1="1497.11709" x2="1147.320128" y2="1346.851628" stroke="black" stroke-width="4.455"/>
<line x1="1147.696734" y1="1527.99871" x2="1163.137546" y2="1527.99871" stroke="black" stroke-width="4.455"/>
<line x1="1163.137546" y1="1527.99871" x2="1163.137546" y2="1497.870297" stroke="black" stroke-width="4.455"/>
<line x1="1163.137546" y1="1497.870297" x2="1147.696734" y2="1497.870297" stroke="black" stroke-width="4.455"/>
<line x1="1147.696734" y1="1497.870297" x2="1147.696734" y2="1527.99871" stroke="black" stroke-width="4.455"/>
<path d="m 996.301459,1498.246903 a 151.01866900000005,151.01866900000005 0 0 1 151.01866900000005,-151.01866900000005" fill="none" stroke="black" stroke-width="4.455"/>
<line x1="1419.733463" y1="1470.293926" x2="1419.733463" y2="1286.549926" stroke="black" stroke-width="4.455"/>
<line x1="1419.733463" y1="1286.549926" x2="1468.837463" y2="1286.549926" stroke="black" stroke-width="4.455"/>
<line x1="1468.837463" y1="1470.293926" x2="1468.837463" y2="1286.549926" stroke="black" stroke-width="4.455"/>
<line x1="1419.733463" y1="1470.293926" x2="1468.837463" y2="1470.293926" stroke="black" stroke-width="4.455"/>
<line x1="1392.013463" y1="1428.713926" x2="1419.733463" y2="1428.713926" stroke="black" stroke-width="4.455"/>
<line x1="1419.733463" y1="1329.713926" x2="1390.429463" y2="1329.713926" stroke="black" stroke-width="4.455"/>
<circle cx="1346.869463" cy="1380.005926" r="66.528" fill="none" stroke="black" stroke-width="4.455"/>
<circle cx="1346.869463" cy="1380.005926" r="57.02400000000001" fill="none" stroke="black" stroke-width="4.455"/>
<line x1="323.807007" y1="1566.315843" x2="642.259495" y2="1566.315843" stroke="black" stroke-width="4.455"/>
<line x1="642.259495" y1="1566.315843" x2="642.259495" y2="1517.223777" stroke="black" stroke-width="4.455"/>
<line x1="642.259495" y1="1517.223777" x2="323.807007" y2="1517.223777" stroke="black" stroke-width="4.455"/>
<line x1="323.807007" y1="1517.223777" x2="323.807007" y2="1566.315843" stroke="black" stroke-width="4.455"/>
<line x1="353.52063" y1="1517.869728" x2="353.52063" y2="1565.669898" stroke="black" stroke-width="4.455"/>
<line x1="611.899928" y1="1517.869728" x2="611.899928" y2="1567.607738" stroke="black" stroke-width="4.455"/>
<line x1="352.874679" y1="1540.477912" x2="611.253977" y2="1540.477912" stroke="black" stroke-width="4.455"/>
<line x1="979.473117" y1="2198.984946" x2="979.473117" y2="2182.256292" stroke="black" stroke-width="4.455"/>
<line x1="979.473117" y1="2182.256292" x2="946.831837" y2="2182.256292" stroke="black" stroke-width="4.455"/>
<line x1="946.831837" y1="2182.256292" x2="946.831837" y2="2198.984946" stroke="black" stroke-width="4.455"/>
<line x1="946.831837" y1="2198.984946" x2="979.473117" y2="2198.984946" stroke="black" stroke-width="4.455"/>
<line x1="946.831837" y1="2018.641873" x2="784.03345" y2="2018.641873" stroke="black" stroke-width="4.455"/>
<line x1="980.289149" y1="2018.233854" x2="980.289149" y2="2001.505201" stroke="black" stroke-width="4.455"/>
<line x1="980.289149" y1="2001.505201" x2="947.647869" y2="2001.505201" stroke="black" stroke-width="4.455"/>
<line x1="947.647869" y1="2001.505201" x2="947.647869" y2="2018.233854" stroke="black" stroke-width="4.455"/>
<line x1="947.647869" y1="2018.233854" x2="980.289149" y2="2018.233854" stroke="black" stroke-width="4.455"/>
<path d="m 948.055883,2182.256292 a 163.614419,163.614419 0 0 1 -163.614419,-163.614419" fill="none" stroke="black" stroke-width="4.455"/>
<line x1="1378.153191" y1="2409.675112" x2="1378.153191" y2="2394.245769" stroke="black" stroke-width="4.455"/>
<line x1="1378.153191" y1="2394.245769" x2="1348.047157" y2="2394.245769" stroke="black" stroke-width="4.455"/>
<line x1="1348.047157" y1="2394.245769" x2="1348.047157" y2="2409.675112" stroke="black" stroke-width="4.455"/>
<line x1="1348.047157" y1="2409.675112" x2="1378.153191" y2="2409.675112" stroke="black" stroke-width="4.455"/>
<line x1="1348.047157" y1="2243.339267" x2="1197.893303" y2="2243.339267" stroke="black" stroke-width="4.455"/>
<line x1="1378.905843" y1="2242.962944" x2="1378.905843" y2="2227.533601" stroke="black" stroke-width="4.455"/>
<line x1="1378.905843" y1="2227.533601" x2="1348.799805" y2="2227.533601" stroke="black" stroke-width="4.455"/>
<line x1="1348.799805" y1="2227.533601" x2="1348.799805" y2="2242.962944" stroke="black" stroke-width="4.455"/>
<line x1="1348.799805" y1="2242.962944" x2="1378.905843" y2="2242.962944" stroke="black" stroke-width="4.455"/>
<path d="m 1349.176133,2394.245769 a 150.90650200000016,150.90650200000016 0 0 1 -150.90650200000005,-150.90650200000027" fill="none" stroke="black" stroke-width="4.455"/>
<line x1="261.329711" y1="1788.076244" x2="236.777711" y2="1806.688244" stroke="black" stroke-width="4.455"/>
<line x1="236.777711" y1="1806.688244" x2="236.777711" y2="1954.000244" stroke="black" stroke-width="4.455"/>
<line x1="236.777711" y1="1954.000244" x2="264.893711" y2="1973.008244" stroke="black" stroke-width="4.455"/>
<line x1="264.101711" y1="1809.856244" x2="264.101711" y2="1952.812244" stroke="black" stroke-width="4.455"/>
<circle cx="285.881711" cy="1879.156244" r="13.068000000000003" fill="none" stroke="black" stroke-width="4.455"/>
<path d="m 263.434362,1811.409494 a 74.84400049996428,74.84400049996428 0 1 1 0.4020489999999768,139.60900300000003" fill="none" stroke="black" stroke-width="4.455"/>
<path d="m 260.672346,1788.122546 a 95.43599981579763,95.43599981579763 0 1 1 3.074959999999976,184.466997" fill="none" stroke="black" stroke-width="4.455"/>
<line x1="1902.926248" y1="592.852565" x2="1918.36706" y2="592.852565" stroke="black" stroke-width="4.455"/>
<line x1="1918.36706" y1="592.852565" x2="1918.36706" y2="562.724153" stroke="black" stroke-width="4.455"/>
<line x1="1918.36706" y1="562.724153" x2="1902.926248" y2="562.724153" stroke="black" stroke-width="4.455"/>
<line x1="1902.926248" y1="562.724153" x2="1902.926248" y2="592.852565" stroke="black" stroke-width="4.455"/>
<line x1="2069.385729" y1="562.724153" x2="2069.385729" y2="412.458691" stroke="black" stroke-width="4.455"/>
<line x1="2069.762335" y1="593.605772" x2="2085.203147" y2="593.605772" stroke="black" stroke-width="4.455"/>
<line x1="2085.203147" y1="593.605772" x2="2085.203147" y2="563.47736" stroke="black" stroke-width="4.455"/>
<line x1="2085.203147" y1="563.47736" x2="2069.762335" y2="563.47736" stroke="black" stroke-width="4.455"/>
<line x1="2069.762335" y1="563.47736" x2="2069.762335" y2="593.605772" stroke="black" stroke-width="4.455"/>
<path d="m 1918.36706,563.853965 a 151.01866900000002,151.01866900000002 0 0 1 151.01866900000005,-151.018669" fill="none" stroke="black" stroke-width="4.455"/>
<line x1="1899.774603" y1="1104.844802" x2="1899.774603" y2="782.575918" stroke="black" stroke-width="4.455"/>
<line x1="1899.774603" y1="782.575918" x2="1842.133016" y2="782.575918" stroke="black" stroke-width="4.455"/>
<line x1="1842.133016" y1="782.575918" x2="1842.133016" y2="1104.844802" stroke="black" stroke-width="4.455"/>
<line x1="1842.133016" y1="1104.844802" x2="1899.774603" y2="1104.844802" stroke="black" stroke-width="4.455"/>
<line x1="1899.774603" y1="1089.779387" x2="1919.425142" y2="1089.779387" stroke="black" stroke-width="4.455"/>
<line x1="1919.425142" y1="1089.779387" x2="1919.425142" y2="798.29635" stroke="black" stroke-width="4.455"/>
<line x1="1899.774603" y1="798.29635" x2="1919.425142" y2="798.29635" stroke="black" stroke-width="4.455"/>
<line x1="2082.914663" y1="1560.903651" x2="2067.48532" y2="1560.903651" stroke="black" stroke-width="4.455"/>
<line x1="2067.48532" y1="1560.903651" x2="2067.48532" y2="1591.009685" stroke="black" stroke-width="4.455"/>
<line x1="2067.48532" y1="1591.009685" x2="2082.914663" y2="1591.009685" stroke="black" stroke-width="4.455"/>
<line x1="2082.914663" y1="1591.009685" x2="2082.914663" y2="1560.903651" stroke="black" stroke-width="4.455"/>
<line x1="1916.578818" y1="1591.009685" x2="1916.578818" y2="1741.16354" stroke="black" stroke-width="4.455"/>
<line x1="1916.202494" y1="1560.150999" x2="1900.773151" y2="1560.150999" stroke="black" stroke-width="4.455"/>
<line x1="1900.773151" y1="1560.150999" x2="1900.773151" y2="1590.257038" stroke="black" stroke-width="4.455"/>
<line x1="1900.773151" y1="1590.257038" x2="1916.202494" y2="1590.257038" stroke="black" stroke-width="4.455"/>
<line x1="1916.202494" y1="1590.257038" x2="1916.202494" y2="1560.150999" stroke="black" stroke-width="4.455"/>
<path d="m 2067.48532,1589.880709 a 150.90650199999993,150.90650199999993 0 0 1 -150.90650199999982,150.90650200000005" fill="none" stroke="black" stroke-width="4.455"/>
<line x1="2260.978439" y1="3149.061295" x2="1942.546092" y2="3149.061295" stroke="black" stroke-width="4.455"/>
<line x1="1942.546092" y1="3149.061295" x2="1942.546092" y2="3206.016678" stroke="black" stroke-width="4.455"/>
<line x1="1942.546092" y1="3206.016678" x2="2260.978439" y2="3206.016678" stroke="black" stroke-width="4.455"/>
<line x1="2260.978439" y1="3206.016678" x2="2260.978439" y2="3149.061295" stroke="black" stroke-width="4.455"/>
<line x1="2246.092373" y1="3149.061295" x2="2246.092373" y2="3129.644692" stroke="black" stroke-width="4.455"/>
<line x1="2246.092373" y1="3129.644692" x2="1958.079375" y2="3129.644692" stroke="black" stroke-width="4.455"/>
<line x1="1958.079375" y1="3149.061295" x2="1958.079375" y2="3129.644692" stroke="black" stroke-width="4.455"/>
<line x1="775.146314" y1="3150.80076" x2="472.060106" y2="3150.80076" stroke="black" stroke-width="4.455"/>
<line x1="472.060106" y1="3150.80076" x2="472.060106" y2="3205.011298" stroke="black" stroke-width="4.455"/>
<line x1="472.060106" y1="3205.011298" x2="775.146314" y2="3205.011298" stroke="black" stroke-width="4.455"/>
<line x1="775.146314" y1="3205.011298" x2="775.146314" y2="3150.80076" stroke="black" stroke-width="4.455"/>
<line x1="760.977652" y1="3150.80076" x2="760.977652" y2="3132.31989" stroke="black" stroke-width="4.455"/>
<line x1="760.977652" y1="3132.31989" x2="486.844796" y2="3132.31989" stroke="black" stroke-width="4.455"/>
<line x1="486.844796" y1="3150.80076" x2="486.844796" y2="3132.31989" stroke="black" stroke-width="4.455"/>
<line x1="1635.576055" y1="2910.002589" x2="1635.576055" y2="2929.936759" stroke="black" stroke-width="4.455005"/>
<line x1="1635.576055" y1="2929.936759" x2="1674.471996" y2="2929.936759" stroke="black" stroke-width="4.455005"/>
<line x1="1674.471996" y1="2929.936759" x2="1674.471996" y2="2910.002589" stroke="black" stroke-width="4.455005"/>
<line x1="1674.471996" y1="2910.002589" x2="1635.576055" y2="2910.002589" stroke="black" stroke-width="4.455005"/>
<line x1="1674.471996" y1="3124.902667" x2="1868.465501" y2="3124.902667" stroke="black" stroke-width="4.455005"/>
<line x1="1634.603657" y1="3125.388866" x2="1634.603657" y2="3145.323035" stroke="black" stroke-width="4.455005"/>
<line x1="1634.603657" y1="3145.323035" x2="1673.499599" y2="3145.323035" stroke="black" stroke-width="4.455005"/>
<line x1="1673.499599" y1="3145.323035" x2="1673.499599" y2="3125.388866" stroke="black" stroke-width="4.455005"/>
<line x1="1673.499599" y1="3125.388866" x2="1634.603657" y2="3125.388866" stroke="black" stroke-width="4.455005"/>
<path d="m 1673.0134,2929.936759 a 194.9659049999998,194.9659049999998 0 0 1 194.96590199999991,194.96590799999967" fill="none" stroke="black" stroke-width="4.455005"/>
<line x1="2281.745525" y1="2280.606318" x2="2413.127435" y2="2266.797525" stroke="black" stroke-width="4.455"/>
<line x1="2413.127435" y1="2266.797525" x2="2414.617593" y2="2280.975429" stroke="black" stroke-width="4.455"/>
<line x1="2283.235683" y1="2294.784226" x2="2414.617593" y2="2280.975429" stroke="black" stroke-width="4.455"/>
<line x1="2281.745525" y1="2280.606318" x2="2283.235683" y2="2294.784226" stroke="black" stroke-width="4.455"/>
<line x1="2296.468395" y1="2293.39341" x2="2297.856355" y2="2324.783488" stroke="black" stroke-width="4.455"/>
<line x1="2401.384882" y1="2282.366241" x2="2406.652964" y2="2314.304136" stroke="black" stroke-width="4.455"/>
<line x1="2329.927296" y1="2739.025224" x2="2461.309206" y2="2725.216426" stroke="black" stroke-width="4.455"/>
<line x1="2461.309206" y1="2725.216426" x2="2459.91839" y2="2711.983715" stroke="black" stroke-width="4.455"/>
<line x1="2328.53648" y1="2725.792507" x2="2459.91839" y2="2711.983715" stroke="black" stroke-width="4.455"/>
<line x1="2329.927296" y1="2739.025224" x2="2328.53648" y2="2725.792507" stroke="black" stroke-width="4.455"/>
<line x1="2340.62531" y1="2722.610652" x2="2335.456575" y2="2691.61795" stroke="black" stroke-width="4.455"/>
<line x1="2445.541798" y1="2711.583488" x2="2444.999688" y2="2679.148875" stroke="black" stroke-width="4.455"/>
<line x1="2592.887225" y1="2413.228876" x2="2578.709321" y2="2414.719034" stroke="black" stroke-width="4.455"/>
<line x1="2578.709321" y1="2414.719034" x2="2592.518113" y2="2546.100949" stroke="black" stroke-width="4.455"/>
<line x1="2606.696017" y1="2544.610786" x2="2592.518113" y2="2546.100949" stroke="black" stroke-width="4.455"/>
<line x1="2592.887225" y1="2413.228876" x2="2606.696017" y2="2544.610786" stroke="black" stroke-width="4.455"/>
<line x1="2591.027955" y1="2531.923045" x2="2559.189407" y2="2538.136314" stroke="black" stroke-width="4.455"/>
<line x1="2580.100132" y1="2427.951745" x2="2547.764861" y2="2429.439052" stroke="black" stroke-width="4.455"/>
<line x1="2135.31417" y1="2460.366107" x2="2149.492074" y2="2458.875949" stroke="black" stroke-width="4.455"/>
<line x1="2149.492074" y1="2458.875949" x2="2163.300871" y2="2590.257864" stroke="black" stroke-width="4.455"/>
<line x1="2149.122967" y1="2591.748017" x2="2163.300871" y2="2590.257864" stroke="black" stroke-width="4.455"/>
<line x1="2135.31417" y1="2460.366107" x2="2149.122967" y2="2591.748017" stroke="black" stroke-width="4.455"/>
<line x1="2161.810713" y1="2576.079955" x2="2194.245326" y2="2575.537851" stroke="black" stroke-width="4.455"/>
<line x1="2150.88289" y1="2472.10866" x2="2182.820785" y2="2466.840583" stroke="black" stroke-width="4.455"/>
<circle cx="2371.005094" cy="2502.488449" r="191.9808" fill="none" stroke="black" stroke-width="4.455"/>
<line x1="874.445413" y1="2730.645512" x2="1020.055143" y2="2608.464439" stroke="black" stroke-width="4.455"/>
<line x1="1020.055143" y1="2608.464439" x2="721.933339" y2="2253.176704" stroke="black" stroke-width="4.455"/>
<line x1="721.933339" y1="2253.176704" x2="576.323604" y2="2375.357777" stroke="black" stroke-width="4.455"/>
<line x1="576.323604" y1="2375.357777" x2="591.59624" y2="2393.558991" stroke="black" stroke-width="4.455"/>
<line x1="591.59624" y1="2393.558991" x2="719.732802" y2="2286.039655" stroke="black" stroke-width="4.455"/>
<line x1="719.732802" y1="2286.039655" x2="986.698439" y2="2604.196906" stroke="black" stroke-width="4.455"/>
<line x1="986.698439" y1="2604.196906" x2="858.561873" y2="2711.716247" stroke="black" stroke-width="4.455"/>
<line x1="858.561873" y1="2711.716247" x2="874.445413" y2="2730.645512" stroke="black" stroke-width="4.455"/>
<line x1="862.930169" y1="2708.050816" x2="595.964531" y2="2389.893561" stroke="black" stroke-width="4.455"/>
<line x1="729.024754" y1="2549.947118" x2="852.793024" y2="2446.093208" stroke="black" stroke-width="4.455"/>
<line x1="1155.793602" y1="3075.679995" x2="1209.909556" y2="2873.716491" stroke="black" stroke-width="4.455"/>
<line x1="1209.909556" y1="2873.716491" x2="985.913676" y2="2813.696978" stroke="black" stroke-width="4.455"/>
<line x1="985.913676" y1="2813.696978" x2="931.797717" y2="3015.660478" stroke="black" stroke-width="4.455"/>
<line x1="931.797717" y1="3015.660478" x2="1155.793602" y2="3075.679995" stroke="black" stroke-width="4.455"/>
<line x1="1124.58106" y1="3067.316614" x2="1178.69702" y2="2865.353119" stroke="black" stroke-width="4.455"/>
<line x1="2117.975721" y1="1476.663205" x2="2510.807721" y2="1476.663205" stroke="black" stroke-width="4.455"/>
<line x1="2510.807721" y1="1476.663205" x2="2510.807721" y2="1292.127205" stroke="black" stroke-width="4.455"/>
<line x1="2510.807721" y1="1292.127205" x2="2117.975721" y2="1292.127205" stroke="black" stroke-width="4.455"/>
<line x1="2117.975721" y1="1292.127205" x2="2117.975721" y2="1476.663205" stroke="black" stroke-width="4.455"/>
<line x1="2277.167721" y1="1292.127205" x2="2277.167721" y2="1211.343205" stroke="black" stroke-width="4.455"/>
<line x1="2277.167721" y1="1211.343205" x2="2198.759721" y2="1211.343205" stroke="black" stroke-width="4.455"/>
<line x1="2198.759721" y1="1211.343205" x2="2198.759721" y2="1292.127205" stroke="black" stroke-width="4.455"/>
<line x1="2199.551721" y1="1228.767205" x2="2277.167721" y2="1228.767205" stroke="black" stroke-width="4.455"/>
<line x1="2198.759721" y1="1558.239205" x2="2277.167721" y2="1558.239205" stroke="black" stroke-width="4.455"/>
<line x1="2277.167721" y1="1558.239205" x2="2277.167721" y2="1476.663205" stroke="black" stroke-width="4.455"/>
<line x1="2198.759721" y1="1476.663205" x2="2198.759721" y2="1558.239205" stroke="black" stroke-width="4.455"/>
<line x1="2199.551721" y1="1540.815205" x2="2277.167721" y2="1540.815205" stroke="black" stroke-width="4.455"/>
<line x1="2428.439721" y1="1292.127205" x2="2428.439721" y2="1211.343205" stroke="black" stroke-width="4.455"/>
<line x1="2428.439721" y1="1211.343205" x2="2350.031721" y2="1211.343205" stroke="black" stroke-width="4.455"/>
<line x1="2350.031721" y1="1211.343205" x2="2350.031721" y2="1292.127205" stroke="black" stroke-width="4.455"/>
<line x1="2350.031721" y1="1228.767205" x2="2428.439721" y2="1228.767205" stroke="black" stroke-width="4.455"/>
<line x1="2350.031721" y1="1558.239205" x2="2428.439721" y2="1558.239205" stroke="black" stroke-width="4.455"/>
<line x1="2428.439721" y1="1558.239205" x2="2428.439721" y2="1476.663205" stroke="black" stroke-width="4.455"/>
<line x1="2350.031721" y1="1476.663205" x2="2350.031721" y2="1558.239205" stroke="black" stroke-width="4.455"/>
<line x1="2350.031721" y1="1540.815205" x2="2428.439721" y2="1540.815205" stroke="black" stroke-width="4.455"/>
<line x1="2606.38239" y1="999.411628" x2="2838.27999" y2="999.411628" stroke="black" stroke-width="4.455"/>
<line x1="2838.27999" y1="999.411628" x2="2838.27999" y2="1231.784428" stroke="black" stroke-width="4.455"/>
<line x1="2838.27999" y1="1231.784428" x2="2606.38239" y2="1231.784428" stroke="black" stroke-width="4.455"/>
<line x1="2606.38239" y1="1231.784428" x2="2606.38239" y2="999.411628" stroke="black" stroke-width="4.455"/>
<line x1="2605.90719" y1="998.936428" x2="2838.27999" y2="1231.784428" stroke="black" stroke-width="4.455"/>
<line x1="2606.38239" y1="1231.309228" x2="2837.80479" y2="999.411628" stroke="black" stroke-width="4.455"/>
<line x1="2604.028126" y1="2916.847261" x2="2835.925726" y2="2916.847261" stroke="black" stroke-width="4.455"/>
<line x1="2835.925726" y1="2916.847261" x2="2835.925726" y2="3149.220061" stroke="black" stroke-width="4.455"/>
<line x1="2835.925726" y1="3149.220061" x2="2604.028126" y2="3149.220061" stroke="black" stroke-width="4.455"/>
<line x1="2604.028126" y1="3149.220061" x2="2604.028126" y2="2916.847261" stroke="black" stroke-width="4.455"/>
<line x1="2603.552926" y1="2916.372061" x2="2835.925726" y2="3149.220061" stroke="black" stroke-width="4.455"/>
<line x1="2604.028126" y1="3148.744861" x2="2835.450526" y2="2916.847261" stroke="black" stroke-width="4.455"/>
<line x1="950.650792" y1="1966.255587" x2="950.650792" y2="1575.007587" stroke="black" stroke-width="4.455"/>
<line x1="950.650792" y1="1575.007587" x2="776.410792" y2="1575.007587" stroke="black" stroke-width="4.455"/>
<line x1="776.410792" y1="1575.007587" x2="776.410792" y2="1966.255587" stroke="black" stroke-width="4.455"/>
<line x1="776.410792" y1="1966.255587" x2="950.650792" y2="1966.255587" stroke="black" stroke-width="4.455"/>
<line x1="803.338792" y1="1650.247587" x2="803.338792" y2="1934.575587" stroke="black" stroke-width="4.455"/>
<line x1="803.338792" y1="1934.575587" x2="921.346792" y2="1934.575587" stroke="black" stroke-width="4.455"/>
<line x1="921.346792" y1="1934.575587" x2="921.346792" y2="1644.703587" stroke="black" stroke-width="4.455"/>
<path d="m 803.083367,1651.05816 a 63.3600003087793,63.3600003087793 0 0 1 119.37433300000009,-4.293813" fill="none" stroke="black" stroke-width="4.455"/>
<line x1="2450.713483" y1="220.67794" x2="2631.226856" y2="220.67794" stroke="black" stroke-width="4.455"/>
<line x1="2631.226856" y1="220.67794" x2="2631.226856" y2="401.561216" stroke="black" stroke-width="4.455"/>
<line x1="2631.226856" y1="401.561216" x2="2450.713483" y2="401.561216" stroke="black" stroke-width="4.455"/>
<line x1="2450.713483" y1="401.561216" x2="2450.713483" y2="220.67794" stroke="black" stroke-width="4.455"/>
<line x1="2450.34358" y1="220.308036" x2="2631.226856" y2="401.561216" stroke="black" stroke-width="4.455"/>
<line x1="2450.713483" y1="401.191308" x2="2630.856947" y2="220.67794" stroke="black" stroke-width="4.455"/>
<line x1="2835.107109" y1="718.08361" x2="2480.4262" y2="718.08361" stroke="black" stroke-width="4.455"/>
<line x1="2476.858676" y1="718.982194" x2="2476.858676" y2="596.256829" stroke="black" stroke-width="4.455"/>
<line x1="2834.68826" y1="595.218245" x2="2476.583282" y2="595.218245" stroke="black" stroke-width="4.455"/>
<line x1="2834.02544" y1="717.45699" x2="2834.02544" y2="595.457433" stroke="black" stroke-width="4.455"/>
<line x1="2824.739102" y1="708.082942" x2="2713.303073" y2="708.082942" stroke="black" stroke-width="4.455"/>
<line x1="2713.303073" y1="708.082942" x2="2713.303073" y2="605.218913" stroke="black" stroke-width="4.455"/>
<line x1="2824.739102" y1="605.218913" x2="2713.303073" y2="605.218913" stroke="black" stroke-width="4.455"/>
<line x1="2824.739102" y1="708.082942" x2="2824.739102" y2="605.218913" stroke="black" stroke-width="4.455"/>
<line x1="2696.15907" y1="701.653941" x2="2617.582379" y2="701.653941" stroke="black" stroke-width="4.455"/>
<line x1="2696.15907" y1="683.795604" x2="2617.582379" y2="683.795604" stroke="black" stroke-width="4.455"/>
<line x1="2695.444736" y1="665.222931" x2="2617.582379" y2="665.222931" stroke="black" stroke-width="4.455"/>
<line x1="2695.444736" y1="647.364594" x2="2617.582379" y2="647.364594" stroke="black" stroke-width="4.455"/>
<line x1="2696.15907" y1="629.506256" x2="2617.582379" y2="629.506256" stroke="black" stroke-width="4.455"/>
<line x1="2696.15907" y1="611.647913" x2="2617.582379" y2="611.647913" stroke="black" stroke-width="4.455"/>
<line x1="2781.879091" y1="605.933247" x2="2781.879091" y2="618.076919" stroke="black" stroke-width="4.455"/>
<line x1="2781.879091" y1="618.076919" x2="2754.73442" y2="618.076919" stroke="black" stroke-width="4.455"/>
<line x1="2754.73442" y1="618.076919" x2="2754.73442" y2="606.647582" stroke="black" stroke-width="4.455"/>
<line x1="2599.009712" y1="708.082942" x2="2487.573678" y2="708.082942" stroke="black" stroke-width="4.455"/>
<line x1="2487.573678" y1="708.082942" x2="2487.573678" y2="605.218913" stroke="black" stroke-width="4.455"/>
<line x1="2599.009712" y1="605.218913" x2="2487.573678" y2="605.218913" stroke="black" stroke-width="4.455"/>
<line x1="2599.009712" y1="708.082942" x2="2599.009712" y2="605.218913" stroke="black" stroke-width="4.455"/>
<line x1="2556.149696" y1="605.218913" x2="2556.149696" y2="617.362584" stroke="black" stroke-width="4.455"/>
<line x1="2556.149696" y1="617.362584" x2="2529.005025" y2="617.362584" stroke="black" stroke-width="4.455"/>
<line x1="2529.005025" y1="617.362584" x2="2529.005025" y2="605.933247" stroke="black" stroke-width="4.455"/>
<circle cx="2726.161079" cy="695.224936" r="6.4290017181665915" fill="none" stroke="black" stroke-width="4.455"/>
<circle cx="2500.431684" cy="694.510606" r="6.4290017181665915" fill="none" stroke="black" stroke-width="4.455"/>
<line x1="234.655295" y1="2913.791201" x2="466.552895" y2="2913.791201" stroke="black" stroke-width="4.455"/>
<line x1="466.552895" y1="2913.791201" x2="466.552895" y2="3146.164001" stroke="black" stroke-width="4.455"/>
<line x1="466.552895" y1="3146.164001" x2="234.655295" y2="3146.164001" stroke="black" stroke-width="4.455"/>
<line x1="234.655295" y1="3146.164001" x2="234.655295" y2="2913.791201" stroke="black" stroke-width="4.455"/>
<line x1="234.180094" y1="2913.316001" x2="466.552895" y2="3146.164001" stroke="black" stroke-width="4.455"/>
<line x1="234.655295" y1="3145.688801" x2="466.077694" y2="2913.791201" stroke="black" stroke-width="4.455"/>
<line x1="2633.926041" y1="220.479044" x2="2814.439414" y2="220.479044" stroke="black" stroke-width="4.455"/>
<line x1="2814.439414" y1="220.479044" x2="2814.439414" y2="401.36232" stroke="black" stroke-width="4.455"/>
<line x1="2814.439414" y1="401.36232" x2="2633.926041" y2="401.36232" stroke="black" stroke-width="4.455"/>
<line x1="2633.926041" y1="401.36232" x2="2633.926041" y2="220.479044" stroke="black" stroke-width="4.455"/>
<line x1="2633.556138" y1="220.10914" x2="2814.439414" y2="401.36232" stroke="black" stroke-width="4.455"/>
<line x1="2633.926041" y1="400.992412" x2="2814.069506" y2="220.479044" stroke="black" stroke-width="4.455"/>
</g>
</svg>
