<?xml version="1.0"?>
<svg xmlns:xlink="http://www.w3.org/1999/xlink" width="3059.1" height="3341.25">
<image x="0" y="0" width="3059.1" height="3341.25" xlink:href="groundfilled-02.png"/>
<g style="stroke-linecap:round">
<line x1="980.860647" y1="1527.245503" x2="996.301459" y2="1527.245503" stroke="black" stroke-width="4.455"/>
<line x1="996.301459" y1="1527.245503" x2="996.301459" y2="1497.11709" stroke="black" stroke-width="4.455"/>
<line x1="996.301459" y1="1497.11709" x2="980.860647" y2="1497.11709" stroke="black" stroke-width="4.455"/>
<line x1="980.860647" y1="1497.11709" x2="980.860647" y2="1527.245503" stroke="black" stroke-width="4.455"/>
<line x1="1147.320128" y1="1497.11709" x2="1147.320128" y2="1346.851628" stroke="black" stroke-width="4.455"/>
<line x1="1147.696734" y1="1527.99871" x2="1163.137546" y2="1527.99871" stroke="black" stroke-width="4.455"/>
<line x1="1163.137546" y1="1527.99871" x2="1163.137546" y2="1497.870297" stroke="black" stroke-width="4.455"/>
<line x1="1163.137546" y1="1497.870297" x2="1147.696734" y2="1497.870297" stroke="black" stroke-width="4.455"/>
<line x1="1147.696734" y1="1497.870297" x2="1147.696734" y2="1527.99871" stroke="black" stroke-width="4.455"/>
<path d="m 996.301459,1498.246903 a 151.01866900000005,151.01866900000005 0 0 1 151.01866900000005,-151.01866900000005" fill="none" stroke="black" stroke-width="4.455"/>
<line x1="1419.733463" y1="1470.293926" x2="1419.733463" y2="1286.549926" stroke="black" stroke-width="4.455"/>
<line x1="1419.733463" y1="1286.549926" x2="1468.837463" y2="1286.549926" stroke="black" stroke-width="4.455"/>
<line x1="1468.837463" y1="1470.293926" x2="1468.837463" y2="1286.549926" stroke="black" stroke-width="4.455"/>
<line x1="1419.733463" y1="1470.293926" x2="1468.837463" y2="1470.293926" stroke="black" stroke-width="4.455"/>
<line x1="1392.013463" y1="1428.713926" x2="1419.733463" y2="1428.713926" stroke="black" stroke-width="4.455"/>
<line x1="1419.733463" y1="1329.713926" x2="1390.429463" y2="1329.713926" stroke="black" stroke-width="4.455"/>
<circle cx="1346.869463" cy="1380.005926" r="66.528" fill="none" stroke="black" stroke-width="4.455"/>
<circle cx="1346.869463" cy="1380.005926" r="57.02400000000001" fill="none" stroke="black" stroke-width="4.455"/>
<line x1="323.817075" y1="1574.17916" x2="642.249422" y2="1574.17916" stroke="black" stroke-width="4.455"/>
<line x1="642.249422" y1="1574.17916" x2="642.249422" y2="1517.223777" stroke="black" stroke-width="4.455"/>
<line x1="642.249422" y1="1517.223777" x2="323.817075" y2="1517.223777" stroke="black" stroke-width="4.455"/>
<line x1="323.817075" y1="1517.223777" x2="323.817075" y2="1574.17916" stroke="black" stroke-width="4.455"/>
<line x1="338.703141" y1="1574.17916" x2="338.703141" y2="1593.595763" stroke="black" stroke-width="4.455"/>
<line x1="338.703141" y1="1593.595763" x2="626.716139" y2="1593.595763" stroke="black" stroke-width="4.455"/>
<line x1="626.716139" y1="1574.17916" x2="626.716139" y2="1593.595763" stroke="black" stroke-width="4.455"/>
<line x1="979.473117" y1="2198.984946" x2="979.473117" y2="2182.256292" stroke="black" stroke-width="4.455"/>
<line x1="979.473117" y1="2182.256292" x2="946.831837" y2="2182.256292" stroke="black" stroke-width="4.455"/>
<line x1="946.831837" y1="2182.256292" x2="946.831837" y2="2198.984946" stroke="black" stroke-width="4.455"/>
<line x1="946.831837" y1="2198.984946" x2="979.473117" y2="2198.984946" stroke="black" stroke-width="4.455"/>
<line x1="946.831837" y1="2018.641873" x2="784.03345" y2="2018.641873" stroke="black" stroke-width="4.455"/>
<line x1="980.289149" y1="2018.233854" x2="980.289149" y2="2001.505201" stroke="black" stroke-width="4.455"/>
<line x1="980.289149" y1="2001.505201" x2="947.647869" y2="2001.505201" stroke="black" stroke-width="4.455"/>
<line x1="947.647869" y1="2001.505201" x2="947.647869" y2="2018.233854" stroke="black" stroke-width="4.455"/>
<line x1="947.647869" y1="2018.233854" x2="980.289149" y2="2018.233854" stroke="black" stroke-width="4.455"/>
<path d="m 948.055883,2182.256292 a 163.614419,163.614419 0 0 1 -163.614419,-163.614419" fill="none" stroke="black" stroke-width="4.455"/>
<line x1="1378.153191" y1="2409.675112" x2="1378.153191" y2="2394.245769" stroke="black" stroke-width="4.455"/>
<line x1="1378.153191" y1="2394.245769" x2="1348.047157" y2="2394.245769" stroke="black" stroke-width="4.455"/>
<line x1="1348.047157" y1="2394.245769" x2="1348.047157" y2="2409.675112" stroke="black" stroke-width="4.455"/>
<line x1="1348.047157" y1="2409.675112" x2="1378.153191" y2="2409.675112" stroke="black" stroke-width="4.455"/>
<line x1="1348.047157" y1="2243.339267" x2="1197.893303" y2="2243.339267" stroke="black" stroke-width="4.455"/>
<line x1="1378.905843" y1="2242.962944" x2="1378.905843" y2="2227.533601" stroke="black" stroke-width="4.455"/>
<line x1="1378.905843" y1="2227.533601" x2="1348.799805" y2="2227.533601" stroke="black" stroke-width="4.455"/>
<line x1="1348.799805" y1="2227.533601" x2="1348.799805" y2="2242.962944" stroke="black" stroke-width="4.455"/>
<line x1="1348.799805" y1="2242.962944" x2="1378.905843" y2="2242.962944" stroke="black" stroke-width="4.455"/>
<path d="m 1349.176133,2394.245769 a 150.90650200000016,150.90650200000016 0 0 1 -150.90650200000005,-150.90650200000027" fill="none" stroke="black" stroke-width="4.455"/>
<line x1="373.001711" y1="1681.245433" x2="373.001711" y2="2074.489303" stroke="black" stroke-width="4.455"/>
<line x1="373.997988" y1="2078.444709" x2="237.929215" y2="2078.444709" stroke="black" stroke-width="4.455"/>
<line x1="236.777711" y1="1681.709822" x2="236.777711" y2="2078.75005" stroke="black" stroke-width="4.455"/>
<line x1="372.306959" y1="1682.444709" x2="237.042902" y2="1682.444709" stroke="black" stroke-width="4.455"/>
<line x1="361.913711" y1="1692.740709" x2="361.913711" y2="1816.292709" stroke="black" stroke-width="4.455"/>
<line x1="361.913711" y1="1816.292709" x2="247.865711" y2="1816.292709" stroke="black" stroke-width="4.455"/>
<line x1="247.865711" y1="1692.740709" x2="247.865711" y2="1816.292709" stroke="black" stroke-width="4.455"/>
<line x1="361.913711" y1="1692.740709" x2="247.865711" y2="1692.740709" stroke="black" stroke-width="4.455"/>
<line x1="354.785711" y1="1835.300709" x2="354.785711" y2="1922.420709" stroke="black" stroke-width="4.455"/>
<line x1="334.985711" y1="1835.300709" x2="334.985711" y2="1922.420709" stroke="black" stroke-width="4.455"/>
<line x1="314.393711" y1="1836.092709" x2="314.393711" y2="1922.420709" stroke="black" stroke-width="4.455"/>
<line x1="294.593711" y1="1836.092709" x2="294.593711" y2="1922.420709" stroke="black" stroke-width="4.455"/>
<line x1="274.793711" y1="1835.300709" x2="274.793711" y2="1922.420709" stroke="black" stroke-width="4.455"/>
<line x1="254.993711" y1="1835.300709" x2="254.993711" y2="1922.420709" stroke="black" stroke-width="4.455"/>
<line x1="248.657711" y1="1740.260709" x2="262.121711" y2="1740.260709" stroke="black" stroke-width="4.455"/>
<line x1="262.121711" y1="1740.260709" x2="262.121711" y2="1770.356709" stroke="black" stroke-width="4.455"/>
<line x1="262.121711" y1="1770.356709" x2="249.449711" y2="1770.356709" stroke="black" stroke-width="4.455"/>
<line x1="361.913711" y1="1943.012709" x2="361.913711" y2="2066.564709" stroke="black" stroke-width="4.455"/>
<line x1="361.913711" y1="2066.564709" x2="247.865711" y2="2066.564709" stroke="black" stroke-width="4.455"/>
<line x1="247.865711" y1="1943.012709" x2="247.865711" y2="2066.564709" stroke="black" stroke-width="4.455"/>
<line x1="361.913711" y1="1943.012709" x2="247.865711" y2="1943.012709" stroke="black" stroke-width="4.455"/>
<line x1="247.865711" y1="1990.532709" x2="261.329711" y2="1990.532709" stroke="black" stroke-width="4.455"/>
<line x1="261.329711" y1="1990.532709" x2="261.329711" y2="2020.628709" stroke="black" stroke-width="4.455"/>
<line x1="261.329711" y1="2020.628709" x2="248.657711" y2="2020.628709" stroke="black" stroke-width="4.455"/>
<circle cx="347.657711" cy="1802.036709" r="7.128000000000001" fill="none" stroke="black" stroke-width="4.455"/>
<circle cx="346.865711" cy="2052.308709" r="7.128000000000001" fill="none" stroke="black" stroke-width="4.455"/>
<line x1="435.085398" y1="2196.427108" x2="584.656291" y2="2196.427108" stroke="black" stroke-width="4.455"/>
<line x1="584.656291" y1="2196.427108" x2="584.656291" y2="2030.539396" stroke="black" stroke-width="4.455"/>
<line x1="584.656291" y1="2030.539396" x2="435.085398" y2="2030.539396" stroke="black" stroke-width="4.455"/>
<line x1="435.085398" y1="2030.539396" x2="435.085398" y2="2196.427108" stroke="black" stroke-width="4.455"/>
<line x1="435.085398" y1="2173.311608" x2="584.656291" y2="2173.311608" stroke="black" stroke-width="4.455"/>
<line x1="1902.926248" y1="592.852565" x2="1918.36706" y2="592.852565" stroke="black" stroke-width="4.455"/>
<line x1="1918.36706" y1="592.852565" x2="1918.36706" y2="562.724153" stroke="black" stroke-width="4.455"/>
<line x1="1918.36706" y1="562.724153" x2="1902.926248" y2="562.724153" stroke="black" stroke-width="4.455"/>
<line x1="1902.926248" y1="562.724153" x2="1902.926248" y2="592.852565" stroke="black" stroke-width="4.455"/>
<line x1="2069.385729" y1="562.724153" x2="2069.385729" y2="412.458691" stroke="black" stroke-width="4.455"/>
<line x1="2069.762335" y1="593.605772" x2="2085.203147" y2="593.605772" stroke="black" stroke-width="4.455"/>
<line x1="2085.203147" y1="593.605772" x2="2085.203147" y2="563.47736" stroke="black" stroke-width="4.455"/>
<line x1="2085.203147" y1="563.47736" x2="2069.762335" y2="563.47736" stroke="black" stroke-width="4.455"/>
<line x1="2069.762335" y1="563.47736" x2="2069.762335" y2="593.605772" stroke="black" stroke-width="4.455"/>
<path d="m 1918.36706,563.853965 a 151.01866900000002,151.01866900000002 0 0 1 151.01866900000005,-151.018669" fill="none" stroke="black" stroke-width="4.455"/>
<line x1="1891.816552" y1="1104.854989" x2="1891.816552" y2="782.565726" stroke="black" stroke-width="4.455"/>
<line x1="1891.816552" y1="782.565726" x2="1842.133016" y2="782.565726" stroke="black" stroke-width="4.455"/>
<line x1="1842.133016" y1="782.565726" x2="1842.133016" y2="1104.854989" stroke="black" stroke-width="4.455"/>
<line x1="1842.133016" y1="1104.854989" x2="1891.816552" y2="1104.854989" stroke="black" stroke-width="4.455"/>
<line x1="1842.786747" y1="1074.783377" x2="1891.16282" y2="1074.783377" stroke="black" stroke-width="4.455"/>
<line x1="1842.786747" y1="813.291074" x2="1893.124015" y2="813.291074" stroke="black" stroke-width="4.455"/>
<line x1="1865.667321" y1="1075.437109" x2="1865.667321" y2="813.944805" stroke="black" stroke-width="4.455"/>
<line x1="2082.914663" y1="1560.903651" x2="2067.48532" y2="1560.903651" stroke="black" stroke-width="4.455"/>
<line x1="2067.48532" y1="1560.903651" x2="2067.48532" y2="1591.009685" stroke="black" stroke-width="4.455"/>
<line x1="2067.48532" y1="1591.009685" x2="2082.914663" y2="1591.009685" stroke="black" stroke-width="4.455"/>
<line x1="2082.914663" y1="1591.009685" x2="2082.914663" y2="1560.903651" stroke="black" stroke-width="4.455"/>
<line x1="1916.578818" y1="1591.009685" x2="1916.578818" y2="1741.16354" stroke="black" stroke-width="4.455"/>
<line x1="1916.202494" y1="1560.150999" x2="1900.773151" y2="1560.150999" stroke="black" stroke-width="4.455"/>
<line x1="1900.773151" y1="1560.150999" x2="1900.773151" y2="1590.257038" stroke="black" stroke-width="4.455"/>
<line x1="1900.773151" y1="1590.257038" x2="1916.202494" y2="1590.257038" stroke="black" stroke-width="4.455"/>
<line x1="1916.202494" y1="1590.257038" x2="1916.202494" y2="1560.150999" stroke="black" stroke-width="4.455"/>
<path d="m 2067.48532,1589.880709 a 150.90650199999993,150.90650199999993 0 0 1 -150.90650199999982,150.90650200000005" fill="none" stroke="black" stroke-width="4.455"/>
<line x1="2260.988507" y1="3156.924613" x2="1942.536019" y2="3156.924613" stroke="black" stroke-width="4.455"/>
<line x1="1942.536019" y1="3156.924613" x2="1942.536019" y2="3206.016678" stroke="black" stroke-width="4.455"/>
<line x1="1942.536019" y1="3206.016678" x2="2260.988507" y2="3206.016678" stroke="black" stroke-width="4.455"/>
<line x1="2260.988507" y1="3206.016678" x2="2260.988507" y2="3156.924613" stroke="black" stroke-width="4.455"/>
<line x1="2231.274885" y1="3205.370728" x2="2231.274885" y2="3157.570558" stroke="black" stroke-width="4.455"/>
<line x1="1972.895587" y1="3205.370728" x2="1972.895587" y2="3155.632717" stroke="black" stroke-width="4.455"/>
<line x1="2231.920835" y1="3182.762543" x2="1973.541537" y2="3182.762543" stroke="black" stroke-width="4.455"/>
<line x1="775.146314" y1="3150.80076" x2="472.060106" y2="3150.80076" stroke="black" stroke-width="4.455"/>
<line x1="472.060106" y1="3150.80076" x2="472.060106" y2="3205.011298" stroke="black" stroke-width="4.455"/>
<line x1="472.060106" y1="3205.011298" x2="775.146314" y2="3205.011298" stroke="black" stroke-width="4.455"/>
<line x1="775.146314" y1="3205.011298" x2="775.146314" y2="3150.80076" stroke="black" stroke-width="4.455"/>
<line x1="760.977652" y1="3150.80076" x2="760.977652" y2="3132.31989" stroke="black" stroke-width="4.455"/>
<line x1="760.977652" y1="3132.31989" x2="486.844796" y2="3132.31989" stroke="black" stroke-width="4.455"/>
<line x1="486.844796" y1="3150.80076" x2="486.844796" y2="3132.31989" stroke="black" stroke-width="4.455"/>
<line x1="1635.576055" y1="2910.002589" x2="1635.576055" y2="2929.936759" stroke="black" stroke-width="4.455005"/>
<line x1="1635.576055" y1="2929.936759" x2="1674.471996" y2="2929.936759" stroke="black" stroke-width="4.455005"/>
<line x1="1674.471996" y1="2929.936759" x2="1674.471996" y2="2910.002589" stroke="black" stroke-width="4.455005"/>
<line x1="1674.471996" y1="2910.002589" x2="1635.576055" y2="2910.002589" stroke="black" stroke-width="4.455005"/>
<line x1="1674.471996" y1="3124.902667" x2="1868.465501" y2="3124.902667" stroke="black" stroke-width="4.455005"/>
<line x1="1634.603657" y1="3125.388866" x2="1634.603657" y2="3145.323035" stroke="black" stroke-width="4.455005"/>
<line x1="1634.603657" y1="3145.323035" x2="1673.499599" y2="3145.323035" stroke="black" stroke-width="4.455005"/>
<line x1="1673.499599" y1="3145.323035" x2="1673.499599" y2="3125.388866" stroke="black" stroke-width="4.455005"/>
<line x1="1673.499599" y1="3125.388866" x2="1634.603657" y2="3125.388866" stroke="black" stroke-width="4.455005"/>
<path d="m 1673.0134,2929.936759 a 194.9659049999998,194.9659049999998 0 0 1 194.96590199999991,194.96590799999967" fill="none" stroke="black" stroke-width="4.455005"/>
<line x1="2200.618599" y1="2667.651619" x2="2130.613294" y2="2555.619719" stroke="black" stroke-width="4.455"/>
<line x1="2130.613294" y1="2555.619719" x2="2142.70307" y2="2548.065188" stroke="black" stroke-width="4.455"/>
<line x1="2212.70837" y1="2660.097092" x2="2142.70307" y2="2548.065188" stroke="black" stroke-width="4.455"/>
<line x1="2200.618599" y1="2667.651619" x2="2212.70837" y2="2660.097092" stroke="black" stroke-width="4.455"/>
<line x1="2205.657477" y1="2648.8133" x2="2233.26225" y2="2633.805311" stroke="black" stroke-width="4.455"/>
<line x1="2149.753964" y1="2559.34898" x2="2176.15018" y2="2540.613408" stroke="black" stroke-width="4.455"/>
<line x1="2591.521277" y1="2423.388518" x2="2521.515977" y2="2311.356614" stroke="black" stroke-width="4.455"/>
<line x1="2521.515977" y1="2311.356614" x2="2510.232189" y2="2318.407507" stroke="black" stroke-width="4.455"/>
<line x1="2580.23749" y1="2430.439412" x2="2510.232189" y2="2318.407507" stroke="black" stroke-width="4.455"/>
<line x1="2591.521277" y1="2423.388518" x2="2580.23749" y2="2430.439412" stroke="black" stroke-width="4.455"/>
<line x1="2572.078262" y1="2420.968879" x2="2546.488034" y2="2439.200808" stroke="black" stroke-width="4.455"/>
<line x1="2516.174748" y1="2331.504549" x2="2487.260353" y2="2346.210197" stroke="black" stroke-width="4.455"/>
<line x1="2183.423418" y1="2329.861411" x2="2190.977945" y2="2341.951187" stroke="black" stroke-width="4.455"/>
<line x1="2190.977945" y1="2341.951187" x2="2303.009849" y2="2271.945882" stroke="black" stroke-width="4.455"/>
<line x1="2295.455318" y1="2259.856111" x2="2303.009849" y2="2271.945882" stroke="black" stroke-width="4.455"/>
<line x1="2183.423418" y1="2329.861411" x2="2295.455318" y2="2259.856111" stroke="black" stroke-width="4.455"/>
<line x1="2290.920078" y1="2279.500413" x2="2310.461629" y2="2305.392992" stroke="black" stroke-width="4.455"/>
<line x1="2202.261737" y1="2334.900294" x2="2217.773364" y2="2363.311051" stroke="black" stroke-width="4.455"/>
<line x1="2426.376902" y1="2720.461743" x2="2418.822376" y2="2708.371972" stroke="black" stroke-width="4.455"/>
<line x1="2418.822376" y1="2708.371972" x2="2530.854275" y2="2638.366667" stroke="black" stroke-width="4.455"/>
<line x1="2538.408807" y1="2650.456443" x2="2530.854275" y2="2638.366667" stroke="black" stroke-width="4.455"/>
<line x1="2426.376902" y1="2720.461743" x2="2538.408807" y2="2650.456443" stroke="black" stroke-width="4.455"/>
<line x1="2518.764504" y1="2645.921193" x2="2504.058856" y2="2617.006803" stroke="black" stroke-width="4.455"/>
<line x1="2430.106163" y1="2701.321079" x2="2411.370596" y2="2674.924862" stroke="black" stroke-width="4.455"/>
<circle cx="2360.916112" cy="2490.15893" r="191.9808" fill="none" stroke="black" stroke-width="4.455"/>
<line x1="1029.343303" y1="2740.951368" x2="1124.383303" y2="2576.337261" stroke="black" stroke-width="4.455"/>
<line x1="1124.383303" y1="2576.337261" x2="722.724879" y2="2344.439661" stroke="black" stroke-width="4.455"/>
<line x1="722.724879" y1="2344.439661" x2="627.684879" y2="2509.053768" stroke="black" stroke-width="4.455"/>
<line x1="627.684879" y1="2509.053768" x2="648.261643" y2="2520.933768" stroke="black" stroke-width="4.455"/>
<line x1="648.261643" y1="2520.933768" x2="731.896843" y2="2376.073354" stroke="black" stroke-width="4.455"/>
<line x1="731.896843" y1="2376.073354" x2="1091.578673" y2="2583.735754" stroke="black" stroke-width="4.455"/>
<line x1="1091.578673" y1="2583.735754" x2="1007.943473" y2="2728.596168" stroke="black" stroke-width="4.455"/>
<line x1="1007.943473" y1="2728.596168" x2="1029.343303" y2="2740.951368" stroke="black" stroke-width="4.455"/>
<line x1="1010.794673" y1="2723.657746" x2="651.112843" y2="2515.995346" stroke="black" stroke-width="4.455"/>
<line x1="830.890096" y1="2620.887217" x2="911.674096" y2="2480.965225" stroke="black" stroke-width="4.455"/>
<line x1="1155.793602" y1="3075.679995" x2="1209.909556" y2="2873.716491" stroke="black" stroke-width="4.455"/>
<line x1="1209.909556" y1="2873.716491" x2="985.913676" y2="2813.696978" stroke="black" stroke-width="4.455"/>
<line x1="985.913676" y1="2813.696978" x2="931.797717" y2="3015.660478" stroke="black" stroke-width="4.455"/>
<line x1="931.797717" y1="3015.660478" x2="1155.793602" y2="3075.679995" stroke="black" stroke-width="4.455"/>
<line x1="1124.58106" y1="3067.316614" x2="1178.69702" y2="2865.353119" stroke="black" stroke-width="4.455"/>
<line x1="2606.574307" y1="1022.729464" x2="2838.471907" y2="1022.729464" stroke="black" stroke-width="4.455"/>
<line x1="2838.471907" y1="1022.729464" x2="2838.471907" y2="1255.102264" stroke="black" stroke-width="4.455"/>
<line x1="2838.471907" y1="1255.102264" x2="2606.574307" y2="1255.102264" stroke="black" stroke-width="4.455"/>
<line x1="2606.574307" y1="1255.102264" x2="2606.574307" y2="1022.729464" stroke="black" stroke-width="4.455"/>
<line x1="2606.099107" y1="1022.254264" x2="2838.471907" y2="1255.102264" stroke="black" stroke-width="4.455"/>
<line x1="2606.574307" y1="1254.627064" x2="2837.996707" y2="1022.729464" stroke="black" stroke-width="4.455"/>
<line x1="2222.519721" y1="1165.407205" x2="2222.519721" y2="1558.239205" stroke="black" stroke-width="4.455"/>
<line x1="2222.519721" y1="1558.239205" x2="2407.055721" y2="1558.239205" stroke="black" stroke-width="4.455"/>
<line x1="2407.055721" y1="1558.239205" x2="2407.055721" y2="1165.407205" stroke="black" stroke-width="4.455"/>
<line x1="2407.055721" y1="1165.407205" x2="2222.519721" y2="1165.407205" stroke="black" stroke-width="4.455"/>
<line x1="2407.055721" y1="1324.599205" x2="2487.839721" y2="1324.599205" stroke="black" stroke-width="4.455"/>
<line x1="2487.839721" y1="1324.599205" x2="2487.839721" y2="1246.191205" stroke="black" stroke-width="4.455"/>
<line x1="2487.839721" y1="1246.191205" x2="2407.055721" y2="1246.191205" stroke="black" stroke-width="4.455"/>
<line x1="2470.415721" y1="1246.983205" x2="2470.415721" y2="1324.599205" stroke="black" stroke-width="4.455"/>
<line x1="2140.943721" y1="1246.191205" x2="2140.943721" y2="1324.599205" stroke="black" stroke-width="4.455"/>
<line x1="2140.943721" y1="1324.599205" x2="2222.519721" y2="1324.599205" stroke="black" stroke-width="4.455"/>
<line x1="2222.519721" y1="1246.191205" x2="2140.943721" y2="1246.191205" stroke="black" stroke-width="4.455"/>
<line x1="2158.367721" y1="1246.983205" x2="2158.367721" y2="1324.599205" stroke="black" stroke-width="4.455"/>
<line x1="2407.055721" y1="1475.871205" x2="2487.839721" y2="1475.871205" stroke="black" stroke-width="4.455"/>
<line x1="2487.839721" y1="1475.871205" x2="2487.839721" y2="1397.463205" stroke="black" stroke-width="4.455"/>
<line x1="2487.839721" y1="1397.463205" x2="2407.055721" y2="1397.463205" stroke="black" stroke-width="4.455"/>
<line x1="2470.415721" y1="1397.463205" x2="2470.415721" y2="1475.871205" stroke="black" stroke-width="4.455"/>
<line x1="2140.943721" y1="1397.463205" x2="2140.943721" y2="1475.871205" stroke="black" stroke-width="4.455"/>
<line x1="2140.943721" y1="1475.871205" x2="2222.519721" y2="1475.871205" stroke="black" stroke-width="4.455"/>
<line x1="2222.519721" y1="1397.463205" x2="2140.943721" y2="1397.463205" stroke="black" stroke-width="4.455"/>
<line x1="2158.367721" y1="1397.463205" x2="2158.367721" y2="1475.871205" stroke="black" stroke-width="4.455"/>
<line x1="2604.028126" y1="2916.847261" x2="2835.925726" y2="2916.847261" stroke="black" stroke-width="4.455"/>
<line x1="2835.925726" y1="2916.847261" x2="2835.925726" y2="3149.220061" stroke="black" stroke-width="4.455"/>
<line x1="2835.925726" y1="3149.220061" x2="2604.028126" y2="3149.220061" stroke="black" stroke-width="4.455"/>
<line x1="2604.028126" y1="3149.220061" x2="2604.028126" y2="2916.847261" stroke="black" stroke-width="4.455"/>
<line x1="2603.552926" y1="2916.372061" x2="2835.925726" y2="3149.220061" stroke="black" stroke-width="4.455"/>
<line x1="2604.028126" y1="3148.744861" x2="2835.450526" y2="2916.847261" stroke="black" stroke-width="4.455"/>
<line x1="776.410792" y1="1575.007587" x2="776.410792" y2="1966.255587" stroke="black" stroke-width="4.455"/>
<line x1="776.410792" y1="1966.255587" x2="950.650792" y2="1966.255587" stroke="black" stroke-width="4.455"/>
<line x1="950.650792" y1="1966.255587" x2="950.650792" y2="1575.007587" stroke="black" stroke-width="4.455"/>
<line x1="950.650792" y1="1575.007587" x2="776.410792" y2="1575.007587" stroke="black" stroke-width="4.455"/>
<line x1="923.722792" y1="1891.015587" x2="923.722792" y2="1606.687587" stroke="black" stroke-width="4.455"/>
<line x1="923.722792" y1="1606.687587" x2="805.714792" y2="1606.687587" stroke="black" stroke-width="4.455"/>
<line x1="805.714792" y1="1606.687587" x2="805.714792" y2="1896.559587" stroke="black" stroke-width="4.455"/>
<path d="m 923.978217,1890.205015 a 63.360001107387035,63.360001107387035 0 0 1 -119.37433399999998,4.293813" fill="none" stroke="black" stroke-width="4.455"/>
<line x1="2450.713483" y1="220.67794" x2="2631.226856" y2="220.67794" stroke="black" stroke-width="4.455"/>
<line x1="2631.226856" y1="220.67794" x2="2631.226856" y2="401.561216" stroke="black" stroke-width="4.455"/>
<line x1="2631.226856" y1="401.561216" x2="2450.713483" y2="401.561216" stroke="black" stroke-width="4.455"/>
<line x1="2450.713483" y1="401.561216" x2="2450.713483" y2="220.67794" stroke="black" stroke-width="4.455"/>
<line x1="2450.34358" y1="220.308036" x2="2631.226856" y2="401.561216" stroke="black" stroke-width="4.455"/>
<line x1="2450.713483" y1="401.191308" x2="2630.856947" y2="220.67794" stroke="black" stroke-width="4.455"/>
<line x1="2835.107109" y1="718.08361" x2="2480.4262" y2="718.08361" stroke="black" stroke-width="4.455"/>
<line x1="2476.858676" y1="718.982194" x2="2476.858676" y2="596.256829" stroke="black" stroke-width="4.455"/>
<line x1="2834.68826" y1="595.218245" x2="2476.583282" y2="595.218245" stroke="black" stroke-width="4.455"/>
<line x1="2834.02544" y1="717.45699" x2="2834.02544" y2="595.457433" stroke="black" stroke-width="4.455"/>
<line x1="2824.739102" y1="708.082942" x2="2713.303073" y2="708.082942" stroke="black" stroke-width="4.455"/>
<line x1="2713.303073" y1="708.082942" x2="2713.303073" y2="605.218913" stroke="black" stroke-width="4.455"/>
<line x1="2824.739102" y1="605.218913" x2="2713.303073" y2="605.218913" stroke="black" stroke-width="4.455"/>
<line x1="2824.739102" y1="708.082942" x2="2824.739102" y2="605.218913" stroke="black" stroke-width="4.455"/>
<line x1="2696.15907" y1="701.653941" x2="2617.582379" y2="701.653941" stroke="black" stroke-width="4.455"/>
<line x1="2696.15907" y1="683.795604" x2="2617.582379" y2="683.795604" stroke="black" stroke-width="4.455"/>
<line x1="2695.444736" y1="665.222931" x2="2617.582379" y2="665.222931" stroke="black" stroke-width="4.455"/>
<line x1="2695.444736" y1="647.364594" x2="2617.582379" y2="647.364594" stroke="black" stroke-width="4.455"/>
<line x1="2696.15907" y1="629.506256" x2="2617.582379" y2="629.506256" stroke="black" stroke-width="4.455"/>
<line x1="2696.15907" y1="611.647913" x2="2617.582379" y2="611.647913" stroke="black" stroke-width="4.455"/>
<line x1="2781.879091" y1="605.933247" x2="2781.879091" y2="618.076919" stroke="black" stroke-width="4.455"/>
<line x1="2781.879091" y1="618.076919" x2="2754.73442" y2="618.076919" stroke="black" stroke-width="4.455"/>
<line x1="2754.73442" y1="618.076919" x2="2754.73442" y2="606.647582" stroke="black" stroke-width="4.455"/>
<line x1="2599.009712" y1="708.082942" x2="2487.573678" y2="708.082942" stroke="black" stroke-width="4.455"/>
<line x1="2487.573678" y1="708.082942" x2="2487.573678" y2="605.218913" stroke="black" stroke-width="4.455"/>
<line x1="2599.009712" y1="605.218913" x2="2487.573678" y2="605.218913" stroke="black" stroke-width="4.455"/>
<line x1="2599.009712" y1="708.082942" x2="2599.009712" y2="605.218913" stroke="black" stroke-width="4.455"/>
<line x1="2556.149696" y1="605.218913" x2="2556.149696" y2="617.362584" stroke="black" stroke-width="4.455"/>
<line x1="2556.149696" y1="617.362584" x2="2529.005025" y2="617.362584" stroke="black" stroke-width="4.455"/>
<line x1="2529.005025" y1="617.362584" x2="2529.005025" y2="605.933247" stroke="black" stroke-width="4.455"/>
<circle cx="2726.161079" cy="695.224936" r="6.4290017181665915" fill="none" stroke="black" stroke-width="4.455"/>
<circle cx="2500.431684" cy="694.510606" r="6.4290017181665915" fill="none" stroke="black" stroke-width="4.455"/>
<line x1="234.655295" y1="2913.791201" x2="466.552895" y2="2913.791201" stroke="black" stroke-width="4.455"/>
<line x1="466.552895" y1="2913.791201" x2="466.552895" y2="3146.164001" stroke="black" stroke-width="4.455"/>
<line x1="466.552895" y1="3146.164001" x2="234.655295" y2="3146.164001" stroke="black" stroke-width="4.455"/>
<line x1="234.655295" y1="3146.164001" x2="234.655295" y2="2913.791201" stroke="black" stroke-width="4.455"/>
<line x1="234.180094" y1="2913.316001" x2="466.552895" y2="3146.164001" stroke="black" stroke-width="4.455"/>
<line x1="234.655295" y1="3145.688801" x2="466.077694" y2="2913.791201" stroke="black" stroke-width="4.455"/>
<line x1="2266.984912" y1="220.477935" x2="2447.498285" y2="220.477935" stroke="black" stroke-width="4.455"/>
<line x1="2447.498285" y1="220.477935" x2="2447.498285" y2="401.361211" stroke="black" stroke-width="4.455"/>
<line x1="2447.498285" y1="401.361211" x2="2266.984912" y2="401.361211" stroke="black" stroke-width="4.455"/>
<line x1="2266.984912" y1="401.361211" x2="2266.984912" y2="220.477935" stroke="black" stroke-width="4.455"/>
<line x1="2266.615009" y1="220.108032" x2="2447.498285" y2="401.361211" stroke="black" stroke-width="4.455"/>
<line x1="2266.984912" y1="400.991303" x2="2447.128377" y2="220.477935" stroke="black" stroke-width="4.455"/>
<line x1="2633.926041" y1="220.479044" x2="2814.439414" y2="220.479044" stroke="black" stroke-width="4.455"/>
<line x1="2814.439414" y1="220.479044" x2="2814.439414" y2="401.36232" stroke="black" stroke-width="4.455"/>
<line x1="2814.439414" y1="401.36232" x2="2633.926041" y2="401.36232" stroke="black" stroke-width="4.455"/>
<line x1="2633.926041" y1="401.36232" x2="2633.926041" y2="220.479044" stroke="black" stroke-width="4.455"/>
<line x1="2633.556138" y1="220.10914" x2="2814.439414" y2="401.36232" stroke="black" stroke-width="4.455"/>
<line x1="2633.926041" y1="400.992412" x2="2814.069506" y2="220.479044" stroke="black" stroke-width="4.455"/>
<line x1="2476.291856" y1="717.011252" x2="2226.819751" y2="717.011252" stroke="black" stroke-width="4.454995"/>
<line x1="2226.819751" y1="717.011252" x2="2226.819751" y2="595.34248" stroke="black" stroke-width="4.454995"/>
<line x1="2476.291856" y1="595.34248" x2="2226.819751" y2="595.34248" stroke="black" stroke-width="4.454995"/>
<line x1="2476.291856" y1="717.011252" x2="2476.291856" y2="595.34248" stroke="black" stroke-width="4.454995"/>
<line x1="2470.157296" y1="710.876692" x2="2342.865175" y2="710.876692" stroke="black" stroke-width="4.454995"/>
<line x1="2342.865175" y1="710.876692" x2="2342.865175" y2="601.988256" stroke="black" stroke-width="4.454995"/>
<line x1="2470.157296" y1="601.988256" x2="2342.865175" y2="601.988256" stroke="black" stroke-width="4.454995"/>
<line x1="2470.157296" y1="710.876692" x2="2470.157296" y2="601.988256" stroke="black" stroke-width="4.454995"/>
<line x1="2329.573628" y1="703.71971" x2="2240.111298" y2="703.71971" stroke="black" stroke-width="4.454995"/>
<line x1="2329.573628" y1="684.804815" x2="2240.111298" y2="684.804815" stroke="black" stroke-width="4.454995"/>
<line x1="2329.062417" y1="665.378708" x2="2239.600082" y2="665.378708" stroke="black" stroke-width="4.454995"/>
<line x1="2329.062417" y1="646.463812" x2="2239.600082" y2="646.463812" stroke="black" stroke-width="4.454995"/>
<line x1="2329.573628" y1="627.548922" x2="2240.111298" y2="627.548922" stroke="black" stroke-width="4.454995"/>
<line x1="2329.573628" y1="608.634027" x2="2240.111298" y2="608.634027" stroke="black" stroke-width="4.454995"/>
<line x1="2421.592029" y1="601.988256" x2="2421.592029" y2="614.768586" stroke="black" stroke-width="4.454995"/>
<line x1="2421.592029" y1="614.768586" x2="2389.896803" y2="614.768586" stroke="black" stroke-width="4.454995"/>
<line x1="2389.896803" y1="614.768586" x2="2389.896803" y2="602.499467" stroke="black" stroke-width="4.454995"/>
<circle cx="2357.17915" cy="697.073934" r="7.668199943036171" fill="none" stroke="black" stroke-width="4.454995"/>
</g>
</svg>
