<?xml version="1.0"?>
<svg xmlns:xlink="http://www.w3.org/1999/xlink" width="3059.1" height="3341.25">
<image x="0" y="0" width="3059.1" height="3341.25" xlink:href="groundfilled-02.png"/>
<g style="stroke-linecap:round">
<line x1="980.860647" y1="1527.245503" x2="996.301459" y2="1527.245503" stroke="black" stroke-width="4.455"/>
<line x1="996.301459" y1="1527.245503" x2="996.301459" y2="1497.11709" stroke="black" stroke-width="4.455"/>
<line x1="996.301459" y1="1497.11709" x2="980.860647" y2="1497.11709" stroke="black" stroke-width="4.455"/>
<line x1="980.860647" y1="1497.11709" x2="980.860647" y2="1527.245503" stroke="black" stroke-width="4.455"/>
<line x1="1147.320128" y1="1497.11709" x2="1147.320128" y2="1346.851628" stroke="black" stroke-width="4.455"/>
<line x1="1147.696734" y1="1527.99871" x2="1163.137546" y2="1527.99871" stroke="black" stroke-width="4.455"/>
<line x1="1163.137546" y1="1527.99871" x2="1163.137546" y2="1497.870297" stroke="black" stroke-width="4.455"/>
<line x1="1163.137546" y1="1497.870297" x2="1147.696734" y2="1497.870297" stroke="black" stroke-width="4.455"/>
<line x1="1147.696734" y1="1497.870297" x2="1147.696734" y2="1527.99871" stroke="black" stroke-width="4.455"/>
<path d="m 996.301459,1498.246903 a 151.01866900000005,151.01866900000005 0 0 1 151.01866900000005,-151.01866900000005" fill="none" stroke="black" stroke-width="4.455"/>
<line x1="1419.733463" y1="1470.293926" x2="1419.733463" y2="1286.549926" stroke="black" stroke-width="4.455"/>
<line x1="1419.733463" y1="1286.549926" x2="1468.837463" y2="1286.549926" stroke="black" stroke-width="4.455"/>
<line x1="1468.837463" y1="1470.293926" x2="1468.837463" y2="1286.549926" stroke="black" stroke-width="4.455"/>
<line x1="1419.733463" y1="1470.293926" x2="1468.837463" y2="1470.293926" stroke="black" stroke-width="4.455"/>
<line x1="1392.013463" y1="1428.713926" x2="1419.733463" y2="1428.713926" stroke="black" stroke-width="4.455"/>
<line x1="1419.733463" y1="1329.713926" x2="1390.429463" y2="1329.713926" stroke="black" stroke-width="4.455"/>
<circle cx="1346.869463" cy="1380.005926" r="66.528" fill="none" stroke="black" stroke-width="4.455"/>
<circle cx="1346.869463" cy="1380.005926" r="57.02400000000001" fill="none" stroke="black" stroke-width="4.455"/>
<line x1="323.807007" y1="1566.315843" x2="642.259495" y2="1566.315843" stroke="black" stroke-width="4.455"/>
<line x1="642.259495" y1="1566.315843" x2="642.259495" y2="1517.223777" stroke="black" stroke-width="4.455"/>
<line x1="642.259495" y1="1517.223777" x2="323.807007" y2="1517.223777" stroke="black" stroke-width="4.455"/>
<line x1="323.807007" y1="1517.223777" x2="323.807007" y2="1566.315843" stroke="black" stroke-width="4.455"/>
<line x1="353.52063" y1="1517.869728" x2="353.52063" y2="1565.669898" stroke="black" stroke-width="4.455"/>
<line x1="611.899928" y1="1517.869728" x2="611.899928" y2="1567.607738" stroke="black" stroke-width="4.455"/>
<line x1="352.874679" y1="1540.477912" x2="611.253977" y2="1540.477912" stroke="black" stroke-width="4.455"/>
<line x1="979.473117" y1="2198.984946" x2="979.473117" y2="2182.256292" stroke="black" stroke-width="4.455"/>
<line x1="979.473117" y1="2182.256292" x2="946.831837" y2="2182.256292" stroke="black" stroke-width="4.455"/>
<line x1="946.831837" y1="2182.256292" x2="946.831837" y2="2198.984946" stroke="black" stroke-width="4.455"/>
<line x1="946.831837" y1="2198.984946" x2="979.473117" y2="2198.984946" stroke="black" stroke-width="4.455"/>
<line x1="946.831837" y1="2018.641873" x2="784.03345" y2="2018.641873" stroke="black" stroke-width="4.455"/>
<line x1="980.289149" y1="2018.233854" x2="980.289149" y2="2001.505201" stroke="black" stroke-width="4.455"/>
<line x1="980.289149" y1="2001.505201" x2="947.647869" y2="2001.505201" stroke="black" stroke-width="4.455"/>
<line x1="947.647869" y1="2001.505201" x2="947.647869" y2="2018.233854" stroke="black" stroke-width="4.455"/>
<line x1="947.647869" y1="2018.233854" x2="980.289149" y2="2018.233854" stroke="black" stroke-width="4.455"/>
<path d="m 948.055883,2182.256292 a 163.614419,163.614419 0 0 1 -163.614419,-163.614419" fill="none" stroke="black" stroke-width="4.455"/>
<line x1="1378.153191" y1="2409.675112" x2="1378.153191" y2="2394.245769" stroke="black" stroke-width="4.455"/>
<line x1="1378.153191" y1="2394.245769" x2="1348.047157" y2="2394.245769" stroke="black" stroke-width="4.455"/>
<line x1="1348.047157" y1="2394.245769" x2="1348.047157" y2="2409.675112" stroke="black" stroke-width="4.455"/>
<line x1="1348.047157" y1="2409.675112" x2="1378.153191" y2="2409.675112" stroke="black" stroke-width="4.455"/>
<line x1="1348.047157" y1="2243.339267" x2="1197.893303" y2="2243.339267" stroke="black" stroke-width="4.455"/>
<line x1="1378.905843" y1="2242.962944" x2="1378.905843" y2="2227.533601" stroke="black" stroke-width="4.455"/>
<line x1="1378.905843" y1="2227.533601" x2="1348.799805" y2="2227.533601" stroke="black" stroke-width="4.455"/>
<line x1="1348.799805" y1="2227.533601" x2="1348.799805" y2="2242.962944" stroke="black" stroke-width="4.455"/>
<line x1="1348.799805" y1="2242.962944" x2="1378.905843" y2="2242.962944" stroke="black" stroke-width="4.455"/>
<path d="m 1349.176133,2394.245769 a 150.90650200000016,150.90650200000016 0 0 1 -150.90650200000005,-150.90650200000027" fill="none" stroke="black" stroke-width="4.455"/>
<line x1="368.724911" y1="1744.724144" x2="368.724911" y2="2015.271344" stroke="black" stroke-width="4.455"/>
<line x1="368.724911" y1="2015.271344" x2="236.777711" y2="2015.271344" stroke="black" stroke-width="4.455"/>
<line x1="236.777711" y1="1744.724144" x2="236.777711" y2="2015.271344" stroke="black" stroke-width="4.455"/>
<line x1="368.724911" y1="1744.724144" x2="236.777711" y2="1744.724144" stroke="black" stroke-width="4.455"/>
<line x1="362.072111" y1="1751.376944" x2="362.072111" y2="1889.422544" stroke="black" stroke-width="4.455"/>
<line x1="362.072111" y1="1889.422544" x2="243.984911" y2="1889.422544" stroke="black" stroke-width="4.455"/>
<line x1="243.984911" y1="1751.376944" x2="243.984911" y2="1889.422544" stroke="black" stroke-width="4.455"/>
<line x1="362.072111" y1="1751.376944" x2="243.984911" y2="1751.376944" stroke="black" stroke-width="4.455"/>
<line x1="354.310511" y1="1903.836944" x2="354.310511" y2="2000.856944" stroke="black" stroke-width="4.455"/>
<line x1="333.797711" y1="1903.836944" x2="333.797711" y2="2000.856944" stroke="black" stroke-width="4.455"/>
<line x1="312.730511" y1="1904.391344" x2="312.730511" y2="2001.411344" stroke="black" stroke-width="4.455"/>
<line x1="292.217711" y1="1904.391344" x2="292.217711" y2="2001.411344" stroke="black" stroke-width="4.455"/>
<line x1="271.704911" y1="1903.836944" x2="271.704911" y2="2000.856944" stroke="black" stroke-width="4.455"/>
<line x1="251.192111" y1="1903.836944" x2="251.192111" y2="2000.856944" stroke="black" stroke-width="4.455"/>
<line x1="243.984911" y1="1804.044944" x2="257.844911" y2="1804.044944" stroke="black" stroke-width="4.455"/>
<line x1="257.844911" y1="1804.044944" x2="257.844911" y2="1838.417744" stroke="black" stroke-width="4.455"/>
<line x1="257.844911" y1="1838.417744" x2="244.539311" y2="1838.417744" stroke="black" stroke-width="4.455"/>
<circle cx="347.103311" cy="1873.899344" r="8.316" fill="none" stroke="black" stroke-width="4.455"/>
<line x1="1902.926248" y1="592.852565" x2="1918.36706" y2="592.852565" stroke="black" stroke-width="4.455"/>
<line x1="1918.36706" y1="592.852565" x2="1918.36706" y2="562.724153" stroke="black" stroke-width="4.455"/>
<line x1="1918.36706" y1="562.724153" x2="1902.926248" y2="562.724153" stroke="black" stroke-width="4.455"/>
<line x1="1902.926248" y1="562.724153" x2="1902.926248" y2="592.852565" stroke="black" stroke-width="4.455"/>
<line x1="2069.385729" y1="562.724153" x2="2069.385729" y2="412.458691" stroke="black" stroke-width="4.455"/>
<line x1="2069.762335" y1="593.605772" x2="2085.203147" y2="593.605772" stroke="black" stroke-width="4.455"/>
<line x1="2085.203147" y1="593.605772" x2="2085.203147" y2="563.47736" stroke="black" stroke-width="4.455"/>
<line x1="2085.203147" y1="563.47736" x2="2069.762335" y2="563.47736" stroke="black" stroke-width="4.455"/>
<line x1="2069.762335" y1="563.47736" x2="2069.762335" y2="593.605772" stroke="black" stroke-width="4.455"/>
<path d="m 1918.36706,563.853965 a 151.01866900000002,151.01866900000002 0 0 1 151.01866900000005,-151.018669" fill="none" stroke="black" stroke-width="4.455"/>
<line x1="1891.816552" y1="1104.854989" x2="1891.816552" y2="782.565726" stroke="black" stroke-width="4.455"/>
<line x1="1891.816552" y1="782.565726" x2="1842.133016" y2="782.565726" stroke="black" stroke-width="4.455"/>
<line x1="1842.133016" y1="782.565726" x2="1842.133016" y2="1104.854989" stroke="black" stroke-width="4.455"/>
<line x1="1842.133016" y1="1104.854989" x2="1891.816552" y2="1104.854989" stroke="black" stroke-width="4.455"/>
<line x1="1842.786747" y1="1074.783377" x2="1891.16282" y2="1074.783377" stroke="black" stroke-width="4.455"/>
<line x1="1842.786747" y1="813.291074" x2="1893.124015" y2="813.291074" stroke="black" stroke-width="4.455"/>
<line x1="1865.667321" y1="1075.437109" x2="1865.667321" y2="813.944805" stroke="black" stroke-width="4.455"/>
<line x1="2082.914663" y1="1560.903651" x2="2067.48532" y2="1560.903651" stroke="black" stroke-width="4.455"/>
<line x1="2067.48532" y1="1560.903651" x2="2067.48532" y2="1591.009685" stroke="black" stroke-width="4.455"/>
<line x1="2067.48532" y1="1591.009685" x2="2082.914663" y2="1591.009685" stroke="black" stroke-width="4.455"/>
<line x1="2082.914663" y1="1591.009685" x2="2082.914663" y2="1560.903651" stroke="black" stroke-width="4.455"/>
<line x1="1916.578818" y1="1591.009685" x2="1916.578818" y2="1741.16354" stroke="black" stroke-width="4.455"/>
<line x1="1916.202494" y1="1560.150999" x2="1900.773151" y2="1560.150999" stroke="black" stroke-width="4.455"/>
<line x1="1900.773151" y1="1560.150999" x2="1900.773151" y2="1590.257038" stroke="black" stroke-width="4.455"/>
<line x1="1900.773151" y1="1590.257038" x2="1916.202494" y2="1590.257038" stroke="black" stroke-width="4.455"/>
<line x1="1916.202494" y1="1590.257038" x2="1916.202494" y2="1560.150999" stroke="black" stroke-width="4.455"/>
<path d="m 2067.48532,1589.880709 a 150.90650199999993,150.90650199999993 0 0 1 -150.90650199999982,150.90650200000005" fill="none" stroke="black" stroke-width="4.455"/>
<line x1="2260.978439" y1="3149.061295" x2="1942.546092" y2="3149.061295" stroke="black" stroke-width="4.455"/>
<line x1="1942.546092" y1="3149.061295" x2="1942.546092" y2="3206.016678" stroke="black" stroke-width="4.455"/>
<line x1="1942.546092" y1="3206.016678" x2="2260.978439" y2="3206.016678" stroke="black" stroke-width="4.455"/>
<line x1="2260.978439" y1="3206.016678" x2="2260.978439" y2="3149.061295" stroke="black" stroke-width="4.455"/>
<line x1="2246.092373" y1="3149.061295" x2="2246.092373" y2="3129.644692" stroke="black" stroke-width="4.455"/>
<line x1="2246.092373" y1="3129.644692" x2="1958.079375" y2="3129.644692" stroke="black" stroke-width="4.455"/>
<line x1="1958.079375" y1="3149.061295" x2="1958.079375" y2="3129.644692" stroke="black" stroke-width="4.455"/>
<line x1="775.155897" y1="3158.28511" x2="472.050518" y2="3158.28511" stroke="black" stroke-width="4.455"/>
<line x1="472.050518" y1="3158.28511" x2="472.050518" y2="3205.011294" stroke="black" stroke-width="4.455"/>
<line x1="472.050518" y1="3205.011294" x2="775.155897" y2="3205.011294" stroke="black" stroke-width="4.455"/>
<line x1="775.155897" y1="3205.011294" x2="775.155897" y2="3158.28511" stroke="black" stroke-width="4.455"/>
<line x1="746.874261" y1="3204.396474" x2="746.874261" y2="3158.89993" stroke="black" stroke-width="4.455"/>
<line x1="500.946975" y1="3204.396474" x2="500.946975" y2="3157.055476" stroke="black" stroke-width="4.455"/>
<line x1="747.489075" y1="3182.877839" x2="501.561794" y2="3182.877839" stroke="black" stroke-width="4.455"/>
<line x1="1635.576055" y1="2910.002589" x2="1635.576055" y2="2929.936759" stroke="black" stroke-width="4.455005"/>
<line x1="1635.576055" y1="2929.936759" x2="1674.471996" y2="2929.936759" stroke="black" stroke-width="4.455005"/>
<line x1="1674.471996" y1="2929.936759" x2="1674.471996" y2="2910.002589" stroke="black" stroke-width="4.455005"/>
<line x1="1674.471996" y1="2910.002589" x2="1635.576055" y2="2910.002589" stroke="black" stroke-width="4.455005"/>
<line x1="1674.471996" y1="3124.902667" x2="1868.465501" y2="3124.902667" stroke="black" stroke-width="4.455005"/>
<line x1="1634.603657" y1="3125.388866" x2="1634.603657" y2="3145.323035" stroke="black" stroke-width="4.455005"/>
<line x1="1634.603657" y1="3145.323035" x2="1673.499599" y2="3145.323035" stroke="black" stroke-width="4.455005"/>
<line x1="1673.499599" y1="3145.323035" x2="1673.499599" y2="3125.388866" stroke="black" stroke-width="4.455005"/>
<line x1="1673.499599" y1="3125.388866" x2="1634.603657" y2="3125.388866" stroke="black" stroke-width="4.455005"/>
<path d="m 1673.0134,2929.936759 a 194.9659049999998,194.9659049999998 0 0 1 194.96590199999991,194.96590799999967" fill="none" stroke="black" stroke-width="4.455005"/>
<line x1="2468.781459" y1="2628.742738" x2="2346.295278" y2="2678.230368" stroke="black" stroke-width="4.455"/>
<line x1="2346.295278" y1="2678.230368" x2="2340.954886" y2="2665.012432" stroke="black" stroke-width="4.455"/>
<line x1="2463.441067" y1="2615.524803" x2="2340.954886" y2="2665.012432" stroke="black" stroke-width="4.455"/>
<line x1="2468.781459" y1="2628.742738" x2="2463.441067" y2="2615.524803" stroke="black" stroke-width="4.455"/>
<line x1="2451.10433" y1="2620.50917" x2="2441.117859" y2="2590.717665" stroke="black" stroke-width="4.455"/>
<line x1="2353.291628" y1="2660.02807" x2="2339.424346" y2="2630.779475" stroke="black" stroke-width="4.455"/>
<line x1="2296.108797" y1="2201.362901" x2="2173.622616" y2="2250.850531" stroke="black" stroke-width="4.455"/>
<line x1="2173.622616" y1="2250.850531" x2="2178.606979" y2="2263.187268" stroke="black" stroke-width="4.455"/>
<line x1="2301.093165" y1="2213.699643" x2="2178.606979" y2="2263.187268" stroke="black" stroke-width="4.455"/>
<line x1="2296.108797" y1="2201.362901" x2="2301.093165" y2="2213.699643" stroke="black" stroke-width="4.455"/>
<line x1="2290.34967" y1="2220.09037" x2="2303.860928" y2="2248.45777" stroke="black" stroke-width="4.455"/>
<line x1="2192.536967" y1="2259.609269" x2="2201.998268" y2="2290.637992" stroke="black" stroke-width="4.455"/>
<line x1="2133.13713" y1="2587.02003" x2="2146.355061" y2="2581.679638" stroke="black" stroke-width="4.455"/>
<line x1="2146.355061" y1="2581.679638" x2="2096.867431" y2="2459.193457" stroke="black" stroke-width="4.455"/>
<line x1="2083.6495" y1="2464.533849" x2="2096.867431" y2="2459.193457" stroke="black" stroke-width="4.455"/>
<line x1="2133.13713" y1="2587.02003" x2="2083.6495" y2="2464.533849" stroke="black" stroke-width="4.455"/>
<line x1="2102.207828" y1="2472.411393" x2="2131.100398" y2="2457.662917" stroke="black" stroke-width="4.455"/>
<line x1="2141.370698" y1="2569.342901" x2="2172.043398" y2="2559.000401" stroke="black" stroke-width="4.455"/>
<line x1="2559.991797" y1="2415.584591" x2="2546.773862" y2="2420.924977" stroke="black" stroke-width="4.455"/>
<line x1="2546.773862" y1="2420.924977" x2="2497.286236" y2="2298.438801" stroke="black" stroke-width="4.455"/>
<line x1="2510.504167" y1="2293.09841" x2="2497.286236" y2="2298.438801" stroke="black" stroke-width="4.455"/>
<line x1="2559.991797" y1="2415.584591" x2="2510.504167" y2="2293.09841" stroke="black" stroke-width="4.455"/>
<line x1="2502.626623" y1="2311.656737" x2="2471.597895" y2="2321.118033" stroke="black" stroke-width="4.455"/>
<line x1="2541.789494" y1="2408.588246" x2="2512.540899" y2="2422.455522" stroke="black" stroke-width="4.455"/>
<circle cx="2321.820646" cy="2440.059222" r="191.9808" fill="none" stroke="black" stroke-width="4.455"/>
<line x1="870.91535" y1="2736.324182" x2="1020.700435" y2="2619.299252" stroke="black" stroke-width="4.455"/>
<line x1="1020.700435" y1="2619.299252" x2="735.159596" y2="2253.823645" stroke="black" stroke-width="4.455"/>
<line x1="735.159596" y1="2253.823645" x2="585.374511" y2="2370.848575" stroke="black" stroke-width="4.455"/>
<line x1="585.374511" y1="2370.848575" x2="600.002627" y2="2389.571712" stroke="black" stroke-width="4.455"/>
<line x1="600.002627" y1="2389.571712" x2="731.813504" y2="2286.589774" stroke="black" stroke-width="4.455"/>
<line x1="731.813504" y1="2286.589774" x2="987.512981" y2="2613.870181" stroke="black" stroke-width="4.455"/>
<line x1="987.512981" y1="2613.870181" x2="855.702104" y2="2716.852124" stroke="black" stroke-width="4.455"/>
<line x1="855.702104" y1="2716.852124" x2="870.91535" y2="2736.324182" stroke="black" stroke-width="4.455"/>
<line x1="860.19566" y1="2713.341371" x2="604.496178" y2="2386.060964" stroke="black" stroke-width="4.455"/>
<line x1="731.889556" y1="2550.660755" x2="859.206878" y2="2451.189564" stroke="black" stroke-width="4.455"/>
<line x1="1155.793602" y1="3075.679995" x2="1209.909556" y2="2873.716491" stroke="black" stroke-width="4.455"/>
<line x1="1209.909556" y1="2873.716491" x2="985.913676" y2="2813.696978" stroke="black" stroke-width="4.455"/>
<line x1="985.913676" y1="2813.696978" x2="931.797717" y2="3015.660478" stroke="black" stroke-width="4.455"/>
<line x1="931.797717" y1="3015.660478" x2="1155.793602" y2="3075.679995" stroke="black" stroke-width="4.455"/>
<line x1="1124.58106" y1="3067.316614" x2="1178.69702" y2="2865.353119" stroke="black" stroke-width="4.455"/>
<line x1="2605.709893" y1="917.703384" x2="2837.607493" y2="917.703384" stroke="black" stroke-width="4.455"/>
<line x1="2837.607493" y1="917.703384" x2="2837.607493" y2="1150.076184" stroke="black" stroke-width="4.455"/>
<line x1="2837.607493" y1="1150.076184" x2="2605.709893" y2="1150.076184" stroke="black" stroke-width="4.455"/>
<line x1="2605.709893" y1="1150.076184" x2="2605.709893" y2="917.703384" stroke="black" stroke-width="4.455"/>
<line x1="2605.234693" y1="917.228184" x2="2837.607493" y2="1150.076184" stroke="black" stroke-width="4.455"/>
<line x1="2605.709893" y1="1149.600984" x2="2837.132293" y2="917.703384" stroke="black" stroke-width="4.455"/>
<line x1="449.649704" y1="2030.856696" x2="614.881521" y2="2030.856696" stroke="black" stroke-width="4.455"/>
<line x1="614.881521" y1="2030.856696" x2="614.881521" y2="2196.427103" stroke="black" stroke-width="4.455"/>
<line x1="614.881521" y1="2196.427103" x2="449.649704" y2="2196.427103" stroke="black" stroke-width="4.455"/>
<line x1="449.649704" y1="2196.427103" x2="449.649704" y2="2030.856696" stroke="black" stroke-width="4.455"/>
<line x1="449.311114" y1="2030.518106" x2="614.881521" y2="2196.427103" stroke="black" stroke-width="4.455"/>
<line x1="449.649704" y1="2196.088513" x2="614.542931" y2="2030.856696" stroke="black" stroke-width="4.455"/>
<line x1="2604.028126" y1="2916.847261" x2="2835.925726" y2="2916.847261" stroke="black" stroke-width="4.455"/>
<line x1="2835.925726" y1="2916.847261" x2="2835.925726" y2="3149.220061" stroke="black" stroke-width="4.455"/>
<line x1="2835.925726" y1="3149.220061" x2="2604.028126" y2="3149.220061" stroke="black" stroke-width="4.455"/>
<line x1="2604.028126" y1="3149.220061" x2="2604.028126" y2="2916.847261" stroke="black" stroke-width="4.455"/>
<line x1="2603.552926" y1="2916.372061" x2="2835.925726" y2="3149.220061" stroke="black" stroke-width="4.455"/>
<line x1="2604.028126" y1="3148.744861" x2="2835.450526" y2="2916.847261" stroke="black" stroke-width="4.455"/>
<line x1="2510.807721" y1="1292.919205" x2="2117.975721" y2="1292.919205" stroke="black" stroke-width="4.455"/>
<line x1="2117.975721" y1="1292.919205" x2="2117.975721" y2="1477.455205" stroke="black" stroke-width="4.455"/>
<line x1="2117.975721" y1="1477.455205" x2="2510.807721" y2="1477.455205" stroke="black" stroke-width="4.455"/>
<line x1="2510.807721" y1="1477.455205" x2="2510.807721" y2="1292.919205" stroke="black" stroke-width="4.455"/>
<line x1="2351.615721" y1="1477.455205" x2="2351.615721" y2="1558.239205" stroke="black" stroke-width="4.455"/>
<line x1="2351.615721" y1="1558.239205" x2="2430.023721" y2="1558.239205" stroke="black" stroke-width="4.455"/>
<line x1="2430.023721" y1="1558.239205" x2="2430.023721" y2="1477.455205" stroke="black" stroke-width="4.455"/>
<line x1="2429.231721" y1="1540.815205" x2="2351.615721" y2="1540.815205" stroke="black" stroke-width="4.455"/>
<line x1="2430.023721" y1="1211.343205" x2="2351.615721" y2="1211.343205" stroke="black" stroke-width="4.455"/>
<line x1="2351.615721" y1="1211.343205" x2="2351.615721" y2="1292.919205" stroke="black" stroke-width="4.455"/>
<line x1="2430.023721" y1="1292.919205" x2="2430.023721" y2="1211.343205" stroke="black" stroke-width="4.455"/>
<line x1="2429.231721" y1="1228.767205" x2="2351.615721" y2="1228.767205" stroke="black" stroke-width="4.455"/>
<line x1="2200.343721" y1="1477.455205" x2="2200.343721" y2="1558.239205" stroke="black" stroke-width="4.455"/>
<line x1="2200.343721" y1="1558.239205" x2="2278.751721" y2="1558.239205" stroke="black" stroke-width="4.455"/>
<line x1="2278.751721" y1="1558.239205" x2="2278.751721" y2="1477.455205" stroke="black" stroke-width="4.455"/>
<line x1="2278.751721" y1="1540.815205" x2="2200.343721" y2="1540.815205" stroke="black" stroke-width="4.455"/>
<line x1="2278.751721" y1="1211.343205" x2="2200.343721" y2="1211.343205" stroke="black" stroke-width="4.455"/>
<line x1="2200.343721" y1="1211.343205" x2="2200.343721" y2="1292.919205" stroke="black" stroke-width="4.455"/>
<line x1="2278.751721" y1="1292.919205" x2="2278.751721" y2="1211.343205" stroke="black" stroke-width="4.455"/>
<line x1="2278.751721" y1="1228.767205" x2="2200.343721" y2="1228.767205" stroke="black" stroke-width="4.455"/>
<line x1="950.650792" y1="1966.255587" x2="950.650792" y2="1575.007587" stroke="black" stroke-width="4.455"/>
<line x1="950.650792" y1="1575.007587" x2="776.410792" y2="1575.007587" stroke="black" stroke-width="4.455"/>
<line x1="776.410792" y1="1575.007587" x2="776.410792" y2="1966.255587" stroke="black" stroke-width="4.455"/>
<line x1="776.410792" y1="1966.255587" x2="950.650792" y2="1966.255587" stroke="black" stroke-width="4.455"/>
<line x1="803.338792" y1="1650.247587" x2="803.338792" y2="1934.575587" stroke="black" stroke-width="4.455"/>
<line x1="803.338792" y1="1934.575587" x2="921.346792" y2="1934.575587" stroke="black" stroke-width="4.455"/>
<line x1="921.346792" y1="1934.575587" x2="921.346792" y2="1644.703587" stroke="black" stroke-width="4.455"/>
<path d="m 803.083367,1651.05816 a 63.3600003087793,63.3600003087793 0 0 1 119.37433300000009,-4.293813" fill="none" stroke="black" stroke-width="4.455"/>
<line x1="2450.713483" y1="220.67794" x2="2631.226856" y2="220.67794" stroke="black" stroke-width="4.455"/>
<line x1="2631.226856" y1="220.67794" x2="2631.226856" y2="401.561216" stroke="black" stroke-width="4.455"/>
<line x1="2631.226856" y1="401.561216" x2="2450.713483" y2="401.561216" stroke="black" stroke-width="4.455"/>
<line x1="2450.713483" y1="401.561216" x2="2450.713483" y2="220.67794" stroke="black" stroke-width="4.455"/>
<line x1="2450.34358" y1="220.308036" x2="2631.226856" y2="401.561216" stroke="black" stroke-width="4.455"/>
<line x1="2450.713483" y1="401.191308" x2="2630.856947" y2="220.67794" stroke="black" stroke-width="4.455"/>
<line x1="2835.107109" y1="718.08361" x2="2480.4262" y2="718.08361" stroke="black" stroke-width="4.455"/>
<line x1="2476.858676" y1="718.982194" x2="2476.858676" y2="596.256829" stroke="black" stroke-width="4.455"/>
<line x1="2834.68826" y1="595.218245" x2="2476.583282" y2="595.218245" stroke="black" stroke-width="4.455"/>
<line x1="2834.02544" y1="717.45699" x2="2834.02544" y2="595.457433" stroke="black" stroke-width="4.455"/>
<line x1="2824.739102" y1="708.082942" x2="2713.303073" y2="708.082942" stroke="black" stroke-width="4.455"/>
<line x1="2713.303073" y1="708.082942" x2="2713.303073" y2="605.218913" stroke="black" stroke-width="4.455"/>
<line x1="2824.739102" y1="605.218913" x2="2713.303073" y2="605.218913" stroke="black" stroke-width="4.455"/>
<line x1="2824.739102" y1="708.082942" x2="2824.739102" y2="605.218913" stroke="black" stroke-width="4.455"/>
<line x1="2696.15907" y1="701.653941" x2="2617.582379" y2="701.653941" stroke="black" stroke-width="4.455"/>
<line x1="2696.15907" y1="683.795604" x2="2617.582379" y2="683.795604" stroke="black" stroke-width="4.455"/>
<line x1="2695.444736" y1="665.222931" x2="2617.582379" y2="665.222931" stroke="black" stroke-width="4.455"/>
<line x1="2695.444736" y1="647.364594" x2="2617.582379" y2="647.364594" stroke="black" stroke-width="4.455"/>
<line x1="2696.15907" y1="629.506256" x2="2617.582379" y2="629.506256" stroke="black" stroke-width="4.455"/>
<line x1="2696.15907" y1="611.647913" x2="2617.582379" y2="611.647913" stroke="black" stroke-width="4.455"/>
<line x1="2781.879091" y1="605.933247" x2="2781.879091" y2="618.076919" stroke="black" stroke-width="4.455"/>
<line x1="2781.879091" y1="618.076919" x2="2754.73442" y2="618.076919" stroke="black" stroke-width="4.455"/>
<line x1="2754.73442" y1="618.076919" x2="2754.73442" y2="606.647582" stroke="black" stroke-width="4.455"/>
<line x1="2599.009712" y1="708.082942" x2="2487.573678" y2="708.082942" stroke="black" stroke-width="4.455"/>
<line x1="2487.573678" y1="708.082942" x2="2487.573678" y2="605.218913" stroke="black" stroke-width="4.455"/>
<line x1="2599.009712" y1="605.218913" x2="2487.573678" y2="605.218913" stroke="black" stroke-width="4.455"/>
<line x1="2599.009712" y1="708.082942" x2="2599.009712" y2="605.218913" stroke="black" stroke-width="4.455"/>
<line x1="2556.149696" y1="605.218913" x2="2556.149696" y2="617.362584" stroke="black" stroke-width="4.455"/>
<line x1="2556.149696" y1="617.362584" x2="2529.005025" y2="617.362584" stroke="black" stroke-width="4.455"/>
<line x1="2529.005025" y1="617.362584" x2="2529.005025" y2="605.933247" stroke="black" stroke-width="4.455"/>
<circle cx="2726.161079" cy="695.224936" r="6.4290017181665915" fill="none" stroke="black" stroke-width="4.455"/>
<circle cx="2500.431684" cy="694.510606" r="6.4290017181665915" fill="none" stroke="black" stroke-width="4.455"/>
<line x1="234.655295" y1="2913.791201" x2="466.552895" y2="2913.791201" stroke="black" stroke-width="4.455"/>
<line x1="466.552895" y1="2913.791201" x2="466.552895" y2="3146.164001" stroke="black" stroke-width="4.455"/>
<line x1="466.552895" y1="3146.164001" x2="234.655295" y2="3146.164001" stroke="black" stroke-width="4.455"/>
<line x1="234.655295" y1="3146.164001" x2="234.655295" y2="2913.791201" stroke="black" stroke-width="4.455"/>
<line x1="234.180094" y1="2913.316001" x2="466.552895" y2="3146.164001" stroke="black" stroke-width="4.455"/>
<line x1="234.655295" y1="3145.688801" x2="466.077694" y2="2913.791201" stroke="black" stroke-width="4.455"/>
<line x1="2633.926041" y1="220.479044" x2="2814.439414" y2="220.479044" stroke="black" stroke-width="4.455"/>
<line x1="2814.439414" y1="220.479044" x2="2814.439414" y2="401.36232" stroke="black" stroke-width="4.455"/>
<line x1="2814.439414" y1="401.36232" x2="2633.926041" y2="401.36232" stroke="black" stroke-width="4.455"/>
<line x1="2633.926041" y1="401.36232" x2="2633.926041" y2="220.479044" stroke="black" stroke-width="4.455"/>
<line x1="2633.556138" y1="220.10914" x2="2814.439414" y2="401.36232" stroke="black" stroke-width="4.455"/>
<line x1="2633.926041" y1="400.992412" x2="2814.069506" y2="220.479044" stroke="black" stroke-width="4.455"/>
<line x1="2266.984912" y1="220.477935" x2="2447.498285" y2="220.477935" stroke="black" stroke-width="4.455"/>
<line x1="2447.498285" y1="220.477935" x2="2447.498285" y2="401.361211" stroke="black" stroke-width="4.455"/>
<line x1="2447.498285" y1="401.361211" x2="2266.984912" y2="401.361211" stroke="black" stroke-width="4.455"/>
<line x1="2266.984912" y1="401.361211" x2="2266.984912" y2="220.477935" stroke="black" stroke-width="4.455"/>
<line x1="2266.615009" y1="220.108032" x2="2447.498285" y2="401.361211" stroke="black" stroke-width="4.455"/>
<line x1="2266.984912" y1="400.991303" x2="2447.128377" y2="220.477935" stroke="black" stroke-width="4.455"/>
</g>
</svg>
