<?xml version="1.0"?>
<svg xmlns:xlink="http://www.w3.org/1999/xlink" width="3059.1" height="3341.25">
<image x="0" y="0" width="3059.1" height="3341.25" xlink:href="groundfilled-02.png"/>
<g style="stroke-linecap:round">
<line x1="980.860647" y1="1527.245503" x2="996.301459" y2="1527.245503" stroke="black" stroke-width="4.455"/>
<line x1="996.301459" y1="1527.245503" x2="996.301459" y2="1497.11709" stroke="black" stroke-width="4.455"/>
<line x1="996.301459" y1="1497.11709" x2="980.860647" y2="1497.11709" stroke="black" stroke-width="4.455"/>
<line x1="980.860647" y1="1497.11709" x2="980.860647" y2="1527.245503" stroke="black" stroke-width="4.455"/>
<line x1="1147.320128" y1="1497.11709" x2="1147.320128" y2="1346.851628" stroke="black" stroke-width="4.455"/>
<line x1="1147.696734" y1="1527.99871" x2="1163.137546" y2="1527.99871" stroke="black" stroke-width="4.455"/>
<line x1="1163.137546" y1="1527.99871" x2="1163.137546" y2="1497.870297" stroke="black" stroke-width="4.455"/>
<line x1="1163.137546" y1="1497.870297" x2="1147.696734" y2="1497.870297" stroke="black" stroke-width="4.455"/>
<line x1="1147.696734" y1="1497.870297" x2="1147.696734" y2="1527.99871" stroke="black" stroke-width="4.455"/>
<path d="m 996.301459,1498.246903 a 151.01866900000005,151.01866900000005 0 0 1 151.01866900000005,-151.01866900000005" fill="none" stroke="black" stroke-width="4.455"/>
<line x1="1419.733463" y1="1470.293926" x2="1419.733463" y2="1286.549926" stroke="black" stroke-width="4.455"/>
<line x1="1419.733463" y1="1286.549926" x2="1468.837463" y2="1286.549926" stroke="black" stroke-width="4.455"/>
<line x1="1468.837463" y1="1470.293926" x2="1468.837463" y2="1286.549926" stroke="black" stroke-width="4.455"/>
<line x1="1419.733463" y1="1470.293926" x2="1468.837463" y2="1470.293926" stroke="black" stroke-width="4.455"/>
<line x1="1392.013463" y1="1428.713926" x2="1419.733463" y2="1428.713926" stroke="black" stroke-width="4.455"/>
<line x1="1419.733463" y1="1329.713926" x2="1390.429463" y2="1329.713926" stroke="black" stroke-width="4.455"/>
<circle cx="1346.869463" cy="1380.005926" r="66.528" fill="none" stroke="black" stroke-width="4.455"/>
<circle cx="1346.869463" cy="1380.005926" r="57.02400000000001" fill="none" stroke="black" stroke-width="4.455"/>
<line x1="323.807007" y1="1566.315843" x2="642.259495" y2="1566.315843" stroke="black" stroke-width="4.455"/>
<line x1="642.259495" y1="1566.315843" x2="642.259495" y2="1517.223777" stroke="black" stroke-width="4.455"/>
<line x1="642.259495" y1="1517.223777" x2="323.807007" y2="1517.223777" stroke="black" stroke-width="4.455"/>
<line x1="323.807007" y1="1517.223777" x2="323.807007" y2="1566.315843" stroke="black" stroke-width="4.455"/>
<line x1="353.52063" y1="1517.869728" x2="353.52063" y2="1565.669898" stroke="black" stroke-width="4.455"/>
<line x1="611.899928" y1="1517.869728" x2="611.899928" y2="1567.607738" stroke="black" stroke-width="4.455"/>
<line x1="352.874679" y1="1540.477912" x2="611.253977" y2="1540.477912" stroke="black" stroke-width="4.455"/>
<line x1="979.473117" y1="2198.984946" x2="979.473117" y2="2182.256292" stroke="black" stroke-width="4.455"/>
<line x1="979.473117" y1="2182.256292" x2="946.831837" y2="2182.256292" stroke="black" stroke-width="4.455"/>
<line x1="946.831837" y1="2182.256292" x2="946.831837" y2="2198.984946" stroke="black" stroke-width="4.455"/>
<line x1="946.831837" y1="2198.984946" x2="979.473117" y2="2198.984946" stroke="black" stroke-width="4.455"/>
<line x1="946.831837" y1="2018.641873" x2="784.03345" y2="2018.641873" stroke="black" stroke-width="4.455"/>
<line x1="980.289149" y1="2018.233854" x2="980.289149" y2="2001.505201" stroke="black" stroke-width="4.455"/>
<line x1="980.289149" y1="2001.505201" x2="947.647869" y2="2001.505201" stroke="black" stroke-width="4.455"/>
<line x1="947.647869" y1="2001.505201" x2="947.647869" y2="2018.233854" stroke="black" stroke-width="4.455"/>
<line x1="947.647869" y1="2018.233854" x2="980.289149" y2="2018.233854" stroke="black" stroke-width="4.455"/>
<path d="m 948.055883,2182.256292 a 163.614419,163.614419 0 0 1 -163.614419,-163.614419" fill="none" stroke="black" stroke-width="4.455"/>
<line x1="1378.153191" y1="2409.675112" x2="1378.153191" y2="2394.245769" stroke="black" stroke-width="4.455"/>
<line x1="1378.153191" y1="2394.245769" x2="1348.047157" y2="2394.245769" stroke="black" stroke-width="4.455"/>
<line x1="1348.047157" y1="2394.245769" x2="1348.047157" y2="2409.675112" stroke="black" stroke-width="4.455"/>
<line x1="1348.047157" y1="2409.675112" x2="1378.153191" y2="2409.675112" stroke="black" stroke-width="4.455"/>
<line x1="1348.047157" y1="2243.339267" x2="1197.893303" y2="2243.339267" stroke="black" stroke-width="4.455"/>
<line x1="1378.905843" y1="2242.962944" x2="1378.905843" y2="2227.533601" stroke="black" stroke-width="4.455"/>
<line x1="1378.905843" y1="2227.533601" x2="1348.799805" y2="2227.533601" stroke="black" stroke-width="4.455"/>
<line x1="1348.799805" y1="2227.533601" x2="1348.799805" y2="2242.962944" stroke="black" stroke-width="4.455"/>
<line x1="1348.799805" y1="2242.962944" x2="1378.905843" y2="2242.962944" stroke="black" stroke-width="4.455"/>
<path d="m 1349.176133,2394.245769 a 150.90650200000016,150.90650200000016 0 0 1 -150.90650200000005,-150.90650200000027" fill="none" stroke="black" stroke-width="4.455"/>
<line x1="368.724911" y1="1744.724144" x2="368.724911" y2="2015.271344" stroke="black" stroke-width="4.455"/>
<line x1="368.724911" y1="2015.271344" x2="236.777711" y2="2015.271344" stroke="black" stroke-width="4.455"/>
<line x1="236.777711" y1="1744.724144" x2="236.777711" y2="2015.271344" stroke="black" stroke-width="4.455"/>
<line x1="368.724911" y1="1744.724144" x2="236.777711" y2="1744.724144" stroke="black" stroke-width="4.455"/>
<line x1="362.072111" y1="1751.376944" x2="362.072111" y2="1889.422544" stroke="black" stroke-width="4.455"/>
<line x1="362.072111" y1="1889.422544" x2="243.984911" y2="1889.422544" stroke="black" stroke-width="4.455"/>
<line x1="243.984911" y1="1751.376944" x2="243.984911" y2="1889.422544" stroke="black" stroke-width="4.455"/>
<line x1="362.072111" y1="1751.376944" x2="243.984911" y2="1751.376944" stroke="black" stroke-width="4.455"/>
<line x1="354.310511" y1="1903.836944" x2="354.310511" y2="2000.856944" stroke="black" stroke-width="4.455"/>
<line x1="333.797711" y1="1903.836944" x2="333.797711" y2="2000.856944" stroke="black" stroke-width="4.455"/>
<line x1="312.730511" y1="1904.391344" x2="312.730511" y2="2001.411344" stroke="black" stroke-width="4.455"/>
<line x1="292.217711" y1="1904.391344" x2="292.217711" y2="2001.411344" stroke="black" stroke-width="4.455"/>
<line x1="271.704911" y1="1903.836944" x2="271.704911" y2="2000.856944" stroke="black" stroke-width="4.455"/>
<line x1="251.192111" y1="1903.836944" x2="251.192111" y2="2000.856944" stroke="black" stroke-width="4.455"/>
<line x1="243.984911" y1="1804.044944" x2="257.844911" y2="1804.044944" stroke="black" stroke-width="4.455"/>
<line x1="257.844911" y1="1804.044944" x2="257.844911" y2="1838.417744" stroke="black" stroke-width="4.455"/>
<line x1="257.844911" y1="1838.417744" x2="244.539311" y2="1838.417744" stroke="black" stroke-width="4.455"/>
<circle cx="347.103311" cy="1873.899344" r="8.316" fill="none" stroke="black" stroke-width="4.455"/>
<line x1="1902.926248" y1="592.852565" x2="1918.36706" y2="592.852565" stroke="black" stroke-width="4.455"/>
<line x1="1918.36706" y1="592.852565" x2="1918.36706" y2="562.724153" stroke="black" stroke-width="4.455"/>
<line x1="1918.36706" y1="562.724153" x2="1902.926248" y2="562.724153" stroke="black" stroke-width="4.455"/>
<line x1="1902.926248" y1="562.724153" x2="1902.926248" y2="592.852565" stroke="black" stroke-width="4.455"/>
<line x1="2069.385729" y1="562.724153" x2="2069.385729" y2="412.458691" stroke="black" stroke-width="4.455"/>
<line x1="2069.762335" y1="593.605772" x2="2085.203147" y2="593.605772" stroke="black" stroke-width="4.455"/>
<line x1="2085.203147" y1="593.605772" x2="2085.203147" y2="563.47736" stroke="black" stroke-width="4.455"/>
<line x1="2085.203147" y1="563.47736" x2="2069.762335" y2="563.47736" stroke="black" stroke-width="4.455"/>
<line x1="2069.762335" y1="563.47736" x2="2069.762335" y2="593.605772" stroke="black" stroke-width="4.455"/>
<path d="m 1918.36706,563.853965 a 151.01866900000002,151.01866900000002 0 0 1 151.01866900000005,-151.018669" fill="none" stroke="black" stroke-width="4.455"/>
<line x1="1899.774603" y1="1104.844802" x2="1899.774603" y2="782.575918" stroke="black" stroke-width="4.455"/>
<line x1="1899.774603" y1="782.575918" x2="1842.133016" y2="782.575918" stroke="black" stroke-width="4.455"/>
<line x1="1842.133016" y1="782.575918" x2="1842.133016" y2="1104.844802" stroke="black" stroke-width="4.455"/>
<line x1="1842.133016" y1="1104.844802" x2="1899.774603" y2="1104.844802" stroke="black" stroke-width="4.455"/>
<line x1="1899.774603" y1="1089.779387" x2="1919.425142" y2="1089.779387" stroke="black" stroke-width="4.455"/>
<line x1="1919.425142" y1="1089.779387" x2="1919.425142" y2="798.29635" stroke="black" stroke-width="4.455"/>
<line x1="1899.774603" y1="798.29635" x2="1919.425142" y2="798.29635" stroke="black" stroke-width="4.455"/>
<line x1="2082.914663" y1="1560.903651" x2="2067.48532" y2="1560.903651" stroke="black" stroke-width="4.455"/>
<line x1="2067.48532" y1="1560.903651" x2="2067.48532" y2="1591.009685" stroke="black" stroke-width="4.455"/>
<line x1="2067.48532" y1="1591.009685" x2="2082.914663" y2="1591.009685" stroke="black" stroke-width="4.455"/>
<line x1="2082.914663" y1="1591.009685" x2="2082.914663" y2="1560.903651" stroke="black" stroke-width="4.455"/>
<line x1="1916.578818" y1="1591.009685" x2="1916.578818" y2="1741.16354" stroke="black" stroke-width="4.455"/>
<line x1="1916.202494" y1="1560.150999" x2="1900.773151" y2="1560.150999" stroke="black" stroke-width="4.455"/>
<line x1="1900.773151" y1="1560.150999" x2="1900.773151" y2="1590.257038" stroke="black" stroke-width="4.455"/>
<line x1="1900.773151" y1="1590.257038" x2="1916.202494" y2="1590.257038" stroke="black" stroke-width="4.455"/>
<line x1="1916.202494" y1="1590.257038" x2="1916.202494" y2="1560.150999" stroke="black" stroke-width="4.455"/>
<path d="m 2067.48532,1589.880709 a 150.90650199999993,150.90650199999993 0 0 1 -150.90650199999982,150.90650200000005" fill="none" stroke="black" stroke-width="4.455"/>
<line x1="2260.988507" y1="3156.924613" x2="1942.536019" y2="3156.924613" stroke="black" stroke-width="4.455"/>
<line x1="1942.536019" y1="3156.924613" x2="1942.536019" y2="3206.016678" stroke="black" stroke-width="4.455"/>
<line x1="1942.536019" y1="3206.016678" x2="2260.988507" y2="3206.016678" stroke="black" stroke-width="4.455"/>
<line x1="2260.988507" y1="3206.016678" x2="2260.988507" y2="3156.924613" stroke="black" stroke-width="4.455"/>
<line x1="2231.274885" y1="3205.370728" x2="2231.274885" y2="3157.570558" stroke="black" stroke-width="4.455"/>
<line x1="1972.895587" y1="3205.370728" x2="1972.895587" y2="3155.632717" stroke="black" stroke-width="4.455"/>
<line x1="2231.920835" y1="3182.762543" x2="1973.541537" y2="3182.762543" stroke="black" stroke-width="4.455"/>
<line x1="775.155897" y1="3158.28511" x2="472.050518" y2="3158.28511" stroke="black" stroke-width="4.455"/>
<line x1="472.050518" y1="3158.28511" x2="472.050518" y2="3205.011294" stroke="black" stroke-width="4.455"/>
<line x1="472.050518" y1="3205.011294" x2="775.155897" y2="3205.011294" stroke="black" stroke-width="4.455"/>
<line x1="775.155897" y1="3205.011294" x2="775.155897" y2="3158.28511" stroke="black" stroke-width="4.455"/>
<line x1="746.874261" y1="3204.396474" x2="746.874261" y2="3158.89993" stroke="black" stroke-width="4.455"/>
<line x1="500.946975" y1="3204.396474" x2="500.946975" y2="3157.055476" stroke="black" stroke-width="4.455"/>
<line x1="747.489075" y1="3182.877839" x2="501.561794" y2="3182.877839" stroke="black" stroke-width="4.455"/>
<line x1="1635.576055" y1="2910.002589" x2="1635.576055" y2="2929.936759" stroke="black" stroke-width="4.455005"/>
<line x1="1635.576055" y1="2929.936759" x2="1674.471996" y2="2929.936759" stroke="black" stroke-width="4.455005"/>
<line x1="1674.471996" y1="2929.936759" x2="1674.471996" y2="2910.002589" stroke="black" stroke-width="4.455005"/>
<line x1="1674.471996" y1="2910.002589" x2="1635.576055" y2="2910.002589" stroke="black" stroke-width="4.455005"/>
<line x1="1674.471996" y1="3124.902667" x2="1868.465501" y2="3124.902667" stroke="black" stroke-width="4.455005"/>
<line x1="1634.603657" y1="3125.388866" x2="1634.603657" y2="3145.323035" stroke="black" stroke-width="4.455005"/>
<line x1="1634.603657" y1="3145.323035" x2="1673.499599" y2="3145.323035" stroke="black" stroke-width="4.455005"/>
<line x1="1673.499599" y1="3145.323035" x2="1673.499599" y2="3125.388866" stroke="black" stroke-width="4.455005"/>
<line x1="1673.499599" y1="3125.388866" x2="1634.603657" y2="3125.388866" stroke="black" stroke-width="4.455005"/>
<path d="m 1673.0134,2929.936759 a 194.9659049999998,194.9659049999998 0 0 1 194.96590199999991,194.96590799999967" fill="none" stroke="black" stroke-width="4.455005"/>
<line x1="2072.975662" y1="2476.508765" x2="2077.586077" y2="2344.483642" stroke="black" stroke-width="4.455"/>
<line x1="2077.586077" y1="2344.483642" x2="2091.833395" y2="2344.981167" stroke="black" stroke-width="4.455"/>
<line x1="2087.222975" y1="2477.006294" x2="2091.833395" y2="2344.981167" stroke="black" stroke-width="4.455"/>
<line x1="2072.975662" y1="2476.508765" x2="2087.222975" y2="2477.006294" stroke="black" stroke-width="4.455"/>
<line x1="2087.687334" y1="2463.708798" x2="2118.965092" y2="2466.702998" stroke="black" stroke-width="4.455"/>
<line x1="2091.369035" y1="2358.278663" x2="2123.729284" y2="2357.50675" stroke="black" stroke-width="4.455"/>
<line x1="2533.638863" y1="2492.595478" x2="2538.249283" y2="2360.570355" stroke="black" stroke-width="4.455"/>
<line x1="2538.249283" y1="2360.570355" x2="2524.951787" y2="2360.105996" stroke="black" stroke-width="4.455"/>
<line x1="2520.341371" y1="2492.131123" x2="2524.951787" y2="2360.105996" stroke="black" stroke-width="4.455"/>
<line x1="2533.638863" y1="2492.595478" x2="2520.341371" y2="2492.131123" stroke="black" stroke-width="4.455"/>
<line x1="2518.872919" y1="2479.717112" x2="2487.462486" y2="2480.52219" stroke="black" stroke-width="4.455"/>
<line x1="2522.55462" y1="2374.286973" x2="2490.360211" y2="2370.309782" stroke="black" stroke-width="4.455"/>
<line x1="2247.610098" y1="2186.85257" x2="2247.112568" y2="2201.099888" stroke="black" stroke-width="4.455"/>
<line x1="2247.112568" y1="2201.099888" x2="2379.137696" y2="2205.710303" stroke="black" stroke-width="4.455"/>
<line x1="2379.635221" y1="2191.46299" x2="2379.137696" y2="2205.710303" stroke="black" stroke-width="4.455"/>
<line x1="2247.610098" y1="2186.85257" x2="2379.635221" y2="2191.46299" stroke="black" stroke-width="4.455"/>
<line x1="2364.890378" y1="2205.212778" x2="2366.612117" y2="2237.606197" stroke="black" stroke-width="4.455"/>
<line x1="2260.410065" y1="2201.564242" x2="2257.382695" y2="2233.791821" stroke="black" stroke-width="4.455"/>
<line x1="2230.606729" y1="2646.532786" x2="2231.104258" y2="2632.285468" stroke="black" stroke-width="4.455"/>
<line x1="2231.104258" y1="2632.285468" x2="2363.129381" y2="2636.895888" stroke="black" stroke-width="4.455"/>
<line x1="2362.631857" y1="2651.143201" x2="2363.129381" y2="2636.895888" stroke="black" stroke-width="4.455"/>
<line x1="2230.606729" y1="2646.532786" x2="2362.631857" y2="2651.143201" stroke="black" stroke-width="4.455"/>
<line x1="2348.882068" y1="2636.398359" x2="2352.859255" y2="2604.203955" stroke="black" stroke-width="4.455"/>
<line x1="2244.40175" y1="2632.749832" x2="2243.629842" y2="2600.389579" stroke="black" stroke-width="4.455"/>
<circle cx="2305.12098" cy="2418.997888" r="191.9808" fill="none" stroke="black" stroke-width="4.455"/>
<line x1="1015.606602" y1="2741.794219" x2="1116.333657" y2="2580.597236" stroke="black" stroke-width="4.455"/>
<line x1="1116.333657" y1="2580.597236" x2="723.013018" y2="2334.823222" stroke="black" stroke-width="4.455"/>
<line x1="723.013018" y1="2334.823222" x2="622.285968" y2="2496.020205" stroke="black" stroke-width="4.455"/>
<line x1="622.285968" y1="2496.020205" x2="642.435587" y2="2508.611084" stroke="black" stroke-width="4.455"/>
<line x1="642.435587" y1="2508.611084" x2="731.075395" y2="2366.757746" stroke="black" stroke-width="4.455"/>
<line x1="731.075395" y1="2366.757746" x2="1083.290804" y2="2586.846354" stroke="black" stroke-width="4.455"/>
<line x1="1083.290804" y1="2586.846354" x2="994.650995" y2="2728.699702" stroke="black" stroke-width="4.455"/>
<line x1="994.650995" y1="2728.699702" x2="1015.606602" y2="2741.794219" stroke="black" stroke-width="4.455"/>
<line x1="997.672807" y1="2723.863794" x2="645.457403" y2="2503.775177" stroke="black" stroke-width="4.455"/>
<line x1="821.464459" y1="2614.877288" x2="907.082456" y2="2477.859853" stroke="black" stroke-width="4.455"/>
<line x1="1184.960235" y1="3051.240152" x2="1188.609325" y2="2842.183991" stroke="black" stroke-width="4.455"/>
<line x1="1188.609325" y1="2842.183991" x2="956.747043" y2="2838.136821" stroke="black" stroke-width="4.455"/>
<line x1="956.747043" y1="2838.136821" x2="953.097953" y2="3047.192978" stroke="black" stroke-width="4.455"/>
<line x1="953.097953" y1="3047.192978" x2="1184.960235" y2="3051.240152" stroke="black" stroke-width="4.455"/>
<line x1="1152.651555" y1="3050.676199" x2="1156.300646" y2="2841.620047" stroke="black" stroke-width="4.455"/>
<line x1="2117.975721" y1="1476.663205" x2="2510.807721" y2="1476.663205" stroke="black" stroke-width="4.455"/>
<line x1="2510.807721" y1="1476.663205" x2="2510.807721" y2="1292.127205" stroke="black" stroke-width="4.455"/>
<line x1="2510.807721" y1="1292.127205" x2="2117.975721" y2="1292.127205" stroke="black" stroke-width="4.455"/>
<line x1="2117.975721" y1="1292.127205" x2="2117.975721" y2="1476.663205" stroke="black" stroke-width="4.455"/>
<line x1="2277.167721" y1="1292.127205" x2="2277.167721" y2="1211.343205" stroke="black" stroke-width="4.455"/>
<line x1="2277.167721" y1="1211.343205" x2="2198.759721" y2="1211.343205" stroke="black" stroke-width="4.455"/>
<line x1="2198.759721" y1="1211.343205" x2="2198.759721" y2="1292.127205" stroke="black" stroke-width="4.455"/>
<line x1="2199.551721" y1="1228.767205" x2="2277.167721" y2="1228.767205" stroke="black" stroke-width="4.455"/>
<line x1="2198.759721" y1="1558.239205" x2="2277.167721" y2="1558.239205" stroke="black" stroke-width="4.455"/>
<line x1="2277.167721" y1="1558.239205" x2="2277.167721" y2="1476.663205" stroke="black" stroke-width="4.455"/>
<line x1="2198.759721" y1="1476.663205" x2="2198.759721" y2="1558.239205" stroke="black" stroke-width="4.455"/>
<line x1="2199.551721" y1="1540.815205" x2="2277.167721" y2="1540.815205" stroke="black" stroke-width="4.455"/>
<line x1="2428.439721" y1="1292.127205" x2="2428.439721" y2="1211.343205" stroke="black" stroke-width="4.455"/>
<line x1="2428.439721" y1="1211.343205" x2="2350.031721" y2="1211.343205" stroke="black" stroke-width="4.455"/>
<line x1="2350.031721" y1="1211.343205" x2="2350.031721" y2="1292.127205" stroke="black" stroke-width="4.455"/>
<line x1="2350.031721" y1="1228.767205" x2="2428.439721" y2="1228.767205" stroke="black" stroke-width="4.455"/>
<line x1="2350.031721" y1="1558.239205" x2="2428.439721" y2="1558.239205" stroke="black" stroke-width="4.455"/>
<line x1="2428.439721" y1="1558.239205" x2="2428.439721" y2="1476.663205" stroke="black" stroke-width="4.455"/>
<line x1="2350.031721" y1="1476.663205" x2="2350.031721" y2="1558.239205" stroke="black" stroke-width="4.455"/>
<line x1="2350.031721" y1="1540.815205" x2="2428.439721" y2="1540.815205" stroke="black" stroke-width="4.455"/>
<line x1="444.889536" y1="2196.427108" x2="594.460429" y2="2196.427108" stroke="black" stroke-width="4.455"/>
<line x1="594.460429" y1="2196.427108" x2="594.460429" y2="2030.539396" stroke="black" stroke-width="4.455"/>
<line x1="594.460429" y1="2030.539396" x2="444.889536" y2="2030.539396" stroke="black" stroke-width="4.455"/>
<line x1="444.889536" y1="2030.539396" x2="444.889536" y2="2196.427108" stroke="black" stroke-width="4.455"/>
<line x1="444.889536" y1="2173.311608" x2="594.460429" y2="2173.311608" stroke="black" stroke-width="4.455"/>
<line x1="950.650792" y1="1966.255587" x2="950.650792" y2="1575.007587" stroke="black" stroke-width="4.455"/>
<line x1="950.650792" y1="1575.007587" x2="776.410792" y2="1575.007587" stroke="black" stroke-width="4.455"/>
<line x1="776.410792" y1="1575.007587" x2="776.410792" y2="1966.255587" stroke="black" stroke-width="4.455"/>
<line x1="776.410792" y1="1966.255587" x2="950.650792" y2="1966.255587" stroke="black" stroke-width="4.455"/>
<line x1="803.338792" y1="1650.247587" x2="803.338792" y2="1934.575587" stroke="black" stroke-width="4.455"/>
<line x1="803.338792" y1="1934.575587" x2="921.346792" y2="1934.575587" stroke="black" stroke-width="4.455"/>
<line x1="921.346792" y1="1934.575587" x2="921.346792" y2="1644.703587" stroke="black" stroke-width="4.455"/>
<path d="m 803.083367,1651.05816 a 63.3600003087793,63.3600003087793 0 0 1 119.37433300000009,-4.293813" fill="none" stroke="black" stroke-width="4.455"/>
<line x1="2450.713483" y1="220.67794" x2="2631.226856" y2="220.67794" stroke="black" stroke-width="4.455"/>
<line x1="2631.226856" y1="220.67794" x2="2631.226856" y2="401.561216" stroke="black" stroke-width="4.455"/>
<line x1="2631.226856" y1="401.561216" x2="2450.713483" y2="401.561216" stroke="black" stroke-width="4.455"/>
<line x1="2450.713483" y1="401.561216" x2="2450.713483" y2="220.67794" stroke="black" stroke-width="4.455"/>
<line x1="2450.34358" y1="220.308036" x2="2631.226856" y2="401.561216" stroke="black" stroke-width="4.455"/>
<line x1="2450.713483" y1="401.191308" x2="2630.856947" y2="220.67794" stroke="black" stroke-width="4.455"/>
<line x1="2835.107109" y1="718.08361" x2="2480.4262" y2="718.08361" stroke="black" stroke-width="4.455"/>
<line x1="2476.858676" y1="718.982194" x2="2476.858676" y2="596.256829" stroke="black" stroke-width="4.455"/>
<line x1="2834.68826" y1="595.218245" x2="2476.583282" y2="595.218245" stroke="black" stroke-width="4.455"/>
<line x1="2834.02544" y1="717.45699" x2="2834.02544" y2="595.457433" stroke="black" stroke-width="4.455"/>
<line x1="2824.739102" y1="708.082942" x2="2713.303073" y2="708.082942" stroke="black" stroke-width="4.455"/>
<line x1="2713.303073" y1="708.082942" x2="2713.303073" y2="605.218913" stroke="black" stroke-width="4.455"/>
<line x1="2824.739102" y1="605.218913" x2="2713.303073" y2="605.218913" stroke="black" stroke-width="4.455"/>
<line x1="2824.739102" y1="708.082942" x2="2824.739102" y2="605.218913" stroke="black" stroke-width="4.455"/>
<line x1="2696.15907" y1="701.653941" x2="2617.582379" y2="701.653941" stroke="black" stroke-width="4.455"/>
<line x1="2696.15907" y1="683.795604" x2="2617.582379" y2="683.795604" stroke="black" stroke-width="4.455"/>
<line x1="2695.444736" y1="665.222931" x2="2617.582379" y2="665.222931" stroke="black" stroke-width="4.455"/>
<line x1="2695.444736" y1="647.364594" x2="2617.582379" y2="647.364594" stroke="black" stroke-width="4.455"/>
<line x1="2696.15907" y1="629.506256" x2="2617.582379" y2="629.506256" stroke="black" stroke-width="4.455"/>
<line x1="2696.15907" y1="611.647913" x2="2617.582379" y2="611.647913" stroke="black" stroke-width="4.455"/>
<line x1="2781.879091" y1="605.933247" x2="2781.879091" y2="618.076919" stroke="black" stroke-width="4.455"/>
<line x1="2781.879091" y1="618.076919" x2="2754.73442" y2="618.076919" stroke="black" stroke-width="4.455"/>
<line x1="2754.73442" y1="618.076919" x2="2754.73442" y2="606.647582" stroke="black" stroke-width="4.455"/>
<line x1="2599.009712" y1="708.082942" x2="2487.573678" y2="708.082942" stroke="black" stroke-width="4.455"/>
<line x1="2487.573678" y1="708.082942" x2="2487.573678" y2="605.218913" stroke="black" stroke-width="4.455"/>
<line x1="2599.009712" y1="605.218913" x2="2487.573678" y2="605.218913" stroke="black" stroke-width="4.455"/>
<line x1="2599.009712" y1="708.082942" x2="2599.009712" y2="605.218913" stroke="black" stroke-width="4.455"/>
<line x1="2556.149696" y1="605.218913" x2="2556.149696" y2="617.362584" stroke="black" stroke-width="4.455"/>
<line x1="2556.149696" y1="617.362584" x2="2529.005025" y2="617.362584" stroke="black" stroke-width="4.455"/>
<line x1="2529.005025" y1="617.362584" x2="2529.005025" y2="605.933247" stroke="black" stroke-width="4.455"/>
<circle cx="2726.161079" cy="695.224936" r="6.4290017181665915" fill="none" stroke="black" stroke-width="4.455"/>
<circle cx="2500.431684" cy="694.510606" r="6.4290017181665915" fill="none" stroke="black" stroke-width="4.455"/>
<line x1="234.655295" y1="2913.791201" x2="466.552895" y2="2913.791201" stroke="black" stroke-width="4.455"/>
<line x1="466.552895" y1="2913.791201" x2="466.552895" y2="3146.164001" stroke="black" stroke-width="4.455"/>
<line x1="466.552895" y1="3146.164001" x2="234.655295" y2="3146.164001" stroke="black" stroke-width="4.455"/>
<line x1="234.655295" y1="3146.164001" x2="234.655295" y2="2913.791201" stroke="black" stroke-width="4.455"/>
<line x1="234.180094" y1="2913.316001" x2="466.552895" y2="3146.164001" stroke="black" stroke-width="4.455"/>
<line x1="234.655295" y1="3145.688801" x2="466.077694" y2="2913.791201" stroke="black" stroke-width="4.455"/>
<line x1="2476.291856" y1="717.011252" x2="2226.819751" y2="717.011252" stroke="black" stroke-width="4.454995"/>
<line x1="2226.819751" y1="717.011252" x2="2226.819751" y2="595.34248" stroke="black" stroke-width="4.454995"/>
<line x1="2476.291856" y1="595.34248" x2="2226.819751" y2="595.34248" stroke="black" stroke-width="4.454995"/>
<line x1="2476.291856" y1="717.011252" x2="2476.291856" y2="595.34248" stroke="black" stroke-width="4.454995"/>
<line x1="2470.157296" y1="710.876692" x2="2342.865175" y2="710.876692" stroke="black" stroke-width="4.454995"/>
<line x1="2342.865175" y1="710.876692" x2="2342.865175" y2="601.988256" stroke="black" stroke-width="4.454995"/>
<line x1="2470.157296" y1="601.988256" x2="2342.865175" y2="601.988256" stroke="black" stroke-width="4.454995"/>
<line x1="2470.157296" y1="710.876692" x2="2470.157296" y2="601.988256" stroke="black" stroke-width="4.454995"/>
<line x1="2329.573628" y1="703.71971" x2="2240.111298" y2="703.71971" stroke="black" stroke-width="4.454995"/>
<line x1="2329.573628" y1="684.804815" x2="2240.111298" y2="684.804815" stroke="black" stroke-width="4.454995"/>
<line x1="2329.062417" y1="665.378708" x2="2239.600082" y2="665.378708" stroke="black" stroke-width="4.454995"/>
<line x1="2329.062417" y1="646.463812" x2="2239.600082" y2="646.463812" stroke="black" stroke-width="4.454995"/>
<line x1="2329.573628" y1="627.548922" x2="2240.111298" y2="627.548922" stroke="black" stroke-width="4.454995"/>
<line x1="2329.573628" y1="608.634027" x2="2240.111298" y2="608.634027" stroke="black" stroke-width="4.454995"/>
<line x1="2421.592029" y1="601.988256" x2="2421.592029" y2="614.768586" stroke="black" stroke-width="4.454995"/>
<line x1="2421.592029" y1="614.768586" x2="2389.896803" y2="614.768586" stroke="black" stroke-width="4.454995"/>
<line x1="2389.896803" y1="614.768586" x2="2389.896803" y2="602.499467" stroke="black" stroke-width="4.454995"/>
<circle cx="2357.17915" cy="697.073934" r="7.668199943036171" fill="none" stroke="black" stroke-width="4.454995"/>
<line x1="2633.926041" y1="220.479044" x2="2814.439414" y2="220.479044" stroke="black" stroke-width="4.455"/>
<line x1="2814.439414" y1="220.479044" x2="2814.439414" y2="401.36232" stroke="black" stroke-width="4.455"/>
<line x1="2814.439414" y1="401.36232" x2="2633.926041" y2="401.36232" stroke="black" stroke-width="4.455"/>
<line x1="2633.926041" y1="401.36232" x2="2633.926041" y2="220.479044" stroke="black" stroke-width="4.455"/>
<line x1="2633.556138" y1="220.10914" x2="2814.439414" y2="401.36232" stroke="black" stroke-width="4.455"/>
<line x1="2633.926041" y1="400.992412" x2="2814.069506" y2="220.479044" stroke="black" stroke-width="4.455"/>
<line x1="2266.984912" y1="220.477935" x2="2447.498285" y2="220.477935" stroke="black" stroke-width="4.455"/>
<line x1="2447.498285" y1="220.477935" x2="2447.498285" y2="401.361211" stroke="black" stroke-width="4.455"/>
<line x1="2447.498285" y1="401.361211" x2="2266.984912" y2="401.361211" stroke="black" stroke-width="4.455"/>
<line x1="2266.984912" y1="401.361211" x2="2266.984912" y2="220.477935" stroke="black" stroke-width="4.455"/>
<line x1="2266.615009" y1="220.108032" x2="2447.498285" y2="401.361211" stroke="black" stroke-width="4.455"/>
<line x1="2266.984912" y1="400.991303" x2="2447.128377" y2="220.477935" stroke="black" stroke-width="4.455"/>
</g>
</svg>
