<?xml version="1.0"?>
<svg xmlns:xlink="http://www.w3.org/1999/xlink" width="3059.1" height="3341.25">
<image x="0" y="0" width="3059.1" height="3341.25" xlink:href="groundfilled-02.png"/>
<g style="stroke-linecap:round">
<line x1="980.860647" y1="1527.245503" x2="996.301459" y2="1527.245503" stroke="black" stroke-width="4.455"/>
<line x1="996.301459" y1="1527.245503" x2="996.301459" y2="1497.11709" stroke="black" stroke-width="4.455"/>
<line x1="996.301459" y1="1497.11709" x2="980.860647" y2="1497.11709" stroke="black" stroke-width="4.455"/>
<line x1="980.860647" y1="1497.11709" x2="980.860647" y2="1527.245503" stroke="black" stroke-width="4.455"/>
<line x1="1147.320128" y1="1497.11709" x2="1147.320128" y2="1346.851628" stroke="black" stroke-width="4.455"/>
<line x1="1147.696734" y1="1527.99871" x2="1163.137546" y2="1527.99871" stroke="black" stroke-width="4.455"/>
<line x1="1163.137546" y1="1527.99871" x2="1163.137546" y2="1497.870297" stroke="black" stroke-width="4.455"/>
<line x1="1163.137546" y1="1497.870297" x2="1147.696734" y2="1497.870297" stroke="black" stroke-width="4.455"/>
<line x1="1147.696734" y1="1497.870297" x2="1147.696734" y2="1527.99871" stroke="black" stroke-width="4.455"/>
<path d="m 996.301459,1498.246903 a 151.01866900000005,151.01866900000005 0 0 1 151.01866900000005,-151.01866900000005" fill="none" stroke="black" stroke-width="4.455"/>
<line x1="1419.733463" y1="1470.293926" x2="1419.733463" y2="1286.549926" stroke="black" stroke-width="4.455"/>
<line x1="1419.733463" y1="1286.549926" x2="1468.837463" y2="1286.549926" stroke="black" stroke-width="4.455"/>
<line x1="1468.837463" y1="1470.293926" x2="1468.837463" y2="1286.549926" stroke="black" stroke-width="4.455"/>
<line x1="1419.733463" y1="1470.293926" x2="1468.837463" y2="1470.293926" stroke="black" stroke-width="4.455"/>
<line x1="1392.013463" y1="1428.713926" x2="1419.733463" y2="1428.713926" stroke="black" stroke-width="4.455"/>
<line x1="1419.733463" y1="1329.713926" x2="1390.429463" y2="1329.713926" stroke="black" stroke-width="4.455"/>
<circle cx="1346.869463" cy="1380.005926" r="66.528" fill="none" stroke="black" stroke-width="4.455"/>
<circle cx="1346.869463" cy="1380.005926" r="57.02400000000001" fill="none" stroke="black" stroke-width="4.455"/>
<line x1="323.817075" y1="1574.17916" x2="642.249422" y2="1574.17916" stroke="black" stroke-width="4.455"/>
<line x1="642.249422" y1="1574.17916" x2="642.249422" y2="1517.223777" stroke="black" stroke-width="4.455"/>
<line x1="642.249422" y1="1517.223777" x2="323.817075" y2="1517.223777" stroke="black" stroke-width="4.455"/>
<line x1="323.817075" y1="1517.223777" x2="323.817075" y2="1574.17916" stroke="black" stroke-width="4.455"/>
<line x1="338.703141" y1="1574.17916" x2="338.703141" y2="1593.595763" stroke="black" stroke-width="4.455"/>
<line x1="338.703141" y1="1593.595763" x2="626.716139" y2="1593.595763" stroke="black" stroke-width="4.455"/>
<line x1="626.716139" y1="1574.17916" x2="626.716139" y2="1593.595763" stroke="black" stroke-width="4.455"/>
<line x1="979.473117" y1="2198.984946" x2="979.473117" y2="2182.256292" stroke="black" stroke-width="4.455"/>
<line x1="979.473117" y1="2182.256292" x2="946.831837" y2="2182.256292" stroke="black" stroke-width="4.455"/>
<line x1="946.831837" y1="2182.256292" x2="946.831837" y2="2198.984946" stroke="black" stroke-width="4.455"/>
<line x1="946.831837" y1="2198.984946" x2="979.473117" y2="2198.984946" stroke="black" stroke-width="4.455"/>
<line x1="946.831837" y1="2018.641873" x2="784.03345" y2="2018.641873" stroke="black" stroke-width="4.455"/>
<line x1="980.289149" y1="2018.233854" x2="980.289149" y2="2001.505201" stroke="black" stroke-width="4.455"/>
<line x1="980.289149" y1="2001.505201" x2="947.647869" y2="2001.505201" stroke="black" stroke-width="4.455"/>
<line x1="947.647869" y1="2001.505201" x2="947.647869" y2="2018.233854" stroke="black" stroke-width="4.455"/>
<line x1="947.647869" y1="2018.233854" x2="980.289149" y2="2018.233854" stroke="black" stroke-width="4.455"/>
<path d="m 948.055883,2182.256292 a 163.614419,163.614419 0 0 1 -163.614419,-163.614419" fill="none" stroke="black" stroke-width="4.455"/>
<line x1="1378.153191" y1="2409.675112" x2="1378.153191" y2="2394.245769" stroke="black" stroke-width="4.455"/>
<line x1="1378.153191" y1="2394.245769" x2="1348.047157" y2="2394.245769" stroke="black" stroke-width="4.455"/>
<line x1="1348.047157" y1="2394.245769" x2="1348.047157" y2="2409.675112" stroke="black" stroke-width="4.455"/>
<line x1="1348.047157" y1="2409.675112" x2="1378.153191" y2="2409.675112" stroke="black" stroke-width="4.455"/>
<line x1="1348.047157" y1="2243.339267" x2="1197.893303" y2="2243.339267" stroke="black" stroke-width="4.455"/>
<line x1="1378.905843" y1="2242.962944" x2="1378.905843" y2="2227.533601" stroke="black" stroke-width="4.455"/>
<line x1="1378.905843" y1="2227.533601" x2="1348.799805" y2="2227.533601" stroke="black" stroke-width="4.455"/>
<line x1="1348.799805" y1="2227.533601" x2="1348.799805" y2="2242.962944" stroke="black" stroke-width="4.455"/>
<line x1="1348.799805" y1="2242.962944" x2="1378.905843" y2="2242.962944" stroke="black" stroke-width="4.455"/>
<path d="m 1349.176133,2394.245769 a 150.90650200000016,150.90650200000016 0 0 1 -150.90650200000005,-150.90650200000027" fill="none" stroke="black" stroke-width="4.455"/>
<line x1="373.001711" y1="1681.245433" x2="373.001711" y2="2074.489303" stroke="black" stroke-width="4.455"/>
<line x1="373.997988" y1="2078.444709" x2="237.929215" y2="2078.444709" stroke="black" stroke-width="4.455"/>
<line x1="236.777711" y1="1681.709822" x2="236.777711" y2="2078.75005" stroke="black" stroke-width="4.455"/>
<line x1="372.306959" y1="1682.444709" x2="237.042902" y2="1682.444709" stroke="black" stroke-width="4.455"/>
<line x1="361.913711" y1="1692.740709" x2="361.913711" y2="1816.292709" stroke="black" stroke-width="4.455"/>
<line x1="361.913711" y1="1816.292709" x2="247.865711" y2="1816.292709" stroke="black" stroke-width="4.455"/>
<line x1="247.865711" y1="1692.740709" x2="247.865711" y2="1816.292709" stroke="black" stroke-width="4.455"/>
<line x1="361.913711" y1="1692.740709" x2="247.865711" y2="1692.740709" stroke="black" stroke-width="4.455"/>
<line x1="354.785711" y1="1835.300709" x2="354.785711" y2="1922.420709" stroke="black" stroke-width="4.455"/>
<line x1="334.985711" y1="1835.300709" x2="334.985711" y2="1922.420709" stroke="black" stroke-width="4.455"/>
<line x1="314.393711" y1="1836.092709" x2="314.393711" y2="1922.420709" stroke="black" stroke-width="4.455"/>
<line x1="294.593711" y1="1836.092709" x2="294.593711" y2="1922.420709" stroke="black" stroke-width="4.455"/>
<line x1="274.793711" y1="1835.300709" x2="274.793711" y2="1922.420709" stroke="black" stroke-width="4.455"/>
<line x1="254.993711" y1="1835.300709" x2="254.993711" y2="1922.420709" stroke="black" stroke-width="4.455"/>
<line x1="248.657711" y1="1740.260709" x2="262.121711" y2="1740.260709" stroke="black" stroke-width="4.455"/>
<line x1="262.121711" y1="1740.260709" x2="262.121711" y2="1770.356709" stroke="black" stroke-width="4.455"/>
<line x1="262.121711" y1="1770.356709" x2="249.449711" y2="1770.356709" stroke="black" stroke-width="4.455"/>
<line x1="361.913711" y1="1943.012709" x2="361.913711" y2="2066.564709" stroke="black" stroke-width="4.455"/>
<line x1="361.913711" y1="2066.564709" x2="247.865711" y2="2066.564709" stroke="black" stroke-width="4.455"/>
<line x1="247.865711" y1="1943.012709" x2="247.865711" y2="2066.564709" stroke="black" stroke-width="4.455"/>
<line x1="361.913711" y1="1943.012709" x2="247.865711" y2="1943.012709" stroke="black" stroke-width="4.455"/>
<line x1="247.865711" y1="1990.532709" x2="261.329711" y2="1990.532709" stroke="black" stroke-width="4.455"/>
<line x1="261.329711" y1="1990.532709" x2="261.329711" y2="2020.628709" stroke="black" stroke-width="4.455"/>
<line x1="261.329711" y1="2020.628709" x2="248.657711" y2="2020.628709" stroke="black" stroke-width="4.455"/>
<circle cx="347.657711" cy="1802.036709" r="7.128000000000001" fill="none" stroke="black" stroke-width="4.455"/>
<circle cx="346.865711" cy="2052.308709" r="7.128000000000001" fill="none" stroke="black" stroke-width="4.455"/>
<line x1="1902.926248" y1="592.852565" x2="1918.36706" y2="592.852565" stroke="black" stroke-width="4.455"/>
<line x1="1918.36706" y1="592.852565" x2="1918.36706" y2="562.724153" stroke="black" stroke-width="4.455"/>
<line x1="1918.36706" y1="562.724153" x2="1902.926248" y2="562.724153" stroke="black" stroke-width="4.455"/>
<line x1="1902.926248" y1="562.724153" x2="1902.926248" y2="592.852565" stroke="black" stroke-width="4.455"/>
<line x1="2069.385729" y1="562.724153" x2="2069.385729" y2="412.458691" stroke="black" stroke-width="4.455"/>
<line x1="2069.762335" y1="593.605772" x2="2085.203147" y2="593.605772" stroke="black" stroke-width="4.455"/>
<line x1="2085.203147" y1="593.605772" x2="2085.203147" y2="563.47736" stroke="black" stroke-width="4.455"/>
<line x1="2085.203147" y1="563.47736" x2="2069.762335" y2="563.47736" stroke="black" stroke-width="4.455"/>
<line x1="2069.762335" y1="563.47736" x2="2069.762335" y2="593.605772" stroke="black" stroke-width="4.455"/>
<path d="m 1918.36706,563.853965 a 151.01866900000002,151.01866900000002 0 0 1 151.01866900000005,-151.018669" fill="none" stroke="black" stroke-width="4.455"/>
<line x1="1899.774603" y1="1104.844802" x2="1899.774603" y2="782.575918" stroke="black" stroke-width="4.455"/>
<line x1="1899.774603" y1="782.575918" x2="1842.133016" y2="782.575918" stroke="black" stroke-width="4.455"/>
<line x1="1842.133016" y1="782.575918" x2="1842.133016" y2="1104.844802" stroke="black" stroke-width="4.455"/>
<line x1="1842.133016" y1="1104.844802" x2="1899.774603" y2="1104.844802" stroke="black" stroke-width="4.455"/>
<line x1="1899.774603" y1="1089.779387" x2="1919.425142" y2="1089.779387" stroke="black" stroke-width="4.455"/>
<line x1="1919.425142" y1="1089.779387" x2="1919.425142" y2="798.29635" stroke="black" stroke-width="4.455"/>
<line x1="1899.774603" y1="798.29635" x2="1919.425142" y2="798.29635" stroke="black" stroke-width="4.455"/>
<line x1="2082.914663" y1="1560.903651" x2="2067.48532" y2="1560.903651" stroke="black" stroke-width="4.455"/>
<line x1="2067.48532" y1="1560.903651" x2="2067.48532" y2="1591.009685" stroke="black" stroke-width="4.455"/>
<line x1="2067.48532" y1="1591.009685" x2="2082.914663" y2="1591.009685" stroke="black" stroke-width="4.455"/>
<line x1="2082.914663" y1="1591.009685" x2="2082.914663" y2="1560.903651" stroke="black" stroke-width="4.455"/>
<line x1="1916.578818" y1="1591.009685" x2="1916.578818" y2="1741.16354" stroke="black" stroke-width="4.455"/>
<line x1="1916.202494" y1="1560.150999" x2="1900.773151" y2="1560.150999" stroke="black" stroke-width="4.455"/>
<line x1="1900.773151" y1="1560.150999" x2="1900.773151" y2="1590.257038" stroke="black" stroke-width="4.455"/>
<line x1="1900.773151" y1="1590.257038" x2="1916.202494" y2="1590.257038" stroke="black" stroke-width="4.455"/>
<line x1="1916.202494" y1="1590.257038" x2="1916.202494" y2="1560.150999" stroke="black" stroke-width="4.455"/>
<path d="m 2067.48532,1589.880709 a 150.90650199999993,150.90650199999993 0 0 1 -150.90650199999982,150.90650200000005" fill="none" stroke="black" stroke-width="4.455"/>
<line x1="2260.978439" y1="3149.061295" x2="1942.546092" y2="3149.061295" stroke="black" stroke-width="4.455"/>
<line x1="1942.546092" y1="3149.061295" x2="1942.546092" y2="3206.016678" stroke="black" stroke-width="4.455"/>
<line x1="1942.546092" y1="3206.016678" x2="2260.978439" y2="3206.016678" stroke="black" stroke-width="4.455"/>
<line x1="2260.978439" y1="3206.016678" x2="2260.978439" y2="3149.061295" stroke="black" stroke-width="4.455"/>
<line x1="2246.092373" y1="3149.061295" x2="2246.092373" y2="3129.644692" stroke="black" stroke-width="4.455"/>
<line x1="2246.092373" y1="3129.644692" x2="1958.079375" y2="3129.644692" stroke="black" stroke-width="4.455"/>
<line x1="1958.079375" y1="3149.061295" x2="1958.079375" y2="3129.644692" stroke="black" stroke-width="4.455"/>
<line x1="775.155897" y1="3158.28511" x2="472.050518" y2="3158.28511" stroke="black" stroke-width="4.455"/>
<line x1="472.050518" y1="3158.28511" x2="472.050518" y2="3205.011294" stroke="black" stroke-width="4.455"/>
<line x1="472.050518" y1="3205.011294" x2="775.155897" y2="3205.011294" stroke="black" stroke-width="4.455"/>
<line x1="775.155897" y1="3205.011294" x2="775.155897" y2="3158.28511" stroke="black" stroke-width="4.455"/>
<line x1="746.874261" y1="3204.396474" x2="746.874261" y2="3158.89993" stroke="black" stroke-width="4.455"/>
<line x1="500.946975" y1="3204.396474" x2="500.946975" y2="3157.055476" stroke="black" stroke-width="4.455"/>
<line x1="747.489075" y1="3182.877839" x2="501.561794" y2="3182.877839" stroke="black" stroke-width="4.455"/>
<line x1="1635.576055" y1="2910.002589" x2="1635.576055" y2="2929.936759" stroke="black" stroke-width="4.455005"/>
<line x1="1635.576055" y1="2929.936759" x2="1674.471996" y2="2929.936759" stroke="black" stroke-width="4.455005"/>
<line x1="1674.471996" y1="2929.936759" x2="1674.471996" y2="2910.002589" stroke="black" stroke-width="4.455005"/>
<line x1="1674.471996" y1="2910.002589" x2="1635.576055" y2="2910.002589" stroke="black" stroke-width="4.455005"/>
<line x1="1674.471996" y1="3124.902667" x2="1868.465501" y2="3124.902667" stroke="black" stroke-width="4.455005"/>
<line x1="1634.603657" y1="3125.388866" x2="1634.603657" y2="3145.323035" stroke="black" stroke-width="4.455005"/>
<line x1="1634.603657" y1="3145.323035" x2="1673.499599" y2="3145.323035" stroke="black" stroke-width="4.455005"/>
<line x1="1673.499599" y1="3145.323035" x2="1673.499599" y2="3125.388866" stroke="black" stroke-width="4.455005"/>
<line x1="1673.499599" y1="3125.388866" x2="1634.603657" y2="3125.388866" stroke="black" stroke-width="4.455005"/>
<path d="m 1673.0134,2929.936759 a 194.9659049999998,194.9659049999998 0 0 1 194.96590199999991,194.96590799999967" fill="none" stroke="black" stroke-width="4.455005"/>
<line x1="2407.61519" y1="2168.834535" x2="2430.555084" y2="2298.933153" stroke="black" stroke-width="4.455"/>
<line x1="2430.555084" y1="2298.933153" x2="2416.515666" y2="2301.408683" stroke="black" stroke-width="4.455"/>
<line x1="2393.575772" y1="2171.310065" x2="2416.515666" y2="2301.408683" stroke="black" stroke-width="4.455"/>
<line x1="2407.61519" y1="2168.834535" x2="2393.575772" y2="2171.310065" stroke="black" stroke-width="4.455"/>
<line x1="2395.886264" y1="2184.413522" x2="2364.66947" y2="2187.987764" stroke="black" stroke-width="4.455"/>
<line x1="2414.205174" y1="2288.305226" x2="2382.712561" y2="2295.788349" stroke="black" stroke-width="4.455"/>
<line x1="1953.673965" y1="2248.876624" x2="1976.613858" y2="2378.975237" stroke="black" stroke-width="4.455"/>
<line x1="1976.613858" y1="2378.975237" x2="1989.717315" y2="2376.664745" stroke="black" stroke-width="4.455"/>
<line x1="1966.777421" y1="2246.566128" x2="1989.717315" y2="2376.664745" stroke="black" stroke-width="4.455"/>
<line x1="1953.673965" y1="2248.876624" x2="1966.777421" y2="2246.566128" stroke="black" stroke-width="4.455"/>
<line x1="1970.794802" y1="2258.403553" x2="2001.351454" y2="2251.085468" stroke="black" stroke-width="4.455"/>
<line x1="1989.113712" y1="2362.295257" x2="2021.431505" y2="2359.491943" stroke="black" stroke-width="4.455"/>
<line x1="2297.019844" y1="2488.469594" x2="2294.54431" y2="2474.430171" stroke="black" stroke-width="4.455"/>
<line x1="2294.54431" y1="2474.430171" x2="2164.445697" y2="2497.37007" stroke="black" stroke-width="4.455"/>
<line x1="2166.921222" y1="2511.409487" x2="2164.445697" y2="2497.37007" stroke="black" stroke-width="4.455"/>
<line x1="2297.019844" y1="2488.469594" x2="2166.921222" y2="2511.409487" stroke="black" stroke-width="4.455"/>
<line x1="2178.485115" y1="2494.89454" x2="2170.066031" y2="2463.56696" stroke="black" stroke-width="4.455"/>
<line x1="2281.440853" y1="2476.740668" x2="2277.701578" y2="2444.587908" stroke="black" stroke-width="4.455"/>
<line x1="2218.078749" y1="2035.299291" x2="2220.554284" y2="2049.338709" stroke="black" stroke-width="4.455"/>
<line x1="2220.554284" y1="2049.338709" x2="2090.455661" y2="2072.278608" stroke="black" stroke-width="4.455"/>
<line x1="2087.980137" y1="2058.23919" x2="2090.455661" y2="2072.278608" stroke="black" stroke-width="4.455"/>
<line x1="2218.078749" y1="2035.299291" x2="2087.980137" y2="2058.23919" stroke="black" stroke-width="4.455"/>
<line x1="2104.495079" y1="2069.803078" x2="2107.298398" y2="2102.120866" stroke="black" stroke-width="4.455"/>
<line x1="2207.450822" y1="2051.649201" x2="2214.933945" y2="2083.141814" stroke="black" stroke-width="4.455"/>
<circle cx="2192.499986" cy="2273.354389" r="191.9808" fill="none" stroke="black" stroke-width="4.455"/>
<line x1="922.429045" y1="2769.930732" x2="1072.214129" y2="2652.905802" stroke="black" stroke-width="4.455"/>
<line x1="1072.214129" y1="2652.905802" x2="786.67329" y2="2287.430194" stroke="black" stroke-width="4.455"/>
<line x1="786.67329" y1="2287.430194" x2="636.888206" y2="2404.455124" stroke="black" stroke-width="4.455"/>
<line x1="636.888206" y1="2404.455124" x2="651.516322" y2="2423.178262" stroke="black" stroke-width="4.455"/>
<line x1="651.516322" y1="2423.178262" x2="783.327199" y2="2320.196324" stroke="black" stroke-width="4.455"/>
<line x1="783.327199" y1="2320.196324" x2="1039.026676" y2="2647.476731" stroke="black" stroke-width="4.455"/>
<line x1="1039.026676" y1="2647.476731" x2="907.215799" y2="2750.458674" stroke="black" stroke-width="4.455"/>
<line x1="907.215799" y1="2750.458674" x2="922.429045" y2="2769.930732" stroke="black" stroke-width="4.455"/>
<line x1="911.709355" y1="2746.947921" x2="656.009873" y2="2419.667514" stroke="black" stroke-width="4.455"/>
<line x1="783.403251" y1="2584.267305" x2="910.720572" y2="2484.796114" stroke="black" stroke-width="4.455"/>
<line x1="1173.197466" y1="3062.58384" x2="1198.678882" y2="2855.054347" stroke="black" stroke-width="4.455"/>
<line x1="1198.678882" y1="2855.054347" x2="968.509808" y2="2826.793139" stroke="black" stroke-width="4.455"/>
<line x1="968.509808" y1="2826.793139" x2="943.028391" y2="3034.322626" stroke="black" stroke-width="4.455"/>
<line x1="943.028391" y1="3034.322626" x2="1173.197466" y2="3062.58384" stroke="black" stroke-width="4.455"/>
<line x1="1141.124723" y1="3058.645798" x2="1166.60614" y2="2851.11631" stroke="black" stroke-width="4.455"/>
<line x1="2604.028126" y1="2916.847261" x2="2835.925726" y2="2916.847261" stroke="black" stroke-width="4.455"/>
<line x1="2835.925726" y1="2916.847261" x2="2835.925726" y2="3149.220061" stroke="black" stroke-width="4.455"/>
<line x1="2835.925726" y1="3149.220061" x2="2604.028126" y2="3149.220061" stroke="black" stroke-width="4.455"/>
<line x1="2604.028126" y1="3149.220061" x2="2604.028126" y2="2916.847261" stroke="black" stroke-width="4.455"/>
<line x1="2603.552926" y1="2916.372061" x2="2835.925726" y2="3149.220061" stroke="black" stroke-width="4.455"/>
<line x1="2604.028126" y1="3148.744861" x2="2835.450526" y2="2916.847261" stroke="black" stroke-width="4.455"/>
<line x1="2406.263721" y1="1558.239205" x2="2406.263721" y2="1165.407205" stroke="black" stroke-width="4.455"/>
<line x1="2406.263721" y1="1165.407205" x2="2221.727721" y2="1165.407205" stroke="black" stroke-width="4.455"/>
<line x1="2221.727721" y1="1165.407205" x2="2221.727721" y2="1558.239205" stroke="black" stroke-width="4.455"/>
<line x1="2221.727721" y1="1558.239205" x2="2406.263721" y2="1558.239205" stroke="black" stroke-width="4.455"/>
<line x1="2221.727721" y1="1399.047205" x2="2140.943721" y2="1399.047205" stroke="black" stroke-width="4.455"/>
<line x1="2140.943721" y1="1399.047205" x2="2140.943721" y2="1477.455205" stroke="black" stroke-width="4.455"/>
<line x1="2140.943721" y1="1477.455205" x2="2221.727721" y2="1477.455205" stroke="black" stroke-width="4.455"/>
<line x1="2158.367721" y1="1476.663205" x2="2158.367721" y2="1399.047205" stroke="black" stroke-width="4.455"/>
<line x1="2487.839721" y1="1477.455205" x2="2487.839721" y2="1399.047205" stroke="black" stroke-width="4.455"/>
<line x1="2487.839721" y1="1399.047205" x2="2406.263721" y2="1399.047205" stroke="black" stroke-width="4.455"/>
<line x1="2406.263721" y1="1477.455205" x2="2487.839721" y2="1477.455205" stroke="black" stroke-width="4.455"/>
<line x1="2470.415721" y1="1476.663205" x2="2470.415721" y2="1399.047205" stroke="black" stroke-width="4.455"/>
<line x1="2221.727721" y1="1247.775205" x2="2140.943721" y2="1247.775205" stroke="black" stroke-width="4.455"/>
<line x1="2140.943721" y1="1247.775205" x2="2140.943721" y2="1326.183205" stroke="black" stroke-width="4.455"/>
<line x1="2140.943721" y1="1326.183205" x2="2221.727721" y2="1326.183205" stroke="black" stroke-width="4.455"/>
<line x1="2158.367721" y1="1326.183205" x2="2158.367721" y2="1247.775205" stroke="black" stroke-width="4.455"/>
<line x1="2487.839721" y1="1326.183205" x2="2487.839721" y2="1247.775205" stroke="black" stroke-width="4.455"/>
<line x1="2487.839721" y1="1247.775205" x2="2406.263721" y2="1247.775205" stroke="black" stroke-width="4.455"/>
<line x1="2406.263721" y1="1326.183205" x2="2487.839721" y2="1326.183205" stroke="black" stroke-width="4.455"/>
<line x1="2470.415721" y1="1326.183205" x2="2470.415721" y2="1247.775205" stroke="black" stroke-width="4.455"/>
<line x1="2605.3652" y1="875.822978" x2="2837.2628" y2="875.822978" stroke="black" stroke-width="4.455"/>
<line x1="2837.2628" y1="875.822978" x2="2837.2628" y2="1108.195778" stroke="black" stroke-width="4.455"/>
<line x1="2837.2628" y1="1108.195778" x2="2605.3652" y2="1108.195778" stroke="black" stroke-width="4.455"/>
<line x1="2605.3652" y1="1108.195778" x2="2605.3652" y2="875.822978" stroke="black" stroke-width="4.455"/>
<line x1="2604.89" y1="875.347778" x2="2837.2628" y2="1108.195778" stroke="black" stroke-width="4.455"/>
<line x1="2605.3652" y1="1107.720578" x2="2836.7876" y2="875.822978" stroke="black" stroke-width="4.455"/>
<line x1="495.902979" y1="2196.427108" x2="645.473872" y2="2196.427108" stroke="black" stroke-width="4.455"/>
<line x1="645.473872" y1="2196.427108" x2="645.473872" y2="2030.539396" stroke="black" stroke-width="4.455"/>
<line x1="645.473872" y1="2030.539396" x2="495.902979" y2="2030.539396" stroke="black" stroke-width="4.455"/>
<line x1="495.902979" y1="2030.539396" x2="495.902979" y2="2196.427108" stroke="black" stroke-width="4.455"/>
<line x1="495.902979" y1="2173.311608" x2="645.473872" y2="2173.311608" stroke="black" stroke-width="4.455"/>
<line x1="776.410792" y1="1575.007587" x2="776.410792" y2="1966.255587" stroke="black" stroke-width="4.455"/>
<line x1="776.410792" y1="1966.255587" x2="950.650792" y2="1966.255587" stroke="black" stroke-width="4.455"/>
<line x1="950.650792" y1="1966.255587" x2="950.650792" y2="1575.007587" stroke="black" stroke-width="4.455"/>
<line x1="950.650792" y1="1575.007587" x2="776.410792" y2="1575.007587" stroke="black" stroke-width="4.455"/>
<line x1="923.722792" y1="1891.015587" x2="923.722792" y2="1606.687587" stroke="black" stroke-width="4.455"/>
<line x1="923.722792" y1="1606.687587" x2="805.714792" y2="1606.687587" stroke="black" stroke-width="4.455"/>
<line x1="805.714792" y1="1606.687587" x2="805.714792" y2="1896.559587" stroke="black" stroke-width="4.455"/>
<path d="m 923.978217,1890.205015 a 63.360001107387035,63.360001107387035 0 0 1 -119.37433399999998,4.293813" fill="none" stroke="black" stroke-width="4.455"/>
<line x1="2450.713483" y1="220.67794" x2="2631.226856" y2="220.67794" stroke="black" stroke-width="4.455"/>
<line x1="2631.226856" y1="220.67794" x2="2631.226856" y2="401.561216" stroke="black" stroke-width="4.455"/>
<line x1="2631.226856" y1="401.561216" x2="2450.713483" y2="401.561216" stroke="black" stroke-width="4.455"/>
<line x1="2450.713483" y1="401.561216" x2="2450.713483" y2="220.67794" stroke="black" stroke-width="4.455"/>
<line x1="2450.34358" y1="220.308036" x2="2631.226856" y2="401.561216" stroke="black" stroke-width="4.455"/>
<line x1="2450.713483" y1="401.191308" x2="2630.856947" y2="220.67794" stroke="black" stroke-width="4.455"/>
<line x1="2835.107109" y1="718.08361" x2="2480.4262" y2="718.08361" stroke="black" stroke-width="4.455"/>
<line x1="2476.858676" y1="718.982194" x2="2476.858676" y2="596.256829" stroke="black" stroke-width="4.455"/>
<line x1="2834.68826" y1="595.218245" x2="2476.583282" y2="595.218245" stroke="black" stroke-width="4.455"/>
<line x1="2834.02544" y1="717.45699" x2="2834.02544" y2="595.457433" stroke="black" stroke-width="4.455"/>
<line x1="2824.739102" y1="708.082942" x2="2713.303073" y2="708.082942" stroke="black" stroke-width="4.455"/>
<line x1="2713.303073" y1="708.082942" x2="2713.303073" y2="605.218913" stroke="black" stroke-width="4.455"/>
<line x1="2824.739102" y1="605.218913" x2="2713.303073" y2="605.218913" stroke="black" stroke-width="4.455"/>
<line x1="2824.739102" y1="708.082942" x2="2824.739102" y2="605.218913" stroke="black" stroke-width="4.455"/>
<line x1="2696.15907" y1="701.653941" x2="2617.582379" y2="701.653941" stroke="black" stroke-width="4.455"/>
<line x1="2696.15907" y1="683.795604" x2="2617.582379" y2="683.795604" stroke="black" stroke-width="4.455"/>
<line x1="2695.444736" y1="665.222931" x2="2617.582379" y2="665.222931" stroke="black" stroke-width="4.455"/>
<line x1="2695.444736" y1="647.364594" x2="2617.582379" y2="647.364594" stroke="black" stroke-width="4.455"/>
<line x1="2696.15907" y1="629.506256" x2="2617.582379" y2="629.506256" stroke="black" stroke-width="4.455"/>
<line x1="2696.15907" y1="611.647913" x2="2617.582379" y2="611.647913" stroke="black" stroke-width="4.455"/>
<line x1="2781.879091" y1="605.933247" x2="2781.879091" y2="618.076919" stroke="black" stroke-width="4.455"/>
<line x1="2781.879091" y1="618.076919" x2="2754.73442" y2="618.076919" stroke="black" stroke-width="4.455"/>
<line x1="2754.73442" y1="618.076919" x2="2754.73442" y2="606.647582" stroke="black" stroke-width="4.455"/>
<line x1="2599.009712" y1="708.082942" x2="2487.573678" y2="708.082942" stroke="black" stroke-width="4.455"/>
<line x1="2487.573678" y1="708.082942" x2="2487.573678" y2="605.218913" stroke="black" stroke-width="4.455"/>
<line x1="2599.009712" y1="605.218913" x2="2487.573678" y2="605.218913" stroke="black" stroke-width="4.455"/>
<line x1="2599.009712" y1="708.082942" x2="2599.009712" y2="605.218913" stroke="black" stroke-width="4.455"/>
<line x1="2556.149696" y1="605.218913" x2="2556.149696" y2="617.362584" stroke="black" stroke-width="4.455"/>
<line x1="2556.149696" y1="617.362584" x2="2529.005025" y2="617.362584" stroke="black" stroke-width="4.455"/>
<line x1="2529.005025" y1="617.362584" x2="2529.005025" y2="605.933247" stroke="black" stroke-width="4.455"/>
<circle cx="2726.161079" cy="695.224936" r="6.4290017181665915" fill="none" stroke="black" stroke-width="4.455"/>
<circle cx="2500.431684" cy="694.510606" r="6.4290017181665915" fill="none" stroke="black" stroke-width="4.455"/>
<line x1="234.655295" y1="2913.791201" x2="466.552895" y2="2913.791201" stroke="black" stroke-width="4.455"/>
<line x1="466.552895" y1="2913.791201" x2="466.552895" y2="3146.164001" stroke="black" stroke-width="4.455"/>
<line x1="466.552895" y1="3146.164001" x2="234.655295" y2="3146.164001" stroke="black" stroke-width="4.455"/>
<line x1="234.655295" y1="3146.164001" x2="234.655295" y2="2913.791201" stroke="black" stroke-width="4.455"/>
<line x1="234.180094" y1="2913.316001" x2="466.552895" y2="3146.164001" stroke="black" stroke-width="4.455"/>
<line x1="234.655295" y1="3145.688801" x2="466.077694" y2="2913.791201" stroke="black" stroke-width="4.455"/>
<line x1="2633.926041" y1="220.479044" x2="2814.439414" y2="220.479044" stroke="black" stroke-width="4.455"/>
<line x1="2814.439414" y1="220.479044" x2="2814.439414" y2="401.36232" stroke="black" stroke-width="4.455"/>
<line x1="2814.439414" y1="401.36232" x2="2633.926041" y2="401.36232" stroke="black" stroke-width="4.455"/>
<line x1="2633.926041" y1="401.36232" x2="2633.926041" y2="220.479044" stroke="black" stroke-width="4.455"/>
<line x1="2633.556138" y1="220.10914" x2="2814.439414" y2="401.36232" stroke="black" stroke-width="4.455"/>
<line x1="2633.926041" y1="400.992412" x2="2814.069506" y2="220.479044" stroke="black" stroke-width="4.455"/>
<line x1="2266.984912" y1="220.477935" x2="2447.498285" y2="220.477935" stroke="black" stroke-width="4.455"/>
<line x1="2447.498285" y1="220.477935" x2="2447.498285" y2="401.361211" stroke="black" stroke-width="4.455"/>
<line x1="2447.498285" y1="401.361211" x2="2266.984912" y2="401.361211" stroke="black" stroke-width="4.455"/>
<line x1="2266.984912" y1="401.361211" x2="2266.984912" y2="220.477935" stroke="black" stroke-width="4.455"/>
<line x1="2266.615009" y1="220.108032" x2="2447.498285" y2="401.361211" stroke="black" stroke-width="4.455"/>
<line x1="2266.984912" y1="400.991303" x2="2447.128377" y2="220.477935" stroke="black" stroke-width="4.455"/>
</g>
</svg>
