<?xml version="1.0"?>
<svg xmlns:xlink="http://www.w3.org/1999/xlink" width="3059.1" height="3341.25">
<image x="0" y="0" width="3059.1" height="3341.25" xlink:href="groundfilled-02.png"/>
<g style="stroke-linecap:round">
<line x1="980.860647" y1="1527.245503" x2="996.301459" y2="1527.245503" stroke="black" stroke-width="4.455"/>
<line x1="996.301459" y1="1527.245503" x2="996.301459" y2="1497.11709" stroke="black" stroke-width="4.455"/>
<line x1="996.301459" y1="1497.11709" x2="980.860647" y2="1497.11709" stroke="black" stroke-width="4.455"/>
<line x1="980.860647" y1="1497.11709" x2="980.860647" y2="1527.245503" stroke="black" stroke-width="4.455"/>
<line x1="1147.320128" y1="1497.11709" x2="1147.320128" y2="1346.851628" stroke="black" stroke-width="4.455"/>
<line x1="1147.696734" y1="1527.99871" x2="1163.137546" y2="1527.99871" stroke="black" stroke-width="4.455"/>
<line x1="1163.137546" y1="1527.99871" x2="1163.137546" y2="1497.870297" stroke="black" stroke-width="4.455"/>
<line x1="1163.137546" y1="1497.870297" x2="1147.696734" y2="1497.870297" stroke="black" stroke-width="4.455"/>
<line x1="1147.696734" y1="1497.870297" x2="1147.696734" y2="1527.99871" stroke="black" stroke-width="4.455"/>
<path d="m 996.301459,1498.246903 a 151.01866900000005,151.01866900000005 0 0 1 151.01866900000005,-151.01866900000005" fill="none" stroke="black" stroke-width="4.455"/>
<line x1="1419.733463" y1="1470.293926" x2="1419.733463" y2="1286.549926" stroke="black" stroke-width="4.455"/>
<line x1="1419.733463" y1="1286.549926" x2="1468.837463" y2="1286.549926" stroke="black" stroke-width="4.455"/>
<line x1="1468.837463" y1="1470.293926" x2="1468.837463" y2="1286.549926" stroke="black" stroke-width="4.455"/>
<line x1="1419.733463" y1="1470.293926" x2="1468.837463" y2="1470.293926" stroke="black" stroke-width="4.455"/>
<line x1="1392.013463" y1="1428.713926" x2="1419.733463" y2="1428.713926" stroke="black" stroke-width="4.455"/>
<line x1="1419.733463" y1="1329.713926" x2="1390.429463" y2="1329.713926" stroke="black" stroke-width="4.455"/>
<circle cx="1346.869463" cy="1380.005926" r="66.528" fill="none" stroke="black" stroke-width="4.455"/>
<circle cx="1346.869463" cy="1380.005926" r="57.02400000000001" fill="none" stroke="black" stroke-width="4.455"/>
<line x1="323.817075" y1="1574.17916" x2="642.249422" y2="1574.17916" stroke="black" stroke-width="4.455"/>
<line x1="642.249422" y1="1574.17916" x2="642.249422" y2="1517.223777" stroke="black" stroke-width="4.455"/>
<line x1="642.249422" y1="1517.223777" x2="323.817075" y2="1517.223777" stroke="black" stroke-width="4.455"/>
<line x1="323.817075" y1="1517.223777" x2="323.817075" y2="1574.17916" stroke="black" stroke-width="4.455"/>
<line x1="338.703141" y1="1574.17916" x2="338.703141" y2="1593.595763" stroke="black" stroke-width="4.455"/>
<line x1="338.703141" y1="1593.595763" x2="626.716139" y2="1593.595763" stroke="black" stroke-width="4.455"/>
<line x1="626.716139" y1="1574.17916" x2="626.716139" y2="1593.595763" stroke="black" stroke-width="4.455"/>
<line x1="979.473117" y1="2198.984946" x2="979.473117" y2="2182.256292" stroke="black" stroke-width="4.455"/>
<line x1="979.473117" y1="2182.256292" x2="946.831837" y2="2182.256292" stroke="black" stroke-width="4.455"/>
<line x1="946.831837" y1="2182.256292" x2="946.831837" y2="2198.984946" stroke="black" stroke-width="4.455"/>
<line x1="946.831837" y1="2198.984946" x2="979.473117" y2="2198.984946" stroke="black" stroke-width="4.455"/>
<line x1="946.831837" y1="2018.641873" x2="784.03345" y2="2018.641873" stroke="black" stroke-width="4.455"/>
<line x1="980.289149" y1="2018.233854" x2="980.289149" y2="2001.505201" stroke="black" stroke-width="4.455"/>
<line x1="980.289149" y1="2001.505201" x2="947.647869" y2="2001.505201" stroke="black" stroke-width="4.455"/>
<line x1="947.647869" y1="2001.505201" x2="947.647869" y2="2018.233854" stroke="black" stroke-width="4.455"/>
<line x1="947.647869" y1="2018.233854" x2="980.289149" y2="2018.233854" stroke="black" stroke-width="4.455"/>
<path d="m 948.055883,2182.256292 a 163.614419,163.614419 0 0 1 -163.614419,-163.614419" fill="none" stroke="black" stroke-width="4.455"/>
<line x1="1378.153191" y1="2409.675112" x2="1378.153191" y2="2394.245769" stroke="black" stroke-width="4.455"/>
<line x1="1378.153191" y1="2394.245769" x2="1348.047157" y2="2394.245769" stroke="black" stroke-width="4.455"/>
<line x1="1348.047157" y1="2394.245769" x2="1348.047157" y2="2409.675112" stroke="black" stroke-width="4.455"/>
<line x1="1348.047157" y1="2409.675112" x2="1378.153191" y2="2409.675112" stroke="black" stroke-width="4.455"/>
<line x1="1348.047157" y1="2243.339267" x2="1197.893303" y2="2243.339267" stroke="black" stroke-width="4.455"/>
<line x1="1378.905843" y1="2242.962944" x2="1378.905843" y2="2227.533601" stroke="black" stroke-width="4.455"/>
<line x1="1378.905843" y1="2227.533601" x2="1348.799805" y2="2227.533601" stroke="black" stroke-width="4.455"/>
<line x1="1348.799805" y1="2227.533601" x2="1348.799805" y2="2242.962944" stroke="black" stroke-width="4.455"/>
<line x1="1348.799805" y1="2242.962944" x2="1378.905843" y2="2242.962944" stroke="black" stroke-width="4.455"/>
<path d="m 1349.176133,2394.245769 a 150.90650200000016,150.90650200000016 0 0 1 -150.90650200000005,-150.90650200000027" fill="none" stroke="black" stroke-width="4.455"/>
<line x1="373.001711" y1="1681.245433" x2="373.001711" y2="2074.489303" stroke="black" stroke-width="4.455"/>
<line x1="373.997988" y1="2078.444709" x2="237.929215" y2="2078.444709" stroke="black" stroke-width="4.455"/>
<line x1="236.777711" y1="1681.709822" x2="236.777711" y2="2078.75005" stroke="black" stroke-width="4.455"/>
<line x1="372.306959" y1="1682.444709" x2="237.042902" y2="1682.444709" stroke="black" stroke-width="4.455"/>
<line x1="361.913711" y1="1692.740709" x2="361.913711" y2="1816.292709" stroke="black" stroke-width="4.455"/>
<line x1="361.913711" y1="1816.292709" x2="247.865711" y2="1816.292709" stroke="black" stroke-width="4.455"/>
<line x1="247.865711" y1="1692.740709" x2="247.865711" y2="1816.292709" stroke="black" stroke-width="4.455"/>
<line x1="361.913711" y1="1692.740709" x2="247.865711" y2="1692.740709" stroke="black" stroke-width="4.455"/>
<line x1="354.785711" y1="1835.300709" x2="354.785711" y2="1922.420709" stroke="black" stroke-width="4.455"/>
<line x1="334.985711" y1="1835.300709" x2="334.985711" y2="1922.420709" stroke="black" stroke-width="4.455"/>
<line x1="314.393711" y1="1836.092709" x2="314.393711" y2="1922.420709" stroke="black" stroke-width="4.455"/>
<line x1="294.593711" y1="1836.092709" x2="294.593711" y2="1922.420709" stroke="black" stroke-width="4.455"/>
<line x1="274.793711" y1="1835.300709" x2="274.793711" y2="1922.420709" stroke="black" stroke-width="4.455"/>
<line x1="254.993711" y1="1835.300709" x2="254.993711" y2="1922.420709" stroke="black" stroke-width="4.455"/>
<line x1="248.657711" y1="1740.260709" x2="262.121711" y2="1740.260709" stroke="black" stroke-width="4.455"/>
<line x1="262.121711" y1="1740.260709" x2="262.121711" y2="1770.356709" stroke="black" stroke-width="4.455"/>
<line x1="262.121711" y1="1770.356709" x2="249.449711" y2="1770.356709" stroke="black" stroke-width="4.455"/>
<line x1="361.913711" y1="1943.012709" x2="361.913711" y2="2066.564709" stroke="black" stroke-width="4.455"/>
<line x1="361.913711" y1="2066.564709" x2="247.865711" y2="2066.564709" stroke="black" stroke-width="4.455"/>
<line x1="247.865711" y1="1943.012709" x2="247.865711" y2="2066.564709" stroke="black" stroke-width="4.455"/>
<line x1="361.913711" y1="1943.012709" x2="247.865711" y2="1943.012709" stroke="black" stroke-width="4.455"/>
<line x1="247.865711" y1="1990.532709" x2="261.329711" y2="1990.532709" stroke="black" stroke-width="4.455"/>
<line x1="261.329711" y1="1990.532709" x2="261.329711" y2="2020.628709" stroke="black" stroke-width="4.455"/>
<line x1="261.329711" y1="2020.628709" x2="248.657711" y2="2020.628709" stroke="black" stroke-width="4.455"/>
<circle cx="347.657711" cy="1802.036709" r="7.128000000000001" fill="none" stroke="black" stroke-width="4.455"/>
<circle cx="346.865711" cy="2052.308709" r="7.128000000000001" fill="none" stroke="black" stroke-width="4.455"/>
<line x1="548.321143" y1="2030.856696" x2="713.552959" y2="2030.856696" stroke="black" stroke-width="4.455"/>
<line x1="713.552959" y1="2030.856696" x2="713.552959" y2="2196.427103" stroke="black" stroke-width="4.455"/>
<line x1="713.552959" y1="2196.427103" x2="548.321143" y2="2196.427103" stroke="black" stroke-width="4.455"/>
<line x1="548.321143" y1="2196.427103" x2="548.321143" y2="2030.856696" stroke="black" stroke-width="4.455"/>
<line x1="547.982553" y1="2030.518106" x2="713.552959" y2="2196.427103" stroke="black" stroke-width="4.455"/>
<line x1="548.321143" y1="2196.088513" x2="713.214369" y2="2030.856696" stroke="black" stroke-width="4.455"/>
<line x1="1902.926248" y1="592.852565" x2="1918.36706" y2="592.852565" stroke="black" stroke-width="4.455"/>
<line x1="1918.36706" y1="592.852565" x2="1918.36706" y2="562.724153" stroke="black" stroke-width="4.455"/>
<line x1="1918.36706" y1="562.724153" x2="1902.926248" y2="562.724153" stroke="black" stroke-width="4.455"/>
<line x1="1902.926248" y1="562.724153" x2="1902.926248" y2="592.852565" stroke="black" stroke-width="4.455"/>
<line x1="2069.385729" y1="562.724153" x2="2069.385729" y2="412.458691" stroke="black" stroke-width="4.455"/>
<line x1="2069.762335" y1="593.605772" x2="2085.203147" y2="593.605772" stroke="black" stroke-width="4.455"/>
<line x1="2085.203147" y1="593.605772" x2="2085.203147" y2="563.47736" stroke="black" stroke-width="4.455"/>
<line x1="2085.203147" y1="563.47736" x2="2069.762335" y2="563.47736" stroke="black" stroke-width="4.455"/>
<line x1="2069.762335" y1="563.47736" x2="2069.762335" y2="593.605772" stroke="black" stroke-width="4.455"/>
<path d="m 1918.36706,563.853965 a 151.01866900000002,151.01866900000002 0 0 1 151.01866900000005,-151.018669" fill="none" stroke="black" stroke-width="4.455"/>
<line x1="1899.774603" y1="1104.844802" x2="1899.774603" y2="782.575918" stroke="black" stroke-width="4.455"/>
<line x1="1899.774603" y1="782.575918" x2="1842.133016" y2="782.575918" stroke="black" stroke-width="4.455"/>
<line x1="1842.133016" y1="782.575918" x2="1842.133016" y2="1104.844802" stroke="black" stroke-width="4.455"/>
<line x1="1842.133016" y1="1104.844802" x2="1899.774603" y2="1104.844802" stroke="black" stroke-width="4.455"/>
<line x1="1899.774603" y1="1089.779387" x2="1919.425142" y2="1089.779387" stroke="black" stroke-width="4.455"/>
<line x1="1919.425142" y1="1089.779387" x2="1919.425142" y2="798.29635" stroke="black" stroke-width="4.455"/>
<line x1="1899.774603" y1="798.29635" x2="1919.425142" y2="798.29635" stroke="black" stroke-width="4.455"/>
<line x1="2082.914663" y1="1560.903651" x2="2067.48532" y2="1560.903651" stroke="black" stroke-width="4.455"/>
<line x1="2067.48532" y1="1560.903651" x2="2067.48532" y2="1591.009685" stroke="black" stroke-width="4.455"/>
<line x1="2067.48532" y1="1591.009685" x2="2082.914663" y2="1591.009685" stroke="black" stroke-width="4.455"/>
<line x1="2082.914663" y1="1591.009685" x2="2082.914663" y2="1560.903651" stroke="black" stroke-width="4.455"/>
<line x1="1916.578818" y1="1591.009685" x2="1916.578818" y2="1741.16354" stroke="black" stroke-width="4.455"/>
<line x1="1916.202494" y1="1560.150999" x2="1900.773151" y2="1560.150999" stroke="black" stroke-width="4.455"/>
<line x1="1900.773151" y1="1560.150999" x2="1900.773151" y2="1590.257038" stroke="black" stroke-width="4.455"/>
<line x1="1900.773151" y1="1590.257038" x2="1916.202494" y2="1590.257038" stroke="black" stroke-width="4.455"/>
<line x1="1916.202494" y1="1590.257038" x2="1916.202494" y2="1560.150999" stroke="black" stroke-width="4.455"/>
<path d="m 2067.48532,1589.880709 a 150.90650199999993,150.90650199999993 0 0 1 -150.90650199999982,150.90650200000005" fill="none" stroke="black" stroke-width="4.455"/>
<line x1="2260.988507" y1="3156.924613" x2="1942.536019" y2="3156.924613" stroke="black" stroke-width="4.455"/>
<line x1="1942.536019" y1="3156.924613" x2="1942.536019" y2="3206.016678" stroke="black" stroke-width="4.455"/>
<line x1="1942.536019" y1="3206.016678" x2="2260.988507" y2="3206.016678" stroke="black" stroke-width="4.455"/>
<line x1="2260.988507" y1="3206.016678" x2="2260.988507" y2="3156.924613" stroke="black" stroke-width="4.455"/>
<line x1="2231.274885" y1="3205.370728" x2="2231.274885" y2="3157.570558" stroke="black" stroke-width="4.455"/>
<line x1="1972.895587" y1="3205.370728" x2="1972.895587" y2="3155.632717" stroke="black" stroke-width="4.455"/>
<line x1="2231.920835" y1="3182.762543" x2="1973.541537" y2="3182.762543" stroke="black" stroke-width="4.455"/>
<line x1="775.146314" y1="3150.80076" x2="472.060106" y2="3150.80076" stroke="black" stroke-width="4.455"/>
<line x1="472.060106" y1="3150.80076" x2="472.060106" y2="3205.011298" stroke="black" stroke-width="4.455"/>
<line x1="472.060106" y1="3205.011298" x2="775.146314" y2="3205.011298" stroke="black" stroke-width="4.455"/>
<line x1="775.146314" y1="3205.011298" x2="775.146314" y2="3150.80076" stroke="black" stroke-width="4.455"/>
<line x1="760.977652" y1="3150.80076" x2="760.977652" y2="3132.31989" stroke="black" stroke-width="4.455"/>
<line x1="760.977652" y1="3132.31989" x2="486.844796" y2="3132.31989" stroke="black" stroke-width="4.455"/>
<line x1="486.844796" y1="3150.80076" x2="486.844796" y2="3132.31989" stroke="black" stroke-width="4.455"/>
<line x1="1635.576055" y1="2910.002589" x2="1635.576055" y2="2929.936759" stroke="black" stroke-width="4.455005"/>
<line x1="1635.576055" y1="2929.936759" x2="1674.471996" y2="2929.936759" stroke="black" stroke-width="4.455005"/>
<line x1="1674.471996" y1="2929.936759" x2="1674.471996" y2="2910.002589" stroke="black" stroke-width="4.455005"/>
<line x1="1674.471996" y1="2910.002589" x2="1635.576055" y2="2910.002589" stroke="black" stroke-width="4.455005"/>
<line x1="1674.471996" y1="3124.902667" x2="1868.465501" y2="3124.902667" stroke="black" stroke-width="4.455005"/>
<line x1="1634.603657" y1="3125.388866" x2="1634.603657" y2="3145.323035" stroke="black" stroke-width="4.455005"/>
<line x1="1634.603657" y1="3145.323035" x2="1673.499599" y2="3145.323035" stroke="black" stroke-width="4.455005"/>
<line x1="1673.499599" y1="3145.323035" x2="1673.499599" y2="3125.388866" stroke="black" stroke-width="4.455005"/>
<line x1="1673.499599" y1="3125.388866" x2="1634.603657" y2="3125.388866" stroke="black" stroke-width="4.455005"/>
<path d="m 1673.0134,2929.936759 a 194.9659049999998,194.9659049999998 0 0 1 194.96590199999991,194.96590799999967" fill="none" stroke="black" stroke-width="4.455005"/>
<line x1="899.824251" y1="2755.183796" x2="1049.609336" y2="2638.158866" stroke="black" stroke-width="4.455"/>
<line x1="1049.609336" y1="2638.158866" x2="764.068496" y2="2272.683258" stroke="black" stroke-width="4.455"/>
<line x1="764.068496" y1="2272.683258" x2="614.283412" y2="2389.708188" stroke="black" stroke-width="4.455"/>
<line x1="614.283412" y1="2389.708188" x2="628.911528" y2="2408.431326" stroke="black" stroke-width="4.455"/>
<line x1="628.911528" y1="2408.431326" x2="760.722405" y2="2305.449387" stroke="black" stroke-width="4.455"/>
<line x1="760.722405" y1="2305.449387" x2="1016.421882" y2="2632.729795" stroke="black" stroke-width="4.455"/>
<line x1="1016.421882" y1="2632.729795" x2="884.611005" y2="2735.711738" stroke="black" stroke-width="4.455"/>
<line x1="884.611005" y1="2735.711738" x2="899.824251" y2="2755.183796" stroke="black" stroke-width="4.455"/>
<line x1="889.104561" y1="2732.200985" x2="633.405079" y2="2404.920578" stroke="black" stroke-width="4.455"/>
<line x1="760.798457" y1="2569.520369" x2="888.115779" y2="2470.049178" stroke="black" stroke-width="4.455"/>
<line x1="1173.197466" y1="3062.58384" x2="1198.678882" y2="2855.054347" stroke="black" stroke-width="4.455"/>
<line x1="1198.678882" y1="2855.054347" x2="968.509808" y2="2826.793139" stroke="black" stroke-width="4.455"/>
<line x1="968.509808" y1="2826.793139" x2="943.028391" y2="3034.322626" stroke="black" stroke-width="4.455"/>
<line x1="943.028391" y1="3034.322626" x2="1173.197466" y2="3062.58384" stroke="black" stroke-width="4.455"/>
<line x1="1141.124723" y1="3058.645798" x2="1166.60614" y2="2851.11631" stroke="black" stroke-width="4.455"/>
<line x1="2406.263721" y1="1558.239205" x2="2406.263721" y2="1165.407205" stroke="black" stroke-width="4.455"/>
<line x1="2406.263721" y1="1165.407205" x2="2221.727721" y2="1165.407205" stroke="black" stroke-width="4.455"/>
<line x1="2221.727721" y1="1165.407205" x2="2221.727721" y2="1558.239205" stroke="black" stroke-width="4.455"/>
<line x1="2221.727721" y1="1558.239205" x2="2406.263721" y2="1558.239205" stroke="black" stroke-width="4.455"/>
<line x1="2221.727721" y1="1399.047205" x2="2140.943721" y2="1399.047205" stroke="black" stroke-width="4.455"/>
<line x1="2140.943721" y1="1399.047205" x2="2140.943721" y2="1477.455205" stroke="black" stroke-width="4.455"/>
<line x1="2140.943721" y1="1477.455205" x2="2221.727721" y2="1477.455205" stroke="black" stroke-width="4.455"/>
<line x1="2158.367721" y1="1476.663205" x2="2158.367721" y2="1399.047205" stroke="black" stroke-width="4.455"/>
<line x1="2487.839721" y1="1477.455205" x2="2487.839721" y2="1399.047205" stroke="black" stroke-width="4.455"/>
<line x1="2487.839721" y1="1399.047205" x2="2406.263721" y2="1399.047205" stroke="black" stroke-width="4.455"/>
<line x1="2406.263721" y1="1477.455205" x2="2487.839721" y2="1477.455205" stroke="black" stroke-width="4.455"/>
<line x1="2470.415721" y1="1476.663205" x2="2470.415721" y2="1399.047205" stroke="black" stroke-width="4.455"/>
<line x1="2221.727721" y1="1247.775205" x2="2140.943721" y2="1247.775205" stroke="black" stroke-width="4.455"/>
<line x1="2140.943721" y1="1247.775205" x2="2140.943721" y2="1326.183205" stroke="black" stroke-width="4.455"/>
<line x1="2140.943721" y1="1326.183205" x2="2221.727721" y2="1326.183205" stroke="black" stroke-width="4.455"/>
<line x1="2158.367721" y1="1326.183205" x2="2158.367721" y2="1247.775205" stroke="black" stroke-width="4.455"/>
<line x1="2487.839721" y1="1326.183205" x2="2487.839721" y2="1247.775205" stroke="black" stroke-width="4.455"/>
<line x1="2487.839721" y1="1247.775205" x2="2406.263721" y2="1247.775205" stroke="black" stroke-width="4.455"/>
<line x1="2406.263721" y1="1326.183205" x2="2487.839721" y2="1326.183205" stroke="black" stroke-width="4.455"/>
<line x1="2470.415721" y1="1326.183205" x2="2470.415721" y2="1247.775205" stroke="black" stroke-width="4.455"/>
<line x1="2119.327784" y1="2567.168035" x2="2057.307962" y2="2450.52572" stroke="black" stroke-width="4.455"/>
<line x1="2057.307962" y1="2450.52572" x2="2069.895262" y2="2443.832929" stroke="black" stroke-width="4.455"/>
<line x1="2131.915084" y1="2560.475254" x2="2069.895262" y2="2443.832929" stroke="black" stroke-width="4.455"/>
<line x1="2119.327784" y1="2567.168035" x2="2131.915084" y2="2560.475254" stroke="black" stroke-width="4.455"/>
<line x1="2125.668481" y1="2548.727107" x2="2154.25292" y2="2535.681283" stroke="black" stroke-width="4.455"/>
<line x1="2076.141865" y1="2455.581076" x2="2103.780705" y2="2438.732454" stroke="black" stroke-width="4.455"/>
<line x1="2526.31718" y1="2350.767939" x2="2464.297358" y2="2234.12562" stroke="black" stroke-width="4.455"/>
<line x1="2464.297358" y1="2234.12562" x2="2452.549211" y2="2240.372218" stroke="black" stroke-width="4.455"/>
<line x1="2514.569028" y1="2357.014537" x2="2452.549211" y2="2240.372218" stroke="black" stroke-width="4.455"/>
<line x1="2526.31718" y1="2350.767939" x2="2514.569028" y2="2357.014537" stroke="black" stroke-width="4.455"/>
<line x1="2507.09031" y1="2346.997915" x2="2480.290619" y2="2363.400354" stroke="black" stroke-width="4.455"/>
<line x1="2457.563689" y1="2253.851889" x2="2427.693914" y2="2266.504748" stroke="black" stroke-width="4.455"/>
<line x1="2125.737544" y1="2229.001196" x2="2132.430335" y2="2241.588497" stroke="black" stroke-width="4.455"/>
<line x1="2132.430335" y1="2241.588497" x2="2249.072654" y2="2179.568675" stroke="black" stroke-width="4.455"/>
<line x1="2242.379868" y1="2166.981374" x2="2249.072654" y2="2179.568675" stroke="black" stroke-width="4.455"/>
<line x1="2125.737544" y1="2229.001196" x2="2242.379868" y2="2166.981374" stroke="black" stroke-width="4.455"/>
<line x1="2236.485354" y1="2186.261456" x2="2254.173129" y2="2213.454118" stroke="black" stroke-width="4.455"/>
<line x1="2144.178482" y1="2235.341894" x2="2157.670489" y2="2264.765481" stroke="black" stroke-width="4.455"/>
<line x1="2340.852302" y1="2635.597622" x2="2334.159521" y2="2623.010321" stroke="black" stroke-width="4.455"/>
<line x1="2334.159521" y1="2623.010321" x2="2450.801841" y2="2560.990499" stroke="black" stroke-width="4.455"/>
<line x1="2457.494627" y1="2573.5778" x2="2450.801841" y2="2560.990499" stroke="black" stroke-width="4.455"/>
<line x1="2340.852302" y1="2635.597622" x2="2457.494627" y2="2573.5778" stroke="black" stroke-width="4.455"/>
<line x1="2438.21454" y1="2567.683285" x2="2425.561687" y2="2537.81351" stroke="black" stroke-width="4.455"/>
<line x1="2345.907668" y1="2616.763723" x2="2329.059046" y2="2589.124878" stroke="black" stroke-width="4.455"/>
<circle cx="2291.616088" cy="2401.289496" r="191.9808" fill="none" stroke="black" stroke-width="4.455"/>
<line x1="2604.028126" y1="2916.847261" x2="2835.925726" y2="2916.847261" stroke="black" stroke-width="4.455"/>
<line x1="2835.925726" y1="2916.847261" x2="2835.925726" y2="3149.220061" stroke="black" stroke-width="4.455"/>
<line x1="2835.925726" y1="3149.220061" x2="2604.028126" y2="3149.220061" stroke="black" stroke-width="4.455"/>
<line x1="2604.028126" y1="3149.220061" x2="2604.028126" y2="2916.847261" stroke="black" stroke-width="4.455"/>
<line x1="2603.552926" y1="2916.372061" x2="2835.925726" y2="3149.220061" stroke="black" stroke-width="4.455"/>
<line x1="2604.028126" y1="3148.744861" x2="2835.450526" y2="2916.847261" stroke="black" stroke-width="4.455"/>
<line x1="2605.404003" y1="880.537977" x2="2837.301603" y2="880.537977" stroke="black" stroke-width="4.455"/>
<line x1="2837.301603" y1="880.537977" x2="2837.301603" y2="1112.910777" stroke="black" stroke-width="4.455"/>
<line x1="2837.301603" y1="1112.910777" x2="2605.404003" y2="1112.910777" stroke="black" stroke-width="4.455"/>
<line x1="2605.404003" y1="1112.910777" x2="2605.404003" y2="880.537977" stroke="black" stroke-width="4.455"/>
<line x1="2604.928803" y1="880.062777" x2="2837.301603" y2="1112.910777" stroke="black" stroke-width="4.455"/>
<line x1="2605.404003" y1="1112.435577" x2="2836.826403" y2="880.537977" stroke="black" stroke-width="4.455"/>
<line x1="950.650792" y1="1966.255587" x2="950.650792" y2="1575.007587" stroke="black" stroke-width="4.455"/>
<line x1="950.650792" y1="1575.007587" x2="776.410792" y2="1575.007587" stroke="black" stroke-width="4.455"/>
<line x1="776.410792" y1="1575.007587" x2="776.410792" y2="1966.255587" stroke="black" stroke-width="4.455"/>
<line x1="776.410792" y1="1966.255587" x2="950.650792" y2="1966.255587" stroke="black" stroke-width="4.455"/>
<line x1="803.338792" y1="1650.247587" x2="803.338792" y2="1934.575587" stroke="black" stroke-width="4.455"/>
<line x1="803.338792" y1="1934.575587" x2="921.346792" y2="1934.575587" stroke="black" stroke-width="4.455"/>
<line x1="921.346792" y1="1934.575587" x2="921.346792" y2="1644.703587" stroke="black" stroke-width="4.455"/>
<path d="m 803.083367,1651.05816 a 63.3600003087793,63.3600003087793 0 0 1 119.37433300000009,-4.293813" fill="none" stroke="black" stroke-width="4.455"/>
<line x1="2450.713483" y1="220.67794" x2="2631.226856" y2="220.67794" stroke="black" stroke-width="4.455"/>
<line x1="2631.226856" y1="220.67794" x2="2631.226856" y2="401.561216" stroke="black" stroke-width="4.455"/>
<line x1="2631.226856" y1="401.561216" x2="2450.713483" y2="401.561216" stroke="black" stroke-width="4.455"/>
<line x1="2450.713483" y1="401.561216" x2="2450.713483" y2="220.67794" stroke="black" stroke-width="4.455"/>
<line x1="2450.34358" y1="220.308036" x2="2631.226856" y2="401.561216" stroke="black" stroke-width="4.455"/>
<line x1="2450.713483" y1="401.191308" x2="2630.856947" y2="220.67794" stroke="black" stroke-width="4.455"/>
<line x1="2835.107109" y1="718.08361" x2="2480.4262" y2="718.08361" stroke="black" stroke-width="4.455"/>
<line x1="2476.858676" y1="718.982194" x2="2476.858676" y2="596.256829" stroke="black" stroke-width="4.455"/>
<line x1="2834.68826" y1="595.218245" x2="2476.583282" y2="595.218245" stroke="black" stroke-width="4.455"/>
<line x1="2834.02544" y1="717.45699" x2="2834.02544" y2="595.457433" stroke="black" stroke-width="4.455"/>
<line x1="2824.739102" y1="708.082942" x2="2713.303073" y2="708.082942" stroke="black" stroke-width="4.455"/>
<line x1="2713.303073" y1="708.082942" x2="2713.303073" y2="605.218913" stroke="black" stroke-width="4.455"/>
<line x1="2824.739102" y1="605.218913" x2="2713.303073" y2="605.218913" stroke="black" stroke-width="4.455"/>
<line x1="2824.739102" y1="708.082942" x2="2824.739102" y2="605.218913" stroke="black" stroke-width="4.455"/>
<line x1="2696.15907" y1="701.653941" x2="2617.582379" y2="701.653941" stroke="black" stroke-width="4.455"/>
<line x1="2696.15907" y1="683.795604" x2="2617.582379" y2="683.795604" stroke="black" stroke-width="4.455"/>
<line x1="2695.444736" y1="665.222931" x2="2617.582379" y2="665.222931" stroke="black" stroke-width="4.455"/>
<line x1="2695.444736" y1="647.364594" x2="2617.582379" y2="647.364594" stroke="black" stroke-width="4.455"/>
<line x1="2696.15907" y1="629.506256" x2="2617.582379" y2="629.506256" stroke="black" stroke-width="4.455"/>
<line x1="2696.15907" y1="611.647913" x2="2617.582379" y2="611.647913" stroke="black" stroke-width="4.455"/>
<line x1="2781.879091" y1="605.933247" x2="2781.879091" y2="618.076919" stroke="black" stroke-width="4.455"/>
<line x1="2781.879091" y1="618.076919" x2="2754.73442" y2="618.076919" stroke="black" stroke-width="4.455"/>
<line x1="2754.73442" y1="618.076919" x2="2754.73442" y2="606.647582" stroke="black" stroke-width="4.455"/>
<line x1="2599.009712" y1="708.082942" x2="2487.573678" y2="708.082942" stroke="black" stroke-width="4.455"/>
<line x1="2487.573678" y1="708.082942" x2="2487.573678" y2="605.218913" stroke="black" stroke-width="4.455"/>
<line x1="2599.009712" y1="605.218913" x2="2487.573678" y2="605.218913" stroke="black" stroke-width="4.455"/>
<line x1="2599.009712" y1="708.082942" x2="2599.009712" y2="605.218913" stroke="black" stroke-width="4.455"/>
<line x1="2556.149696" y1="605.218913" x2="2556.149696" y2="617.362584" stroke="black" stroke-width="4.455"/>
<line x1="2556.149696" y1="617.362584" x2="2529.005025" y2="617.362584" stroke="black" stroke-width="4.455"/>
<line x1="2529.005025" y1="617.362584" x2="2529.005025" y2="605.933247" stroke="black" stroke-width="4.455"/>
<circle cx="2726.161079" cy="695.224936" r="6.4290017181665915" fill="none" stroke="black" stroke-width="4.455"/>
<circle cx="2500.431684" cy="694.510606" r="6.4290017181665915" fill="none" stroke="black" stroke-width="4.455"/>
<line x1="234.655295" y1="2913.791201" x2="466.552895" y2="2913.791201" stroke="black" stroke-width="4.455"/>
<line x1="466.552895" y1="2913.791201" x2="466.552895" y2="3146.164001" stroke="black" stroke-width="4.455"/>
<line x1="466.552895" y1="3146.164001" x2="234.655295" y2="3146.164001" stroke="black" stroke-width="4.455"/>
<line x1="234.655295" y1="3146.164001" x2="234.655295" y2="2913.791201" stroke="black" stroke-width="4.455"/>
<line x1="234.180094" y1="2913.316001" x2="466.552895" y2="3146.164001" stroke="black" stroke-width="4.455"/>
<line x1="234.655295" y1="3145.688801" x2="466.077694" y2="2913.791201" stroke="black" stroke-width="4.455"/>
<line x1="2633.926041" y1="220.479044" x2="2814.439414" y2="220.479044" stroke="black" stroke-width="4.455"/>
<line x1="2814.439414" y1="220.479044" x2="2814.439414" y2="401.36232" stroke="black" stroke-width="4.455"/>
<line x1="2814.439414" y1="401.36232" x2="2633.926041" y2="401.36232" stroke="black" stroke-width="4.455"/>
<line x1="2633.926041" y1="401.36232" x2="2633.926041" y2="220.479044" stroke="black" stroke-width="4.455"/>
<line x1="2633.556138" y1="220.10914" x2="2814.439414" y2="401.36232" stroke="black" stroke-width="4.455"/>
<line x1="2633.926041" y1="400.992412" x2="2814.069506" y2="220.479044" stroke="black" stroke-width="4.455"/>
<line x1="2476.291856" y1="717.011252" x2="2226.819751" y2="717.011252" stroke="black" stroke-width="4.454995"/>
<line x1="2226.819751" y1="717.011252" x2="2226.819751" y2="595.34248" stroke="black" stroke-width="4.454995"/>
<line x1="2476.291856" y1="595.34248" x2="2226.819751" y2="595.34248" stroke="black" stroke-width="4.454995"/>
<line x1="2476.291856" y1="717.011252" x2="2476.291856" y2="595.34248" stroke="black" stroke-width="4.454995"/>
<line x1="2470.157296" y1="710.876692" x2="2342.865175" y2="710.876692" stroke="black" stroke-width="4.454995"/>
<line x1="2342.865175" y1="710.876692" x2="2342.865175" y2="601.988256" stroke="black" stroke-width="4.454995"/>
<line x1="2470.157296" y1="601.988256" x2="2342.865175" y2="601.988256" stroke="black" stroke-width="4.454995"/>
<line x1="2470.157296" y1="710.876692" x2="2470.157296" y2="601.988256" stroke="black" stroke-width="4.454995"/>
<line x1="2329.573628" y1="703.71971" x2="2240.111298" y2="703.71971" stroke="black" stroke-width="4.454995"/>
<line x1="2329.573628" y1="684.804815" x2="2240.111298" y2="684.804815" stroke="black" stroke-width="4.454995"/>
<line x1="2329.062417" y1="665.378708" x2="2239.600082" y2="665.378708" stroke="black" stroke-width="4.454995"/>
<line x1="2329.062417" y1="646.463812" x2="2239.600082" y2="646.463812" stroke="black" stroke-width="4.454995"/>
<line x1="2329.573628" y1="627.548922" x2="2240.111298" y2="627.548922" stroke="black" stroke-width="4.454995"/>
<line x1="2329.573628" y1="608.634027" x2="2240.111298" y2="608.634027" stroke="black" stroke-width="4.454995"/>
<line x1="2421.592029" y1="601.988256" x2="2421.592029" y2="614.768586" stroke="black" stroke-width="4.454995"/>
<line x1="2421.592029" y1="614.768586" x2="2389.896803" y2="614.768586" stroke="black" stroke-width="4.454995"/>
<line x1="2389.896803" y1="614.768586" x2="2389.896803" y2="602.499467" stroke="black" stroke-width="4.454995"/>
<circle cx="2357.17915" cy="697.073934" r="7.668199943036171" fill="none" stroke="black" stroke-width="4.454995"/>
<line x1="2266.984912" y1="220.477935" x2="2447.498285" y2="220.477935" stroke="black" stroke-width="4.455"/>
<line x1="2447.498285" y1="220.477935" x2="2447.498285" y2="401.361211" stroke="black" stroke-width="4.455"/>
<line x1="2447.498285" y1="401.361211" x2="2266.984912" y2="401.361211" stroke="black" stroke-width="4.455"/>
<line x1="2266.984912" y1="401.361211" x2="2266.984912" y2="220.477935" stroke="black" stroke-width="4.455"/>
<line x1="2266.615009" y1="220.108032" x2="2447.498285" y2="401.361211" stroke="black" stroke-width="4.455"/>
<line x1="2266.984912" y1="400.991303" x2="2447.128377" y2="220.477935" stroke="black" stroke-width="4.455"/>
</g>
</svg>
