<?xml version="1.0"?>
<svg xmlns:xlink="http://www.w3.org/1999/xlink" width="3059.1" height="3341.25">
<image x="0" y="0" width="3059.1" height="3341.25" xlink:href="groundfilled-02.png"/>
<g style="stroke-linecap:round">
<line x1="980.860647" y1="1527.245503" x2="996.301459" y2="1527.245503" stroke="black" stroke-width="4.455"/>
<line x1="996.301459" y1="1527.245503" x2="996.301459" y2="1497.11709" stroke="black" stroke-width="4.455"/>
<line x1="996.301459" y1="1497.11709" x2="980.860647" y2="1497.11709" stroke="black" stroke-width="4.455"/>
<line x1="980.860647" y1="1497.11709" x2="980.860647" y2="1527.245503" stroke="black" stroke-width="4.455"/>
<line x1="1147.320128" y1="1497.11709" x2="1147.320128" y2="1346.851628" stroke="black" stroke-width="4.455"/>
<line x1="1147.696734" y1="1527.99871" x2="1163.137546" y2="1527.99871" stroke="black" stroke-width="4.455"/>
<line x1="1163.137546" y1="1527.99871" x2="1163.137546" y2="1497.870297" stroke="black" stroke-width="4.455"/>
<line x1="1163.137546" y1="1497.870297" x2="1147.696734" y2="1497.870297" stroke="black" stroke-width="4.455"/>
<line x1="1147.696734" y1="1497.870297" x2="1147.696734" y2="1527.99871" stroke="black" stroke-width="4.455"/>
<path d="m 996.301459,1498.246903 a 151.01866900000005,151.01866900000005 0 0 1 151.01866900000005,-151.01866900000005" fill="none" stroke="black" stroke-width="4.455"/>
<line x1="1419.733463" y1="1470.293926" x2="1419.733463" y2="1286.549926" stroke="black" stroke-width="4.455"/>
<line x1="1419.733463" y1="1286.549926" x2="1468.837463" y2="1286.549926" stroke="black" stroke-width="4.455"/>
<line x1="1468.837463" y1="1470.293926" x2="1468.837463" y2="1286.549926" stroke="black" stroke-width="4.455"/>
<line x1="1419.733463" y1="1470.293926" x2="1468.837463" y2="1470.293926" stroke="black" stroke-width="4.455"/>
<line x1="1392.013463" y1="1428.713926" x2="1419.733463" y2="1428.713926" stroke="black" stroke-width="4.455"/>
<line x1="1419.733463" y1="1329.713926" x2="1390.429463" y2="1329.713926" stroke="black" stroke-width="4.455"/>
<circle cx="1346.869463" cy="1380.005926" r="66.528" fill="none" stroke="black" stroke-width="4.455"/>
<circle cx="1346.869463" cy="1380.005926" r="57.02400000000001" fill="none" stroke="black" stroke-width="4.455"/>
<line x1="323.817075" y1="1574.17916" x2="642.249422" y2="1574.17916" stroke="black" stroke-width="4.455"/>
<line x1="642.249422" y1="1574.17916" x2="642.249422" y2="1517.223777" stroke="black" stroke-width="4.455"/>
<line x1="642.249422" y1="1517.223777" x2="323.817075" y2="1517.223777" stroke="black" stroke-width="4.455"/>
<line x1="323.817075" y1="1517.223777" x2="323.817075" y2="1574.17916" stroke="black" stroke-width="4.455"/>
<line x1="338.703141" y1="1574.17916" x2="338.703141" y2="1593.595763" stroke="black" stroke-width="4.455"/>
<line x1="338.703141" y1="1593.595763" x2="626.716139" y2="1593.595763" stroke="black" stroke-width="4.455"/>
<line x1="626.716139" y1="1574.17916" x2="626.716139" y2="1593.595763" stroke="black" stroke-width="4.455"/>
<line x1="979.473117" y1="2198.984946" x2="979.473117" y2="2182.256292" stroke="black" stroke-width="4.455"/>
<line x1="979.473117" y1="2182.256292" x2="946.831837" y2="2182.256292" stroke="black" stroke-width="4.455"/>
<line x1="946.831837" y1="2182.256292" x2="946.831837" y2="2198.984946" stroke="black" stroke-width="4.455"/>
<line x1="946.831837" y1="2198.984946" x2="979.473117" y2="2198.984946" stroke="black" stroke-width="4.455"/>
<line x1="946.831837" y1="2018.641873" x2="784.03345" y2="2018.641873" stroke="black" stroke-width="4.455"/>
<line x1="980.289149" y1="2018.233854" x2="980.289149" y2="2001.505201" stroke="black" stroke-width="4.455"/>
<line x1="980.289149" y1="2001.505201" x2="947.647869" y2="2001.505201" stroke="black" stroke-width="4.455"/>
<line x1="947.647869" y1="2001.505201" x2="947.647869" y2="2018.233854" stroke="black" stroke-width="4.455"/>
<line x1="947.647869" y1="2018.233854" x2="980.289149" y2="2018.233854" stroke="black" stroke-width="4.455"/>
<path d="m 948.055883,2182.256292 a 163.614419,163.614419 0 0 1 -163.614419,-163.614419" fill="none" stroke="black" stroke-width="4.455"/>
<line x1="1378.153191" y1="2409.675112" x2="1378.153191" y2="2394.245769" stroke="black" stroke-width="4.455"/>
<line x1="1378.153191" y1="2394.245769" x2="1348.047157" y2="2394.245769" stroke="black" stroke-width="4.455"/>
<line x1="1348.047157" y1="2394.245769" x2="1348.047157" y2="2409.675112" stroke="black" stroke-width="4.455"/>
<line x1="1348.047157" y1="2409.675112" x2="1378.153191" y2="2409.675112" stroke="black" stroke-width="4.455"/>
<line x1="1348.047157" y1="2243.339267" x2="1197.893303" y2="2243.339267" stroke="black" stroke-width="4.455"/>
<line x1="1378.905843" y1="2242.962944" x2="1378.905843" y2="2227.533601" stroke="black" stroke-width="4.455"/>
<line x1="1378.905843" y1="2227.533601" x2="1348.799805" y2="2227.533601" stroke="black" stroke-width="4.455"/>
<line x1="1348.799805" y1="2227.533601" x2="1348.799805" y2="2242.962944" stroke="black" stroke-width="4.455"/>
<line x1="1348.799805" y1="2242.962944" x2="1378.905843" y2="2242.962944" stroke="black" stroke-width="4.455"/>
<path d="m 1349.176133,2394.245769 a 150.90650200000016,150.90650200000016 0 0 1 -150.90650200000005,-150.90650200000027" fill="none" stroke="black" stroke-width="4.455"/>
<line x1="368.724911" y1="1744.724144" x2="368.724911" y2="2015.271344" stroke="black" stroke-width="4.455"/>
<line x1="368.724911" y1="2015.271344" x2="236.777711" y2="2015.271344" stroke="black" stroke-width="4.455"/>
<line x1="236.777711" y1="1744.724144" x2="236.777711" y2="2015.271344" stroke="black" stroke-width="4.455"/>
<line x1="368.724911" y1="1744.724144" x2="236.777711" y2="1744.724144" stroke="black" stroke-width="4.455"/>
<line x1="362.072111" y1="1751.376944" x2="362.072111" y2="1889.422544" stroke="black" stroke-width="4.455"/>
<line x1="362.072111" y1="1889.422544" x2="243.984911" y2="1889.422544" stroke="black" stroke-width="4.455"/>
<line x1="243.984911" y1="1751.376944" x2="243.984911" y2="1889.422544" stroke="black" stroke-width="4.455"/>
<line x1="362.072111" y1="1751.376944" x2="243.984911" y2="1751.376944" stroke="black" stroke-width="4.455"/>
<line x1="354.310511" y1="1903.836944" x2="354.310511" y2="2000.856944" stroke="black" stroke-width="4.455"/>
<line x1="333.797711" y1="1903.836944" x2="333.797711" y2="2000.856944" stroke="black" stroke-width="4.455"/>
<line x1="312.730511" y1="1904.391344" x2="312.730511" y2="2001.411344" stroke="black" stroke-width="4.455"/>
<line x1="292.217711" y1="1904.391344" x2="292.217711" y2="2001.411344" stroke="black" stroke-width="4.455"/>
<line x1="271.704911" y1="1903.836944" x2="271.704911" y2="2000.856944" stroke="black" stroke-width="4.455"/>
<line x1="251.192111" y1="1903.836944" x2="251.192111" y2="2000.856944" stroke="black" stroke-width="4.455"/>
<line x1="243.984911" y1="1804.044944" x2="257.844911" y2="1804.044944" stroke="black" stroke-width="4.455"/>
<line x1="257.844911" y1="1804.044944" x2="257.844911" y2="1838.417744" stroke="black" stroke-width="4.455"/>
<line x1="257.844911" y1="1838.417744" x2="244.539311" y2="1838.417744" stroke="black" stroke-width="4.455"/>
<circle cx="347.103311" cy="1873.899344" r="8.316" fill="none" stroke="black" stroke-width="4.455"/>
<line x1="427.462601" y1="2030.856696" x2="592.694418" y2="2030.856696" stroke="black" stroke-width="4.455"/>
<line x1="592.694418" y1="2030.856696" x2="592.694418" y2="2196.427103" stroke="black" stroke-width="4.455"/>
<line x1="592.694418" y1="2196.427103" x2="427.462601" y2="2196.427103" stroke="black" stroke-width="4.455"/>
<line x1="427.462601" y1="2196.427103" x2="427.462601" y2="2030.856696" stroke="black" stroke-width="4.455"/>
<line x1="427.124011" y1="2030.518106" x2="592.694418" y2="2196.427103" stroke="black" stroke-width="4.455"/>
<line x1="427.462601" y1="2196.088513" x2="592.355828" y2="2030.856696" stroke="black" stroke-width="4.455"/>
<line x1="1902.926248" y1="592.852565" x2="1918.36706" y2="592.852565" stroke="black" stroke-width="4.455"/>
<line x1="1918.36706" y1="592.852565" x2="1918.36706" y2="562.724153" stroke="black" stroke-width="4.455"/>
<line x1="1918.36706" y1="562.724153" x2="1902.926248" y2="562.724153" stroke="black" stroke-width="4.455"/>
<line x1="1902.926248" y1="562.724153" x2="1902.926248" y2="592.852565" stroke="black" stroke-width="4.455"/>
<line x1="2069.385729" y1="562.724153" x2="2069.385729" y2="412.458691" stroke="black" stroke-width="4.455"/>
<line x1="2069.762335" y1="593.605772" x2="2085.203147" y2="593.605772" stroke="black" stroke-width="4.455"/>
<line x1="2085.203147" y1="593.605772" x2="2085.203147" y2="563.47736" stroke="black" stroke-width="4.455"/>
<line x1="2085.203147" y1="563.47736" x2="2069.762335" y2="563.47736" stroke="black" stroke-width="4.455"/>
<line x1="2069.762335" y1="563.47736" x2="2069.762335" y2="593.605772" stroke="black" stroke-width="4.455"/>
<path d="m 1918.36706,563.853965 a 151.01866900000002,151.01866900000002 0 0 1 151.01866900000005,-151.018669" fill="none" stroke="black" stroke-width="4.455"/>
<line x1="1891.816552" y1="1104.854989" x2="1891.816552" y2="782.565726" stroke="black" stroke-width="4.455"/>
<line x1="1891.816552" y1="782.565726" x2="1842.133016" y2="782.565726" stroke="black" stroke-width="4.455"/>
<line x1="1842.133016" y1="782.565726" x2="1842.133016" y2="1104.854989" stroke="black" stroke-width="4.455"/>
<line x1="1842.133016" y1="1104.854989" x2="1891.816552" y2="1104.854989" stroke="black" stroke-width="4.455"/>
<line x1="1842.786747" y1="1074.783377" x2="1891.16282" y2="1074.783377" stroke="black" stroke-width="4.455"/>
<line x1="1842.786747" y1="813.291074" x2="1893.124015" y2="813.291074" stroke="black" stroke-width="4.455"/>
<line x1="1865.667321" y1="1075.437109" x2="1865.667321" y2="813.944805" stroke="black" stroke-width="4.455"/>
<line x1="2082.914663" y1="1560.903651" x2="2067.48532" y2="1560.903651" stroke="black" stroke-width="4.455"/>
<line x1="2067.48532" y1="1560.903651" x2="2067.48532" y2="1591.009685" stroke="black" stroke-width="4.455"/>
<line x1="2067.48532" y1="1591.009685" x2="2082.914663" y2="1591.009685" stroke="black" stroke-width="4.455"/>
<line x1="2082.914663" y1="1591.009685" x2="2082.914663" y2="1560.903651" stroke="black" stroke-width="4.455"/>
<line x1="1916.578818" y1="1591.009685" x2="1916.578818" y2="1741.16354" stroke="black" stroke-width="4.455"/>
<line x1="1916.202494" y1="1560.150999" x2="1900.773151" y2="1560.150999" stroke="black" stroke-width="4.455"/>
<line x1="1900.773151" y1="1560.150999" x2="1900.773151" y2="1590.257038" stroke="black" stroke-width="4.455"/>
<line x1="1900.773151" y1="1590.257038" x2="1916.202494" y2="1590.257038" stroke="black" stroke-width="4.455"/>
<line x1="1916.202494" y1="1590.257038" x2="1916.202494" y2="1560.150999" stroke="black" stroke-width="4.455"/>
<path d="m 2067.48532,1589.880709 a 150.90650199999993,150.90650199999993 0 0 1 -150.90650199999982,150.90650200000005" fill="none" stroke="black" stroke-width="4.455"/>
<line x1="2260.978439" y1="3149.061295" x2="1942.546092" y2="3149.061295" stroke="black" stroke-width="4.455"/>
<line x1="1942.546092" y1="3149.061295" x2="1942.546092" y2="3206.016678" stroke="black" stroke-width="4.455"/>
<line x1="1942.546092" y1="3206.016678" x2="2260.978439" y2="3206.016678" stroke="black" stroke-width="4.455"/>
<line x1="2260.978439" y1="3206.016678" x2="2260.978439" y2="3149.061295" stroke="black" stroke-width="4.455"/>
<line x1="2246.092373" y1="3149.061295" x2="2246.092373" y2="3129.644692" stroke="black" stroke-width="4.455"/>
<line x1="2246.092373" y1="3129.644692" x2="1958.079375" y2="3129.644692" stroke="black" stroke-width="4.455"/>
<line x1="1958.079375" y1="3149.061295" x2="1958.079375" y2="3129.644692" stroke="black" stroke-width="4.455"/>
<line x1="775.155897" y1="3158.28511" x2="472.050518" y2="3158.28511" stroke="black" stroke-width="4.455"/>
<line x1="472.050518" y1="3158.28511" x2="472.050518" y2="3205.011294" stroke="black" stroke-width="4.455"/>
<line x1="472.050518" y1="3205.011294" x2="775.155897" y2="3205.011294" stroke="black" stroke-width="4.455"/>
<line x1="775.155897" y1="3205.011294" x2="775.155897" y2="3158.28511" stroke="black" stroke-width="4.455"/>
<line x1="746.874261" y1="3204.396474" x2="746.874261" y2="3158.89993" stroke="black" stroke-width="4.455"/>
<line x1="500.946975" y1="3204.396474" x2="500.946975" y2="3157.055476" stroke="black" stroke-width="4.455"/>
<line x1="747.489075" y1="3182.877839" x2="501.561794" y2="3182.877839" stroke="black" stroke-width="4.455"/>
<line x1="1635.576055" y1="2910.002589" x2="1635.576055" y2="2929.936759" stroke="black" stroke-width="4.455005"/>
<line x1="1635.576055" y1="2929.936759" x2="1674.471996" y2="2929.936759" stroke="black" stroke-width="4.455005"/>
<line x1="1674.471996" y1="2929.936759" x2="1674.471996" y2="2910.002589" stroke="black" stroke-width="4.455005"/>
<line x1="1674.471996" y1="2910.002589" x2="1635.576055" y2="2910.002589" stroke="black" stroke-width="4.455005"/>
<line x1="1674.471996" y1="3124.902667" x2="1868.465501" y2="3124.902667" stroke="black" stroke-width="4.455005"/>
<line x1="1634.603657" y1="3125.388866" x2="1634.603657" y2="3145.323035" stroke="black" stroke-width="4.455005"/>
<line x1="1634.603657" y1="3145.323035" x2="1673.499599" y2="3145.323035" stroke="black" stroke-width="4.455005"/>
<line x1="1673.499599" y1="3145.323035" x2="1673.499599" y2="3125.388866" stroke="black" stroke-width="4.455005"/>
<line x1="1673.499599" y1="3125.388866" x2="1634.603657" y2="3125.388866" stroke="black" stroke-width="4.455005"/>
<path d="m 1673.0134,2929.936759 a 194.9659049999998,194.9659049999998 0 0 1 194.96590199999991,194.96590799999967" fill="none" stroke="black" stroke-width="4.455005"/>
<line x1="2491.1637" y1="2698.197272" x2="2364.175648" y2="2734.610512" stroke="black" stroke-width="4.455"/>
<line x1="2364.175648" y1="2734.610512" x2="2360.246165" y2="2720.906763" stroke="black" stroke-width="4.455"/>
<line x1="2487.234217" y1="2684.493529" x2="2360.246165" y2="2720.906763" stroke="black" stroke-width="4.455"/>
<line x1="2491.1637" y1="2698.197272" x2="2487.234217" y2="2684.493529" stroke="black" stroke-width="4.455"/>
<line x1="2474.444056" y1="2688.161048" x2="2467.626351" y2="2657.488873" stroke="black" stroke-width="4.455"/>
<line x1="2373.036326" y1="2717.239244" x2="2362.30233" y2="2686.701352" stroke="black" stroke-width="4.455"/>
<line x1="2364.110318" y1="2255.109462" x2="2237.122265" y2="2291.522696" stroke="black" stroke-width="4.455"/>
<line x1="2237.122265" y1="2291.522696" x2="2240.78979" y2="2304.312862" stroke="black" stroke-width="4.455"/>
<line x1="2367.777842" y1="2267.899628" x2="2240.78979" y2="2304.312862" stroke="black" stroke-width="4.455"/>
<line x1="2364.110318" y1="2255.109462" x2="2367.777842" y2="2267.899628" stroke="black" stroke-width="4.455"/>
<line x1="2356.42519" y1="2273.132347" x2="2366.897227" y2="2302.756657" stroke="black" stroke-width="4.455"/>
<line x1="2255.017466" y1="2302.210543" x2="2261.183552" y2="2334.058264" stroke="black" stroke-width="4.455"/>
<line x1="2161.719282" y1="2621.618738" x2="2175.42303" y2="2617.689254" stroke="black" stroke-width="4.455"/>
<line x1="2175.42303" y1="2617.689254" x2="2139.009791" y2="2490.701202" stroke="black" stroke-width="4.455"/>
<line x1="2125.306042" y1="2494.630685" x2="2139.009791" y2="2490.701202" stroke="black" stroke-width="4.455"/>
<line x1="2161.719282" y1="2621.618738" x2="2125.306042" y2="2494.630685" stroke="black" stroke-width="4.455"/>
<line x1="2142.939279" y1="2504.40495" x2="2173.215201" y2="2492.757363" stroke="black" stroke-width="4.455"/>
<line x1="2171.755506" y1="2604.899093" x2="2203.341263" y2="2597.81942" stroke="black" stroke-width="4.455"/>
<line x1="2604.155474" y1="2495.740906" x2="2590.451731" y2="2499.670389" stroke="black" stroke-width="4.455"/>
<line x1="2590.451731" y1="2499.670389" x2="2554.038491" y2="2372.682337" stroke="black" stroke-width="4.455"/>
<line x1="2567.74224" y1="2368.752854" x2="2554.038491" y2="2372.682337" stroke="black" stroke-width="4.455"/>
<line x1="2604.155474" y1="2495.740906" x2="2567.74224" y2="2368.752854" stroke="black" stroke-width="4.455"/>
<line x1="2557.967975" y1="2386.38608" x2="2526.120254" y2="2392.552171" stroke="black" stroke-width="4.455"/>
<line x1="2586.784207" y1="2486.880228" x2="2556.246315" y2="2497.614228" stroke="black" stroke-width="4.455"/>
<circle cx="2364.730761" cy="2495.185793" r="191.9808" fill="none" stroke="black" stroke-width="4.455"/>
<line x1="970.539966" y1="2759.208146" x2="1097.72831" y2="2617.951174" stroke="black" stroke-width="4.455"/>
<line x1="1097.72831" y1="2617.951174" x2="753.06131" y2="2307.611612" stroke="black" stroke-width="4.455"/>
<line x1="753.06131" y1="2307.611612" x2="625.872966" y2="2448.868579" stroke="black" stroke-width="4.455"/>
<line x1="625.872966" y1="2448.868579" x2="643.530086" y2="2464.767127" stroke="black" stroke-width="4.455"/>
<line x1="643.530086" y1="2464.767127" x2="755.455828" y2="2340.46099" stroke="black" stroke-width="4.455"/>
<line x1="755.455828" y1="2340.46099" x2="1064.102307" y2="2618.367528" stroke="black" stroke-width="4.455"/>
<line x1="1064.102307" y1="2618.367528" x2="952.17656" y2="2742.673661" stroke="black" stroke-width="4.455"/>
<line x1="952.17656" y1="2742.673661" x2="970.539966" y2="2759.208146" stroke="black" stroke-width="4.455"/>
<line x1="955.992208" y1="2738.435951" x2="647.345734" y2="2460.529413" stroke="black" stroke-width="4.455"/>
<line x1="801.38617" y1="2600.506938" x2="909.496264" y2="2480.438516" stroke="black" stroke-width="4.455"/>
<line x1="1141.635949" y1="3083.84105" x2="1216.566386" y2="2888.640582" stroke="black" stroke-width="4.455"/>
<line x1="1216.566386" y1="2888.640582" x2="1000.071324" y2="2805.535918" stroke="black" stroke-width="4.455"/>
<line x1="1000.071324" y1="2805.535918" x2="925.140888" y2="3000.736377" stroke="black" stroke-width="4.455"/>
<line x1="925.140888" y1="3000.736377" x2="1141.635949" y2="3083.84105" stroke="black" stroke-width="4.455"/>
<line x1="1111.468604" y1="3072.260887" x2="1186.399041" y2="2877.060429" stroke="black" stroke-width="4.455"/>
<line x1="2604.028126" y1="2916.847261" x2="2835.925726" y2="2916.847261" stroke="black" stroke-width="4.455"/>
<line x1="2835.925726" y1="2916.847261" x2="2835.925726" y2="3149.220061" stroke="black" stroke-width="4.455"/>
<line x1="2835.925726" y1="3149.220061" x2="2604.028126" y2="3149.220061" stroke="black" stroke-width="4.455"/>
<line x1="2604.028126" y1="3149.220061" x2="2604.028126" y2="2916.847261" stroke="black" stroke-width="4.455"/>
<line x1="2603.552926" y1="2916.372061" x2="2835.925726" y2="3149.220061" stroke="black" stroke-width="4.455"/>
<line x1="2604.028126" y1="3148.744861" x2="2835.450526" y2="2916.847261" stroke="black" stroke-width="4.455"/>
<line x1="2606.38436" y1="999.651421" x2="2838.28196" y2="999.651421" stroke="black" stroke-width="4.455"/>
<line x1="2838.28196" y1="999.651421" x2="2838.28196" y2="1232.024221" stroke="black" stroke-width="4.455"/>
<line x1="2838.28196" y1="1232.024221" x2="2606.38436" y2="1232.024221" stroke="black" stroke-width="4.455"/>
<line x1="2606.38436" y1="1232.024221" x2="2606.38436" y2="999.651421" stroke="black" stroke-width="4.455"/>
<line x1="2605.90916" y1="999.176221" x2="2838.28196" y2="1232.024221" stroke="black" stroke-width="4.455"/>
<line x1="2606.38436" y1="1231.549021" x2="2837.80676" y2="999.651421" stroke="black" stroke-width="4.455"/>
<line x1="2510.807721" y1="1292.919205" x2="2117.975721" y2="1292.919205" stroke="black" stroke-width="4.455"/>
<line x1="2117.975721" y1="1292.919205" x2="2117.975721" y2="1477.455205" stroke="black" stroke-width="4.455"/>
<line x1="2117.975721" y1="1477.455205" x2="2510.807721" y2="1477.455205" stroke="black" stroke-width="4.455"/>
<line x1="2510.807721" y1="1477.455205" x2="2510.807721" y2="1292.919205" stroke="black" stroke-width="4.455"/>
<line x1="2351.615721" y1="1477.455205" x2="2351.615721" y2="1558.239205" stroke="black" stroke-width="4.455"/>
<line x1="2351.615721" y1="1558.239205" x2="2430.023721" y2="1558.239205" stroke="black" stroke-width="4.455"/>
<line x1="2430.023721" y1="1558.239205" x2="2430.023721" y2="1477.455205" stroke="black" stroke-width="4.455"/>
<line x1="2429.231721" y1="1540.815205" x2="2351.615721" y2="1540.815205" stroke="black" stroke-width="4.455"/>
<line x1="2430.023721" y1="1211.343205" x2="2351.615721" y2="1211.343205" stroke="black" stroke-width="4.455"/>
<line x1="2351.615721" y1="1211.343205" x2="2351.615721" y2="1292.919205" stroke="black" stroke-width="4.455"/>
<line x1="2430.023721" y1="1292.919205" x2="2430.023721" y2="1211.343205" stroke="black" stroke-width="4.455"/>
<line x1="2429.231721" y1="1228.767205" x2="2351.615721" y2="1228.767205" stroke="black" stroke-width="4.455"/>
<line x1="2200.343721" y1="1477.455205" x2="2200.343721" y2="1558.239205" stroke="black" stroke-width="4.455"/>
<line x1="2200.343721" y1="1558.239205" x2="2278.751721" y2="1558.239205" stroke="black" stroke-width="4.455"/>
<line x1="2278.751721" y1="1558.239205" x2="2278.751721" y2="1477.455205" stroke="black" stroke-width="4.455"/>
<line x1="2278.751721" y1="1540.815205" x2="2200.343721" y2="1540.815205" stroke="black" stroke-width="4.455"/>
<line x1="2278.751721" y1="1211.343205" x2="2200.343721" y2="1211.343205" stroke="black" stroke-width="4.455"/>
<line x1="2200.343721" y1="1211.343205" x2="2200.343721" y2="1292.919205" stroke="black" stroke-width="4.455"/>
<line x1="2278.751721" y1="1292.919205" x2="2278.751721" y2="1211.343205" stroke="black" stroke-width="4.455"/>
<line x1="2278.751721" y1="1228.767205" x2="2200.343721" y2="1228.767205" stroke="black" stroke-width="4.455"/>
<line x1="950.650792" y1="1966.255587" x2="950.650792" y2="1575.007587" stroke="black" stroke-width="4.455"/>
<line x1="950.650792" y1="1575.007587" x2="776.410792" y2="1575.007587" stroke="black" stroke-width="4.455"/>
<line x1="776.410792" y1="1575.007587" x2="776.410792" y2="1966.255587" stroke="black" stroke-width="4.455"/>
<line x1="776.410792" y1="1966.255587" x2="950.650792" y2="1966.255587" stroke="black" stroke-width="4.455"/>
<line x1="803.338792" y1="1650.247587" x2="803.338792" y2="1934.575587" stroke="black" stroke-width="4.455"/>
<line x1="803.338792" y1="1934.575587" x2="921.346792" y2="1934.575587" stroke="black" stroke-width="4.455"/>
<line x1="921.346792" y1="1934.575587" x2="921.346792" y2="1644.703587" stroke="black" stroke-width="4.455"/>
<path d="m 803.083367,1651.05816 a 63.3600003087793,63.3600003087793 0 0 1 119.37433300000009,-4.293813" fill="none" stroke="black" stroke-width="4.455"/>
<line x1="2450.713483" y1="220.67794" x2="2631.226856" y2="220.67794" stroke="black" stroke-width="4.455"/>
<line x1="2631.226856" y1="220.67794" x2="2631.226856" y2="401.561216" stroke="black" stroke-width="4.455"/>
<line x1="2631.226856" y1="401.561216" x2="2450.713483" y2="401.561216" stroke="black" stroke-width="4.455"/>
<line x1="2450.713483" y1="401.561216" x2="2450.713483" y2="220.67794" stroke="black" stroke-width="4.455"/>
<line x1="2450.34358" y1="220.308036" x2="2631.226856" y2="401.561216" stroke="black" stroke-width="4.455"/>
<line x1="2450.713483" y1="401.191308" x2="2630.856947" y2="220.67794" stroke="black" stroke-width="4.455"/>
<line x1="2835.107109" y1="718.08361" x2="2480.4262" y2="718.08361" stroke="black" stroke-width="4.455"/>
<line x1="2476.858676" y1="718.982194" x2="2476.858676" y2="596.256829" stroke="black" stroke-width="4.455"/>
<line x1="2834.68826" y1="595.218245" x2="2476.583282" y2="595.218245" stroke="black" stroke-width="4.455"/>
<line x1="2834.02544" y1="717.45699" x2="2834.02544" y2="595.457433" stroke="black" stroke-width="4.455"/>
<line x1="2824.739102" y1="708.082942" x2="2713.303073" y2="708.082942" stroke="black" stroke-width="4.455"/>
<line x1="2713.303073" y1="708.082942" x2="2713.303073" y2="605.218913" stroke="black" stroke-width="4.455"/>
<line x1="2824.739102" y1="605.218913" x2="2713.303073" y2="605.218913" stroke="black" stroke-width="4.455"/>
<line x1="2824.739102" y1="708.082942" x2="2824.739102" y2="605.218913" stroke="black" stroke-width="4.455"/>
<line x1="2696.15907" y1="701.653941" x2="2617.582379" y2="701.653941" stroke="black" stroke-width="4.455"/>
<line x1="2696.15907" y1="683.795604" x2="2617.582379" y2="683.795604" stroke="black" stroke-width="4.455"/>
<line x1="2695.444736" y1="665.222931" x2="2617.582379" y2="665.222931" stroke="black" stroke-width="4.455"/>
<line x1="2695.444736" y1="647.364594" x2="2617.582379" y2="647.364594" stroke="black" stroke-width="4.455"/>
<line x1="2696.15907" y1="629.506256" x2="2617.582379" y2="629.506256" stroke="black" stroke-width="4.455"/>
<line x1="2696.15907" y1="611.647913" x2="2617.582379" y2="611.647913" stroke="black" stroke-width="4.455"/>
<line x1="2781.879091" y1="605.933247" x2="2781.879091" y2="618.076919" stroke="black" stroke-width="4.455"/>
<line x1="2781.879091" y1="618.076919" x2="2754.73442" y2="618.076919" stroke="black" stroke-width="4.455"/>
<line x1="2754.73442" y1="618.076919" x2="2754.73442" y2="606.647582" stroke="black" stroke-width="4.455"/>
<line x1="2599.009712" y1="708.082942" x2="2487.573678" y2="708.082942" stroke="black" stroke-width="4.455"/>
<line x1="2487.573678" y1="708.082942" x2="2487.573678" y2="605.218913" stroke="black" stroke-width="4.455"/>
<line x1="2599.009712" y1="605.218913" x2="2487.573678" y2="605.218913" stroke="black" stroke-width="4.455"/>
<line x1="2599.009712" y1="708.082942" x2="2599.009712" y2="605.218913" stroke="black" stroke-width="4.455"/>
<line x1="2556.149696" y1="605.218913" x2="2556.149696" y2="617.362584" stroke="black" stroke-width="4.455"/>
<line x1="2556.149696" y1="617.362584" x2="2529.005025" y2="617.362584" stroke="black" stroke-width="4.455"/>
<line x1="2529.005025" y1="617.362584" x2="2529.005025" y2="605.933247" stroke="black" stroke-width="4.455"/>
<circle cx="2726.161079" cy="695.224936" r="6.4290017181665915" fill="none" stroke="black" stroke-width="4.455"/>
<circle cx="2500.431684" cy="694.510606" r="6.4290017181665915" fill="none" stroke="black" stroke-width="4.455"/>
<line x1="234.655295" y1="2913.791201" x2="466.552895" y2="2913.791201" stroke="black" stroke-width="4.455"/>
<line x1="466.552895" y1="2913.791201" x2="466.552895" y2="3146.164001" stroke="black" stroke-width="4.455"/>
<line x1="466.552895" y1="3146.164001" x2="234.655295" y2="3146.164001" stroke="black" stroke-width="4.455"/>
<line x1="234.655295" y1="3146.164001" x2="234.655295" y2="2913.791201" stroke="black" stroke-width="4.455"/>
<line x1="234.180094" y1="2913.316001" x2="466.552895" y2="3146.164001" stroke="black" stroke-width="4.455"/>
<line x1="234.655295" y1="3145.688801" x2="466.077694" y2="2913.791201" stroke="black" stroke-width="4.455"/>
<line x1="2476.291856" y1="717.011252" x2="2226.819751" y2="717.011252" stroke="black" stroke-width="4.454995"/>
<line x1="2226.819751" y1="717.011252" x2="2226.819751" y2="595.34248" stroke="black" stroke-width="4.454995"/>
<line x1="2476.291856" y1="595.34248" x2="2226.819751" y2="595.34248" stroke="black" stroke-width="4.454995"/>
<line x1="2476.291856" y1="717.011252" x2="2476.291856" y2="595.34248" stroke="black" stroke-width="4.454995"/>
<line x1="2470.157296" y1="710.876692" x2="2342.865175" y2="710.876692" stroke="black" stroke-width="4.454995"/>
<line x1="2342.865175" y1="710.876692" x2="2342.865175" y2="601.988256" stroke="black" stroke-width="4.454995"/>
<line x1="2470.157296" y1="601.988256" x2="2342.865175" y2="601.988256" stroke="black" stroke-width="4.454995"/>
<line x1="2470.157296" y1="710.876692" x2="2470.157296" y2="601.988256" stroke="black" stroke-width="4.454995"/>
<line x1="2329.573628" y1="703.71971" x2="2240.111298" y2="703.71971" stroke="black" stroke-width="4.454995"/>
<line x1="2329.573628" y1="684.804815" x2="2240.111298" y2="684.804815" stroke="black" stroke-width="4.454995"/>
<line x1="2329.062417" y1="665.378708" x2="2239.600082" y2="665.378708" stroke="black" stroke-width="4.454995"/>
<line x1="2329.062417" y1="646.463812" x2="2239.600082" y2="646.463812" stroke="black" stroke-width="4.454995"/>
<line x1="2329.573628" y1="627.548922" x2="2240.111298" y2="627.548922" stroke="black" stroke-width="4.454995"/>
<line x1="2329.573628" y1="608.634027" x2="2240.111298" y2="608.634027" stroke="black" stroke-width="4.454995"/>
<line x1="2421.592029" y1="601.988256" x2="2421.592029" y2="614.768586" stroke="black" stroke-width="4.454995"/>
<line x1="2421.592029" y1="614.768586" x2="2389.896803" y2="614.768586" stroke="black" stroke-width="4.454995"/>
<line x1="2389.896803" y1="614.768586" x2="2389.896803" y2="602.499467" stroke="black" stroke-width="4.454995"/>
<circle cx="2357.17915" cy="697.073934" r="7.668199943036171" fill="none" stroke="black" stroke-width="4.454995"/>
<line x1="2633.926041" y1="220.479044" x2="2814.439414" y2="220.479044" stroke="black" stroke-width="4.455"/>
<line x1="2814.439414" y1="220.479044" x2="2814.439414" y2="401.36232" stroke="black" stroke-width="4.455"/>
<line x1="2814.439414" y1="401.36232" x2="2633.926041" y2="401.36232" stroke="black" stroke-width="4.455"/>
<line x1="2633.926041" y1="401.36232" x2="2633.926041" y2="220.479044" stroke="black" stroke-width="4.455"/>
<line x1="2633.556138" y1="220.10914" x2="2814.439414" y2="401.36232" stroke="black" stroke-width="4.455"/>
<line x1="2633.926041" y1="400.992412" x2="2814.069506" y2="220.479044" stroke="black" stroke-width="4.455"/>
<line x1="2266.984912" y1="220.477935" x2="2447.498285" y2="220.477935" stroke="black" stroke-width="4.455"/>
<line x1="2447.498285" y1="220.477935" x2="2447.498285" y2="401.361211" stroke="black" stroke-width="4.455"/>
<line x1="2447.498285" y1="401.361211" x2="2266.984912" y2="401.361211" stroke="black" stroke-width="4.455"/>
<line x1="2266.984912" y1="401.361211" x2="2266.984912" y2="220.477935" stroke="black" stroke-width="4.455"/>
<line x1="2266.615009" y1="220.108032" x2="2447.498285" y2="401.361211" stroke="black" stroke-width="4.455"/>
<line x1="2266.984912" y1="400.991303" x2="2447.128377" y2="220.477935" stroke="black" stroke-width="4.455"/>
</g>
</svg>
