<?xml version="1.0"?>
<svg xmlns:xlink="http://www.w3.org/1999/xlink" width="3059.1" height="3341.25">
<image x="0" y="0" width="3059.1" height="3341.25" xlink:href="groundfilled-02.png"/>
<g style="stroke-linecap:round">
<line x1="980.860647" y1="1527.245503" x2="996.301459" y2="1527.245503" stroke="black" stroke-width="4.455"/>
<line x1="996.301459" y1="1527.245503" x2="996.301459" y2="1497.11709" stroke="black" stroke-width="4.455"/>
<line x1="996.301459" y1="1497.11709" x2="980.860647" y2="1497.11709" stroke="black" stroke-width="4.455"/>
<line x1="980.860647" y1="1497.11709" x2="980.860647" y2="1527.245503" stroke="black" stroke-width="4.455"/>
<line x1="1147.320128" y1="1497.11709" x2="1147.320128" y2="1346.851628" stroke="black" stroke-width="4.455"/>
<line x1="1147.696734" y1="1527.99871" x2="1163.137546" y2="1527.99871" stroke="black" stroke-width="4.455"/>
<line x1="1163.137546" y1="1527.99871" x2="1163.137546" y2="1497.870297" stroke="black" stroke-width="4.455"/>
<line x1="1163.137546" y1="1497.870297" x2="1147.696734" y2="1497.870297" stroke="black" stroke-width="4.455"/>
<line x1="1147.696734" y1="1497.870297" x2="1147.696734" y2="1527.99871" stroke="black" stroke-width="4.455"/>
<path d="m 996.301459,1498.246903 a 151.01866900000005,151.01866900000005 0 0 1 151.01866900000005,-151.01866900000005" fill="none" stroke="black" stroke-width="4.455"/>
<line x1="1419.733463" y1="1470.293926" x2="1419.733463" y2="1286.549926" stroke="black" stroke-width="4.455"/>
<line x1="1419.733463" y1="1286.549926" x2="1468.837463" y2="1286.549926" stroke="black" stroke-width="4.455"/>
<line x1="1468.837463" y1="1470.293926" x2="1468.837463" y2="1286.549926" stroke="black" stroke-width="4.455"/>
<line x1="1419.733463" y1="1470.293926" x2="1468.837463" y2="1470.293926" stroke="black" stroke-width="4.455"/>
<line x1="1392.013463" y1="1428.713926" x2="1419.733463" y2="1428.713926" stroke="black" stroke-width="4.455"/>
<line x1="1419.733463" y1="1329.713926" x2="1390.429463" y2="1329.713926" stroke="black" stroke-width="4.455"/>
<circle cx="1346.869463" cy="1380.005926" r="66.528" fill="none" stroke="black" stroke-width="4.455"/>
<circle cx="1346.869463" cy="1380.005926" r="57.02400000000001" fill="none" stroke="black" stroke-width="4.455"/>
<line x1="323.817075" y1="1574.17916" x2="642.249422" y2="1574.17916" stroke="black" stroke-width="4.455"/>
<line x1="642.249422" y1="1574.17916" x2="642.249422" y2="1517.223777" stroke="black" stroke-width="4.455"/>
<line x1="642.249422" y1="1517.223777" x2="323.817075" y2="1517.223777" stroke="black" stroke-width="4.455"/>
<line x1="323.817075" y1="1517.223777" x2="323.817075" y2="1574.17916" stroke="black" stroke-width="4.455"/>
<line x1="338.703141" y1="1574.17916" x2="338.703141" y2="1593.595763" stroke="black" stroke-width="4.455"/>
<line x1="338.703141" y1="1593.595763" x2="626.716139" y2="1593.595763" stroke="black" stroke-width="4.455"/>
<line x1="626.716139" y1="1574.17916" x2="626.716139" y2="1593.595763" stroke="black" stroke-width="4.455"/>
<line x1="979.473117" y1="2198.984946" x2="979.473117" y2="2182.256292" stroke="black" stroke-width="4.455"/>
<line x1="979.473117" y1="2182.256292" x2="946.831837" y2="2182.256292" stroke="black" stroke-width="4.455"/>
<line x1="946.831837" y1="2182.256292" x2="946.831837" y2="2198.984946" stroke="black" stroke-width="4.455"/>
<line x1="946.831837" y1="2198.984946" x2="979.473117" y2="2198.984946" stroke="black" stroke-width="4.455"/>
<line x1="946.831837" y1="2018.641873" x2="784.03345" y2="2018.641873" stroke="black" stroke-width="4.455"/>
<line x1="980.289149" y1="2018.233854" x2="980.289149" y2="2001.505201" stroke="black" stroke-width="4.455"/>
<line x1="980.289149" y1="2001.505201" x2="947.647869" y2="2001.505201" stroke="black" stroke-width="4.455"/>
<line x1="947.647869" y1="2001.505201" x2="947.647869" y2="2018.233854" stroke="black" stroke-width="4.455"/>
<line x1="947.647869" y1="2018.233854" x2="980.289149" y2="2018.233854" stroke="black" stroke-width="4.455"/>
<path d="m 948.055883,2182.256292 a 163.614419,163.614419 0 0 1 -163.614419,-163.614419" fill="none" stroke="black" stroke-width="4.455"/>
<line x1="1378.153191" y1="2409.675112" x2="1378.153191" y2="2394.245769" stroke="black" stroke-width="4.455"/>
<line x1="1378.153191" y1="2394.245769" x2="1348.047157" y2="2394.245769" stroke="black" stroke-width="4.455"/>
<line x1="1348.047157" y1="2394.245769" x2="1348.047157" y2="2409.675112" stroke="black" stroke-width="4.455"/>
<line x1="1348.047157" y1="2409.675112" x2="1378.153191" y2="2409.675112" stroke="black" stroke-width="4.455"/>
<line x1="1348.047157" y1="2243.339267" x2="1197.893303" y2="2243.339267" stroke="black" stroke-width="4.455"/>
<line x1="1378.905843" y1="2242.962944" x2="1378.905843" y2="2227.533601" stroke="black" stroke-width="4.455"/>
<line x1="1378.905843" y1="2227.533601" x2="1348.799805" y2="2227.533601" stroke="black" stroke-width="4.455"/>
<line x1="1348.799805" y1="2227.533601" x2="1348.799805" y2="2242.962944" stroke="black" stroke-width="4.455"/>
<line x1="1348.799805" y1="2242.962944" x2="1378.905843" y2="2242.962944" stroke="black" stroke-width="4.455"/>
<path d="m 1349.176133,2394.245769 a 150.90650200000016,150.90650200000016 0 0 1 -150.90650200000005,-150.90650200000027" fill="none" stroke="black" stroke-width="4.455"/>
<line x1="261.329711" y1="1788.076244" x2="236.777711" y2="1806.688244" stroke="black" stroke-width="4.455"/>
<line x1="236.777711" y1="1806.688244" x2="236.777711" y2="1954.000244" stroke="black" stroke-width="4.455"/>
<line x1="236.777711" y1="1954.000244" x2="264.893711" y2="1973.008244" stroke="black" stroke-width="4.455"/>
<line x1="264.101711" y1="1809.856244" x2="264.101711" y2="1952.812244" stroke="black" stroke-width="4.455"/>
<circle cx="285.881711" cy="1879.156244" r="13.068000000000003" fill="none" stroke="black" stroke-width="4.455"/>
<path d="m 263.434362,1811.409494 a 74.84400049996428,74.84400049996428 0 1 1 0.4020489999999768,139.60900300000003" fill="none" stroke="black" stroke-width="4.455"/>
<path d="m 260.672346,1788.122546 a 95.43599981579763,95.43599981579763 0 1 1 3.074959999999976,184.466997" fill="none" stroke="black" stroke-width="4.455"/>
<line x1="1902.926248" y1="592.852565" x2="1918.36706" y2="592.852565" stroke="black" stroke-width="4.455"/>
<line x1="1918.36706" y1="592.852565" x2="1918.36706" y2="562.724153" stroke="black" stroke-width="4.455"/>
<line x1="1918.36706" y1="562.724153" x2="1902.926248" y2="562.724153" stroke="black" stroke-width="4.455"/>
<line x1="1902.926248" y1="562.724153" x2="1902.926248" y2="592.852565" stroke="black" stroke-width="4.455"/>
<line x1="2069.385729" y1="562.724153" x2="2069.385729" y2="412.458691" stroke="black" stroke-width="4.455"/>
<line x1="2069.762335" y1="593.605772" x2="2085.203147" y2="593.605772" stroke="black" stroke-width="4.455"/>
<line x1="2085.203147" y1="593.605772" x2="2085.203147" y2="563.47736" stroke="black" stroke-width="4.455"/>
<line x1="2085.203147" y1="563.47736" x2="2069.762335" y2="563.47736" stroke="black" stroke-width="4.455"/>
<line x1="2069.762335" y1="563.47736" x2="2069.762335" y2="593.605772" stroke="black" stroke-width="4.455"/>
<path d="m 1918.36706,563.853965 a 151.01866900000002,151.01866900000002 0 0 1 151.01866900000005,-151.018669" fill="none" stroke="black" stroke-width="4.455"/>
<line x1="1891.816552" y1="1104.854989" x2="1891.816552" y2="782.565726" stroke="black" stroke-width="4.455"/>
<line x1="1891.816552" y1="782.565726" x2="1842.133016" y2="782.565726" stroke="black" stroke-width="4.455"/>
<line x1="1842.133016" y1="782.565726" x2="1842.133016" y2="1104.854989" stroke="black" stroke-width="4.455"/>
<line x1="1842.133016" y1="1104.854989" x2="1891.816552" y2="1104.854989" stroke="black" stroke-width="4.455"/>
<line x1="1842.786747" y1="1074.783377" x2="1891.16282" y2="1074.783377" stroke="black" stroke-width="4.455"/>
<line x1="1842.786747" y1="813.291074" x2="1893.124015" y2="813.291074" stroke="black" stroke-width="4.455"/>
<line x1="1865.667321" y1="1075.437109" x2="1865.667321" y2="813.944805" stroke="black" stroke-width="4.455"/>
<line x1="2082.914663" y1="1560.903651" x2="2067.48532" y2="1560.903651" stroke="black" stroke-width="4.455"/>
<line x1="2067.48532" y1="1560.903651" x2="2067.48532" y2="1591.009685" stroke="black" stroke-width="4.455"/>
<line x1="2067.48532" y1="1591.009685" x2="2082.914663" y2="1591.009685" stroke="black" stroke-width="4.455"/>
<line x1="2082.914663" y1="1591.009685" x2="2082.914663" y2="1560.903651" stroke="black" stroke-width="4.455"/>
<line x1="1916.578818" y1="1591.009685" x2="1916.578818" y2="1741.16354" stroke="black" stroke-width="4.455"/>
<line x1="1916.202494" y1="1560.150999" x2="1900.773151" y2="1560.150999" stroke="black" stroke-width="4.455"/>
<line x1="1900.773151" y1="1560.150999" x2="1900.773151" y2="1590.257038" stroke="black" stroke-width="4.455"/>
<line x1="1900.773151" y1="1590.257038" x2="1916.202494" y2="1590.257038" stroke="black" stroke-width="4.455"/>
<line x1="1916.202494" y1="1590.257038" x2="1916.202494" y2="1560.150999" stroke="black" stroke-width="4.455"/>
<path d="m 2067.48532,1589.880709 a 150.90650199999993,150.90650199999993 0 0 1 -150.90650199999982,150.90650200000005" fill="none" stroke="black" stroke-width="4.455"/>
<line x1="2260.978439" y1="3149.061295" x2="1942.546092" y2="3149.061295" stroke="black" stroke-width="4.455"/>
<line x1="1942.546092" y1="3149.061295" x2="1942.546092" y2="3206.016678" stroke="black" stroke-width="4.455"/>
<line x1="1942.546092" y1="3206.016678" x2="2260.978439" y2="3206.016678" stroke="black" stroke-width="4.455"/>
<line x1="2260.978439" y1="3206.016678" x2="2260.978439" y2="3149.061295" stroke="black" stroke-width="4.455"/>
<line x1="2246.092373" y1="3149.061295" x2="2246.092373" y2="3129.644692" stroke="black" stroke-width="4.455"/>
<line x1="2246.092373" y1="3129.644692" x2="1958.079375" y2="3129.644692" stroke="black" stroke-width="4.455"/>
<line x1="1958.079375" y1="3149.061295" x2="1958.079375" y2="3129.644692" stroke="black" stroke-width="4.455"/>
<line x1="775.155897" y1="3158.28511" x2="472.050518" y2="3158.28511" stroke="black" stroke-width="4.455"/>
<line x1="472.050518" y1="3158.28511" x2="472.050518" y2="3205.011294" stroke="black" stroke-width="4.455"/>
<line x1="472.050518" y1="3205.011294" x2="775.155897" y2="3205.011294" stroke="black" stroke-width="4.455"/>
<line x1="775.155897" y1="3205.011294" x2="775.155897" y2="3158.28511" stroke="black" stroke-width="4.455"/>
<line x1="746.874261" y1="3204.396474" x2="746.874261" y2="3158.89993" stroke="black" stroke-width="4.455"/>
<line x1="500.946975" y1="3204.396474" x2="500.946975" y2="3157.055476" stroke="black" stroke-width="4.455"/>
<line x1="747.489075" y1="3182.877839" x2="501.561794" y2="3182.877839" stroke="black" stroke-width="4.455"/>
<line x1="1635.576055" y1="2910.002589" x2="1635.576055" y2="2929.936759" stroke="black" stroke-width="4.455005"/>
<line x1="1635.576055" y1="2929.936759" x2="1674.471996" y2="2929.936759" stroke="black" stroke-width="4.455005"/>
<line x1="1674.471996" y1="2929.936759" x2="1674.471996" y2="2910.002589" stroke="black" stroke-width="4.455005"/>
<line x1="1674.471996" y1="2910.002589" x2="1635.576055" y2="2910.002589" stroke="black" stroke-width="4.455005"/>
<line x1="1674.471996" y1="3124.902667" x2="1868.465501" y2="3124.902667" stroke="black" stroke-width="4.455005"/>
<line x1="1634.603657" y1="3125.388866" x2="1634.603657" y2="3145.323035" stroke="black" stroke-width="4.455005"/>
<line x1="1634.603657" y1="3145.323035" x2="1673.499599" y2="3145.323035" stroke="black" stroke-width="4.455005"/>
<line x1="1673.499599" y1="3145.323035" x2="1673.499599" y2="3125.388866" stroke="black" stroke-width="4.455005"/>
<line x1="1673.499599" y1="3125.388866" x2="1634.603657" y2="3125.388866" stroke="black" stroke-width="4.455005"/>
<path d="m 1673.0134,2929.936759 a 194.9659049999998,194.9659049999998 0 0 1 194.96590199999991,194.96590799999967" fill="none" stroke="black" stroke-width="4.455005"/>
<line x1="967.100652" y1="2747.934204" x2="1089.281719" y2="2602.324474" stroke="black" stroke-width="4.455"/>
<line x1="1089.281719" y1="2602.324474" x2="733.993984" y2="2304.202666" stroke="black" stroke-width="4.455"/>
<line x1="733.993984" y1="2304.202666" x2="611.812917" y2="2449.812395" stroke="black" stroke-width="4.455"/>
<line x1="611.812917" y1="2449.812395" x2="630.014126" y2="2465.085031" stroke="black" stroke-width="4.455"/>
<line x1="630.014126" y1="2465.085031" x2="737.533472" y2="2336.94847" stroke="black" stroke-width="4.455"/>
<line x1="737.533472" y1="2336.94847" x2="1055.690722" y2="2603.914102" stroke="black" stroke-width="4.455"/>
<line x1="1055.690722" y1="2603.914102" x2="948.171381" y2="2732.050669" stroke="black" stroke-width="4.455"/>
<line x1="948.171381" y1="2732.050669" x2="967.100652" y2="2747.934204" stroke="black" stroke-width="4.455"/>
<line x1="951.836817" y1="2727.682373" x2="633.679561" y2="2460.716735" stroke="black" stroke-width="4.455"/>
<line x1="792.511305" y1="2595.233055" x2="896.365216" y2="2471.464789" stroke="black" stroke-width="4.455"/>
<line x1="1141.635949" y1="3083.84105" x2="1216.566386" y2="2888.640582" stroke="black" stroke-width="4.455"/>
<line x1="1216.566386" y1="2888.640582" x2="1000.071324" y2="2805.535918" stroke="black" stroke-width="4.455"/>
<line x1="1000.071324" y1="2805.535918" x2="925.140888" y2="3000.736377" stroke="black" stroke-width="4.455"/>
<line x1="925.140888" y1="3000.736377" x2="1141.635949" y2="3083.84105" stroke="black" stroke-width="4.455"/>
<line x1="1111.468604" y1="3072.260887" x2="1186.399041" y2="2877.060429" stroke="black" stroke-width="4.455"/>
<line x1="2604.028126" y1="2916.847261" x2="2835.925726" y2="2916.847261" stroke="black" stroke-width="4.455"/>
<line x1="2835.925726" y1="2916.847261" x2="2835.925726" y2="3149.220061" stroke="black" stroke-width="4.455"/>
<line x1="2835.925726" y1="3149.220061" x2="2604.028126" y2="3149.220061" stroke="black" stroke-width="4.455"/>
<line x1="2604.028126" y1="3149.220061" x2="2604.028126" y2="2916.847261" stroke="black" stroke-width="4.455"/>
<line x1="2603.552926" y1="2916.372061" x2="2835.925726" y2="3149.220061" stroke="black" stroke-width="4.455"/>
<line x1="2604.028126" y1="3148.744861" x2="2835.450526" y2="2916.847261" stroke="black" stroke-width="4.455"/>
<line x1="2406.263721" y1="1558.239205" x2="2406.263721" y2="1165.407205" stroke="black" stroke-width="4.455"/>
<line x1="2406.263721" y1="1165.407205" x2="2221.727721" y2="1165.407205" stroke="black" stroke-width="4.455"/>
<line x1="2221.727721" y1="1165.407205" x2="2221.727721" y2="1558.239205" stroke="black" stroke-width="4.455"/>
<line x1="2221.727721" y1="1558.239205" x2="2406.263721" y2="1558.239205" stroke="black" stroke-width="4.455"/>
<line x1="2221.727721" y1="1399.047205" x2="2140.943721" y2="1399.047205" stroke="black" stroke-width="4.455"/>
<line x1="2140.943721" y1="1399.047205" x2="2140.943721" y2="1477.455205" stroke="black" stroke-width="4.455"/>
<line x1="2140.943721" y1="1477.455205" x2="2221.727721" y2="1477.455205" stroke="black" stroke-width="4.455"/>
<line x1="2158.367721" y1="1476.663205" x2="2158.367721" y2="1399.047205" stroke="black" stroke-width="4.455"/>
<line x1="2487.839721" y1="1477.455205" x2="2487.839721" y2="1399.047205" stroke="black" stroke-width="4.455"/>
<line x1="2487.839721" y1="1399.047205" x2="2406.263721" y2="1399.047205" stroke="black" stroke-width="4.455"/>
<line x1="2406.263721" y1="1477.455205" x2="2487.839721" y2="1477.455205" stroke="black" stroke-width="4.455"/>
<line x1="2470.415721" y1="1476.663205" x2="2470.415721" y2="1399.047205" stroke="black" stroke-width="4.455"/>
<line x1="2221.727721" y1="1247.775205" x2="2140.943721" y2="1247.775205" stroke="black" stroke-width="4.455"/>
<line x1="2140.943721" y1="1247.775205" x2="2140.943721" y2="1326.183205" stroke="black" stroke-width="4.455"/>
<line x1="2140.943721" y1="1326.183205" x2="2221.727721" y2="1326.183205" stroke="black" stroke-width="4.455"/>
<line x1="2158.367721" y1="1326.183205" x2="2158.367721" y2="1247.775205" stroke="black" stroke-width="4.455"/>
<line x1="2487.839721" y1="1326.183205" x2="2487.839721" y2="1247.775205" stroke="black" stroke-width="4.455"/>
<line x1="2487.839721" y1="1247.775205" x2="2406.263721" y2="1247.775205" stroke="black" stroke-width="4.455"/>
<line x1="2406.263721" y1="1326.183205" x2="2487.839721" y2="1326.183205" stroke="black" stroke-width="4.455"/>
<line x1="2470.415721" y1="1326.183205" x2="2470.415721" y2="1247.775205" stroke="black" stroke-width="4.455"/>
<line x1="2605.348098" y1="873.745488" x2="2837.245698" y2="873.745488" stroke="black" stroke-width="4.455"/>
<line x1="2837.245698" y1="873.745488" x2="2837.245698" y2="1106.118288" stroke="black" stroke-width="4.455"/>
<line x1="2837.245698" y1="1106.118288" x2="2605.348098" y2="1106.118288" stroke="black" stroke-width="4.455"/>
<line x1="2605.348098" y1="1106.118288" x2="2605.348098" y2="873.745488" stroke="black" stroke-width="4.455"/>
<line x1="2604.872898" y1="873.270288" x2="2837.245698" y2="1106.118288" stroke="black" stroke-width="4.455"/>
<line x1="2605.348098" y1="1105.643088" x2="2836.770498" y2="873.745488" stroke="black" stroke-width="4.455"/>
<line x1="950.650792" y1="1966.255587" x2="950.650792" y2="1575.007587" stroke="black" stroke-width="4.455"/>
<line x1="950.650792" y1="1575.007587" x2="776.410792" y2="1575.007587" stroke="black" stroke-width="4.455"/>
<line x1="776.410792" y1="1575.007587" x2="776.410792" y2="1966.255587" stroke="black" stroke-width="4.455"/>
<line x1="776.410792" y1="1966.255587" x2="950.650792" y2="1966.255587" stroke="black" stroke-width="4.455"/>
<line x1="803.338792" y1="1650.247587" x2="803.338792" y2="1934.575587" stroke="black" stroke-width="4.455"/>
<line x1="803.338792" y1="1934.575587" x2="921.346792" y2="1934.575587" stroke="black" stroke-width="4.455"/>
<line x1="921.346792" y1="1934.575587" x2="921.346792" y2="1644.703587" stroke="black" stroke-width="4.455"/>
<path d="m 803.083367,1651.05816 a 63.3600003087793,63.3600003087793 0 0 1 119.37433300000009,-4.293813" fill="none" stroke="black" stroke-width="4.455"/>
<line x1="2450.713483" y1="220.67794" x2="2631.226856" y2="220.67794" stroke="black" stroke-width="4.455"/>
<line x1="2631.226856" y1="220.67794" x2="2631.226856" y2="401.561216" stroke="black" stroke-width="4.455"/>
<line x1="2631.226856" y1="401.561216" x2="2450.713483" y2="401.561216" stroke="black" stroke-width="4.455"/>
<line x1="2450.713483" y1="401.561216" x2="2450.713483" y2="220.67794" stroke="black" stroke-width="4.455"/>
<line x1="2450.34358" y1="220.308036" x2="2631.226856" y2="401.561216" stroke="black" stroke-width="4.455"/>
<line x1="2450.713483" y1="401.191308" x2="2630.856947" y2="220.67794" stroke="black" stroke-width="4.455"/>
<line x1="2835.107109" y1="718.08361" x2="2480.4262" y2="718.08361" stroke="black" stroke-width="4.455"/>
<line x1="2476.858676" y1="718.982194" x2="2476.858676" y2="596.256829" stroke="black" stroke-width="4.455"/>
<line x1="2834.68826" y1="595.218245" x2="2476.583282" y2="595.218245" stroke="black" stroke-width="4.455"/>
<line x1="2834.02544" y1="717.45699" x2="2834.02544" y2="595.457433" stroke="black" stroke-width="4.455"/>
<line x1="2824.739102" y1="708.082942" x2="2713.303073" y2="708.082942" stroke="black" stroke-width="4.455"/>
<line x1="2713.303073" y1="708.082942" x2="2713.303073" y2="605.218913" stroke="black" stroke-width="4.455"/>
<line x1="2824.739102" y1="605.218913" x2="2713.303073" y2="605.218913" stroke="black" stroke-width="4.455"/>
<line x1="2824.739102" y1="708.082942" x2="2824.739102" y2="605.218913" stroke="black" stroke-width="4.455"/>
<line x1="2696.15907" y1="701.653941" x2="2617.582379" y2="701.653941" stroke="black" stroke-width="4.455"/>
<line x1="2696.15907" y1="683.795604" x2="2617.582379" y2="683.795604" stroke="black" stroke-width="4.455"/>
<line x1="2695.444736" y1="665.222931" x2="2617.582379" y2="665.222931" stroke="black" stroke-width="4.455"/>
<line x1="2695.444736" y1="647.364594" x2="2617.582379" y2="647.364594" stroke="black" stroke-width="4.455"/>
<line x1="2696.15907" y1="629.506256" x2="2617.582379" y2="629.506256" stroke="black" stroke-width="4.455"/>
<line x1="2696.15907" y1="611.647913" x2="2617.582379" y2="611.647913" stroke="black" stroke-width="4.455"/>
<line x1="2781.879091" y1="605.933247" x2="2781.879091" y2="618.076919" stroke="black" stroke-width="4.455"/>
<line x1="2781.879091" y1="618.076919" x2="2754.73442" y2="618.076919" stroke="black" stroke-width="4.455"/>
<line x1="2754.73442" y1="618.076919" x2="2754.73442" y2="606.647582" stroke="black" stroke-width="4.455"/>
<line x1="2599.009712" y1="708.082942" x2="2487.573678" y2="708.082942" stroke="black" stroke-width="4.455"/>
<line x1="2487.573678" y1="708.082942" x2="2487.573678" y2="605.218913" stroke="black" stroke-width="4.455"/>
<line x1="2599.009712" y1="605.218913" x2="2487.573678" y2="605.218913" stroke="black" stroke-width="4.455"/>
<line x1="2599.009712" y1="708.082942" x2="2599.009712" y2="605.218913" stroke="black" stroke-width="4.455"/>
<line x1="2556.149696" y1="605.218913" x2="2556.149696" y2="617.362584" stroke="black" stroke-width="4.455"/>
<line x1="2556.149696" y1="617.362584" x2="2529.005025" y2="617.362584" stroke="black" stroke-width="4.455"/>
<line x1="2529.005025" y1="617.362584" x2="2529.005025" y2="605.933247" stroke="black" stroke-width="4.455"/>
<circle cx="2726.161079" cy="695.224936" r="6.4290017181665915" fill="none" stroke="black" stroke-width="4.455"/>
<circle cx="2500.431684" cy="694.510606" r="6.4290017181665915" fill="none" stroke="black" stroke-width="4.455"/>
<line x1="234.655295" y1="2913.791201" x2="466.552895" y2="2913.791201" stroke="black" stroke-width="4.455"/>
<line x1="466.552895" y1="2913.791201" x2="466.552895" y2="3146.164001" stroke="black" stroke-width="4.455"/>
<line x1="466.552895" y1="3146.164001" x2="234.655295" y2="3146.164001" stroke="black" stroke-width="4.455"/>
<line x1="234.655295" y1="3146.164001" x2="234.655295" y2="2913.791201" stroke="black" stroke-width="4.455"/>
<line x1="234.180094" y1="2913.316001" x2="466.552895" y2="3146.164001" stroke="black" stroke-width="4.455"/>
<line x1="234.655295" y1="3145.688801" x2="466.077694" y2="2913.791201" stroke="black" stroke-width="4.455"/>
<line x1="2633.926041" y1="220.479044" x2="2814.439414" y2="220.479044" stroke="black" stroke-width="4.455"/>
<line x1="2814.439414" y1="220.479044" x2="2814.439414" y2="401.36232" stroke="black" stroke-width="4.455"/>
<line x1="2814.439414" y1="401.36232" x2="2633.926041" y2="401.36232" stroke="black" stroke-width="4.455"/>
<line x1="2633.926041" y1="401.36232" x2="2633.926041" y2="220.479044" stroke="black" stroke-width="4.455"/>
<line x1="2633.556138" y1="220.10914" x2="2814.439414" y2="401.36232" stroke="black" stroke-width="4.455"/>
<line x1="2633.926041" y1="400.992412" x2="2814.069506" y2="220.479044" stroke="black" stroke-width="4.455"/>
</g>
</svg>
