<?xml version="1.0"?>
<svg xmlns:xlink="http://www.w3.org/1999/xlink" width="3059.1" height="3341.25">
<image x="0" y="0" width="3059.1" height="3341.25" xlink:href="groundfilled-02.png"/>
<g style="stroke-linecap:round">
<line x1="980.860647" y1="1527.245503" x2="996.301459" y2="1527.245503" stroke="black" stroke-width="4.455"/>
<line x1="996.301459" y1="1527.245503" x2="996.301459" y2="1497.11709" stroke="black" stroke-width="4.455"/>
<line x1="996.301459" y1="1497.11709" x2="980.860647" y2="1497.11709" stroke="black" stroke-width="4.455"/>
<line x1="980.860647" y1="1497.11709" x2="980.860647" y2="1527.245503" stroke="black" stroke-width="4.455"/>
<line x1="1147.320128" y1="1497.11709" x2="1147.320128" y2="1346.851628" stroke="black" stroke-width="4.455"/>
<line x1="1147.696734" y1="1527.99871" x2="1163.137546" y2="1527.99871" stroke="black" stroke-width="4.455"/>
<line x1="1163.137546" y1="1527.99871" x2="1163.137546" y2="1497.870297" stroke="black" stroke-width="4.455"/>
<line x1="1163.137546" y1="1497.870297" x2="1147.696734" y2="1497.870297" stroke="black" stroke-width="4.455"/>
<line x1="1147.696734" y1="1497.870297" x2="1147.696734" y2="1527.99871" stroke="black" stroke-width="4.455"/>
<path d="m 996.301459,1498.246903 a 151.01866900000005,151.01866900000005 0 0 1 151.01866900000005,-151.01866900000005" fill="none" stroke="black" stroke-width="4.455"/>
<line x1="1419.733463" y1="1470.293926" x2="1419.733463" y2="1286.549926" stroke="black" stroke-width="4.455"/>
<line x1="1419.733463" y1="1286.549926" x2="1468.837463" y2="1286.549926" stroke="black" stroke-width="4.455"/>
<line x1="1468.837463" y1="1470.293926" x2="1468.837463" y2="1286.549926" stroke="black" stroke-width="4.455"/>
<line x1="1419.733463" y1="1470.293926" x2="1468.837463" y2="1470.293926" stroke="black" stroke-width="4.455"/>
<line x1="1392.013463" y1="1428.713926" x2="1419.733463" y2="1428.713926" stroke="black" stroke-width="4.455"/>
<line x1="1419.733463" y1="1329.713926" x2="1390.429463" y2="1329.713926" stroke="black" stroke-width="4.455"/>
<circle cx="1346.869463" cy="1380.005926" r="66.528" fill="none" stroke="black" stroke-width="4.455"/>
<circle cx="1346.869463" cy="1380.005926" r="57.02400000000001" fill="none" stroke="black" stroke-width="4.455"/>
<line x1="323.817075" y1="1574.17916" x2="642.249422" y2="1574.17916" stroke="black" stroke-width="4.455"/>
<line x1="642.249422" y1="1574.17916" x2="642.249422" y2="1517.223777" stroke="black" stroke-width="4.455"/>
<line x1="642.249422" y1="1517.223777" x2="323.817075" y2="1517.223777" stroke="black" stroke-width="4.455"/>
<line x1="323.817075" y1="1517.223777" x2="323.817075" y2="1574.17916" stroke="black" stroke-width="4.455"/>
<line x1="338.703141" y1="1574.17916" x2="338.703141" y2="1593.595763" stroke="black" stroke-width="4.455"/>
<line x1="338.703141" y1="1593.595763" x2="626.716139" y2="1593.595763" stroke="black" stroke-width="4.455"/>
<line x1="626.716139" y1="1574.17916" x2="626.716139" y2="1593.595763" stroke="black" stroke-width="4.455"/>
<line x1="979.473117" y1="2198.984946" x2="979.473117" y2="2182.256292" stroke="black" stroke-width="4.455"/>
<line x1="979.473117" y1="2182.256292" x2="946.831837" y2="2182.256292" stroke="black" stroke-width="4.455"/>
<line x1="946.831837" y1="2182.256292" x2="946.831837" y2="2198.984946" stroke="black" stroke-width="4.455"/>
<line x1="946.831837" y1="2198.984946" x2="979.473117" y2="2198.984946" stroke="black" stroke-width="4.455"/>
<line x1="946.831837" y1="2018.641873" x2="784.03345" y2="2018.641873" stroke="black" stroke-width="4.455"/>
<line x1="980.289149" y1="2018.233854" x2="980.289149" y2="2001.505201" stroke="black" stroke-width="4.455"/>
<line x1="980.289149" y1="2001.505201" x2="947.647869" y2="2001.505201" stroke="black" stroke-width="4.455"/>
<line x1="947.647869" y1="2001.505201" x2="947.647869" y2="2018.233854" stroke="black" stroke-width="4.455"/>
<line x1="947.647869" y1="2018.233854" x2="980.289149" y2="2018.233854" stroke="black" stroke-width="4.455"/>
<path d="m 948.055883,2182.256292 a 163.614419,163.614419 0 0 1 -163.614419,-163.614419" fill="none" stroke="black" stroke-width="4.455"/>
<line x1="1378.153191" y1="2409.675112" x2="1378.153191" y2="2394.245769" stroke="black" stroke-width="4.455"/>
<line x1="1378.153191" y1="2394.245769" x2="1348.047157" y2="2394.245769" stroke="black" stroke-width="4.455"/>
<line x1="1348.047157" y1="2394.245769" x2="1348.047157" y2="2409.675112" stroke="black" stroke-width="4.455"/>
<line x1="1348.047157" y1="2409.675112" x2="1378.153191" y2="2409.675112" stroke="black" stroke-width="4.455"/>
<line x1="1348.047157" y1="2243.339267" x2="1197.893303" y2="2243.339267" stroke="black" stroke-width="4.455"/>
<line x1="1378.905843" y1="2242.962944" x2="1378.905843" y2="2227.533601" stroke="black" stroke-width="4.455"/>
<line x1="1378.905843" y1="2227.533601" x2="1348.799805" y2="2227.533601" stroke="black" stroke-width="4.455"/>
<line x1="1348.799805" y1="2227.533601" x2="1348.799805" y2="2242.962944" stroke="black" stroke-width="4.455"/>
<line x1="1348.799805" y1="2242.962944" x2="1378.905843" y2="2242.962944" stroke="black" stroke-width="4.455"/>
<path d="m 1349.176133,2394.245769 a 150.90650200000016,150.90650200000016 0 0 1 -150.90650200000005,-150.90650200000027" fill="none" stroke="black" stroke-width="4.455"/>
<line x1="368.724911" y1="1744.724144" x2="368.724911" y2="2015.271344" stroke="black" stroke-width="4.455"/>
<line x1="368.724911" y1="2015.271344" x2="236.777711" y2="2015.271344" stroke="black" stroke-width="4.455"/>
<line x1="236.777711" y1="1744.724144" x2="236.777711" y2="2015.271344" stroke="black" stroke-width="4.455"/>
<line x1="368.724911" y1="1744.724144" x2="236.777711" y2="1744.724144" stroke="black" stroke-width="4.455"/>
<line x1="362.072111" y1="1751.376944" x2="362.072111" y2="1889.422544" stroke="black" stroke-width="4.455"/>
<line x1="362.072111" y1="1889.422544" x2="243.984911" y2="1889.422544" stroke="black" stroke-width="4.455"/>
<line x1="243.984911" y1="1751.376944" x2="243.984911" y2="1889.422544" stroke="black" stroke-width="4.455"/>
<line x1="362.072111" y1="1751.376944" x2="243.984911" y2="1751.376944" stroke="black" stroke-width="4.455"/>
<line x1="354.310511" y1="1903.836944" x2="354.310511" y2="2000.856944" stroke="black" stroke-width="4.455"/>
<line x1="333.797711" y1="1903.836944" x2="333.797711" y2="2000.856944" stroke="black" stroke-width="4.455"/>
<line x1="312.730511" y1="1904.391344" x2="312.730511" y2="2001.411344" stroke="black" stroke-width="4.455"/>
<line x1="292.217711" y1="1904.391344" x2="292.217711" y2="2001.411344" stroke="black" stroke-width="4.455"/>
<line x1="271.704911" y1="1903.836944" x2="271.704911" y2="2000.856944" stroke="black" stroke-width="4.455"/>
<line x1="251.192111" y1="1903.836944" x2="251.192111" y2="2000.856944" stroke="black" stroke-width="4.455"/>
<line x1="243.984911" y1="1804.044944" x2="257.844911" y2="1804.044944" stroke="black" stroke-width="4.455"/>
<line x1="257.844911" y1="1804.044944" x2="257.844911" y2="1838.417744" stroke="black" stroke-width="4.455"/>
<line x1="257.844911" y1="1838.417744" x2="244.539311" y2="1838.417744" stroke="black" stroke-width="4.455"/>
<circle cx="347.103311" cy="1873.899344" r="8.316" fill="none" stroke="black" stroke-width="4.455"/>
<line x1="441.964918" y1="2196.427108" x2="591.535811" y2="2196.427108" stroke="black" stroke-width="4.455"/>
<line x1="591.535811" y1="2196.427108" x2="591.535811" y2="2030.539396" stroke="black" stroke-width="4.455"/>
<line x1="591.535811" y1="2030.539396" x2="441.964918" y2="2030.539396" stroke="black" stroke-width="4.455"/>
<line x1="441.964918" y1="2030.539396" x2="441.964918" y2="2196.427108" stroke="black" stroke-width="4.455"/>
<line x1="441.964918" y1="2173.311608" x2="591.535811" y2="2173.311608" stroke="black" stroke-width="4.455"/>
<line x1="1902.926248" y1="592.852565" x2="1918.36706" y2="592.852565" stroke="black" stroke-width="4.455"/>
<line x1="1918.36706" y1="592.852565" x2="1918.36706" y2="562.724153" stroke="black" stroke-width="4.455"/>
<line x1="1918.36706" y1="562.724153" x2="1902.926248" y2="562.724153" stroke="black" stroke-width="4.455"/>
<line x1="1902.926248" y1="562.724153" x2="1902.926248" y2="592.852565" stroke="black" stroke-width="4.455"/>
<line x1="2069.385729" y1="562.724153" x2="2069.385729" y2="412.458691" stroke="black" stroke-width="4.455"/>
<line x1="2069.762335" y1="593.605772" x2="2085.203147" y2="593.605772" stroke="black" stroke-width="4.455"/>
<line x1="2085.203147" y1="593.605772" x2="2085.203147" y2="563.47736" stroke="black" stroke-width="4.455"/>
<line x1="2085.203147" y1="563.47736" x2="2069.762335" y2="563.47736" stroke="black" stroke-width="4.455"/>
<line x1="2069.762335" y1="563.47736" x2="2069.762335" y2="593.605772" stroke="black" stroke-width="4.455"/>
<path d="m 1918.36706,563.853965 a 151.01866900000002,151.01866900000002 0 0 1 151.01866900000005,-151.018669" fill="none" stroke="black" stroke-width="4.455"/>
<line x1="1891.816552" y1="1104.854989" x2="1891.816552" y2="782.565726" stroke="black" stroke-width="4.455"/>
<line x1="1891.816552" y1="782.565726" x2="1842.133016" y2="782.565726" stroke="black" stroke-width="4.455"/>
<line x1="1842.133016" y1="782.565726" x2="1842.133016" y2="1104.854989" stroke="black" stroke-width="4.455"/>
<line x1="1842.133016" y1="1104.854989" x2="1891.816552" y2="1104.854989" stroke="black" stroke-width="4.455"/>
<line x1="1842.786747" y1="1074.783377" x2="1891.16282" y2="1074.783377" stroke="black" stroke-width="4.455"/>
<line x1="1842.786747" y1="813.291074" x2="1893.124015" y2="813.291074" stroke="black" stroke-width="4.455"/>
<line x1="1865.667321" y1="1075.437109" x2="1865.667321" y2="813.944805" stroke="black" stroke-width="4.455"/>
<line x1="2082.914663" y1="1560.903651" x2="2067.48532" y2="1560.903651" stroke="black" stroke-width="4.455"/>
<line x1="2067.48532" y1="1560.903651" x2="2067.48532" y2="1591.009685" stroke="black" stroke-width="4.455"/>
<line x1="2067.48532" y1="1591.009685" x2="2082.914663" y2="1591.009685" stroke="black" stroke-width="4.455"/>
<line x1="2082.914663" y1="1591.009685" x2="2082.914663" y2="1560.903651" stroke="black" stroke-width="4.455"/>
<line x1="1916.578818" y1="1591.009685" x2="1916.578818" y2="1741.16354" stroke="black" stroke-width="4.455"/>
<line x1="1916.202494" y1="1560.150999" x2="1900.773151" y2="1560.150999" stroke="black" stroke-width="4.455"/>
<line x1="1900.773151" y1="1560.150999" x2="1900.773151" y2="1590.257038" stroke="black" stroke-width="4.455"/>
<line x1="1900.773151" y1="1590.257038" x2="1916.202494" y2="1590.257038" stroke="black" stroke-width="4.455"/>
<line x1="1916.202494" y1="1590.257038" x2="1916.202494" y2="1560.150999" stroke="black" stroke-width="4.455"/>
<path d="m 2067.48532,1589.880709 a 150.90650199999993,150.90650199999993 0 0 1 -150.90650199999982,150.90650200000005" fill="none" stroke="black" stroke-width="4.455"/>
<line x1="2260.988507" y1="3156.924613" x2="1942.536019" y2="3156.924613" stroke="black" stroke-width="4.455"/>
<line x1="1942.536019" y1="3156.924613" x2="1942.536019" y2="3206.016678" stroke="black" stroke-width="4.455"/>
<line x1="1942.536019" y1="3206.016678" x2="2260.988507" y2="3206.016678" stroke="black" stroke-width="4.455"/>
<line x1="2260.988507" y1="3206.016678" x2="2260.988507" y2="3156.924613" stroke="black" stroke-width="4.455"/>
<line x1="2231.274885" y1="3205.370728" x2="2231.274885" y2="3157.570558" stroke="black" stroke-width="4.455"/>
<line x1="1972.895587" y1="3205.370728" x2="1972.895587" y2="3155.632717" stroke="black" stroke-width="4.455"/>
<line x1="2231.920835" y1="3182.762543" x2="1973.541537" y2="3182.762543" stroke="black" stroke-width="4.455"/>
<line x1="775.155897" y1="3158.28511" x2="472.050518" y2="3158.28511" stroke="black" stroke-width="4.455"/>
<line x1="472.050518" y1="3158.28511" x2="472.050518" y2="3205.011294" stroke="black" stroke-width="4.455"/>
<line x1="472.050518" y1="3205.011294" x2="775.155897" y2="3205.011294" stroke="black" stroke-width="4.455"/>
<line x1="775.155897" y1="3205.011294" x2="775.155897" y2="3158.28511" stroke="black" stroke-width="4.455"/>
<line x1="746.874261" y1="3204.396474" x2="746.874261" y2="3158.89993" stroke="black" stroke-width="4.455"/>
<line x1="500.946975" y1="3204.396474" x2="500.946975" y2="3157.055476" stroke="black" stroke-width="4.455"/>
<line x1="747.489075" y1="3182.877839" x2="501.561794" y2="3182.877839" stroke="black" stroke-width="4.455"/>
<line x1="1635.576055" y1="2910.002589" x2="1635.576055" y2="2929.936759" stroke="black" stroke-width="4.455005"/>
<line x1="1635.576055" y1="2929.936759" x2="1674.471996" y2="2929.936759" stroke="black" stroke-width="4.455005"/>
<line x1="1674.471996" y1="2929.936759" x2="1674.471996" y2="2910.002589" stroke="black" stroke-width="4.455005"/>
<line x1="1674.471996" y1="2910.002589" x2="1635.576055" y2="2910.002589" stroke="black" stroke-width="4.455005"/>
<line x1="1674.471996" y1="3124.902667" x2="1868.465501" y2="3124.902667" stroke="black" stroke-width="4.455005"/>
<line x1="1634.603657" y1="3125.388866" x2="1634.603657" y2="3145.323035" stroke="black" stroke-width="4.455005"/>
<line x1="1634.603657" y1="3145.323035" x2="1673.499599" y2="3145.323035" stroke="black" stroke-width="4.455005"/>
<line x1="1673.499599" y1="3145.323035" x2="1673.499599" y2="3125.388866" stroke="black" stroke-width="4.455005"/>
<line x1="1673.499599" y1="3125.388866" x2="1634.603657" y2="3125.388866" stroke="black" stroke-width="4.455005"/>
<path d="m 1673.0134,2929.936759 a 194.9659049999998,194.9659049999998 0 0 1 194.96590199999991,194.96590799999967" fill="none" stroke="black" stroke-width="4.455005"/>
<line x1="2022.675484" y1="2188.871749" x2="2120.849077" y2="2100.475847" stroke="black" stroke-width="4.455"/>
<line x1="2120.849077" y1="2100.475847" x2="2130.388207" y2="2111.070119" stroke="black" stroke-width="4.455"/>
<line x1="2032.21461" y1="2199.466017" x2="2130.388207" y2="2111.070119" stroke="black" stroke-width="4.455"/>
<line x1="2022.675484" y1="2188.871749" x2="2032.21461" y2="2199.466017" stroke="black" stroke-width="4.455"/>
<line x1="2042.102601" y1="2190.562833" x2="2061.676109" y2="2215.142117" stroke="black" stroke-width="4.455"/>
<line x1="2120.500216" y1="2119.973303" x2="2143.534803" y2="2142.715103" stroke="black" stroke-width="4.455"/>
<line x1="2331.107227" y1="2531.419897" x2="2429.280815" y2="2443.023995" stroke="black" stroke-width="4.455"/>
<line x1="2429.280815" y1="2443.023995" x2="2420.377631" y2="2433.136009" stroke="black" stroke-width="4.455"/>
<line x1="2322.204039" y1="2521.531906" x2="2420.377631" y2="2433.136009" stroke="black" stroke-width="4.455"/>
<line x1="2331.107227" y1="2531.419897" x2="2322.204039" y2="2521.531906" stroke="black" stroke-width="4.455"/>
<line x1="2330.113861" y1="2511.852097" x2="2307.71521" y2="2489.816583" stroke="black" stroke-width="4.455"/>
<line x1="2408.511476" y1="2441.262567" x2="2389.008313" y2="2415.341056" stroke="black" stroke-width="4.455"/>
<line x1="2352.347989" y1="2113.281151" x2="2341.753717" y2="2122.820276" stroke="black" stroke-width="4.455"/>
<line x1="2341.753717" y1="2122.820276" x2="2430.149619" y2="2220.993864" stroke="black" stroke-width="4.455"/>
<line x1="2440.743891" y1="2211.454738" x2="2430.149619" y2="2220.993864" stroke="black" stroke-width="4.455"/>
<line x1="2352.347989" y1="2113.281151" x2="2440.743891" y2="2211.454738" stroke="black" stroke-width="4.455"/>
<line x1="2420.610494" y1="2210.399596" x2="2398.50463" y2="2234.14047" stroke="black" stroke-width="4.455"/>
<line x1="2350.656901" y1="2132.708257" x2="2325.371331" y2="2152.917711" stroke="black" stroke-width="4.455"/>
<line x1="2009.870186" y1="2420.370657" x2="2020.464458" y2="2410.831531" stroke="black" stroke-width="4.455"/>
<line x1="2020.464458" y1="2410.831531" x2="2108.86036" y2="2509.005124" stroke="black" stroke-width="4.455"/>
<line x1="2098.266083" y1="2518.544249" x2="2108.86036" y2="2509.005124" stroke="black" stroke-width="4.455"/>
<line x1="2009.870186" y1="2420.370657" x2="2098.266083" y2="2518.544249" stroke="black" stroke-width="4.455"/>
<line x1="2099.32123" y1="2498.410852" x2="2125.242742" y2="2478.907688" stroke="black" stroke-width="4.455"/>
<line x1="2029.367642" y1="2420.719518" x2="2052.109447" y2="2397.68493" stroke="black" stroke-width="4.455"/>
<circle cx="2225.307036" cy="2315.912697" r="191.9808" fill="none" stroke="black" stroke-width="4.455"/>
<line x1="990.961221" y1="2705.987533" x2="1080.198375" y2="2538.156852" stroke="black" stroke-width="4.455"/>
<line x1="1080.198375" y1="2538.156852" x2="670.691523" y2="2320.418197" stroke="black" stroke-width="4.455"/>
<line x1="670.691523" y1="2320.418197" x2="581.454369" y2="2488.248873" stroke="black" stroke-width="4.455"/>
<line x1="581.454369" y1="2488.248873" x2="602.433201" y2="2499.40352" stroke="black" stroke-width="4.455"/>
<line x1="602.433201" y1="2499.40352" x2="680.961897" y2="2351.712523" stroke="black" stroke-width="4.455"/>
<line x1="680.961897" y1="2351.712523" x2="1047.671925" y2="2546.695706" stroke="black" stroke-width="4.455"/>
<line x1="1047.671925" y1="2546.695706" x2="969.143234" y2="2694.386703" stroke="black" stroke-width="4.455"/>
<line x1="969.143234" y1="2694.386703" x2="990.961221" y2="2705.987533" stroke="black" stroke-width="4.455"/>
<line x1="971.820348" y1="2689.35178" x2="605.110315" y2="2494.368598" stroke="black" stroke-width="4.455"/>
<line x1="788.438722" y1="2592.922439" x2="864.290305" y2="2450.26636" stroke="black" stroke-width="4.455"/>
<line x1="1131.756734" y1="3088.43961" x2="1220.121139" y2="2898.941527" stroke="black" stroke-width="4.455"/>
<line x1="1220.121139" y1="2898.941527" x2="1009.950539" y2="2800.937368" stroke="black" stroke-width="4.455"/>
<line x1="1009.950539" y1="2800.937368" x2="921.586134" y2="2990.435446" stroke="black" stroke-width="4.455"/>
<line x1="921.586134" y1="2990.435446" x2="1131.756734" y2="3088.43961" stroke="black" stroke-width="4.455"/>
<line x1="1102.470663" y1="3074.783293" x2="1190.835068" y2="2885.28521" stroke="black" stroke-width="4.455"/>
<line x1="2606.284118" y1="987.471951" x2="2838.181718" y2="987.471951" stroke="black" stroke-width="4.455"/>
<line x1="2838.181718" y1="987.471951" x2="2838.181718" y2="1219.844751" stroke="black" stroke-width="4.455"/>
<line x1="2838.181718" y1="1219.844751" x2="2606.284118" y2="1219.844751" stroke="black" stroke-width="4.455"/>
<line x1="2606.284118" y1="1219.844751" x2="2606.284118" y2="987.471951" stroke="black" stroke-width="4.455"/>
<line x1="2605.808918" y1="986.996751" x2="2838.181718" y2="1219.844751" stroke="black" stroke-width="4.455"/>
<line x1="2606.284118" y1="1219.369551" x2="2837.706518" y2="987.471951" stroke="black" stroke-width="4.455"/>
<line x1="2406.263721" y1="1558.239205" x2="2406.263721" y2="1165.407205" stroke="black" stroke-width="4.455"/>
<line x1="2406.263721" y1="1165.407205" x2="2221.727721" y2="1165.407205" stroke="black" stroke-width="4.455"/>
<line x1="2221.727721" y1="1165.407205" x2="2221.727721" y2="1558.239205" stroke="black" stroke-width="4.455"/>
<line x1="2221.727721" y1="1558.239205" x2="2406.263721" y2="1558.239205" stroke="black" stroke-width="4.455"/>
<line x1="2221.727721" y1="1399.047205" x2="2140.943721" y2="1399.047205" stroke="black" stroke-width="4.455"/>
<line x1="2140.943721" y1="1399.047205" x2="2140.943721" y2="1477.455205" stroke="black" stroke-width="4.455"/>
<line x1="2140.943721" y1="1477.455205" x2="2221.727721" y2="1477.455205" stroke="black" stroke-width="4.455"/>
<line x1="2158.367721" y1="1476.663205" x2="2158.367721" y2="1399.047205" stroke="black" stroke-width="4.455"/>
<line x1="2487.839721" y1="1477.455205" x2="2487.839721" y2="1399.047205" stroke="black" stroke-width="4.455"/>
<line x1="2487.839721" y1="1399.047205" x2="2406.263721" y2="1399.047205" stroke="black" stroke-width="4.455"/>
<line x1="2406.263721" y1="1477.455205" x2="2487.839721" y2="1477.455205" stroke="black" stroke-width="4.455"/>
<line x1="2470.415721" y1="1476.663205" x2="2470.415721" y2="1399.047205" stroke="black" stroke-width="4.455"/>
<line x1="2221.727721" y1="1247.775205" x2="2140.943721" y2="1247.775205" stroke="black" stroke-width="4.455"/>
<line x1="2140.943721" y1="1247.775205" x2="2140.943721" y2="1326.183205" stroke="black" stroke-width="4.455"/>
<line x1="2140.943721" y1="1326.183205" x2="2221.727721" y2="1326.183205" stroke="black" stroke-width="4.455"/>
<line x1="2158.367721" y1="1326.183205" x2="2158.367721" y2="1247.775205" stroke="black" stroke-width="4.455"/>
<line x1="2487.839721" y1="1326.183205" x2="2487.839721" y2="1247.775205" stroke="black" stroke-width="4.455"/>
<line x1="2487.839721" y1="1247.775205" x2="2406.263721" y2="1247.775205" stroke="black" stroke-width="4.455"/>
<line x1="2406.263721" y1="1326.183205" x2="2487.839721" y2="1326.183205" stroke="black" stroke-width="4.455"/>
<line x1="2470.415721" y1="1326.183205" x2="2470.415721" y2="1247.775205" stroke="black" stroke-width="4.455"/>
<line x1="776.410792" y1="1575.007587" x2="776.410792" y2="1966.255587" stroke="black" stroke-width="4.455"/>
<line x1="776.410792" y1="1966.255587" x2="950.650792" y2="1966.255587" stroke="black" stroke-width="4.455"/>
<line x1="950.650792" y1="1966.255587" x2="950.650792" y2="1575.007587" stroke="black" stroke-width="4.455"/>
<line x1="950.650792" y1="1575.007587" x2="776.410792" y2="1575.007587" stroke="black" stroke-width="4.455"/>
<line x1="923.722792" y1="1891.015587" x2="923.722792" y2="1606.687587" stroke="black" stroke-width="4.455"/>
<line x1="923.722792" y1="1606.687587" x2="805.714792" y2="1606.687587" stroke="black" stroke-width="4.455"/>
<line x1="805.714792" y1="1606.687587" x2="805.714792" y2="1896.559587" stroke="black" stroke-width="4.455"/>
<path d="m 923.978217,1890.205015 a 63.360001107387035,63.360001107387035 0 0 1 -119.37433399999998,4.293813" fill="none" stroke="black" stroke-width="4.455"/>
<line x1="2450.713483" y1="220.67794" x2="2631.226856" y2="220.67794" stroke="black" stroke-width="4.455"/>
<line x1="2631.226856" y1="220.67794" x2="2631.226856" y2="401.561216" stroke="black" stroke-width="4.455"/>
<line x1="2631.226856" y1="401.561216" x2="2450.713483" y2="401.561216" stroke="black" stroke-width="4.455"/>
<line x1="2450.713483" y1="401.561216" x2="2450.713483" y2="220.67794" stroke="black" stroke-width="4.455"/>
<line x1="2450.34358" y1="220.308036" x2="2631.226856" y2="401.561216" stroke="black" stroke-width="4.455"/>
<line x1="2450.713483" y1="401.191308" x2="2630.856947" y2="220.67794" stroke="black" stroke-width="4.455"/>
<line x1="2835.107109" y1="718.08361" x2="2480.4262" y2="718.08361" stroke="black" stroke-width="4.455"/>
<line x1="2476.858676" y1="718.982194" x2="2476.858676" y2="596.256829" stroke="black" stroke-width="4.455"/>
<line x1="2834.68826" y1="595.218245" x2="2476.583282" y2="595.218245" stroke="black" stroke-width="4.455"/>
<line x1="2834.02544" y1="717.45699" x2="2834.02544" y2="595.457433" stroke="black" stroke-width="4.455"/>
<line x1="2824.739102" y1="708.082942" x2="2713.303073" y2="708.082942" stroke="black" stroke-width="4.455"/>
<line x1="2713.303073" y1="708.082942" x2="2713.303073" y2="605.218913" stroke="black" stroke-width="4.455"/>
<line x1="2824.739102" y1="605.218913" x2="2713.303073" y2="605.218913" stroke="black" stroke-width="4.455"/>
<line x1="2824.739102" y1="708.082942" x2="2824.739102" y2="605.218913" stroke="black" stroke-width="4.455"/>
<line x1="2696.15907" y1="701.653941" x2="2617.582379" y2="701.653941" stroke="black" stroke-width="4.455"/>
<line x1="2696.15907" y1="683.795604" x2="2617.582379" y2="683.795604" stroke="black" stroke-width="4.455"/>
<line x1="2695.444736" y1="665.222931" x2="2617.582379" y2="665.222931" stroke="black" stroke-width="4.455"/>
<line x1="2695.444736" y1="647.364594" x2="2617.582379" y2="647.364594" stroke="black" stroke-width="4.455"/>
<line x1="2696.15907" y1="629.506256" x2="2617.582379" y2="629.506256" stroke="black" stroke-width="4.455"/>
<line x1="2696.15907" y1="611.647913" x2="2617.582379" y2="611.647913" stroke="black" stroke-width="4.455"/>
<line x1="2781.879091" y1="605.933247" x2="2781.879091" y2="618.076919" stroke="black" stroke-width="4.455"/>
<line x1="2781.879091" y1="618.076919" x2="2754.73442" y2="618.076919" stroke="black" stroke-width="4.455"/>
<line x1="2754.73442" y1="618.076919" x2="2754.73442" y2="606.647582" stroke="black" stroke-width="4.455"/>
<line x1="2599.009712" y1="708.082942" x2="2487.573678" y2="708.082942" stroke="black" stroke-width="4.455"/>
<line x1="2487.573678" y1="708.082942" x2="2487.573678" y2="605.218913" stroke="black" stroke-width="4.455"/>
<line x1="2599.009712" y1="605.218913" x2="2487.573678" y2="605.218913" stroke="black" stroke-width="4.455"/>
<line x1="2599.009712" y1="708.082942" x2="2599.009712" y2="605.218913" stroke="black" stroke-width="4.455"/>
<line x1="2556.149696" y1="605.218913" x2="2556.149696" y2="617.362584" stroke="black" stroke-width="4.455"/>
<line x1="2556.149696" y1="617.362584" x2="2529.005025" y2="617.362584" stroke="black" stroke-width="4.455"/>
<line x1="2529.005025" y1="617.362584" x2="2529.005025" y2="605.933247" stroke="black" stroke-width="4.455"/>
<circle cx="2726.161079" cy="695.224936" r="6.4290017181665915" fill="none" stroke="black" stroke-width="4.455"/>
<circle cx="2500.431684" cy="694.510606" r="6.4290017181665915" fill="none" stroke="black" stroke-width="4.455"/>
<line x1="234.655295" y1="2913.791201" x2="466.552895" y2="2913.791201" stroke="black" stroke-width="4.455"/>
<line x1="466.552895" y1="2913.791201" x2="466.552895" y2="3146.164001" stroke="black" stroke-width="4.455"/>
<line x1="466.552895" y1="3146.164001" x2="234.655295" y2="3146.164001" stroke="black" stroke-width="4.455"/>
<line x1="234.655295" y1="3146.164001" x2="234.655295" y2="2913.791201" stroke="black" stroke-width="4.455"/>
<line x1="234.180094" y1="2913.316001" x2="466.552895" y2="3146.164001" stroke="black" stroke-width="4.455"/>
<line x1="234.655295" y1="3145.688801" x2="466.077694" y2="2913.791201" stroke="black" stroke-width="4.455"/>
<line x1="2266.984912" y1="220.477935" x2="2447.498285" y2="220.477935" stroke="black" stroke-width="4.455"/>
<line x1="2447.498285" y1="220.477935" x2="2447.498285" y2="401.361211" stroke="black" stroke-width="4.455"/>
<line x1="2447.498285" y1="401.361211" x2="2266.984912" y2="401.361211" stroke="black" stroke-width="4.455"/>
<line x1="2266.984912" y1="401.361211" x2="2266.984912" y2="220.477935" stroke="black" stroke-width="4.455"/>
<line x1="2266.615009" y1="220.108032" x2="2447.498285" y2="401.361211" stroke="black" stroke-width="4.455"/>
<line x1="2266.984912" y1="400.991303" x2="2447.128377" y2="220.477935" stroke="black" stroke-width="4.455"/>
<line x1="2633.926041" y1="220.479044" x2="2814.439414" y2="220.479044" stroke="black" stroke-width="4.455"/>
<line x1="2814.439414" y1="220.479044" x2="2814.439414" y2="401.36232" stroke="black" stroke-width="4.455"/>
<line x1="2814.439414" y1="401.36232" x2="2633.926041" y2="401.36232" stroke="black" stroke-width="4.455"/>
<line x1="2633.926041" y1="401.36232" x2="2633.926041" y2="220.479044" stroke="black" stroke-width="4.455"/>
<line x1="2633.556138" y1="220.10914" x2="2814.439414" y2="401.36232" stroke="black" stroke-width="4.455"/>
<line x1="2633.926041" y1="400.992412" x2="2814.069506" y2="220.479044" stroke="black" stroke-width="4.455"/>
</g>
</svg>
