<?xml version="1.0"?>
<svg xmlns:xlink="http://www.w3.org/1999/xlink" width="3059.1" height="3341.25">
<image x="0" y="0" width="3059.1" height="3341.25" xlink:href="groundfilled-02.png"/>
<g style="stroke-linecap:round">
<line x1="980.860647" y1="1527.245503" x2="996.301459" y2="1527.245503" stroke="black" stroke-width="4.455"/>
<line x1="996.301459" y1="1527.245503" x2="996.301459" y2="1497.11709" stroke="black" stroke-width="4.455"/>
<line x1="996.301459" y1="1497.11709" x2="980.860647" y2="1497.11709" stroke="black" stroke-width="4.455"/>
<line x1="980.860647" y1="1497.11709" x2="980.860647" y2="1527.245503" stroke="black" stroke-width="4.455"/>
<line x1="1147.320128" y1="1497.11709" x2="1147.320128" y2="1346.851628" stroke="black" stroke-width="4.455"/>
<line x1="1147.696734" y1="1527.99871" x2="1163.137546" y2="1527.99871" stroke="black" stroke-width="4.455"/>
<line x1="1163.137546" y1="1527.99871" x2="1163.137546" y2="1497.870297" stroke="black" stroke-width="4.455"/>
<line x1="1163.137546" y1="1497.870297" x2="1147.696734" y2="1497.870297" stroke="black" stroke-width="4.455"/>
<line x1="1147.696734" y1="1497.870297" x2="1147.696734" y2="1527.99871" stroke="black" stroke-width="4.455"/>
<path d="m 996.301459,1498.246903 a 151.01866900000005,151.01866900000005 0 0 1 151.01866900000005,-151.01866900000005" fill="none" stroke="black" stroke-width="4.455"/>
<line x1="1419.733463" y1="1470.293926" x2="1419.733463" y2="1286.549926" stroke="black" stroke-width="4.455"/>
<line x1="1419.733463" y1="1286.549926" x2="1468.837463" y2="1286.549926" stroke="black" stroke-width="4.455"/>
<line x1="1468.837463" y1="1470.293926" x2="1468.837463" y2="1286.549926" stroke="black" stroke-width="4.455"/>
<line x1="1419.733463" y1="1470.293926" x2="1468.837463" y2="1470.293926" stroke="black" stroke-width="4.455"/>
<line x1="1392.013463" y1="1428.713926" x2="1419.733463" y2="1428.713926" stroke="black" stroke-width="4.455"/>
<line x1="1419.733463" y1="1329.713926" x2="1390.429463" y2="1329.713926" stroke="black" stroke-width="4.455"/>
<circle cx="1346.869463" cy="1380.005926" r="66.528" fill="none" stroke="black" stroke-width="4.455"/>
<circle cx="1346.869463" cy="1380.005926" r="57.02400000000001" fill="none" stroke="black" stroke-width="4.455"/>
<line x1="323.817075" y1="1574.17916" x2="642.249422" y2="1574.17916" stroke="black" stroke-width="4.455"/>
<line x1="642.249422" y1="1574.17916" x2="642.249422" y2="1517.223777" stroke="black" stroke-width="4.455"/>
<line x1="642.249422" y1="1517.223777" x2="323.817075" y2="1517.223777" stroke="black" stroke-width="4.455"/>
<line x1="323.817075" y1="1517.223777" x2="323.817075" y2="1574.17916" stroke="black" stroke-width="4.455"/>
<line x1="338.703141" y1="1574.17916" x2="338.703141" y2="1593.595763" stroke="black" stroke-width="4.455"/>
<line x1="338.703141" y1="1593.595763" x2="626.716139" y2="1593.595763" stroke="black" stroke-width="4.455"/>
<line x1="626.716139" y1="1574.17916" x2="626.716139" y2="1593.595763" stroke="black" stroke-width="4.455"/>
<line x1="979.473117" y1="2198.984946" x2="979.473117" y2="2182.256292" stroke="black" stroke-width="4.455"/>
<line x1="979.473117" y1="2182.256292" x2="946.831837" y2="2182.256292" stroke="black" stroke-width="4.455"/>
<line x1="946.831837" y1="2182.256292" x2="946.831837" y2="2198.984946" stroke="black" stroke-width="4.455"/>
<line x1="946.831837" y1="2198.984946" x2="979.473117" y2="2198.984946" stroke="black" stroke-width="4.455"/>
<line x1="946.831837" y1="2018.641873" x2="784.03345" y2="2018.641873" stroke="black" stroke-width="4.455"/>
<line x1="980.289149" y1="2018.233854" x2="980.289149" y2="2001.505201" stroke="black" stroke-width="4.455"/>
<line x1="980.289149" y1="2001.505201" x2="947.647869" y2="2001.505201" stroke="black" stroke-width="4.455"/>
<line x1="947.647869" y1="2001.505201" x2="947.647869" y2="2018.233854" stroke="black" stroke-width="4.455"/>
<line x1="947.647869" y1="2018.233854" x2="980.289149" y2="2018.233854" stroke="black" stroke-width="4.455"/>
<path d="m 948.055883,2182.256292 a 163.614419,163.614419 0 0 1 -163.614419,-163.614419" fill="none" stroke="black" stroke-width="4.455"/>
<line x1="1378.153191" y1="2409.675112" x2="1378.153191" y2="2394.245769" stroke="black" stroke-width="4.455"/>
<line x1="1378.153191" y1="2394.245769" x2="1348.047157" y2="2394.245769" stroke="black" stroke-width="4.455"/>
<line x1="1348.047157" y1="2394.245769" x2="1348.047157" y2="2409.675112" stroke="black" stroke-width="4.455"/>
<line x1="1348.047157" y1="2409.675112" x2="1378.153191" y2="2409.675112" stroke="black" stroke-width="4.455"/>
<line x1="1348.047157" y1="2243.339267" x2="1197.893303" y2="2243.339267" stroke="black" stroke-width="4.455"/>
<line x1="1378.905843" y1="2242.962944" x2="1378.905843" y2="2227.533601" stroke="black" stroke-width="4.455"/>
<line x1="1378.905843" y1="2227.533601" x2="1348.799805" y2="2227.533601" stroke="black" stroke-width="4.455"/>
<line x1="1348.799805" y1="2227.533601" x2="1348.799805" y2="2242.962944" stroke="black" stroke-width="4.455"/>
<line x1="1348.799805" y1="2242.962944" x2="1378.905843" y2="2242.962944" stroke="black" stroke-width="4.455"/>
<path d="m 1349.176133,2394.245769 a 150.90650200000016,150.90650200000016 0 0 1 -150.90650200000005,-150.90650200000027" fill="none" stroke="black" stroke-width="4.455"/>
<line x1="261.329711" y1="1788.076244" x2="236.777711" y2="1806.688244" stroke="black" stroke-width="4.455"/>
<line x1="236.777711" y1="1806.688244" x2="236.777711" y2="1954.000244" stroke="black" stroke-width="4.455"/>
<line x1="236.777711" y1="1954.000244" x2="264.893711" y2="1973.008244" stroke="black" stroke-width="4.455"/>
<line x1="264.101711" y1="1809.856244" x2="264.101711" y2="1952.812244" stroke="black" stroke-width="4.455"/>
<circle cx="285.881711" cy="1879.156244" r="13.068000000000003" fill="none" stroke="black" stroke-width="4.455"/>
<path d="m 263.434362,1811.409494 a 74.84400049996428,74.84400049996428 0 1 1 0.4020489999999768,139.60900300000003" fill="none" stroke="black" stroke-width="4.455"/>
<path d="m 260.672346,1788.122546 a 95.43599981579763,95.43599981579763 0 1 1 3.074959999999976,184.466997" fill="none" stroke="black" stroke-width="4.455"/>
<line x1="1902.926248" y1="592.852565" x2="1918.36706" y2="592.852565" stroke="black" stroke-width="4.455"/>
<line x1="1918.36706" y1="592.852565" x2="1918.36706" y2="562.724153" stroke="black" stroke-width="4.455"/>
<line x1="1918.36706" y1="562.724153" x2="1902.926248" y2="562.724153" stroke="black" stroke-width="4.455"/>
<line x1="1902.926248" y1="562.724153" x2="1902.926248" y2="592.852565" stroke="black" stroke-width="4.455"/>
<line x1="2069.385729" y1="562.724153" x2="2069.385729" y2="412.458691" stroke="black" stroke-width="4.455"/>
<line x1="2069.762335" y1="593.605772" x2="2085.203147" y2="593.605772" stroke="black" stroke-width="4.455"/>
<line x1="2085.203147" y1="593.605772" x2="2085.203147" y2="563.47736" stroke="black" stroke-width="4.455"/>
<line x1="2085.203147" y1="563.47736" x2="2069.762335" y2="563.47736" stroke="black" stroke-width="4.455"/>
<line x1="2069.762335" y1="563.47736" x2="2069.762335" y2="593.605772" stroke="black" stroke-width="4.455"/>
<path d="m 1918.36706,563.853965 a 151.01866900000002,151.01866900000002 0 0 1 151.01866900000005,-151.018669" fill="none" stroke="black" stroke-width="4.455"/>
<line x1="1899.774603" y1="1104.844802" x2="1899.774603" y2="782.575918" stroke="black" stroke-width="4.455"/>
<line x1="1899.774603" y1="782.575918" x2="1842.133016" y2="782.575918" stroke="black" stroke-width="4.455"/>
<line x1="1842.133016" y1="782.575918" x2="1842.133016" y2="1104.844802" stroke="black" stroke-width="4.455"/>
<line x1="1842.133016" y1="1104.844802" x2="1899.774603" y2="1104.844802" stroke="black" stroke-width="4.455"/>
<line x1="1899.774603" y1="1089.779387" x2="1919.425142" y2="1089.779387" stroke="black" stroke-width="4.455"/>
<line x1="1919.425142" y1="1089.779387" x2="1919.425142" y2="798.29635" stroke="black" stroke-width="4.455"/>
<line x1="1899.774603" y1="798.29635" x2="1919.425142" y2="798.29635" stroke="black" stroke-width="4.455"/>
<line x1="2082.914663" y1="1560.903651" x2="2067.48532" y2="1560.903651" stroke="black" stroke-width="4.455"/>
<line x1="2067.48532" y1="1560.903651" x2="2067.48532" y2="1591.009685" stroke="black" stroke-width="4.455"/>
<line x1="2067.48532" y1="1591.009685" x2="2082.914663" y2="1591.009685" stroke="black" stroke-width="4.455"/>
<line x1="2082.914663" y1="1591.009685" x2="2082.914663" y2="1560.903651" stroke="black" stroke-width="4.455"/>
<line x1="1916.578818" y1="1591.009685" x2="1916.578818" y2="1741.16354" stroke="black" stroke-width="4.455"/>
<line x1="1916.202494" y1="1560.150999" x2="1900.773151" y2="1560.150999" stroke="black" stroke-width="4.455"/>
<line x1="1900.773151" y1="1560.150999" x2="1900.773151" y2="1590.257038" stroke="black" stroke-width="4.455"/>
<line x1="1900.773151" y1="1590.257038" x2="1916.202494" y2="1590.257038" stroke="black" stroke-width="4.455"/>
<line x1="1916.202494" y1="1590.257038" x2="1916.202494" y2="1560.150999" stroke="black" stroke-width="4.455"/>
<path d="m 2067.48532,1589.880709 a 150.90650199999993,150.90650199999993 0 0 1 -150.90650199999982,150.90650200000005" fill="none" stroke="black" stroke-width="4.455"/>
<line x1="2260.978439" y1="3149.061295" x2="1942.546092" y2="3149.061295" stroke="black" stroke-width="4.455"/>
<line x1="1942.546092" y1="3149.061295" x2="1942.546092" y2="3206.016678" stroke="black" stroke-width="4.455"/>
<line x1="1942.546092" y1="3206.016678" x2="2260.978439" y2="3206.016678" stroke="black" stroke-width="4.455"/>
<line x1="2260.978439" y1="3206.016678" x2="2260.978439" y2="3149.061295" stroke="black" stroke-width="4.455"/>
<line x1="2246.092373" y1="3149.061295" x2="2246.092373" y2="3129.644692" stroke="black" stroke-width="4.455"/>
<line x1="2246.092373" y1="3129.644692" x2="1958.079375" y2="3129.644692" stroke="black" stroke-width="4.455"/>
<line x1="1958.079375" y1="3149.061295" x2="1958.079375" y2="3129.644692" stroke="black" stroke-width="4.455"/>
<line x1="775.155897" y1="3158.28511" x2="472.050518" y2="3158.28511" stroke="black" stroke-width="4.455"/>
<line x1="472.050518" y1="3158.28511" x2="472.050518" y2="3205.011294" stroke="black" stroke-width="4.455"/>
<line x1="472.050518" y1="3205.011294" x2="775.155897" y2="3205.011294" stroke="black" stroke-width="4.455"/>
<line x1="775.155897" y1="3205.011294" x2="775.155897" y2="3158.28511" stroke="black" stroke-width="4.455"/>
<line x1="746.874261" y1="3204.396474" x2="746.874261" y2="3158.89993" stroke="black" stroke-width="4.455"/>
<line x1="500.946975" y1="3204.396474" x2="500.946975" y2="3157.055476" stroke="black" stroke-width="4.455"/>
<line x1="747.489075" y1="3182.877839" x2="501.561794" y2="3182.877839" stroke="black" stroke-width="4.455"/>
<line x1="1635.576055" y1="2910.002589" x2="1635.576055" y2="2929.936759" stroke="black" stroke-width="4.455005"/>
<line x1="1635.576055" y1="2929.936759" x2="1674.471996" y2="2929.936759" stroke="black" stroke-width="4.455005"/>
<line x1="1674.471996" y1="2929.936759" x2="1674.471996" y2="2910.002589" stroke="black" stroke-width="4.455005"/>
<line x1="1674.471996" y1="2910.002589" x2="1635.576055" y2="2910.002589" stroke="black" stroke-width="4.455005"/>
<line x1="1674.471996" y1="3124.902667" x2="1868.465501" y2="3124.902667" stroke="black" stroke-width="4.455005"/>
<line x1="1634.603657" y1="3125.388866" x2="1634.603657" y2="3145.323035" stroke="black" stroke-width="4.455005"/>
<line x1="1634.603657" y1="3145.323035" x2="1673.499599" y2="3145.323035" stroke="black" stroke-width="4.455005"/>
<line x1="1673.499599" y1="3145.323035" x2="1673.499599" y2="3125.388866" stroke="black" stroke-width="4.455005"/>
<line x1="1673.499599" y1="3125.388866" x2="1634.603657" y2="3125.388866" stroke="black" stroke-width="4.455005"/>
<path d="m 1673.0134,2929.936759 a 194.9659049999998,194.9659049999998 0 0 1 194.96590199999991,194.96590799999967" fill="none" stroke="black" stroke-width="4.455005"/>
<line x1="944.811207" y1="2695.608655" x2="1045.538262" y2="2534.411672" stroke="black" stroke-width="4.455"/>
<line x1="1045.538262" y1="2534.411672" x2="652.217623" y2="2288.637658" stroke="black" stroke-width="4.455"/>
<line x1="652.217623" y1="2288.637658" x2="551.490573" y2="2449.834641" stroke="black" stroke-width="4.455"/>
<line x1="551.490573" y1="2449.834641" x2="571.640192" y2="2462.42552" stroke="black" stroke-width="4.455"/>
<line x1="571.640192" y1="2462.42552" x2="660.28" y2="2320.572182" stroke="black" stroke-width="4.455"/>
<line x1="660.28" y1="2320.572182" x2="1012.495409" y2="2540.66079" stroke="black" stroke-width="4.455"/>
<line x1="1012.495409" y1="2540.66079" x2="923.8556" y2="2682.514138" stroke="black" stroke-width="4.455"/>
<line x1="923.8556" y1="2682.514138" x2="944.811207" y2="2695.608655" stroke="black" stroke-width="4.455"/>
<line x1="926.877412" y1="2677.67823" x2="574.662008" y2="2457.589612" stroke="black" stroke-width="4.455"/>
<line x1="750.669064" y1="2568.691724" x2="836.287061" y2="2431.674288" stroke="black" stroke-width="4.455"/>
<line x1="1173.197466" y1="3062.58384" x2="1198.678882" y2="2855.054347" stroke="black" stroke-width="4.455"/>
<line x1="1198.678882" y1="2855.054347" x2="968.509808" y2="2826.793139" stroke="black" stroke-width="4.455"/>
<line x1="968.509808" y1="2826.793139" x2="943.028391" y2="3034.322626" stroke="black" stroke-width="4.455"/>
<line x1="943.028391" y1="3034.322626" x2="1173.197466" y2="3062.58384" stroke="black" stroke-width="4.455"/>
<line x1="1141.124723" y1="3058.645798" x2="1166.60614" y2="2851.11631" stroke="black" stroke-width="4.455"/>
<line x1="2080.290074" y1="2380.705361" x2="2142.309891" y2="2264.063041" stroke="black" stroke-width="4.455"/>
<line x1="2142.309891" y1="2264.063041" x2="2154.897197" y2="2270.755822" stroke="black" stroke-width="4.455"/>
<line x1="2092.87737" y1="2387.398147" x2="2154.897197" y2="2270.755822" stroke="black" stroke-width="4.455"/>
<line x1="2080.290074" y1="2380.705361" x2="2092.87737" y2="2387.398147" stroke="black" stroke-width="4.455"/>
<line x1="2099.123973" y1="2375.65" x2="2125.923664" y2="2392.052439" stroke="black" stroke-width="4.455"/>
<line x1="2148.650594" y1="2282.503974" x2="2178.074181" y2="2295.995981" stroke="black" stroke-width="4.455"/>
<line x1="2487.27947" y1="2597.105462" x2="2549.299287" y2="2480.463142" stroke="black" stroke-width="4.455"/>
<line x1="2549.299287" y1="2480.463142" x2="2537.55114" y2="2474.216539" stroke="black" stroke-width="4.455"/>
<line x1="2475.531318" y1="2590.858858" x2="2537.55114" y2="2474.216539" stroke="black" stroke-width="4.455"/>
<line x1="2487.27947" y1="2597.105462" x2="2475.531318" y2="2590.858858" stroke="black" stroke-width="4.455"/>
<line x1="2479.653426" y1="2579.057494" x2="2451.068992" y2="2566.01167" stroke="black" stroke-width="4.455"/>
<line x1="2529.180052" y1="2485.911468" x2="2501.98739" y2="2468.223693" stroke="black" stroke-width="4.455"/>
<line x1="2364.227385" y1="2196.918791" x2="2357.534599" y2="2209.506097" stroke="black" stroke-width="4.455"/>
<line x1="2357.534599" y1="2209.506097" x2="2474.176919" y2="2271.525919" stroke="black" stroke-width="4.455"/>
<line x1="2480.869705" y1="2258.938618" x2="2474.176919" y2="2271.525919" stroke="black" stroke-width="4.455"/>
<line x1="2364.227385" y1="2196.918791" x2="2480.869705" y2="2258.938618" stroke="black" stroke-width="4.455"/>
<line x1="2461.589618" y1="2264.833128" x2="2448.936765" y2="2294.702903" stroke="black" stroke-width="4.455"/>
<line x1="2369.282746" y1="2215.752695" x2="2352.434124" y2="2243.391539" stroke="black" stroke-width="4.455"/>
<line x1="2147.434314" y1="2602.62285" x2="2154.127105" y2="2590.03555" stroke="black" stroke-width="4.455"/>
<line x1="2154.127105" y1="2590.03555" x2="2270.769425" y2="2652.055372" stroke="black" stroke-width="4.455"/>
<line x1="2264.076639" y1="2664.642672" x2="2270.769425" y2="2652.055372" stroke="black" stroke-width="4.455"/>
<line x1="2147.434314" y1="2602.62285" x2="2264.076639" y2="2664.642672" stroke="black" stroke-width="4.455"/>
<line x1="2258.182125" y1="2645.362586" x2="2275.8699" y2="2618.169929" stroke="black" stroke-width="4.455"/>
<line x1="2165.875252" y1="2596.282153" x2="2179.367259" y2="2566.858566" stroke="black" stroke-width="4.455"/>
<circle cx="2314.152012" cy="2430.780734" r="191.9808" fill="none" stroke="black" stroke-width="4.455"/>
<line x1="526.81662" y1="2030.856696" x2="692.048437" y2="2030.856696" stroke="black" stroke-width="4.455"/>
<line x1="692.048437" y1="2030.856696" x2="692.048437" y2="2196.427103" stroke="black" stroke-width="4.455"/>
<line x1="692.048437" y1="2196.427103" x2="526.81662" y2="2196.427103" stroke="black" stroke-width="4.455"/>
<line x1="526.81662" y1="2196.427103" x2="526.81662" y2="2030.856696" stroke="black" stroke-width="4.455"/>
<line x1="526.47803" y1="2030.518106" x2="692.048437" y2="2196.427103" stroke="black" stroke-width="4.455"/>
<line x1="526.81662" y1="2196.088513" x2="691.709847" y2="2030.856696" stroke="black" stroke-width="4.455"/>
<line x1="2604.028126" y1="2916.847261" x2="2835.925726" y2="2916.847261" stroke="black" stroke-width="4.455"/>
<line x1="2835.925726" y1="2916.847261" x2="2835.925726" y2="3149.220061" stroke="black" stroke-width="4.455"/>
<line x1="2835.925726" y1="3149.220061" x2="2604.028126" y2="3149.220061" stroke="black" stroke-width="4.455"/>
<line x1="2604.028126" y1="3149.220061" x2="2604.028126" y2="2916.847261" stroke="black" stroke-width="4.455"/>
<line x1="2603.552926" y1="2916.372061" x2="2835.925726" y2="3149.220061" stroke="black" stroke-width="4.455"/>
<line x1="2604.028126" y1="3148.744861" x2="2835.450526" y2="2916.847261" stroke="black" stroke-width="4.455"/>
<line x1="2222.519721" y1="1165.407205" x2="2222.519721" y2="1558.239205" stroke="black" stroke-width="4.455"/>
<line x1="2222.519721" y1="1558.239205" x2="2407.055721" y2="1558.239205" stroke="black" stroke-width="4.455"/>
<line x1="2407.055721" y1="1558.239205" x2="2407.055721" y2="1165.407205" stroke="black" stroke-width="4.455"/>
<line x1="2407.055721" y1="1165.407205" x2="2222.519721" y2="1165.407205" stroke="black" stroke-width="4.455"/>
<line x1="2407.055721" y1="1324.599205" x2="2487.839721" y2="1324.599205" stroke="black" stroke-width="4.455"/>
<line x1="2487.839721" y1="1324.599205" x2="2487.839721" y2="1246.191205" stroke="black" stroke-width="4.455"/>
<line x1="2487.839721" y1="1246.191205" x2="2407.055721" y2="1246.191205" stroke="black" stroke-width="4.455"/>
<line x1="2470.415721" y1="1246.983205" x2="2470.415721" y2="1324.599205" stroke="black" stroke-width="4.455"/>
<line x1="2140.943721" y1="1246.191205" x2="2140.943721" y2="1324.599205" stroke="black" stroke-width="4.455"/>
<line x1="2140.943721" y1="1324.599205" x2="2222.519721" y2="1324.599205" stroke="black" stroke-width="4.455"/>
<line x1="2222.519721" y1="1246.191205" x2="2140.943721" y2="1246.191205" stroke="black" stroke-width="4.455"/>
<line x1="2158.367721" y1="1246.983205" x2="2158.367721" y2="1324.599205" stroke="black" stroke-width="4.455"/>
<line x1="2407.055721" y1="1475.871205" x2="2487.839721" y2="1475.871205" stroke="black" stroke-width="4.455"/>
<line x1="2487.839721" y1="1475.871205" x2="2487.839721" y2="1397.463205" stroke="black" stroke-width="4.455"/>
<line x1="2487.839721" y1="1397.463205" x2="2407.055721" y2="1397.463205" stroke="black" stroke-width="4.455"/>
<line x1="2470.415721" y1="1397.463205" x2="2470.415721" y2="1475.871205" stroke="black" stroke-width="4.455"/>
<line x1="2140.943721" y1="1397.463205" x2="2140.943721" y2="1475.871205" stroke="black" stroke-width="4.455"/>
<line x1="2140.943721" y1="1475.871205" x2="2222.519721" y2="1475.871205" stroke="black" stroke-width="4.455"/>
<line x1="2222.519721" y1="1397.463205" x2="2140.943721" y2="1397.463205" stroke="black" stroke-width="4.455"/>
<line x1="2158.367721" y1="1397.463205" x2="2158.367721" y2="1475.871205" stroke="black" stroke-width="4.455"/>
<line x1="2606.250082" y1="983.336221" x2="2838.147682" y2="983.336221" stroke="black" stroke-width="4.455"/>
<line x1="2838.147682" y1="983.336221" x2="2838.147682" y2="1215.709021" stroke="black" stroke-width="4.455"/>
<line x1="2838.147682" y1="1215.709021" x2="2606.250082" y2="1215.709021" stroke="black" stroke-width="4.455"/>
<line x1="2606.250082" y1="1215.709021" x2="2606.250082" y2="983.336221" stroke="black" stroke-width="4.455"/>
<line x1="2605.774882" y1="982.861021" x2="2838.147682" y2="1215.709021" stroke="black" stroke-width="4.455"/>
<line x1="2606.250082" y1="1215.233821" x2="2837.672482" y2="983.336221" stroke="black" stroke-width="4.455"/>
<line x1="776.410792" y1="1575.007587" x2="776.410792" y2="1966.255587" stroke="black" stroke-width="4.455"/>
<line x1="776.410792" y1="1966.255587" x2="950.650792" y2="1966.255587" stroke="black" stroke-width="4.455"/>
<line x1="950.650792" y1="1966.255587" x2="950.650792" y2="1575.007587" stroke="black" stroke-width="4.455"/>
<line x1="950.650792" y1="1575.007587" x2="776.410792" y2="1575.007587" stroke="black" stroke-width="4.455"/>
<line x1="923.722792" y1="1891.015587" x2="923.722792" y2="1606.687587" stroke="black" stroke-width="4.455"/>
<line x1="923.722792" y1="1606.687587" x2="805.714792" y2="1606.687587" stroke="black" stroke-width="4.455"/>
<line x1="805.714792" y1="1606.687587" x2="805.714792" y2="1896.559587" stroke="black" stroke-width="4.455"/>
<path d="m 923.978217,1890.205015 a 63.360001107387035,63.360001107387035 0 0 1 -119.37433399999998,4.293813" fill="none" stroke="black" stroke-width="4.455"/>
<line x1="2450.713483" y1="220.67794" x2="2631.226856" y2="220.67794" stroke="black" stroke-width="4.455"/>
<line x1="2631.226856" y1="220.67794" x2="2631.226856" y2="401.561216" stroke="black" stroke-width="4.455"/>
<line x1="2631.226856" y1="401.561216" x2="2450.713483" y2="401.561216" stroke="black" stroke-width="4.455"/>
<line x1="2450.713483" y1="401.561216" x2="2450.713483" y2="220.67794" stroke="black" stroke-width="4.455"/>
<line x1="2450.34358" y1="220.308036" x2="2631.226856" y2="401.561216" stroke="black" stroke-width="4.455"/>
<line x1="2450.713483" y1="401.191308" x2="2630.856947" y2="220.67794" stroke="black" stroke-width="4.455"/>
<line x1="2835.107109" y1="718.08361" x2="2480.4262" y2="718.08361" stroke="black" stroke-width="4.455"/>
<line x1="2476.858676" y1="718.982194" x2="2476.858676" y2="596.256829" stroke="black" stroke-width="4.455"/>
<line x1="2834.68826" y1="595.218245" x2="2476.583282" y2="595.218245" stroke="black" stroke-width="4.455"/>
<line x1="2834.02544" y1="717.45699" x2="2834.02544" y2="595.457433" stroke="black" stroke-width="4.455"/>
<line x1="2824.739102" y1="708.082942" x2="2713.303073" y2="708.082942" stroke="black" stroke-width="4.455"/>
<line x1="2713.303073" y1="708.082942" x2="2713.303073" y2="605.218913" stroke="black" stroke-width="4.455"/>
<line x1="2824.739102" y1="605.218913" x2="2713.303073" y2="605.218913" stroke="black" stroke-width="4.455"/>
<line x1="2824.739102" y1="708.082942" x2="2824.739102" y2="605.218913" stroke="black" stroke-width="4.455"/>
<line x1="2696.15907" y1="701.653941" x2="2617.582379" y2="701.653941" stroke="black" stroke-width="4.455"/>
<line x1="2696.15907" y1="683.795604" x2="2617.582379" y2="683.795604" stroke="black" stroke-width="4.455"/>
<line x1="2695.444736" y1="665.222931" x2="2617.582379" y2="665.222931" stroke="black" stroke-width="4.455"/>
<line x1="2695.444736" y1="647.364594" x2="2617.582379" y2="647.364594" stroke="black" stroke-width="4.455"/>
<line x1="2696.15907" y1="629.506256" x2="2617.582379" y2="629.506256" stroke="black" stroke-width="4.455"/>
<line x1="2696.15907" y1="611.647913" x2="2617.582379" y2="611.647913" stroke="black" stroke-width="4.455"/>
<line x1="2781.879091" y1="605.933247" x2="2781.879091" y2="618.076919" stroke="black" stroke-width="4.455"/>
<line x1="2781.879091" y1="618.076919" x2="2754.73442" y2="618.076919" stroke="black" stroke-width="4.455"/>
<line x1="2754.73442" y1="618.076919" x2="2754.73442" y2="606.647582" stroke="black" stroke-width="4.455"/>
<line x1="2599.009712" y1="708.082942" x2="2487.573678" y2="708.082942" stroke="black" stroke-width="4.455"/>
<line x1="2487.573678" y1="708.082942" x2="2487.573678" y2="605.218913" stroke="black" stroke-width="4.455"/>
<line x1="2599.009712" y1="605.218913" x2="2487.573678" y2="605.218913" stroke="black" stroke-width="4.455"/>
<line x1="2599.009712" y1="708.082942" x2="2599.009712" y2="605.218913" stroke="black" stroke-width="4.455"/>
<line x1="2556.149696" y1="605.218913" x2="2556.149696" y2="617.362584" stroke="black" stroke-width="4.455"/>
<line x1="2556.149696" y1="617.362584" x2="2529.005025" y2="617.362584" stroke="black" stroke-width="4.455"/>
<line x1="2529.005025" y1="617.362584" x2="2529.005025" y2="605.933247" stroke="black" stroke-width="4.455"/>
<circle cx="2726.161079" cy="695.224936" r="6.4290017181665915" fill="none" stroke="black" stroke-width="4.455"/>
<circle cx="2500.431684" cy="694.510606" r="6.4290017181665915" fill="none" stroke="black" stroke-width="4.455"/>
<line x1="234.655295" y1="2913.791201" x2="466.552895" y2="2913.791201" stroke="black" stroke-width="4.455"/>
<line x1="466.552895" y1="2913.791201" x2="466.552895" y2="3146.164001" stroke="black" stroke-width="4.455"/>
<line x1="466.552895" y1="3146.164001" x2="234.655295" y2="3146.164001" stroke="black" stroke-width="4.455"/>
<line x1="234.655295" y1="3146.164001" x2="234.655295" y2="2913.791201" stroke="black" stroke-width="4.455"/>
<line x1="234.180094" y1="2913.316001" x2="466.552895" y2="3146.164001" stroke="black" stroke-width="4.455"/>
<line x1="234.655295" y1="3145.688801" x2="466.077694" y2="2913.791201" stroke="black" stroke-width="4.455"/>
<line x1="2476.291856" y1="717.011252" x2="2226.819751" y2="717.011252" stroke="black" stroke-width="4.454995"/>
<line x1="2226.819751" y1="717.011252" x2="2226.819751" y2="595.34248" stroke="black" stroke-width="4.454995"/>
<line x1="2476.291856" y1="595.34248" x2="2226.819751" y2="595.34248" stroke="black" stroke-width="4.454995"/>
<line x1="2476.291856" y1="717.011252" x2="2476.291856" y2="595.34248" stroke="black" stroke-width="4.454995"/>
<line x1="2470.157296" y1="710.876692" x2="2342.865175" y2="710.876692" stroke="black" stroke-width="4.454995"/>
<line x1="2342.865175" y1="710.876692" x2="2342.865175" y2="601.988256" stroke="black" stroke-width="4.454995"/>
<line x1="2470.157296" y1="601.988256" x2="2342.865175" y2="601.988256" stroke="black" stroke-width="4.454995"/>
<line x1="2470.157296" y1="710.876692" x2="2470.157296" y2="601.988256" stroke="black" stroke-width="4.454995"/>
<line x1="2329.573628" y1="703.71971" x2="2240.111298" y2="703.71971" stroke="black" stroke-width="4.454995"/>
<line x1="2329.573628" y1="684.804815" x2="2240.111298" y2="684.804815" stroke="black" stroke-width="4.454995"/>
<line x1="2329.062417" y1="665.378708" x2="2239.600082" y2="665.378708" stroke="black" stroke-width="4.454995"/>
<line x1="2329.062417" y1="646.463812" x2="2239.600082" y2="646.463812" stroke="black" stroke-width="4.454995"/>
<line x1="2329.573628" y1="627.548922" x2="2240.111298" y2="627.548922" stroke="black" stroke-width="4.454995"/>
<line x1="2329.573628" y1="608.634027" x2="2240.111298" y2="608.634027" stroke="black" stroke-width="4.454995"/>
<line x1="2421.592029" y1="601.988256" x2="2421.592029" y2="614.768586" stroke="black" stroke-width="4.454995"/>
<line x1="2421.592029" y1="614.768586" x2="2389.896803" y2="614.768586" stroke="black" stroke-width="4.454995"/>
<line x1="2389.896803" y1="614.768586" x2="2389.896803" y2="602.499467" stroke="black" stroke-width="4.454995"/>
<circle cx="2357.17915" cy="697.073934" r="7.668199943036171" fill="none" stroke="black" stroke-width="4.454995"/>
<line x1="2266.984912" y1="220.477935" x2="2447.498285" y2="220.477935" stroke="black" stroke-width="4.455"/>
<line x1="2447.498285" y1="220.477935" x2="2447.498285" y2="401.361211" stroke="black" stroke-width="4.455"/>
<line x1="2447.498285" y1="401.361211" x2="2266.984912" y2="401.361211" stroke="black" stroke-width="4.455"/>
<line x1="2266.984912" y1="401.361211" x2="2266.984912" y2="220.477935" stroke="black" stroke-width="4.455"/>
<line x1="2266.615009" y1="220.108032" x2="2447.498285" y2="401.361211" stroke="black" stroke-width="4.455"/>
<line x1="2266.984912" y1="400.991303" x2="2447.128377" y2="220.477935" stroke="black" stroke-width="4.455"/>
</g>
</svg>
