<?xml version="1.0"?>
<svg xmlns:xlink="http://www.w3.org/1999/xlink" width="2056.15395" height="1836.830862">
<image x="0" y="0" width="2056.15395" height="1836.830862" xlink:href="groundempty-02.png"/>
<g style="stroke-linecap:round">
<line x1="903.100627" y1="78.978951" x2="1107.335225" y2="78.978951" stroke="black" stroke-width="3.152769"/>
<line x1="1107.335225" y1="78.978951" x2="1107.335225" y2="47.494509" stroke="black" stroke-width="3.152769"/>
<line x1="1107.335225" y1="47.494509" x2="903.100627" y2="47.494509" stroke="black" stroke-width="3.152769"/>
<line x1="903.100627" y1="47.494509" x2="903.100627" y2="78.978951" stroke="black" stroke-width="3.152769"/>
<line x1="922.157001" y1="47.90878" x2="922.157001" y2="78.564683" stroke="black" stroke-width="3.152769"/>
<line x1="1087.864586" y1="47.90878" x2="1087.864586" y2="79.807489" stroke="black" stroke-width="3.152769"/>
<line x1="921.74273" y1="62.408193" x2="1087.450315" y2="62.408193" stroke="black" stroke-width="3.152769"/>
<line x1="1518.82573" y1="1653.051429" x2="1314.604048" y2="1653.051429" stroke="black" stroke-width="3.152769"/>
<line x1="1314.604048" y1="1653.051429" x2="1314.604048" y2="1689.578885" stroke="black" stroke-width="3.152769"/>
<line x1="1314.604048" y1="1689.578885" x2="1518.82573" y2="1689.578885" stroke="black" stroke-width="3.152769"/>
<line x1="1518.82573" y1="1689.578885" x2="1518.82573" y2="1653.051429" stroke="black" stroke-width="3.152769"/>
<line x1="1509.278781" y1="1653.051429" x2="1509.278781" y2="1640.598885" stroke="black" stroke-width="3.152769"/>
<line x1="1509.278781" y1="1640.598885" x2="1324.56608" y2="1640.598885" stroke="black" stroke-width="3.152769"/>
<line x1="1324.56608" y1="1653.051429" x2="1324.56608" y2="1640.598885" stroke="black" stroke-width="3.152769"/>
<line x1="756.247358" y1="1494.233918" x2="768.38411" y2="1494.233918" stroke="black" stroke-width="3.152769"/>
<line x1="768.38411" y1="1494.233918" x2="768.38411" y2="1688.421944" stroke="black" stroke-width="3.152769"/>
<line x1="756.247358" y1="1688.421944" x2="768.38411" y2="1688.421944" stroke="black" stroke-width="3.152769"/>
<line x1="756.247358" y1="1494.233918" x2="756.247358" y2="1688.421944" stroke="black" stroke-width="3.152769"/>
<line x1="1131.677541" y1="1494.233918" x2="1144.623409" y2="1494.233918" stroke="black" stroke-width="3.152769"/>
<line x1="1144.623409" y1="1494.233918" x2="1144.623409" y2="1688.421944" stroke="black" stroke-width="3.152769"/>
<line x1="1131.677541" y1="1688.421944" x2="1144.623409" y2="1688.421944" stroke="black" stroke-width="3.152769"/>
<line x1="1131.677541" y1="1494.233918" x2="1131.677541" y2="1688.421944" stroke="black" stroke-width="3.152769"/>
<path d="m 756.247358,1494.233918 a 194.18802550000004,194.18802550000004 0 0 1 194.18802500000004,194.18802600000004" fill="none" stroke="black" stroke-width="3.152769"/>
<path d="m 950.435383,1688.421944 a 194.18802600000004,194.18802600000004 0 0 1 194.18802600000004,-194.18802600000004" fill="none" stroke="black" stroke-width="3.152769"/>
<line x1="1968.624457" y1="319.015621" x2="1968.624457" y2="523.250219" stroke="black" stroke-width="3.152769"/>
<line x1="1968.624457" y1="523.250219" x2="2000.108899" y2="523.250219" stroke="black" stroke-width="3.152769"/>
<line x1="2000.108899" y1="523.250219" x2="2000.108899" y2="319.015621" stroke="black" stroke-width="3.152769"/>
<line x1="2000.108899" y1="319.015621" x2="1968.624457" y2="319.015621" stroke="black" stroke-width="3.152769"/>
<line x1="1999.694628" y1="338.071995" x2="1969.038725" y2="338.071995" stroke="black" stroke-width="3.152769"/>
<line x1="1999.694628" y1="503.77958" x2="1967.795919" y2="503.77958" stroke="black" stroke-width="3.152769"/>
<line x1="1985.195215" y1="337.657724" x2="1985.195215" y2="503.365309" stroke="black" stroke-width="3.152769"/>
<line x1="1259.768079" y1="1163.185118" x2="1259.768079" y2="1147.448939" stroke="black" stroke-width="3.152769"/>
<line x1="1259.768079" y1="1147.448939" x2="1229.063337" y2="1147.448939" stroke="black" stroke-width="3.152769"/>
<line x1="1229.063337" y1="1147.448939" x2="1229.063337" y2="1163.185118" stroke="black" stroke-width="3.152769"/>
<line x1="1229.063337" y1="1163.185118" x2="1259.768079" y2="1163.185118" stroke="black" stroke-width="3.152769"/>
<line x1="1229.063337" y1="993.54142" x2="1075.92344" y2="993.54142" stroke="black" stroke-width="3.152769"/>
<line x1="1260.535697" y1="993.157611" x2="1260.535697" y2="977.421432" stroke="black" stroke-width="3.152769"/>
<line x1="1260.535697" y1="977.421432" x2="1229.830956" y2="977.421432" stroke="black" stroke-width="3.152769"/>
<line x1="1229.830956" y1="977.421432" x2="1229.830956" y2="993.157611" stroke="black" stroke-width="3.152769"/>
<line x1="1229.830956" y1="993.157611" x2="1260.535697" y2="993.157611" stroke="black" stroke-width="3.152769"/>
<path d="m 1230.214765,1147.448939 a 153.90751750000004,153.90751750000004 0 0 1 -153.907516,-153.9075190000001" fill="none" stroke="black" stroke-width="3.152769"/>
<line x1="669.120947" y1="1207.640357" x2="653.329295" y2="1207.640357" stroke="black" stroke-width="3.152769"/>
<line x1="653.329295" y1="1207.640357" x2="653.329295" y2="1238.453338" stroke="black" stroke-width="3.152769"/>
<line x1="653.329295" y1="1238.453338" x2="669.120947" y2="1238.453338" stroke="black" stroke-width="3.152769"/>
<line x1="669.120947" y1="1238.453338" x2="669.120947" y2="1207.640357" stroke="black" stroke-width="3.152769"/>
<line x1="498.879229" y1="1238.453338" x2="498.879229" y2="1392.133078" stroke="black" stroke-width="3.152769"/>
<line x1="498.494067" y1="1206.870034" x2="482.702415" y2="1206.870034" stroke="black" stroke-width="3.152769"/>
<line x1="482.702415" y1="1206.870034" x2="482.702415" y2="1237.683015" stroke="black" stroke-width="3.152769"/>
<line x1="482.702415" y1="1237.683015" x2="498.494067" y2="1237.683015" stroke="black" stroke-width="3.152769"/>
<line x1="498.494067" y1="1237.683015" x2="498.494067" y2="1206.870034" stroke="black" stroke-width="3.152769"/>
<path d="m 653.329295,1237.297853 a 154.4500645,154.4500645 0 0 1 -154.450066,154.450063" fill="none" stroke="black" stroke-width="3.152769"/>
<line x1="1907.132423" y1="1645.512993" x2="1907.132423" y2="1461.768984" stroke="black" stroke-width="3.152769"/>
<line x1="1907.132423" y1="1461.768984" x2="1956.236425" y2="1461.768984" stroke="black" stroke-width="3.152769"/>
<line x1="1956.236425" y1="1645.512993" x2="1956.236425" y2="1461.768984" stroke="black" stroke-width="3.152769"/>
<line x1="1907.132423" y1="1645.512993" x2="1956.236425" y2="1645.512993" stroke="black" stroke-width="3.152769"/>
<line x1="1879.412421" y1="1603.932991" x2="1907.132423" y2="1603.932991" stroke="black" stroke-width="3.152769"/>
<line x1="1907.132423" y1="1504.932986" x2="1877.828421" y2="1504.932986" stroke="black" stroke-width="3.152769"/>
<circle cx="1834.268419" cy="1555.224988" r="66.52800336000001" fill="none" stroke="black" stroke-width="3.152769"/>
<circle cx="1834.268419" cy="1555.224988" r="57.024002880000005" fill="none" stroke="black" stroke-width="3.152769"/>
<line x1="1392.240613" y1="1355.444096" x2="1392.240613" y2="1625.99131" stroke="black" stroke-width="3.152769"/>
<line x1="1392.240613" y1="1625.99131" x2="1260.293406" y2="1625.99131" stroke="black" stroke-width="3.152769"/>
<line x1="1260.293406" y1="1355.444096" x2="1260.293406" y2="1625.99131" stroke="black" stroke-width="3.152769"/>
<line x1="1392.240613" y1="1355.444096" x2="1260.293406" y2="1355.444096" stroke="black" stroke-width="3.152769"/>
<line x1="1385.587813" y1="1362.096897" x2="1385.587813" y2="1500.142503" stroke="black" stroke-width="3.152769"/>
<line x1="1385.587813" y1="1500.142503" x2="1267.500607" y2="1500.142503" stroke="black" stroke-width="3.152769"/>
<line x1="1267.500607" y1="1362.096897" x2="1267.500607" y2="1500.142503" stroke="black" stroke-width="3.152769"/>
<line x1="1385.587813" y1="1362.096897" x2="1267.500607" y2="1362.096897" stroke="black" stroke-width="3.152769"/>
<line x1="1377.826212" y1="1514.556904" x2="1377.826212" y2="1611.576909" stroke="black" stroke-width="3.152769"/>
<line x1="1357.313411" y1="1514.556904" x2="1357.313411" y2="1611.576909" stroke="black" stroke-width="3.152769"/>
<line x1="1336.24621" y1="1515.111304" x2="1336.24621" y2="1612.131309" stroke="black" stroke-width="3.152769"/>
<line x1="1315.733409" y1="1515.111304" x2="1315.733409" y2="1612.131309" stroke="black" stroke-width="3.152769"/>
<line x1="1295.220608" y1="1514.556904" x2="1295.220608" y2="1611.576909" stroke="black" stroke-width="3.152769"/>
<line x1="1274.707807" y1="1514.556904" x2="1274.707807" y2="1611.576909" stroke="black" stroke-width="3.152769"/>
<line x1="1267.500607" y1="1414.764899" x2="1281.360607" y2="1414.764899" stroke="black" stroke-width="3.152769"/>
<line x1="1281.360607" y1="1414.764899" x2="1281.360607" y2="1449.137701" stroke="black" stroke-width="3.152769"/>
<line x1="1281.360607" y1="1449.137701" x2="1268.055007" y2="1449.137701" stroke="black" stroke-width="3.152769"/>
<circle cx="1370.619012" cy="1484.619303" r="8.316000420000002" fill="none" stroke="black" stroke-width="3.152769"/>
<line x1="1903.11326" y1="959.265243" x2="1511.86524" y2="959.265243" stroke="black" stroke-width="3.152769"/>
<line x1="1511.86524" y1="959.265243" x2="1511.86524" y2="1133.505251" stroke="black" stroke-width="3.152769"/>
<line x1="1511.86524" y1="1133.505251" x2="1903.11326" y2="1133.505251" stroke="black" stroke-width="3.152769"/>
<line x1="1903.11326" y1="1133.505251" x2="1903.11326" y2="959.265243" stroke="black" stroke-width="3.152769"/>
<line x1="1587.105244" y1="1106.57725" x2="1871.433258" y2="1106.57725" stroke="black" stroke-width="3.152769"/>
<line x1="1871.433258" y1="1106.57725" x2="1871.433258" y2="988.569244" stroke="black" stroke-width="3.152769"/>
<line x1="1871.433258" y1="988.569244" x2="1581.561244" y2="988.569244" stroke="black" stroke-width="3.152769"/>
<path d="m 1587.915817,1106.832673 a 63.36000251443593,63.36000251443593 0 0 1 -4.293813,-119.37433700000008" fill="none" stroke="black" stroke-width="3.152769"/>
<line x1="1499.258031" y1="932.484041" x2="1499.258031" y2="539.652022" stroke="black" stroke-width="3.152769"/>
<line x1="1499.258031" y1="539.652022" x2="1314.722022" y2="539.652022" stroke="black" stroke-width="3.152769"/>
<line x1="1314.722022" y1="539.652022" x2="1314.722022" y2="932.484041" stroke="black" stroke-width="3.152769"/>
<line x1="1314.722022" y1="932.484041" x2="1499.258031" y2="932.484041" stroke="black" stroke-width="3.152769"/>
<line x1="1314.722022" y1="773.292033" x2="1233.938018" y2="773.292033" stroke="black" stroke-width="3.152769"/>
<line x1="1233.938018" y1="773.292033" x2="1233.938018" y2="851.700037" stroke="black" stroke-width="3.152769"/>
<line x1="1233.938018" y1="851.700037" x2="1314.722022" y2="851.700037" stroke="black" stroke-width="3.152769"/>
<line x1="1251.362019" y1="850.908037" x2="1251.362019" y2="773.292033" stroke="black" stroke-width="3.152769"/>
<line x1="1580.834035" y1="851.700037" x2="1580.834035" y2="773.292033" stroke="black" stroke-width="3.152769"/>
<line x1="1580.834035" y1="773.292033" x2="1499.258031" y2="773.292033" stroke="black" stroke-width="3.152769"/>
<line x1="1499.258031" y1="851.700037" x2="1580.834035" y2="851.700037" stroke="black" stroke-width="3.152769"/>
<line x1="1563.410035" y1="850.908037" x2="1563.410035" y2="773.292033" stroke="black" stroke-width="3.152769"/>
<line x1="1314.722022" y1="622.020026" x2="1233.938018" y2="622.020026" stroke="black" stroke-width="3.152769"/>
<line x1="1233.938018" y1="622.020026" x2="1233.938018" y2="700.42803" stroke="black" stroke-width="3.152769"/>
<line x1="1233.938018" y1="700.42803" x2="1314.722022" y2="700.42803" stroke="black" stroke-width="3.152769"/>
<line x1="1251.362019" y1="700.42803" x2="1251.362019" y2="622.020026" stroke="black" stroke-width="3.152769"/>
<line x1="1580.834035" y1="700.42803" x2="1580.834035" y2="622.020026" stroke="black" stroke-width="3.152769"/>
<line x1="1580.834035" y1="622.020026" x2="1499.258031" y2="622.020026" stroke="black" stroke-width="3.152769"/>
<line x1="1499.258031" y1="700.42803" x2="1580.834035" y2="700.42803" stroke="black" stroke-width="3.152769"/>
<line x1="1563.410035" y1="700.42803" x2="1563.410035" y2="622.020026" stroke="black" stroke-width="3.152769"/>
<line x1="1231.897555" y1="90.941932" x2="1408.223201" y2="90.941932" stroke="black" stroke-width="3.152769"/>
<line x1="1408.223201" y1="90.941932" x2="1408.223201" y2="267.628901" stroke="black" stroke-width="3.152769"/>
<line x1="1408.223201" y1="267.628901" x2="1231.897555" y2="267.628901" stroke="black" stroke-width="3.152769"/>
<line x1="1231.897555" y1="267.628901" x2="1231.897555" y2="90.941932" stroke="black" stroke-width="3.152769"/>
<line x1="1231.536232" y1="90.580609" x2="1408.223201" y2="267.628901" stroke="black" stroke-width="3.152769"/>
<line x1="1231.897555" y1="267.267578" x2="1407.861879" y2="90.941932" stroke="black" stroke-width="3.152769"/>
<line x1="99.627833" y1="421.28499" x2="308.993043" y2="421.28499" stroke="black" stroke-width="3.152769"/>
<line x1="308.993043" y1="421.28499" x2="308.993043" y2="90.070576" stroke="black" stroke-width="3.152769"/>
<line x1="308.993043" y1="90.070576" x2="99.627833" y2="90.070576" stroke="black" stroke-width="3.152769"/>
<line x1="99.627833" y1="90.070576" x2="99.627833" y2="421.28499" stroke="black" stroke-width="3.152769"/>
<line x1="98.954633" y1="149.312176" x2="309.666243" y2="149.312176" stroke="black" stroke-width="3.152769"/>
<line x1="309.666243" y1="149.312176" x2="100.301033" y2="199.128979" stroke="black" stroke-width="3.152769"/>
<line x1="100.301033" y1="199.128979" x2="131.941437" y2="245.579781" stroke="black" stroke-width="3.152769"/>
<line x1="131.941437" y1="245.579781" x2="309.666243" y2="148.638979" stroke="black" stroke-width="3.152769"/>
<line x1="645.384648" y1="671.930705" x2="582.180706" y2="845.582105" stroke="black" stroke-width="3.152769"/>
<line x1="582.180706" y1="845.582105" x2="408.17346" y2="782.248646" stroke="black" stroke-width="3.152769"/>
<line x1="408.17346" y1="782.248646" x2="471.377402" y2="608.597249" stroke="black" stroke-width="3.152769"/>
<line x1="471.377402" y1="608.597249" x2="645.384648" y2="671.930705" stroke="black" stroke-width="3.152769"/>
<line x1="645.870007" y1="671.704378" x2="408.17346" y2="782.248646" stroke="black" stroke-width="3.152769"/>
<line x1="471.733245" y1="608.726762" x2="582.310222" y2="845.226263" stroke="black" stroke-width="3.152769"/>
<line x1="1685.530586" y1="805.065467" x2="1894.618597" y2="805.065467" stroke="black" stroke-width="3.152769"/>
<line x1="1894.618597" y1="805.065467" x2="1894.618597" y2="573.167855" stroke="black" stroke-width="3.152769"/>
<line x1="1894.618597" y1="573.167855" x2="1685.530586" y2="573.167855" stroke="black" stroke-width="3.152769"/>
<line x1="1685.530586" y1="573.167855" x2="1685.530586" y2="805.065467" stroke="black" stroke-width="3.152769"/>
<line x1="1685.530586" y1="772.751865" x2="1894.618597" y2="772.751865" stroke="black" stroke-width="3.152769"/>
<line x1="752.227312" y1="1160.461713" x2="948.705771" y2="1088.949404" stroke="black" stroke-width="3.152769"/>
<line x1="948.705771" y1="1088.949404" x2="869.392115" y2="871.036929" stroke="black" stroke-width="3.152769"/>
<line x1="869.392115" y1="871.036929" x2="672.913656" y2="942.549238" stroke="black" stroke-width="3.152769"/>
<line x1="672.913656" y1="942.549238" x2="752.227312" y2="1160.461713" stroke="black" stroke-width="3.152769"/>
<line x1="741.175405" y1="1130.096858" x2="937.653867" y2="1058.584552" stroke="black" stroke-width="3.152769"/>
<line x1="1802.163756" y1="1353.850839" x2="1802.163756" y2="1201.035281" stroke="black" stroke-width="3.152769"/>
<line x1="1802.163756" y1="1201.035281" x2="1955.292465" y2="1201.035281" stroke="black" stroke-width="3.152769"/>
<line x1="1955.292465" y1="1201.035281" x2="1955.292465" y2="1353.850839" stroke="black" stroke-width="3.152769"/>
<line x1="1955.292465" y1="1353.850839" x2="1802.163756" y2="1353.850839" stroke="black" stroke-width="3.152769"/>
<line x1="1801.850611" y1="1354.163987" x2="1955.292465" y2="1201.035281" stroke="black" stroke-width="3.152769"/>
<line x1="1954.979317" y1="1353.850839" x2="1802.163756" y2="1201.348426" stroke="black" stroke-width="3.152769"/>
<line x1="289.987275" y1="574.69268" x2="99.907265" y2="574.69268" stroke="black" stroke-width="3.152769"/>
<line x1="99.907265" y1="574.69268" x2="99.907265" y2="1038.487904" stroke="black" stroke-width="3.152769"/>
<line x1="99.907265" y1="1038.487904" x2="289.987275" y2="1038.487904" stroke="black" stroke-width="3.152769"/>
<line x1="289.987275" y1="1038.487904" x2="289.987275" y2="1014.727903" stroke="black" stroke-width="3.152769"/>
<line x1="289.987275" y1="1014.727903" x2="122.716867" y2="1014.727903" stroke="black" stroke-width="3.152769"/>
<line x1="122.716867" y1="1014.727903" x2="122.716867" y2="599.403082" stroke="black" stroke-width="3.152769"/>
<line x1="122.716867" y1="599.403082" x2="289.987275" y2="599.403082" stroke="black" stroke-width="3.152769"/>
<line x1="289.987275" y1="599.403082" x2="289.987275" y2="574.69268" stroke="black" stroke-width="3.152769"/>
<line x1="284.284875" y1="599.403082" x2="284.284875" y2="1014.727903" stroke="black" stroke-width="3.152769"/>
<line x1="285.235275" y1="806.590292" x2="123.667267" y2="806.590292" stroke="black" stroke-width="3.152769"/>
<line x1="978.113424" y1="492.176103" x2="879.952552" y2="307.562347" stroke="black" stroke-width="3.152769"/>
<line x1="879.952552" y1="307.562347" x2="675.199115" y2="416.431684" stroke="black" stroke-width="3.152769"/>
<line x1="675.199115" y1="416.431684" x2="773.359987" y2="601.04544" stroke="black" stroke-width="3.152769"/>
<line x1="773.359987" y1="601.04544" x2="978.113424" y2="492.176103" stroke="black" stroke-width="3.152769"/>
<line x1="949.58221" y1="507.346419" x2="851.421333" y2="322.732666" stroke="black" stroke-width="3.152769"/>
<line x1="1682.278832" y1="90.141143" x2="1954.942151" y2="90.141143" stroke="black" stroke-width="3.152769"/>
<line x1="1954.942151" y1="90.141143" x2="1954.942151" y2="223.120384" stroke="black" stroke-width="3.152769"/>
<line x1="1682.278832" y1="223.120384" x2="1954.942151" y2="223.120384" stroke="black" stroke-width="3.152769"/>
<line x1="1682.278832" y1="90.141143" x2="1682.278832" y2="223.120384" stroke="black" stroke-width="3.152769"/>
<line x1="1688.983667" y1="96.845981" x2="1828.109007" y2="96.845981" stroke="black" stroke-width="3.152769"/>
<line x1="1828.109007" y1="96.845981" x2="1828.109007" y2="215.856815" stroke="black" stroke-width="3.152769"/>
<line x1="1688.983667" y1="215.856815" x2="1828.109007" y2="215.856815" stroke="black" stroke-width="3.152769"/>
<line x1="1688.983667" y1="96.845981" x2="1688.983667" y2="215.856815" stroke="black" stroke-width="3.152769"/>
<line x1="1842.636152" y1="104.668288" x2="1940.415006" y2="104.668288" stroke="black" stroke-width="3.152769"/>
<line x1="1842.636152" y1="125.34153" x2="1940.415006" y2="125.34153" stroke="black" stroke-width="3.152769"/>
<line x1="1843.194887" y1="146.57351" x2="1940.973741" y2="146.57351" stroke="black" stroke-width="3.152769"/>
<line x1="1843.194887" y1="167.246755" x2="1940.973741" y2="167.246755" stroke="black" stroke-width="3.152769"/>
<line x1="1842.636152" y1="187.919997" x2="1940.415006" y2="187.919997" stroke="black" stroke-width="3.152769"/>
<line x1="1842.636152" y1="208.593242" x2="1940.415006" y2="208.593242" stroke="black" stroke-width="3.152769"/>
<line x1="1742.063616" y1="215.856815" x2="1742.063616" y2="201.888404" stroke="black" stroke-width="3.152769"/>
<line x1="1742.063616" y1="201.888404" x2="1776.705268" y2="201.888404" stroke="black" stroke-width="3.152769"/>
<line x1="1776.705268" y1="201.888404" x2="1776.705268" y2="215.298077" stroke="black" stroke-width="3.152769"/>
<circle cx="1812.46439" cy="111.931861" r="8.381044614070067" fill="none" stroke="black" stroke-width="3.152769"/>
<line x1="99.078858" y1="1445.010549" x2="298.91459" y2="1445.010549" stroke="black" stroke-width="3.152769"/>
<line x1="298.91459" y1="1445.010549" x2="298.91459" y2="1645.255782" stroke="black" stroke-width="3.152769"/>
<line x1="298.91459" y1="1645.255782" x2="99.078858" y2="1645.255782" stroke="black" stroke-width="3.152769"/>
<line x1="99.078858" y1="1645.255782" x2="99.078858" y2="1445.010549" stroke="black" stroke-width="3.152769"/>
<line x1="98.66936" y1="1444.601052" x2="298.91459" y2="1645.255782" stroke="black" stroke-width="3.152769"/>
<line x1="99.078858" y1="1644.846281" x2="298.505092" y2="1445.010549" stroke="black" stroke-width="3.152769"/>
<line x1="503.17147" y1="1645.448363" x2="503.17147" y2="1475.194252" stroke="black" stroke-width="3.152769"/>
<line x1="503.17147" y1="1475.194252" x2="314.344182" y2="1475.194252" stroke="black" stroke-width="3.152769"/>
<line x1="314.344182" y1="1475.194252" x2="314.344182" y2="1645.448363" stroke="black" stroke-width="3.152769"/>
<line x1="314.344182" y1="1645.448363" x2="503.17147" y2="1645.448363" stroke="black" stroke-width="3.152769"/>
<line x1="476.859471" y1="1645.448363" x2="476.859471" y2="1475.194252" stroke="black" stroke-width="3.152769"/>
<line x1="1408.397825" y1="90.501744" x2="1681.061144" y2="90.501744" stroke="black" stroke-width="3.152769"/>
<line x1="1681.061144" y1="90.501744" x2="1681.061144" y2="223.480985" stroke="black" stroke-width="3.152769"/>
<line x1="1408.397825" y1="223.480985" x2="1681.061144" y2="223.480985" stroke="black" stroke-width="3.152769"/>
<line x1="1408.397825" y1="90.501744" x2="1408.397825" y2="223.480985" stroke="black" stroke-width="3.152769"/>
<line x1="1415.10266" y1="97.206582" x2="1554.228" y2="97.206582" stroke="black" stroke-width="3.152769"/>
<line x1="1554.228" y1="97.206582" x2="1554.228" y2="216.217415" stroke="black" stroke-width="3.152769"/>
<line x1="1415.10266" y1="216.217415" x2="1554.228" y2="216.217415" stroke="black" stroke-width="3.152769"/>
<line x1="1415.10266" y1="97.206582" x2="1415.10266" y2="216.217415" stroke="black" stroke-width="3.152769"/>
<line x1="1568.755145" y1="105.028889" x2="1666.533999" y2="105.028889" stroke="black" stroke-width="3.152769"/>
<line x1="1568.755145" y1="125.702131" x2="1666.533999" y2="125.702131" stroke="black" stroke-width="3.152769"/>
<line x1="1569.31388" y1="146.934111" x2="1667.092734" y2="146.934111" stroke="black" stroke-width="3.152769"/>
<line x1="1569.31388" y1="167.607356" x2="1667.092734" y2="167.607356" stroke="black" stroke-width="3.152769"/>
<line x1="1568.755145" y1="188.280598" x2="1666.533999" y2="188.280598" stroke="black" stroke-width="3.152769"/>
<line x1="1568.755145" y1="208.953843" x2="1666.533999" y2="208.953843" stroke="black" stroke-width="3.152769"/>
<line x1="1468.182609" y1="216.217415" x2="1468.182609" y2="202.249005" stroke="black" stroke-width="3.152769"/>
<line x1="1468.182609" y1="202.249005" x2="1502.824261" y2="202.249005" stroke="black" stroke-width="3.152769"/>
<line x1="1502.824261" y1="202.249005" x2="1502.824261" y2="215.658677" stroke="black" stroke-width="3.152769"/>
<circle cx="1538.583383" cy="112.292462" r="8.381044614070067" fill="none" stroke="black" stroke-width="3.152769"/>
</g>
</svg>
