<?xml version="1.0"?>
<svg xmlns:xlink="http://www.w3.org/1999/xlink" width="2056.15395" height="1836.830862">
<image x="0" y="0" width="2056.15395" height="1836.830862" xlink:href="groundempty-02.png"/>
<g style="stroke-linecap:round">
<line x1="903.107085" y1="84.021965" x2="1107.328767" y2="84.021965" stroke="black" stroke-width="3.152769"/>
<line x1="1107.328767" y1="84.021965" x2="1107.328767" y2="47.494509" stroke="black" stroke-width="3.152769"/>
<line x1="1107.328767" y1="47.494509" x2="903.107085" y2="47.494509" stroke="black" stroke-width="3.152769"/>
<line x1="903.107085" y1="47.494509" x2="903.107085" y2="84.021965" stroke="black" stroke-width="3.152769"/>
<line x1="912.654033" y1="84.021965" x2="912.654033" y2="96.474509" stroke="black" stroke-width="3.152769"/>
<line x1="912.654033" y1="96.474509" x2="1097.366734" y2="96.474509" stroke="black" stroke-width="3.152769"/>
<line x1="1097.366734" y1="84.021965" x2="1097.366734" y2="96.474509" stroke="black" stroke-width="3.152769"/>
<line x1="1518.832187" y1="1658.094444" x2="1314.59759" y2="1658.094444" stroke="black" stroke-width="3.152769"/>
<line x1="1314.59759" y1="1658.094444" x2="1314.59759" y2="1689.578885" stroke="black" stroke-width="3.152769"/>
<line x1="1314.59759" y1="1689.578885" x2="1518.832187" y2="1689.578885" stroke="black" stroke-width="3.152769"/>
<line x1="1518.832187" y1="1689.578885" x2="1518.832187" y2="1658.094444" stroke="black" stroke-width="3.152769"/>
<line x1="1499.775814" y1="1689.164614" x2="1499.775814" y2="1658.508711" stroke="black" stroke-width="3.152769"/>
<line x1="1334.068228" y1="1689.164614" x2="1334.068228" y2="1657.265905" stroke="black" stroke-width="3.152769"/>
<line x1="1500.190084" y1="1674.665201" x2="1334.482499" y2="1674.665201" stroke="black" stroke-width="3.152769"/>
<line x1="756.247358" y1="1494.233918" x2="768.38411" y2="1494.233918" stroke="black" stroke-width="3.152769"/>
<line x1="768.38411" y1="1494.233918" x2="768.38411" y2="1688.421944" stroke="black" stroke-width="3.152769"/>
<line x1="756.247358" y1="1688.421944" x2="768.38411" y2="1688.421944" stroke="black" stroke-width="3.152769"/>
<line x1="756.247358" y1="1494.233918" x2="756.247358" y2="1688.421944" stroke="black" stroke-width="3.152769"/>
<line x1="1131.677541" y1="1494.233918" x2="1144.623409" y2="1494.233918" stroke="black" stroke-width="3.152769"/>
<line x1="1144.623409" y1="1494.233918" x2="1144.623409" y2="1688.421944" stroke="black" stroke-width="3.152769"/>
<line x1="1131.677541" y1="1688.421944" x2="1144.623409" y2="1688.421944" stroke="black" stroke-width="3.152769"/>
<line x1="1131.677541" y1="1494.233918" x2="1131.677541" y2="1688.421944" stroke="black" stroke-width="3.152769"/>
<path d="m 756.247358,1494.233918 a 194.18802550000004,194.18802550000004 0 0 1 194.18802500000004,194.18802600000004" fill="none" stroke="black" stroke-width="3.152769"/>
<path d="m 950.435383,1688.421944 a 194.18802600000004,194.18802600000004 0 0 1 194.18802600000004,-194.18802600000004" fill="none" stroke="black" stroke-width="3.152769"/>
<line x1="1963.581443" y1="319.022143" x2="1963.581443" y2="523.243825" stroke="black" stroke-width="3.152769"/>
<line x1="1963.581443" y1="523.243825" x2="2000.108899" y2="523.243825" stroke="black" stroke-width="3.152769"/>
<line x1="2000.108899" y1="523.243825" x2="2000.108899" y2="319.022143" stroke="black" stroke-width="3.152769"/>
<line x1="2000.108899" y1="319.022143" x2="1963.581443" y2="319.022143" stroke="black" stroke-width="3.152769"/>
<line x1="1963.581443" y1="328.569091" x2="1951.128899" y2="328.569091" stroke="black" stroke-width="3.152769"/>
<line x1="1951.128899" y1="328.569091" x2="1951.128899" y2="513.281792" stroke="black" stroke-width="3.152769"/>
<line x1="1963.581443" y1="513.281792" x2="1951.128899" y2="513.281792" stroke="black" stroke-width="3.152769"/>
<line x1="1259.768079" y1="1163.185118" x2="1259.768079" y2="1147.448939" stroke="black" stroke-width="3.152769"/>
<line x1="1259.768079" y1="1147.448939" x2="1229.063337" y2="1147.448939" stroke="black" stroke-width="3.152769"/>
<line x1="1229.063337" y1="1147.448939" x2="1229.063337" y2="1163.185118" stroke="black" stroke-width="3.152769"/>
<line x1="1229.063337" y1="1163.185118" x2="1259.768079" y2="1163.185118" stroke="black" stroke-width="3.152769"/>
<line x1="1229.063337" y1="993.54142" x2="1075.92344" y2="993.54142" stroke="black" stroke-width="3.152769"/>
<line x1="1260.535697" y1="993.157611" x2="1260.535697" y2="977.421432" stroke="black" stroke-width="3.152769"/>
<line x1="1260.535697" y1="977.421432" x2="1229.830956" y2="977.421432" stroke="black" stroke-width="3.152769"/>
<line x1="1229.830956" y1="977.421432" x2="1229.830956" y2="993.157611" stroke="black" stroke-width="3.152769"/>
<line x1="1229.830956" y1="993.157611" x2="1260.535697" y2="993.157611" stroke="black" stroke-width="3.152769"/>
<path d="m 1230.214765,1147.448939 a 153.90751750000004,153.90751750000004 0 0 1 -153.907516,-153.9075190000001" fill="none" stroke="black" stroke-width="3.152769"/>
<line x1="669.120947" y1="1207.640357" x2="653.329295" y2="1207.640357" stroke="black" stroke-width="3.152769"/>
<line x1="653.329295" y1="1207.640357" x2="653.329295" y2="1238.453338" stroke="black" stroke-width="3.152769"/>
<line x1="653.329295" y1="1238.453338" x2="669.120947" y2="1238.453338" stroke="black" stroke-width="3.152769"/>
<line x1="669.120947" y1="1238.453338" x2="669.120947" y2="1207.640357" stroke="black" stroke-width="3.152769"/>
<line x1="498.879229" y1="1238.453338" x2="498.879229" y2="1392.133078" stroke="black" stroke-width="3.152769"/>
<line x1="498.494067" y1="1206.870034" x2="482.702415" y2="1206.870034" stroke="black" stroke-width="3.152769"/>
<line x1="482.702415" y1="1206.870034" x2="482.702415" y2="1237.683015" stroke="black" stroke-width="3.152769"/>
<line x1="482.702415" y1="1237.683015" x2="498.494067" y2="1237.683015" stroke="black" stroke-width="3.152769"/>
<line x1="498.494067" y1="1237.683015" x2="498.494067" y2="1206.870034" stroke="black" stroke-width="3.152769"/>
<path d="m 653.329295,1237.297853 a 154.4500645,154.4500645 0 0 1 -154.450066,154.450063" fill="none" stroke="black" stroke-width="3.152769"/>
<line x1="1907.132423" y1="1645.512993" x2="1907.132423" y2="1461.768984" stroke="black" stroke-width="3.152769"/>
<line x1="1907.132423" y1="1461.768984" x2="1956.236425" y2="1461.768984" stroke="black" stroke-width="3.152769"/>
<line x1="1956.236425" y1="1645.512993" x2="1956.236425" y2="1461.768984" stroke="black" stroke-width="3.152769"/>
<line x1="1907.132423" y1="1645.512993" x2="1956.236425" y2="1645.512993" stroke="black" stroke-width="3.152769"/>
<line x1="1879.412421" y1="1603.932991" x2="1907.132423" y2="1603.932991" stroke="black" stroke-width="3.152769"/>
<line x1="1907.132423" y1="1504.932986" x2="1877.828421" y2="1504.932986" stroke="black" stroke-width="3.152769"/>
<circle cx="1834.268419" cy="1555.224988" r="66.52800336000001" fill="none" stroke="black" stroke-width="3.152769"/>
<circle cx="1834.268419" cy="1555.224988" r="57.024002880000005" fill="none" stroke="black" stroke-width="3.152769"/>
<line x1="1392.240613" y1="1355.444096" x2="1392.240613" y2="1625.99131" stroke="black" stroke-width="3.152769"/>
<line x1="1392.240613" y1="1625.99131" x2="1260.293406" y2="1625.99131" stroke="black" stroke-width="3.152769"/>
<line x1="1260.293406" y1="1355.444096" x2="1260.293406" y2="1625.99131" stroke="black" stroke-width="3.152769"/>
<line x1="1392.240613" y1="1355.444096" x2="1260.293406" y2="1355.444096" stroke="black" stroke-width="3.152769"/>
<line x1="1385.587813" y1="1362.096897" x2="1385.587813" y2="1500.142503" stroke="black" stroke-width="3.152769"/>
<line x1="1385.587813" y1="1500.142503" x2="1267.500607" y2="1500.142503" stroke="black" stroke-width="3.152769"/>
<line x1="1267.500607" y1="1362.096897" x2="1267.500607" y2="1500.142503" stroke="black" stroke-width="3.152769"/>
<line x1="1385.587813" y1="1362.096897" x2="1267.500607" y2="1362.096897" stroke="black" stroke-width="3.152769"/>
<line x1="1377.826212" y1="1514.556904" x2="1377.826212" y2="1611.576909" stroke="black" stroke-width="3.152769"/>
<line x1="1357.313411" y1="1514.556904" x2="1357.313411" y2="1611.576909" stroke="black" stroke-width="3.152769"/>
<line x1="1336.24621" y1="1515.111304" x2="1336.24621" y2="1612.131309" stroke="black" stroke-width="3.152769"/>
<line x1="1315.733409" y1="1515.111304" x2="1315.733409" y2="1612.131309" stroke="black" stroke-width="3.152769"/>
<line x1="1295.220608" y1="1514.556904" x2="1295.220608" y2="1611.576909" stroke="black" stroke-width="3.152769"/>
<line x1="1274.707807" y1="1514.556904" x2="1274.707807" y2="1611.576909" stroke="black" stroke-width="3.152769"/>
<line x1="1267.500607" y1="1414.764899" x2="1281.360607" y2="1414.764899" stroke="black" stroke-width="3.152769"/>
<line x1="1281.360607" y1="1414.764899" x2="1281.360607" y2="1449.137701" stroke="black" stroke-width="3.152769"/>
<line x1="1281.360607" y1="1449.137701" x2="1268.055007" y2="1449.137701" stroke="black" stroke-width="3.152769"/>
<circle cx="1370.619012" cy="1484.619303" r="8.316000420000002" fill="none" stroke="black" stroke-width="3.152769"/>
<line x1="1903.11326" y1="959.265243" x2="1511.86524" y2="959.265243" stroke="black" stroke-width="3.152769"/>
<line x1="1511.86524" y1="959.265243" x2="1511.86524" y2="1133.505251" stroke="black" stroke-width="3.152769"/>
<line x1="1511.86524" y1="1133.505251" x2="1903.11326" y2="1133.505251" stroke="black" stroke-width="3.152769"/>
<line x1="1903.11326" y1="1133.505251" x2="1903.11326" y2="959.265243" stroke="black" stroke-width="3.152769"/>
<line x1="1587.105244" y1="1106.57725" x2="1871.433258" y2="1106.57725" stroke="black" stroke-width="3.152769"/>
<line x1="1871.433258" y1="1106.57725" x2="1871.433258" y2="988.569244" stroke="black" stroke-width="3.152769"/>
<line x1="1871.433258" y1="988.569244" x2="1581.561244" y2="988.569244" stroke="black" stroke-width="3.152769"/>
<path d="m 1587.915817,1106.832673 a 63.36000251443593,63.36000251443593 0 0 1 -4.293813,-119.37433700000008" fill="none" stroke="black" stroke-width="3.152769"/>
<line x1="1499.258031" y1="932.484041" x2="1499.258031" y2="539.652022" stroke="black" stroke-width="3.152769"/>
<line x1="1499.258031" y1="539.652022" x2="1314.722022" y2="539.652022" stroke="black" stroke-width="3.152769"/>
<line x1="1314.722022" y1="539.652022" x2="1314.722022" y2="932.484041" stroke="black" stroke-width="3.152769"/>
<line x1="1314.722022" y1="932.484041" x2="1499.258031" y2="932.484041" stroke="black" stroke-width="3.152769"/>
<line x1="1314.722022" y1="773.292033" x2="1233.938018" y2="773.292033" stroke="black" stroke-width="3.152769"/>
<line x1="1233.938018" y1="773.292033" x2="1233.938018" y2="851.700037" stroke="black" stroke-width="3.152769"/>
<line x1="1233.938018" y1="851.700037" x2="1314.722022" y2="851.700037" stroke="black" stroke-width="3.152769"/>
<line x1="1251.362019" y1="850.908037" x2="1251.362019" y2="773.292033" stroke="black" stroke-width="3.152769"/>
<line x1="1580.834035" y1="851.700037" x2="1580.834035" y2="773.292033" stroke="black" stroke-width="3.152769"/>
<line x1="1580.834035" y1="773.292033" x2="1499.258031" y2="773.292033" stroke="black" stroke-width="3.152769"/>
<line x1="1499.258031" y1="851.700037" x2="1580.834035" y2="851.700037" stroke="black" stroke-width="3.152769"/>
<line x1="1563.410035" y1="850.908037" x2="1563.410035" y2="773.292033" stroke="black" stroke-width="3.152769"/>
<line x1="1314.722022" y1="622.020026" x2="1233.938018" y2="622.020026" stroke="black" stroke-width="3.152769"/>
<line x1="1233.938018" y1="622.020026" x2="1233.938018" y2="700.42803" stroke="black" stroke-width="3.152769"/>
<line x1="1233.938018" y1="700.42803" x2="1314.722022" y2="700.42803" stroke="black" stroke-width="3.152769"/>
<line x1="1251.362019" y1="700.42803" x2="1251.362019" y2="622.020026" stroke="black" stroke-width="3.152769"/>
<line x1="1580.834035" y1="700.42803" x2="1580.834035" y2="622.020026" stroke="black" stroke-width="3.152769"/>
<line x1="1580.834035" y1="622.020026" x2="1499.258031" y2="622.020026" stroke="black" stroke-width="3.152769"/>
<line x1="1499.258031" y1="700.42803" x2="1580.834035" y2="700.42803" stroke="black" stroke-width="3.152769"/>
<line x1="1563.410035" y1="700.42803" x2="1563.410035" y2="622.020026" stroke="black" stroke-width="3.152769"/>
<line x1="1231.897555" y1="90.941932" x2="1408.223201" y2="90.941932" stroke="black" stroke-width="3.152769"/>
<line x1="1408.223201" y1="90.941932" x2="1408.223201" y2="267.628901" stroke="black" stroke-width="3.152769"/>
<line x1="1408.223201" y1="267.628901" x2="1231.897555" y2="267.628901" stroke="black" stroke-width="3.152769"/>
<line x1="1231.897555" y1="267.628901" x2="1231.897555" y2="90.941932" stroke="black" stroke-width="3.152769"/>
<line x1="1231.536232" y1="90.580609" x2="1408.223201" y2="267.628901" stroke="black" stroke-width="3.152769"/>
<line x1="1231.897555" y1="267.267578" x2="1407.861879" y2="90.941932" stroke="black" stroke-width="3.152769"/>
<line x1="99.627833" y1="421.28499" x2="308.993043" y2="421.28499" stroke="black" stroke-width="3.152769"/>
<line x1="308.993043" y1="421.28499" x2="308.993043" y2="90.070576" stroke="black" stroke-width="3.152769"/>
<line x1="308.993043" y1="90.070576" x2="99.627833" y2="90.070576" stroke="black" stroke-width="3.152769"/>
<line x1="99.627833" y1="90.070576" x2="99.627833" y2="421.28499" stroke="black" stroke-width="3.152769"/>
<line x1="98.954633" y1="149.312176" x2="309.666243" y2="149.312176" stroke="black" stroke-width="3.152769"/>
<line x1="309.666243" y1="149.312176" x2="100.301033" y2="199.128979" stroke="black" stroke-width="3.152769"/>
<line x1="100.301033" y1="199.128979" x2="131.941437" y2="245.579781" stroke="black" stroke-width="3.152769"/>
<line x1="131.941437" y1="245.579781" x2="309.666243" y2="148.638979" stroke="black" stroke-width="3.152769"/>
<line x1="290.204396" y1="602.48387" x2="100.124386" y2="602.48387" stroke="black" stroke-width="3.152769"/>
<line x1="100.124386" y1="602.48387" x2="100.124386" y2="1066.279094" stroke="black" stroke-width="3.152769"/>
<line x1="100.124386" y1="1066.279094" x2="290.204396" y2="1066.279094" stroke="black" stroke-width="3.152769"/>
<line x1="290.204396" y1="1066.279094" x2="290.204396" y2="1042.519093" stroke="black" stroke-width="3.152769"/>
<line x1="290.204396" y1="1042.519093" x2="122.933987" y2="1042.519093" stroke="black" stroke-width="3.152769"/>
<line x1="122.933987" y1="1042.519093" x2="122.933987" y2="627.194272" stroke="black" stroke-width="3.152769"/>
<line x1="122.933987" y1="627.194272" x2="290.204396" y2="627.194272" stroke="black" stroke-width="3.152769"/>
<line x1="290.204396" y1="627.194272" x2="290.204396" y2="602.48387" stroke="black" stroke-width="3.152769"/>
<line x1="284.501995" y1="627.194272" x2="284.501995" y2="1042.519093" stroke="black" stroke-width="3.152769"/>
<line x1="285.452395" y1="834.381482" x2="123.884387" y2="834.381482" stroke="black" stroke-width="3.152769"/>
<line x1="645.381413" y1="782.542831" x2="471.568582" y2="845.805531" stroke="black" stroke-width="3.152769"/>
<line x1="471.568582" y1="845.805531" x2="408.176247" y2="671.636525" stroke="black" stroke-width="3.152769"/>
<line x1="408.176247" y1="671.636525" x2="581.989081" y2="608.373825" stroke="black" stroke-width="3.152769"/>
<line x1="581.989081" y1="608.373825" x2="645.381413" y2="782.542831" stroke="black" stroke-width="3.152769"/>
<line x1="645.867223" y1="782.769371" x2="408.176247" y2="671.636525" stroke="black" stroke-width="3.152769"/>
<line x1="582.118717" y1="608.73" x2="471.924754" y2="845.675893" stroke="black" stroke-width="3.152769"/>
<line x1="1685.530586" y1="870.070134" x2="1894.618597" y2="870.070134" stroke="black" stroke-width="3.152769"/>
<line x1="1894.618597" y1="870.070134" x2="1894.618597" y2="638.172522" stroke="black" stroke-width="3.152769"/>
<line x1="1894.618597" y1="638.172522" x2="1685.530586" y2="638.172522" stroke="black" stroke-width="3.152769"/>
<line x1="1685.530586" y1="638.172522" x2="1685.530586" y2="870.070134" stroke="black" stroke-width="3.152769"/>
<line x1="1685.530586" y1="837.756532" x2="1894.618597" y2="837.756532" stroke="black" stroke-width="3.152769"/>
<line x1="853.739998" y1="1165.851173" x2="964.539765" y2="988.534481" stroke="black" stroke-width="3.152769"/>
<line x1="964.539765" y1="988.534481" x2="767.879432" y2="865.647469" stroke="black" stroke-width="3.152769"/>
<line x1="767.879432" y1="865.647469" x2="657.079668" y2="1042.964163" stroke="black" stroke-width="3.152769"/>
<line x1="657.079668" y1="1042.964163" x2="853.739998" y2="1165.851173" stroke="black" stroke-width="3.152769"/>
<line x1="826.33651" y1="1148.727574" x2="937.136274" y2="971.410883" stroke="black" stroke-width="3.152769"/>
<line x1="956.026383" y1="541.693527" x2="926.926955" y2="334.640347" stroke="black" stroke-width="3.152769"/>
<line x1="926.926955" y1="334.640347" x2="697.286156" y2="366.914257" stroke="black" stroke-width="3.152769"/>
<line x1="697.286156" y1="366.914257" x2="726.385578" y2="573.967437" stroke="black" stroke-width="3.152769"/>
<line x1="726.385578" y1="573.967437" x2="956.026383" y2="541.693527" stroke="black" stroke-width="3.152769"/>
<line x1="924.027254" y1="546.190707" x2="894.927826" y2="339.137527" stroke="black" stroke-width="3.152769"/>
<line x1="1802.071254" y1="1341.362911" x2="1802.071254" y2="1188.547353" stroke="black" stroke-width="3.152769"/>
<line x1="1802.071254" y1="1188.547353" x2="1955.199962" y2="1188.547353" stroke="black" stroke-width="3.152769"/>
<line x1="1955.199962" y1="1188.547353" x2="1955.199962" y2="1341.362911" stroke="black" stroke-width="3.152769"/>
<line x1="1955.199962" y1="1341.362911" x2="1802.071254" y2="1341.362911" stroke="black" stroke-width="3.152769"/>
<line x1="1801.758109" y1="1341.676059" x2="1955.199962" y2="1188.547353" stroke="black" stroke-width="3.152769"/>
<line x1="1954.886814" y1="1341.362911" x2="1802.071254" y2="1188.860498" stroke="black" stroke-width="3.152769"/>
<line x1="1682.278832" y1="90.141143" x2="1954.942151" y2="90.141143" stroke="black" stroke-width="3.152769"/>
<line x1="1954.942151" y1="90.141143" x2="1954.942151" y2="223.120384" stroke="black" stroke-width="3.152769"/>
<line x1="1682.278832" y1="223.120384" x2="1954.942151" y2="223.120384" stroke="black" stroke-width="3.152769"/>
<line x1="1682.278832" y1="90.141143" x2="1682.278832" y2="223.120384" stroke="black" stroke-width="3.152769"/>
<line x1="1688.983667" y1="96.845981" x2="1828.109007" y2="96.845981" stroke="black" stroke-width="3.152769"/>
<line x1="1828.109007" y1="96.845981" x2="1828.109007" y2="215.856815" stroke="black" stroke-width="3.152769"/>
<line x1="1688.983667" y1="215.856815" x2="1828.109007" y2="215.856815" stroke="black" stroke-width="3.152769"/>
<line x1="1688.983667" y1="96.845981" x2="1688.983667" y2="215.856815" stroke="black" stroke-width="3.152769"/>
<line x1="1842.636152" y1="104.668288" x2="1940.415006" y2="104.668288" stroke="black" stroke-width="3.152769"/>
<line x1="1842.636152" y1="125.34153" x2="1940.415006" y2="125.34153" stroke="black" stroke-width="3.152769"/>
<line x1="1843.194887" y1="146.57351" x2="1940.973741" y2="146.57351" stroke="black" stroke-width="3.152769"/>
<line x1="1843.194887" y1="167.246755" x2="1940.973741" y2="167.246755" stroke="black" stroke-width="3.152769"/>
<line x1="1842.636152" y1="187.919997" x2="1940.415006" y2="187.919997" stroke="black" stroke-width="3.152769"/>
<line x1="1842.636152" y1="208.593242" x2="1940.415006" y2="208.593242" stroke="black" stroke-width="3.152769"/>
<line x1="1742.063616" y1="215.856815" x2="1742.063616" y2="201.888404" stroke="black" stroke-width="3.152769"/>
<line x1="1742.063616" y1="201.888404" x2="1776.705268" y2="201.888404" stroke="black" stroke-width="3.152769"/>
<line x1="1776.705268" y1="201.888404" x2="1776.705268" y2="215.298077" stroke="black" stroke-width="3.152769"/>
<circle cx="1812.46439" cy="111.931861" r="8.381044614070067" fill="none" stroke="black" stroke-width="3.152769"/>
<line x1="99.078858" y1="1445.010549" x2="298.91459" y2="1445.010549" stroke="black" stroke-width="3.152769"/>
<line x1="298.91459" y1="1445.010549" x2="298.91459" y2="1645.255782" stroke="black" stroke-width="3.152769"/>
<line x1="298.91459" y1="1645.255782" x2="99.078858" y2="1645.255782" stroke="black" stroke-width="3.152769"/>
<line x1="99.078858" y1="1645.255782" x2="99.078858" y2="1445.010549" stroke="black" stroke-width="3.152769"/>
<line x1="98.66936" y1="1444.601052" x2="298.91459" y2="1645.255782" stroke="black" stroke-width="3.152769"/>
<line x1="99.078858" y1="1644.846281" x2="298.505092" y2="1445.010549" stroke="black" stroke-width="3.152769"/>
<line x1="503.17147" y1="1645.448363" x2="503.17147" y2="1475.194252" stroke="black" stroke-width="3.152769"/>
<line x1="503.17147" y1="1475.194252" x2="314.344182" y2="1475.194252" stroke="black" stroke-width="3.152769"/>
<line x1="314.344182" y1="1475.194252" x2="314.344182" y2="1645.448363" stroke="black" stroke-width="3.152769"/>
<line x1="314.344182" y1="1645.448363" x2="503.17147" y2="1645.448363" stroke="black" stroke-width="3.152769"/>
<line x1="476.859471" y1="1645.448363" x2="476.859471" y2="1475.194252" stroke="black" stroke-width="3.152769"/>
<line x1="1408.397825" y1="90.501744" x2="1681.061144" y2="90.501744" stroke="black" stroke-width="3.152769"/>
<line x1="1681.061144" y1="90.501744" x2="1681.061144" y2="223.480985" stroke="black" stroke-width="3.152769"/>
<line x1="1408.397825" y1="223.480985" x2="1681.061144" y2="223.480985" stroke="black" stroke-width="3.152769"/>
<line x1="1408.397825" y1="90.501744" x2="1408.397825" y2="223.480985" stroke="black" stroke-width="3.152769"/>
<line x1="1415.10266" y1="97.206582" x2="1554.228" y2="97.206582" stroke="black" stroke-width="3.152769"/>
<line x1="1554.228" y1="97.206582" x2="1554.228" y2="216.217415" stroke="black" stroke-width="3.152769"/>
<line x1="1415.10266" y1="216.217415" x2="1554.228" y2="216.217415" stroke="black" stroke-width="3.152769"/>
<line x1="1415.10266" y1="97.206582" x2="1415.10266" y2="216.217415" stroke="black" stroke-width="3.152769"/>
<line x1="1568.755145" y1="105.028889" x2="1666.533999" y2="105.028889" stroke="black" stroke-width="3.152769"/>
<line x1="1568.755145" y1="125.702131" x2="1666.533999" y2="125.702131" stroke="black" stroke-width="3.152769"/>
<line x1="1569.31388" y1="146.934111" x2="1667.092734" y2="146.934111" stroke="black" stroke-width="3.152769"/>
<line x1="1569.31388" y1="167.607356" x2="1667.092734" y2="167.607356" stroke="black" stroke-width="3.152769"/>
<line x1="1568.755145" y1="188.280598" x2="1666.533999" y2="188.280598" stroke="black" stroke-width="3.152769"/>
<line x1="1568.755145" y1="208.953843" x2="1666.533999" y2="208.953843" stroke="black" stroke-width="3.152769"/>
<line x1="1468.182609" y1="216.217415" x2="1468.182609" y2="202.249005" stroke="black" stroke-width="3.152769"/>
<line x1="1468.182609" y1="202.249005" x2="1502.824261" y2="202.249005" stroke="black" stroke-width="3.152769"/>
<line x1="1502.824261" y1="202.249005" x2="1502.824261" y2="215.658677" stroke="black" stroke-width="3.152769"/>
<circle cx="1538.583383" cy="112.292462" r="8.381044614070067" fill="none" stroke="black" stroke-width="3.152769"/>
</g>
</svg>
