<?xml version="1.0"?>
<svg xmlns:xlink="http://www.w3.org/1999/xlink" width="2056.15395" height="1836.830862">
<image x="0" y="0" width="2056.15395" height="1836.830862" xlink:href="groundempty-02.png"/>
<g style="stroke-linecap:round">
<line x1="903.107085" y1="84.021965" x2="1107.328767" y2="84.021965" stroke="black" stroke-width="3.152769"/>
<line x1="1107.328767" y1="84.021965" x2="1107.328767" y2="47.494509" stroke="black" stroke-width="3.152769"/>
<line x1="1107.328767" y1="47.494509" x2="903.107085" y2="47.494509" stroke="black" stroke-width="3.152769"/>
<line x1="903.107085" y1="47.494509" x2="903.107085" y2="84.021965" stroke="black" stroke-width="3.152769"/>
<line x1="912.654033" y1="84.021965" x2="912.654033" y2="96.474509" stroke="black" stroke-width="3.152769"/>
<line x1="912.654033" y1="96.474509" x2="1097.366734" y2="96.474509" stroke="black" stroke-width="3.152769"/>
<line x1="1097.366734" y1="84.021965" x2="1097.366734" y2="96.474509" stroke="black" stroke-width="3.152769"/>
<line x1="1518.832187" y1="1658.094444" x2="1314.59759" y2="1658.094444" stroke="black" stroke-width="3.152769"/>
<line x1="1314.59759" y1="1658.094444" x2="1314.59759" y2="1689.578885" stroke="black" stroke-width="3.152769"/>
<line x1="1314.59759" y1="1689.578885" x2="1518.832187" y2="1689.578885" stroke="black" stroke-width="3.152769"/>
<line x1="1518.832187" y1="1689.578885" x2="1518.832187" y2="1658.094444" stroke="black" stroke-width="3.152769"/>
<line x1="1499.775814" y1="1689.164614" x2="1499.775814" y2="1658.508711" stroke="black" stroke-width="3.152769"/>
<line x1="1334.068228" y1="1689.164614" x2="1334.068228" y2="1657.265905" stroke="black" stroke-width="3.152769"/>
<line x1="1500.190084" y1="1674.665201" x2="1334.482499" y2="1674.665201" stroke="black" stroke-width="3.152769"/>
<line x1="756.247358" y1="1494.233918" x2="768.38411" y2="1494.233918" stroke="black" stroke-width="3.152769"/>
<line x1="768.38411" y1="1494.233918" x2="768.38411" y2="1688.421944" stroke="black" stroke-width="3.152769"/>
<line x1="756.247358" y1="1688.421944" x2="768.38411" y2="1688.421944" stroke="black" stroke-width="3.152769"/>
<line x1="756.247358" y1="1494.233918" x2="756.247358" y2="1688.421944" stroke="black" stroke-width="3.152769"/>
<line x1="1131.677541" y1="1494.233918" x2="1144.623409" y2="1494.233918" stroke="black" stroke-width="3.152769"/>
<line x1="1144.623409" y1="1494.233918" x2="1144.623409" y2="1688.421944" stroke="black" stroke-width="3.152769"/>
<line x1="1131.677541" y1="1688.421944" x2="1144.623409" y2="1688.421944" stroke="black" stroke-width="3.152769"/>
<line x1="1131.677541" y1="1494.233918" x2="1131.677541" y2="1688.421944" stroke="black" stroke-width="3.152769"/>
<path d="m 756.247358,1494.233918 a 194.18802550000004,194.18802550000004 0 0 1 194.18802500000004,194.18802600000004" fill="none" stroke="black" stroke-width="3.152769"/>
<path d="m 950.435383,1688.421944 a 194.18802600000004,194.18802600000004 0 0 1 194.18802600000004,-194.18802600000004" fill="none" stroke="black" stroke-width="3.152769"/>
<line x1="1963.581443" y1="319.022143" x2="1963.581443" y2="523.243825" stroke="black" stroke-width="3.152769"/>
<line x1="1963.581443" y1="523.243825" x2="2000.108899" y2="523.243825" stroke="black" stroke-width="3.152769"/>
<line x1="2000.108899" y1="523.243825" x2="2000.108899" y2="319.022143" stroke="black" stroke-width="3.152769"/>
<line x1="2000.108899" y1="319.022143" x2="1963.581443" y2="319.022143" stroke="black" stroke-width="3.152769"/>
<line x1="1963.581443" y1="328.569091" x2="1951.128899" y2="328.569091" stroke="black" stroke-width="3.152769"/>
<line x1="1951.128899" y1="328.569091" x2="1951.128899" y2="513.281792" stroke="black" stroke-width="3.152769"/>
<line x1="1963.581443" y1="513.281792" x2="1951.128899" y2="513.281792" stroke="black" stroke-width="3.152769"/>
<line x1="1259.768079" y1="1163.185118" x2="1259.768079" y2="1147.448939" stroke="black" stroke-width="3.152769"/>
<line x1="1259.768079" y1="1147.448939" x2="1229.063337" y2="1147.448939" stroke="black" stroke-width="3.152769"/>
<line x1="1229.063337" y1="1147.448939" x2="1229.063337" y2="1163.185118" stroke="black" stroke-width="3.152769"/>
<line x1="1229.063337" y1="1163.185118" x2="1259.768079" y2="1163.185118" stroke="black" stroke-width="3.152769"/>
<line x1="1229.063337" y1="993.54142" x2="1075.92344" y2="993.54142" stroke="black" stroke-width="3.152769"/>
<line x1="1260.535697" y1="993.157611" x2="1260.535697" y2="977.421432" stroke="black" stroke-width="3.152769"/>
<line x1="1260.535697" y1="977.421432" x2="1229.830956" y2="977.421432" stroke="black" stroke-width="3.152769"/>
<line x1="1229.830956" y1="977.421432" x2="1229.830956" y2="993.157611" stroke="black" stroke-width="3.152769"/>
<line x1="1229.830956" y1="993.157611" x2="1260.535697" y2="993.157611" stroke="black" stroke-width="3.152769"/>
<path d="m 1230.214765,1147.448939 a 153.90751750000004,153.90751750000004 0 0 1 -153.907516,-153.9075190000001" fill="none" stroke="black" stroke-width="3.152769"/>
<line x1="669.120947" y1="1207.640357" x2="653.329295" y2="1207.640357" stroke="black" stroke-width="3.152769"/>
<line x1="653.329295" y1="1207.640357" x2="653.329295" y2="1238.453338" stroke="black" stroke-width="3.152769"/>
<line x1="653.329295" y1="1238.453338" x2="669.120947" y2="1238.453338" stroke="black" stroke-width="3.152769"/>
<line x1="669.120947" y1="1238.453338" x2="669.120947" y2="1207.640357" stroke="black" stroke-width="3.152769"/>
<line x1="498.879229" y1="1238.453338" x2="498.879229" y2="1392.133078" stroke="black" stroke-width="3.152769"/>
<line x1="498.494067" y1="1206.870034" x2="482.702415" y2="1206.870034" stroke="black" stroke-width="3.152769"/>
<line x1="482.702415" y1="1206.870034" x2="482.702415" y2="1237.683015" stroke="black" stroke-width="3.152769"/>
<line x1="482.702415" y1="1237.683015" x2="498.494067" y2="1237.683015" stroke="black" stroke-width="3.152769"/>
<line x1="498.494067" y1="1237.683015" x2="498.494067" y2="1206.870034" stroke="black" stroke-width="3.152769"/>
<path d="m 653.329295,1237.297853 a 154.4500645,154.4500645 0 0 1 -154.450066,154.450063" fill="none" stroke="black" stroke-width="3.152769"/>
<line x1="1907.132423" y1="1645.512993" x2="1907.132423" y2="1461.768984" stroke="black" stroke-width="3.152769"/>
<line x1="1907.132423" y1="1461.768984" x2="1956.236425" y2="1461.768984" stroke="black" stroke-width="3.152769"/>
<line x1="1956.236425" y1="1645.512993" x2="1956.236425" y2="1461.768984" stroke="black" stroke-width="3.152769"/>
<line x1="1907.132423" y1="1645.512993" x2="1956.236425" y2="1645.512993" stroke="black" stroke-width="3.152769"/>
<line x1="1879.412421" y1="1603.932991" x2="1907.132423" y2="1603.932991" stroke="black" stroke-width="3.152769"/>
<line x1="1907.132423" y1="1504.932986" x2="1877.828421" y2="1504.932986" stroke="black" stroke-width="3.152769"/>
<circle cx="1834.268419" cy="1555.224988" r="66.52800336000001" fill="none" stroke="black" stroke-width="3.152769"/>
<circle cx="1834.268419" cy="1555.224988" r="57.024002880000005" fill="none" stroke="black" stroke-width="3.152769"/>
<line x1="1284.845408" y1="1398.845698" x2="1260.293406" y2="1417.457699" stroke="black" stroke-width="3.152769"/>
<line x1="1260.293406" y1="1417.457699" x2="1260.293406" y2="1564.769707" stroke="black" stroke-width="3.152769"/>
<line x1="1260.293406" y1="1564.769707" x2="1288.409408" y2="1583.777708" stroke="black" stroke-width="3.152769"/>
<line x1="1287.617408" y1="1420.625699" x2="1287.617408" y2="1563.581707" stroke="black" stroke-width="3.152769"/>
<circle cx="1309.397409" cy="1489.925703" r="13.068000660000003" fill="none" stroke="black" stroke-width="3.152769"/>
<path d="m 1286.950059,1422.178952 a 74.84400348070997,74.84400348070997 0 1 1 0.4020499999999174,139.60900900000001" fill="none" stroke="black" stroke-width="3.152769"/>
<path d="m 1284.188044,1398.892 a 95.43600379741252,95.43600379741252 0 1 1 3.0749590000000353,184.46700499999997" fill="none" stroke="black" stroke-width="3.152769"/>
<line x1="1903.11326" y1="959.265243" x2="1511.86524" y2="959.265243" stroke="black" stroke-width="3.152769"/>
<line x1="1511.86524" y1="959.265243" x2="1511.86524" y2="1133.505251" stroke="black" stroke-width="3.152769"/>
<line x1="1511.86524" y1="1133.505251" x2="1903.11326" y2="1133.505251" stroke="black" stroke-width="3.152769"/>
<line x1="1903.11326" y1="1133.505251" x2="1903.11326" y2="959.265243" stroke="black" stroke-width="3.152769"/>
<line x1="1587.105244" y1="1106.57725" x2="1871.433258" y2="1106.57725" stroke="black" stroke-width="3.152769"/>
<line x1="1871.433258" y1="1106.57725" x2="1871.433258" y2="988.569244" stroke="black" stroke-width="3.152769"/>
<line x1="1871.433258" y1="988.569244" x2="1581.561244" y2="988.569244" stroke="black" stroke-width="3.152769"/>
<path d="m 1587.915817,1106.832673 a 63.36000251443593,63.36000251443593 0 0 1 -4.293813,-119.37433700000008" fill="none" stroke="black" stroke-width="3.152769"/>
<line x1="1499.258031" y1="932.484041" x2="1499.258031" y2="539.652022" stroke="black" stroke-width="3.152769"/>
<line x1="1499.258031" y1="539.652022" x2="1314.722022" y2="539.652022" stroke="black" stroke-width="3.152769"/>
<line x1="1314.722022" y1="539.652022" x2="1314.722022" y2="932.484041" stroke="black" stroke-width="3.152769"/>
<line x1="1314.722022" y1="932.484041" x2="1499.258031" y2="932.484041" stroke="black" stroke-width="3.152769"/>
<line x1="1314.722022" y1="773.292033" x2="1233.938018" y2="773.292033" stroke="black" stroke-width="3.152769"/>
<line x1="1233.938018" y1="773.292033" x2="1233.938018" y2="851.700037" stroke="black" stroke-width="3.152769"/>
<line x1="1233.938018" y1="851.700037" x2="1314.722022" y2="851.700037" stroke="black" stroke-width="3.152769"/>
<line x1="1251.362019" y1="850.908037" x2="1251.362019" y2="773.292033" stroke="black" stroke-width="3.152769"/>
<line x1="1580.834035" y1="851.700037" x2="1580.834035" y2="773.292033" stroke="black" stroke-width="3.152769"/>
<line x1="1580.834035" y1="773.292033" x2="1499.258031" y2="773.292033" stroke="black" stroke-width="3.152769"/>
<line x1="1499.258031" y1="851.700037" x2="1580.834035" y2="851.700037" stroke="black" stroke-width="3.152769"/>
<line x1="1563.410035" y1="850.908037" x2="1563.410035" y2="773.292033" stroke="black" stroke-width="3.152769"/>
<line x1="1314.722022" y1="622.020026" x2="1233.938018" y2="622.020026" stroke="black" stroke-width="3.152769"/>
<line x1="1233.938018" y1="622.020026" x2="1233.938018" y2="700.42803" stroke="black" stroke-width="3.152769"/>
<line x1="1233.938018" y1="700.42803" x2="1314.722022" y2="700.42803" stroke="black" stroke-width="3.152769"/>
<line x1="1251.362019" y1="700.42803" x2="1251.362019" y2="622.020026" stroke="black" stroke-width="3.152769"/>
<line x1="1580.834035" y1="700.42803" x2="1580.834035" y2="622.020026" stroke="black" stroke-width="3.152769"/>
<line x1="1580.834035" y1="622.020026" x2="1499.258031" y2="622.020026" stroke="black" stroke-width="3.152769"/>
<line x1="1499.258031" y1="700.42803" x2="1580.834035" y2="700.42803" stroke="black" stroke-width="3.152769"/>
<line x1="1563.410035" y1="700.42803" x2="1563.410035" y2="622.020026" stroke="black" stroke-width="3.152769"/>
<line x1="1231.897555" y1="90.941932" x2="1408.223201" y2="90.941932" stroke="black" stroke-width="3.152769"/>
<line x1="1408.223201" y1="90.941932" x2="1408.223201" y2="267.628901" stroke="black" stroke-width="3.152769"/>
<line x1="1408.223201" y1="267.628901" x2="1231.897555" y2="267.628901" stroke="black" stroke-width="3.152769"/>
<line x1="1231.897555" y1="267.628901" x2="1231.897555" y2="90.941932" stroke="black" stroke-width="3.152769"/>
<line x1="1231.536232" y1="90.580609" x2="1408.223201" y2="267.628901" stroke="black" stroke-width="3.152769"/>
<line x1="1231.897555" y1="267.267578" x2="1407.861879" y2="90.941932" stroke="black" stroke-width="3.152769"/>
<line x1="430.169049" y1="300.108987" x2="430.169049" y2="90.743776" stroke="black" stroke-width="3.152769"/>
<line x1="430.169049" y1="90.743776" x2="98.954633" y2="90.743776" stroke="black" stroke-width="3.152769"/>
<line x1="98.954633" y1="90.743776" x2="98.954633" y2="300.108987" stroke="black" stroke-width="3.152769"/>
<line x1="98.954633" y1="300.108987" x2="430.169049" y2="300.108987" stroke="black" stroke-width="3.152769"/>
<line x1="158.196236" y1="300.782187" x2="158.196236" y2="90.070573" stroke="black" stroke-width="3.152769"/>
<line x1="158.196236" y1="90.070573" x2="208.013038" y2="299.435787" stroke="black" stroke-width="3.152769"/>
<line x1="208.013038" y1="299.435787" x2="254.463843" y2="267.795385" stroke="black" stroke-width="3.152769"/>
<line x1="254.463843" y1="267.795385" x2="157.523039" y2="90.070573" stroke="black" stroke-width="3.152769"/>
<line x1="290.081849" y1="586.797932" x2="100.001839" y2="586.797932" stroke="black" stroke-width="3.152769"/>
<line x1="100.001839" y1="586.797932" x2="100.001839" y2="1050.593155" stroke="black" stroke-width="3.152769"/>
<line x1="100.001839" y1="1050.593155" x2="290.081849" y2="1050.593155" stroke="black" stroke-width="3.152769"/>
<line x1="290.081849" y1="1050.593155" x2="290.081849" y2="1026.833154" stroke="black" stroke-width="3.152769"/>
<line x1="290.081849" y1="1026.833154" x2="122.811441" y2="1026.833154" stroke="black" stroke-width="3.152769"/>
<line x1="122.811441" y1="1026.833154" x2="122.811441" y2="611.508333" stroke="black" stroke-width="3.152769"/>
<line x1="122.811441" y1="611.508333" x2="290.081849" y2="611.508333" stroke="black" stroke-width="3.152769"/>
<line x1="290.081849" y1="611.508333" x2="290.081849" y2="586.797932" stroke="black" stroke-width="3.152769"/>
<line x1="284.379449" y1="611.508333" x2="284.379449" y2="1026.833154" stroke="black" stroke-width="3.152769"/>
<line x1="285.329849" y1="818.695544" x2="123.761841" y2="818.695544" stroke="black" stroke-width="3.152769"/>
<line x1="409.246297" y1="624.28659" x2="629.824821" y2="608.862237" stroke="black" stroke-width="3.152769"/>
<line x1="629.824821" y1="608.862237" x2="645.280784" y2="829.892767" stroke="black" stroke-width="3.152769"/>
<line x1="645.280784" y1="829.892767" x2="424.702257" y2="845.31712" stroke="black" stroke-width="3.152769"/>
<line x1="424.702257" y1="845.31712" x2="409.246297" y2="624.28659" stroke="black" stroke-width="3.152769"/>
<line x1="408.762686" y1="623.866196" x2="645.280784" y2="829.892767" stroke="black" stroke-width="3.152769"/>
<line x1="424.67065" y1="844.865114" x2="629.372814" y2="608.893847" stroke="black" stroke-width="3.152769"/>
<line x1="1685.530586" y1="783.402883" x2="1894.618597" y2="783.402883" stroke="black" stroke-width="3.152769"/>
<line x1="1894.618597" y1="783.402883" x2="1894.618597" y2="551.505271" stroke="black" stroke-width="3.152769"/>
<line x1="1894.618597" y1="551.505271" x2="1685.530586" y2="551.505271" stroke="black" stroke-width="3.152769"/>
<line x1="1685.530586" y1="551.505271" x2="1685.530586" y2="783.402883" stroke="black" stroke-width="3.152769"/>
<line x1="1685.530586" y1="751.089281" x2="1894.618597" y2="751.089281" stroke="black" stroke-width="3.152769"/>
<line x1="864.105999" y1="1162.490866" x2="962.266871" y2="977.877109" stroke="black" stroke-width="3.152769"/>
<line x1="962.266871" y1="977.877109" x2="757.513434" y2="869.007773" stroke="black" stroke-width="3.152769"/>
<line x1="757.513434" y1="869.007773" x2="659.352562" y2="1053.621529" stroke="black" stroke-width="3.152769"/>
<line x1="659.352562" y1="1053.621529" x2="864.105999" y2="1162.490866" stroke="black" stroke-width="3.152769"/>
<line x1="835.574779" y1="1147.320547" x2="933.735657" y2="962.70679" stroke="black" stroke-width="3.152769"/>
<line x1="1802.241211" y1="1364.30697" x2="1802.241211" y2="1211.491412" stroke="black" stroke-width="3.152769"/>
<line x1="1802.241211" y1="1211.491412" x2="1955.369919" y2="1211.491412" stroke="black" stroke-width="3.152769"/>
<line x1="1955.369919" y1="1211.491412" x2="1955.369919" y2="1364.30697" stroke="black" stroke-width="3.152769"/>
<line x1="1955.369919" y1="1364.30697" x2="1802.241211" y2="1364.30697" stroke="black" stroke-width="3.152769"/>
<line x1="1801.928066" y1="1364.620117" x2="1955.369919" y2="1211.491412" stroke="black" stroke-width="3.152769"/>
<line x1="1955.056772" y1="1364.30697" x2="1802.241211" y2="1211.804556" stroke="black" stroke-width="3.152769"/>
<line x1="1682.278832" y1="90.141143" x2="1954.942151" y2="90.141143" stroke="black" stroke-width="3.152769"/>
<line x1="1954.942151" y1="90.141143" x2="1954.942151" y2="223.120384" stroke="black" stroke-width="3.152769"/>
<line x1="1682.278832" y1="223.120384" x2="1954.942151" y2="223.120384" stroke="black" stroke-width="3.152769"/>
<line x1="1682.278832" y1="90.141143" x2="1682.278832" y2="223.120384" stroke="black" stroke-width="3.152769"/>
<line x1="1688.983667" y1="96.845981" x2="1828.109007" y2="96.845981" stroke="black" stroke-width="3.152769"/>
<line x1="1828.109007" y1="96.845981" x2="1828.109007" y2="215.856815" stroke="black" stroke-width="3.152769"/>
<line x1="1688.983667" y1="215.856815" x2="1828.109007" y2="215.856815" stroke="black" stroke-width="3.152769"/>
<line x1="1688.983667" y1="96.845981" x2="1688.983667" y2="215.856815" stroke="black" stroke-width="3.152769"/>
<line x1="1842.636152" y1="104.668288" x2="1940.415006" y2="104.668288" stroke="black" stroke-width="3.152769"/>
<line x1="1842.636152" y1="125.34153" x2="1940.415006" y2="125.34153" stroke="black" stroke-width="3.152769"/>
<line x1="1843.194887" y1="146.57351" x2="1940.973741" y2="146.57351" stroke="black" stroke-width="3.152769"/>
<line x1="1843.194887" y1="167.246755" x2="1940.973741" y2="167.246755" stroke="black" stroke-width="3.152769"/>
<line x1="1842.636152" y1="187.919997" x2="1940.415006" y2="187.919997" stroke="black" stroke-width="3.152769"/>
<line x1="1842.636152" y1="208.593242" x2="1940.415006" y2="208.593242" stroke="black" stroke-width="3.152769"/>
<line x1="1742.063616" y1="215.856815" x2="1742.063616" y2="201.888404" stroke="black" stroke-width="3.152769"/>
<line x1="1742.063616" y1="201.888404" x2="1776.705268" y2="201.888404" stroke="black" stroke-width="3.152769"/>
<line x1="1776.705268" y1="201.888404" x2="1776.705268" y2="215.298077" stroke="black" stroke-width="3.152769"/>
<circle cx="1812.46439" cy="111.931861" r="8.381044614070067" fill="none" stroke="black" stroke-width="3.152769"/>
<line x1="99.078858" y1="1445.010549" x2="298.91459" y2="1445.010549" stroke="black" stroke-width="3.152769"/>
<line x1="298.91459" y1="1445.010549" x2="298.91459" y2="1645.255782" stroke="black" stroke-width="3.152769"/>
<line x1="298.91459" y1="1645.255782" x2="99.078858" y2="1645.255782" stroke="black" stroke-width="3.152769"/>
<line x1="99.078858" y1="1645.255782" x2="99.078858" y2="1445.010549" stroke="black" stroke-width="3.152769"/>
<line x1="98.66936" y1="1444.601052" x2="298.91459" y2="1645.255782" stroke="black" stroke-width="3.152769"/>
<line x1="99.078858" y1="1644.846281" x2="298.505092" y2="1445.010549" stroke="black" stroke-width="3.152769"/>
<line x1="503.17147" y1="1645.448363" x2="503.17147" y2="1475.194252" stroke="black" stroke-width="3.152769"/>
<line x1="503.17147" y1="1475.194252" x2="314.344182" y2="1475.194252" stroke="black" stroke-width="3.152769"/>
<line x1="314.344182" y1="1475.194252" x2="314.344182" y2="1645.448363" stroke="black" stroke-width="3.152769"/>
<line x1="314.344182" y1="1645.448363" x2="503.17147" y2="1645.448363" stroke="black" stroke-width="3.152769"/>
<line x1="476.859471" y1="1645.448363" x2="476.859471" y2="1475.194252" stroke="black" stroke-width="3.152769"/>
<line x1="1408.397825" y1="90.501744" x2="1681.061144" y2="90.501744" stroke="black" stroke-width="3.152769"/>
<line x1="1681.061144" y1="90.501744" x2="1681.061144" y2="223.480985" stroke="black" stroke-width="3.152769"/>
<line x1="1408.397825" y1="223.480985" x2="1681.061144" y2="223.480985" stroke="black" stroke-width="3.152769"/>
<line x1="1408.397825" y1="90.501744" x2="1408.397825" y2="223.480985" stroke="black" stroke-width="3.152769"/>
<line x1="1415.10266" y1="97.206582" x2="1554.228" y2="97.206582" stroke="black" stroke-width="3.152769"/>
<line x1="1554.228" y1="97.206582" x2="1554.228" y2="216.217415" stroke="black" stroke-width="3.152769"/>
<line x1="1415.10266" y1="216.217415" x2="1554.228" y2="216.217415" stroke="black" stroke-width="3.152769"/>
<line x1="1415.10266" y1="97.206582" x2="1415.10266" y2="216.217415" stroke="black" stroke-width="3.152769"/>
<line x1="1568.755145" y1="105.028889" x2="1666.533999" y2="105.028889" stroke="black" stroke-width="3.152769"/>
<line x1="1568.755145" y1="125.702131" x2="1666.533999" y2="125.702131" stroke="black" stroke-width="3.152769"/>
<line x1="1569.31388" y1="146.934111" x2="1667.092734" y2="146.934111" stroke="black" stroke-width="3.152769"/>
<line x1="1569.31388" y1="167.607356" x2="1667.092734" y2="167.607356" stroke="black" stroke-width="3.152769"/>
<line x1="1568.755145" y1="188.280598" x2="1666.533999" y2="188.280598" stroke="black" stroke-width="3.152769"/>
<line x1="1568.755145" y1="208.953843" x2="1666.533999" y2="208.953843" stroke="black" stroke-width="3.152769"/>
<line x1="1468.182609" y1="216.217415" x2="1468.182609" y2="202.249005" stroke="black" stroke-width="3.152769"/>
<line x1="1468.182609" y1="202.249005" x2="1502.824261" y2="202.249005" stroke="black" stroke-width="3.152769"/>
<line x1="1502.824261" y1="202.249005" x2="1502.824261" y2="215.658677" stroke="black" stroke-width="3.152769"/>
<circle cx="1538.583383" cy="112.292462" r="8.381044614070067" fill="none" stroke="black" stroke-width="3.152769"/>
</g>
</svg>
