<?xml version="1.0"?>
<svg xmlns:xlink="http://www.w3.org/1999/xlink" width="4307.458554" height="1893.135699">
<image x="0" y="0" width="4307.458554" height="1893.135699" xlink:href="ground16-09.png"/>
<g style="stroke-linecap:round">
<line x1="1501.172772" y1="65.56479" x2="1713.617124" y2="65.56479" stroke="black" stroke-width="5.173549"/>
<line x1="1713.617124" y1="65.56479" x2="1713.617124" y2="32.814748" stroke="black" stroke-width="5.173549"/>
<line x1="1713.617124" y1="32.814748" x2="1501.172772" y2="32.814748" stroke="black" stroke-width="5.173549"/>
<line x1="1501.172772" y1="32.814748" x2="1501.172772" y2="65.56479" stroke="black" stroke-width="5.173549"/>
<line x1="1520.995165" y1="33.24567" x2="1520.995165" y2="65.133868" stroke="black" stroke-width="5.173549"/>
<line x1="1693.363809" y1="33.24567" x2="1693.363809" y2="66.426634" stroke="black" stroke-width="5.173549"/>
<line x1="1520.564243" y1="48.327927" x2="1692.932887" y2="48.327927" stroke="black" stroke-width="5.173549"/>
<line x1="387.900809" y1="65.059724" x2="596.392707" y2="65.059724" stroke="black" stroke-width="5.173549"/>
<line x1="596.392707" y1="65.059724" x2="596.392707" y2="32.918986" stroke="black" stroke-width="5.173549"/>
<line x1="596.392707" y1="32.918986" x2="387.900809" y2="32.918986" stroke="black" stroke-width="5.173549"/>
<line x1="387.900809" y1="32.918986" x2="387.900809" y2="65.059724" stroke="black" stroke-width="5.173549"/>
<line x1="407.354414" y1="33.341891" x2="407.354414" y2="64.636819" stroke="black" stroke-width="5.173549"/>
<line x1="576.516198" y1="33.341891" x2="576.516198" y2="65.905534" stroke="black" stroke-width="5.173549"/>
<line x1="406.931509" y1="48.143547" x2="576.093293" y2="48.143547" stroke="black" stroke-width="5.173549"/>
<line x1="50.126013" y1="533.317951" x2="50.126013" y2="325.320107" stroke="black" stroke-width="5.173549"/>
<line x1="50.126013" y1="325.320107" x2="18.061434" y2="325.320107" stroke="black" stroke-width="5.173549"/>
<line x1="18.061434" y1="325.320107" x2="18.061434" y2="533.317951" stroke="black" stroke-width="5.173549"/>
<line x1="18.061434" y1="533.317951" x2="50.126013" y2="533.317951" stroke="black" stroke-width="5.173549"/>
<line x1="18.483338" y1="513.910443" x2="49.704109" y2="513.910443" stroke="black" stroke-width="5.173549"/>
<line x1="18.483338" y1="345.149518" x2="50.969817" y2="345.149518" stroke="black" stroke-width="5.173549"/>
<line x1="33.249919" y1="514.332347" x2="33.249919" y2="345.571419" stroke="black" stroke-width="5.173549"/>
<line x1="49.826476" y1="1569.571446" x2="49.826476" y2="1363.055774" stroke="black" stroke-width="5.173549"/>
<line x1="49.826476" y1="1363.055774" x2="17.990387" y2="1363.055774" stroke="black" stroke-width="5.173549"/>
<line x1="17.990387" y1="1363.055774" x2="17.990387" y2="1569.571446" stroke="black" stroke-width="5.173549"/>
<line x1="17.990387" y1="1569.571446" x2="49.826476" y2="1569.571446" stroke="black" stroke-width="5.173549"/>
<line x1="18.409283" y1="1550.302234" x2="49.407579" y2="1550.302234" stroke="black" stroke-width="5.173549"/>
<line x1="18.409283" y1="1382.74388" x2="50.664266" y2="1382.74388" stroke="black" stroke-width="5.173549"/>
<line x1="33.070638" y1="1550.721131" x2="33.070638" y2="1383.162776" stroke="black" stroke-width="5.173549"/>
<line x1="440.963045" y1="1842.887312" x2="233.459259" y2="1842.887312" stroke="black" stroke-width="5.173549"/>
<line x1="233.459259" y1="1842.887312" x2="233.459259" y2="1874.875726" stroke="black" stroke-width="5.173549"/>
<line x1="233.459259" y1="1874.875726" x2="440.963045" y2="1874.875726" stroke="black" stroke-width="5.173549"/>
<line x1="440.963045" y1="1874.875726" x2="440.963045" y2="1842.887312" stroke="black" stroke-width="5.173549"/>
<line x1="421.601637" y1="1874.454826" x2="421.601637" y2="1843.308212" stroke="black" stroke-width="5.173549"/>
<line x1="253.241566" y1="1874.454826" x2="253.241566" y2="1842.045513" stroke="black" stroke-width="5.173549"/>
<line x1="422.022536" y1="1859.72332" x2="253.662466" y2="1859.72332" stroke="black" stroke-width="5.173549"/>
<line x1="1467.379845" y1="1837.446095" x2="1259.890016" y2="1837.446095" stroke="black" stroke-width="5.173549"/>
<line x1="1259.890016" y1="1837.446095" x2="1259.890016" y2="1874.558095" stroke="black" stroke-width="5.173549"/>
<line x1="1259.890016" y1="1874.558095" x2="1467.379845" y2="1874.558095" stroke="black" stroke-width="5.173549"/>
<line x1="1467.379845" y1="1874.558095" x2="1467.379845" y2="1837.446095" stroke="black" stroke-width="5.173549"/>
<line x1="1457.680118" y1="1837.446095" x2="1457.680118" y2="1824.794277" stroke="black" stroke-width="5.173549"/>
<line x1="1457.680118" y1="1824.794277" x2="1270.011474" y2="1824.794277" stroke="black" stroke-width="5.173549"/>
<line x1="1270.011474" y1="1837.446095" x2="1270.011474" y2="1824.794277" stroke="black" stroke-width="5.173549"/>
<line x1="2343.276617" y1="1092.140299" x2="2356.300903" y2="1092.140299" stroke="black" stroke-width="5.173549"/>
<line x1="2356.300903" y1="1092.140299" x2="2356.300903" y2="1300.528857" stroke="black" stroke-width="5.173549"/>
<line x1="2343.276617" y1="1300.528857" x2="2356.300903" y2="1300.528857" stroke="black" stroke-width="5.173549"/>
<line x1="2343.276617" y1="1092.140299" x2="2343.276617" y2="1300.528857" stroke="black" stroke-width="5.173549"/>
<line x1="2746.161161" y1="1092.140299" x2="2760.053732" y2="1092.140299" stroke="black" stroke-width="5.173549"/>
<line x1="2760.053732" y1="1092.140299" x2="2760.053732" y2="1300.528857" stroke="black" stroke-width="5.173549"/>
<line x1="2746.161161" y1="1300.528857" x2="2760.053732" y2="1300.528857" stroke="black" stroke-width="5.173549"/>
<line x1="2746.161161" y1="1092.140299" x2="2746.161161" y2="1300.528857" stroke="black" stroke-width="5.173549"/>
<path d="m 2343.276617,1092.140299 a 208.3885580000001,208.3885580000001 0 0 1 208.3885580000001,208.3885580000001" fill="none" stroke="black" stroke-width="5.173549"/>
<path d="m 2551.665175,1300.528857 a 208.38855749999993,208.38855749999993 0 0 1 208.38855699999976,-208.3885580000001" fill="none" stroke="black" stroke-width="5.173549"/>
<line x1="3571.182719" y1="1089.212007" x2="3584.395307" y2="1089.212007" stroke="black" stroke-width="5.173549"/>
<line x1="3584.395307" y1="1089.212007" x2="3584.395307" y2="1300.613412" stroke="black" stroke-width="5.173549"/>
<line x1="3571.182719" y1="1300.613412" x2="3584.395307" y2="1300.613412" stroke="black" stroke-width="5.173549"/>
<line x1="3571.182719" y1="1089.212007" x2="3571.182719" y2="1300.613412" stroke="black" stroke-width="5.173549"/>
<line x1="3979.892099" y1="1089.212007" x2="3993.985526" y2="1089.212007" stroke="black" stroke-width="5.173549"/>
<line x1="3993.985526" y1="1089.212007" x2="3993.985526" y2="1300.613412" stroke="black" stroke-width="5.173549"/>
<line x1="3979.892099" y1="1300.613412" x2="3993.985526" y2="1300.613412" stroke="black" stroke-width="5.173549"/>
<line x1="3979.892099" y1="1089.212007" x2="3979.892099" y2="1300.613412" stroke="black" stroke-width="5.173549"/>
<path d="m 3571.182719,1089.212007 a 211.40140499999995,211.40140499999995 0 0 1 211.40140500000007,211.40140499999984" fill="none" stroke="black" stroke-width="5.173549"/>
<path d="m 3782.584124,1300.613412 a 211.4014034999999,211.4014034999999 0 0 1 211.40140199999996,-211.40140499999984" fill="none" stroke="black" stroke-width="5.173549"/>
<line x1="2964.797099" y1="1096.111521" x2="2977.586005" y2="1096.111521" stroke="black" stroke-width="5.173549"/>
<line x1="2977.586005" y1="1096.111521" x2="2977.586005" y2="1300.734018" stroke="black" stroke-width="5.173549"/>
<line x1="2964.797099" y1="1300.734018" x2="2977.586005" y2="1300.734018" stroke="black" stroke-width="5.173549"/>
<line x1="2964.797099" y1="1096.111521" x2="2964.797099" y2="1300.734018" stroke="black" stroke-width="5.173549"/>
<line x1="3360.400597" y1="1096.111521" x2="3374.042096" y2="1096.111521" stroke="black" stroke-width="5.173549"/>
<line x1="3374.042096" y1="1096.111521" x2="3374.042096" y2="1300.734018" stroke="black" stroke-width="5.173549"/>
<line x1="3360.400597" y1="1300.734018" x2="3374.042096" y2="1300.734018" stroke="black" stroke-width="5.173549"/>
<line x1="3360.400597" y1="1096.111521" x2="3360.400597" y2="1300.734018" stroke="black" stroke-width="5.173549"/>
<path d="m 2964.797099,1096.111521 a 204.62249700000018,204.62249700000018 0 0 1 204.6224970000003,204.62249700000007" fill="none" stroke="black" stroke-width="5.173549"/>
<path d="m 3169.419596,1300.734018 a 204.6224985,204.6224985 0 0 1 204.62249999999995,-204.62249700000007" fill="none" stroke="black" stroke-width="5.173549"/>
<line x1="4252.045322" y1="1030.388379" x2="4252.045322" y2="1237.878208" stroke="black" stroke-width="5.173549"/>
<line x1="4252.045322" y1="1237.878208" x2="4289.157323" y2="1237.878208" stroke="black" stroke-width="5.173549"/>
<line x1="4289.157323" y1="1237.878208" x2="4289.157323" y2="1030.388379" stroke="black" stroke-width="5.173549"/>
<line x1="4289.157323" y1="1030.388379" x2="4252.045322" y2="1030.388379" stroke="black" stroke-width="5.173549"/>
<line x1="4252.045322" y1="1040.088107" x2="4239.393504" y2="1040.088107" stroke="black" stroke-width="5.173549"/>
<line x1="4239.393504" y1="1040.088107" x2="4239.393504" y2="1227.756751" stroke="black" stroke-width="5.173549"/>
<line x1="4252.045322" y1="1227.756751" x2="4239.393504" y2="1227.756751" stroke="black" stroke-width="5.173549"/>
<line x1="954.044289" y1="840.013072" x2="972.615108" y2="840.013072" stroke="black" stroke-width="5.173549"/>
<line x1="972.615108" y1="840.013072" x2="972.615108" y2="803.777333" stroke="black" stroke-width="5.173549"/>
<line x1="972.615108" y1="803.777333" x2="954.044289" y2="803.777333" stroke="black" stroke-width="5.173549"/>
<line x1="954.044289" y1="803.777333" x2="954.044289" y2="840.013072" stroke="black" stroke-width="5.173549"/>
<line x1="1154.246754" y1="803.777333" x2="1154.246754" y2="623.051579" stroke="black" stroke-width="5.173549"/>
<line x1="1154.699702" y1="840.918967" x2="1173.270517" y2="840.918967" stroke="black" stroke-width="5.173549"/>
<line x1="1173.270517" y1="840.918967" x2="1173.270517" y2="804.683225" stroke="black" stroke-width="5.173549"/>
<line x1="1173.270517" y1="804.683225" x2="1154.699702" y2="804.683225" stroke="black" stroke-width="5.173549"/>
<line x1="1154.699702" y1="804.683225" x2="1154.699702" y2="840.918967" stroke="black" stroke-width="5.173549"/>
<path d="m 972.615108,805.136173 a 181.6316465,181.6316465 0 0 1 181.63164600000005,-181.63164699999993" fill="none" stroke="black" stroke-width="5.173549"/>
<line x1="53.412936" y1="578.052502" x2="274.786112" y2="578.052502" stroke="black" stroke-width="5.173549"/>
<line x1="274.786112" y1="578.052502" x2="274.786112" y2="799.879311" stroke="black" stroke-width="5.173549"/>
<line x1="274.786112" y1="799.879311" x2="53.412936" y2="799.879311" stroke="black" stroke-width="5.173549"/>
<line x1="53.412936" y1="799.879311" x2="53.412936" y2="578.052502" stroke="black" stroke-width="5.173549"/>
<line x1="52.959304" y1="577.598867" x2="274.786112" y2="799.879311" stroke="black" stroke-width="5.173549"/>
<line x1="53.412936" y1="799.425678" x2="274.33248" y2="578.052502" stroke="black" stroke-width="5.173549"/>
<line x1="1274.097936" y1="1083.830274" x2="1256.238165" y2="1083.830274" stroke="black" stroke-width="5.173549"/>
<line x1="1256.238165" y1="1083.830274" x2="1256.238165" y2="1118.678608" stroke="black" stroke-width="5.173549"/>
<line x1="1256.238165" y1="1118.678608" x2="1274.097936" y2="1118.678608" stroke="black" stroke-width="5.173549"/>
<line x1="1274.097936" y1="1118.678608" x2="1274.097936" y2="1083.830274" stroke="black" stroke-width="5.173549"/>
<line x1="1081.560882" y1="1118.678608" x2="1081.560882" y2="1292.484683" stroke="black" stroke-width="5.173549"/>
<line x1="1081.12528" y1="1082.959064" x2="1063.265506" y2="1082.959064" stroke="black" stroke-width="5.173549"/>
<line x1="1063.265506" y1="1082.959064" x2="1063.265506" y2="1117.8074" stroke="black" stroke-width="5.173549"/>
<line x1="1063.265506" y1="1117.8074" x2="1081.12528" y2="1117.8074" stroke="black" stroke-width="5.173549"/>
<line x1="1081.12528" y1="1117.8074" x2="1081.12528" y2="1082.959064" stroke="black" stroke-width="5.173549"/>
<path d="m 1256.238165,1117.371795 a 174.677283,174.677283 0 0 1 -174.677283,174.677283" fill="none" stroke="black" stroke-width="5.173549"/>
<line x1="2144.721745" y1="1399.673911" x2="2144.721745" y2="1604.693622" stroke="black" stroke-width="5.173549"/>
<line x1="2144.721745" y1="1604.693622" x2="2181.391937" y2="1604.693622" stroke="black" stroke-width="5.173549"/>
<line x1="2181.391937" y1="1604.693622" x2="2181.391937" y2="1399.673911" stroke="black" stroke-width="5.173549"/>
<line x1="2181.391937" y1="1399.673911" x2="2144.721745" y2="1399.673911" stroke="black" stroke-width="5.173549"/>
<line x1="2144.721745" y1="1409.258168" x2="2132.220542" y2="1409.258168" stroke="black" stroke-width="5.173549"/>
<line x1="2132.220542" y1="1409.258168" x2="2132.220542" y2="1594.692662" stroke="black" stroke-width="5.173549"/>
<line x1="2144.721745" y1="1594.692662" x2="2132.220542" y2="1594.692662" stroke="black" stroke-width="5.173549"/>
<line x1="1217.501921" y1="357.119769" x2="1217.501921" y2="803.248252" stroke="black" stroke-width="5.173549"/>
<line x1="1217.501921" y1="803.248252" x2="1416.182622" y2="803.248252" stroke="black" stroke-width="5.173549"/>
<line x1="1416.182622" y1="803.248252" x2="1416.182622" y2="357.119769" stroke="black" stroke-width="5.173549"/>
<line x1="1416.182622" y1="357.119769" x2="1217.501921" y2="357.119769" stroke="black" stroke-width="5.173549"/>
<line x1="1385.477422" y1="717.454313" x2="1385.477422" y2="393.243532" stroke="black" stroke-width="5.173549"/>
<line x1="1385.477422" y1="393.243532" x2="1250.916402" y2="393.243532" stroke="black" stroke-width="5.173549"/>
<line x1="1250.916402" y1="393.243532" x2="1250.916402" y2="723.775971" stroke="black" stroke-width="5.173549"/>
<path d="m 1385.768674,716.530041 a 72.24752666021107,72.24752666021107 0 0 1 -136.119007,4.896106000000032" fill="none" stroke="black" stroke-width="5.173549"/>
<line x1="1697.778678" y1="530.195615" x2="1855.199605" y2="530.195615" stroke="black" stroke-width="5.173549"/>
<line x1="1855.199605" y1="530.195615" x2="1855.199605" y2="687.939127" stroke="black" stroke-width="5.173549"/>
<line x1="1855.199605" y1="687.939127" x2="1697.778678" y2="687.939127" stroke="black" stroke-width="5.173549"/>
<line x1="1697.778678" y1="687.939127" x2="1697.778678" y2="530.195615" stroke="black" stroke-width="5.173549"/>
<line x1="1697.456094" y1="529.873031" x2="1855.199605" y2="687.939127" stroke="black" stroke-width="5.173549"/>
<line x1="1697.778678" y1="687.616542" x2="1854.877021" y2="530.195615" stroke="black" stroke-width="5.173549"/>
<line x1="2339.150739" y1="178.010188" x2="2339.150739" y2="495.053383" stroke="black" stroke-width="5.173549"/>
<line x1="2339.150739" y1="495.053383" x2="2184.527212" y2="495.053383" stroke="black" stroke-width="5.173549"/>
<line x1="2184.527212" y1="178.010188" x2="2184.527212" y2="495.053383" stroke="black" stroke-width="5.173549"/>
<line x1="2339.150739" y1="178.010188" x2="2184.527212" y2="178.010188" stroke="black" stroke-width="5.173549"/>
<line x1="2331.354594" y1="185.80633" x2="2331.354594" y2="347.576322" stroke="black" stroke-width="5.173549"/>
<line x1="2331.354594" y1="347.576322" x2="2192.973035" y2="347.576322" stroke="black" stroke-width="5.173549"/>
<line x1="2192.973035" y1="185.80633" x2="2192.973035" y2="347.576322" stroke="black" stroke-width="5.173549"/>
<line x1="2331.354594" y1="185.80633" x2="2192.973035" y2="185.80633" stroke="black" stroke-width="5.173549"/>
<line x1="2322.259094" y1="364.467969" x2="2322.259094" y2="478.161738" stroke="black" stroke-width="5.173549"/>
<line x1="2298.220981" y1="364.467969" x2="2298.220981" y2="478.161738" stroke="black" stroke-width="5.173549"/>
<line x1="2273.533191" y1="365.117647" x2="2273.533191" y2="478.811416" stroke="black" stroke-width="5.173549"/>
<line x1="2249.495079" y1="365.117647" x2="2249.495079" y2="478.811416" stroke="black" stroke-width="5.173549"/>
<line x1="2225.45697" y1="364.467969" x2="2225.45697" y2="478.161738" stroke="black" stroke-width="5.173549"/>
<line x1="2201.418857" y1="364.467969" x2="2201.418857" y2="478.161738" stroke="black" stroke-width="5.173549"/>
<line x1="2192.973035" y1="247.525806" x2="2209.215002" y2="247.525806" stroke="black" stroke-width="5.173549"/>
<line x1="2209.215002" y1="247.525806" x2="2209.215002" y2="287.805884" stroke="black" stroke-width="5.173549"/>
<line x1="2209.215002" y1="287.805884" x2="2193.622715" y2="287.805884" stroke="black" stroke-width="5.173549"/>
<circle cx="2313.813269" cy="329.385319" r="9.74518019465271" fill="none" stroke="black" stroke-width="5.173549"/>
<line x1="3206.866152" y1="231.874888" x2="3206.866152" y2="624.706933" stroke="black" stroke-width="5.173549"/>
<line x1="3206.866152" y1="624.706933" x2="3391.402173" y2="624.706933" stroke="black" stroke-width="5.173549"/>
<line x1="3391.402173" y1="624.706933" x2="3391.402173" y2="231.874888" stroke="black" stroke-width="5.173549"/>
<line x1="3391.402173" y1="231.874888" x2="3206.866152" y2="231.874888" stroke="black" stroke-width="5.173549"/>
<line x1="3391.402173" y1="391.066906" x2="3472.186182" y2="391.066906" stroke="black" stroke-width="5.173549"/>
<line x1="3472.186182" y1="391.066906" x2="3472.186182" y2="312.658897" stroke="black" stroke-width="5.173549"/>
<line x1="3472.186182" y1="312.658897" x2="3391.402173" y2="312.658897" stroke="black" stroke-width="5.173549"/>
<line x1="3454.76218" y1="313.450898" x2="3454.76218" y2="391.066906" stroke="black" stroke-width="5.173549"/>
<line x1="3125.290143" y1="312.658897" x2="3125.290143" y2="391.066906" stroke="black" stroke-width="5.173549"/>
<line x1="3125.290143" y1="391.066906" x2="3206.866152" y2="391.066906" stroke="black" stroke-width="5.173549"/>
<line x1="3206.866152" y1="312.658897" x2="3125.290143" y2="312.658897" stroke="black" stroke-width="5.173549"/>
<line x1="3142.714145" y1="313.450898" x2="3142.714145" y2="391.066906" stroke="black" stroke-width="5.173549"/>
<line x1="3391.402173" y1="542.338924" x2="3472.186182" y2="542.338924" stroke="black" stroke-width="5.173549"/>
<line x1="3472.186182" y1="542.338924" x2="3472.186182" y2="463.930915" stroke="black" stroke-width="5.173549"/>
<line x1="3472.186182" y1="463.930915" x2="3391.402173" y2="463.930915" stroke="black" stroke-width="5.173549"/>
<line x1="3454.76218" y1="463.930915" x2="3454.76218" y2="542.338924" stroke="black" stroke-width="5.173549"/>
<line x1="3125.290143" y1="463.930915" x2="3125.290143" y2="542.338924" stroke="black" stroke-width="5.173549"/>
<line x1="3125.290143" y1="542.338924" x2="3206.866152" y2="542.338924" stroke="black" stroke-width="5.173549"/>
<line x1="3206.866152" y1="463.930915" x2="3125.290143" y2="463.930915" stroke="black" stroke-width="5.173549"/>
<line x1="3142.714145" y1="463.930915" x2="3142.714145" y2="542.338924" stroke="black" stroke-width="5.173549"/>
<line x1="4062.561621" y1="553.983686" x2="4252.641642" y2="553.983686" stroke="black" stroke-width="5.173549"/>
<line x1="4252.641642" y1="553.983686" x2="4252.641642" y2="90.188433" stroke="black" stroke-width="5.173549"/>
<line x1="4252.641642" y1="90.188433" x2="4062.561621" y2="90.188433" stroke="black" stroke-width="5.173549"/>
<line x1="4062.561621" y1="90.188433" x2="4062.561621" y2="113.948436" stroke="black" stroke-width="5.173549"/>
<line x1="4062.561621" y1="113.948436" x2="4229.83204" y2="113.948436" stroke="black" stroke-width="5.173549"/>
<line x1="4229.83204" y1="113.948436" x2="4229.83204" y2="529.273283" stroke="black" stroke-width="5.173549"/>
<line x1="4229.83204" y1="529.273283" x2="4062.561621" y2="529.273283" stroke="black" stroke-width="5.173549"/>
<line x1="4062.561621" y1="529.273283" x2="4062.561621" y2="553.983686" stroke="black" stroke-width="5.173549"/>
<line x1="4068.264021" y1="529.273283" x2="4068.264021" y2="113.948436" stroke="black" stroke-width="5.173549"/>
<line x1="4067.313621" y1="322.086059" x2="4228.88164" y2="322.086059" stroke="black" stroke-width="5.173549"/>
<line x1="1020.653699" y1="1372.957061" x2="831.25665" y2="1372.957061" stroke="black" stroke-width="5.173549"/>
<line x1="831.25665" y1="1372.957061" x2="831.25665" y2="1183.171901" stroke="black" stroke-width="5.173549"/>
<line x1="831.25665" y1="1183.171901" x2="1020.653699" y2="1183.171901" stroke="black" stroke-width="5.173549"/>
<line x1="1020.653699" y1="1183.171901" x2="1020.653699" y2="1372.957061" stroke="black" stroke-width="5.173549"/>
<line x1="1021.04181" y1="1373.345169" x2="831.25665" y2="1183.171901" stroke="black" stroke-width="5.173549"/>
<line x1="1020.653699" y1="1183.560009" x2="831.644758" y2="1372.957061" stroke="black" stroke-width="5.173549"/>
<line x1="2443.981902" y1="69.749097" x2="2650.977704" y2="69.749097" stroke="black" stroke-width="5.173549"/>
<line x1="2650.977704" y1="69.749097" x2="2650.977704" y2="32.725459" stroke="black" stroke-width="5.173549"/>
<line x1="2650.977704" y1="32.725459" x2="2443.981902" y2="32.725459" stroke="black" stroke-width="5.173549"/>
<line x1="2443.981902" y1="32.725459" x2="2443.981902" y2="69.749097" stroke="black" stroke-width="5.173549"/>
<line x1="2453.658533" y1="69.749097" x2="2453.658533" y2="82.370794" stroke="black" stroke-width="5.173549"/>
<line x1="2453.658533" y1="82.370794" x2="2640.880349" y2="82.370794" stroke="black" stroke-width="5.173549"/>
<line x1="2640.880349" y1="69.749097" x2="2640.880349" y2="82.370794" stroke="black" stroke-width="5.173549"/>
<line x1="3578.119258" y1="65.722702" x2="3785.128986" y2="65.722702" stroke="black" stroke-width="5.173549"/>
<line x1="3785.128986" y1="65.722702" x2="3785.128986" y2="33.810453" stroke="black" stroke-width="5.173549"/>
<line x1="3785.128986" y1="33.810453" x2="3578.119258" y2="33.810453" stroke="black" stroke-width="5.173549"/>
<line x1="3578.119258" y1="33.810453" x2="3578.119258" y2="65.722702" stroke="black" stroke-width="5.173549"/>
<line x1="3597.434566" y1="34.230351" x2="3597.434566" y2="65.302804" stroke="black" stroke-width="5.173549"/>
<line x1="3765.393777" y1="34.230351" x2="3765.393777" y2="66.562498" stroke="black" stroke-width="5.173549"/>
<line x1="3597.014668" y1="48.926782" x2="3764.973879" y2="48.926782" stroke="black" stroke-width="5.173549"/>
<line x1="3786.525589" y1="65.638972" x2="3993.535318" y2="65.638972" stroke="black" stroke-width="5.173549"/>
<line x1="3993.535318" y1="65.638972" x2="3993.535318" y2="33.726723" stroke="black" stroke-width="5.173549"/>
<line x1="3993.535318" y1="33.726723" x2="3786.525589" y2="33.726723" stroke="black" stroke-width="5.173549"/>
<line x1="3786.525589" y1="33.726723" x2="3786.525589" y2="65.638972" stroke="black" stroke-width="5.173549"/>
<line x1="3805.840898" y1="34.146621" x2="3805.840898" y2="65.219074" stroke="black" stroke-width="5.173549"/>
<line x1="3973.800109" y1="34.146621" x2="3973.800109" y2="66.478768" stroke="black" stroke-width="5.173549"/>
<line x1="3805.421" y1="48.843052" x2="3973.380211" y2="48.843052" stroke="black" stroke-width="5.173549"/>
<line x1="53.027362" y1="1172.545735" x2="262.392586" y2="1172.545735" stroke="black" stroke-width="5.173549"/>
<line x1="262.392586" y1="1172.545735" x2="262.392586" y2="841.331297" stroke="black" stroke-width="5.173549"/>
<line x1="262.392586" y1="841.331297" x2="53.027362" y2="841.331297" stroke="black" stroke-width="5.173549"/>
<line x1="53.027362" y1="841.331297" x2="53.027362" y2="1172.545735" stroke="black" stroke-width="5.173549"/>
<line x1="52.354162" y1="900.572904" x2="263.065786" y2="900.572904" stroke="black" stroke-width="5.173549"/>
<line x1="263.065786" y1="900.572904" x2="53.700562" y2="950.38971" stroke="black" stroke-width="5.173549"/>
<line x1="53.700562" y1="950.38971" x2="85.340966" y2="996.840515" stroke="black" stroke-width="5.173549"/>
<line x1="85.340966" y1="996.840515" x2="263.065786" y2="899.899704" stroke="black" stroke-width="5.173549"/>
<line x1="478.493098" y1="798.687496" x2="489.310307" y2="769.755562" stroke="black" stroke-width="5.173549"/>
<line x1="489.310307" y1="769.755562" x2="293.018258" y2="696.364973" stroke="black" stroke-width="5.173549"/>
<line x1="293.018258" y1="696.364973" x2="282.201055" y2="725.296907" stroke="black" stroke-width="5.173549"/>
<line x1="282.201055" y1="725.296907" x2="478.493098" y2="798.687496" stroke="black" stroke-width="5.173549"/>
<line x1="549.886664" y1="607.736734" x2="560.70387" y2="578.8048" stroke="black" stroke-width="5.173549"/>
<line x1="560.70387" y1="578.8048" x2="364.411824" y2="505.414211" stroke="black" stroke-width="5.173549"/>
<line x1="364.411824" y1="505.414211" x2="353.59462" y2="534.346146" stroke="black" stroke-width="5.173549"/>
<line x1="353.59462" y1="534.346146" x2="549.886664" y2="607.736734" stroke="black" stroke-width="5.173549"/>
<line x1="489.143888" y1="770.200671" x2="549.886664" y2="607.736734" stroke="black" stroke-width="5.173549"/>
<line x1="293.575637" y1="697.588023" x2="278.414209" y2="663.509028" stroke="black" stroke-width="5.173549"/>
<line x1="320.850945" y1="550.006826" x2="354.651251" y2="534.233876" stroke="black" stroke-width="5.173549"/>
<line x1="277.748538" y1="665.289457" x2="321.516621" y2="548.226402" stroke="black" stroke-width="5.173549"/>
<line x1="447.470276" y1="754.112219" x2="508.213055" y2="591.648282" stroke="black" stroke-width="5.173549"/>
<line x1="50.307194" y1="1608.76544" x2="271.680371" y2="1608.76544" stroke="black" stroke-width="5.173549"/>
<line x1="271.680371" y1="1608.76544" x2="271.680371" y2="1830.592249" stroke="black" stroke-width="5.173549"/>
<line x1="271.680371" y1="1830.592249" x2="50.307194" y2="1830.592249" stroke="black" stroke-width="5.173549"/>
<line x1="50.307194" y1="1830.592249" x2="50.307194" y2="1608.76544" stroke="black" stroke-width="5.173549"/>
<line x1="49.853562" y1="1608.311806" x2="271.680371" y2="1830.592249" stroke="black" stroke-width="5.173549"/>
<line x1="50.307194" y1="1830.138617" x2="271.226739" y2="1608.76544" stroke="black" stroke-width="5.173549"/>
<line x1="472.287691" y1="1831.073688" x2="581.535884" y2="1652.796844" stroke="black" stroke-width="5.173549"/>
<line x1="581.535884" y1="1652.796844" x2="383.810653" y2="1531.630666" stroke="black" stroke-width="5.173549"/>
<line x1="383.810653" y1="1531.630666" x2="274.562462" y2="1709.90751" stroke="black" stroke-width="5.173549"/>
<line x1="274.562462" y1="1709.90751" x2="472.287691" y2="1831.073688" stroke="black" stroke-width="5.173549"/>
<line x1="444.735814" y1="1814.189879" x2="553.984007" y2="1635.913029" stroke="black" stroke-width="5.173549"/>
<line x1="384.097842" y1="286.107217" x2="384.097842" y2="76.741993" stroke="black" stroke-width="5.173549"/>
<line x1="384.097842" y1="76.741993" x2="52.883404" y2="76.741993" stroke="black" stroke-width="5.173549"/>
<line x1="52.883404" y1="76.741993" x2="52.883404" y2="286.107217" stroke="black" stroke-width="5.173549"/>
<line x1="52.883404" y1="286.107217" x2="384.097842" y2="286.107217" stroke="black" stroke-width="5.173549"/>
<line x1="112.125011" y1="286.780417" x2="112.125011" y2="76.068793" stroke="black" stroke-width="5.173549"/>
<line x1="112.125011" y1="76.068793" x2="161.941817" y2="285.434017" stroke="black" stroke-width="5.173549"/>
<line x1="161.941817" y1="285.434017" x2="208.392622" y2="253.793613" stroke="black" stroke-width="5.173549"/>
<line x1="208.392622" y1="253.793613" x2="111.451811" y2="76.068793" stroke="black" stroke-width="5.173549"/>
<line x1="1441.968826" y1="1456.887694" x2="1651.33405" y2="1456.887694" stroke="black" stroke-width="5.173549"/>
<line x1="1651.33405" y1="1456.887694" x2="1651.33405" y2="1125.673256" stroke="black" stroke-width="5.173549"/>
<line x1="1651.33405" y1="1125.673256" x2="1441.968826" y2="1125.673256" stroke="black" stroke-width="5.173549"/>
<line x1="1441.968826" y1="1125.673256" x2="1441.968826" y2="1456.887694" stroke="black" stroke-width="5.173549"/>
<line x1="1441.295626" y1="1184.914863" x2="1652.00725" y2="1184.914863" stroke="black" stroke-width="5.173549"/>
<line x1="1652.00725" y1="1184.914863" x2="1442.642026" y2="1234.731669" stroke="black" stroke-width="5.173549"/>
<line x1="1442.642026" y1="1234.731669" x2="1474.28243" y2="1281.182474" stroke="black" stroke-width="5.173549"/>
<line x1="1474.28243" y1="1281.182474" x2="1652.00725" y2="1184.241663" stroke="black" stroke-width="5.173549"/>
<line x1="1653.434968" y1="1456.38194" x2="1862.800192" y2="1456.38194" stroke="black" stroke-width="5.173549"/>
<line x1="1862.800192" y1="1456.38194" x2="1862.800192" y2="1125.167503" stroke="black" stroke-width="5.173549"/>
<line x1="1862.800192" y1="1125.167503" x2="1653.434968" y2="1125.167503" stroke="black" stroke-width="5.173549"/>
<line x1="1653.434968" y1="1125.167503" x2="1653.434968" y2="1456.38194" stroke="black" stroke-width="5.173549"/>
<line x1="1652.761768" y1="1184.40911" x2="1863.473392" y2="1184.40911" stroke="black" stroke-width="5.173549"/>
<line x1="1863.473392" y1="1184.40911" x2="1654.108168" y2="1234.225915" stroke="black" stroke-width="5.173549"/>
<line x1="1654.108168" y1="1234.225915" x2="1685.748572" y2="1280.67672" stroke="black" stroke-width="5.173549"/>
<line x1="1685.748572" y1="1280.67672" x2="1863.473392" y2="1183.735909" stroke="black" stroke-width="5.173549"/>
<line x1="1919.572859" y1="1613.63281" x2="2140.946035" y2="1613.63281" stroke="black" stroke-width="5.173549"/>
<line x1="2140.946035" y1="1613.63281" x2="2140.946035" y2="1835.459618" stroke="black" stroke-width="5.173549"/>
<line x1="2140.946035" y1="1835.459618" x2="1919.572859" y2="1835.459618" stroke="black" stroke-width="5.173549"/>
<line x1="1919.572859" y1="1835.459618" x2="1919.572859" y2="1613.63281" stroke="black" stroke-width="5.173549"/>
<line x1="1919.119227" y1="1613.179175" x2="2140.946035" y2="1835.459618" stroke="black" stroke-width="5.173549"/>
<line x1="1919.572859" y1="1835.005986" x2="2140.492403" y2="1613.63281" stroke="black" stroke-width="5.173549"/>
<line x1="1607.970847" y1="1657.160736" x2="1720.313763" y2="1833.503784" stroke="black" stroke-width="5.173549"/>
<line x1="1720.313763" y1="1833.503784" x2="1915.894235" y2="1708.90528" stroke="black" stroke-width="5.173549"/>
<line x1="1915.894235" y1="1708.90528" x2="1803.55132" y2="1532.562232" stroke="black" stroke-width="5.173549"/>
<line x1="1803.55132" y1="1532.562232" x2="1607.970847" y2="1657.160736" stroke="black" stroke-width="5.173549"/>
<line x1="1635.223861" y1="1639.798648" x2="1747.566777" y2="1816.141696" stroke="black" stroke-width="5.173549"/>
<line x1="1805.092266" y1="258.329145" x2="1805.092266" y2="74.585124" stroke="black" stroke-width="5.173549"/>
<line x1="1805.092266" y1="74.585124" x2="1854.196271" y2="74.585124" stroke="black" stroke-width="5.173549"/>
<line x1="1854.196271" y1="258.329145" x2="1854.196271" y2="74.585124" stroke="black" stroke-width="5.173549"/>
<line x1="1805.092266" y1="258.329145" x2="1854.196271" y2="258.329145" stroke="black" stroke-width="5.173549"/>
<line x1="1777.372262" y1="216.74914" x2="1805.092266" y2="216.74914" stroke="black" stroke-width="5.173549"/>
<line x1="1805.092266" y1="117.749129" x2="1775.788262" y2="117.749129" stroke="black" stroke-width="5.173549"/>
<circle cx="1732.228257" cy="168.041135" r="66.52800756" fill="none" stroke="black" stroke-width="5.173549"/>
<circle cx="1732.228257" cy="168.041135" r="57.02400648" fill="none" stroke="black" stroke-width="5.173549"/>
<line x1="1243.229224" y1="77.847725" x2="1218.677221" y2="96.459727" stroke="black" stroke-width="5.173549"/>
<line x1="1218.677221" y1="96.459727" x2="1218.677221" y2="243.771744" stroke="black" stroke-width="5.173549"/>
<line x1="1218.677221" y1="243.771744" x2="1246.793224" y2="262.779746" stroke="black" stroke-width="5.173549"/>
<line x1="1246.001224" y1="99.627728" x2="1246.001224" y2="242.583744" stroke="black" stroke-width="5.173549"/>
<circle cx="1267.781227" cy="168.927735" r="13.068001485" fill="none" stroke="black" stroke-width="5.173549"/>
<path d="m 1245.333877,101.180978 a 74.84400803731003,74.84400803731003 0 1 1 0.40204799999992247,139.609018" fill="none" stroke="black" stroke-width="5.173549"/>
<path d="m 1242.571859,77.894024 a 95.43601157238837,95.43601157238837 0 1 1 3.0749610000000303,184.46702" fill="none" stroke="black" stroke-width="5.173549"/>
<line x1="1461.984904" y1="839.659365" x2="1479.175458" y2="839.659365" stroke="black" stroke-width="5.173549"/>
<line x1="1479.175458" y1="839.659365" x2="1479.175458" y2="806.116822" stroke="black" stroke-width="5.173549"/>
<line x1="1479.175458" y1="806.116822" x2="1461.984904" y2="806.116822" stroke="black" stroke-width="5.173549"/>
<line x1="1461.984904" y1="806.116822" x2="1461.984904" y2="839.659365" stroke="black" stroke-width="5.173549"/>
<line x1="1647.307453" y1="806.116822" x2="1647.307453" y2="638.823387" stroke="black" stroke-width="5.173549"/>
<line x1="1647.726735" y1="840.497927" x2="1664.917289" y2="840.497927" stroke="black" stroke-width="5.173549"/>
<line x1="1664.917289" y1="840.497927" x2="1664.917289" y2="806.955384" stroke="black" stroke-width="5.173549"/>
<line x1="1664.917289" y1="806.955384" x2="1647.726735" y2="806.955384" stroke="black" stroke-width="5.173549"/>
<line x1="1647.726735" y1="806.955384" x2="1647.726735" y2="840.497927" stroke="black" stroke-width="5.173549"/>
<path d="m 1479.175458,807.374667 a 168.1319965,168.1319965 0 0 1 168.13199499999996,-168.13199800000007" fill="none" stroke="black" stroke-width="5.173549"/>
<line x1="3762.004262" y1="68.324156" x2="3612.872137" y2="214.875889" stroke="black" stroke-width="5.173549"/>
<line x1="3612.872137" y1="214.875889" x2="3775.411332" y2="380.276976" stroke="black" stroke-width="5.173549"/>
<line x1="3775.411332" y1="380.276976" x2="3924.543459" y2="233.725241" stroke="black" stroke-width="5.173549"/>
<line x1="3924.543459" y1="233.725241" x2="3762.004262" y2="68.324156" stroke="black" stroke-width="5.173549"/>
<line x1="3784.653168" y1="91.37185" x2="3635.521041" y2="237.923582" stroke="black" stroke-width="5.173549"/>
<line x1="834.802452" y1="1601.741708" x2="834.802452" y2="1412.344658" stroke="black" stroke-width="5.173549"/>
<line x1="834.802452" y1="1412.344658" x2="1024.587612" y2="1412.344658" stroke="black" stroke-width="5.173549"/>
<line x1="1024.587612" y1="1412.344658" x2="1024.587612" y2="1601.741708" stroke="black" stroke-width="5.173549"/>
<line x1="1024.587612" y1="1601.741708" x2="834.802452" y2="1601.741708" stroke="black" stroke-width="5.173549"/>
<line x1="834.414344" y1="1602.129818" x2="1024.587612" y2="1412.344658" stroke="black" stroke-width="5.173549"/>
<line x1="1024.199504" y1="1601.741708" x2="834.802452" y2="1412.732766" stroke="black" stroke-width="5.173549"/>
<line x1="981.194359" y1="263.856703" x2="981.194359" y2="74.459653" stroke="black" stroke-width="5.173549"/>
<line x1="981.194359" y1="74.459653" x2="1170.979519" y2="74.459653" stroke="black" stroke-width="5.173549"/>
<line x1="1170.979519" y1="74.459653" x2="1170.979519" y2="263.856703" stroke="black" stroke-width="5.173549"/>
<line x1="1170.979519" y1="263.856703" x2="981.194359" y2="263.856703" stroke="black" stroke-width="5.173549"/>
<line x1="980.806251" y1="264.244813" x2="1170.979519" y2="74.459653" stroke="black" stroke-width="5.173549"/>
<line x1="1170.591411" y1="263.856703" x2="981.194359" y2="74.847762" stroke="black" stroke-width="5.173549"/>
<line x1="981.308144" y1="455.126025" x2="981.308144" y2="265.728976" stroke="black" stroke-width="5.173549"/>
<line x1="981.308144" y1="265.728976" x2="1171.093304" y2="265.728976" stroke="black" stroke-width="5.173549"/>
<line x1="1171.093304" y1="265.728976" x2="1171.093304" y2="455.126025" stroke="black" stroke-width="5.173549"/>
<line x1="1171.093304" y1="455.126025" x2="981.308144" y2="455.126025" stroke="black" stroke-width="5.173549"/>
<line x1="980.920036" y1="455.514136" x2="1171.093304" y2="265.728976" stroke="black" stroke-width="5.173549"/>
<line x1="1170.705196" y1="455.126025" x2="981.308144" y2="266.117084" stroke="black" stroke-width="5.173549"/>
<line x1="833.111011" y1="1837.387615" x2="833.111011" y2="1647.990566" stroke="black" stroke-width="5.173549"/>
<line x1="833.111011" y1="1647.990566" x2="1022.896171" y2="1647.990566" stroke="black" stroke-width="5.173549"/>
<line x1="1022.896171" y1="1647.990566" x2="1022.896171" y2="1837.387615" stroke="black" stroke-width="5.173549"/>
<line x1="1022.896171" y1="1837.387615" x2="833.111011" y2="1837.387615" stroke="black" stroke-width="5.173549"/>
<line x1="832.722903" y1="1837.775726" x2="1022.896171" y2="1647.990566" stroke="black" stroke-width="5.173549"/>
<line x1="1022.508063" y1="1837.387615" x2="833.111011" y2="1648.378674" stroke="black" stroke-width="5.173549"/>
</g>
</svg>
