<?xml version="1.0"?>
<svg xmlns:xlink="http://www.w3.org/1999/xlink" width="4307.458554" height="1893.135699">
<image x="0" y="0" width="4307.458554" height="1893.135699" xlink:href="ground16-09.png"/>
<g style="stroke-linecap:round">
<line x1="1501.172772" y1="65.56479" x2="1713.617124" y2="65.56479" stroke="black" stroke-width="5.173549"/>
<line x1="1713.617124" y1="65.56479" x2="1713.617124" y2="32.814748" stroke="black" stroke-width="5.173549"/>
<line x1="1713.617124" y1="32.814748" x2="1501.172772" y2="32.814748" stroke="black" stroke-width="5.173549"/>
<line x1="1501.172772" y1="32.814748" x2="1501.172772" y2="65.56479" stroke="black" stroke-width="5.173549"/>
<line x1="1520.995165" y1="33.24567" x2="1520.995165" y2="65.133868" stroke="black" stroke-width="5.173549"/>
<line x1="1693.363809" y1="33.24567" x2="1693.363809" y2="66.426634" stroke="black" stroke-width="5.173549"/>
<line x1="1520.564243" y1="48.327927" x2="1692.932887" y2="48.327927" stroke="black" stroke-width="5.173549"/>
<line x1="387.900809" y1="65.059724" x2="596.392707" y2="65.059724" stroke="black" stroke-width="5.173549"/>
<line x1="596.392707" y1="65.059724" x2="596.392707" y2="32.918986" stroke="black" stroke-width="5.173549"/>
<line x1="596.392707" y1="32.918986" x2="387.900809" y2="32.918986" stroke="black" stroke-width="5.173549"/>
<line x1="387.900809" y1="32.918986" x2="387.900809" y2="65.059724" stroke="black" stroke-width="5.173549"/>
<line x1="407.354414" y1="33.341891" x2="407.354414" y2="64.636819" stroke="black" stroke-width="5.173549"/>
<line x1="576.516198" y1="33.341891" x2="576.516198" y2="65.905534" stroke="black" stroke-width="5.173549"/>
<line x1="406.931509" y1="48.143547" x2="576.093293" y2="48.143547" stroke="black" stroke-width="5.173549"/>
<line x1="50.126013" y1="533.317951" x2="50.126013" y2="325.320107" stroke="black" stroke-width="5.173549"/>
<line x1="50.126013" y1="325.320107" x2="18.061434" y2="325.320107" stroke="black" stroke-width="5.173549"/>
<line x1="18.061434" y1="325.320107" x2="18.061434" y2="533.317951" stroke="black" stroke-width="5.173549"/>
<line x1="18.061434" y1="533.317951" x2="50.126013" y2="533.317951" stroke="black" stroke-width="5.173549"/>
<line x1="18.483338" y1="513.910443" x2="49.704109" y2="513.910443" stroke="black" stroke-width="5.173549"/>
<line x1="18.483338" y1="345.149518" x2="50.969817" y2="345.149518" stroke="black" stroke-width="5.173549"/>
<line x1="33.249919" y1="514.332347" x2="33.249919" y2="345.571419" stroke="black" stroke-width="5.173549"/>
<line x1="49.826476" y1="1569.571446" x2="49.826476" y2="1363.055774" stroke="black" stroke-width="5.173549"/>
<line x1="49.826476" y1="1363.055774" x2="17.990387" y2="1363.055774" stroke="black" stroke-width="5.173549"/>
<line x1="17.990387" y1="1363.055774" x2="17.990387" y2="1569.571446" stroke="black" stroke-width="5.173549"/>
<line x1="17.990387" y1="1569.571446" x2="49.826476" y2="1569.571446" stroke="black" stroke-width="5.173549"/>
<line x1="18.409283" y1="1550.302234" x2="49.407579" y2="1550.302234" stroke="black" stroke-width="5.173549"/>
<line x1="18.409283" y1="1382.74388" x2="50.664266" y2="1382.74388" stroke="black" stroke-width="5.173549"/>
<line x1="33.070638" y1="1550.721131" x2="33.070638" y2="1383.162776" stroke="black" stroke-width="5.173549"/>
<line x1="440.963045" y1="1842.887312" x2="233.459259" y2="1842.887312" stroke="black" stroke-width="5.173549"/>
<line x1="233.459259" y1="1842.887312" x2="233.459259" y2="1874.875726" stroke="black" stroke-width="5.173549"/>
<line x1="233.459259" y1="1874.875726" x2="440.963045" y2="1874.875726" stroke="black" stroke-width="5.173549"/>
<line x1="440.963045" y1="1874.875726" x2="440.963045" y2="1842.887312" stroke="black" stroke-width="5.173549"/>
<line x1="421.601637" y1="1874.454826" x2="421.601637" y2="1843.308212" stroke="black" stroke-width="5.173549"/>
<line x1="253.241566" y1="1874.454826" x2="253.241566" y2="1842.045513" stroke="black" stroke-width="5.173549"/>
<line x1="422.022536" y1="1859.72332" x2="253.662466" y2="1859.72332" stroke="black" stroke-width="5.173549"/>
<line x1="1467.386823" y1="1842.569682" x2="1259.883037" y2="1842.569682" stroke="black" stroke-width="5.173549"/>
<line x1="1259.883037" y1="1842.569682" x2="1259.883037" y2="1874.558095" stroke="black" stroke-width="5.173549"/>
<line x1="1259.883037" y1="1874.558095" x2="1467.386823" y2="1874.558095" stroke="black" stroke-width="5.173549"/>
<line x1="1467.386823" y1="1874.558095" x2="1467.386823" y2="1842.569682" stroke="black" stroke-width="5.173549"/>
<line x1="1448.025415" y1="1874.137196" x2="1448.025415" y2="1842.990581" stroke="black" stroke-width="5.173549"/>
<line x1="1279.665344" y1="1874.137196" x2="1279.665344" y2="1841.727883" stroke="black" stroke-width="5.173549"/>
<line x1="1448.446314" y1="1859.40569" x2="1280.086244" y2="1859.40569" stroke="black" stroke-width="5.173549"/>
<line x1="2343.276617" y1="1092.140299" x2="2356.300903" y2="1092.140299" stroke="black" stroke-width="5.173549"/>
<line x1="2356.300903" y1="1092.140299" x2="2356.300903" y2="1300.528857" stroke="black" stroke-width="5.173549"/>
<line x1="2343.276617" y1="1300.528857" x2="2356.300903" y2="1300.528857" stroke="black" stroke-width="5.173549"/>
<line x1="2343.276617" y1="1092.140299" x2="2343.276617" y2="1300.528857" stroke="black" stroke-width="5.173549"/>
<line x1="2746.161161" y1="1092.140299" x2="2760.053732" y2="1092.140299" stroke="black" stroke-width="5.173549"/>
<line x1="2760.053732" y1="1092.140299" x2="2760.053732" y2="1300.528857" stroke="black" stroke-width="5.173549"/>
<line x1="2746.161161" y1="1300.528857" x2="2760.053732" y2="1300.528857" stroke="black" stroke-width="5.173549"/>
<line x1="2746.161161" y1="1092.140299" x2="2746.161161" y2="1300.528857" stroke="black" stroke-width="5.173549"/>
<path d="m 2343.276617,1092.140299 a 208.3885580000001,208.3885580000001 0 0 1 208.3885580000001,208.3885580000001" fill="none" stroke="black" stroke-width="5.173549"/>
<path d="m 2551.665175,1300.528857 a 208.38855749999993,208.38855749999993 0 0 1 208.38855699999976,-208.3885580000001" fill="none" stroke="black" stroke-width="5.173549"/>
<line x1="3571.182719" y1="1089.212007" x2="3584.395307" y2="1089.212007" stroke="black" stroke-width="5.173549"/>
<line x1="3584.395307" y1="1089.212007" x2="3584.395307" y2="1300.613412" stroke="black" stroke-width="5.173549"/>
<line x1="3571.182719" y1="1300.613412" x2="3584.395307" y2="1300.613412" stroke="black" stroke-width="5.173549"/>
<line x1="3571.182719" y1="1089.212007" x2="3571.182719" y2="1300.613412" stroke="black" stroke-width="5.173549"/>
<line x1="3979.892099" y1="1089.212007" x2="3993.985526" y2="1089.212007" stroke="black" stroke-width="5.173549"/>
<line x1="3993.985526" y1="1089.212007" x2="3993.985526" y2="1300.613412" stroke="black" stroke-width="5.173549"/>
<line x1="3979.892099" y1="1300.613412" x2="3993.985526" y2="1300.613412" stroke="black" stroke-width="5.173549"/>
<line x1="3979.892099" y1="1089.212007" x2="3979.892099" y2="1300.613412" stroke="black" stroke-width="5.173549"/>
<path d="m 3571.182719,1089.212007 a 211.40140499999995,211.40140499999995 0 0 1 211.40140500000007,211.40140499999984" fill="none" stroke="black" stroke-width="5.173549"/>
<path d="m 3782.584124,1300.613412 a 211.4014034999999,211.4014034999999 0 0 1 211.40140199999996,-211.40140499999984" fill="none" stroke="black" stroke-width="5.173549"/>
<line x1="2964.797099" y1="1096.111521" x2="2977.586005" y2="1096.111521" stroke="black" stroke-width="5.173549"/>
<line x1="2977.586005" y1="1096.111521" x2="2977.586005" y2="1300.734018" stroke="black" stroke-width="5.173549"/>
<line x1="2964.797099" y1="1300.734018" x2="2977.586005" y2="1300.734018" stroke="black" stroke-width="5.173549"/>
<line x1="2964.797099" y1="1096.111521" x2="2964.797099" y2="1300.734018" stroke="black" stroke-width="5.173549"/>
<line x1="3360.400597" y1="1096.111521" x2="3374.042096" y2="1096.111521" stroke="black" stroke-width="5.173549"/>
<line x1="3374.042096" y1="1096.111521" x2="3374.042096" y2="1300.734018" stroke="black" stroke-width="5.173549"/>
<line x1="3360.400597" y1="1300.734018" x2="3374.042096" y2="1300.734018" stroke="black" stroke-width="5.173549"/>
<line x1="3360.400597" y1="1096.111521" x2="3360.400597" y2="1300.734018" stroke="black" stroke-width="5.173549"/>
<path d="m 2964.797099,1096.111521 a 204.62249700000018,204.62249700000018 0 0 1 204.6224970000003,204.62249700000007" fill="none" stroke="black" stroke-width="5.173549"/>
<path d="m 3169.419596,1300.734018 a 204.6224985,204.6224985 0 0 1 204.62249999999995,-204.62249700000007" fill="none" stroke="black" stroke-width="5.173549"/>
<line x1="4252.045322" y1="1030.388379" x2="4252.045322" y2="1237.878208" stroke="black" stroke-width="5.173549"/>
<line x1="4252.045322" y1="1237.878208" x2="4289.157323" y2="1237.878208" stroke="black" stroke-width="5.173549"/>
<line x1="4289.157323" y1="1237.878208" x2="4289.157323" y2="1030.388379" stroke="black" stroke-width="5.173549"/>
<line x1="4289.157323" y1="1030.388379" x2="4252.045322" y2="1030.388379" stroke="black" stroke-width="5.173549"/>
<line x1="4252.045322" y1="1040.088107" x2="4239.393504" y2="1040.088107" stroke="black" stroke-width="5.173549"/>
<line x1="4239.393504" y1="1040.088107" x2="4239.393504" y2="1227.756751" stroke="black" stroke-width="5.173549"/>
<line x1="4252.045322" y1="1227.756751" x2="4239.393504" y2="1227.756751" stroke="black" stroke-width="5.173549"/>
<line x1="954.044289" y1="840.013072" x2="972.615108" y2="840.013072" stroke="black" stroke-width="5.173549"/>
<line x1="972.615108" y1="840.013072" x2="972.615108" y2="803.777333" stroke="black" stroke-width="5.173549"/>
<line x1="972.615108" y1="803.777333" x2="954.044289" y2="803.777333" stroke="black" stroke-width="5.173549"/>
<line x1="954.044289" y1="803.777333" x2="954.044289" y2="840.013072" stroke="black" stroke-width="5.173549"/>
<line x1="1154.246754" y1="803.777333" x2="1154.246754" y2="623.051579" stroke="black" stroke-width="5.173549"/>
<line x1="1154.699702" y1="840.918967" x2="1173.270517" y2="840.918967" stroke="black" stroke-width="5.173549"/>
<line x1="1173.270517" y1="840.918967" x2="1173.270517" y2="804.683225" stroke="black" stroke-width="5.173549"/>
<line x1="1173.270517" y1="804.683225" x2="1154.699702" y2="804.683225" stroke="black" stroke-width="5.173549"/>
<line x1="1154.699702" y1="804.683225" x2="1154.699702" y2="840.918967" stroke="black" stroke-width="5.173549"/>
<path d="m 972.615108,805.136173 a 181.6316465,181.6316465 0 0 1 181.63164600000005,-181.63164699999993" fill="none" stroke="black" stroke-width="5.173549"/>
<line x1="53.412936" y1="578.052502" x2="274.786112" y2="578.052502" stroke="black" stroke-width="5.173549"/>
<line x1="274.786112" y1="578.052502" x2="274.786112" y2="799.879311" stroke="black" stroke-width="5.173549"/>
<line x1="274.786112" y1="799.879311" x2="53.412936" y2="799.879311" stroke="black" stroke-width="5.173549"/>
<line x1="53.412936" y1="799.879311" x2="53.412936" y2="578.052502" stroke="black" stroke-width="5.173549"/>
<line x1="52.959304" y1="577.598867" x2="274.786112" y2="799.879311" stroke="black" stroke-width="5.173549"/>
<line x1="53.412936" y1="799.425678" x2="274.33248" y2="578.052502" stroke="black" stroke-width="5.173549"/>
<line x1="1274.097936" y1="1083.830274" x2="1256.238165" y2="1083.830274" stroke="black" stroke-width="5.173549"/>
<line x1="1256.238165" y1="1083.830274" x2="1256.238165" y2="1118.678608" stroke="black" stroke-width="5.173549"/>
<line x1="1256.238165" y1="1118.678608" x2="1274.097936" y2="1118.678608" stroke="black" stroke-width="5.173549"/>
<line x1="1274.097936" y1="1118.678608" x2="1274.097936" y2="1083.830274" stroke="black" stroke-width="5.173549"/>
<line x1="1081.560882" y1="1118.678608" x2="1081.560882" y2="1292.484683" stroke="black" stroke-width="5.173549"/>
<line x1="1081.12528" y1="1082.959064" x2="1063.265506" y2="1082.959064" stroke="black" stroke-width="5.173549"/>
<line x1="1063.265506" y1="1082.959064" x2="1063.265506" y2="1117.8074" stroke="black" stroke-width="5.173549"/>
<line x1="1063.265506" y1="1117.8074" x2="1081.12528" y2="1117.8074" stroke="black" stroke-width="5.173549"/>
<line x1="1081.12528" y1="1117.8074" x2="1081.12528" y2="1082.959064" stroke="black" stroke-width="5.173549"/>
<path d="m 1256.238165,1117.371795 a 174.677283,174.677283 0 0 1 -174.677283,174.677283" fill="none" stroke="black" stroke-width="5.173549"/>
<line x1="2149.784335" y1="1399.667013" x2="2149.784335" y2="1604.700515" stroke="black" stroke-width="5.173549"/>
<line x1="2149.784335" y1="1604.700515" x2="2181.391934" y2="1604.700515" stroke="black" stroke-width="5.173549"/>
<line x1="2181.391934" y1="1604.700515" x2="2181.391934" y2="1399.667013" stroke="black" stroke-width="5.173549"/>
<line x1="2181.391934" y1="1399.667013" x2="2149.784335" y2="1399.667013" stroke="black" stroke-width="5.173549"/>
<line x1="2180.976045" y1="1418.797929" x2="2150.200224" y2="1418.797929" stroke="black" stroke-width="5.173549"/>
<line x1="2180.976045" y1="1585.15371" x2="2148.952556" y2="1585.15371" stroke="black" stroke-width="5.173549"/>
<line x1="2166.419913" y1="1418.382039" x2="2166.419913" y2="1584.737821" stroke="black" stroke-width="5.173549"/>
<line x1="1217.501921" y1="357.119769" x2="1217.501921" y2="803.248252" stroke="black" stroke-width="5.173549"/>
<line x1="1217.501921" y1="803.248252" x2="1416.182622" y2="803.248252" stroke="black" stroke-width="5.173549"/>
<line x1="1416.182622" y1="803.248252" x2="1416.182622" y2="357.119769" stroke="black" stroke-width="5.173549"/>
<line x1="1416.182622" y1="357.119769" x2="1217.501921" y2="357.119769" stroke="black" stroke-width="5.173549"/>
<line x1="1385.477422" y1="717.454313" x2="1385.477422" y2="393.243532" stroke="black" stroke-width="5.173549"/>
<line x1="1385.477422" y1="393.243532" x2="1250.916402" y2="393.243532" stroke="black" stroke-width="5.173549"/>
<line x1="1250.916402" y1="393.243532" x2="1250.916402" y2="723.775971" stroke="black" stroke-width="5.173549"/>
<path d="m 1385.768674,716.530041 a 72.24752666021107,72.24752666021107 0 0 1 -136.119007,4.896106000000032" fill="none" stroke="black" stroke-width="5.173549"/>
<line x1="1697.778678" y1="507.253915" x2="1855.199605" y2="507.253915" stroke="black" stroke-width="5.173549"/>
<line x1="1855.199605" y1="507.253915" x2="1855.199605" y2="664.997426" stroke="black" stroke-width="5.173549"/>
<line x1="1855.199605" y1="664.997426" x2="1697.778678" y2="664.997426" stroke="black" stroke-width="5.173549"/>
<line x1="1697.778678" y1="664.997426" x2="1697.778678" y2="507.253915" stroke="black" stroke-width="5.173549"/>
<line x1="1697.456094" y1="506.931331" x2="1855.199605" y2="664.997426" stroke="black" stroke-width="5.173549"/>
<line x1="1697.778678" y1="664.674842" x2="1854.877021" y2="507.253915" stroke="black" stroke-width="5.173549"/>
<line x1="2339.150739" y1="178.010188" x2="2339.150739" y2="495.053383" stroke="black" stroke-width="5.173549"/>
<line x1="2339.150739" y1="495.053383" x2="2184.527212" y2="495.053383" stroke="black" stroke-width="5.173549"/>
<line x1="2184.527212" y1="178.010188" x2="2184.527212" y2="495.053383" stroke="black" stroke-width="5.173549"/>
<line x1="2339.150739" y1="178.010188" x2="2184.527212" y2="178.010188" stroke="black" stroke-width="5.173549"/>
<line x1="2331.354594" y1="185.80633" x2="2331.354594" y2="347.576322" stroke="black" stroke-width="5.173549"/>
<line x1="2331.354594" y1="347.576322" x2="2192.973035" y2="347.576322" stroke="black" stroke-width="5.173549"/>
<line x1="2192.973035" y1="185.80633" x2="2192.973035" y2="347.576322" stroke="black" stroke-width="5.173549"/>
<line x1="2331.354594" y1="185.80633" x2="2192.973035" y2="185.80633" stroke="black" stroke-width="5.173549"/>
<line x1="2322.259094" y1="364.467969" x2="2322.259094" y2="478.161738" stroke="black" stroke-width="5.173549"/>
<line x1="2298.220981" y1="364.467969" x2="2298.220981" y2="478.161738" stroke="black" stroke-width="5.173549"/>
<line x1="2273.533191" y1="365.117647" x2="2273.533191" y2="478.811416" stroke="black" stroke-width="5.173549"/>
<line x1="2249.495079" y1="365.117647" x2="2249.495079" y2="478.811416" stroke="black" stroke-width="5.173549"/>
<line x1="2225.45697" y1="364.467969" x2="2225.45697" y2="478.161738" stroke="black" stroke-width="5.173549"/>
<line x1="2201.418857" y1="364.467969" x2="2201.418857" y2="478.161738" stroke="black" stroke-width="5.173549"/>
<line x1="2192.973035" y1="247.525806" x2="2209.215002" y2="247.525806" stroke="black" stroke-width="5.173549"/>
<line x1="2209.215002" y1="247.525806" x2="2209.215002" y2="287.805884" stroke="black" stroke-width="5.173549"/>
<line x1="2209.215002" y1="287.805884" x2="2193.622715" y2="287.805884" stroke="black" stroke-width="5.173549"/>
<circle cx="2313.813269" cy="329.385319" r="9.74518019465271" fill="none" stroke="black" stroke-width="5.173549"/>
<line x1="3102.32214" y1="520.162921" x2="3495.154185" y2="520.162921" stroke="black" stroke-width="5.173549"/>
<line x1="3495.154185" y1="520.162921" x2="3495.154185" y2="335.6269" stroke="black" stroke-width="5.173549"/>
<line x1="3495.154185" y1="335.6269" x2="3102.32214" y2="335.6269" stroke="black" stroke-width="5.173549"/>
<line x1="3102.32214" y1="335.6269" x2="3102.32214" y2="520.162921" stroke="black" stroke-width="5.173549"/>
<line x1="3261.514159" y1="335.6269" x2="3261.514159" y2="254.842891" stroke="black" stroke-width="5.173549"/>
<line x1="3261.514159" y1="254.842891" x2="3183.10615" y2="254.842891" stroke="black" stroke-width="5.173549"/>
<line x1="3183.10615" y1="254.842891" x2="3183.10615" y2="335.6269" stroke="black" stroke-width="5.173549"/>
<line x1="3183.89815" y1="272.266893" x2="3261.514159" y2="272.266893" stroke="black" stroke-width="5.173549"/>
<line x1="3183.10615" y1="601.73893" x2="3261.514159" y2="601.73893" stroke="black" stroke-width="5.173549"/>
<line x1="3261.514159" y1="601.73893" x2="3261.514159" y2="520.162921" stroke="black" stroke-width="5.173549"/>
<line x1="3183.10615" y1="520.162921" x2="3183.10615" y2="601.73893" stroke="black" stroke-width="5.173549"/>
<line x1="3183.89815" y1="584.314928" x2="3261.514159" y2="584.314928" stroke="black" stroke-width="5.173549"/>
<line x1="3412.786176" y1="335.6269" x2="3412.786176" y2="254.842891" stroke="black" stroke-width="5.173549"/>
<line x1="3412.786176" y1="254.842891" x2="3334.378167" y2="254.842891" stroke="black" stroke-width="5.173549"/>
<line x1="3334.378167" y1="254.842891" x2="3334.378167" y2="335.6269" stroke="black" stroke-width="5.173549"/>
<line x1="3334.378167" y1="272.266893" x2="3412.786176" y2="272.266893" stroke="black" stroke-width="5.173549"/>
<line x1="3334.378167" y1="601.73893" x2="3412.786176" y2="601.73893" stroke="black" stroke-width="5.173549"/>
<line x1="3412.786176" y1="601.73893" x2="3412.786176" y2="520.162921" stroke="black" stroke-width="5.173549"/>
<line x1="3334.378167" y1="520.162921" x2="3334.378167" y2="601.73893" stroke="black" stroke-width="5.173549"/>
<line x1="3334.378167" y1="584.314928" x2="3412.786176" y2="584.314928" stroke="black" stroke-width="5.173549"/>
<line x1="4062.526343" y1="546.66385" x2="4252.606365" y2="546.66385" stroke="black" stroke-width="5.173549"/>
<line x1="4252.606365" y1="546.66385" x2="4252.606365" y2="82.868597" stroke="black" stroke-width="5.173549"/>
<line x1="4252.606365" y1="82.868597" x2="4062.526343" y2="82.868597" stroke="black" stroke-width="5.173549"/>
<line x1="4062.526343" y1="82.868597" x2="4062.526343" y2="106.6286" stroke="black" stroke-width="5.173549"/>
<line x1="4062.526343" y1="106.6286" x2="4229.796762" y2="106.6286" stroke="black" stroke-width="5.173549"/>
<line x1="4229.796762" y1="106.6286" x2="4229.796762" y2="521.953447" stroke="black" stroke-width="5.173549"/>
<line x1="4229.796762" y1="521.953447" x2="4062.526343" y2="521.953447" stroke="black" stroke-width="5.173549"/>
<line x1="4062.526343" y1="521.953447" x2="4062.526343" y2="546.66385" stroke="black" stroke-width="5.173549"/>
<line x1="4068.228744" y1="521.953447" x2="4068.228744" y2="106.6286" stroke="black" stroke-width="5.173549"/>
<line x1="4067.278344" y1="314.766223" x2="4228.846362" y2="314.766223" stroke="black" stroke-width="5.173549"/>
<line x1="1020.061725" y1="1315.564125" x2="830.664676" y2="1315.564125" stroke="black" stroke-width="5.173549"/>
<line x1="830.664676" y1="1315.564125" x2="830.664676" y2="1125.778965" stroke="black" stroke-width="5.173549"/>
<line x1="830.664676" y1="1125.778965" x2="1020.061725" y2="1125.778965" stroke="black" stroke-width="5.173549"/>
<line x1="1020.061725" y1="1125.778965" x2="1020.061725" y2="1315.564125" stroke="black" stroke-width="5.173549"/>
<line x1="1020.449836" y1="1315.952233" x2="830.664676" y2="1125.778965" stroke="black" stroke-width="5.173549"/>
<line x1="1020.061725" y1="1126.167073" x2="831.052784" y2="1315.564125" stroke="black" stroke-width="5.173549"/>
<line x1="2443.97494" y1="64.637708" x2="2650.984668" y2="64.637708" stroke="black" stroke-width="5.173549"/>
<line x1="2650.984668" y1="64.637708" x2="2650.984668" y2="32.725459" stroke="black" stroke-width="5.173549"/>
<line x1="2650.984668" y1="32.725459" x2="2443.97494" y2="32.725459" stroke="black" stroke-width="5.173549"/>
<line x1="2443.97494" y1="32.725459" x2="2443.97494" y2="64.637708" stroke="black" stroke-width="5.173549"/>
<line x1="2463.290248" y1="33.145357" x2="2463.290248" y2="64.21781" stroke="black" stroke-width="5.173549"/>
<line x1="2631.249459" y1="33.145357" x2="2631.249459" y2="65.477504" stroke="black" stroke-width="5.173549"/>
<line x1="2462.87035" y1="47.841787" x2="2630.829561" y2="47.841787" stroke="black" stroke-width="5.173549"/>
<line x1="3578.119258" y1="65.722702" x2="3785.128986" y2="65.722702" stroke="black" stroke-width="5.173549"/>
<line x1="3785.128986" y1="65.722702" x2="3785.128986" y2="33.810453" stroke="black" stroke-width="5.173549"/>
<line x1="3785.128986" y1="33.810453" x2="3578.119258" y2="33.810453" stroke="black" stroke-width="5.173549"/>
<line x1="3578.119258" y1="33.810453" x2="3578.119258" y2="65.722702" stroke="black" stroke-width="5.173549"/>
<line x1="3597.434566" y1="34.230351" x2="3597.434566" y2="65.302804" stroke="black" stroke-width="5.173549"/>
<line x1="3765.393777" y1="34.230351" x2="3765.393777" y2="66.562498" stroke="black" stroke-width="5.173549"/>
<line x1="3597.014668" y1="48.926782" x2="3764.973879" y2="48.926782" stroke="black" stroke-width="5.173549"/>
<line x1="3786.525589" y1="65.638972" x2="3993.535318" y2="65.638972" stroke="black" stroke-width="5.173549"/>
<line x1="3993.535318" y1="65.638972" x2="3993.535318" y2="33.726723" stroke="black" stroke-width="5.173549"/>
<line x1="3993.535318" y1="33.726723" x2="3786.525589" y2="33.726723" stroke="black" stroke-width="5.173549"/>
<line x1="3786.525589" y1="33.726723" x2="3786.525589" y2="65.638972" stroke="black" stroke-width="5.173549"/>
<line x1="3805.840898" y1="34.146621" x2="3805.840898" y2="65.219074" stroke="black" stroke-width="5.173549"/>
<line x1="3973.800109" y1="34.146621" x2="3973.800109" y2="66.478768" stroke="black" stroke-width="5.173549"/>
<line x1="3805.421" y1="48.843052" x2="3973.380211" y2="48.843052" stroke="black" stroke-width="5.173549"/>
<line x1="53.027362" y1="1172.545735" x2="262.392586" y2="1172.545735" stroke="black" stroke-width="5.173549"/>
<line x1="262.392586" y1="1172.545735" x2="262.392586" y2="841.331297" stroke="black" stroke-width="5.173549"/>
<line x1="262.392586" y1="841.331297" x2="53.027362" y2="841.331297" stroke="black" stroke-width="5.173549"/>
<line x1="53.027362" y1="841.331297" x2="53.027362" y2="1172.545735" stroke="black" stroke-width="5.173549"/>
<line x1="52.354162" y1="900.572904" x2="263.065786" y2="900.572904" stroke="black" stroke-width="5.173549"/>
<line x1="263.065786" y1="900.572904" x2="53.700562" y2="950.38971" stroke="black" stroke-width="5.173549"/>
<line x1="53.700562" y1="950.38971" x2="85.340966" y2="996.840515" stroke="black" stroke-width="5.173549"/>
<line x1="85.340966" y1="996.840515" x2="263.065786" y2="899.899704" stroke="black" stroke-width="5.173549"/>
<line x1="466.897218" y1="798.687496" x2="480.194849" y2="770.808439" stroke="black" stroke-width="5.173549"/>
<line x1="480.194849" y1="770.808439" x2="291.046163" y2="680.589141" stroke="black" stroke-width="5.173549"/>
<line x1="291.046163" y1="680.589141" x2="277.748538" y2="708.468203" stroke="black" stroke-width="5.173549"/>
<line x1="277.748538" y1="708.468203" x2="466.897218" y2="798.687496" stroke="black" stroke-width="5.173549"/>
<line x1="554.661564" y1="614.685715" x2="567.959194" y2="586.806658" stroke="black" stroke-width="5.173549"/>
<line x1="567.959194" y1="586.806658" x2="378.810513" y2="496.587365" stroke="black" stroke-width="5.173549"/>
<line x1="378.810513" y1="496.587365" x2="365.512883" y2="524.466422" stroke="black" stroke-width="5.173549"/>
<line x1="365.512883" y1="524.466422" x2="554.661564" y2="614.685715" stroke="black" stroke-width="5.173549"/>
<line x1="479.990267" y1="771.237345" x2="554.661564" y2="614.685715" stroke="black" stroke-width="5.173549"/>
<line x1="291.494823" y1="681.856116" x2="279.361272" y2="646.585399" stroke="black" stroke-width="5.173549"/>
<line x1="331.528887" y1="537.21371" x2="366.57528" y2="524.446673" stroke="black" stroke-width="5.173549"/>
<line x1="278.542957" y1="648.301032" x2="332.347207" y2="535.498076" stroke="black" stroke-width="5.173549"/>
<line x1="439.877443" y1="751.57802" x2="514.548739" y2="595.02639" stroke="black" stroke-width="5.173549"/>
<line x1="50.307194" y1="1608.76544" x2="271.680371" y2="1608.76544" stroke="black" stroke-width="5.173549"/>
<line x1="271.680371" y1="1608.76544" x2="271.680371" y2="1830.592249" stroke="black" stroke-width="5.173549"/>
<line x1="271.680371" y1="1830.592249" x2="50.307194" y2="1830.592249" stroke="black" stroke-width="5.173549"/>
<line x1="50.307194" y1="1830.592249" x2="50.307194" y2="1608.76544" stroke="black" stroke-width="5.173549"/>
<line x1="49.853562" y1="1608.311806" x2="271.680371" y2="1830.592249" stroke="black" stroke-width="5.173549"/>
<line x1="50.307194" y1="1830.138617" x2="271.226739" y2="1608.76544" stroke="black" stroke-width="5.173549"/>
<line x1="465.675366" y1="1831.073688" x2="584.104123" y2="1658.758773" stroke="black" stroke-width="5.173549"/>
<line x1="584.104123" y1="1658.758773" x2="392.991221" y2="1527.410511" stroke="black" stroke-width="5.173549"/>
<line x1="392.991221" y1="1527.410511" x2="274.562462" y2="1699.725427" stroke="black" stroke-width="5.173549"/>
<line x1="274.562462" y1="1699.725427" x2="465.675366" y2="1831.073688" stroke="black" stroke-width="5.173549"/>
<line x1="439.044877" y1="1812.771062" x2="557.473642" y2="1640.456144" stroke="black" stroke-width="5.173549"/>
<line x1="53.556605" y1="407.283231" x2="262.921828" y2="407.283231" stroke="black" stroke-width="5.173549"/>
<line x1="262.921828" y1="407.283231" x2="262.921828" y2="76.068793" stroke="black" stroke-width="5.173549"/>
<line x1="262.921828" y1="76.068793" x2="53.556605" y2="76.068793" stroke="black" stroke-width="5.173549"/>
<line x1="53.556605" y1="76.068793" x2="53.556605" y2="407.283231" stroke="black" stroke-width="5.173549"/>
<line x1="52.883404" y1="135.3104" x2="263.595028" y2="135.3104" stroke="black" stroke-width="5.173549"/>
<line x1="263.595028" y1="135.3104" x2="54.229805" y2="185.127206" stroke="black" stroke-width="5.173549"/>
<line x1="54.229805" y1="185.127206" x2="85.870208" y2="231.578011" stroke="black" stroke-width="5.173549"/>
<line x1="85.870208" y1="231.578011" x2="263.595028" y2="134.6372" stroke="black" stroke-width="5.173549"/>
<line x1="1441.968826" y1="1456.887694" x2="1651.33405" y2="1456.887694" stroke="black" stroke-width="5.173549"/>
<line x1="1651.33405" y1="1456.887694" x2="1651.33405" y2="1125.673256" stroke="black" stroke-width="5.173549"/>
<line x1="1651.33405" y1="1125.673256" x2="1441.968826" y2="1125.673256" stroke="black" stroke-width="5.173549"/>
<line x1="1441.968826" y1="1125.673256" x2="1441.968826" y2="1456.887694" stroke="black" stroke-width="5.173549"/>
<line x1="1441.295626" y1="1184.914863" x2="1652.00725" y2="1184.914863" stroke="black" stroke-width="5.173549"/>
<line x1="1652.00725" y1="1184.914863" x2="1442.642026" y2="1234.731669" stroke="black" stroke-width="5.173549"/>
<line x1="1442.642026" y1="1234.731669" x2="1474.28243" y2="1281.182474" stroke="black" stroke-width="5.173549"/>
<line x1="1474.28243" y1="1281.182474" x2="1652.00725" y2="1184.241663" stroke="black" stroke-width="5.173549"/>
<line x1="1653.434968" y1="1456.38194" x2="1862.800192" y2="1456.38194" stroke="black" stroke-width="5.173549"/>
<line x1="1862.800192" y1="1456.38194" x2="1862.800192" y2="1125.167503" stroke="black" stroke-width="5.173549"/>
<line x1="1862.800192" y1="1125.167503" x2="1653.434968" y2="1125.167503" stroke="black" stroke-width="5.173549"/>
<line x1="1653.434968" y1="1125.167503" x2="1653.434968" y2="1456.38194" stroke="black" stroke-width="5.173549"/>
<line x1="1652.761768" y1="1184.40911" x2="1863.473392" y2="1184.40911" stroke="black" stroke-width="5.173549"/>
<line x1="1863.473392" y1="1184.40911" x2="1654.108168" y2="1234.225915" stroke="black" stroke-width="5.173549"/>
<line x1="1654.108168" y1="1234.225915" x2="1685.748572" y2="1280.67672" stroke="black" stroke-width="5.173549"/>
<line x1="1685.748572" y1="1280.67672" x2="1863.473392" y2="1183.735909" stroke="black" stroke-width="5.173549"/>
<line x1="1919.572859" y1="1613.63281" x2="2140.946035" y2="1613.63281" stroke="black" stroke-width="5.173549"/>
<line x1="2140.946035" y1="1613.63281" x2="2140.946035" y2="1835.459618" stroke="black" stroke-width="5.173549"/>
<line x1="2140.946035" y1="1835.459618" x2="1919.572859" y2="1835.459618" stroke="black" stroke-width="5.173549"/>
<line x1="1919.572859" y1="1835.459618" x2="1919.572859" y2="1613.63281" stroke="black" stroke-width="5.173549"/>
<line x1="1919.119227" y1="1613.179175" x2="2140.946035" y2="1835.459618" stroke="black" stroke-width="5.173549"/>
<line x1="1919.572859" y1="1835.005986" x2="2140.492403" y2="1613.63281" stroke="black" stroke-width="5.173549"/>
<line x1="1637.995836" y1="1609.619847" x2="1647.284038" y2="1639.07826" stroke="black" stroke-width="5.173549"/>
<line x1="1647.284038" y1="1639.07826" x2="1847.148035" y2="1576.061383" stroke="black" stroke-width="5.173549"/>
<line x1="1847.148035" y1="1576.061383" x2="1837.859836" y2="1546.60297" stroke="black" stroke-width="5.173549"/>
<line x1="1837.859836" y1="1546.60297" x2="1637.995836" y2="1609.619847" stroke="black" stroke-width="5.173549"/>
<line x1="1699.297969" y1="1804.045367" x2="1708.586171" y2="1833.503784" stroke="black" stroke-width="5.173549"/>
<line x1="1708.586171" y1="1833.503784" x2="1908.45017" y2="1770.486907" stroke="black" stroke-width="5.173549"/>
<line x1="1908.45017" y1="1770.486907" x2="1899.161969" y2="1741.028495" stroke="black" stroke-width="5.173549"/>
<line x1="1899.161969" y1="1741.028495" x2="1699.297969" y2="1804.045367" stroke="black" stroke-width="5.173549"/>
<line x1="1647.141146" y1="1638.625052" x2="1699.297969" y2="1804.045367" stroke="black" stroke-width="5.173549"/>
<line x1="1845.955835" y1="1575.440759" x2="1878.884327" y2="1592.961068" stroke="black" stroke-width="5.173549"/>
<line x1="1915.322654" y1="1708.528687" x2="1898.398448" y2="1741.76749" stroke="black" stroke-width="5.173549"/>
<line x1="1878.312745" y1="1591.148244" x2="1915.894238" y2="1710.341514" stroke="black" stroke-width="5.173549"/>
<line x1="1689.885436" y1="1625.646092" x2="1742.042263" y2="1791.066406" stroke="black" stroke-width="5.173549"/>
<line x1="1854.196271" y1="123.68913" x2="1670.45225" y2="123.68913" stroke="black" stroke-width="5.173549"/>
<line x1="1670.45225" y1="123.68913" x2="1670.45225" y2="74.585124" stroke="black" stroke-width="5.173549"/>
<line x1="1854.196271" y1="74.585124" x2="1670.45225" y2="74.585124" stroke="black" stroke-width="5.173549"/>
<line x1="1854.196271" y1="123.68913" x2="1854.196271" y2="74.585124" stroke="black" stroke-width="5.173549"/>
<line x1="1812.616266" y1="151.409133" x2="1812.616266" y2="123.68913" stroke="black" stroke-width="5.173549"/>
<line x1="1713.616255" y1="123.68913" x2="1713.616255" y2="152.993133" stroke="black" stroke-width="5.173549"/>
<circle cx="1763.908261" cy="196.553138" r="66.52800756" fill="none" stroke="black" stroke-width="5.173549"/>
<circle cx="1763.908261" cy="196.553138" r="57.02400648" fill="none" stroke="black" stroke-width="5.173549"/>
<line x1="1243.229224" y1="77.847725" x2="1218.677221" y2="96.459727" stroke="black" stroke-width="5.173549"/>
<line x1="1218.677221" y1="96.459727" x2="1218.677221" y2="243.771744" stroke="black" stroke-width="5.173549"/>
<line x1="1218.677221" y1="243.771744" x2="1246.793224" y2="262.779746" stroke="black" stroke-width="5.173549"/>
<line x1="1246.001224" y1="99.627728" x2="1246.001224" y2="242.583744" stroke="black" stroke-width="5.173549"/>
<circle cx="1267.781227" cy="168.927735" r="13.068001485" fill="none" stroke="black" stroke-width="5.173549"/>
<path d="m 1245.333877,101.180978 a 74.84400803731003,74.84400803731003 0 1 1 0.40204799999992247,139.609018" fill="none" stroke="black" stroke-width="5.173549"/>
<path d="m 1242.571859,77.894024 a 95.43601157238837,95.43601157238837 0 1 1 3.0749610000000303,184.46702" fill="none" stroke="black" stroke-width="5.173549"/>
<line x1="1461.984904" y1="839.659365" x2="1479.175458" y2="839.659365" stroke="black" stroke-width="5.173549"/>
<line x1="1479.175458" y1="839.659365" x2="1479.175458" y2="806.116822" stroke="black" stroke-width="5.173549"/>
<line x1="1479.175458" y1="806.116822" x2="1461.984904" y2="806.116822" stroke="black" stroke-width="5.173549"/>
<line x1="1461.984904" y1="806.116822" x2="1461.984904" y2="839.659365" stroke="black" stroke-width="5.173549"/>
<line x1="1647.307453" y1="806.116822" x2="1647.307453" y2="638.823387" stroke="black" stroke-width="5.173549"/>
<line x1="1647.726735" y1="840.497927" x2="1664.917289" y2="840.497927" stroke="black" stroke-width="5.173549"/>
<line x1="1664.917289" y1="840.497927" x2="1664.917289" y2="806.955384" stroke="black" stroke-width="5.173549"/>
<line x1="1664.917289" y1="806.955384" x2="1647.726735" y2="806.955384" stroke="black" stroke-width="5.173549"/>
<line x1="1647.726735" y1="806.955384" x2="1647.726735" y2="840.497927" stroke="black" stroke-width="5.173549"/>
<path d="m 1479.175458,807.374667 a 168.1319965,168.1319965 0 0 1 168.13199499999996,-168.13199800000007" fill="none" stroke="black" stroke-width="5.173549"/>
<line x1="3682.667153" y1="68.324159" x2="3612.872137" y2="265.419206" stroke="black" stroke-width="5.173549"/>
<line x1="3612.872137" y1="265.419206" x2="3831.468457" y2="342.828222" stroke="black" stroke-width="5.173549"/>
<line x1="3831.468457" y1="342.828222" x2="3901.263478" y2="145.73318" stroke="black" stroke-width="5.173549"/>
<line x1="3901.263478" y1="145.73318" x2="3682.667153" y2="68.324159" stroke="black" stroke-width="5.173549"/>
<line x1="3713.127295" y1="79.110661" x2="3643.332277" y2="276.205709" stroke="black" stroke-width="5.173549"/>
<line x1="834.802452" y1="1601.741708" x2="834.802452" y2="1412.344658" stroke="black" stroke-width="5.173549"/>
<line x1="834.802452" y1="1412.344658" x2="1024.587612" y2="1412.344658" stroke="black" stroke-width="5.173549"/>
<line x1="1024.587612" y1="1412.344658" x2="1024.587612" y2="1601.741708" stroke="black" stroke-width="5.173549"/>
<line x1="1024.587612" y1="1601.741708" x2="834.802452" y2="1601.741708" stroke="black" stroke-width="5.173549"/>
<line x1="834.414344" y1="1602.129818" x2="1024.587612" y2="1412.344658" stroke="black" stroke-width="5.173549"/>
<line x1="1024.199504" y1="1601.741708" x2="834.802452" y2="1412.732766" stroke="black" stroke-width="5.173549"/>
<line x1="981.194359" y1="263.856703" x2="981.194359" y2="74.459653" stroke="black" stroke-width="5.173549"/>
<line x1="981.194359" y1="74.459653" x2="1170.979519" y2="74.459653" stroke="black" stroke-width="5.173549"/>
<line x1="1170.979519" y1="74.459653" x2="1170.979519" y2="263.856703" stroke="black" stroke-width="5.173549"/>
<line x1="1170.979519" y1="263.856703" x2="981.194359" y2="263.856703" stroke="black" stroke-width="5.173549"/>
<line x1="980.806251" y1="264.244813" x2="1170.979519" y2="74.459653" stroke="black" stroke-width="5.173549"/>
<line x1="1170.591411" y1="263.856703" x2="981.194359" y2="74.847762" stroke="black" stroke-width="5.173549"/>
<line x1="981.308144" y1="455.126025" x2="981.308144" y2="265.728976" stroke="black" stroke-width="5.173549"/>
<line x1="981.308144" y1="265.728976" x2="1171.093304" y2="265.728976" stroke="black" stroke-width="5.173549"/>
<line x1="1171.093304" y1="265.728976" x2="1171.093304" y2="455.126025" stroke="black" stroke-width="5.173549"/>
<line x1="1171.093304" y1="455.126025" x2="981.308144" y2="455.126025" stroke="black" stroke-width="5.173549"/>
<line x1="980.920036" y1="455.514136" x2="1171.093304" y2="265.728976" stroke="black" stroke-width="5.173549"/>
<line x1="1170.705196" y1="455.126025" x2="981.308144" y2="266.117084" stroke="black" stroke-width="5.173549"/>
<line x1="833.111011" y1="1837.387615" x2="833.111011" y2="1647.990566" stroke="black" stroke-width="5.173549"/>
<line x1="833.111011" y1="1647.990566" x2="1022.896171" y2="1647.990566" stroke="black" stroke-width="5.173549"/>
<line x1="1022.896171" y1="1647.990566" x2="1022.896171" y2="1837.387615" stroke="black" stroke-width="5.173549"/>
<line x1="1022.896171" y1="1837.387615" x2="833.111011" y2="1837.387615" stroke="black" stroke-width="5.173549"/>
<line x1="832.722903" y1="1837.775726" x2="1022.896171" y2="1647.990566" stroke="black" stroke-width="5.173549"/>
<line x1="1022.508063" y1="1837.387615" x2="833.111011" y2="1648.378674" stroke="black" stroke-width="5.173549"/>
</g>
</svg>
