<?xml version="1.0"?>
<svg xmlns:xlink="http://www.w3.org/1999/xlink" width="4307.458554" height="1893.135699">
<image x="0" y="0" width="4307.458554" height="1893.135699" xlink:href="ground16-09.png"/>
<g style="stroke-linecap:round">
<line x1="1501.172772" y1="65.56479" x2="1713.617124" y2="65.56479" stroke="black" stroke-width="5.173549"/>
<line x1="1713.617124" y1="65.56479" x2="1713.617124" y2="32.814748" stroke="black" stroke-width="5.173549"/>
<line x1="1713.617124" y1="32.814748" x2="1501.172772" y2="32.814748" stroke="black" stroke-width="5.173549"/>
<line x1="1501.172772" y1="32.814748" x2="1501.172772" y2="65.56479" stroke="black" stroke-width="5.173549"/>
<line x1="1520.995165" y1="33.24567" x2="1520.995165" y2="65.133868" stroke="black" stroke-width="5.173549"/>
<line x1="1693.363809" y1="33.24567" x2="1693.363809" y2="66.426634" stroke="black" stroke-width="5.173549"/>
<line x1="1520.564243" y1="48.327927" x2="1692.932887" y2="48.327927" stroke="black" stroke-width="5.173549"/>
<line x1="387.900809" y1="65.059724" x2="596.392707" y2="65.059724" stroke="black" stroke-width="5.173549"/>
<line x1="596.392707" y1="65.059724" x2="596.392707" y2="32.918986" stroke="black" stroke-width="5.173549"/>
<line x1="596.392707" y1="32.918986" x2="387.900809" y2="32.918986" stroke="black" stroke-width="5.173549"/>
<line x1="387.900809" y1="32.918986" x2="387.900809" y2="65.059724" stroke="black" stroke-width="5.173549"/>
<line x1="407.354414" y1="33.341891" x2="407.354414" y2="64.636819" stroke="black" stroke-width="5.173549"/>
<line x1="576.516198" y1="33.341891" x2="576.516198" y2="65.905534" stroke="black" stroke-width="5.173549"/>
<line x1="406.931509" y1="48.143547" x2="576.093293" y2="48.143547" stroke="black" stroke-width="5.173549"/>
<line x1="50.126013" y1="533.317951" x2="50.126013" y2="325.320107" stroke="black" stroke-width="5.173549"/>
<line x1="50.126013" y1="325.320107" x2="18.061434" y2="325.320107" stroke="black" stroke-width="5.173549"/>
<line x1="18.061434" y1="325.320107" x2="18.061434" y2="533.317951" stroke="black" stroke-width="5.173549"/>
<line x1="18.061434" y1="533.317951" x2="50.126013" y2="533.317951" stroke="black" stroke-width="5.173549"/>
<line x1="18.483338" y1="513.910443" x2="49.704109" y2="513.910443" stroke="black" stroke-width="5.173549"/>
<line x1="18.483338" y1="345.149518" x2="50.969817" y2="345.149518" stroke="black" stroke-width="5.173549"/>
<line x1="33.249919" y1="514.332347" x2="33.249919" y2="345.571419" stroke="black" stroke-width="5.173549"/>
<line x1="54.925669" y1="1569.564499" x2="54.925669" y2="1363.062718" stroke="black" stroke-width="5.173549"/>
<line x1="54.925669" y1="1363.062718" x2="17.990392" y2="1363.062718" stroke="black" stroke-width="5.173549"/>
<line x1="17.990392" y1="1363.062718" x2="17.990392" y2="1569.564499" stroke="black" stroke-width="5.173549"/>
<line x1="17.990392" y1="1569.564499" x2="54.925669" y2="1569.564499" stroke="black" stroke-width="5.173549"/>
<line x1="54.925669" y1="1559.910961" x2="67.517241" y2="1559.910961" stroke="black" stroke-width="5.173549"/>
<line x1="67.517241" y1="1559.910961" x2="67.517241" y2="1373.135976" stroke="black" stroke-width="5.173549"/>
<line x1="54.925669" y1="1373.135976" x2="67.517241" y2="1373.135976" stroke="black" stroke-width="5.173549"/>
<line x1="440.963045" y1="1842.887312" x2="233.459259" y2="1842.887312" stroke="black" stroke-width="5.173549"/>
<line x1="233.459259" y1="1842.887312" x2="233.459259" y2="1874.875726" stroke="black" stroke-width="5.173549"/>
<line x1="233.459259" y1="1874.875726" x2="440.963045" y2="1874.875726" stroke="black" stroke-width="5.173549"/>
<line x1="440.963045" y1="1874.875726" x2="440.963045" y2="1842.887312" stroke="black" stroke-width="5.173549"/>
<line x1="421.601637" y1="1874.454826" x2="421.601637" y2="1843.308212" stroke="black" stroke-width="5.173549"/>
<line x1="253.241566" y1="1874.454826" x2="253.241566" y2="1842.045513" stroke="black" stroke-width="5.173549"/>
<line x1="422.022536" y1="1859.72332" x2="253.662466" y2="1859.72332" stroke="black" stroke-width="5.173549"/>
<line x1="1467.379845" y1="1837.446095" x2="1259.890016" y2="1837.446095" stroke="black" stroke-width="5.173549"/>
<line x1="1259.890016" y1="1837.446095" x2="1259.890016" y2="1874.558095" stroke="black" stroke-width="5.173549"/>
<line x1="1259.890016" y1="1874.558095" x2="1467.379845" y2="1874.558095" stroke="black" stroke-width="5.173549"/>
<line x1="1467.379845" y1="1874.558095" x2="1467.379845" y2="1837.446095" stroke="black" stroke-width="5.173549"/>
<line x1="1457.680118" y1="1837.446095" x2="1457.680118" y2="1824.794277" stroke="black" stroke-width="5.173549"/>
<line x1="1457.680118" y1="1824.794277" x2="1270.011474" y2="1824.794277" stroke="black" stroke-width="5.173549"/>
<line x1="1270.011474" y1="1837.446095" x2="1270.011474" y2="1824.794277" stroke="black" stroke-width="5.173549"/>
<line x1="2343.276617" y1="1092.140299" x2="2356.300903" y2="1092.140299" stroke="black" stroke-width="5.173549"/>
<line x1="2356.300903" y1="1092.140299" x2="2356.300903" y2="1300.528857" stroke="black" stroke-width="5.173549"/>
<line x1="2343.276617" y1="1300.528857" x2="2356.300903" y2="1300.528857" stroke="black" stroke-width="5.173549"/>
<line x1="2343.276617" y1="1092.140299" x2="2343.276617" y2="1300.528857" stroke="black" stroke-width="5.173549"/>
<line x1="2746.161161" y1="1092.140299" x2="2760.053732" y2="1092.140299" stroke="black" stroke-width="5.173549"/>
<line x1="2760.053732" y1="1092.140299" x2="2760.053732" y2="1300.528857" stroke="black" stroke-width="5.173549"/>
<line x1="2746.161161" y1="1300.528857" x2="2760.053732" y2="1300.528857" stroke="black" stroke-width="5.173549"/>
<line x1="2746.161161" y1="1092.140299" x2="2746.161161" y2="1300.528857" stroke="black" stroke-width="5.173549"/>
<path d="m 2343.276617,1092.140299 a 208.3885580000001,208.3885580000001 0 0 1 208.3885580000001,208.3885580000001" fill="none" stroke="black" stroke-width="5.173549"/>
<path d="m 2551.665175,1300.528857 a 208.38855749999993,208.38855749999993 0 0 1 208.38855699999976,-208.3885580000001" fill="none" stroke="black" stroke-width="5.173549"/>
<line x1="3571.182719" y1="1089.212007" x2="3584.395307" y2="1089.212007" stroke="black" stroke-width="5.173549"/>
<line x1="3584.395307" y1="1089.212007" x2="3584.395307" y2="1300.613412" stroke="black" stroke-width="5.173549"/>
<line x1="3571.182719" y1="1300.613412" x2="3584.395307" y2="1300.613412" stroke="black" stroke-width="5.173549"/>
<line x1="3571.182719" y1="1089.212007" x2="3571.182719" y2="1300.613412" stroke="black" stroke-width="5.173549"/>
<line x1="3979.892099" y1="1089.212007" x2="3993.985526" y2="1089.212007" stroke="black" stroke-width="5.173549"/>
<line x1="3993.985526" y1="1089.212007" x2="3993.985526" y2="1300.613412" stroke="black" stroke-width="5.173549"/>
<line x1="3979.892099" y1="1300.613412" x2="3993.985526" y2="1300.613412" stroke="black" stroke-width="5.173549"/>
<line x1="3979.892099" y1="1089.212007" x2="3979.892099" y2="1300.613412" stroke="black" stroke-width="5.173549"/>
<path d="m 3571.182719,1089.212007 a 211.40140499999995,211.40140499999995 0 0 1 211.40140500000007,211.40140499999984" fill="none" stroke="black" stroke-width="5.173549"/>
<path d="m 3782.584124,1300.613412 a 211.4014034999999,211.4014034999999 0 0 1 211.40140199999996,-211.40140499999984" fill="none" stroke="black" stroke-width="5.173549"/>
<line x1="2964.797099" y1="1096.111521" x2="2977.586005" y2="1096.111521" stroke="black" stroke-width="5.173549"/>
<line x1="2977.586005" y1="1096.111521" x2="2977.586005" y2="1300.734018" stroke="black" stroke-width="5.173549"/>
<line x1="2964.797099" y1="1300.734018" x2="2977.586005" y2="1300.734018" stroke="black" stroke-width="5.173549"/>
<line x1="2964.797099" y1="1096.111521" x2="2964.797099" y2="1300.734018" stroke="black" stroke-width="5.173549"/>
<line x1="3360.400597" y1="1096.111521" x2="3374.042096" y2="1096.111521" stroke="black" stroke-width="5.173549"/>
<line x1="3374.042096" y1="1096.111521" x2="3374.042096" y2="1300.734018" stroke="black" stroke-width="5.173549"/>
<line x1="3360.400597" y1="1300.734018" x2="3374.042096" y2="1300.734018" stroke="black" stroke-width="5.173549"/>
<line x1="3360.400597" y1="1096.111521" x2="3360.400597" y2="1300.734018" stroke="black" stroke-width="5.173549"/>
<path d="m 2964.797099,1096.111521 a 204.62249700000018,204.62249700000018 0 0 1 204.6224970000003,204.62249700000007" fill="none" stroke="black" stroke-width="5.173549"/>
<path d="m 3169.419596,1300.734018 a 204.6224985,204.6224985 0 0 1 204.62249999999995,-204.62249700000007" fill="none" stroke="black" stroke-width="5.173549"/>
<line x1="4257.168909" y1="1030.381402" x2="4257.168909" y2="1237.885188" stroke="black" stroke-width="5.173549"/>
<line x1="4257.168909" y1="1237.885188" x2="4289.157323" y2="1237.885188" stroke="black" stroke-width="5.173549"/>
<line x1="4289.157323" y1="1237.885188" x2="4289.157323" y2="1030.381402" stroke="black" stroke-width="5.173549"/>
<line x1="4289.157323" y1="1030.381402" x2="4257.168909" y2="1030.381402" stroke="black" stroke-width="5.173549"/>
<line x1="4288.736423" y1="1049.74281" x2="4257.589808" y2="1049.74281" stroke="black" stroke-width="5.173549"/>
<line x1="4288.736423" y1="1218.102881" x2="4256.32711" y2="1218.102881" stroke="black" stroke-width="5.173549"/>
<line x1="4274.004917" y1="1049.321911" x2="4274.004917" y2="1217.681981" stroke="black" stroke-width="5.173549"/>
<line x1="954.044289" y1="840.013072" x2="972.615108" y2="840.013072" stroke="black" stroke-width="5.173549"/>
<line x1="972.615108" y1="840.013072" x2="972.615108" y2="803.777333" stroke="black" stroke-width="5.173549"/>
<line x1="972.615108" y1="803.777333" x2="954.044289" y2="803.777333" stroke="black" stroke-width="5.173549"/>
<line x1="954.044289" y1="803.777333" x2="954.044289" y2="840.013072" stroke="black" stroke-width="5.173549"/>
<line x1="1154.246754" y1="803.777333" x2="1154.246754" y2="623.051579" stroke="black" stroke-width="5.173549"/>
<line x1="1154.699702" y1="840.918967" x2="1173.270517" y2="840.918967" stroke="black" stroke-width="5.173549"/>
<line x1="1173.270517" y1="840.918967" x2="1173.270517" y2="804.683225" stroke="black" stroke-width="5.173549"/>
<line x1="1173.270517" y1="804.683225" x2="1154.699702" y2="804.683225" stroke="black" stroke-width="5.173549"/>
<line x1="1154.699702" y1="804.683225" x2="1154.699702" y2="840.918967" stroke="black" stroke-width="5.173549"/>
<path d="m 972.615108,805.136173 a 181.6316465,181.6316465 0 0 1 181.63164600000005,-181.63164699999993" fill="none" stroke="black" stroke-width="5.173549"/>
<line x1="53.412936" y1="578.052502" x2="274.786112" y2="578.052502" stroke="black" stroke-width="5.173549"/>
<line x1="274.786112" y1="578.052502" x2="274.786112" y2="799.879311" stroke="black" stroke-width="5.173549"/>
<line x1="274.786112" y1="799.879311" x2="53.412936" y2="799.879311" stroke="black" stroke-width="5.173549"/>
<line x1="53.412936" y1="799.879311" x2="53.412936" y2="578.052502" stroke="black" stroke-width="5.173549"/>
<line x1="52.959304" y1="577.598867" x2="274.786112" y2="799.879311" stroke="black" stroke-width="5.173549"/>
<line x1="53.412936" y1="799.425678" x2="274.33248" y2="578.052502" stroke="black" stroke-width="5.173549"/>
<line x1="1274.097936" y1="1083.830274" x2="1256.238165" y2="1083.830274" stroke="black" stroke-width="5.173549"/>
<line x1="1256.238165" y1="1083.830274" x2="1256.238165" y2="1118.678608" stroke="black" stroke-width="5.173549"/>
<line x1="1256.238165" y1="1118.678608" x2="1274.097936" y2="1118.678608" stroke="black" stroke-width="5.173549"/>
<line x1="1274.097936" y1="1118.678608" x2="1274.097936" y2="1083.830274" stroke="black" stroke-width="5.173549"/>
<line x1="1081.560882" y1="1118.678608" x2="1081.560882" y2="1292.484683" stroke="black" stroke-width="5.173549"/>
<line x1="1081.12528" y1="1082.959064" x2="1063.265506" y2="1082.959064" stroke="black" stroke-width="5.173549"/>
<line x1="1063.265506" y1="1082.959064" x2="1063.265506" y2="1117.8074" stroke="black" stroke-width="5.173549"/>
<line x1="1063.265506" y1="1117.8074" x2="1081.12528" y2="1117.8074" stroke="black" stroke-width="5.173549"/>
<line x1="1081.12528" y1="1117.8074" x2="1081.12528" y2="1082.959064" stroke="black" stroke-width="5.173549"/>
<path d="m 1256.238165,1117.371795 a 174.677283,174.677283 0 0 1 -174.677283,174.677283" fill="none" stroke="black" stroke-width="5.173549"/>
<line x1="2144.721745" y1="1399.673911" x2="2144.721745" y2="1604.693622" stroke="black" stroke-width="5.173549"/>
<line x1="2144.721745" y1="1604.693622" x2="2181.391937" y2="1604.693622" stroke="black" stroke-width="5.173549"/>
<line x1="2181.391937" y1="1604.693622" x2="2181.391937" y2="1399.673911" stroke="black" stroke-width="5.173549"/>
<line x1="2181.391937" y1="1399.673911" x2="2144.721745" y2="1399.673911" stroke="black" stroke-width="5.173549"/>
<line x1="2144.721745" y1="1409.258168" x2="2132.220542" y2="1409.258168" stroke="black" stroke-width="5.173549"/>
<line x1="2132.220542" y1="1409.258168" x2="2132.220542" y2="1594.692662" stroke="black" stroke-width="5.173549"/>
<line x1="2144.721745" y1="1594.692662" x2="2132.220542" y2="1594.692662" stroke="black" stroke-width="5.173549"/>
<line x1="1217.501921" y1="357.119769" x2="1217.501921" y2="803.248252" stroke="black" stroke-width="5.173549"/>
<line x1="1217.501921" y1="803.248252" x2="1416.182622" y2="803.248252" stroke="black" stroke-width="5.173549"/>
<line x1="1416.182622" y1="803.248252" x2="1416.182622" y2="357.119769" stroke="black" stroke-width="5.173549"/>
<line x1="1416.182622" y1="357.119769" x2="1217.501921" y2="357.119769" stroke="black" stroke-width="5.173549"/>
<line x1="1385.477422" y1="717.454313" x2="1385.477422" y2="393.243532" stroke="black" stroke-width="5.173549"/>
<line x1="1385.477422" y1="393.243532" x2="1250.916402" y2="393.243532" stroke="black" stroke-width="5.173549"/>
<line x1="1250.916402" y1="393.243532" x2="1250.916402" y2="723.775971" stroke="black" stroke-width="5.173549"/>
<path d="m 1385.768674,716.530041 a 72.24752666021107,72.24752666021107 0 0 1 -136.119007,4.896106000000032" fill="none" stroke="black" stroke-width="5.173549"/>
<line x1="1697.778678" y1="395.058319" x2="1855.199605" y2="395.058319" stroke="black" stroke-width="5.173549"/>
<line x1="1855.199605" y1="395.058319" x2="1855.199605" y2="552.80183" stroke="black" stroke-width="5.173549"/>
<line x1="1855.199605" y1="552.80183" x2="1697.778678" y2="552.80183" stroke="black" stroke-width="5.173549"/>
<line x1="1697.778678" y1="552.80183" x2="1697.778678" y2="395.058319" stroke="black" stroke-width="5.173549"/>
<line x1="1697.456094" y1="394.735734" x2="1855.199605" y2="552.80183" stroke="black" stroke-width="5.173549"/>
<line x1="1697.778678" y1="552.479246" x2="1854.877021" y2="395.058319" stroke="black" stroke-width="5.173549"/>
<line x1="2339.150739" y1="178.010188" x2="2339.150739" y2="495.053383" stroke="black" stroke-width="5.173549"/>
<line x1="2339.150739" y1="495.053383" x2="2184.527212" y2="495.053383" stroke="black" stroke-width="5.173549"/>
<line x1="2184.527212" y1="178.010188" x2="2184.527212" y2="495.053383" stroke="black" stroke-width="5.173549"/>
<line x1="2339.150739" y1="178.010188" x2="2184.527212" y2="178.010188" stroke="black" stroke-width="5.173549"/>
<line x1="2331.354594" y1="185.80633" x2="2331.354594" y2="347.576322" stroke="black" stroke-width="5.173549"/>
<line x1="2331.354594" y1="347.576322" x2="2192.973035" y2="347.576322" stroke="black" stroke-width="5.173549"/>
<line x1="2192.973035" y1="185.80633" x2="2192.973035" y2="347.576322" stroke="black" stroke-width="5.173549"/>
<line x1="2331.354594" y1="185.80633" x2="2192.973035" y2="185.80633" stroke="black" stroke-width="5.173549"/>
<line x1="2322.259094" y1="364.467969" x2="2322.259094" y2="478.161738" stroke="black" stroke-width="5.173549"/>
<line x1="2298.220981" y1="364.467969" x2="2298.220981" y2="478.161738" stroke="black" stroke-width="5.173549"/>
<line x1="2273.533191" y1="365.117647" x2="2273.533191" y2="478.811416" stroke="black" stroke-width="5.173549"/>
<line x1="2249.495079" y1="365.117647" x2="2249.495079" y2="478.811416" stroke="black" stroke-width="5.173549"/>
<line x1="2225.45697" y1="364.467969" x2="2225.45697" y2="478.161738" stroke="black" stroke-width="5.173549"/>
<line x1="2201.418857" y1="364.467969" x2="2201.418857" y2="478.161738" stroke="black" stroke-width="5.173549"/>
<line x1="2192.973035" y1="247.525806" x2="2209.215002" y2="247.525806" stroke="black" stroke-width="5.173549"/>
<line x1="2209.215002" y1="247.525806" x2="2209.215002" y2="287.805884" stroke="black" stroke-width="5.173549"/>
<line x1="2209.215002" y1="287.805884" x2="2193.622715" y2="287.805884" stroke="black" stroke-width="5.173549"/>
<circle cx="2313.813269" cy="329.385319" r="9.74518019465271" fill="none" stroke="black" stroke-width="5.173549"/>
<line x1="3068.266137" y1="493.868518" x2="3068.266137" y2="361.762903" stroke="black" stroke-width="5.173549"/>
<line x1="3068.266137" y1="361.762903" x2="3082.522138" y2="361.762903" stroke="black" stroke-width="5.173549"/>
<line x1="3082.522138" y1="493.868518" x2="3082.522138" y2="361.762903" stroke="black" stroke-width="5.173549"/>
<line x1="3068.266137" y1="493.868518" x2="3082.522138" y2="493.868518" stroke="black" stroke-width="5.173549"/>
<line x1="3082.522138" y1="480.562917" x2="3113.885342" y2="482.463717" stroke="black" stroke-width="5.173549"/>
<line x1="3082.522138" y1="375.068505" x2="3114.835742" y2="373.167704" stroke="black" stroke-width="5.173549"/>
<line x1="3529.210189" y1="493.868518" x2="3529.210189" y2="361.762903" stroke="black" stroke-width="5.173549"/>
<line x1="3529.210189" y1="361.762903" x2="3515.904587" y2="361.762903" stroke="black" stroke-width="5.173549"/>
<line x1="3515.904587" y1="493.868518" x2="3515.904587" y2="361.762903" stroke="black" stroke-width="5.173549"/>
<line x1="3529.210189" y1="493.868518" x2="3515.904587" y2="493.868518" stroke="black" stroke-width="5.173549"/>
<line x1="3514.003787" y1="481.513317" x2="3482.640584" y2="483.414117" stroke="black" stroke-width="5.173549"/>
<line x1="3514.003787" y1="376.018905" x2="3481.690184" y2="373.167704" stroke="black" stroke-width="5.173549"/>
<line x1="3232.685355" y1="198.294084" x2="3232.685355" y2="212.550086" stroke="black" stroke-width="5.173549"/>
<line x1="3232.685355" y1="212.550086" x2="3364.79097" y2="212.550086" stroke="black" stroke-width="5.173549"/>
<line x1="3364.79097" y1="198.294084" x2="3364.79097" y2="212.550086" stroke="black" stroke-width="5.173549"/>
<line x1="3232.685355" y1="198.294084" x2="3364.79097" y2="198.294084" stroke="black" stroke-width="5.173549"/>
<line x1="3350.534969" y1="212.550086" x2="3353.386169" y2="244.86369" stroke="black" stroke-width="5.173549"/>
<line x1="3245.990957" y1="212.550086" x2="3244.090157" y2="244.86369" stroke="black" stroke-width="5.173549"/>
<line x1="3231.734955" y1="658.287737" x2="3231.734955" y2="644.031735" stroke="black" stroke-width="5.173549"/>
<line x1="3231.734955" y1="644.031735" x2="3363.84057" y2="644.031735" stroke="black" stroke-width="5.173549"/>
<line x1="3363.84057" y1="658.287737" x2="3363.84057" y2="644.031735" stroke="black" stroke-width="5.173549"/>
<line x1="3231.734955" y1="658.287737" x2="3363.84057" y2="658.287737" stroke="black" stroke-width="5.173549"/>
<line x1="3349.584569" y1="644.031735" x2="3352.435769" y2="611.718131" stroke="black" stroke-width="5.173549"/>
<line x1="3245.040557" y1="644.031735" x2="3243.139756" y2="611.718131" stroke="black" stroke-width="5.173549"/>
<circle cx="3298.262963" cy="428.290911" r="191.98082181599997" fill="none" stroke="black" stroke-width="5.173549"/>
<line x1="4063.192837" y1="684.960987" x2="4253.272859" y2="684.960987" stroke="black" stroke-width="5.173549"/>
<line x1="4253.272859" y1="684.960987" x2="4253.272859" y2="221.165734" stroke="black" stroke-width="5.173549"/>
<line x1="4253.272859" y1="221.165734" x2="4063.192837" y2="221.165734" stroke="black" stroke-width="5.173549"/>
<line x1="4063.192837" y1="221.165734" x2="4063.192837" y2="244.925737" stroke="black" stroke-width="5.173549"/>
<line x1="4063.192837" y1="244.925737" x2="4230.463256" y2="244.925737" stroke="black" stroke-width="5.173549"/>
<line x1="4230.463256" y1="244.925737" x2="4230.463256" y2="660.250584" stroke="black" stroke-width="5.173549"/>
<line x1="4230.463256" y1="660.250584" x2="4063.192837" y2="660.250584" stroke="black" stroke-width="5.173549"/>
<line x1="4063.192837" y1="660.250584" x2="4063.192837" y2="684.960987" stroke="black" stroke-width="5.173549"/>
<line x1="4068.895238" y1="660.250584" x2="4068.895238" y2="244.925737" stroke="black" stroke-width="5.173549"/>
<line x1="4067.944838" y1="453.06336" x2="4229.512856" y2="453.06336" stroke="black" stroke-width="5.173549"/>
<line x1="1020.653699" y1="1372.957061" x2="831.25665" y2="1372.957061" stroke="black" stroke-width="5.173549"/>
<line x1="831.25665" y1="1372.957061" x2="831.25665" y2="1183.171901" stroke="black" stroke-width="5.173549"/>
<line x1="831.25665" y1="1183.171901" x2="1020.653699" y2="1183.171901" stroke="black" stroke-width="5.173549"/>
<line x1="1020.653699" y1="1183.171901" x2="1020.653699" y2="1372.957061" stroke="black" stroke-width="5.173549"/>
<line x1="1021.04181" y1="1373.345169" x2="831.25665" y2="1183.171901" stroke="black" stroke-width="5.173549"/>
<line x1="1020.653699" y1="1183.560009" x2="831.644758" y2="1372.957061" stroke="black" stroke-width="5.173549"/>
<line x1="2443.97494" y1="64.637708" x2="2650.984668" y2="64.637708" stroke="black" stroke-width="5.173549"/>
<line x1="2650.984668" y1="64.637708" x2="2650.984668" y2="32.725459" stroke="black" stroke-width="5.173549"/>
<line x1="2650.984668" y1="32.725459" x2="2443.97494" y2="32.725459" stroke="black" stroke-width="5.173549"/>
<line x1="2443.97494" y1="32.725459" x2="2443.97494" y2="64.637708" stroke="black" stroke-width="5.173549"/>
<line x1="2463.290248" y1="33.145357" x2="2463.290248" y2="64.21781" stroke="black" stroke-width="5.173549"/>
<line x1="2631.249459" y1="33.145357" x2="2631.249459" y2="65.477504" stroke="black" stroke-width="5.173549"/>
<line x1="2462.87035" y1="47.841787" x2="2630.829561" y2="47.841787" stroke="black" stroke-width="5.173549"/>
<line x1="3578.119258" y1="65.722702" x2="3785.128986" y2="65.722702" stroke="black" stroke-width="5.173549"/>
<line x1="3785.128986" y1="65.722702" x2="3785.128986" y2="33.810453" stroke="black" stroke-width="5.173549"/>
<line x1="3785.128986" y1="33.810453" x2="3578.119258" y2="33.810453" stroke="black" stroke-width="5.173549"/>
<line x1="3578.119258" y1="33.810453" x2="3578.119258" y2="65.722702" stroke="black" stroke-width="5.173549"/>
<line x1="3597.434566" y1="34.230351" x2="3597.434566" y2="65.302804" stroke="black" stroke-width="5.173549"/>
<line x1="3765.393777" y1="34.230351" x2="3765.393777" y2="66.562498" stroke="black" stroke-width="5.173549"/>
<line x1="3597.014668" y1="48.926782" x2="3764.973879" y2="48.926782" stroke="black" stroke-width="5.173549"/>
<line x1="3786.525589" y1="65.638972" x2="3993.535318" y2="65.638972" stroke="black" stroke-width="5.173549"/>
<line x1="3993.535318" y1="65.638972" x2="3993.535318" y2="33.726723" stroke="black" stroke-width="5.173549"/>
<line x1="3993.535318" y1="33.726723" x2="3786.525589" y2="33.726723" stroke="black" stroke-width="5.173549"/>
<line x1="3786.525589" y1="33.726723" x2="3786.525589" y2="65.638972" stroke="black" stroke-width="5.173549"/>
<line x1="3805.840898" y1="34.146621" x2="3805.840898" y2="65.219074" stroke="black" stroke-width="5.173549"/>
<line x1="3973.800109" y1="34.146621" x2="3973.800109" y2="66.478768" stroke="black" stroke-width="5.173549"/>
<line x1="3805.421" y1="48.843052" x2="3973.380211" y2="48.843052" stroke="black" stroke-width="5.173549"/>
<line x1="383.5686" y1="1051.369721" x2="383.5686" y2="842.004497" stroke="black" stroke-width="5.173549"/>
<line x1="383.5686" y1="842.004497" x2="52.354162" y2="842.004497" stroke="black" stroke-width="5.173549"/>
<line x1="52.354162" y1="842.004497" x2="52.354162" y2="1051.369721" stroke="black" stroke-width="5.173549"/>
<line x1="52.354162" y1="1051.369721" x2="383.5686" y2="1051.369721" stroke="black" stroke-width="5.173549"/>
<line x1="111.595769" y1="1052.042921" x2="111.595769" y2="841.331297" stroke="black" stroke-width="5.173549"/>
<line x1="111.595769" y1="841.331297" x2="161.412574" y2="1050.696521" stroke="black" stroke-width="5.173549"/>
<line x1="161.412574" y1="1050.696521" x2="207.86338" y2="1019.056118" stroke="black" stroke-width="5.173549"/>
<line x1="207.86338" y1="1019.056118" x2="110.922569" y2="841.331297" stroke="black" stroke-width="5.173549"/>
<line x1="468.698722" y1="798.687496" x2="481.507768" y2="770.580609" stroke="black" stroke-width="5.173549"/>
<line x1="481.507768" y1="770.580609" x2="290.813351" y2="683.676158" stroke="black" stroke-width="5.173549"/>
<line x1="290.813351" y1="683.676158" x2="278.004302" y2="711.783043" stroke="black" stroke-width="5.173549"/>
<line x1="278.004302" y1="711.783043" x2="468.698722" y2="798.687496" stroke="black" stroke-width="5.173549"/>
<line x1="553.238426" y1="613.182044" x2="566.047472" y2="585.075156" stroke="black" stroke-width="5.173549"/>
<line x1="566.047472" y1="585.075156" x2="375.353057" y2="498.170701" stroke="black" stroke-width="5.173549"/>
<line x1="375.353057" y1="498.170701" x2="362.544007" y2="526.277588" stroke="black" stroke-width="5.173549"/>
<line x1="362.544007" y1="526.277588" x2="553.238426" y2="613.182044" stroke="black" stroke-width="5.173549"/>
<line x1="481.310705" y1="771.013023" x2="553.238426" y2="613.182044" stroke="black" stroke-width="5.173549"/>
<line x1="291.284054" y1="684.935111" x2="278.536787" y2="649.881522" stroke="black" stroke-width="5.173549"/>
<line x1="328.78766" y1="539.616043" x2="363.605897" y2="526.239299" stroke="black" stroke-width="5.173549"/>
<line x1="277.748538" y1="651.611176" x2="329.575912" y2="537.886386" stroke="black" stroke-width="5.173549"/>
<line x1="440.860885" y1="752.056756" x2="512.788606" y2="594.22578" stroke="black" stroke-width="5.173549"/>
<line x1="50.307194" y1="1608.76544" x2="271.680371" y2="1608.76544" stroke="black" stroke-width="5.173549"/>
<line x1="271.680371" y1="1608.76544" x2="271.680371" y2="1830.592249" stroke="black" stroke-width="5.173549"/>
<line x1="271.680371" y1="1830.592249" x2="50.307194" y2="1830.592249" stroke="black" stroke-width="5.173549"/>
<line x1="50.307194" y1="1830.592249" x2="50.307194" y2="1608.76544" stroke="black" stroke-width="5.173549"/>
<line x1="49.853562" y1="1608.311806" x2="271.680371" y2="1830.592249" stroke="black" stroke-width="5.173549"/>
<line x1="50.307194" y1="1830.138617" x2="271.226739" y2="1608.76544" stroke="black" stroke-width="5.173549"/>
<line x1="456.047438" y1="1831.073688" x2="586.207791" y2="1667.439694" stroke="black" stroke-width="5.173549"/>
<line x1="586.207791" y1="1667.439694" x2="404.72282" y2="1523.080029" stroke="black" stroke-width="5.173549"/>
<line x1="404.72282" y1="1523.080029" x2="274.562462" y2="1686.714023" stroke="black" stroke-width="5.173549"/>
<line x1="274.562462" y1="1686.714023" x2="456.047438" y2="1831.073688" stroke="black" stroke-width="5.173549"/>
<line x1="430.758548" y1="1810.958" x2="560.918903" y2="1647.324006" stroke="black" stroke-width="5.173549"/>
<line x1="384.097842" y1="286.107217" x2="384.097842" y2="76.741993" stroke="black" stroke-width="5.173549"/>
<line x1="384.097842" y1="76.741993" x2="52.883404" y2="76.741993" stroke="black" stroke-width="5.173549"/>
<line x1="52.883404" y1="76.741993" x2="52.883404" y2="286.107217" stroke="black" stroke-width="5.173549"/>
<line x1="52.883404" y1="286.107217" x2="384.097842" y2="286.107217" stroke="black" stroke-width="5.173549"/>
<line x1="112.125011" y1="286.780417" x2="112.125011" y2="76.068793" stroke="black" stroke-width="5.173549"/>
<line x1="112.125011" y1="76.068793" x2="161.941817" y2="285.434017" stroke="black" stroke-width="5.173549"/>
<line x1="161.941817" y1="285.434017" x2="208.392622" y2="253.793613" stroke="black" stroke-width="5.173549"/>
<line x1="208.392622" y1="253.793613" x2="111.451811" y2="76.068793" stroke="black" stroke-width="5.173549"/>
<line x1="1441.968826" y1="1456.887694" x2="1651.33405" y2="1456.887694" stroke="black" stroke-width="5.173549"/>
<line x1="1651.33405" y1="1456.887694" x2="1651.33405" y2="1125.673256" stroke="black" stroke-width="5.173549"/>
<line x1="1651.33405" y1="1125.673256" x2="1441.968826" y2="1125.673256" stroke="black" stroke-width="5.173549"/>
<line x1="1441.968826" y1="1125.673256" x2="1441.968826" y2="1456.887694" stroke="black" stroke-width="5.173549"/>
<line x1="1441.295626" y1="1184.914863" x2="1652.00725" y2="1184.914863" stroke="black" stroke-width="5.173549"/>
<line x1="1652.00725" y1="1184.914863" x2="1442.642026" y2="1234.731669" stroke="black" stroke-width="5.173549"/>
<line x1="1442.642026" y1="1234.731669" x2="1474.28243" y2="1281.182474" stroke="black" stroke-width="5.173549"/>
<line x1="1474.28243" y1="1281.182474" x2="1652.00725" y2="1184.241663" stroke="black" stroke-width="5.173549"/>
<line x1="1653.434968" y1="1456.38194" x2="1862.800192" y2="1456.38194" stroke="black" stroke-width="5.173549"/>
<line x1="1862.800192" y1="1456.38194" x2="1862.800192" y2="1125.167503" stroke="black" stroke-width="5.173549"/>
<line x1="1862.800192" y1="1125.167503" x2="1653.434968" y2="1125.167503" stroke="black" stroke-width="5.173549"/>
<line x1="1653.434968" y1="1125.167503" x2="1653.434968" y2="1456.38194" stroke="black" stroke-width="5.173549"/>
<line x1="1652.761768" y1="1184.40911" x2="1863.473392" y2="1184.40911" stroke="black" stroke-width="5.173549"/>
<line x1="1863.473392" y1="1184.40911" x2="1654.108168" y2="1234.225915" stroke="black" stroke-width="5.173549"/>
<line x1="1654.108168" y1="1234.225915" x2="1685.748572" y2="1280.67672" stroke="black" stroke-width="5.173549"/>
<line x1="1685.748572" y1="1280.67672" x2="1863.473392" y2="1183.735909" stroke="black" stroke-width="5.173549"/>
<line x1="1919.572859" y1="1613.63281" x2="2140.946035" y2="1613.63281" stroke="black" stroke-width="5.173549"/>
<line x1="2140.946035" y1="1613.63281" x2="2140.946035" y2="1835.459618" stroke="black" stroke-width="5.173549"/>
<line x1="2140.946035" y1="1835.459618" x2="1919.572859" y2="1835.459618" stroke="black" stroke-width="5.173549"/>
<line x1="1919.572859" y1="1835.459618" x2="1919.572859" y2="1613.63281" stroke="black" stroke-width="5.173549"/>
<line x1="1919.119227" y1="1613.179175" x2="2140.946035" y2="1835.459618" stroke="black" stroke-width="5.173549"/>
<line x1="1919.572859" y1="1835.005986" x2="2140.492403" y2="1613.63281" stroke="black" stroke-width="5.173549"/>
<line x1="1652.667469" y1="1627.283279" x2="1687.176949" y2="1833.503787" stroke="black" stroke-width="5.173549"/>
<line x1="1687.176949" y1="1833.503787" x2="1915.894238" y2="1795.229639" stroke="black" stroke-width="5.173549"/>
<line x1="1915.894238" y1="1795.229639" x2="1881.38476" y2="1589.009131" stroke="black" stroke-width="5.173549"/>
<line x1="1881.38476" y1="1589.009131" x2="1652.667469" y2="1627.283279" stroke="black" stroke-width="5.173549"/>
<line x1="1684.537913" y1="1621.949994" x2="1719.047388" y2="1828.170502" stroke="black" stroke-width="5.173549"/>
<line x1="1854.196271" y1="123.68913" x2="1670.45225" y2="123.68913" stroke="black" stroke-width="5.173549"/>
<line x1="1670.45225" y1="123.68913" x2="1670.45225" y2="74.585124" stroke="black" stroke-width="5.173549"/>
<line x1="1854.196271" y1="74.585124" x2="1670.45225" y2="74.585124" stroke="black" stroke-width="5.173549"/>
<line x1="1854.196271" y1="123.68913" x2="1854.196271" y2="74.585124" stroke="black" stroke-width="5.173549"/>
<line x1="1812.616266" y1="151.409133" x2="1812.616266" y2="123.68913" stroke="black" stroke-width="5.173549"/>
<line x1="1713.616255" y1="123.68913" x2="1713.616255" y2="152.993133" stroke="black" stroke-width="5.173549"/>
<circle cx="1763.908261" cy="196.553138" r="66.52800756" fill="none" stroke="black" stroke-width="5.173549"/>
<circle cx="1763.908261" cy="196.553138" r="57.02400648" fill="none" stroke="black" stroke-width="5.173549"/>
<line x1="1243.229224" y1="77.847725" x2="1218.677221" y2="96.459727" stroke="black" stroke-width="5.173549"/>
<line x1="1218.677221" y1="96.459727" x2="1218.677221" y2="243.771744" stroke="black" stroke-width="5.173549"/>
<line x1="1218.677221" y1="243.771744" x2="1246.793224" y2="262.779746" stroke="black" stroke-width="5.173549"/>
<line x1="1246.001224" y1="99.627728" x2="1246.001224" y2="242.583744" stroke="black" stroke-width="5.173549"/>
<circle cx="1267.781227" cy="168.927735" r="13.068001485" fill="none" stroke="black" stroke-width="5.173549"/>
<path d="m 1245.333877,101.180978 a 74.84400803731003,74.84400803731003 0 1 1 0.40204799999992247,139.609018" fill="none" stroke="black" stroke-width="5.173549"/>
<path d="m 1242.571859,77.894024 a 95.43601157238837,95.43601157238837 0 1 1 3.0749610000000303,184.46702" fill="none" stroke="black" stroke-width="5.173549"/>
<line x1="1461.984904" y1="839.659365" x2="1479.175458" y2="839.659365" stroke="black" stroke-width="5.173549"/>
<line x1="1479.175458" y1="839.659365" x2="1479.175458" y2="806.116822" stroke="black" stroke-width="5.173549"/>
<line x1="1479.175458" y1="806.116822" x2="1461.984904" y2="806.116822" stroke="black" stroke-width="5.173549"/>
<line x1="1461.984904" y1="806.116822" x2="1461.984904" y2="839.659365" stroke="black" stroke-width="5.173549"/>
<line x1="1647.307453" y1="806.116822" x2="1647.307453" y2="638.823387" stroke="black" stroke-width="5.173549"/>
<line x1="1647.726735" y1="840.497927" x2="1664.917289" y2="840.497927" stroke="black" stroke-width="5.173549"/>
<line x1="1664.917289" y1="840.497927" x2="1664.917289" y2="806.955384" stroke="black" stroke-width="5.173549"/>
<line x1="1664.917289" y1="806.955384" x2="1647.726735" y2="806.955384" stroke="black" stroke-width="5.173549"/>
<line x1="1647.726735" y1="806.955384" x2="1647.726735" y2="840.497927" stroke="black" stroke-width="5.173549"/>
<path d="m 1479.175458,807.374667 a 168.1319965,168.1319965 0 0 1 168.13199499999996,-168.13199800000007" fill="none" stroke="black" stroke-width="5.173549"/>
<line x1="3731.300894" y1="68.324159" x2="3612.872137" y2="240.639074" stroke="black" stroke-width="5.173549"/>
<line x1="3612.872137" y1="240.639074" x2="3803.98504" y2="371.987336" stroke="black" stroke-width="5.173549"/>
<line x1="3803.98504" y1="371.987336" x2="3922.413799" y2="199.67242" stroke="black" stroke-width="5.173549"/>
<line x1="3922.413799" y1="199.67242" x2="3731.300894" y2="68.324159" stroke="black" stroke-width="5.173549"/>
<line x1="3757.931384" y1="86.626785" x2="3639.502619" y2="258.941703" stroke="black" stroke-width="5.173549"/>
<line x1="981.308144" y1="455.126025" x2="981.308144" y2="265.728976" stroke="black" stroke-width="5.173549"/>
<line x1="981.308144" y1="265.728976" x2="1171.093304" y2="265.728976" stroke="black" stroke-width="5.173549"/>
<line x1="1171.093304" y1="265.728976" x2="1171.093304" y2="455.126025" stroke="black" stroke-width="5.173549"/>
<line x1="1171.093304" y1="455.126025" x2="981.308144" y2="455.126025" stroke="black" stroke-width="5.173549"/>
<line x1="980.920036" y1="455.514136" x2="1171.093304" y2="265.728976" stroke="black" stroke-width="5.173549"/>
<line x1="1170.705196" y1="455.126025" x2="981.308144" y2="266.117084" stroke="black" stroke-width="5.173549"/>
<line x1="981.194359" y1="263.856703" x2="981.194359" y2="74.459653" stroke="black" stroke-width="5.173549"/>
<line x1="981.194359" y1="74.459653" x2="1170.979519" y2="74.459653" stroke="black" stroke-width="5.173549"/>
<line x1="1170.979519" y1="74.459653" x2="1170.979519" y2="263.856703" stroke="black" stroke-width="5.173549"/>
<line x1="1170.979519" y1="263.856703" x2="981.194359" y2="263.856703" stroke="black" stroke-width="5.173549"/>
<line x1="980.806251" y1="264.244813" x2="1170.979519" y2="74.459653" stroke="black" stroke-width="5.173549"/>
<line x1="1170.591411" y1="263.856703" x2="981.194359" y2="74.847762" stroke="black" stroke-width="5.173549"/>
<line x1="834.802452" y1="1601.741708" x2="834.802452" y2="1412.344658" stroke="black" stroke-width="5.173549"/>
<line x1="834.802452" y1="1412.344658" x2="1024.587612" y2="1412.344658" stroke="black" stroke-width="5.173549"/>
<line x1="1024.587612" y1="1412.344658" x2="1024.587612" y2="1601.741708" stroke="black" stroke-width="5.173549"/>
<line x1="1024.587612" y1="1601.741708" x2="834.802452" y2="1601.741708" stroke="black" stroke-width="5.173549"/>
<line x1="834.414344" y1="1602.129818" x2="1024.587612" y2="1412.344658" stroke="black" stroke-width="5.173549"/>
<line x1="1024.199504" y1="1601.741708" x2="834.802452" y2="1412.732766" stroke="black" stroke-width="5.173549"/>
</g>
</svg>
