<?xml version="1.0"?>
<svg xmlns:xlink="http://www.w3.org/1999/xlink" width="4307.458554" height="1893.135699">
<image x="0" y="0" width="4307.458554" height="1893.135699" xlink:href="ground16-09.png"/>
<g style="stroke-linecap:round">
<line x1="1501.172772" y1="65.56479" x2="1713.617124" y2="65.56479" stroke="black" stroke-width="5.173549"/>
<line x1="1713.617124" y1="65.56479" x2="1713.617124" y2="32.814748" stroke="black" stroke-width="5.173549"/>
<line x1="1713.617124" y1="32.814748" x2="1501.172772" y2="32.814748" stroke="black" stroke-width="5.173549"/>
<line x1="1501.172772" y1="32.814748" x2="1501.172772" y2="65.56479" stroke="black" stroke-width="5.173549"/>
<line x1="1520.995165" y1="33.24567" x2="1520.995165" y2="65.133868" stroke="black" stroke-width="5.173549"/>
<line x1="1693.363809" y1="33.24567" x2="1693.363809" y2="66.426634" stroke="black" stroke-width="5.173549"/>
<line x1="1520.564243" y1="48.327927" x2="1692.932887" y2="48.327927" stroke="black" stroke-width="5.173549"/>
<line x1="387.900809" y1="65.059724" x2="596.392707" y2="65.059724" stroke="black" stroke-width="5.173549"/>
<line x1="596.392707" y1="65.059724" x2="596.392707" y2="32.918986" stroke="black" stroke-width="5.173549"/>
<line x1="596.392707" y1="32.918986" x2="387.900809" y2="32.918986" stroke="black" stroke-width="5.173549"/>
<line x1="387.900809" y1="32.918986" x2="387.900809" y2="65.059724" stroke="black" stroke-width="5.173549"/>
<line x1="407.354414" y1="33.341891" x2="407.354414" y2="64.636819" stroke="black" stroke-width="5.173549"/>
<line x1="576.516198" y1="33.341891" x2="576.516198" y2="65.905534" stroke="black" stroke-width="5.173549"/>
<line x1="406.931509" y1="48.143547" x2="576.093293" y2="48.143547" stroke="black" stroke-width="5.173549"/>
<line x1="50.126013" y1="533.317951" x2="50.126013" y2="325.320107" stroke="black" stroke-width="5.173549"/>
<line x1="50.126013" y1="325.320107" x2="18.061434" y2="325.320107" stroke="black" stroke-width="5.173549"/>
<line x1="18.061434" y1="325.320107" x2="18.061434" y2="533.317951" stroke="black" stroke-width="5.173549"/>
<line x1="18.061434" y1="533.317951" x2="50.126013" y2="533.317951" stroke="black" stroke-width="5.173549"/>
<line x1="18.483338" y1="513.910443" x2="49.704109" y2="513.910443" stroke="black" stroke-width="5.173549"/>
<line x1="18.483338" y1="345.149518" x2="50.969817" y2="345.149518" stroke="black" stroke-width="5.173549"/>
<line x1="33.249919" y1="514.332347" x2="33.249919" y2="345.571419" stroke="black" stroke-width="5.173549"/>
<line x1="49.826476" y1="1569.571446" x2="49.826476" y2="1363.055774" stroke="black" stroke-width="5.173549"/>
<line x1="49.826476" y1="1363.055774" x2="17.990387" y2="1363.055774" stroke="black" stroke-width="5.173549"/>
<line x1="17.990387" y1="1363.055774" x2="17.990387" y2="1569.571446" stroke="black" stroke-width="5.173549"/>
<line x1="17.990387" y1="1569.571446" x2="49.826476" y2="1569.571446" stroke="black" stroke-width="5.173549"/>
<line x1="18.409283" y1="1550.302234" x2="49.407579" y2="1550.302234" stroke="black" stroke-width="5.173549"/>
<line x1="18.409283" y1="1382.74388" x2="50.664266" y2="1382.74388" stroke="black" stroke-width="5.173549"/>
<line x1="33.070638" y1="1550.721131" x2="33.070638" y2="1383.162776" stroke="black" stroke-width="5.173549"/>
<line x1="440.963045" y1="1842.887312" x2="233.459259" y2="1842.887312" stroke="black" stroke-width="5.173549"/>
<line x1="233.459259" y1="1842.887312" x2="233.459259" y2="1874.875726" stroke="black" stroke-width="5.173549"/>
<line x1="233.459259" y1="1874.875726" x2="440.963045" y2="1874.875726" stroke="black" stroke-width="5.173549"/>
<line x1="440.963045" y1="1874.875726" x2="440.963045" y2="1842.887312" stroke="black" stroke-width="5.173549"/>
<line x1="421.601637" y1="1874.454826" x2="421.601637" y2="1843.308212" stroke="black" stroke-width="5.173549"/>
<line x1="253.241566" y1="1874.454826" x2="253.241566" y2="1842.045513" stroke="black" stroke-width="5.173549"/>
<line x1="422.022536" y1="1859.72332" x2="253.662466" y2="1859.72332" stroke="black" stroke-width="5.173549"/>
<line x1="1467.386823" y1="1842.569682" x2="1259.883037" y2="1842.569682" stroke="black" stroke-width="5.173549"/>
<line x1="1259.883037" y1="1842.569682" x2="1259.883037" y2="1874.558095" stroke="black" stroke-width="5.173549"/>
<line x1="1259.883037" y1="1874.558095" x2="1467.386823" y2="1874.558095" stroke="black" stroke-width="5.173549"/>
<line x1="1467.386823" y1="1874.558095" x2="1467.386823" y2="1842.569682" stroke="black" stroke-width="5.173549"/>
<line x1="1448.025415" y1="1874.137196" x2="1448.025415" y2="1842.990581" stroke="black" stroke-width="5.173549"/>
<line x1="1279.665344" y1="1874.137196" x2="1279.665344" y2="1841.727883" stroke="black" stroke-width="5.173549"/>
<line x1="1448.446314" y1="1859.40569" x2="1280.086244" y2="1859.40569" stroke="black" stroke-width="5.173549"/>
<line x1="2343.276617" y1="1092.140299" x2="2356.300903" y2="1092.140299" stroke="black" stroke-width="5.173549"/>
<line x1="2356.300903" y1="1092.140299" x2="2356.300903" y2="1300.528857" stroke="black" stroke-width="5.173549"/>
<line x1="2343.276617" y1="1300.528857" x2="2356.300903" y2="1300.528857" stroke="black" stroke-width="5.173549"/>
<line x1="2343.276617" y1="1092.140299" x2="2343.276617" y2="1300.528857" stroke="black" stroke-width="5.173549"/>
<line x1="2746.161161" y1="1092.140299" x2="2760.053732" y2="1092.140299" stroke="black" stroke-width="5.173549"/>
<line x1="2760.053732" y1="1092.140299" x2="2760.053732" y2="1300.528857" stroke="black" stroke-width="5.173549"/>
<line x1="2746.161161" y1="1300.528857" x2="2760.053732" y2="1300.528857" stroke="black" stroke-width="5.173549"/>
<line x1="2746.161161" y1="1092.140299" x2="2746.161161" y2="1300.528857" stroke="black" stroke-width="5.173549"/>
<path d="m 2343.276617,1092.140299 a 208.3885580000001,208.3885580000001 0 0 1 208.3885580000001,208.3885580000001" fill="none" stroke="black" stroke-width="5.173549"/>
<path d="m 2551.665175,1300.528857 a 208.38855749999993,208.38855749999993 0 0 1 208.38855699999976,-208.3885580000001" fill="none" stroke="black" stroke-width="5.173549"/>
<line x1="3571.182719" y1="1089.212007" x2="3584.395307" y2="1089.212007" stroke="black" stroke-width="5.173549"/>
<line x1="3584.395307" y1="1089.212007" x2="3584.395307" y2="1300.613412" stroke="black" stroke-width="5.173549"/>
<line x1="3571.182719" y1="1300.613412" x2="3584.395307" y2="1300.613412" stroke="black" stroke-width="5.173549"/>
<line x1="3571.182719" y1="1089.212007" x2="3571.182719" y2="1300.613412" stroke="black" stroke-width="5.173549"/>
<line x1="3979.892099" y1="1089.212007" x2="3993.985526" y2="1089.212007" stroke="black" stroke-width="5.173549"/>
<line x1="3993.985526" y1="1089.212007" x2="3993.985526" y2="1300.613412" stroke="black" stroke-width="5.173549"/>
<line x1="3979.892099" y1="1300.613412" x2="3993.985526" y2="1300.613412" stroke="black" stroke-width="5.173549"/>
<line x1="3979.892099" y1="1089.212007" x2="3979.892099" y2="1300.613412" stroke="black" stroke-width="5.173549"/>
<path d="m 3571.182719,1089.212007 a 211.40140499999995,211.40140499999995 0 0 1 211.40140500000007,211.40140499999984" fill="none" stroke="black" stroke-width="5.173549"/>
<path d="m 3782.584124,1300.613412 a 211.4014034999999,211.4014034999999 0 0 1 211.40140199999996,-211.40140499999984" fill="none" stroke="black" stroke-width="5.173549"/>
<line x1="2964.797099" y1="1096.111521" x2="2977.586005" y2="1096.111521" stroke="black" stroke-width="5.173549"/>
<line x1="2977.586005" y1="1096.111521" x2="2977.586005" y2="1300.734018" stroke="black" stroke-width="5.173549"/>
<line x1="2964.797099" y1="1300.734018" x2="2977.586005" y2="1300.734018" stroke="black" stroke-width="5.173549"/>
<line x1="2964.797099" y1="1096.111521" x2="2964.797099" y2="1300.734018" stroke="black" stroke-width="5.173549"/>
<line x1="3360.400597" y1="1096.111521" x2="3374.042096" y2="1096.111521" stroke="black" stroke-width="5.173549"/>
<line x1="3374.042096" y1="1096.111521" x2="3374.042096" y2="1300.734018" stroke="black" stroke-width="5.173549"/>
<line x1="3360.400597" y1="1300.734018" x2="3374.042096" y2="1300.734018" stroke="black" stroke-width="5.173549"/>
<line x1="3360.400597" y1="1096.111521" x2="3360.400597" y2="1300.734018" stroke="black" stroke-width="5.173549"/>
<path d="m 2964.797099,1096.111521 a 204.62249700000018,204.62249700000018 0 0 1 204.6224970000003,204.62249700000007" fill="none" stroke="black" stroke-width="5.173549"/>
<path d="m 3169.419596,1300.734018 a 204.6224985,204.6224985 0 0 1 204.62249999999995,-204.62249700000007" fill="none" stroke="black" stroke-width="5.173549"/>
<line x1="4257.168909" y1="1030.381402" x2="4257.168909" y2="1237.885188" stroke="black" stroke-width="5.173549"/>
<line x1="4257.168909" y1="1237.885188" x2="4289.157323" y2="1237.885188" stroke="black" stroke-width="5.173549"/>
<line x1="4289.157323" y1="1237.885188" x2="4289.157323" y2="1030.381402" stroke="black" stroke-width="5.173549"/>
<line x1="4289.157323" y1="1030.381402" x2="4257.168909" y2="1030.381402" stroke="black" stroke-width="5.173549"/>
<line x1="4288.736423" y1="1049.74281" x2="4257.589808" y2="1049.74281" stroke="black" stroke-width="5.173549"/>
<line x1="4288.736423" y1="1218.102881" x2="4256.32711" y2="1218.102881" stroke="black" stroke-width="5.173549"/>
<line x1="4274.004917" y1="1049.321911" x2="4274.004917" y2="1217.681981" stroke="black" stroke-width="5.173549"/>
<line x1="954.044289" y1="840.013072" x2="972.615108" y2="840.013072" stroke="black" stroke-width="5.173549"/>
<line x1="972.615108" y1="840.013072" x2="972.615108" y2="803.777333" stroke="black" stroke-width="5.173549"/>
<line x1="972.615108" y1="803.777333" x2="954.044289" y2="803.777333" stroke="black" stroke-width="5.173549"/>
<line x1="954.044289" y1="803.777333" x2="954.044289" y2="840.013072" stroke="black" stroke-width="5.173549"/>
<line x1="1154.246754" y1="803.777333" x2="1154.246754" y2="623.051579" stroke="black" stroke-width="5.173549"/>
<line x1="1154.699702" y1="840.918967" x2="1173.270517" y2="840.918967" stroke="black" stroke-width="5.173549"/>
<line x1="1173.270517" y1="840.918967" x2="1173.270517" y2="804.683225" stroke="black" stroke-width="5.173549"/>
<line x1="1173.270517" y1="804.683225" x2="1154.699702" y2="804.683225" stroke="black" stroke-width="5.173549"/>
<line x1="1154.699702" y1="804.683225" x2="1154.699702" y2="840.918967" stroke="black" stroke-width="5.173549"/>
<path d="m 972.615108,805.136173 a 181.6316465,181.6316465 0 0 1 181.63164600000005,-181.63164699999993" fill="none" stroke="black" stroke-width="5.173549"/>
<line x1="53.412936" y1="578.052502" x2="274.786112" y2="578.052502" stroke="black" stroke-width="5.173549"/>
<line x1="274.786112" y1="578.052502" x2="274.786112" y2="799.879311" stroke="black" stroke-width="5.173549"/>
<line x1="274.786112" y1="799.879311" x2="53.412936" y2="799.879311" stroke="black" stroke-width="5.173549"/>
<line x1="53.412936" y1="799.879311" x2="53.412936" y2="578.052502" stroke="black" stroke-width="5.173549"/>
<line x1="52.959304" y1="577.598867" x2="274.786112" y2="799.879311" stroke="black" stroke-width="5.173549"/>
<line x1="53.412936" y1="799.425678" x2="274.33248" y2="578.052502" stroke="black" stroke-width="5.173549"/>
<line x1="1274.097936" y1="1083.830274" x2="1256.238165" y2="1083.830274" stroke="black" stroke-width="5.173549"/>
<line x1="1256.238165" y1="1083.830274" x2="1256.238165" y2="1118.678608" stroke="black" stroke-width="5.173549"/>
<line x1="1256.238165" y1="1118.678608" x2="1274.097936" y2="1118.678608" stroke="black" stroke-width="5.173549"/>
<line x1="1274.097936" y1="1118.678608" x2="1274.097936" y2="1083.830274" stroke="black" stroke-width="5.173549"/>
<line x1="1081.560882" y1="1118.678608" x2="1081.560882" y2="1292.484683" stroke="black" stroke-width="5.173549"/>
<line x1="1081.12528" y1="1082.959064" x2="1063.265506" y2="1082.959064" stroke="black" stroke-width="5.173549"/>
<line x1="1063.265506" y1="1082.959064" x2="1063.265506" y2="1117.8074" stroke="black" stroke-width="5.173549"/>
<line x1="1063.265506" y1="1117.8074" x2="1081.12528" y2="1117.8074" stroke="black" stroke-width="5.173549"/>
<line x1="1081.12528" y1="1117.8074" x2="1081.12528" y2="1082.959064" stroke="black" stroke-width="5.173549"/>
<path d="m 1256.238165,1117.371795 a 174.677283,174.677283 0 0 1 -174.677283,174.677283" fill="none" stroke="black" stroke-width="5.173549"/>
<line x1="2149.784335" y1="1399.667013" x2="2149.784335" y2="1604.700515" stroke="black" stroke-width="5.173549"/>
<line x1="2149.784335" y1="1604.700515" x2="2181.391934" y2="1604.700515" stroke="black" stroke-width="5.173549"/>
<line x1="2181.391934" y1="1604.700515" x2="2181.391934" y2="1399.667013" stroke="black" stroke-width="5.173549"/>
<line x1="2181.391934" y1="1399.667013" x2="2149.784335" y2="1399.667013" stroke="black" stroke-width="5.173549"/>
<line x1="2180.976045" y1="1418.797929" x2="2150.200224" y2="1418.797929" stroke="black" stroke-width="5.173549"/>
<line x1="2180.976045" y1="1585.15371" x2="2148.952556" y2="1585.15371" stroke="black" stroke-width="5.173549"/>
<line x1="2166.419913" y1="1418.382039" x2="2166.419913" y2="1584.737821" stroke="black" stroke-width="5.173549"/>
<line x1="1416.182622" y1="803.248252" x2="1416.182622" y2="357.119769" stroke="black" stroke-width="5.173549"/>
<line x1="1416.182622" y1="357.119769" x2="1217.501921" y2="357.119769" stroke="black" stroke-width="5.173549"/>
<line x1="1217.501921" y1="357.119769" x2="1217.501921" y2="803.248252" stroke="black" stroke-width="5.173549"/>
<line x1="1217.501921" y1="803.248252" x2="1416.182622" y2="803.248252" stroke="black" stroke-width="5.173549"/>
<line x1="1248.207121" y1="442.913708" x2="1248.207121" y2="767.124489" stroke="black" stroke-width="5.173549"/>
<line x1="1248.207121" y1="767.124489" x2="1382.768141" y2="767.124489" stroke="black" stroke-width="5.173549"/>
<line x1="1382.768141" y1="767.124489" x2="1382.768141" y2="436.59205" stroke="black" stroke-width="5.173549"/>
<path d="m 1247.915869,443.83798 a 72.24752684394876,72.24752684394876 0 0 1 136.119007,-4.896107000000029" fill="none" stroke="black" stroke-width="5.173549"/>
<line x1="1697.778678" y1="307.865294" x2="1855.199605" y2="307.865294" stroke="black" stroke-width="5.173549"/>
<line x1="1855.199605" y1="307.865294" x2="1855.199605" y2="465.608805" stroke="black" stroke-width="5.173549"/>
<line x1="1855.199605" y1="465.608805" x2="1697.778678" y2="465.608805" stroke="black" stroke-width="5.173549"/>
<line x1="1697.778678" y1="465.608805" x2="1697.778678" y2="307.865294" stroke="black" stroke-width="5.173549"/>
<line x1="1697.456094" y1="307.54271" x2="1855.199605" y2="465.608805" stroke="black" stroke-width="5.173549"/>
<line x1="1697.778678" y1="465.286221" x2="1854.877021" y2="307.865294" stroke="black" stroke-width="5.173549"/>
<line x1="2339.150739" y1="178.010188" x2="2339.150739" y2="495.053383" stroke="black" stroke-width="5.173549"/>
<line x1="2339.150739" y1="495.053383" x2="2184.527212" y2="495.053383" stroke="black" stroke-width="5.173549"/>
<line x1="2184.527212" y1="178.010188" x2="2184.527212" y2="495.053383" stroke="black" stroke-width="5.173549"/>
<line x1="2339.150739" y1="178.010188" x2="2184.527212" y2="178.010188" stroke="black" stroke-width="5.173549"/>
<line x1="2331.354594" y1="185.80633" x2="2331.354594" y2="347.576322" stroke="black" stroke-width="5.173549"/>
<line x1="2331.354594" y1="347.576322" x2="2192.973035" y2="347.576322" stroke="black" stroke-width="5.173549"/>
<line x1="2192.973035" y1="185.80633" x2="2192.973035" y2="347.576322" stroke="black" stroke-width="5.173549"/>
<line x1="2331.354594" y1="185.80633" x2="2192.973035" y2="185.80633" stroke="black" stroke-width="5.173549"/>
<line x1="2322.259094" y1="364.467969" x2="2322.259094" y2="478.161738" stroke="black" stroke-width="5.173549"/>
<line x1="2298.220981" y1="364.467969" x2="2298.220981" y2="478.161738" stroke="black" stroke-width="5.173549"/>
<line x1="2273.533191" y1="365.117647" x2="2273.533191" y2="478.811416" stroke="black" stroke-width="5.173549"/>
<line x1="2249.495079" y1="365.117647" x2="2249.495079" y2="478.811416" stroke="black" stroke-width="5.173549"/>
<line x1="2225.45697" y1="364.467969" x2="2225.45697" y2="478.161738" stroke="black" stroke-width="5.173549"/>
<line x1="2201.418857" y1="364.467969" x2="2201.418857" y2="478.161738" stroke="black" stroke-width="5.173549"/>
<line x1="2192.973035" y1="247.525806" x2="2209.215002" y2="247.525806" stroke="black" stroke-width="5.173549"/>
<line x1="2209.215002" y1="247.525806" x2="2209.215002" y2="287.805884" stroke="black" stroke-width="5.173549"/>
<line x1="2209.215002" y1="287.805884" x2="2193.622715" y2="287.805884" stroke="black" stroke-width="5.173549"/>
<circle cx="2313.813269" cy="329.385319" r="9.74518019465271" fill="none" stroke="black" stroke-width="5.173549"/>
<line x1="3233.160555" y1="197.818884" x2="3365.26617" y2="197.818884" stroke="black" stroke-width="5.173549"/>
<line x1="3365.26617" y1="197.818884" x2="3365.26617" y2="212.074886" stroke="black" stroke-width="5.173549"/>
<line x1="3233.160555" y1="212.074886" x2="3365.26617" y2="212.074886" stroke="black" stroke-width="5.173549"/>
<line x1="3233.160555" y1="197.818884" x2="3233.160555" y2="212.074886" stroke="black" stroke-width="5.173549"/>
<line x1="3246.466157" y1="212.074886" x2="3244.565357" y2="243.43809" stroke="black" stroke-width="5.173549"/>
<line x1="3351.960569" y1="212.074886" x2="3353.861369" y2="244.38849" stroke="black" stroke-width="5.173549"/>
<line x1="3233.160555" y1="658.762937" x2="3365.26617" y2="658.762937" stroke="black" stroke-width="5.173549"/>
<line x1="3365.26617" y1="658.762937" x2="3365.26617" y2="645.457335" stroke="black" stroke-width="5.173549"/>
<line x1="3233.160555" y1="645.457335" x2="3365.26617" y2="645.457335" stroke="black" stroke-width="5.173549"/>
<line x1="3233.160555" y1="658.762937" x2="3233.160555" y2="645.457335" stroke="black" stroke-width="5.173549"/>
<line x1="3245.515757" y1="643.556535" x2="3243.614956" y2="612.193332" stroke="black" stroke-width="5.173549"/>
<line x1="3351.010169" y1="643.556535" x2="3353.861369" y2="611.242931" stroke="black" stroke-width="5.173549"/>
<line x1="3528.734989" y1="362.238103" x2="3514.478987" y2="362.238103" stroke="black" stroke-width="5.173549"/>
<line x1="3514.478987" y1="362.238103" x2="3514.478987" y2="494.343718" stroke="black" stroke-width="5.173549"/>
<line x1="3528.734989" y1="494.343718" x2="3514.478987" y2="494.343718" stroke="black" stroke-width="5.173549"/>
<line x1="3528.734989" y1="362.238103" x2="3528.734989" y2="494.343718" stroke="black" stroke-width="5.173549"/>
<line x1="3514.478987" y1="480.087716" x2="3482.165384" y2="482.938917" stroke="black" stroke-width="5.173549"/>
<line x1="3514.478987" y1="375.543705" x2="3482.165384" y2="373.642904" stroke="black" stroke-width="5.173549"/>
<line x1="3068.741337" y1="361.287703" x2="3082.997338" y2="361.287703" stroke="black" stroke-width="5.173549"/>
<line x1="3082.997338" y1="361.287703" x2="3082.997338" y2="493.393318" stroke="black" stroke-width="5.173549"/>
<line x1="3068.741337" y1="493.393318" x2="3082.997338" y2="493.393318" stroke="black" stroke-width="5.173549"/>
<line x1="3068.741337" y1="361.287703" x2="3068.741337" y2="493.393318" stroke="black" stroke-width="5.173549"/>
<line x1="3082.997338" y1="479.137316" x2="3115.310942" y2="481.988517" stroke="black" stroke-width="5.173549"/>
<line x1="3082.997338" y1="374.593305" x2="3115.310942" y2="372.692504" stroke="black" stroke-width="5.173549"/>
<circle cx="3298.738163" cy="427.815711" r="191.98082181599997" fill="none" stroke="black" stroke-width="5.173549"/>
<line x1="4062.701439" y1="582.996427" x2="4252.781461" y2="582.996427" stroke="black" stroke-width="5.173549"/>
<line x1="4252.781461" y1="582.996427" x2="4252.781461" y2="119.201174" stroke="black" stroke-width="5.173549"/>
<line x1="4252.781461" y1="119.201174" x2="4062.701439" y2="119.201174" stroke="black" stroke-width="5.173549"/>
<line x1="4062.701439" y1="119.201174" x2="4062.701439" y2="142.961177" stroke="black" stroke-width="5.173549"/>
<line x1="4062.701439" y1="142.961177" x2="4229.971858" y2="142.961177" stroke="black" stroke-width="5.173549"/>
<line x1="4229.971858" y1="142.961177" x2="4229.971858" y2="558.286024" stroke="black" stroke-width="5.173549"/>
<line x1="4229.971858" y1="558.286024" x2="4062.701439" y2="558.286024" stroke="black" stroke-width="5.173549"/>
<line x1="4062.701439" y1="558.286024" x2="4062.701439" y2="582.996427" stroke="black" stroke-width="5.173549"/>
<line x1="4068.40384" y1="558.286024" x2="4068.40384" y2="142.961177" stroke="black" stroke-width="5.173549"/>
<line x1="4067.45344" y1="351.098801" x2="4229.021458" y2="351.098801" stroke="black" stroke-width="5.173549"/>
<line x1="1020.653699" y1="1372.957061" x2="831.25665" y2="1372.957061" stroke="black" stroke-width="5.173549"/>
<line x1="831.25665" y1="1372.957061" x2="831.25665" y2="1183.171901" stroke="black" stroke-width="5.173549"/>
<line x1="831.25665" y1="1183.171901" x2="1020.653699" y2="1183.171901" stroke="black" stroke-width="5.173549"/>
<line x1="1020.653699" y1="1183.171901" x2="1020.653699" y2="1372.957061" stroke="black" stroke-width="5.173549"/>
<line x1="1021.04181" y1="1373.345169" x2="831.25665" y2="1183.171901" stroke="black" stroke-width="5.173549"/>
<line x1="1020.653699" y1="1183.560009" x2="831.644758" y2="1372.957061" stroke="black" stroke-width="5.173549"/>
<line x1="2443.981902" y1="69.749097" x2="2650.977704" y2="69.749097" stroke="black" stroke-width="5.173549"/>
<line x1="2650.977704" y1="69.749097" x2="2650.977704" y2="32.725459" stroke="black" stroke-width="5.173549"/>
<line x1="2650.977704" y1="32.725459" x2="2443.981902" y2="32.725459" stroke="black" stroke-width="5.173549"/>
<line x1="2443.981902" y1="32.725459" x2="2443.981902" y2="69.749097" stroke="black" stroke-width="5.173549"/>
<line x1="2453.658533" y1="69.749097" x2="2453.658533" y2="82.370794" stroke="black" stroke-width="5.173549"/>
<line x1="2453.658533" y1="82.370794" x2="2640.880349" y2="82.370794" stroke="black" stroke-width="5.173549"/>
<line x1="2640.880349" y1="69.749097" x2="2640.880349" y2="82.370794" stroke="black" stroke-width="5.173549"/>
<line x1="3578.119258" y1="65.722702" x2="3785.128986" y2="65.722702" stroke="black" stroke-width="5.173549"/>
<line x1="3785.128986" y1="65.722702" x2="3785.128986" y2="33.810453" stroke="black" stroke-width="5.173549"/>
<line x1="3785.128986" y1="33.810453" x2="3578.119258" y2="33.810453" stroke="black" stroke-width="5.173549"/>
<line x1="3578.119258" y1="33.810453" x2="3578.119258" y2="65.722702" stroke="black" stroke-width="5.173549"/>
<line x1="3597.434566" y1="34.230351" x2="3597.434566" y2="65.302804" stroke="black" stroke-width="5.173549"/>
<line x1="3765.393777" y1="34.230351" x2="3765.393777" y2="66.562498" stroke="black" stroke-width="5.173549"/>
<line x1="3597.014668" y1="48.926782" x2="3764.973879" y2="48.926782" stroke="black" stroke-width="5.173549"/>
<line x1="3786.525589" y1="65.638972" x2="3993.535318" y2="65.638972" stroke="black" stroke-width="5.173549"/>
<line x1="3993.535318" y1="65.638972" x2="3993.535318" y2="33.726723" stroke="black" stroke-width="5.173549"/>
<line x1="3993.535318" y1="33.726723" x2="3786.525589" y2="33.726723" stroke="black" stroke-width="5.173549"/>
<line x1="3786.525589" y1="33.726723" x2="3786.525589" y2="65.638972" stroke="black" stroke-width="5.173549"/>
<line x1="3805.840898" y1="34.146621" x2="3805.840898" y2="65.219074" stroke="black" stroke-width="5.173549"/>
<line x1="3973.800109" y1="34.146621" x2="3973.800109" y2="66.478768" stroke="black" stroke-width="5.173549"/>
<line x1="3805.421" y1="48.843052" x2="3973.380211" y2="48.843052" stroke="black" stroke-width="5.173549"/>
<line x1="383.5686" y1="1051.369721" x2="383.5686" y2="842.004497" stroke="black" stroke-width="5.173549"/>
<line x1="383.5686" y1="842.004497" x2="52.354162" y2="842.004497" stroke="black" stroke-width="5.173549"/>
<line x1="52.354162" y1="842.004497" x2="52.354162" y2="1051.369721" stroke="black" stroke-width="5.173549"/>
<line x1="52.354162" y1="1051.369721" x2="383.5686" y2="1051.369721" stroke="black" stroke-width="5.173549"/>
<line x1="111.595769" y1="1052.042921" x2="111.595769" y2="841.331297" stroke="black" stroke-width="5.173549"/>
<line x1="111.595769" y1="841.331297" x2="161.412574" y2="1050.696521" stroke="black" stroke-width="5.173549"/>
<line x1="161.412574" y1="1050.696521" x2="207.86338" y2="1019.056118" stroke="black" stroke-width="5.173549"/>
<line x1="207.86338" y1="1019.056118" x2="110.922569" y2="841.331297" stroke="black" stroke-width="5.173549"/>
<line x1="477.55829" y1="798.687496" x2="583.678485" y2="618.531156" stroke="black" stroke-width="5.173549"/>
<line x1="583.678485" y1="618.531156" x2="383.868727" y2="500.834218" stroke="black" stroke-width="5.173549"/>
<line x1="383.868727" y1="500.834218" x2="277.748535" y2="680.990557" stroke="black" stroke-width="5.173549"/>
<line x1="277.748535" y1="680.990557" x2="477.55829" y2="798.687496" stroke="black" stroke-width="5.173549"/>
<line x1="449.715951" y1="782.287103" x2="555.836141" y2="602.130763" stroke="black" stroke-width="5.173549"/>
<line x1="50.307194" y1="1608.76544" x2="271.680371" y2="1608.76544" stroke="black" stroke-width="5.173549"/>
<line x1="271.680371" y1="1608.76544" x2="271.680371" y2="1830.592249" stroke="black" stroke-width="5.173549"/>
<line x1="271.680371" y1="1830.592249" x2="50.307194" y2="1830.592249" stroke="black" stroke-width="5.173549"/>
<line x1="50.307194" y1="1830.592249" x2="50.307194" y2="1608.76544" stroke="black" stroke-width="5.173549"/>
<line x1="49.853562" y1="1608.311806" x2="271.680371" y2="1830.592249" stroke="black" stroke-width="5.173549"/>
<line x1="50.307194" y1="1830.138617" x2="271.226739" y2="1608.76544" stroke="black" stroke-width="5.173549"/>
<line x1="462.107789" y1="1831.073685" x2="475.88995" y2="1803.430948" stroke="black" stroke-width="5.173549"/>
<line x1="475.88995" y1="1803.430948" x2="288.34462" y2="1709.924298" stroke="black" stroke-width="5.173549"/>
<line x1="288.34462" y1="1709.924298" x2="274.562462" y2="1737.567033" stroke="black" stroke-width="5.173549"/>
<line x1="274.562462" y1="1737.567033" x2="462.107789" y2="1831.073685" stroke="black" stroke-width="5.173549"/>
<line x1="553.070044" y1="1648.631628" x2="566.852205" y2="1620.988894" stroke="black" stroke-width="5.173549"/>
<line x1="566.852205" y1="1620.988894" x2="379.306873" y2="1527.482241" stroke="black" stroke-width="5.173549"/>
<line x1="379.306873" y1="1527.482241" x2="365.524712" y2="1555.124978" stroke="black" stroke-width="5.173549"/>
<line x1="365.524712" y1="1555.124978" x2="553.070044" y2="1648.631628" stroke="black" stroke-width="5.173549"/>
<line x1="475.677919" y1="1803.856222" x2="553.070044" y2="1648.631628" stroke="black" stroke-width="5.173549"/>
<line x1="288.771102" y1="1711.198907" x2="277.254953" y2="1675.721802" stroke="black" stroke-width="5.173549"/>
<line x1="331.323425" y1="1567.277221" x2="366.587292" y2="1555.12377" stroke="black" stroke-width="5.173549"/>
<line x1="276.406818" y1="1677.422891" x2="332.171557" y2="1565.576132" stroke="black" stroke-width="5.173549"/>
<line x1="435.914302" y1="1783.499827" x2="513.306428" y2="1628.275231" stroke="black" stroke-width="5.173549"/>
<line x1="53.556605" y1="407.283231" x2="262.921828" y2="407.283231" stroke="black" stroke-width="5.173549"/>
<line x1="262.921828" y1="407.283231" x2="262.921828" y2="76.068793" stroke="black" stroke-width="5.173549"/>
<line x1="262.921828" y1="76.068793" x2="53.556605" y2="76.068793" stroke="black" stroke-width="5.173549"/>
<line x1="53.556605" y1="76.068793" x2="53.556605" y2="407.283231" stroke="black" stroke-width="5.173549"/>
<line x1="52.883404" y1="135.3104" x2="263.595028" y2="135.3104" stroke="black" stroke-width="5.173549"/>
<line x1="263.595028" y1="135.3104" x2="54.229805" y2="185.127206" stroke="black" stroke-width="5.173549"/>
<line x1="54.229805" y1="185.127206" x2="85.870208" y2="231.578011" stroke="black" stroke-width="5.173549"/>
<line x1="85.870208" y1="231.578011" x2="263.595028" y2="134.6372" stroke="black" stroke-width="5.173549"/>
<line x1="1441.968826" y1="1456.887694" x2="1651.33405" y2="1456.887694" stroke="black" stroke-width="5.173549"/>
<line x1="1651.33405" y1="1456.887694" x2="1651.33405" y2="1125.673256" stroke="black" stroke-width="5.173549"/>
<line x1="1651.33405" y1="1125.673256" x2="1441.968826" y2="1125.673256" stroke="black" stroke-width="5.173549"/>
<line x1="1441.968826" y1="1125.673256" x2="1441.968826" y2="1456.887694" stroke="black" stroke-width="5.173549"/>
<line x1="1441.295626" y1="1184.914863" x2="1652.00725" y2="1184.914863" stroke="black" stroke-width="5.173549"/>
<line x1="1652.00725" y1="1184.914863" x2="1442.642026" y2="1234.731669" stroke="black" stroke-width="5.173549"/>
<line x1="1442.642026" y1="1234.731669" x2="1474.28243" y2="1281.182474" stroke="black" stroke-width="5.173549"/>
<line x1="1474.28243" y1="1281.182474" x2="1652.00725" y2="1184.241663" stroke="black" stroke-width="5.173549"/>
<line x1="1653.434968" y1="1456.38194" x2="1862.800192" y2="1456.38194" stroke="black" stroke-width="5.173549"/>
<line x1="1862.800192" y1="1456.38194" x2="1862.800192" y2="1125.167503" stroke="black" stroke-width="5.173549"/>
<line x1="1862.800192" y1="1125.167503" x2="1653.434968" y2="1125.167503" stroke="black" stroke-width="5.173549"/>
<line x1="1653.434968" y1="1125.167503" x2="1653.434968" y2="1456.38194" stroke="black" stroke-width="5.173549"/>
<line x1="1652.761768" y1="1184.40911" x2="1863.473392" y2="1184.40911" stroke="black" stroke-width="5.173549"/>
<line x1="1863.473392" y1="1184.40911" x2="1654.108168" y2="1234.225915" stroke="black" stroke-width="5.173549"/>
<line x1="1654.108168" y1="1234.225915" x2="1685.748572" y2="1280.67672" stroke="black" stroke-width="5.173549"/>
<line x1="1685.748572" y1="1280.67672" x2="1863.473392" y2="1183.735909" stroke="black" stroke-width="5.173549"/>
<line x1="1919.572859" y1="1613.63281" x2="2140.946035" y2="1613.63281" stroke="black" stroke-width="5.173549"/>
<line x1="2140.946035" y1="1613.63281" x2="2140.946035" y2="1835.459618" stroke="black" stroke-width="5.173549"/>
<line x1="2140.946035" y1="1835.459618" x2="1919.572859" y2="1835.459618" stroke="black" stroke-width="5.173549"/>
<line x1="1919.572859" y1="1835.459618" x2="1919.572859" y2="1613.63281" stroke="black" stroke-width="5.173549"/>
<line x1="1919.119227" y1="1613.179175" x2="2140.946035" y2="1835.459618" stroke="black" stroke-width="5.173549"/>
<line x1="1919.572859" y1="1835.005986" x2="2140.492403" y2="1613.63281" stroke="black" stroke-width="5.173549"/>
<line x1="1613.652426" y1="1648.040444" x2="1710.198532" y2="1833.503784" stroke="black" stroke-width="5.173549"/>
<line x1="1710.198532" y1="1833.503784" x2="1915.894238" y2="1726.425377" stroke="black" stroke-width="5.173549"/>
<line x1="1915.894238" y1="1726.425377" x2="1819.348134" y2="1540.962034" stroke="black" stroke-width="5.173549"/>
<line x1="1819.348134" y1="1540.962034" x2="1613.652426" y2="1648.040444" stroke="black" stroke-width="5.173549"/>
<line x1="1642.314945" y1="1633.119683" x2="1738.861046" y2="1818.583026" stroke="black" stroke-width="5.173549"/>
<line x1="1854.196271" y1="123.68913" x2="1670.45225" y2="123.68913" stroke="black" stroke-width="5.173549"/>
<line x1="1670.45225" y1="123.68913" x2="1670.45225" y2="74.585124" stroke="black" stroke-width="5.173549"/>
<line x1="1854.196271" y1="74.585124" x2="1670.45225" y2="74.585124" stroke="black" stroke-width="5.173549"/>
<line x1="1854.196271" y1="123.68913" x2="1854.196271" y2="74.585124" stroke="black" stroke-width="5.173549"/>
<line x1="1812.616266" y1="151.409133" x2="1812.616266" y2="123.68913" stroke="black" stroke-width="5.173549"/>
<line x1="1713.616255" y1="123.68913" x2="1713.616255" y2="152.993133" stroke="black" stroke-width="5.173549"/>
<circle cx="1763.908261" cy="196.553138" r="66.52800756" fill="none" stroke="black" stroke-width="5.173549"/>
<circle cx="1763.908261" cy="196.553138" r="57.02400648" fill="none" stroke="black" stroke-width="5.173549"/>
<line x1="1489.224452" y1="207.508359" x2="1218.677221" y2="207.508359" stroke="black" stroke-width="5.173549"/>
<line x1="1218.677221" y1="207.508359" x2="1218.677221" y2="75.561144" stroke="black" stroke-width="5.173549"/>
<line x1="1489.224452" y1="75.561144" x2="1218.677221" y2="75.561144" stroke="black" stroke-width="5.173549"/>
<line x1="1489.224452" y1="207.508359" x2="1489.224452" y2="75.561144" stroke="black" stroke-width="5.173549"/>
<line x1="1482.571651" y1="200.855558" x2="1344.526036" y2="200.855558" stroke="black" stroke-width="5.173549"/>
<line x1="1344.526036" y1="200.855558" x2="1344.526036" y2="82.768345" stroke="black" stroke-width="5.173549"/>
<line x1="1482.571651" y1="82.768345" x2="1344.526036" y2="82.768345" stroke="black" stroke-width="5.173549"/>
<line x1="1482.571651" y1="200.855558" x2="1482.571651" y2="82.768345" stroke="black" stroke-width="5.173549"/>
<line x1="1330.111634" y1="193.093958" x2="1233.091623" y2="193.093958" stroke="black" stroke-width="5.173549"/>
<line x1="1330.111634" y1="172.581155" x2="1233.091623" y2="172.581155" stroke="black" stroke-width="5.173549"/>
<line x1="1329.557234" y1="151.513953" x2="1232.537223" y2="151.513953" stroke="black" stroke-width="5.173549"/>
<line x1="1329.557234" y1="131.00115" x2="1232.537223" y2="131.00115" stroke="black" stroke-width="5.173549"/>
<line x1="1330.111634" y1="110.488348" x2="1233.091623" y2="110.488348" stroke="black" stroke-width="5.173549"/>
<line x1="1330.111634" y1="89.975546" x2="1233.091623" y2="89.975546" stroke="black" stroke-width="5.173549"/>
<line x1="1429.903645" y1="82.768345" x2="1429.903645" y2="96.628347" stroke="black" stroke-width="5.173549"/>
<line x1="1429.903645" y1="96.628347" x2="1395.530841" y2="96.628347" stroke="black" stroke-width="5.173549"/>
<line x1="1395.530841" y1="96.628347" x2="1395.530841" y2="83.322745" stroke="black" stroke-width="5.173549"/>
<circle cx="1360.049237" cy="185.886757" r="8.316000945" fill="none" stroke="black" stroke-width="5.173549"/>
<line x1="1461.984904" y1="839.659365" x2="1479.175458" y2="839.659365" stroke="black" stroke-width="5.173549"/>
<line x1="1479.175458" y1="839.659365" x2="1479.175458" y2="806.116822" stroke="black" stroke-width="5.173549"/>
<line x1="1479.175458" y1="806.116822" x2="1461.984904" y2="806.116822" stroke="black" stroke-width="5.173549"/>
<line x1="1461.984904" y1="806.116822" x2="1461.984904" y2="839.659365" stroke="black" stroke-width="5.173549"/>
<line x1="1647.307453" y1="806.116822" x2="1647.307453" y2="638.823387" stroke="black" stroke-width="5.173549"/>
<line x1="1647.726735" y1="840.497927" x2="1664.917289" y2="840.497927" stroke="black" stroke-width="5.173549"/>
<line x1="1664.917289" y1="840.497927" x2="1664.917289" y2="806.955384" stroke="black" stroke-width="5.173549"/>
<line x1="1664.917289" y1="806.955384" x2="1647.726735" y2="806.955384" stroke="black" stroke-width="5.173549"/>
<line x1="1647.726735" y1="806.955384" x2="1647.726735" y2="840.497927" stroke="black" stroke-width="5.173549"/>
<path d="m 1479.175458,807.374667 a 168.1319965,168.1319965 0 0 1 168.13199499999996,-168.13199800000007" fill="none" stroke="black" stroke-width="5.173549"/>
<line x1="3706.166759" y1="68.324159" x2="3612.872137" y2="255.444218" stroke="black" stroke-width="5.173549"/>
<line x1="3612.872137" y1="255.444218" x2="3820.405294" y2="358.916432" stroke="black" stroke-width="5.173549"/>
<line x1="3820.405294" y1="358.916432" x2="3913.699913" y2="171.796373" stroke="black" stroke-width="5.173549"/>
<line x1="3913.699913" y1="171.796373" x2="3706.166759" y2="68.324159" stroke="black" stroke-width="5.173549"/>
<line x1="3735.085311" y1="82.742421" x2="3641.790695" y2="269.862478" stroke="black" stroke-width="5.173549"/>
<line x1="834.802452" y1="1601.741708" x2="834.802452" y2="1412.344658" stroke="black" stroke-width="5.173549"/>
<line x1="834.802452" y1="1412.344658" x2="1024.587612" y2="1412.344658" stroke="black" stroke-width="5.173549"/>
<line x1="1024.587612" y1="1412.344658" x2="1024.587612" y2="1601.741708" stroke="black" stroke-width="5.173549"/>
<line x1="1024.587612" y1="1601.741708" x2="834.802452" y2="1601.741708" stroke="black" stroke-width="5.173549"/>
<line x1="834.414344" y1="1602.129818" x2="1024.587612" y2="1412.344658" stroke="black" stroke-width="5.173549"/>
<line x1="1024.199504" y1="1601.741708" x2="834.802452" y2="1412.732766" stroke="black" stroke-width="5.173549"/>
<line x1="981.194359" y1="263.856703" x2="981.194359" y2="74.459653" stroke="black" stroke-width="5.173549"/>
<line x1="981.194359" y1="74.459653" x2="1170.979519" y2="74.459653" stroke="black" stroke-width="5.173549"/>
<line x1="1170.979519" y1="74.459653" x2="1170.979519" y2="263.856703" stroke="black" stroke-width="5.173549"/>
<line x1="1170.979519" y1="263.856703" x2="981.194359" y2="263.856703" stroke="black" stroke-width="5.173549"/>
<line x1="980.806251" y1="264.244813" x2="1170.979519" y2="74.459653" stroke="black" stroke-width="5.173549"/>
<line x1="1170.591411" y1="263.856703" x2="981.194359" y2="74.847762" stroke="black" stroke-width="5.173549"/>
<line x1="981.308144" y1="455.126025" x2="981.308144" y2="265.728976" stroke="black" stroke-width="5.173549"/>
<line x1="981.308144" y1="265.728976" x2="1171.093304" y2="265.728976" stroke="black" stroke-width="5.173549"/>
<line x1="1171.093304" y1="265.728976" x2="1171.093304" y2="455.126025" stroke="black" stroke-width="5.173549"/>
<line x1="1171.093304" y1="455.126025" x2="981.308144" y2="455.126025" stroke="black" stroke-width="5.173549"/>
<line x1="980.920036" y1="455.514136" x2="1171.093304" y2="265.728976" stroke="black" stroke-width="5.173549"/>
<line x1="1170.705196" y1="455.126025" x2="981.308144" y2="266.117084" stroke="black" stroke-width="5.173549"/>
<line x1="833.111011" y1="1837.387615" x2="833.111011" y2="1647.990566" stroke="black" stroke-width="5.173549"/>
<line x1="833.111011" y1="1647.990566" x2="1022.896171" y2="1647.990566" stroke="black" stroke-width="5.173549"/>
<line x1="1022.896171" y1="1647.990566" x2="1022.896171" y2="1837.387615" stroke="black" stroke-width="5.173549"/>
<line x1="1022.896171" y1="1837.387615" x2="833.111011" y2="1837.387615" stroke="black" stroke-width="5.173549"/>
<line x1="832.722903" y1="1837.775726" x2="1022.896171" y2="1647.990566" stroke="black" stroke-width="5.173549"/>
<line x1="1022.508063" y1="1837.387615" x2="833.111011" y2="1648.378674" stroke="black" stroke-width="5.173549"/>
</g>
</svg>
