<?xml version="1.0"?>
<svg xmlns:xlink="http://www.w3.org/1999/xlink" width="4307.458554" height="1893.135699">
<image x="0" y="0" width="4307.458554" height="1893.135699" xlink:href="ground16-09.png"/>
<g style="stroke-linecap:round">
<line x1="1501.172772" y1="65.56479" x2="1713.617124" y2="65.56479" stroke="black" stroke-width="5.173549"/>
<line x1="1713.617124" y1="65.56479" x2="1713.617124" y2="32.814748" stroke="black" stroke-width="5.173549"/>
<line x1="1713.617124" y1="32.814748" x2="1501.172772" y2="32.814748" stroke="black" stroke-width="5.173549"/>
<line x1="1501.172772" y1="32.814748" x2="1501.172772" y2="65.56479" stroke="black" stroke-width="5.173549"/>
<line x1="1520.995165" y1="33.24567" x2="1520.995165" y2="65.133868" stroke="black" stroke-width="5.173549"/>
<line x1="1693.363809" y1="33.24567" x2="1693.363809" y2="66.426634" stroke="black" stroke-width="5.173549"/>
<line x1="1520.564243" y1="48.327927" x2="1692.932887" y2="48.327927" stroke="black" stroke-width="5.173549"/>
<line x1="387.900809" y1="65.059724" x2="596.392707" y2="65.059724" stroke="black" stroke-width="5.173549"/>
<line x1="596.392707" y1="65.059724" x2="596.392707" y2="32.918986" stroke="black" stroke-width="5.173549"/>
<line x1="596.392707" y1="32.918986" x2="387.900809" y2="32.918986" stroke="black" stroke-width="5.173549"/>
<line x1="387.900809" y1="32.918986" x2="387.900809" y2="65.059724" stroke="black" stroke-width="5.173549"/>
<line x1="407.354414" y1="33.341891" x2="407.354414" y2="64.636819" stroke="black" stroke-width="5.173549"/>
<line x1="576.516198" y1="33.341891" x2="576.516198" y2="65.905534" stroke="black" stroke-width="5.173549"/>
<line x1="406.931509" y1="48.143547" x2="576.093293" y2="48.143547" stroke="black" stroke-width="5.173549"/>
<line x1="50.126013" y1="533.317951" x2="50.126013" y2="325.320107" stroke="black" stroke-width="5.173549"/>
<line x1="50.126013" y1="325.320107" x2="18.061434" y2="325.320107" stroke="black" stroke-width="5.173549"/>
<line x1="18.061434" y1="325.320107" x2="18.061434" y2="533.317951" stroke="black" stroke-width="5.173549"/>
<line x1="18.061434" y1="533.317951" x2="50.126013" y2="533.317951" stroke="black" stroke-width="5.173549"/>
<line x1="18.483338" y1="513.910443" x2="49.704109" y2="513.910443" stroke="black" stroke-width="5.173549"/>
<line x1="18.483338" y1="345.149518" x2="50.969817" y2="345.149518" stroke="black" stroke-width="5.173549"/>
<line x1="33.249919" y1="514.332347" x2="33.249919" y2="345.571419" stroke="black" stroke-width="5.173549"/>
<line x1="54.925669" y1="1569.564499" x2="54.925669" y2="1363.062718" stroke="black" stroke-width="5.173549"/>
<line x1="54.925669" y1="1363.062718" x2="17.990392" y2="1363.062718" stroke="black" stroke-width="5.173549"/>
<line x1="17.990392" y1="1363.062718" x2="17.990392" y2="1569.564499" stroke="black" stroke-width="5.173549"/>
<line x1="17.990392" y1="1569.564499" x2="54.925669" y2="1569.564499" stroke="black" stroke-width="5.173549"/>
<line x1="54.925669" y1="1559.910961" x2="67.517241" y2="1559.910961" stroke="black" stroke-width="5.173549"/>
<line x1="67.517241" y1="1559.910961" x2="67.517241" y2="1373.135976" stroke="black" stroke-width="5.173549"/>
<line x1="54.925669" y1="1373.135976" x2="67.517241" y2="1373.135976" stroke="black" stroke-width="5.173549"/>
<line x1="440.963045" y1="1842.887312" x2="233.459259" y2="1842.887312" stroke="black" stroke-width="5.173549"/>
<line x1="233.459259" y1="1842.887312" x2="233.459259" y2="1874.875726" stroke="black" stroke-width="5.173549"/>
<line x1="233.459259" y1="1874.875726" x2="440.963045" y2="1874.875726" stroke="black" stroke-width="5.173549"/>
<line x1="440.963045" y1="1874.875726" x2="440.963045" y2="1842.887312" stroke="black" stroke-width="5.173549"/>
<line x1="421.601637" y1="1874.454826" x2="421.601637" y2="1843.308212" stroke="black" stroke-width="5.173549"/>
<line x1="253.241566" y1="1874.454826" x2="253.241566" y2="1842.045513" stroke="black" stroke-width="5.173549"/>
<line x1="422.022536" y1="1859.72332" x2="253.662466" y2="1859.72332" stroke="black" stroke-width="5.173549"/>
<line x1="1467.379845" y1="1837.446095" x2="1259.890016" y2="1837.446095" stroke="black" stroke-width="5.173549"/>
<line x1="1259.890016" y1="1837.446095" x2="1259.890016" y2="1874.558095" stroke="black" stroke-width="5.173549"/>
<line x1="1259.890016" y1="1874.558095" x2="1467.379845" y2="1874.558095" stroke="black" stroke-width="5.173549"/>
<line x1="1467.379845" y1="1874.558095" x2="1467.379845" y2="1837.446095" stroke="black" stroke-width="5.173549"/>
<line x1="1457.680118" y1="1837.446095" x2="1457.680118" y2="1824.794277" stroke="black" stroke-width="5.173549"/>
<line x1="1457.680118" y1="1824.794277" x2="1270.011474" y2="1824.794277" stroke="black" stroke-width="5.173549"/>
<line x1="1270.011474" y1="1837.446095" x2="1270.011474" y2="1824.794277" stroke="black" stroke-width="5.173549"/>
<line x1="2343.276617" y1="1092.140299" x2="2356.300903" y2="1092.140299" stroke="black" stroke-width="5.173549"/>
<line x1="2356.300903" y1="1092.140299" x2="2356.300903" y2="1300.528857" stroke="black" stroke-width="5.173549"/>
<line x1="2343.276617" y1="1300.528857" x2="2356.300903" y2="1300.528857" stroke="black" stroke-width="5.173549"/>
<line x1="2343.276617" y1="1092.140299" x2="2343.276617" y2="1300.528857" stroke="black" stroke-width="5.173549"/>
<line x1="2746.161161" y1="1092.140299" x2="2760.053732" y2="1092.140299" stroke="black" stroke-width="5.173549"/>
<line x1="2760.053732" y1="1092.140299" x2="2760.053732" y2="1300.528857" stroke="black" stroke-width="5.173549"/>
<line x1="2746.161161" y1="1300.528857" x2="2760.053732" y2="1300.528857" stroke="black" stroke-width="5.173549"/>
<line x1="2746.161161" y1="1092.140299" x2="2746.161161" y2="1300.528857" stroke="black" stroke-width="5.173549"/>
<path d="m 2343.276617,1092.140299 a 208.3885580000001,208.3885580000001 0 0 1 208.3885580000001,208.3885580000001" fill="none" stroke="black" stroke-width="5.173549"/>
<path d="m 2551.665175,1300.528857 a 208.38855749999993,208.38855749999993 0 0 1 208.38855699999976,-208.3885580000001" fill="none" stroke="black" stroke-width="5.173549"/>
<line x1="3571.182719" y1="1089.212007" x2="3584.395307" y2="1089.212007" stroke="black" stroke-width="5.173549"/>
<line x1="3584.395307" y1="1089.212007" x2="3584.395307" y2="1300.613412" stroke="black" stroke-width="5.173549"/>
<line x1="3571.182719" y1="1300.613412" x2="3584.395307" y2="1300.613412" stroke="black" stroke-width="5.173549"/>
<line x1="3571.182719" y1="1089.212007" x2="3571.182719" y2="1300.613412" stroke="black" stroke-width="5.173549"/>
<line x1="3979.892099" y1="1089.212007" x2="3993.985526" y2="1089.212007" stroke="black" stroke-width="5.173549"/>
<line x1="3993.985526" y1="1089.212007" x2="3993.985526" y2="1300.613412" stroke="black" stroke-width="5.173549"/>
<line x1="3979.892099" y1="1300.613412" x2="3993.985526" y2="1300.613412" stroke="black" stroke-width="5.173549"/>
<line x1="3979.892099" y1="1089.212007" x2="3979.892099" y2="1300.613412" stroke="black" stroke-width="5.173549"/>
<path d="m 3571.182719,1089.212007 a 211.40140499999995,211.40140499999995 0 0 1 211.40140500000007,211.40140499999984" fill="none" stroke="black" stroke-width="5.173549"/>
<path d="m 3782.584124,1300.613412 a 211.4014034999999,211.4014034999999 0 0 1 211.40140199999996,-211.40140499999984" fill="none" stroke="black" stroke-width="5.173549"/>
<line x1="2964.797099" y1="1096.111521" x2="2977.586005" y2="1096.111521" stroke="black" stroke-width="5.173549"/>
<line x1="2977.586005" y1="1096.111521" x2="2977.586005" y2="1300.734018" stroke="black" stroke-width="5.173549"/>
<line x1="2964.797099" y1="1300.734018" x2="2977.586005" y2="1300.734018" stroke="black" stroke-width="5.173549"/>
<line x1="2964.797099" y1="1096.111521" x2="2964.797099" y2="1300.734018" stroke="black" stroke-width="5.173549"/>
<line x1="3360.400597" y1="1096.111521" x2="3374.042096" y2="1096.111521" stroke="black" stroke-width="5.173549"/>
<line x1="3374.042096" y1="1096.111521" x2="3374.042096" y2="1300.734018" stroke="black" stroke-width="5.173549"/>
<line x1="3360.400597" y1="1300.734018" x2="3374.042096" y2="1300.734018" stroke="black" stroke-width="5.173549"/>
<line x1="3360.400597" y1="1096.111521" x2="3360.400597" y2="1300.734018" stroke="black" stroke-width="5.173549"/>
<path d="m 2964.797099,1096.111521 a 204.62249700000018,204.62249700000018 0 0 1 204.6224970000003,204.62249700000007" fill="none" stroke="black" stroke-width="5.173549"/>
<path d="m 3169.419596,1300.734018 a 204.6224985,204.6224985 0 0 1 204.62249999999995,-204.62249700000007" fill="none" stroke="black" stroke-width="5.173549"/>
<line x1="4257.168909" y1="1030.381402" x2="4257.168909" y2="1237.885188" stroke="black" stroke-width="5.173549"/>
<line x1="4257.168909" y1="1237.885188" x2="4289.157323" y2="1237.885188" stroke="black" stroke-width="5.173549"/>
<line x1="4289.157323" y1="1237.885188" x2="4289.157323" y2="1030.381402" stroke="black" stroke-width="5.173549"/>
<line x1="4289.157323" y1="1030.381402" x2="4257.168909" y2="1030.381402" stroke="black" stroke-width="5.173549"/>
<line x1="4288.736423" y1="1049.74281" x2="4257.589808" y2="1049.74281" stroke="black" stroke-width="5.173549"/>
<line x1="4288.736423" y1="1218.102881" x2="4256.32711" y2="1218.102881" stroke="black" stroke-width="5.173549"/>
<line x1="4274.004917" y1="1049.321911" x2="4274.004917" y2="1217.681981" stroke="black" stroke-width="5.173549"/>
<line x1="954.044289" y1="840.013072" x2="972.615108" y2="840.013072" stroke="black" stroke-width="5.173549"/>
<line x1="972.615108" y1="840.013072" x2="972.615108" y2="803.777333" stroke="black" stroke-width="5.173549"/>
<line x1="972.615108" y1="803.777333" x2="954.044289" y2="803.777333" stroke="black" stroke-width="5.173549"/>
<line x1="954.044289" y1="803.777333" x2="954.044289" y2="840.013072" stroke="black" stroke-width="5.173549"/>
<line x1="1154.246754" y1="803.777333" x2="1154.246754" y2="623.051579" stroke="black" stroke-width="5.173549"/>
<line x1="1154.699702" y1="840.918967" x2="1173.270517" y2="840.918967" stroke="black" stroke-width="5.173549"/>
<line x1="1173.270517" y1="840.918967" x2="1173.270517" y2="804.683225" stroke="black" stroke-width="5.173549"/>
<line x1="1173.270517" y1="804.683225" x2="1154.699702" y2="804.683225" stroke="black" stroke-width="5.173549"/>
<line x1="1154.699702" y1="804.683225" x2="1154.699702" y2="840.918967" stroke="black" stroke-width="5.173549"/>
<path d="m 972.615108,805.136173 a 181.6316465,181.6316465 0 0 1 181.63164600000005,-181.63164699999993" fill="none" stroke="black" stroke-width="5.173549"/>
<line x1="53.412936" y1="578.052502" x2="274.786112" y2="578.052502" stroke="black" stroke-width="5.173549"/>
<line x1="274.786112" y1="578.052502" x2="274.786112" y2="799.879311" stroke="black" stroke-width="5.173549"/>
<line x1="274.786112" y1="799.879311" x2="53.412936" y2="799.879311" stroke="black" stroke-width="5.173549"/>
<line x1="53.412936" y1="799.879311" x2="53.412936" y2="578.052502" stroke="black" stroke-width="5.173549"/>
<line x1="52.959304" y1="577.598867" x2="274.786112" y2="799.879311" stroke="black" stroke-width="5.173549"/>
<line x1="53.412936" y1="799.425678" x2="274.33248" y2="578.052502" stroke="black" stroke-width="5.173549"/>
<line x1="1274.097936" y1="1083.830274" x2="1256.238165" y2="1083.830274" stroke="black" stroke-width="5.173549"/>
<line x1="1256.238165" y1="1083.830274" x2="1256.238165" y2="1118.678608" stroke="black" stroke-width="5.173549"/>
<line x1="1256.238165" y1="1118.678608" x2="1274.097936" y2="1118.678608" stroke="black" stroke-width="5.173549"/>
<line x1="1274.097936" y1="1118.678608" x2="1274.097936" y2="1083.830274" stroke="black" stroke-width="5.173549"/>
<line x1="1081.560882" y1="1118.678608" x2="1081.560882" y2="1292.484683" stroke="black" stroke-width="5.173549"/>
<line x1="1081.12528" y1="1082.959064" x2="1063.265506" y2="1082.959064" stroke="black" stroke-width="5.173549"/>
<line x1="1063.265506" y1="1082.959064" x2="1063.265506" y2="1117.8074" stroke="black" stroke-width="5.173549"/>
<line x1="1063.265506" y1="1117.8074" x2="1081.12528" y2="1117.8074" stroke="black" stroke-width="5.173549"/>
<line x1="1081.12528" y1="1117.8074" x2="1081.12528" y2="1082.959064" stroke="black" stroke-width="5.173549"/>
<path d="m 1256.238165,1117.371795 a 174.677283,174.677283 0 0 1 -174.677283,174.677283" fill="none" stroke="black" stroke-width="5.173549"/>
<line x1="2144.721745" y1="1399.673911" x2="2144.721745" y2="1604.693622" stroke="black" stroke-width="5.173549"/>
<line x1="2144.721745" y1="1604.693622" x2="2181.391937" y2="1604.693622" stroke="black" stroke-width="5.173549"/>
<line x1="2181.391937" y1="1604.693622" x2="2181.391937" y2="1399.673911" stroke="black" stroke-width="5.173549"/>
<line x1="2181.391937" y1="1399.673911" x2="2144.721745" y2="1399.673911" stroke="black" stroke-width="5.173549"/>
<line x1="2144.721745" y1="1409.258168" x2="2132.220542" y2="1409.258168" stroke="black" stroke-width="5.173549"/>
<line x1="2132.220542" y1="1409.258168" x2="2132.220542" y2="1594.692662" stroke="black" stroke-width="5.173549"/>
<line x1="2144.721745" y1="1594.692662" x2="2132.220542" y2="1594.692662" stroke="black" stroke-width="5.173549"/>
<line x1="1217.501921" y1="357.119769" x2="1217.501921" y2="803.248252" stroke="black" stroke-width="5.173549"/>
<line x1="1217.501921" y1="803.248252" x2="1416.182622" y2="803.248252" stroke="black" stroke-width="5.173549"/>
<line x1="1416.182622" y1="803.248252" x2="1416.182622" y2="357.119769" stroke="black" stroke-width="5.173549"/>
<line x1="1416.182622" y1="357.119769" x2="1217.501921" y2="357.119769" stroke="black" stroke-width="5.173549"/>
<line x1="1385.477422" y1="717.454313" x2="1385.477422" y2="393.243532" stroke="black" stroke-width="5.173549"/>
<line x1="1385.477422" y1="393.243532" x2="1250.916402" y2="393.243532" stroke="black" stroke-width="5.173549"/>
<line x1="1250.916402" y1="393.243532" x2="1250.916402" y2="723.775971" stroke="black" stroke-width="5.173549"/>
<path d="m 1385.768674,716.530041 a 72.24752666021107,72.24752666021107 0 0 1 -136.119007,4.896106000000032" fill="none" stroke="black" stroke-width="5.173549"/>
<line x1="1697.778678" y1="373.629231" x2="1855.199605" y2="373.629231" stroke="black" stroke-width="5.173549"/>
<line x1="1855.199605" y1="373.629231" x2="1855.199605" y2="531.372742" stroke="black" stroke-width="5.173549"/>
<line x1="1855.199605" y1="531.372742" x2="1697.778678" y2="531.372742" stroke="black" stroke-width="5.173549"/>
<line x1="1697.778678" y1="531.372742" x2="1697.778678" y2="373.629231" stroke="black" stroke-width="5.173549"/>
<line x1="1697.456094" y1="373.306647" x2="1855.199605" y2="531.372742" stroke="black" stroke-width="5.173549"/>
<line x1="1697.778678" y1="531.050158" x2="1854.877021" y2="373.629231" stroke="black" stroke-width="5.173549"/>
<line x1="2338.366799" y1="111.41903" x2="2338.366799" y2="555.514599" stroke="black" stroke-width="5.173549"/>
<line x1="2339.491912" y1="559.981492" x2="2185.827623" y2="559.981492" stroke="black" stroke-width="5.173549"/>
<line x1="2184.527212" y1="111.943469" x2="2184.527212" y2="560.326316" stroke="black" stroke-width="5.173549"/>
<line x1="2337.582208" y1="112.773391" x2="2184.826701" y2="112.773391" stroke="black" stroke-width="5.173549"/>
<line x1="2325.844974" y1="124.400801" x2="2325.844974" y2="263.929728" stroke="black" stroke-width="5.173549"/>
<line x1="2325.844974" y1="263.929728" x2="2197.04904" y2="263.929728" stroke="black" stroke-width="5.173549"/>
<line x1="2197.04904" y1="124.400801" x2="2197.04904" y2="263.929728" stroke="black" stroke-width="5.173549"/>
<line x1="2325.844974" y1="124.400801" x2="2197.04904" y2="124.400801" stroke="black" stroke-width="5.173549"/>
<line x1="2317.795228" y1="285.395717" x2="2317.795228" y2="383.781499" stroke="black" stroke-width="5.173549"/>
<line x1="2295.434822" y1="285.395717" x2="2295.434822" y2="383.781499" stroke="black" stroke-width="5.173549"/>
<line x1="2272.180001" y1="286.290133" x2="2272.180001" y2="383.781499" stroke="black" stroke-width="5.173549"/>
<line x1="2249.819595" y1="286.290133" x2="2249.819595" y2="383.781499" stroke="black" stroke-width="5.173549"/>
<line x1="2227.459192" y1="285.395717" x2="2227.459192" y2="383.781499" stroke="black" stroke-width="5.173549"/>
<line x1="2205.098786" y1="285.395717" x2="2205.098786" y2="383.781499" stroke="black" stroke-width="5.173549"/>
<line x1="2197.943456" y1="178.065774" x2="2213.148532" y2="178.065774" stroke="black" stroke-width="5.173549"/>
<line x1="2213.148532" y1="178.065774" x2="2213.148532" y2="212.053589" stroke="black" stroke-width="5.173549"/>
<line x1="2213.148532" y1="212.053589" x2="2198.837872" y2="212.053589" stroke="black" stroke-width="5.173549"/>
<line x1="2325.844974" y1="407.036321" x2="2325.844974" y2="546.565248" stroke="black" stroke-width="5.173549"/>
<line x1="2325.844974" y1="546.565248" x2="2197.04904" y2="546.565248" stroke="black" stroke-width="5.173549"/>
<line x1="2197.04904" y1="407.036321" x2="2197.04904" y2="546.565248" stroke="black" stroke-width="5.173549"/>
<line x1="2325.844974" y1="407.036321" x2="2197.04904" y2="407.036321" stroke="black" stroke-width="5.173549"/>
<line x1="2197.04904" y1="460.701292" x2="2212.254116" y2="460.701292" stroke="black" stroke-width="5.173549"/>
<line x1="2212.254116" y1="460.701292" x2="2212.254116" y2="494.689109" stroke="black" stroke-width="5.173549"/>
<line x1="2212.254116" y1="494.689109" x2="2197.943456" y2="494.689109" stroke="black" stroke-width="5.173549"/>
<circle cx="2309.745482" cy="247.830236" r="8.049745819853571" fill="none" stroke="black" stroke-width="5.173549"/>
<circle cx="2308.851066" cy="530.465756" r="8.049745819853571" fill="none" stroke="black" stroke-width="5.173549"/>
<line x1="3495.154185" y1="336.4189" x2="3102.32214" y2="336.4189" stroke="black" stroke-width="5.173549"/>
<line x1="3102.32214" y1="336.4189" x2="3102.32214" y2="520.954921" stroke="black" stroke-width="5.173549"/>
<line x1="3102.32214" y1="520.954921" x2="3495.154185" y2="520.954921" stroke="black" stroke-width="5.173549"/>
<line x1="3495.154185" y1="520.954921" x2="3495.154185" y2="336.4189" stroke="black" stroke-width="5.173549"/>
<line x1="3335.962167" y1="520.954921" x2="3335.962167" y2="601.73893" stroke="black" stroke-width="5.173549"/>
<line x1="3335.962167" y1="601.73893" x2="3414.370176" y2="601.73893" stroke="black" stroke-width="5.173549"/>
<line x1="3414.370176" y1="601.73893" x2="3414.370176" y2="520.954921" stroke="black" stroke-width="5.173549"/>
<line x1="3413.578176" y1="584.314928" x2="3335.962167" y2="584.314928" stroke="black" stroke-width="5.173549"/>
<line x1="3414.370176" y1="254.842891" x2="3335.962167" y2="254.842891" stroke="black" stroke-width="5.173549"/>
<line x1="3335.962167" y1="254.842891" x2="3335.962167" y2="336.4189" stroke="black" stroke-width="5.173549"/>
<line x1="3414.370176" y1="336.4189" x2="3414.370176" y2="254.842891" stroke="black" stroke-width="5.173549"/>
<line x1="3413.578176" y1="272.266893" x2="3335.962167" y2="272.266893" stroke="black" stroke-width="5.173549"/>
<line x1="3184.69015" y1="520.954921" x2="3184.69015" y2="601.73893" stroke="black" stroke-width="5.173549"/>
<line x1="3184.69015" y1="601.73893" x2="3263.098159" y2="601.73893" stroke="black" stroke-width="5.173549"/>
<line x1="3263.098159" y1="601.73893" x2="3263.098159" y2="520.954921" stroke="black" stroke-width="5.173549"/>
<line x1="3263.098159" y1="584.314928" x2="3184.69015" y2="584.314928" stroke="black" stroke-width="5.173549"/>
<line x1="3263.098159" y1="254.842891" x2="3184.69015" y2="254.842891" stroke="black" stroke-width="5.173549"/>
<line x1="3184.69015" y1="254.842891" x2="3184.69015" y2="336.4189" stroke="black" stroke-width="5.173549"/>
<line x1="3263.098159" y1="336.4189" x2="3263.098159" y2="254.842891" stroke="black" stroke-width="5.173549"/>
<line x1="3263.098159" y1="272.266893" x2="3184.69015" y2="272.266893" stroke="black" stroke-width="5.173549"/>
<line x1="4062.786081" y1="600.559514" x2="4252.866103" y2="600.559514" stroke="black" stroke-width="5.173549"/>
<line x1="4252.866103" y1="600.559514" x2="4252.866103" y2="136.764262" stroke="black" stroke-width="5.173549"/>
<line x1="4252.866103" y1="136.764262" x2="4062.786081" y2="136.764262" stroke="black" stroke-width="5.173549"/>
<line x1="4062.786081" y1="136.764262" x2="4062.786081" y2="160.524264" stroke="black" stroke-width="5.173549"/>
<line x1="4062.786081" y1="160.524264" x2="4230.0565" y2="160.524264" stroke="black" stroke-width="5.173549"/>
<line x1="4230.0565" y1="160.524264" x2="4230.0565" y2="575.849112" stroke="black" stroke-width="5.173549"/>
<line x1="4230.0565" y1="575.849112" x2="4062.786081" y2="575.849112" stroke="black" stroke-width="5.173549"/>
<line x1="4062.786081" y1="575.849112" x2="4062.786081" y2="600.559514" stroke="black" stroke-width="5.173549"/>
<line x1="4068.488482" y1="575.849112" x2="4068.488482" y2="160.524264" stroke="black" stroke-width="5.173549"/>
<line x1="4067.538082" y1="368.661888" x2="4229.1061" y2="368.661888" stroke="black" stroke-width="5.173549"/>
<line x1="1020.653699" y1="1372.957061" x2="831.25665" y2="1372.957061" stroke="black" stroke-width="5.173549"/>
<line x1="831.25665" y1="1372.957061" x2="831.25665" y2="1183.171901" stroke="black" stroke-width="5.173549"/>
<line x1="831.25665" y1="1183.171901" x2="1020.653699" y2="1183.171901" stroke="black" stroke-width="5.173549"/>
<line x1="1020.653699" y1="1183.171901" x2="1020.653699" y2="1372.957061" stroke="black" stroke-width="5.173549"/>
<line x1="1021.04181" y1="1373.345169" x2="831.25665" y2="1183.171901" stroke="black" stroke-width="5.173549"/>
<line x1="1020.653699" y1="1183.560009" x2="831.644758" y2="1372.957061" stroke="black" stroke-width="5.173549"/>
<line x1="2443.97494" y1="64.637708" x2="2650.984668" y2="64.637708" stroke="black" stroke-width="5.173549"/>
<line x1="2650.984668" y1="64.637708" x2="2650.984668" y2="32.725459" stroke="black" stroke-width="5.173549"/>
<line x1="2650.984668" y1="32.725459" x2="2443.97494" y2="32.725459" stroke="black" stroke-width="5.173549"/>
<line x1="2443.97494" y1="32.725459" x2="2443.97494" y2="64.637708" stroke="black" stroke-width="5.173549"/>
<line x1="2463.290248" y1="33.145357" x2="2463.290248" y2="64.21781" stroke="black" stroke-width="5.173549"/>
<line x1="2631.249459" y1="33.145357" x2="2631.249459" y2="65.477504" stroke="black" stroke-width="5.173549"/>
<line x1="2462.87035" y1="47.841787" x2="2630.829561" y2="47.841787" stroke="black" stroke-width="5.173549"/>
<line x1="3578.119258" y1="65.722702" x2="3785.128986" y2="65.722702" stroke="black" stroke-width="5.173549"/>
<line x1="3785.128986" y1="65.722702" x2="3785.128986" y2="33.810453" stroke="black" stroke-width="5.173549"/>
<line x1="3785.128986" y1="33.810453" x2="3578.119258" y2="33.810453" stroke="black" stroke-width="5.173549"/>
<line x1="3578.119258" y1="33.810453" x2="3578.119258" y2="65.722702" stroke="black" stroke-width="5.173549"/>
<line x1="3597.434566" y1="34.230351" x2="3597.434566" y2="65.302804" stroke="black" stroke-width="5.173549"/>
<line x1="3765.393777" y1="34.230351" x2="3765.393777" y2="66.562498" stroke="black" stroke-width="5.173549"/>
<line x1="3597.014668" y1="48.926782" x2="3764.973879" y2="48.926782" stroke="black" stroke-width="5.173549"/>
<line x1="3786.525589" y1="65.638972" x2="3993.535318" y2="65.638972" stroke="black" stroke-width="5.173549"/>
<line x1="3993.535318" y1="65.638972" x2="3993.535318" y2="33.726723" stroke="black" stroke-width="5.173549"/>
<line x1="3993.535318" y1="33.726723" x2="3786.525589" y2="33.726723" stroke="black" stroke-width="5.173549"/>
<line x1="3786.525589" y1="33.726723" x2="3786.525589" y2="65.638972" stroke="black" stroke-width="5.173549"/>
<line x1="3805.840898" y1="34.146621" x2="3805.840898" y2="65.219074" stroke="black" stroke-width="5.173549"/>
<line x1="3973.800109" y1="34.146621" x2="3973.800109" y2="66.478768" stroke="black" stroke-width="5.173549"/>
<line x1="3805.421" y1="48.843052" x2="3973.380211" y2="48.843052" stroke="black" stroke-width="5.173549"/>
<line x1="53.027362" y1="1172.545735" x2="262.392586" y2="1172.545735" stroke="black" stroke-width="5.173549"/>
<line x1="262.392586" y1="1172.545735" x2="262.392586" y2="841.331297" stroke="black" stroke-width="5.173549"/>
<line x1="262.392586" y1="841.331297" x2="53.027362" y2="841.331297" stroke="black" stroke-width="5.173549"/>
<line x1="53.027362" y1="841.331297" x2="53.027362" y2="1172.545735" stroke="black" stroke-width="5.173549"/>
<line x1="52.354162" y1="900.572904" x2="263.065786" y2="900.572904" stroke="black" stroke-width="5.173549"/>
<line x1="263.065786" y1="900.572904" x2="53.700562" y2="950.38971" stroke="black" stroke-width="5.173549"/>
<line x1="53.700562" y1="950.38971" x2="85.340966" y2="996.840515" stroke="black" stroke-width="5.173549"/>
<line x1="85.340966" y1="996.840515" x2="263.065786" y2="899.899704" stroke="black" stroke-width="5.173549"/>
<line x1="427.219598" y1="798.687496" x2="448.869288" y2="776.656616" stroke="black" stroke-width="5.173549"/>
<line x1="448.869288" y1="776.656616" x2="299.398225" y2="629.771809" stroke="black" stroke-width="5.173549"/>
<line x1="299.398225" y1="629.771809" x2="277.748538" y2="651.802692" stroke="black" stroke-width="5.173549"/>
<line x1="277.748538" y1="651.802692" x2="427.219598" y2="798.687496" stroke="black" stroke-width="5.173549"/>
<line x1="570.107538" y1="653.283673" x2="591.757228" y2="631.252793" stroke="black" stroke-width="5.173549"/>
<line x1="591.757228" y1="631.252793" x2="442.286163" y2="484.367984" stroke="black" stroke-width="5.173549"/>
<line x1="442.286163" y1="484.367984" x2="420.636478" y2="506.398869" stroke="black" stroke-width="5.173549"/>
<line x1="420.636478" y1="506.398869" x2="570.107538" y2="653.283673" stroke="black" stroke-width="5.173549"/>
<line x1="448.536216" y1="776.995554" x2="570.107538" y2="653.283673" stroke="black" stroke-width="5.173549"/>
<line x1="299.409955" y1="631.115828" x2="299.420475" y2="593.81641" stroke="black" stroke-width="5.173549"/>
<line x1="384.353868" y1="507.387564" x2="421.647422" y2="506.726075" stroke="black" stroke-width="5.173549"/>
<line x1="298.088188" y1="595.172156" x2="385.686155" y2="506.031818" stroke="black" stroke-width="5.173549"/>
<line x1="417.009245" y1="745.347836" x2="538.580564" y2="621.63596" stroke="black" stroke-width="5.173549"/>
<line x1="50.307194" y1="1608.76544" x2="271.680371" y2="1608.76544" stroke="black" stroke-width="5.173549"/>
<line x1="271.680371" y1="1608.76544" x2="271.680371" y2="1830.592249" stroke="black" stroke-width="5.173549"/>
<line x1="271.680371" y1="1830.592249" x2="50.307194" y2="1830.592249" stroke="black" stroke-width="5.173549"/>
<line x1="50.307194" y1="1830.592249" x2="50.307194" y2="1608.76544" stroke="black" stroke-width="5.173549"/>
<line x1="49.853562" y1="1608.311806" x2="271.680371" y2="1830.592249" stroke="black" stroke-width="5.173549"/>
<line x1="50.307194" y1="1830.138617" x2="271.226739" y2="1608.76544" stroke="black" stroke-width="5.173549"/>
<line x1="438.568351" y1="1831.073688" x2="457.796585" y2="1806.900483" stroke="black" stroke-width="5.173549"/>
<line x1="457.796585" y1="1806.900483" x2="293.790696" y2="1676.444311" stroke="black" stroke-width="5.173549"/>
<line x1="293.790696" y1="1676.444311" x2="274.562462" y2="1700.617513" stroke="black" stroke-width="5.173549"/>
<line x1="274.562462" y1="1700.617513" x2="438.568351" y2="1831.073688" stroke="black" stroke-width="5.173549"/>
<line x1="565.474695" y1="1671.530546" x2="584.702934" y2="1647.357339" stroke="black" stroke-width="5.173549"/>
<line x1="584.702934" y1="1647.357339" x2="420.697043" y2="1516.901168" stroke="black" stroke-width="5.173549"/>
<line x1="420.697043" y1="1516.901168" x2="401.468811" y2="1541.074373" stroke="black" stroke-width="5.173549"/>
<line x1="401.468811" y1="1541.074373" x2="565.474695" y2="1671.530546" stroke="black" stroke-width="5.173549"/>
<line x1="457.500766" y1="1807.272379" x2="565.474695" y2="1671.530546" stroke="black" stroke-width="5.173549"/>
<line x1="293.94285" y1="1677.779738" x2="290.054461" y2="1640.68355" stroke="black" stroke-width="5.173549"/>
<line x1="365.488305" y1="1545.850213" x2="402.508418" y2="1541.294112" stroke="black" stroke-width="5.173549"/>
<line x1="288.871188" y1="1642.171133" x2="366.671582" y2="1544.36263" stroke="black" stroke-width="5.173549"/>
<line x1="422.838414" y1="1779.093498" x2="530.812343" y2="1643.351665" stroke="black" stroke-width="5.173549"/>
<line x1="384.097842" y1="286.107217" x2="384.097842" y2="76.741993" stroke="black" stroke-width="5.173549"/>
<line x1="384.097842" y1="76.741993" x2="52.883404" y2="76.741993" stroke="black" stroke-width="5.173549"/>
<line x1="52.883404" y1="76.741993" x2="52.883404" y2="286.107217" stroke="black" stroke-width="5.173549"/>
<line x1="52.883404" y1="286.107217" x2="384.097842" y2="286.107217" stroke="black" stroke-width="5.173549"/>
<line x1="112.125011" y1="286.780417" x2="112.125011" y2="76.068793" stroke="black" stroke-width="5.173549"/>
<line x1="112.125011" y1="76.068793" x2="161.941817" y2="285.434017" stroke="black" stroke-width="5.173549"/>
<line x1="161.941817" y1="285.434017" x2="208.392622" y2="253.793613" stroke="black" stroke-width="5.173549"/>
<line x1="208.392622" y1="253.793613" x2="111.451811" y2="76.068793" stroke="black" stroke-width="5.173549"/>
<line x1="1441.968826" y1="1456.887694" x2="1651.33405" y2="1456.887694" stroke="black" stroke-width="5.173549"/>
<line x1="1651.33405" y1="1456.887694" x2="1651.33405" y2="1125.673256" stroke="black" stroke-width="5.173549"/>
<line x1="1651.33405" y1="1125.673256" x2="1441.968826" y2="1125.673256" stroke="black" stroke-width="5.173549"/>
<line x1="1441.968826" y1="1125.673256" x2="1441.968826" y2="1456.887694" stroke="black" stroke-width="5.173549"/>
<line x1="1441.295626" y1="1184.914863" x2="1652.00725" y2="1184.914863" stroke="black" stroke-width="5.173549"/>
<line x1="1652.00725" y1="1184.914863" x2="1442.642026" y2="1234.731669" stroke="black" stroke-width="5.173549"/>
<line x1="1442.642026" y1="1234.731669" x2="1474.28243" y2="1281.182474" stroke="black" stroke-width="5.173549"/>
<line x1="1474.28243" y1="1281.182474" x2="1652.00725" y2="1184.241663" stroke="black" stroke-width="5.173549"/>
<line x1="1653.434968" y1="1456.38194" x2="1862.800192" y2="1456.38194" stroke="black" stroke-width="5.173549"/>
<line x1="1862.800192" y1="1456.38194" x2="1862.800192" y2="1125.167503" stroke="black" stroke-width="5.173549"/>
<line x1="1862.800192" y1="1125.167503" x2="1653.434968" y2="1125.167503" stroke="black" stroke-width="5.173549"/>
<line x1="1653.434968" y1="1125.167503" x2="1653.434968" y2="1456.38194" stroke="black" stroke-width="5.173549"/>
<line x1="1652.761768" y1="1184.40911" x2="1863.473392" y2="1184.40911" stroke="black" stroke-width="5.173549"/>
<line x1="1863.473392" y1="1184.40911" x2="1654.108168" y2="1234.225915" stroke="black" stroke-width="5.173549"/>
<line x1="1654.108168" y1="1234.225915" x2="1685.748572" y2="1280.67672" stroke="black" stroke-width="5.173549"/>
<line x1="1685.748572" y1="1280.67672" x2="1863.473392" y2="1183.735909" stroke="black" stroke-width="5.173549"/>
<line x1="1919.572859" y1="1613.63281" x2="2140.946035" y2="1613.63281" stroke="black" stroke-width="5.173549"/>
<line x1="2140.946035" y1="1613.63281" x2="2140.946035" y2="1835.459618" stroke="black" stroke-width="5.173549"/>
<line x1="2140.946035" y1="1835.459618" x2="1919.572859" y2="1835.459618" stroke="black" stroke-width="5.173549"/>
<line x1="1919.572859" y1="1835.459618" x2="1919.572859" y2="1613.63281" stroke="black" stroke-width="5.173549"/>
<line x1="1919.119227" y1="1613.179175" x2="2140.946035" y2="1835.459618" stroke="black" stroke-width="5.173549"/>
<line x1="1919.572859" y1="1835.005986" x2="2140.492403" y2="1613.63281" stroke="black" stroke-width="5.173549"/>
<line x1="1636.280326" y1="1610.885923" x2="1646.08123" y2="1640.177745" stroke="black" stroke-width="5.173549"/>
<line x1="1646.08123" y1="1640.177745" x2="1844.814994" y2="1573.682361" stroke="black" stroke-width="5.173549"/>
<line x1="1844.814994" y1="1573.682361" x2="1835.014088" y2="1544.390534" stroke="black" stroke-width="5.173549"/>
<line x1="1835.014088" y1="1544.390534" x2="1636.280326" y2="1610.885923" stroke="black" stroke-width="5.173549"/>
<line x1="1700.966315" y1="1804.211965" x2="1710.767221" y2="1833.503787" stroke="black" stroke-width="5.173549"/>
<line x1="1710.767221" y1="1833.503787" x2="1909.500983" y2="1767.008402" stroke="black" stroke-width="5.173549"/>
<line x1="1909.500983" y1="1767.008402" x2="1899.700077" y2="1737.716578" stroke="black" stroke-width="5.173549"/>
<line x1="1899.700077" y1="1737.716578" x2="1700.966315" y2="1804.211965" stroke="black" stroke-width="5.173549"/>
<line x1="1645.930451" y1="1639.727105" x2="1700.966315" y2="1804.211965" stroke="black" stroke-width="5.173549"/>
<line x1="1843.612143" y1="1573.082638" x2="1876.841391" y2="1590.025599" stroke="black" stroke-width="5.173549"/>
<line x1="1915.291102" y1="1704.939677" x2="1898.949575" y2="1738.468786" stroke="black" stroke-width="5.173549"/>
<line x1="1876.23826" y1="1588.223022" x2="1915.894238" y2="1706.742254" stroke="black" stroke-width="5.173549"/>
<line x1="1688.441715" y1="1626.004127" x2="1743.477581" y2="1790.488987" stroke="black" stroke-width="5.173549"/>
<line x1="1854.196271" y1="123.68913" x2="1670.45225" y2="123.68913" stroke="black" stroke-width="5.173549"/>
<line x1="1670.45225" y1="123.68913" x2="1670.45225" y2="74.585124" stroke="black" stroke-width="5.173549"/>
<line x1="1854.196271" y1="74.585124" x2="1670.45225" y2="74.585124" stroke="black" stroke-width="5.173549"/>
<line x1="1854.196271" y1="123.68913" x2="1854.196271" y2="74.585124" stroke="black" stroke-width="5.173549"/>
<line x1="1812.616266" y1="151.409133" x2="1812.616266" y2="123.68913" stroke="black" stroke-width="5.173549"/>
<line x1="1713.616255" y1="123.68913" x2="1713.616255" y2="152.993133" stroke="black" stroke-width="5.173549"/>
<circle cx="1763.908261" cy="196.553138" r="66.52800756" fill="none" stroke="black" stroke-width="5.173549"/>
<circle cx="1763.908261" cy="196.553138" r="57.02400648" fill="none" stroke="black" stroke-width="5.173549"/>
<line x1="1489.224452" y1="207.508359" x2="1218.677221" y2="207.508359" stroke="black" stroke-width="5.173549"/>
<line x1="1218.677221" y1="207.508359" x2="1218.677221" y2="75.561144" stroke="black" stroke-width="5.173549"/>
<line x1="1489.224452" y1="75.561144" x2="1218.677221" y2="75.561144" stroke="black" stroke-width="5.173549"/>
<line x1="1489.224452" y1="207.508359" x2="1489.224452" y2="75.561144" stroke="black" stroke-width="5.173549"/>
<line x1="1482.571651" y1="200.855558" x2="1344.526036" y2="200.855558" stroke="black" stroke-width="5.173549"/>
<line x1="1344.526036" y1="200.855558" x2="1344.526036" y2="82.768345" stroke="black" stroke-width="5.173549"/>
<line x1="1482.571651" y1="82.768345" x2="1344.526036" y2="82.768345" stroke="black" stroke-width="5.173549"/>
<line x1="1482.571651" y1="200.855558" x2="1482.571651" y2="82.768345" stroke="black" stroke-width="5.173549"/>
<line x1="1330.111634" y1="193.093958" x2="1233.091623" y2="193.093958" stroke="black" stroke-width="5.173549"/>
<line x1="1330.111634" y1="172.581155" x2="1233.091623" y2="172.581155" stroke="black" stroke-width="5.173549"/>
<line x1="1329.557234" y1="151.513953" x2="1232.537223" y2="151.513953" stroke="black" stroke-width="5.173549"/>
<line x1="1329.557234" y1="131.00115" x2="1232.537223" y2="131.00115" stroke="black" stroke-width="5.173549"/>
<line x1="1330.111634" y1="110.488348" x2="1233.091623" y2="110.488348" stroke="black" stroke-width="5.173549"/>
<line x1="1330.111634" y1="89.975546" x2="1233.091623" y2="89.975546" stroke="black" stroke-width="5.173549"/>
<line x1="1429.903645" y1="82.768345" x2="1429.903645" y2="96.628347" stroke="black" stroke-width="5.173549"/>
<line x1="1429.903645" y1="96.628347" x2="1395.530841" y2="96.628347" stroke="black" stroke-width="5.173549"/>
<line x1="1395.530841" y1="96.628347" x2="1395.530841" y2="83.322745" stroke="black" stroke-width="5.173549"/>
<circle cx="1360.049237" cy="185.886757" r="8.316000945" fill="none" stroke="black" stroke-width="5.173549"/>
<line x1="1461.984904" y1="839.659365" x2="1479.175458" y2="839.659365" stroke="black" stroke-width="5.173549"/>
<line x1="1479.175458" y1="839.659365" x2="1479.175458" y2="806.116822" stroke="black" stroke-width="5.173549"/>
<line x1="1479.175458" y1="806.116822" x2="1461.984904" y2="806.116822" stroke="black" stroke-width="5.173549"/>
<line x1="1461.984904" y1="806.116822" x2="1461.984904" y2="839.659365" stroke="black" stroke-width="5.173549"/>
<line x1="1647.307453" y1="806.116822" x2="1647.307453" y2="638.823387" stroke="black" stroke-width="5.173549"/>
<line x1="1647.726735" y1="840.497927" x2="1664.917289" y2="840.497927" stroke="black" stroke-width="5.173549"/>
<line x1="1664.917289" y1="840.497927" x2="1664.917289" y2="806.955384" stroke="black" stroke-width="5.173549"/>
<line x1="1664.917289" y1="806.955384" x2="1647.726735" y2="806.955384" stroke="black" stroke-width="5.173549"/>
<line x1="1647.726735" y1="806.955384" x2="1647.726735" y2="840.497927" stroke="black" stroke-width="5.173549"/>
<path d="m 1479.175458,807.374667 a 168.1319965,168.1319965 0 0 1 168.13199499999996,-168.13199800000007" fill="none" stroke="black" stroke-width="5.173549"/>
<line x1="3725.215053" y1="68.324159" x2="3612.872137" y2="244.667207" stroke="black" stroke-width="5.173549"/>
<line x1="3612.872137" y1="244.667207" x2="3808.45261" y2="369.265712" stroke="black" stroke-width="5.173549"/>
<line x1="3808.45261" y1="369.265712" x2="3920.795526" y2="192.922663" stroke="black" stroke-width="5.173549"/>
<line x1="3920.795526" y1="192.922663" x2="3725.215053" y2="68.324159" stroke="black" stroke-width="5.173549"/>
<line x1="3752.468068" y1="85.686247" x2="3640.125152" y2="262.029295" stroke="black" stroke-width="5.173549"/>
<line x1="834.802452" y1="1601.741708" x2="834.802452" y2="1412.344658" stroke="black" stroke-width="5.173549"/>
<line x1="834.802452" y1="1412.344658" x2="1024.587612" y2="1412.344658" stroke="black" stroke-width="5.173549"/>
<line x1="1024.587612" y1="1412.344658" x2="1024.587612" y2="1601.741708" stroke="black" stroke-width="5.173549"/>
<line x1="1024.587612" y1="1601.741708" x2="834.802452" y2="1601.741708" stroke="black" stroke-width="5.173549"/>
<line x1="834.414344" y1="1602.129818" x2="1024.587612" y2="1412.344658" stroke="black" stroke-width="5.173549"/>
<line x1="1024.199504" y1="1601.741708" x2="834.802452" y2="1412.732766" stroke="black" stroke-width="5.173549"/>
<line x1="833.111011" y1="1837.387615" x2="833.111011" y2="1647.990566" stroke="black" stroke-width="5.173549"/>
<line x1="833.111011" y1="1647.990566" x2="1022.896171" y2="1647.990566" stroke="black" stroke-width="5.173549"/>
<line x1="1022.896171" y1="1647.990566" x2="1022.896171" y2="1837.387615" stroke="black" stroke-width="5.173549"/>
<line x1="1022.896171" y1="1837.387615" x2="833.111011" y2="1837.387615" stroke="black" stroke-width="5.173549"/>
<line x1="832.722903" y1="1837.775726" x2="1022.896171" y2="1647.990566" stroke="black" stroke-width="5.173549"/>
<line x1="1022.508063" y1="1837.387615" x2="833.111011" y2="1648.378674" stroke="black" stroke-width="5.173549"/>
<line x1="981.194359" y1="263.856703" x2="981.194359" y2="74.459653" stroke="black" stroke-width="5.173549"/>
<line x1="981.194359" y1="74.459653" x2="1170.979519" y2="74.459653" stroke="black" stroke-width="5.173549"/>
<line x1="1170.979519" y1="74.459653" x2="1170.979519" y2="263.856703" stroke="black" stroke-width="5.173549"/>
<line x1="1170.979519" y1="263.856703" x2="981.194359" y2="263.856703" stroke="black" stroke-width="5.173549"/>
<line x1="980.806251" y1="264.244813" x2="1170.979519" y2="74.459653" stroke="black" stroke-width="5.173549"/>
<line x1="1170.591411" y1="263.856703" x2="981.194359" y2="74.847762" stroke="black" stroke-width="5.173549"/>
<line x1="981.308144" y1="455.126025" x2="981.308144" y2="265.728976" stroke="black" stroke-width="5.173549"/>
<line x1="981.308144" y1="265.728976" x2="1171.093304" y2="265.728976" stroke="black" stroke-width="5.173549"/>
<line x1="1171.093304" y1="265.728976" x2="1171.093304" y2="455.126025" stroke="black" stroke-width="5.173549"/>
<line x1="1171.093304" y1="455.126025" x2="981.308144" y2="455.126025" stroke="black" stroke-width="5.173549"/>
<line x1="980.920036" y1="455.514136" x2="1171.093304" y2="265.728976" stroke="black" stroke-width="5.173549"/>
<line x1="1170.705196" y1="455.126025" x2="981.308144" y2="266.117084" stroke="black" stroke-width="5.173549"/>
</g>
</svg>
