<?xml version="1.0"?>
<svg xmlns:xlink="http://www.w3.org/1999/xlink" width="4307.458554" height="1893.135699">
<image x="0" y="0" width="4307.458554" height="1893.135699" xlink:href="ground16-09.png"/>
<g style="stroke-linecap:round">
<line x1="1501.172772" y1="65.56479" x2="1713.617124" y2="65.56479" stroke="black" stroke-width="5.173549"/>
<line x1="1713.617124" y1="65.56479" x2="1713.617124" y2="32.814748" stroke="black" stroke-width="5.173549"/>
<line x1="1713.617124" y1="32.814748" x2="1501.172772" y2="32.814748" stroke="black" stroke-width="5.173549"/>
<line x1="1501.172772" y1="32.814748" x2="1501.172772" y2="65.56479" stroke="black" stroke-width="5.173549"/>
<line x1="1520.995165" y1="33.24567" x2="1520.995165" y2="65.133868" stroke="black" stroke-width="5.173549"/>
<line x1="1693.363809" y1="33.24567" x2="1693.363809" y2="66.426634" stroke="black" stroke-width="5.173549"/>
<line x1="1520.564243" y1="48.327927" x2="1692.932887" y2="48.327927" stroke="black" stroke-width="5.173549"/>
<line x1="387.900809" y1="65.059724" x2="596.392707" y2="65.059724" stroke="black" stroke-width="5.173549"/>
<line x1="596.392707" y1="65.059724" x2="596.392707" y2="32.918986" stroke="black" stroke-width="5.173549"/>
<line x1="596.392707" y1="32.918986" x2="387.900809" y2="32.918986" stroke="black" stroke-width="5.173549"/>
<line x1="387.900809" y1="32.918986" x2="387.900809" y2="65.059724" stroke="black" stroke-width="5.173549"/>
<line x1="407.354414" y1="33.341891" x2="407.354414" y2="64.636819" stroke="black" stroke-width="5.173549"/>
<line x1="576.516198" y1="33.341891" x2="576.516198" y2="65.905534" stroke="black" stroke-width="5.173549"/>
<line x1="406.931509" y1="48.143547" x2="576.093293" y2="48.143547" stroke="black" stroke-width="5.173549"/>
<line x1="50.126013" y1="533.317951" x2="50.126013" y2="325.320107" stroke="black" stroke-width="5.173549"/>
<line x1="50.126013" y1="325.320107" x2="18.061434" y2="325.320107" stroke="black" stroke-width="5.173549"/>
<line x1="18.061434" y1="325.320107" x2="18.061434" y2="533.317951" stroke="black" stroke-width="5.173549"/>
<line x1="18.061434" y1="533.317951" x2="50.126013" y2="533.317951" stroke="black" stroke-width="5.173549"/>
<line x1="18.483338" y1="513.910443" x2="49.704109" y2="513.910443" stroke="black" stroke-width="5.173549"/>
<line x1="18.483338" y1="345.149518" x2="50.969817" y2="345.149518" stroke="black" stroke-width="5.173549"/>
<line x1="33.249919" y1="514.332347" x2="33.249919" y2="345.571419" stroke="black" stroke-width="5.173549"/>
<line x1="49.826476" y1="1569.571446" x2="49.826476" y2="1363.055774" stroke="black" stroke-width="5.173549"/>
<line x1="49.826476" y1="1363.055774" x2="17.990387" y2="1363.055774" stroke="black" stroke-width="5.173549"/>
<line x1="17.990387" y1="1363.055774" x2="17.990387" y2="1569.571446" stroke="black" stroke-width="5.173549"/>
<line x1="17.990387" y1="1569.571446" x2="49.826476" y2="1569.571446" stroke="black" stroke-width="5.173549"/>
<line x1="18.409283" y1="1550.302234" x2="49.407579" y2="1550.302234" stroke="black" stroke-width="5.173549"/>
<line x1="18.409283" y1="1382.74388" x2="50.664266" y2="1382.74388" stroke="black" stroke-width="5.173549"/>
<line x1="33.070638" y1="1550.721131" x2="33.070638" y2="1383.162776" stroke="black" stroke-width="5.173549"/>
<line x1="440.963045" y1="1842.887312" x2="233.459259" y2="1842.887312" stroke="black" stroke-width="5.173549"/>
<line x1="233.459259" y1="1842.887312" x2="233.459259" y2="1874.875726" stroke="black" stroke-width="5.173549"/>
<line x1="233.459259" y1="1874.875726" x2="440.963045" y2="1874.875726" stroke="black" stroke-width="5.173549"/>
<line x1="440.963045" y1="1874.875726" x2="440.963045" y2="1842.887312" stroke="black" stroke-width="5.173549"/>
<line x1="421.601637" y1="1874.454826" x2="421.601637" y2="1843.308212" stroke="black" stroke-width="5.173549"/>
<line x1="253.241566" y1="1874.454826" x2="253.241566" y2="1842.045513" stroke="black" stroke-width="5.173549"/>
<line x1="422.022536" y1="1859.72332" x2="253.662466" y2="1859.72332" stroke="black" stroke-width="5.173549"/>
<line x1="1467.379845" y1="1837.446095" x2="1259.890016" y2="1837.446095" stroke="black" stroke-width="5.173549"/>
<line x1="1259.890016" y1="1837.446095" x2="1259.890016" y2="1874.558095" stroke="black" stroke-width="5.173549"/>
<line x1="1259.890016" y1="1874.558095" x2="1467.379845" y2="1874.558095" stroke="black" stroke-width="5.173549"/>
<line x1="1467.379845" y1="1874.558095" x2="1467.379845" y2="1837.446095" stroke="black" stroke-width="5.173549"/>
<line x1="1457.680118" y1="1837.446095" x2="1457.680118" y2="1824.794277" stroke="black" stroke-width="5.173549"/>
<line x1="1457.680118" y1="1824.794277" x2="1270.011474" y2="1824.794277" stroke="black" stroke-width="5.173549"/>
<line x1="1270.011474" y1="1837.446095" x2="1270.011474" y2="1824.794277" stroke="black" stroke-width="5.173549"/>
<line x1="2343.276617" y1="1092.140299" x2="2356.300903" y2="1092.140299" stroke="black" stroke-width="5.173549"/>
<line x1="2356.300903" y1="1092.140299" x2="2356.300903" y2="1300.528857" stroke="black" stroke-width="5.173549"/>
<line x1="2343.276617" y1="1300.528857" x2="2356.300903" y2="1300.528857" stroke="black" stroke-width="5.173549"/>
<line x1="2343.276617" y1="1092.140299" x2="2343.276617" y2="1300.528857" stroke="black" stroke-width="5.173549"/>
<line x1="2746.161161" y1="1092.140299" x2="2760.053732" y2="1092.140299" stroke="black" stroke-width="5.173549"/>
<line x1="2760.053732" y1="1092.140299" x2="2760.053732" y2="1300.528857" stroke="black" stroke-width="5.173549"/>
<line x1="2746.161161" y1="1300.528857" x2="2760.053732" y2="1300.528857" stroke="black" stroke-width="5.173549"/>
<line x1="2746.161161" y1="1092.140299" x2="2746.161161" y2="1300.528857" stroke="black" stroke-width="5.173549"/>
<path d="m 2343.276617,1092.140299 a 208.3885580000001,208.3885580000001 0 0 1 208.3885580000001,208.3885580000001" fill="none" stroke="black" stroke-width="5.173549"/>
<path d="m 2551.665175,1300.528857 a 208.38855749999993,208.38855749999993 0 0 1 208.38855699999976,-208.3885580000001" fill="none" stroke="black" stroke-width="5.173549"/>
<line x1="3571.182719" y1="1089.212007" x2="3584.395307" y2="1089.212007" stroke="black" stroke-width="5.173549"/>
<line x1="3584.395307" y1="1089.212007" x2="3584.395307" y2="1300.613412" stroke="black" stroke-width="5.173549"/>
<line x1="3571.182719" y1="1300.613412" x2="3584.395307" y2="1300.613412" stroke="black" stroke-width="5.173549"/>
<line x1="3571.182719" y1="1089.212007" x2="3571.182719" y2="1300.613412" stroke="black" stroke-width="5.173549"/>
<line x1="3979.892099" y1="1089.212007" x2="3993.985526" y2="1089.212007" stroke="black" stroke-width="5.173549"/>
<line x1="3993.985526" y1="1089.212007" x2="3993.985526" y2="1300.613412" stroke="black" stroke-width="5.173549"/>
<line x1="3979.892099" y1="1300.613412" x2="3993.985526" y2="1300.613412" stroke="black" stroke-width="5.173549"/>
<line x1="3979.892099" y1="1089.212007" x2="3979.892099" y2="1300.613412" stroke="black" stroke-width="5.173549"/>
<path d="m 3571.182719,1089.212007 a 211.40140499999995,211.40140499999995 0 0 1 211.40140500000007,211.40140499999984" fill="none" stroke="black" stroke-width="5.173549"/>
<path d="m 3782.584124,1300.613412 a 211.4014034999999,211.4014034999999 0 0 1 211.40140199999996,-211.40140499999984" fill="none" stroke="black" stroke-width="5.173549"/>
<line x1="2964.797099" y1="1096.111521" x2="2977.586005" y2="1096.111521" stroke="black" stroke-width="5.173549"/>
<line x1="2977.586005" y1="1096.111521" x2="2977.586005" y2="1300.734018" stroke="black" stroke-width="5.173549"/>
<line x1="2964.797099" y1="1300.734018" x2="2977.586005" y2="1300.734018" stroke="black" stroke-width="5.173549"/>
<line x1="2964.797099" y1="1096.111521" x2="2964.797099" y2="1300.734018" stroke="black" stroke-width="5.173549"/>
<line x1="3360.400597" y1="1096.111521" x2="3374.042096" y2="1096.111521" stroke="black" stroke-width="5.173549"/>
<line x1="3374.042096" y1="1096.111521" x2="3374.042096" y2="1300.734018" stroke="black" stroke-width="5.173549"/>
<line x1="3360.400597" y1="1300.734018" x2="3374.042096" y2="1300.734018" stroke="black" stroke-width="5.173549"/>
<line x1="3360.400597" y1="1096.111521" x2="3360.400597" y2="1300.734018" stroke="black" stroke-width="5.173549"/>
<path d="m 2964.797099,1096.111521 a 204.62249700000018,204.62249700000018 0 0 1 204.6224970000003,204.62249700000007" fill="none" stroke="black" stroke-width="5.173549"/>
<path d="m 3169.419596,1300.734018 a 204.6224985,204.6224985 0 0 1 204.62249999999995,-204.62249700000007" fill="none" stroke="black" stroke-width="5.173549"/>
<line x1="4252.045322" y1="1030.388379" x2="4252.045322" y2="1237.878208" stroke="black" stroke-width="5.173549"/>
<line x1="4252.045322" y1="1237.878208" x2="4289.157323" y2="1237.878208" stroke="black" stroke-width="5.173549"/>
<line x1="4289.157323" y1="1237.878208" x2="4289.157323" y2="1030.388379" stroke="black" stroke-width="5.173549"/>
<line x1="4289.157323" y1="1030.388379" x2="4252.045322" y2="1030.388379" stroke="black" stroke-width="5.173549"/>
<line x1="4252.045322" y1="1040.088107" x2="4239.393504" y2="1040.088107" stroke="black" stroke-width="5.173549"/>
<line x1="4239.393504" y1="1040.088107" x2="4239.393504" y2="1227.756751" stroke="black" stroke-width="5.173549"/>
<line x1="4252.045322" y1="1227.756751" x2="4239.393504" y2="1227.756751" stroke="black" stroke-width="5.173549"/>
<line x1="954.044289" y1="840.013072" x2="972.615108" y2="840.013072" stroke="black" stroke-width="5.173549"/>
<line x1="972.615108" y1="840.013072" x2="972.615108" y2="803.777333" stroke="black" stroke-width="5.173549"/>
<line x1="972.615108" y1="803.777333" x2="954.044289" y2="803.777333" stroke="black" stroke-width="5.173549"/>
<line x1="954.044289" y1="803.777333" x2="954.044289" y2="840.013072" stroke="black" stroke-width="5.173549"/>
<line x1="1154.246754" y1="803.777333" x2="1154.246754" y2="623.051579" stroke="black" stroke-width="5.173549"/>
<line x1="1154.699702" y1="840.918967" x2="1173.270517" y2="840.918967" stroke="black" stroke-width="5.173549"/>
<line x1="1173.270517" y1="840.918967" x2="1173.270517" y2="804.683225" stroke="black" stroke-width="5.173549"/>
<line x1="1173.270517" y1="804.683225" x2="1154.699702" y2="804.683225" stroke="black" stroke-width="5.173549"/>
<line x1="1154.699702" y1="804.683225" x2="1154.699702" y2="840.918967" stroke="black" stroke-width="5.173549"/>
<path d="m 972.615108,805.136173 a 181.6316465,181.6316465 0 0 1 181.63164600000005,-181.63164699999993" fill="none" stroke="black" stroke-width="5.173549"/>
<line x1="53.412936" y1="578.052502" x2="274.786112" y2="578.052502" stroke="black" stroke-width="5.173549"/>
<line x1="274.786112" y1="578.052502" x2="274.786112" y2="799.879311" stroke="black" stroke-width="5.173549"/>
<line x1="274.786112" y1="799.879311" x2="53.412936" y2="799.879311" stroke="black" stroke-width="5.173549"/>
<line x1="53.412936" y1="799.879311" x2="53.412936" y2="578.052502" stroke="black" stroke-width="5.173549"/>
<line x1="52.959304" y1="577.598867" x2="274.786112" y2="799.879311" stroke="black" stroke-width="5.173549"/>
<line x1="53.412936" y1="799.425678" x2="274.33248" y2="578.052502" stroke="black" stroke-width="5.173549"/>
<line x1="1274.097936" y1="1083.830274" x2="1256.238165" y2="1083.830274" stroke="black" stroke-width="5.173549"/>
<line x1="1256.238165" y1="1083.830274" x2="1256.238165" y2="1118.678608" stroke="black" stroke-width="5.173549"/>
<line x1="1256.238165" y1="1118.678608" x2="1274.097936" y2="1118.678608" stroke="black" stroke-width="5.173549"/>
<line x1="1274.097936" y1="1118.678608" x2="1274.097936" y2="1083.830274" stroke="black" stroke-width="5.173549"/>
<line x1="1081.560882" y1="1118.678608" x2="1081.560882" y2="1292.484683" stroke="black" stroke-width="5.173549"/>
<line x1="1081.12528" y1="1082.959064" x2="1063.265506" y2="1082.959064" stroke="black" stroke-width="5.173549"/>
<line x1="1063.265506" y1="1082.959064" x2="1063.265506" y2="1117.8074" stroke="black" stroke-width="5.173549"/>
<line x1="1063.265506" y1="1117.8074" x2="1081.12528" y2="1117.8074" stroke="black" stroke-width="5.173549"/>
<line x1="1081.12528" y1="1117.8074" x2="1081.12528" y2="1082.959064" stroke="black" stroke-width="5.173549"/>
<path d="m 1256.238165,1117.371795 a 174.677283,174.677283 0 0 1 -174.677283,174.677283" fill="none" stroke="black" stroke-width="5.173549"/>
<line x1="2149.784335" y1="1399.667013" x2="2149.784335" y2="1604.700515" stroke="black" stroke-width="5.173549"/>
<line x1="2149.784335" y1="1604.700515" x2="2181.391934" y2="1604.700515" stroke="black" stroke-width="5.173549"/>
<line x1="2181.391934" y1="1604.700515" x2="2181.391934" y2="1399.667013" stroke="black" stroke-width="5.173549"/>
<line x1="2181.391934" y1="1399.667013" x2="2149.784335" y2="1399.667013" stroke="black" stroke-width="5.173549"/>
<line x1="2180.976045" y1="1418.797929" x2="2150.200224" y2="1418.797929" stroke="black" stroke-width="5.173549"/>
<line x1="2180.976045" y1="1585.15371" x2="2148.952556" y2="1585.15371" stroke="black" stroke-width="5.173549"/>
<line x1="2166.419913" y1="1418.382039" x2="2166.419913" y2="1584.737821" stroke="black" stroke-width="5.173549"/>
<line x1="1416.182622" y1="803.248252" x2="1416.182622" y2="357.119769" stroke="black" stroke-width="5.173549"/>
<line x1="1416.182622" y1="357.119769" x2="1217.501921" y2="357.119769" stroke="black" stroke-width="5.173549"/>
<line x1="1217.501921" y1="357.119769" x2="1217.501921" y2="803.248252" stroke="black" stroke-width="5.173549"/>
<line x1="1217.501921" y1="803.248252" x2="1416.182622" y2="803.248252" stroke="black" stroke-width="5.173549"/>
<line x1="1248.207121" y1="442.913708" x2="1248.207121" y2="767.124489" stroke="black" stroke-width="5.173549"/>
<line x1="1248.207121" y1="767.124489" x2="1382.768141" y2="767.124489" stroke="black" stroke-width="5.173549"/>
<line x1="1382.768141" y1="767.124489" x2="1382.768141" y2="436.59205" stroke="black" stroke-width="5.173549"/>
<path d="m 1247.915869,443.83798 a 72.24752684394876,72.24752684394876 0 0 1 136.119007,-4.896107000000029" fill="none" stroke="black" stroke-width="5.173549"/>
<line x1="1697.778678" y1="302.068868" x2="1855.199605" y2="302.068868" stroke="black" stroke-width="5.173549"/>
<line x1="1855.199605" y1="302.068868" x2="1855.199605" y2="459.812379" stroke="black" stroke-width="5.173549"/>
<line x1="1855.199605" y1="459.812379" x2="1697.778678" y2="459.812379" stroke="black" stroke-width="5.173549"/>
<line x1="1697.778678" y1="459.812379" x2="1697.778678" y2="302.068868" stroke="black" stroke-width="5.173549"/>
<line x1="1697.456094" y1="301.746283" x2="1855.199605" y2="459.812379" stroke="black" stroke-width="5.173549"/>
<line x1="1697.778678" y1="459.489795" x2="1854.877021" y2="302.068868" stroke="black" stroke-width="5.173549"/>
<line x1="2338.366799" y1="111.41903" x2="2338.366799" y2="555.514599" stroke="black" stroke-width="5.173549"/>
<line x1="2339.491912" y1="559.981492" x2="2185.827623" y2="559.981492" stroke="black" stroke-width="5.173549"/>
<line x1="2184.527212" y1="111.943469" x2="2184.527212" y2="560.326316" stroke="black" stroke-width="5.173549"/>
<line x1="2337.582208" y1="112.773391" x2="2184.826701" y2="112.773391" stroke="black" stroke-width="5.173549"/>
<line x1="2325.844974" y1="124.400801" x2="2325.844974" y2="263.929728" stroke="black" stroke-width="5.173549"/>
<line x1="2325.844974" y1="263.929728" x2="2197.04904" y2="263.929728" stroke="black" stroke-width="5.173549"/>
<line x1="2197.04904" y1="124.400801" x2="2197.04904" y2="263.929728" stroke="black" stroke-width="5.173549"/>
<line x1="2325.844974" y1="124.400801" x2="2197.04904" y2="124.400801" stroke="black" stroke-width="5.173549"/>
<line x1="2317.795228" y1="285.395717" x2="2317.795228" y2="383.781499" stroke="black" stroke-width="5.173549"/>
<line x1="2295.434822" y1="285.395717" x2="2295.434822" y2="383.781499" stroke="black" stroke-width="5.173549"/>
<line x1="2272.180001" y1="286.290133" x2="2272.180001" y2="383.781499" stroke="black" stroke-width="5.173549"/>
<line x1="2249.819595" y1="286.290133" x2="2249.819595" y2="383.781499" stroke="black" stroke-width="5.173549"/>
<line x1="2227.459192" y1="285.395717" x2="2227.459192" y2="383.781499" stroke="black" stroke-width="5.173549"/>
<line x1="2205.098786" y1="285.395717" x2="2205.098786" y2="383.781499" stroke="black" stroke-width="5.173549"/>
<line x1="2197.943456" y1="178.065774" x2="2213.148532" y2="178.065774" stroke="black" stroke-width="5.173549"/>
<line x1="2213.148532" y1="178.065774" x2="2213.148532" y2="212.053589" stroke="black" stroke-width="5.173549"/>
<line x1="2213.148532" y1="212.053589" x2="2198.837872" y2="212.053589" stroke="black" stroke-width="5.173549"/>
<line x1="2325.844974" y1="407.036321" x2="2325.844974" y2="546.565248" stroke="black" stroke-width="5.173549"/>
<line x1="2325.844974" y1="546.565248" x2="2197.04904" y2="546.565248" stroke="black" stroke-width="5.173549"/>
<line x1="2197.04904" y1="407.036321" x2="2197.04904" y2="546.565248" stroke="black" stroke-width="5.173549"/>
<line x1="2325.844974" y1="407.036321" x2="2197.04904" y2="407.036321" stroke="black" stroke-width="5.173549"/>
<line x1="2197.04904" y1="460.701292" x2="2212.254116" y2="460.701292" stroke="black" stroke-width="5.173549"/>
<line x1="2212.254116" y1="460.701292" x2="2212.254116" y2="494.689109" stroke="black" stroke-width="5.173549"/>
<line x1="2212.254116" y1="494.689109" x2="2197.943456" y2="494.689109" stroke="black" stroke-width="5.173549"/>
<circle cx="2309.745482" cy="247.830236" r="8.049745819853571" fill="none" stroke="black" stroke-width="5.173549"/>
<circle cx="2308.851066" cy="530.465756" r="8.049745819853571" fill="none" stroke="black" stroke-width="5.173549"/>
<line x1="3364.31577" y1="658.762937" x2="3232.210155" y2="658.762937" stroke="black" stroke-width="5.173549"/>
<line x1="3232.210155" y1="658.762937" x2="3232.210155" y2="644.506935" stroke="black" stroke-width="5.173549"/>
<line x1="3364.31577" y1="644.506935" x2="3232.210155" y2="644.506935" stroke="black" stroke-width="5.173549"/>
<line x1="3364.31577" y1="658.762937" x2="3364.31577" y2="644.506935" stroke="black" stroke-width="5.173549"/>
<line x1="3351.010169" y1="644.506935" x2="3352.910969" y2="613.143732" stroke="black" stroke-width="5.173549"/>
<line x1="3245.515757" y1="644.506935" x2="3243.614956" y2="612.193332" stroke="black" stroke-width="5.173549"/>
<line x1="3364.31577" y1="197.818884" x2="3232.210155" y2="197.818884" stroke="black" stroke-width="5.173549"/>
<line x1="3232.210155" y1="197.818884" x2="3232.210155" y2="211.124486" stroke="black" stroke-width="5.173549"/>
<line x1="3364.31577" y1="211.124486" x2="3232.210155" y2="211.124486" stroke="black" stroke-width="5.173549"/>
<line x1="3364.31577" y1="197.818884" x2="3364.31577" y2="211.124486" stroke="black" stroke-width="5.173549"/>
<line x1="3351.960569" y1="213.025286" x2="3353.861369" y2="244.38849" stroke="black" stroke-width="5.173549"/>
<line x1="3246.466157" y1="213.025286" x2="3243.614956" y2="245.33889" stroke="black" stroke-width="5.173549"/>
<line x1="3068.741337" y1="494.343718" x2="3082.997338" y2="494.343718" stroke="black" stroke-width="5.173549"/>
<line x1="3082.997338" y1="494.343718" x2="3082.997338" y2="362.238103" stroke="black" stroke-width="5.173549"/>
<line x1="3068.741337" y1="362.238103" x2="3082.997338" y2="362.238103" stroke="black" stroke-width="5.173549"/>
<line x1="3068.741337" y1="494.343718" x2="3068.741337" y2="362.238103" stroke="black" stroke-width="5.173549"/>
<line x1="3082.997338" y1="376.494105" x2="3115.310942" y2="373.642904" stroke="black" stroke-width="5.173549"/>
<line x1="3082.997338" y1="481.038117" x2="3115.310942" y2="482.938917" stroke="black" stroke-width="5.173549"/>
<line x1="3528.734989" y1="495.294118" x2="3514.478987" y2="495.294118" stroke="black" stroke-width="5.173549"/>
<line x1="3514.478987" y1="495.294118" x2="3514.478987" y2="363.188503" stroke="black" stroke-width="5.173549"/>
<line x1="3528.734989" y1="363.188503" x2="3514.478987" y2="363.188503" stroke="black" stroke-width="5.173549"/>
<line x1="3528.734989" y1="495.294118" x2="3528.734989" y2="363.188503" stroke="black" stroke-width="5.173549"/>
<line x1="3514.478987" y1="377.444505" x2="3482.165384" y2="374.593305" stroke="black" stroke-width="5.173549"/>
<line x1="3514.478987" y1="481.988517" x2="3482.165384" y2="483.889317" stroke="black" stroke-width="5.173549"/>
<circle cx="3298.738163" cy="428.766111" r="191.98082181599997" fill="none" stroke="black" stroke-width="5.173549"/>
<line x1="4063.50346" y1="749.415277" x2="4253.583481" y2="749.415277" stroke="black" stroke-width="5.173549"/>
<line x1="4253.583481" y1="749.415277" x2="4253.583481" y2="285.620025" stroke="black" stroke-width="5.173549"/>
<line x1="4253.583481" y1="285.620025" x2="4063.50346" y2="285.620025" stroke="black" stroke-width="5.173549"/>
<line x1="4063.50346" y1="285.620025" x2="4063.50346" y2="309.380027" stroke="black" stroke-width="5.173549"/>
<line x1="4063.50346" y1="309.380027" x2="4230.773879" y2="309.380027" stroke="black" stroke-width="5.173549"/>
<line x1="4230.773879" y1="309.380027" x2="4230.773879" y2="724.704875" stroke="black" stroke-width="5.173549"/>
<line x1="4230.773879" y1="724.704875" x2="4063.50346" y2="724.704875" stroke="black" stroke-width="5.173549"/>
<line x1="4063.50346" y1="724.704875" x2="4063.50346" y2="749.415277" stroke="black" stroke-width="5.173549"/>
<line x1="4069.20586" y1="724.704875" x2="4069.20586" y2="309.380027" stroke="black" stroke-width="5.173549"/>
<line x1="4068.25546" y1="517.517651" x2="4229.823478" y2="517.517651" stroke="black" stroke-width="5.173549"/>
<line x1="1020.653699" y1="1372.957061" x2="831.25665" y2="1372.957061" stroke="black" stroke-width="5.173549"/>
<line x1="831.25665" y1="1372.957061" x2="831.25665" y2="1183.171901" stroke="black" stroke-width="5.173549"/>
<line x1="831.25665" y1="1183.171901" x2="1020.653699" y2="1183.171901" stroke="black" stroke-width="5.173549"/>
<line x1="1020.653699" y1="1183.171901" x2="1020.653699" y2="1372.957061" stroke="black" stroke-width="5.173549"/>
<line x1="1021.04181" y1="1373.345169" x2="831.25665" y2="1183.171901" stroke="black" stroke-width="5.173549"/>
<line x1="1020.653699" y1="1183.560009" x2="831.644758" y2="1372.957061" stroke="black" stroke-width="5.173549"/>
<line x1="2443.97494" y1="64.637708" x2="2650.984668" y2="64.637708" stroke="black" stroke-width="5.173549"/>
<line x1="2650.984668" y1="64.637708" x2="2650.984668" y2="32.725459" stroke="black" stroke-width="5.173549"/>
<line x1="2650.984668" y1="32.725459" x2="2443.97494" y2="32.725459" stroke="black" stroke-width="5.173549"/>
<line x1="2443.97494" y1="32.725459" x2="2443.97494" y2="64.637708" stroke="black" stroke-width="5.173549"/>
<line x1="2463.290248" y1="33.145357" x2="2463.290248" y2="64.21781" stroke="black" stroke-width="5.173549"/>
<line x1="2631.249459" y1="33.145357" x2="2631.249459" y2="65.477504" stroke="black" stroke-width="5.173549"/>
<line x1="2462.87035" y1="47.841787" x2="2630.829561" y2="47.841787" stroke="black" stroke-width="5.173549"/>
<line x1="3578.119258" y1="65.722702" x2="3785.128986" y2="65.722702" stroke="black" stroke-width="5.173549"/>
<line x1="3785.128986" y1="65.722702" x2="3785.128986" y2="33.810453" stroke="black" stroke-width="5.173549"/>
<line x1="3785.128986" y1="33.810453" x2="3578.119258" y2="33.810453" stroke="black" stroke-width="5.173549"/>
<line x1="3578.119258" y1="33.810453" x2="3578.119258" y2="65.722702" stroke="black" stroke-width="5.173549"/>
<line x1="3597.434566" y1="34.230351" x2="3597.434566" y2="65.302804" stroke="black" stroke-width="5.173549"/>
<line x1="3765.393777" y1="34.230351" x2="3765.393777" y2="66.562498" stroke="black" stroke-width="5.173549"/>
<line x1="3597.014668" y1="48.926782" x2="3764.973879" y2="48.926782" stroke="black" stroke-width="5.173549"/>
<line x1="3786.525589" y1="65.638972" x2="3993.535318" y2="65.638972" stroke="black" stroke-width="5.173549"/>
<line x1="3993.535318" y1="65.638972" x2="3993.535318" y2="33.726723" stroke="black" stroke-width="5.173549"/>
<line x1="3993.535318" y1="33.726723" x2="3786.525589" y2="33.726723" stroke="black" stroke-width="5.173549"/>
<line x1="3786.525589" y1="33.726723" x2="3786.525589" y2="65.638972" stroke="black" stroke-width="5.173549"/>
<line x1="3805.840898" y1="34.146621" x2="3805.840898" y2="65.219074" stroke="black" stroke-width="5.173549"/>
<line x1="3973.800109" y1="34.146621" x2="3973.800109" y2="66.478768" stroke="black" stroke-width="5.173549"/>
<line x1="3805.421" y1="48.843052" x2="3973.380211" y2="48.843052" stroke="black" stroke-width="5.173549"/>
<line x1="53.027362" y1="1172.545735" x2="262.392586" y2="1172.545735" stroke="black" stroke-width="5.173549"/>
<line x1="262.392586" y1="1172.545735" x2="262.392586" y2="841.331297" stroke="black" stroke-width="5.173549"/>
<line x1="262.392586" y1="841.331297" x2="53.027362" y2="841.331297" stroke="black" stroke-width="5.173549"/>
<line x1="53.027362" y1="841.331297" x2="53.027362" y2="1172.545735" stroke="black" stroke-width="5.173549"/>
<line x1="52.354162" y1="900.572904" x2="263.065786" y2="900.572904" stroke="black" stroke-width="5.173549"/>
<line x1="263.065786" y1="900.572904" x2="53.700562" y2="950.38971" stroke="black" stroke-width="5.173549"/>
<line x1="53.700562" y1="950.38971" x2="85.340966" y2="996.840515" stroke="black" stroke-width="5.173549"/>
<line x1="85.340966" y1="996.840515" x2="263.065786" y2="899.899704" stroke="black" stroke-width="5.173549"/>
<line x1="446.207373" y1="798.687499" x2="464.580263" y2="773.857969" stroke="black" stroke-width="5.173549"/>
<line x1="464.580263" y1="773.857969" x2="296.121427" y2="649.204985" stroke="black" stroke-width="5.173549"/>
<line x1="296.121427" y1="649.204985" x2="277.748538" y2="674.034518" stroke="black" stroke-width="5.173549"/>
<line x1="277.748538" y1="674.034518" x2="446.207373" y2="798.687499" stroke="black" stroke-width="5.173549"/>
<line x1="567.468435" y1="634.812578" x2="585.841325" y2="609.983046" stroke="black" stroke-width="5.173549"/>
<line x1="585.841325" y1="609.983046" x2="417.382492" y2="485.330065" stroke="black" stroke-width="5.173549"/>
<line x1="417.382492" y1="485.330065" x2="399.009602" y2="510.159597" stroke="black" stroke-width="5.173549"/>
<line x1="399.009602" y1="510.159597" x2="567.468435" y2="634.812578" stroke="black" stroke-width="5.173549"/>
<line x1="464.297603" y1="774.239961" x2="567.468435" y2="634.812578" stroke="black" stroke-width="5.173549"/>
<line x1="296.320094" y1="650.534291" x2="291.139437" y2="613.596406" stroke="black" stroke-width="5.173549"/>
<line x1="363.217692" y1="516.188235" x2="400.056245" y2="510.342925" stroke="black" stroke-width="5.173549"/>
<line x1="290.008799" y1="615.124376" x2="364.348331" y2="514.66026" stroke="black" stroke-width="5.173549"/>
<line x1="428.672936" y1="747.287945" x2="531.84377" y2="607.860562" stroke="black" stroke-width="5.173549"/>
<line x1="50.307194" y1="1608.76544" x2="271.680371" y2="1608.76544" stroke="black" stroke-width="5.173549"/>
<line x1="271.680371" y1="1608.76544" x2="271.680371" y2="1830.592249" stroke="black" stroke-width="5.173549"/>
<line x1="271.680371" y1="1830.592249" x2="50.307194" y2="1830.592249" stroke="black" stroke-width="5.173549"/>
<line x1="50.307194" y1="1830.592249" x2="50.307194" y2="1608.76544" stroke="black" stroke-width="5.173549"/>
<line x1="49.853562" y1="1608.311806" x2="271.680371" y2="1830.592249" stroke="black" stroke-width="5.173549"/>
<line x1="50.307194" y1="1830.138617" x2="271.226739" y2="1608.76544" stroke="black" stroke-width="5.173549"/>
<line x1="480.258168" y1="1831.073688" x2="576.804274" y2="1645.610347" stroke="black" stroke-width="5.173549"/>
<line x1="576.804274" y1="1645.610347" x2="371.108565" y2="1538.531938" stroke="black" stroke-width="5.173549"/>
<line x1="371.108565" y1="1538.531938" x2="274.562462" y2="1723.995281" stroke="black" stroke-width="5.173549"/>
<line x1="274.562462" y1="1723.995281" x2="480.258168" y2="1831.073688" stroke="black" stroke-width="5.173549"/>
<line x1="451.595654" y1="1816.15293" x2="548.141755" y2="1630.689587" stroke="black" stroke-width="5.173549"/>
<line x1="53.556605" y1="407.283231" x2="262.921828" y2="407.283231" stroke="black" stroke-width="5.173549"/>
<line x1="262.921828" y1="407.283231" x2="262.921828" y2="76.068793" stroke="black" stroke-width="5.173549"/>
<line x1="262.921828" y1="76.068793" x2="53.556605" y2="76.068793" stroke="black" stroke-width="5.173549"/>
<line x1="53.556605" y1="76.068793" x2="53.556605" y2="407.283231" stroke="black" stroke-width="5.173549"/>
<line x1="52.883404" y1="135.3104" x2="263.595028" y2="135.3104" stroke="black" stroke-width="5.173549"/>
<line x1="263.595028" y1="135.3104" x2="54.229805" y2="185.127206" stroke="black" stroke-width="5.173549"/>
<line x1="54.229805" y1="185.127206" x2="85.870208" y2="231.578011" stroke="black" stroke-width="5.173549"/>
<line x1="85.870208" y1="231.578011" x2="263.595028" y2="134.6372" stroke="black" stroke-width="5.173549"/>
<line x1="1441.968826" y1="1456.887694" x2="1651.33405" y2="1456.887694" stroke="black" stroke-width="5.173549"/>
<line x1="1651.33405" y1="1456.887694" x2="1651.33405" y2="1125.673256" stroke="black" stroke-width="5.173549"/>
<line x1="1651.33405" y1="1125.673256" x2="1441.968826" y2="1125.673256" stroke="black" stroke-width="5.173549"/>
<line x1="1441.968826" y1="1125.673256" x2="1441.968826" y2="1456.887694" stroke="black" stroke-width="5.173549"/>
<line x1="1441.295626" y1="1184.914863" x2="1652.00725" y2="1184.914863" stroke="black" stroke-width="5.173549"/>
<line x1="1652.00725" y1="1184.914863" x2="1442.642026" y2="1234.731669" stroke="black" stroke-width="5.173549"/>
<line x1="1442.642026" y1="1234.731669" x2="1474.28243" y2="1281.182474" stroke="black" stroke-width="5.173549"/>
<line x1="1474.28243" y1="1281.182474" x2="1652.00725" y2="1184.241663" stroke="black" stroke-width="5.173549"/>
<line x1="1653.434968" y1="1456.38194" x2="1862.800192" y2="1456.38194" stroke="black" stroke-width="5.173549"/>
<line x1="1862.800192" y1="1456.38194" x2="1862.800192" y2="1125.167503" stroke="black" stroke-width="5.173549"/>
<line x1="1862.800192" y1="1125.167503" x2="1653.434968" y2="1125.167503" stroke="black" stroke-width="5.173549"/>
<line x1="1653.434968" y1="1125.167503" x2="1653.434968" y2="1456.38194" stroke="black" stroke-width="5.173549"/>
<line x1="1652.761768" y1="1184.40911" x2="1863.473392" y2="1184.40911" stroke="black" stroke-width="5.173549"/>
<line x1="1863.473392" y1="1184.40911" x2="1654.108168" y2="1234.225915" stroke="black" stroke-width="5.173549"/>
<line x1="1654.108168" y1="1234.225915" x2="1685.748572" y2="1280.67672" stroke="black" stroke-width="5.173549"/>
<line x1="1685.748572" y1="1280.67672" x2="1863.473392" y2="1183.735909" stroke="black" stroke-width="5.173549"/>
<line x1="1919.572859" y1="1613.63281" x2="2140.946035" y2="1613.63281" stroke="black" stroke-width="5.173549"/>
<line x1="2140.946035" y1="1613.63281" x2="2140.946035" y2="1835.459618" stroke="black" stroke-width="5.173549"/>
<line x1="2140.946035" y1="1835.459618" x2="1919.572859" y2="1835.459618" stroke="black" stroke-width="5.173549"/>
<line x1="1919.572859" y1="1835.459618" x2="1919.572859" y2="1613.63281" stroke="black" stroke-width="5.173549"/>
<line x1="1919.119227" y1="1613.179175" x2="2140.946035" y2="1835.459618" stroke="black" stroke-width="5.173549"/>
<line x1="1919.572859" y1="1835.005986" x2="2140.492403" y2="1613.63281" stroke="black" stroke-width="5.173549"/>
<line x1="1618.16899" y1="1643.241782" x2="1704.876381" y2="1833.503784" stroke="black" stroke-width="5.173549"/>
<line x1="1704.876381" y1="1833.503784" x2="1915.894238" y2="1737.337406" stroke="black" stroke-width="5.173549"/>
<line x1="1915.894238" y1="1737.337406" x2="1829.18685" y2="1547.075404" stroke="black" stroke-width="5.173549"/>
<line x1="1829.18685" y1="1547.075404" x2="1618.16899" y2="1643.241782" stroke="black" stroke-width="5.173549"/>
<line x1="1647.573118" y1="1629.841546" x2="1734.280508" y2="1820.103554" stroke="black" stroke-width="5.173549"/>
<line x1="1805.092266" y1="258.329145" x2="1805.092266" y2="74.585124" stroke="black" stroke-width="5.173549"/>
<line x1="1805.092266" y1="74.585124" x2="1854.196271" y2="74.585124" stroke="black" stroke-width="5.173549"/>
<line x1="1854.196271" y1="258.329145" x2="1854.196271" y2="74.585124" stroke="black" stroke-width="5.173549"/>
<line x1="1805.092266" y1="258.329145" x2="1854.196271" y2="258.329145" stroke="black" stroke-width="5.173549"/>
<line x1="1777.372262" y1="216.74914" x2="1805.092266" y2="216.74914" stroke="black" stroke-width="5.173549"/>
<line x1="1805.092266" y1="117.749129" x2="1775.788262" y2="117.749129" stroke="black" stroke-width="5.173549"/>
<circle cx="1732.228257" cy="168.041135" r="66.52800756" fill="none" stroke="black" stroke-width="5.173549"/>
<circle cx="1732.228257" cy="168.041135" r="57.02400648" fill="none" stroke="black" stroke-width="5.173549"/>
<line x1="1489.224452" y1="207.508359" x2="1218.677221" y2="207.508359" stroke="black" stroke-width="5.173549"/>
<line x1="1218.677221" y1="207.508359" x2="1218.677221" y2="75.561144" stroke="black" stroke-width="5.173549"/>
<line x1="1489.224452" y1="75.561144" x2="1218.677221" y2="75.561144" stroke="black" stroke-width="5.173549"/>
<line x1="1489.224452" y1="207.508359" x2="1489.224452" y2="75.561144" stroke="black" stroke-width="5.173549"/>
<line x1="1482.571651" y1="200.855558" x2="1344.526036" y2="200.855558" stroke="black" stroke-width="5.173549"/>
<line x1="1344.526036" y1="200.855558" x2="1344.526036" y2="82.768345" stroke="black" stroke-width="5.173549"/>
<line x1="1482.571651" y1="82.768345" x2="1344.526036" y2="82.768345" stroke="black" stroke-width="5.173549"/>
<line x1="1482.571651" y1="200.855558" x2="1482.571651" y2="82.768345" stroke="black" stroke-width="5.173549"/>
<line x1="1330.111634" y1="193.093958" x2="1233.091623" y2="193.093958" stroke="black" stroke-width="5.173549"/>
<line x1="1330.111634" y1="172.581155" x2="1233.091623" y2="172.581155" stroke="black" stroke-width="5.173549"/>
<line x1="1329.557234" y1="151.513953" x2="1232.537223" y2="151.513953" stroke="black" stroke-width="5.173549"/>
<line x1="1329.557234" y1="131.00115" x2="1232.537223" y2="131.00115" stroke="black" stroke-width="5.173549"/>
<line x1="1330.111634" y1="110.488348" x2="1233.091623" y2="110.488348" stroke="black" stroke-width="5.173549"/>
<line x1="1330.111634" y1="89.975546" x2="1233.091623" y2="89.975546" stroke="black" stroke-width="5.173549"/>
<line x1="1429.903645" y1="82.768345" x2="1429.903645" y2="96.628347" stroke="black" stroke-width="5.173549"/>
<line x1="1429.903645" y1="96.628347" x2="1395.530841" y2="96.628347" stroke="black" stroke-width="5.173549"/>
<line x1="1395.530841" y1="96.628347" x2="1395.530841" y2="83.322745" stroke="black" stroke-width="5.173549"/>
<circle cx="1360.049237" cy="185.886757" r="8.316000945" fill="none" stroke="black" stroke-width="5.173549"/>
<line x1="1461.984904" y1="839.659365" x2="1479.175458" y2="839.659365" stroke="black" stroke-width="5.173549"/>
<line x1="1479.175458" y1="839.659365" x2="1479.175458" y2="806.116822" stroke="black" stroke-width="5.173549"/>
<line x1="1479.175458" y1="806.116822" x2="1461.984904" y2="806.116822" stroke="black" stroke-width="5.173549"/>
<line x1="1461.984904" y1="806.116822" x2="1461.984904" y2="839.659365" stroke="black" stroke-width="5.173549"/>
<line x1="1647.307453" y1="806.116822" x2="1647.307453" y2="638.823387" stroke="black" stroke-width="5.173549"/>
<line x1="1647.726735" y1="840.497927" x2="1664.917289" y2="840.497927" stroke="black" stroke-width="5.173549"/>
<line x1="1664.917289" y1="840.497927" x2="1664.917289" y2="806.955384" stroke="black" stroke-width="5.173549"/>
<line x1="1664.917289" y1="806.955384" x2="1647.726735" y2="806.955384" stroke="black" stroke-width="5.173549"/>
<line x1="1647.726735" y1="806.955384" x2="1647.726735" y2="840.497927" stroke="black" stroke-width="5.173549"/>
<path d="m 1479.175458,807.374667 a 168.1319965,168.1319965 0 0 1 168.13199499999996,-168.13199800000007" fill="none" stroke="black" stroke-width="5.173549"/>
<line x1="3699.579531" y1="68.324159" x2="3612.87214" y2="258.586162" stroke="black" stroke-width="5.173549"/>
<line x1="3612.87214" y1="258.586162" x2="3823.89" y2="354.75254" stroke="black" stroke-width="5.173549"/>
<line x1="3823.89" y1="354.75254" x2="3910.597388" y2="164.490537" stroke="black" stroke-width="5.173549"/>
<line x1="3910.597388" y1="164.490537" x2="3699.579531" y2="68.324159" stroke="black" stroke-width="5.173549"/>
<line x1="3728.983658" y1="81.724389" x2="3642.276267" y2="271.986397" stroke="black" stroke-width="5.173549"/>
<line x1="981.194359" y1="263.856703" x2="981.194359" y2="74.459653" stroke="black" stroke-width="5.173549"/>
<line x1="981.194359" y1="74.459653" x2="1170.979519" y2="74.459653" stroke="black" stroke-width="5.173549"/>
<line x1="1170.979519" y1="74.459653" x2="1170.979519" y2="263.856703" stroke="black" stroke-width="5.173549"/>
<line x1="1170.979519" y1="263.856703" x2="981.194359" y2="263.856703" stroke="black" stroke-width="5.173549"/>
<line x1="980.806251" y1="264.244813" x2="1170.979519" y2="74.459653" stroke="black" stroke-width="5.173549"/>
<line x1="1170.591411" y1="263.856703" x2="981.194359" y2="74.847762" stroke="black" stroke-width="5.173549"/>
<line x1="833.111011" y1="1837.387615" x2="833.111011" y2="1647.990566" stroke="black" stroke-width="5.173549"/>
<line x1="833.111011" y1="1647.990566" x2="1022.896171" y2="1647.990566" stroke="black" stroke-width="5.173549"/>
<line x1="1022.896171" y1="1647.990566" x2="1022.896171" y2="1837.387615" stroke="black" stroke-width="5.173549"/>
<line x1="1022.896171" y1="1837.387615" x2="833.111011" y2="1837.387615" stroke="black" stroke-width="5.173549"/>
<line x1="832.722903" y1="1837.775726" x2="1022.896171" y2="1647.990566" stroke="black" stroke-width="5.173549"/>
<line x1="1022.508063" y1="1837.387615" x2="833.111011" y2="1648.378674" stroke="black" stroke-width="5.173549"/>
<line x1="834.802452" y1="1601.741708" x2="834.802452" y2="1412.344658" stroke="black" stroke-width="5.173549"/>
<line x1="834.802452" y1="1412.344658" x2="1024.587612" y2="1412.344658" stroke="black" stroke-width="5.173549"/>
<line x1="1024.587612" y1="1412.344658" x2="1024.587612" y2="1601.741708" stroke="black" stroke-width="5.173549"/>
<line x1="1024.587612" y1="1601.741708" x2="834.802452" y2="1601.741708" stroke="black" stroke-width="5.173549"/>
<line x1="834.414344" y1="1602.129818" x2="1024.587612" y2="1412.344658" stroke="black" stroke-width="5.173549"/>
<line x1="1024.199504" y1="1601.741708" x2="834.802452" y2="1412.732766" stroke="black" stroke-width="5.173549"/>
<line x1="981.308144" y1="455.126025" x2="981.308144" y2="265.728976" stroke="black" stroke-width="5.173549"/>
<line x1="981.308144" y1="265.728976" x2="1171.093304" y2="265.728976" stroke="black" stroke-width="5.173549"/>
<line x1="1171.093304" y1="265.728976" x2="1171.093304" y2="455.126025" stroke="black" stroke-width="5.173549"/>
<line x1="1171.093304" y1="455.126025" x2="981.308144" y2="455.126025" stroke="black" stroke-width="5.173549"/>
<line x1="980.920036" y1="455.514136" x2="1171.093304" y2="265.728976" stroke="black" stroke-width="5.173549"/>
<line x1="1170.705196" y1="455.126025" x2="981.308144" y2="266.117084" stroke="black" stroke-width="5.173549"/>
</g>
</svg>
