<?xml version="1.0"?>
<svg xmlns:xlink="http://www.w3.org/1999/xlink" width="2217.6" height="2475.0">
<image x="0" y="0" width="2217.6" height="2475.0" xlink:href="groundfilled-03.png"/>
<g style="stroke-linecap:round">
<line x1="406.212256" y1="2403.380829" x2="139.04289" y2="2403.380829" stroke="black" stroke-width="5.94"/>
<line x1="139.04289" y1="2403.380829" x2="139.04289" y2="2451.167218" stroke="black" stroke-width="5.94"/>
<line x1="139.04289" y1="2451.167218" x2="406.212256" y2="2451.167218" stroke="black" stroke-width="5.94"/>
<line x1="406.212256" y1="2451.167218" x2="406.212256" y2="2403.380829" stroke="black" stroke-width="5.94"/>
<line x1="393.72263" y1="2403.380829" x2="393.72263" y2="2387.090013" stroke="black" stroke-width="5.94"/>
<line x1="393.72263" y1="2387.090013" x2="152.07554" y2="2387.090013" stroke="black" stroke-width="5.94"/>
<line x1="152.07554" y1="2403.380829" x2="152.07554" y2="2387.090013" stroke="black" stroke-width="5.94"/>
<line x1="884.3241" y1="2409.019081" x2="615.869846" y2="2409.019081" stroke="black" stroke-width="5.94"/>
<line x1="615.869846" y1="2409.019081" x2="615.869846" y2="2450.403509" stroke="black" stroke-width="5.94"/>
<line x1="615.869846" y1="2450.403509" x2="884.3241" y2="2450.403509" stroke="black" stroke-width="5.94"/>
<line x1="884.3241" y1="2450.403509" x2="884.3241" y2="2409.019081" stroke="black" stroke-width="5.94"/>
<line x1="859.275631" y1="2449.858976" x2="859.275631" y2="2409.563614" stroke="black" stroke-width="5.94"/>
<line x1="641.462847" y1="2449.858976" x2="641.462847" y2="2407.930018" stroke="black" stroke-width="5.94"/>
<line x1="859.820161" y1="2430.800361" x2="642.00738" y2="2430.800361" stroke="black" stroke-width="5.94"/>
<line x1="1419.598145" y1="2409.843648" x2="1151.774062" y2="2409.843648" stroke="black" stroke-width="5.94"/>
<line x1="1151.774062" y1="2409.843648" x2="1151.774062" y2="2451.130932" stroke="black" stroke-width="5.94"/>
<line x1="1151.774062" y1="2451.130932" x2="1419.598145" y2="2451.130932" stroke="black" stroke-width="5.94"/>
<line x1="1419.598145" y1="2451.130932" x2="1419.598145" y2="2409.843648" stroke="black" stroke-width="5.94"/>
<line x1="1394.608472" y1="2450.587676" x2="1394.608472" y2="2410.386901" stroke="black" stroke-width="5.94"/>
<line x1="1177.306987" y1="2450.587676" x2="1177.306987" y2="2408.75714" stroke="black" stroke-width="5.94"/>
<line x1="1395.151725" y1="2431.573798" x2="1177.850243" y2="2431.573798" stroke="black" stroke-width="5.94"/>
<line x1="97.569744" y1="1129.251169" x2="97.569744" y2="871.533548" stroke="black" stroke-width="5.94"/>
<line x1="97.569744" y1="871.533548" x2="51.473908" y2="871.533548" stroke="black" stroke-width="5.94"/>
<line x1="51.473908" y1="871.533548" x2="51.473908" y2="1129.251169" stroke="black" stroke-width="5.94"/>
<line x1="51.473908" y1="1129.251169" x2="97.569744" y2="1129.251169" stroke="black" stroke-width="5.94"/>
<line x1="97.569744" y1="1117.203394" x2="113.284232" y2="1117.203394" stroke="black" stroke-width="5.94"/>
<line x1="113.284232" y1="1117.203394" x2="113.284232" y2="884.105138" stroke="black" stroke-width="5.94"/>
<line x1="97.569744" y1="884.105138" x2="113.284232" y2="884.105138" stroke="black" stroke-width="5.94"/>
<line x1="1129.568108" y1="1281.012226" x2="1129.568108" y2="1581.297967" stroke="black" stroke-width="5.94"/>
<line x1="1129.568108" y1="1581.297967" x2="1604.618222" y2="1581.297967" stroke="black" stroke-width="5.94"/>
<line x1="1604.618222" y1="1581.297967" x2="1604.618222" y2="1281.012226" stroke="black" stroke-width="5.94"/>
<line x1="1604.618222" y1="1281.012226" x2="1129.568108" y2="1281.012226" stroke="black" stroke-width="5.94"/>
<line x1="1519.649908" y1="1280.046676" x2="1519.649908" y2="1582.263517" stroke="black" stroke-width="5.94"/>
<line x1="1519.649908" y1="1582.263517" x2="1448.199281" y2="1281.977776" stroke="black" stroke-width="5.94"/>
<line x1="1448.199281" y1="1281.977776" x2="1381.5764" y2="1327.358578" stroke="black" stroke-width="5.94"/>
<line x1="1381.5764" y1="1327.358578" x2="1520.615458" y2="1582.263517" stroke="black" stroke-width="5.94"/>
<line x1="1789.821403" y1="84.339291" x2="2052.604089" y2="84.339291" stroke="black" stroke-width="5.94"/>
<line x1="2052.604089" y1="84.339291" x2="2052.604089" y2="43.829181" stroke="black" stroke-width="5.94"/>
<line x1="2052.604089" y1="43.829181" x2="1789.821403" y2="43.829181" stroke="black" stroke-width="5.94"/>
<line x1="1789.821403" y1="43.829181" x2="1789.821403" y2="84.339291" stroke="black" stroke-width="5.94"/>
<line x1="1814.34068" y1="44.36221" x2="1814.34068" y2="83.806265" stroke="black" stroke-width="5.94"/>
<line x1="2027.551786" y1="44.36221" x2="2027.551786" y2="85.405346" stroke="black" stroke-width="5.94"/>
<line x1="1813.807654" y1="63.018183" x2="2027.018756" y2="63.018183" stroke="black" stroke-width="5.94"/>
<line x1="422.083817" y1="107.411271" x2="572.666675" y2="107.411271" stroke="black" stroke-width="5.939997"/>
<line x1="572.666675" y1="107.411271" x2="572.666675" y2="258.302698" stroke="black" stroke-width="5.939997"/>
<line x1="572.666675" y1="258.302698" x2="422.083817" y2="258.302698" stroke="black" stroke-width="5.939997"/>
<line x1="422.083817" y1="258.302698" x2="422.083817" y2="107.411271" stroke="black" stroke-width="5.939997"/>
<line x1="421.775247" y1="107.102698" x2="572.666675" y2="258.302698" stroke="black" stroke-width="5.939997"/>
<line x1="422.083817" y1="257.994129" x2="572.358102" y2="107.411271" stroke="black" stroke-width="5.939997"/>
<line x1="1993.268861" y1="1551.340388" x2="1993.268861" y2="1158.096515" stroke="black" stroke-width="5.94"/>
<line x1="1992.272578" y1="1154.141109" x2="2128.341356" y2="1154.141109" stroke="black" stroke-width="5.94"/>
<line x1="2129.492861" y1="1550.875999" x2="2129.492861" y2="1153.83577" stroke="black" stroke-width="5.94"/>
<line x1="1993.96361" y1="1550.141109" x2="2129.227666" y2="1550.141109" stroke="black" stroke-width="5.94"/>
<line x1="2004.356861" y1="1539.845109" x2="2004.356861" y2="1416.293109" stroke="black" stroke-width="5.94"/>
<line x1="2004.356861" y1="1416.293109" x2="2118.404861" y2="1416.293109" stroke="black" stroke-width="5.94"/>
<line x1="2118.404861" y1="1539.845109" x2="2118.404861" y2="1416.293109" stroke="black" stroke-width="5.94"/>
<line x1="2004.356861" y1="1539.845109" x2="2118.404861" y2="1539.845109" stroke="black" stroke-width="5.94"/>
<line x1="2011.484861" y1="1397.285109" x2="2011.484861" y2="1310.165109" stroke="black" stroke-width="5.94"/>
<line x1="2031.284861" y1="1397.285109" x2="2031.284861" y2="1310.165109" stroke="black" stroke-width="5.94"/>
<line x1="2051.876861" y1="1396.493109" x2="2051.876861" y2="1310.165109" stroke="black" stroke-width="5.94"/>
<line x1="2071.676861" y1="1396.493109" x2="2071.676861" y2="1310.165109" stroke="black" stroke-width="5.94"/>
<line x1="2091.476861" y1="1397.285109" x2="2091.476861" y2="1310.165109" stroke="black" stroke-width="5.94"/>
<line x1="2111.276861" y1="1397.285109" x2="2111.276861" y2="1310.165109" stroke="black" stroke-width="5.94"/>
<line x1="2117.612861" y1="1492.325109" x2="2104.148861" y2="1492.325109" stroke="black" stroke-width="5.94"/>
<line x1="2104.148861" y1="1492.325109" x2="2104.148861" y2="1462.229109" stroke="black" stroke-width="5.94"/>
<line x1="2104.148861" y1="1462.229109" x2="2116.820861" y2="1462.229109" stroke="black" stroke-width="5.94"/>
<line x1="2004.356861" y1="1289.573109" x2="2004.356861" y2="1166.021109" stroke="black" stroke-width="5.94"/>
<line x1="2004.356861" y1="1166.021109" x2="2118.404861" y2="1166.021109" stroke="black" stroke-width="5.94"/>
<line x1="2118.404861" y1="1289.573109" x2="2118.404861" y2="1166.021109" stroke="black" stroke-width="5.94"/>
<line x1="2004.356861" y1="1289.573109" x2="2118.404861" y2="1289.573109" stroke="black" stroke-width="5.94"/>
<line x1="2118.404861" y1="1242.053109" x2="2104.940861" y2="1242.053109" stroke="black" stroke-width="5.94"/>
<line x1="2104.940861" y1="1242.053109" x2="2104.940861" y2="1211.957109" stroke="black" stroke-width="5.94"/>
<line x1="2104.940861" y1="1211.957109" x2="2117.612861" y2="1211.957109" stroke="black" stroke-width="5.94"/>
<circle cx="2018.612861" cy="1430.549109" r="7.128" fill="none" stroke="black" stroke-width="5.94"/>
<circle cx="2019.404861" cy="1180.277109" r="7.128" fill="none" stroke="black" stroke-width="5.94"/>
<line x1="1454.096615" y1="1247.851054" x2="1454.096615" y2="1097.268196" stroke="black" stroke-width="5.939997"/>
<line x1="1454.096615" y1="1097.268196" x2="1604.988043" y2="1097.268196" stroke="black" stroke-width="5.939997"/>
<line x1="1604.988043" y1="1097.268196" x2="1604.988043" y2="1247.851054" stroke="black" stroke-width="5.939997"/>
<line x1="1604.988043" y1="1247.851054" x2="1454.096615" y2="1247.851054" stroke="black" stroke-width="5.939997"/>
<line x1="1453.788042" y1="1248.159624" x2="1604.988043" y2="1097.268196" stroke="black" stroke-width="5.939997"/>
<line x1="1604.679473" y1="1247.851054" x2="1454.096615" y2="1097.576769" stroke="black" stroke-width="5.939997"/>
<line x1="1451.697367" y1="1761.909692" x2="1451.697367" y2="1611.326835" stroke="black" stroke-width="5.939997"/>
<line x1="1451.697367" y1="1611.326835" x2="1602.588794" y2="1611.326835" stroke="black" stroke-width="5.939997"/>
<line x1="1602.588794" y1="1611.326835" x2="1602.588794" y2="1761.909692" stroke="black" stroke-width="5.939997"/>
<line x1="1602.588794" y1="1761.909692" x2="1451.697367" y2="1761.909692" stroke="black" stroke-width="5.939997"/>
<line x1="1451.388794" y1="1762.218262" x2="1602.588794" y2="1611.326835" stroke="black" stroke-width="5.939997"/>
<line x1="1602.280225" y1="1761.909692" x2="1451.697367" y2="1611.635408" stroke="black" stroke-width="5.939997"/>
<line x1="118.08321" y1="496.299613" x2="140.673265" y2="517.365179" stroke="black" stroke-width="5.94"/>
<line x1="140.673265" y1="517.365179" x2="283.59502" y2="364.100355" stroke="black" stroke-width="5.94"/>
<line x1="283.59502" y1="364.100355" x2="261.004966" y2="343.034792" stroke="black" stroke-width="5.94"/>
<line x1="261.004966" y1="343.034792" x2="118.08321" y2="496.299613" stroke="black" stroke-width="5.94"/>
<line x1="267.177557" y1="635.332345" x2="289.767611" y2="656.397911" stroke="black" stroke-width="5.94"/>
<line x1="289.767611" y1="656.397911" x2="432.68937" y2="503.133088" stroke="black" stroke-width="5.94"/>
<line x1="432.68937" y1="503.133088" x2="410.099319" y2="482.067524" stroke="black" stroke-width="5.94"/>
<line x1="410.099319" y1="482.067524" x2="267.177557" y2="635.332345" stroke="black" stroke-width="5.94"/>
<line x1="140.325722" y1="517.041096" x2="267.177557" y2="635.332345" stroke="black" stroke-width="5.94"/>
<line x1="282.251769" y1="364.147265" x2="319.538677" y2="363.181398" stroke="black" stroke-width="5.94"/>
<line x1="408.161196" y1="445.823232" x2="409.798686" y2="483.08669" stroke="black" stroke-width="5.94"/>
<line x1="318.148525" y1="361.885055" x2="409.551354" y2="447.119574" stroke="black" stroke-width="5.94"/>
<line x1="171.13731" y1="484.696489" x2="297.989145" y2="602.987738" stroke="black" stroke-width="5.94"/>
<line x1="1192.121816" y1="700.920129" x2="1161.703075" y2="706.283774" stroke="black" stroke-width="5.94"/>
<line x1="1161.703075" y1="706.283774" x2="1198.09334" y2="912.663239" stroke="black" stroke-width="5.94"/>
<line x1="1198.09334" y1="912.663239" x2="1228.512084" y2="907.299591" stroke="black" stroke-width="5.94"/>
<line x1="1228.512084" y1="907.299591" x2="1192.121816" y2="700.920129" stroke="black" stroke-width="5.94"/>
<line x1="991.358118" y1="736.320186" x2="960.939375" y2="741.683831" stroke="black" stroke-width="5.94"/>
<line x1="960.939375" y1="741.683831" x2="997.329643" y2="948.063293" stroke="black" stroke-width="5.94"/>
<line x1="997.329643" y1="948.063293" x2="1027.74839" y2="942.699648" stroke="black" stroke-width="5.94"/>
<line x1="1027.74839" y1="942.699648" x2="991.358118" y2="736.320186" stroke="black" stroke-width="5.94"/>
<line x1="1162.171055" y1="706.201257" x2="991.358118" y2="736.320186" stroke="black" stroke-width="5.94"/>
<line x1="1198.864267" y1="911.562244" x2="1177.19582" y2="941.922165" stroke="black" stroke-width="5.94"/>
<line x1="1057.860754" y1="962.964156" x2="1027.115371" y2="941.846205" stroke="black" stroke-width="5.94"/>
<line x1="1179.067741" y1="941.592092" x2="1055.988833" y2="963.294225" stroke="black" stroke-width="5.94"/>
<line x1="1169.459729" y1="750.273955" x2="998.646792" y2="780.392884" stroke="black" stroke-width="5.94"/>
<line x1="243.019108" y1="2204.027341" x2="339.782853" y2="2148.160766" stroke="black" stroke-width="5.940003"/>
<line x1="339.782853" y1="2148.160766" x2="395.763908" y2="2245.122799" stroke="black" stroke-width="5.940003"/>
<line x1="395.763908" y1="2245.122799" x2="299.000163" y2="2300.989373" stroke="black" stroke-width="5.940003"/>
<line x1="299.000163" y1="2300.989373" x2="243.019108" y2="2204.027341" stroke="black" stroke-width="5.940003"/>
<line x1="242.706341" y1="2203.943534" x2="395.763908" y2="2245.122799" stroke="black" stroke-width="5.940003"/>
<line x1="298.885683" y1="2300.791089" x2="339.584566" y2="2148.275247" stroke="black" stroke-width="5.940003"/>
<line x1="685.064902" y1="654.76889" x2="882.761491" y2="586.696493" stroke="black" stroke-width="5.94"/>
<line x1="882.761491" y1="586.696493" x2="807.263018" y2="367.433002" stroke="black" stroke-width="5.94"/>
<line x1="807.263018" y1="367.433002" x2="609.56643" y2="435.505399" stroke="black" stroke-width="5.94"/>
<line x1="609.56643" y1="435.505399" x2="685.064902" y2="654.76889" stroke="black" stroke-width="5.94"/>
<line x1="674.544625" y1="624.215777" x2="872.241213" y2="556.143387" stroke="black" stroke-width="5.94"/>
<line x1="91.338093" y1="1533.406083" x2="91.338093" y2="1275.66479" stroke="black" stroke-width="5.94"/>
<line x1="91.338093" y1="1275.66479" x2="51.605152" y2="1275.66479" stroke="black" stroke-width="5.94"/>
<line x1="51.605152" y1="1275.66479" x2="51.605152" y2="1533.406083" stroke="black" stroke-width="5.94"/>
<line x1="51.605152" y1="1533.406083" x2="91.338093" y2="1533.406083" stroke="black" stroke-width="5.94"/>
<line x1="52.127955" y1="1509.357198" x2="90.81529" y2="1509.357198" stroke="black" stroke-width="5.94"/>
<line x1="52.127955" y1="1300.236475" x2="92.383695" y2="1300.236475" stroke="black" stroke-width="5.94"/>
<line x1="70.426019" y1="1509.88" x2="70.426019" y2="1300.759277" stroke="black" stroke-width="5.94"/>
<line x1="1367.452241" y1="690.245025" x2="1387.358244" y2="690.245025" stroke="black" stroke-width="5.94"/>
<line x1="1387.358244" y1="690.245025" x2="1387.358244" y2="651.404044" stroke="black" stroke-width="5.94"/>
<line x1="1387.358244" y1="651.404044" x2="1367.452241" y2="651.404044" stroke="black" stroke-width="5.94"/>
<line x1="1367.452241" y1="651.404044" x2="1367.452241" y2="690.245025" stroke="black" stroke-width="5.94"/>
<line x1="1582.048647" y1="651.404044" x2="1582.048647" y2="457.684666" stroke="black" stroke-width="5.94"/>
<line x1="1582.53416" y1="691.21605" x2="1602.440159" y2="691.21605" stroke="black" stroke-width="5.94"/>
<line x1="1602.440159" y1="691.21605" x2="1602.440159" y2="652.37507" stroke="black" stroke-width="5.94"/>
<line x1="1602.440159" y1="652.37507" x2="1582.53416" y2="652.37507" stroke="black" stroke-width="5.94"/>
<line x1="1582.53416" y1="652.37507" x2="1582.53416" y2="691.21605" stroke="black" stroke-width="5.94"/>
<path d="m 1387.358244,652.860582 a 194.69040350000003,194.69040350000003 0 0 1 194.69040300000006,-194.690404" fill="none" stroke="black" stroke-width="5.94"/>
<line x1="1610.875276" y1="691.58629" x2="1610.875276" y2="713.561429" stroke="black" stroke-width="5.94"/>
<line x1="1610.875276" y1="713.561429" x2="1653.753595" y2="713.561429" stroke="black" stroke-width="5.94"/>
<line x1="1653.753595" y1="713.561429" x2="1653.753595" y2="691.58629" stroke="black" stroke-width="5.94"/>
<line x1="1653.753595" y1="691.58629" x2="1610.875276" y2="691.58629" stroke="black" stroke-width="5.94"/>
<line x1="1653.753595" y1="928.488997" x2="1867.609207" y2="928.488997" stroke="black" stroke-width="5.94"/>
<line x1="1609.80332" y1="929.024976" x2="1609.80332" y2="951.000115" stroke="black" stroke-width="5.94"/>
<line x1="1609.80332" y1="951.000115" x2="1652.681636" y2="951.000115" stroke="black" stroke-width="5.94"/>
<line x1="1652.681636" y1="951.000115" x2="1652.681636" y2="929.024976" stroke="black" stroke-width="5.94"/>
<line x1="1652.681636" y1="929.024976" x2="1609.80332" y2="929.024976" stroke="black" stroke-width="5.94"/>
<path d="m 1652.145657,713.561429 a 214.9275695,214.9275695 0 0 1 214.92757099999994,214.92756800000006" fill="none" stroke="black" stroke-width="5.94"/>
<line x1="2135.974526" y1="732.297968" x2="2135.974526" y2="990.03926" stroke="black" stroke-width="5.94"/>
<line x1="2135.974526" y1="990.03926" x2="2175.707467" y2="990.03926" stroke="black" stroke-width="5.94"/>
<line x1="2175.707467" y1="990.03926" x2="2175.707467" y2="732.297968" stroke="black" stroke-width="5.94"/>
<line x1="2175.707467" y1="732.297968" x2="2135.974526" y2="732.297968" stroke="black" stroke-width="5.94"/>
<line x1="2175.184664" y1="756.346853" x2="2136.497329" y2="756.346853" stroke="black" stroke-width="5.94"/>
<line x1="2175.184664" y1="965.467576" x2="2134.928925" y2="965.467576" stroke="black" stroke-width="5.94"/>
<line x1="2156.8866" y1="755.82405" x2="2156.8866" y2="964.944773" stroke="black" stroke-width="5.94"/>
<line x1="2133.707354" y1="357.259069" x2="2133.707354" y2="615.000362" stroke="black" stroke-width="5.94"/>
<line x1="2133.707354" y1="615.000362" x2="2173.440294" y2="615.000362" stroke="black" stroke-width="5.94"/>
<line x1="2173.440294" y1="615.000362" x2="2173.440294" y2="357.259069" stroke="black" stroke-width="5.94"/>
<line x1="2173.440294" y1="357.259069" x2="2133.707354" y2="357.259069" stroke="black" stroke-width="5.94"/>
<line x1="2172.917492" y1="381.307954" x2="2134.230156" y2="381.307954" stroke="black" stroke-width="5.94"/>
<line x1="2172.917492" y1="590.428677" x2="2132.661752" y2="590.428677" stroke="black" stroke-width="5.94"/>
<line x1="2154.619427" y1="380.785152" x2="2154.619427" y2="589.905875" stroke="black" stroke-width="5.94"/>
<line x1="820.065622" y1="948.639367" x2="801.863047" y2="948.639367" stroke="black" stroke-width="5.94"/>
<line x1="801.863047" y1="948.639367" x2="801.863047" y2="657.398148" stroke="black" stroke-width="5.94"/>
<line x1="820.065622" y1="657.398148" x2="801.863047" y2="657.398148" stroke="black" stroke-width="5.94"/>
<line x1="820.065622" y1="948.639367" x2="820.065622" y2="657.398148" stroke="black" stroke-width="5.94"/>
<line x1="256.999264" y1="948.639367" x2="237.583183" y2="948.639367" stroke="black" stroke-width="5.94"/>
<line x1="237.583183" y1="948.639367" x2="237.583183" y2="657.398148" stroke="black" stroke-width="5.94"/>
<line x1="256.999264" y1="657.398148" x2="237.583183" y2="657.398148" stroke="black" stroke-width="5.94"/>
<line x1="256.999264" y1="948.639367" x2="256.999264" y2="657.398148" stroke="black" stroke-width="5.94"/>
<path d="m 820.065622,948.639367 a 291.241219,291.241219 0 0 1 -291.241219,-291.241219" fill="none" stroke="black" stroke-width="5.94"/>
<path d="m 528.824403,657.398148 a 291.2412195,291.2412195 0 0 1 -291.24122,291.241219" fill="none" stroke="black" stroke-width="5.94"/>
<line x1="925.450099" y1="436.518139" x2="925.450099" y2="178.776847" stroke="black" stroke-width="5.94"/>
<line x1="925.450099" y1="178.776847" x2="885.717159" y2="178.776847" stroke="black" stroke-width="5.94"/>
<line x1="885.717159" y1="178.776847" x2="885.717159" y2="436.518139" stroke="black" stroke-width="5.94"/>
<line x1="885.717159" y1="436.518139" x2="925.450099" y2="436.518139" stroke="black" stroke-width="5.94"/>
<line x1="886.239961" y1="412.469254" x2="924.927297" y2="412.469254" stroke="black" stroke-width="5.94"/>
<line x1="886.239961" y1="203.348531" x2="926.495701" y2="203.348531" stroke="black" stroke-width="5.94"/>
<line x1="904.538026" y1="412.992056" x2="904.538026" y2="203.871334" stroke="black" stroke-width="5.94"/>
<line x1="2123.989933" y1="236.163048" x2="2128.025552" y2="202.496894" stroke="black" stroke-width="5.94"/>
<line x1="2128.025552" y1="202.496894" x2="2011.402816" y2="89.875632" stroke="black" stroke-width="5.94"/>
<line x1="2011.402816" y1="89.875632" x2="1974.859804" y2="97.602496" stroke="black" stroke-width="5.94"/>
<line x1="2104.628107" y1="221.70657" x2="1991.453894" y2="112.415503" stroke="black" stroke-width="5.94"/>
<circle cx="2033.114266" cy="185.968741" r="14.38202781392063" fill="none" stroke="black" stroke-width="5.94"/>
<path d="m 2103.908634,219.990774 a 82.3697961942439,82.3697961942439 0 1 1 -110.8318589999999,-106.41396799999998" fill="none" stroke="black" stroke-width="5.94"/>
<path d="m 2124.455837,235.607236 a 105.03238518764651,105.03238518764651 0 1 1 -148.38812400000006,-138.592216" fill="none" stroke="black" stroke-width="5.94"/>
<line x1="1179.81666" y1="653.541395" x2="1179.81666" y2="87.848062" stroke="black" stroke-width="5.94"/>
<line x1="1179.81666" y1="87.848062" x2="927.888456" y2="87.848062" stroke="black" stroke-width="5.94"/>
<line x1="927.888456" y1="87.848062" x2="927.888456" y2="653.541395" stroke="black" stroke-width="5.94"/>
<line x1="927.888456" y1="653.541395" x2="1179.81666" y2="653.541395" stroke="black" stroke-width="5.94"/>
<line x1="966.822816" y1="196.635242" x2="966.822816" y2="607.736266" stroke="black" stroke-width="5.94"/>
<line x1="966.822816" y1="607.736266" x2="1137.446917" y2="607.736266" stroke="black" stroke-width="5.94"/>
<line x1="1137.446917" y1="607.736266" x2="1137.446917" y2="188.619344" stroke="black" stroke-width="5.94"/>
<path d="m 966.453507,197.807224 a 91.61025471866458,91.61025471866458 0 0 1 172.59963600000015,-6.208289999999977" fill="none" stroke="black" stroke-width="5.94"/>
<line x1="2082.505544" y1="663.30395" x2="2082.505544" y2="479.55995" stroke="black" stroke-width="5.94"/>
<line x1="2082.505544" y1="479.55995" x2="2131.609544" y2="479.55995" stroke="black" stroke-width="5.94"/>
<line x1="2131.609544" y1="663.30395" x2="2131.609544" y2="479.55995" stroke="black" stroke-width="5.94"/>
<line x1="2082.505544" y1="663.30395" x2="2131.609544" y2="663.30395" stroke="black" stroke-width="5.94"/>
<line x1="2054.785544" y1="621.72395" x2="2082.505544" y2="621.72395" stroke="black" stroke-width="5.94"/>
<line x1="2082.505544" y1="522.72395" x2="2053.201544" y2="522.72395" stroke="black" stroke-width="5.94"/>
<circle cx="2009.641544" cy="573.01595" r="66.52799999999999" fill="none" stroke="black" stroke-width="5.94"/>
<circle cx="2009.641544" cy="573.01595" r="57.024" fill="none" stroke="black" stroke-width="5.94"/>
<line x1="1578.175507" y1="225.210417" x2="1184.931634" y2="225.210417" stroke="black" stroke-width="5.94"/>
<line x1="1180.976227" y1="226.2067" x2="1180.976227" y2="90.137923" stroke="black" stroke-width="5.94"/>
<line x1="1577.711117" y1="88.986417" x2="1180.670888" y2="88.986417" stroke="black" stroke-width="5.94"/>
<line x1="1576.976227" y1="224.515668" x2="1576.976227" y2="89.251612" stroke="black" stroke-width="5.94"/>
<line x1="1566.680227" y1="214.122417" x2="1443.128227" y2="214.122417" stroke="black" stroke-width="5.94"/>
<line x1="1443.128227" y1="214.122417" x2="1443.128227" y2="100.074417" stroke="black" stroke-width="5.94"/>
<line x1="1566.680227" y1="100.074417" x2="1443.128227" y2="100.074417" stroke="black" stroke-width="5.94"/>
<line x1="1566.680227" y1="214.122417" x2="1566.680227" y2="100.074417" stroke="black" stroke-width="5.94"/>
<line x1="1424.120227" y1="206.994417" x2="1337.000227" y2="206.994417" stroke="black" stroke-width="5.94"/>
<line x1="1424.120227" y1="187.194417" x2="1337.000227" y2="187.194417" stroke="black" stroke-width="5.94"/>
<line x1="1423.328227" y1="166.602417" x2="1337.000227" y2="166.602417" stroke="black" stroke-width="5.94"/>
<line x1="1423.328227" y1="146.802417" x2="1337.000227" y2="146.802417" stroke="black" stroke-width="5.94"/>
<line x1="1424.120227" y1="127.002417" x2="1337.000227" y2="127.002417" stroke="black" stroke-width="5.94"/>
<line x1="1424.120227" y1="107.202417" x2="1337.000227" y2="107.202417" stroke="black" stroke-width="5.94"/>
<line x1="1519.160227" y1="100.866417" x2="1519.160227" y2="114.330417" stroke="black" stroke-width="5.94"/>
<line x1="1519.160227" y1="114.330417" x2="1489.064227" y2="114.330417" stroke="black" stroke-width="5.94"/>
<line x1="1489.064227" y1="114.330417" x2="1489.064227" y2="101.658417" stroke="black" stroke-width="5.94"/>
<line x1="1316.408227" y1="214.122417" x2="1192.856227" y2="214.122417" stroke="black" stroke-width="5.94"/>
<line x1="1192.856227" y1="214.122417" x2="1192.856227" y2="100.074417" stroke="black" stroke-width="5.94"/>
<line x1="1316.408227" y1="100.074417" x2="1192.856227" y2="100.074417" stroke="black" stroke-width="5.94"/>
<line x1="1316.408227" y1="214.122417" x2="1316.408227" y2="100.074417" stroke="black" stroke-width="5.94"/>
<line x1="1268.888227" y1="100.074417" x2="1268.888227" y2="113.538417" stroke="black" stroke-width="5.94"/>
<line x1="1268.888227" y1="113.538417" x2="1238.792227" y2="113.538417" stroke="black" stroke-width="5.94"/>
<line x1="1238.792227" y1="113.538417" x2="1238.792227" y2="100.866417" stroke="black" stroke-width="5.94"/>
<circle cx="1457.384227" cy="199.866417" r="7.128" fill="none" stroke="black" stroke-width="5.94"/>
<circle cx="1207.112227" cy="199.074417" r="7.128" fill="none" stroke="black" stroke-width="5.94"/>
<line x1="2132.353123" y1="870.65414" x2="1956.673122" y2="870.65414" stroke="black" stroke-width="5.94"/>
<line x1="1956.673122" y1="870.65414" x2="1956.673122" y2="694.614142" stroke="black" stroke-width="5.94"/>
<line x1="1956.673122" y1="694.614142" x2="2132.353123" y2="694.614142" stroke="black" stroke-width="5.94"/>
<line x1="2132.353123" y1="694.614142" x2="2132.353123" y2="870.65414" stroke="black" stroke-width="5.94"/>
<line x1="2132.713123" y1="871.014141" x2="1956.673122" y2="694.614142" stroke="black" stroke-width="5.94"/>
<line x1="2132.353123" y1="694.974142" x2="1957.033122" y2="870.65414" stroke="black" stroke-width="5.94"/>
<line x1="287.112415" y1="1252.580337" x2="97.032415" y2="1252.580337" stroke="black" stroke-width="5.94"/>
<line x1="97.032415" y1="1252.580337" x2="97.032415" y2="1716.375537" stroke="black" stroke-width="5.94"/>
<line x1="97.032415" y1="1716.375537" x2="287.112415" y2="1716.375537" stroke="black" stroke-width="5.94"/>
<line x1="287.112415" y1="1716.375537" x2="287.112415" y2="1692.615537" stroke="black" stroke-width="5.94"/>
<line x1="287.112415" y1="1692.615537" x2="119.842015" y2="1692.615537" stroke="black" stroke-width="5.94"/>
<line x1="119.842015" y1="1692.615537" x2="119.842015" y2="1277.290737" stroke="black" stroke-width="5.94"/>
<line x1="119.842015" y1="1277.290737" x2="287.112415" y2="1277.290737" stroke="black" stroke-width="5.94"/>
<line x1="287.112415" y1="1277.290737" x2="287.112415" y2="1252.580337" stroke="black" stroke-width="5.94"/>
<line x1="281.410015" y1="1277.290737" x2="281.410015" y2="1692.615537" stroke="black" stroke-width="5.94"/>
<line x1="282.360415" y1="1484.477937" x2="120.792415" y2="1484.477937" stroke="black" stroke-width="5.94"/>
</g>
</svg>
