<?xml version="1.0"?>
<svg xmlns:xlink="http://www.w3.org/1999/xlink" width="2217.6" height="2475.0">
<image x="0" y="0" width="2217.6" height="2475.0" xlink:href="groundfilled-03.png"/>
<g style="stroke-linecap:round">
<line x1="406.212256" y1="2403.380829" x2="139.04289" y2="2403.380829" stroke="black" stroke-width="5.94"/>
<line x1="139.04289" y1="2403.380829" x2="139.04289" y2="2451.167218" stroke="black" stroke-width="5.94"/>
<line x1="139.04289" y1="2451.167218" x2="406.212256" y2="2451.167218" stroke="black" stroke-width="5.94"/>
<line x1="406.212256" y1="2451.167218" x2="406.212256" y2="2403.380829" stroke="black" stroke-width="5.94"/>
<line x1="393.72263" y1="2403.380829" x2="393.72263" y2="2387.090013" stroke="black" stroke-width="5.94"/>
<line x1="393.72263" y1="2387.090013" x2="152.07554" y2="2387.090013" stroke="black" stroke-width="5.94"/>
<line x1="152.07554" y1="2403.380829" x2="152.07554" y2="2387.090013" stroke="black" stroke-width="5.94"/>
<line x1="884.3241" y1="2409.019081" x2="615.869846" y2="2409.019081" stroke="black" stroke-width="5.94"/>
<line x1="615.869846" y1="2409.019081" x2="615.869846" y2="2450.403509" stroke="black" stroke-width="5.94"/>
<line x1="615.869846" y1="2450.403509" x2="884.3241" y2="2450.403509" stroke="black" stroke-width="5.94"/>
<line x1="884.3241" y1="2450.403509" x2="884.3241" y2="2409.019081" stroke="black" stroke-width="5.94"/>
<line x1="859.275631" y1="2449.858976" x2="859.275631" y2="2409.563614" stroke="black" stroke-width="5.94"/>
<line x1="641.462847" y1="2449.858976" x2="641.462847" y2="2407.930018" stroke="black" stroke-width="5.94"/>
<line x1="859.820161" y1="2430.800361" x2="642.00738" y2="2430.800361" stroke="black" stroke-width="5.94"/>
<line x1="1419.598145" y1="2409.843648" x2="1151.774062" y2="2409.843648" stroke="black" stroke-width="5.94"/>
<line x1="1151.774062" y1="2409.843648" x2="1151.774062" y2="2451.130932" stroke="black" stroke-width="5.94"/>
<line x1="1151.774062" y1="2451.130932" x2="1419.598145" y2="2451.130932" stroke="black" stroke-width="5.94"/>
<line x1="1419.598145" y1="2451.130932" x2="1419.598145" y2="2409.843648" stroke="black" stroke-width="5.94"/>
<line x1="1394.608472" y1="2450.587676" x2="1394.608472" y2="2410.386901" stroke="black" stroke-width="5.94"/>
<line x1="1177.306987" y1="2450.587676" x2="1177.306987" y2="2408.75714" stroke="black" stroke-width="5.94"/>
<line x1="1395.151725" y1="2431.573798" x2="1177.850243" y2="2431.573798" stroke="black" stroke-width="5.94"/>
<line x1="91.206852" y1="1129.263003" x2="91.206852" y2="871.52171" stroke="black" stroke-width="5.94"/>
<line x1="91.206852" y1="871.52171" x2="51.473912" y2="871.52171" stroke="black" stroke-width="5.94"/>
<line x1="51.473912" y1="871.52171" x2="51.473912" y2="1129.263003" stroke="black" stroke-width="5.94"/>
<line x1="51.473912" y1="1129.263003" x2="91.206852" y2="1129.263003" stroke="black" stroke-width="5.94"/>
<line x1="51.996714" y1="1105.214118" x2="90.68405" y2="1105.214118" stroke="black" stroke-width="5.94"/>
<line x1="51.996714" y1="896.093395" x2="92.252454" y2="896.093395" stroke="black" stroke-width="5.94"/>
<line x1="70.294778" y1="1105.73692" x2="70.294778" y2="896.616197" stroke="black" stroke-width="5.94"/>
<line x1="1129.568108" y1="1281.012226" x2="1129.568108" y2="1581.297967" stroke="black" stroke-width="5.94"/>
<line x1="1129.568108" y1="1581.297967" x2="1604.618222" y2="1581.297967" stroke="black" stroke-width="5.94"/>
<line x1="1604.618222" y1="1581.297967" x2="1604.618222" y2="1281.012226" stroke="black" stroke-width="5.94"/>
<line x1="1604.618222" y1="1281.012226" x2="1129.568108" y2="1281.012226" stroke="black" stroke-width="5.94"/>
<line x1="1519.649908" y1="1280.046676" x2="1519.649908" y2="1582.263517" stroke="black" stroke-width="5.94"/>
<line x1="1519.649908" y1="1582.263517" x2="1448.199281" y2="1281.977776" stroke="black" stroke-width="5.94"/>
<line x1="1448.199281" y1="1281.977776" x2="1381.5764" y2="1327.358578" stroke="black" stroke-width="5.94"/>
<line x1="1381.5764" y1="1327.358578" x2="1520.615458" y2="1582.263517" stroke="black" stroke-width="5.94"/>
<line x1="1789.821403" y1="84.339291" x2="2052.604089" y2="84.339291" stroke="black" stroke-width="5.94"/>
<line x1="2052.604089" y1="84.339291" x2="2052.604089" y2="43.829181" stroke="black" stroke-width="5.94"/>
<line x1="2052.604089" y1="43.829181" x2="1789.821403" y2="43.829181" stroke="black" stroke-width="5.94"/>
<line x1="1789.821403" y1="43.829181" x2="1789.821403" y2="84.339291" stroke="black" stroke-width="5.94"/>
<line x1="1814.34068" y1="44.36221" x2="1814.34068" y2="83.806265" stroke="black" stroke-width="5.94"/>
<line x1="2027.551786" y1="44.36221" x2="2027.551786" y2="85.405346" stroke="black" stroke-width="5.94"/>
<line x1="1813.807654" y1="63.018183" x2="2027.018756" y2="63.018183" stroke="black" stroke-width="5.94"/>
<line x1="429.501257" y1="107.383594" x2="580.084114" y2="107.383594" stroke="black" stroke-width="5.939997"/>
<line x1="580.084114" y1="107.383594" x2="580.084114" y2="258.275021" stroke="black" stroke-width="5.939997"/>
<line x1="580.084114" y1="258.275021" x2="429.501257" y2="258.275021" stroke="black" stroke-width="5.939997"/>
<line x1="429.501257" y1="258.275021" x2="429.501257" y2="107.383594" stroke="black" stroke-width="5.939997"/>
<line x1="429.192687" y1="107.075021" x2="580.084114" y2="258.275021" stroke="black" stroke-width="5.939997"/>
<line x1="429.501257" y1="257.966452" x2="579.775541" y2="107.383594" stroke="black" stroke-width="5.939997"/>
<line x1="1993.076422" y1="1478.597828" x2="1993.076422" y2="1085.353955" stroke="black" stroke-width="5.94"/>
<line x1="1992.080138" y1="1081.398549" x2="2128.148916" y2="1081.398549" stroke="black" stroke-width="5.94"/>
<line x1="2129.300422" y1="1478.133439" x2="2129.300422" y2="1081.09321" stroke="black" stroke-width="5.94"/>
<line x1="1993.771171" y1="1477.398549" x2="2129.035227" y2="1477.398549" stroke="black" stroke-width="5.94"/>
<line x1="2004.164422" y1="1467.102549" x2="2004.164422" y2="1343.550549" stroke="black" stroke-width="5.94"/>
<line x1="2004.164422" y1="1343.550549" x2="2118.212422" y2="1343.550549" stroke="black" stroke-width="5.94"/>
<line x1="2118.212422" y1="1467.102549" x2="2118.212422" y2="1343.550549" stroke="black" stroke-width="5.94"/>
<line x1="2004.164422" y1="1467.102549" x2="2118.212422" y2="1467.102549" stroke="black" stroke-width="5.94"/>
<line x1="2011.292422" y1="1324.542549" x2="2011.292422" y2="1237.422549" stroke="black" stroke-width="5.94"/>
<line x1="2031.092422" y1="1324.542549" x2="2031.092422" y2="1237.422549" stroke="black" stroke-width="5.94"/>
<line x1="2051.684422" y1="1323.750549" x2="2051.684422" y2="1237.422549" stroke="black" stroke-width="5.94"/>
<line x1="2071.484422" y1="1323.750549" x2="2071.484422" y2="1237.422549" stroke="black" stroke-width="5.94"/>
<line x1="2091.284422" y1="1324.542549" x2="2091.284422" y2="1237.422549" stroke="black" stroke-width="5.94"/>
<line x1="2111.084422" y1="1324.542549" x2="2111.084422" y2="1237.422549" stroke="black" stroke-width="5.94"/>
<line x1="2117.420422" y1="1419.582549" x2="2103.956422" y2="1419.582549" stroke="black" stroke-width="5.94"/>
<line x1="2103.956422" y1="1419.582549" x2="2103.956422" y2="1389.486549" stroke="black" stroke-width="5.94"/>
<line x1="2103.956422" y1="1389.486549" x2="2116.628422" y2="1389.486549" stroke="black" stroke-width="5.94"/>
<line x1="2004.164422" y1="1216.830549" x2="2004.164422" y2="1093.278549" stroke="black" stroke-width="5.94"/>
<line x1="2004.164422" y1="1093.278549" x2="2118.212422" y2="1093.278549" stroke="black" stroke-width="5.94"/>
<line x1="2118.212422" y1="1216.830549" x2="2118.212422" y2="1093.278549" stroke="black" stroke-width="5.94"/>
<line x1="2004.164422" y1="1216.830549" x2="2118.212422" y2="1216.830549" stroke="black" stroke-width="5.94"/>
<line x1="2118.212422" y1="1169.310549" x2="2104.748422" y2="1169.310549" stroke="black" stroke-width="5.94"/>
<line x1="2104.748422" y1="1169.310549" x2="2104.748422" y2="1139.214549" stroke="black" stroke-width="5.94"/>
<line x1="2104.748422" y1="1139.214549" x2="2117.420422" y2="1139.214549" stroke="black" stroke-width="5.94"/>
<circle cx="2018.420422" cy="1357.806549" r="7.128" fill="none" stroke="black" stroke-width="5.94"/>
<circle cx="2019.212422" cy="1107.534549" r="7.128" fill="none" stroke="black" stroke-width="5.94"/>
<line x1="1682.200519" y1="1760.883343" x2="2075.032519" y2="1760.883343" stroke="black" stroke-width="5.94"/>
<line x1="2075.032519" y1="1760.883343" x2="2075.032519" y2="1576.347343" stroke="black" stroke-width="5.94"/>
<line x1="2075.032519" y1="1576.347343" x2="1682.200519" y2="1576.347343" stroke="black" stroke-width="5.94"/>
<line x1="1682.200519" y1="1576.347343" x2="1682.200519" y2="1760.883343" stroke="black" stroke-width="5.94"/>
<line x1="1841.392519" y1="1576.347343" x2="1841.392519" y2="1495.563343" stroke="black" stroke-width="5.94"/>
<line x1="1841.392519" y1="1495.563343" x2="1762.984519" y2="1495.563343" stroke="black" stroke-width="5.94"/>
<line x1="1762.984519" y1="1495.563343" x2="1762.984519" y2="1576.347343" stroke="black" stroke-width="5.94"/>
<line x1="1763.776519" y1="1512.987343" x2="1841.392519" y2="1512.987343" stroke="black" stroke-width="5.94"/>
<line x1="1762.984519" y1="1842.459343" x2="1841.392519" y2="1842.459343" stroke="black" stroke-width="5.94"/>
<line x1="1841.392519" y1="1842.459343" x2="1841.392519" y2="1760.883343" stroke="black" stroke-width="5.94"/>
<line x1="1762.984519" y1="1760.883343" x2="1762.984519" y2="1842.459343" stroke="black" stroke-width="5.94"/>
<line x1="1763.776519" y1="1825.035343" x2="1841.392519" y2="1825.035343" stroke="black" stroke-width="5.94"/>
<line x1="1992.664519" y1="1576.347343" x2="1992.664519" y2="1495.563343" stroke="black" stroke-width="5.94"/>
<line x1="1992.664519" y1="1495.563343" x2="1914.256519" y2="1495.563343" stroke="black" stroke-width="5.94"/>
<line x1="1914.256519" y1="1495.563343" x2="1914.256519" y2="1576.347343" stroke="black" stroke-width="5.94"/>
<line x1="1914.256519" y1="1512.987343" x2="1992.664519" y2="1512.987343" stroke="black" stroke-width="5.94"/>
<line x1="1914.256519" y1="1842.459343" x2="1992.664519" y2="1842.459343" stroke="black" stroke-width="5.94"/>
<line x1="1992.664519" y1="1842.459343" x2="1992.664519" y2="1760.883343" stroke="black" stroke-width="5.94"/>
<line x1="1914.256519" y1="1760.883343" x2="1914.256519" y2="1842.459343" stroke="black" stroke-width="5.94"/>
<line x1="1914.256519" y1="1825.035343" x2="1992.664519" y2="1825.035343" stroke="black" stroke-width="5.94"/>
<line x1="376.93657" y1="2157.47694" x2="407.277087" y2="2279.166117" stroke="black" stroke-width="5.94"/>
<line x1="407.277087" y1="2279.166117" x2="285.338549" y2="2309.568809" stroke="black" stroke-width="5.94"/>
<line x1="285.338549" y1="2309.568809" x2="254.998032" y2="2187.879632" stroke="black" stroke-width="5.94"/>
<line x1="254.998032" y1="2187.879632" x2="376.93657" y2="2157.47694" stroke="black" stroke-width="5.94"/>
<line x1="377.123759" y1="2157.165404" x2="285.338549" y2="2309.568809" stroke="black" stroke-width="5.94"/>
<line x1="255.247394" y1="2187.817457" x2="407.214915" y2="2278.916752" stroke="black" stroke-width="5.94"/>
<line x1="1454.096615" y1="1247.851054" x2="1454.096615" y2="1097.268196" stroke="black" stroke-width="5.939997"/>
<line x1="1454.096615" y1="1097.268196" x2="1604.988043" y2="1097.268196" stroke="black" stroke-width="5.939997"/>
<line x1="1604.988043" y1="1097.268196" x2="1604.988043" y2="1247.851054" stroke="black" stroke-width="5.939997"/>
<line x1="1604.988043" y1="1247.851054" x2="1454.096615" y2="1247.851054" stroke="black" stroke-width="5.939997"/>
<line x1="1453.788042" y1="1248.159624" x2="1604.988043" y2="1097.268196" stroke="black" stroke-width="5.939997"/>
<line x1="1604.679473" y1="1247.851054" x2="1454.096615" y2="1097.576769" stroke="black" stroke-width="5.939997"/>
<line x1="1451.697367" y1="1761.909692" x2="1451.697367" y2="1611.326835" stroke="black" stroke-width="5.939997"/>
<line x1="1451.697367" y1="1611.326835" x2="1602.588794" y2="1611.326835" stroke="black" stroke-width="5.939997"/>
<line x1="1602.588794" y1="1611.326835" x2="1602.588794" y2="1761.909692" stroke="black" stroke-width="5.939997"/>
<line x1="1602.588794" y1="1761.909692" x2="1451.697367" y2="1761.909692" stroke="black" stroke-width="5.939997"/>
<line x1="1451.388794" y1="1762.218262" x2="1602.588794" y2="1611.326835" stroke="black" stroke-width="5.939997"/>
<line x1="1602.280225" y1="1761.909692" x2="1451.697367" y2="1611.635408" stroke="black" stroke-width="5.939997"/>
<line x1="745.587421" y1="654.76889" x2="882.761491" y2="496.96817" stroke="black" stroke-width="5.94"/>
<line x1="882.761491" y1="496.96817" x2="707.746152" y2="344.829656" stroke="black" stroke-width="5.94"/>
<line x1="707.746152" y1="344.829656" x2="570.572079" y2="502.630372" stroke="black" stroke-width="5.94"/>
<line x1="570.572079" y1="502.630372" x2="745.587421" y2="654.76889" stroke="black" stroke-width="5.94"/>
<line x1="721.200038" y1="633.569257" x2="858.374104" y2="475.76854" stroke="black" stroke-width="5.94"/>
<line x1="118.083214" y1="572.271464" x2="146.919643" y2="583.340733" stroke="black" stroke-width="5.94"/>
<line x1="146.919643" y1="583.340733" x2="222.02038" y2="387.696632" stroke="black" stroke-width="5.94"/>
<line x1="222.02038" y1="387.696632" x2="193.183944" y2="376.627363" stroke="black" stroke-width="5.94"/>
<line x1="193.183944" y1="376.627363" x2="118.083214" y2="572.271464" stroke="black" stroke-width="5.94"/>
<line x1="308.403665" y1="645.328642" x2="337.240094" y2="656.397911" stroke="black" stroke-width="5.94"/>
<line x1="337.240094" y1="656.397911" x2="412.340831" y2="460.753811" stroke="black" stroke-width="5.94"/>
<line x1="412.340831" y1="460.753811" x2="383.504398" y2="449.684542" stroke="black" stroke-width="5.94"/>
<line x1="383.504398" y1="449.684542" x2="308.403665" y2="645.328642" stroke="black" stroke-width="5.94"/>
<line x1="146.476004" y1="583.170439" x2="308.403665" y2="645.328642" stroke="black" stroke-width="5.94"/>
<line x1="220.792509" y1="388.243314" x2="255.00251" y2="373.37986" stroke="black" stroke-width="5.94"/>
<line x1="368.130051" y1="416.805454" x2="383.607441" y2="450.742109" stroke="black" stroke-width="5.94"/>
<line x1="253.227962" y1="372.69867" x2="369.904603" y2="417.48664" stroke="black" stroke-width="5.94"/>
<line x1="162.927508" y1="541.638818" x2="324.855168" y2="603.79702" stroke="black" stroke-width="5.94"/>
<line x1="1111.150606" y1="700.920129" x2="941.994864" y2="823.81897" stroke="black" stroke-width="5.94"/>
<line x1="941.994864" y1="823.81897" x2="1078.300852" y2="1011.428068" stroke="black" stroke-width="5.94"/>
<line x1="1078.300852" y1="1011.428068" x2="1247.456598" y2="888.529227" stroke="black" stroke-width="5.94"/>
<line x1="1247.456598" y1="888.529227" x2="1111.150606" y2="700.920129" stroke="black" stroke-width="5.94"/>
<line x1="1130.144067" y1="727.062379" x2="960.988321" y2="849.961223" stroke="black" stroke-width="5.94"/>
<line x1="91.338093" y1="1533.406083" x2="91.338093" y2="1275.66479" stroke="black" stroke-width="5.94"/>
<line x1="91.338093" y1="1275.66479" x2="51.605152" y2="1275.66479" stroke="black" stroke-width="5.94"/>
<line x1="51.605152" y1="1275.66479" x2="51.605152" y2="1533.406083" stroke="black" stroke-width="5.94"/>
<line x1="51.605152" y1="1533.406083" x2="91.338093" y2="1533.406083" stroke="black" stroke-width="5.94"/>
<line x1="52.127955" y1="1509.357198" x2="90.81529" y2="1509.357198" stroke="black" stroke-width="5.94"/>
<line x1="52.127955" y1="1300.236475" x2="92.383695" y2="1300.236475" stroke="black" stroke-width="5.94"/>
<line x1="70.426019" y1="1509.88" x2="70.426019" y2="1300.759277" stroke="black" stroke-width="5.94"/>
<line x1="1367.452241" y1="690.245025" x2="1387.358244" y2="690.245025" stroke="black" stroke-width="5.94"/>
<line x1="1387.358244" y1="690.245025" x2="1387.358244" y2="651.404044" stroke="black" stroke-width="5.94"/>
<line x1="1387.358244" y1="651.404044" x2="1367.452241" y2="651.404044" stroke="black" stroke-width="5.94"/>
<line x1="1367.452241" y1="651.404044" x2="1367.452241" y2="690.245025" stroke="black" stroke-width="5.94"/>
<line x1="1582.048647" y1="651.404044" x2="1582.048647" y2="457.684666" stroke="black" stroke-width="5.94"/>
<line x1="1582.53416" y1="691.21605" x2="1602.440159" y2="691.21605" stroke="black" stroke-width="5.94"/>
<line x1="1602.440159" y1="691.21605" x2="1602.440159" y2="652.37507" stroke="black" stroke-width="5.94"/>
<line x1="1602.440159" y1="652.37507" x2="1582.53416" y2="652.37507" stroke="black" stroke-width="5.94"/>
<line x1="1582.53416" y1="652.37507" x2="1582.53416" y2="691.21605" stroke="black" stroke-width="5.94"/>
<path d="m 1387.358244,652.860582 a 194.69040350000003,194.69040350000003 0 0 1 194.69040300000006,-194.690404" fill="none" stroke="black" stroke-width="5.94"/>
<line x1="1610.875276" y1="691.58629" x2="1610.875276" y2="713.561429" stroke="black" stroke-width="5.94"/>
<line x1="1610.875276" y1="713.561429" x2="1653.753595" y2="713.561429" stroke="black" stroke-width="5.94"/>
<line x1="1653.753595" y1="713.561429" x2="1653.753595" y2="691.58629" stroke="black" stroke-width="5.94"/>
<line x1="1653.753595" y1="691.58629" x2="1610.875276" y2="691.58629" stroke="black" stroke-width="5.94"/>
<line x1="1653.753595" y1="928.488997" x2="1867.609207" y2="928.488997" stroke="black" stroke-width="5.94"/>
<line x1="1609.80332" y1="929.024976" x2="1609.80332" y2="951.000115" stroke="black" stroke-width="5.94"/>
<line x1="1609.80332" y1="951.000115" x2="1652.681636" y2="951.000115" stroke="black" stroke-width="5.94"/>
<line x1="1652.681636" y1="951.000115" x2="1652.681636" y2="929.024976" stroke="black" stroke-width="5.94"/>
<line x1="1652.681636" y1="929.024976" x2="1609.80332" y2="929.024976" stroke="black" stroke-width="5.94"/>
<path d="m 1652.145657,713.561429 a 214.9275695,214.9275695 0 0 1 214.92757099999994,214.92756800000006" fill="none" stroke="black" stroke-width="5.94"/>
<line x1="2135.974526" y1="732.297968" x2="2135.974526" y2="990.03926" stroke="black" stroke-width="5.94"/>
<line x1="2135.974526" y1="990.03926" x2="2175.707467" y2="990.03926" stroke="black" stroke-width="5.94"/>
<line x1="2175.707467" y1="990.03926" x2="2175.707467" y2="732.297968" stroke="black" stroke-width="5.94"/>
<line x1="2175.707467" y1="732.297968" x2="2135.974526" y2="732.297968" stroke="black" stroke-width="5.94"/>
<line x1="2175.184664" y1="756.346853" x2="2136.497329" y2="756.346853" stroke="black" stroke-width="5.94"/>
<line x1="2175.184664" y1="965.467576" x2="2134.928925" y2="965.467576" stroke="black" stroke-width="5.94"/>
<line x1="2156.8866" y1="755.82405" x2="2156.8866" y2="964.944773" stroke="black" stroke-width="5.94"/>
<line x1="2133.707354" y1="357.259069" x2="2133.707354" y2="615.000362" stroke="black" stroke-width="5.94"/>
<line x1="2133.707354" y1="615.000362" x2="2173.440294" y2="615.000362" stroke="black" stroke-width="5.94"/>
<line x1="2173.440294" y1="615.000362" x2="2173.440294" y2="357.259069" stroke="black" stroke-width="5.94"/>
<line x1="2173.440294" y1="357.259069" x2="2133.707354" y2="357.259069" stroke="black" stroke-width="5.94"/>
<line x1="2172.917492" y1="381.307954" x2="2134.230156" y2="381.307954" stroke="black" stroke-width="5.94"/>
<line x1="2172.917492" y1="590.428677" x2="2132.661752" y2="590.428677" stroke="black" stroke-width="5.94"/>
<line x1="2154.619427" y1="380.785152" x2="2154.619427" y2="589.905875" stroke="black" stroke-width="5.94"/>
<line x1="820.065622" y1="948.639367" x2="801.863047" y2="948.639367" stroke="black" stroke-width="5.94"/>
<line x1="801.863047" y1="948.639367" x2="801.863047" y2="657.398148" stroke="black" stroke-width="5.94"/>
<line x1="820.065622" y1="657.398148" x2="801.863047" y2="657.398148" stroke="black" stroke-width="5.94"/>
<line x1="820.065622" y1="948.639367" x2="820.065622" y2="657.398148" stroke="black" stroke-width="5.94"/>
<line x1="256.999264" y1="948.639367" x2="237.583183" y2="948.639367" stroke="black" stroke-width="5.94"/>
<line x1="237.583183" y1="948.639367" x2="237.583183" y2="657.398148" stroke="black" stroke-width="5.94"/>
<line x1="256.999264" y1="657.398148" x2="237.583183" y2="657.398148" stroke="black" stroke-width="5.94"/>
<line x1="256.999264" y1="948.639367" x2="256.999264" y2="657.398148" stroke="black" stroke-width="5.94"/>
<path d="m 820.065622,948.639367 a 291.241219,291.241219 0 0 1 -291.241219,-291.241219" fill="none" stroke="black" stroke-width="5.94"/>
<path d="m 528.824403,657.398148 a 291.2412195,291.2412195 0 0 1 -291.24122,291.241219" fill="none" stroke="black" stroke-width="5.94"/>
<line x1="925.450099" y1="436.518139" x2="925.450099" y2="178.776847" stroke="black" stroke-width="5.94"/>
<line x1="925.450099" y1="178.776847" x2="885.717159" y2="178.776847" stroke="black" stroke-width="5.94"/>
<line x1="885.717159" y1="178.776847" x2="885.717159" y2="436.518139" stroke="black" stroke-width="5.94"/>
<line x1="885.717159" y1="436.518139" x2="925.450099" y2="436.518139" stroke="black" stroke-width="5.94"/>
<line x1="886.239961" y1="412.469254" x2="924.927297" y2="412.469254" stroke="black" stroke-width="5.94"/>
<line x1="886.239961" y1="203.348531" x2="926.495701" y2="203.348531" stroke="black" stroke-width="5.94"/>
<line x1="904.538026" y1="412.992056" x2="904.538026" y2="203.871334" stroke="black" stroke-width="5.94"/>
<line x1="2123.989933" y1="236.163048" x2="2128.025552" y2="202.496894" stroke="black" stroke-width="5.94"/>
<line x1="2128.025552" y1="202.496894" x2="2011.402816" y2="89.875632" stroke="black" stroke-width="5.94"/>
<line x1="2011.402816" y1="89.875632" x2="1974.859804" y2="97.602496" stroke="black" stroke-width="5.94"/>
<line x1="2104.628107" y1="221.70657" x2="1991.453894" y2="112.415503" stroke="black" stroke-width="5.94"/>
<circle cx="2033.114266" cy="185.968741" r="14.38202781392063" fill="none" stroke="black" stroke-width="5.94"/>
<path d="m 2103.908634,219.990774 a 82.3697961942439,82.3697961942439 0 1 1 -110.8318589999999,-106.41396799999998" fill="none" stroke="black" stroke-width="5.94"/>
<path d="m 2124.455837,235.607236 a 105.03238518764651,105.03238518764651 0 1 1 -148.38812400000006,-138.592216" fill="none" stroke="black" stroke-width="5.94"/>
<line x1="1179.81666" y1="653.541395" x2="1179.81666" y2="87.848062" stroke="black" stroke-width="5.94"/>
<line x1="1179.81666" y1="87.848062" x2="927.888456" y2="87.848062" stroke="black" stroke-width="5.94"/>
<line x1="927.888456" y1="87.848062" x2="927.888456" y2="653.541395" stroke="black" stroke-width="5.94"/>
<line x1="927.888456" y1="653.541395" x2="1179.81666" y2="653.541395" stroke="black" stroke-width="5.94"/>
<line x1="966.822816" y1="196.635242" x2="966.822816" y2="607.736266" stroke="black" stroke-width="5.94"/>
<line x1="966.822816" y1="607.736266" x2="1137.446917" y2="607.736266" stroke="black" stroke-width="5.94"/>
<line x1="1137.446917" y1="607.736266" x2="1137.446917" y2="188.619344" stroke="black" stroke-width="5.94"/>
<path d="m 966.453507,197.807224 a 91.61025471866458,91.61025471866458 0 0 1 172.59963600000015,-6.208289999999977" fill="none" stroke="black" stroke-width="5.94"/>
<line x1="2082.505544" y1="663.30395" x2="2082.505544" y2="479.55995" stroke="black" stroke-width="5.94"/>
<line x1="2082.505544" y1="479.55995" x2="2131.609544" y2="479.55995" stroke="black" stroke-width="5.94"/>
<line x1="2131.609544" y1="663.30395" x2="2131.609544" y2="479.55995" stroke="black" stroke-width="5.94"/>
<line x1="2082.505544" y1="663.30395" x2="2131.609544" y2="663.30395" stroke="black" stroke-width="5.94"/>
<line x1="2054.785544" y1="621.72395" x2="2082.505544" y2="621.72395" stroke="black" stroke-width="5.94"/>
<line x1="2082.505544" y1="522.72395" x2="2053.201544" y2="522.72395" stroke="black" stroke-width="5.94"/>
<circle cx="2009.641544" cy="573.01595" r="66.52799999999999" fill="none" stroke="black" stroke-width="5.94"/>
<circle cx="2009.641544" cy="573.01595" r="57.024" fill="none" stroke="black" stroke-width="5.94"/>
<line x1="1451.218088" y1="220.933617" x2="1180.670888" y2="220.933617" stroke="black" stroke-width="5.94"/>
<line x1="1180.670888" y1="220.933617" x2="1180.670888" y2="88.986417" stroke="black" stroke-width="5.94"/>
<line x1="1451.218088" y1="88.986417" x2="1180.670888" y2="88.986417" stroke="black" stroke-width="5.94"/>
<line x1="1451.218088" y1="220.933617" x2="1451.218088" y2="88.986417" stroke="black" stroke-width="5.94"/>
<line x1="1444.565288" y1="214.280817" x2="1306.519688" y2="214.280817" stroke="black" stroke-width="5.94"/>
<line x1="1306.519688" y1="214.280817" x2="1306.519688" y2="96.193617" stroke="black" stroke-width="5.94"/>
<line x1="1444.565288" y1="96.193617" x2="1306.519688" y2="96.193617" stroke="black" stroke-width="5.94"/>
<line x1="1444.565288" y1="214.280817" x2="1444.565288" y2="96.193617" stroke="black" stroke-width="5.94"/>
<line x1="1292.105288" y1="206.519217" x2="1195.085288" y2="206.519217" stroke="black" stroke-width="5.94"/>
<line x1="1292.105288" y1="186.006417" x2="1195.085288" y2="186.006417" stroke="black" stroke-width="5.94"/>
<line x1="1291.550888" y1="164.939217" x2="1194.530888" y2="164.939217" stroke="black" stroke-width="5.94"/>
<line x1="1291.550888" y1="144.426417" x2="1194.530888" y2="144.426417" stroke="black" stroke-width="5.94"/>
<line x1="1292.105288" y1="123.913617" x2="1195.085288" y2="123.913617" stroke="black" stroke-width="5.94"/>
<line x1="1292.105288" y1="103.400817" x2="1195.085288" y2="103.400817" stroke="black" stroke-width="5.94"/>
<line x1="1391.897288" y1="96.193617" x2="1391.897288" y2="110.053617" stroke="black" stroke-width="5.94"/>
<line x1="1391.897288" y1="110.053617" x2="1357.524488" y2="110.053617" stroke="black" stroke-width="5.94"/>
<line x1="1357.524488" y1="110.053617" x2="1357.524488" y2="96.748017" stroke="black" stroke-width="5.94"/>
<circle cx="1322.042888" cy="199.312017" r="8.315999999999999" fill="none" stroke="black" stroke-width="5.94"/>
<line x1="2132.353123" y1="870.65414" x2="1956.673122" y2="870.65414" stroke="black" stroke-width="5.94"/>
<line x1="1956.673122" y1="870.65414" x2="1956.673122" y2="694.614142" stroke="black" stroke-width="5.94"/>
<line x1="1956.673122" y1="694.614142" x2="2132.353123" y2="694.614142" stroke="black" stroke-width="5.94"/>
<line x1="2132.353123" y1="694.614142" x2="2132.353123" y2="870.65414" stroke="black" stroke-width="5.94"/>
<line x1="2132.713123" y1="871.014141" x2="1956.673122" y2="694.614142" stroke="black" stroke-width="5.94"/>
<line x1="2132.353123" y1="694.974142" x2="1957.033122" y2="870.65414" stroke="black" stroke-width="5.94"/>
<line x1="287.112415" y1="1502.66226" x2="97.032415" y2="1502.66226" stroke="black" stroke-width="5.94"/>
<line x1="97.032415" y1="1502.66226" x2="97.032415" y2="1966.45746" stroke="black" stroke-width="5.94"/>
<line x1="97.032415" y1="1966.45746" x2="287.112415" y2="1966.45746" stroke="black" stroke-width="5.94"/>
<line x1="287.112415" y1="1966.45746" x2="287.112415" y2="1942.69746" stroke="black" stroke-width="5.94"/>
<line x1="287.112415" y1="1942.69746" x2="119.842015" y2="1942.69746" stroke="black" stroke-width="5.94"/>
<line x1="119.842015" y1="1942.69746" x2="119.842015" y2="1527.37266" stroke="black" stroke-width="5.94"/>
<line x1="119.842015" y1="1527.37266" x2="287.112415" y2="1527.37266" stroke="black" stroke-width="5.94"/>
<line x1="287.112415" y1="1527.37266" x2="287.112415" y2="1502.66226" stroke="black" stroke-width="5.94"/>
<line x1="281.410015" y1="1527.37266" x2="281.410015" y2="1942.69746" stroke="black" stroke-width="5.94"/>
<line x1="282.360415" y1="1734.55986" x2="120.792415" y2="1734.55986" stroke="black" stroke-width="5.94"/>
</g>
</svg>
