<?xml version="1.0"?>
<svg xmlns:xlink="http://www.w3.org/1999/xlink" width="2217.6" height="2475.0">
<image x="0" y="0" width="2217.6" height="2475.0" xlink:href="groundfilled-03.png"/>
<g style="stroke-linecap:round">
<line x1="406.212256" y1="2403.380829" x2="139.04289" y2="2403.380829" stroke="black" stroke-width="5.94"/>
<line x1="139.04289" y1="2403.380829" x2="139.04289" y2="2451.167218" stroke="black" stroke-width="5.94"/>
<line x1="139.04289" y1="2451.167218" x2="406.212256" y2="2451.167218" stroke="black" stroke-width="5.94"/>
<line x1="406.212256" y1="2451.167218" x2="406.212256" y2="2403.380829" stroke="black" stroke-width="5.94"/>
<line x1="393.72263" y1="2403.380829" x2="393.72263" y2="2387.090013" stroke="black" stroke-width="5.94"/>
<line x1="393.72263" y1="2387.090013" x2="152.07554" y2="2387.090013" stroke="black" stroke-width="5.94"/>
<line x1="152.07554" y1="2403.380829" x2="152.07554" y2="2387.090013" stroke="black" stroke-width="5.94"/>
<line x1="884.3241" y1="2409.019081" x2="615.869846" y2="2409.019081" stroke="black" stroke-width="5.94"/>
<line x1="615.869846" y1="2409.019081" x2="615.869846" y2="2450.403509" stroke="black" stroke-width="5.94"/>
<line x1="615.869846" y1="2450.403509" x2="884.3241" y2="2450.403509" stroke="black" stroke-width="5.94"/>
<line x1="884.3241" y1="2450.403509" x2="884.3241" y2="2409.019081" stroke="black" stroke-width="5.94"/>
<line x1="859.275631" y1="2449.858976" x2="859.275631" y2="2409.563614" stroke="black" stroke-width="5.94"/>
<line x1="641.462847" y1="2449.858976" x2="641.462847" y2="2407.930018" stroke="black" stroke-width="5.94"/>
<line x1="859.820161" y1="2430.800361" x2="642.00738" y2="2430.800361" stroke="black" stroke-width="5.94"/>
<line x1="1419.598145" y1="2409.843648" x2="1151.774062" y2="2409.843648" stroke="black" stroke-width="5.94"/>
<line x1="1151.774062" y1="2409.843648" x2="1151.774062" y2="2451.130932" stroke="black" stroke-width="5.94"/>
<line x1="1151.774062" y1="2451.130932" x2="1419.598145" y2="2451.130932" stroke="black" stroke-width="5.94"/>
<line x1="1419.598145" y1="2451.130932" x2="1419.598145" y2="2409.843648" stroke="black" stroke-width="5.94"/>
<line x1="1394.608472" y1="2450.587676" x2="1394.608472" y2="2410.386901" stroke="black" stroke-width="5.94"/>
<line x1="1177.306987" y1="2450.587676" x2="1177.306987" y2="2408.75714" stroke="black" stroke-width="5.94"/>
<line x1="1395.151725" y1="2431.573798" x2="1177.850243" y2="2431.573798" stroke="black" stroke-width="5.94"/>
<line x1="91.206852" y1="1129.263003" x2="91.206852" y2="871.52171" stroke="black" stroke-width="5.94"/>
<line x1="91.206852" y1="871.52171" x2="51.473912" y2="871.52171" stroke="black" stroke-width="5.94"/>
<line x1="51.473912" y1="871.52171" x2="51.473912" y2="1129.263003" stroke="black" stroke-width="5.94"/>
<line x1="51.473912" y1="1129.263003" x2="91.206852" y2="1129.263003" stroke="black" stroke-width="5.94"/>
<line x1="51.996714" y1="1105.214118" x2="90.68405" y2="1105.214118" stroke="black" stroke-width="5.94"/>
<line x1="51.996714" y1="896.093395" x2="92.252454" y2="896.093395" stroke="black" stroke-width="5.94"/>
<line x1="70.294778" y1="1105.73692" x2="70.294778" y2="896.616197" stroke="black" stroke-width="5.94"/>
<line x1="1129.568108" y1="1281.012226" x2="1129.568108" y2="1581.297967" stroke="black" stroke-width="5.94"/>
<line x1="1129.568108" y1="1581.297967" x2="1604.618222" y2="1581.297967" stroke="black" stroke-width="5.94"/>
<line x1="1604.618222" y1="1581.297967" x2="1604.618222" y2="1281.012226" stroke="black" stroke-width="5.94"/>
<line x1="1604.618222" y1="1281.012226" x2="1129.568108" y2="1281.012226" stroke="black" stroke-width="5.94"/>
<line x1="1519.649908" y1="1280.046676" x2="1519.649908" y2="1582.263517" stroke="black" stroke-width="5.94"/>
<line x1="1519.649908" y1="1582.263517" x2="1448.199281" y2="1281.977776" stroke="black" stroke-width="5.94"/>
<line x1="1448.199281" y1="1281.977776" x2="1381.5764" y2="1327.358578" stroke="black" stroke-width="5.94"/>
<line x1="1381.5764" y1="1327.358578" x2="1520.615458" y2="1582.263517" stroke="black" stroke-width="5.94"/>
<line x1="1789.821403" y1="84.339291" x2="2052.604089" y2="84.339291" stroke="black" stroke-width="5.94"/>
<line x1="2052.604089" y1="84.339291" x2="2052.604089" y2="43.829181" stroke="black" stroke-width="5.94"/>
<line x1="2052.604089" y1="43.829181" x2="1789.821403" y2="43.829181" stroke="black" stroke-width="5.94"/>
<line x1="1789.821403" y1="43.829181" x2="1789.821403" y2="84.339291" stroke="black" stroke-width="5.94"/>
<line x1="1814.34068" y1="44.36221" x2="1814.34068" y2="83.806265" stroke="black" stroke-width="5.94"/>
<line x1="2027.551786" y1="44.36221" x2="2027.551786" y2="85.405346" stroke="black" stroke-width="5.94"/>
<line x1="1813.807654" y1="63.018183" x2="2027.018756" y2="63.018183" stroke="black" stroke-width="5.94"/>
<line x1="445.913853" y1="107.322353" x2="596.496711" y2="107.322353" stroke="black" stroke-width="5.939997"/>
<line x1="596.496711" y1="107.322353" x2="596.496711" y2="258.21378" stroke="black" stroke-width="5.939997"/>
<line x1="596.496711" y1="258.21378" x2="445.913853" y2="258.21378" stroke="black" stroke-width="5.939997"/>
<line x1="445.913853" y1="258.21378" x2="445.913853" y2="107.322353" stroke="black" stroke-width="5.939997"/>
<line x1="445.605283" y1="107.013779" x2="596.496711" y2="258.21378" stroke="black" stroke-width="5.939997"/>
<line x1="445.913853" y1="257.90521" x2="596.188138" y2="107.322353" stroke="black" stroke-width="5.939997"/>
<line x1="1993.270049" y1="1551.789472" x2="1993.270049" y2="1158.545599" stroke="black" stroke-width="5.94"/>
<line x1="1992.273766" y1="1154.590193" x2="2128.342544" y2="1154.590193" stroke="black" stroke-width="5.94"/>
<line x1="2129.494049" y1="1551.325083" x2="2129.494049" y2="1154.284854" stroke="black" stroke-width="5.94"/>
<line x1="1993.964798" y1="1550.590193" x2="2129.228854" y2="1550.590193" stroke="black" stroke-width="5.94"/>
<line x1="2004.358049" y1="1540.294193" x2="2004.358049" y2="1416.742193" stroke="black" stroke-width="5.94"/>
<line x1="2004.358049" y1="1416.742193" x2="2118.406049" y2="1416.742193" stroke="black" stroke-width="5.94"/>
<line x1="2118.406049" y1="1540.294193" x2="2118.406049" y2="1416.742193" stroke="black" stroke-width="5.94"/>
<line x1="2004.358049" y1="1540.294193" x2="2118.406049" y2="1540.294193" stroke="black" stroke-width="5.94"/>
<line x1="2011.486049" y1="1397.734193" x2="2011.486049" y2="1310.614193" stroke="black" stroke-width="5.94"/>
<line x1="2031.286049" y1="1397.734193" x2="2031.286049" y2="1310.614193" stroke="black" stroke-width="5.94"/>
<line x1="2051.878049" y1="1396.942193" x2="2051.878049" y2="1310.614193" stroke="black" stroke-width="5.94"/>
<line x1="2071.678049" y1="1396.942193" x2="2071.678049" y2="1310.614193" stroke="black" stroke-width="5.94"/>
<line x1="2091.478049" y1="1397.734193" x2="2091.478049" y2="1310.614193" stroke="black" stroke-width="5.94"/>
<line x1="2111.278049" y1="1397.734193" x2="2111.278049" y2="1310.614193" stroke="black" stroke-width="5.94"/>
<line x1="2117.614049" y1="1492.774193" x2="2104.150049" y2="1492.774193" stroke="black" stroke-width="5.94"/>
<line x1="2104.150049" y1="1492.774193" x2="2104.150049" y2="1462.678193" stroke="black" stroke-width="5.94"/>
<line x1="2104.150049" y1="1462.678193" x2="2116.822049" y2="1462.678193" stroke="black" stroke-width="5.94"/>
<line x1="2004.358049" y1="1290.022193" x2="2004.358049" y2="1166.470193" stroke="black" stroke-width="5.94"/>
<line x1="2004.358049" y1="1166.470193" x2="2118.406049" y2="1166.470193" stroke="black" stroke-width="5.94"/>
<line x1="2118.406049" y1="1290.022193" x2="2118.406049" y2="1166.470193" stroke="black" stroke-width="5.94"/>
<line x1="2004.358049" y1="1290.022193" x2="2118.406049" y2="1290.022193" stroke="black" stroke-width="5.94"/>
<line x1="2118.406049" y1="1242.502193" x2="2104.942049" y2="1242.502193" stroke="black" stroke-width="5.94"/>
<line x1="2104.942049" y1="1242.502193" x2="2104.942049" y2="1212.406193" stroke="black" stroke-width="5.94"/>
<line x1="2104.942049" y1="1212.406193" x2="2117.614049" y2="1212.406193" stroke="black" stroke-width="5.94"/>
<circle cx="2018.614049" cy="1430.998193" r="7.128" fill="none" stroke="black" stroke-width="5.94"/>
<circle cx="2019.406049" cy="1180.726193" r="7.128" fill="none" stroke="black" stroke-width="5.94"/>
<line x1="1100.280631" y1="700.920125" x2="940.10993" y2="835.319298" stroke="black" stroke-width="5.94"/>
<line x1="940.10993" y1="835.319298" x2="1089.170838" y2="1012.963166" stroke="black" stroke-width="5.94"/>
<line x1="1089.170838" y1="1012.963166" x2="1249.341535" y2="878.56399" stroke="black" stroke-width="5.94"/>
<line x1="1249.341535" y1="878.56399" x2="1100.280631" y2="700.920125" stroke="black" stroke-width="5.94"/>
<line x1="1121.051415" y1="725.673775" x2="960.880711" y2="860.072951" stroke="black" stroke-width="5.94"/>
<line x1="1451.697367" y1="1761.909692" x2="1451.697367" y2="1611.326835" stroke="black" stroke-width="5.939997"/>
<line x1="1451.697367" y1="1611.326835" x2="1602.588794" y2="1611.326835" stroke="black" stroke-width="5.939997"/>
<line x1="1602.588794" y1="1611.326835" x2="1602.588794" y2="1761.909692" stroke="black" stroke-width="5.939997"/>
<line x1="1602.588794" y1="1761.909692" x2="1451.697367" y2="1761.909692" stroke="black" stroke-width="5.939997"/>
<line x1="1451.388794" y1="1762.218262" x2="1602.588794" y2="1611.326835" stroke="black" stroke-width="5.939997"/>
<line x1="1602.280225" y1="1761.909692" x2="1451.697367" y2="1611.635408" stroke="black" stroke-width="5.939997"/>
<line x1="1454.096615" y1="1247.851054" x2="1454.096615" y2="1097.268196" stroke="black" stroke-width="5.939997"/>
<line x1="1454.096615" y1="1097.268196" x2="1604.988043" y2="1097.268196" stroke="black" stroke-width="5.939997"/>
<line x1="1604.988043" y1="1097.268196" x2="1604.988043" y2="1247.851054" stroke="black" stroke-width="5.939997"/>
<line x1="1604.988043" y1="1247.851054" x2="1454.096615" y2="1247.851054" stroke="black" stroke-width="5.939997"/>
<line x1="1453.788042" y1="1248.159624" x2="1604.988043" y2="1097.268196" stroke="black" stroke-width="5.939997"/>
<line x1="1604.679473" y1="1247.851054" x2="1454.096615" y2="1097.576769" stroke="black" stroke-width="5.939997"/>
<line x1="690.294974" y1="654.76889" x2="882.761491" y2="573.071704" stroke="black" stroke-width="5.94"/>
<line x1="882.761491" y1="573.071704" x2="792.151879" y2="359.608838" stroke="black" stroke-width="5.94"/>
<line x1="792.151879" y1="359.608838" x2="599.685362" y2="441.306023" stroke="black" stroke-width="5.94"/>
<line x1="599.685362" y1="441.306023" x2="690.294974" y2="654.76889" stroke="black" stroke-width="5.94"/>
<line x1="677.669045" y1="625.024066" x2="870.135562" y2="543.326876" stroke="black" stroke-width="5.94"/>
<line x1="118.08321" y1="542.589435" x2="145.098466" y2="557.564235" stroke="black" stroke-width="5.94"/>
<line x1="145.098466" y1="557.564235" x2="246.696721" y2="374.27613" stroke="black" stroke-width="5.94"/>
<line x1="246.696721" y1="374.27613" x2="219.681472" y2="359.30133" stroke="black" stroke-width="5.94"/>
<line x1="219.681472" y1="359.30133" x2="118.08321" y2="542.589435" stroke="black" stroke-width="5.94"/>
<line x1="296.383887" y1="641.423115" x2="323.399142" y2="656.397915" stroke="black" stroke-width="5.94"/>
<line x1="323.399142" y1="656.397915" x2="424.997397" y2="473.10981" stroke="black" stroke-width="5.94"/>
<line x1="424.997397" y1="473.10981" x2="397.982142" y2="458.13501" stroke="black" stroke-width="5.94"/>
<line x1="397.982142" y1="458.13501" x2="296.383887" y2="641.423115" stroke="black" stroke-width="5.94"/>
<line x1="144.682847" y1="557.333855" x2="296.383887" y2="641.423115" stroke="black" stroke-width="5.94"/>
<line x1="245.404721" y1="374.646607" x2="281.350384" y2="364.68891" stroke="black" stroke-width="5.94"/>
<line x1="387.333302" y1="423.436203" x2="397.936998" y2="459.196627" stroke="black" stroke-width="5.94"/>
<line x1="279.68791" y1="363.767389" x2="388.99578" y2="424.357728" stroke="black" stroke-width="5.94"/>
<line x1="166.754333" y1="518.496023" x2="318.455369" y2="602.58528" stroke="black" stroke-width="5.94"/>
<line x1="91.338093" y1="1533.406083" x2="91.338093" y2="1275.66479" stroke="black" stroke-width="5.94"/>
<line x1="91.338093" y1="1275.66479" x2="51.605152" y2="1275.66479" stroke="black" stroke-width="5.94"/>
<line x1="51.605152" y1="1275.66479" x2="51.605152" y2="1533.406083" stroke="black" stroke-width="5.94"/>
<line x1="51.605152" y1="1533.406083" x2="91.338093" y2="1533.406083" stroke="black" stroke-width="5.94"/>
<line x1="52.127955" y1="1509.357198" x2="90.81529" y2="1509.357198" stroke="black" stroke-width="5.94"/>
<line x1="52.127955" y1="1300.236475" x2="92.383695" y2="1300.236475" stroke="black" stroke-width="5.94"/>
<line x1="70.426019" y1="1509.88" x2="70.426019" y2="1300.759277" stroke="black" stroke-width="5.94"/>
<line x1="1367.452241" y1="690.245025" x2="1387.358244" y2="690.245025" stroke="black" stroke-width="5.94"/>
<line x1="1387.358244" y1="690.245025" x2="1387.358244" y2="651.404044" stroke="black" stroke-width="5.94"/>
<line x1="1387.358244" y1="651.404044" x2="1367.452241" y2="651.404044" stroke="black" stroke-width="5.94"/>
<line x1="1367.452241" y1="651.404044" x2="1367.452241" y2="690.245025" stroke="black" stroke-width="5.94"/>
<line x1="1582.048647" y1="651.404044" x2="1582.048647" y2="457.684666" stroke="black" stroke-width="5.94"/>
<line x1="1582.53416" y1="691.21605" x2="1602.440159" y2="691.21605" stroke="black" stroke-width="5.94"/>
<line x1="1602.440159" y1="691.21605" x2="1602.440159" y2="652.37507" stroke="black" stroke-width="5.94"/>
<line x1="1602.440159" y1="652.37507" x2="1582.53416" y2="652.37507" stroke="black" stroke-width="5.94"/>
<line x1="1582.53416" y1="652.37507" x2="1582.53416" y2="691.21605" stroke="black" stroke-width="5.94"/>
<path d="m 1387.358244,652.860582 a 194.69040350000003,194.69040350000003 0 0 1 194.69040300000006,-194.690404" fill="none" stroke="black" stroke-width="5.94"/>
<line x1="1610.875276" y1="691.58629" x2="1610.875276" y2="713.561429" stroke="black" stroke-width="5.94"/>
<line x1="1610.875276" y1="713.561429" x2="1653.753595" y2="713.561429" stroke="black" stroke-width="5.94"/>
<line x1="1653.753595" y1="713.561429" x2="1653.753595" y2="691.58629" stroke="black" stroke-width="5.94"/>
<line x1="1653.753595" y1="691.58629" x2="1610.875276" y2="691.58629" stroke="black" stroke-width="5.94"/>
<line x1="1653.753595" y1="928.488997" x2="1867.609207" y2="928.488997" stroke="black" stroke-width="5.94"/>
<line x1="1609.80332" y1="929.024976" x2="1609.80332" y2="951.000115" stroke="black" stroke-width="5.94"/>
<line x1="1609.80332" y1="951.000115" x2="1652.681636" y2="951.000115" stroke="black" stroke-width="5.94"/>
<line x1="1652.681636" y1="951.000115" x2="1652.681636" y2="929.024976" stroke="black" stroke-width="5.94"/>
<line x1="1652.681636" y1="929.024976" x2="1609.80332" y2="929.024976" stroke="black" stroke-width="5.94"/>
<path d="m 1652.145657,713.561429 a 214.9275695,214.9275695 0 0 1 214.92757099999994,214.92756800000006" fill="none" stroke="black" stroke-width="5.94"/>
<line x1="2135.974526" y1="732.297968" x2="2135.974526" y2="990.03926" stroke="black" stroke-width="5.94"/>
<line x1="2135.974526" y1="990.03926" x2="2175.707467" y2="990.03926" stroke="black" stroke-width="5.94"/>
<line x1="2175.707467" y1="990.03926" x2="2175.707467" y2="732.297968" stroke="black" stroke-width="5.94"/>
<line x1="2175.707467" y1="732.297968" x2="2135.974526" y2="732.297968" stroke="black" stroke-width="5.94"/>
<line x1="2175.184664" y1="756.346853" x2="2136.497329" y2="756.346853" stroke="black" stroke-width="5.94"/>
<line x1="2175.184664" y1="965.467576" x2="2134.928925" y2="965.467576" stroke="black" stroke-width="5.94"/>
<line x1="2156.8866" y1="755.82405" x2="2156.8866" y2="964.944773" stroke="black" stroke-width="5.94"/>
<line x1="2133.707354" y1="357.259069" x2="2133.707354" y2="615.000362" stroke="black" stroke-width="5.94"/>
<line x1="2133.707354" y1="615.000362" x2="2173.440294" y2="615.000362" stroke="black" stroke-width="5.94"/>
<line x1="2173.440294" y1="615.000362" x2="2173.440294" y2="357.259069" stroke="black" stroke-width="5.94"/>
<line x1="2173.440294" y1="357.259069" x2="2133.707354" y2="357.259069" stroke="black" stroke-width="5.94"/>
<line x1="2172.917492" y1="381.307954" x2="2134.230156" y2="381.307954" stroke="black" stroke-width="5.94"/>
<line x1="2172.917492" y1="590.428677" x2="2132.661752" y2="590.428677" stroke="black" stroke-width="5.94"/>
<line x1="2154.619427" y1="380.785152" x2="2154.619427" y2="589.905875" stroke="black" stroke-width="5.94"/>
<line x1="820.065622" y1="948.639367" x2="801.863047" y2="948.639367" stroke="black" stroke-width="5.94"/>
<line x1="801.863047" y1="948.639367" x2="801.863047" y2="657.398148" stroke="black" stroke-width="5.94"/>
<line x1="820.065622" y1="657.398148" x2="801.863047" y2="657.398148" stroke="black" stroke-width="5.94"/>
<line x1="820.065622" y1="948.639367" x2="820.065622" y2="657.398148" stroke="black" stroke-width="5.94"/>
<line x1="256.999264" y1="948.639367" x2="237.583183" y2="948.639367" stroke="black" stroke-width="5.94"/>
<line x1="237.583183" y1="948.639367" x2="237.583183" y2="657.398148" stroke="black" stroke-width="5.94"/>
<line x1="256.999264" y1="657.398148" x2="237.583183" y2="657.398148" stroke="black" stroke-width="5.94"/>
<line x1="256.999264" y1="948.639367" x2="256.999264" y2="657.398148" stroke="black" stroke-width="5.94"/>
<path d="m 820.065622,948.639367 a 291.241219,291.241219 0 0 1 -291.241219,-291.241219" fill="none" stroke="black" stroke-width="5.94"/>
<path d="m 528.824403,657.398148 a 291.2412195,291.2412195 0 0 1 -291.24122,291.241219" fill="none" stroke="black" stroke-width="5.94"/>
<line x1="925.450099" y1="436.518139" x2="925.450099" y2="178.776847" stroke="black" stroke-width="5.94"/>
<line x1="925.450099" y1="178.776847" x2="885.717159" y2="178.776847" stroke="black" stroke-width="5.94"/>
<line x1="885.717159" y1="178.776847" x2="885.717159" y2="436.518139" stroke="black" stroke-width="5.94"/>
<line x1="885.717159" y1="436.518139" x2="925.450099" y2="436.518139" stroke="black" stroke-width="5.94"/>
<line x1="886.239961" y1="412.469254" x2="924.927297" y2="412.469254" stroke="black" stroke-width="5.94"/>
<line x1="886.239961" y1="203.348531" x2="926.495701" y2="203.348531" stroke="black" stroke-width="5.94"/>
<line x1="904.538026" y1="412.992056" x2="904.538026" y2="203.871334" stroke="black" stroke-width="5.94"/>
<line x1="2123.989933" y1="236.163048" x2="2128.025552" y2="202.496894" stroke="black" stroke-width="5.94"/>
<line x1="2128.025552" y1="202.496894" x2="2011.402816" y2="89.875632" stroke="black" stroke-width="5.94"/>
<line x1="2011.402816" y1="89.875632" x2="1974.859804" y2="97.602496" stroke="black" stroke-width="5.94"/>
<line x1="2104.628107" y1="221.70657" x2="1991.453894" y2="112.415503" stroke="black" stroke-width="5.94"/>
<circle cx="2033.114266" cy="185.968741" r="14.38202781392063" fill="none" stroke="black" stroke-width="5.94"/>
<path d="m 2103.908634,219.990774 a 82.3697961942439,82.3697961942439 0 1 1 -110.8318589999999,-106.41396799999998" fill="none" stroke="black" stroke-width="5.94"/>
<path d="m 2124.455837,235.607236 a 105.03238518764651,105.03238518764651 0 1 1 -148.38812400000006,-138.592216" fill="none" stroke="black" stroke-width="5.94"/>
<line x1="1179.81666" y1="653.541395" x2="1179.81666" y2="87.848062" stroke="black" stroke-width="5.94"/>
<line x1="1179.81666" y1="87.848062" x2="927.888456" y2="87.848062" stroke="black" stroke-width="5.94"/>
<line x1="927.888456" y1="87.848062" x2="927.888456" y2="653.541395" stroke="black" stroke-width="5.94"/>
<line x1="927.888456" y1="653.541395" x2="1179.81666" y2="653.541395" stroke="black" stroke-width="5.94"/>
<line x1="966.822816" y1="196.635242" x2="966.822816" y2="607.736266" stroke="black" stroke-width="5.94"/>
<line x1="966.822816" y1="607.736266" x2="1137.446917" y2="607.736266" stroke="black" stroke-width="5.94"/>
<line x1="1137.446917" y1="607.736266" x2="1137.446917" y2="188.619344" stroke="black" stroke-width="5.94"/>
<path d="m 966.453507,197.807224 a 91.61025471866458,91.61025471866458 0 0 1 172.59963600000015,-6.208289999999977" fill="none" stroke="black" stroke-width="5.94"/>
<line x1="2082.505544" y1="663.30395" x2="2082.505544" y2="479.55995" stroke="black" stroke-width="5.94"/>
<line x1="2082.505544" y1="479.55995" x2="2131.609544" y2="479.55995" stroke="black" stroke-width="5.94"/>
<line x1="2131.609544" y1="663.30395" x2="2131.609544" y2="479.55995" stroke="black" stroke-width="5.94"/>
<line x1="2082.505544" y1="663.30395" x2="2131.609544" y2="663.30395" stroke="black" stroke-width="5.94"/>
<line x1="2054.785544" y1="621.72395" x2="2082.505544" y2="621.72395" stroke="black" stroke-width="5.94"/>
<line x1="2082.505544" y1="522.72395" x2="2053.201544" y2="522.72395" stroke="black" stroke-width="5.94"/>
<circle cx="2009.641544" cy="573.01595" r="66.52799999999999" fill="none" stroke="black" stroke-width="5.94"/>
<circle cx="2009.641544" cy="573.01595" r="57.024" fill="none" stroke="black" stroke-width="5.94"/>
<line x1="1451.218088" y1="220.933617" x2="1180.670888" y2="220.933617" stroke="black" stroke-width="5.94"/>
<line x1="1180.670888" y1="220.933617" x2="1180.670888" y2="88.986417" stroke="black" stroke-width="5.94"/>
<line x1="1451.218088" y1="88.986417" x2="1180.670888" y2="88.986417" stroke="black" stroke-width="5.94"/>
<line x1="1451.218088" y1="220.933617" x2="1451.218088" y2="88.986417" stroke="black" stroke-width="5.94"/>
<line x1="1444.565288" y1="214.280817" x2="1306.519688" y2="214.280817" stroke="black" stroke-width="5.94"/>
<line x1="1306.519688" y1="214.280817" x2="1306.519688" y2="96.193617" stroke="black" stroke-width="5.94"/>
<line x1="1444.565288" y1="96.193617" x2="1306.519688" y2="96.193617" stroke="black" stroke-width="5.94"/>
<line x1="1444.565288" y1="214.280817" x2="1444.565288" y2="96.193617" stroke="black" stroke-width="5.94"/>
<line x1="1292.105288" y1="206.519217" x2="1195.085288" y2="206.519217" stroke="black" stroke-width="5.94"/>
<line x1="1292.105288" y1="186.006417" x2="1195.085288" y2="186.006417" stroke="black" stroke-width="5.94"/>
<line x1="1291.550888" y1="164.939217" x2="1194.530888" y2="164.939217" stroke="black" stroke-width="5.94"/>
<line x1="1291.550888" y1="144.426417" x2="1194.530888" y2="144.426417" stroke="black" stroke-width="5.94"/>
<line x1="1292.105288" y1="123.913617" x2="1195.085288" y2="123.913617" stroke="black" stroke-width="5.94"/>
<line x1="1292.105288" y1="103.400817" x2="1195.085288" y2="103.400817" stroke="black" stroke-width="5.94"/>
<line x1="1391.897288" y1="96.193617" x2="1391.897288" y2="110.053617" stroke="black" stroke-width="5.94"/>
<line x1="1391.897288" y1="110.053617" x2="1357.524488" y2="110.053617" stroke="black" stroke-width="5.94"/>
<line x1="1357.524488" y1="110.053617" x2="1357.524488" y2="96.748017" stroke="black" stroke-width="5.94"/>
<circle cx="1322.042888" cy="199.312017" r="8.315999999999999" fill="none" stroke="black" stroke-width="5.94"/>
<line x1="2132.353123" y1="870.65414" x2="1956.673122" y2="870.65414" stroke="black" stroke-width="5.94"/>
<line x1="1956.673122" y1="870.65414" x2="1956.673122" y2="694.614142" stroke="black" stroke-width="5.94"/>
<line x1="1956.673122" y1="694.614142" x2="2132.353123" y2="694.614142" stroke="black" stroke-width="5.94"/>
<line x1="2132.353123" y1="694.614142" x2="2132.353123" y2="870.65414" stroke="black" stroke-width="5.94"/>
<line x1="2132.713123" y1="871.014141" x2="1956.673122" y2="694.614142" stroke="black" stroke-width="5.94"/>
<line x1="2132.353123" y1="694.974142" x2="1957.033122" y2="870.65414" stroke="black" stroke-width="5.94"/>
<line x1="287.112415" y1="1323.40225" x2="97.032415" y2="1323.40225" stroke="black" stroke-width="5.94"/>
<line x1="97.032415" y1="1323.40225" x2="97.032415" y2="1787.19745" stroke="black" stroke-width="5.94"/>
<line x1="97.032415" y1="1787.19745" x2="287.112415" y2="1787.19745" stroke="black" stroke-width="5.94"/>
<line x1="287.112415" y1="1787.19745" x2="287.112415" y2="1763.43745" stroke="black" stroke-width="5.94"/>
<line x1="287.112415" y1="1763.43745" x2="119.842015" y2="1763.43745" stroke="black" stroke-width="5.94"/>
<line x1="119.842015" y1="1763.43745" x2="119.842015" y2="1348.11265" stroke="black" stroke-width="5.94"/>
<line x1="119.842015" y1="1348.11265" x2="287.112415" y2="1348.11265" stroke="black" stroke-width="5.94"/>
<line x1="287.112415" y1="1348.11265" x2="287.112415" y2="1323.40225" stroke="black" stroke-width="5.94"/>
<line x1="281.410015" y1="1348.11265" x2="281.410015" y2="1763.43745" stroke="black" stroke-width="5.94"/>
<line x1="282.360415" y1="1555.29985" x2="120.792415" y2="1555.29985" stroke="black" stroke-width="5.94"/>
</g>
</svg>
