<?xml version="1.0"?>
<svg xmlns:xlink="http://www.w3.org/1999/xlink" width="2217.6" height="2475.0">
<image x="0" y="0" width="2217.6" height="2475.0" xlink:href="groundfilled-03.png"/>
<g style="stroke-linecap:round">
<line x1="406.224525" y1="2409.977084" x2="139.03062" y2="2409.977084" stroke="black" stroke-width="5.94"/>
<line x1="139.03062" y1="2409.977084" x2="139.03062" y2="2451.167218" stroke="black" stroke-width="5.94"/>
<line x1="139.03062" y1="2451.167218" x2="406.224525" y2="2451.167218" stroke="black" stroke-width="5.94"/>
<line x1="406.224525" y1="2451.167218" x2="406.224525" y2="2409.977084" stroke="black" stroke-width="5.94"/>
<line x1="381.293652" y1="2450.625243" x2="381.293652" y2="2410.519059" stroke="black" stroke-width="5.94"/>
<line x1="164.503466" y1="2450.625243" x2="164.503466" y2="2408.893133" stroke="black" stroke-width="5.94"/>
<line x1="381.835628" y1="2431.6561" x2="165.045441" y2="2431.6561" stroke="black" stroke-width="5.94"/>
<line x1="884.3241" y1="2409.019081" x2="615.869846" y2="2409.019081" stroke="black" stroke-width="5.94"/>
<line x1="615.869846" y1="2409.019081" x2="615.869846" y2="2450.403509" stroke="black" stroke-width="5.94"/>
<line x1="615.869846" y1="2450.403509" x2="884.3241" y2="2450.403509" stroke="black" stroke-width="5.94"/>
<line x1="884.3241" y1="2450.403509" x2="884.3241" y2="2409.019081" stroke="black" stroke-width="5.94"/>
<line x1="859.275631" y1="2449.858976" x2="859.275631" y2="2409.563614" stroke="black" stroke-width="5.94"/>
<line x1="641.462847" y1="2449.858976" x2="641.462847" y2="2407.930018" stroke="black" stroke-width="5.94"/>
<line x1="859.820161" y1="2430.800361" x2="642.00738" y2="2430.800361" stroke="black" stroke-width="5.94"/>
<line x1="1419.598145" y1="2409.843648" x2="1151.774062" y2="2409.843648" stroke="black" stroke-width="5.94"/>
<line x1="1151.774062" y1="2409.843648" x2="1151.774062" y2="2451.130932" stroke="black" stroke-width="5.94"/>
<line x1="1151.774062" y1="2451.130932" x2="1419.598145" y2="2451.130932" stroke="black" stroke-width="5.94"/>
<line x1="1419.598145" y1="2451.130932" x2="1419.598145" y2="2409.843648" stroke="black" stroke-width="5.94"/>
<line x1="1394.608472" y1="2450.587676" x2="1394.608472" y2="2410.386901" stroke="black" stroke-width="5.94"/>
<line x1="1177.306987" y1="2450.587676" x2="1177.306987" y2="2408.75714" stroke="black" stroke-width="5.94"/>
<line x1="1395.151725" y1="2431.573798" x2="1177.850243" y2="2431.573798" stroke="black" stroke-width="5.94"/>
<line x1="91.206852" y1="1129.263003" x2="91.206852" y2="871.52171" stroke="black" stroke-width="5.94"/>
<line x1="91.206852" y1="871.52171" x2="51.473912" y2="871.52171" stroke="black" stroke-width="5.94"/>
<line x1="51.473912" y1="871.52171" x2="51.473912" y2="1129.263003" stroke="black" stroke-width="5.94"/>
<line x1="51.473912" y1="1129.263003" x2="91.206852" y2="1129.263003" stroke="black" stroke-width="5.94"/>
<line x1="51.996714" y1="1105.214118" x2="90.68405" y2="1105.214118" stroke="black" stroke-width="5.94"/>
<line x1="51.996714" y1="896.093395" x2="92.252454" y2="896.093395" stroke="black" stroke-width="5.94"/>
<line x1="70.294778" y1="1105.73692" x2="70.294778" y2="896.616197" stroke="black" stroke-width="5.94"/>
<line x1="1129.568108" y1="1281.012226" x2="1129.568108" y2="1581.297967" stroke="black" stroke-width="5.94"/>
<line x1="1129.568108" y1="1581.297967" x2="1604.618222" y2="1581.297967" stroke="black" stroke-width="5.94"/>
<line x1="1604.618222" y1="1581.297967" x2="1604.618222" y2="1281.012226" stroke="black" stroke-width="5.94"/>
<line x1="1604.618222" y1="1281.012226" x2="1129.568108" y2="1281.012226" stroke="black" stroke-width="5.94"/>
<line x1="1519.649908" y1="1280.046676" x2="1519.649908" y2="1582.263517" stroke="black" stroke-width="5.94"/>
<line x1="1519.649908" y1="1582.263517" x2="1448.199281" y2="1281.977776" stroke="black" stroke-width="5.94"/>
<line x1="1448.199281" y1="1281.977776" x2="1381.5764" y2="1327.358578" stroke="black" stroke-width="5.94"/>
<line x1="1381.5764" y1="1327.358578" x2="1520.615458" y2="1582.263517" stroke="black" stroke-width="5.94"/>
<line x1="1789.821403" y1="84.339291" x2="2052.604089" y2="84.339291" stroke="black" stroke-width="5.94"/>
<line x1="2052.604089" y1="84.339291" x2="2052.604089" y2="43.829181" stroke="black" stroke-width="5.94"/>
<line x1="2052.604089" y1="43.829181" x2="1789.821403" y2="43.829181" stroke="black" stroke-width="5.94"/>
<line x1="1789.821403" y1="43.829181" x2="1789.821403" y2="84.339291" stroke="black" stroke-width="5.94"/>
<line x1="1814.34068" y1="44.36221" x2="1814.34068" y2="83.806265" stroke="black" stroke-width="5.94"/>
<line x1="2027.551786" y1="44.36221" x2="2027.551786" y2="85.405346" stroke="black" stroke-width="5.94"/>
<line x1="1813.807654" y1="63.018183" x2="2027.018756" y2="63.018183" stroke="black" stroke-width="5.94"/>
<line x1="447.031035" y1="107.318185" x2="597.613893" y2="107.318185" stroke="black" stroke-width="5.939997"/>
<line x1="597.613893" y1="107.318185" x2="597.613893" y2="258.209612" stroke="black" stroke-width="5.939997"/>
<line x1="597.613893" y1="258.209612" x2="447.031035" y2="258.209612" stroke="black" stroke-width="5.939997"/>
<line x1="447.031035" y1="258.209612" x2="447.031035" y2="107.318185" stroke="black" stroke-width="5.939997"/>
<line x1="446.722465" y1="107.009611" x2="597.613893" y2="258.209612" stroke="black" stroke-width="5.939997"/>
<line x1="447.031035" y1="257.901042" x2="597.30532" y2="107.318185" stroke="black" stroke-width="5.939997"/>
<line x1="1993.109666" y1="1491.164205" x2="1993.109666" y2="1097.920332" stroke="black" stroke-width="5.94"/>
<line x1="1992.113383" y1="1093.964926" x2="2128.18216" y2="1093.964926" stroke="black" stroke-width="5.94"/>
<line x1="2129.333666" y1="1490.699816" x2="2129.333666" y2="1093.659587" stroke="black" stroke-width="5.94"/>
<line x1="1993.804415" y1="1489.964926" x2="2129.068471" y2="1489.964926" stroke="black" stroke-width="5.94"/>
<line x1="2004.197666" y1="1479.668926" x2="2004.197666" y2="1356.116926" stroke="black" stroke-width="5.94"/>
<line x1="2004.197666" y1="1356.116926" x2="2118.245666" y2="1356.116926" stroke="black" stroke-width="5.94"/>
<line x1="2118.245666" y1="1479.668926" x2="2118.245666" y2="1356.116926" stroke="black" stroke-width="5.94"/>
<line x1="2004.197666" y1="1479.668926" x2="2118.245666" y2="1479.668926" stroke="black" stroke-width="5.94"/>
<line x1="2011.325666" y1="1337.108926" x2="2011.325666" y2="1249.988926" stroke="black" stroke-width="5.94"/>
<line x1="2031.125666" y1="1337.108926" x2="2031.125666" y2="1249.988926" stroke="black" stroke-width="5.94"/>
<line x1="2051.717666" y1="1336.316926" x2="2051.717666" y2="1249.988926" stroke="black" stroke-width="5.94"/>
<line x1="2071.517666" y1="1336.316926" x2="2071.517666" y2="1249.988926" stroke="black" stroke-width="5.94"/>
<line x1="2091.317666" y1="1337.108926" x2="2091.317666" y2="1249.988926" stroke="black" stroke-width="5.94"/>
<line x1="2111.117666" y1="1337.108926" x2="2111.117666" y2="1249.988926" stroke="black" stroke-width="5.94"/>
<line x1="2117.453666" y1="1432.148926" x2="2103.989666" y2="1432.148926" stroke="black" stroke-width="5.94"/>
<line x1="2103.989666" y1="1432.148926" x2="2103.989666" y2="1402.052926" stroke="black" stroke-width="5.94"/>
<line x1="2103.989666" y1="1402.052926" x2="2116.661666" y2="1402.052926" stroke="black" stroke-width="5.94"/>
<line x1="2004.197666" y1="1229.396926" x2="2004.197666" y2="1105.844926" stroke="black" stroke-width="5.94"/>
<line x1="2004.197666" y1="1105.844926" x2="2118.245666" y2="1105.844926" stroke="black" stroke-width="5.94"/>
<line x1="2118.245666" y1="1229.396926" x2="2118.245666" y2="1105.844926" stroke="black" stroke-width="5.94"/>
<line x1="2004.197666" y1="1229.396926" x2="2118.245666" y2="1229.396926" stroke="black" stroke-width="5.94"/>
<line x1="2118.245666" y1="1181.876926" x2="2104.781666" y2="1181.876926" stroke="black" stroke-width="5.94"/>
<line x1="2104.781666" y1="1181.876926" x2="2104.781666" y2="1151.780926" stroke="black" stroke-width="5.94"/>
<line x1="2104.781666" y1="1151.780926" x2="2117.453666" y2="1151.780926" stroke="black" stroke-width="5.94"/>
<circle cx="2018.453666" cy="1370.372926" r="7.128" fill="none" stroke="black" stroke-width="5.94"/>
<circle cx="2019.245666" cy="1120.100926" r="7.128" fill="none" stroke="black" stroke-width="5.94"/>
<line x1="1454.096615" y1="1247.851054" x2="1454.096615" y2="1097.268196" stroke="black" stroke-width="5.939997"/>
<line x1="1454.096615" y1="1097.268196" x2="1604.988043" y2="1097.268196" stroke="black" stroke-width="5.939997"/>
<line x1="1604.988043" y1="1097.268196" x2="1604.988043" y2="1247.851054" stroke="black" stroke-width="5.939997"/>
<line x1="1604.988043" y1="1247.851054" x2="1454.096615" y2="1247.851054" stroke="black" stroke-width="5.939997"/>
<line x1="1453.788042" y1="1248.159624" x2="1604.988043" y2="1097.268196" stroke="black" stroke-width="5.939997"/>
<line x1="1604.679473" y1="1247.851054" x2="1454.096615" y2="1097.576769" stroke="black" stroke-width="5.939997"/>
<line x1="306.540772" y1="2282.589266" x2="218.109979" y2="2218.340536" stroke="black" stroke-width="5.939997"/>
<line x1="218.109979" y1="2218.340536" x2="282.490369" y2="2129.728537" stroke="black" stroke-width="5.939997"/>
<line x1="282.490369" y1="2129.728537" x2="370.921158" y2="2193.977267" stroke="black" stroke-width="5.939997"/>
<line x1="370.921158" y1="2193.977267" x2="306.540772" y2="2282.589266" stroke="black" stroke-width="5.939997"/>
<line x1="306.590325" y1="2282.902136" x2="282.490369" y2="2129.728537" stroke="black" stroke-width="5.939997"/>
<line x1="370.789502" y1="2194.158476" x2="218.291192" y2="2218.472197" stroke="black" stroke-width="5.939997"/>
<line x1="118.083207" y1="524.814569" x2="280.575101" y2="656.397915" stroke="black" stroke-width="5.94"/>
<line x1="280.575101" y1="656.397915" x2="426.512991" y2="476.179628" stroke="black" stroke-width="5.94"/>
<line x1="426.512991" y1="476.179628" x2="264.021094" y2="344.596286" stroke="black" stroke-width="5.94"/>
<line x1="264.021094" y1="344.596286" x2="118.083207" y2="524.814569" stroke="black" stroke-width="5.94"/>
<line x1="138.418814" y1="499.702186" x2="300.910708" y2="631.285525" stroke="black" stroke-width="5.94"/>
<line x1="685.064902" y1="654.76889" x2="882.761491" y2="586.696493" stroke="black" stroke-width="5.94"/>
<line x1="882.761491" y1="586.696493" x2="807.263018" y2="367.433002" stroke="black" stroke-width="5.94"/>
<line x1="807.263018" y1="367.433002" x2="609.56643" y2="435.505399" stroke="black" stroke-width="5.94"/>
<line x1="609.56643" y1="435.505399" x2="685.064902" y2="654.76889" stroke="black" stroke-width="5.94"/>
<line x1="674.544625" y1="624.215777" x2="872.241213" y2="556.143387" stroke="black" stroke-width="5.94"/>
<line x1="1173.976125" y1="700.920125" x2="1144.599892" y2="710.465045" stroke="black" stroke-width="5.94"/>
<line x1="1144.599892" y1="710.465045" x2="1209.358481" y2="909.771489" stroke="black" stroke-width="5.94"/>
<line x1="1209.358481" y1="909.771489" x2="1238.734715" y2="900.226572" stroke="black" stroke-width="5.94"/>
<line x1="1238.734715" y1="900.226572" x2="1173.976125" y2="700.920125" stroke="black" stroke-width="5.94"/>
<line x1="980.092981" y1="763.916578" x2="950.716747" y2="773.461491" stroke="black" stroke-width="5.94"/>
<line x1="950.716747" y1="773.461491" x2="1015.47534" y2="972.767941" stroke="black" stroke-width="5.94"/>
<line x1="1015.47534" y1="972.767941" x2="1044.851574" y2="963.223024" stroke="black" stroke-width="5.94"/>
<line x1="1044.851574" y1="963.223024" x2="980.092981" y2="763.916578" stroke="black" stroke-width="5.94"/>
<line x1="1145.051833" y1="710.318195" x2="980.092981" y2="763.916578" stroke="black" stroke-width="5.94"/>
<line x1="1209.968678" y1="908.573916" x2="1192.736388" y2="941.654043" stroke="black" stroke-width="5.94"/>
<line x1="1077.491164" y1="979.099486" x2="1044.105942" y2="962.465985" stroke="black" stroke-width="5.94"/>
<line x1="1194.544157" y1="941.066663" x2="1075.683398" y2="979.686863" stroke="black" stroke-width="5.94"/>
<line x1="1158.40331" y1="752.947595" x2="993.444457" y2="806.545974" stroke="black" stroke-width="5.94"/>
<line x1="91.338093" y1="1533.406083" x2="91.338093" y2="1275.66479" stroke="black" stroke-width="5.94"/>
<line x1="91.338093" y1="1275.66479" x2="51.605152" y2="1275.66479" stroke="black" stroke-width="5.94"/>
<line x1="51.605152" y1="1275.66479" x2="51.605152" y2="1533.406083" stroke="black" stroke-width="5.94"/>
<line x1="51.605152" y1="1533.406083" x2="91.338093" y2="1533.406083" stroke="black" stroke-width="5.94"/>
<line x1="52.127955" y1="1509.357198" x2="90.81529" y2="1509.357198" stroke="black" stroke-width="5.94"/>
<line x1="52.127955" y1="1300.236475" x2="92.383695" y2="1300.236475" stroke="black" stroke-width="5.94"/>
<line x1="70.426019" y1="1509.88" x2="70.426019" y2="1300.759277" stroke="black" stroke-width="5.94"/>
<line x1="1367.452241" y1="690.245025" x2="1387.358244" y2="690.245025" stroke="black" stroke-width="5.94"/>
<line x1="1387.358244" y1="690.245025" x2="1387.358244" y2="651.404044" stroke="black" stroke-width="5.94"/>
<line x1="1387.358244" y1="651.404044" x2="1367.452241" y2="651.404044" stroke="black" stroke-width="5.94"/>
<line x1="1367.452241" y1="651.404044" x2="1367.452241" y2="690.245025" stroke="black" stroke-width="5.94"/>
<line x1="1582.048647" y1="651.404044" x2="1582.048647" y2="457.684666" stroke="black" stroke-width="5.94"/>
<line x1="1582.53416" y1="691.21605" x2="1602.440159" y2="691.21605" stroke="black" stroke-width="5.94"/>
<line x1="1602.440159" y1="691.21605" x2="1602.440159" y2="652.37507" stroke="black" stroke-width="5.94"/>
<line x1="1602.440159" y1="652.37507" x2="1582.53416" y2="652.37507" stroke="black" stroke-width="5.94"/>
<line x1="1582.53416" y1="652.37507" x2="1582.53416" y2="691.21605" stroke="black" stroke-width="5.94"/>
<path d="m 1387.358244,652.860582 a 194.69040350000003,194.69040350000003 0 0 1 194.69040300000006,-194.690404" fill="none" stroke="black" stroke-width="5.94"/>
<line x1="1610.875276" y1="691.58629" x2="1610.875276" y2="713.561429" stroke="black" stroke-width="5.94"/>
<line x1="1610.875276" y1="713.561429" x2="1653.753595" y2="713.561429" stroke="black" stroke-width="5.94"/>
<line x1="1653.753595" y1="713.561429" x2="1653.753595" y2="691.58629" stroke="black" stroke-width="5.94"/>
<line x1="1653.753595" y1="691.58629" x2="1610.875276" y2="691.58629" stroke="black" stroke-width="5.94"/>
<line x1="1653.753595" y1="928.488997" x2="1867.609207" y2="928.488997" stroke="black" stroke-width="5.94"/>
<line x1="1609.80332" y1="929.024976" x2="1609.80332" y2="951.000115" stroke="black" stroke-width="5.94"/>
<line x1="1609.80332" y1="951.000115" x2="1652.681636" y2="951.000115" stroke="black" stroke-width="5.94"/>
<line x1="1652.681636" y1="951.000115" x2="1652.681636" y2="929.024976" stroke="black" stroke-width="5.94"/>
<line x1="1652.681636" y1="929.024976" x2="1609.80332" y2="929.024976" stroke="black" stroke-width="5.94"/>
<path d="m 1652.145657,713.561429 a 214.9275695,214.9275695 0 0 1 214.92757099999994,214.92756800000006" fill="none" stroke="black" stroke-width="5.94"/>
<line x1="2135.974526" y1="732.297968" x2="2135.974526" y2="990.03926" stroke="black" stroke-width="5.94"/>
<line x1="2135.974526" y1="990.03926" x2="2175.707467" y2="990.03926" stroke="black" stroke-width="5.94"/>
<line x1="2175.707467" y1="990.03926" x2="2175.707467" y2="732.297968" stroke="black" stroke-width="5.94"/>
<line x1="2175.707467" y1="732.297968" x2="2135.974526" y2="732.297968" stroke="black" stroke-width="5.94"/>
<line x1="2175.184664" y1="756.346853" x2="2136.497329" y2="756.346853" stroke="black" stroke-width="5.94"/>
<line x1="2175.184664" y1="965.467576" x2="2134.928925" y2="965.467576" stroke="black" stroke-width="5.94"/>
<line x1="2156.8866" y1="755.82405" x2="2156.8866" y2="964.944773" stroke="black" stroke-width="5.94"/>
<line x1="2133.707354" y1="357.259069" x2="2133.707354" y2="615.000362" stroke="black" stroke-width="5.94"/>
<line x1="2133.707354" y1="615.000362" x2="2173.440294" y2="615.000362" stroke="black" stroke-width="5.94"/>
<line x1="2173.440294" y1="615.000362" x2="2173.440294" y2="357.259069" stroke="black" stroke-width="5.94"/>
<line x1="2173.440294" y1="357.259069" x2="2133.707354" y2="357.259069" stroke="black" stroke-width="5.94"/>
<line x1="2172.917492" y1="381.307954" x2="2134.230156" y2="381.307954" stroke="black" stroke-width="5.94"/>
<line x1="2172.917492" y1="590.428677" x2="2132.661752" y2="590.428677" stroke="black" stroke-width="5.94"/>
<line x1="2154.619427" y1="380.785152" x2="2154.619427" y2="589.905875" stroke="black" stroke-width="5.94"/>
<line x1="820.065622" y1="948.639367" x2="801.863047" y2="948.639367" stroke="black" stroke-width="5.94"/>
<line x1="801.863047" y1="948.639367" x2="801.863047" y2="657.398148" stroke="black" stroke-width="5.94"/>
<line x1="820.065622" y1="657.398148" x2="801.863047" y2="657.398148" stroke="black" stroke-width="5.94"/>
<line x1="820.065622" y1="948.639367" x2="820.065622" y2="657.398148" stroke="black" stroke-width="5.94"/>
<line x1="256.999264" y1="948.639367" x2="237.583183" y2="948.639367" stroke="black" stroke-width="5.94"/>
<line x1="237.583183" y1="948.639367" x2="237.583183" y2="657.398148" stroke="black" stroke-width="5.94"/>
<line x1="256.999264" y1="657.398148" x2="237.583183" y2="657.398148" stroke="black" stroke-width="5.94"/>
<line x1="256.999264" y1="948.639367" x2="256.999264" y2="657.398148" stroke="black" stroke-width="5.94"/>
<path d="m 820.065622,948.639367 a 291.241219,291.241219 0 0 1 -291.241219,-291.241219" fill="none" stroke="black" stroke-width="5.94"/>
<path d="m 528.824403,657.398148 a 291.2412195,291.2412195 0 0 1 -291.24122,291.241219" fill="none" stroke="black" stroke-width="5.94"/>
<line x1="925.450099" y1="436.518139" x2="925.450099" y2="178.776847" stroke="black" stroke-width="5.94"/>
<line x1="925.450099" y1="178.776847" x2="885.717159" y2="178.776847" stroke="black" stroke-width="5.94"/>
<line x1="885.717159" y1="178.776847" x2="885.717159" y2="436.518139" stroke="black" stroke-width="5.94"/>
<line x1="885.717159" y1="436.518139" x2="925.450099" y2="436.518139" stroke="black" stroke-width="5.94"/>
<line x1="886.239961" y1="412.469254" x2="924.927297" y2="412.469254" stroke="black" stroke-width="5.94"/>
<line x1="886.239961" y1="203.348531" x2="926.495701" y2="203.348531" stroke="black" stroke-width="5.94"/>
<line x1="904.538026" y1="412.992056" x2="904.538026" y2="203.871334" stroke="black" stroke-width="5.94"/>
<line x1="2123.989933" y1="236.163048" x2="2128.025552" y2="202.496894" stroke="black" stroke-width="5.94"/>
<line x1="2128.025552" y1="202.496894" x2="2011.402816" y2="89.875632" stroke="black" stroke-width="5.94"/>
<line x1="2011.402816" y1="89.875632" x2="1974.859804" y2="97.602496" stroke="black" stroke-width="5.94"/>
<line x1="2104.628107" y1="221.70657" x2="1991.453894" y2="112.415503" stroke="black" stroke-width="5.94"/>
<circle cx="2033.114266" cy="185.968741" r="14.38202781392063" fill="none" stroke="black" stroke-width="5.94"/>
<path d="m 2103.908634,219.990774 a 82.3697961942439,82.3697961942439 0 1 1 -110.8318589999999,-106.41396799999998" fill="none" stroke="black" stroke-width="5.94"/>
<path d="m 2124.455837,235.607236 a 105.03238518764651,105.03238518764651 0 1 1 -148.38812400000006,-138.592216" fill="none" stroke="black" stroke-width="5.94"/>
<line x1="1179.81666" y1="653.541395" x2="1179.81666" y2="87.848062" stroke="black" stroke-width="5.94"/>
<line x1="1179.81666" y1="87.848062" x2="927.888456" y2="87.848062" stroke="black" stroke-width="5.94"/>
<line x1="927.888456" y1="87.848062" x2="927.888456" y2="653.541395" stroke="black" stroke-width="5.94"/>
<line x1="927.888456" y1="653.541395" x2="1179.81666" y2="653.541395" stroke="black" stroke-width="5.94"/>
<line x1="966.822816" y1="196.635242" x2="966.822816" y2="607.736266" stroke="black" stroke-width="5.94"/>
<line x1="966.822816" y1="607.736266" x2="1137.446917" y2="607.736266" stroke="black" stroke-width="5.94"/>
<line x1="1137.446917" y1="607.736266" x2="1137.446917" y2="188.619344" stroke="black" stroke-width="5.94"/>
<path d="m 966.453507,197.807224 a 91.61025471866458,91.61025471866458 0 0 1 172.59963600000015,-6.208289999999977" fill="none" stroke="black" stroke-width="5.94"/>
<line x1="2082.505544" y1="663.30395" x2="2082.505544" y2="479.55995" stroke="black" stroke-width="5.94"/>
<line x1="2082.505544" y1="479.55995" x2="2131.609544" y2="479.55995" stroke="black" stroke-width="5.94"/>
<line x1="2131.609544" y1="663.30395" x2="2131.609544" y2="479.55995" stroke="black" stroke-width="5.94"/>
<line x1="2082.505544" y1="663.30395" x2="2131.609544" y2="663.30395" stroke="black" stroke-width="5.94"/>
<line x1="2054.785544" y1="621.72395" x2="2082.505544" y2="621.72395" stroke="black" stroke-width="5.94"/>
<line x1="2082.505544" y1="522.72395" x2="2053.201544" y2="522.72395" stroke="black" stroke-width="5.94"/>
<circle cx="2009.641544" cy="573.01595" r="66.52799999999999" fill="none" stroke="black" stroke-width="5.94"/>
<circle cx="2009.641544" cy="573.01595" r="57.024" fill="none" stroke="black" stroke-width="5.94"/>
<line x1="1578.175507" y1="225.210417" x2="1184.931634" y2="225.210417" stroke="black" stroke-width="5.94"/>
<line x1="1180.976227" y1="226.2067" x2="1180.976227" y2="90.137923" stroke="black" stroke-width="5.94"/>
<line x1="1577.711117" y1="88.986417" x2="1180.670888" y2="88.986417" stroke="black" stroke-width="5.94"/>
<line x1="1576.976227" y1="224.515668" x2="1576.976227" y2="89.251612" stroke="black" stroke-width="5.94"/>
<line x1="1566.680227" y1="214.122417" x2="1443.128227" y2="214.122417" stroke="black" stroke-width="5.94"/>
<line x1="1443.128227" y1="214.122417" x2="1443.128227" y2="100.074417" stroke="black" stroke-width="5.94"/>
<line x1="1566.680227" y1="100.074417" x2="1443.128227" y2="100.074417" stroke="black" stroke-width="5.94"/>
<line x1="1566.680227" y1="214.122417" x2="1566.680227" y2="100.074417" stroke="black" stroke-width="5.94"/>
<line x1="1424.120227" y1="206.994417" x2="1337.000227" y2="206.994417" stroke="black" stroke-width="5.94"/>
<line x1="1424.120227" y1="187.194417" x2="1337.000227" y2="187.194417" stroke="black" stroke-width="5.94"/>
<line x1="1423.328227" y1="166.602417" x2="1337.000227" y2="166.602417" stroke="black" stroke-width="5.94"/>
<line x1="1423.328227" y1="146.802417" x2="1337.000227" y2="146.802417" stroke="black" stroke-width="5.94"/>
<line x1="1424.120227" y1="127.002417" x2="1337.000227" y2="127.002417" stroke="black" stroke-width="5.94"/>
<line x1="1424.120227" y1="107.202417" x2="1337.000227" y2="107.202417" stroke="black" stroke-width="5.94"/>
<line x1="1519.160227" y1="100.866417" x2="1519.160227" y2="114.330417" stroke="black" stroke-width="5.94"/>
<line x1="1519.160227" y1="114.330417" x2="1489.064227" y2="114.330417" stroke="black" stroke-width="5.94"/>
<line x1="1489.064227" y1="114.330417" x2="1489.064227" y2="101.658417" stroke="black" stroke-width="5.94"/>
<line x1="1316.408227" y1="214.122417" x2="1192.856227" y2="214.122417" stroke="black" stroke-width="5.94"/>
<line x1="1192.856227" y1="214.122417" x2="1192.856227" y2="100.074417" stroke="black" stroke-width="5.94"/>
<line x1="1316.408227" y1="100.074417" x2="1192.856227" y2="100.074417" stroke="black" stroke-width="5.94"/>
<line x1="1316.408227" y1="214.122417" x2="1316.408227" y2="100.074417" stroke="black" stroke-width="5.94"/>
<line x1="1268.888227" y1="100.074417" x2="1268.888227" y2="113.538417" stroke="black" stroke-width="5.94"/>
<line x1="1268.888227" y1="113.538417" x2="1238.792227" y2="113.538417" stroke="black" stroke-width="5.94"/>
<line x1="1238.792227" y1="113.538417" x2="1238.792227" y2="100.866417" stroke="black" stroke-width="5.94"/>
<circle cx="1457.384227" cy="199.866417" r="7.128" fill="none" stroke="black" stroke-width="5.94"/>
<circle cx="1207.112227" cy="199.074417" r="7.128" fill="none" stroke="black" stroke-width="5.94"/>
<line x1="2132.353123" y1="870.65414" x2="1956.673122" y2="870.65414" stroke="black" stroke-width="5.94"/>
<line x1="1956.673122" y1="870.65414" x2="1956.673122" y2="694.614142" stroke="black" stroke-width="5.94"/>
<line x1="1956.673122" y1="694.614142" x2="2132.353123" y2="694.614142" stroke="black" stroke-width="5.94"/>
<line x1="2132.353123" y1="694.614142" x2="2132.353123" y2="870.65414" stroke="black" stroke-width="5.94"/>
<line x1="2132.713123" y1="871.014141" x2="1956.673122" y2="694.614142" stroke="black" stroke-width="5.94"/>
<line x1="2132.353123" y1="694.974142" x2="1957.033122" y2="870.65414" stroke="black" stroke-width="5.94"/>
<line x1="287.112415" y1="1483.587316" x2="97.032415" y2="1483.587316" stroke="black" stroke-width="5.94"/>
<line x1="97.032415" y1="1483.587316" x2="97.032415" y2="1947.382516" stroke="black" stroke-width="5.94"/>
<line x1="97.032415" y1="1947.382516" x2="287.112415" y2="1947.382516" stroke="black" stroke-width="5.94"/>
<line x1="287.112415" y1="1947.382516" x2="287.112415" y2="1923.622516" stroke="black" stroke-width="5.94"/>
<line x1="287.112415" y1="1923.622516" x2="119.842015" y2="1923.622516" stroke="black" stroke-width="5.94"/>
<line x1="119.842015" y1="1923.622516" x2="119.842015" y2="1508.297716" stroke="black" stroke-width="5.94"/>
<line x1="119.842015" y1="1508.297716" x2="287.112415" y2="1508.297716" stroke="black" stroke-width="5.94"/>
<line x1="287.112415" y1="1508.297716" x2="287.112415" y2="1483.587316" stroke="black" stroke-width="5.94"/>
<line x1="281.410015" y1="1508.297716" x2="281.410015" y2="1923.622516" stroke="black" stroke-width="5.94"/>
<line x1="282.360415" y1="1715.484916" x2="120.792415" y2="1715.484916" stroke="black" stroke-width="5.94"/>
</g>
</svg>
