<?xml version="1.0"?>
<svg xmlns:xlink="http://www.w3.org/1999/xlink" width="2217.6" height="2475.0">
<image x="0" y="0" width="2217.6" height="2475.0" xlink:href="groundfilled-03.png"/>
<g style="stroke-linecap:round">
<line x1="406.224525" y1="2409.977084" x2="139.03062" y2="2409.977084" stroke="black" stroke-width="5.94"/>
<line x1="139.03062" y1="2409.977084" x2="139.03062" y2="2451.167218" stroke="black" stroke-width="5.94"/>
<line x1="139.03062" y1="2451.167218" x2="406.224525" y2="2451.167218" stroke="black" stroke-width="5.94"/>
<line x1="406.224525" y1="2451.167218" x2="406.224525" y2="2409.977084" stroke="black" stroke-width="5.94"/>
<line x1="381.293652" y1="2450.625243" x2="381.293652" y2="2410.519059" stroke="black" stroke-width="5.94"/>
<line x1="164.503466" y1="2450.625243" x2="164.503466" y2="2408.893133" stroke="black" stroke-width="5.94"/>
<line x1="381.835628" y1="2431.6561" x2="165.045441" y2="2431.6561" stroke="black" stroke-width="5.94"/>
<line x1="884.3241" y1="2409.019081" x2="615.869846" y2="2409.019081" stroke="black" stroke-width="5.94"/>
<line x1="615.869846" y1="2409.019081" x2="615.869846" y2="2450.403509" stroke="black" stroke-width="5.94"/>
<line x1="615.869846" y1="2450.403509" x2="884.3241" y2="2450.403509" stroke="black" stroke-width="5.94"/>
<line x1="884.3241" y1="2450.403509" x2="884.3241" y2="2409.019081" stroke="black" stroke-width="5.94"/>
<line x1="859.275631" y1="2449.858976" x2="859.275631" y2="2409.563614" stroke="black" stroke-width="5.94"/>
<line x1="641.462847" y1="2449.858976" x2="641.462847" y2="2407.930018" stroke="black" stroke-width="5.94"/>
<line x1="859.820161" y1="2430.800361" x2="642.00738" y2="2430.800361" stroke="black" stroke-width="5.94"/>
<line x1="1419.598145" y1="2409.843648" x2="1151.774062" y2="2409.843648" stroke="black" stroke-width="5.94"/>
<line x1="1151.774062" y1="2409.843648" x2="1151.774062" y2="2451.130932" stroke="black" stroke-width="5.94"/>
<line x1="1151.774062" y1="2451.130932" x2="1419.598145" y2="2451.130932" stroke="black" stroke-width="5.94"/>
<line x1="1419.598145" y1="2451.130932" x2="1419.598145" y2="2409.843648" stroke="black" stroke-width="5.94"/>
<line x1="1394.608472" y1="2450.587676" x2="1394.608472" y2="2410.386901" stroke="black" stroke-width="5.94"/>
<line x1="1177.306987" y1="2450.587676" x2="1177.306987" y2="2408.75714" stroke="black" stroke-width="5.94"/>
<line x1="1395.151725" y1="2431.573798" x2="1177.850243" y2="2431.573798" stroke="black" stroke-width="5.94"/>
<line x1="97.569744" y1="1129.251169" x2="97.569744" y2="871.533548" stroke="black" stroke-width="5.94"/>
<line x1="97.569744" y1="871.533548" x2="51.473908" y2="871.533548" stroke="black" stroke-width="5.94"/>
<line x1="51.473908" y1="871.533548" x2="51.473908" y2="1129.251169" stroke="black" stroke-width="5.94"/>
<line x1="51.473908" y1="1129.251169" x2="97.569744" y2="1129.251169" stroke="black" stroke-width="5.94"/>
<line x1="97.569744" y1="1117.203394" x2="113.284232" y2="1117.203394" stroke="black" stroke-width="5.94"/>
<line x1="113.284232" y1="1117.203394" x2="113.284232" y2="884.105138" stroke="black" stroke-width="5.94"/>
<line x1="97.569744" y1="884.105138" x2="113.284232" y2="884.105138" stroke="black" stroke-width="5.94"/>
<line x1="1129.568108" y1="1281.012226" x2="1129.568108" y2="1581.297967" stroke="black" stroke-width="5.94"/>
<line x1="1129.568108" y1="1581.297967" x2="1604.618222" y2="1581.297967" stroke="black" stroke-width="5.94"/>
<line x1="1604.618222" y1="1581.297967" x2="1604.618222" y2="1281.012226" stroke="black" stroke-width="5.94"/>
<line x1="1604.618222" y1="1281.012226" x2="1129.568108" y2="1281.012226" stroke="black" stroke-width="5.94"/>
<line x1="1519.649908" y1="1280.046676" x2="1519.649908" y2="1582.263517" stroke="black" stroke-width="5.94"/>
<line x1="1519.649908" y1="1582.263517" x2="1448.199281" y2="1281.977776" stroke="black" stroke-width="5.94"/>
<line x1="1448.199281" y1="1281.977776" x2="1381.5764" y2="1327.358578" stroke="black" stroke-width="5.94"/>
<line x1="1381.5764" y1="1327.358578" x2="1520.615458" y2="1582.263517" stroke="black" stroke-width="5.94"/>
<line x1="1789.821403" y1="84.339291" x2="2052.604089" y2="84.339291" stroke="black" stroke-width="5.94"/>
<line x1="2052.604089" y1="84.339291" x2="2052.604089" y2="43.829181" stroke="black" stroke-width="5.94"/>
<line x1="2052.604089" y1="43.829181" x2="1789.821403" y2="43.829181" stroke="black" stroke-width="5.94"/>
<line x1="1789.821403" y1="43.829181" x2="1789.821403" y2="84.339291" stroke="black" stroke-width="5.94"/>
<line x1="1814.34068" y1="44.36221" x2="1814.34068" y2="83.806265" stroke="black" stroke-width="5.94"/>
<line x1="2027.551786" y1="44.36221" x2="2027.551786" y2="85.405346" stroke="black" stroke-width="5.94"/>
<line x1="1813.807654" y1="63.018183" x2="2027.018756" y2="63.018183" stroke="black" stroke-width="5.94"/>
<line x1="431.0978" y1="107.377637" x2="581.680658" y2="107.377637" stroke="black" stroke-width="5.939997"/>
<line x1="581.680658" y1="107.377637" x2="581.680658" y2="258.269065" stroke="black" stroke-width="5.939997"/>
<line x1="581.680658" y1="258.269065" x2="431.0978" y2="258.269065" stroke="black" stroke-width="5.939997"/>
<line x1="431.0978" y1="258.269065" x2="431.0978" y2="107.377637" stroke="black" stroke-width="5.939997"/>
<line x1="430.78923" y1="107.069064" x2="581.680658" y2="258.269065" stroke="black" stroke-width="5.939997"/>
<line x1="431.0978" y1="257.960495" x2="581.372085" y2="107.377637" stroke="black" stroke-width="5.939997"/>
<line x1="1997.397824" y1="1431.344693" x2="1997.397824" y2="1160.797493" stroke="black" stroke-width="5.94"/>
<line x1="1997.397824" y1="1160.797493" x2="2129.345024" y2="1160.797493" stroke="black" stroke-width="5.94"/>
<line x1="2129.345024" y1="1431.344693" x2="2129.345024" y2="1160.797493" stroke="black" stroke-width="5.94"/>
<line x1="1997.397824" y1="1431.344693" x2="2129.345024" y2="1431.344693" stroke="black" stroke-width="5.94"/>
<line x1="2004.050624" y1="1424.691893" x2="2004.050624" y2="1286.646293" stroke="black" stroke-width="5.94"/>
<line x1="2004.050624" y1="1286.646293" x2="2122.137824" y2="1286.646293" stroke="black" stroke-width="5.94"/>
<line x1="2122.137824" y1="1424.691893" x2="2122.137824" y2="1286.646293" stroke="black" stroke-width="5.94"/>
<line x1="2004.050624" y1="1424.691893" x2="2122.137824" y2="1424.691893" stroke="black" stroke-width="5.94"/>
<line x1="2011.812224" y1="1272.231893" x2="2011.812224" y2="1175.211893" stroke="black" stroke-width="5.94"/>
<line x1="2032.325024" y1="1272.231893" x2="2032.325024" y2="1175.211893" stroke="black" stroke-width="5.94"/>
<line x1="2053.392224" y1="1271.677493" x2="2053.392224" y2="1174.657493" stroke="black" stroke-width="5.94"/>
<line x1="2073.905024" y1="1271.677493" x2="2073.905024" y2="1174.657493" stroke="black" stroke-width="5.94"/>
<line x1="2094.417824" y1="1272.231893" x2="2094.417824" y2="1175.211893" stroke="black" stroke-width="5.94"/>
<line x1="2114.930624" y1="1272.231893" x2="2114.930624" y2="1175.211893" stroke="black" stroke-width="5.94"/>
<line x1="2122.137824" y1="1372.023893" x2="2108.277824" y2="1372.023893" stroke="black" stroke-width="5.94"/>
<line x1="2108.277824" y1="1372.023893" x2="2108.277824" y2="1337.651093" stroke="black" stroke-width="5.94"/>
<line x1="2108.277824" y1="1337.651093" x2="2121.583424" y2="1337.651093" stroke="black" stroke-width="5.94"/>
<circle cx="2019.019424" cy="1302.169493" r="8.315999999999999" fill="none" stroke="black" stroke-width="5.94"/>
<line x1="1682.200519" y1="1760.883343" x2="2075.032519" y2="1760.883343" stroke="black" stroke-width="5.94"/>
<line x1="2075.032519" y1="1760.883343" x2="2075.032519" y2="1576.347343" stroke="black" stroke-width="5.94"/>
<line x1="2075.032519" y1="1576.347343" x2="1682.200519" y2="1576.347343" stroke="black" stroke-width="5.94"/>
<line x1="1682.200519" y1="1576.347343" x2="1682.200519" y2="1760.883343" stroke="black" stroke-width="5.94"/>
<line x1="1841.392519" y1="1576.347343" x2="1841.392519" y2="1495.563343" stroke="black" stroke-width="5.94"/>
<line x1="1841.392519" y1="1495.563343" x2="1762.984519" y2="1495.563343" stroke="black" stroke-width="5.94"/>
<line x1="1762.984519" y1="1495.563343" x2="1762.984519" y2="1576.347343" stroke="black" stroke-width="5.94"/>
<line x1="1763.776519" y1="1512.987343" x2="1841.392519" y2="1512.987343" stroke="black" stroke-width="5.94"/>
<line x1="1762.984519" y1="1842.459343" x2="1841.392519" y2="1842.459343" stroke="black" stroke-width="5.94"/>
<line x1="1841.392519" y1="1842.459343" x2="1841.392519" y2="1760.883343" stroke="black" stroke-width="5.94"/>
<line x1="1762.984519" y1="1760.883343" x2="1762.984519" y2="1842.459343" stroke="black" stroke-width="5.94"/>
<line x1="1763.776519" y1="1825.035343" x2="1841.392519" y2="1825.035343" stroke="black" stroke-width="5.94"/>
<line x1="1992.664519" y1="1576.347343" x2="1992.664519" y2="1495.563343" stroke="black" stroke-width="5.94"/>
<line x1="1992.664519" y1="1495.563343" x2="1914.256519" y2="1495.563343" stroke="black" stroke-width="5.94"/>
<line x1="1914.256519" y1="1495.563343" x2="1914.256519" y2="1576.347343" stroke="black" stroke-width="5.94"/>
<line x1="1914.256519" y1="1512.987343" x2="1992.664519" y2="1512.987343" stroke="black" stroke-width="5.94"/>
<line x1="1914.256519" y1="1842.459343" x2="1992.664519" y2="1842.459343" stroke="black" stroke-width="5.94"/>
<line x1="1992.664519" y1="1842.459343" x2="1992.664519" y2="1760.883343" stroke="black" stroke-width="5.94"/>
<line x1="1914.256519" y1="1760.883343" x2="1914.256519" y2="1842.459343" stroke="black" stroke-width="5.94"/>
<line x1="1914.256519" y1="1825.035343" x2="1992.664519" y2="1825.035343" stroke="black" stroke-width="5.94"/>
<line x1="1451.697367" y1="1761.909692" x2="1451.697367" y2="1611.326835" stroke="black" stroke-width="5.939997"/>
<line x1="1451.697367" y1="1611.326835" x2="1602.588794" y2="1611.326835" stroke="black" stroke-width="5.939997"/>
<line x1="1602.588794" y1="1611.326835" x2="1602.588794" y2="1761.909692" stroke="black" stroke-width="5.939997"/>
<line x1="1602.588794" y1="1761.909692" x2="1451.697367" y2="1761.909692" stroke="black" stroke-width="5.939997"/>
<line x1="1451.388794" y1="1762.218262" x2="1602.588794" y2="1611.326835" stroke="black" stroke-width="5.939997"/>
<line x1="1602.280225" y1="1761.909692" x2="1451.697367" y2="1611.635408" stroke="black" stroke-width="5.939997"/>
<line x1="1153.30813" y1="700.920129" x2="956.82968" y2="772.432436" stroke="black" stroke-width="5.94"/>
<line x1="956.82968" y1="772.432436" x2="1036.143332" y2="990.344899" stroke="black" stroke-width="5.94"/>
<line x1="1036.143332" y1="990.344899" x2="1232.621782" y2="918.832593" stroke="black" stroke-width="5.94"/>
<line x1="1232.621782" y1="918.832593" x2="1153.30813" y2="700.920129" stroke="black" stroke-width="5.94"/>
<line x1="1164.360034" y1="731.28498" x2="967.881578" y2="802.797286" stroke="black" stroke-width="5.94"/>
<line x1="1454.096615" y1="1247.851054" x2="1454.096615" y2="1097.268196" stroke="black" stroke-width="5.939997"/>
<line x1="1454.096615" y1="1097.268196" x2="1604.988043" y2="1097.268196" stroke="black" stroke-width="5.939997"/>
<line x1="1604.988043" y1="1097.268196" x2="1604.988043" y2="1247.851054" stroke="black" stroke-width="5.939997"/>
<line x1="1604.988043" y1="1247.851054" x2="1454.096615" y2="1247.851054" stroke="black" stroke-width="5.939997"/>
<line x1="1453.788042" y1="1248.159624" x2="1604.988043" y2="1097.268196" stroke="black" stroke-width="5.939997"/>
<line x1="1604.679473" y1="1247.851054" x2="1454.096615" y2="1097.576769" stroke="black" stroke-width="5.939997"/>
<line x1="700.327412" y1="654.76889" x2="724.331896" y2="635.330441" stroke="black" stroke-width="5.94"/>
<line x1="724.331896" y1="635.330441" x2="592.449502" y2="472.469243" stroke="black" stroke-width="5.94"/>
<line x1="592.449502" y1="472.469243" x2="568.445018" y2="491.907692" stroke="black" stroke-width="5.94"/>
<line x1="568.445018" y1="491.907692" x2="700.327412" y2="654.76889" stroke="black" stroke-width="5.94"/>
<line x1="858.75701" y1="526.475129" x2="882.761491" y2="507.036681" stroke="black" stroke-width="5.94"/>
<line x1="882.761491" y1="507.036681" x2="750.879096" y2="344.17549" stroke="black" stroke-width="5.94"/>
<line x1="750.879096" y1="344.17549" x2="726.874616" y2="363.613935" stroke="black" stroke-width="5.94"/>
<line x1="726.874616" y1="363.613935" x2="858.75701" y2="526.475129" stroke="black" stroke-width="5.94"/>
<line x1="723.962596" y1="635.629493" x2="858.75701" y2="526.475129" stroke="black" stroke-width="5.94"/>
<line x1="592.309007" y1="473.805951" x2="596.541874" y2="436.747492" stroke="black" stroke-width="5.94"/>
<line x1="690.713318" y1="360.488967" x2="727.84202" y2="364.053482" stroke="black" stroke-width="5.94"/>
<line x1="595.064676" y1="437.943706" x2="692.190517" y2="359.292754" stroke="black" stroke-width="5.94"/>
<line x1="696.220909" y1="600.616262" x2="831.015319" y2="491.461898" stroke="black" stroke-width="5.94"/>
<line x1="118.08321" y1="581.467474" x2="313.283675" y2="656.397915" stroke="black" stroke-width="5.94"/>
<line x1="313.283675" y1="656.397915" x2="396.388344" y2="439.902854" stroke="black" stroke-width="5.94"/>
<line x1="396.388344" y1="439.902854" x2="201.187879" y2="364.97242" stroke="black" stroke-width="5.94"/>
<line x1="201.187879" y1="364.97242" x2="118.08321" y2="581.467474" stroke="black" stroke-width="5.94"/>
<line x1="129.663369" y1="551.300132" x2="324.863834" y2="626.230572" stroke="black" stroke-width="5.94"/>
<line x1="353.502369" y1="2299.758136" x2="241.92929" y2="2259.148855" stroke="black" stroke-width="5.94"/>
<line x1="241.92929" y1="2259.148855" x2="282.621784" y2="2147.347142" stroke="black" stroke-width="5.94"/>
<line x1="282.621784" y1="2147.347142" x2="394.194867" y2="2187.95642" stroke="black" stroke-width="5.94"/>
<line x1="394.194867" y1="2187.95642" x2="353.502369" y2="2299.758136" stroke="black" stroke-width="5.94"/>
<line x1="353.647787" y1="2300.069986" x2="282.621784" y2="2147.347142" stroke="black" stroke-width="5.94"/>
<line x1="394.111651" y1="2188.185054" x2="242.15792" y2="2259.232074" stroke="black" stroke-width="5.94"/>
<line x1="91.338093" y1="1533.406083" x2="91.338093" y2="1275.66479" stroke="black" stroke-width="5.94"/>
<line x1="91.338093" y1="1275.66479" x2="51.605152" y2="1275.66479" stroke="black" stroke-width="5.94"/>
<line x1="51.605152" y1="1275.66479" x2="51.605152" y2="1533.406083" stroke="black" stroke-width="5.94"/>
<line x1="51.605152" y1="1533.406083" x2="91.338093" y2="1533.406083" stroke="black" stroke-width="5.94"/>
<line x1="52.127955" y1="1509.357198" x2="90.81529" y2="1509.357198" stroke="black" stroke-width="5.94"/>
<line x1="52.127955" y1="1300.236475" x2="92.383695" y2="1300.236475" stroke="black" stroke-width="5.94"/>
<line x1="70.426019" y1="1509.88" x2="70.426019" y2="1300.759277" stroke="black" stroke-width="5.94"/>
<line x1="1367.452241" y1="690.245025" x2="1387.358244" y2="690.245025" stroke="black" stroke-width="5.94"/>
<line x1="1387.358244" y1="690.245025" x2="1387.358244" y2="651.404044" stroke="black" stroke-width="5.94"/>
<line x1="1387.358244" y1="651.404044" x2="1367.452241" y2="651.404044" stroke="black" stroke-width="5.94"/>
<line x1="1367.452241" y1="651.404044" x2="1367.452241" y2="690.245025" stroke="black" stroke-width="5.94"/>
<line x1="1582.048647" y1="651.404044" x2="1582.048647" y2="457.684666" stroke="black" stroke-width="5.94"/>
<line x1="1582.53416" y1="691.21605" x2="1602.440159" y2="691.21605" stroke="black" stroke-width="5.94"/>
<line x1="1602.440159" y1="691.21605" x2="1602.440159" y2="652.37507" stroke="black" stroke-width="5.94"/>
<line x1="1602.440159" y1="652.37507" x2="1582.53416" y2="652.37507" stroke="black" stroke-width="5.94"/>
<line x1="1582.53416" y1="652.37507" x2="1582.53416" y2="691.21605" stroke="black" stroke-width="5.94"/>
<path d="m 1387.358244,652.860582 a 194.69040350000003,194.69040350000003 0 0 1 194.69040300000006,-194.690404" fill="none" stroke="black" stroke-width="5.94"/>
<line x1="1610.875276" y1="691.58629" x2="1610.875276" y2="713.561429" stroke="black" stroke-width="5.94"/>
<line x1="1610.875276" y1="713.561429" x2="1653.753595" y2="713.561429" stroke="black" stroke-width="5.94"/>
<line x1="1653.753595" y1="713.561429" x2="1653.753595" y2="691.58629" stroke="black" stroke-width="5.94"/>
<line x1="1653.753595" y1="691.58629" x2="1610.875276" y2="691.58629" stroke="black" stroke-width="5.94"/>
<line x1="1653.753595" y1="928.488997" x2="1867.609207" y2="928.488997" stroke="black" stroke-width="5.94"/>
<line x1="1609.80332" y1="929.024976" x2="1609.80332" y2="951.000115" stroke="black" stroke-width="5.94"/>
<line x1="1609.80332" y1="951.000115" x2="1652.681636" y2="951.000115" stroke="black" stroke-width="5.94"/>
<line x1="1652.681636" y1="951.000115" x2="1652.681636" y2="929.024976" stroke="black" stroke-width="5.94"/>
<line x1="1652.681636" y1="929.024976" x2="1609.80332" y2="929.024976" stroke="black" stroke-width="5.94"/>
<path d="m 1652.145657,713.561429 a 214.9275695,214.9275695 0 0 1 214.92757099999994,214.92756800000006" fill="none" stroke="black" stroke-width="5.94"/>
<line x1="2135.974526" y1="732.297968" x2="2135.974526" y2="990.03926" stroke="black" stroke-width="5.94"/>
<line x1="2135.974526" y1="990.03926" x2="2175.707467" y2="990.03926" stroke="black" stroke-width="5.94"/>
<line x1="2175.707467" y1="990.03926" x2="2175.707467" y2="732.297968" stroke="black" stroke-width="5.94"/>
<line x1="2175.707467" y1="732.297968" x2="2135.974526" y2="732.297968" stroke="black" stroke-width="5.94"/>
<line x1="2175.184664" y1="756.346853" x2="2136.497329" y2="756.346853" stroke="black" stroke-width="5.94"/>
<line x1="2175.184664" y1="965.467576" x2="2134.928925" y2="965.467576" stroke="black" stroke-width="5.94"/>
<line x1="2156.8866" y1="755.82405" x2="2156.8866" y2="964.944773" stroke="black" stroke-width="5.94"/>
<line x1="2133.707354" y1="357.259069" x2="2133.707354" y2="615.000362" stroke="black" stroke-width="5.94"/>
<line x1="2133.707354" y1="615.000362" x2="2173.440294" y2="615.000362" stroke="black" stroke-width="5.94"/>
<line x1="2173.440294" y1="615.000362" x2="2173.440294" y2="357.259069" stroke="black" stroke-width="5.94"/>
<line x1="2173.440294" y1="357.259069" x2="2133.707354" y2="357.259069" stroke="black" stroke-width="5.94"/>
<line x1="2172.917492" y1="381.307954" x2="2134.230156" y2="381.307954" stroke="black" stroke-width="5.94"/>
<line x1="2172.917492" y1="590.428677" x2="2132.661752" y2="590.428677" stroke="black" stroke-width="5.94"/>
<line x1="2154.619427" y1="380.785152" x2="2154.619427" y2="589.905875" stroke="black" stroke-width="5.94"/>
<line x1="820.065622" y1="948.639367" x2="801.863047" y2="948.639367" stroke="black" stroke-width="5.94"/>
<line x1="801.863047" y1="948.639367" x2="801.863047" y2="657.398148" stroke="black" stroke-width="5.94"/>
<line x1="820.065622" y1="657.398148" x2="801.863047" y2="657.398148" stroke="black" stroke-width="5.94"/>
<line x1="820.065622" y1="948.639367" x2="820.065622" y2="657.398148" stroke="black" stroke-width="5.94"/>
<line x1="256.999264" y1="948.639367" x2="237.583183" y2="948.639367" stroke="black" stroke-width="5.94"/>
<line x1="237.583183" y1="948.639367" x2="237.583183" y2="657.398148" stroke="black" stroke-width="5.94"/>
<line x1="256.999264" y1="657.398148" x2="237.583183" y2="657.398148" stroke="black" stroke-width="5.94"/>
<line x1="256.999264" y1="948.639367" x2="256.999264" y2="657.398148" stroke="black" stroke-width="5.94"/>
<path d="m 820.065622,948.639367 a 291.241219,291.241219 0 0 1 -291.241219,-291.241219" fill="none" stroke="black" stroke-width="5.94"/>
<path d="m 528.824403,657.398148 a 291.2412195,291.2412195 0 0 1 -291.24122,291.241219" fill="none" stroke="black" stroke-width="5.94"/>
<line x1="925.450099" y1="436.518139" x2="925.450099" y2="178.776847" stroke="black" stroke-width="5.94"/>
<line x1="925.450099" y1="178.776847" x2="885.717159" y2="178.776847" stroke="black" stroke-width="5.94"/>
<line x1="885.717159" y1="178.776847" x2="885.717159" y2="436.518139" stroke="black" stroke-width="5.94"/>
<line x1="885.717159" y1="436.518139" x2="925.450099" y2="436.518139" stroke="black" stroke-width="5.94"/>
<line x1="886.239961" y1="412.469254" x2="924.927297" y2="412.469254" stroke="black" stroke-width="5.94"/>
<line x1="886.239961" y1="203.348531" x2="926.495701" y2="203.348531" stroke="black" stroke-width="5.94"/>
<line x1="904.538026" y1="412.992056" x2="904.538026" y2="203.871334" stroke="black" stroke-width="5.94"/>
<line x1="2123.989933" y1="236.163048" x2="2128.025552" y2="202.496894" stroke="black" stroke-width="5.94"/>
<line x1="2128.025552" y1="202.496894" x2="2011.402816" y2="89.875632" stroke="black" stroke-width="5.94"/>
<line x1="2011.402816" y1="89.875632" x2="1974.859804" y2="97.602496" stroke="black" stroke-width="5.94"/>
<line x1="2104.628107" y1="221.70657" x2="1991.453894" y2="112.415503" stroke="black" stroke-width="5.94"/>
<circle cx="2033.114266" cy="185.968741" r="14.38202781392063" fill="none" stroke="black" stroke-width="5.94"/>
<path d="m 2103.908634,219.990774 a 82.3697961942439,82.3697961942439 0 1 1 -110.8318589999999,-106.41396799999998" fill="none" stroke="black" stroke-width="5.94"/>
<path d="m 2124.455837,235.607236 a 105.03238518764651,105.03238518764651 0 1 1 -148.38812400000006,-138.592216" fill="none" stroke="black" stroke-width="5.94"/>
<line x1="927.888456" y1="87.848062" x2="927.888456" y2="653.541395" stroke="black" stroke-width="5.94"/>
<line x1="927.888456" y1="653.541395" x2="1179.81666" y2="653.541395" stroke="black" stroke-width="5.94"/>
<line x1="1179.81666" y1="653.541395" x2="1179.81666" y2="87.848062" stroke="black" stroke-width="5.94"/>
<line x1="1179.81666" y1="87.848062" x2="927.888456" y2="87.848062" stroke="black" stroke-width="5.94"/>
<line x1="1140.8823" y1="544.754216" x2="1140.8823" y2="133.653191" stroke="black" stroke-width="5.94"/>
<line x1="1140.8823" y1="133.653191" x2="970.258199" y2="133.653191" stroke="black" stroke-width="5.94"/>
<line x1="970.258199" y1="133.653191" x2="970.258199" y2="552.770114" stroke="black" stroke-width="5.94"/>
<path d="m 1141.251609,543.582234 a 91.61025505225562,91.61025505225562 0 0 1 -172.59963599999992,6.208290000000034" fill="none" stroke="black" stroke-width="5.94"/>
<line x1="2082.505544" y1="663.30395" x2="2082.505544" y2="479.55995" stroke="black" stroke-width="5.94"/>
<line x1="2082.505544" y1="479.55995" x2="2131.609544" y2="479.55995" stroke="black" stroke-width="5.94"/>
<line x1="2131.609544" y1="663.30395" x2="2131.609544" y2="479.55995" stroke="black" stroke-width="5.94"/>
<line x1="2082.505544" y1="663.30395" x2="2131.609544" y2="663.30395" stroke="black" stroke-width="5.94"/>
<line x1="2054.785544" y1="621.72395" x2="2082.505544" y2="621.72395" stroke="black" stroke-width="5.94"/>
<line x1="2082.505544" y1="522.72395" x2="2053.201544" y2="522.72395" stroke="black" stroke-width="5.94"/>
<circle cx="2009.641544" cy="573.01595" r="66.52799999999999" fill="none" stroke="black" stroke-width="5.94"/>
<circle cx="2009.641544" cy="573.01595" r="57.024" fill="none" stroke="black" stroke-width="5.94"/>
<line x1="1578.175507" y1="225.210417" x2="1184.931634" y2="225.210417" stroke="black" stroke-width="5.94"/>
<line x1="1180.976227" y1="226.2067" x2="1180.976227" y2="90.137923" stroke="black" stroke-width="5.94"/>
<line x1="1577.711117" y1="88.986417" x2="1180.670888" y2="88.986417" stroke="black" stroke-width="5.94"/>
<line x1="1576.976227" y1="224.515668" x2="1576.976227" y2="89.251612" stroke="black" stroke-width="5.94"/>
<line x1="1566.680227" y1="214.122417" x2="1443.128227" y2="214.122417" stroke="black" stroke-width="5.94"/>
<line x1="1443.128227" y1="214.122417" x2="1443.128227" y2="100.074417" stroke="black" stroke-width="5.94"/>
<line x1="1566.680227" y1="100.074417" x2="1443.128227" y2="100.074417" stroke="black" stroke-width="5.94"/>
<line x1="1566.680227" y1="214.122417" x2="1566.680227" y2="100.074417" stroke="black" stroke-width="5.94"/>
<line x1="1424.120227" y1="206.994417" x2="1337.000227" y2="206.994417" stroke="black" stroke-width="5.94"/>
<line x1="1424.120227" y1="187.194417" x2="1337.000227" y2="187.194417" stroke="black" stroke-width="5.94"/>
<line x1="1423.328227" y1="166.602417" x2="1337.000227" y2="166.602417" stroke="black" stroke-width="5.94"/>
<line x1="1423.328227" y1="146.802417" x2="1337.000227" y2="146.802417" stroke="black" stroke-width="5.94"/>
<line x1="1424.120227" y1="127.002417" x2="1337.000227" y2="127.002417" stroke="black" stroke-width="5.94"/>
<line x1="1424.120227" y1="107.202417" x2="1337.000227" y2="107.202417" stroke="black" stroke-width="5.94"/>
<line x1="1519.160227" y1="100.866417" x2="1519.160227" y2="114.330417" stroke="black" stroke-width="5.94"/>
<line x1="1519.160227" y1="114.330417" x2="1489.064227" y2="114.330417" stroke="black" stroke-width="5.94"/>
<line x1="1489.064227" y1="114.330417" x2="1489.064227" y2="101.658417" stroke="black" stroke-width="5.94"/>
<line x1="1316.408227" y1="214.122417" x2="1192.856227" y2="214.122417" stroke="black" stroke-width="5.94"/>
<line x1="1192.856227" y1="214.122417" x2="1192.856227" y2="100.074417" stroke="black" stroke-width="5.94"/>
<line x1="1316.408227" y1="100.074417" x2="1192.856227" y2="100.074417" stroke="black" stroke-width="5.94"/>
<line x1="1316.408227" y1="214.122417" x2="1316.408227" y2="100.074417" stroke="black" stroke-width="5.94"/>
<line x1="1268.888227" y1="100.074417" x2="1268.888227" y2="113.538417" stroke="black" stroke-width="5.94"/>
<line x1="1268.888227" y1="113.538417" x2="1238.792227" y2="113.538417" stroke="black" stroke-width="5.94"/>
<line x1="1238.792227" y1="113.538417" x2="1238.792227" y2="100.866417" stroke="black" stroke-width="5.94"/>
<circle cx="1457.384227" cy="199.866417" r="7.128" fill="none" stroke="black" stroke-width="5.94"/>
<circle cx="1207.112227" cy="199.074417" r="7.128" fill="none" stroke="black" stroke-width="5.94"/>
<line x1="2132.353123" y1="870.65414" x2="1956.673122" y2="870.65414" stroke="black" stroke-width="5.94"/>
<line x1="1956.673122" y1="870.65414" x2="1956.673122" y2="694.614142" stroke="black" stroke-width="5.94"/>
<line x1="1956.673122" y1="694.614142" x2="2132.353123" y2="694.614142" stroke="black" stroke-width="5.94"/>
<line x1="2132.353123" y1="694.614142" x2="2132.353123" y2="870.65414" stroke="black" stroke-width="5.94"/>
<line x1="2132.713123" y1="871.014141" x2="1956.673122" y2="694.614142" stroke="black" stroke-width="5.94"/>
<line x1="2132.353123" y1="694.974142" x2="1957.033122" y2="870.65414" stroke="black" stroke-width="5.94"/>
</g>
</svg>
