<?xml version="1.0"?>
<svg xmlns:xlink="http://www.w3.org/1999/xlink" width="2217.6" height="2475.0">
<image x="0" y="0" width="2217.6" height="2475.0" xlink:href="groundfilled-03.png"/>
<g style="stroke-linecap:round">
<line x1="406.212256" y1="2403.380829" x2="139.04289" y2="2403.380829" stroke="black" stroke-width="5.94"/>
<line x1="139.04289" y1="2403.380829" x2="139.04289" y2="2451.167218" stroke="black" stroke-width="5.94"/>
<line x1="139.04289" y1="2451.167218" x2="406.212256" y2="2451.167218" stroke="black" stroke-width="5.94"/>
<line x1="406.212256" y1="2451.167218" x2="406.212256" y2="2403.380829" stroke="black" stroke-width="5.94"/>
<line x1="393.72263" y1="2403.380829" x2="393.72263" y2="2387.090013" stroke="black" stroke-width="5.94"/>
<line x1="393.72263" y1="2387.090013" x2="152.07554" y2="2387.090013" stroke="black" stroke-width="5.94"/>
<line x1="152.07554" y1="2403.380829" x2="152.07554" y2="2387.090013" stroke="black" stroke-width="5.94"/>
<line x1="884.3241" y1="2409.019081" x2="615.869846" y2="2409.019081" stroke="black" stroke-width="5.94"/>
<line x1="615.869846" y1="2409.019081" x2="615.869846" y2="2450.403509" stroke="black" stroke-width="5.94"/>
<line x1="615.869846" y1="2450.403509" x2="884.3241" y2="2450.403509" stroke="black" stroke-width="5.94"/>
<line x1="884.3241" y1="2450.403509" x2="884.3241" y2="2409.019081" stroke="black" stroke-width="5.94"/>
<line x1="859.275631" y1="2449.858976" x2="859.275631" y2="2409.563614" stroke="black" stroke-width="5.94"/>
<line x1="641.462847" y1="2449.858976" x2="641.462847" y2="2407.930018" stroke="black" stroke-width="5.94"/>
<line x1="859.820161" y1="2430.800361" x2="642.00738" y2="2430.800361" stroke="black" stroke-width="5.94"/>
<line x1="1419.598145" y1="2409.843648" x2="1151.774062" y2="2409.843648" stroke="black" stroke-width="5.94"/>
<line x1="1151.774062" y1="2409.843648" x2="1151.774062" y2="2451.130932" stroke="black" stroke-width="5.94"/>
<line x1="1151.774062" y1="2451.130932" x2="1419.598145" y2="2451.130932" stroke="black" stroke-width="5.94"/>
<line x1="1419.598145" y1="2451.130932" x2="1419.598145" y2="2409.843648" stroke="black" stroke-width="5.94"/>
<line x1="1394.608472" y1="2450.587676" x2="1394.608472" y2="2410.386901" stroke="black" stroke-width="5.94"/>
<line x1="1177.306987" y1="2450.587676" x2="1177.306987" y2="2408.75714" stroke="black" stroke-width="5.94"/>
<line x1="1395.151725" y1="2431.573798" x2="1177.850243" y2="2431.573798" stroke="black" stroke-width="5.94"/>
<line x1="91.206852" y1="1129.263003" x2="91.206852" y2="871.52171" stroke="black" stroke-width="5.94"/>
<line x1="91.206852" y1="871.52171" x2="51.473912" y2="871.52171" stroke="black" stroke-width="5.94"/>
<line x1="51.473912" y1="871.52171" x2="51.473912" y2="1129.263003" stroke="black" stroke-width="5.94"/>
<line x1="51.473912" y1="1129.263003" x2="91.206852" y2="1129.263003" stroke="black" stroke-width="5.94"/>
<line x1="51.996714" y1="1105.214118" x2="90.68405" y2="1105.214118" stroke="black" stroke-width="5.94"/>
<line x1="51.996714" y1="896.093395" x2="92.252454" y2="896.093395" stroke="black" stroke-width="5.94"/>
<line x1="70.294778" y1="1105.73692" x2="70.294778" y2="896.616197" stroke="black" stroke-width="5.94"/>
<line x1="1129.568108" y1="1281.012226" x2="1129.568108" y2="1581.297967" stroke="black" stroke-width="5.94"/>
<line x1="1129.568108" y1="1581.297967" x2="1604.618222" y2="1581.297967" stroke="black" stroke-width="5.94"/>
<line x1="1604.618222" y1="1581.297967" x2="1604.618222" y2="1281.012226" stroke="black" stroke-width="5.94"/>
<line x1="1604.618222" y1="1281.012226" x2="1129.568108" y2="1281.012226" stroke="black" stroke-width="5.94"/>
<line x1="1519.649908" y1="1280.046676" x2="1519.649908" y2="1582.263517" stroke="black" stroke-width="5.94"/>
<line x1="1519.649908" y1="1582.263517" x2="1448.199281" y2="1281.977776" stroke="black" stroke-width="5.94"/>
<line x1="1448.199281" y1="1281.977776" x2="1381.5764" y2="1327.358578" stroke="black" stroke-width="5.94"/>
<line x1="1381.5764" y1="1327.358578" x2="1520.615458" y2="1582.263517" stroke="black" stroke-width="5.94"/>
<line x1="1789.821403" y1="84.339291" x2="2052.604089" y2="84.339291" stroke="black" stroke-width="5.94"/>
<line x1="2052.604089" y1="84.339291" x2="2052.604089" y2="43.829181" stroke="black" stroke-width="5.94"/>
<line x1="2052.604089" y1="43.829181" x2="1789.821403" y2="43.829181" stroke="black" stroke-width="5.94"/>
<line x1="1789.821403" y1="43.829181" x2="1789.821403" y2="84.339291" stroke="black" stroke-width="5.94"/>
<line x1="1814.34068" y1="44.36221" x2="1814.34068" y2="83.806265" stroke="black" stroke-width="5.94"/>
<line x1="2027.551786" y1="44.36221" x2="2027.551786" y2="85.405346" stroke="black" stroke-width="5.94"/>
<line x1="1813.807654" y1="63.018183" x2="2027.018756" y2="63.018183" stroke="black" stroke-width="5.94"/>
<line x1="422.152873" y1="107.411014" x2="572.735731" y2="107.411014" stroke="black" stroke-width="5.939997"/>
<line x1="572.735731" y1="107.411014" x2="572.735731" y2="258.302441" stroke="black" stroke-width="5.939997"/>
<line x1="572.735731" y1="258.302441" x2="422.152873" y2="258.302441" stroke="black" stroke-width="5.939997"/>
<line x1="422.152873" y1="258.302441" x2="422.152873" y2="107.411014" stroke="black" stroke-width="5.939997"/>
<line x1="421.844303" y1="107.10244" x2="572.735731" y2="258.302441" stroke="black" stroke-width="5.939997"/>
<line x1="422.152873" y1="257.993871" x2="572.427157" y2="107.411014" stroke="black" stroke-width="5.939997"/>
<line x1="1997.715918" y1="1551.584084" x2="1997.715918" y2="1281.036884" stroke="black" stroke-width="5.94"/>
<line x1="1997.715918" y1="1281.036884" x2="2129.663118" y2="1281.036884" stroke="black" stroke-width="5.94"/>
<line x1="2129.663118" y1="1551.584084" x2="2129.663118" y2="1281.036884" stroke="black" stroke-width="5.94"/>
<line x1="1997.715918" y1="1551.584084" x2="2129.663118" y2="1551.584084" stroke="black" stroke-width="5.94"/>
<line x1="2004.368718" y1="1544.931284" x2="2004.368718" y2="1406.885684" stroke="black" stroke-width="5.94"/>
<line x1="2004.368718" y1="1406.885684" x2="2122.455918" y2="1406.885684" stroke="black" stroke-width="5.94"/>
<line x1="2122.455918" y1="1544.931284" x2="2122.455918" y2="1406.885684" stroke="black" stroke-width="5.94"/>
<line x1="2004.368718" y1="1544.931284" x2="2122.455918" y2="1544.931284" stroke="black" stroke-width="5.94"/>
<line x1="2012.130318" y1="1392.471284" x2="2012.130318" y2="1295.451283" stroke="black" stroke-width="5.94"/>
<line x1="2032.643118" y1="1392.471284" x2="2032.643118" y2="1295.451283" stroke="black" stroke-width="5.94"/>
<line x1="2053.710318" y1="1391.916884" x2="2053.710318" y2="1294.896883" stroke="black" stroke-width="5.94"/>
<line x1="2074.223118" y1="1391.916884" x2="2074.223118" y2="1294.896883" stroke="black" stroke-width="5.94"/>
<line x1="2094.735918" y1="1392.471284" x2="2094.735918" y2="1295.451283" stroke="black" stroke-width="5.94"/>
<line x1="2115.248718" y1="1392.471284" x2="2115.248718" y2="1295.451283" stroke="black" stroke-width="5.94"/>
<line x1="2122.455918" y1="1492.263284" x2="2108.595918" y2="1492.263284" stroke="black" stroke-width="5.94"/>
<line x1="2108.595918" y1="1492.263284" x2="2108.595918" y2="1457.890483" stroke="black" stroke-width="5.94"/>
<line x1="2108.595918" y1="1457.890483" x2="2121.901518" y2="1457.890483" stroke="black" stroke-width="5.94"/>
<circle cx="2019.337518" cy="1422.408884" r="8.315999999999999" fill="none" stroke="black" stroke-width="5.94"/>
<line x1="1133.440387" y1="700.920129" x2="1107.833074" y2="718.192477" stroke="black" stroke-width="5.94"/>
<line x1="1107.833074" y1="718.192477" x2="1225.019331" y2="891.928247" stroke="black" stroke-width="5.94"/>
<line x1="1225.019331" y1="891.928247" x2="1250.626644" y2="874.655895" stroke="black" stroke-width="5.94"/>
<line x1="1250.626644" y1="874.655895" x2="1133.440387" y2="700.920129" stroke="black" stroke-width="5.94"/>
<line x1="964.432125" y1="814.917639" x2="938.824814" y2="832.18999" stroke="black" stroke-width="5.94"/>
<line x1="938.824814" y1="832.18999" x2="1056.011065" y2="1005.925757" stroke="black" stroke-width="5.94"/>
<line x1="1056.011065" y1="1005.925757" x2="1081.618382" y2="988.653409" stroke="black" stroke-width="5.94"/>
<line x1="1081.618382" y1="988.653409" x2="964.432125" y2="814.917639" stroke="black" stroke-width="5.94"/>
<line x1="1108.227034" y1="717.926748" x2="964.432125" y2="814.917639" stroke="black" stroke-width="5.94"/>
<line x1="1225.27579" y1="890.608868" x2="1217.829172" y2="927.15739" stroke="black" stroke-width="5.94"/>
<line x1="1117.369714" y1="994.918152" x2="1080.692966" y2="988.13122" stroke="black" stroke-width="5.94"/>
<line x1="1219.405004" y1="926.094477" x2="1115.793878" y2="995.981062" stroke="black" stroke-width="5.94"/>
<line x1="1132.811552" y1="755.224592" x2="989.016646" y2="852.21548" stroke="black" stroke-width="5.94"/>
<line x1="118.083214" y1="572.271464" x2="146.919643" y2="583.340733" stroke="black" stroke-width="5.94"/>
<line x1="146.919643" y1="583.340733" x2="222.02038" y2="387.696632" stroke="black" stroke-width="5.94"/>
<line x1="222.02038" y1="387.696632" x2="193.183944" y2="376.627363" stroke="black" stroke-width="5.94"/>
<line x1="193.183944" y1="376.627363" x2="118.083214" y2="572.271464" stroke="black" stroke-width="5.94"/>
<line x1="308.403665" y1="645.328642" x2="337.240094" y2="656.397911" stroke="black" stroke-width="5.94"/>
<line x1="337.240094" y1="656.397911" x2="412.340831" y2="460.753811" stroke="black" stroke-width="5.94"/>
<line x1="412.340831" y1="460.753811" x2="383.504398" y2="449.684542" stroke="black" stroke-width="5.94"/>
<line x1="383.504398" y1="449.684542" x2="308.403665" y2="645.328642" stroke="black" stroke-width="5.94"/>
<line x1="146.476004" y1="583.170439" x2="308.403665" y2="645.328642" stroke="black" stroke-width="5.94"/>
<line x1="220.792509" y1="388.243314" x2="255.00251" y2="373.37986" stroke="black" stroke-width="5.94"/>
<line x1="368.130051" y1="416.805454" x2="383.607441" y2="450.742109" stroke="black" stroke-width="5.94"/>
<line x1="253.227962" y1="372.69867" x2="369.904603" y2="417.48664" stroke="black" stroke-width="5.94"/>
<line x1="162.927508" y1="541.638818" x2="324.855168" y2="603.79702" stroke="black" stroke-width="5.94"/>
<line x1="703.538091" y1="654.768893" x2="882.761491" y2="547.080613" stroke="black" stroke-width="5.94"/>
<line x1="882.761491" y1="547.080613" x2="763.325396" y2="348.305572" stroke="black" stroke-width="5.94"/>
<line x1="763.325396" y1="348.305572" x2="584.102003" y2="455.993852" stroke="black" stroke-width="5.94"/>
<line x1="584.102003" y1="455.993852" x2="703.538091" y2="654.768893" stroke="black" stroke-width="5.94"/>
<line x1="686.89536" y1="627.070732" x2="866.118756" y2="519.382453" stroke="black" stroke-width="5.94"/>
<line x1="1454.096615" y1="1247.851054" x2="1454.096615" y2="1097.268196" stroke="black" stroke-width="5.939997"/>
<line x1="1454.096615" y1="1097.268196" x2="1604.988043" y2="1097.268196" stroke="black" stroke-width="5.939997"/>
<line x1="1604.988043" y1="1097.268196" x2="1604.988043" y2="1247.851054" stroke="black" stroke-width="5.939997"/>
<line x1="1604.988043" y1="1247.851054" x2="1454.096615" y2="1247.851054" stroke="black" stroke-width="5.939997"/>
<line x1="1453.788042" y1="1248.159624" x2="1604.988043" y2="1097.268196" stroke="black" stroke-width="5.939997"/>
<line x1="1604.679473" y1="1247.851054" x2="1454.096615" y2="1097.576769" stroke="black" stroke-width="5.939997"/>
<line x1="306.186722" y1="2286.349246" x2="223.138885" y2="2216.663836" stroke="black" stroke-width="5.94"/>
<line x1="223.138885" y1="2216.663836" x2="292.967093" y2="2133.445819" stroke="black" stroke-width="5.94"/>
<line x1="292.967093" y1="2133.445819" x2="376.014929" y2="2203.131229" stroke="black" stroke-width="5.94"/>
<line x1="376.014929" y1="2203.131229" x2="306.186722" y2="2286.349246" stroke="black" stroke-width="5.94"/>
<line x1="306.214105" y1="2286.662222" x2="292.967093" y2="2133.445819" stroke="black" stroke-width="5.94"/>
<line x1="375.872132" y1="2203.30141" x2="223.309066" y2="2216.806634" stroke="black" stroke-width="5.94"/>
<line x1="91.338093" y1="1533.406083" x2="91.338093" y2="1275.66479" stroke="black" stroke-width="5.94"/>
<line x1="91.338093" y1="1275.66479" x2="51.605152" y2="1275.66479" stroke="black" stroke-width="5.94"/>
<line x1="51.605152" y1="1275.66479" x2="51.605152" y2="1533.406083" stroke="black" stroke-width="5.94"/>
<line x1="51.605152" y1="1533.406083" x2="91.338093" y2="1533.406083" stroke="black" stroke-width="5.94"/>
<line x1="52.127955" y1="1509.357198" x2="90.81529" y2="1509.357198" stroke="black" stroke-width="5.94"/>
<line x1="52.127955" y1="1300.236475" x2="92.383695" y2="1300.236475" stroke="black" stroke-width="5.94"/>
<line x1="70.426019" y1="1509.88" x2="70.426019" y2="1300.759277" stroke="black" stroke-width="5.94"/>
<line x1="1367.452241" y1="690.245025" x2="1387.358244" y2="690.245025" stroke="black" stroke-width="5.94"/>
<line x1="1387.358244" y1="690.245025" x2="1387.358244" y2="651.404044" stroke="black" stroke-width="5.94"/>
<line x1="1387.358244" y1="651.404044" x2="1367.452241" y2="651.404044" stroke="black" stroke-width="5.94"/>
<line x1="1367.452241" y1="651.404044" x2="1367.452241" y2="690.245025" stroke="black" stroke-width="5.94"/>
<line x1="1582.048647" y1="651.404044" x2="1582.048647" y2="457.684666" stroke="black" stroke-width="5.94"/>
<line x1="1582.53416" y1="691.21605" x2="1602.440159" y2="691.21605" stroke="black" stroke-width="5.94"/>
<line x1="1602.440159" y1="691.21605" x2="1602.440159" y2="652.37507" stroke="black" stroke-width="5.94"/>
<line x1="1602.440159" y1="652.37507" x2="1582.53416" y2="652.37507" stroke="black" stroke-width="5.94"/>
<line x1="1582.53416" y1="652.37507" x2="1582.53416" y2="691.21605" stroke="black" stroke-width="5.94"/>
<path d="m 1387.358244,652.860582 a 194.69040350000003,194.69040350000003 0 0 1 194.69040300000006,-194.690404" fill="none" stroke="black" stroke-width="5.94"/>
<line x1="1610.875276" y1="691.58629" x2="1610.875276" y2="713.561429" stroke="black" stroke-width="5.94"/>
<line x1="1610.875276" y1="713.561429" x2="1653.753595" y2="713.561429" stroke="black" stroke-width="5.94"/>
<line x1="1653.753595" y1="713.561429" x2="1653.753595" y2="691.58629" stroke="black" stroke-width="5.94"/>
<line x1="1653.753595" y1="691.58629" x2="1610.875276" y2="691.58629" stroke="black" stroke-width="5.94"/>
<line x1="1653.753595" y1="928.488997" x2="1867.609207" y2="928.488997" stroke="black" stroke-width="5.94"/>
<line x1="1609.80332" y1="929.024976" x2="1609.80332" y2="951.000115" stroke="black" stroke-width="5.94"/>
<line x1="1609.80332" y1="951.000115" x2="1652.681636" y2="951.000115" stroke="black" stroke-width="5.94"/>
<line x1="1652.681636" y1="951.000115" x2="1652.681636" y2="929.024976" stroke="black" stroke-width="5.94"/>
<line x1="1652.681636" y1="929.024976" x2="1609.80332" y2="929.024976" stroke="black" stroke-width="5.94"/>
<path d="m 1652.145657,713.561429 a 214.9275695,214.9275695 0 0 1 214.92757099999994,214.92756800000006" fill="none" stroke="black" stroke-width="5.94"/>
<line x1="2135.974526" y1="732.297968" x2="2135.974526" y2="990.03926" stroke="black" stroke-width="5.94"/>
<line x1="2135.974526" y1="990.03926" x2="2175.707467" y2="990.03926" stroke="black" stroke-width="5.94"/>
<line x1="2175.707467" y1="990.03926" x2="2175.707467" y2="732.297968" stroke="black" stroke-width="5.94"/>
<line x1="2175.707467" y1="732.297968" x2="2135.974526" y2="732.297968" stroke="black" stroke-width="5.94"/>
<line x1="2175.184664" y1="756.346853" x2="2136.497329" y2="756.346853" stroke="black" stroke-width="5.94"/>
<line x1="2175.184664" y1="965.467576" x2="2134.928925" y2="965.467576" stroke="black" stroke-width="5.94"/>
<line x1="2156.8866" y1="755.82405" x2="2156.8866" y2="964.944773" stroke="black" stroke-width="5.94"/>
<line x1="2133.707354" y1="357.259069" x2="2133.707354" y2="615.000362" stroke="black" stroke-width="5.94"/>
<line x1="2133.707354" y1="615.000362" x2="2173.440294" y2="615.000362" stroke="black" stroke-width="5.94"/>
<line x1="2173.440294" y1="615.000362" x2="2173.440294" y2="357.259069" stroke="black" stroke-width="5.94"/>
<line x1="2173.440294" y1="357.259069" x2="2133.707354" y2="357.259069" stroke="black" stroke-width="5.94"/>
<line x1="2172.917492" y1="381.307954" x2="2134.230156" y2="381.307954" stroke="black" stroke-width="5.94"/>
<line x1="2172.917492" y1="590.428677" x2="2132.661752" y2="590.428677" stroke="black" stroke-width="5.94"/>
<line x1="2154.619427" y1="380.785152" x2="2154.619427" y2="589.905875" stroke="black" stroke-width="5.94"/>
<line x1="820.065622" y1="948.639367" x2="801.863047" y2="948.639367" stroke="black" stroke-width="5.94"/>
<line x1="801.863047" y1="948.639367" x2="801.863047" y2="657.398148" stroke="black" stroke-width="5.94"/>
<line x1="820.065622" y1="657.398148" x2="801.863047" y2="657.398148" stroke="black" stroke-width="5.94"/>
<line x1="820.065622" y1="948.639367" x2="820.065622" y2="657.398148" stroke="black" stroke-width="5.94"/>
<line x1="256.999264" y1="948.639367" x2="237.583183" y2="948.639367" stroke="black" stroke-width="5.94"/>
<line x1="237.583183" y1="948.639367" x2="237.583183" y2="657.398148" stroke="black" stroke-width="5.94"/>
<line x1="256.999264" y1="657.398148" x2="237.583183" y2="657.398148" stroke="black" stroke-width="5.94"/>
<line x1="256.999264" y1="948.639367" x2="256.999264" y2="657.398148" stroke="black" stroke-width="5.94"/>
<path d="m 820.065622,948.639367 a 291.241219,291.241219 0 0 1 -291.241219,-291.241219" fill="none" stroke="black" stroke-width="5.94"/>
<path d="m 528.824403,657.398148 a 291.2412195,291.2412195 0 0 1 -291.24122,291.241219" fill="none" stroke="black" stroke-width="5.94"/>
<line x1="925.450099" y1="436.518139" x2="925.450099" y2="178.776847" stroke="black" stroke-width="5.94"/>
<line x1="925.450099" y1="178.776847" x2="885.717159" y2="178.776847" stroke="black" stroke-width="5.94"/>
<line x1="885.717159" y1="178.776847" x2="885.717159" y2="436.518139" stroke="black" stroke-width="5.94"/>
<line x1="885.717159" y1="436.518139" x2="925.450099" y2="436.518139" stroke="black" stroke-width="5.94"/>
<line x1="886.239961" y1="412.469254" x2="924.927297" y2="412.469254" stroke="black" stroke-width="5.94"/>
<line x1="886.239961" y1="203.348531" x2="926.495701" y2="203.348531" stroke="black" stroke-width="5.94"/>
<line x1="904.538026" y1="412.992056" x2="904.538026" y2="203.871334" stroke="black" stroke-width="5.94"/>
<line x1="2123.989933" y1="236.163048" x2="2128.025552" y2="202.496894" stroke="black" stroke-width="5.94"/>
<line x1="2128.025552" y1="202.496894" x2="2011.402816" y2="89.875632" stroke="black" stroke-width="5.94"/>
<line x1="2011.402816" y1="89.875632" x2="1974.859804" y2="97.602496" stroke="black" stroke-width="5.94"/>
<line x1="2104.628107" y1="221.70657" x2="1991.453894" y2="112.415503" stroke="black" stroke-width="5.94"/>
<circle cx="2033.114266" cy="185.968741" r="14.38202781392063" fill="none" stroke="black" stroke-width="5.94"/>
<path d="m 2103.908634,219.990774 a 82.3697961942439,82.3697961942439 0 1 1 -110.8318589999999,-106.41396799999998" fill="none" stroke="black" stroke-width="5.94"/>
<path d="m 2124.455837,235.607236 a 105.03238518764651,105.03238518764651 0 1 1 -148.38812400000006,-138.592216" fill="none" stroke="black" stroke-width="5.94"/>
<line x1="1179.81666" y1="653.541395" x2="1179.81666" y2="87.848062" stroke="black" stroke-width="5.94"/>
<line x1="1179.81666" y1="87.848062" x2="927.888456" y2="87.848062" stroke="black" stroke-width="5.94"/>
<line x1="927.888456" y1="87.848062" x2="927.888456" y2="653.541395" stroke="black" stroke-width="5.94"/>
<line x1="927.888456" y1="653.541395" x2="1179.81666" y2="653.541395" stroke="black" stroke-width="5.94"/>
<line x1="966.822816" y1="196.635242" x2="966.822816" y2="607.736266" stroke="black" stroke-width="5.94"/>
<line x1="966.822816" y1="607.736266" x2="1137.446917" y2="607.736266" stroke="black" stroke-width="5.94"/>
<line x1="1137.446917" y1="607.736266" x2="1137.446917" y2="188.619344" stroke="black" stroke-width="5.94"/>
<path d="m 966.453507,197.807224 a 91.61025471866458,91.61025471866458 0 0 1 172.59963600000015,-6.208289999999977" fill="none" stroke="black" stroke-width="5.94"/>
<line x1="2082.505544" y1="663.30395" x2="2082.505544" y2="479.55995" stroke="black" stroke-width="5.94"/>
<line x1="2082.505544" y1="479.55995" x2="2131.609544" y2="479.55995" stroke="black" stroke-width="5.94"/>
<line x1="2131.609544" y1="663.30395" x2="2131.609544" y2="479.55995" stroke="black" stroke-width="5.94"/>
<line x1="2082.505544" y1="663.30395" x2="2131.609544" y2="663.30395" stroke="black" stroke-width="5.94"/>
<line x1="2054.785544" y1="621.72395" x2="2082.505544" y2="621.72395" stroke="black" stroke-width="5.94"/>
<line x1="2082.505544" y1="522.72395" x2="2053.201544" y2="522.72395" stroke="black" stroke-width="5.94"/>
<circle cx="2009.641544" cy="573.01595" r="66.52799999999999" fill="none" stroke="black" stroke-width="5.94"/>
<circle cx="2009.641544" cy="573.01595" r="57.024" fill="none" stroke="black" stroke-width="5.94"/>
<line x1="1578.175507" y1="225.210417" x2="1184.931634" y2="225.210417" stroke="black" stroke-width="5.94"/>
<line x1="1180.976227" y1="226.2067" x2="1180.976227" y2="90.137923" stroke="black" stroke-width="5.94"/>
<line x1="1577.711117" y1="88.986417" x2="1180.670888" y2="88.986417" stroke="black" stroke-width="5.94"/>
<line x1="1576.976227" y1="224.515668" x2="1576.976227" y2="89.251612" stroke="black" stroke-width="5.94"/>
<line x1="1566.680227" y1="214.122417" x2="1443.128227" y2="214.122417" stroke="black" stroke-width="5.94"/>
<line x1="1443.128227" y1="214.122417" x2="1443.128227" y2="100.074417" stroke="black" stroke-width="5.94"/>
<line x1="1566.680227" y1="100.074417" x2="1443.128227" y2="100.074417" stroke="black" stroke-width="5.94"/>
<line x1="1566.680227" y1="214.122417" x2="1566.680227" y2="100.074417" stroke="black" stroke-width="5.94"/>
<line x1="1424.120227" y1="206.994417" x2="1337.000227" y2="206.994417" stroke="black" stroke-width="5.94"/>
<line x1="1424.120227" y1="187.194417" x2="1337.000227" y2="187.194417" stroke="black" stroke-width="5.94"/>
<line x1="1423.328227" y1="166.602417" x2="1337.000227" y2="166.602417" stroke="black" stroke-width="5.94"/>
<line x1="1423.328227" y1="146.802417" x2="1337.000227" y2="146.802417" stroke="black" stroke-width="5.94"/>
<line x1="1424.120227" y1="127.002417" x2="1337.000227" y2="127.002417" stroke="black" stroke-width="5.94"/>
<line x1="1424.120227" y1="107.202417" x2="1337.000227" y2="107.202417" stroke="black" stroke-width="5.94"/>
<line x1="1519.160227" y1="100.866417" x2="1519.160227" y2="114.330417" stroke="black" stroke-width="5.94"/>
<line x1="1519.160227" y1="114.330417" x2="1489.064227" y2="114.330417" stroke="black" stroke-width="5.94"/>
<line x1="1489.064227" y1="114.330417" x2="1489.064227" y2="101.658417" stroke="black" stroke-width="5.94"/>
<line x1="1316.408227" y1="214.122417" x2="1192.856227" y2="214.122417" stroke="black" stroke-width="5.94"/>
<line x1="1192.856227" y1="214.122417" x2="1192.856227" y2="100.074417" stroke="black" stroke-width="5.94"/>
<line x1="1316.408227" y1="100.074417" x2="1192.856227" y2="100.074417" stroke="black" stroke-width="5.94"/>
<line x1="1316.408227" y1="214.122417" x2="1316.408227" y2="100.074417" stroke="black" stroke-width="5.94"/>
<line x1="1268.888227" y1="100.074417" x2="1268.888227" y2="113.538417" stroke="black" stroke-width="5.94"/>
<line x1="1268.888227" y1="113.538417" x2="1238.792227" y2="113.538417" stroke="black" stroke-width="5.94"/>
<line x1="1238.792227" y1="113.538417" x2="1238.792227" y2="100.866417" stroke="black" stroke-width="5.94"/>
<circle cx="1457.384227" cy="199.866417" r="7.128" fill="none" stroke="black" stroke-width="5.94"/>
<circle cx="1207.112227" cy="199.074417" r="7.128" fill="none" stroke="black" stroke-width="5.94"/>
<line x1="2132.353123" y1="870.65414" x2="1956.673122" y2="870.65414" stroke="black" stroke-width="5.94"/>
<line x1="1956.673122" y1="870.65414" x2="1956.673122" y2="694.614142" stroke="black" stroke-width="5.94"/>
<line x1="1956.673122" y1="694.614142" x2="2132.353123" y2="694.614142" stroke="black" stroke-width="5.94"/>
<line x1="2132.353123" y1="694.614142" x2="2132.353123" y2="870.65414" stroke="black" stroke-width="5.94"/>
<line x1="2132.713123" y1="871.014141" x2="1956.673122" y2="694.614142" stroke="black" stroke-width="5.94"/>
<line x1="2132.353123" y1="694.974142" x2="1957.033122" y2="870.65414" stroke="black" stroke-width="5.94"/>
<line x1="287.112415" y1="1524.408633" x2="97.032415" y2="1524.408633" stroke="black" stroke-width="5.94"/>
<line x1="97.032415" y1="1524.408633" x2="97.032415" y2="1988.203833" stroke="black" stroke-width="5.94"/>
<line x1="97.032415" y1="1988.203833" x2="287.112415" y2="1988.203833" stroke="black" stroke-width="5.94"/>
<line x1="287.112415" y1="1988.203833" x2="287.112415" y2="1964.443833" stroke="black" stroke-width="5.94"/>
<line x1="287.112415" y1="1964.443833" x2="119.842015" y2="1964.443833" stroke="black" stroke-width="5.94"/>
<line x1="119.842015" y1="1964.443833" x2="119.842015" y2="1549.119033" stroke="black" stroke-width="5.94"/>
<line x1="119.842015" y1="1549.119033" x2="287.112415" y2="1549.119033" stroke="black" stroke-width="5.94"/>
<line x1="287.112415" y1="1549.119033" x2="287.112415" y2="1524.408633" stroke="black" stroke-width="5.94"/>
<line x1="281.410015" y1="1549.119033" x2="281.410015" y2="1964.443833" stroke="black" stroke-width="5.94"/>
<line x1="282.360415" y1="1756.306233" x2="120.792415" y2="1756.306233" stroke="black" stroke-width="5.94"/>
</g>
</svg>
